<svg version="1.1" id="Layer_1" xmlns="http://www.w3.org/2000/svg" xmlns:xlink="http://www.w3.org/1999/xlink" x="0px" y="0px"
	 width="100%" viewBox="0 0 64 64" enable-background="new 0 0 64 64" xml:space="preserve">
<path fill="#050C0B" opacity="1.000000" stroke="none" 
	d="
M65.000000,25.000000 
	C65.000000,31.021152 65.000000,37.042305 64.730698,43.725105 
	C63.999634,44.854382 63.399876,45.246586 63.096897,45.800983 
	C58.764912,53.727821 52.867252,59.891861 44.166752,63.043755 
	C43.319469,63.350700 42.716419,64.331825 42.000000,65.000000 
	C36.311958,65.000000 30.623919,65.000000 24.263741,64.730965 
	C21.899942,63.495075 20.235022,62.477440 18.511990,61.570171 
	C11.114007,57.674755 5.324734,52.372971 3.421867,44.008392 
	C6.961549,43.163486 10.064726,42.321930 13.479945,41.644356 
	C17.808397,44.568245 21.824806,47.328144 26.069164,50.347534 
	C31.286940,53.381397 36.163582,52.793022 40.764614,49.807949 
	C44.657791,47.282116 48.615047,44.748863 52.057461,41.674217 
	C54.125340,39.827263 55.260586,36.936115 56.824600,34.007896 
	C56.827827,32.826099 56.821434,32.150654 56.720322,31.250656 
	C56.630142,30.543964 56.634686,30.061829 56.898758,29.303925 
	C59.772190,27.685436 62.386093,26.342718 65.000000,25.000000 
z"/>
<path fill="#081310" opacity="1.000000" stroke="none" 
	d="
M13.167902,41.480377 
	C10.064726,42.321930 6.961549,43.163486 3.091177,44.000408 
	C1.882653,43.997185 1.441327,43.998592 1.000000,44.000000 
	C1.000000,37.645603 1.000000,31.291204 1.272885,24.476408 
	C1.727770,24.015230 1.909770,24.014448 2.486028,23.951515 
	C6.866891,23.581312 10.853496,23.273258 14.649424,23.233286 
	C9.326462,27.529390 9.326462,27.529390 10.581954,31.612658 
	C17.015800,28.054016 23.312778,24.698359 29.474085,21.109762 
	C32.578697,19.301506 35.089165,20.104380 37.747696,21.931112 
	C42.054424,24.890345 45.850010,28.796827 51.675190,28.966221 
	C52.862751,29.000753 54.004948,30.595304 55.156654,31.950733 
	C55.138966,33.070797 55.132683,33.710846 54.957443,34.666893 
	C49.455345,37.701523 43.881134,40.044529 38.868042,43.261845 
	C35.097916,45.681446 31.840200,46.750282 27.770569,43.788860 
	C21.839113,40.433151 16.124105,37.334503 10.409097,34.235859 
	C9.959422,34.699421 9.509748,35.162983 9.060073,35.626545 
	C10.429350,37.577820 11.798627,39.529099 13.167902,41.480377 
z"/>
<path fill="#0A1615" opacity="1.000000" stroke="none" 
	d="
M14.840099,22.965202 
	C10.853496,23.273258 6.866891,23.581312 2.556933,23.595512 
	C5.439659,13.407622 11.863898,6.667157 21.739323,3.226110 
	C23.236347,2.704478 24.583517,1.752775 26.000000,1.000000 
	C31.022093,1.000000 36.044186,1.000000 41.724037,1.277128 
	C45.266586,3.367381 48.151371,5.180506 50.689053,7.098850 
	C45.447598,9.186100 40.553249,11.168130 35.263840,13.160184 
	C31.460329,14.193753 27.840210,14.791836 24.699785,16.354155 
	C21.186447,18.101992 18.107872,20.723749 14.840099,22.965202 
z"/>
<path fill="#091411" opacity="1.000000" stroke="none" 
	d="
M35.658897,13.150160 
	C40.553249,11.168130 45.447598,9.186100 51.003101,7.220355 
	C53.782558,9.020859 56.154015,10.583236 57.958530,12.642435 
	C60.524162,15.570169 62.673054,18.863098 65.000000,22.000000 
	C65.000000,22.750000 65.000000,23.500000 65.000000,24.625000 
	C62.386093,26.342718 59.772190,27.685436 56.710686,29.004696 
	C55.175674,27.554022 54.352364,25.753176 52.954540,24.765087 
	C47.285313,20.757656 41.439545,16.999969 35.658897,13.150160 
z"/>
<path fill="#000000" opacity="1.000000" stroke="none" 
	d="
M25.531321,1.000000 
	C24.583517,1.752775 23.236347,2.704478 21.739323,3.226110 
	C11.863898,6.667157 5.439659,13.407622 2.162674,23.657663 
	C1.909770,24.014448 1.727770,24.015230 1.272885,24.008005 
	C1.000000,16.403925 1.000000,8.807849 1.000000,1.000000 
	C9.019642,1.000000 17.041142,1.000000 25.531321,1.000000 
z"/>
<path fill="#000000" opacity="1.000000" stroke="none" 
	d="
M65.000000,21.531088 
	C62.673054,18.863098 60.524162,15.570169 57.958530,12.642435 
	C56.154015,10.583236 53.782558,9.020859 51.350204,7.115135 
	C48.151371,5.180506 45.266586,3.367381 42.190903,1.277128 
	C49.589504,1.000000 57.179005,1.000000 65.000000,1.000000 
	C65.000000,7.685621 65.000000,14.373899 65.000000,21.531088 
z"/>
<path fill="#000000" opacity="1.000000" stroke="none" 
	d="
M1.000000,44.468910 
	C1.441327,43.998592 1.882653,43.997185 2.654670,44.003761 
	C5.324734,52.372971 11.114007,57.674755 18.511990,61.570171 
	C20.235022,62.477440 21.899942,63.495075 23.795801,64.730965 
	C16.410498,65.000000 8.820997,65.000000 1.000000,65.000000 
	C1.000000,58.314381 1.000000,51.626102 1.000000,44.468910 
z"/>
<path fill="#000000" opacity="1.000000" stroke="none" 
	d="
M42.468735,65.000000 
	C42.716419,64.331825 43.319469,63.350700 44.166752,63.043755 
	C52.867252,59.891861 58.764912,53.727821 63.096897,45.800983 
	C63.399876,45.246586 63.999634,44.854382 64.730698,44.193375 
	C65.000000,50.929600 65.000000,57.859203 65.000000,65.000000 
	C57.647167,65.000000 50.292320,65.000000 42.468735,65.000000 
z"/>
<path fill="#4AB95A" opacity="1.000000" stroke="none" 
	d="
M35.263840,13.160183 
	C41.439545,16.999969 47.285313,20.757656 52.954540,24.765087 
	C54.352364,25.753176 55.175674,27.554022 56.451160,29.280466 
	C56.634686,30.061829 56.630142,30.543964 56.445992,31.244642 
	C55.900272,31.465696 55.534164,31.468208 55.168060,31.470720 
	C54.004948,30.595304 52.862751,29.000753 51.675190,28.966221 
	C45.850010,28.796827 42.054424,24.890345 37.747696,21.931112 
	C35.089165,20.104380 32.578697,19.301506 29.474085,21.109762 
	C23.312778,24.698359 17.015800,28.054016 10.581954,31.612658 
	C9.326462,27.529390 9.326462,27.529390 14.649423,23.233284 
	C18.107872,20.723749 21.186447,18.101992 24.699785,16.354155 
	C27.840210,14.791836 31.460329,14.193753 35.263840,13.160183 
z"/>
<path fill="#49B756" opacity="1.000000" stroke="none" 
	d="
M27.987017,44.045925 
	C31.840200,46.750282 35.097916,45.681446 38.868042,43.261845 
	C43.881134,40.044529 49.455345,37.701523 55.240578,34.671585 
	C56.066776,34.411602 56.440876,34.462925 56.814976,34.514248 
	C55.260586,36.936115 54.125340,39.827263 52.057461,41.674217 
	C48.615047,44.748863 44.657791,47.282116 40.764614,49.807949 
	C36.163582,52.793022 31.286940,53.381397 26.282112,50.059105 
	C26.840412,47.689438 27.413713,45.867680 27.987017,44.045925 
z"/>
<path fill="#49B757" opacity="1.000000" stroke="none" 
	d="
M27.770569,43.788860 
	C27.413713,45.867680 26.840412,47.689438 26.054161,49.799622 
	C21.824806,47.328144 17.808397,44.568245 13.479946,41.644360 
	C11.798627,39.529099 10.429350,37.577820 9.060073,35.626545 
	C9.509748,35.162983 9.959422,34.699421 10.409097,34.235859 
	C16.124105,37.334503 21.839113,40.433151 27.770569,43.788860 
z"/>
<path fill="#091411" opacity="1.000000" stroke="none" 
	d="
M56.824600,34.007896 
	C56.440876,34.462925 56.066776,34.411602 55.409538,34.355587 
	C55.132683,33.710846 55.138966,33.070797 55.156654,31.950733 
	C55.534164,31.468208 55.900272,31.465696 56.540710,31.469198 
	C56.821434,32.150654 56.827827,32.826099 56.824600,34.007896 
z"/>
</svg>