<svg width="250" height="250" viewBox="0 0 250 250" fill="none" xmlns="http://www.w3.org/2000/svg">
<g clip-path="url(#clip0_1_2)">
<path fill-rule="evenodd" clip-rule="evenodd" d="M0 125V250H125H250V125V0H125H0V125Z" fill="#122DD8"/>
<path fill-rule="evenodd" clip-rule="evenodd" d="M0 125V250H125H250V125V0H125H0V125ZM108 164.63C108 173.124 105.639 172.476 105.187 163.859C104.955 159.451 105.281 157.895 106.437 157.895C107.564 157.895 108 159.774 108 164.63ZM126.472 167.126C126.805 169.102 128.674 173.006 130.624 175.803C135.678 183.049 133.523 186.158 128.112 179.427C125.85 176.615 123.994 173.791 123.986 173.152C123.979 172.515 123.701 170.088 123.37 167.763C122.605 162.397 125.57 161.788 126.472 167.126ZM136.053 190.32C136.024 191.094 136 193.342 136 195.312C136 198.004 135.488 198.645 133.943 197.885C132.658 197.254 132.096 195.852 132.443 194.148C132.75 192.648 133 190.583 133 189.558C133 188.534 133.699 187.968 134.553 188.303C135.407 188.637 136.082 189.545 136.053 190.32ZM150.878 212.071C150.178 215.53 150.344 217.523 151.537 220.002C153.782 224.664 151.678 226.485 148.528 222.607C145.597 218.996 145.669 219.62 147.135 210.417C148.118 204.252 148.509 203.573 150.042 205.372C151.438 207.011 151.615 208.427 150.878 212.071Z" fill="#0E1A71"/>
<path fill-rule="evenodd" clip-rule="evenodd" d="M0 125V250H125H250V125V0H125H0V125ZM109 163.855C109 170.256 106.608 176.692 104.228 176.692C103.201 176.692 102.946 175.436 103.37 172.462C103.701 170.137 103.979 165.908 103.986 163.064C103.998 158.81 104.443 157.895 106.5 157.895C108.641 157.895 109 158.75 109 163.855ZM127 166.258C127 167.756 128.688 171.32 130.75 174.175C137.599 183.662 137.993 184.846 136.674 192C135.832 196.57 134.991 198.184 133.701 197.714C132.712 197.353 131.976 195.647 132.066 193.923C132.386 187.808 131.963 186.353 128.75 182.519C126.963 180.385 124.994 177.991 124.376 177.195C123.757 176.402 122.934 173.002 122.546 169.643C121.893 163.987 122.032 163.534 124.421 163.534C126.006 163.534 127 164.583 127 166.258ZM151.461 212.718C151.07 216.083 151.363 218.244 152.356 219.297C153.629 220.648 153.583 221.444 152.022 225.056C150.445 228.709 150.052 228.887 148.973 226.444C148.102 224.47 147.368 224.209 146.5 225.564C145.642 226.902 144.963 226.767 144.273 225.117C143.587 223.476 144.005 219.69 145.628 212.846C147.799 203.688 148.128 203.124 150.01 205.327C151.538 207.115 151.9 208.955 151.461 212.718Z" fill="#53D921"/>
<path fill-rule="evenodd" clip-rule="evenodd" d="M0 125V250H125H250V125V0H125H0V125ZM102 14.0977C102 15.6485 101.325 16.9173 100.5 16.9173C99.675 16.9173 99 15.6485 99 14.0977C99 12.547 99.675 11.2782 100.5 11.2782C101.325 11.2782 102 12.547 102 14.0977ZM110.517 22.609C110.867 23.6711 110.151 26.0658 108.927 27.9286L106.702 31.3158L108.844 43.2406C110.022 49.7989 110.784 55.5451 110.536 56.0094C109.209 58.5056 107.232 53.718 105.619 44.0996C103.952 34.1579 103.935 33.1128 105.421 31.5489C106.313 30.6109 106.769 29.0132 106.435 27.9981C105.785 26.0207 107.704 20.6767 109.063 20.6767C109.514 20.6767 110.168 21.547 110.517 22.609ZM123.427 25.4154C125.697 28.6447 124.66 31.7782 122.262 28.9342C120.438 26.7726 119.365 22.5226 120.667 22.6165C121.125 22.6485 122.367 23.9098 123.427 25.4154ZM95.315 52.4511C94.972 54.9135 95.779 57.3609 97.909 60.3214C100.628 64.0996 102.095 69.5489 100.394 69.5489C98.678 69.5489 92.155 57.7556 92.549 55.3665C92.797 53.8628 93.222 51.3083 93.493 49.6936C94.193 45.5207 95.916 48.1297 95.315 52.4511ZM132 60.7538L133.5 72.3684L127.167 79.5733C119.223 88.6128 117.985 87.4662 125.527 78.0564C129.109 73.5865 130.945 70.1109 130.605 68.4455C129.553 63.2951 128.735 46.062 129.615 47.5959C130.102 48.4455 131.175 54.3665 132 60.7538ZM81.818 56.5338C83.643 59.6523 84.962 63.1861 84.749 64.3835C84.533 65.6015 82.409 63.0977 79.932 58.703C74.878 49.7444 76.652 47.703 81.818 56.5338ZM88 80.0432C88 87.0338 88.52 89.1447 91.5 94.2406C94.9 100.056 95.87 103.383 94.167 103.383C93.708 103.383 91.723 100.635 89.755 97.2744C86.675 92.0169 86.094 89.6673 85.583 80.4117C85.081 71.3252 85.223 69.8271 86.495 70.7444C87.517 71.4831 88 74.4643 88 80.0432ZM105.244 84.7425C105.839 92.8553 106.62 95.938 109.088 99.906C110.98 102.949 112.046 106.241 111.827 108.365C111.522 111.316 110.825 110.703 107.223 104.323C103.324 97.4192 102.924 95.8214 102.332 84.8007C101.803 74.9624 101.94 72.9568 103.092 73.6786C103.928 74.203 104.799 78.6805 105.244 84.7425ZM144.923 100.47C144.969 102.645 144.649 103.408 144.138 102.35C142.905 99.7951 141.117 84.9962 141.869 83.5677C142.563 82.25 144.801 94.6353 144.923 100.47ZM151 107.143C151 108.177 150.55 109.023 150 109.023C149.45 109.023 149 108.177 149 107.143C149 106.109 149.45 105.263 150 105.263C150.55 105.263 151 106.109 151 107.143ZM98 118.263C98 126.823 98.3 127.949 102.065 133.555C104.738 137.536 105.792 140.241 105.143 141.461C103.512 144.526 96.04 131.624 96.018 125.705C96.008 122.991 95.719 118.128 95.375 114.897C94.88 110.246 95.088 109.023 96.375 109.023C97.655 109.023 98 110.987 98 118.263ZM115.494 125.605C116.319 133.553 117.221 136.397 120.5 141.374C125.836 149.474 126.115 150.331 125.732 157.425C125.55 160.784 125.761 163.534 126.201 163.534C126.64 163.534 127 164.759 127 166.258C127 167.756 128.688 171.32 130.75 174.175C137.599 183.662 137.993 184.846 136.674 192C135.832 196.57 134.991 198.184 133.701 197.714C132.712 197.353 131.976 195.647 132.066 193.923C132.393 187.675 131.927 186.35 127.585 181.184C124.423 177.425 122.997 174.312 122.561 170.218C122.227 167.075 122.334 164.265 122.8 163.972C123.265 163.68 123.448 160.904 123.206 157.803C122.913 154.049 121.176 149.506 118.015 144.22C113.641 136.908 113.213 135.408 112.613 125.301C111.772 111.135 114.017 111.37 115.494 125.605ZM156.702 136.374C157.143 141.483 156.677 142.859 152.56 148.603C147.644 155.461 147.362 157.763 149.584 172.932C150.07 176.25 149.955 177.079 149.193 175.752C148.6 174.718 147.645 170.066 147.072 165.414C146.085 157.41 146.177 156.699 148.794 152.182C150.314 149.558 152.59 146.053 153.85 144.395C156.11 141.419 156.12 141.244 154.57 131.438C153.707 125.972 153.037 120.594 153.082 119.489C153.211 116.299 156.153 130.019 156.702 136.374ZM108 151.316C108 154.241 107.433 156.015 106.5 156.015C105.567 156.015 105 154.241 105 151.316C105 148.391 105.567 146.617 106.5 146.617C107.433 146.617 108 148.391 108 151.316ZM109 163.855C109 170.256 106.608 176.692 104.228 176.692C103.201 176.692 102.946 175.436 103.37 172.462C103.701 170.137 103.979 165.908 103.986 163.064C103.998 158.81 104.443 157.895 106.5 157.895C108.641 157.895 109 158.75 109 163.855ZM145.817 177.994C147.843 180.78 150.697 185.094 152.16 187.583C154.649 191.818 154.734 192.485 153.495 198.026C152.766 201.284 151.57 203.947 150.835 203.947C149.619 203.947 149.514 202.305 150.25 194.829C150.387 193.432 148.137 188.761 145.25 184.447C137.811 173.335 138.308 167.675 145.817 177.994ZM159.447 182.491C159.125 183.47 158.436 183.776 157.915 183.171C157.394 182.566 157.231 181.271 157.553 180.291C157.875 179.312 158.564 179.006 159.085 179.611C159.606 180.216 159.769 181.511 159.447 182.491ZM106.057 189.406C107.783 199.476 108.527 200.652 114.078 202.088C118.766 203.301 119.311 202.981 123.446 196.613C127.715 190.036 131 187.914 131 191.729C131 192.763 130.479 193.609 129.842 193.609C129.206 193.609 126.393 196.921 123.592 200.968C118.52 208.297 118.479 208.318 113.182 206.333L107.865 204.338L103.148 213.071C100.554 217.874 98.109 221.805 97.716 221.805C95.821 221.805 97.426 216.162 101.412 208.808L105.825 200.667L104.412 193.143C103.636 189.004 103 184.406 103 182.923C103 178.263 104.803 182.086 106.057 189.406ZM145 189.633C145 191.9 140.43 197.368 138.535 197.368C136.04 197.368 136.812 194.767 140.272 191.513C144.218 187.805 145 187.492 145 189.633ZM134.534 204.598C134 209.167 134.426 210.692 137.454 215.032C140.974 220.079 141.999 223.684 139.913 223.684C139.316 223.684 136.85 221.015 134.433 217.754C130.665 212.665 130.128 211.128 130.658 206.945C131.51 200.227 131.889 199.248 133.638 199.248C134.789 199.248 135.007 200.549 134.534 204.598ZM151.461 212.718C151.07 216.083 151.363 218.244 152.356 219.297C153.629 220.648 153.583 221.444 152.022 225.056C150.445 228.709 150.052 228.887 148.973 226.444C148.102 224.47 147.368 224.209 146.5 225.564C145.642 226.902 144.963 226.767 144.273 225.117C143.587 223.476 144.005 219.69 145.628 212.846C147.799 203.688 148.128 203.124 150.01 205.327C151.538 207.115 151.9 208.955 151.461 212.718ZM157.506 229.336C161.501 237.173 159.538 240.224 155.206 232.91C153.395 229.851 152.184 226.524 152.515 225.517C153.479 222.585 154.441 223.321 157.506 229.336Z" fill="#348715"/>
<path fill-rule="evenodd" clip-rule="evenodd" d="M0 125V250H125H250V125V0H125H0V125ZM103.477 18.0451C104.785 23.9286 105.119 24.3289 106.937 22.1936C108.504 20.3553 109.216 20.3308 110.151 22.0883C111.087 23.8477 110.957 25.1692 109.565 28.0602C107.969 31.3759 107.909 32.8064 109.007 41.406C109.683 46.7049 110.83 51.468 111.555 51.9906C113.08 53.0921 112.343 58.2312 110.643 58.3496C110.014 58.3947 108.464 61.4812 107.197 65.2105C105.216 71.0432 104.986 73.4624 105.555 82.5188C106.13 91.6729 106.804 94.1861 110.726 101.793C113.207 106.605 114.951 111.412 114.602 112.472C114.253 113.534 114.425 114.932 114.984 115.583C115.543 116.231 115.991 120.308 115.98 124.641C115.962 131.726 116.462 133.37 120.945 140.977C125.382 148.506 125.988 150.47 126.453 158.835C126.991 168.496 126.847 168.132 135.342 181.288C137.77 185.049 138.021 186.263 137.065 189.622C136.008 193.335 136.1 193.445 138.69 191.594C140.199 190.515 142.017 188.724 142.73 187.611C144.683 184.564 142.249 179.927 139.401 181.271C137.214 182.301 137.194 182.179 138.65 176.692C140.378 170.182 140.75 169.994 143.842 174.064C146.948 178.152 147.459 176.468 146.128 166.532C144.558 154.808 144.457 155.318 149.891 147.53L154.781 140.519L153.228 129.94C152.374 124.122 150.658 117.669 149.415 115.602C147.601 112.586 147.336 110.974 148.076 107.455C149.152 102.333 151.5 102.962 151.5 108.37C151.5 110.415 152.199 113.406 153.054 115.019C153.909 116.633 155.43 123.055 156.434 129.289C158.055 139.353 158.695 140.996 162.13 143.908C164.259 145.711 166 147.904 166 148.782C166 151.047 164.747 150.771 160.74 147.624C157.311 144.93 157.14 145.013 152.73 151.47L148.224 158.07L149.621 166.799C150.563 172.68 150.689 176.148 150.008 177.429C149.327 178.709 150.008 181.288 152.094 185.333L155.191 191.34L152.916 204C150.812 215.711 150.766 216.835 152.305 218.949C153.22 220.207 153.676 221.788 153.318 222.461C152.96 223.133 153.332 223.684 154.146 223.684C156.193 223.684 161.37 234.197 160.55 236.69C159.466 239.987 158.21 239.132 152.511 231.218C149.265 226.711 146.851 224.496 146.465 225.671C146.025 227.008 145.398 226.964 144.481 225.536C143.38 223.818 143.641 221.351 145.941 211.712C147.481 205.259 149.038 198.224 149.401 196.077C150.45 189.863 147.361 189.141 143.488 194.694C141.531 197.5 139.152 199.269 137.81 198.915C135.875 198.406 135.451 199.25 135.198 204.12C134.951 208.897 135.529 210.838 138.448 215.024C142.233 220.451 142.454 221.305 141.107 225.303C140.431 227.31 139.126 226.299 135.045 220.603C130.092 213.69 129.873 213.019 130.42 206.461C130.737 202.675 131.272 198.224 131.609 196.571C132.51 192.158 129.481 194.665 123.818 203.023C119.168 209.883 119.097 209.919 113.529 208.023L107.922 206.113L103.177 214.898C95.279 229.521 92.933 224.893 100.348 209.32L104.697 200.188L103.031 190.789C101.989 184.906 100.549 180.697 99.183 179.536C97.059 177.729 96.386 174.714 97.598 172.436C98.698 170.367 101 173.295 101 176.761C101 178.833 101.853 180.427 103.155 180.789C104.646 181.207 105.732 183.694 106.681 188.865C108.414 198.31 108.622 198.664 113.752 200.821C117.807 202.526 118.232 202.269 122.895 195.289C128.091 187.513 129.837 186.545 131.859 190.32C132.869 192.203 132.988 192.024 132.46 189.417C132.098 187.63 130.188 184.246 128.217 181.898C126.245 179.553 124.251 177.143 123.784 176.543C123.318 175.945 122.714 170.447 122.442 164.325C121.989 154.128 121.599 152.617 117.79 146.267C113.94 139.852 113.446 139.524 111.107 141.827C108.748 144.15 108.597 145.147 108.801 157.045C108.966 166.709 108.618 170.611 107.355 173.235C104.969 178.19 102.65 177.746 103.317 172.462C103.611 170.137 104.153 163.504 104.521 157.724L105.191 147.216L100.858 140.246C97.673 135.12 95.927 133.558 94.263 134.342C91.755 135.524 91.098 132.111 93.5 130.38C95.095 129.229 95.472 121.009 94.362 111.607C94.011 108.635 91.984 103.353 89.858 99.8703C86.665 94.6391 85.732 93.9417 84.496 95.8703C83.276 97.7726 83 97.6617 83 95.265C83 93.6504 83.45 91.8045 84 91.1654C84.55 90.5263 85 85.6786 85 80.3947C85 71.4586 84.684 70.2162 80.5 62.6786C78.025 58.2218 76 53.765 76 52.7744C76 48.406 78.115 49.3496 82 55.4511C84.304 59.0695 86.497 62.0301 86.872 62.0301C88.856 62.0301 92 55.6259 92 51.5846C92 48.2462 92.546 46.9925 94 46.9925C95.427 46.9925 96 48.2462 96 51.3647C96 55.3102 98.576 61.3139 101.674 64.5921C102.339 65.297 103.738 63.4831 104.904 60.4023C106.938 55.0338 106.941 54.859 105.114 44.8741C103.453 35.7951 103 34.8289 100.633 35.3158C98.556 35.7425 98 35.047 98 32.0263C98 27.7538 101.518 26.5357 102.28 30.5451C102.525 31.8383 103.049 32.3346 103.443 31.6485C104.249 30.2462 101.234 20.547 99.274 18.2331C97.642 16.3083 97.628 11.8421 99.25 10.7481C101.101 9.5 101.875 10.8365 103.477 18.0451ZM124.823 28.8891C125.21 32.5526 123.065 32.8929 120.637 29.5564C119.522 28.0226 119.136 25.9586 119.568 23.8402C120.168 20.9023 120.488 20.8252 122.373 23.1748C123.543 24.6316 124.645 27.2049 124.823 28.8891ZM130.057 31.7538C129.437 33.9323 128.495 35.7143 127.965 35.7143C126.6 35.7143 126.765 29.3891 128.2 26.6917C130.005 23.2989 131.39 27.0733 130.057 31.7538ZM128.767 42.7425C130.363 45.1184 131.385 49.6541 132.215 58.0432C133.282 68.8346 133.759 70.4023 137.217 74.5056C140.341 78.2124 141.42 78.656 143.127 76.9398C146.083 73.9662 148.162 77.8759 145.54 81.4793C143.867 83.7801 143.805 84.9004 144.898 93.0601C145.861 100.25 145.851 102.395 144.852 103.556C142.994 105.714 142.303 104.211 141.539 96.3553C140.613 86.8252 138.765 81.8778 135.051 78.9868C132.161 76.7368 131.552 77.0301 126.236 83.2331C123.095 86.8985 120.182 89.4981 119.763 89.0094C117.925 86.8759 119.386 83.1974 124.508 77.0677C127.531 73.4492 129.815 69.5395 129.583 68.3797C129.351 67.2199 128.848 62.3459 128.465 57.5489C127.915 50.6523 127.166 48.1598 124.885 45.6259C122.102 42.5357 121.31 39.5169 122.631 37.0338C123.324 35.7312 125.281 37.5526 128.767 42.7425ZM168.335 46.5226C168.584 47.2989 166.638 52.5019 164.011 58.0865C160.793 64.9267 158.727 67.8741 157.679 67.1184C156.464 66.2425 157.24 63.7049 161.211 55.5545C166.219 45.2782 167.438 43.7312 168.335 46.5226ZM90.5 64.9925C88.822 67.3778 88.558 69.5601 88.858 78.5357C89.178 88.1259 89.594 89.8553 92.858 95.1805C96.417 100.989 96.564 101.053 99.329 98.0244C102.038 95.0564 102.131 94.4887 101.528 84.5865C100.988 75.7199 100.371 73.3816 97.199 68.1673C92.94 61.1654 93.13 61.2538 90.5 64.9925ZM100.711 103.165C98.694 105.363 98.067 107.242 98.447 109.962C98.736 112.03 98.979 116.823 98.986 120.613C98.998 126.41 99.645 128.464 103.064 133.555C106.81 139.13 107.327 139.404 109.669 137.047C112.006 134.697 112.175 133.684 111.767 124.438C111.383 115.735 110.798 113.427 107.412 107.256C103.566 100.246 103.453 100.177 100.711 103.165ZM160 181.077C160 184.979 158.816 186.265 157.342 183.964C155.404 180.94 155.693 178.571 158 178.571C159.1 178.571 160 179.699 160 181.077Z" fill="#193E09"/>
<path fill-rule="evenodd" clip-rule="evenodd" d="M0 125V250H125H250V125V0H125H0V125ZM103.677 15.8816C104.987 21.0451 105.665 22.0207 107.008 20.6692C108.092 19.5789 109.105 19.7462 109.847 21.141C111.391 24.0432 111.299 26.3383 109.488 30.0996C108.139 32.9004 108.143 34.1203 109.518 41.4492C110.365 45.9643 111.482 50.1504 111.999 50.75C112.539 51.3778 112.603 54.2086 112.148 57.406C111.712 60.4662 111.092 62.547 110.769 62.0301C110.446 61.5132 109.187 63.4662 107.972 66.3703C106.127 70.7801 105.838 73.3628 106.22 82.0338C106.635 91.4455 107.121 93.2387 111.415 101.19C115.863 109.429 116.173 110.645 116.507 121.18C116.849 131.93 117.075 132.765 121.932 141.203C126.746 149.566 127 150.489 127 159.579C127 168.637 127.221 169.451 131.141 174.788L135.282 180.427L137.756 175.41C139.982 170.895 140.53 170.605 143.219 172.513C146.035 174.511 146.174 174.393 145.618 170.492C145.293 168.216 145.021 165.395 145.014 164.224C145.006 163.051 144.1 161.65 143 161.109C140.623 159.942 140.295 154.135 142.607 154.135C143.491 154.135 146.347 150.942 148.954 147.039L153.695 139.945L152.314 131.043C151.353 124.844 149.594 119.821 146.521 114.498C142.975 108.353 141.87 104.846 140.891 96.6222C139.907 88.359 139.057 85.6767 136.468 82.671C132.31 77.8383 132.032 77.8966 126.109 84.8177C121.412 90.3064 118 91.0301 118 86.5376C118 84.8515 124.12 75.532 127.792 71.6259C128.719 70.6391 128.885 67.9211 128.381 61.9944C127.676 53.7124 125.978 49.3628 120.624 42.1222C118.141 38.765 117.902 37.6917 118.876 34.2688C119.6 31.7274 119.653 29.8929 119.023 29.1617C117.953 27.9192 119.885 20.6767 121.286 20.6767C121.729 20.6767 123.195 22.7538 124.545 25.2914C126.235 28.4662 127 29.0526 127 27.1711C127 24.5113 130.077 23.3289 131.252 25.5357C132.032 27.0038 130.031 37.594 128.974 37.594C128.517 37.594 127.464 36.3195 126.635 34.7594C125.806 33.2011 124.87 32.7105 124.554 33.6692C124.239 34.6278 125.223 37.1635 126.74 39.3026C128.258 41.4417 129.995 43.9624 130.6 44.9041C131.205 45.844 132.235 51.7256 132.889 57.9737C133.932 67.9361 134.519 69.8459 137.667 73.5019C140.664 76.985 141.58 77.2914 143.22 75.3665C144.859 73.4417 145.407 73.6241 146.538 76.4737C147.709 79.4248 147.632 80.2688 145.971 82.7068C144.202 85.3026 144.155 86.1992 145.378 93.985C146.473 100.947 147.176 102.549 149.354 103.038C151.366 103.491 152 104.68 152 108.006C152 110.412 152.615 112.823 153.367 113.365C154.118 113.908 155.517 119.795 156.475 126.449C158.103 137.748 158.507 138.812 162.609 142.558C165.024 144.763 167 147.451 167 148.53C167 152.233 163.817 152.788 160.36 149.688C156.927 146.613 156.872 146.633 152.97 152.528C149.675 157.504 149.14 159.258 149.666 163.35C151.206 175.344 151.731 176.444 156.203 177.049C159.73 177.526 160.5 178.305 160.5 181.391C160.5 184.22 159.733 185.291 157.399 185.718C154.699 186.212 154.358 186.885 154.767 190.908C155.026 193.449 154.284 199.694 153.119 204.786C151.953 209.878 151 214.763 151 215.643C151 216.523 153.277 220.438 156.061 224.346C159.845 229.654 161.044 232.479 160.811 235.536C160.304 242.203 157.818 241.207 152.302 232.124C147.339 223.951 147.055 223.737 146.017 227.383C144.415 233.009 142.571 232.158 135.335 222.453C128.521 213.314 128.217 211.93 130.537 200.658C131.627 195.361 128.944 196.741 124.109 203.966C119.342 211.088 118.636 211.361 112.173 208.558L107.846 206.682L103.33 216.124C100.847 221.316 98.167 225.564 97.376 225.564C94.19 225.564 94.946 219.703 99.393 209.917L103.982 199.821L102.371 190.932C101.343 185.261 99.914 181.32 98.421 180.041C95.125 177.218 96.931 170.712 100.801 171.466C103.483 171.989 103.502 171.908 103.742 158.835C103.983 145.705 103.976 145.665 100.351 140.538C97.798 136.925 96.019 135.729 94.36 136.513C92.455 137.412 92 136.883 92 133.773C92 131.654 92.45 129.398 93 128.759C93.55 128.12 94 123.096 94 117.594C94 108.361 93.729 107.201 90.485 102.549C88.141 99.1898 86.306 97.9041 84.98 98.6955C82.633 100.096 81.095 94.9342 82.867 91.6034C83.49 90.4323 84 85.032 84 79.6053C84 70.2086 83.784 69.3966 79.5 62.6654C77.025 58.7763 75 54.4793 75 53.1147C75 47.8929 78.176 48.5094 82.141 54.4981C85.638 59.7801 86.504 60.3233 88.59 58.5357C90.209 57.1485 91 54.9154 91 51.7312C91 47.7199 91.46 46.9925 94 46.9925C96.418 46.9925 97 47.7895 97 51.1015C97 54.9831 100.526 63.9098 102.059 63.9098C102.45 63.9098 103.524 61.7462 104.446 59.1015C106.004 54.6316 106.007 53.6447 104.489 45.0507C103.148 37.4605 102.466 35.8835 100.681 36.2312C98.016 36.75 96.934 28.8459 99.424 27.0508C100.834 26.0338 100.827 25.4041 99.345 20.6898C98.44 17.812 97.979 14.094 98.319 12.4267C99.353 7.3609 101.938 9.0282 103.677 15.8816ZM168.796 47.3553C169.107 50.3647 159.158 71.4286 157.426 71.4286C156.876 71.4286 156.353 69.6203 156.265 67.4098C156.163 64.8759 158.002 59.6504 161.24 53.2726C166.321 43.2669 168.221 41.7782 168.796 47.3553ZM91.019 67.1034C89.008 69.7519 88.822 71.1579 89.356 79.6842C89.846 87.5075 90.554 90.2049 93.178 94.2425C95.856 98.3647 96.788 98.8684 98.7 97.2312C102.822 93.7011 101.455 75.8402 96.522 68.7669C93.489 64.4192 93.139 64.3139 91.019 67.1034ZM100.75 105.414C99.577 106.697 99.005 109.622 99.015 114.286C99.033 122.893 100.674 129.124 104.23 134.086C106.586 137.374 107.285 137.568 109.346 135.494C111.465 133.361 111.678 132.115 111.246 124.348C110.89 117.936 109.939 113.972 107.684 109.492C104.391 102.953 103.485 102.419 100.75 105.414ZM110.2 145.113C109.534 146.365 109 152.374 109 158.62C109 167.368 108.545 170.782 106.954 173.964C104.971 177.932 104.96 178.318 106.597 186.305C108.611 196.13 109.965 198.464 114.599 200.1C117.688 201.188 118.665 200.432 123.024 193.571C126.618 187.915 128.504 186.137 129.978 187.017C133.207 188.944 132.342 186.842 127.57 181.167C123.438 176.254 123.069 175.133 122.093 164.547C121.278 155.707 120.375 152.053 118.008 148.026C114.745 142.477 112.123 141.498 110.2 145.113ZM138.942 185.801C135.983 190.305 137.836 192.457 140.914 188.092C142.296 186.132 142.845 184.252 142.24 183.549C141.673 182.891 140.188 183.904 138.942 185.801ZM143.052 196.635C141.184 199.59 139.196 201.171 138.055 200.611C136.66 199.925 135.993 200.921 135.531 204.383C135.185 206.972 135.037 209.25 135.201 209.445C135.366 209.641 137.361 212.496 139.636 215.791L143.773 221.782L145.851 211.925C150.267 190.974 149.451 186.513 143.052 196.635Z" fill="#CC3437"/>
<path fill-rule="evenodd" clip-rule="evenodd" d="M0 125V250H125H250V125V0H125H0V125ZM103.66 15.8139C105.167 21.7519 105.481 22.0752 107.894 20.1504C109.327 19.0056 111.297 16.8177 112.27 15.2876C113.852 12.8026 114.352 12.9398 116.98 16.5921C118.596 18.8383 120.408 20.6767 121.005 20.6767C121.602 20.6767 123.195 22.7538 124.545 25.2914C126.235 28.4662 127 29.0526 127 27.1711C127 24.4906 130.081 23.3346 131.269 25.5695C132.17 27.2632 130.159 36.0207 128.274 38.6128C126.784 40.6598 126.834 41.0019 128.791 42.1692C130.89 43.4211 131.751 47.3064 133.489 63.3684C134.269 70.579 139.999 78.3383 142.775 75.9474C143.724 75.1316 144.981 74.4004 145.569 74.3233C146.158 74.2481 147.829 72.7199 149.284 70.9267C152.188 67.3515 153.003 66.9455 152.994 69.0789C152.99 69.8553 151.634 71.9361 149.981 73.7049C148.327 75.4737 147.092 77.7406 147.237 78.7406C147.382 79.7425 146.721 81.6786 145.768 83.0432C144.209 85.2782 144.17 86.3741 145.372 93.985C146.471 100.944 147.178 102.549 149.354 103.038C151.366 103.491 152 104.68 152 108.006C152 110.412 152.615 112.823 153.367 113.365C154.118 113.908 155.517 119.795 156.475 126.449C158.103 137.748 158.507 138.812 162.609 142.558C165.024 144.763 167 147.451 167 148.53C167 152.233 163.817 152.788 160.36 149.688C156.927 146.613 156.872 146.633 152.97 152.528C149.675 157.504 149.14 159.258 149.666 163.35C151.206 175.344 151.731 176.444 156.203 177.049C159.73 177.526 160.5 178.305 160.5 181.391C160.5 184.22 159.733 185.291 157.399 185.718C154.699 186.212 154.358 186.885 154.767 190.908C155.026 193.449 154.284 199.694 153.119 204.786C151.953 209.878 151 214.763 151 215.643C151 216.523 153.277 220.438 156.061 224.346C159.845 229.654 161.044 232.479 160.811 235.536C160.304 242.203 157.818 241.207 152.302 232.124C147.339 223.951 147.055 223.737 146.017 227.383C144.415 233.009 142.571 232.158 135.335 222.453C128.521 213.314 128.217 211.93 130.537 200.658C131.627 195.361 128.944 196.741 124.109 203.966C119.342 211.088 118.636 211.361 112.173 208.558L107.846 206.682L103.33 216.124C100.847 221.316 98.167 225.564 97.376 225.564C94.19 225.564 94.946 219.703 99.393 209.917L103.982 199.821L102.371 190.932C101.34 185.246 99.914 181.32 98.411 180.034C97.12 178.927 96.303 177.293 96.596 176.4C96.889 175.509 96.087 174.024 94.814 173.1C93.056 171.821 93.821 171.487 98 171.705L103.5 171.992L103.742 158.835C103.983 145.705 103.976 145.665 100.351 140.538C97.798 136.925 96.019 135.729 94.36 136.513C92.455 137.412 92 136.883 92 133.773C92 131.654 92.45 129.398 93 128.759C93.55 128.12 94 123.096 94 117.594C94 108.361 93.729 107.201 90.485 102.549C88.141 99.1898 86.306 97.9041 84.98 98.6955C82.633 100.096 81.095 94.9342 82.867 91.6034C83.49 90.4323 84 85.032 84 79.6053C84 70.2086 83.784 69.3966 79.5 62.6654C77.025 58.7763 75 54.4793 75 53.1147C75 47.8929 78.176 48.5094 82.141 54.4981C85.638 59.7801 86.504 60.3233 88.59 58.5357C90.209 57.1485 91 54.9154 91 51.7312C91 49.1259 91.45 46.9925 92 46.9925C92.55 46.9925 93.012 43.8214 93.026 39.9436C93.049 33.5752 93.435 32.562 97.032 29.4455L101.012 25.9944L99.356 20.7256C98.446 17.8271 97.979 14.094 98.319 12.4267C99.349 7.3797 101.936 9.0188 103.66 15.8139ZM112.917 23.0263C108.37 30.3214 107.895 32.8045 109.459 41.1335C111.302 50.9549 113.139 54.5113 116.37 54.5113C118.774 54.5113 120.758 57.4718 119.694 59.4718C119.415 59.9962 117.57 59.5846 115.594 58.5601C112.642 57.0263 112 57.1898 112 59.4737C112 61.0019 111.622 61.812 111.159 61.2744C110.696 60.7368 109.295 62.8985 108.045 66.0771C106.149 70.8966 105.847 73.5677 106.225 82.1372C106.635 91.4286 107.134 93.2613 111.415 101.19C115.863 109.429 116.173 110.645 116.507 121.18C116.849 131.93 117.075 132.765 121.932 141.203C126.746 149.566 127 150.489 127 159.579C127 168.637 127.221 169.451 131.141 174.788L135.282 180.427L137.756 175.41C139.982 170.895 140.53 170.605 143.219 172.513C146.035 174.511 146.174 174.393 145.618 170.492C145.293 168.216 145.021 165.395 145.014 164.224C145.006 163.051 144.1 161.65 143 161.109C140.623 159.942 140.295 154.135 142.607 154.135C143.491 154.135 146.347 150.942 148.954 147.039L153.695 139.945L152.314 131.043C151.353 124.844 149.594 119.821 146.521 114.498C142.975 108.353 141.87 104.846 140.891 96.6222C139.907 88.359 139.057 85.6767 136.468 82.671C132.31 77.8383 132.032 77.8966 126.109 84.8177C121.412 90.3064 118 91.0301 118 86.5376C118 84.8515 124.12 75.532 127.792 71.6259C128.719 70.6391 128.885 67.9211 128.381 61.9944C127.676 53.7124 125.978 49.3628 120.624 42.1222C118.141 38.765 117.902 37.6917 118.876 34.2688C119.632 31.6147 119.668 29.9117 118.986 29.1203C118.426 28.468 118.212 27.1898 118.512 26.2801C118.811 25.3703 118.173 23.7368 117.094 22.6504C114.648 20.1898 114.688 20.1861 112.917 23.0263ZM124.609 33.5038C124.256 34.5771 124.455 36.0207 125.05 36.7124C126.536 38.438 127.062 37.0658 126.071 34.0489C125.539 32.4342 125.024 32.2406 124.609 33.5038ZM94 35.6034C94 36.5771 94.411 37.8496 94.913 38.4323C95.415 39.0169 96.138 43.0846 96.519 47.4718C97.144 54.6823 100.255 63.9098 102.059 63.9098C102.45 63.9098 103.524 61.7462 104.446 59.1015C106.009 54.6165 106.011 53.6617 104.468 44.9323C103.128 37.3515 102.468 35.7782 100.991 36.6598C99.989 37.2575 98.879 36.8665 98.525 35.7914C97.723 33.3515 94 33.1974 94 35.6034ZM168.796 47.3553C169.107 50.3647 159.158 71.4286 157.426 71.4286C156.876 71.4286 156.353 69.6203 156.265 67.4098C156.163 64.8759 158.002 59.6504 161.24 53.2726C166.321 43.2669 168.221 41.7782 168.796 47.3553ZM91.019 67.1034C89.008 69.7519 88.822 71.1579 89.356 79.6842C89.846 87.5075 90.554 90.2049 93.178 94.2425C95.856 98.3647 96.788 98.8684 98.7 97.2312C102.822 93.7011 101.455 75.8402 96.522 68.7669C93.489 64.4192 93.139 64.3139 91.019 67.1034ZM122 102.444C122 103.994 121.325 105.263 120.5 105.263C119.675 105.263 119 103.994 119 102.444C119 100.893 119.675 99.6241 120.5 99.6241C121.325 99.6241 122 100.893 122 102.444ZM100.75 105.414C99.577 106.697 99.005 109.622 99.015 114.286C99.033 122.893 100.674 129.124 104.23 134.086C106.586 137.374 107.285 137.568 109.346 135.494C111.465 133.361 111.678 132.115 111.246 124.348C110.89 117.936 109.939 113.972 107.684 109.492C104.391 102.953 103.485 102.419 100.75 105.414ZM110.2 145.113C109.534 146.365 109 152.374 109 158.62C109 167.368 108.545 170.782 106.954 173.964C104.971 177.932 104.96 178.318 106.597 186.305C108.611 196.13 109.965 198.464 114.599 200.1C117.688 201.188 118.665 200.432 123.024 193.571C126.618 187.915 128.504 186.137 129.978 187.017C133.207 188.944 132.342 186.842 127.57 181.167C123.438 176.254 123.069 175.133 122.093 164.547C121.278 155.707 120.375 152.053 118.008 148.026C114.745 142.477 112.123 141.498 110.2 145.113ZM138.942 185.801C135.983 190.305 137.836 192.457 140.914 188.092C142.296 186.132 142.845 184.252 142.24 183.549C141.673 182.891 140.188 183.904 138.942 185.801ZM143.052 196.635C141.184 199.59 139.196 201.171 138.055 200.611C136.66 199.925 135.993 200.921 135.531 204.383C135.185 206.972 135.037 209.25 135.201 209.445C135.366 209.641 137.361 212.496 139.636 215.791L143.773 221.782L145.851 211.925C150.267 190.974 149.451 186.513 143.052 196.635Z" fill="#631D19"/>
<path fill-rule="evenodd" clip-rule="evenodd" d="M0 125V250H125H250V125V0H125H0V125ZM103.699 15.968C105.294 22.2538 105.466 22.4173 107.683 19.7274C115.204 10.6053 114.121 10.7669 119.537 17.9549C122.267 21.5789 125.063 25.9492 125.75 27.6673C126.913 30.5752 127 30.5714 127 27.6147C127 24.5508 129.978 23.141 131.28 25.5883C131.617 26.2237 131.175 30.1128 130.298 34.235C129.062 40.0432 128.979 42.047 129.932 43.1541C130.608 43.938 131.912 50.297 132.83 57.2838C134.3 68.4662 134.927 70.4493 138.068 73.8515L141.637 77.718L146.068 72.0526C148.506 68.9361 151.881 65.5038 153.569 64.4248C155.258 63.3459 158.901 58.0056 161.665 52.5583C166.399 43.2293 169 41.5677 169 47.8722C169 52.0808 158.621 71.4286 156.363 71.4286C154.691 71.4286 148.155 78.7425 144.786 84.3835C144.393 85.0413 144.665 89.3741 145.39 94.0113C146.475 100.951 147.176 102.549 149.354 103.038C151.366 103.491 152 104.68 152 108.006C152 110.412 152.615 112.823 153.367 113.365C154.118 113.908 155.517 119.795 156.475 126.449C158.103 137.748 158.507 138.812 162.609 142.558C165.024 144.763 167 147.451 167 148.53C167 152.233 163.817 152.788 160.36 149.688C156.927 146.613 156.872 146.633 152.97 152.528C149.675 157.504 149.14 159.258 149.666 163.35C151.206 175.344 151.731 176.444 156.203 177.049C159.73 177.526 160.5 178.305 160.5 181.391C160.5 184.22 159.733 185.291 157.399 185.718C154.699 186.212 154.358 186.885 154.767 190.908C155.026 193.449 154.284 199.694 153.119 204.786C151.953 209.878 151 214.763 151 215.643C151 216.523 153.277 220.438 156.061 224.346C159.845 229.654 161.044 232.479 160.811 235.536C160.304 242.203 157.818 241.207 152.302 232.124C147.339 223.951 147.055 223.737 146.017 227.383C144.415 233.009 142.571 232.158 135.335 222.453C128.521 213.314 128.217 211.93 130.537 200.658C131.627 195.361 128.944 196.741 124.109 203.966C119.342 211.088 118.636 211.361 112.173 208.558L107.846 206.682L103.33 216.124C100.847 221.316 98.167 225.564 97.376 225.564C94.19 225.564 94.946 219.703 99.393 209.917L103.982 199.821L102.358 190.859C100.973 183.22 100.096 181.368 96.408 178.301C91.396 174.133 90.524 172.256 92.307 169.474C93.228 168.036 94.801 168.252 97.863 170.235C100.211 171.756 102.553 172.511 103.066 171.915C103.58 171.32 104 165.265 104 158.461C104 145.641 103.931 145.393 98.326 137.972C96.374 135.387 95.849 135.389 93.177 137.987C90.66 140.432 90.025 140.479 89.059 138.291C88.159 136.252 88.56 134.844 90.959 131.635C93.694 127.974 94 126.558 94 117.577C94 108.314 93.738 107.214 90.392 102.415C86.826 97.3045 86.741 97.2801 83.236 100.421C80.37 102.991 79.53 103.13 78.857 101.143C78.299 99.4962 79.014 97.1335 81.021 93.985C83.649 89.8647 84.017 88.0808 84.009 79.5113C84 70.235 83.771 69.3759 79.5 62.6654C77.025 58.7763 75 54.4793 75 53.1147C75 47.8929 78.176 48.5094 82.141 54.4981C85.584 59.6992 86.524 60.3045 88.511 58.6034C90.427 56.9624 90.958 54.6635 91.493 45.6898C92.386 30.7444 92.281 31.0752 96.924 28.4605L101.056 26.1335L99.378 20.7951C98.455 17.859 97.979 14.094 98.319 12.4267C99.358 7.34023 101.941 9.03947 103.699 15.968ZM110.998 27.6711L107.9 32.8947L109.48 41.2763C111.255 50.6992 112.348 52.562 116.128 52.6034C117.573 52.6184 119.299 53.8628 119.964 55.3684C122.028 60.0451 120.134 62.3647 114.993 61.4586C110.586 60.6804 110.015 61.0695 107.983 66.235C106.155 70.8816 105.85 73.6391 106.224 82.1165C106.607 90.797 107.225 93.406 110.244 99.0808L113.812 105.788L117.281 101.759C120.286 98.2669 120.91 98.0959 121.96 100.474C123.486 103.929 122.69 106.376 118.819 110.137C115.855 113.019 115.785 113.393 116.418 122.812C116.991 131.335 117.676 133.585 122.035 141.263C126.729 149.532 127 150.53 127 159.579C127 168.637 127.221 169.451 131.141 174.788L135.282 180.427L137.756 175.41C139.982 170.895 140.53 170.605 143.219 172.513C146.035 174.511 146.174 174.393 145.618 170.492C145.293 168.216 145.021 165.395 145.014 164.224C145.006 163.051 144.1 161.65 143 161.109C140.623 159.942 140.295 154.135 142.607 154.135C143.491 154.135 146.347 150.942 148.954 147.039L153.695 139.945L152.314 131.043C151.353 124.844 149.594 119.821 146.521 114.498C142.975 108.353 141.87 104.846 140.891 96.6222C139.907 88.359 139.057 85.6767 136.468 82.671C132.31 77.8383 132.032 77.8966 126.109 84.8177C121.412 90.3064 118 91.0301 118 86.5376C118 84.8515 124.12 75.532 127.792 71.6259C128.719 70.6391 128.885 67.9211 128.381 61.9944C127.676 53.7124 125.978 49.3628 120.624 42.1222C118.177 38.8139 117.911 37.6598 118.842 34.391C119.711 31.3383 119.583 29.9793 118.218 27.7782C114.936 22.4868 114.081 22.4737 110.998 27.6711ZM124.5 33.8346C124.16 34.8684 124.359 35.7143 124.941 35.7143C125.523 35.7143 126 34.8684 126 33.8346C126 32.8008 125.802 31.9549 125.559 31.9549C125.316 31.9549 124.84 32.8008 124.5 33.8346ZM99.25 37.0414C97.293 37.75 97 39.0188 97 46.7951C97 53.7105 97.524 56.6617 99.314 59.8233C102.226 64.9643 102.412 64.938 104.446 59.1015C106.006 54.6259 106.009 53.6504 104.481 45.0038C103.578 39.8947 102.538 35.8289 102.17 35.9699C101.801 36.1109 100.487 36.5921 99.25 37.0414ZM91.019 67.1034C89.008 69.7519 88.822 71.1579 89.356 79.6842C89.846 87.5075 90.554 90.2049 93.178 94.2425C95.856 98.3647 96.788 98.8684 98.7 97.2312C102.822 93.7011 101.455 75.8402 96.522 68.7669C93.489 64.4192 93.139 64.3139 91.019 67.1034ZM100.75 105.414C99.577 106.697 99.005 109.622 99.015 114.286C99.033 122.893 100.674 129.124 104.23 134.086C106.586 137.374 107.285 137.568 109.346 135.494C111.465 133.361 111.678 132.115 111.246 124.348C110.89 117.936 109.939 113.972 107.684 109.492C104.391 102.953 103.485 102.419 100.75 105.414ZM110.2 145.113C109.534 146.365 109 152.374 109 158.62C109 167.368 108.545 170.782 106.954 173.964C104.971 177.932 104.96 178.318 106.597 186.305C108.611 196.13 109.965 198.464 114.599 200.1C117.688 201.188 118.665 200.432 123.024 193.571C126.618 187.915 128.504 186.137 129.978 187.017C133.207 188.944 132.342 186.842 127.57 181.167C123.438 176.254 123.069 175.133 122.093 164.547C121.278 155.707 120.375 152.053 118.008 148.026C114.745 142.477 112.123 141.498 110.2 145.113ZM138.942 185.801C135.983 190.305 137.836 192.457 140.914 188.092C142.296 186.132 142.845 184.252 142.24 183.549C141.673 182.891 140.188 183.904 138.942 185.801ZM143.052 196.635C141.184 199.59 139.196 201.171 138.055 200.611C136.66 199.925 135.993 200.921 135.531 204.383C135.185 206.972 135.037 209.25 135.201 209.445C135.366 209.641 137.361 212.496 139.636 215.791L143.773 221.782L145.851 211.925C150.267 190.974 149.451 186.513 143.052 196.635Z" fill="black"/>
</g>
<defs>
<clipPath id="clip0_1_2">
<rect width="250" height="250" rx="125" fill="white"/>
</clipPath>
</defs>
</svg>
