<svg width="250" height="133" viewBox="0 0 250 133" fill="none" xmlns="http://www.w3.org/2000/svg">
<path fill-rule="evenodd" clip-rule="evenodd" d="M0 66.5V133H125H250V66.5V0H125H0V66.5Z" fill="#122DD8"/>
<path fill-rule="evenodd" clip-rule="evenodd" d="M0 66.5V133H125H250V66.5V0H125H0V66.5ZM108 87.583C108 92.102 105.639 91.757 105.187 87.173C104.955 84.828 105.281 84 106.437 84C107.564 84 108 85 108 87.583ZM126.472 88.911C126.805 89.962 128.674 92.039 130.624 93.527C135.678 97.382 133.523 99.036 128.112 95.455C125.85 93.959 123.994 92.457 123.986 92.117C123.979 91.778 123.701 90.487 123.37 89.25C122.605 86.395 125.57 86.071 126.472 88.911ZM136.053 101.25C136.024 101.662 136 102.858 136 103.906C136 105.338 135.488 105.679 133.943 105.275C132.658 104.939 132.096 104.193 132.443 103.287C132.75 102.489 133 101.39 133 100.845C133 100.3 133.699 99.999 134.553 100.177C135.407 100.355 136.082 100.838 136.053 101.25ZM150.878 112.822C150.178 114.662 150.344 115.722 151.537 117.041C153.782 119.521 151.678 120.49 148.528 118.427C145.597 116.506 145.669 116.838 147.135 111.942C148.118 108.662 148.509 108.301 150.042 109.258C151.438 110.13 151.615 110.883 150.878 112.822Z" fill="#0E1A71"/>
<path fill-rule="evenodd" clip-rule="evenodd" d="M0 66.5V133H125H250V66.5V0H125H0V66.5ZM109 87.171C109 90.576 106.608 94 104.228 94C103.201 94 102.946 93.332 103.37 91.75C103.701 90.513 103.979 88.263 103.986 86.75C103.998 84.487 104.443 84 106.5 84C108.641 84 109 84.455 109 87.171ZM127 88.449C127 89.246 128.688 91.142 130.75 92.661C137.599 97.708 137.993 98.338 136.674 102.144C135.832 104.575 134.991 105.434 133.701 105.184C132.712 104.992 131.976 104.084 132.066 103.167C132.386 99.914 131.963 99.14 128.75 97.1C126.963 95.965 124.994 94.691 124.376 94.268C123.757 93.846 122.934 92.037 122.546 90.25C121.893 87.241 122.032 87 124.421 87C126.006 87 127 87.558 127 88.449ZM151.461 113.166C151.07 114.956 151.363 116.106 152.356 116.666C153.629 117.385 153.583 117.808 152.022 119.73C150.445 121.673 150.052 121.768 148.973 120.468C148.102 119.418 147.368 119.279 146.5 120C145.642 120.712 144.963 120.64 144.273 119.762C143.587 118.889 144.005 116.875 145.628 113.234C147.799 108.362 148.128 108.062 150.01 109.234C151.538 110.185 151.9 111.164 151.461 113.166Z" fill="#53D921"/>
<path fill-rule="evenodd" clip-rule="evenodd" d="M0 66.5V133H125H250V66.5V0H125H0V66.5ZM102 7.5C102 8.325 101.325 9 100.5 9C99.675 9 99 8.325 99 7.5C99 6.675 99.675 6 100.5 6C101.325 6 102 6.675 102 7.5ZM110.517 12.028C110.867 12.593 110.151 13.867 108.927 14.858L106.702 16.66L108.844 23.004C110.022 26.493 110.784 29.55 110.536 29.797C109.209 31.125 107.232 28.578 105.619 23.461C103.952 18.172 103.935 17.616 105.421 16.784C106.313 16.285 106.769 15.435 106.435 14.895C105.785 13.843 107.704 11 109.063 11C109.514 11 110.168 11.463 110.517 12.028ZM123.427 13.521C125.697 15.239 124.66 16.906 122.262 15.393C120.438 14.243 119.365 11.982 120.667 12.032C121.125 12.049 122.367 12.72 123.427 13.521ZM95.315 27.904C94.972 29.214 95.779 30.516 97.909 32.091C100.628 34.101 102.095 37 100.394 37C98.678 37 92.155 30.726 92.549 29.455C92.797 28.655 93.222 27.296 93.493 26.437C94.193 24.217 95.916 25.605 95.315 27.904ZM132 32.321L133.5 38.5L127.167 42.333C119.223 47.142 117.985 46.532 125.527 41.526C129.109 39.148 130.945 37.299 130.605 36.413C129.553 33.673 128.735 24.505 129.615 25.321C130.102 25.773 131.175 28.923 132 32.321ZM81.818 30.076C83.643 31.735 84.962 33.615 84.749 34.252C84.533 34.9 82.409 33.568 79.932 31.23C74.878 26.464 76.652 25.378 81.818 30.076ZM88 42.583C88 46.302 88.52 47.425 91.5 50.136C94.9 53.23 95.87 55 94.167 55C93.708 55 91.723 53.538 89.755 51.75C86.675 48.953 86.094 47.703 85.583 42.779C85.081 37.945 85.223 37.148 86.495 37.636C87.517 38.029 88 39.615 88 42.583ZM105.244 45.083C105.839 49.399 106.62 51.039 109.088 53.15C110.98 54.769 112.046 56.52 111.827 57.65C111.522 59.22 110.825 58.894 107.223 55.5C103.324 51.827 102.924 50.977 102.332 45.114C101.803 39.88 101.94 38.813 103.092 39.197C103.928 39.476 104.799 41.858 105.244 45.083ZM144.923 53.45C144.969 54.607 144.649 55.013 144.138 54.45C142.905 53.091 141.117 45.218 141.869 44.458C142.563 43.757 144.801 50.346 144.923 53.45ZM151 57C151 57.55 150.55 58 150 58C149.45 58 149 57.55 149 57C149 56.45 149.45 56 150 56C150.55 56 151 56.45 151 57ZM98 62.916C98 67.47 98.3 68.069 102.065 71.051C104.738 73.169 105.792 74.608 105.143 75.257C103.512 76.888 96.04 70.024 96.018 66.875C96.008 65.431 95.719 62.844 95.375 61.125C94.88 58.651 95.088 58 96.375 58C97.655 58 98 59.045 98 62.916ZM115.494 66.822C116.319 71.05 117.221 72.563 120.5 75.211C125.836 79.52 126.115 79.976 125.732 83.75C125.55 85.537 125.761 87 126.201 87C126.64 87 127 87.652 127 88.449C127 89.246 128.688 91.142 130.75 92.661C137.599 97.708 137.993 98.338 136.674 102.144C135.832 104.575 134.991 105.434 133.701 105.184C132.712 104.992 131.976 104.084 132.066 103.167C132.393 99.843 131.927 99.138 127.585 96.39C124.423 94.39 122.997 92.734 122.561 90.556C122.227 88.884 122.334 87.389 122.8 87.233C123.265 87.078 123.448 85.601 123.206 83.951C122.913 81.954 121.176 79.537 118.015 76.725C113.641 72.835 113.213 72.037 112.613 66.66C111.772 59.124 114.017 59.249 115.494 66.822ZM156.702 72.551C157.143 75.269 156.677 76.001 152.56 79.057C147.644 82.705 147.362 83.93 149.584 92C150.07 93.765 149.955 94.206 149.193 93.5C148.6 92.95 147.645 90.475 147.072 88C146.085 83.742 146.177 83.364 148.794 80.961C150.314 79.565 152.59 77.7 153.85 76.818C156.11 75.235 156.12 75.142 154.57 69.925C153.707 67.017 153.037 64.156 153.082 63.568C153.211 61.871 156.153 69.17 156.702 72.551ZM108 80.5C108 82.056 107.433 83 106.5 83C105.567 83 105 82.056 105 80.5C105 78.944 105.567 78 106.5 78C107.433 78 108 78.944 108 80.5ZM109 87.171C109 90.576 106.608 94 104.228 94C103.201 94 102.946 93.332 103.37 91.75C103.701 90.513 103.979 88.263 103.986 86.75C103.998 84.487 104.443 84 106.5 84C108.641 84 109 84.455 109 87.171ZM145.817 94.693C147.843 96.175 150.697 98.47 152.16 99.794C154.649 102.047 154.734 102.402 153.495 105.35C152.766 107.083 151.57 108.5 150.835 108.5C149.619 108.5 149.514 107.626 150.25 103.649C150.387 102.906 148.137 100.421 145.25 98.126C137.811 92.214 138.308 89.203 145.817 94.693ZM159.447 97.085C159.125 97.606 158.436 97.769 157.915 97.447C157.394 97.125 157.231 96.436 157.553 95.915C157.875 95.394 158.564 95.231 159.085 95.553C159.606 95.875 159.769 96.564 159.447 97.085ZM106.057 100.764C107.783 106.121 108.527 106.747 114.078 107.511C118.766 108.156 119.311 107.986 123.446 104.598C127.715 101.099 131 99.97 131 102C131 102.55 130.479 103 129.842 103C129.206 103 126.393 104.762 123.592 106.915C118.52 110.814 118.479 110.825 113.182 109.769L107.865 108.708L103.148 113.354C100.554 115.909 98.109 118 97.716 118C95.821 118 97.426 114.998 101.412 111.086L105.825 106.755L104.412 102.752C103.636 100.55 103 98.104 103 97.315C103 94.836 104.803 96.87 106.057 100.764ZM145 100.885C145 102.091 140.43 105 138.535 105C136.04 105 136.812 103.616 140.272 101.885C144.218 99.912 145 99.746 145 100.885ZM134.534 108.846C134 111.277 134.426 112.088 137.454 114.397C140.974 117.082 141.999 119 139.913 119C139.316 119 136.85 117.58 134.433 115.845C130.665 113.138 130.128 112.32 130.658 110.095C131.51 106.521 131.889 106 133.638 106C134.789 106 135.007 106.692 134.534 108.846ZM151.461 113.166C151.07 114.956 151.363 116.106 152.356 116.666C153.629 117.385 153.583 117.808 152.022 119.73C150.445 121.673 150.052 121.768 148.973 120.468C148.102 119.418 147.368 119.279 146.5 120C145.642 120.712 144.963 120.64 144.273 119.762C143.587 118.889 144.005 116.875 145.628 113.234C147.799 108.362 148.128 108.062 150.01 109.234C151.538 110.185 151.9 111.164 151.461 113.166ZM157.506 122.007C161.501 126.176 159.538 127.799 155.206 123.908C153.395 122.281 152.184 120.511 152.515 119.975C153.479 118.415 154.441 118.807 157.506 122.007Z" fill="#348715"/>
<path fill-rule="evenodd" clip-rule="evenodd" d="M0 66.5V133H125H250V66.5V0H125H0V66.5ZM103.477 9.6C104.785 12.73 105.119 12.943 106.937 11.807C108.504 10.829 109.216 10.816 110.151 11.751C111.087 12.687 110.957 13.39 109.565 14.928C107.969 16.692 107.909 17.453 109.007 22.028C109.683 24.847 110.83 27.381 111.555 27.659C113.08 28.245 112.343 30.979 110.643 31.042C110.014 31.066 108.464 32.708 107.197 34.692C105.216 37.795 104.986 39.082 105.555 43.9C106.13 48.77 106.804 50.107 110.726 54.154C113.207 56.714 114.951 59.271 114.602 59.835C114.253 60.4 114.425 61.144 114.984 61.49C115.543 61.835 115.991 64.004 115.98 66.309C115.962 70.078 116.462 70.953 120.945 75C125.382 79.005 125.988 80.05 126.453 84.5C126.991 89.64 126.847 89.446 135.342 96.445C137.77 98.446 138.021 99.092 137.065 100.879C136.008 102.854 136.1 102.913 138.69 101.928C140.199 101.354 142.017 100.401 142.73 99.809C144.683 98.188 142.249 95.721 139.401 96.436C137.214 96.984 137.194 96.919 138.65 94C140.378 90.537 140.75 90.437 143.842 92.602C146.948 94.777 147.459 93.881 146.128 88.595C144.558 82.358 144.457 82.629 149.891 78.486L154.781 74.756L153.228 69.128C152.374 66.033 150.658 62.6 149.415 61.5C147.601 59.896 147.336 59.038 148.076 57.166C149.152 54.441 151.5 54.776 151.5 57.653C151.5 58.741 152.199 60.332 153.054 61.19C153.909 62.049 155.43 65.465 156.434 68.782C158.055 74.136 158.695 75.01 162.13 76.559C164.259 77.518 166 78.685 166 79.152C166 80.357 164.747 80.21 160.74 78.536C157.311 77.103 157.14 77.147 152.73 80.582L148.224 84.093L149.621 88.737C150.563 91.866 150.689 93.711 150.008 94.392C149.327 95.073 150.008 96.445 152.094 98.597L155.191 101.793L152.916 108.528C150.812 114.758 150.766 115.356 152.305 116.481C153.22 117.15 153.676 117.991 153.318 118.349C152.96 118.707 153.332 119 154.146 119C156.193 119 161.37 124.593 160.55 125.919C159.466 127.673 158.21 127.218 152.511 123.008C149.265 120.61 146.851 119.432 146.465 120.057C146.025 120.768 145.398 120.745 144.481 119.985C143.38 119.071 143.641 117.759 145.941 112.631C147.481 109.198 149.038 105.455 149.401 104.313C150.45 101.007 147.361 100.623 143.488 103.577C141.531 105.07 139.152 106.011 137.81 105.823C135.875 105.552 135.451 106.001 135.198 108.592C134.951 111.133 135.529 112.166 138.448 114.393C142.233 117.28 142.454 117.734 141.107 119.861C140.431 120.929 139.126 120.391 135.045 117.361C130.092 113.683 129.873 113.326 130.42 109.837C130.737 107.823 131.272 105.455 131.609 104.576C132.51 102.228 129.481 103.562 123.818 108.008C119.168 111.658 119.097 111.677 113.529 110.668L107.922 109.652L103.177 114.326C95.279 122.105 92.933 119.643 100.348 111.358L104.697 106.5L103.031 101.5C101.989 98.37 100.549 96.131 99.183 95.513C97.059 94.552 96.386 92.948 97.598 91.736C98.698 90.635 101 92.193 101 94.037C101 95.139 101.853 95.987 103.155 96.18C104.646 96.402 105.732 97.725 106.681 100.476C108.414 105.501 108.622 105.689 113.752 106.837C117.807 107.744 118.232 107.607 122.895 103.894C128.091 99.757 129.837 99.242 131.859 101.25C132.869 102.252 132.988 102.157 132.46 100.77C132.098 99.819 130.188 98.019 128.217 96.77C126.245 95.522 124.251 94.24 123.784 93.921C123.318 93.603 122.714 90.678 122.442 87.421C121.989 81.996 121.599 81.192 117.79 77.814C113.94 74.401 113.446 74.227 111.107 75.452C108.748 76.688 108.597 77.218 108.801 83.548C108.966 88.689 108.618 90.765 107.355 92.161C104.969 94.797 102.65 94.561 103.317 91.75C103.611 90.513 104.153 86.984 104.521 83.909L105.191 78.319L100.858 74.611C97.673 71.884 95.927 71.053 94.263 71.47C91.755 72.099 91.098 70.283 93.5 69.362C95.095 68.75 95.472 64.377 94.362 59.375C94.011 57.794 91.984 54.984 89.858 53.131C86.665 50.348 85.732 49.977 84.496 51.003C83.276 52.015 83 51.956 83 50.681C83 49.822 83.45 48.84 84 48.5C84.55 48.16 85 45.581 85 42.77C85 38.016 84.684 37.355 80.5 33.345C78.025 30.974 76 28.603 76 28.076C76 25.752 78.115 26.254 82 29.5C84.304 31.425 86.497 33 86.872 33C88.856 33 92 29.593 92 27.443C92 25.667 92.546 25 94 25C95.427 25 96 25.667 96 27.326C96 29.425 98.576 32.619 101.674 34.363C102.339 34.738 103.738 33.773 104.904 32.134C106.938 29.278 106.941 29.185 105.114 23.873C103.453 19.043 103 18.529 100.633 18.788C98.556 19.015 98 18.645 98 17.038C98 14.765 101.518 14.117 102.28 16.25C102.525 16.938 103.049 17.202 103.443 16.837C104.249 16.091 101.234 10.931 99.274 9.7C97.642 8.676 97.628 6.3 99.25 5.718C101.101 5.054 101.875 5.765 103.477 9.6ZM124.823 15.369C125.21 17.318 123.065 17.499 120.637 15.724C119.522 14.908 119.136 13.81 119.568 12.683C120.168 11.12 120.488 11.079 122.373 12.329C123.543 13.104 124.645 14.473 124.823 15.369ZM130.057 16.893C129.437 18.052 128.495 19 127.965 19C126.6 19 126.765 15.635 128.2 14.2C130.005 12.395 131.39 14.403 130.057 16.893ZM128.767 22.739C130.363 24.003 131.385 26.416 132.215 30.879C133.282 36.62 133.759 37.454 137.217 39.637C140.341 41.609 141.42 41.845 143.127 40.932C146.083 39.35 148.162 41.43 145.54 43.347C143.867 44.571 143.805 45.167 144.898 49.508C145.861 53.333 145.851 54.474 144.852 55.092C142.994 56.24 142.303 55.44 141.539 51.261C140.613 46.191 138.765 43.559 135.051 42.021C132.161 40.824 131.552 40.98 126.236 44.28C123.095 46.23 120.182 47.613 119.763 47.353C117.925 46.218 119.386 44.261 124.508 41C127.531 39.075 129.815 36.995 129.583 36.378C129.351 35.761 128.848 33.168 128.465 30.616C127.915 26.947 127.166 25.621 124.885 24.273C122.102 22.629 121.31 21.023 122.631 19.702C123.324 19.009 125.281 19.978 128.767 22.739ZM168.335 24.75C168.584 25.163 166.638 27.931 164.011 30.902C160.793 34.541 158.727 36.109 157.679 35.707C156.464 35.241 157.24 33.891 161.211 29.555C166.219 24.088 167.438 23.265 168.335 24.75ZM90.5 34.576C88.822 35.845 88.558 37.006 88.858 41.781C89.178 46.883 89.594 47.803 92.858 50.636C96.417 53.726 96.564 53.76 99.329 52.149C102.038 50.57 102.131 50.268 101.528 45C100.988 40.283 100.371 39.039 97.199 36.265C92.94 32.54 93.13 32.587 90.5 34.576ZM100.711 54.884C98.694 56.053 98.067 57.053 98.447 58.5C98.736 59.6 98.979 62.15 98.986 64.166C98.998 67.25 99.645 68.343 103.064 71.051C106.81 74.017 107.327 74.163 109.669 72.909C112.006 71.659 112.175 71.12 111.767 66.201C111.383 61.571 110.798 60.343 107.412 57.06C103.566 53.331 103.453 53.294 100.711 54.884ZM160 96.333C160 98.409 158.816 99.093 157.342 97.869C155.404 96.26 155.693 95 158 95C159.1 95 160 95.6 160 96.333Z" fill="#193E09"/>
<path fill-rule="evenodd" clip-rule="evenodd" d="M0 66.5V133H125H250V66.5V0H125H0V66.5ZM103.677 8.449C104.987 11.196 105.665 11.715 107.008 10.996C108.092 10.416 109.105 10.505 109.847 11.247C111.391 12.791 111.299 14.012 109.488 16.013C108.139 17.503 108.143 18.152 109.518 22.051C110.365 24.453 111.482 26.68 111.999 26.999C112.539 27.333 112.603 28.839 112.148 30.54C111.712 32.168 111.092 33.275 110.769 33C110.446 32.725 109.187 33.764 107.972 35.309C106.127 37.655 105.838 39.029 106.22 43.642C106.635 48.649 107.121 49.603 111.415 53.833C115.863 58.216 116.173 58.863 116.507 64.468C116.849 70.187 117.075 70.631 121.932 75.12C126.746 79.569 127 80.06 127 84.896C127 89.715 127.221 90.148 131.141 92.987L135.282 95.987L137.756 93.318C139.982 90.916 140.53 90.762 143.219 91.777C146.035 92.84 146.174 92.777 145.618 90.702C145.293 89.491 145.021 87.99 145.014 87.367C145.006 86.743 144.1 85.998 143 85.71C140.623 85.089 140.295 82 142.607 82C143.491 82 146.347 80.301 148.954 78.225L153.695 74.451L152.314 69.715C151.353 66.417 149.594 63.745 146.521 60.913C142.975 57.644 141.87 55.778 140.891 51.403C139.907 47.007 139.057 45.58 136.468 43.981C132.31 41.41 132.032 41.441 126.109 45.123C121.412 48.043 118 48.428 118 46.038C118 45.141 124.12 40.183 127.792 38.105C128.719 37.58 128.885 36.134 128.381 32.981C127.676 28.575 125.978 26.261 120.624 22.409C118.141 20.623 117.902 20.052 118.876 18.231C119.6 16.879 119.653 15.903 119.023 15.514C117.953 14.853 119.885 11 121.286 11C121.729 11 123.195 12.105 124.545 13.455C126.235 15.144 127 15.456 127 14.455C127 13.04 130.077 12.411 131.252 13.585C132.032 14.366 130.031 20 128.974 20C128.517 20 127.464 19.322 126.635 18.492C125.806 17.663 124.87 17.402 124.554 17.912C124.239 18.422 125.223 19.771 126.74 20.909C128.258 22.047 129.995 23.388 130.6 23.889C131.205 24.389 132.235 27.518 132.889 30.842C133.932 36.142 134.519 37.158 137.667 39.103C140.664 40.956 141.58 41.119 143.22 40.095C144.859 39.071 145.407 39.168 146.538 40.684C147.709 42.254 147.632 42.703 145.971 44C144.202 45.381 144.155 45.858 145.378 50C146.473 53.704 147.176 54.556 149.354 54.816C151.366 55.057 152 55.69 152 57.459C152 58.739 152.615 60.022 153.367 60.31C154.118 60.599 155.517 63.731 156.475 67.271C158.103 73.282 158.507 73.848 162.609 75.841C165.024 77.014 167 78.444 167 79.018C167 80.988 163.817 81.283 160.36 79.634C156.927 77.998 156.872 78.009 152.97 81.145C149.675 83.792 149.14 84.725 149.666 86.902C151.206 93.283 151.731 93.868 156.203 94.19C159.73 94.444 160.5 94.858 160.5 96.5C160.5 98.005 159.733 98.575 157.399 98.802C154.699 99.065 154.358 99.423 154.767 101.563C155.026 102.915 154.284 106.237 153.119 108.946C151.953 111.655 151 114.254 151 114.722C151 115.19 153.277 117.273 156.061 119.352C159.845 122.176 161.044 123.679 160.811 125.305C160.304 128.852 157.818 128.322 152.302 123.49C147.339 119.142 147.055 119.028 146.017 120.968C144.415 123.961 142.571 123.508 135.335 118.345C128.521 113.483 128.217 112.747 130.537 106.75C131.627 103.932 128.944 104.666 124.109 108.51C119.342 112.299 118.636 112.444 112.173 110.953L107.846 109.955L103.33 114.978C100.847 117.74 98.167 120 97.376 120C94.19 120 94.946 116.882 99.393 111.676L103.982 106.305L102.371 101.576C101.343 98.559 99.914 96.462 98.421 95.782C95.125 94.28 96.931 90.819 100.801 91.22C103.483 91.498 103.502 91.455 103.742 84.5C103.983 77.515 103.976 77.494 100.351 74.766C97.798 72.844 96.019 72.208 94.36 72.625C92.455 73.103 92 72.822 92 71.167C92 70.04 92.45 68.84 93 68.5C93.55 68.16 94 65.487 94 62.56C94 57.648 93.729 57.031 90.485 54.556C88.141 52.769 86.306 52.085 84.98 52.506C82.633 53.251 81.095 50.505 82.867 48.733C83.49 48.11 84 45.237 84 42.35C84 37.351 83.784 36.919 79.5 33.338C77.025 31.269 75 28.983 75 28.257C75 25.479 78.176 25.807 82.141 28.993C85.638 31.803 86.504 32.092 88.59 31.141C90.209 30.403 91 29.215 91 27.521C91 25.387 91.46 25 94 25C96.418 25 97 25.424 97 27.186C97 29.251 100.526 34 102.059 34C102.45 34 103.524 32.849 104.446 31.442C106.004 29.064 106.007 28.539 104.489 23.967C103.148 19.929 102.466 19.09 100.681 19.275C98.016 19.551 96.934 15.346 99.424 14.391C100.834 13.85 100.827 13.515 99.345 11.007C98.44 9.476 97.979 7.498 98.319 6.611C99.353 3.916 101.938 4.803 103.677 8.449ZM168.796 25.193C169.107 26.794 159.158 38 157.426 38C156.876 38 156.353 37.038 156.265 35.862C156.163 34.514 158.002 31.734 161.24 28.341C166.321 23.018 168.221 22.226 168.796 25.193ZM91.019 35.699C89.008 37.108 88.822 37.856 89.356 42.392C89.846 46.554 90.554 47.989 93.178 50.137C95.856 52.33 96.788 52.598 98.7 51.727C102.822 49.849 101.455 40.347 96.522 36.584C93.489 34.271 93.139 34.215 91.019 35.699ZM100.75 56.08C99.577 56.763 99.005 58.319 99.015 60.8C99.033 65.379 100.674 68.694 104.23 71.334C106.586 73.083 107.285 73.186 109.346 72.083C111.465 70.948 111.678 70.285 111.246 66.153C110.89 62.742 109.939 60.633 107.684 58.25C104.391 54.771 103.485 54.487 100.75 56.08ZM110.2 77.2C109.534 77.866 109 81.063 109 84.386C109 89.04 108.545 90.856 106.954 92.549C104.971 94.66 104.96 94.865 106.597 99.114C108.611 104.341 109.965 105.583 114.599 106.453C117.688 107.032 118.665 106.63 123.024 102.98C126.618 99.971 128.504 99.025 129.978 99.493C133.207 100.518 132.342 99.4 127.57 96.381C123.438 93.767 123.069 93.171 122.093 87.539C121.278 82.836 120.375 80.892 118.008 78.75C114.745 75.798 112.123 75.277 110.2 77.2ZM138.942 98.846C135.983 101.242 137.836 102.387 140.914 100.065C142.296 99.022 142.845 98.022 142.24 97.648C141.673 97.298 140.188 97.837 138.942 98.846ZM143.052 104.61C141.184 106.182 139.196 107.023 138.055 106.725C136.66 106.36 135.993 106.89 135.531 108.732C135.185 110.109 135.037 111.321 135.201 111.425C135.366 111.529 137.361 113.048 139.636 114.801L143.773 117.988L145.851 112.744C150.267 101.598 149.451 99.225 143.052 104.61Z" fill="#CC3437"/>
<path fill-rule="evenodd" clip-rule="evenodd" d="M0 66.5V133H125H250V66.5V0H125H0V66.5ZM103.66 8.413C105.167 11.572 105.481 11.744 107.894 10.72C109.327 10.111 111.297 8.947 112.27 8.133C113.852 6.811 114.352 6.884 116.98 8.827C118.596 10.022 120.408 11 121.005 11C121.602 11 123.195 12.105 124.545 13.455C126.235 15.144 127 15.456 127 14.455C127 13.029 130.081 12.414 131.269 13.603C132.17 14.504 130.159 19.163 128.274 20.542C126.784 21.631 126.834 21.813 128.791 22.434C130.89 23.1 131.751 25.167 133.489 33.712C134.269 37.548 139.999 41.676 142.775 40.404C143.724 39.97 144.981 39.581 145.569 39.54C146.158 39.5 147.829 38.687 149.284 37.733C152.188 35.831 153.003 35.615 152.994 36.75C152.99 37.163 151.634 38.27 149.981 39.211C148.327 40.152 147.092 41.358 147.237 41.89C147.382 42.423 146.721 43.453 145.768 44.179C144.209 45.368 144.17 45.951 145.372 50C146.471 53.702 147.178 54.556 149.354 54.816C151.366 55.057 152 55.69 152 57.459C152 58.739 152.615 60.022 153.367 60.31C154.118 60.599 155.517 63.731 156.475 67.271C158.103 73.282 158.507 73.848 162.609 75.841C165.024 77.014 167 78.444 167 79.018C167 80.988 163.817 81.283 160.36 79.634C156.927 77.998 156.872 78.009 152.97 81.145C149.675 83.792 149.14 84.725 149.666 86.902C151.206 93.283 151.731 93.868 156.203 94.19C159.73 94.444 160.5 94.858 160.5 96.5C160.5 98.005 159.733 98.575 157.399 98.802C154.699 99.065 154.358 99.423 154.767 101.563C155.026 102.915 154.284 106.237 153.119 108.946C151.953 111.655 151 114.254 151 114.722C151 115.19 153.277 117.273 156.061 119.352C159.845 122.176 161.044 123.679 160.811 125.305C160.304 128.852 157.818 128.322 152.302 123.49C147.339 119.142 147.055 119.028 146.017 120.968C144.415 123.961 142.571 123.508 135.335 118.345C128.521 113.483 128.217 112.747 130.537 106.75C131.627 103.932 128.944 104.666 124.109 108.51C119.342 112.299 118.636 112.444 112.173 110.953L107.846 109.955L103.33 114.978C100.847 117.74 98.167 120 97.376 120C94.19 120 94.946 116.882 99.393 111.676L103.982 106.305L102.371 101.576C101.34 98.551 99.914 96.462 98.411 95.778C97.12 95.189 96.303 94.32 96.596 93.845C96.889 93.371 96.087 92.581 94.814 92.089C93.056 91.409 93.821 91.231 98 91.347L103.5 91.5L103.742 84.5C103.983 77.515 103.976 77.494 100.351 74.766C97.798 72.844 96.019 72.208 94.36 72.625C92.455 73.103 92 72.822 92 71.167C92 70.04 92.45 68.84 93 68.5C93.55 68.16 94 65.487 94 62.56C94 57.648 93.729 57.031 90.485 54.556C88.141 52.769 86.306 52.085 84.98 52.506C82.633 53.251 81.095 50.505 82.867 48.733C83.49 48.11 84 45.237 84 42.35C84 37.351 83.784 36.919 79.5 33.338C77.025 31.269 75 28.983 75 28.257C75 25.479 78.176 25.807 82.141 28.993C85.638 31.803 86.504 32.092 88.59 31.141C90.209 30.403 91 29.215 91 27.521C91 26.135 91.45 25 92 25C92.55 25 93.012 23.313 93.026 21.25C93.049 17.862 93.435 17.323 97.032 15.665L101.012 13.829L99.356 11.026C98.446 9.484 97.979 7.498 98.319 6.611C99.349 3.926 101.936 4.798 103.66 8.413ZM112.917 12.25C108.37 16.131 107.895 17.452 109.459 21.883C111.302 27.108 113.139 29 116.37 29C118.774 29 120.758 30.575 119.694 31.639C119.415 31.918 117.57 31.699 115.594 31.154C112.642 30.338 112 30.425 112 31.64C112 32.453 111.622 32.884 111.159 32.598C110.696 32.312 109.295 33.462 108.045 35.153C106.149 37.717 105.847 39.138 106.225 43.697C106.635 48.64 107.134 49.615 111.415 53.833C115.863 58.216 116.173 58.863 116.507 64.468C116.849 70.187 117.075 70.631 121.932 75.12C126.746 79.569 127 80.06 127 84.896C127 89.715 127.221 90.148 131.141 92.987L135.282 95.987L137.756 93.318C139.982 90.916 140.53 90.762 143.219 91.777C146.035 92.84 146.174 92.777 145.618 90.702C145.293 89.491 145.021 87.99 145.014 87.367C145.006 86.743 144.1 85.998 143 85.71C140.623 85.089 140.295 82 142.607 82C143.491 82 146.347 80.301 148.954 78.225L153.695 74.451L152.314 69.715C151.353 66.417 149.594 63.745 146.521 60.913C142.975 57.644 141.87 55.778 140.891 51.403C139.907 47.007 139.057 45.58 136.468 43.981C132.31 41.41 132.032 41.441 126.109 45.123C121.412 48.043 118 48.428 118 46.038C118 45.141 124.12 40.183 127.792 38.105C128.719 37.58 128.885 36.134 128.381 32.981C127.676 28.575 125.978 26.261 120.624 22.409C118.141 20.623 117.902 20.052 118.876 18.231C119.632 16.819 119.668 15.913 118.986 15.492C118.426 15.145 118.212 14.465 118.512 13.981C118.811 13.497 118.173 12.628 117.094 12.05C114.648 10.741 114.688 10.739 112.917 12.25ZM124.609 17.824C124.256 18.395 124.455 19.163 125.05 19.531C126.536 20.449 127.062 19.719 126.071 18.114C125.539 17.255 125.024 17.152 124.609 17.824ZM94 18.941C94 19.459 94.411 20.136 94.913 20.446C95.415 20.757 96.138 22.921 96.519 25.255C97.144 29.091 100.255 34 102.059 34C102.45 34 103.524 32.849 104.446 31.442C106.009 29.056 106.011 28.548 104.468 23.904C103.128 19.871 102.468 19.034 100.991 19.503C99.989 19.821 98.879 19.613 98.525 19.041C97.723 17.743 94 17.661 94 18.941ZM168.796 25.193C169.107 26.794 159.158 38 157.426 38C156.876 38 156.353 37.038 156.265 35.862C156.163 34.514 158.002 31.734 161.24 28.341C166.321 23.018 168.221 22.226 168.796 25.193ZM91.019 35.699C89.008 37.108 88.822 37.856 89.356 42.392C89.846 46.554 90.554 47.989 93.178 50.137C95.856 52.33 96.788 52.598 98.7 51.727C102.822 49.849 101.455 40.347 96.522 36.584C93.489 34.271 93.139 34.215 91.019 35.699ZM122 54.5C122 55.325 121.325 56 120.5 56C119.675 56 119 55.325 119 54.5C119 53.675 119.675 53 120.5 53C121.325 53 122 53.675 122 54.5ZM100.75 56.08C99.577 56.763 99.005 58.319 99.015 60.8C99.033 65.379 100.674 68.694 104.23 71.334C106.586 73.083 107.285 73.186 109.346 72.083C111.465 70.948 111.678 70.285 111.246 66.153C110.89 62.742 109.939 60.633 107.684 58.25C104.391 54.771 103.485 54.487 100.75 56.08ZM110.2 77.2C109.534 77.866 109 81.063 109 84.386C109 89.04 108.545 90.856 106.954 92.549C104.971 94.66 104.96 94.865 106.597 99.114C108.611 104.341 109.965 105.583 114.599 106.453C117.688 107.032 118.665 106.63 123.024 102.98C126.618 99.971 128.504 99.025 129.978 99.493C133.207 100.518 132.342 99.4 127.57 96.381C123.438 93.767 123.069 93.171 122.093 87.539C121.278 82.836 120.375 80.892 118.008 78.75C114.745 75.798 112.123 75.277 110.2 77.2ZM138.942 98.846C135.983 101.242 137.836 102.387 140.914 100.065C142.296 99.022 142.845 98.022 142.24 97.648C141.673 97.298 140.188 97.837 138.942 98.846ZM143.052 104.61C141.184 106.182 139.196 107.023 138.055 106.725C136.66 106.36 135.993 106.89 135.531 108.732C135.185 110.109 135.037 111.321 135.201 111.425C135.366 111.529 137.361 113.048 139.636 114.801L143.773 117.988L145.851 112.744C150.267 101.598 149.451 99.225 143.052 104.61Z" fill="#631D19"/>
<path fill-rule="evenodd" clip-rule="evenodd" d="M0 66.5V133H125H250V66.5V0H125H0V66.5ZM103.699 8.495C105.294 11.839 105.466 11.926 107.683 10.495C115.204 5.642 114.121 5.728 119.537 9.552C122.267 11.48 125.063 13.805 125.75 14.719C126.913 16.266 127 16.264 127 14.691C127 13.061 129.978 12.311 131.28 13.613C131.617 13.951 131.175 16.02 130.298 18.213C129.062 21.303 128.979 22.369 129.932 22.958C130.608 23.375 131.912 26.758 132.83 30.475C134.3 36.424 134.927 37.479 138.068 39.289L141.637 41.346L146.068 38.332C148.506 36.674 151.881 34.848 153.569 34.274C155.258 33.7 158.901 30.859 161.665 27.961C166.399 22.998 169 22.114 169 25.468C169 27.707 158.621 38 156.363 38C154.691 38 148.155 41.891 144.786 44.892C144.393 45.242 144.665 47.547 145.39 50.014C146.475 53.706 147.176 54.556 149.354 54.816C151.366 55.057 152 55.69 152 57.459C152 58.739 152.615 60.022 153.367 60.31C154.118 60.599 155.517 63.731 156.475 67.271C158.103 73.282 158.507 73.848 162.609 75.841C165.024 77.014 167 78.444 167 79.018C167 80.988 163.817 81.283 160.36 79.634C156.927 77.998 156.872 78.009 152.97 81.145C149.675 83.792 149.14 84.725 149.666 86.902C151.206 93.283 151.731 93.868 156.203 94.19C159.73 94.444 160.5 94.858 160.5 96.5C160.5 98.005 159.733 98.575 157.399 98.802C154.699 99.065 154.358 99.423 154.767 101.563C155.026 102.915 154.284 106.237 153.119 108.946C151.953 111.655 151 114.254 151 114.722C151 115.19 153.277 117.273 156.061 119.352C159.845 122.176 161.044 123.679 160.811 125.305C160.304 128.852 157.818 128.322 152.302 123.49C147.339 119.142 147.055 119.028 146.017 120.968C144.415 123.961 142.571 123.508 135.335 118.345C128.521 113.483 128.217 112.747 130.537 106.75C131.627 103.932 128.944 104.666 124.109 108.51C119.342 112.299 118.636 112.444 112.173 110.953L107.846 109.955L103.33 114.978C100.847 117.74 98.167 120 97.376 120C94.19 120 94.946 116.882 99.393 111.676L103.982 106.305L102.358 101.537C100.973 97.473 100.096 96.488 96.408 94.856C91.396 92.639 90.524 91.64 92.307 90.16C93.228 89.395 94.801 89.51 97.863 90.565C100.211 91.374 102.553 91.776 103.066 91.459C103.58 91.142 104 87.921 104 84.301C104 77.481 103.931 77.349 98.326 73.401C96.374 72.026 95.849 72.027 93.177 73.409C90.66 74.71 90.025 74.735 89.059 73.571C88.159 72.486 88.56 71.737 90.959 70.03C93.694 68.082 94 67.329 94 62.551C94 57.623 93.738 57.038 90.392 54.485C86.826 51.766 86.741 51.753 83.236 53.424C80.37 54.791 79.53 54.865 78.857 53.808C78.299 52.932 79.014 51.675 81.021 50C83.649 47.808 84.017 46.859 84.009 42.3C84 37.365 83.771 36.908 79.5 33.338C77.025 31.269 75 28.983 75 28.257C75 25.479 78.176 25.807 82.141 28.993C85.584 31.76 86.524 32.082 88.511 31.177C90.427 30.304 90.958 29.081 91.493 24.307C92.386 16.356 92.281 16.532 96.924 15.141L101.056 13.903L99.378 11.063C98.455 9.501 97.979 7.498 98.319 6.611C99.358 3.905 101.941 4.809 103.699 8.495ZM110.998 14.721L107.9 17.5L109.48 21.959C111.255 26.972 112.348 27.963 116.128 27.985C117.573 27.993 119.299 28.655 119.964 29.456C122.028 31.944 120.134 33.178 114.993 32.696C110.586 32.282 110.015 32.489 107.983 35.237C106.155 37.709 105.85 39.176 106.224 43.686C106.607 48.304 107.225 49.692 110.244 52.711L113.812 56.279L117.281 54.136C120.286 52.278 120.91 52.187 121.96 53.452C123.486 55.29 122.69 56.592 118.819 58.593C115.855 60.126 115.785 60.325 116.418 65.336C116.991 69.87 117.676 71.067 122.035 75.152C126.729 79.551 127 80.082 127 84.896C127 89.715 127.221 90.148 131.141 92.987L135.282 95.987L137.756 93.318C139.982 90.916 140.53 90.762 143.219 91.777C146.035 92.84 146.174 92.777 145.618 90.702C145.293 89.491 145.021 87.99 145.014 87.367C145.006 86.743 144.1 85.998 143 85.71C140.623 85.089 140.295 82 142.607 82C143.491 82 146.347 80.301 148.954 78.225L153.695 74.451L152.314 69.715C151.353 66.417 149.594 63.745 146.521 60.913C142.975 57.644 141.87 55.778 140.891 51.403C139.907 47.007 139.057 45.58 136.468 43.981C132.31 41.41 132.032 41.441 126.109 45.123C121.412 48.043 118 48.428 118 46.038C118 45.141 124.12 40.183 127.792 38.105C128.719 37.58 128.885 36.134 128.381 32.981C127.676 28.575 125.978 26.261 120.624 22.409C118.177 20.649 117.911 20.035 118.842 18.296C119.711 16.672 119.583 15.949 118.218 14.778C114.936 11.963 114.081 11.956 110.998 14.721ZM124.5 18C124.16 18.55 124.359 19 124.941 19C125.523 19 126 18.55 126 18C126 17.45 125.802 17 125.559 17C125.316 17 124.84 17.45 124.5 18ZM99.25 19.706C97.293 20.083 97 20.758 97 24.895C97 28.574 97.524 30.144 99.314 31.826C102.226 34.561 102.412 34.547 104.446 31.442C106.006 29.061 106.009 28.542 104.481 23.942C103.578 21.224 102.538 19.061 102.17 19.136C101.801 19.211 100.487 19.467 99.25 19.706ZM91.019 35.699C89.008 37.108 88.822 37.856 89.356 42.392C89.846 46.554 90.554 47.989 93.178 50.137C95.856 52.33 96.788 52.598 98.7 51.727C102.822 49.849 101.455 40.347 96.522 36.584C93.489 34.271 93.139 34.215 91.019 35.699ZM100.75 56.08C99.577 56.763 99.005 58.319 99.015 60.8C99.033 65.379 100.674 68.694 104.23 71.334C106.586 73.083 107.285 73.186 109.346 72.083C111.465 70.948 111.678 70.285 111.246 66.153C110.89 62.742 109.939 60.633 107.684 58.25C104.391 54.771 103.485 54.487 100.75 56.08ZM110.2 77.2C109.534 77.866 109 81.063 109 84.386C109 89.04 108.545 90.856 106.954 92.549C104.971 94.66 104.96 94.865 106.597 99.114C108.611 104.341 109.965 105.583 114.599 106.453C117.688 107.032 118.665 106.63 123.024 102.98C126.618 99.971 128.504 99.025 129.978 99.493C133.207 100.518 132.342 99.4 127.57 96.381C123.438 93.767 123.069 93.171 122.093 87.539C121.278 82.836 120.375 80.892 118.008 78.75C114.745 75.798 112.123 75.277 110.2 77.2ZM138.942 98.846C135.983 101.242 137.836 102.387 140.914 100.065C142.296 99.022 142.845 98.022 142.24 97.648C141.673 97.298 140.188 97.837 138.942 98.846ZM143.052 104.61C141.184 106.182 139.196 107.023 138.055 106.725C136.66 106.36 135.993 106.89 135.531 108.732C135.185 110.109 135.037 111.321 135.201 111.425C135.366 111.529 137.361 113.048 139.636 114.801L143.773 117.988L145.851 112.744C150.267 101.598 149.451 99.225 143.052 104.61Z" fill="black"/>
</svg>
