<svg width="64" height="64" viewBox="0 0 64 64" fill="none" xmlns="http://www.w3.org/2000/svg">
<g clip-path="url(#clip0_1_2)">
<path fill-rule="evenodd" clip-rule="evenodd" d="M0 32V64H32H64V32V0H32H0V32Z" fill="white"/>
<path fill-rule="evenodd" clip-rule="evenodd" d="M0 32V64H32H64V32V0H32H0V32ZM40.504 8.656C49.728 11.799 57 22.09 57 32C57 38.04 54.017 45.036 49.526 49.526C39.745 59.308 24.255 59.308 14.474 49.526C4.684 39.736 4.691 24.256 14.492 14.456C21.437 7.51 30.93 5.394 40.504 8.656ZM22.5 10.879C14.08 14.741 9.044 22.646 9.044 32C9.044 45.102 18.898 54.956 32 54.956C45.102 54.956 54.956 45.102 54.956 32C54.956 18.898 45.102 9.044 32 9.044C28.785 9.044 24.838 9.806 22.5 10.879ZM30.693 24.093C31.483 24.883 32.35 24.883 33.827 24.093C38.86 21.399 45 24.37 45 29.5C45 31.889 44.733 32 39 32C33.314 32 33 32.127 33 34.429C33 39.246 38.191 41.666 41.476 38.381C43.453 36.404 44.786 37.349 43.02 39.476C41.436 41.385 36.005 41.455 33.468 39.6C31.826 38.4 31.267 38.4 29.554 39.6C25.127 42.7 19 40.61 19 36C19 32.444 21.292 31 26.934 31C30.283 31 31 30.66 31 29.071C31 24.704 25.627 22.516 22.524 25.619C21.633 26.51 20.589 26.923 20.204 26.537C19.02 25.353 23.203 23 26.491 23C28.201 23 30.092 23.492 30.693 24.093ZM34.655 25.829C31.45 29.37 32.504 31 38 31C42.272 31 43 30.719 43 29.071C43 26.657 40.424 24 38.084 24C37.108 24 35.565 24.823 34.655 25.829ZM22.2 33.2C19.675 35.725 21.561 40 25.2 40C27.606 40 31 36.489 31 34C31 32.351 30.333 32 27.2 32C25.11 32 22.86 32.54 22.2 33.2Z" fill="#DCDCDC"/>
<path fill-rule="evenodd" clip-rule="evenodd" d="M0 32V64H32H64V32V0H32H0V32ZM42 9.081C48.043 11.816 51.776 15.491 54.617 21.5C62.389 37.941 50.253 56.98 32 56.98C18.147 56.98 7.044 45.866 7.044 32C7.044 25.767 9.653 19.066 13.809 14.624C20.522 7.448 32.981 4.998 42 9.081ZM24.147 10.145C19.211 11.566 11.395 19.823 9.96 25.132C6.182 39.111 15.328 53.256 29.055 54.662C37.136 55.49 42.43 53.669 47.896 48.18C57.46 38.575 57.465 25.431 47.908 15.833C41.523 9.42 33.412 7.479 24.147 10.145ZM29.421 23.535C31.423 24.58 32.665 24.735 33.371 24.029C34.975 22.425 41.143 22.819 43.171 24.655C44.177 25.565 45 27.568 45 29.105C45 31.78 44.74 31.93 39 32.58C34.076 33.137 33 33.59 33 35.106C33 36.122 34.149 37.706 35.552 38.626C37.979 40.216 38.248 40.193 40.999 38.159C42.591 36.982 44.113 36.374 44.381 36.807C45.173 38.088 43.651 39.802 40.738 40.909C37.834 42.014 35.486 41.539 32.893 39.323C31.525 38.153 31.099 38.175 30.021 39.475C28.511 41.295 21.913 41.513 20.2 39.8C18.62 38.22 18.663 33.525 20.27 32.191C20.968 31.612 23.52 30.994 25.942 30.819C31.062 30.448 31.836 29.237 29.086 25.901C27.13 23.528 27.069 23.521 23.918 25.281C20.639 27.113 19.265 26.998 20.502 24.996C21.105 24.021 24.435 22.249 26 22.07C26.275 22.038 27.814 22.698 29.421 23.535ZM35.223 25.557C34 26.413 33 27.988 33 29.057C33 30.722 33.715 31 38 31C42.285 31 43 30.722 43 29.057C43 27.383 39.655 24 38 24C37.695 24 36.445 24.701 35.223 25.557ZM22.75 33.08C18.588 35.504 22.714 41.294 26.977 39.012C29.35 37.742 31.329 34.341 30.487 32.979C29.703 31.71 24.997 31.771 22.75 33.08Z" fill="#B5B5B5"/>
<path fill-rule="evenodd" clip-rule="evenodd" d="M0 32V64H32H64V32V0H32H0V32ZM42.522 8.871C47.657 11.204 52.796 16.343 55.129 21.478C57.57 26.852 57.57 37.148 55.129 42.522C50.963 51.692 42.528 56.956 32 56.956C17.174 56.956 7.044 46.826 7.044 32C7.044 17.174 17.174 7.044 32 7.044C36.161 7.044 39.947 7.701 42.522 8.871ZM24.885 10.32C19.205 12.444 15.237 15.74 12.254 20.815C10.003 24.645 9.5 26.7 9.5 32.078C9.5 37.656 9.961 39.402 12.526 43.552C14.402 46.586 17.414 49.598 20.448 51.474C24.613 54.049 26.336 54.5 32 54.5C37.664 54.5 39.387 54.049 43.552 51.474C46.586 49.598 49.598 46.586 51.474 43.552C54.049 39.387 54.5 37.664 54.5 32C54.5 26.336 54.049 24.613 51.474 20.448C45.897 11.427 34.022 6.904 24.885 10.32ZM30 23.309C32.076 24.371 32.942 24.338 35.101 23.111C38.732 21.049 43.47 23.04 44.935 27.244C46.841 32.711 46.568 33 39.5 33C32.808 33 32.129 33.505 34.035 37.066C35.297 39.424 40.78 39.737 41.638 37.5C42.374 35.582 45 35.538 45 37.443C45 39.302 41.151 42 38.5 42C37.37 42 35.456 41.308 34.248 40.461C32.27 39.076 31.754 39.076 29.075 40.461C25.149 42.491 23.785 42.405 20.635 39.927C15.752 36.086 18.181 31.634 25.828 30.412C29.441 29.834 30.057 29.4 29.802 27.614C29.405 24.837 24.16 24.061 22.366 26.514C20.91 28.505 18.822 27.626 19.683 25.384C20.859 22.32 26.033 21.279 30 23.309ZM33.989 27.021C32.447 29.903 33.553 31 38 31C42.447 31 43.553 29.903 42.011 27.021C41.304 25.699 39.916 25 38 25C36.084 25 34.696 25.699 33.989 27.021ZM21.638 34.5C20.663 37.043 22.085 39 24.907 39C28.025 39 30 37.371 30 34.8C30 33.375 29.189 33 26.107 33C23.569 33 22.014 33.522 21.638 34.5Z" fill="#797979"/>
<path fill-rule="evenodd" clip-rule="evenodd" d="M0 32V64H32H64V32V0H32H0V32ZM42.406 8.69C50.494 12.818 55.271 18.808 57.152 27.181C60.843 43.609 44.928 60.091 27.989 57.382C21.38 56.325 13.937 51.198 10.386 45.255C4.938 36.138 4.938 27.862 10.386 18.745C13.636 13.306 21.428 7.591 26.863 6.659C31.083 5.936 39.05 6.976 42.406 8.69ZM24.873 10.564C18.537 12.515 12.446 18.76 10.505 25.294C8.64 31.577 8.64 32.423 10.505 38.706C13.747 49.621 25.482 56.553 36.532 54.08C54.306 50.103 60.657 28.893 47.897 16.132C45.174 13.409 42.056 11.5 38.706 10.505C32.626 8.7 30.904 8.707 24.873 10.564ZM32 23.045C32.825 23.045 35.091 22.772 37.035 22.438C41.653 21.646 44.848 24.168 45.661 29.25L46.262 33H39.631C35.984 33 33 33.35 33 33.777C33 37.685 40.352 40.853 41.638 37.5C42.374 35.582 45 35.538 45 37.443C45 41.176 37.182 43.316 33.468 40.6C31.826 39.4 31.267 39.4 29.554 40.6C26.695 42.602 22.328 42.328 20 40C15.758 35.758 18.348 31.053 25.363 30.263C29.484 29.798 30.064 29.452 29.802 27.614C29.417 24.921 24.128 24.019 22.786 26.418C21.678 28.397 19 28.495 19 26.557C19 23.978 23.188 21.837 27 22.467C28.925 22.785 31.175 23.045 32 23.045ZM35.32 26.199C32.605 29.701 32.808 30 37.909 30C42.7 30 42.897 29.894 42.11 27.75C41.164 25.173 36.876 24.194 35.32 26.199ZM22 34.5C21.007 35.697 21.007 36.303 22 37.5C24.531 40.549 30 38.703 30 34.8C30 33.422 29.208 33 26.622 33C24.765 33 22.685 33.675 22 34.5Z" fill="#646464"/>
<path fill-rule="evenodd" clip-rule="evenodd" d="M0 32V64H32H64V32V0H32H0V32ZM39.941 7.575C49.764 10.492 58 21.632 58 32C58 42.368 49.764 53.508 39.941 56.425C33.295 58.399 30.705 58.399 24.059 56.425C14.236 53.508 6 42.368 6 32C6 21.9 14.238 10.52 23.64 7.632C30.007 5.676 33.506 5.664 39.941 7.575ZM26.095 10.175C19.48 11.683 11.622 19.873 10.134 26.811C8.312 35.307 10.115 41.245 16.435 47.565C20.624 51.755 22.622 52.968 26.811 53.866C35.307 55.688 41.245 53.885 47.565 47.565C51.755 43.376 52.968 41.378 53.866 37.189C55.482 29.655 53.876 23.277 48.957 17.688C42.796 10.689 35.033 8.138 26.095 10.175ZM32 23.045C32.825 23.045 35.162 22.764 37.193 22.42C40.292 21.895 41.296 22.205 43.443 24.352C45.066 25.975 46 28.021 46 29.955V33H39.5C35.925 33 33 33.35 33 33.777C33 34.205 33.701 35.555 34.557 36.777C36.358 39.349 39.205 39.652 41.357 37.5C44.586 34.272 46.435 36.757 43.345 40.171C41.373 42.35 36.17 42.576 33.468 40.6C31.826 39.4 31.267 39.4 29.554 40.6C26.695 42.602 22.328 42.328 20 40C15.662 35.662 19.099 30 26.07 30C29.718 30 30.106 29.767 29.82 27.75C29.427 24.987 24.966 24.131 23.042 26.449C21.422 28.401 19 28.465 19 26.557C19 23.978 23.188 21.837 27 22.467C28.925 22.785 31.175 23.045 32 23.045ZM34.569 27.193C32.957 29.483 32.975 29.502 37.077 29.813C41.862 30.175 42.849 29.573 41.363 27.202C39.714 24.572 36.417 24.568 34.569 27.193ZM22.362 34.5C21.536 36.652 22.67 39 24.534 39C27.3 39 30 37.006 30 34.965C30 33.383 29.312 33 26.469 33C24.252 33 22.723 33.559 22.362 34.5Z" fill="#505050"/>
<path fill-rule="evenodd" clip-rule="evenodd" d="M0 32V64H32H64V32V0H32H0V32ZM39.941 7.575C49.764 10.492 58 21.632 58 32C58 42.368 49.764 53.508 39.941 56.425C33.295 58.399 30.705 58.399 24.059 56.425C14.236 53.508 6 42.368 6 32C6 21.9 14.238 10.52 23.64 7.632C30.007 5.676 33.506 5.664 39.941 7.575ZM22.5 11.659C14.283 15.983 10 22.956 10 32.01C10 44.954 19.05 54 32 54C44.955 54 54 44.955 54 32C54 22.98 49.764 16.01 41.79 11.908C37.135 9.514 26.828 9.381 22.5 11.659ZM30.693 23.093C31.483 23.883 32.35 23.883 33.827 23.093C39.227 20.203 46 24.021 46 29.955V33H40C34.889 33 34 33.267 34 34.8C34 38.628 38.593 40.4 41 37.5C42.479 35.718 45 35.511 45 37.171C45 41.277 37.46 43.519 33.468 40.6C31.826 39.4 31.267 39.4 29.554 40.6C24.934 43.836 18 41.075 18 36C18 32.328 21.19 30 26.223 30C30.126 30 31.126 28.526 28.8 26.2C27.156 24.556 24.499 24.694 23 26.5C21.416 28.409 19 28.443 19 26.557C19 23.068 28.002 20.402 30.693 23.093ZM35.2 26.2C32.827 28.573 33.878 30 38 30C40.615 30 42 29.55 42 28.7C42 26.913 39.932 25 38 25C37.12 25 35.86 25.54 35.2 26.2ZM22.362 34.5C21.479 36.801 22.718 39 24.897 39C27.188 39 30 36.481 30 34.429C30 32.421 23.135 32.485 22.362 34.5Z" fill="#363636"/>
<path fill-rule="evenodd" clip-rule="evenodd" d="M0 32V64H32H64V32V0H32H0V32ZM42 8.079C62.95 17.551 63.247 45.788 42.5 55.613C25.927 63.461 6.073 50.606 6.032 32C5.991 13.811 25.695 0.707 42 8.079ZM22.252 12.05C13.807 16.339 9.57 23.906 10.187 33.597C10.66 41.017 13.908 46.587 20.186 50.741C23.823 53.149 25.327 53.5 32 53.5C38.673 53.5 40.177 53.149 43.814 50.741C46.107 49.224 49.224 46.107 50.741 43.814C53.149 40.177 53.5 38.673 53.5 32C53.5 25.327 53.149 23.823 50.741 20.186C46.442 13.688 41.001 10.613 33.111 10.221C27.867 9.96 25.621 10.339 22.252 12.05ZM31.005 23.003C32.257 23.673 33.084 23.673 33.498 23.003C33.839 22.451 35.75 22 37.745 22C42.555 22 46 25.203 46 29.674V33H40C34.645 33 34 33.217 34 35.021C34 36.206 35.033 37.513 36.496 38.18C38.527 39.106 39.333 39.009 40.825 37.659C42.845 35.83 46 35.429 46 37C46 37.55 45.1 38.9 44 40C41.793 42.207 35.169 42.769 33.307 40.907C32.517 40.117 31.65 40.117 30.173 40.907C24.843 43.76 18 41.099 18 36.174C18 32.177 20.699 30 25.655 30C28.553 30 30 29.567 30 28.7C30 25.411 24.481 23.582 23.362 26.5C22.628 28.411 19 28.471 19 26.571C19 22.704 26.36 20.517 31.005 23.003ZM35.75 26.08C32.505 27.97 33.67 30 38 30C42.122 30 43.173 28.573 40.8 26.2C39.355 24.755 38.078 24.724 35.75 26.08ZM23.25 33.662C21.508 34.365 21.684 37.665 23.5 38.362C26.124 39.369 30 36.509 30 33.566C30 32.883 25.004 32.955 23.25 33.662Z" fill="black"/>
</g>
<defs>
<clipPath id="clip0_1_2">
<rect width="64" height="64" rx="32" fill="white"/>
</clipPath>
</defs>
</svg>
