<svg width="134" height="173" viewBox="0 0 134 173" fill="none" xmlns="http://www.w3.org/2000/svg">
<path fill-rule="evenodd" clip-rule="evenodd" d="M79.96 6.828C62.548 16.895 61.342 17.76 59.606 21.417C57.483 25.892 57.552 33.431 59.75 37.159C60.713 38.791 67.575 44.658 75 50.197C93.159 63.744 94 64.577 94 69.013C94 73.742 92.39 75.157 77.5 83.512C60.411 93.102 58 95.734 58 104.802C58 111.884 60.338 114.588 77.5 127.348C91.454 137.722 92.571 138.794 93.518 142.718C94.652 147.421 96.115 149.358 98.144 148.844C98.89 148.655 106.177 144.689 114.337 140.032C131.176 130.422 133.21 128.334 133.788 120.065C134.328 112.341 132.145 109.514 116.963 98.27C97.629 83.952 97.6 83.925 97.6 79.657C97.6 74.916 99.062 73.527 111.5 66.453C132.139 54.714 134 52.857 134 44C134 36.377 131.945 33.907 115.653 21.948C107.319 15.83 100.075 10.076 99.556 9.162C99.036 8.248 98.356 5.925 98.044 4C97.132 -1.631 93.648 -1.087 79.96 6.828ZM20.172 31.715C2.794 41.573 0.795002 43.599 0.212002 51.935C-0.339998 59.826 1.764 62.427 19.467 75.746C27.689 81.931 34.838 87.747 35.355 88.67C36.793 91.24 36.323 95.986 34.421 98.087C33.482 99.125 29.741 101.6 26.107 103.587C3.02 116.212 0 119.062 0 128.226C0 135.083 2.494 138.161 16.5 148.593C33.528 161.275 34.917 162.627 35.655 167.244C36.778 174.269 38.38 174.063 54.633 164.802C73.811 153.874 76 151.624 76 142.836C76 135.279 73.883 132.785 56.972 120.418C40.495 108.368 38.058 105.596 39.84 100.934C41.14 97.532 42.88 96.238 56.5 88.541C73.608 78.872 76 76.254 76 67.198C76 60.116 73.662 57.412 56.5 44.652C42.877 34.524 41.408 33.133 40.5 29.5C39.305 24.72 38.294 22.996 36.691 23.01C36.036 23.016 28.602 26.933 20.172 31.715Z" fill="#008080"/>
<path fill-rule="evenodd" clip-rule="evenodd" d="M88.054 2.566C85.608 3.963 80.658 6.69799 77.054 8.64199C61.343 17.117 58 20.798 58 29.624C58 36.239 61.231 40.041 76.097 50.917C91.647 62.294 94.333 64.958 94.333 69C94.333 71.777 89.912 78 87.939 78C86.833 78 64.679 90.981 62.648 92.819C57.857 97.154 56.562 105.693 59.752 111.905C60.926 114.192 66.587 119.115 77 126.905C91.688 137.892 92.556 138.732 93.569 142.935C94.884 148.388 97.073 150.068 100.247 148.058C101.486 147.273 107.675 143.732 114 140.19C120.325 136.647 126.682 132.914 128.127 131.894C134.069 127.698 135.881 117.091 131.713 110.898C130.455 109.029 123.818 103.347 116.963 98.27C99.866 85.609 98.05 83.957 97.404 80.484C96.542 75.845 99.459 73.107 114.218 64.705C132.302 54.409 134.006 52.599 133.995 43.685C133.987 37.546 130.567 32.776 121.458 26.199C98.775 9.82099 99.196 10.234 97.562 2.74999C96.789 -0.791005 94.02 -0.845003 88.054 2.566ZM32 25.328C24.26 29.319 8.62 38.165 5.873 40.105C-0.0479989 44.288 -1.881 54.912 2.257 61.054C3.499 62.896 11.261 69.501 19.507 75.732C34.545 87.094 37.107 89.991 36.221 94.626C35.615 97.794 33.136 99.638 17.148 108.815C2.432 117.262 0 119.991 0 128.059C0 135.142 2.137 137.839 15.764 147.948C32.86 160.631 34.917 162.627 35.657 167.255C36.778 174.267 38.386 174.06 54.633 164.802C73.811 153.874 76 151.624 76 142.836C76 136.095 73.594 132.694 63.669 125.408C58.626 121.705 51.529 116.487 47.898 113.811C41.766 109.291 39 105.803 39 102.588C39 99.603 43.633 95.87 56.218 88.715C73.452 78.916 76 76.174 76 67.434C76 61.074 73.629 57.602 64.822 51.065C40.299 32.864 40 32.586 40 27.977C40 25.637 38.432 22.994 37.05 23.004C36.748 23.006 34.475 24.052 32 25.328Z" fill="#136F70"/>
<path fill-rule="evenodd" clip-rule="evenodd" d="M97.079 3.583C97.127 4.748 97.364 4.985 97.683 4.188C97.972 3.466 97.936 2.603 97.604 2.271C97.272 1.939 97.036 2.529 97.079 3.583ZM97.079 7.583C97.127 8.748 97.364 8.985 97.683 8.188C97.972 7.466 97.936 6.603 97.604 6.271C97.272 5.939 97.036 6.529 97.079 7.583ZM97.093 20.205C95.888 26.364 93.744 34.35 92.329 37.952C88.883 46.72 84.061 55.156 82.905 54.441C82.389 54.122 82.266 53.33 82.63 52.681C83.135 51.782 82.993 51.777 82.034 52.663C80.408 54.164 81.554 56 84.118 56C85.218 56 85.841 56.448 85.503 56.996C85.164 57.543 85.991 58.494 87.339 59.109C90.76 60.667 94.333 65.826 94.333 69.206C94.333 71.773 89.818 78 87.956 78C87.217 78 72.935 86.122 66.21 90.367C60.66 93.871 58.008 98.278 58.005 104C58.002 111.677 60.219 114.351 77 126.905C91.688 137.892 92.556 138.732 93.569 142.935C94.884 148.388 97.073 150.068 100.247 148.058C101.486 147.273 107.675 143.732 114 140.19C120.325 136.647 126.682 132.914 128.127 131.894C134.069 127.698 135.881 117.091 131.713 110.898C130.455 109.029 123.818 103.347 116.963 98.27C99.866 85.609 98.05 83.957 97.404 80.484C96.542 75.845 99.459 73.107 114.218 64.705C132.243 54.443 134 52.588 134 43.821C134 38.37 130.701 32.831 125.101 28.876C115.09 21.808 101.441 11.555 100.392 10.315C99.552 9.323 98.753 11.717 97.093 20.205ZM96.195 13.5C96.215 15.15 96.439 15.704 96.693 14.731C96.947 13.758 96.93 12.408 96.656 11.731C96.382 11.054 96.175 11.85 96.195 13.5ZM95.158 19C95.158 20.375 95.385 20.938 95.662 20.25C95.94 19.563 95.94 18.438 95.662 17.75C95.385 17.063 95.158 17.625 95.158 19ZM32 25.5C31.325 26.313 30.413 26.755 29.972 26.483C29.531 26.21 29.02 26.328 28.835 26.744C28.651 27.16 25.125 29.264 21 31.419C3.315 40.66 0 44.107 0 53.253C0 59.897 2.759 63.077 19.507 75.732C34.545 87.094 37.107 89.991 36.221 94.626C35.615 97.794 33.136 99.638 17.148 108.815C2.432 117.262 0 119.991 0 128.059C0 135.142 2.137 137.839 15.764 147.948C32.86 160.631 34.917 162.627 35.657 167.255C36.778 174.267 38.386 174.06 54.633 164.802C73.811 153.874 76 151.624 76 142.836C76 136.605 73.505 132.647 66.175 127.244C62.504 124.538 55.406 119.319 50.403 115.645C42.037 109.504 39 106.026 39 102.588C39 99.933 43.243 96.003 50.644 91.803C54.815 89.436 59.863 86.509 61.863 85.298C63.864 84.086 66.155 82.765 66.956 82.362C72.552 79.542 75.817 73.956 75.856 67.136C75.881 62.767 75.666 62.065 74.694 63.353C74.037 64.223 71.925 65.579 70 66.366C66.91 67.63 65.159 67.677 59 66.664C55.733 66.127 49.967 61.64 46.197 56.7C41.192 50.143 38.434 44.658 34.935 34.307C32.462 26.991 32.344 26.079 33.833 25.784C34.939 25.564 35.117 25.212 34.363 24.738C33.738 24.344 32.675 24.687 32 25.5ZM89.144 38.75C88.053 41.3 88.078 41.359 89.484 39.559C90.318 38.491 91 37.254 91 36.809C91 35.289 90.322 35.999 89.144 38.75ZM39 40.642C39 41.179 39.7 42.491 40.555 43.559C42.022 45.389 42.042 45.357 40.92 43C39.462 39.939 39 39.372 39 40.642ZM84 49C83.411 50.1 83.155 51 83.43 51C83.705 51 84.411 50.1 85 49C85.589 47.9 85.845 47 85.57 47C85.295 47 84.589 47.9 84 49ZM65 51.378C65 51.585 65.787 52.373 66.75 53.128C68.336 54.371 68.371 54.336 67.128 52.75C65.821 51.084 65 50.555 65 51.378ZM46 53.304C46 53.481 47.406 54.948 49.125 56.563C51.313 58.619 51.868 58.87 50.977 57.398C49.877 55.582 46 52.393 46 53.304ZM72.211 60.605C71.151 61.751 71.186 62 72.402 62C74.1 62 75.41 60.367 74.266 59.674C73.845 59.419 72.92 59.838 72.211 60.605ZM54 60.954C54 61.938 57.873 63.46 58.58 62.754C58.815 62.518 57.882 61.811 56.504 61.184C55.127 60.556 54 60.453 54 60.954ZM60.737 63.184C60.036 63.629 61.56 63.976 64.25 63.985C66.862 63.993 69 63.824 69 63.609C69 62.797 61.919 62.433 60.737 63.184Z" fill="#1A6666"/>
<path fill-rule="evenodd" clip-rule="evenodd" d="M103.147 14.257C104.117 16.522 103.921 18.842 102.05 27.257C99.577 38.384 93.622 55.497 91.294 58.167C90.159 59.469 90.088 60.296 90.97 61.945C91.592 63.106 92.597 63.749 93.205 63.373C93.846 62.977 94.028 63.146 93.638 63.776C93.269 64.373 93.375 65.113 93.872 65.421C94.37 65.729 94.672 67.553 94.543 69.475C94.245 73.912 91.965 75.891 79.58 82.459C76.511 84.086 74 85.8 74 86.268C74 86.735 73.55 86.84 73 86.5C72.45 86.16 72 86.359 72 86.941C72 87.523 71.541 88 70.98 88C68.787 88 61.826 93.237 59.967 96.285C57.507 100.321 57.41 107.345 59.752 111.905C60.926 114.192 66.587 119.115 77 126.905C91.688 137.892 92.556 138.732 93.569 142.935C94.884 148.388 97.073 150.068 100.247 148.058C101.486 147.273 107.675 143.732 114 140.19C120.325 136.647 126.682 132.914 128.127 131.894C134.069 127.698 135.881 117.091 131.713 110.898C130.455 109.029 123.818 103.347 116.963 98.27C99.807 85.565 98.051 83.965 97.394 80.432C96.738 76.909 99.819 72.469 104.652 69.971C113.132 65.588 127.804 56.836 129.811 54.964C132.784 52.191 134.001 48.908 133.995 43.685C133.988 37.698 130.608 32.823 122.476 27.071C118.639 24.356 113.399 20.485 110.83 18.469C108.262 16.452 105.918 14.959 105.623 15.151C105.328 15.343 104.384 14.6 103.527 13.5C102.057 11.615 102.035 11.658 103.147 14.257ZM17.5 33.143C2.486 41.604 0 44.46 0 53.253C0 59.897 2.759 63.077 19.507 75.732C34.545 87.094 37.107 89.991 36.221 94.626C35.615 97.794 33.136 99.638 17.148 108.815C2.432 117.262 0 119.991 0 128.059C0 135.142 2.137 137.839 15.764 147.948C32.86 160.631 34.917 162.627 35.657 167.255C36.778 174.267 38.386 174.06 54.633 164.802C73.811 153.874 76 151.624 76 142.836C76 136.319 73.528 132.608 65.159 126.565C60.946 123.524 57.05 120.679 56.5 120.244C55.95 119.809 52.279 117.071 48.343 114.158C40.845 108.611 38.307 104.76 39.555 100.828C40.433 98.061 41.693 97.014 49.25 92.768C52.412 90.992 55 89.166 55 88.71C55 88.255 55.419 88.141 55.932 88.458C56.444 88.774 57.559 88.041 58.409 86.827C59.259 85.614 60.257 84.924 60.628 85.295C60.999 85.666 61.943 85.188 62.725 84.234C63.673 83.079 63.931 83.001 63.498 84C63.14 84.825 63.793 84.424 64.949 83.108C66.104 81.793 67.302 80.969 67.611 81.277C68.356 82.023 73.009 77.935 72.968 76.57C72.951 75.981 72.34 76.286 71.61 77.247C69.99 79.382 64.467 80.622 62.752 79.237C62.064 78.68 60.004 78.349 58.176 78.502C56.055 78.679 54.66 78.277 54.319 77.39C54.026 76.625 53.117 76 52.299 76C51.482 76 50.579 75.105 50.293 74.011C50.007 72.917 49.389 72.26 48.92 72.549C45.665 74.561 33.005 52.251 28.89 37.25C27.645 32.713 26.148 29.045 25.563 29.099C24.979 29.153 21.35 30.973 17.5 33.143Z" fill="#006666"/>
<path fill-rule="evenodd" clip-rule="evenodd" d="M111.117 28.35C109.104 39.597 105.08 53.741 101.259 62.993C94.888 78.421 83.864 92.953 77.25 94.642C76.012 94.958 75 95.693 75 96.275C75 96.857 74.704 97.037 74.342 96.675C73.98 96.313 73.091 96.509 72.367 97.111C71.642 97.712 68.226 98.355 64.775 98.539L58.5 98.875L58.192 103.524C57.992 106.532 58.442 109.025 59.465 110.587C60.334 111.914 60.791 113 60.48 113C59.674 113 68.357 120.972 69.179 120.988C69.552 120.994 70.452 121.572 71.179 122.271C71.905 122.969 74.975 125.308 78 127.467C89.773 135.87 92.901 138.948 93.597 142.815C93.962 144.842 94.707 147.063 95.253 147.75C96.383 149.174 100 149.453 100 148.117C100 147.631 100.787 146.981 101.75 146.672C102.713 146.363 105.975 144.677 109 142.926C112.025 141.175 116.975 138.397 120 136.754C128.308 132.24 130.599 130.364 132.377 126.619C134.826 121.456 134.47 115.156 131.48 110.756C129.402 107.698 116.82 97.58 106.912 91C98.294 85.276 95.578 80.525 98.163 75.696C99.711 72.803 100.797 71.87 105.5 69.394C121.86 60.78 130.184 55.537 131.925 52.748C132.61 51.652 133.416 48.365 133.718 45.443C134.187 40.903 133.877 39.466 131.591 35.565C130.12 33.054 128.517 31 128.029 31C127.542 31 126.548 30.438 125.821 29.75C123.037 27.117 117.036 22.964 114.767 22.101C112.471 21.229 112.357 21.424 111.117 28.35ZM14 35.159C3.959 40.687 -0.00299838 45.794 0.00400162 53.2C0.00800162 58.423 2.494 62.776 7.665 66.618C9.774 68.185 13.554 71.162 16.064 73.233C18.575 75.305 21.062 77 21.592 77C22.122 77 23.299 77.787 24.207 78.75C26.632 81.318 28.807 83 29.708 83.001C31.094 83.003 35.991 87.675 35.316 88.351C34.959 88.708 35.133 89 35.702 89C36.947 89 36.451 94.687 34.961 97.5C34.378 98.6 29.816 101.75 24.822 104.5C19.829 107.25 15.014 109.952 14.122 110.506C13.23 111.059 10.541 112.63 8.147 113.998C3.002 116.937 0 122.118 0 128.059C0 134.442 2.352 137.991 10.566 144C14.701 147.025 19.527 150.73 21.292 152.234C23.056 153.738 24.848 154.975 25.272 154.984C25.697 154.993 28.064 156.861 30.532 159.137C33.88 162.222 35.179 164.264 35.644 167.173C36.733 173.987 38.631 173.956 50.792 166.922C56.681 163.515 63.243 159.777 65.374 158.614C71.496 155.274 74.839 151.256 75.574 146.356C76.835 137.949 74.661 133.289 67 127.98C65.075 126.646 62.633 124.76 61.574 123.789C60.514 122.817 58.827 121.762 57.824 121.444C56.821 121.126 56 120.476 56 120C56 119.524 55.213 118.884 54.25 118.578C53.287 118.272 51.375 117 50 115.752C48.625 114.503 46.272 112.694 44.771 111.731C41.028 109.331 38.715 104.575 39.516 100.927C39.87 99.317 40.6 98 41.138 98C41.677 98 41.797 97.48 41.405 96.845C41.001 96.192 41.127 95.96 41.694 96.311C42.246 96.652 43.617 96.073 44.742 95.026C45.867 93.978 47.06 93.393 47.394 93.727C47.727 94.06 48 94.142 48 93.908C48 93.675 45.075 90.426 41.5 86.689C37.925 82.953 35 79.459 35 78.926C35 78.393 33.878 76.262 32.507 74.189C26.812 65.585 18.338 40.082 19.402 34.75C19.703 33.237 19.849 32.03 19.725 32.066C19.601 32.102 17.025 33.494 14 35.159ZM91 62.378C91 62.585 91.787 63.373 92.75 64.128C94.336 65.371 94.371 65.336 93.128 63.75C91.821 62.084 91 61.555 91 62.378ZM90.98 75.524C89.11 77.778 90.195 78.038 92.425 75.871C93.484 74.842 93.876 74 93.297 74C92.719 74 91.676 74.686 90.98 75.524ZM52.507 89.989C52.157 90.555 52.558 90.723 53.448 90.382C55.18 89.717 55.497 89 54.059 89C53.541 89 52.843 89.445 52.507 89.989Z" fill="#075A5A"/>
</svg>
