<svg width="134" height="134" viewBox="0 0 134 134" fill="none" xmlns="http://www.w3.org/2000/svg">
<g clip-path="url(#clip0_1_2)">
<path fill-rule="evenodd" clip-rule="evenodd" d="M79.96 5.28874C62.548 13.0863 61.342 13.7563 59.606 16.5889C57.483 20.0551 57.552 25.8945 59.75 28.7821C60.713 30.0462 67.575 34.5906 75 38.8809C93.159 49.374 94 50.0192 94 53.4552C94 57.1181 92.39 58.2141 77.5 64.6856C60.411 72.1137 58 74.1524 58 81.1761C58 86.6616 60.338 88.756 77.5 98.6395C91.454 106.675 92.571 107.505 93.518 110.545C94.652 114.187 96.115 115.688 98.144 115.29C98.89 115.143 106.177 112.071 114.337 108.464C131.176 101.021 133.21 99.4032 133.788 92.9983C134.328 87.0156 132.145 84.8259 116.963 76.1166C97.629 65.0264 97.6 65.0055 97.6 61.6996C97.6 58.0274 99.062 56.9516 111.5 51.4723C132.139 42.3796 134 40.9413 134 34.0809C134 28.1764 131.945 26.2632 115.653 17.0002C107.319 12.2614 100.075 7.80453 99.556 7.09658C99.036 6.38863 98.356 4.58931 98.044 3.09827C97.132 -1.26332 93.648 -0.841951 79.96 5.28874ZM20.172 24.5654C2.794 32.2011 0.795002 33.7703 0.212002 40.2271C-0.339998 46.3392 1.764 48.3539 19.467 58.6703C27.689 63.461 34.838 67.9659 35.355 68.6808C36.793 70.6714 36.323 74.3475 34.421 75.9749C33.482 76.7789 29.741 78.696 26.107 80.235C3.02 90.0139 0 92.2214 0 99.3196C0 104.631 2.494 107.015 16.5 115.095C33.528 124.918 34.917 125.965 35.655 129.542C36.778 134.983 38.38 134.823 54.633 127.65C73.811 119.186 76 117.443 76 110.636C76 104.783 73.883 102.851 56.972 93.2717C40.495 83.9382 38.058 81.7911 39.84 78.1801C41.14 75.545 42.88 74.5427 56.5 68.5809C73.608 61.0916 76 59.0638 76 52.0493C76 46.5638 73.662 44.4694 56.5 34.5859C42.877 26.7411 41.408 25.6637 40.5 22.8497C39.305 19.1473 38.294 17.8119 36.691 17.8228C36.036 17.8274 28.602 20.8614 20.172 24.5654Z" fill="#008080"/>
<path fill-rule="evenodd" clip-rule="evenodd" d="M88.054 1.98754C85.608 3.06961 80.658 5.18804 77.054 6.6938C61.343 13.2583 58 16.1094 58 22.9458C58 28.0695 61.231 31.0144 76.097 39.4386C91.647 48.2508 94.333 50.3143 94.333 53.4451C94.333 55.5961 89.912 60.4162 87.939 60.4162C86.833 60.4162 64.679 70.4708 62.648 71.8945C57.857 75.2522 56.562 81.8663 59.752 86.6779C60.926 88.4493 66.587 92.2625 77 98.2964C91.688 106.807 92.556 107.457 93.569 110.713C94.884 114.936 97.073 116.238 100.247 114.681C101.486 114.073 107.675 111.33 114 108.586C120.325 105.842 126.682 102.951 128.127 102.161C134.069 98.9106 135.881 90.6948 131.713 85.8979C130.455 84.4502 123.818 80.0491 116.963 76.1166C99.866 66.3099 98.05 65.0303 97.404 62.3402C96.542 58.747 99.459 56.6262 114.218 50.1183C132.302 42.1434 134.006 40.7414 133.995 33.8369C133.987 29.0819 130.567 25.3872 121.458 20.2929C98.775 7.60701 99.196 7.92692 97.562 2.13005C96.789 -0.612684 94.02 -0.654509 88.054 1.98754ZM32 19.6182C24.26 22.7095 8.62 29.5613 5.873 31.064C-0.0479989 34.304 -1.881 42.533 2.257 47.2904C3.499 48.7171 11.261 53.8331 19.507 58.6595C34.545 67.4601 37.107 69.704 36.221 73.2941C35.615 75.748 33.136 77.1763 17.148 84.2845C2.432 90.8272 0 92.941 0 99.1902C0 104.676 2.137 106.765 15.764 114.596C32.86 124.419 34.917 125.965 35.657 129.55C36.778 134.981 38.386 134.821 54.633 127.65C73.811 119.186 76 117.443 76 110.636C76 105.415 73.594 102.78 63.669 97.1368C58.626 94.2686 51.529 90.2269 47.898 88.1542C41.766 84.6531 39 81.9515 39 79.4612C39 77.1491 43.633 74.2577 56.218 68.7157C73.452 61.1257 76 59.0018 76 52.2321C76 47.3059 73.629 44.6166 64.822 39.5532C40.299 25.4554 40 25.24 40 21.67C40 19.8576 38.432 17.8104 37.05 17.8181C36.748 17.8197 34.475 18.6299 32 19.6182Z" fill="#136F70"/>
<path fill-rule="evenodd" clip-rule="evenodd" d="M97.079 2.77527C97.127 3.67764 97.364 3.86121 97.683 3.24388C97.972 2.68464 97.936 2.01619 97.604 1.75903C97.272 1.50188 97.036 1.95887 97.079 2.77527ZM97.079 5.87353C97.127 6.7759 97.364 6.95947 97.683 6.34214C97.972 5.78291 97.936 5.11446 97.604 4.8573C97.272 4.60014 97.036 5.05714 97.079 5.87353ZM97.093 15.6501C95.888 20.4207 93.744 26.6064 92.329 29.3963C88.883 36.1877 84.061 42.722 82.905 42.1682C82.389 41.9211 82.266 41.3076 82.63 40.8049C83.135 40.1086 82.993 40.1047 82.034 40.791C80.408 41.9536 81.554 43.3757 84.118 43.3757C85.218 43.3757 85.841 43.7227 85.503 44.1472C85.164 44.5709 85.991 45.3075 87.339 45.7838C90.76 46.9906 94.333 50.9866 94.333 53.6046C94.333 55.593 89.818 60.4162 87.956 60.4162C87.217 60.4162 72.935 66.7072 66.21 69.9952C60.66 72.7093 58.008 76.1228 58.005 80.5549C58.002 86.5012 60.219 88.5724 77 98.2963C91.688 106.807 92.556 107.457 93.569 110.713C94.884 114.936 97.073 116.238 100.247 114.681C101.486 114.073 107.675 111.33 114 108.586C120.325 105.842 126.682 102.951 128.127 102.161C134.069 98.9106 135.881 90.6948 131.713 85.8979C130.455 84.4502 123.818 80.0491 116.963 76.1166C99.866 66.3098 98.05 65.0303 97.404 62.3402C96.542 58.747 99.459 56.6262 114.218 50.1183C132.243 42.1697 134 40.7329 134 33.9423C134 29.7201 130.701 25.4298 125.101 22.3664C115.09 16.8917 101.441 8.95011 100.392 7.98965C99.552 7.22128 98.753 9.07559 97.093 15.6501ZM96.195 10.4566C96.215 11.7347 96.439 12.1638 96.693 11.4101C96.947 10.6565 96.93 9.61081 96.656 9.08643C96.382 8.56205 96.175 9.17861 96.195 10.4566ZM95.158 14.7168C95.158 15.7818 95.385 16.2179 95.662 15.685C95.94 15.1528 95.94 14.2815 95.662 13.7485C95.385 13.2164 95.158 13.6517 95.158 14.7168ZM32 19.7514C31.325 20.3812 30.413 20.7235 29.972 20.5128C29.531 20.3014 29.02 20.3928 28.835 20.715C28.651 21.0372 25.125 22.6669 21 24.3361C3.315 31.4939 0 34.1638 0 41.248C0 46.3942 2.759 48.8573 19.507 58.6595C34.545 67.4601 37.107 69.704 36.221 73.2941C35.615 75.7479 33.136 77.1762 17.148 84.2844C2.432 90.8272 0 92.941 0 99.1902C0 104.676 2.137 106.765 15.764 114.596C32.86 124.419 34.917 125.965 35.657 129.55C36.778 134.981 38.386 134.821 54.633 127.65C73.811 119.186 76 117.443 76 110.636C76 105.81 73.505 102.744 66.175 98.5589C62.504 96.4629 55.406 92.4205 50.403 89.5747C42.037 84.8181 39 82.1242 39 79.4612C39 77.4047 43.243 74.3607 50.644 71.1075C54.815 69.2741 59.863 67.007 61.863 66.069C63.864 65.1302 66.155 64.107 66.956 63.7948C72.552 61.6106 75.817 57.2838 75.856 52.0013C75.881 48.6172 75.666 48.0735 74.694 49.0711C74.037 49.745 71.925 50.7953 70 51.4049C66.91 52.3839 65.159 52.4203 59 51.6357C55.733 51.2197 49.967 47.7443 46.197 43.9179C41.192 38.8391 38.434 34.5906 34.935 26.573C32.462 20.9063 32.344 20.1999 33.833 19.9714C34.939 19.801 35.117 19.5284 34.363 19.1612C33.738 18.856 32.675 19.1217 32 19.7514ZM89.144 30.0144C88.053 31.9896 88.078 32.0353 89.484 30.6411C90.318 29.8138 91 28.8557 91 28.511C91 27.3337 90.322 27.8836 89.144 30.0144ZM39 31.4799C39 31.8959 39.7 32.9121 40.555 33.7393C42.022 35.1568 42.042 35.132 40.92 33.3064C39.462 30.9354 39 30.4962 39 31.4799ZM84 37.9537C83.411 38.8058 83.155 39.5029 83.43 39.5029C83.705 39.5029 84.411 38.8058 85 37.9537C85.589 37.1017 85.845 36.4046 85.57 36.4046C85.295 36.4046 84.589 37.1017 84 37.9537ZM65 39.7957C65 39.956 65.787 40.5664 66.75 41.1512C68.336 42.1139 68.371 42.0868 67.128 40.8584C65.821 39.5679 65 39.1582 65 39.7957ZM46 41.2875C46 41.4246 47.406 42.5609 49.125 43.8118C51.313 45.4043 51.868 45.5987 50.977 44.4586C49.877 43.0519 46 40.5819 46 41.2875ZM72.211 46.9426C71.151 47.8302 71.186 48.0231 72.402 48.0231C74.1 48.0231 75.41 46.7582 74.266 46.2215C73.845 46.024 72.92 46.3485 72.211 46.9426ZM54 47.2129C54 47.9751 57.873 49.154 58.58 48.6071C58.815 48.4243 57.882 47.8767 56.504 47.3911C55.127 46.9046 54 46.8249 54 47.2129ZM60.737 48.9402C60.036 49.2849 61.56 49.5537 64.25 49.5606C66.862 49.5668 69 49.4359 69 49.2694C69 48.6404 61.919 48.3585 60.737 48.9402Z" fill="#1A6666"/>
<path fill-rule="evenodd" clip-rule="evenodd" d="M103.147 11.043C104.117 12.7974 103.921 14.5944 102.05 21.1124C99.577 29.731 93.622 42.9861 91.294 45.0542C90.159 46.0627 90.088 46.7033 90.97 47.9805C91.592 48.8798 92.597 49.3778 93.205 49.0866C93.846 48.7799 94.028 48.9108 93.638 49.3988C93.269 49.8612 93.375 50.4343 93.872 50.6729C94.37 50.9115 94.672 52.3243 94.543 53.813C94.245 57.2498 91.965 58.7826 79.58 63.87C76.511 65.1302 74 66.4578 74 66.8203C74 67.182 73.55 67.2634 73 67C72.45 66.7366 72 66.8908 72 67.3416C72 67.7924 71.541 68.1619 70.98 68.1619C68.787 68.1619 61.826 72.2183 59.967 74.5791C57.507 77.7053 57.41 83.1458 59.752 86.6779C60.926 88.4493 66.587 92.2625 77 98.2964C91.688 106.807 92.556 107.457 93.569 110.713C94.884 114.936 97.073 116.238 100.247 114.681C101.486 114.073 107.675 111.33 114 108.586C120.325 105.842 126.682 102.951 128.127 102.161C134.069 98.9106 135.881 90.6948 131.713 85.8979C130.455 84.4502 123.818 80.0491 116.963 76.1166C99.807 66.2758 98.051 65.0365 97.394 62.2999C96.738 59.5711 99.819 56.1321 104.652 54.1972C113.132 50.8023 127.804 44.0233 129.811 42.5733C132.784 40.4254 134.001 37.8825 133.995 33.8369C133.988 29.1996 130.608 25.4236 122.476 20.9683C118.639 18.8653 113.399 15.867 110.83 14.3055C108.262 12.7432 105.918 11.5867 105.623 11.7355C105.328 11.8842 104.384 11.3087 103.527 10.4566C102.057 8.99659 102.035 9.0299 103.147 11.043ZM17.5 25.6715C2.486 32.2251 0 34.4372 0 41.248C0 46.3942 2.759 48.8573 19.507 58.6595C34.545 67.4601 37.107 69.704 36.221 73.2941C35.615 75.748 33.136 77.1763 17.148 84.2845C2.432 90.8272 0 92.941 0 99.1902C0 104.676 2.137 106.765 15.764 114.596C32.86 124.419 34.917 125.965 35.657 129.55C36.778 134.981 38.386 134.821 54.633 127.65C73.811 119.186 76 117.443 76 110.636C76 105.588 73.528 102.714 65.159 98.033C60.946 95.6776 57.05 93.4739 56.5 93.137C55.95 92.8 52.279 90.6793 48.343 88.423C40.845 84.1264 38.307 81.1436 39.555 78.098C40.433 75.9548 41.693 75.1438 49.25 71.855C52.412 70.4794 55 69.065 55 68.7118C55 68.3594 55.419 68.2711 55.932 68.5166C56.444 68.7614 57.559 68.1936 58.409 67.2533C59.259 66.3137 60.257 65.7793 60.628 66.0666C60.999 66.354 61.943 65.9838 62.725 65.2448C63.673 64.3502 63.931 64.2898 63.498 65.0636C63.14 65.7026 63.793 65.392 64.949 64.3727C66.104 63.3541 67.302 62.7159 67.611 62.9544C68.356 63.5323 73.009 60.3658 72.968 59.3086C72.951 58.8523 72.34 59.0886 71.61 59.8329C69.99 61.4866 64.467 62.4471 62.752 61.3743C62.064 60.9429 60.004 60.6865 58.176 60.805C56.055 60.9421 54.66 60.6307 54.319 59.9437C54.026 59.3512 53.117 58.8671 52.299 58.8671C51.482 58.8671 50.579 58.1738 50.293 57.3264C50.007 56.4791 49.389 55.9702 48.92 56.194C45.665 57.7525 33.005 40.4719 28.89 28.8526C27.645 25.3384 26.148 22.4973 25.563 22.5391C24.979 22.5809 21.35 23.9907 17.5 25.6715Z" fill="#006666"/>
<path fill-rule="evenodd" clip-rule="evenodd" d="M111.117 21.959C109.104 30.6705 105.08 41.626 101.259 48.7923C94.888 60.7423 83.864 71.9983 77.25 73.3065C76.012 73.5513 75 74.1206 75 74.5714C75 75.0222 74.704 75.1616 74.342 74.8812C73.98 74.6008 73.091 74.7526 72.367 75.2189C71.642 75.6844 68.226 76.1825 64.775 76.325L58.5 76.5853L58.192 80.1862C57.992 82.5161 58.442 84.4471 59.465 85.657C60.334 86.6848 60.791 87.526 60.48 87.526C59.674 87.526 68.357 93.7009 69.179 93.7133C69.552 93.7179 70.452 94.1656 71.179 94.707C71.905 95.2477 74.975 97.0594 78 98.7317C89.773 105.24 92.901 107.624 93.597 110.62C93.962 112.19 94.707 113.91 95.253 114.442C96.383 115.545 100 115.761 100 114.726C100 114.35 100.787 113.847 101.75 113.607C102.713 113.368 105.975 112.062 109 110.706C112.025 109.349 116.975 107.198 120 105.925C128.308 102.429 130.599 100.976 132.377 98.0748C134.826 94.0758 134.47 89.196 131.48 85.7879C129.402 83.4193 116.82 75.5822 106.912 70.4856C98.294 66.0519 95.578 62.372 98.163 58.6316C99.711 56.3908 100.797 55.6681 105.5 53.7503C121.86 47.0782 130.184 43.0171 131.925 40.8568C132.61 40.0079 133.416 37.4619 133.718 35.1986C134.187 31.6821 133.877 30.569 131.591 27.5475C130.12 25.6025 128.517 24.0116 128.029 24.0116C127.542 24.0116 126.548 23.5763 125.821 23.0434C123.037 21.0039 117.036 17.7871 114.767 17.1187C112.471 16.4433 112.357 16.5943 111.117 21.959ZM14 27.233C3.959 31.5148 -0.00299838 35.4705 0.00400162 41.2069C0.00800162 45.2525 2.494 48.6242 7.665 51.6001C9.774 52.8138 13.554 55.1197 16.064 56.7238C18.575 58.3287 21.062 59.6416 21.592 59.6416C22.122 59.6416 23.299 60.2512 24.207 60.9971C26.632 62.9862 28.807 64.289 29.708 64.2898C31.094 64.2913 35.991 67.9101 35.316 68.4337C34.959 68.7102 35.133 68.9364 35.702 68.9364C36.947 68.9364 36.451 73.3414 34.961 75.5202C34.378 76.3723 29.816 78.8121 24.822 80.9422C19.829 83.0723 15.014 85.1651 14.122 85.5942C13.23 86.0226 10.541 87.2394 8.147 88.299C3.002 90.5755 0 94.5885 0 99.1902C0 104.134 2.352 106.883 10.566 111.538C14.701 113.881 19.527 116.75 21.292 117.915C23.056 119.08 24.848 120.038 25.272 120.045C25.697 120.052 28.064 121.499 30.532 123.262C33.88 125.652 35.179 127.233 35.644 129.487C36.733 134.765 38.631 134.74 50.792 129.292C56.681 126.653 63.243 123.758 65.374 122.857C71.496 120.27 74.839 117.158 75.574 113.362C76.835 106.851 74.661 103.241 67 99.129C65.075 98.0958 62.633 96.6349 61.574 95.8828C60.514 95.1299 58.827 94.3128 57.824 94.0665C56.821 93.8201 56 93.3167 56 92.948C56 92.5793 55.213 92.0836 54.25 91.8466C53.287 91.6095 51.375 90.6243 50 89.6576C48.625 88.6902 46.272 87.289 44.771 86.5431C41.028 84.6841 38.715 81.0003 39.516 78.1747C39.87 76.9276 40.6 75.9075 41.138 75.9075C41.677 75.9075 41.797 75.5047 41.405 75.0129C41.001 74.5071 41.127 74.3274 41.694 74.5993C42.246 74.8634 43.617 74.4149 44.742 73.604C45.867 72.7922 47.06 72.3391 47.394 72.5978C47.727 72.8557 48 72.9192 48 72.738C48 72.5575 45.075 70.041 41.5 67.1464C37.925 64.2526 35 61.5463 35 61.1334C35 60.7206 33.878 59.07 32.507 57.4643C26.812 50.7999 18.338 31.0462 19.402 26.9162C19.703 25.7443 19.849 24.8094 19.725 24.8373C19.601 24.8651 17.025 25.9433 14 27.233ZM91 48.3159C91 48.4762 91.787 49.0866 92.75 49.6714C94.336 50.6342 94.371 50.6071 93.128 49.3786C91.821 48.0882 91 47.6784 91 48.3159ZM90.98 58.4984C89.11 60.2442 90.195 60.4456 92.425 58.7671C93.484 57.9701 93.876 57.3179 93.297 57.3179C92.719 57.3179 91.676 57.8493 90.98 58.4984ZM52.507 69.7025C52.157 70.1409 52.558 70.271 53.448 70.0069C55.18 69.4918 55.497 68.9364 54.059 68.9364C53.541 68.9364 52.843 69.2811 52.507 69.7025Z" fill="#075A5A"/>
</g>
<defs>
<clipPath id="clip0_1_2">
<rect width="134" height="134" rx="67" fill="white"/>
</clipPath>
</defs>
</svg>
