<svg width="65" height="64" viewBox="0 0 65 64" fill="none" xmlns="http://www.w3.org/2000/svg">
<path fill-rule="evenodd" clip-rule="evenodd" d="M1 32V64H33H65V32V0H33H1V32Z" fill="#1B1B27"/>
<path fill-rule="evenodd" clip-rule="evenodd" d="M0.999998 18.475V36.95L4.25 36.306C7.068 35.748 7.335 35.864 6.259 37.173C5.576 38.004 5.249 38.916 5.533 39.2C5.816 39.483 5.276 40.342 4.332 41.107C3.197 42.029 2.87 42.077 3.367 41.25C3.831 40.478 3.56 40 2.659 40C1.468 40 1.175 42.208 1.067 52L0.934998 64H7.075C12.262 64 13.12 63.755 12.607 62.418C12.273 61.548 12 59.298 12 57.418C12 55.538 11.55 54 11 54C10.45 54 10 55.436 10 57.191C10 60.129 9.892 60.234 8.638 58.52C7.889 57.496 7.51 55.765 7.796 54.673C8.145 53.336 7.937 52.921 7.158 53.403C5.051 54.704 5.955 52.477 8.959 48.962C10.587 47.058 11.937 46.111 11.959 46.857C11.982 47.607 12.631 47.972 13.411 47.672C14.546 47.237 14.651 47.73 13.947 50.183C13.002 53.478 14.996 60 16.949 60C17.527 60 18 60.9 18 62C18 63.905 18.667 64 32 64C43.905 64 46 63.771 46 62.469C46 61.626 46.634 60.694 47.408 60.397C50.646 59.154 51.766 51.968 49.534 46.75C48.415 44.133 50.106 44.64 53.688 47.997C57.214 51.303 59.247 59.153 57.125 61.275C56.292 62.108 56 61.562 56 59.168C56 56.051 53.37 48.271 52.595 49.096C52.386 49.318 52.557 51.708 52.973 54.407C53.39 57.106 53.499 60.199 53.216 61.28C52.732 63.132 52.625 63.108 51.387 60.873L50.071 58.5L50.035 60.809C50.016 62.079 49.581 62.859 49.069 62.543C48.557 62.226 47.856 62.425 47.51 62.984C47.102 63.644 50.059 64 55.941 64H65V32V0H53.965C43.778 0 42.999 0.135 43.833 1.75C45.064 4.137 47.46 14.209 47.16 15.739C47.027 16.42 47.46 17.995 48.122 19.239C49.216 21.29 49.173 21.373 47.664 20.128C45.625 18.446 45.617 18.664 47.519 24.054C49.225 28.89 48.315 30.368 44.258 29.35C42.995 29.033 42 29.243 42 29.826C42 32.227 44.053 36 45.359 36C46.133 36 47.038 37.013 47.37 38.25C48.398 42.089 48.032 43.621 46.71 41.009C46.017 39.639 44.561 38.358 43.475 38.162C42.389 37.966 41.098 37.425 40.606 36.959C40.112 36.491 40.784 36.381 42.106 36.713C44.423 37.295 44.444 37.25 42.75 35.328C41.788 34.236 41 32.885 41 32.325C41 31.765 40.268 29.84 39.374 28.047C38.099 25.491 37.961 24 38.736 21.143C39.28 19.14 39.794 16.038 39.879 14.25C40.014 11.385 39.727 11 37.457 11C35.857 11 35.136 10.588 35.554 9.913C35.923 9.315 37.053 9.042 38.064 9.307C39.732 9.743 39.702 9.516 37.737 6.858C35.812 4.255 35.496 4.131 34.897 5.749C33.739 8.88 31.222 10.429 29.548 9.04C27.817 7.604 24.415 8.476 23.615 10.561C23.152 11.767 23.421 11.845 25.043 10.977C26.142 10.389 27.59 10.247 28.261 10.661C29.067 11.16 28.638 11.613 26.99 12.002C23.276 12.878 23.571 16.416 27.658 20.004C30.38 22.395 30.92 23.47 30.413 25.489C30.067 26.87 29.212 28 28.513 28C26.446 28 24.639 33.458 25.916 35.844C27.236 38.309 27.326 41.68 26.093 42.442C25.595 42.751 25.42 42.109 25.706 41.016C25.992 39.924 25.942 38.292 25.597 37.391C25.09 36.072 24.525 36.409 22.699 39.119C19.718 43.542 17 44.144 17 40.382C17 37.818 17.098 37.751 18.348 39.462C19.09 40.476 20.215 40.985 20.848 40.594C22.262 39.72 22.377 37 21 37C20.45 37 20 37.525 20 38.167C20 38.808 19.742 39.075 19.426 38.76C19.111 38.444 19.471 36.907 20.228 35.343C20.984 33.779 21.442 31.533 21.245 30.352C20.853 27.994 17.734 26.666 16.197 28.203C15.569 28.831 15.008 28.822 14.609 28.176C13.214 25.919 13.736 22.275 15.87 19.39C18.642 15.64 20.646 8.219 18.378 10.101C17.376 10.933 17.554 9.873 18.974 6.561C20.088 3.961 21 1.421 21 0.917C21 0.413 16.5 0 11 0H0.999998V18.475ZM22.707 1.107C24.522 2.922 30.24 3.655 34.25 2.586C40.286 0.978 38.604 0 29.8 0C23.803 0 21.898 0.298 22.707 1.107ZM41.787 12C41.321 15.17 42.367 16.093 43.393 13.418C44.272 11.127 44.138 9 43.113 9C42.626 9 42.029 10.35 41.787 12ZM16.75 19.718C14.85 21.823 14.368 26 16.025 26C17.257 26 19.198 21.24 18.79 19.218C18.563 18.09 18.122 18.198 16.75 19.718ZM8.689 34.75C8.438 35.712 8.232 34.925 8.232 33C8.232 31.075 8.438 30.288 8.689 31.25C8.941 32.212 8.941 33.788 8.689 34.75ZM14 63C14 63.55 14.45 64 15 64C15.55 64 16 63.55 16 63C16 62.45 15.55 62 15 62C14.45 62 14 62.45 14 63Z" fill="#DBF5F6"/>
<path fill-rule="evenodd" clip-rule="evenodd" d="M0.999998 10.934V21.867L3.673 22.184C5.143 22.358 6.505 22.986 6.7 23.581C6.921 24.256 5.918 24.495 4.027 24.217L0.999998 23.773V30.362V36.95L4.25 36.306C7.068 35.748 7.335 35.864 6.259 37.173C5.576 38.004 5.249 38.916 5.533 39.2C5.816 39.483 5.276 40.342 4.332 41.107C3.197 42.029 2.87 42.077 3.367 41.25C3.831 40.478 3.56 40 2.659 40C1.468 40 1.175 42.208 1.067 52L0.934998 64H7.075C12.262 64 13.12 63.755 12.607 62.418C12.273 61.548 12 59.298 12 57.418C12 55.538 11.55 54 11 54C10.45 54 10 55.436 10 57.191C10 60.129 9.892 60.234 8.638 58.52C7.889 57.496 7.51 55.765 7.796 54.673C8.145 53.336 7.937 52.921 7.158 53.403C5.051 54.704 5.955 52.477 8.959 48.962C10.587 47.058 11.937 46.111 11.959 46.857C11.982 47.607 12.631 47.972 13.411 47.672C14.546 47.237 14.651 47.73 13.947 50.183C13.002 53.478 14.996 60 16.949 60C17.527 60 18 60.9 18 62C18 63.905 18.667 64 32 64C43.905 64 46 63.771 46 62.469C46 61.626 46.634 60.694 47.408 60.397C50.646 59.154 51.766 51.968 49.534 46.75C48.415 44.133 50.106 44.64 53.688 47.997C57.214 51.303 59.247 59.153 57.125 61.275C56.292 62.108 56 61.562 56 59.168C56 56.051 53.37 48.271 52.595 49.096C52.386 49.318 52.557 51.708 52.973 54.407C53.39 57.106 53.499 60.199 53.216 61.28C52.732 63.132 52.625 63.108 51.387 60.873L50.071 58.5L50.035 60.809C50.016 62.079 49.581 62.859 49.069 62.543C48.557 62.226 47.856 62.425 47.51 62.984C47.102 63.644 50.059 64 55.941 64H65V32V0H53.965C43.778 0 42.999 0.135 43.833 1.75C45.064 4.137 47.46 14.209 47.16 15.739C47.027 16.42 47.46 17.995 48.122 19.239C49.216 21.29 49.173 21.373 47.664 20.128C45.625 18.446 45.617 18.664 47.519 24.054C49.225 28.89 48.315 30.368 44.258 29.35C42.995 29.033 42 29.243 42 29.826C42 32.227 44.053 36 45.359 36C46.133 36 47.038 37.013 47.37 38.25C48.398 42.089 48.032 43.621 46.71 41.009C46.017 39.639 44.561 38.358 43.475 38.162C42.389 37.966 41.098 37.425 40.606 36.959C40.112 36.491 40.784 36.381 42.106 36.713C44.423 37.295 44.444 37.25 42.75 35.328C41.788 34.236 41 32.885 41 32.325C41 31.765 40.268 29.84 39.374 28.047C38.099 25.491 37.961 24 38.736 21.143C39.28 19.14 39.794 16.038 39.879 14.25C40.014 11.385 39.727 11 37.457 11C35.857 11 35.136 10.588 35.554 9.913C35.923 9.315 37.053 9.042 38.064 9.307C39.74 9.745 39.714 9.532 37.763 6.894C35.812 4.254 34.148 2.813 35.41 4.855C35.701 5.325 34.84 6.741 33.498 8.001C31.513 9.867 30.783 10.065 29.577 9.064C27.822 7.607 24.421 8.461 23.615 10.561C23.152 11.767 23.421 11.845 25.043 10.977C26.142 10.389 27.59 10.247 28.261 10.661C29.067 11.16 28.638 11.613 26.99 12.002C23.276 12.878 23.571 16.416 27.658 20.004C30.38 22.395 30.92 23.47 30.413 25.489C30.067 26.87 29.212 28 28.513 28C26.446 28 24.639 33.458 25.916 35.844C27.236 38.309 27.326 41.68 26.093 42.442C25.595 42.751 25.42 42.109 25.706 41.016C25.992 39.924 25.942 38.292 25.597 37.391C25.09 36.072 24.525 36.409 22.699 39.119C19.718 43.542 17 44.144 17 40.382C17 37.818 17.098 37.751 18.348 39.462C19.09 40.476 20.215 40.985 20.848 40.594C22.262 39.72 22.377 37 21 37C20.45 37 20 37.525 20 38.167C20 38.808 19.742 39.075 19.426 38.76C19.111 38.444 19.471 36.907 20.228 35.343C20.984 33.779 21.442 31.533 21.245 30.352C20.843 27.938 17.721 26.679 16.117 28.283C15.382 29.018 14.883 28.758 14.46 27.417C14.127 26.363 13.437 24.719 12.927 23.764C12.417 22.809 12 19.996 12 17.514C12 14.033 12.368 13 13.608 13C14.82 13 15.067 13.617 14.608 15.5C14.274 16.875 13.747 19.237 13.437 20.75C12.917 23.29 12.971 23.347 14.147 21.5C14.848 20.4 15.556 18.664 15.72 17.643C15.885 16.622 16.487 15.047 17.058 14.143C17.874 12.851 17.952 13.034 17.424 15C17.054 16.375 17.072 17.198 17.463 16.829C17.855 16.46 18.543 14.528 18.992 12.536C19.687 9.454 19.595 9.091 18.378 10.101C17.376 10.933 17.554 9.873 18.974 6.561C20.088 3.961 21 1.421 21 0.917C21 0.413 16.5 0 11 0H0.999998V10.934ZM22.707 1.107C24.522 2.922 30.24 3.655 34.25 2.586C40.286 0.978 38.604 0 29.8 0C23.803 0 21.898 0.298 22.707 1.107ZM41.787 12C41.321 15.17 42.367 16.093 43.393 13.418C44.272 11.127 44.138 9 43.113 9C42.626 9 42.029 10.35 41.787 12ZM61 19.5C61 25.925 60.968 26 58.248 26C56.031 26 55.06 25.175 53.246 21.75C52.007 19.413 50.996 16.488 50.997 15.25C51 13.217 51.482 13 56 13H61V19.5ZM8.43 16.114C7.736 17.237 4 17.282 4 16.167C4 14.706 5.06 14.203 7.047 14.722C8.109 15 8.731 15.626 8.43 16.114ZM16.857 19.417C17.311 20.012 17.312 21.625 16.86 23C16.04 25.491 16.038 25.49 16.374 22.78C16.559 21.284 16.326 20.298 15.856 20.589C14.643 21.338 14.789 26 16.025 26C17.077 26 19 21.865 19 19.602C19 18.904 18.332 18.333 17.516 18.333C16.609 18.333 16.353 18.755 16.857 19.417ZM52.9 23.75C53.87 25.615 53.807 26 52.535 26C51.539 26 51 25.064 51 23.333C51 20.402 51.178 20.441 52.9 23.75ZM8.647 31.751C8.784 36.188 8.743 36.27 8.028 33C7.608 31.075 7.197 29.95 7.116 30.5C7.036 31.05 6.533 30.825 6 30C4.581 27.804 4.782 27 6.75 27.001C8.15 27.001 8.529 27.951 8.647 31.751ZM33.864 46.25C33.765 48.6 33.608 48.877 33.294 47.25C33.056 46.013 32.442 45 31.93 45C31.419 45 31 44.55 31 44C31 43.45 31.675 43 32.5 43C33.554 43 33.959 43.967 33.864 46.25ZM39.75 43.689C37.407 44.301 37.513 46 39.893 46C40.934 46 42.076 46.755 42.43 47.678C43.331 50.027 40.717 52.362 38.112 51.535C34.254 50.311 35.892 42.812 39.95 43.116C41.14 43.205 41.094 43.338 39.75 43.689ZM25.535 45.057C25.894 45.638 25.905 47.241 25.559 48.62C25.052 50.64 24.404 51.065 22.215 50.813C18.903 50.431 18.545 47.636 21.75 47.18C24.425 46.801 24.719 45.335 22.25 44.689C20.899 44.336 20.999 44.206 22.691 44.116C23.896 44.052 25.176 44.476 25.535 45.057ZM64 44.441C64 44.684 63.55 45.16 63 45.5C62.45 45.84 62 45.641 62 45.059C62 44.477 62.45 44 63 44C63.55 44 64 44.198 64 44.441ZM29.247 47.488C28.985 48.857 28.415 49.756 27.98 49.487C27.037 48.905 27.906 45 28.978 45C29.388 45 29.509 46.12 29.247 47.488ZM48 46.878C48 47.36 47.304 48.333 46.453 49.039C45.217 50.065 45.166 50.489 46.203 51.146C47.168 51.759 47.052 51.973 45.75 51.985C43.773 52.002 43.38 49.502 45.184 48.387C45.997 47.884 45.763 47.418 44.434 46.898C42.811 46.262 42.942 46.129 45.25 46.07C46.763 46.032 48 46.395 48 46.878ZM37.446 48.087C36.416 49.755 38.733 51.667 40.113 50.287C41.267 49.133 40.545 47 39 47C38.515 47 37.816 47.489 37.446 48.087ZM21 49C21 49.55 21.423 50 21.941 50C22.459 50 23.16 49.55 23.5 49C23.84 48.45 23.416 48 22.559 48C21.702 48 21 48.45 21 49ZM14 63C14 63.55 14.45 64 15 64C15.55 64 16 63.55 16 63C16 62.45 15.55 62 15 62C14.45 62 14 62.45 14 63Z" fill="#AAC8CA"/>
<path fill-rule="evenodd" clip-rule="evenodd" d="M1 5.607C1 10.325 1.252 11.117 2.593 10.603C3.469 10.267 5.312 9.709 6.688 9.364L9.19 8.736L8.71 19.368C8.447 25.216 8.591 30 9.032 30C9.473 30 10.007 29.478 10.22 28.84C10.483 28.05 11.151 27.985 12.313 28.636C13.842 29.491 13.864 29.795 12.529 31.545C11.285 33.177 10.883 33.264 10.102 32.076C9.388 30.989 9.064 31.344 8.733 33.576L8.3 36.5L8.15 33.75C8.057 32.039 7.433 31 6.5 31C5.109 31 4.534 29.266 4.925 26.25C5.015 25.563 4.168 25 3.044 25C1.92 25 1 25.45 1 26C1 26.55 1.45 27 2 27C2.55 27 3 28.377 3 30.059C3 31.844 2.583 32.861 2 32.5C1.434 32.15 1 32.981 1 34.416C1 36.726 1.279 36.894 4.155 36.319C6.712 35.808 7.142 35.955 6.421 37.094C5.931 37.867 5.519 38.95 5.504 39.5C5.49 40.05 4.473 40.36 3.245 40.188C1.403 39.931 1.049 40.316 1.22 42.383C1.378 44.292 1.731 44.638 2.703 43.832C3.404 43.25 3.704 42.329 3.368 41.787C3.033 41.244 3.713 41.311 4.879 41.935C7.618 43.401 7.572 43.648 4 46.653C1.164 49.04 1 49.582 1 56.589V64H7.107C12.265 64 13.12 63.754 12.607 62.418C12.273 61.548 12 59.298 12 57.418C12 55.538 11.55 54 11 54C10.45 54 10 55.436 10 57.191C10 60.129 9.892 60.234 8.638 58.52C7.889 57.496 7.51 55.765 7.796 54.673C8.145 53.336 7.937 52.921 7.158 53.403C5.051 54.704 5.955 52.477 8.959 48.962C10.587 47.058 11.937 46.111 11.959 46.857C11.982 47.607 12.631 47.972 13.411 47.672C14.546 47.237 14.651 47.73 13.947 50.183C13.002 53.478 14.996 60 16.949 60C17.527 60 18 60.9 18 62C18 63.905 18.667 64 32 64C43.565 64 46 63.748 46 62.55C46 61.752 46.609 60.74 47.354 60.3C50.684 58.333 52.031 51.794 49.919 47.849C48.336 44.89 49.657 44.329 52.318 46.829C53.589 48.023 55.362 49 56.259 49C57.155 49 59.151 50.111 60.694 51.468C63.252 53.719 63.319 53.94 61.45 53.968C60.323 53.986 58.856 53.456 58.19 52.79C57.244 51.844 57.117 52.578 57.608 56.159C58.011 59.096 57.835 60.984 57.118 61.427C56.386 61.879 56 61.05 56 59.027C56 56.015 53.351 48.291 52.595 49.096C52.386 49.318 52.557 51.708 52.973 54.407C53.39 57.106 53.499 60.199 53.216 61.28C52.732 63.132 52.625 63.108 51.387 60.873L50.071 58.5L50.035 60.809C50.016 62.079 49.581 62.859 49.069 62.543C48.557 62.226 47.856 62.425 47.51 62.984C47.102 63.644 50.059 64 55.941 64H65V56.91C65 50.853 64.686 49.566 62.841 48.072C60.606 46.262 61.005 44 63.559 44C64.77 44 65 40.488 65 22V0H53.965C43.778 0 42.999 0.135 43.833 1.75C45.189 4.379 47.431 14.251 47.131 16.272C46.985 17.247 47.403 17.922 48.058 17.772C48.714 17.622 49.45 18.043 49.694 18.706C49.979 19.481 49.366 19.763 47.977 19.496C46.354 19.183 45.964 19.463 46.408 20.622C46.734 21.47 47 22.68 47 23.311C47 23.942 48.051 23.342 49.336 21.979C51.646 19.527 51.652 19.465 49.853 16.25L48.034 13H55.063H62.091L61.796 19.75L61.5 26.5L58.25 26.813C56.079 27.023 54.995 26.691 54.985 25.813C54.973 24.777 54.785 24.791 54.096 25.878C53.061 27.513 51 26.518 51 24.382C51 23.557 50.543 23.165 49.984 23.51C49.425 23.856 49.269 24.627 49.638 25.224C50.059 25.904 49.839 26.018 49.047 25.529C48.13 24.963 47.96 25.298 48.423 26.756C49.157 29.069 47.317 30.157 44.096 29.315C42.943 29.013 42 29.24 42 29.818C42 32.226 44.051 36 45.359 36C46.133 36 47.038 37.013 47.37 38.25C48.398 42.089 48.032 43.621 46.71 41.009C46.017 39.639 44.561 38.358 43.475 38.162C42.389 37.966 41.098 37.425 40.606 36.959C40.112 36.491 40.784 36.381 42.106 36.713C44.423 37.295 44.444 37.25 42.75 35.328C41.788 34.236 41 32.885 41 32.325C41 31.765 40.268 29.84 39.374 28.047C38.099 25.491 37.961 24 38.736 21.143C39.28 19.14 39.794 16.038 39.879 14.25C40.014 11.385 39.727 11 37.457 11C35.857 11 35.136 10.588 35.554 9.913C35.923 9.315 37.053 9.042 38.064 9.307C39.74 9.745 39.714 9.532 37.763 6.894C35.812 4.254 34.148 2.813 35.41 4.855C35.701 5.325 34.84 6.741 33.498 8.001C31.513 9.867 30.783 10.065 29.577 9.064C27.822 7.607 24.421 8.461 23.615 10.561C23.152 11.767 23.421 11.845 25.043 10.977C26.142 10.389 27.59 10.247 28.261 10.661C29.067 11.16 28.638 11.613 26.99 12.002C23.276 12.878 23.571 16.416 27.658 20.004C30.38 22.395 30.92 23.47 30.413 25.489C30.067 26.87 29.212 28 28.513 28C26.446 28 24.639 33.458 25.916 35.844C27.236 38.309 27.326 41.68 26.093 42.442C25.595 42.751 25.42 42.109 25.706 41.016C25.992 39.924 25.942 38.292 25.597 37.391C25.09 36.072 24.525 36.409 22.699 39.119C19.718 43.542 17 44.144 17 40.382C17 37.818 17.098 37.751 18.348 39.462C19.09 40.476 20.215 40.985 20.848 40.594C22.262 39.72 22.377 37 21 37C20.45 37 20 37.525 20 38.167C20 38.808 19.742 39.075 19.426 38.76C19.111 38.444 19.471 36.907 20.228 35.343C20.984 33.779 21.442 31.533 21.245 30.352C20.843 27.938 17.721 26.679 16.117 28.283C15.382 29.018 14.882 28.855 14.454 27.74C14.1 26.818 13.02 26.304 11.894 26.52C10.823 26.727 10.21 26.469 10.532 25.948C10.854 25.426 11.691 25 12.392 25C13.093 25 13.667 24.332 13.667 23.516C13.667 22.363 13.357 22.289 12.278 23.184C11.116 24.149 10.94 23.374 11.195 18.418C11.47 13.077 11.729 12.468 13.843 12.168C15.899 11.877 16.091 12.122 15.403 14.168C14.286 17.493 14.332 20.5 15.5 20.5C16.05 20.5 16.381 20.05 16.236 19.5C16.09 18.95 16.653 19.374 17.486 20.441C18.971 22.346 19 22.342 19 20.249C19 18.653 18.495 18.212 17 18.5C14.644 18.954 14.695 19.172 16.167 14.95C17.168 12.078 17.431 11.879 18.017 13.549C18.573 15.134 18.788 14.896 19.173 12.272C19.558 9.65 19.395 9.258 18.297 10.169C17.435 10.884 17.68 9.58 18.974 6.561C20.088 3.961 21 1.421 21 0.917C21 0.413 16.5 0 11 0H1V5.607ZM22.707 1.107C24.522 2.922 30.24 3.655 34.25 2.586C40.286 0.978 38.604 0 29.8 0C23.803 0 21.898 0.298 22.707 1.107ZM41.787 12C41.321 15.17 42.367 16.093 43.393 13.418C44.272 11.127 44.138 9 43.113 9C42.626 9 42.029 10.35 41.787 12ZM1.525 18.96C0.677 20.332 1.428 21.362 2.905 20.854C3.511 20.646 3.588 19.94 3.093 19.143C2.468 18.137 2.063 18.09 1.525 18.96ZM15.079 24.583C15.127 25.748 15.364 25.985 15.683 25.188C15.972 24.466 15.936 23.603 15.604 23.271C15.272 22.939 15.036 23.529 15.079 24.583ZM56.431 31.903C56.168 32.166 55.176 31.57 54.226 30.579C52.577 28.857 52.598 28.835 54.705 30.1C55.917 30.829 56.694 31.64 56.431 31.903ZM29.564 46.116C29.138 50.542 27 54.051 27 50.325C27 46.779 28.209 42 29.105 42C29.576 42 29.782 43.852 29.564 46.116ZM41.5 43C41.84 43.55 41.367 44 40.448 44C39.097 44 39.206 44.346 41.016 45.812C43.863 48.117 42.994 52 39.633 52C34.995 52 33.511 47.489 37 44C39.212 41.788 40.565 41.487 41.5 43ZM34.607 44.582C34.273 45.452 34 47.252 34 48.582C34 49.912 33.55 51 33 51C32.45 51 32 49.65 32 48C32 46.35 31.523 45 30.941 45C30.359 45 30.16 44.55 30.5 44C30.84 43.45 32.04 43 33.166 43C34.623 43 35.039 43.457 34.607 44.582ZM26 46.418C26 50.65 25.137 51.674 21.962 51.208C18.614 50.716 18.512 50.449 20.25 46.707C21.921 43.109 26 42.904 26 46.418ZM46.992 45.974C48.18 46.725 48.23 47.17 47.242 48.158C45.538 49.862 45.685 50.771 47.75 51.311C48.712 51.562 48.038 51.82 46.25 51.884C42.579 52.015 42.283 51.449 44.655 48.829C46.195 47.127 46.195 47 44.655 47C43.745 47 43 46.55 43 46C43 44.746 45.029 44.733 46.992 45.974ZM37.736 47.598C36.934 48.399 37.983 51 39.107 51C39.598 51 40 50.1 40 49C40 47.051 38.939 46.394 37.736 47.598ZM21 49C21 49.55 21.45 50 22 50C22.55 50 23 49.55 23 49C23 48.45 22.55 48 22 48C21.45 48 21 48.45 21 49ZM14 63C14 63.55 14.45 64 15 64C15.55 64 16 63.55 16 63C16 62.45 15.55 62 15 62C14.45 62 14 62.45 14 63Z" fill="#5E7773"/>
<path fill-rule="evenodd" clip-rule="evenodd" d="M1 5.607C1 10.325 1.252 11.117 2.593 10.603C3.469 10.267 5.312 9.709 6.688 9.364L9.19 8.736L8.71 19.368C8.447 25.216 8.591 30 9.032 30C9.473 30 9.992 29.524 10.186 28.943C10.38 28.361 11.309 28.181 12.251 28.543C13.587 29.056 13.74 29.617 12.947 31.1C12.387 32.145 11.303 33 10.538 33C9.773 33 8.941 33.788 8.689 34.75C8.42 35.779 8.184 35.316 8.116 33.628C8.018 31.192 7.772 30.945 6.5 32C4.852 33.368 4.697 32.978 4.804 27.75C4.847 25.68 4.383 25 2.93 25C1.869 25 1 25.45 1 26C1 26.55 1.401 27 1.891 27C2.38 27 2.962 28.553 3.184 30.451C3.455 32.77 3.245 33.618 2.543 33.037C1.873 32.481 1.449 33.018 1.359 34.539C1.232 36.663 1.531 36.844 4.264 36.297C6.723 35.805 7.139 35.959 6.421 37.094C5.931 37.867 5.519 38.95 5.504 39.5C5.49 40.05 4.431 40.352 3.151 40.172C1.434 39.93 0.912 40.272 1.162 41.475C1.348 42.372 1.95 42.969 2.5 42.803C3.05 42.636 3.381 42.143 3.236 41.707C3.09 41.271 3.878 41.399 4.986 41.992C7.609 43.396 7.552 43.665 4 46.653C1.275 48.946 1 49.733 1 55.229C1 59.819 1.423 61.6 2.75 62.608C4.836 64.191 13 64.457 13 62.941C13 62.359 12.573 62.146 12.05 62.469C11.528 62.792 10.593 62.108 9.973 60.949C9.352 59.79 8.092 57.963 7.172 56.888C6.253 55.814 5.651 54.663 5.835 54.329C6.02 53.996 5.661 53.409 5.038 53.024C4.257 52.541 4.445 51.886 5.645 50.912C7.127 49.708 7.259 49.707 6.537 50.905C5.959 51.865 6.061 52.08 6.862 51.585C7.506 51.187 7.793 50.474 7.5 49.999C7.206 49.525 7.964 48.438 9.184 47.584C10.741 46.493 11.606 46.362 12.089 47.144C12.467 47.756 13.248 47.965 13.824 47.609C14.539 47.167 14.586 47.956 13.972 50.099C13.003 53.477 14.964 60 16.949 60C17.527 60 18 60.9 18 62C18 63.905 18.667 64 32 64C43.565 64 46 63.748 46 62.55C46 61.752 46.609 60.74 47.354 60.3C50.684 58.333 52.031 51.794 49.919 47.849C48.336 44.89 49.657 44.329 52.318 46.829C53.589 48.023 55.327 49 56.18 49C57.032 49 58.895 49.917 60.32 51.037C63.174 53.282 62.94 56 59.893 56C58.456 56 58 56.723 58 59C58 61 57.5 62 56.5 62C55.675 62 55 62.475 55 63.055C55 63.689 56.893 63.988 59.75 63.805L64.5 63.5L64.797 56.698C65.059 50.693 64.835 49.687 62.888 48.11C60.612 46.267 60.982 44 63.559 44C64.674 44 65 42.442 65 37.107C65 29.627 64.53 29 58.918 29C55.807 29 55.267 29.867 57.183 31.783C57.834 32.434 58.022 33.311 57.602 33.732C57.181 34.153 56.311 33.789 55.668 32.923C53.525 30.037 49.584 28.021 47.999 29.001C47.184 29.505 45.5 29.662 44.258 29.35C42.995 29.033 42 29.243 42 29.826C42 32.227 44.053 36 45.359 36C46.133 36 47.038 37.013 47.37 38.25C48.398 42.089 48.032 43.621 46.71 41.009C46.017 39.639 44.561 38.358 43.475 38.162C42.389 37.966 41.098 37.425 40.606 36.959C40.112 36.491 40.784 36.381 42.106 36.713C44.423 37.295 44.444 37.25 42.75 35.328C41.788 34.236 41 32.885 41 32.325C41 31.765 40.282 29.867 39.403 28.107C38.367 26.03 38.058 23.957 38.523 22.203C38.917 20.716 39.419 17.533 39.639 15.13C40.026 10.904 39.954 10.776 37.48 11.249C35.854 11.559 35.063 11.33 35.312 10.619C35.527 10.004 36.629 9.531 37.762 9.57C39.724 9.636 39.743 9.533 38.161 7.396L36.5 5.152L33.353 8.172C30.531 10.881 30.108 11.016 29.25 9.482C28.139 7.497 24.525 8.189 23.615 10.561C23.146 11.783 23.415 11.849 25.13 10.93C26.471 10.213 27.559 10.159 28.181 10.781C28.802 11.402 28.25 11.971 26.636 12.377C23.151 13.251 23.61 16.451 27.741 20.078C30.386 22.4 30.918 23.477 30.413 25.489C30.067 26.87 29.212 28 28.513 28C26.446 28 24.639 33.458 25.916 35.844C27.236 38.309 27.326 41.68 26.093 42.442C25.595 42.751 25.42 42.109 25.706 41.016C25.992 39.924 25.942 38.292 25.597 37.391C25.09 36.072 24.525 36.409 22.699 39.119C19.718 43.542 17 44.144 17 40.382C17 37.818 17.098 37.751 18.348 39.462C19.09 40.476 20.215 40.985 20.848 40.594C22.262 39.72 22.377 37 21 37C20.45 37 20 37.525 20 38.167C20 38.808 19.742 39.075 19.426 38.76C19.111 38.444 19.471 36.907 20.228 35.343C20.984 33.779 21.442 31.533 21.245 30.352C20.857 28.021 17.74 26.66 16.236 28.164C15.66 28.74 14.346 28.659 12.796 27.953C10.478 26.897 10.272 26.249 10.092 19.436C9.984 15.38 10.373 11.172 10.955 10.084C11.537 8.996 12.109 6.957 12.225 5.553C12.366 3.85 13.029 3 14.218 3C15.198 3 16 3.45 16 4C16 5.147 19.96 5.389 20.077 4.25C20.119 3.837 20.304 2.712 20.488 1.75C20.789 0.179 19.812 0 10.912 0H1V5.607ZM22.812 1.212C24.646 3.046 30.466 3.632 34.5 2.387C36.7 1.709 38.275 1.085 38 1C35.791 0.323 34 0.31 34 0.972C34 2.359 30.015 2.87 28.732 1.647C27.25 0.235 21.405 -0.195 22.812 1.212ZM43.835 0.775C44.57 1.297 45.132 2.011 45.085 2.362C44.81 4.417 45.238 7.301 45.662 6.25C46.615 3.89 48.997 4.927 49.106 7.75L49.213 10.5L50.299 7.75C51.275 5.282 51.879 5 56.193 5H61V8.441C61 12.179 62.423 13.945 63.395 11.412C63.728 10.546 64 8.298 64 6.418V3L54.25 2.882C47.612 2.801 45.457 2.52 47.5 2C49.15 1.58 49.825 1.177 49 1.105C48.175 1.032 46.375 0.715 45 0.4C43.265 0.002 42.909 0.117 43.835 0.775ZM9.693 6.731C9.439 7.704 9.215 7.15 9.195 5.5C9.175 3.85 9.382 3.054 9.656 3.731C9.93 4.408 9.947 5.758 9.693 6.731ZM17.603 10.167C17.886 10.625 17.641 11 17.059 11C16.477 11 16 11.477 16 12.059C16 12.641 16.416 12.861 16.924 12.547C17.433 12.233 18.079 12.769 18.359 13.738C18.77 15.152 18.839 15.106 18.71 13.5C18.622 12.4 18.856 11.012 19.231 10.417C19.606 9.821 19.277 9.333 18.5 9.333C17.723 9.333 17.32 9.708 17.603 10.167ZM42.524 10.357C42.236 11.261 41.789 12.675 41.531 13.5C41.274 14.325 41.49 15 42.012 15C43.131 15 44.513 10.179 43.644 9.31C43.316 8.982 42.811 9.453 42.524 10.357ZM47.931 12.25C47.523 13.73 47.334 18.154 47.722 17.137C48.161 15.986 48.394 15.986 49.215 17.137C49.916 18.118 49.989 17.939 49.475 16.5C49.083 15.4 48.74 13.938 48.714 13.25C48.673 12.178 48.139 11.495 47.931 12.25ZM1.525 18.96C0.677 20.332 1.428 21.362 2.905 20.854C3.511 20.646 3.588 19.94 3.093 19.143C2.468 18.137 2.063 18.09 1.525 18.96ZM14.543 19.931C14.226 20.443 14.35 21.098 14.817 21.387C15.284 21.676 15.667 21.257 15.667 20.456C15.667 18.77 15.351 18.623 14.543 19.931ZM17.564 20.293C17.94 21.279 18.499 21.834 18.807 21.526C19.115 21.219 18.808 20.412 18.124 19.733C17.136 18.753 17.022 18.868 17.564 20.293ZM46 20.108C46 20.534 46.457 21.165 47.016 21.51C47.575 21.856 47.714 22.67 47.324 23.319C46.935 23.969 47.427 23.841 48.418 23.037C49.505 22.153 49.777 21.426 49.103 21.201C48.49 20.997 48.196 20.493 48.45 20.081C48.704 19.67 48.257 19.333 47.456 19.333C46.655 19.333 46 19.682 46 20.108ZM50 25.441C50 26.234 50.408 27.134 50.907 27.442C51.405 27.751 51.578 27.102 51.29 26.001C50.679 23.666 50 23.371 50 25.441ZM53.543 27.931C53.226 28.443 53.378 29.115 53.879 29.425C54.38 29.735 55.048 29.316 55.364 28.494C55.986 26.874 54.483 26.409 53.543 27.931ZM61.345 31.543C61.019 32.392 60.538 32.872 60.276 32.61C60.014 32.348 60.096 31.653 60.459 31.067C61.445 29.471 62.021 29.781 61.345 31.543ZM40 33C40 33.55 39.802 34 39.559 34C39.316 34 38.84 33.55 38.5 33C38.16 32.45 38.359 32 38.941 32C39.523 32 40 32.45 40 33ZM60 35C60 35.55 59.523 36 58.941 36C58.359 36 58.16 35.55 58.5 35C58.84 34.45 59.316 34 59.559 34C59.802 34 60 34.45 60 35ZM63.662 42.25C63.385 42.938 63.158 42.375 63.158 41C63.158 39.625 63.385 39.063 63.662 39.75C63.94 40.438 63.94 41.563 63.662 42.25ZM29.564 46.116C29.138 50.542 27 54.051 27 50.325C27 46.779 28.209 42 29.105 42C29.576 42 29.782 43.852 29.564 46.116ZM41.5 43C41.84 43.55 41.367 44 40.448 44C39.097 44 39.206 44.346 41.016 45.812C43.863 48.117 42.994 52 39.633 52C34.995 52 33.511 47.489 37 44C39.212 41.788 40.565 41.487 41.5 43ZM34.607 44.582C34.273 45.452 34 47.252 34 48.582C34 49.912 33.55 51 33 51C32.45 51 32 49.65 32 48C32 46.35 31.523 45 30.941 45C30.359 45 30.16 44.55 30.5 44C30.84 43.45 32.04 43 33.166 43C34.623 43 35.039 43.457 34.607 44.582ZM26 46.418C26 50.65 25.137 51.674 21.962 51.208C18.614 50.716 18.512 50.449 20.25 46.707C21.921 43.109 26 42.904 26 46.418ZM46.992 45.974C48.18 46.725 48.23 47.17 47.242 48.158C45.538 49.862 45.685 50.771 47.75 51.311C48.712 51.562 48.038 51.82 46.25 51.884C42.579 52.015 42.283 51.449 44.655 48.829C46.195 47.127 46.195 47 44.655 47C43.745 47 43 46.55 43 46C43 44.746 45.029 44.733 46.992 45.974ZM37.736 47.598C36.934 48.399 37.983 51 39.107 51C39.598 51 40 50.1 40 49C40 47.051 38.939 46.394 37.736 47.598ZM21 49C21 49.55 21.45 50 22 50C22.55 50 23 49.55 23 49C23 48.45 22.55 48 22 48C21.45 48 21 48.45 21 49ZM52 50C52 50.55 52.477 51 53.059 51C53.641 51 53.84 50.55 53.5 50C53.16 49.45 52.684 49 52.441 49C52.198 49 52 49.45 52 50ZM6.543 53.931C6.226 54.443 6.425 55.144 6.984 55.49C7.543 55.835 8 55.416 8 54.559C8 52.802 7.4 52.544 6.543 53.931ZM57 53.787C57 54.22 58.007 54.65 59.237 54.743C60.996 54.875 61.156 54.71 59.987 53.971C58.159 52.815 57 52.744 57 53.787ZM10.598 57.072C10.906 61.523 12 61.987 12 57.667C12 55.65 11.637 54 11.193 54C10.749 54 10.481 55.382 10.598 57.072ZM53 55.972C53 58.613 54.661 59.402 55.276 57.053C55.565 55.946 55.189 54.903 54.389 54.596C53.502 54.256 53 54.753 53 55.972ZM50.051 60C50.02 62.295 51.644 64.338 52.888 63.569C53.5 63.191 53.948 62.121 53.884 61.191C53.792 59.854 53.665 59.907 53.273 61.444C52.815 63.245 52.678 63.207 51.425 60.944C50.626 59.502 50.063 59.115 50.051 60ZM14 63C14 63.55 14.45 64 15 64C15.55 64 16 63.55 16 63C16 62.45 15.55 62 15 62C14.45 62 14 62.45 14 63ZM47.5 63C47.16 63.55 47.61 64 48.5 64C49.39 64 49.84 63.55 49.5 63C49.16 62.45 48.71 62 48.5 62C48.29 62 47.84 62.45 47.5 63Z" fill="#344D51"/>
<path fill-rule="evenodd" clip-rule="evenodd" d="M1 5.607C1 10.325 1.252 11.117 2.593 10.603C3.469 10.267 5.332 9.704 6.733 9.352L9.28 8.713L8.76 17.372C8.437 22.76 8.628 26.27 9.264 26.663C9.95 27.087 10.122 23.292 9.786 15.148L9.286 3H14.536C18.28 3 19.951 2.57 20.362 1.5C20.85 0.228 19.419 0 10.969 0H1V5.607ZM44.475 0.96C44.829 1.532 46.291 2 47.726 2C50.86 2 50.498 1.521 46.666 0.601C44.808 0.154 44.054 0.278 44.475 0.96ZM33.133 8.644C31.434 10.454 30.46 10.86 29.683 10.083C28.097 8.497 26.555 8.759 27.904 10.385C28.821 11.489 28.544 11.898 26.536 12.402C23.116 13.26 23.699 16.551 27.892 20.051C30.529 22.253 30.987 23.205 30.444 25.367C30.081 26.815 29.212 28 28.513 28C26.446 28 24.639 33.458 25.916 35.844C27.236 38.309 27.326 41.68 26.093 42.442C25.595 42.751 25.42 42.109 25.706 41.016C25.992 39.924 25.942 38.292 25.597 37.391C25.09 36.072 24.525 36.409 22.699 39.119C21.451 40.971 19.658 42.635 18.715 42.816C16.163 43.308 16.507 38.764 19.282 35.327C20.538 33.772 21.413 31.533 21.226 30.352C20.854 27.992 17.736 26.664 16.192 28.208C15.556 28.844 14.392 28.785 12.857 28.037C10.825 27.048 10.728 27.075 12.156 28.237C14.079 29.8 12.894 33 10.391 33C9.561 33 9.13 33.401 9.432 33.891C9.735 34.38 8.823 35.541 7.405 36.471C5.987 37.4 5.095 38.428 5.422 38.756C5.75 39.083 5.002 40.496 3.759 41.896C2.446 43.374 2.25 43.863 3.292 43.062C4.597 42.059 5.384 41.984 6.186 42.786C6.988 43.588 6.432 44.607 4.144 46.533C1.257 48.962 1 49.672 1 55.229C1 62.259 2.37 63.918 8.219 63.968L11.938 64L7.909 58.25L3.88 52.5L7.557 49.13C10.219 46.689 11.446 46.104 12.005 47.008C12.429 47.694 13.248 47.965 13.824 47.609C14.536 47.169 14.592 47.936 13.998 50.009C12.994 53.506 14.377 58.547 16.57 59.388C17.356 59.69 18 60.851 18 61.969C18 63.914 18.595 64 32 64C41.558 64 46 63.649 46 62.894C46 62.286 47.125 60.452 48.5 58.818C51.164 55.651 51.735 51.242 49.919 47.849C48.324 44.869 49.664 44.336 52.367 46.875C53.664 48.094 55.184 48.958 55.743 48.796C57.578 48.262 62.97 52.915 62.36 54.505C62.044 55.327 61.159 56 60.393 56C59.627 56 59 56.8 59 57.777C59 58.755 58.28 60.583 57.4 61.84C55.799 64.124 55.8 64.125 60.15 63.812L64.5 63.5L64.797 56.698C65.059 50.693 64.835 49.687 62.888 48.11C60.522 46.194 61.01 44.01 63.809 43.985C65.099 43.973 65.188 43.772 64.184 43.135C63.459 42.675 62.718 41.67 62.536 40.9C61.508 36.549 60.689 35.182 59.406 35.674C58.224 36.128 58.229 35.786 59.439 33.455C60.225 31.939 61.461 30.324 62.184 29.865C63.024 29.333 62.143 29.025 59.75 29.015C55.861 28.999 55.158 29.758 57.183 31.783C59.659 34.259 56.847 34.229 54.24 31.752C52.039 29.661 50.566 29.166 46.75 29.233C44.138 29.279 42 29.493 42 29.708C42 30.82 45.095 35.866 45.956 36.16C46.505 36.347 47.226 38.075 47.558 40C48.143 43.399 48.122 43.428 46.805 41.009C46.06 39.639 44.561 38.358 43.475 38.162C42.389 37.966 41.098 37.425 40.606 36.959C40.112 36.491 40.784 36.381 42.106 36.713C44.374 37.282 44.414 37.213 42.88 35.407C41.99 34.358 41.013 32.825 40.709 32C40.284 30.842 40.14 30.912 40.079 32.309C40.036 33.304 39.663 33.909 39.25 33.653C38.335 33.086 38.44 21.142 39.413 15.122C40.109 10.812 40.08 10.752 37.52 11.241C35.861 11.558 35.062 11.333 35.312 10.619C35.527 10.004 36.67 9.536 37.852 9.579C39.872 9.654 39.902 9.549 38.346 7.829C36.266 5.532 36.018 5.57 33.133 8.644ZM42 12.059C42 13.191 42.45 13.84 43 13.5C43.55 13.16 44 12.234 44 11.441C44 10.648 43.55 10 43 10C42.45 10 42 10.927 42 12.059ZM1.525 18.96C0.677 20.332 1.428 21.362 2.905 20.854C3.511 20.646 3.588 19.94 3.093 19.143C2.468 18.137 2.063 18.09 1.525 18.96ZM1 26C1 26.55 1.45 27 2 27C2.55 27 3 28.377 3 30.059C3 31.741 2.646 32.9 2.214 32.632C1.782 32.365 1.429 33.014 1.429 34.073C1.429 36.111 2.291 36.333 5.427 35.105C7.163 34.424 7.186 34.286 5.662 33.701C4.332 33.19 4.078 32.19 4.476 29.026C4.918 25.503 4.733 25 2.991 25C1.896 25 1 25.45 1 26ZM19.607 38.582C18.668 41.028 18.872 41.351 20.5 40C22.162 38.62 22.49 37 21.107 37C20.616 37 19.941 37.712 19.607 38.582ZM29.564 46.116C29.138 50.542 27 54.051 27 50.325C27 46.779 28.209 42 29.105 42C29.576 42 29.782 43.852 29.564 46.116ZM41.5 43C41.84 43.55 41.367 44 40.448 44C39.097 44 39.206 44.346 41.016 45.812C43.863 48.117 42.994 52 39.633 52C34.995 52 33.511 47.489 37 44C39.212 41.788 40.565 41.487 41.5 43ZM34.607 44.582C34.273 45.452 34 47.252 34 48.582C34 49.912 33.55 51 33 51C32.45 51 32 49.65 32 48C32 46.35 31.523 45 30.941 45C30.359 45 30.16 44.55 30.5 44C30.84 43.45 32.04 43 33.166 43C34.623 43 35.039 43.457 34.607 44.582ZM26 46.418C26 50.65 25.137 51.674 21.962 51.208C18.614 50.716 18.512 50.449 20.25 46.707C21.921 43.109 26 42.904 26 46.418ZM46.992 45.974C48.18 46.725 48.23 47.17 47.242 48.158C45.538 49.862 45.685 50.771 47.75 51.311C48.712 51.562 48.038 51.82 46.25 51.884C42.579 52.015 42.283 51.449 44.655 48.829C46.195 47.127 46.195 47 44.655 47C43.745 47 43 46.55 43 46C43 44.746 45.029 44.733 46.992 45.974ZM37.736 47.598C36.934 48.399 37.983 51 39.107 51C39.598 51 40 50.1 40 49C40 47.051 38.939 46.394 37.736 47.598ZM21 49C21 49.55 21.45 50 22 50C22.55 50 23 49.55 23 49C23 48.45 22.55 48 22 48C21.45 48 21 48.45 21 49ZM58.733 54.124C59.412 54.808 60.219 55.115 60.526 54.807C60.834 54.499 60.279 53.94 59.293 53.564C57.868 53.022 57.753 53.136 58.733 54.124ZM54.158 57C54.158 58.375 54.385 58.938 54.662 58.25C54.94 57.563 54.94 56.438 54.662 55.75C54.385 55.063 54.158 55.625 54.158 57Z" fill="#C75B10"/>
<path fill-rule="evenodd" clip-rule="evenodd" d="M1 5.607C1 10.325 1.252 11.117 2.593 10.603C3.469 10.267 5.332 9.704 6.733 9.352L9.28 8.713L8.76 17.372C8.437 22.76 8.628 26.27 9.264 26.663C9.95 27.087 10.122 23.292 9.786 15.148L9.286 3H14.536C18.28 3 19.951 2.57 20.362 1.5C20.85 0.228 19.419 0 10.969 0H1V5.607ZM44.475 0.96C44.829 1.532 46.291 2 47.726 2C50.86 2 50.498 1.521 46.666 0.601C44.808 0.154 44.054 0.278 44.475 0.96ZM33.133 8.644C31.434 10.454 30.46 10.86 29.683 10.083C28.033 8.433 26.582 8.792 28 10.5C28.941 11.634 28.954 12 28.051 12C27.394 12 26.182 12.675 25.357 13.5C24.532 14.325 24.249 15 24.729 15C25.208 15 26.14 14.46 26.8 13.8C27.654 12.946 28 12.927 28 13.733C28 14.356 27.059 15.164 25.91 15.529C23.941 16.153 24.027 16.383 27.38 19.454C30.388 22.209 30.875 23.235 30.517 26.062C30.285 27.902 30.549 29.956 31.104 30.625C31.856 31.531 31.605 31.71 30.126 31.323C28.933 31.011 28.353 30.243 28.676 29.401C29.708 26.712 27.234 28.022 26.129 30.75C25.273 32.864 25.34 34.425 26.418 37.5C27.355 40.173 27.493 41.896 26.833 42.695C26.291 43.352 26.038 44.927 26.272 46.195C26.647 48.228 26.789 48.117 27.474 45.25C27.901 43.462 28.692 42 29.232 42C29.772 42 29.914 42.788 29.548 43.75C28.997 45.196 29.109 45.271 30.191 44.183C31.271 43.096 31.162 42.616 29.573 41.443C28.513 40.661 27.871 39.796 28.146 39.521C28.421 39.246 29.606 39.916 30.781 41.011C31.955 42.105 33.498 42.993 34.208 42.985C35.236 42.972 35.229 42.798 34.172 42.128C33.214 41.52 33.971 40.728 36.895 39.282C39.122 38.18 40.688 37.021 40.374 36.707C40.059 36.393 40.859 36.401 42.151 36.725C44.374 37.282 44.413 37.211 42.88 35.407C41.99 34.358 41.013 32.825 40.709 32C40.239 30.72 40.146 30.732 40.079 32.083C40.036 32.954 39.345 33.667 38.544 33.667C37.743 33.667 37.372 33.208 37.719 32.646C38.065 32.085 38.436 28.898 38.543 25.563C38.649 22.228 38.963 18.226 39.24 16.669C39.59 14.697 39.273 13.658 38.194 13.244C36.895 12.746 36.956 12.515 38.573 11.811C40.116 11.139 39.963 11.045 37.8 11.338C36.263 11.546 34.894 11.166 34.622 10.456C34.298 9.612 35.082 9.274 37.051 9.41C39.794 9.6 39.866 9.51 38.324 7.806C36.268 5.534 36.014 5.575 33.133 8.644ZM42 11.5C42 12.325 42.436 13 42.969 13C43.501 13 43.678 12.325 43.362 11.5C43.045 10.675 42.609 10 42.393 10C42.177 10 42 10.675 42 11.5ZM1.525 18.96C0.677 20.332 1.428 21.362 2.905 20.854C3.511 20.646 3.588 19.94 3.093 19.143C2.468 18.137 2.063 18.09 1.525 18.96ZM35 23.5C33.708 24.875 32.255 26 31.77 26C30.937 26 36.022 21.099 36.924 21.032C37.158 21.014 36.292 22.125 35 23.5ZM1 26C1 26.55 1.45 27 2 27C2.55 27 3 28.377 3 30.059C3 31.741 2.646 32.9 2.214 32.632C1.782 32.365 1.429 33.014 1.429 34.073C1.429 35.846 3.911 36.952 4.07 35.25C4.906 26.302 4.757 25 2.896 25C1.853 25 1 25.45 1 26ZM12.234 28.294C13.188 29.066 13.638 30.063 13.234 30.509C12.831 30.955 13.063 30.997 13.75 30.601C15.479 29.606 15.337 29.234 12.75 27.98C10.731 27.002 10.678 27.034 12.234 28.294ZM16.564 28.707C16.022 30.132 16.136 30.247 17.124 29.267C17.808 28.588 18.115 27.781 17.807 27.474C17.499 27.166 16.94 27.721 16.564 28.707ZM19 28.809C19 29.254 19.632 30.483 20.405 31.54C21.72 33.338 21.777 33.285 21.289 30.731C20.823 28.296 19 26.765 19 28.809ZM42 29.67C42 31.265 45.266 35.954 46.043 35.474C46.569 35.148 47 34.657 47 34.382C47 34.107 46.55 34.16 46 34.5C44.551 35.396 44.77 33.428 46.25 32.251C46.938 31.704 48.256 31.38 49.181 31.53C50.105 31.68 51.068 31.265 51.321 30.607C51.636 29.786 50.247 29.384 46.89 29.326C44.2 29.279 42 29.434 42 29.67ZM56 29.941C56 30.459 56.45 31.16 57 31.5C58.491 32.421 58.208 34 56.552 34C55.369 34 55.301 34.564 56.176 37.076C56.914 39.193 57.571 39.829 58.282 39.118C58.993 38.407 58.946 37.64 58.132 36.659C57.202 35.538 57.275 35.108 58.474 34.648C59.314 34.326 60 33.396 60 32.581C60 31.766 60.788 30.641 61.75 30.08C63.165 29.256 62.783 29.055 59.75 29.03C57.688 29.014 56 29.423 56 29.941ZM11 32.82C10.175 33.194 9.5 34.472 9.5 35.66C9.5 38.126 10.921 40.067 11.152 37.917C11.483 34.837 11.58 34.457 12.335 33.25C13.202 31.865 13.147 31.848 11 32.82ZM17 35.384C17 36.347 16.283 36.747 15 36.5C13.735 36.256 13 36.653 13 37.579C13 38.384 11.889 39.549 10.531 40.168C9.174 40.786 8.34 41.789 8.678 42.396C9.017 43.003 8.687 42.938 7.947 42.25C7.206 41.563 5.929 41 5.109 41C3.983 41 4.084 41.341 5.517 42.389C7.337 43.72 7.282 43.892 4.209 46.478C1.281 48.941 1 49.683 1 54.934C1 61.776 2.79 64 8.295 64H11.933L7.389 57.5C4.89 53.925 3.378 51 4.028 51C5.865 51 10.936 46.36 10.176 45.375C9.804 44.892 10.557 45.538 11.85 46.812C13.358 48.298 14.012 49.846 13.676 51.132C12.997 53.728 14.734 58.684 16.57 59.388C17.356 59.69 18 60.851 18 61.969C18 63.914 18.595 64 32 64C41.558 64 46 63.649 46 62.894C46 62.286 47.125 60.452 48.5 58.818C50.229 56.763 50.976 54.714 50.921 52.173C50.878 50.153 50.594 49.175 50.291 50C49.058 53.352 46.62 55 42.892 55C38.57 55 33.787 53.153 34.62 51.805C34.934 51.297 35.773 51.397 36.541 52.034C37.291 52.656 38.713 52.955 39.702 52.699C41.189 52.313 41.132 52.212 39.372 52.116C36.583 51.964 34.631 49.52 35.288 47.005C35.577 45.902 35.354 45 34.793 45C34.229 45 33.97 46.34 34.213 48C34.63 50.842 34.466 51.005 31.077 51.1C27.916 51.188 27.791 51.282 30 51.914C32.215 52.546 31.987 52.722 28 53.452C19.811 54.951 15.556 53.691 14.761 49.53C14.215 46.675 15.141 46.261 17.018 48.522C18.133 49.865 18.451 49.8 19.73 47.975C21.397 45.596 20.771 43 18.531 43C16.778 43 16.497 39.808 18.003 36.995C18.673 35.743 18.673 34.916 18.003 34.502C17.451 34.161 17 34.558 17 35.384ZM60.079 36.583C60.127 37.748 60.364 37.985 60.683 37.188C60.972 36.466 60.936 35.603 60.604 35.271C60.272 34.939 60.036 35.529 60.079 36.583ZM6 37.5C5.315 38.325 4.923 39.034 5.128 39.077C8.767 39.824 9.058 39.775 8.064 38.578C7.489 37.884 7.313 37.02 7.675 36.658C8.037 36.296 8.088 36 7.789 36C7.49 36 6.685 36.675 6 37.5ZM23.658 37.449C23.287 38.416 23.582 38.714 24.545 38.344C25.339 38.04 25.74 37.388 25.435 36.895C24.669 35.655 24.303 35.769 23.658 37.449ZM47.741 36.75C47.534 37.163 47.444 39.075 47.541 41C47.638 42.925 47.218 44.877 46.609 45.337C45.967 45.821 46.541 45.941 47.973 45.622C49.673 45.243 51.156 45.738 52.719 47.206C53.969 48.38 55.292 49.042 55.658 48.675C56.024 48.309 57.713 49.062 59.412 50.349C64.253 54.017 67.312 51.783 62.75 47.911C60.675 46.15 60.63 45.9 62.178 44.693C63.28 43.834 63.56 42.906 62.994 41.99C62.52 41.223 62.307 40.312 62.522 39.964C62.737 39.617 62.276 39.333 61.499 39.333C60.722 39.333 59.865 39.91 59.594 40.616C59.267 41.467 59.673 41.698 60.801 41.302C62.127 40.836 62.245 40.982 61.337 41.966C60.641 42.72 59.638 42.891 58.837 42.391C58.102 41.932 56.833 41.456 56.018 41.333C55.203 41.21 54.375 40.626 54.179 40.037C53.196 37.087 48.72 34.802 47.741 36.75ZM20.5 38C20.84 38.55 21.316 39 21.559 39C21.802 39 22 38.55 22 38C22 37.45 21.523 37 20.941 37C20.359 37 20.16 37.45 20.5 38ZM41 39.107C41 39.716 40.38 39.976 39.622 39.685C37.935 39.038 35.972 40.846 36.079 42.95C36.132 43.989 36.325 44.086 36.664 43.244C36.943 42.553 37.652 42.285 38.24 42.648C38.872 43.039 39.017 42.837 38.595 42.155C38.181 41.484 38.491 41 39.334 41C40.133 41 41.045 41.675 41.362 42.5C41.733 43.469 41.338 44 40.246 44C38.913 44 39.043 44.342 40.864 45.617C42.406 46.697 43.001 47.89 42.656 49.209C42.152 51.134 42.191 51.137 44.18 49.342C45.927 47.765 45.989 47.453 44.61 47.177C42.5 46.753 42.562 45.362 44.75 44.05C46.375 43.075 46.338 42.863 44.234 41.077C42.193 39.345 42.143 39.107 43.734 38.692C45.083 38.341 44.969 38.205 43.25 38.116C42.013 38.052 41 38.498 41 39.107ZM22.16 41.24C20.435 42.965 20.75 44 23 44C24.1 44 25 43.352 25 42.559C25 40.54 23.539 39.861 22.16 41.24ZM37.603 47.833C37.32 48.292 37.743 48.667 38.544 48.667C39.345 48.667 40 48.292 40 47.833C40 47.375 39.577 47 39.059 47C38.541 47 37.886 47.375 37.603 47.833ZM47.2 48.2C45.497 49.903 45.714 51.003 47.75 50.985C49.126 50.973 49.207 50.784 48.13 50.102C47.024 49.401 47.12 49.024 48.63 48.147C49.659 47.55 50.027 47.047 49.45 47.03C48.873 47.014 47.86 47.54 47.2 48.2ZM21 49C21 49.55 21.477 50 22.059 50C22.641 50 22.84 49.55 22.5 49C22.16 48.45 21.684 48 21.441 48C21.198 48 21 48.45 21 49ZM25 51C25 51.55 25.477 52 26.059 52C26.641 52 26.84 51.55 26.5 51C26.16 50.45 25.684 50 25.441 50C25.198 50 25 50.45 25 51ZM43.75 52.662C44.438 52.94 45.563 52.94 46.25 52.662C46.938 52.385 46.375 52.158 45 52.158C43.625 52.158 43.063 52.385 43.75 52.662ZM58.733 54.124C59.412 54.808 60.219 55.115 60.526 54.807C60.834 54.499 60.279 53.94 59.293 53.564C57.868 53.022 57.753 53.136 58.733 54.124ZM62.362 54.5C62.045 55.325 61.159 56 60.393 56C59.627 56 59 56.8 59 57.777C59 58.755 58.28 60.583 57.4 61.84C55.799 64.124 55.8 64.125 60.15 63.812L64.5 63.5L64.802 58.25C65.094 53.19 63.691 51.035 62.362 54.5ZM54.158 57C54.158 58.375 54.385 58.938 54.662 58.25C54.94 57.563 54.94 56.438 54.662 55.75C54.385 55.063 54.158 55.625 54.158 57Z" fill="#B7836E"/>
<path fill-rule="evenodd" clip-rule="evenodd" d="M42 11.5C42 12.325 42.436 13 42.969 13C43.501 13 43.678 12.325 43.362 11.5C43.045 10.675 42.609 10 42.393 10C42.177 10 42 10.675 42 11.5ZM26.813 12.683C27.534 12.972 28.397 12.936 28.729 12.604C29.061 12.272 28.471 12.036 27.417 12.079C26.252 12.127 26.015 12.364 26.813 12.683ZM30.638 24.276C29.919 27.025 30.119 27.112 32.294 24.995C33.786 23.542 33.845 23.155 32.643 22.693C31.732 22.344 30.99 22.929 30.638 24.276ZM19 28.809C19 29.254 19.632 30.483 20.405 31.54C21.72 33.338 21.777 33.285 21.289 30.731C20.823 28.296 19 26.765 19 28.809ZM26.129 30.75C25.267 32.877 25.343 34.406 26.464 37.5C27.26 39.7 27.932 40.912 27.956 40.193C27.99 39.181 28.492 39.231 30.18 40.414C32.165 41.804 32.645 41.764 35.55 39.969C37.427 38.809 39.925 38.151 41.62 38.37C43.204 38.574 43.825 38.531 43 38.274C40.389 37.459 39.601 36.084 42.106 36.713C44.374 37.282 44.414 37.213 42.88 35.407C41.99 34.358 41.013 32.825 40.709 32C40.234 30.707 40.147 30.716 40.079 32.063C39.952 34.577 31.858 34.605 29.59 32.099C28.608 31.014 28.1 29.648 28.461 29.063C28.822 28.478 28.696 28 28.18 28C27.665 28 26.741 29.238 26.129 30.75ZM42 29.686C42 29.913 42.687 31.427 43.526 33.05C45.078 36.052 46.371 37.131 45.408 34.62C45.117 33.862 46.013 32.348 47.401 31.257L49.923 29.273H45.962C43.783 29.273 42 29.459 42 29.686ZM17 35.384C17 36.347 16.283 36.747 15 36.5C13.735 36.256 13 36.653 13 37.579C13 38.384 11.893 39.547 10.541 40.163C8.401 41.138 8.234 41.558 9.253 43.392C9.898 44.551 10.292 45.95 10.129 46.5C9.966 47.05 10.149 47.184 10.536 46.798C11.754 45.579 14.239 48.979 13.683 51.104C12.998 53.724 14.725 58.681 16.57 59.388C17.356 59.69 18 60.851 18 61.969C18 63.914 18.595 64 32 64C41.558 64 46 63.649 46 62.894C46 62.286 47.125 60.452 48.5 58.818C50.218 56.776 50.98 54.698 50.937 52.173C50.886 49.235 50.708 48.907 50.048 50.535C48.53 54.281 46.396 55.254 41.274 54.535C36.685 53.89 29.11 53.648 22.24 53.928C14.096 54.259 11.715 46.967 18.94 43.82C20.268 43.242 20.24 43.13 18.75 43.07C16.783 42.991 16.411 39.969 18.003 36.995C18.673 35.743 18.673 34.916 18.003 34.502C17.451 34.161 17 34.558 17 35.384ZM60.079 36.583C60.127 37.748 60.364 37.985 60.683 37.188C60.972 36.466 60.936 35.603 60.604 35.271C60.272 34.939 60.036 35.529 60.079 36.583ZM6.074 37.411C5.172 38.498 5.201 38.994 6.201 39.571C6.916 39.983 7.166 39.952 6.759 39.502C6.351 39.052 6.519 38.08 7.131 37.342C7.744 36.604 8.02 36 7.745 36C7.47 36 6.718 36.635 6.074 37.411ZM23.658 37.449C23.287 38.416 23.582 38.714 24.545 38.344C25.339 38.04 25.74 37.388 25.435 36.895C24.669 35.655 24.303 35.769 23.658 37.449ZM47.741 36.75C47.432 37.366 47.508 40.945 47.923 45.309C47.965 45.754 48.483 45.819 49.074 45.454C49.665 45.089 51.17 45.75 52.419 46.924C55.053 49.398 57.269 48.899 58.827 45.481C59.976 42.958 59.201 41.813 56.018 41.333C55.203 41.21 54.375 40.626 54.179 40.037C53.196 37.087 48.72 34.802 47.741 36.75ZM20.5 38C20.84 38.55 21.316 39 21.559 39C21.802 39 22 38.55 22 38C22 37.45 21.523 37 20.941 37C20.359 37 20.16 37.45 20.5 38ZM29.813 51.683C30.534 51.972 31.397 51.936 31.729 51.604C32.061 51.272 31.471 51.036 30.417 51.079C29.252 51.127 29.015 51.364 29.813 51.683Z" fill="#8D3511"/>
</svg>
