<svg width="65" height="65" viewBox="0 0 65 65" fill="none" xmlns="http://www.w3.org/2000/svg">
<g clip-path="url(#clip0_1_2)">
<path fill-rule="evenodd" clip-rule="evenodd" d="M1 32.5V65H33H65V32.5V0H33H1V32.5Z" fill="#1B1B27"/>
<path fill-rule="evenodd" clip-rule="evenodd" d="M0.999998 18.7637V37.5273L4.25 36.8733C7.068 36.3066 7.335 36.4244 6.259 37.7538C5.576 38.5978 5.249 39.5241 5.533 39.8125C5.816 40.0999 5.276 40.9723 4.332 41.7493C3.197 42.6857 2.87 42.7345 3.367 41.8945C3.831 41.1105 3.56 40.625 2.659 40.625C1.468 40.625 1.175 42.8675 1.067 52.8125L0.934998 65H7.075C12.262 65 13.12 64.7512 12.607 63.3933C12.273 62.5097 12 60.2245 12 58.3152C12 56.4058 11.55 54.8438 11 54.8438C10.45 54.8438 10 56.3022 10 58.0846C10 61.0685 9.892 61.1752 8.638 59.4344C7.889 58.3944 7.51 56.6363 7.796 55.5273C8.145 54.1694 7.937 53.7479 7.158 54.2374C5.051 55.5587 5.955 53.297 8.959 49.727C10.587 47.7933 11.937 46.8315 11.959 47.5891C11.982 48.3509 12.631 48.7216 13.411 48.4169C14.546 47.9751 14.651 48.4758 13.947 50.9671C13.002 54.3136 14.996 60.9375 16.949 60.9375C17.527 60.9375 18 61.8516 18 62.9688C18 64.9035 18.667 65 32 65C43.905 65 46 64.7674 46 63.4451C46 62.5889 46.634 61.6423 47.408 61.3407C50.646 60.0783 51.766 52.78 49.534 47.4805C48.415 44.8226 50.106 45.3375 53.688 48.747C57.214 52.1046 59.247 60.0773 57.125 62.2324C56.292 63.0784 56 62.5239 56 60.0925C56 56.9268 53.37 49.0252 52.595 49.8631C52.386 50.0886 52.557 52.5159 52.973 55.2571C53.39 57.9983 53.499 61.1396 53.216 62.2375C52.732 64.1184 52.625 64.0941 51.387 61.8241L50.071 59.4141L50.035 61.7591C50.016 63.049 49.581 63.8412 49.069 63.5202C48.557 63.1983 47.856 63.4004 47.51 63.9681C47.102 64.6384 50.059 65 55.941 65H65V32.5V0H53.965C43.778 0 42.999 0.137109 43.833 1.77734C45.064 4.20164 47.46 14.431 47.16 15.9849C47.027 16.6766 47.46 18.2762 48.122 19.5396C49.216 21.6227 49.173 21.707 47.664 20.4425C45.625 18.7342 45.617 18.9556 47.519 24.4298C49.225 29.3414 48.315 30.8425 44.258 29.8086C42.995 29.4866 42 29.6999 42 30.292C42 32.7305 44.053 36.5625 45.359 36.5625C46.133 36.5625 47.038 37.5913 47.37 38.8477C48.398 42.7466 48.032 44.3026 46.71 41.6498C46.017 40.2584 44.561 38.9573 43.475 38.7583C42.389 38.5592 41.098 38.0098 40.606 37.5365C40.112 37.0612 40.784 36.9495 42.106 37.2866C44.423 37.8777 44.444 37.832 42.75 35.88C41.788 34.7709 41 33.3988 41 32.8301C41 32.2613 40.268 30.3063 39.374 28.4852C38.099 25.8893 37.961 24.375 38.736 21.4734C39.28 19.4391 39.794 16.2886 39.879 14.4727C40.014 11.5629 39.727 11.1719 37.457 11.1719C35.857 11.1719 35.136 10.7534 35.554 10.0679C35.923 9.46055 37.053 9.18328 38.064 9.45242C39.732 9.89523 39.702 9.66469 37.737 6.96516C35.812 4.32148 35.496 4.19555 34.897 5.83883C33.739 9.01875 31.222 10.592 29.548 9.18125C27.817 7.72281 24.415 8.60844 23.615 10.726C23.152 11.9509 23.421 12.0301 25.043 11.1485C26.142 10.5513 27.59 10.4071 28.261 10.8276C29.067 11.3344 28.638 11.7945 26.99 12.1895C23.276 13.0792 23.571 16.6725 27.658 20.3166C30.38 22.7449 30.92 23.8367 30.413 25.8873C30.067 27.2898 29.212 28.4375 28.513 28.4375C26.446 28.4375 24.639 33.9808 25.916 36.4041C27.236 38.9076 27.326 42.3313 26.093 43.1052C25.595 43.419 25.42 42.767 25.706 41.6569C25.992 40.5478 25.942 38.8903 25.597 37.9752C25.09 36.6356 24.525 36.9779 22.699 39.7302C19.718 44.2223 17 44.8338 17 41.013C17 38.4089 17.098 38.3409 18.348 40.0786C19.09 41.1084 20.215 41.6254 20.848 41.2283C22.262 40.3406 22.377 37.5781 21 37.5781C20.45 37.5781 20 38.1113 20 38.7634C20 39.4144 19.742 39.6855 19.426 39.3656C19.111 39.0447 19.471 37.4837 20.228 35.8952C20.984 34.3068 21.442 32.0257 21.245 30.8262C20.853 28.4314 17.734 27.0827 16.197 28.6437C15.569 29.2815 15.008 29.2723 14.609 28.6163C13.214 26.324 13.736 22.623 15.87 19.693C18.642 15.8844 20.646 8.34742 18.378 10.2588C17.376 11.1038 17.554 10.0273 18.974 6.66352C20.088 4.02289 21 1.4432 21 0.931328C21 0.419453 16.5 0 11 0H0.999998V18.7637ZM22.707 1.1243C24.522 2.96766 30.24 3.71211 34.25 2.62641C40.286 0.993281 38.604 0 29.8 0C23.803 0 21.898 0.302656 22.707 1.1243ZM41.787 12.1875C41.321 15.407 42.367 16.3445 43.393 13.6277C44.272 11.3009 44.138 9.14062 43.113 9.14062C42.626 9.14062 42.029 10.5117 41.787 12.1875ZM16.75 20.0261C14.85 22.164 14.368 26.4062 16.025 26.4062C17.257 26.4062 19.198 21.5719 18.79 19.5183C18.563 18.3727 18.122 18.4823 16.75 20.0261ZM8.689 35.293C8.438 36.27 8.232 35.4707 8.232 33.5156C8.232 31.5605 8.438 30.7612 8.689 31.7383C8.941 32.7153 8.941 34.3159 8.689 35.293ZM14 63.9844C14 64.543 14.45 65 15 65C15.55 65 16 64.543 16 63.9844C16 63.4258 15.55 62.9688 15 62.9688C14.45 62.9688 14 63.4258 14 63.9844Z" fill="#DBF5F6"/>
<path fill-rule="evenodd" clip-rule="evenodd" d="M0.999998 11.1048V22.2087L3.673 22.5306C5.143 22.7073 6.505 23.3452 6.7 23.9495C6.921 24.635 5.918 24.8777 4.027 24.5954L0.999998 24.1445V30.8364V37.5273L4.25 36.8733C7.068 36.3066 7.335 36.4244 6.259 37.7538C5.576 38.5978 5.249 39.5241 5.533 39.8125C5.816 40.0999 5.276 40.9723 4.332 41.7493C3.197 42.6857 2.87 42.7345 3.367 41.8945C3.831 41.1105 3.56 40.625 2.659 40.625C1.468 40.625 1.175 42.8675 1.067 52.8125L0.934998 65H7.075C12.262 65 13.12 64.7512 12.607 63.3933C12.273 62.5097 12 60.2245 12 58.3152C12 56.4058 11.55 54.8438 11 54.8438C10.45 54.8438 10 56.3022 10 58.0846C10 61.0685 9.892 61.1752 8.638 59.4344C7.889 58.3944 7.51 56.6363 7.796 55.5273C8.145 54.1694 7.937 53.7479 7.158 54.2374C5.051 55.5587 5.955 53.297 8.959 49.727C10.587 47.7933 11.937 46.8315 11.959 47.5891C11.982 48.3509 12.631 48.7216 13.411 48.4169C14.546 47.9751 14.651 48.4758 13.947 50.9671C13.002 54.3136 14.996 60.9375 16.949 60.9375C17.527 60.9375 18 61.8516 18 62.9688C18 64.9035 18.667 65 32 65C43.905 65 46 64.7674 46 63.4451C46 62.5889 46.634 61.6423 47.408 61.3407C50.646 60.0783 51.766 52.78 49.534 47.4805C48.415 44.8226 50.106 45.3375 53.688 48.747C57.214 52.1046 59.247 60.0773 57.125 62.2324C56.292 63.0784 56 62.5239 56 60.0925C56 56.9268 53.37 49.0252 52.595 49.8631C52.386 50.0886 52.557 52.5159 52.973 55.2571C53.39 57.9983 53.499 61.1396 53.216 62.2375C52.732 64.1184 52.625 64.0941 51.387 61.8241L50.071 59.4141L50.035 61.7591C50.016 63.049 49.581 63.8412 49.069 63.5202C48.557 63.1983 47.856 63.4004 47.51 63.9681C47.102 64.6384 50.059 65 55.941 65H65V32.5V0H53.965C43.778 0 42.999 0.137109 43.833 1.77734C45.064 4.20164 47.46 14.431 47.16 15.9849C47.027 16.6766 47.46 18.2762 48.122 19.5396C49.216 21.6227 49.173 21.707 47.664 20.4425C45.625 18.7342 45.617 18.9556 47.519 24.4298C49.225 29.3414 48.315 30.8425 44.258 29.8086C42.995 29.4866 42 29.6999 42 30.292C42 32.7305 44.053 36.5625 45.359 36.5625C46.133 36.5625 47.038 37.5913 47.37 38.8477C48.398 42.7466 48.032 44.3026 46.71 41.6498C46.017 40.2584 44.561 38.9573 43.475 38.7583C42.389 38.5592 41.098 38.0098 40.606 37.5365C40.112 37.0612 40.784 36.9495 42.106 37.2866C44.423 37.8777 44.444 37.832 42.75 35.88C41.788 34.7709 41 33.3988 41 32.8301C41 32.2613 40.268 30.3063 39.374 28.4852C38.099 25.8893 37.961 24.375 38.736 21.4734C39.28 19.4391 39.794 16.2886 39.879 14.4727C40.014 11.5629 39.727 11.1719 37.457 11.1719C35.857 11.1719 35.136 10.7534 35.554 10.0679C35.923 9.46055 37.053 9.18328 38.064 9.45242C39.74 9.89727 39.714 9.68094 37.763 7.00172C35.812 4.32047 34.148 2.85695 35.41 4.93086C35.701 5.4082 34.84 6.84633 33.498 8.12602C31.513 10.0212 30.783 10.2223 29.577 9.20563C27.822 7.72586 24.421 8.5932 23.615 10.726C23.152 11.9509 23.421 12.0301 25.043 11.1485C26.142 10.5513 27.59 10.4071 28.261 10.8276C29.067 11.3344 28.638 11.7945 26.99 12.1895C23.276 13.0792 23.571 16.6725 27.658 20.3166C30.38 22.7449 30.92 23.8367 30.413 25.8873C30.067 27.2898 29.212 28.4375 28.513 28.4375C26.446 28.4375 24.639 33.9808 25.916 36.4041C27.236 38.9076 27.326 42.3313 26.093 43.1052C25.595 43.419 25.42 42.767 25.706 41.6569C25.992 40.5478 25.942 38.8903 25.597 37.9752C25.09 36.6356 24.525 36.9779 22.699 39.7302C19.718 44.2223 17 44.8338 17 41.013C17 38.4089 17.098 38.3409 18.348 40.0786C19.09 41.1084 20.215 41.6254 20.848 41.2283C22.262 40.3406 22.377 37.5781 21 37.5781C20.45 37.5781 20 38.1113 20 38.7634C20 39.4144 19.742 39.6855 19.426 39.3656C19.111 39.0447 19.471 37.4837 20.228 35.8952C20.984 34.3068 21.442 32.0257 21.245 30.8262C20.843 28.3745 17.721 27.0959 16.117 28.7249C15.382 29.4714 14.883 29.2073 14.46 27.8454C14.127 26.7749 13.437 25.1052 12.927 24.1353C12.417 23.1654 12 20.3084 12 17.7877C12 14.2523 12.368 13.2031 13.608 13.2031C14.82 13.2031 15.067 13.8298 14.608 15.7422C14.274 17.1387 13.747 19.5376 13.437 21.0742C12.917 23.6539 12.971 23.7118 14.147 21.8359C14.848 20.7187 15.556 18.9556 15.72 17.9187C15.885 16.8817 16.487 15.2821 17.058 14.364C17.874 13.0518 17.952 13.2377 17.424 15.2344C17.054 16.6309 17.072 17.4667 17.463 17.092C17.855 16.7172 18.543 14.755 18.992 12.7319C19.687 9.60172 19.595 9.23305 18.378 10.2588C17.376 11.1038 17.554 10.0273 18.974 6.66352C20.088 4.02289 21 1.4432 21 0.931328C21 0.419453 16.5 0 11 0H0.999998V11.1048ZM22.707 1.1243C24.522 2.96766 30.24 3.71211 34.25 2.62641C40.286 0.993281 38.604 0 29.8 0C23.803 0 21.898 0.302656 22.707 1.1243ZM41.787 12.1875C41.321 15.407 42.367 16.3445 43.393 13.6277C44.272 11.3009 44.138 9.14062 43.113 9.14062C42.626 9.14062 42.029 10.5117 41.787 12.1875ZM61 19.8047C61 26.3301 60.968 26.4062 58.248 26.4062C56.031 26.4062 55.06 25.5684 53.246 22.0898C52.007 19.7163 50.996 16.7456 50.997 15.4883C51 13.4235 51.482 13.2031 56 13.2031H61V19.8047ZM8.43 16.3658C7.736 17.5063 4 17.552 4 16.4196C4 14.9358 5.06 14.4249 7.047 14.952C8.109 15.2344 8.731 15.8702 8.43 16.3658ZM16.857 19.7204C17.311 20.3247 17.312 21.9629 16.86 23.3594C16.04 25.8893 16.038 25.8883 16.374 23.1359C16.559 21.6166 16.326 20.6152 15.856 20.9107C14.643 21.6714 14.789 26.4062 16.025 26.4062C17.077 26.4062 19 22.2066 19 19.9083C19 19.1994 18.332 18.6195 17.516 18.6195C16.609 18.6195 16.353 19.048 16.857 19.7204ZM52.9 24.1211C53.87 26.0152 53.807 26.4062 52.535 26.4062C51.539 26.4062 51 25.4556 51 23.6976C51 20.7208 51.178 20.7604 52.9 24.1211ZM8.647 32.2471C8.784 36.7534 8.743 36.8367 8.028 33.5156C7.608 31.5605 7.197 30.418 7.116 30.9766C7.036 31.5352 6.533 31.3066 6 30.4688C4.581 28.2384 4.782 27.4219 6.75 27.4229C8.15 27.4229 8.529 28.3877 8.647 32.2471ZM33.864 46.9727C33.765 49.3594 33.608 49.6407 33.294 47.9883C33.056 46.732 32.442 45.7031 31.93 45.7031C31.419 45.7031 31 45.2461 31 44.6875C31 44.1289 31.675 43.6719 32.5 43.6719C33.554 43.6719 33.959 44.654 33.864 46.9727ZM39.75 44.3716C37.407 44.9932 37.513 46.7188 39.893 46.7188C40.934 46.7188 42.076 47.4855 42.43 48.423C43.331 50.8087 40.717 53.1802 38.112 52.3402C34.254 51.0971 35.892 43.4809 39.95 43.7897C41.14 43.8801 41.094 44.0152 39.75 44.3716ZM25.535 45.761C25.894 46.3511 25.905 47.9791 25.559 49.3797C25.052 51.4312 24.404 51.8629 22.215 51.607C18.903 51.219 18.545 48.3803 21.75 47.9172C24.425 47.5323 24.719 46.0434 22.25 45.3873C20.899 45.0287 20.999 44.8967 22.691 44.8053C23.896 44.7403 25.176 45.1709 25.535 45.761ZM64 45.1354C64 45.3822 63.55 45.8656 63 46.2109C62.45 46.5563 62 46.3541 62 45.763C62 45.172 62.45 44.6875 63 44.6875C63.55 44.6875 64 44.8886 64 45.1354ZM29.247 48.23C28.985 49.6204 28.415 50.5334 27.98 50.2602C27.037 49.6691 27.906 45.7031 28.978 45.7031C29.388 45.7031 29.509 46.8406 29.247 48.23ZM48 47.6105C48 48.1 47.304 49.0882 46.453 49.8052C45.217 50.8473 45.166 51.2779 46.203 51.9452C47.168 52.5677 47.052 52.7851 45.75 52.7973C43.773 52.8145 43.38 50.2755 45.184 49.143C45.997 48.6322 45.763 48.1589 44.434 47.6308C42.811 46.9848 42.942 46.8498 45.25 46.7898C46.763 46.7512 48 47.1199 48 47.6105ZM37.446 48.8384C36.416 50.5324 38.733 52.4743 40.113 51.0727C41.267 49.9007 40.545 47.7344 39 47.7344C38.515 47.7344 37.816 48.231 37.446 48.8384ZM21 49.7656C21 50.3242 21.423 50.7812 21.941 50.7812C22.459 50.7812 23.16 50.3242 23.5 49.7656C23.84 49.207 23.416 48.75 22.559 48.75C21.702 48.75 21 49.207 21 49.7656ZM14 63.9844C14 64.543 14.45 65 15 65C15.55 65 16 64.543 16 63.9844C16 63.4258 15.55 62.9688 15 62.9688C14.45 62.9688 14 63.4258 14 63.9844Z" fill="#AAC8CA"/>
<path fill-rule="evenodd" clip-rule="evenodd" d="M1 5.69461C1 10.4863 1.252 11.2907 2.593 10.7687C3.469 10.4274 5.312 9.8607 6.688 9.51031L9.19 8.8725L8.71 19.6706C8.447 25.61 8.591 30.4688 9.032 30.4688C9.473 30.4688 10.007 29.9386 10.22 29.2906C10.483 28.4883 11.151 28.4223 12.313 29.0834C13.842 29.9518 13.864 30.2605 12.529 32.0379C11.285 33.6954 10.883 33.7838 10.102 32.5772C9.388 31.4732 9.064 31.8338 8.733 34.1006L8.3 37.0703L8.15 34.2773C8.057 32.5396 7.433 31.4844 6.5 31.4844C5.109 31.4844 4.534 29.7233 4.925 26.6602C5.015 25.9624 4.168 25.3906 3.044 25.3906C1.92 25.3906 1 25.8477 1 26.4062C1 26.9648 1.45 27.4219 2 27.4219C2.55 27.4219 3 28.8204 3 30.5287C3 32.3416 2.583 33.3745 2 33.0078C1.434 32.6523 1 33.4963 1 34.9538C1 37.2998 1.279 37.4705 4.155 36.8865C6.712 36.3675 7.142 36.5168 6.421 37.6736C5.931 38.4587 5.519 39.5586 5.504 40.1172C5.49 40.6758 4.473 40.9906 3.245 40.8159C1.403 40.5549 1.049 40.9459 1.22 43.0452C1.378 44.9841 1.731 45.3355 2.703 44.5169C3.404 43.9258 3.704 42.9904 3.368 42.4399C3.033 41.8884 3.713 41.9565 4.879 42.5902C7.618 44.0791 7.572 44.33 4 47.382C1.164 49.8062 1 50.3567 1 57.4732V65H7.107C12.265 65 13.12 64.7502 12.607 63.3933C12.273 62.5097 12 60.2245 12 58.3152C12 56.4058 11.55 54.8438 11 54.8438C10.45 54.8438 10 56.3022 10 58.0846C10 61.0685 9.892 61.1752 8.638 59.4344C7.889 58.3944 7.51 56.6363 7.796 55.5273C8.145 54.1694 7.937 53.7479 7.158 54.2374C5.051 55.5587 5.955 53.297 8.959 49.727C10.587 47.7933 11.937 46.8315 11.959 47.5891C11.982 48.3509 12.631 48.7216 13.411 48.4169C14.546 47.9751 14.651 48.4758 13.947 50.9671C13.002 54.3136 14.996 60.9375 16.949 60.9375C17.527 60.9375 18 61.8516 18 62.9688C18 64.9035 18.667 65 32 65C43.565 65 46 64.7441 46 63.5273C46 62.7169 46.609 61.6891 47.354 61.2422C50.684 59.2445 52.031 52.6033 49.919 48.5966C48.336 45.5914 49.657 45.0216 52.318 47.5607C53.589 48.7734 55.362 49.7656 56.259 49.7656C57.155 49.7656 59.151 50.894 60.694 52.2722C63.252 54.5584 63.319 54.7828 61.45 54.8112C60.323 54.8295 58.856 54.2913 58.19 53.6148C57.244 52.6541 57.117 53.3995 57.608 57.0365C58.011 60.0194 57.835 61.9369 57.118 62.3868C56.386 62.8459 56 62.0039 56 59.9493C56 56.8902 53.351 49.0455 52.595 49.8631C52.386 50.0886 52.557 52.5159 52.973 55.2571C53.39 57.9983 53.499 61.1396 53.216 62.2375C52.732 64.1184 52.625 64.0941 51.387 61.8241L50.071 59.4141L50.035 61.7591C50.016 63.049 49.581 63.8412 49.069 63.5202C48.557 63.1983 47.856 63.4004 47.51 63.9681C47.102 64.6384 50.059 65 55.941 65H65V57.7992C65 51.6476 64.686 50.3405 62.841 48.8231C60.606 46.9848 61.005 44.6875 63.559 44.6875C64.77 44.6875 65 41.1206 65 22.3438V0H53.965C43.778 0 42.999 0.137109 43.833 1.77734C45.189 4.44742 47.431 14.4737 47.131 16.5262C46.985 17.5165 47.403 18.202 48.058 18.0497C48.714 17.8973 49.45 18.3249 49.694 18.9983C49.979 19.7854 49.366 20.0718 47.977 19.8006C46.354 19.4827 45.964 19.7671 46.408 20.9442C46.734 21.8055 47 23.0344 47 23.6752C47 24.3161 48.051 23.7067 49.336 22.3224C51.646 19.8321 51.652 19.7691 49.853 16.5039L48.034 13.2031H55.063H62.091L61.796 20.0586L61.5 26.9141L58.25 27.232C56.079 27.4452 54.995 27.108 54.985 26.2163C54.973 25.1641 54.785 25.1784 54.096 26.2823C53.061 27.9429 51 26.9323 51 24.763C51 23.9251 50.543 23.527 49.984 23.8773C49.425 24.2288 49.269 25.0118 49.638 25.6181C50.059 26.3088 49.839 26.4245 49.047 25.9279C48.13 25.353 47.96 25.6933 48.423 27.1741C49.157 29.5232 47.317 30.6282 44.096 29.773C42.943 29.4663 42 29.6969 42 30.2839C42 32.7295 44.051 36.5625 45.359 36.5625C46.133 36.5625 47.038 37.5913 47.37 38.8477C48.398 42.7466 48.032 44.3026 46.71 41.6498C46.017 40.2584 44.561 38.9573 43.475 38.7583C42.389 38.5592 41.098 38.0098 40.606 37.5365C40.112 37.0612 40.784 36.9495 42.106 37.2866C44.423 37.8777 44.444 37.832 42.75 35.88C41.788 34.7709 41 33.3988 41 32.8301C41 32.2613 40.268 30.3063 39.374 28.4852C38.099 25.8893 37.961 24.375 38.736 21.4734C39.28 19.4391 39.794 16.2886 39.879 14.4727C40.014 11.5629 39.727 11.1719 37.457 11.1719C35.857 11.1719 35.136 10.7534 35.554 10.0679C35.923 9.46055 37.053 9.18328 38.064 9.45242C39.74 9.89727 39.714 9.68094 37.763 7.00172C35.812 4.32047 34.148 2.85695 35.41 4.93086C35.701 5.4082 34.84 6.84633 33.498 8.12602C31.513 10.0212 30.783 10.2223 29.577 9.20563C27.822 7.72586 24.421 8.5932 23.615 10.726C23.152 11.9509 23.421 12.0301 25.043 11.1485C26.142 10.5513 27.59 10.4071 28.261 10.8276C29.067 11.3344 28.638 11.7945 26.99 12.1895C23.276 13.0792 23.571 16.6725 27.658 20.3166C30.38 22.7449 30.92 23.8367 30.413 25.8873C30.067 27.2898 29.212 28.4375 28.513 28.4375C26.446 28.4375 24.639 33.9808 25.916 36.4041C27.236 38.9076 27.326 42.3313 26.093 43.1052C25.595 43.419 25.42 42.767 25.706 41.6569C25.992 40.5478 25.942 38.8903 25.597 37.9752C25.09 36.6356 24.525 36.9779 22.699 39.7302C19.718 44.2223 17 44.8338 17 41.013C17 38.4089 17.098 38.3409 18.348 40.0786C19.09 41.1084 20.215 41.6254 20.848 41.2283C22.262 40.3406 22.377 37.5781 21 37.5781C20.45 37.5781 20 38.1113 20 38.7634C20 39.4144 19.742 39.6855 19.426 39.3656C19.111 39.0447 19.471 37.4837 20.228 35.8952C20.984 34.3068 21.442 32.0257 21.245 30.8262C20.843 28.3745 17.721 27.0959 16.117 28.7249C15.382 29.4714 14.882 29.3059 14.454 28.1734C14.1 27.237 13.02 26.715 11.894 26.9344C10.823 27.1446 10.21 26.8826 10.532 26.3534C10.854 25.8233 11.691 25.3906 12.392 25.3906C13.093 25.3906 13.667 24.7122 13.667 23.8834C13.667 22.7124 13.357 22.6373 12.278 23.5463C11.116 24.5263 10.94 23.7392 11.195 18.7058C11.47 13.2813 11.729 12.6628 13.843 12.3581C15.899 12.0626 16.091 12.3114 15.403 14.3894C14.286 17.7663 14.332 20.8203 15.5 20.8203C16.05 20.8203 16.381 20.3633 16.236 19.8047C16.09 19.2461 16.653 19.6767 17.486 20.7604C18.971 22.6952 19 22.6911 19 20.5654C19 18.9445 18.495 18.4966 17 18.7891C14.644 19.2502 14.695 19.4716 16.167 15.1836C17.168 12.2667 17.431 12.0646 18.017 13.7607C18.573 15.3705 18.788 15.1288 19.173 12.4638C19.558 9.80078 19.395 9.40266 18.297 10.3279C17.435 11.0541 17.68 9.72969 18.974 6.66352C20.088 4.02289 21 1.4432 21 0.931328C21 0.419453 16.5 0 11 0H1V5.69461ZM22.707 1.1243C24.522 2.96766 30.24 3.71211 34.25 2.62641C40.286 0.993281 38.604 0 29.8 0C23.803 0 21.898 0.302656 22.707 1.1243ZM41.787 12.1875C41.321 15.407 42.367 16.3445 43.393 13.6277C44.272 11.3009 44.138 9.14062 43.113 9.14062C42.626 9.14062 42.029 10.5117 41.787 12.1875ZM1.525 19.2562C0.677 20.6497 1.428 21.6958 2.905 21.1798C3.511 20.9686 3.588 20.2516 3.093 19.4421C2.468 18.4204 2.063 18.3727 1.525 19.2562ZM15.079 24.9671C15.127 26.1503 15.364 26.391 15.683 25.5816C15.972 24.8483 15.936 23.9718 15.604 23.6346C15.272 23.2974 15.036 23.8966 15.079 24.9671ZM56.431 32.4015C56.168 32.6686 55.176 32.0633 54.226 31.0568C52.577 29.3079 52.598 29.2855 54.705 30.5703C55.917 31.3107 56.694 32.1344 56.431 32.4015ZM29.564 46.8366C29.138 51.3317 27 54.8955 27 51.1113C27 47.5099 28.209 42.6562 29.105 42.6562C29.576 42.6562 29.782 44.5372 29.564 46.8366ZM41.5 43.6719C41.84 44.2305 41.367 44.6875 40.448 44.6875C39.097 44.6875 39.206 45.0389 41.016 46.5278C43.863 48.8688 42.994 52.8125 39.633 52.8125C34.995 52.8125 33.511 48.231 37 44.6875C39.212 42.4409 40.565 42.1352 41.5 43.6719ZM34.607 45.2786C34.273 46.1622 34 47.9903 34 49.3411C34 50.6919 33.55 51.7969 33 51.7969C32.45 51.7969 32 50.4258 32 48.75C32 47.0742 31.523 45.7031 30.941 45.7031C30.359 45.7031 30.16 45.2461 30.5 44.6875C30.84 44.1289 32.04 43.6719 33.166 43.6719C34.623 43.6719 35.039 44.136 34.607 45.2786ZM26 47.1433C26 51.4414 25.137 52.4814 21.962 52.0081C18.614 51.5084 18.512 51.2373 20.25 47.4368C21.921 43.7826 26 43.5744 26 47.1433ZM46.992 46.6923C48.18 47.4551 48.23 47.907 47.242 48.9105C45.538 50.6411 45.685 51.5643 47.75 52.1127C48.712 52.3677 48.038 52.6297 46.25 52.6947C42.579 52.8277 42.283 52.2529 44.655 49.592C46.195 47.8634 46.195 47.7344 44.655 47.7344C43.745 47.7344 43 47.2773 43 46.7188C43 45.4452 45.029 45.432 46.992 46.6923ZM37.736 48.3417C36.934 49.1552 37.983 51.7969 39.107 51.7969C39.598 51.7969 40 50.8828 40 49.7656C40 47.7862 38.939 47.1189 37.736 48.3417ZM21 49.7656C21 50.3242 21.45 50.7812 22 50.7812C22.55 50.7812 23 50.3242 23 49.7656C23 49.207 22.55 48.75 22 48.75C21.45 48.75 21 49.207 21 49.7656ZM14 63.9844C14 64.543 14.45 65 15 65C15.55 65 16 64.543 16 63.9844C16 63.4258 15.55 62.9688 15 62.9688C14.45 62.9688 14 63.4258 14 63.9844Z" fill="#5E7773"/>
<path fill-rule="evenodd" clip-rule="evenodd" d="M1 5.69461C1 10.4863 1.252 11.2907 2.593 10.7687C3.469 10.4274 5.312 9.8607 6.688 9.51031L9.19 8.8725L8.71 19.6706C8.447 25.61 8.591 30.4688 9.032 30.4688C9.473 30.4688 9.992 29.9853 10.186 29.3952C10.38 28.8041 11.309 28.6213 12.251 28.989C13.587 29.51 13.74 30.0798 12.947 31.5859C12.387 32.6473 11.303 33.5156 10.538 33.5156C9.773 33.5156 8.941 34.3159 8.689 35.293C8.42 36.338 8.184 35.8678 8.116 34.1534C8.018 31.6794 7.772 31.4285 6.5 32.5C4.852 33.8894 4.697 33.4933 4.804 28.1836C4.847 26.0813 4.383 25.3906 2.93 25.3906C1.869 25.3906 1 25.8477 1 26.4062C1 26.9648 1.401 27.4219 1.891 27.4219C2.38 27.4219 2.962 28.9991 3.184 30.9268C3.455 33.282 3.245 34.1433 2.543 33.5532C1.873 32.9885 1.449 33.5339 1.359 35.0787C1.232 37.2359 1.531 37.4197 4.264 36.8641C6.723 36.3645 7.139 36.5209 6.421 37.6736C5.931 38.4587 5.519 39.5586 5.504 40.1172C5.49 40.6758 4.431 40.9825 3.151 40.7997C1.434 40.5539 0.912 40.9012 1.162 42.123C1.348 43.0341 1.95 43.6404 2.5 43.4718C3.05 43.3022 3.381 42.8015 3.236 42.3587C3.09 41.9159 3.878 42.0459 4.986 42.6481C7.609 44.0741 7.552 44.3473 4 47.382C1.275 49.7108 1 50.5101 1 56.092C1 60.7537 1.423 62.5625 2.75 63.5863C4.836 65.194 13 65.4641 13 63.9245C13 63.3334 12.573 63.117 12.05 63.4451C11.528 63.7731 10.593 63.0784 9.973 61.9013C9.352 60.7242 8.092 58.8687 7.172 57.7769C6.253 56.6861 5.651 55.5171 5.835 55.1779C6.02 54.8397 5.661 54.2435 5.038 53.8525C4.257 53.362 4.445 52.6967 5.645 51.7075C7.127 50.4847 7.259 50.4837 6.537 51.7004C5.959 52.6754 6.061 52.8937 6.862 52.391C7.506 51.9868 7.793 51.2627 7.5 50.7802C7.206 50.2988 7.964 49.1948 9.184 48.3275C10.741 47.2195 11.606 47.0864 12.089 47.8806C12.467 48.5022 13.248 48.7145 13.824 48.3529C14.539 47.904 14.586 48.7053 13.972 50.8818C13.003 54.3126 14.964 60.9375 16.949 60.9375C17.527 60.9375 18 61.8516 18 62.9688C18 64.9035 18.667 65 32 65C43.565 65 46 64.7441 46 63.5273C46 62.7169 46.609 61.6891 47.354 61.2422C50.684 59.2445 52.031 52.6033 49.919 48.5966C48.336 45.5914 49.657 45.0216 52.318 47.5607C53.589 48.7734 55.327 49.7656 56.18 49.7656C57.032 49.7656 58.895 50.697 60.32 51.8345C63.174 54.1145 62.94 56.875 59.893 56.875C58.456 56.875 58 57.6093 58 59.9219C58 61.9531 57.5 62.9688 56.5 62.9688C55.675 62.9688 55 63.4512 55 64.0402C55 64.6841 56.893 64.9878 59.75 64.802L64.5 64.4922L64.797 57.5839C65.059 51.4851 64.835 50.4634 62.888 48.8617C60.612 46.9899 60.982 44.6875 63.559 44.6875C64.674 44.6875 65 43.1052 65 37.6868C65 30.0899 64.53 29.4531 58.918 29.4531C55.807 29.4531 55.267 30.3337 57.183 32.2796C57.834 32.9408 58.022 33.8315 57.602 34.2591C57.181 34.6866 56.311 34.317 55.668 33.4374C53.525 30.5063 49.584 28.4588 47.999 29.4541C47.184 29.966 45.5 30.1255 44.258 29.8086C42.995 29.4866 42 29.6999 42 30.292C42 32.7305 44.053 36.5625 45.359 36.5625C46.133 36.5625 47.038 37.5913 47.37 38.8477C48.398 42.7466 48.032 44.3026 46.71 41.6498C46.017 40.2584 44.561 38.9573 43.475 38.7583C42.389 38.5592 41.098 38.0098 40.606 37.5365C40.112 37.0612 40.784 36.9495 42.106 37.2866C44.423 37.8777 44.444 37.832 42.75 35.88C41.788 34.7709 41 33.3988 41 32.8301C41 32.2613 40.282 30.3337 39.403 28.5462C38.367 26.4367 38.058 24.3313 38.523 22.5499C38.917 21.0397 39.419 17.807 39.639 15.3664C40.026 11.0744 39.954 10.9444 37.48 11.4248C35.854 11.7396 35.063 11.507 35.312 10.7849C35.527 10.1603 36.629 9.67992 37.762 9.71953C39.724 9.78656 39.743 9.68195 38.161 7.51156L36.5 5.2325L33.353 8.29969C30.531 11.051 30.108 11.1881 29.25 9.63016C28.139 7.61414 24.525 8.31695 23.615 10.726C23.146 11.9671 23.415 12.0341 25.13 11.1008C26.471 10.3726 27.559 10.3177 28.181 10.9495C28.802 11.5802 28.25 12.158 26.636 12.5704C23.151 13.458 23.61 16.708 27.741 20.3917C30.386 22.75 30.918 23.8438 30.413 25.8873C30.067 27.2898 29.212 28.4375 28.513 28.4375C26.446 28.4375 24.639 33.9808 25.916 36.4041C27.236 38.9076 27.326 42.3313 26.093 43.1052C25.595 43.419 25.42 42.767 25.706 41.6569C25.992 40.5478 25.942 38.8903 25.597 37.9752C25.09 36.6356 24.525 36.9779 22.699 39.7302C19.718 44.2223 17 44.8338 17 41.013C17 38.4089 17.098 38.3409 18.348 40.0786C19.09 41.1084 20.215 41.6254 20.848 41.2283C22.262 40.3406 22.377 37.5781 21 37.5781C20.45 37.5781 20 38.1113 20 38.7634C20 39.4144 19.742 39.6855 19.426 39.3656C19.111 39.0447 19.471 37.4837 20.228 35.8952C20.984 34.3068 21.442 32.0257 21.245 30.8262C20.857 28.4588 17.74 27.0766 16.236 28.6041C15.66 29.1891 14.346 29.1068 12.796 28.3898C10.478 27.3173 10.272 26.6591 10.092 19.7397C9.984 15.6203 10.373 11.3466 10.955 10.2416C11.537 9.13656 12.109 7.0657 12.225 5.63977C12.366 3.91016 13.029 3.04688 14.218 3.04688C15.198 3.04688 16 3.50391 16 4.0625C16 5.22742 19.96 5.4732 20.077 4.31641C20.119 3.89695 20.304 2.75438 20.488 1.77734C20.789 0.181797 19.812 0 10.912 0H1V5.69461ZM22.812 1.23094C24.646 3.09359 30.466 3.68875 34.5 2.4243C36.7 1.7357 38.275 1.10195 38 1.01562C35.791 0.328047 34 0.314844 34 0.987188C34 2.39586 30.015 2.91484 28.732 1.67273C27.25 0.238672 21.405 -0.198047 22.812 1.23094ZM43.835 0.787109C44.57 1.31727 45.132 2.04242 45.085 2.39891C44.81 4.48602 45.238 7.41508 45.662 6.34766C46.615 3.95078 48.997 5.00398 49.106 7.87109L49.213 10.6641L50.299 7.87109C51.275 5.36453 51.879 5.07812 56.193 5.07812H61V8.57289C61 12.3693 62.423 14.1629 63.395 11.5903C63.728 10.7108 64 8.42766 64 6.51828V3.04688L54.25 2.92703C47.612 2.84477 45.457 2.55937 47.5 2.03125C49.15 1.60469 49.825 1.19539 49 1.12227C48.175 1.04813 46.375 0.726172 45 0.40625C43.265 0.00203125 42.909 0.118828 43.835 0.787109ZM9.693 6.83617C9.439 7.82437 9.215 7.26172 9.195 5.58594C9.175 3.91016 9.382 3.10172 9.656 3.7893C9.93 4.47687 9.947 5.84797 9.693 6.83617ZM17.603 10.3259C17.886 10.791 17.641 11.1719 17.059 11.1719C16.477 11.1719 16 11.6563 16 12.2474C16 12.8385 16.416 13.062 16.924 12.743C17.433 12.4241 18.079 12.9685 18.359 13.9527C18.77 15.3887 18.839 15.342 18.71 13.7109C18.622 12.5937 18.856 11.1841 19.231 10.5798C19.606 9.97445 19.277 9.47883 18.5 9.47883C17.723 9.47883 17.32 9.85969 17.603 10.3259ZM42.524 10.5188C42.236 11.437 41.789 12.873 41.531 13.7109C41.274 14.5488 41.49 15.2344 42.012 15.2344C43.131 15.2344 44.513 10.338 43.644 9.45547C43.316 9.12234 42.811 9.6007 42.524 10.5188ZM47.931 12.4414C47.523 13.9445 47.334 18.4377 47.722 17.4048C48.161 16.2358 48.394 16.2358 49.215 17.4048C49.916 18.4011 49.989 18.2193 49.475 16.7578C49.083 15.6406 48.74 14.1558 48.714 13.457C48.673 12.3683 48.139 11.6746 47.931 12.4414ZM1.525 19.2562C0.677 20.6497 1.428 21.6958 2.905 21.1798C3.511 20.9686 3.588 20.2516 3.093 19.4421C2.468 18.4204 2.063 18.3727 1.525 19.2562ZM14.543 20.2424C14.226 20.7624 14.35 21.4277 14.817 21.7212C15.284 22.0147 15.667 21.5891 15.667 20.7756C15.667 19.0633 15.351 18.914 14.543 20.2424ZM17.564 20.6101C17.94 21.6115 18.499 22.1752 18.807 21.8623C19.115 21.5505 18.808 20.7309 18.124 20.0413C17.136 19.046 17.022 19.1628 17.564 20.6101ZM46 20.4222C46 20.8548 46.457 21.4957 47.016 21.8461C47.575 22.1975 47.714 23.0242 47.324 23.6834C46.935 24.3435 47.427 24.2135 48.418 23.397C49.505 22.4991 49.777 21.7608 49.103 21.5323C48.49 21.3251 48.196 20.8132 48.45 20.3948C48.704 19.9773 48.257 19.6351 47.456 19.6351C46.655 19.6351 46 19.9895 46 20.4222ZM50 25.8385C50 26.6439 50.408 27.558 50.907 27.8708C51.405 28.1846 51.578 27.5255 51.29 26.4073C50.679 24.0358 50 23.7362 50 25.8385ZM53.543 28.3674C53.226 28.8874 53.378 29.5699 53.879 29.8848C54.38 30.1996 55.048 29.7741 55.364 28.9392C55.986 27.2939 54.483 26.8216 53.543 28.3674ZM61.345 32.0359C61.019 32.8981 60.538 33.3856 60.276 33.1195C60.014 32.8534 60.096 32.1476 60.459 31.5524C61.445 29.9315 62.021 30.2463 61.345 32.0359ZM40 33.5156C40 34.0742 39.802 34.5312 39.559 34.5312C39.316 34.5312 38.84 34.0742 38.5 33.5156C38.16 32.957 38.359 32.5 38.941 32.5C39.523 32.5 40 32.957 40 33.5156ZM60 35.5469C60 36.1055 59.523 36.5625 58.941 36.5625C58.359 36.5625 58.16 36.1055 58.5 35.5469C58.84 34.9883 59.316 34.5312 59.559 34.5312C59.802 34.5312 60 34.9883 60 35.5469ZM63.662 42.9102C63.385 43.6089 63.158 43.0371 63.158 41.6406C63.158 40.2441 63.385 39.6734 63.662 40.3711C63.94 41.0698 63.94 42.2124 63.662 42.9102ZM29.564 46.8366C29.138 51.3317 27 54.8955 27 51.1113C27 47.5099 28.209 42.6562 29.105 42.6562C29.576 42.6562 29.782 44.5372 29.564 46.8366ZM41.5 43.6719C41.84 44.2305 41.367 44.6875 40.448 44.6875C39.097 44.6875 39.206 45.0389 41.016 46.5278C43.863 48.8688 42.994 52.8125 39.633 52.8125C34.995 52.8125 33.511 48.231 37 44.6875C39.212 42.4409 40.565 42.1352 41.5 43.6719ZM34.607 45.2786C34.273 46.1622 34 47.9903 34 49.3411C34 50.6919 33.55 51.7969 33 51.7969C32.45 51.7969 32 50.4258 32 48.75C32 47.0742 31.523 45.7031 30.941 45.7031C30.359 45.7031 30.16 45.2461 30.5 44.6875C30.84 44.1289 32.04 43.6719 33.166 43.6719C34.623 43.6719 35.039 44.136 34.607 45.2786ZM26 47.1433C26 51.4414 25.137 52.4814 21.962 52.0081C18.614 51.5084 18.512 51.2373 20.25 47.4368C21.921 43.7826 26 43.5744 26 47.1433ZM46.992 46.6923C48.18 47.4551 48.23 47.907 47.242 48.9105C45.538 50.6411 45.685 51.5643 47.75 52.1127C48.712 52.3677 48.038 52.6297 46.25 52.6947C42.579 52.8277 42.283 52.2529 44.655 49.592C46.195 47.8634 46.195 47.7344 44.655 47.7344C43.745 47.7344 43 47.2773 43 46.7188C43 45.4452 45.029 45.432 46.992 46.6923ZM37.736 48.3417C36.934 49.1552 37.983 51.7969 39.107 51.7969C39.598 51.7969 40 50.8828 40 49.7656C40 47.7862 38.939 47.1189 37.736 48.3417ZM21 49.7656C21 50.3242 21.45 50.7812 22 50.7812C22.55 50.7812 23 50.3242 23 49.7656C23 49.207 22.55 48.75 22 48.75C21.45 48.75 21 49.207 21 49.7656ZM52 50.7812C52 51.3398 52.477 51.7969 53.059 51.7969C53.641 51.7969 53.84 51.3398 53.5 50.7812C53.16 50.2227 52.684 49.7656 52.441 49.7656C52.198 49.7656 52 50.2227 52 50.7812ZM6.543 54.7737C6.226 55.2937 6.425 56.0056 6.984 56.357C7.543 56.7074 8 56.2819 8 55.4115C8 53.627 7.4 53.365 6.543 54.7737ZM57 54.6274C57 55.0672 58.007 55.5039 59.237 55.5984C60.996 55.7324 61.156 55.5648 59.987 54.8143C58.159 53.6402 57 53.5681 57 54.6274ZM10.598 57.9637C10.906 62.4843 12 62.9555 12 58.568C12 56.5195 11.637 54.8438 11.193 54.8438C10.749 54.8438 10.481 56.2473 10.598 57.9637ZM53 56.8466C53 59.5288 54.661 60.3302 55.276 57.9445C55.565 56.8202 55.189 55.7609 54.389 55.4491C53.502 55.1038 53 55.6085 53 56.8466ZM50.051 60.9375C50.02 63.2684 51.644 65.3433 52.888 64.5623C53.5 64.1784 53.948 63.0916 53.884 62.1471C53.792 60.7892 53.665 60.843 53.273 62.4041C52.815 64.2332 52.678 64.1946 51.425 61.8963C50.626 60.4317 50.063 60.0387 50.051 60.9375ZM14 63.9844C14 64.543 14.45 65 15 65C15.55 65 16 64.543 16 63.9844C16 63.4258 15.55 62.9688 15 62.9688C14.45 62.9688 14 63.4258 14 63.9844ZM47.5 63.9844C47.16 64.543 47.61 65 48.5 65C49.39 65 49.84 64.543 49.5 63.9844C49.16 63.4258 48.71 62.9688 48.5 62.9688C48.29 62.9688 47.84 63.4258 47.5 63.9844Z" fill="#344D51"/>
<path fill-rule="evenodd" clip-rule="evenodd" d="M1 5.69461C1 10.4863 1.252 11.2907 2.593 10.7687C3.469 10.4274 5.332 9.85563 6.733 9.49813L9.28 8.84914L8.76 17.6434C8.437 23.1156 8.628 26.6805 9.264 27.0796C9.95 27.5102 10.122 23.6559 9.786 15.3847L9.286 3.04688H14.536C18.28 3.04688 19.951 2.61016 20.362 1.52344C20.85 0.231563 19.419 0 10.969 0H1V5.69461ZM44.475 0.975C44.829 1.55594 46.291 2.03125 47.726 2.03125C50.86 2.03125 50.498 1.54477 46.666 0.610391C44.808 0.156406 44.054 0.282344 44.475 0.975ZM33.133 8.77906C31.434 10.6173 30.46 11.0297 29.683 10.2405C28.097 8.62977 26.555 8.89586 27.904 10.5473C28.821 11.6685 28.544 12.0839 26.536 12.5958C23.116 13.4672 23.699 16.8096 27.892 20.3643C30.529 22.6007 30.987 23.5676 30.444 25.7634C30.081 27.234 29.212 28.4375 28.513 28.4375C26.446 28.4375 24.639 33.9808 25.916 36.4041C27.236 38.9076 27.326 42.3313 26.093 43.1052C25.595 43.419 25.42 42.767 25.706 41.6569C25.992 40.5478 25.942 38.8903 25.597 37.9752C25.09 36.6356 24.525 36.9779 22.699 39.7302C21.451 41.6112 19.658 43.3012 18.715 43.485C16.163 43.9847 16.507 39.3697 19.282 35.879C20.538 34.2997 21.413 32.0257 21.226 30.8262C20.854 28.4294 17.736 27.0806 16.192 28.6488C15.556 29.2947 14.392 29.2348 12.857 28.4751C10.825 27.4706 10.728 27.498 12.156 28.6782C14.079 30.2656 12.894 33.5156 10.391 33.5156C9.561 33.5156 9.13 33.9229 9.432 34.4205C9.735 34.9172 8.823 36.0963 7.405 37.0409C5.987 37.9844 5.095 39.0284 5.422 39.3616C5.75 39.6937 5.002 41.1287 3.759 42.5506C2.446 44.0517 2.25 44.5484 3.292 43.7348C4.597 42.7162 5.384 42.64 6.186 43.4545C6.988 44.2691 6.432 45.304 4.144 47.2601C1.257 49.727 1 50.4481 1 56.092C1 63.2318 2.37 64.9167 8.219 64.9675L11.938 65L7.909 59.1602L3.88 53.3203L7.557 49.8977C10.219 47.4185 11.446 46.8244 12.005 47.7425C12.429 48.4392 13.248 48.7145 13.824 48.3529C14.536 47.906 14.592 48.685 13.998 50.7904C12.994 54.342 14.377 59.4618 16.57 60.3159C17.356 60.6227 18 61.8018 18 62.9373C18 64.9127 18.595 65 32 65C41.558 65 46 64.6435 46 63.8767C46 63.2592 47.125 61.3966 48.5 59.737C51.164 56.5205 51.735 52.0427 49.919 48.5966C48.324 45.5701 49.664 45.0287 52.367 47.6074C53.664 48.8455 55.184 49.723 55.743 49.5584C57.578 49.0161 62.97 53.7418 62.36 55.3566C62.044 56.1915 61.159 56.875 60.393 56.875C59.627 56.875 59 57.6875 59 58.6798C59 59.673 58.28 61.5296 57.4 62.8063C55.799 65.1259 55.8 65.127 60.15 64.8091L64.5 64.4922L64.797 57.5839C65.059 51.4851 64.835 50.4634 62.888 48.8617C60.522 46.9158 61.01 44.6977 63.809 44.6723C65.099 44.6601 65.188 44.4559 64.184 43.809C63.459 43.3418 62.718 42.3211 62.536 41.5391C61.508 37.1201 60.689 35.7317 59.406 36.2314C58.224 36.6925 58.229 36.3452 59.439 33.9777C60.225 32.438 61.461 30.7978 62.184 30.3316C63.024 29.7913 62.143 29.4785 59.75 29.4684C55.861 29.4521 55.158 30.223 57.183 32.2796C59.659 34.7943 56.847 34.7638 54.24 32.2481C52.039 30.1245 50.566 29.6217 46.75 29.6898C44.138 29.7365 42 29.9538 42 30.1722C42 31.3016 45.095 36.4264 45.956 36.725C46.505 36.9149 47.226 38.6699 47.558 40.625C48.143 44.0771 48.122 44.1066 46.805 41.6498C46.06 40.2584 44.561 38.9573 43.475 38.7583C42.389 38.5592 41.098 38.0098 40.606 37.5365C40.112 37.0612 40.784 36.9495 42.106 37.2866C44.374 37.8645 44.414 37.7945 42.88 35.9602C41.99 34.8948 41.013 33.3379 40.709 32.5C40.284 31.3239 40.14 31.395 40.079 32.8138C40.036 33.8244 39.663 34.4388 39.25 34.1788C38.335 33.603 38.44 21.4723 39.413 15.3583C40.109 10.9809 40.08 10.92 37.52 11.4166C35.861 11.7386 35.062 11.5101 35.312 10.7849C35.527 10.1603 36.67 9.685 37.852 9.72867C39.872 9.80484 39.902 9.6982 38.346 7.95133C36.266 5.61844 36.018 5.65703 33.133 8.77906ZM42 12.2474C42 13.3971 42.45 14.0563 43 13.7109C43.55 13.3656 44 12.4252 44 11.6198C44 10.8144 43.55 10.1562 43 10.1562C42.45 10.1562 42 11.0977 42 12.2474ZM1.525 19.2562C0.677 20.6497 1.428 21.6958 2.905 21.1798C3.511 20.9686 3.588 20.2516 3.093 19.4421C2.468 18.4204 2.063 18.3727 1.525 19.2562ZM1 26.4062C1 26.9648 1.45 27.4219 2 27.4219C2.55 27.4219 3 28.8204 3 30.5287C3 32.237 2.646 33.4141 2.214 33.1419C1.782 32.8707 1.429 33.5298 1.429 34.6054C1.429 36.6752 2.291 36.9007 5.427 35.6535C7.163 34.9619 7.186 34.8217 5.662 34.2276C4.332 33.7086 4.078 32.693 4.476 29.4795C4.918 25.9015 4.733 25.3906 2.991 25.3906C1.896 25.3906 1 25.8477 1 26.4062ZM19.607 39.1848C18.668 41.6691 18.872 41.9971 20.5 40.625C22.162 39.2234 22.49 37.5781 21.107 37.5781C20.616 37.5781 19.941 38.3013 19.607 39.1848ZM29.564 46.8366C29.138 51.3317 27 54.8955 27 51.1113C27 47.5099 28.209 42.6562 29.105 42.6562C29.576 42.6562 29.782 44.5372 29.564 46.8366ZM41.5 43.6719C41.84 44.2305 41.367 44.6875 40.448 44.6875C39.097 44.6875 39.206 45.0389 41.016 46.5278C43.863 48.8688 42.994 52.8125 39.633 52.8125C34.995 52.8125 33.511 48.231 37 44.6875C39.212 42.4409 40.565 42.1352 41.5 43.6719ZM34.607 45.2786C34.273 46.1622 34 47.9903 34 49.3411C34 50.6919 33.55 51.7969 33 51.7969C32.45 51.7969 32 50.4258 32 48.75C32 47.0742 31.523 45.7031 30.941 45.7031C30.359 45.7031 30.16 45.2461 30.5 44.6875C30.84 44.1289 32.04 43.6719 33.166 43.6719C34.623 43.6719 35.039 44.136 34.607 45.2786ZM26 47.1433C26 51.4414 25.137 52.4814 21.962 52.0081C18.614 51.5084 18.512 51.2373 20.25 47.4368C21.921 43.7826 26 43.5744 26 47.1433ZM46.992 46.6923C48.18 47.4551 48.23 47.907 47.242 48.9105C45.538 50.6411 45.685 51.5643 47.75 52.1127C48.712 52.3677 48.038 52.6297 46.25 52.6947C42.579 52.8277 42.283 52.2529 44.655 49.592C46.195 47.8634 46.195 47.7344 44.655 47.7344C43.745 47.7344 43 47.2773 43 46.7188C43 45.4452 45.029 45.432 46.992 46.6923ZM37.736 48.3417C36.934 49.1552 37.983 51.7969 39.107 51.7969C39.598 51.7969 40 50.8828 40 49.7656C40 47.7862 38.939 47.1189 37.736 48.3417ZM21 49.7656C21 50.3242 21.45 50.7812 22 50.7812C22.55 50.7812 23 50.3242 23 49.7656C23 49.207 22.55 48.75 22 48.75C21.45 48.75 21 49.207 21 49.7656ZM58.733 54.9697C59.412 55.6644 60.219 55.9762 60.526 55.6634C60.834 55.3505 60.279 54.7828 59.293 54.4009C57.868 53.8505 57.753 53.9663 58.733 54.9697ZM54.158 57.8906C54.158 59.2871 54.385 59.8589 54.662 59.1602C54.94 58.4624 54.94 57.3198 54.662 56.6211C54.385 55.9234 54.158 56.4941 54.158 57.8906Z" fill="#C75B10"/>
<path fill-rule="evenodd" clip-rule="evenodd" d="M1 5.69461C1 10.4863 1.252 11.2907 2.593 10.7687C3.469 10.4274 5.332 9.85563 6.733 9.49813L9.28 8.84914L8.76 17.6434C8.437 23.1156 8.628 26.6805 9.264 27.0796C9.95 27.5102 10.122 23.6559 9.786 15.3847L9.286 3.04688H14.536C18.28 3.04688 19.951 2.61016 20.362 1.52344C20.85 0.231563 19.419 0 10.969 0H1V5.69461ZM44.475 0.975C44.829 1.55594 46.291 2.03125 47.726 2.03125C50.86 2.03125 50.498 1.54477 46.666 0.610391C44.808 0.156406 44.054 0.282344 44.475 0.975ZM33.133 8.77906C31.434 10.6173 30.46 11.0297 29.683 10.2405C28.033 8.56477 26.582 8.92938 28 10.6641C28.941 11.8158 28.954 12.1875 28.051 12.1875C27.394 12.1875 26.182 12.873 25.357 13.7109C24.532 14.5488 24.249 15.2344 24.729 15.2344C25.208 15.2344 26.14 14.6859 26.8 14.0156C27.654 13.1483 28 13.129 28 13.9476C28 14.5803 27.059 15.4009 25.91 15.7716C23.941 16.4054 24.027 16.639 27.38 19.758C30.388 22.556 30.875 23.598 30.517 26.4692C30.285 28.338 30.549 30.4241 31.104 31.1035C31.856 32.0237 31.605 32.2055 30.126 31.8124C28.933 31.4955 28.353 30.7155 28.676 29.8604C29.708 27.1294 27.234 28.4598 26.129 31.2305C25.273 33.3775 25.34 34.9629 26.418 38.0859C27.355 40.8007 27.493 42.5506 26.833 43.3621C26.291 44.0294 26.038 45.629 26.272 46.9168C26.647 48.9816 26.789 48.8688 27.474 45.957C27.901 44.1411 28.692 42.6562 29.232 42.6562C29.772 42.6562 29.914 43.4566 29.548 44.4336C28.997 45.9022 29.109 45.9784 30.191 44.8734C31.271 43.7694 31.162 43.2819 29.573 42.0905C28.513 41.2963 27.871 40.4178 28.146 40.1385C28.421 39.8592 29.606 40.5397 30.781 41.6518C31.955 42.7629 33.498 43.6648 34.208 43.6566C35.236 43.6434 35.229 43.4667 34.172 42.7862C33.214 42.1687 33.971 41.3644 36.895 39.8958C39.122 38.7766 40.688 37.5995 40.374 37.2805C40.059 36.9616 40.859 36.9698 42.151 37.2988C44.374 37.8645 44.413 37.7924 42.88 35.9602C41.99 34.8948 41.013 33.3379 40.709 32.5C40.239 31.2 40.146 31.2122 40.079 32.5843C40.036 33.4689 39.345 34.193 38.544 34.193C37.743 34.193 37.372 33.7269 37.719 33.1561C38.065 32.5863 38.436 29.3495 38.543 25.9624C38.649 22.5753 38.963 18.5108 39.24 16.9295C39.59 14.9266 39.273 13.8714 38.194 13.4509C36.895 12.9452 36.956 12.7105 38.573 11.9955C40.116 11.313 39.963 11.2176 37.8 11.5152C36.263 11.7264 34.894 11.3405 34.622 10.6194C34.298 9.76219 35.082 9.41891 37.051 9.55703C39.794 9.75 39.866 9.65859 38.324 7.92797C36.268 5.62047 36.014 5.66211 33.133 8.77906ZM42 11.6797C42 12.5176 42.436 13.2031 42.969 13.2031C43.501 13.2031 43.678 12.5176 43.362 11.6797C43.045 10.8418 42.609 10.1562 42.393 10.1562C42.177 10.1562 42 10.8418 42 11.6797ZM1.525 19.2562C0.677 20.6497 1.428 21.6958 2.905 21.1798C3.511 20.9686 3.588 20.2516 3.093 19.4421C2.468 18.4204 2.063 18.3727 1.525 19.2562ZM35 23.8672C33.708 25.2637 32.255 26.4062 31.77 26.4062C30.937 26.4062 36.022 21.4287 36.924 21.3606C37.158 21.3423 36.292 22.4707 35 23.8672ZM1 26.4062C1 26.9648 1.45 27.4219 2 27.4219C2.55 27.4219 3 28.8204 3 30.5287C3 32.237 2.646 33.4141 2.214 33.1419C1.782 32.8707 1.429 33.5298 1.429 34.6054C1.429 36.4061 3.911 37.5294 4.07 35.8008C4.906 26.713 4.757 25.3906 2.896 25.3906C1.853 25.3906 1 25.8477 1 26.4062ZM12.234 28.7361C13.188 29.5202 13.638 30.5327 13.234 30.9857C12.831 31.4387 13.063 31.4813 13.75 31.0791C15.479 30.0686 15.337 29.6908 12.75 28.4172C10.731 27.4239 10.678 27.4564 12.234 28.7361ZM16.564 29.1555C16.022 30.6028 16.136 30.7196 17.124 29.7243C17.808 29.0347 18.115 28.2151 17.807 27.9033C17.499 27.5905 16.94 28.1541 16.564 29.1555ZM19 29.2591C19 29.7111 19.632 30.9593 20.405 32.0328C21.72 33.8589 21.777 33.8051 21.289 31.2112C20.823 28.7381 19 27.1832 19 29.2591ZM42 30.1336C42 31.7535 45.266 36.5158 46.043 36.0283C46.569 35.6972 47 35.1985 47 34.9192C47 34.6399 46.55 34.6937 46 35.0391C44.551 35.9491 44.77 33.9503 46.25 32.7549C46.938 32.1994 48.256 31.8703 49.181 32.0227C50.105 32.175 51.068 31.7535 51.321 31.0852C51.636 30.2514 50.247 29.8431 46.89 29.7842C44.2 29.7365 42 29.8939 42 30.1336ZM56 30.4088C56 30.9349 56.45 31.6469 57 31.9922C58.491 32.9276 58.208 34.5312 56.552 34.5312C55.369 34.5312 55.301 35.1041 56.176 37.6553C56.914 39.8054 57.571 40.4513 58.282 39.7292C58.993 39.0071 58.946 38.2281 58.132 37.2318C57.202 36.0933 57.275 35.6566 58.474 35.1894C59.314 34.8623 60 33.9178 60 33.0901C60 32.2623 60.788 31.1198 61.75 30.55C63.165 29.7131 62.783 29.509 59.75 29.4836C57.688 29.4673 56 29.8827 56 30.4088ZM11 33.3328C10.175 33.7127 9.5 35.0106 9.5 36.2172C9.5 38.7217 10.921 40.693 11.152 38.5095C11.483 35.3813 11.58 34.9954 12.335 33.7695C13.202 32.3629 13.147 32.3456 11 33.3328ZM17 35.9369C17 36.9149 16.283 37.3212 15 37.0703C13.735 36.8225 13 37.2257 13 38.1662C13 38.9837 11.889 40.167 10.531 40.7956C9.174 41.4233 8.34 42.442 8.678 43.0584C9.017 43.6749 8.687 43.6089 7.947 42.9102C7.206 42.2124 5.929 41.6406 5.109 41.6406C3.983 41.6406 4.084 41.987 5.517 43.0513C7.337 44.4031 7.282 44.5778 4.209 47.2042C1.281 49.7057 1 50.4593 1 55.7923C1 62.7412 2.79 65 8.295 65H11.933L7.389 58.3984C4.89 54.7676 3.378 51.7969 4.028 51.7969C5.865 51.7969 10.936 47.0844 10.176 46.084C9.804 45.5934 10.557 46.2495 11.85 47.5434C13.358 49.0527 14.012 50.6248 13.676 51.9309C12.997 54.5675 14.734 59.6009 16.57 60.3159C17.356 60.6227 18 61.8018 18 62.9373C18 64.9127 18.595 65 32 65C41.558 65 46 64.6435 46 63.8767C46 63.2592 47.125 61.3966 48.5 59.737C50.229 57.6499 50.976 55.5689 50.921 52.9882C50.878 50.9366 50.594 49.9434 50.291 50.7812C49.058 54.1856 46.62 55.8594 42.892 55.8594C38.57 55.8594 33.787 53.9835 34.62 52.6145C34.934 52.0985 35.773 52.2001 36.541 52.847C37.291 53.4788 38.713 53.7824 39.702 53.5224C41.189 53.1304 41.132 53.0278 39.372 52.9303C36.583 52.7759 34.631 50.2938 35.288 47.7395C35.577 46.6192 35.354 45.7031 34.793 45.7031C34.229 45.7031 33.97 47.0641 34.213 48.75C34.63 51.6364 34.466 51.802 31.077 51.8984C27.916 51.9878 27.791 52.0833 30 52.7252C32.215 53.367 31.987 53.5458 28 54.2872C19.811 55.8096 15.556 54.5299 14.761 50.3039C14.215 47.4043 15.141 46.9838 17.018 49.2802C18.133 50.6441 18.451 50.5781 19.73 48.7246C21.397 46.3084 20.771 43.6719 18.531 43.6719C16.778 43.6719 16.497 40.43 18.003 37.573C18.673 36.3015 18.673 35.4616 18.003 35.0411C17.451 34.6948 17 35.098 17 35.9369ZM60.079 37.1546C60.127 38.3378 60.364 38.5785 60.683 37.7691C60.972 37.0358 60.936 36.1593 60.604 35.8221C60.272 35.4849 60.036 36.0841 60.079 37.1546ZM6 38.0859C5.315 38.9238 4.923 39.6439 5.128 39.6876C8.767 40.4462 9.058 40.3965 8.064 39.1808C7.489 38.4759 7.313 37.5984 7.675 37.2308C8.037 36.8631 8.088 36.5625 7.789 36.5625C7.49 36.5625 6.685 37.248 6 38.0859ZM23.658 38.0341C23.287 39.0163 23.582 39.3189 24.545 38.9431C25.339 38.6344 25.74 37.9722 25.435 37.4715C24.669 36.2121 24.303 36.3279 23.658 38.0341ZM47.741 37.3242C47.534 37.7437 47.444 39.6855 47.541 41.6406C47.638 43.5957 47.218 45.5782 46.609 46.0454C45.967 46.537 46.541 46.6588 47.973 46.3348C49.673 45.9499 51.156 46.4527 52.719 47.9436C53.969 49.1359 55.292 49.8083 55.658 49.4355C56.024 49.0638 57.713 49.8286 59.412 51.1357C64.253 54.861 67.312 52.5921 62.75 48.6596C60.675 46.8711 60.63 46.6172 62.178 45.3913C63.28 44.5189 63.56 43.5764 62.994 42.6461C62.52 41.8671 62.307 40.9419 62.522 40.5884C62.737 40.236 62.276 39.9476 61.499 39.9476C60.722 39.9476 59.865 40.5336 59.594 41.2506C59.267 42.1149 59.673 42.3495 60.801 41.9473C62.127 41.4741 62.245 41.6223 61.337 42.6217C60.641 43.3875 59.638 43.5612 58.837 43.0534C58.102 42.5872 56.833 42.1038 56.018 41.9788C55.203 41.8539 54.375 41.2608 54.179 40.6626C53.196 37.6665 48.72 35.3458 47.741 37.3242ZM20.5 38.5938C20.84 39.1523 21.316 39.6094 21.559 39.6094C21.802 39.6094 22 39.1523 22 38.5938C22 38.0352 21.523 37.5781 20.941 37.5781C20.359 37.5781 20.16 38.0352 20.5 38.5938ZM41 39.718C41 40.3366 40.38 40.6006 39.622 40.3051C37.935 39.648 35.972 41.4842 36.079 43.6211C36.132 44.6763 36.325 44.7748 36.664 43.9197C36.943 43.2179 37.652 42.9457 38.24 43.3144C38.872 43.7115 39.017 43.5063 38.595 42.8137C38.181 42.1322 38.491 41.6406 39.334 41.6406C40.133 41.6406 41.045 42.3262 41.362 43.1641C41.733 44.1482 41.338 44.6875 40.246 44.6875C38.913 44.6875 39.043 45.0348 40.864 46.3298C42.406 47.4266 43.001 48.6383 42.656 49.9779C42.152 51.933 42.191 51.936 44.18 50.113C45.927 48.5113 45.989 48.1945 44.61 47.9141C42.5 47.4835 42.562 46.0708 44.75 44.7383C46.375 43.748 46.338 43.5327 44.234 41.7188C42.193 39.9598 42.143 39.718 43.734 39.2966C45.083 38.9401 44.969 38.802 43.25 38.7116C42.013 38.6466 41 39.0995 41 39.718ZM22.16 41.8844C20.435 43.6363 20.75 44.6875 23 44.6875C24.1 44.6875 25 44.0294 25 43.224C25 41.1734 23.539 40.4838 22.16 41.8844ZM37.603 48.5804C37.32 49.0466 37.743 49.4274 38.544 49.4274C39.345 49.4274 40 49.0466 40 48.5804C40 48.1152 39.577 47.7344 39.059 47.7344C38.541 47.7344 37.886 48.1152 37.603 48.5804ZM47.2 48.9531C45.497 50.6827 45.714 51.7999 47.75 51.7816C49.126 51.7695 49.207 51.5775 48.13 50.8848C47.024 50.1729 47.12 49.79 48.63 48.8993C49.659 48.293 50.027 47.7821 49.45 47.7648C48.873 47.7486 47.86 48.2828 47.2 48.9531ZM21 49.7656C21 50.3242 21.477 50.7812 22.059 50.7812C22.641 50.7812 22.84 50.3242 22.5 49.7656C22.16 49.207 21.684 48.75 21.441 48.75C21.198 48.75 21 49.207 21 49.7656ZM25 51.7969C25 52.3555 25.477 52.8125 26.059 52.8125C26.641 52.8125 26.84 52.3555 26.5 51.7969C26.16 51.2383 25.684 50.7812 25.441 50.7812C25.198 50.7812 25 51.2383 25 51.7969ZM43.75 53.4848C44.438 53.7672 45.563 53.7672 46.25 53.4848C46.938 53.2035 46.375 52.973 45 52.973C43.625 52.973 43.063 53.2035 43.75 53.4848ZM58.733 54.9697C59.412 55.6644 60.219 55.9762 60.526 55.6634C60.834 55.3505 60.279 54.7828 59.293 54.4009C57.868 53.8505 57.753 53.9663 58.733 54.9697ZM62.362 55.3516C62.045 56.1895 61.159 56.875 60.393 56.875C59.627 56.875 59 57.6875 59 58.6798C59 59.673 58.28 61.5296 57.4 62.8063C55.799 65.1259 55.8 65.127 60.15 64.8091L64.5 64.4922L64.802 59.1602C65.094 54.0211 63.691 51.8324 62.362 55.3516ZM54.158 57.8906C54.158 59.2871 54.385 59.8589 54.662 59.1602C54.94 58.4624 54.94 57.3198 54.662 56.6211C54.385 55.9234 54.158 56.4941 54.158 57.8906Z" fill="#B7836E"/>
<path fill-rule="evenodd" clip-rule="evenodd" d="M42 11.6797C42 12.5176 42.436 13.2031 42.969 13.2031C43.501 13.2031 43.678 12.5176 43.362 11.6797C43.045 10.8418 42.609 10.1562 42.393 10.1562C42.177 10.1562 42 10.8418 42 11.6797ZM26.813 12.8812C27.534 13.1747 28.397 13.1381 28.729 12.8009C29.061 12.4638 28.471 12.2241 27.417 12.2677C26.252 12.3165 26.015 12.5572 26.813 12.8812ZM30.638 24.6553C29.919 27.4473 30.119 27.5356 32.294 25.3855C33.786 23.9098 33.845 23.5168 32.643 23.0476C31.732 22.6931 30.99 23.2873 30.638 24.6553ZM19 29.2591C19 29.7111 19.632 30.9593 20.405 32.0328C21.72 33.8589 21.777 33.8051 21.289 31.2112C20.823 28.7381 19 27.1832 19 29.2591ZM26.129 31.2305C25.267 33.3907 25.343 34.9436 26.464 38.0859C27.26 40.3203 27.932 41.5513 27.956 40.821C27.99 39.7932 28.492 39.844 30.18 41.0455C32.165 42.4572 32.645 42.4166 35.55 40.5935C37.427 39.4154 39.925 38.7471 41.62 38.9695C43.204 39.1767 43.825 39.133 43 38.872C40.389 38.0443 39.601 36.6478 42.106 37.2866C44.374 37.8645 44.414 37.7945 42.88 35.9602C41.99 34.8948 41.013 33.3379 40.709 32.5C40.234 31.1868 40.147 31.1959 40.079 32.564C39.952 35.1173 31.858 35.1457 29.59 32.6005C28.608 31.4986 28.1 30.1112 28.461 29.5171C28.822 28.923 28.696 28.4375 28.18 28.4375C27.665 28.4375 26.741 29.6948 26.129 31.2305ZM42 30.1498C42 30.3804 42.687 31.918 43.526 33.5664C45.078 36.6153 46.371 37.7112 45.408 35.1609C45.117 34.3911 46.013 32.8534 47.401 31.7454L49.923 29.7304H45.962C43.783 29.7304 42 29.9193 42 30.1498ZM17 35.9369C17 36.9149 16.283 37.3212 15 37.0703C13.735 36.8225 13 37.2257 13 38.1662C13 38.9837 11.893 40.1649 10.541 40.7905C8.401 41.7808 8.234 42.2073 9.253 44.07C9.898 45.2471 10.292 46.668 10.129 47.2266C9.966 47.7852 10.149 47.9213 10.536 47.5292C11.754 46.2912 14.239 49.7443 13.683 51.9025C12.998 54.5634 14.725 59.5979 16.57 60.3159C17.356 60.6227 18 61.8018 18 62.9373C18 64.9127 18.595 65 32 65C41.558 65 46 64.6435 46 63.8767C46 63.2592 47.125 61.3966 48.5 59.737C50.218 57.6631 50.98 55.5527 50.937 52.9882C50.886 50.0043 50.708 49.6712 50.048 51.3246C48.53 55.1291 46.396 56.1173 41.274 55.3871C36.685 54.732 29.11 54.4863 22.24 54.7706C14.096 55.1068 11.715 47.7009 18.94 44.5047C20.268 43.9177 20.24 43.8039 18.75 43.743C16.783 43.6627 16.411 40.5935 18.003 37.573C18.673 36.3015 18.673 35.4616 18.003 35.0411C17.451 34.6948 17 35.098 17 35.9369ZM60.079 37.1546C60.127 38.3378 60.364 38.5785 60.683 37.7691C60.972 37.0358 60.936 36.1593 60.604 35.8221C60.272 35.4849 60.036 36.0841 60.079 37.1546ZM6.074 37.9955C5.172 39.0995 5.201 39.6033 6.201 40.1893C6.916 40.6077 7.166 40.5762 6.759 40.1192C6.351 39.6622 6.519 38.675 7.131 37.9255C7.744 37.1759 8.02 36.5625 7.745 36.5625C7.47 36.5625 6.718 37.2074 6.074 37.9955ZM23.658 38.0341C23.287 39.0163 23.582 39.3189 24.545 38.9431C25.339 38.6344 25.74 37.9722 25.435 37.4715C24.669 36.2121 24.303 36.3279 23.658 38.0341ZM47.741 37.3242C47.432 37.9498 47.508 41.5848 47.923 46.017C47.965 46.4689 48.483 46.5349 49.074 46.1642C49.665 45.7935 51.17 46.4648 52.419 47.6572C55.053 50.1698 57.269 49.663 58.827 46.1916C59.976 43.6292 59.201 42.4663 56.018 41.9788C55.203 41.8539 54.375 41.2608 54.179 40.6626C53.196 37.6665 48.72 35.3458 47.741 37.3242ZM20.5 38.5938C20.84 39.1523 21.316 39.6094 21.559 39.6094C21.802 39.6094 22 39.1523 22 38.5938C22 38.0352 21.523 37.5781 20.941 37.5781C20.359 37.5781 20.16 38.0352 20.5 38.5938ZM29.813 52.4905C30.534 52.7841 31.397 52.7475 31.729 52.4103C32.061 52.0731 31.471 51.8334 30.417 51.8771C29.252 51.9259 29.015 52.1666 29.813 52.4905Z" fill="#8D3511"/>
</g>
<defs>
<clipPath id="clip0_1_2">
<rect width="65" height="65" rx="32.5" fill="white"/>
</clipPath>
</defs>
</svg>
