<svg width="66" height="66" viewBox="0 0 66 66" fill="none" xmlns="http://www.w3.org/2000/svg">
<g clip-path="url(#clip0_1_2)">
<path fill-rule="evenodd" clip-rule="evenodd" d="M1 33V65H33H65V33V1H33H1V33Z" fill="#BA9FA8"/>
<path fill-rule="evenodd" clip-rule="evenodd" d="M4 7C4 10.3 4.337 13.037 4.75 13.083C5.162 13.129 6.446 13.274 7.602 13.405C10.851 13.774 12.716 16.061 12.121 18.947C11.597 21.493 11.594 21.492 11.042 18.525C10.575 16.012 9.975 15.509 7.18 15.282L3.871 15.014L4.185 24.757C4.437 32.536 4.802 34.527 6 34.635C6.825 34.709 8.063 34.821 8.75 34.885C9.438 34.948 10 35.505 10 36.122C10 36.898 9.536 36.86 8.5 36C7.256 34.968 7 35.08 7 36.655C7 37.7 6.299 39.555 5.443 40.777C4.098 42.697 4.087 43 5.36 43C6.17 43 7.06 42.438 7.338 41.75C7.693 40.871 7.866 40.849 7.921 41.679C7.964 42.327 7.346 43.511 6.548 44.31C5.749 45.108 5.384 46.05 5.736 46.403C6.088 46.755 5.279 46.921 3.938 46.772C1.525 46.503 1.497 46.597 1.231 55.818L0.962006 65.137L3.731 64.818C6.331 64.519 6.481 64.241 6.183 60.25C5.926 56.816 6.186 56 7.54 56C8.66 56 9.012 55.473 8.603 54.407C7.161 50.65 6.91 48.174 7.908 47.557C8.57 47.148 8.786 47.582 8.473 48.698C8.196 49.689 8.631 49.15 9.44 47.5C10.248 45.85 10.93 43.588 10.955 42.473C10.98 41.357 11.756 39.332 12.681 37.973L14.362 35.5L11.931 37.5L9.5 39.5L11.344 37.317C12.45 36.009 13.817 35.376 14.758 35.737C15.795 36.135 16.083 35.943 15.605 35.17C14.875 33.989 18.105 33.438 19.22 34.553C20.477 35.81 16.205 48.676 13.595 51.492C11.998 53.216 11.07 55.161 11.346 56.213C11.607 57.213 11.385 57.738 10.843 57.403C10.239 57.03 10.128 58.167 10.55 60.414C11.148 63.6 11.018 63.944 9.45 63.342C8.231 62.875 7.9 63.028 8.395 63.83C8.793 64.474 10.104 64.999 11.309 64.998C13.015 64.996 13.521 64.38 13.595 62.215C13.704 59.047 20.644 48 22.525 48C23.208 48 24.002 47.099 24.29 45.999C24.578 44.898 24.405 44.249 23.907 44.558C23.408 44.866 23 44.39 23 43.5C23 42.61 23.422 42.143 23.939 42.462C24.455 42.781 25.321 42.248 25.864 41.278C26.789 39.625 27.042 39.655 29.877 41.751C32.343 43.574 33.386 43.804 35.516 42.994C38.91 41.703 42.465 41.739 39.25 43.031C38.013 43.529 37 44.223 37 44.575C37 44.926 37.717 44.939 38.593 44.603C39.653 44.196 40.359 44.657 40.706 45.985C40.993 47.081 41.621 47.734 42.102 47.437C42.583 47.139 42.718 47.572 42.401 48.397C42.074 49.25 42.941 51.102 44.409 52.686C46.097 54.506 47.213 57.126 47.626 60.236L48.258 65H56.629H65V41.385V17.77L62.552 19.374C60.929 20.438 59.885 20.622 59.452 19.922C59.093 19.342 58.957 18.761 59.15 18.631C59.342 18.501 60.688 17.653 62.139 16.747C64.566 15.232 64.787 14.53 64.886 8.049L64.993 1H39.566H14.139L13.706 3.25L13.272 5.5L13.136 3.25C13.016 1.27 12.46 1 8.5 1H4V7ZM39.945 8.25C39.975 8.662 39.663 8.947 39.25 8.882C36.756 8.488 34.928 9.266 33.919 11.152C32.938 12.984 33.007 13.211 34.384 12.683C36.024 12.054 36.193 12.417 36.392 17C36.471 18.84 37.042 19.485 38.552 19.442C39.783 19.407 40.654 20.056 40.73 21.065C40.888 23.162 35.192 28.733 32.5 29.114C29.819 29.493 24.33 26.485 22.93 23.869C22.272 22.64 22.222 22.019 22.81 22.383C24.501 23.427 27 21.905 27 19.83C27 18.566 26.381 17.937 25.25 18.052C21.928 18.39 21 17.994 21.03 16.25C21.058 14.647 21.142 14.639 22.028 16.157C23.44 18.576 27.259 17.391 26.433 14.79C25.89 13.078 26.069 12.966 27.84 13.914C30.931 15.569 32.883 15.268 32.347 13.22C32.091 12.242 32.431 10.104 33.101 8.47C33.772 6.837 34.215 4.875 34.085 4.111C33.934 3.225 34.941 3.586 36.869 5.111C38.53 6.425 39.914 7.837 39.945 8.25ZM12.026 10.007L11.205 13.5L11.102 10.417C11.046 8.721 11.3 7.033 11.667 6.667C12.792 5.541 12.881 6.367 12.026 10.007ZM22.85 10C23.756 12.599 23.659 13 22.121 13C20.718 13 20.439 12.372 20.787 10C21.029 8.35 21.357 7 21.516 7C21.674 7 22.275 8.35 22.85 10ZM59 15.118C59 15.668 58.55 15.84 58 15.5C57.45 15.16 57 14.432 57 13.882C57 13.332 57.45 13.16 58 13.5C58.55 13.84 59 14.568 59 15.118ZM31 24C31 24.55 31.675 25 32.5 25C33.325 25 34 24.55 34 24C34 23.45 33.325 23 32.5 23C31.675 23 31 23.45 31 24ZM41.706 30.25C41.467 31.488 41.272 30.475 41.272 28C41.272 25.525 41.467 24.512 41.706 25.75C41.944 26.988 41.944 29.012 41.706 30.25ZM10.658 32.675C9.626 33.707 8.099 31.906 8.693 30.359C9.233 28.95 9.399 28.961 10.241 30.466C10.759 31.392 10.947 32.386 10.658 32.675ZM26.985 30.75C26.976 31.163 26.533 32.175 26 33C25.216 34.213 25.028 34.069 25.015 32.25C25.007 31.012 25.45 30 26 30C26.55 30 26.993 30.337 26.985 30.75ZM30.446 34.663C28.679 35.955 28.68 36 30.476 36C31.497 36 32.122 36.211 31.864 36.469C31.606 36.727 29.667 36.658 27.555 36.315L23.714 35.692L27.357 34.239C29.361 33.44 31.036 32.272 31.079 31.643C31.122 31.014 31.409 31.136 31.717 31.913C32.024 32.69 31.452 33.927 30.446 34.663ZM4.729 36.604C4.328 37.005 4.014 38.271 4.03 39.417C4.058 41.34 4.141 41.363 5.101 39.712C6.22 37.79 5.934 35.4 4.729 36.604ZM9.788 42.137C9.538 42.886 9.085 42.432 8.731 41.08C8.296 39.417 8.426 39.026 9.168 39.768C9.75 40.35 10.028 41.415 9.788 42.137ZM27 42.393C27 42.609 27.698 43.054 28.552 43.382C29.442 43.723 29.843 43.555 29.493 42.989C28.906 42.038 27 41.583 27 42.393ZM56.827 44.341C57.393 47.278 56.082 51 54.481 51C53.539 51 53 50.018 53 48.3C53 46.2 52.733 45.867 51.8 46.8C49.381 49.219 48.916 47.913 51.174 45.039C53.717 41.802 56.277 41.486 56.827 44.341ZM14.667 44.667C14.3 45.033 14 45.798 14 46.367C14 46.993 14.466 46.934 15.183 46.217C15.834 45.566 16.134 44.801 15.85 44.517C15.566 44.233 15.033 44.3 14.667 44.667ZM29 52.666C29 53.667 32.863 54.616 34.5 54.018C36.092 53.436 35.734 53.197 32.75 52.844C30.688 52.601 29 52.52 29 52.666ZM55.635 53.262C58.842 54.675 59.896 57 57.329 57C55.538 57 52 54.241 52 52.845C52 51.741 52.246 51.769 55.635 53.262ZM21.491 55.276C20.946 56.61 20.44 56.78 19.453 55.961C18.457 55.135 17.856 55.401 16.966 57.063C16.038 58.797 16.076 59.433 17.147 60.112C19.182 61.402 23.764 61.171 24.338 59.75C24.615 59.063 24.885 59.4 24.936 60.5C25.015 62.164 25.193 62.248 26 61C26.533 60.175 26.976 60.01 26.985 60.633C27.006 62.224 30.608 62.992 31.916 61.684C32.646 60.954 33 60.941 33 61.646C33 62.222 34.688 62.721 36.75 62.755C38.813 62.79 42.002 63.149 43.838 63.552C46.949 64.235 47.153 64.123 46.838 61.893C46.652 60.577 45.825 59.439 45 59.365C44.175 59.291 43.05 59.126 42.5 58.997C41.95 58.868 41.091 58.84 40.592 58.934C40.092 59.029 39.311 58.519 38.857 57.803C38.179 56.734 38.028 56.735 38.015 57.809C38.007 58.529 37.642 58.897 37.205 58.626C36.767 58.356 34.01 57.861 31.078 57.525C23.578 56.668 23.571 56.666 22.857 55C22.316 53.737 22.1 53.781 21.491 55.276ZM57.807 61.526C57.499 61.834 56.94 61.279 56.564 60.293C56.022 58.868 56.136 58.753 57.124 59.733C57.808 60.412 58.115 61.219 57.807 61.526ZM42.5 61C42.84 61.55 42.641 62 42.059 62C41.477 62 41 61.55 41 61C41 60.45 41.198 60 41.441 60C41.684 60 42.16 60.45 42.5 61Z" fill="#649EE5"/>
<path fill-rule="evenodd" clip-rule="evenodd" d="M4 7C4 11.072 4.402 13.037 5.25 13.115C5.938 13.179 6.95 13.335 7.5 13.463C8.05 13.591 9.063 13.764 9.75 13.848C10.438 13.931 11 14.388 11 14.862C11 15.336 9.396 15.547 7.435 15.331L3.869 14.938L4.185 24.638C4.524 35.083 6.079 37.941 8.165 31.958C9.274 28.777 9.303 28.764 10.485 30.971C11.473 32.819 11.601 31.821 11.22 25.231C10.669 15.716 12.001 11.789 13.774 17.701C14.815 21.173 14.784 21.328 13.407 19.5C12.021 17.66 11.924 18.015 12.2 23.921C12.539 31.178 14.427 33.171 15.397 27.295C15.742 25.208 16.048 22.738 16.078 21.807C16.178 18.708 18.945 21.081 20.06 25.223C20.864 28.209 20.825 30.557 19.908 34.37C19.229 37.192 18.706 40.175 18.747 41C18.892 43.967 16.804 49.034 15.05 49.973C12.173 51.513 9.99 57.165 10.666 61.328C11.363 65.626 13.457 66.26 13.595 62.215C13.704 59.047 20.644 48 22.525 48C23.208 48 24.002 47.099 24.29 45.999C24.578 44.898 24.405 44.249 23.907 44.558C23.408 44.866 23 44.39 23 43.5C23 42.61 23.422 42.143 23.939 42.462C24.455 42.781 25.321 42.248 25.864 41.278C26.789 39.625 27.042 39.655 29.877 41.751C32.343 43.574 33.386 43.804 35.516 42.994C38.91 41.703 42.465 41.739 39.25 43.031C38.013 43.529 37 44.223 37 44.575C37 44.926 37.717 44.939 38.593 44.603C39.653 44.196 40.359 44.657 40.706 45.985C40.993 47.081 41.621 47.734 42.102 47.437C42.583 47.139 42.718 47.571 42.401 48.396C42.085 49.221 42.808 50.932 44.009 52.198C46.719 55.056 48 58.238 48 62.113V65.095L54.244 64.798L60.488 64.5L61.366 59.672C61.904 56.719 61.878 54.478 61.299 53.899C60.779 53.379 60.555 51.576 60.802 49.894L61.251 46.834L63.119 49.667C64.98 52.49 64.987 52.436 64.993 35.135L65 17.77L62.552 19.374C60.929 20.438 59.885 20.622 59.452 19.922C59.093 19.342 58.957 18.761 59.15 18.631C59.342 18.501 60.688 17.653 62.139 16.747C64.566 15.232 64.787 14.53 64.886 8.049L64.993 1H39.497H14L13.985 7.25C13.975 11.15 13.645 12.987 13.106 12.137C12.377 10.986 12.158 10.986 11.7 12.137C11.402 12.887 11.122 12.064 11.079 10.309C11.036 8.554 11.45 6.84 12 6.5C12.55 6.16 13 4.784 13 3.441C13 1.215 12.604 1 8.5 1H4V7ZM39.945 8.25C39.975 8.662 39.663 8.947 39.25 8.882C36.756 8.488 34.928 9.266 33.919 11.152C32.938 12.984 33.007 13.211 34.384 12.683C36.024 12.054 36.193 12.417 36.392 17C36.471 18.84 37.042 19.485 38.552 19.442C39.783 19.407 40.654 20.056 40.73 21.065C40.885 23.12 35.249 28.675 32.511 29.166C31.418 29.362 30.381 30.418 30.208 31.511C29.947 33.154 30.073 33.239 30.931 32C31.822 30.713 31.972 30.753 31.985 32.281C31.993 33.261 31.245 34.352 30.323 34.706C28.821 35.283 28.847 35.433 30.573 36.151C31.711 36.625 30.863 36.704 28.5 36.345C23.204 35.54 23.314 35.651 23.494 31.295C23.58 29.208 23.308 26.254 22.889 24.731C22.471 23.208 22.509 22.197 22.974 22.484C24.525 23.442 27 21.811 27 19.83C27 18.566 26.381 17.937 25.25 18.052C21.951 18.388 21 17.998 21 16.309C21 14.834 21.188 14.866 22.468 16.559C23.433 17.834 23.947 18.034 23.968 17.143C23.987 16.327 24.624 16.026 25.565 16.387C26.782 16.854 26.984 16.524 26.471 14.908C25.888 13.07 26.047 12.955 27.84 13.914C30.931 15.569 32.883 15.268 32.347 13.22C32.091 12.242 32.431 10.104 33.101 8.47C33.772 6.837 34.215 4.875 34.085 4.111C33.934 3.225 34.941 3.586 36.869 5.111C38.53 6.425 39.914 7.837 39.945 8.25ZM22.85 10C23.756 12.599 23.659 13 22.121 13C20.718 13 20.439 12.372 20.787 10C21.029 8.35 21.357 7 21.516 7C21.674 7 22.275 8.35 22.85 10ZM40 14C40 14.55 39.55 15 39 15C38.45 15 38 14.55 38 14C38 13.45 38.45 13 39 13C39.55 13 40 13.45 40 14ZM59.541 14.067C60.633 15.833 59.168 16.382 57.337 14.893C55.83 13.666 55.704 13.709 56.281 15.25C56.642 16.213 56.501 17 55.969 17C54.869 17 54.658 14.675 55.667 13.667C56.682 12.652 58.802 12.871 59.541 14.067ZM50.04 24.903C51.136 28.856 53.15 33.861 54.516 36.025C57.561 40.849 57.561 40.83 54.565 40.257C52.92 39.943 51.64 38.61 50.617 36.146C49.784 34.141 49.08 33.092 49.052 33.816C49.023 34.539 49.486 36.04 50.081 37.151C51.47 39.746 50.721 40.456 48.086 39.046C46.338 38.11 46 36.986 46 32.104C46 25.856 47.031 16.698 47.664 17.331C47.875 17.542 48.945 20.95 50.04 24.903ZM42.111 30.035C41.191 32.34 41.123 32.261 41.063 28.832C41.029 26.814 41.337 24.339 41.75 23.332C42.351 21.864 42.559 22.103 42.797 24.535C42.961 26.204 42.652 28.679 42.111 30.035ZM31 24C31 24.55 31.675 25 32.5 25C33.325 25 34 24.55 34 24C34 23.45 33.325 23 32.5 23C31.675 23 31 23.45 31 24ZM27.079 29.583C27.127 30.748 27.364 30.985 27.683 30.188C27.972 29.466 27.936 28.603 27.604 28.271C27.272 27.939 27.036 28.529 27.079 29.583ZM25.638 33.5C25.322 34.325 25.499 35 26.031 35C26.564 35 27 34.325 27 33.5C27 32.675 26.823 32 26.607 32C26.391 32 25.955 32.675 25.638 33.5ZM12.282 37.25C11.146 38.487 9.909 41.075 9.533 43C9.158 44.925 8.664 47.4 8.435 48.5C8.207 49.6 8.67 49.15 9.465 47.5C10.26 45.85 10.93 43.467 10.955 42.205C10.98 40.942 12.105 38.805 13.455 37.455C14.805 36.105 15.558 35 15.129 35C14.7 35 13.419 36.013 12.282 37.25ZM4.729 36.604C4.328 37.005 4.014 38.271 4.03 39.417C4.058 41.34 4.141 41.363 5.101 39.712C6.22 37.79 5.934 35.4 4.729 36.604ZM6.158 39.457C4.625 42.055 4.426 43 5.412 43C6.794 43 9.674 37.341 8.759 36.425C8.478 36.144 7.307 37.509 6.158 39.457ZM27 42.393C27 42.609 27.698 43.054 28.552 43.382C29.442 43.723 29.843 43.555 29.493 42.989C28.906 42.038 27 41.583 27 42.393ZM56.827 44.341C57.393 47.278 56.082 51 54.481 51C53.539 51 53 50.018 53 48.3C53 46.2 52.733 45.867 51.8 46.8C49.381 49.219 48.916 47.913 51.174 45.039C53.717 41.802 56.277 41.486 56.827 44.341ZM14.667 44.667C14.3 45.033 14 45.798 14 46.367C14 46.993 14.466 46.934 15.183 46.217C15.834 45.566 16.134 44.801 15.85 44.517C15.566 44.233 15.033 44.3 14.667 44.667ZM1.62 46.805C1.086 47.67 1.091 54 1.626 54C2.492 54 5.004 47.816 4.482 46.971C3.753 45.792 2.299 45.708 1.62 46.805ZM6.167 53.95C4.721 58.098 4.608 65.361 6.002 64.499C6.579 64.142 6.737 62.207 6.374 59.94C5.858 56.709 6.037 56 7.372 56C9.146 56 9.251 55.5 8.097 52.551C7.431 50.849 7.187 51.025 6.167 53.95ZM29 52.666C29 53.667 32.863 54.616 34.5 54.018C36.092 53.436 35.734 53.197 32.75 52.844C30.688 52.601 29 52.52 29 52.666ZM55.635 53.262C58.842 54.675 59.896 57 57.329 57C55.538 57 52 54.241 52 52.845C52 51.741 52.246 51.769 55.635 53.262ZM13.345 54.543C13.019 55.392 12.538 55.872 12.276 55.61C12.014 55.348 12.096 54.653 12.459 54.067C13.445 52.471 14.021 52.781 13.345 54.543ZM22.015 55.817C22.006 56.644 21.308 56.915 20.141 56.545C17.948 55.849 15.241 58.413 17.013 59.508C17.623 59.885 19.408 60.396 20.979 60.644C23.123 60.982 23.952 60.646 24.302 59.297C24.71 57.722 24.784 57.747 24.899 59.5C25.009 61.167 25.192 61.251 26 60C26.816 58.737 26.972 58.794 26.985 60.363C26.997 61.863 27.586 62.141 30 61.787C31.739 61.532 33.013 61.799 33.032 62.423C33.049 63.015 33.724 62.626 34.532 61.559C35.803 59.878 36 59.843 36 61.298C36 62.419 36.748 62.926 38.25 62.822C39.487 62.737 41.962 63.003 43.75 63.413C46.59 64.065 47 63.904 47 62.138C47 59.275 45.11 58.467 43.515 60.648C42.772 61.665 41.802 62.136 41.361 61.694C40.919 61.253 41.22 60.427 42.029 59.859C43.188 59.046 43.034 58.928 41.303 59.306C39.83 59.627 38.961 59.244 38.669 58.143C38.334 56.883 38.201 56.966 38.101 58.5C38.013 59.836 37.715 60.099 37.201 59.292C36.779 58.627 33.538 57.821 30 57.5C26.462 57.179 23.221 56.373 22.799 55.708C22.218 54.795 22.027 54.822 22.015 55.817ZM57.807 61.526C57.499 61.834 56.94 61.279 56.564 60.293C56.022 58.868 56.136 58.753 57.124 59.733C57.808 60.412 58.115 61.219 57.807 61.526Z" fill="#6A7FA7"/>
<path fill-rule="evenodd" clip-rule="evenodd" d="M4 7C4 11.072 4.402 13.037 5.25 13.115C5.938 13.179 6.95 13.335 7.5 13.463C8.05 13.591 9.063 13.764 9.75 13.848C10.438 13.931 11 14.388 11 14.862C11 15.336 9.396 15.547 7.435 15.331L3.869 14.938L4.185 24.638C4.523 35.059 6.078 37.942 8.152 31.994C8.965 29.663 9.492 29.169 10.116 30.154C10.97 31.501 11.585 19.716 11.098 11.354C10.964 9.073 11.338 6.909 11.928 6.545C12.518 6.18 13 4.784 13 3.441C13 1.215 12.604 1 8.5 1H4V7ZM16.383 8.75C16.669 13.013 16.924 16.864 16.951 17.309C16.978 17.754 17.419 17.859 17.931 17.543C18.443 17.226 19.187 17.494 19.585 18.138C20.063 18.912 19.873 19.04 19.025 18.515C18.211 18.013 17.889 18.167 18.145 18.936C18.368 19.604 18.829 20.004 19.17 19.825C19.511 19.646 20.672 20.298 21.75 21.274C24.094 23.395 27 22.596 27 19.83C27 18.566 26.381 17.937 25.25 18.052C21.974 18.386 21 18.002 21 16.378C21 15.17 21.329 15.028 22.284 15.82C22.997 16.412 24.151 16.524 24.882 16.073C26.507 15.068 25.995 11.83 24.111 11.203C23.268 10.922 22.996 11.185 23.42 11.87C23.844 12.557 23.379 13 22.232 13C20.706 13 20.43 12.428 20.787 10C21.242 6.895 22.45 6.071 23.349 8.25C23.633 8.938 23.594 7.925 23.264 6C22.718 2.82 22.815 2.625 24.331 3.872C25.417 4.765 26 4.852 26 4.122C26 2.021 27.611 2.991 28.701 5.75C29.782 8.486 29.788 8.481 29.894 4.698L30 0.895004L24.763 1.198C19.552 1.498 19.522 1.519 18.918 5.261C18.027 10.784 16.881 11.149 17.632 5.671C18.088 2.342 17.926 1 17.068 1C16.188 1 16.004 3.088 16.383 8.75ZM31 1.734C31 2.21 31.441 3.041 31.98 3.58C32.62 4.22 32.595 5.883 31.907 8.374C31.328 10.471 31.112 12.445 31.427 12.76C31.742 13.076 32 12.838 32 12.232C32 11.626 32.522 9.863 33.16 8.315C33.799 6.767 34.215 4.875 34.085 4.111C33.934 3.225 34.941 3.586 36.869 5.111C39.753 7.392 40.854 9.135 39.25 8.882C36.851 8.503 34.951 9.223 34.086 10.84C33.219 12.459 33.531 12.696 36.692 12.815C41.339 12.989 41.946 13.69 38.566 14.975C35.377 16.187 35.39 19.534 38.583 19.442C39.785 19.407 40.655 20.065 40.73 21.065C40.885 23.12 35.249 28.675 32.511 29.166C31.418 29.362 30.381 30.418 30.208 31.511C29.947 33.154 30.073 33.239 30.931 32C31.822 30.713 31.972 30.753 31.985 32.281C31.993 33.261 31.245 34.352 30.323 34.706C28.822 35.282 28.849 35.43 30.573 36.112C31.633 36.531 30.363 36.616 27.75 36.301C25.137 35.986 23.01 36.127 23.022 36.614C23.034 37.101 25.275 38.923 28.002 40.662C32.577 43.581 33.252 43.738 36.73 42.703C38.804 42.086 41.288 40.706 42.25 39.637C43.979 37.718 44 37.719 44 39.776C44 40.92 44.599 42.456 45.33 43.187C46.062 43.919 46.49 45.03 46.282 45.655C45.833 47.002 50.23 52 51.865 52C52.489 52 53 50.64 53 48.977C53 45.982 52.977 45.969 50.5 47.592C47.106 49.816 47.357 48.797 51.133 45.021C56.1 40.054 58.338 42.791 55.91 50.863C55.667 51.67 56.418 52.382 57.75 52.607C59.718 52.94 60 52.56 60 49.576C60 47.699 60.301 45.378 60.67 44.418C61.133 43.211 60.971 42.9 60.145 43.41C59.43 43.852 59.061 43.635 59.225 42.87C59.497 41.603 58.92 41.367 54.951 41.125C53.567 41.041 52.276 39.621 50.973 36.75C49.912 34.413 49.034 33.092 49.022 33.816C49.01 34.539 49.486 36.04 50.081 37.151C51.514 39.83 50.571 40.581 47.52 39.191C45.04 38.061 45.034 38.022 45.656 27.779C46 22.125 46.293 16.945 46.307 16.266C46.371 13.27 48.767 17.383 49.896 22.424C50.566 25.42 51.449 28.013 51.858 28.186C53.2 28.753 57.996 38.198 57.417 39.135C57.106 39.638 57.262 39.926 57.765 39.775C58.705 39.492 64 45.217 64 46.517C64 46.917 63.251 46.627 62.336 45.872C60.832 44.631 60.784 44.71 61.842 46.694C62.485 47.901 63.43 49.148 63.943 49.465C65.085 50.171 64.813 34.364 63.634 31.5C62.986 29.925 63.041 29.819 63.89 31C64.699 32.124 64.939 30.745 64.849 25.5C64.782 21.65 64.529 19.539 64.287 20.808C63.926 22.695 63.581 22.897 62.399 21.916C60.16 20.058 59.686 21.492 61.426 24.857C63.402 28.678 63.391 28.898 61.25 28.488C60.288 28.304 59.297 28.119 59.05 28.077C58.803 28.034 59.128 27.472 59.774 26.826C60.673 25.927 60.439 24.813 58.777 22.076C57.583 20.109 56.228 18.239 55.767 17.919C55.306 17.6 54.716 15.575 54.455 13.419C54.195 11.264 54.248 10.063 54.574 10.75C55.341 12.369 58.68 12.369 59.354 10.75C59.734 9.838 60.256 9.969 61.285 11.233C62.597 12.845 62.775 12.79 63.847 10.435C64.481 9.04401 65 6.352 65 4.453V1H59.5H54L53.868 4.75L53.737 8.5L53.118 5L52.5 1.5L45.668 1.202C39.269 0.924004 38.875 1.03 39.458 2.868C39.801 3.948 39.726 5.047 39.291 5.311C38.416 5.841 36.48 4.066 36.225 2.5C36.024 1.267 31 0.530005 31 1.734ZM21.683 5.188C21.364 5.985 21.127 5.748 21.079 4.583C21.036 3.529 21.272 2.939 21.604 3.271C21.936 3.603 21.972 4.466 21.683 5.188ZM45.211 9.189C44.545 9.855 44 11.183 44 12.141C44 13.099 43.663 14.09 43.25 14.345C42.837 14.6 42.466 12.355 42.424 9.356L42.348 3.903L44.385 5.941C45.98 7.535 46.159 8.241 45.211 9.189ZM13.878 17.199C14.325 18.408 15.255 19.585 15.945 19.815C16.75 20.083 16.585 19.296 15.484 17.616C13.392 14.423 12.793 14.267 13.878 17.199ZM44.051 28.816C43.473 29.009 43 30.903 43 33.024C43 35.146 42.614 37.121 42.141 37.413C40.583 38.376 41.065 25.607 42.799 20L44.5 14.5L44.801 21.483C44.984 25.739 44.692 28.603 44.051 28.816ZM13 20.941C13 21.459 13.445 22.157 13.989 22.493C14.555 22.843 14.723 22.442 14.382 21.552C13.717 19.82 13 19.503 13 20.941ZM20 21.882C20 22.432 20.45 23.16 21 23.5C21.55 23.84 22 23.668 22 23.118C22 22.568 21.55 21.84 21 21.5C20.45 21.16 20 21.332 20 21.882ZM31 24C31 24.55 31.675 25 32.5 25C33.325 25 34 24.55 34 24C34 23.45 33.325 23 32.5 23C31.675 23 31 23.45 31 24ZM60.021 32.273C61.922 35.698 63.504 39.562 63.537 40.86L63.596 43.219L61.693 40.869C59.585 38.265 55.642 30.737 54.564 27.256C53.214 22.896 56.484 25.902 60.021 32.273ZM27.079 29.583C27.127 30.748 27.364 30.985 27.683 30.188C27.972 29.466 27.936 28.603 27.604 28.271C27.272 27.939 27.036 28.529 27.079 29.583ZM59.739 35.453C61.218 37.902 62.589 39.744 62.786 39.547C63.207 39.126 58.193 31 57.512 31C57.258 31 58.259 33.004 59.739 35.453ZM25.638 33.5C25.322 34.325 25.499 35 26.031 35C26.564 35 27 34.325 27 33.5C27 32.675 26.823 32 26.607 32C26.391 32 25.955 32.675 25.638 33.5ZM12.282 37.25C11.146 38.487 9.909 41.075 9.533 43C9.158 44.925 8.664 47.4 8.435 48.5C8.207 49.6 8.67 49.15 9.465 47.5C10.26 45.85 10.93 43.467 10.955 42.205C10.98 40.942 12.105 38.805 13.455 37.455C14.805 36.105 15.558 35 15.129 35C14.7 35 13.419 36.013 12.282 37.25ZM19.704 35.669C18.988 36.828 20.657 39.676 21.537 38.796C21.893 38.441 21.754 37.383 21.23 36.447C20.706 35.51 20.019 35.16 19.704 35.669ZM4.729 36.604C4.328 37.005 4.014 38.271 4.03 39.417C4.058 41.34 4.141 41.363 5.101 39.712C6.22 37.79 5.934 35.4 4.729 36.604ZM6.158 39.457C4.625 42.055 4.426 43 5.412 43C6.794 43 9.674 37.341 8.759 36.425C8.478 36.144 7.307 37.509 6.158 39.457ZM21.933 42.75C21.26 44.813 20.213 46.831 19.605 47.235C18.997 47.639 19.738 47.976 21.25 47.985C22.762 47.993 24 47.523 24 46.941C24 46.359 23.474 46.207 22.83 46.605C22.031 47.099 21.874 46.771 22.334 45.571C23.517 42.49 24.235 39 23.686 39C23.394 39 22.605 40.688 21.933 42.75ZM27 42.393C27 42.609 27.698 43.054 28.552 43.382C29.442 43.723 29.843 43.555 29.493 42.989C28.906 42.038 27 41.583 27 42.393ZM37.537 43.939C37.218 44.456 37.866 44.81 38.978 44.727C40.09 44.643 41 44.22 41 43.787C41 42.681 38.24 42.803 37.537 43.939ZM14.667 44.667C14.3 45.033 14 45.798 14 46.367C14 46.993 14.466 46.934 15.183 46.217C15.834 45.566 16.134 44.801 15.85 44.517C15.566 44.233 15.033 44.3 14.667 44.667ZM41.638 45.5C41.322 46.325 41.499 47 42.031 47C42.564 47 43 46.325 43 45.5C43 44.675 42.823 44 42.607 44C42.391 44 41.955 44.675 41.638 45.5ZM43.5 47.39C42.95 48.043 42.362 49.199 42.194 49.958C41.938 51.11 42.177 51.103 43.636 49.919C44.597 49.139 45.068 49.026 44.683 49.669C44.297 50.313 44.548 51.444 45.241 52.185C46.718 53.763 49.59 59.534 50.499 62.75C50.935 64.292 51.9 65 53.567 65C55.593 65 56 64.508 56 62.056C56 60.299 54.971 57.98 53.449 56.306L50.897 53.5L51.519 57C52.025 59.853 51.485 59.226 48.596 53.61C44.417 45.483 44.756 45.897 43.5 47.39ZM1.89 47.25C1.556 48.012 1.291 54 1.591 54C2.072 54 5 48.294 5 47.359C5 46.951 4.324 47.491 3.498 48.559C2.245 50.177 2.097 50.209 2.605 48.75C2.94 47.788 2.941 47 2.607 47C2.273 47 1.951 47.112 1.89 47.25ZM18 49.642C18 50.179 17.288 51.491 16.418 52.559C15.108 54.167 14.929 54.205 15.375 52.782C15.671 51.837 15.532 50.829 15.066 50.541C13.934 49.841 11.227 54.088 10.536 57.646C10.005 60.383 10.034 60.369 11.241 57.322C11.933 55.574 12.866 53.783 13.312 53.343C13.759 52.902 13.647 53.799 13.062 55.336C12.478 56.873 12.052 59.113 12.116 60.315C12.224 62.349 12.267 62.362 12.736 60.5C13.013 59.4 14.611 56.588 16.288 54.252C17.965 51.915 19.036 49.703 18.668 49.335C18.301 48.967 18 49.106 18 49.642ZM6.167 53.95C4.721 58.098 4.608 65.361 6.002 64.499C6.579 64.142 6.737 62.207 6.374 59.94C5.858 56.709 6.037 56 7.372 56C9.146 56 9.251 55.5 8.097 52.551C7.431 50.849 7.187 51.025 6.167 53.95ZM17.667 56.667C16.449 57.885 16.978 60 18.5 60C19.333 60 20 59.111 20 58C20 56.008 18.934 55.399 17.667 56.667ZM21.158 59C21.158 60.375 21.385 60.938 21.662 60.25C21.94 59.563 21.94 58.438 21.662 57.75C21.385 57.063 21.158 57.625 21.158 59ZM23.07 59.25C23.137 61.397 23.18 61.408 24 59.5L24.859 57.5L25.009 59.5C25.091 60.601 25.385 60.938 25.662 60.25C25.94 59.563 26.606 59 27.142 59C27.679 59 27.84 59.45 27.5 60C27.16 60.55 27.696 61.069 28.691 61.152C29.686 61.236 31.175 61.364 32 61.437C32.825 61.51 33.837 61.104 34.25 60.535C34.738 59.862 35.368 60.024 36.054 61C36.926 62.242 37.053 62.156 36.79 60.5C36.54 58.924 35.695 58.497 32.807 58.488C30.791 58.481 28.81 58.143 28.404 57.738C27.999 57.332 26.617 57 25.333 57C23.559 57 23.017 57.539 23.07 59.25ZM38.116 59.25C38.052 60.763 38.188 62 38.418 62C38.648 62 39.452 62.236 40.204 62.525C41.086 62.863 41.571 62.323 41.571 61C41.571 59.795 41.067 59.144 40.348 59.42C39.676 59.678 38.924 59.127 38.679 58.195C38.421 57.218 38.183 57.665 38.116 59.25ZM32 59.441C32 59.684 31.55 60.16 31 60.5C30.45 60.84 30 60.641 30 60.059C30 59.477 30.45 59 31 59C31.55 59 32 59.198 32 59.441ZM43.62 60.548C42.837 62.589 43.658 64 45.629 64C46.61 64 47.027 63.24 46.82 61.828C46.423 59.136 44.463 58.351 43.62 60.548Z" fill="#3F67A2"/>
<path fill-rule="evenodd" clip-rule="evenodd" d="M4 7C4 11.072 4.402 13.037 5.25 13.115C5.938 13.179 6.95 13.335 7.5 13.463C8.05 13.591 9.063 13.764 9.75 13.848C10.438 13.931 11 14.388 11 14.862C11 15.336 9.396 15.547 7.435 15.331L3.869 14.938L4.185 24.638C4.523 35.059 6.078 37.942 8.152 31.994C8.965 29.663 9.492 29.169 10.116 30.154C10.97 31.501 11.585 19.716 11.098 11.354C10.964 9.073 11.338 6.909 11.928 6.545C12.518 6.18 13 4.784 13 3.441C13 1.215 12.604 1 8.5 1H4V7ZM32.628 4.75C32.283 6.813 31.771 9.625 31.489 11C31.208 12.375 31.272 12.825 31.632 12C33.708 7.244 34.296 5.354 34.085 4.111C33.934 3.225 34.941 3.586 36.869 5.111C39.753 7.392 40.854 9.135 39.25 8.882C36.805 8.496 34.94 9.243 34.009 10.983C33.02 12.83 33.223 12.939 36.974 12.578C41.503 12.142 42.334 13.542 38.427 15.028C35.357 16.195 35.475 19.531 38.583 19.442C39.785 19.407 40.655 20.065 40.73 21.065C40.885 23.12 35.249 28.675 32.511 29.166C31.418 29.362 30.381 30.418 30.208 31.511C29.947 33.154 30.073 33.239 30.931 32C31.822 30.713 31.972 30.753 31.985 32.281C31.993 33.261 31.245 34.352 30.323 34.706C28.822 35.282 28.849 35.43 30.573 36.112C31.633 36.531 30.363 36.616 27.75 36.301C25.137 35.986 23.01 36.127 23.022 36.614C23.034 37.101 25.253 38.908 27.952 40.63C32.5 43.53 33.158 43.68 36.93 42.673C40.695 41.668 41.006 41.321 41.08 38.043C41.173 33.888 41.642 25.099 42.251 16.096L42.684 9.691L38.4 5.346C36.044 2.956 33.922 1 33.686 1C33.449 1 32.973 2.688 32.628 4.75ZM56.079 2.583C56.127 3.748 56.364 3.985 56.683 3.188C56.972 2.466 56.936 1.603 56.604 1.271C56.272 0.939 56.036 1.529 56.079 2.583ZM60 5.393C60 8.355 60.484 9.972 61.485 10.356C63.354 11.073 65 8.128 65 4.066C65 1.462 64.623 1 62.5 1C60.213 1 60 1.374 60 5.393ZM20 7.376C20 8.748 19.552 11.049 19.003 12.491C17.38 16.761 21.871 23.754 25.373 22.41C27.619 21.548 27.514 17.822 25.25 18.052C22.204 18.362 21.229 18.04 20.651 16.534C20.205 15.371 20.718 15.194 23.133 15.677C25.882 16.226 26.144 16.062 25.838 13.971C25.652 12.698 24.875 11.451 24.111 11.199C23.268 10.921 22.996 11.185 23.42 11.87C23.848 12.563 23.362 13 22.164 13C20.447 13 20.306 12.575 21.001 9.495C21.442 7.541 21.395 5.744 20.896 5.436C20.403 5.131 20 6.004 20 7.376ZM47.181 11.781C47.006 16.16 47.101 16.36 48.496 14.559C50.35 12.166 50.426 9.598 48.685 8.154C47.634 7.281 47.333 8.008 47.181 11.781ZM61.015 22.136C60.98 23.607 63.751 27.916 64.348 27.318C65.488 26.179 65.078 22.834 63.888 23.569C63.277 23.947 62.384 23.636 61.904 22.878C61.423 22.12 61.024 21.786 61.015 22.136ZM31 24C31 24.55 31.675 25 32.5 25C33.325 25 34 24.55 34 24C34 23.45 33.325 23 32.5 23C31.675 23 31 23.45 31 24ZM27.079 29.583C27.127 30.748 27.364 30.985 27.683 30.188C27.972 29.466 27.936 28.603 27.604 28.271C27.272 27.939 27.036 28.529 27.079 29.583ZM60.501 29.998C60.162 30.547 61.031 32.91 62.433 35.248C65.236 39.925 65.938 38.18 63.551 32.468C62.02 28.803 61.5 28.382 60.501 29.998ZM25.638 33.5C25.322 34.325 25.499 35 26.031 35C26.564 35 27 34.325 27 33.5C27 32.675 26.823 32 26.607 32C26.391 32 25.955 32.675 25.638 33.5ZM49.313 34.5C49.566 35.6 50.123 37.355 50.551 38.4C51.232 40.063 50.998 40.216 48.664 39.631C46.35 39.05 46 39.268 46 41.29C46 42.57 46.674 44.491 47.498 45.559C48.958 47.451 49.059 47.429 51.531 44.656C53.015 42.991 54.675 42.045 55.533 42.374C57.232 43.026 57.47 47.254 55.965 50.066C55.339 51.235 55.307 52 55.883 52C56.407 52 57.548 52.273 58.418 52.607C59.717 53.106 60 52.403 60 48.678C60 43.75 58.166 41 54.88 41C53.538 41 52.252 39.635 50.878 36.75C49.764 34.413 49.06 33.4 49.313 34.5ZM12.282 37.25C11.146 38.487 9.909 41.075 9.533 43C9.158 44.925 8.664 47.4 8.435 48.5C8.207 49.6 8.67 49.15 9.465 47.5C10.26 45.85 10.93 43.467 10.955 42.205C10.98 40.942 12.105 38.805 13.455 37.455C14.805 36.105 15.558 35 15.129 35C14.7 35 13.419 36.013 12.282 37.25ZM4.729 36.604C4.328 37.005 4.014 38.271 4.03 39.417C4.058 41.34 4.141 41.363 5.101 39.712C6.22 37.79 5.934 35.4 4.729 36.604ZM6.158 39.457C4.625 42.055 4.426 43 5.412 43C6.794 43 9.674 37.341 8.759 36.425C8.478 36.144 7.307 37.509 6.158 39.457ZM21.655 43.5C20.185 47.813 20.202 48 22.061 48C23.127 48 24 47.523 24 46.941C24 46.359 23.474 46.207 22.83 46.605C22.031 47.099 21.874 46.771 22.334 45.571C23.503 42.525 24.237 39 23.702 39C23.419 39 22.498 41.025 21.655 43.5ZM27 42.393C27 42.609 27.698 43.054 28.552 43.382C29.442 43.723 29.843 43.555 29.493 42.989C28.906 42.038 27 41.583 27 42.393ZM37.537 43.939C37.218 44.456 37.866 44.81 38.978 44.727C40.09 44.643 41 44.22 41 43.787C41 42.681 38.24 42.803 37.537 43.939ZM14.667 44.667C14.3 45.033 14 45.798 14 46.367C14 46.993 14.466 46.934 15.183 46.217C15.834 45.566 16.134 44.801 15.85 44.517C15.566 44.233 15.033 44.3 14.667 44.667ZM41.638 45.5C41.322 46.325 41.499 47 42.031 47C42.564 47 43 46.325 43 45.5C43 44.675 42.823 44 42.607 44C42.391 44 41.955 44.675 41.638 45.5ZM50.733 47.405C48.767 48.896 49.358 52 51.607 52C52.488 52 53 50.898 53 49C53 45.572 53.077 45.626 50.733 47.405ZM2.6 50.1C1.613 51.771 1.041 53.374 1.329 53.662C1.617 53.95 2.594 52.752 3.5 51C5.64 46.861 4.932 46.153 2.6 50.1ZM42.333 49.333C42.333 50.067 42.89 50.667 43.571 50.667C44.252 50.667 44.579 50.067 44.298 49.333C44.016 48.6 43.459 48 43.06 48C42.66 48 42.333 48.6 42.333 49.333ZM12.66 52.396C11.797 53.714 10.842 56.076 10.539 57.646C10.236 59.216 10.262 59.825 10.597 59C10.931 58.175 12.052 55.813 13.087 53.75C15.218 49.501 15.003 48.82 12.66 52.396ZM6.167 53.95C4.721 58.098 4.608 65.361 6.002 64.499C6.579 64.142 6.737 62.207 6.374 59.94C5.858 56.709 6.037 56 7.372 56C9.146 56 9.251 55.5 8.097 52.551C7.431 50.849 7.187 51.025 6.167 53.95ZM29.507 58.989C29.157 59.555 29.558 59.723 30.448 59.382C32.18 58.717 32.497 58 31.059 58C30.541 58 29.843 58.445 29.507 58.989Z" fill="#2C4A60"/>
<path fill-rule="evenodd" clip-rule="evenodd" d="M4 7C4 11.072 4.402 13.037 5.25 13.115C5.938 13.179 6.95 13.335 7.5 13.463C8.05 13.591 9.063 13.764 9.75 13.848C10.438 13.931 11 14.388 11 14.862C11 15.336 9.396 15.547 7.435 15.331L3.869 14.938L4.185 24.638C4.523 35.059 6.078 37.942 8.152 31.994C8.965 29.663 9.492 29.169 10.116 30.154C10.97 31.501 11.585 19.716 11.098 11.354C10.964 9.073 11.338 6.909 11.928 6.545C12.518 6.18 13 4.784 13 3.441C13 1.215 12.604 1 8.5 1H4V7ZM32.628 4.75C32.283 6.813 31.771 9.625 31.489 11C31.208 12.375 31.272 12.825 31.632 12C33.731 7.191 34.294 5.342 34.066 4C33.894 2.989 34.738 3.316 36.652 5C38.215 6.375 39.645 7.838 39.83 8.25C40.015 8.662 40.633 9 41.204 9C41.774 9 40.386 7.2 38.119 5C35.852 2.8 33.831 1 33.627 1C33.423 1 32.973 2.688 32.628 4.75ZM19.727 8.771C19.436 10.822 18.843 13.4 18.411 14.5C17.709 16.289 17.806 16.353 19.337 15.107C20.278 14.342 20.865 13.532 20.641 13.307C20.417 13.083 20.584 11.345 21.012 9.445C21.441 7.544 21.447 5.776 21.025 5.515C20.603 5.255 20.019 6.72 19.727 8.771ZM47.639 8.694C47.288 9.046 47.014 10.946 47.032 12.917C47.062 16.284 47.152 16.383 48.532 14.559C49.339 13.491 50 11.83 50 10.868C50 8.941 48.643 7.691 47.639 8.694ZM33.938 11.116C33.082 12.715 33.092 13.136 33.978 12.841C34.623 12.626 35.078 12.062 34.99 11.587C34.901 11.112 35.43 10.343 36.165 9.877C37.111 9.277 37.146 9.026 36.285 9.015C35.617 9.007 34.561 9.952 33.938 11.116ZM23.606 12.416C23.941 13.287 24.653 14 25.19 14C26.505 14 25.682 11.727 24.187 11.229C23.456 10.985 23.233 11.443 23.606 12.416ZM41.332 12.577C40.999 13.444 39.631 14.57 38.291 15.08C35.338 16.202 35.56 19.529 38.583 19.442C39.785 19.407 40.655 20.065 40.73 21.065C40.885 23.12 35.249 28.675 32.511 29.166C31.418 29.362 30.381 30.418 30.208 31.511C29.947 33.154 30.073 33.239 30.931 32C31.822 30.713 31.972 30.753 31.985 32.281C31.993 33.261 31.245 34.352 30.323 34.706C28.822 35.282 28.849 35.43 30.573 36.112C31.633 36.531 30.363 36.616 27.75 36.301C25.137 35.986 23.01 36.127 23.022 36.614C23.034 37.101 25.253 38.908 27.952 40.63C32.5 43.53 33.158 43.68 36.93 42.673C40.695 41.668 41.006 41.321 41.08 38.043C41.157 34.613 41.464 28.729 42.193 16.75C42.555 10.797 42.366 9.882 41.332 12.577ZM19.549 16.92C19.232 17.434 19.992 19.041 21.239 20.491C23.814 23.486 27 23.09 27 19.776C27 18.253 26.512 17.894 24.982 18.294C23.873 18.585 22.326 18.184 21.546 17.403C20.747 16.604 19.875 16.393 19.549 16.92ZM31 24C31 24.55 31.675 25 32.5 25C33.325 25 34 24.55 34 24C34 23.45 33.325 23 32.5 23C31.675 23 31 23.45 31 24ZM27.079 29.583C27.127 30.748 27.364 30.985 27.683 30.188C27.972 29.466 27.936 28.603 27.604 28.271C27.272 27.939 27.036 28.529 27.079 29.583ZM25.638 33.5C25.322 34.325 25.499 35 26.031 35C26.564 35 27 34.325 27 33.5C27 32.675 26.823 32 26.607 32C26.391 32 25.955 32.675 25.638 33.5ZM49.313 34.5C49.566 35.6 50.123 37.355 50.551 38.4C51.232 40.063 50.998 40.216 48.664 39.631C46.35 39.05 46 39.268 46 41.29C46 42.57 46.674 44.491 47.498 45.559C48.958 47.451 49.059 47.429 51.531 44.656C53.015 42.991 54.675 42.045 55.533 42.374C57.232 43.026 57.47 47.254 55.965 50.066C55.339 51.235 55.307 52 55.883 52C56.407 52 57.548 52.273 58.418 52.607C59.717 53.106 60 52.403 60 48.678C60 43.75 58.166 41 54.88 41C53.538 41 52.252 39.635 50.878 36.75C49.764 34.413 49.06 33.4 49.313 34.5ZM12.282 37.25C11.146 38.487 9.909 41.075 9.533 43C9.158 44.925 8.664 47.4 8.435 48.5C8.207 49.6 8.67 49.15 9.465 47.5C10.26 45.85 10.93 43.467 10.955 42.205C10.98 40.942 12.105 38.805 13.455 37.455C14.805 36.105 15.558 35 15.129 35C14.7 35 13.419 36.013 12.282 37.25ZM4.729 36.604C4.328 37.005 4.014 38.271 4.03 39.417C4.058 41.34 4.141 41.363 5.101 39.712C6.22 37.79 5.934 35.4 4.729 36.604ZM6.158 39.457C4.625 42.055 4.426 43 5.412 43C6.794 43 9.674 37.341 8.759 36.425C8.478 36.144 7.307 37.509 6.158 39.457ZM21.655 43.5C20.185 47.813 20.202 48 22.061 48C23.127 48 24 47.523 24 46.941C24 46.359 23.474 46.207 22.83 46.605C22.031 47.099 21.874 46.771 22.334 45.571C23.503 42.525 24.237 39 23.702 39C23.419 39 22.498 41.025 21.655 43.5ZM27 42.393C27 42.609 27.698 43.054 28.552 43.382C29.442 43.723 29.843 43.555 29.493 42.989C28.906 42.038 27 41.583 27 42.393ZM37.537 43.939C37.218 44.456 37.866 44.81 38.978 44.727C40.09 44.643 41 44.22 41 43.787C41 42.681 38.24 42.803 37.537 43.939ZM14.667 44.667C14.3 45.033 14 45.798 14 46.367C14 46.993 14.466 46.934 15.183 46.217C15.834 45.566 16.134 44.801 15.85 44.517C15.566 44.233 15.033 44.3 14.667 44.667ZM41.638 45.5C41.322 46.325 41.499 47 42.031 47C42.564 47 43 46.325 43 45.5C43 44.675 42.823 44 42.607 44C42.391 44 41.955 44.675 41.638 45.5ZM50.733 47.405C48.767 48.896 49.358 52 51.607 52C52.488 52 53 50.898 53 49C53 45.572 53.077 45.626 50.733 47.405ZM2.6 50.1C1.613 51.771 1.041 53.374 1.329 53.662C1.617 53.95 2.594 52.752 3.5 51C5.64 46.861 4.932 46.153 2.6 50.1ZM42.333 49.333C42.333 50.067 42.89 50.667 43.571 50.667C44.252 50.667 44.579 50.067 44.298 49.333C44.016 48.6 43.459 48 43.06 48C42.66 48 42.333 48.6 42.333 49.333ZM12.66 52.396C11.797 53.714 10.842 56.076 10.539 57.646C10.236 59.216 10.262 59.825 10.597 59C10.931 58.175 12.052 55.813 13.087 53.75C15.218 49.501 15.003 48.82 12.66 52.396ZM6.167 53.95C4.721 58.098 4.608 65.361 6.002 64.499C6.579 64.142 6.737 62.207 6.374 59.94C5.858 56.709 6.037 56 7.372 56C9.146 56 9.251 55.5 8.097 52.551C7.431 50.849 7.187 51.025 6.167 53.95Z" fill="#C68894"/>
<path fill-rule="evenodd" clip-rule="evenodd" d="M4 7C4 11.072 4.402 13.037 5.25 13.115C5.938 13.179 6.95 13.335 7.5 13.463C8.05 13.591 9.063 13.764 9.75 13.848C10.438 13.931 11 14.388 11 14.862C11 15.336 9.396 15.547 7.435 15.331L3.869 14.938L4.185 24.638C4.523 35.059 6.078 37.942 8.152 31.994C8.965 29.663 9.492 29.169 10.116 30.154C10.97 31.501 11.585 19.716 11.098 11.354C10.964 9.073 11.338 6.909 11.928 6.545C12.518 6.18 13 4.784 13 3.441C13 1.215 12.604 0.999998 8.5 0.999998H4V7ZM33 1.393C33 1.609 33.698 2.054 34.552 2.382C35.442 2.723 35.843 2.555 35.493 1.989C34.906 1.038 33 0.582998 33 1.393ZM32.571 5.571C32.204 7.037 32.096 8.429 32.331 8.665C32.567 8.9 33.061 7.894 33.429 6.429C33.796 4.963 33.904 3.571 33.669 3.335C33.433 3.1 32.939 4.106 32.571 5.571ZM20.195 7.5C20.215 9.15 20.439 9.704 20.693 8.731C20.947 7.758 20.93 6.408 20.656 5.731C20.382 5.054 20.175 5.85 20.195 7.5ZM39 6.378C39 6.585 39.788 7.373 40.75 8.128C42.336 9.371 42.371 9.336 41.128 7.75C39.821 6.084 39 5.555 39 6.378ZM47.667 9.667C47.3 10.033 47.014 11.721 47.032 13.417C47.062 16.344 47.138 16.402 48.532 14.559C50.87 11.468 50.118 7.215 47.667 9.667ZM31.079 11.583C31.127 12.748 31.364 12.985 31.683 12.188C31.972 11.466 31.936 10.603 31.604 10.271C31.272 9.939 31.036 10.529 31.079 11.583ZM19.349 12.185C19.645 13.112 19.35 14.063 18.694 14.298C18.037 14.534 17.773 15.024 18.107 15.387C19.312 16.698 20.937 13.506 19.848 11.966C18.983 10.743 18.901 10.78 19.349 12.185ZM24.333 12.456C24.333 13.257 24.716 13.676 25.183 13.387C25.65 13.098 25.774 12.443 25.457 11.931C24.649 10.623 24.333 10.77 24.333 12.456ZM34 12.059C34 12.641 34.45 12.84 35 12.5C35.55 12.16 36 11.684 36 11.441C36 11.198 35.55 11 35 11C34.45 11 34 11.477 34 12.059ZM41.5 12C41.16 12.55 41.359 13 41.941 13C42.523 13 43 12.55 43 12C43 11.45 42.802 11 42.559 11C42.316 11 41.84 11.45 41.5 12ZM19.5 17C19.16 17.55 19.359 18 19.941 18C20.523 18 21 17.55 21 17C21 16.45 20.802 16 20.559 16C20.316 16 19.84 16.45 19.5 17ZM40.798 18.278C40.437 20.162 40.696 21 41.639 21C43.148 21 43.222 20.429 42.089 17.528C41.397 15.758 41.265 15.834 40.798 18.278ZM38 25.919C36.075 27.488 33.605 28.94 32.511 29.147C31.418 29.354 30.409 30.418 30.27 31.511C30.019 33.483 30.025 33.483 30.938 31.5C31.445 30.4 31.891 30.106 31.93 30.846C31.968 31.586 32.964 33.545 34.142 35.199C35.878 37.637 36.025 38.366 34.921 39.049C34.171 39.512 33.872 40.205 34.255 40.588C34.638 40.971 35.648 40.707 36.499 40.001C37.795 38.926 37.948 38.972 37.444 40.286C36.984 41.485 37.331 41.726 38.921 41.31C40.52 40.892 41.022 39.927 41.095 37.133C41.165 34.445 41.5 22.794 41.5 23.035C41.5 23.052 39.925 24.35 38 25.919ZM27.079 29.583C27.127 30.748 27.364 30.985 27.683 30.188C27.972 29.466 27.936 28.603 27.604 28.271C27.272 27.939 27.036 28.529 27.079 29.583ZM25.638 33.5C25.322 34.325 25.499 35 26.031 35C26.564 35 27 34.325 27 33.5C27 32.675 26.823 32 26.607 32C26.391 32 25.955 32.675 25.638 33.5ZM49.332 34.5C49.574 35.6 50.123 37.355 50.551 38.4C51.232 40.063 50.998 40.216 48.664 39.631C46.35 39.05 46 39.268 46 41.29C46 42.57 46.576 44.406 47.281 45.369C48.467 46.991 48.764 46.894 51.289 44.06C53.324 41.776 53.618 41 52.449 41C51.587 41 51.131 40.596 51.436 40.103C51.741 39.61 51.293 37.698 50.44 35.853C49.588 34.009 49.089 33.4 49.332 34.5ZM30.5 35C30.16 35.55 30.359 36 30.941 36C31.523 36 32 35.55 32 35C32 34.45 31.802 34 31.559 34C31.316 34 30.84 34.45 30.5 35ZM12.282 37.25C11.146 38.487 9.909 41.075 9.533 43C9.158 44.925 8.664 47.4 8.435 48.5C8.207 49.6 8.67 49.15 9.465 47.5C10.26 45.85 10.93 43.467 10.955 42.205C10.98 40.942 12.105 38.805 13.455 37.455C14.805 36.105 15.558 35 15.129 35C14.7 35 13.419 36.013 12.282 37.25ZM4.729 36.604C4.328 37.005 4.014 38.271 4.03 39.417C4.058 41.34 4.141 41.363 5.101 39.712C6.22 37.79 5.934 35.4 4.729 36.604ZM6.158 39.457C4.625 42.055 4.426 43 5.412 43C6.794 43 9.674 37.341 8.759 36.425C8.478 36.144 7.307 37.509 6.158 39.457ZM23 36.893C23 37.384 23.675 38.045 24.5 38.362C25.414 38.712 26 38.363 26 37.469C26 36.661 25.325 36 24.5 36C23.675 36 23 36.402 23 36.893ZM30.242 39.85C29.442 40.345 29.691 40.951 31.04 41.793C32.648 42.797 33 42.757 33 41.567C33 39.716 31.734 38.928 30.242 39.85ZM21.261 44.501C20.67 46.425 20.559 48 21.014 48C21.907 48 23.468 42.135 22.763 41.429C22.527 41.194 21.852 42.576 21.261 44.501ZM57.85 47C57.768 48.65 57.655 50.525 57.6 51.167C57.545 51.808 57.978 52.493 58.562 52.687C59.186 52.895 59.721 51.177 59.858 48.521C59.994 45.892 59.654 44 59.046 44C58.471 44 57.932 45.35 57.85 47ZM2.6 50.1C1.613 51.771 1.041 53.374 1.329 53.662C1.617 53.95 2.594 52.752 3.5 51C5.64 46.861 4.932 46.153 2.6 50.1ZM51.07 47.809C51.031 48.547 50.49 48.803 49.83 48.395C49.032 47.902 48.873 48.227 49.33 49.418C49.699 50.378 50 51.352 50 51.582C50 51.812 50.675 52 51.5 52C53.171 52 53.254 51.419 52 48.5C51.527 47.4 51.109 47.089 51.07 47.809ZM43 48.941C43 49.459 43.445 50.157 43.989 50.493C44.555 50.843 44.723 50.442 44.382 49.552C43.717 47.82 43 47.503 43 48.941ZM12.66 52.396C11.797 53.714 10.842 56.076 10.539 57.646C10.236 59.216 10.262 59.825 10.597 59C10.931 58.175 12.052 55.813 13.087 53.75C15.218 49.501 15.003 48.82 12.66 52.396ZM6.167 53.95C4.721 58.098 4.608 65.361 6.002 64.499C6.579 64.142 6.737 62.207 6.374 59.94C5.858 56.709 6.037 56 7.372 56C9.146 56 9.251 55.5 8.097 52.551C7.431 50.849 7.187 51.025 6.167 53.95Z" fill="#9F717E"/>
<path fill-rule="evenodd" clip-rule="evenodd" d="M4 7C4 11.072 4.402 13.037 5.25 13.115C5.938 13.179 6.95 13.335 7.5 13.463C8.05 13.591 9.063 13.764 9.75 13.848C10.438 13.931 11 14.388 11 14.862C11 15.336 9.396 15.547 7.435 15.331L3.869 14.938L4.185 24.638C4.523 35.059 6.078 37.942 8.152 31.994C8.965 29.663 9.492 29.169 10.116 30.154C10.97 31.501 11.585 19.716 11.098 11.354C10.964 9.073 11.338 6.909 11.928 6.545C12.518 6.18 13 4.784 13 3.441C13 1.215 12.604 1 8.5 1H4V7ZM27.079 29.583C27.127 30.748 27.364 30.985 27.683 30.188C27.972 29.466 27.936 28.603 27.604 28.271C27.272 27.939 27.036 28.529 27.079 29.583ZM30.079 31.583C30.127 32.748 30.364 32.985 30.683 32.188C30.972 31.466 30.936 30.603 30.604 30.271C30.272 29.939 30.036 30.529 30.079 31.583ZM25.638 33.5C25.322 34.325 25.499 35 26.031 35C26.564 35 27 34.325 27 33.5C27 32.675 26.823 32 26.607 32C26.391 32 25.955 32.675 25.638 33.5ZM49.075 34C49.071 35.441 51.892 41.166 51.965 39.865C51.984 39.515 51.343 37.715 50.539 35.865C49.736 34.014 49.077 33.175 49.075 34ZM30.5 35C30.16 35.55 30.359 36 30.941 36C31.523 36 32 35.55 32 35C32 34.45 31.802 34 31.559 34C31.316 34 30.84 34.45 30.5 35ZM12.282 37.25C11.146 38.487 9.909 41.075 9.533 43C9.158 44.925 8.664 47.4 8.435 48.5C8.207 49.6 8.67 49.15 9.465 47.5C10.26 45.85 10.93 43.467 10.955 42.205C10.98 40.942 12.105 38.805 13.455 37.455C14.805 36.105 15.558 35 15.129 35C14.7 35 13.419 36.013 12.282 37.25ZM4.729 36.604C4.328 37.005 4.014 38.271 4.03 39.417C4.058 41.34 4.141 41.363 5.101 39.712C6.22 37.79 5.934 35.4 4.729 36.604ZM6.158 39.457C4.625 42.055 4.426 43 5.412 43C6.794 43 9.674 37.341 8.759 36.425C8.478 36.144 7.307 37.509 6.158 39.457ZM2.6 50.1C1.613 51.771 1.041 53.374 1.329 53.662C1.617 53.95 2.594 52.752 3.5 51C5.64 46.861 4.932 46.153 2.6 50.1ZM12.66 52.396C11.797 53.714 10.842 56.076 10.539 57.646C10.236 59.216 10.262 59.825 10.597 59C10.931 58.175 12.052 55.813 13.087 53.75C15.218 49.501 15.003 48.82 12.66 52.396ZM6.167 53.95C4.721 58.098 4.608 65.361 6.002 64.499C6.579 64.142 6.737 62.207 6.374 59.94C5.858 56.709 6.037 56 7.372 56C9.146 56 9.251 55.5 8.097 52.551C7.431 50.849 7.187 51.025 6.167 53.95Z" fill="white"/>
</g>
<defs>
<clipPath id="clip0_1_2">
<rect width="66" height="66" rx="33" fill="white"/>
</clipPath>
</defs>
</svg>
