<svg width="64" height="64" viewBox="0 0 64 64" fill="none" xmlns="http://www.w3.org/2000/svg">
<g clip-path="url(#clip0_1_2)">
<path fill-rule="evenodd" clip-rule="evenodd" d="M0 32V64H32H64V32V0H32H0V32Z" fill="#D0D0D1"/>
<path fill-rule="evenodd" clip-rule="evenodd" d="M0 32V64H32H64V32V0H32H0V32ZM30.665 12.4136C31.306 12.4302 32.946 13.5929 34.311 14.9961C35.977 16.7099 37.124 17.1567 37.8 16.3556C38.476 15.5544 39.414 15.6101 40.654 16.5262C42.378 17.8015 42.365 17.8477 40.45 17.2373C38.671 16.6696 38.4 17.1271 38.4 20.6969C38.4 26.2661 37.455 26.9938 34.496 23.699C32.775 21.7825 32 19.6575 32 16.8521C32 13.8145 31.638 12.9481 30.573 13.4329C29.788 13.7896 28.551 13.2101 27.823 12.147C26.696 10.4984 26.722 10.3727 28 11.2972C28.825 11.8933 30.024 12.3959 30.665 12.4136ZM41 24.9588C41 25.5727 40.55 26.0741 40 26.0741C39.45 26.0741 39 25.2421 39 24.2264C39 23.2107 39.45 22.7081 40 23.1111C40.55 23.5141 41 24.3449 41 24.9588ZM37 35.5556C37 36.2074 36.523 36.7407 35.941 36.7407C35.359 36.7407 35.16 36.2074 35.5 35.5556C35.84 34.9037 36.316 34.3704 36.559 34.3704C36.802 34.3704 37 34.9037 37 35.5556ZM34 36.0782C34 36.3662 33.55 36.9304 33 37.3333C32.45 37.7363 32 37.5004 32 36.8107C32 36.1209 32.45 35.5556 33 35.5556C33.55 35.5556 34 35.7902 34 36.0782ZM35.541 42.5873C34.691 44.2181 33 44.224 33 42.5967C33 41.907 33.45 41.6711 34 42.0741C34.55 42.477 35 42.1523 35 41.3535C35 40.5547 35.27 40.2216 35.6 40.6127C35.93 41.0039 35.904 41.8927 35.541 42.5873Z" fill="#E8EAEB"/>
<path fill-rule="evenodd" clip-rule="evenodd" d="M0 32V64H32H64V32V0H32H0V32ZM37.02 11.2711C38.626 12.256 40.443 14.1736 41.056 15.5319C42.059 17.7541 41.952 17.92 39.987 17.1804C38.057 16.4539 37.885 16.6827 38.514 19.1419C38.905 20.6732 39.624 22.432 40.112 23.0519C43.066 26.7982 37.653 27.2142 34.314 23.4975C32.767 21.7742 32 19.5721 32 16.8521C32 13.8145 31.638 12.9481 30.573 13.4329C29.788 13.7896 28.645 13.3653 28.031 12.4895C25.831 9.34756 32.423 8.45393 37.02 11.2711ZM33.167 37.0169C32.278 38.0705 32.016 37.4281 32.068 34.3111C32.131 30.4711 32.202 30.387 33.235 32.928C34.048 34.9274 34.031 35.9929 33.167 37.0169ZM37 35.5556C37 36.2074 36.523 36.7407 35.941 36.7407C35.359 36.7407 35.16 36.2074 35.5 35.5556C35.84 34.9037 36.316 34.3704 36.559 34.3704C36.802 34.3704 37 34.9037 37 35.5556ZM35.2 42.9037C34.558 43.6646 33.701 43.8933 33.296 43.4122C32.89 42.931 33.207 42.0622 34 41.4815C34.793 40.9007 35.65 40.672 35.904 40.973C36.159 41.2741 35.842 42.1428 35.2 42.9037Z" fill="#939393"/>
<path fill-rule="evenodd" clip-rule="evenodd" d="M0 32V64H32H64V32V0H32H0V32ZM38.923 12.5499C42.201 15.8187 42.974 18.963 40.5 18.963C38.802 18.963 38.489 20.819 40 21.9259C40.55 22.3289 41 23.7037 41 24.9813C41 26.9132 40.537 27.1739 38.25 26.5304C34.438 25.4566 32 22.6643 32 19.3719C32 17.44 31.426 16.5926 30.117 16.5926C28.264 16.5926 26.57 12.4516 27.607 10.4604C28.789 8.19437 35.866 9.50044 38.923 12.5499ZM36.472 34.8041C38.126 35.5413 38.206 35.8613 36.972 36.7858C34.546 38.6039 32.175 38.0753 31.503 35.5662C30.623 32.2821 31.959 29.9081 33.403 32.1896C34.006 33.1437 35.387 34.3206 36.472 34.8041ZM37.336 42.963C37.086 43.4524 35.714 43.8519 34.286 43.8519C31.779 43.8519 31.75 43.7736 33.448 41.549C34.826 39.7452 35.486 39.552 36.498 40.6601C37.209 41.4376 37.586 42.4735 37.336 42.963ZM36 48.5926C36 49.2444 34.987 49.7695 33.75 49.76C31.931 49.7446 31.787 49.5218 33 48.5926C34.939 47.1076 36 47.1076 36 48.5926Z" fill="#808080"/>
<path fill-rule="evenodd" clip-rule="evenodd" d="M0 32V64H32H64V32V0H32H0V32ZM38.923 12.5499C41.836 15.4548 43.134 20.1481 41.025 20.1481C40.465 20.1481 40.318 21.7351 40.679 23.8779C41.292 27.507 41.23 27.5852 38.404 26.7484C34.695 25.651 32 22.7745 32 19.9123C32 18.4379 31.403 17.7932 30.25 18.0219C29.079 18.2554 28.394 17.4827 28.179 15.6859C28.002 14.2104 27.394 13.3404 26.829 13.7553C26.205 14.2116 26.247 13.5182 26.935 11.9953C28.624 8.256 34.91 8.54756 38.923 12.5499ZM36.472 34.8041C38.122 35.5401 38.204 35.8601 36.972 36.768C35.762 37.6604 35.722 38.2791 36.75 40.2441C38.512 43.6124 38.385 43.8519 34.845 43.8519C31.852 43.8519 31.775 43.7404 33.345 41.6842C35.476 38.893 35.429 38.336 33 37.5822C31.873 37.2338 31 35.9656 31 34.6785C31 31.5378 32.235 30.3514 33.473 32.3034C34.038 33.1947 35.387 34.3206 36.472 34.8041ZM45 34.893C45 35.181 44.55 35.7452 44 36.1481C43.45 36.5511 43 36.3153 43 35.6255C43 34.9357 43.45 34.3704 44 34.3704C44.55 34.3704 45 34.605 45 34.893ZM22.683 41.7043C22.364 42.6489 22.127 42.368 22.079 40.9873C22.036 39.7381 22.272 39.0388 22.604 39.4323C22.936 39.8258 22.972 40.8486 22.683 41.7043ZM36 48.5926C36 49.2444 35.073 49.7778 33.941 49.7778C32.809 49.7778 32.16 49.2444 32.5 48.5926C32.84 47.9407 33.766 47.4074 34.559 47.4074C35.352 47.4074 36 47.9407 36 48.5926ZM32 53.2966C32 53.9271 31.325 54.1369 30.5 53.7624C29.675 53.3867 29 52.8699 29 52.6139C29 52.3579 29.675 52.1481 30.5 52.1481C31.325 52.1481 32 52.6649 32 53.2966Z" fill="#6C6C6C"/>
<path fill-rule="evenodd" clip-rule="evenodd" d="M0 32V64H32H64V32V0H32H0V32ZM38.02 11.2711C42.117 13.7825 43.789 17.7185 41.574 19.6385C40.452 20.6104 40.288 21.2492 41.08 21.5621C41.835 21.8607 42 23.021 41.534 24.7609C40.932 27.0092 40.335 27.3553 38.152 26.7188C36.693 26.2945 34.753 25.939 33.841 25.9283C32.929 25.9188 31.912 24.6329 31.581 23.0708C31.18 21.1793 30.482 20.4575 29.49 20.909C28.468 21.3748 28 20.8213 28 19.149C28 17.8074 27.222 16.1944 26.271 15.5639C24.646 14.4865 24.656 14.2673 26.426 11.949C28.689 8.98489 33.802 8.68622 38.02 11.2711ZM37.039 34.3704C38.452 34.3704 38.21 37.6367 36.75 38.272C35.75 38.7058 35.75 39.1289 36.75 40.3852C38.748 42.8954 38.227 43.84 34.75 44.013C31.922 44.1541 31.825 44.2536 34 44.787L36.5 45.3985L34 46.285L31.5 47.1716L34.309 47.2889C37.423 47.4204 37.075 49.7778 33.941 49.7778C32.873 49.7778 32 49.2444 32 48.5926C32 47.9407 30.988 47.3541 29.75 47.2889C27.591 47.1763 27.602 47.1324 30 46.2222L32.5 45.2729L30 44.9932C27.749 44.7419 27.714 44.6649 29.646 44.2169C31.719 43.7357 35.984 39.264 34.655 38.963C34.295 38.8812 33.438 38.7484 32.75 38.6667C31.326 38.4984 30.54 33.9437 31.45 31.1348C31.973 29.5194 32.339 29.6142 34.068 31.8139C35.173 33.2196 36.51 34.3704 37.039 34.3704ZM42 34.4972C42 35.0791 41.325 35.5556 40.5 35.5556C39.675 35.5556 39 34.7721 39 33.8145C39 32.755 39.586 32.3413 40.5 32.7561C41.325 33.1319 42 33.9153 42 34.4972ZM44.183 35.8127C43.466 36.6625 43 36.7324 43 35.9905C43 34.4083 44.183 33.0062 44.85 33.7979C45.134 34.1345 44.834 35.0412 44.183 35.8127ZM22.93 40.6625C22.862 43.1656 22.829 43.1739 22 40.8889C20.817 37.6273 20.817 36.467 22 37.3333C22.55 37.7363 22.968 39.2344 22.93 40.6625ZM25.511 47.4074L27.5 50.3704L25.25 48.1126C24.012 46.8705 23 45.3156 23 44.6554C23 43.9964 23.117 43.6788 23.261 43.9502C23.404 44.2228 24.417 45.7778 25.511 47.4074ZM30.971 52.1019C31.78 52.7087 32.107 53.6012 31.697 54.0871C31.288 54.573 30.192 54.0681 29.262 52.9659C27.455 50.8243 28.536 50.2767 30.971 52.1019Z" fill="#424242"/>
<path fill-rule="evenodd" clip-rule="evenodd" d="M0 32V64H32H64V32V0H32H0V32ZM38.715 11.4003C42.054 13.8679 43.234 17.3701 42.488 22.6027L41.825 27.251L36.663 27.0519C31.47 26.8516 27.888 25.549 28.174 23.9644C28.49 22.2127 26.75 16.5926 25.892 16.5926C24.55 16.5926 24.821 12.3141 26.25 10.9393C29.152 8.14696 34.585 8.34844 38.715 11.4003ZM21.851 30.8148C21.846 33.0963 21.585 34.163 21.271 33.1852C20.957 32.2074 20.205 31.0151 19.6 30.5363C18.835 29.9307 18.828 29.6604 19.577 29.6474C20.192 29.6379 20.51 27.9775 20.319 25.7778C20.047 22.643 20.159 22.368 20.922 24.2963C21.438 25.6 21.856 28.5333 21.851 30.8148ZM31 29.8548C31 31.4133 28.727 30.4379 28.229 28.6661C27.985 27.7997 28.443 27.5354 29.416 27.9775C30.287 28.3745 31 29.2184 31 29.8548ZM26 30.1855C26 31.2427 25.413 31.6587 24.506 31.2462C23.684 30.8717 23.26 30.0895 23.565 29.5052C24.437 27.8317 26 28.2679 26 30.1855ZM45 29.6296C45 30.2815 44.523 30.8148 43.941 30.8148C43.359 30.8148 43.16 30.2815 43.5 29.6296C43.84 28.9778 44.316 28.4444 44.559 28.4444C44.802 28.4444 45 28.9778 45 29.6296ZM38.628 33.0584C40.357 31.3588 45 32.7111 45 34.9156C45 35.8424 44.55 36.9304 44 37.3333C43.45 37.7363 42.993 37.101 42.985 35.9218C42.973 34.2412 42.781 34.131 42.096 35.411C41.616 36.3093 40.746 36.6945 40.162 36.2667C39.578 35.8388 38.563 36.6791 37.907 38.1321C37.02 40.096 37.007 40.8913 37.857 41.2279C39.986 42.0681 39.016 43.8519 36.429 43.8519C34.091 43.8519 34 44.0213 35.429 45.7138C37.561 48.2418 37.405 49.4661 34.826 50.4356C33.359 50.9879 32.267 50.6276 31.466 49.331C30.813 48.2726 29.617 47.4074 28.806 47.4074C27.996 47.4074 27.333 46.6074 27.333 45.6296C27.333 44.6519 28.158 43.8519 29.167 43.8519C30.175 43.8519 31.946 42.7307 33.102 41.3606L35.204 38.8693L31.852 39.5686C30.008 39.9538 29.063 39.9633 29.75 39.5911C30.438 39.219 31 37.1804 31 35.0613C31 29.8987 31.793 29.2646 34.775 32.045C36.675 33.8169 37.609 34.0622 38.628 33.0584ZM23.314 40.4124C23.614 44.333 26.873 49.779 29.675 51.0412C30.954 51.6184 32 52.9031 32 53.8963C32 56.6127 30.691 56.096 27.464 52.1031C24.844 48.8628 24.473 48.7147 23.756 50.6216C23.168 52.1849 23.084 51.9799 23.438 49.8394C23.701 48.2441 23.525 46.3775 23.048 45.6913C22.57 45.005 21.859 42.3111 21.468 39.7037C20.929 36.1079 21.04 35.277 21.927 36.2643C22.57 36.9801 23.194 38.8468 23.314 40.4124ZM29.813 45.8465C30.534 46.189 31.397 46.1464 31.729 45.7529C32.061 45.3594 31.471 45.0797 30.417 45.1307C29.252 45.1876 29.015 45.4684 29.813 45.8465Z" fill="#212121"/>
<path fill-rule="evenodd" clip-rule="evenodd" d="M0 32V64H32H64V32V0H32H0V32ZM36.802 9.95318C40.86 12.4397 42.88 15.6231 43.37 20.307C44.019 26.5161 43.05 27.4999 36.181 27.6065C32.843 27.6575 30.338 28.1339 30.615 28.6649C30.892 29.1959 31.574 29.6296 32.13 29.6296C32.687 29.6296 33.833 30.4474 34.677 31.4477C36.38 33.4661 39.421 32.8427 42.256 29.8916C44.419 27.6409 45.777 28.8699 43.973 31.4453C43.252 32.4764 43.075 33.1556 43.581 32.9553C44.751 32.493 45.136 34.3656 44.421 37.037C43.804 39.3399 42.359 39.795 41.814 37.8584C41.62 37.1686 40.711 36.947 39.794 37.3641C38.875 37.7813 38.37 38.8764 38.67 39.8021C38.969 40.7253 38.856 42.4154 38.419 43.5556C37.981 44.6957 37.596 46.6963 37.562 48C37.518 49.6699 36.703 50.4794 34.805 50.739C33.015 50.9843 32.285 51.6492 32.632 52.7206C32.919 53.6071 32.634 55.4856 31.998 56.8936C30.893 59.3399 30.782 59.3576 29.509 57.2966C28.777 56.109 28.352 54.803 28.565 54.3941C28.778 53.9852 28.044 52.6756 26.933 51.4844C24.968 49.376 24.899 49.3879 24.34 51.9182C23.472 55.8542 21.963 55.0329 22.645 50.995C22.994 48.9244 22.58 45.5194 21.64 42.7342C20.76 40.128 20.282 37.2492 20.577 36.3366C20.873 35.4228 20.306 33.7173 19.316 32.544C18.034 31.0246 17.874 30.272 18.759 29.9224C19.442 29.6521 20.007 27.4785 20.015 25.0868C20.024 22.6963 20.467 19.9407 21 18.963C21.672 17.7304 21.974 19.9858 21.985 26.3241C21.998 34.1001 22.317 35.8127 24.124 37.8086C25.756 39.6101 26.087 40.9233 25.553 43.4833C24.993 46.1701 25.105 46.528 26.129 45.3333C26.828 44.5191 28.14 43.8519 29.045 43.8519C29.95 43.8519 31.505 42.7852 32.5 41.4815C33.495 40.1778 33.817 39.1111 33.214 39.1111C32.611 39.1111 31.84 39.6444 31.5 40.2963C30.566 42.0871 29 41.7161 29 39.7037C29 38.7259 29.337 37.9247 29.75 37.9236C30.163 37.9212 30.546 36.3639 30.603 34.4604C30.675 32.0249 30.156 30.8302 28.853 30.4261C26.771 29.7801 26.441 30.8634 28.113 32.845C28.725 33.5704 28.893 34.8018 28.487 35.5804C27.977 36.557 27.022 35.9455 25.41 33.6095C22.363 29.1959 22.415 28.7846 26.133 27.8175C27.856 27.3683 28.81 26.6596 28.252 26.2412C27.694 25.824 27.24 23.923 27.244 22.0184C27.247 20.1138 26.519 17.9212 25.625 17.1473C23.194 15.04 23.659 12.147 26.75 10.1594C30.239 7.91585 33.374 7.85185 36.802 9.95318ZM28.229 48.8142C28.727 50.5861 31 51.5615 31 50.003C31 49.3665 30.287 48.5227 29.416 48.1256C28.443 47.6836 27.985 47.9479 28.229 48.8142ZM42 53.4033C42 54.0172 41.55 54.5185 41 54.5185C40.45 54.5185 40 53.6865 40 52.6708C40 51.6551 40.45 51.1526 41 51.5556C41.55 51.9585 42 52.7893 42 53.4033Z" fill="black"/>
</g>
<defs>
<clipPath id="clip0_1_2">
<rect width="64" height="64" rx="32" fill="white"/>
</clipPath>
</defs>
</svg>
