<svg width="64" height="54" viewBox="0 0 64 54" fill="none" xmlns="http://www.w3.org/2000/svg">
<path fill-rule="evenodd" clip-rule="evenodd" d="M0 27V54H32H64V27V0H32H0V27Z" fill="#D0D0D1"/>
<path fill-rule="evenodd" clip-rule="evenodd" d="M0 27V54H32H64V27V0H32H0V27ZM30.665 10.474C31.306 10.488 32.946 11.469 34.311 12.653C35.977 14.099 37.124 14.476 37.8 13.8C38.476 13.124 39.414 13.171 40.654 13.944C42.378 15.02 42.365 15.059 40.45 14.544C38.671 14.065 38.4 14.451 38.4 17.463C38.4 22.162 37.455 22.776 34.496 19.996C32.775 18.379 32 16.586 32 14.219C32 11.656 31.638 10.925 30.573 11.334C29.788 11.635 28.551 11.146 27.823 10.249C26.696 8.858 26.722 8.752 28 9.532C28.825 10.035 30.024 10.459 30.665 10.474ZM41 21.059C41 21.577 40.55 22 40 22C39.45 22 39 21.298 39 20.441C39 19.584 39.45 19.16 40 19.5C40.55 19.84 41 20.541 41 21.059ZM37 30C37 30.55 36.523 31 35.941 31C35.359 31 35.16 30.55 35.5 30C35.84 29.45 36.316 29 36.559 29C36.802 29 37 29.45 37 30ZM34 30.441C34 30.684 33.55 31.16 33 31.5C32.45 31.84 32 31.641 32 31.059C32 30.477 32.45 30 33 30C33.55 30 34 30.198 34 30.441ZM35.541 35.933C34.691 37.309 33 37.314 33 35.941C33 35.359 33.45 35.16 34 35.5C34.55 35.84 35 35.566 35 34.892C35 34.218 35.27 33.937 35.6 34.267C35.93 34.597 35.904 35.347 35.541 35.933Z" fill="#E8EAEB"/>
<path fill-rule="evenodd" clip-rule="evenodd" d="M0 27V54H32H64V27V0H32H0V27ZM37.02 9.51C38.626 10.341 40.443 11.959 41.056 13.105C42.059 14.98 41.952 15.12 39.987 14.496C38.057 13.883 37.885 14.076 38.514 16.151C38.905 17.443 39.624 18.927 40.112 19.45C43.066 22.611 37.653 22.962 34.314 19.826C32.767 18.372 32 16.514 32 14.219C32 11.656 31.638 10.925 30.573 11.334C29.788 11.635 28.645 11.277 28.031 10.538C25.831 7.887 32.423 7.133 37.02 9.51ZM33.167 31.233C32.278 32.122 32.016 31.58 32.068 28.95C32.131 25.71 32.202 25.639 33.235 27.783C34.048 29.47 34.031 30.369 33.167 31.233ZM37 30C37 30.55 36.523 31 35.941 31C35.359 31 35.16 30.55 35.5 30C35.84 29.45 36.316 29 36.559 29C36.802 29 37 29.45 37 30ZM35.2 36.2C34.558 36.842 33.701 37.035 33.296 36.629C32.89 36.223 33.207 35.49 34 35C34.793 34.51 35.65 34.317 35.904 34.571C36.159 34.825 35.842 35.558 35.2 36.2Z" fill="#939393"/>
<path fill-rule="evenodd" clip-rule="evenodd" d="M0 27V54H32H64V27V0H32H0V27ZM38.923 10.589C42.201 13.347 42.974 16 40.5 16C38.802 16 38.489 17.566 40 18.5C40.55 18.84 41 20 41 21.078C41 22.708 40.537 22.928 38.25 22.385C34.438 21.479 32 19.123 32 16.345C32 14.715 31.426 14 30.117 14C28.264 14 26.57 10.506 27.607 8.826C28.789 6.914 35.866 8.016 38.923 10.589ZM36.472 29.366C38.126 29.988 38.206 30.258 36.972 31.038C34.546 32.572 32.175 32.126 31.503 30.009C30.623 27.238 31.959 25.235 33.403 27.16C34.006 27.965 35.387 28.958 36.472 29.366ZM37.336 36.25C37.086 36.663 35.714 37 34.286 37C31.779 37 31.75 36.934 33.448 35.057C34.826 33.535 35.486 33.372 36.498 34.307C37.209 34.963 37.586 35.837 37.336 36.25ZM36 41C36 41.55 34.987 41.993 33.75 41.985C31.931 41.972 31.787 41.784 33 41C34.939 39.747 36 39.747 36 41Z" fill="#808080"/>
<path fill-rule="evenodd" clip-rule="evenodd" d="M0 27V54H32H64V27V0H32H0V27ZM38.923 10.589C41.836 13.04 43.134 17 41.025 17C40.465 17 40.318 18.339 40.679 20.147C41.292 23.209 41.23 23.275 38.404 22.569C34.695 21.643 32 19.216 32 16.801C32 15.557 31.403 15.013 30.25 15.206C29.079 15.403 28.394 14.751 28.179 13.235C28.002 11.99 27.394 11.256 26.829 11.606C26.205 11.991 26.247 11.406 26.935 10.121C28.624 6.966 34.91 7.212 38.923 10.589ZM36.472 29.366C38.122 29.987 38.204 30.257 36.972 31.023C35.762 31.776 35.722 32.298 36.75 33.956C38.512 36.798 38.385 37 34.845 37C31.852 37 31.775 36.906 33.345 35.171C35.476 32.816 35.429 32.346 33 31.71C31.873 31.416 31 30.346 31 29.26C31 26.61 32.235 25.609 33.473 27.256C34.038 28.008 35.387 28.958 36.472 29.366ZM45 29.441C45 29.684 44.55 30.16 44 30.5C43.45 30.84 43 30.641 43 30.059C43 29.477 43.45 29 44 29C44.55 29 45 29.198 45 29.441ZM22.683 35.188C22.364 35.985 22.127 35.748 22.079 34.583C22.036 33.529 22.272 32.939 22.604 33.271C22.936 33.603 22.972 34.466 22.683 35.188ZM36 41C36 41.55 35.073 42 33.941 42C32.809 42 32.16 41.55 32.5 41C32.84 40.45 33.766 40 34.559 40C35.352 40 36 40.45 36 41ZM32 44.969C32 45.501 31.325 45.678 30.5 45.362C29.675 45.045 29 44.609 29 44.393C29 44.177 29.675 44 30.5 44C31.325 44 32 44.436 32 44.969Z" fill="#6C6C6C"/>
<path fill-rule="evenodd" clip-rule="evenodd" d="M0 27V54H32H64V27V0H32H0V27ZM38.02 9.51C42.117 11.629 43.789 14.95 41.574 16.57C40.452 17.39 40.288 17.929 41.08 18.193C41.835 18.445 42 19.424 41.534 20.892C40.932 22.789 40.335 23.081 38.152 22.544C36.693 22.186 34.753 21.886 33.841 21.877C32.929 21.869 31.912 20.784 31.581 19.466C31.18 17.87 30.482 17.261 29.49 17.642C28.468 18.035 28 17.568 28 16.157C28 15.025 27.222 13.664 26.271 13.132C24.646 12.223 24.656 12.038 26.426 10.082C28.689 7.581 33.802 7.329 38.02 9.51ZM37.039 29C38.452 29 38.21 31.756 36.75 32.292C35.75 32.658 35.75 33.015 36.75 34.075C38.748 36.193 38.227 36.99 34.75 37.136C31.922 37.255 31.825 37.339 34 37.789L36.5 38.305L34 39.053L31.5 39.801L34.309 39.9C37.423 40.011 37.075 42 33.941 42C32.873 42 32 41.55 32 41C32 40.45 30.988 39.955 29.75 39.9C27.591 39.805 27.602 39.768 30 39L32.5 38.199L30 37.963C27.749 37.751 27.714 37.686 29.646 37.308C31.719 36.902 35.984 33.129 34.655 32.875C34.295 32.806 33.438 32.694 32.75 32.625C31.326 32.483 30.54 28.64 31.45 26.27C31.973 24.907 32.339 24.987 34.068 26.843C35.173 28.029 36.51 29 37.039 29ZM42 29.107C42 29.598 41.325 30 40.5 30C39.675 30 39 29.339 39 28.531C39 27.637 39.586 27.288 40.5 27.638C41.325 27.955 42 28.616 42 29.107ZM44.183 30.217C43.466 30.934 43 30.993 43 30.367C43 29.032 44.183 27.849 44.85 28.517C45.134 28.801 44.834 29.566 44.183 30.217ZM22.93 34.309C22.862 36.421 22.829 36.428 22 34.5C20.817 31.748 20.817 30.769 22 31.5C22.55 31.84 22.968 33.104 22.93 34.309ZM25.511 40L27.5 42.5L25.25 40.595C24.012 39.547 23 38.235 23 37.678C23 37.122 23.117 36.854 23.261 37.083C23.404 37.313 24.417 38.625 25.511 40ZM30.971 43.961C31.78 44.473 32.107 45.226 31.697 45.636C31.288 46.046 30.192 45.62 29.262 44.69C27.455 42.883 28.536 42.421 30.971 43.961Z" fill="#424242"/>
<path fill-rule="evenodd" clip-rule="evenodd" d="M0 27V54H32H64V27V0H32H0V27ZM38.715 9.619C42.054 11.701 43.234 14.656 42.488 19.071L41.825 22.993L36.663 22.825C31.47 22.656 27.888 21.557 28.174 20.22C28.49 18.742 26.75 14 25.892 14C24.55 14 24.821 10.39 26.25 9.23C29.152 6.874 34.585 7.044 38.715 9.619ZM21.851 26C21.846 27.925 21.585 28.825 21.271 28C20.957 27.175 20.205 26.169 19.6 25.765C18.835 25.254 18.828 25.026 19.577 25.015C20.192 25.007 20.51 23.606 20.319 21.75C20.047 19.105 20.159 18.873 20.922 20.5C21.438 21.6 21.856 24.075 21.851 26ZM31 25.19C31 26.505 28.727 25.682 28.229 24.187C27.985 23.456 28.443 23.233 29.416 23.606C30.287 23.941 31 24.653 31 25.19ZM26 25.469C26 26.361 25.413 26.712 24.506 26.364C23.684 26.048 23.26 25.388 23.565 24.895C24.437 23.483 26 23.851 26 25.469ZM45 25C45 25.55 44.523 26 43.941 26C43.359 26 43.16 25.55 43.5 25C43.84 24.45 44.316 24 44.559 24C44.802 24 45 24.45 45 25ZM38.628 27.893C40.357 26.459 45 27.6 45 29.46C45 30.242 44.55 31.16 44 31.5C43.45 31.84 42.993 31.304 42.985 30.309C42.973 28.891 42.781 28.798 42.096 29.878C41.616 30.636 40.746 30.961 40.162 30.6C39.578 30.239 38.563 30.948 37.907 32.174C37.02 33.831 37.007 34.502 37.857 34.786C39.986 35.495 39.016 37 36.429 37C34.091 37 34 37.143 35.429 38.571C37.561 40.704 37.405 41.737 34.826 42.555C33.359 43.021 32.267 42.717 31.466 41.623C30.813 40.73 29.617 40 28.806 40C27.996 40 27.333 39.325 27.333 38.5C27.333 37.675 28.158 37 29.167 37C30.175 37 31.946 36.054 33.102 34.898L35.204 32.796L31.852 33.386C30.008 33.711 29.063 33.719 29.75 33.405C30.438 33.091 31 31.371 31 29.583C31 25.227 31.793 24.692 34.775 27.038C36.675 28.533 37.609 28.74 38.628 27.893ZM23.314 34.098C23.614 37.406 26.873 42.001 29.675 43.066C30.954 43.553 32 44.637 32 45.475C32 47.767 30.691 47.331 27.464 43.962C24.844 41.228 24.473 41.103 23.756 42.712C23.168 44.031 23.084 43.858 23.438 42.052C23.701 40.706 23.525 39.131 23.048 38.552C22.57 37.973 21.859 35.7 21.468 33.5C20.929 30.466 21.04 29.765 21.927 30.598C22.57 31.202 23.194 32.777 23.314 34.098ZM29.813 38.683C30.534 38.972 31.397 38.936 31.729 38.604C32.061 38.272 31.471 38.036 30.417 38.079C29.252 38.127 29.015 38.364 29.813 38.683Z" fill="#212121"/>
<path fill-rule="evenodd" clip-rule="evenodd" d="M0 27V54H32H64V27V0H32H0V27ZM36.802 8.398C40.86 10.496 42.88 13.182 43.37 17.134C44.019 22.373 43.05 23.203 36.181 23.293C32.843 23.336 30.338 23.738 30.615 24.186C30.892 24.634 31.574 25 32.13 25C32.687 25 33.833 25.69 34.677 26.534C36.38 28.237 39.421 27.711 42.256 25.221C44.419 23.322 45.777 24.359 43.973 26.532C43.252 27.402 43.075 27.975 43.581 27.806C44.751 27.416 45.136 28.996 44.421 31.25C43.804 33.193 42.359 33.577 41.814 31.943C41.62 31.361 40.711 31.174 39.794 31.526C38.875 31.878 38.37 32.802 38.67 33.583C38.969 34.362 38.856 35.788 38.419 36.75C37.981 37.712 37.596 39.4 37.562 40.5C37.518 41.909 36.703 42.592 34.805 42.811C33.015 43.018 32.285 43.579 32.632 44.483C32.919 45.231 32.634 46.816 31.998 48.004C30.893 50.068 30.782 50.083 29.509 48.344C28.777 47.342 28.352 46.24 28.565 45.895C28.778 45.55 28.044 44.445 26.933 43.44C24.968 41.661 24.899 41.671 24.34 43.806C23.472 47.127 21.963 46.434 22.645 43.027C22.994 41.28 22.58 38.407 21.64 36.057C20.76 33.858 20.282 31.429 20.577 30.659C20.873 29.888 20.306 28.449 19.316 27.459C18.034 26.177 17.874 25.542 18.759 25.247C19.442 25.019 20.007 23.185 20.015 21.167C20.024 19.15 20.467 16.825 21 16C21.672 14.96 21.974 16.863 21.985 22.211C21.998 28.772 22.317 30.217 24.124 31.901C25.756 33.421 26.087 34.529 25.553 36.689C24.993 38.956 25.105 39.258 26.129 38.25C26.828 37.563 28.14 37 29.045 37C29.95 37 31.505 36.1 32.5 35C33.495 33.9 33.817 33 33.214 33C32.611 33 31.84 33.45 31.5 34C30.566 35.511 29 35.198 29 33.5C29 32.675 29.337 31.999 29.75 31.998C30.163 31.996 30.546 30.682 30.603 29.076C30.675 27.021 30.156 26.013 28.853 25.672C26.771 25.127 26.441 26.041 28.113 27.713C28.725 28.325 28.893 29.364 28.487 30.021C27.977 30.845 27.022 30.329 25.41 28.358C22.363 24.634 22.415 24.287 26.133 23.471C27.856 23.092 28.81 22.494 28.252 22.141C27.694 21.789 27.24 20.185 27.244 18.578C27.247 16.971 26.519 15.121 25.625 14.468C23.194 12.69 23.659 10.249 26.75 8.572C30.239 6.679 33.374 6.625 36.802 8.398ZM28.229 41.187C28.727 42.682 31 43.505 31 42.19C31 41.653 30.287 40.941 29.416 40.606C28.443 40.233 27.985 40.456 28.229 41.187ZM42 45.059C42 45.577 41.55 46 41 46C40.45 46 40 45.298 40 44.441C40 43.584 40.45 43.16 41 43.5C41.55 43.84 42 44.541 42 45.059Z" fill="black"/>
</svg>
