<svg width="64" height="64" viewBox="0 0 64 64" fill="none" xmlns="http://www.w3.org/2000/svg">
<g clip-path="url(#clip0_1_2)">
<path fill-rule="evenodd" clip-rule="evenodd" d="M11 1.5C11 2.333 10.111 3 9 3C7.19 3 7 3.667 7 10C7 16.333 7.19 17 9 17C10.778 17 11 17.667 11 23V29H15C17.2 29 19 29.45 19 30C19 30.55 18.1 31 17 31C15.333 31 15 31.667 15 35C15 38.333 14.667 39 13 39C11.667 39 11 39.667 11 41C11 42.333 10.333 43 9 43C7.667 43 7 43.667 7 45C7 46.333 6.333 47 5 47C3.667 47 3 47.667 3 49C3 50.111 2.333 51 1.5 51C0.321 51 0 52.389 0 57.5V64H30.5C56.944 64 61 63.801 61 62.5C61 61.675 61.675 61 62.5 61C63.69 61 64 59.556 64 54V47H60.5C57.667 47 57 46.619 57 45C57 43.667 56.333 43 55 43C53.222 43 53 42.333 53 37C53 31.667 52.778 31 51 31C49.167 31 49 30.333 49 23C49 15.667 48.833 15 47 15C45.222 15 45 14.333 45 9C45 3.667 44.778 3 43 3C41.889 3 41 2.333 41 1.5C41 0.233 38.667 0 26 0C13.333 0 11 0.233 11 1.5Z" fill="#FFDE00"/>
<path fill-rule="evenodd" clip-rule="evenodd" d="M11 1.5C11 2.333 10.111 3 9 3C7.19 3 7 3.667 7 10C7 16.333 7.19 17 9 17C10.778 17 11 17.667 11 23V29H15C17.2 29 19 29.45 19 30C19 30.55 18.1 31 17 31C15.333 31 15 31.667 15 35C15 38.333 14.667 39 13 39C11.667 39 11 39.667 11 41C11 42.333 10.333 43 9 43C7.667 43 7 43.667 7 45C7 46.333 6.333 47 5 47C3.667 47 3 47.667 3 49C3 50.111 2.333 51 1.5 51C0.321 51 0 52.389 0 57.5V64H30.5C56.944 64 61 63.801 61 62.5C61 61.675 61.675 61 62.5 61C63.69 61 64 59.556 64 54V47H60.5C57.667 47 57 46.619 57 45C57 43.667 56.333 43 55 43C53.222 43 53 42.333 53 37C53 31.667 52.778 31 51 31C49.167 31 49 30.333 49 23C49 15.667 48.833 15 47 15C45.222 15 45 14.333 45 9C45 3.667 44.778 3 43 3C41.889 3 41 2.333 41 1.5C41 0.233 38.667 0 26 0C13.333 0 11 0.233 11 1.5ZM28 7C28 8.363 28.667 9 30.094 9C31.346 9 32.397 8.197 32.71 7C33.39 4.401 36 4.401 36 7C36 8.111 36.667 9 37.5 9C38.652 9 39 10.278 39 14.5C39 18.722 38.652 20 37.5 20C36.675 20 36 20.644 36 21.43C36 22.217 34.987 23.005 33.75 23.18C32.304 23.386 31.386 24.304 31.18 25.75C30.777 28.588 29 28.716 29 25.906C29 24.654 28.197 23.603 27 23.29C25.9 23.002 25 22.144 25 21.383C25 20.623 24.1 20 23 20C21.889 20 21 19.333 21 18.5C21 17.452 22.056 17 24.5 17C27.333 17 28 17.381 28 19C28 21.66 31.994 21.738 32.686 19.092C32.96 18.043 34.043 16.96 35.092 16.686C36.203 16.396 37 15.312 37 14.094C37 12.434 36.378 12 34 12C32 12 31 12.5 31 13.5C31 14.325 30.55 15 30 15C29.45 15 29 14.325 29 13.5C29 12.675 28.131 12 27.07 12C25.829 12 25.025 11.196 24.82 9.75C24.563 7.943 23.762 7.439 20.75 7.19C14.954 6.71 16.321 5 22.5 5C27.333 5 28 5.242 28 7ZM15 10.5C15 11.325 14.55 12 14 12C13.45 12 13 11.325 13 10.5C13 9.675 13.45 9 14 9C14.55 9 15 9.675 15 10.5ZM20 22C20 22.55 19.325 23 18.5 23C17.675 23 17 22.55 17 22C17 21.45 17.675 21 18.5 21C19.325 21 20 21.45 20 22ZM44 29C44 35.322 44.304 37 45.45 37C46.514 37 46.98 38.531 47.2 42.75C47.466 47.844 47.757 48.536 49.75 48.82C51.647 49.089 52 49.755 52 53.07C52 55.897 52.421 57 53.5 57C54.325 57 55 57.675 55 58.5C55 59.633 53.778 60 50 60C45.592 60 45 59.752 45 57.906C45 56.654 44.197 55.603 43 55.29C41.9 55.002 41 54.422 41 54C41 53.578 41.9 52.998 43 52.71C44.231 52.388 45 51.346 45 50C45 48.654 44.231 47.612 43 47.29C41.9 47.002 41 46.144 41 45.383C41 44.298 38.848 44 31 44H21V40.5C21 36.686 22.445 35.77 23.301 39.042C23.792 40.922 24.492 41.061 32.167 40.792C39.944 40.519 40.521 40.35 40.82 38.25C41.063 36.539 40.644 36 39.07 36C37.233 36 37 35.394 37 30.617C37 26.074 37.312 25.152 39 24.71C40.1 24.423 41 23.47 41 22.594C41 21.717 41.675 21 42.5 21C43.708 21 44 22.556 44 29ZM27.813 32.173C27.361 36.757 25 37.102 25 32.583C25 30 25.436 29 26.563 29C27.719 29 28.045 29.828 27.813 32.173ZM20 49V53H24C27.333 53 28 53.333 28 55C28 56.111 28.667 57 29.5 57C30.325 57 31 57.675 31 58.5C31 59.631 29.786 60 26.07 60C21.718 60 21.102 59.736 20.82 57.75C20.536 55.757 19.844 55.466 14.75 55.2C8.304 54.864 6.985 53.288 12.75 52.81C16.296 52.517 16.517 52.296 16.81 48.75C17.254 43.385 20 43.6 20 49ZM60 54C60 54.55 59.325 55 58.5 55C57.675 55 57 54.55 57 54C57 53.45 57.675 53 58.5 53C59.325 53 60 53.45 60 54ZM7 58.5C7 59.325 6.55 60 6 60C5.45 60 5 59.325 5 58.5C5 57.675 5.45 57 6 57C6.55 57 7 57.675 7 58.5Z" fill="#FAC400"/>
<path fill-rule="evenodd" clip-rule="evenodd" d="M11 1.5C11 2.333 10.111 3 9 3C7.19 3 7 3.667 7 10C7 16.333 7.19 17 9 17C10.778 17 11 17.667 11 23V29H15C17.2 29 19 29.45 19 30C19 30.55 18.1 31 17 31C15.333 31 15 31.667 15 35C15 38.333 14.667 39 13 39C11.667 39 11 39.667 11 41C11 42.333 10.333 43 9 43C7.667 43 7 43.667 7 45C7 46.333 6.333 47 5 47C3.667 47 3 47.667 3 49C3 50.111 2.333 51 1.5 51C0.321 51 0 52.389 0 57.5V64H30.5C56.944 64 61 63.801 61 62.5C61 61.675 61.675 61 62.5 61C63.69 61 64 59.556 64 54V47H60.5C57.667 47 57 46.619 57 45C57 43.667 56.333 43 55 43C53.222 43 53 42.333 53 37C53 31.667 52.778 31 51 31C49.167 31 49 30.333 49 23C49 15.667 48.833 15 47 15C45.222 15 45 14.333 45 9C45 3.667 44.778 3 43 3C41.889 3 41 2.333 41 1.5C41 0.233 38.667 0 26 0C13.333 0 11 0.233 11 1.5ZM28 6.5C28 7.333 28.889 8 30 8C31.111 8 32 7.333 32 6.5C32 5.667 32.889 5 34 5C35.1 5 36 5.623 36 6.383C36 7.144 36.9 8.002 38 8.29C39.699 8.734 40 9.654 40 14.406C40 19.333 39.762 20 38 20C36.667 20 36 20.667 36 22C36 23.333 35.333 24 34 24C32.667 24 32 24.667 32 26C32 27.111 31.333 28 30.5 28C29.667 28 29 27.111 29 26C29 24.637 28.333 24 26.906 24C25.654 24 24.603 23.197 24.29 22C24.002 20.9 23.144 20 22.383 20C21.623 20 21 19.1 21 18C21 16.381 21.667 16 24.5 16C27.567 16 28 16.31 28 18.5C28 21.823 31.712 22.045 32.18 18.75C32.386 17.304 33.304 16.386 34.75 16.18C36.196 15.975 37 15.171 37 13.93C37 11.208 32.425 11.268 31.71 14C31.423 15.1 30.695 16 30.094 16C29.492 16 29 15.1 29 14C29 12.533 28.333 12 26.5 12C24.693 12 24 11.463 24 10.06C24 8.549 23.189 8.052 20.327 7.81C18.307 7.64 16.47 6.938 16.244 6.25C15.946 5.342 17.498 5 21.917 5C26.657 5 28 5.331 28 6.5ZM15.823 10.333C16.015 11.32 15.505 12 14.573 12C13.646 12 13 11.145 13 9.917C13 7.48 15.337 7.824 15.823 10.333ZM20 22.573C20 23.505 19.32 24.015 18.333 23.823C15.824 23.337 15.48 21 17.917 21C19.145 21 20 21.646 20 22.573ZM44 29C44 36.333 44.167 37 46 37C47.758 37 48 37.667 48 42.5C48 47.333 48.242 48 50 48C51.657 48 52 48.667 52 51.883C52 54.926 52.433 55.88 54 56.29C55.1 56.577 56 57.53 56 58.406C56 59.671 54.866 60 50.5 60C45.733 60 45 59.743 45 58.07C45 56.853 44.197 56.021 42.828 55.82C39.83 55.378 39.373 53.227 42.192 52.827C45.383 52.375 46.093 48 42.976 48C41.654 48 40.609 47.222 40.29 46C39.814 44.179 38.926 44 30.383 44H21V40.5C21 38.056 21.452 37 22.5 37C23.325 37 24 37.675 24 38.5C24 39.708 25.556 40 32 40C39.333 40 40 39.833 40 38C40 36.889 39.333 36 38.5 36C37.333 36 37 34.667 37 30C37 25.333 37.333 24 38.5 24C39.325 24 40 23.325 40 22.5C40 21.667 40.889 21 42 21C43.833 21 44 21.667 44 29ZM28 32.5C28 35.333 27.619 36 26 36C24.381 36 24 35.333 24 32.5C24 29.667 24.381 29 26 29C27.619 29 28 29.667 28 32.5ZM20 49V53H24C26.739 53 28 53.436 28 54.383C28 55.144 28.9 56.002 30 56.29C31.1 56.577 32 57.53 32 58.406C32 59.671 30.866 60 26.5 60C21.711 60 21 59.747 21 58.048C21 56.354 20.181 56.056 14.829 55.798C11.009 55.613 8.502 55.024 8.246 54.25C7.961 53.387 9.097 53 11.917 53H16V49C16 45.667 16.333 45 18 45C19.667 45 20 45.667 20 49ZM60 54.573C60 55.505 59.32 56.015 58.333 55.823C55.824 55.337 55.48 53 57.917 53C59.145 53 60 53.646 60 54.573ZM7.823 58.333C8.015 59.32 7.505 60 6.573 60C5.646 60 5 59.145 5 57.917C5 55.48 7.337 55.824 7.823 58.333Z" fill="#F5AE00"/>
<path fill-rule="evenodd" clip-rule="evenodd" d="M11 1.5C11 2.333 10.111 3 9 3C7.19 3 7 3.667 7 10C7 16.333 7.19 17 9 17C10.778 17 11 17.667 11 23V29H15C17.2 29 19 29.45 19 30C19 30.55 18.1 31 17 31C15.333 31 15 31.667 15 35C15 38.333 14.667 39 13 39C11.667 39 11 39.667 11 41C11 42.333 10.333 43 9 43C7.667 43 7 43.667 7 45C7 46.333 6.333 47 5 47C3.667 47 3 47.667 3 49C3 50.111 2.333 51 1.5 51C0.321 51 0 52.389 0 57.5V64H30.5C56.944 64 61 63.801 61 62.5C61 61.675 61.675 61 62.5 61C63.69 61 64 59.556 64 54V47H60.5C57.667 47 57 46.619 57 45C57 43.667 56.333 43 55 43C53.222 43 53 42.333 53 37C53 31.667 52.778 31 51 31C49.167 31 49 30.333 49 23C49 15.667 48.833 15 47 15C45.222 15 45 14.333 45 9C45 3.667 44.778 3 43 3C41.889 3 41 2.333 41 1.5C41 0.233 38.667 0 26 0C13.333 0 11 0.233 11 1.5ZM28 6C28 7.333 28.667 8 30 8C31.333 8 32 7.333 32 6C32 4.667 32.667 4 34 4C35.333 4 36 4.667 36 6C36 7.333 36.667 8 38 8C39.778 8 40 8.667 40 14C40 19.333 40.222 20 42 20C43.833 20 44 20.667 44 28C44 35.333 44.167 36 46 36C47.778 36 48 36.667 48 42C48 47.333 48.222 48 50 48C51.667 48 52 48.667 52 52C52 55.333 52.333 56 54 56C55.333 56 56 55.333 56 54C56 52.667 56.667 52 58 52C59.333 52 60 52.667 60 54C60 55.333 59.333 56 58 56C56.667 56 56 56.667 56 58C56 59.778 55.333 60 50 60C44.667 60 44 59.778 44 58C44 56.667 43.333 56 42 56C40.667 56 40 55.333 40 54C40 52.667 40.667 52 42 52C43.333 52 44 51.333 44 50C44 48.667 43.333 48 42 48C40.667 48 40 47.333 40 46C40 44.133 39.333 44 30 44H20V48V52H24C27.333 52 28 52.333 28 54C28 55.333 28.667 56 30 56C31.333 56 32 56.667 32 58C32 59.778 31.333 60 26 60C20.667 60 20 59.778 20 58C20 56.222 19.333 56 14 56C8.667 56 8 56.222 8 58C8 59.333 7.333 60 6 60C4.667 60 4 59.333 4 58C4 56.667 4.667 56 6 56C7.333 56 8 55.333 8 54C8 52.333 8.667 52 12 52H16V48C16 44.667 16.333 44 18 44C19.667 44 20 43.333 20 40C20 36.667 20.333 36 22 36C23.667 36 24 35.333 24 32C24 28.667 24.333 28 26 28C27.333 28 28 27.333 28 26C28 24.667 27.333 24 26 24C24.667 24 24 23.333 24 22C24 20.667 23.333 20 22 20C20.667 20 20 20.667 20 22C20 23.333 19.333 24 18 24C16.667 24 16 23.333 16 22C16 20.667 16.667 20 18 20C19.333 20 20 19.333 20 18C20 16.333 20.667 16 24 16C27.333 16 28 15.667 28 14C28 12.667 27.333 12 26 12C24.667 12 24 11.333 24 10C24 8.333 23.333 8 20 8C16.667 8 16 8.333 16 10C16 11.333 15.333 12 14 12C12.667 12 12 11.333 12 10C12 8.667 12.667 8 14 8C15.333 8 16 7.333 16 6C16 4.222 16.667 4 22 4C27.333 4 28 4.222 28 6ZM32 14C32 15.333 31.333 16 30 16C28.667 16 28 16.667 28 18C28 19.333 28.667 20 30 20C31.333 20 32 19.333 32 18C32 16.667 32.667 16 34 16C35.333 16 36 15.333 36 14C36 12.667 35.333 12 34 12C32.667 12 32 12.667 32 14ZM36 22C36 23.333 35.333 24 34 24C32.667 24 32 24.667 32 26C32 27.333 31.333 28 30 28C28.333 28 28 28.667 28 32C28 35.333 27.667 36 26 36C24.667 36 24 36.667 24 38C24 39.833 24.667 40 32 40C39.333 40 40 39.833 40 38C40 36.667 39.333 36 38 36C36.222 36 36 35.333 36 30C36 24.667 36.222 24 38 24C39.333 24 40 23.333 40 22C40 20.667 39.333 20 38 20C36.667 20 36 20.667 36 22Z" fill="#E14602"/>
<path fill-rule="evenodd" clip-rule="evenodd" d="M11 1.5C11 2.333 10.111 3 9 3C7.19 3 7 3.667 7 10C7 16.333 7.19 17 9 17C10.778 17 11 17.667 11 23V29H15C17.2 29 19 29.45 19 30C19 30.55 18.1 31 17 31C15.333 31 15 31.667 15 35C15 38.333 14.667 39 13 39C11.667 39 11 39.667 11 41C11 42.333 10.333 43 9 43C7.667 43 7 43.667 7 45C7 46.333 6.333 47 5 47C3.667 47 3 47.667 3 49C3 50.111 2.333 51 1.5 51C0.321 51 0 52.389 0 57.5V64H30.5C56.944 64 61 63.801 61 62.5C61 61.675 61.675 61 62.5 61C63.69 61 64 59.556 64 54V47H60.5C57.667 47 57 46.619 57 45C57 43.667 56.333 43 55 43C53.222 43 53 42.333 53 37C53 31.667 52.778 31 51 31C49.167 31 49 30.333 49 23C49 15.667 48.833 15 47 15C45.222 15 45 14.333 45 9C45 3.667 44.778 3 43 3C41.889 3 41 2.333 41 1.5C41 0.233 38.667 0 26 0C13.333 0 11 0.233 11 1.5ZM28.29 6C28.577 7.1 29.53 8 30.406 8C31.333 8 32 7.163 32 6C32 4.667 32.667 4 34 4C35.163 4 36 4.667 36 5.594C36 6.47 36.9 7.423 38 7.71C39.714 8.159 40 9.074 40 14.117C40 19.333 40.227 20 42 20C43.833 20 44 20.667 44 28C44 35.333 44.167 36 46 36C47.778 36 48 36.667 48 42C48 47.333 48.222 48 50 48C51.629 48 52 48.667 52 51.594C52 54.346 52.468 55.31 54 55.71C55.107 56 56 57.074 56 58.117C56 59.752 55.209 60 50 60C44.667 60 44 59.778 44 58C44 56.667 43.333 56 42 56C40.667 56 40 55.333 40 54C40 52.667 40.667 52 42 52C43.333 52 44 51.333 44 50C44 48.708 43.333 48 42.117 48C41.062 48 39.999 47.103 39.7 45.961C39.205 44.066 38.51 43.943 29.834 44.211L20.5 44.5L20.19 48.25L19.879 52H23.94C26.988 52 28 52.397 28 53.594C28 54.47 28.9 55.423 30 55.71C31.107 56 32 57.074 32 58.117C32 59.752 31.209 60 26 60C20.667 60 20 59.778 20 58C20 56.222 19.333 56 14 56C8.667 56 8 56.222 8 58C8 59.333 7.333 60 6 60C4.667 60 4 59.333 4 58C4 56.667 4.667 56 6 56C7.333 56 8 55.333 8 54C8 52.333 8.667 52 12 52H16V48C16 44.667 16.333 44 18 44C19.667 44 20 43.333 20 40C20 36.667 20.333 36 22 36C23.667 36 24 35.333 24 32C24 28.667 24.333 28 26 28C27.333 28 28 27.333 28 26C28 24.708 27.333 24 26.117 24C25.074 24 24 23.107 23.71 22C23.423 20.9 22.653 20 22 20C21.347 20 20.577 20.9 20.29 22C20 23.107 18.926 24 17.883 24C16.667 24 16 23.292 16 22C16 20.667 16.667 20 18 20C19.333 20 20 19.333 20 18C20 16.333 20.667 16 24 16C27.333 16 28 15.667 28 14C28 12.667 27.333 12 26 12C24.667 12 24 11.333 24 10C24 8.333 23.333 8 20 8C16.667 8 16 8.333 16 10C16 11.333 15.333 12 14 12C12.667 12 12 11.333 12 10C12 8.667 12.667 8 14 8C15.333 8 16 7.333 16 6C16 4.227 16.667 4 21.883 4C26.926 4 27.841 4.286 28.29 6ZM32.314 13.908C32.04 14.957 30.957 16.04 29.908 16.314C27.353 16.982 27.429 20 30 20C31.333 20 32 19.333 32 18C32 16.667 32.667 16 34 16C35.333 16 36 15.333 36 14C36 11.429 32.982 11.353 32.314 13.908ZM36.533 20.947C35.653 22.37 36.775 24 38.632 24C39.508 24 40.01 23.297 39.823 22.333C39.434 20.324 37.437 19.484 36.533 20.947ZM32 25.883C32 26.926 31.107 28 30 28.29C28.484 28.686 28 29.654 28 32.29C28 34.926 27.516 35.893 26 36.29C24.9 36.577 24 37.53 24 38.406C24 39.732 25.347 40 32 40C38.653 40 40 39.732 40 38.406C40 37.53 39.1 36.577 38 36.29C36.286 35.841 36 34.926 36 29.883C36 24.667 35.773 24 34 24C32.708 24 32 24.667 32 25.883ZM60 54C60 55.333 59.333 56 58 56C56.667 56 56 55.333 56 54C56 52.667 56.667 52 58 52C59.333 52 60 52.667 60 54Z" fill="#FF0000"/>
<path fill-rule="evenodd" clip-rule="evenodd" d="M11 1.383C11 2.144 10.1 3.002 9 3.29C7.255 3.746 7 4.654 7 10.406C7 16.277 7.214 17 8.95 17C10.623 17 10.943 17.818 11.2 22.75L11.5 28.5L15.25 28.81C19.098 29.129 20.594 31 17 31C15.333 31 15 31.667 15 35C15 37.993 14.599 39 13.406 39C12.53 39 11.588 39.858 11.314 40.908C11.04 41.957 9.957 43.04 8.908 43.314C7.858 43.588 7 44.477 7 45.29C7 46.102 6.1 47.002 5 47.29C3.9 47.577 3 48.53 3 49.406C3 50.283 2.325 51 1.5 51C0.321 51 0 52.389 0 57.5V64H30.5C56.944 64 61 63.801 61 62.5C61 61.675 61.675 61 62.5 61C63.69 61 64 59.556 64 54V47H60.617C58.074 47 57.103 46.503 56.71 45C56.423 43.9 55.47 43 54.594 43C53.313 43 53 41.823 53 37C53 31.667 52.778 31 51 31C49.167 31 49 30.333 49 23C49 15.667 48.833 15 47 15C45.238 15 45 14.333 45 9.406C45 4.654 44.699 3.734 43 3.29C41.9 3.002 41 2.144 41 1.383C41 0.267 38.105 0 26 0C13.895 0 11 0.267 11 1.383ZM28.29 6C28.577 7.1 29.53 8 30.406 8C31.333 8 32 7.163 32 6C32 4.667 32.667 4 34 4C35.163 4 36 4.667 36 5.594C36 6.47 36.9 7.423 38 7.71C39.714 8.159 40 9.074 40 14.117C40 19.333 40.227 20 42 20C43.833 20 44 20.667 44 28C44 35.333 44.167 36 46 36C47.778 36 48 36.667 48 42C48 47.333 48.222 48 50 48C51.629 48 52 48.667 52 51.594C52 54.346 52.468 55.31 54 55.71C55.107 56 56 57.074 56 58.117C56 59.752 55.209 60 50 60C44.667 60 44 59.778 44 58C44 56.667 43.333 56 42 56C40.667 56 40 55.333 40 54C40 52.667 40.667 52 42 52C43.333 52 44 51.333 44 50C44 48.708 43.333 48 42.117 48C41.062 48 39.999 47.103 39.7 45.961C39.205 44.066 38.51 43.943 29.834 44.211L20.5 44.5L20.19 48.25L19.879 52H23.94C26.988 52 28 52.397 28 53.594C28 54.47 28.9 55.423 30 55.71C31.107 56 32 57.074 32 58.117C32 59.752 31.209 60 26 60C20.667 60 20 59.778 20 58C20 56.222 19.333 56 14 56C8.667 56 8 56.222 8 58C8 59.333 7.333 60 6 60C4.667 60 4 59.333 4 58C4 56.667 4.667 56 6 56C7.333 56 8 55.333 8 54C8 52.333 8.667 52 12 52H16V48C16 44.667 16.333 44 18 44C19.667 44 20 43.333 20 40C20 36.667 20.333 36 22 36C23.667 36 24 35.333 24 32C24 28.667 24.333 28 26 28C27.333 28 28 27.333 28 26C28 24.708 27.333 24 26.117 24C25.074 24 24 23.107 23.71 22C23.423 20.9 22.653 20 22 20C21.347 20 20.577 20.9 20.29 22C20 23.107 18.926 24 17.883 24C16.667 24 16 23.292 16 22C16 20.667 16.667 20 18 20C19.333 20 20 19.333 20 18C20 16.333 20.667 16 24 16C27.333 16 28 15.667 28 14C28 12.667 27.333 12 26 12C24.667 12 24 11.333 24 10C24 8.333 23.333 8 20 8C16.667 8 16 8.333 16 10C16 11.333 15.333 12 14 12C12.667 12 12 11.333 12 10C12 8.667 12.667 8 14 8C15.333 8 16 7.333 16 6C16 4.227 16.667 4 21.883 4C26.926 4 27.841 4.286 28.29 6ZM32.314 13.908C32.04 14.957 30.957 16.04 29.908 16.314C27.353 16.982 27.429 20 30 20C31.333 20 32 19.333 32 18C32 16.667 32.667 16 34 16C35.333 16 36 15.333 36 14C36 11.429 32.982 11.353 32.314 13.908ZM36.533 20.947C35.653 22.37 36.775 24 38.632 24C39.508 24 40.01 23.297 39.823 22.333C39.434 20.324 37.437 19.484 36.533 20.947ZM32 25.883C32 26.926 31.107 28 30 28.29C28.484 28.686 28 29.654 28 32.29C28 34.926 27.516 35.893 26 36.29C24.9 36.577 24 37.53 24 38.406C24 39.732 25.347 40 32 40C38.653 40 40 39.732 40 38.406C40 37.53 39.1 36.577 38 36.29C36.286 35.841 36 34.926 36 29.883C36 24.667 35.773 24 34 24C32.708 24 32 24.667 32 25.883ZM60 54C60 55.333 59.333 56 58 56C56.667 56 56 55.333 56 54C56 52.667 56.667 52 58 52C59.333 52 60 52.667 60 54Z" fill="#DE3202"/>
<path fill-rule="evenodd" clip-rule="evenodd" d="M11 1.383C11 2.144 10.1 3.002 9 3.29C7.255 3.746 7 4.654 7 10.406C7 16.277 7.214 17 8.95 17C10.623 17 10.943 17.818 11.2 22.75L11.5 28.5L15.25 28.81C19.098 29.129 20.594 31 17 31C15.333 31 15 31.667 15 35C15 37.993 14.599 39 13.406 39C12.53 39 11.588 39.858 11.314 40.908C11.04 41.957 9.957 43.04 8.908 43.314C7.858 43.588 7 44.477 7 45.29C7 46.102 6.1 47.002 5 47.29C3.9 47.577 3 48.53 3 49.406C3 50.283 2.325 51 1.5 51C0.321 51 0 52.389 0 57.5V64H30.5C56.944 64 61 63.801 61 62.5C61 61.675 61.675 61 62.5 61C63.69 61 64 59.556 64 54V47H60.617C58.074 47 57.103 46.503 56.71 45C56.423 43.9 55.47 43 54.594 43C53.313 43 53 41.823 53 37C53 31.667 52.778 31 51 31C49.167 31 49 30.333 49 23C49 15.667 48.833 15 47 15C45.238 15 45 14.333 45 9.406C45 4.654 44.699 3.734 43 3.29C41.9 3.002 41 2.144 41 1.383C41 0.267 38.105 0 26 0C13.895 0 11 0.267 11 1.383ZM29 6C29 7.1 29.492 8 30.094 8C30.695 8 31.423 7.1 31.71 6C32.438 3.217 37 3.217 37 6C37 7.111 37.667 8 38.5 8C39.667 8 40 9.333 40 14C40 19.733 40.111 20 42.5 20C44.958 20 45 20.133 45 28C45 34.322 45.304 36 46.45 36C47.514 36 47.98 37.531 48.2 41.75C48.466 46.844 48.757 47.536 50.75 47.82C52.647 48.089 53 48.755 53 52.07C53 56.179 54.804 57.464 55.71 54C56.425 51.268 61 51.208 61 53.93C61 55.171 60.196 55.975 58.75 56.18C57.304 56.386 56.386 57.304 56.18 58.75C55.89 60.794 55.319 61 49.93 61C44.271 61 44 60.886 44 58.5C44 56.667 43.467 56 42 56C40.667 56 40 55.333 40 54C40 52.667 40.667 52 42 52C43.333 52 44 51.333 44 50C44 48.667 43.333 48 42 48C40.889 48 40 47.333 40 46.5C40 45.272 38.278 45 30.5 45H21V48.5C21 51.917 21.095 52 25 52C28.333 52 29 52.333 29 54C29 55.111 29.667 56 30.5 56C31.433 56 32 56.944 32 58.5C32 60.889 31.733 61 26 61C20.235 61 20 60.9 20 58.45C20 55.978 19.825 55.909 14.25 56.2C9.156 56.466 8.464 56.757 8.18 58.75C7.712 62.045 4 61.823 4 58.5C4 56.879 4.56 56 5.594 56C6.47 56 7.423 55.1 7.71 54C8.12 52.433 9.074 52 12.117 52C15.981 52 16 51.98 16 48C16 44.667 16.333 44 18 44C19.667 44 20 43.333 20 40C20 36.667 20.333 36 22 36C23.667 36 24 35.333 24 32C24 28.667 24.333 28 26 28C27.333 28 28 27.333 28 26C28 24.667 27.333 24 26 24C24.889 24 24 23.333 24 22.5C24 21.675 23.325 21 22.5 21C21.675 21 21 21.675 21 22.5C21 23.433 20.056 24 18.5 24C16.667 24 16 23.467 16 22C16 20.667 16.667 20 18 20C19.333 20 20 19.333 20 18C20 16.333 20.667 16 24 16C26.889 16 28 15.583 28 14.5C28 13.675 27.131 13 26.07 13C24.829 13 24.025 12.196 23.82 10.75C23.558 8.906 22.868 8.5 20 8.5C17.132 8.5 16.442 8.906 16.18 10.75C15.975 12.196 15.171 13 13.93 13C11.208 13 11.268 8.425 14 7.71C15.1 7.423 16 6.47 16 5.594C16 4.299 17.219 4 22.5 4C28.333 4 29 4.205 29 6ZM32.25 14.25C32.88 16.142 36 16.411 36 14.573C36 13.646 35.145 13 33.917 13C32.695 13 32.005 13.517 32.25 14.25ZM29 17.917C29 19.145 29.646 20 30.573 20C31.505 20 32.015 19.32 31.823 18.333C31.337 15.824 29 15.48 29 17.917ZM37 22.583C37 24.349 39.153 24.042 39.771 22.188C39.989 21.534 39.454 21 38.583 21C37.712 21 37 21.712 37 22.583ZM32.667 24.667C32.3 25.033 32 26.158 32 27.167C32 28.175 31.352 29 30.56 29C29.619 29 29.013 30.297 28.81 32.75C28.559 35.793 28.065 36.562 26.192 36.827C24.923 37.007 24.061 37.682 24.276 38.327C24.833 39.998 39.191 39.927 39.75 38.25C39.994 37.517 39.306 37 38.083 37C36.186 37 36 36.42 36 30.5C36 25.75 35.641 24 34.667 24C33.933 24 33.033 24.3 32.667 24.667Z" fill="#D91C02"/>
<path fill-rule="evenodd" clip-rule="evenodd" d="M11 1.383C11 2.144 10.1 3.002 9 3.29C7.255 3.746 7 4.654 7 10.406C7 16.277 7.214 17 8.95 17C10.623 17 10.943 17.818 11.2 22.75L11.5 28.5L15.25 28.81C19.098 29.129 20.594 31 17 31C15.333 31 15 31.667 15 35C15 37.993 14.599 39 13.406 39C12.53 39 11.588 39.858 11.314 40.908C11.04 41.957 9.957 43.04 8.908 43.314C7.858 43.588 7 44.477 7 45.29C7 46.102 6.1 47.002 5 47.29C3.9 47.577 3 48.53 3 49.406C3 50.283 2.325 51 1.5 51C0.321 51 0 52.389 0 57.5V64H30.5C56.944 64 61 63.801 61 62.5C61 61.675 61.675 61 62.5 61C63.69 61 64 59.556 64 54V47H60.617C58.074 47 57.103 46.503 56.71 45C56.423 43.9 55.47 43 54.594 43C53.313 43 53 41.823 53 37C53 31.667 52.778 31 51 31C49.167 31 49 30.333 49 23C49 15.667 48.833 15 47 15C45.238 15 45 14.333 45 9.406C45 4.654 44.699 3.734 43 3.29C41.9 3.002 41 2.144 41 1.383C41 0.267 38.105 0 26 0C13.895 0 11 0.267 11 1.383ZM29 5.5C29 6.325 29.45 7 30 7C30.55 7 31 6.325 31 5.5C31 4.5 32 4 34 4C35.888 4 37 4.513 37 5.383C37 6.144 37.9 7.002 39 7.29C40.724 7.741 41 8.654 41 13.906C41 19.333 41.219 20 43 20C44.833 20 45 20.667 45 28C45 35.333 45.167 36 47 36C48.752 36 49 36.667 49 41.383C49 45.926 49.312 46.848 51 47.29C52.532 47.69 53 48.654 53 51.406C53 53.383 53.45 55 54 55C54.55 55 55 54.325 55 53.5C55 52.5 56 52 58 52C60.378 52 61 52.434 61 54.094C61 55.312 60.203 56.396 59.092 56.686C58.043 56.96 56.96 58.043 56.686 59.092C56.264 60.706 55.248 61 50.094 61C44.74 61 44 60.766 44 59.07C44 57.829 43.196 57.025 41.75 56.82C38.579 56.369 38.056 52.276 41.112 51.827C44.084 51.391 44.826 49 41.99 49C40.654 49 39.611 48.227 39.29 47C38.816 45.189 37.926 45 29.883 45H21V48.5C21 51.917 21.095 52 25 52C27.739 52 29 52.436 29 53.383C29 54.144 29.936 55.011 31.079 55.31C32.574 55.701 33.066 56.507 32.829 58.177C32.53 60.286 31.925 60.527 26.25 60.798C20.521 61.071 20 60.925 20 59.048C20 57.238 19.375 57 14.617 57C10.074 57 9.152 57.312 8.71 59C8.397 60.197 7.346 61 6.094 61C4.434 61 4 60.378 4 58C4 56 4.5 55 5.5 55C6.325 55 7 54.325 7 53.5C7 52.417 8.111 52 11 52C14.988 52 15 51.988 15 48.07C15 44.755 15.353 44.089 17.25 43.82C19.057 43.563 19.561 42.762 19.81 39.75C20.013 37.297 20.619 36 21.56 36C22.569 36 23 34.823 23 32.07C23 28.8 23.365 28.085 25.172 27.82C28.1 27.389 28.793 25 25.99 25C24.654 25 23.611 24.227 23.29 23C22.612 20.407 21.378 20.445 20.69 23.079C19.941 25.942 15.621 25.351 15.191 22.327C14.959 20.704 15.465 20.072 17.191 19.827C18.696 19.614 19.611 18.716 19.82 17.25C20.089 15.353 20.755 15 24.07 15C26.231 15 28 14.55 28 14C28 13.45 27.058 13 25.906 13C24.654 13 23.603 12.197 23.29 11C22.926 9.608 21.926 9 20 9C18.074 9 17.074 9.608 16.71 11C16.397 12.197 15.346 13 14.094 13C12.434 13 12 12.378 12 10C12 8 12.5 7 13.5 7C14.325 7 15 6.325 15 5.5C15 4.31 16.444 4 22 4C27.556 4 29 4.31 29 5.5ZM33 14C33 14.55 33.675 15 34.5 15C35.325 15 36 14.55 36 14C36 13.45 35.325 13 34.5 13C33.675 13 33 13.45 33 14ZM29 18.5C29 19.325 29.45 20 30 20C30.55 20 31 19.325 31 18.5C31 17.675 30.55 17 30 17C29.45 17 29 17.675 29 18.5ZM37 22C37 22.55 37.45 23 38 23C38.55 23 39 22.55 39 22C39 21.45 38.55 21 38 21C37.45 21 37 21.45 37 22ZM33 26.594C33 27.47 32.1 28.423 31 28.71C29.484 29.107 29 30.074 29 32.71C29 35.346 28.516 36.314 27 36.71C22.745 37.823 25.315 39 32 39C36 39 39 38.571 39 38C39 37.45 38.325 37 37.5 37C36.333 37 36 35.667 36 31C36 26.333 35.667 25 34.5 25C33.675 25 33 25.717 33 26.594Z" fill="#D50303"/>
</g>
<defs>
<clipPath id="clip0_1_2">
<rect width="64" height="64" rx="32" fill="white"/>
</clipPath>
</defs>
</svg>
