<svg width="250" height="250" viewBox="0 0 250 250" fill="none" xmlns="http://www.w3.org/2000/svg">
<path fill-rule="evenodd" clip-rule="evenodd" d="M0 125V250H125H250V125V0H125H0V125Z" fill="#FD93C4"/>
<path fill-rule="evenodd" clip-rule="evenodd" d="M0 125V250H125H250V125V0H125H0V125ZM75.626 139.558C83.22 144.146 89.513 147.396 90.356 147.165C91.211 146.93 87.268 154.334 79.535 167.484C73.315 178.062 67.836 180.914 60.46 177.414C56.028 175.311 53.667 171.487 53.667 166.415C53.667 162.964 55.074 159.983 62.044 148.666C66.652 141.186 70.722 135.549 71.087 136.141C71.453 136.734 73.496 138.271 75.626 139.558Z" fill="#F65FDF"/>
<path fill-rule="evenodd" clip-rule="evenodd" d="M0 125V250H125H250V125V0H125H0V125ZM119.289 82.734L124.938 91.968L100.219 133.627C82.09 164.179 74.7 175.779 72.5 177.139C70.811 178.182 67.636 178.994 65.235 178.996C61.771 178.999 60.27 178.358 57.235 175.577C53.808 172.436 53.502 171.714 53.523 166.827C53.546 161.639 54.305 160.237 82.483 113.276L111.419 65.052L112.53 69.276C113.141 71.599 116.183 77.655 119.289 82.734Z" fill="#D0D0D2"/>
<path fill-rule="evenodd" clip-rule="evenodd" d="M0 125V250H125H250V125V0H125H0V125ZM119.289 82.734L124.938 91.968L100.219 133.627C82.09 164.179 74.7 175.779 72.5 177.139C70.811 178.182 67.636 178.994 65.235 178.996C61.771 178.999 60.27 178.358 57.235 175.577C53.808 172.436 53.502 171.714 53.523 166.827C53.546 161.639 54.305 160.237 82.483 113.276L111.419 65.052L112.53 69.276C113.141 71.599 116.183 77.655 119.289 82.734Z" fill="#9D9CA1"/>
<path fill-rule="evenodd" clip-rule="evenodd" d="M0 125V250H125H250V125V0H125H0V125ZM119.104 81.519L125.07 91.746L100.285 133.516C82.105 164.154 74.701 175.779 72.5 177.139C70.811 178.182 67.636 178.994 65.235 178.996C61.771 178.999 60.27 178.358 57.235 175.577C53.809 172.437 53.502 171.713 53.522 166.827C53.544 161.633 54.283 160.273 83.022 112.5C111.044 65.92 112.516 63.692 112.819 67.396C113.027 69.937 115.212 74.847 119.104 81.519ZM127.807 131.526C127.499 131.834 126.94 131.279 126.564 130.293C126.022 128.868 126.136 128.753 127.124 129.733C127.808 130.412 128.115 131.219 127.807 131.526ZM136.5 142C141.42 143.551 143.019 144.761 142.937 146.872C142.891 148.053 142.641 147.925 142.026 146.405C141.482 145.058 139.548 143.853 136.609 143.03C134.095 142.327 131.467 141.019 130.769 140.125C129.69 138.743 129.724 138.667 131 139.62C131.825 140.235 134.3 141.307 136.5 142ZM109.526 149.807C109.219 150.115 108.412 149.808 107.733 149.124C106.753 148.136 106.868 148.022 108.293 148.564C109.279 148.94 109.834 149.499 109.526 149.807ZM119.903 155.431C119.64 155.694 118.829 154.917 118.1 153.705C116.835 151.598 116.857 151.577 118.579 153.226C119.57 154.176 120.166 155.168 119.903 155.431ZM131.789 153.399C131.08 154.169 130.342 154.649 130.15 154.466C129.557 153.902 131.06 152 132.098 152C132.638 152 132.499 152.63 131.789 153.399ZM125.137 164.788C124.415 165.028 123.35 164.75 122.768 164.168C122.026 163.426 122.417 163.296 124.08 163.731C125.432 164.085 125.886 164.538 125.137 164.788Z" fill="#0C0C12"/>
<path fill-rule="evenodd" clip-rule="evenodd" d="M118.314 55.95C110.443 60.75 110.781 67.082 119.751 82.826C139.841 118.086 173.452 173.871 176.04 176.25C183.541 183.145 197 176.884 197 166.5C197 162.976 197.586 164.028 164.199 107.637C141.71 69.654 133.94 57.325 131.588 55.891C127.615 53.468 122.346 53.492 118.314 55.95ZM122.38 129.438C121.812 130.046 121.532 131.096 121.757 131.772C121.982 132.447 121.693 133 121.115 133C120.536 133 120.322 133.675 120.638 134.5C120.955 135.325 120.689 136 120.048 136C119.407 136 119.15 136.434 119.477 136.964C119.805 137.493 119.14 138.86 118 140C116.86 141.14 115.493 141.805 114.964 141.477C114.434 141.15 114 141.407 114 142.048C114 142.689 113.325 142.955 112.5 142.638C111.675 142.322 111 142.547 111 143.138C111 143.73 110.435 143.997 109.745 143.732C108.434 143.229 106.664 144.755 106.27 146.728C106.144 147.361 106.931 148.161 108.02 148.506C109.109 148.852 110 149.54 110 150.036C110 150.532 110.675 150.678 111.5 150.362C112.325 150.045 113 150.27 113 150.862C113 151.453 113.675 151.678 114.5 151.362C115.325 151.045 116 151.311 116 151.952C116 152.593 116.399 152.871 116.887 152.57C118.105 151.817 120.325 154.665 119.527 155.956C119.172 156.53 119.407 157 120.048 157C120.689 157 120.955 157.675 120.638 158.5C120.322 159.325 120.547 160 121.138 160C121.73 160 121.968 160.641 121.668 161.423C121.026 163.095 126.586 165.479 127.537 163.94C127.857 163.423 127.894 163 127.62 163C127.346 163 127.914 160.67 128.882 157.821C130.558 152.89 130.902 152.554 136.071 150.797C139.057 149.782 141.613 148.963 141.75 148.976C142.316 149.03 142.336 148.394 141.828 146.452C141.471 145.084 139.834 143.971 136.896 143.099C131.921 141.622 129.766 140.187 130.57 138.887C130.871 138.399 130.593 138 129.952 138C129.311 138 129.045 137.325 129.362 136.5C129.678 135.675 129.453 135 128.862 135C128.27 135 128.045 134.325 128.362 133.5C128.678 132.675 128.532 132 128.036 132C127.54 132 126.873 131.175 126.553 130.167C125.9 128.111 123.94 127.769 122.38 129.438Z" fill="#0AF1FF"/>
<path fill-rule="evenodd" clip-rule="evenodd" d="M122.75 54.706C123.987 54.944 126.013 54.944 127.25 54.706C128.488 54.467 127.475 54.272 125 54.272C122.525 54.272 121.513 54.467 122.75 54.706ZM115.405 58.25L113.5 60.5L115.75 58.595C116.987 57.547 118 56.535 118 56.345C118 55.545 117.195 56.136 115.405 58.25ZM133.5 58C134.495 59.1 135.535 60 135.81 60C136.085 60 135.495 59.1 134.5 58C133.505 56.9 132.465 56 132.19 56C131.915 56 132.505 56.9 133.5 58ZM144 75C144.589 76.1 145.295 77 145.57 77C145.845 77 145.589 76.1 145 75C144.411 73.9 143.705 73 143.43 73C143.155 73 143.411 73.9 144 75ZM147 80C147.589 81.1 148.295 82 148.57 82C148.845 82 148.589 81.1 148 80C147.411 78.9 146.705 78 146.43 78C146.155 78 146.411 78.9 147 80ZM150 85C150.589 86.1 151.295 87 151.57 87C151.845 87 151.589 86.1 151 85C150.411 83.9 149.705 83 149.43 83C149.155 83 149.411 83.9 150 85ZM127 96C127.589 97.1 128.295 98 128.57 98C128.845 98 128.589 97.1 128 96C127.411 94.9 126.705 94 126.43 94C126.155 94 126.411 94.9 127 96ZM157 97C157.589 98.1 158.295 99 158.57 99C158.845 99 158.589 98.1 158 97C157.411 95.9 156.705 95 156.43 95C156.155 95 156.411 95.9 157 97ZM130 101C130.589 102.1 131.295 103 131.57 103C131.845 103 131.589 102.1 131 101C130.411 99.9 129.705 99 129.43 99C129.155 99 129.411 99.9 130 101ZM160 102C160.589 103.1 161.295 104 161.57 104C161.845 104 161.589 103.1 161 102C160.411 100.9 159.705 100 159.43 100C159.155 100 159.411 100.9 160 102ZM163 107C163.589 108.1 164.295 109 164.57 109C164.845 109 164.589 108.1 164 107C163.411 105.9 162.705 105 162.43 105C162.155 105 162.411 105.9 163 107ZM166.5 113C167.353 114.65 168.276 116 168.551 116C168.826 116 168.353 114.65 167.5 113C166.647 111.35 165.724 110 165.449 110C165.174 110 165.647 111.35 166.5 113ZM140 118C140.589 119.1 141.295 120 141.57 120C141.845 120 141.589 119.1 141 118C140.411 116.9 139.705 116 139.43 116C139.155 116 139.411 116.9 140 118ZM170 119C170.589 120.1 171.295 121 171.57 121C171.845 121 171.589 120.1 171 119C170.411 117.9 169.705 117 169.43 117C169.155 117 169.411 117.9 170 119ZM143 123C143.589 124.1 144.295 125 144.57 125C144.845 125 144.589 124.1 144 123C143.411 121.9 142.705 121 142.43 121C142.155 121 142.411 121.9 143 123ZM173 124C173.589 125.1 174.295 126 174.57 126C174.845 126 174.589 125.1 174 124C173.411 122.9 172.705 122 172.43 122C172.155 122 172.411 122.9 173 124ZM146 128C146.589 129.1 147.295 130 147.57 130C147.845 130 147.589 129.1 147 128C146.411 126.9 145.705 126 145.43 126C145.155 126 145.411 126.9 146 128ZM177.468 131.5C179.007 134.25 180.73 136.95 181.298 137.5C181.865 138.05 181.07 136.25 179.532 133.5C177.993 130.75 176.27 128.05 175.702 127.5C175.135 126.95 175.93 128.75 177.468 131.5ZM122.38 129.438C121.812 130.046 121.532 131.096 121.757 131.772C121.982 132.447 121.693 133 121.115 133C120.536 133 120.322 133.675 120.638 134.5C120.955 135.325 120.689 136 120.048 136C119.407 136 119.15 136.434 119.477 136.964C119.805 137.493 119.14 138.86 118 140C116.86 141.14 115.493 141.805 114.964 141.477C114.434 141.15 114 141.407 114 142.048C114 142.689 113.325 142.955 112.5 142.638C111.675 142.322 111 142.547 111 143.138C111 143.73 110.435 143.997 109.745 143.732C108.434 143.229 106.664 144.755 106.27 146.728C106.144 147.361 106.931 148.161 108.02 148.506C109.109 148.852 110 149.54 110 150.036C110 150.532 110.675 150.678 111.5 150.362C112.325 150.045 113 150.27 113 150.862C113 151.453 113.675 151.678 114.5 151.362C115.325 151.045 116 151.311 116 151.952C116 152.593 116.399 152.871 116.887 152.57C118.105 151.817 120.325 154.665 119.527 155.956C119.172 156.53 119.407 157 120.048 157C120.689 157 120.955 157.675 120.638 158.5C120.322 159.325 120.547 160 121.138 160C121.73 160 121.968 160.641 121.668 161.423C121.026 163.095 126.586 165.479 127.537 163.94C127.857 163.423 127.894 163 127.62 163C127.346 163 127.914 160.67 128.882 157.821C130.558 152.89 130.902 152.554 136.071 150.797C139.057 149.782 141.613 148.963 141.75 148.976C142.316 149.03 142.336 148.394 141.828 146.452C141.471 145.084 139.834 143.971 136.896 143.099C131.921 141.622 129.766 140.187 130.57 138.887C130.871 138.399 130.593 138 129.952 138C129.311 138 129.045 137.325 129.362 136.5C129.678 135.675 129.453 135 128.862 135C128.27 135 128.045 134.325 128.362 133.5C128.678 132.675 128.532 132 128.036 132C127.54 132 126.873 131.175 126.553 130.167C125.9 128.111 123.94 127.769 122.38 129.438ZM149 133C149.589 134.1 150.295 135 150.57 135C150.845 135 150.589 134.1 150 133C149.411 131.9 148.705 131 148.43 131C148.155 131 148.411 131.9 149 133ZM152 138C152.589 139.1 153.295 140 153.57 140C153.845 140 153.589 139.1 153 138C152.411 136.9 151.705 136 151.43 136C151.155 136 151.411 136.9 152 138ZM184.586 143.75C186.113 146.363 188.818 150.975 190.597 154C193.493 158.924 193.658 159.598 192.166 160.432C191.25 160.944 186.608 163.695 181.851 166.544L173.202 171.725L165.455 158.863C161.195 151.788 157.523 146 157.295 146C156.768 146 156.298 145.167 165.917 161.265C170.869 169.554 174.573 174.764 175.225 174.361C175.847 173.976 176.023 174.154 175.638 174.777C174.486 176.64 179.208 179 184.088 179C193.825 179 199.775 169.349 195.37 160.7C192.64 155.341 182.785 139 182.282 139C182.022 139 183.059 141.137 184.586 143.75ZM155 143C155.589 144.1 156.295 145 156.57 145C156.845 145 156.589 144.1 156 143C155.411 141.9 154.705 141 154.43 141C154.155 141 154.411 141.9 155 143Z" fill="#09808D"/>
<path fill-rule="evenodd" clip-rule="evenodd" d="M122.692 129.75C122.458 130.162 121.505 132.834 120.574 135.686C118.938 140.7 118.692 140.936 113.191 142.769C106.094 145.134 105.244 147.414 110.673 149.527C118.273 152.484 119.292 153.37 120.999 158.5C122.197 162.1 123.241 163.586 124.729 163.806C126.443 164.06 127.123 163.132 128.71 158.369C130.597 152.71 130.71 152.597 136.369 150.71C141.132 149.123 142.06 148.443 141.806 146.729C141.586 145.241 140.1 144.197 136.5 142.999C131.38 141.295 130.477 140.26 127.559 132.75C126.239 129.352 123.779 127.836 122.692 129.75Z" fill="white"/>
</svg>
