<svg version="1.1" id="Layer_1" xmlns="http://www.w3.org/2000/svg" xmlns:xlink="http://www.w3.org/1999/xlink" x="0px" y="0px"
	 width="100%" viewBox="0 0 64 64" enable-background="new 0 0 64 64" xml:space="preserve">
<path fill="#12122B" opacity="1.000000" stroke="none" 
	d="
M1.000000,48.000000 
	C1.000000,38.312439 1.000000,28.624876 1.328814,18.386154 
	C6.209610,11.785472 10.937990,5.938076 18.079592,2.671673 
	C18.544085,2.459224 18.700356,1.572875 19.000000,1.000000 
	C28.020895,1.000000 37.041790,1.000000 46.615547,1.330482 
	C53.791653,5.960679 59.886848,10.814647 64.086624,17.680429 
	C64.216949,17.893475 64.687866,17.898170 65.000000,18.000000 
	C65.000000,27.687561 65.000000,37.375122 64.671188,47.613827 
	C59.779419,54.202904 55.059967,60.060352 47.919456,63.328053 
	C47.455166,63.540531 47.299324,64.427032 47.000000,65.000000 
	C37.979103,65.000000 28.958208,65.000000 19.384581,64.669434 
	C12.221663,60.025311 6.102595,55.196423 1.913172,48.319473 
	C1.783467,48.106564 1.312089,48.101799 1.000000,48.000000 
M33.104263,16.248562 
	C32.381363,17.513952 31.658464,18.779343 31.010555,20.018471 
	C31.010555,20.018471 31.067188,19.962742 30.148314,19.966454 
	C27.099871,19.991444 24.051430,20.016434 20.180235,19.865078 
	C18.794127,19.981867 17.408018,20.098656 15.331179,20.222277 
	C8.169395,24.239132 7.738800,28.790375 13.963765,37.884872 
	C15.153145,42.149902 18.248243,41.846107 22.113892,41.066605 
	C22.490314,41.079567 22.866737,41.092525 22.986696,41.754288 
	C23.560614,42.951874 24.134529,44.149460 24.927834,46.007301 
	C27.567030,49.744400 27.867605,55.518536 34.456978,56.676346 
	C36.350563,56.263790 38.244144,55.851238 40.812538,55.175064 
	C41.929935,53.425526 42.758041,51.369465 44.222343,49.987499 
	C47.740120,46.667515 49.030251,43.238747 45.975143,38.373051 
	C45.955700,38.172424 45.936253,37.971794 46.036156,37.123852 
	C46.662430,35.747967 47.288700,34.372086 48.270512,32.403992 
	C49.476398,30.645664 50.875679,28.987892 51.851959,27.110186 
	C54.797497,21.444952 52.459702,16.544611 45.492889,14.333700 
	C44.335812,14.372164 43.178730,14.410628 41.188808,14.254497 
	C38.659271,14.795164 36.129734,15.335832 33.104263,16.248562 
z"/>
<path fill="#000000" opacity="1.000000" stroke="none" 
	d="
M18.530293,1.000000 
	C18.700356,1.572875 18.544085,2.459224 18.079592,2.671673 
	C10.937990,5.938076 6.209610,11.785472 1.328814,17.917500 
	C1.000000,12.405508 1.000000,6.811016 1.000000,1.000000 
	C6.685597,1.000000 12.373091,1.000000 18.530293,1.000000 
z"/>
<path fill="#000000" opacity="1.000000" stroke="none" 
	d="
M47.469711,65.000000 
	C47.299324,64.427032 47.455166,63.540531 47.919456,63.328053 
	C55.059967,60.060352 59.779419,54.202904 64.671188,48.082485 
	C65.000000,53.594494 65.000000,59.188984 65.000000,65.000000 
	C59.314404,65.000000 53.626911,65.000000 47.469711,65.000000 
z"/>
<path fill="#000000" opacity="1.000000" stroke="none" 
	d="
M1.000000,48.470451 
	C1.312089,48.101799 1.783467,48.106564 1.913172,48.319473 
	C6.102595,55.196423 12.221663,60.025311 18.915924,64.669434 
	C13.076679,65.000000 7.153358,65.000000 1.000000,65.000000 
	C1.000000,59.649143 1.000000,54.295025 1.000000,48.470451 
z"/>
<path fill="#000000" opacity="1.000000" stroke="none" 
	d="
M65.000000,17.529547 
	C64.687866,17.898170 64.216949,17.893475 64.086624,17.680429 
	C59.886848,10.814647 53.791653,5.960679 47.084202,1.330482 
	C52.923321,1.000000 58.846638,1.000000 65.000000,1.000000 
	C65.000000,6.350857 65.000000,11.704975 65.000000,17.529547 
z"/>
<path fill="#161330" opacity="1.000000" stroke="none" 
	d="
M45.916809,37.771164 
	C45.936253,37.971794 45.955700,38.172424 45.622208,38.684330 
	C43.512859,39.894623 41.756443,40.793633 39.582397,41.580910 
	C37.447948,41.569614 35.731121,41.670048 33.592525,41.639618 
	C30.830889,41.579826 28.491026,41.650902 25.805229,41.579651 
	C24.720585,41.326710 23.981873,41.216099 23.243160,41.105484 
	C22.866737,41.092525 22.490314,41.079567 21.867428,40.658386 
	C21.824020,38.202396 22.027075,36.154629 22.487885,33.892502 
	C25.519493,29.106342 28.293341,24.534542 31.067188,19.962742 
	C31.067188,19.962742 31.010555,20.018471 31.324287,19.980980 
	C32.758354,20.297995 33.878685,20.652498 35.185661,21.290710 
	C37.154625,24.287659 38.936943,27.000896 40.793812,30.029350 
	C42.551178,32.820099 44.233994,35.295631 45.916809,37.771164 
z"/>
<path fill="#C12AE7" opacity="1.000000" stroke="none" 
	d="
M26.151161,41.721973 
	C28.491026,41.650902 30.830889,41.579826 33.588730,42.056660 
	C33.969852,47.170837 33.932995,51.737110 33.896141,56.303383 
	C27.867605,55.518536 27.567030,49.744400 24.973993,45.389206 
	C25.397156,43.754734 25.774158,42.738354 26.151161,41.721973 
z"/>
<path fill="#A01DDC" opacity="1.000000" stroke="none" 
	d="
M22.230127,34.106861 
	C22.027075,36.154629 21.824020,38.202396 21.585068,40.649506 
	C18.248243,41.846107 15.153145,42.149902 14.179997,37.263268 
	C14.926817,34.976654 15.809521,33.333897 15.916405,31.642120 
	C16.156227,27.846157 16.010603,24.025845 16.021910,20.215445 
	C17.408018,20.098656 18.794127,19.981867 20.505392,20.352917 
	C19.976530,25.402107 18.586521,30.020008 22.230127,34.106861 
z"/>
<path fill="#EA39F5" opacity="1.000000" stroke="none" 
	d="
M46.084618,14.706073 
	C52.459702,16.544611 54.797497,21.444952 51.851959,27.110186 
	C50.875679,28.987892 49.476398,30.645664 47.753838,32.519325 
	C46.852978,26.658461 46.468796,20.682266 46.084618,14.706073 
z"/>
<path fill="#E136F2" opacity="1.000000" stroke="none" 
	d="
M45.788754,14.519886 
	C46.468796,20.682266 46.852978,26.658461 47.576065,32.815430 
	C47.288700,34.372086 46.662430,35.747967 45.976482,37.447510 
	C44.233994,35.295631 42.551178,32.820099 40.913589,29.576244 
	C41.313095,24.021645 41.667374,19.235369 42.021652,14.449092 
	C43.178730,14.410628 44.335812,14.372164 45.788754,14.519886 
z"/>
<path fill="#D030ED" opacity="1.000000" stroke="none" 
	d="
M34.176559,56.489864 
	C33.932995,51.737110 33.969852,47.170837 34.010506,42.187523 
	C35.731121,41.670048 37.447948,41.569614 39.581295,42.003445 
	C40.044456,46.838036 40.091091,51.138359 40.137730,55.438683 
	C38.244144,55.851238 36.350563,56.263790 34.176559,56.489864 
z"/>
<path fill="#A922DC" opacity="1.000000" stroke="none" 
	d="
M22.487885,33.892502 
	C18.586521,30.020008 19.976530,25.402107 20.916767,20.441090 
	C24.051430,20.016434 27.099871,19.991444 30.607752,19.964598 
	C28.293341,24.534542 25.519493,29.106342 22.487885,33.892502 
z"/>
<path fill="#9019D3" opacity="1.000000" stroke="none" 
	d="
M15.676544,20.218861 
	C16.010603,24.025845 16.156227,27.846157 15.916405,31.642120 
	C15.809521,33.333897 14.926817,34.976654 14.064916,36.874863 
	C7.738800,28.790375 8.169395,24.239132 15.676544,20.218861 
z"/>
<path fill="#D732EF" opacity="1.000000" stroke="none" 
	d="
M41.605232,14.351794 
	C41.667374,19.235369 41.313095,24.021645 40.839039,29.261028 
	C38.936943,27.000896 37.154625,24.287659 35.181206,20.891575 
	C34.526802,18.764650 34.063499,17.320574 33.600197,15.876499 
	C36.129734,15.335832 38.659271,14.795164 41.605232,14.351794 
z"/>
<path fill="#DA34EE" opacity="1.000000" stroke="none" 
	d="
M40.475136,55.306873 
	C40.091091,51.138359 40.044456,46.838036 39.998924,42.115177 
	C41.756443,40.793633 43.512859,39.894623 45.638123,38.986267 
	C49.030251,43.238747 47.740120,46.667515 44.222343,49.987499 
	C42.758041,51.369465 41.929935,53.425526 40.475136,55.306873 
z"/>
<path fill="#B82BD6" opacity="1.000000" stroke="none" 
	d="
M33.352230,16.062531 
	C34.063499,17.320574 34.526802,18.764650 34.994560,20.607862 
	C33.878685,20.652498 32.758354,20.297995 31.286793,19.994114 
	C31.658464,18.779343 32.381363,17.513952 33.352230,16.062531 
z"/>
<path fill="#9923C2" opacity="1.000000" stroke="none" 
	d="
M25.805229,41.579651 
	C25.774158,42.738354 25.397156,43.754734 24.864300,45.059082 
	C24.134529,44.149460 23.560614,42.951874 23.114929,41.429886 
	C23.981873,41.216099 24.720585,41.326710 25.805229,41.579651 
z"/>
</svg>