<svg width="64" height="65" viewBox="0 0 64 65" fill="none" xmlns="http://www.w3.org/2000/svg">
<path fill-rule="evenodd" clip-rule="evenodd" d="M17.207 3.584C11.612 6.372 5.319 12.807 2.352 18.775C-0.300001 24.11 -0.300001 41.89 2.352 47.225C5.319 53.193 11.612 59.628 17.207 62.416C21.701 64.656 23.674 65 32 65C40.326 65 42.299 64.656 46.793 62.416C52.388 59.628 58.681 53.193 61.648 47.225C64.3 41.89 64.3 24.11 61.648 18.775C58.681 12.807 52.388 6.372 46.793 3.584C39.215 -0.192001 24.785 -0.192001 17.207 3.584Z" fill="#E436F6"/>
<path fill-rule="evenodd" clip-rule="evenodd" d="M17.207 3.584C11.612 6.372 5.319 12.807 2.352 18.775C-0.300001 24.11 -0.300001 41.89 2.352 47.225C5.319 53.193 11.612 59.628 17.207 62.416C21.701 64.656 23.674 65 32 65C40.326 65 42.299 64.656 46.793 62.416C52.388 59.628 58.681 53.193 61.648 47.225C64.3 41.89 64.3 24.11 61.648 18.775C58.681 12.807 52.388 6.372 46.793 3.584C39.215 -0.192001 24.785 -0.192001 17.207 3.584ZM47.929 15.962C48.917 16.491 50.258 18.208 50.908 19.778C52.28 23.089 51.593 25.447 47.201 32.503L44.281 37.194L40.538 30.502C37.961 25.894 36.75 22.438 36.648 19.404L36.5 14.998L41.316 14.999C43.964 15 46.94 15.433 47.929 15.962ZM45.978 41.959C46.829 43.548 46.357 44.967 43.483 49.459C41.533 52.507 39.764 55 39.551 55C39.338 55 38.564 55.23 37.832 55.511C36.801 55.907 36.5 54.439 36.5 49.011C36.5 42.672 36.692 41.999 38.5 41.985C39.6 41.976 41.175 41.533 42 41C44.16 39.604 44.801 39.759 45.978 41.959Z" fill="#C22AEA"/>
<path fill-rule="evenodd" clip-rule="evenodd" d="M17.207 3.584C11.612 6.372 5.319 12.807 2.352 18.775C-0.300001 24.11 -0.300001 41.89 2.352 47.225C5.319 53.193 11.612 59.628 17.207 62.416C21.701 64.656 23.674 65 32 65C40.326 65 42.299 64.656 46.793 62.416C52.388 59.628 58.681 53.193 61.648 47.225C64.3 41.89 64.3 24.11 61.648 18.775C58.681 12.807 52.388 6.372 46.793 3.584C39.215 -0.192001 24.785 -0.192001 17.207 3.584ZM49.927 17.635C51.067 19.084 52 21.178 52 22.289C52 24.978 45.12 37.192 43.996 36.498C43.511 36.198 41.224 32.529 38.915 28.345C36.592 24.137 33.885 20.521 32.858 20.253C30.699 19.688 30.656 19.512 32.035 16.934C32.915 15.29 34.178 15 40.463 15C47.257 15 48.022 15.213 49.927 17.635ZM27.602 22.75C26.805 24.262 25.541 26.316 24.794 27.313C23.587 28.923 23.478 28.678 23.817 25.117C24.173 21.392 24.854 20.628 28.276 20.116C28.702 20.052 28.399 21.238 27.602 22.75ZM44.893 47.793C40.987 54.325 38.964 56 34.981 56C32.729 56 30.724 55.323 29.794 54.25C28.03 52.214 23 43.635 23 42.662C23 42.298 26.712 41.993 31.25 41.985C36.043 41.977 40.548 41.426 42 40.67C44.266 39.492 44.622 39.591 45.805 41.728C46.941 43.783 46.824 44.565 44.893 47.793Z" fill="#A11DDD"/>
<path fill-rule="evenodd" clip-rule="evenodd" d="M17.207 3.584C11.612 6.372 5.319 12.807 2.352 18.775C-0.300001 24.11 -0.300001 41.89 2.352 47.225C5.319 53.193 11.612 59.628 17.207 62.416C21.701 64.656 23.674 65 32 65C40.326 65 42.299 64.656 46.793 62.416C52.388 59.628 58.681 53.193 61.648 47.225C64.3 41.89 64.3 24.11 61.648 18.775C58.681 12.807 52.388 6.372 46.793 3.584C39.215 -0.192001 24.785 -0.192001 17.207 3.584ZM48.923 16.589C53.105 20.108 52.971 23.874 48.392 31.5C46.41 34.8 44.664 37.635 44.511 37.8C44.358 37.965 42.193 34.564 39.7 30.242C34.774 21.701 32.765 19.492 30.659 20.301C28.38 21.175 19.72 36.822 20.296 39.025C20.723 40.657 20.308 41 17.908 41C15.528 41 14.465 40.142 12.021 36.25C8.288 30.306 8.103 25.806 11.455 22.455C13.651 20.258 14.749 20 21.898 20C29.714 20 29.925 19.935 31.659 17C33.325 14.179 33.802 14 39.639 14C44.858 14 46.336 14.412 48.923 16.589ZM46.385 42.168C47.108 44.213 46.613 45.702 43.683 50.282C40.769 54.837 39.447 56.013 36.652 56.537C34.728 56.898 32.3 56.696 31.145 56.078C28.974 54.916 21.546 43.121 22.429 42.237C22.712 41.955 27.242 41.499 32.497 41.225C37.752 40.95 42.307 40.313 42.618 39.81C43.546 38.307 45.439 39.492 46.385 42.168Z" fill="#301749"/>
<path fill-rule="evenodd" clip-rule="evenodd" d="M17.207 3.584C11.612 6.372 5.319 12.807 2.352 18.775C-0.300001 24.11 -0.300001 41.89 2.352 47.225C5.319 53.193 11.612 59.628 17.207 62.416C21.701 64.656 23.674 65 32 65C40.326 65 42.299 64.656 46.793 62.416C52.388 59.628 58.681 53.193 61.648 47.225C64.3 41.89 64.3 24.11 61.648 18.775C58.681 12.807 52.388 6.372 46.793 3.584C39.215 -0.192001 24.785 -0.192001 17.207 3.584ZM49.288 16.012C53.78 19.545 53.738 23.172 49.116 31.156C45.179 37.955 45.096 38.284 46.576 41.146C48.041 43.98 47.97 44.328 44.914 49.295C40.898 55.822 39.425 56.929 34.705 56.968C30.225 57.006 27.839 54.874 23.75 47.176C21.297 42.557 20.648 42 17.731 42C14.776 42 14.151 41.435 11.231 36.123C7.371 29.102 7.19 26.053 10.413 22.306C12.649 19.707 13.456 19.474 21.364 19.149C29.076 18.833 30.054 18.567 31.474 16.399C32.88 14.254 33.77 14 39.888 14C45.23 14 47.291 14.441 49.288 16.012ZM29.268 22.25C26.238 26.13 21 36.457 21 38.554C21 40.976 21.094 41 30.418 41C44.775 41 45.061 40.674 39.358 30.804C33.726 21.056 31.605 19.258 29.268 22.25Z" fill="#101229"/>
</svg>
