<svg width="250" height="250" viewBox="0 0 250 250" fill="none" xmlns="http://www.w3.org/2000/svg">
<path fill-rule="evenodd" clip-rule="evenodd" d="M0 125V250H125H250V125V0H125H0V125Z" fill="#E69DBB"/>
<path fill-rule="evenodd" clip-rule="evenodd" d="M0 125V250H125H250V125V0H125H0V125ZM158.729 71.604C158.397 71.936 157.534 71.972 156.813 71.683C156.015 71.364 156.252 71.127 157.417 71.079C158.471 71.036 159.061 71.272 158.729 71.604ZM186.729 72.604C186.397 72.936 185.534 72.972 184.813 72.683C184.015 72.364 184.252 72.127 185.417 72.079C186.471 72.036 187.061 72.272 186.729 72.604ZM142.269 73.656C141.592 73.93 140.242 73.947 139.269 73.693C138.296 73.439 138.85 73.215 140.5 73.195C142.15 73.175 142.946 73.382 142.269 73.656ZM130.5 87C131.819 87.567 131.989 87.878 131 87.914C130.175 87.945 128.825 87.533 128 87C126.172 85.819 127.751 85.819 130.5 87ZM195.25 89.662C194.563 89.94 193.438 89.94 192.75 89.662C192.063 89.385 192.625 89.158 194 89.158C195.375 89.158 195.938 89.385 195.25 89.662ZM43.683 105.188C43.364 105.985 43.127 105.748 43.079 104.583C43.036 103.529 43.272 102.939 43.604 103.271C43.936 103.603 43.972 104.466 43.683 105.188ZM99.128 111.75C100.371 113.336 100.336 113.371 98.75 112.128C97.084 110.821 96.555 110 97.378 110C97.585 110 98.373 110.787 99.128 111.75ZM185.5 113C185.883 113.619 184.097 113.994 180.809 113.985C177.012 113.974 175.927 113.693 177 113C178.971 111.726 184.713 111.726 185.5 113ZM123.917 115.644C124.146 115.84 122.432 116 120.108 116C117.641 116 116.131 115.597 116.48 115.033C117.001 114.19 122.771 114.664 123.917 115.644ZM127.729 115.604C127.397 115.936 126.534 115.972 125.813 115.683C125.015 115.364 125.252 115.127 126.417 115.079C127.471 115.036 128.061 115.272 127.729 115.604ZM43.693 121.731C43.439 122.704 43.215 122.15 43.195 120.5C43.175 118.85 43.382 118.054 43.656 118.731C43.93 119.408 43.947 120.758 43.693 121.731ZM93 119.378C93 119.585 92.213 120.373 91.25 121.128C89.664 122.371 89.629 122.336 90.872 120.75C92.179 119.084 93 118.555 93 119.378ZM97.667 122.333C97.667 123.067 97.074 123.667 96.349 123.667C95.365 123.667 95.311 123.33 96.138 122.333C96.747 121.6 97.34 121 97.456 121C97.572 121 97.667 121.6 97.667 122.333ZM165.867 132.576C166.069 132.755 166.453 134.841 166.72 137.212C167.094 140.524 166.747 142.091 165.224 143.972C163.524 146.072 162.207 146.479 155.998 146.83C145.835 147.405 142.377 145.98 134.573 138.003L127.991 131.275L146.746 131.763C157.061 132.031 165.665 132.397 165.867 132.576ZM145.326 155.988C145.78 156.408 144.986 156.529 143.561 156.256C142.136 155.984 140.696 155.317 140.36 154.773C139.68 153.673 143.952 154.718 145.326 155.988ZM207.683 158.188C207.364 158.985 207.127 158.748 207.079 157.583C207.036 156.529 207.272 155.939 207.604 156.271C207.936 156.603 207.972 157.466 207.683 158.188ZM155.269 157.656C154.592 157.93 153.242 157.947 152.269 157.693C151.296 157.439 151.85 157.215 153.5 157.195C155.15 157.175 155.946 157.382 155.269 157.656ZM175.137 158.788C174.415 159.028 173.35 158.75 172.768 158.168C172.026 157.426 172.417 157.296 174.08 157.731C175.432 158.085 175.886 158.538 175.137 158.788ZM161.269 158.656C160.592 158.93 159.242 158.947 158.269 158.693C157.296 158.439 157.85 158.215 159.5 158.195C161.15 158.175 161.946 158.382 161.269 158.656ZM207.683 164.188C207.364 164.985 207.127 164.748 207.079 163.583C207.036 162.529 207.272 161.939 207.604 162.271C207.936 162.603 207.972 163.466 207.683 164.188ZM82 167.345C82 167.535 80.987 168.547 79.75 169.595L77.5 171.5L79.405 169.25C81.195 167.136 82 166.545 82 167.345ZM40.683 170.188C40.364 170.985 40.127 170.748 40.079 169.583C40.036 168.529 40.272 167.939 40.604 168.271C40.936 168.603 40.972 169.466 40.683 170.188ZM120.729 179.604C120.397 179.936 119.534 179.972 118.813 179.683C118.015 179.364 118.252 179.127 119.417 179.079C120.471 179.036 121.061 179.272 120.729 179.604Z" fill="#F4C64E"/>
<path fill-rule="evenodd" clip-rule="evenodd" d="M0 125V250H125H250V125V0H125H0V125ZM163.264 68.704C162.034 68.941 159.784 68.947 158.264 68.718C156.744 68.488 157.75 68.294 160.5 68.286C163.25 68.279 164.494 68.467 163.264 68.704ZM122.264 69.704C121.034 69.941 118.784 69.947 117.264 69.718C115.744 69.488 116.75 69.294 119.5 69.286C122.25 69.279 123.494 69.467 122.264 69.704ZM153.729 69.604C153.397 69.936 152.534 69.972 151.813 69.683C151.015 69.364 151.252 69.127 152.417 69.079C153.471 69.036 154.061 69.272 153.729 69.604ZM130.729 70.604C130.397 70.936 129.534 70.972 128.813 70.683C128.015 70.364 128.252 70.127 129.417 70.079C130.471 70.036 131.061 70.272 130.729 70.604ZM74.729 71.604C74.397 71.936 73.534 71.972 72.813 71.683C72.015 71.364 72.252 71.127 73.417 71.079C74.471 71.036 75.061 71.272 74.729 71.604ZM172.253 74.316C175.139 75.669 179.075 78.158 181 79.847L184.5 82.919L181.144 82.959C174.189 83.044 156 89.033 156 91.24C156 92.293 156.523 92.195 167.5 89.093C175.356 86.873 186.441 86.532 192.386 88.327C195.876 89.38 195.06 89.505 184.386 89.545C172.319 89.591 165.081 91.295 159.442 95.419C156.093 97.867 158.73 98.362 163.72 96.221C171.546 92.862 179.821 91.79 189.012 92.942C196.125 93.834 204.747 96.587 203.702 97.632C203.498 97.835 199.699 97.513 195.26 96.916C181.983 95.129 157.986 99.117 157.192 103.242C156.682 105.89 164.507 113.542 170.253 116.013C174.753 117.95 176.547 118.171 183.48 117.646C187.891 117.312 192.625 116.789 194 116.484C195.598 116.129 197.724 116.69 199.892 118.037C202.789 119.836 203.081 120.346 201.892 121.531C199.317 124.097 188.614 125.949 171 126.875C147.19 128.128 125.084 126.541 108.215 122.37C102.45 120.944 101.723 120.952 99.421 122.46C95.813 124.824 94.71 128.379 96.369 132.298C98.275 136.801 100.247 138.285 111.016 143.323C122.575 148.729 129.743 151.353 141.506 154.484C151.623 157.178 150.772 157.846 140.312 155.421C131.717 153.429 110.892 146.496 105.985 143.993C98.437 140.142 93 133.944 93 129.189C93 128.139 94.125 125.621 95.5 123.595C98.38 119.352 98.578 118.159 96.533 117.374C95.673 117.044 94.032 117.987 92.565 119.656L90.063 122.5L90.032 115.079C90.01 109.981 90.451 107.159 91.442 106.064C93.283 104.029 95.095 96.177 93.895 95.435C92.509 94.579 91 95.916 91 98C91 101.873 89.105 100.879 88.809 96.851C88.639 94.543 87.996 92.49 87.381 92.288C86.585 92.027 86.103 99.085 85.713 116.71C85.001 148.932 82.564 161.509 75.845 167.64C70.597 172.428 54.136 178.46 48.596 177.625C45.894 177.217 43 173.271 43 169.995C43 168.463 43.996 164.126 45.213 160.355C47.648 152.812 48.051 140.213 46.378 124C45.226 112.85 46.339 100.406 49.052 94.101C51.55 88.294 59.552 80.261 66.077 77.01C68.643 75.731 73.252 74.586 77.057 74.283C82.711 73.831 84.377 74.12 89.154 76.379C92.2 77.821 95.156 79 95.722 79C96.288 79 99.254 77.893 102.313 76.54C115.341 70.778 130.464 71.037 142.654 77.229C149.117 80.512 152.331 80.312 148.108 76.889C146.793 75.823 145.893 74.78 146.108 74.571C146.324 74.363 148.75 73.479 151.5 72.607C157.986 70.551 165.55 71.173 172.253 74.316ZM143.341 73.25C142.742 74.229 138.844 74.188 137.268 73.187C136.558 72.736 137.681 72.424 139.918 72.452C142.053 72.478 143.594 72.838 143.341 73.25ZM186.762 72.687C185.806 72.937 184.006 72.946 182.762 72.707C181.518 72.468 182.3 72.263 184.5 72.252C186.7 72.241 187.718 72.437 186.762 72.687ZM68 73.393C68 73.609 67.302 74.054 66.448 74.382C65.558 74.723 65.157 74.555 65.507 73.989C66.094 73.038 68 72.583 68 73.393ZM102 73.393C102 73.609 101.302 74.054 100.448 74.382C99.558 74.723 99.157 74.555 99.507 73.989C100.094 73.038 102 72.583 102 73.393ZM193 74C193.825 74.533 194.05 74.969 193.5 74.969C192.95 74.969 191.825 74.533 191 74C190.175 73.467 189.95 73.031 190.5 73.031C191.05 73.031 192.175 73.467 193 74ZM96.729 75.604C96.397 75.936 95.534 75.972 94.813 75.683C94.015 75.364 94.252 75.127 95.417 75.079C96.471 75.036 97.061 75.272 96.729 75.604ZM192.425 77.266C195.768 79.169 199.676 83.818 199.927 86.191C199.967 86.571 198.762 86.236 197.25 85.447C195.738 84.658 193.94 84.01 193.256 84.006C192.572 84.003 189.958 81.975 187.447 79.5L182.882 75L185.691 75.016C187.236 75.025 190.266 76.038 192.425 77.266ZM197.5 77C198.495 78.1 199.085 79 198.81 79C198.535 79 197.495 78.1 196.5 77C195.505 75.9 194.915 75 195.19 75C195.465 75 196.505 75.9 197.5 77ZM56 80.345C56 80.535 54.987 81.547 53.75 82.595L51.5 84.5L53.405 82.25C55.195 80.136 56 79.545 56 80.345ZM113.863 83.858C107.615 85.915 99 91.602 99 93.67C99 95.609 100.184 95.319 104.056 92.431C110.946 87.29 120.869 84.918 128.664 86.547L132.5 87.349L126.5 88.091C118.967 89.021 110.412 92.195 104.324 96.317C99.78 99.394 97.736 102 99.867 102C100.435 102 102.835 100.722 105.2 99.159C111.914 94.725 117.826 92.82 126.5 92.297C135.053 91.782 139.949 93.076 143.251 96.724C144.918 98.567 144.732 98.603 135.813 98.177C130.755 97.935 123.5 98.3 119.583 98.993C110.663 100.571 96 105.797 96 107.398C96 109.23 101.939 114.49 107 117.142C110.869 119.169 112.902 119.496 121.5 119.474C132.708 119.444 137.571 118.315 143.748 114.31C150.979 109.622 152.844 102.831 148.529 96.898C147.17 95.029 144.893 91.778 143.468 89.674C142.005 87.512 139.273 85.174 137.189 84.3C131.419 81.88 120.501 81.674 113.863 83.858ZM50 87.378C50 87.585 49.212 88.373 48.25 89.128C46.664 90.371 46.629 90.336 47.872 88.75C49.179 87.084 50 86.555 50 87.378ZM43.693 104.731C43.439 105.704 43.215 105.15 43.195 103.5C43.175 101.85 43.382 101.054 43.656 101.731C43.93 102.408 43.947 103.758 43.693 104.731ZM189 102.214C189 103.236 186.264 103.236 185.632 102.214C185.365 101.782 186.014 101.429 187.073 101.429C188.133 101.429 189 101.782 189 102.214ZM209.683 103.188C209.364 103.985 209.127 103.748 209.079 102.583C209.036 101.529 209.272 100.939 209.604 101.271C209.936 101.603 209.972 102.466 209.683 103.188ZM202.729 102.604C202.397 102.936 201.534 102.972 200.813 102.683C200.015 102.364 200.252 102.127 201.417 102.079C202.471 102.036 203.061 102.272 202.729 102.604ZM128.75 103.689C127.787 103.941 127 104.639 127 105.24C127 105.841 126.73 106.063 126.4 105.733C125.401 104.734 127.005 102.992 128.809 103.116C130.334 103.221 130.328 103.277 128.75 103.689ZM191.5 110C191.16 110.55 190.346 110.993 189.691 110.985C188.975 110.975 189.099 110.582 190 110C191.921 108.758 192.267 108.758 191.5 110ZM136 110.378C136 110.585 135.213 111.373 134.25 112.128C132.664 113.371 132.629 113.336 133.872 111.75C135.179 110.084 136 109.555 136 110.378ZM190.795 112.526C191.183 112.949 190.488 113.046 189.251 112.742C188.014 112.437 186.75 112.596 186.442 113.094C185.574 114.499 176.291 114.2 175.734 112.75C175.374 111.812 177.108 111.532 182.672 111.629C186.752 111.699 190.408 112.103 190.795 112.526ZM42.683 114.188C42.364 114.985 42.127 114.748 42.079 113.583C42.036 112.529 42.272 111.939 42.604 112.271C42.936 112.603 42.972 113.466 42.683 114.188ZM132.5 114C132.845 114.558 132.097 114.993 130.809 114.985C128.951 114.972 128.793 114.78 130 114C131.861 112.798 131.757 112.798 132.5 114ZM123.917 115.644C124.146 115.84 122.432 116 120.108 116C117.641 116 116.131 115.597 116.48 115.033C117.001 114.19 122.771 114.664 123.917 115.644ZM127.729 115.604C127.397 115.936 126.534 115.972 125.813 115.683C125.015 115.364 125.252 115.127 126.417 115.079C127.471 115.036 128.061 115.272 127.729 115.604ZM43.716 125.75C43.487 127.263 43.3 126.025 43.3 123C43.3 119.975 43.487 118.737 43.716 120.25C43.945 121.763 43.945 124.237 43.716 125.75ZM199.607 129.582C199.273 130.452 199 131.902 199 132.804C199 134.076 198.649 133.944 197.442 132.221C195.735 129.783 196.252 128 198.666 128C199.667 128 199.999 128.559 199.607 129.582ZM44.693 133.731C44.439 134.704 44.215 134.15 44.195 132.5C44.175 130.85 44.382 130.054 44.656 130.731C44.93 131.408 44.947 132.758 44.693 133.731ZM194.137 136.5C196.84 142.443 196.522 146.336 193.007 150.339C187.94 156.11 181.317 158.295 168 158.59L156.5 158.844L166 158.04C181.363 156.739 188.171 154.048 192.005 147.759C194.679 143.374 194.513 139.034 191.5 134.595C188.595 130.314 188.323 129.195 190.658 131.128C191.571 131.882 193.136 134.3 194.137 136.5ZM165.867 132.576C166.069 132.755 166.453 134.841 166.72 137.212C167.094 140.524 166.747 142.091 165.224 143.972C163.524 146.072 162.207 146.479 155.998 146.83C145.835 147.405 142.377 145.98 134.573 138.003L127.991 131.275L146.746 131.763C157.061 132.031 165.665 132.397 165.867 132.576ZM98.347 144.821C110.952 153.271 147.87 163.619 167 164.065L171.5 164.17L163.5 168.023C140.43 179.133 116.774 178.561 92.304 166.304C86.765 163.53 85.088 162.226 85.553 161.056C86.716 158.128 88.965 146.504 88.983 143.332C88.992 141.589 89.297 139.389 89.661 138.442C90.236 136.944 90.572 137.065 92.258 139.379C93.323 140.841 96.063 143.29 98.347 144.821ZM203.214 160.017C203.272 163.051 202.784 166.534 202.13 167.757C198.909 173.775 187.639 174.674 179.868 169.532L175.616 166.718L178.558 164.363C180.176 163.067 183.683 161.279 186.352 160.39C191.774 158.581 199.96 151.44 200.07 148.421C200.225 144.199 203.115 154.859 203.214 160.017ZM44.683 153.188C44.364 153.985 44.127 153.748 44.079 152.583C44.036 151.529 44.272 150.939 44.604 151.271C44.936 151.603 44.972 152.466 44.683 153.188ZM207.662 158.25C207.385 158.938 207.158 158.375 207.158 157C207.158 155.625 207.385 155.063 207.662 155.75C207.94 156.438 207.94 157.563 207.662 158.25ZM155.269 157.656C154.592 157.93 153.242 157.947 152.269 157.693C151.296 157.439 151.85 157.215 153.5 157.195C155.15 157.175 155.946 157.382 155.269 157.656ZM207.662 165.25C207.385 165.938 207.158 165.375 207.158 164C207.158 162.625 207.385 162.063 207.662 162.75C207.94 163.438 207.94 164.563 207.662 165.25ZM83 166.313C83 166.485 81.537 167.948 79.75 169.563L76.5 172.5L79.437 169.25C82.175 166.221 83 165.54 83 166.313ZM40.693 170.731C40.439 171.704 40.215 171.15 40.195 169.5C40.175 167.85 40.382 167.054 40.656 167.731C40.93 168.408 40.947 169.758 40.693 170.731ZM43.489 176.623C44.434 178.066 44.713 178.941 44.109 178.567C42.955 177.854 40.626 174 41.35 174C41.581 174 42.543 175.18 43.489 176.623ZM192.269 177.656C191.592 177.93 190.242 177.947 189.269 177.693C188.296 177.439 188.85 177.215 190.5 177.195C192.15 177.175 192.946 177.382 192.269 177.656ZM146.729 178.604C146.397 178.936 145.534 178.972 144.813 178.683C144.015 178.364 144.252 178.127 145.417 178.079C146.471 178.036 147.061 178.272 146.729 178.604ZM120.729 179.604C120.397 179.936 119.534 179.972 118.813 179.683C118.015 179.364 118.252 179.127 119.417 179.079C120.471 179.036 121.061 179.272 120.729 179.604ZM139.729 179.604C139.397 179.936 138.534 179.972 137.813 179.683C137.015 179.364 137.252 179.127 138.417 179.079C139.471 179.036 140.061 179.272 139.729 179.604ZM51.729 181.604C51.397 181.936 50.534 181.972 49.813 181.683C49.015 181.364 49.252 181.127 50.417 181.079C51.471 181.036 52.061 181.272 51.729 181.604Z" fill="#9F8A4B"/>
<path fill-rule="evenodd" clip-rule="evenodd" d="M0 125V250H125H250V125V0H125H0V125ZM166.5 69.067C167.9 69.714 166.849 69.854 163 69.533L157.5 69.073L163.919 70.541C167.45 71.348 172.248 73.127 174.582 74.495C179.755 77.527 185 81.853 185 83.089C185 83.59 182.797 84 180.105 84C174.93 84 164.194 86.983 160 89.586C158.254 90.67 158.103 90.941 159.5 90.484C166.761 88.107 177.091 86 181.478 86C187.318 86 197 88.556 197 90.098C197 90.659 196.568 90.851 196.039 90.524C194.638 89.658 176.996 89.622 173.103 90.477C169.144 91.347 158.576 95.909 159.162 96.496C159.388 96.722 162.707 95.758 166.537 94.354C174.433 91.459 185.338 90.944 194.301 93.042C199.897 94.352 205 96.875 205 98.332C205 98.828 203.762 98.961 202.25 98.628C187.769 95.439 159.118 98.575 158.158 103.454C157.659 105.99 167.031 114.637 171.677 115.927C176.6 117.294 184.553 117.289 190.962 115.915C195.361 114.971 196.446 115.076 199.258 116.719C209.796 122.873 197.304 126.693 163.5 127.652C141.651 128.271 122.146 126.752 109.429 123.44C102.126 121.537 101.045 121.609 98.314 124.174C94.007 128.221 95.848 134.003 102.836 138.376C109.127 142.313 130.047 150.781 140.5 153.622C148.947 155.917 152.597 156.351 164 156.419C176.181 156.492 178.015 156.267 182.773 154.117C185.673 152.806 189.209 150.352 190.631 148.662C192.835 146.043 193.147 144.88 192.751 140.763C192.443 137.557 191.51 135.107 189.973 133.471C187.498 130.836 188.016 128.89 190.736 130.605C193.41 132.292 196.307 138.909 196.407 143.557C196.654 155.044 178.772 162.021 156.634 159.074C137.663 156.55 107.131 146.884 100.066 141.166C92.201 134.8 90.49 129.504 94.425 123.706C98.459 117.762 97.446 115.827 92.755 120.517L90.238 123.035L89.536 115.539C88.924 109.007 89.085 107.686 90.792 105.271C92.967 102.195 94.642 96 93.299 96C92.826 96 91.841 97.463 91.111 99.25L89.783 102.5L88.572 98C87.481 93.946 87.298 95.58 86.726 114.5C85.781 145.74 83.172 160.913 77.738 166.756C72.308 172.596 57.309 178.465 49.42 177.837C44.774 177.468 43.819 178.213 46.75 179.92C47.712 180.481 47.978 180.953 47.339 180.97C45.425 181.02 41.119 175.172 40.529 171.721C40.197 169.785 40.956 164.908 42.428 159.5C44.135 153.23 44.936 151.41 45.067 153.5C45.18 155.299 45.646 153.945 46.232 150.117C47.318 143.025 46.145 125.521 45.017 132C44.486 135.053 44.304 134.606 43.591 128.5C42.589 119.917 42.682 103.505 43.755 99.684C44.219 98.03 44.472 102.779 44.368 111.184L44.191 125.5L44.946 112.416C45.606 100.976 46.059 98.59 48.553 93.416C50.121 90.162 51.611 87.05 51.865 86.5C52.118 85.95 51.647 86.06 50.817 86.744C49.988 87.429 48.494 89.796 47.498 92.004C45.504 96.426 44.34 96.867 45.968 92.584C46.531 91.102 48.648 87.91 50.671 85.489C54.474 80.94 62.747 74.414 63.613 75.28C63.884 75.551 62.619 76.692 60.803 77.816C57.299 79.984 51.108 86 52.38 86C52.794 86 54.779 84.448 56.789 82.551C66.468 73.42 80.333 70.779 90.61 76.109L95.641 78.718L100.071 76.483C104.502 74.247 116.419 71.139 121.697 70.843C123.676 70.732 123.178 70.472 120 69.959C116.602 69.41 117.214 69.332 122.5 69.641C126.35 69.865 132.033 70.757 135.129 71.622C140.473 73.116 141.055 73.092 146.629 71.141C155.868 67.907 162.5 67.215 166.5 69.067ZM112.25 70.662C111.563 70.94 110.438 70.94 109.75 70.662C109.063 70.385 109.625 70.158 111 70.158C112.375 70.158 112.938 70.385 112.25 70.662ZM148 71.646C146.075 72.509 143.375 73.543 142 73.943C139.583 74.648 139.644 74.745 143.847 76.906C146.238 78.134 148.433 78.9 148.726 78.607C149.019 78.314 148.075 77.536 146.629 76.877C145.183 76.218 144 75.362 144 74.975C144 74.278 150.658 71.558 154.5 70.686C156.1 70.323 156 70.217 154 70.155C152.625 70.113 149.925 70.784 148 71.646ZM173.73 71.532C176.139 72.538 178.809 72.851 181.519 72.445C188.2 71.443 193.902 73.557 198.75 78.832C204.766 85.379 204.029 85.725 197.652 79.348C194.02 75.716 191.534 74.025 189.902 74.079C187.701 74.151 187.751 74.246 190.5 75.209C194.56 76.633 196.841 78.772 199.176 83.347C201.464 87.829 201.047 88.846 197.842 86.602C196.584 85.721 194.745 85 193.755 85C192.766 85 189.52 82.525 186.543 79.5C183.125 76.026 180.277 73.99 178.815 73.974C177.542 73.959 174.7 73.096 172.5 72.055C167.673 69.771 168.586 69.382 173.73 71.532ZM88.782 72.619C90.827 73.51 93.85 74.589 95.5 75.017C97.781 75.609 97.981 75.82 96.333 75.898C95.141 75.954 92.066 75.1 89.5 74C84.003 71.644 75.356 71.427 69.538 73.499C67.359 74.275 65.384 74.718 65.15 74.483C64.915 74.248 65.798 73.658 67.111 73.172C68.425 72.685 70.175 72.033 71 71.723C74.252 70.499 85.178 71.049 88.782 72.619ZM104.101 73.04C101.682 74.137 99.492 74.825 99.235 74.568C98.657 73.99 104.943 71.185 107 71.104C107.825 71.071 106.52 71.942 104.101 73.04ZM113.321 84.789C107.625 86.83 101.311 90.779 100.533 92.786C100.259 93.493 101.995 92.724 104.39 91.076C106.785 89.428 111.517 87.309 114.904 86.367C120.105 84.921 122.167 84.825 128.157 85.753C138.149 87.299 139.314 89 130.382 89C122.182 89 114.552 91.022 107.367 95.1C99.743 99.427 98.556 101.75 106.054 97.671C118.325 90.996 130.486 89.201 138.5 92.881C142.361 94.654 146.77 98.563 145.895 99.438C145.661 99.673 142.464 99.492 138.791 99.036C135.119 98.581 128.6 98.601 124.307 99.081C115.214 100.098 97 105.658 97 107.417C97 109.291 100.539 112.645 105.749 115.707C110.206 118.327 111.213 118.5 122 118.5C131.885 118.5 134.2 118.177 138.488 116.201C144.607 113.38 147.829 110.506 149.642 106.25C150.819 103.489 150.82 102.511 149.651 99.75C148.895 97.963 147.268 95.601 146.036 94.502C144.803 93.404 143.159 91.274 142.381 89.769C140.261 85.67 135.679 83.809 126.563 83.344C120.432 83.032 117.259 83.378 113.321 84.789ZM203.683 88.188C203.364 88.985 203.127 88.748 203.079 87.583C203.036 86.529 203.272 85.939 203.604 86.271C203.936 86.603 203.972 87.466 203.683 88.188ZM207.878 97.947C210.194 102.305 210.206 102.462 208.464 105.697C207.485 107.514 206.292 109 205.813 109C205.333 109 205.956 107.625 207.198 105.945L209.457 102.891L206.728 97.68C205.228 94.813 204.045 91.8 204.1 90.984C204.161 90.077 204.455 90.278 204.857 91.5C205.218 92.6 206.578 95.501 207.878 97.947ZM190 102.106C190 102.598 188.875 103 187.5 103C184.242 103 184.243 101.544 187.501 101.356C188.875 101.276 190 101.614 190 102.106ZM205.437 103.065C206.903 104.488 202.416 108.575 196.676 111.044C193.421 112.444 188.621 113.432 183.525 113.749C176.703 114.173 174.807 113.922 170.877 112.074C165.468 109.53 161.184 105.402 162.563 104.065C164.15 102.525 171 101.618 171 102.948C171 103.591 170.596 103.868 170.103 103.563C169.609 103.258 167.833 103.283 166.155 103.619C163.227 104.205 163.165 104.322 164.614 106.534C166.018 108.676 174.742 113.592 175.606 112.727C175.818 112.515 174.869 111.286 173.496 109.996C172.123 108.707 171.002 106.942 171.004 106.076C171.006 105.185 171.844 105.872 172.931 107.655C177.105 114.5 190.394 112.532 195.218 104.354C197.147 101.085 197.554 100.88 200.898 101.494C202.879 101.858 204.922 102.565 205.437 103.065ZM146.447 104.075C148.021 105.602 143.805 110.295 138.452 112.975C134.352 115.027 131.802 115.495 123.504 115.721C117.369 115.888 114.273 115.665 115.5 115.144C117.442 114.32 117.435 114.275 115.249 113.58C113.04 112.878 110.364 109.302 111.328 108.339C111.597 108.07 112.105 108.754 112.456 109.86C113.376 112.76 120.995 115.451 125.741 114.553C127.808 114.162 130.85 113.731 132.5 113.595C137.132 113.214 142.664 110.442 144.558 107.552C146.552 104.508 146.52 104.452 142.25 103.537C139.847 103.023 139 103.192 139 104.188C139 106.048 134.168 113 132.875 113C132.296 113 132.987 111.615 134.411 109.923C135.835 108.231 137.284 105.716 137.631 104.336C138.201 102.063 138.601 101.889 141.88 102.491C143.871 102.857 145.926 103.569 146.447 104.075ZM196.509 103.971C195.73 106.426 191.051 111 189.319 111C188.659 111 187.87 111.401 187.567 111.892C186.589 113.474 195.348 110.975 199.698 108.431C206.154 104.656 206.245 103.824 200.337 102.557C197.683 101.988 197.066 102.216 196.509 103.971ZM131.5 105C131.5 107.253 126.615 106.955 126.176 104.675C125.892 103.2 126.368 102.912 128.662 103.175C130.374 103.371 131.5 104.095 131.5 105ZM127 105C127 105.55 127.9 106 129 106C130.1 106 131 105.55 131 105C131 104.45 130.1 104 129 104C127.9 104 127 104.45 127 105ZM111 106.059C111 106.641 110.616 106.881 110.147 106.591C109.128 105.961 103 108.138 103 109.13C103 109.51 105.338 110.986 108.196 112.411C111.054 113.835 112.781 115 112.034 115C110.073 115 102 110.1 102 108.91C102 107.872 107.533 105.109 109.75 105.039C110.438 105.018 111 105.477 111 106.059ZM205.294 114.948C205.662 117.826 205.539 118.885 204.947 117.948C204.101 116.612 203.547 109.145 204.362 110.083C204.562 110.313 204.981 112.502 205.294 114.948ZM205.345 124.543C205.019 125.392 204.538 125.872 204.276 125.61C204.014 125.348 204.096 124.653 204.459 124.067C205.445 122.471 206.021 122.781 205.345 124.543ZM199.988 132.75L199.976 138.5L197.488 134.148C196.12 131.754 195 129.425 195 128.971C195 128.256 196.713 127.508 199.25 127.116C199.662 127.052 199.995 129.588 199.988 132.75ZM203.728 138.75C203.513 140.813 203.336 139.125 203.336 135C203.336 130.875 203.513 129.188 203.728 131.25C203.944 133.313 203.944 136.688 203.728 138.75ZM150.488 131.601C158.732 131.862 165.881 132.481 166.375 132.975C167.65 134.25 167.488 141.219 166.125 143.767C163.945 147.841 152.827 149.253 144.876 146.467C141.836 145.401 138.44 142.774 133.75 137.859C130.037 133.969 127 130.551 127 130.265C127 129.979 128.912 130.055 131.25 130.435C133.588 130.814 142.245 131.339 150.488 131.601ZM100.5 145.356C112.892 153.226 149.492 162.969 166.849 163.019L173.5 163.038L169 165.857C148.542 178.674 119.584 179.723 95.349 168.525C83.87 163.222 83.913 163.282 86.083 155.458C87.072 151.889 88.199 145.748 88.587 141.811L89.293 134.652L92.896 138.734C94.878 140.979 98.3 143.959 100.5 145.356ZM45.723 146.25C45.502 148.037 45.32 146.575 45.32 143C45.32 139.425 45.502 137.963 45.723 139.75C45.945 141.537 45.945 144.463 45.723 146.25ZM204.683 146.188C204.364 146.985 204.127 146.748 204.079 145.583C204.036 144.529 204.272 143.939 204.604 144.271C204.936 144.603 204.972 145.466 204.683 146.188ZM203.758 161.885C203.443 167.321 202.991 168.611 200.713 170.571C195.342 175.19 184.525 174.485 177.85 169.079C174.513 166.378 176.031 164.555 185.278 160.162C193.914 156.059 198.472 151.953 199.664 147.201C200.274 144.772 200.484 145.004 202.228 150.028C203.564 153.875 204.019 157.396 203.758 161.885ZM207.742 162.265C207.538 165.436 206.825 168.575 206.158 169.242C205.208 170.192 205.196 169.735 206.103 167.134C207.174 164.063 206.929 156.398 205.557 150C205.262 148.625 205.717 149.525 206.568 152C207.516 154.76 207.971 158.73 207.742 162.265ZM43.571 159.571C43.204 161.037 43.096 162.429 43.331 162.665C43.567 162.9 44.061 161.894 44.429 160.429C44.796 158.963 44.904 157.571 44.669 157.335C44.433 157.1 43.939 158.106 43.571 159.571ZM98.501 173.833C98.302 174.031 94.752 172.418 90.611 170.249L83.083 166.304L80.432 169.071C77.654 171.97 68.276 177.31 64 178.426C62.625 178.785 64.65 177.554 68.5 175.692C72.35 173.829 77.196 170.735 79.268 168.815L83.036 165.325L90.949 169.398C95.301 171.638 98.699 173.634 98.501 173.833ZM41.158 170C41.158 171.375 41.385 171.938 41.662 171.25C41.94 170.563 41.94 169.438 41.662 168.75C41.385 168.063 41.158 168.625 41.158 170ZM177.25 171.865C179.313 173.148 181 174.39 181 174.624C181 175.324 175.692 172.225 173 169.955C170.35 167.719 171.193 168.098 177.25 171.865ZM170 169.555C170 170.182 159.337 175.042 158.221 174.923C157.825 174.881 160.2 173.566 163.5 172C170.559 168.651 170 168.861 170 169.555ZM202.694 173.532C201.151 174.889 199.397 176 198.796 176C198.196 176 199.233 174.914 201.102 173.586C205.52 170.447 206.228 170.423 202.694 173.532ZM110.5 177.032C114.35 178.054 116.535 178.915 115.355 178.945C112.823 179.01 100 175.175 100 174.353C100 174.041 100.787 174.099 101.75 174.48C102.713 174.862 106.65 176.011 110.5 177.032ZM152 177.041C148.975 178.051 145.375 178.875 144 178.871C142.625 178.867 144.425 178.057 148 177.071C156.513 174.723 158.998 174.705 152 177.041ZM192.5 176.332C196.95 176.182 197.17 176.266 194.5 177.095C191.258 178.102 185.363 177.501 182.98 175.921C181.956 175.242 182.424 175.18 184.5 175.72C186.15 176.149 189.75 176.424 192.5 176.332ZM60.729 179.604C60.397 179.936 59.534 179.972 58.813 179.683C58.015 179.364 58.252 179.127 59.417 179.079C60.471 179.036 61.061 179.272 60.729 179.604ZM134.75 179.739C131.588 179.937 126.412 179.937 123.25 179.739C120.088 179.541 122.675 179.378 129 179.378C135.325 179.378 137.912 179.541 134.75 179.739ZM56.917 180.367C56.688 180.569 54.7 181.009 52.5 181.344C49.712 181.768 49.106 181.678 50.5 181.047C52.42 180.177 57.776 179.61 56.917 180.367Z" fill="#675523"/>
<path fill-rule="evenodd" clip-rule="evenodd" d="M0 125V250H125H250V125V0H125H0V125ZM170.874 70.522C175.964 72.359 178.916 72.877 181.725 72.428C191.419 70.878 201.628 78.111 204.061 88.254C204.711 90.965 206.385 95.226 207.78 97.721C210.292 102.216 210.298 102.29 208.5 105.629C207.502 107.483 206.306 109 205.843 109C204.68 109 204.783 115.298 205.997 118.491C206.738 120.442 206.61 121.853 205.497 124.007C203.271 128.311 203.566 140.827 206.108 149.883C210.247 164.636 207.045 173.478 196.445 176.559C189.053 178.708 182.303 176.981 173.948 170.803C171.36 168.89 171.299 168.891 167.917 170.878C166.038 171.982 160.225 174.356 155 176.154C145.834 179.307 144.938 179.423 129.5 179.444C114.504 179.464 112.998 179.289 105.5 176.659C101.1 175.115 94.256 172.154 90.291 170.078L83.083 166.304L80.432 169.071C76.548 173.125 67.21 177.772 58.446 180.014C49.597 182.277 46.936 181.901 43.582 177.915C39.816 173.44 39.623 170.28 42.447 159.414C45.179 148.903 45.603 141.109 43.967 131.5C43.405 128.2 42.928 120.325 42.908 114C42.857 97.887 44.941 91.424 52.78 83.388C60.521 75.452 68.195 71.679 77.623 71.175C83.274 70.873 85.729 71.229 89.5 72.897C95.344 75.482 96.586 75.501 101.589 73.084C110.58 68.74 122.563 68.231 135.129 71.66C140.443 73.11 141.087 73.081 146.629 71.141C157.64 67.287 161.622 67.185 170.874 70.522ZM178 74.833C178 75.291 179.8 77.112 182 78.88C186.532 82.522 187.011 83.953 183.75 84.104C182.512 84.161 184.668 84.976 188.541 85.916C196.11 87.752 198 88.58 198 90.064C198 90.627 193.846 90.826 187.75 90.557L177.5 90.104L186.388 91.042C192.09 91.644 197.243 92.88 200.762 94.491C203.779 95.872 205.796 96.439 205.244 95.751C204.693 95.063 203.485 91.864 202.562 88.643C201.638 85.421 200.671 82.996 200.413 83.254C200.155 83.512 200.389 84.894 200.934 86.326C202.179 89.6 200.821 90.565 198.53 88.033C197.574 86.977 195.431 85.814 193.767 85.449C192.025 85.066 188.451 82.495 185.349 79.392C180.277 74.321 178 72.908 178 74.833ZM125.188 84.927C132.805 85.595 139 87.669 139 89.551C139 89.829 135.963 89.838 132.25 89.571C126.164 89.134 125.999 89.168 130.573 89.913C137.052 90.967 142.511 93.563 145.056 96.798C147.593 100.024 146.396 101.261 141.966 99.99C136.899 98.537 126.974 98.781 118.3 100.573C110.676 102.148 100.241 105.571 98.657 107.016C95.662 109.75 108.049 117.362 117.394 118.53C123.232 119.259 135.943 117.115 140.863 114.571C144.694 112.59 150 106.402 150 103.916C150 101.237 147.726 96.965 144.988 94.498C143.768 93.399 142.392 91.511 141.93 90.302C140.299 86.037 136.452 84.596 126.105 84.372L116.5 84.165L125.188 84.927ZM173.813 85.683C174.534 85.972 175.397 85.936 175.729 85.604C176.061 85.272 175.471 85.036 174.417 85.079C173.252 85.127 173.015 85.364 173.813 85.683ZM121.813 90.683C122.534 90.972 123.397 90.936 123.729 90.604C124.061 90.272 123.471 90.036 122.417 90.079C121.252 90.127 121.015 90.364 121.813 90.683ZM174 98.594C166.35 99.918 159 102.359 159 103.576C159 106.011 165.402 112.29 169.925 114.291C174.77 116.434 185.819 116.831 191.807 115.076C195.457 114.007 197.156 114.394 201.25 117.231C205.107 119.903 204.681 121.815 199.75 123.97C192.358 127.199 180.735 128.391 156.5 128.404C133.657 128.416 131.116 128.179 107.795 123.853C101.652 122.713 100.918 122.764 99.045 124.46C96.043 127.176 96.362 132.027 99.75 135.205C104.781 139.925 128.015 149.879 142.264 153.419C157.273 157.149 173.818 157.192 182.598 153.523C192.986 149.183 195.302 140.886 188.406 132.716C185.704 129.514 185.702 129.499 187.901 129.173C190.711 128.758 192.641 130.376 195.11 135.216C197.397 139.699 197.807 146.735 195.953 149.703C194.035 152.775 187.231 156.865 181.035 158.673C172.433 161.182 152.728 160.034 138 156.166C122.235 152.025 106.633 146.275 101.137 142.581C92.058 136.478 89.421 128.219 94.589 122.077C98.049 117.964 95.775 118.117 92.015 122.25L89.059 125.5L89.029 116.583C89.013 111.679 88.816 107.854 88.592 108.083C88.368 108.313 87.892 114.125 87.533 121C86.674 137.506 84.291 154.148 81.854 160.662C78.667 169.178 68.1 175.837 53.5 178.529C47.578 179.621 47.128 179.833 50.575 179.91C58.549 180.086 75.618 172.844 79.821 167.501C80.903 166.125 82.105 165 82.492 165C82.879 165 86.864 166.756 91.348 168.902C104.561 175.227 106.071 175.768 115.5 177.544C132.508 180.748 149.236 178.1 167.884 169.251C171.003 167.771 171.481 167.772 173.886 169.274C175.324 170.171 178.623 172.052 181.217 173.453C189.428 177.887 199.579 176.291 204.322 169.821C206.729 166.536 206.855 157.838 204.612 149.853C202.313 141.67 201.769 134.047 203.087 128.5C203.741 125.75 204.193 120.325 204.091 116.444C203.939 110.596 204.269 108.927 206.023 106.697C208.979 102.94 208.321 99.759 204.5 99.325C198.944 98.695 176.523 98.157 174 98.594ZM190 102C190 103.454 189.333 104 187.559 104C186.216 104 184.84 103.55 184.5 103C183.506 101.392 184.925 100 187.559 100C189.333 100 190 100.546 190 102ZM201.891 101C202.841 101 204.485 101.634 205.546 102.41C207.447 103.8 207.446 103.85 205.487 106.018C200.529 111.504 186.164 115.76 176.905 114.487C171.637 113.762 163.768 109.303 162.031 106.058C161.074 104.269 161.263 103.85 163.401 103.038C164.766 102.519 167.105 101.96 168.598 101.797C170.846 101.551 171.449 101.992 172.099 104.357C173.475 109.365 175.768 111 181.405 110.996C187.583 110.992 192.213 108.449 195.171 103.435C196.516 101.155 197.782 100.086 198.714 100.444C199.511 100.75 200.941 101 201.891 101ZM90.614 102.563C90.284 103.423 89.561 103.847 89.007 103.504C88.439 103.153 88.015 103.889 88.033 105.191L88.067 107.5L90.033 105.139C91.115 103.841 92 102.378 92 101.889C92 100.493 91.273 100.847 90.614 102.563ZM147.215 103.815C148.495 105.095 146.794 108.23 143.346 110.942C141.88 112.096 137.583 113.98 133.797 115.13C124.178 118.052 115.284 117.485 107.388 113.447C100.182 109.761 99.481 107.772 104.826 106.17C110.401 104.5 110.815 104.621 112.39 108.391C114.118 112.526 119.051 114.48 125.834 113.715C129.478 113.305 131.113 112.454 133.716 109.613C135.522 107.642 137 105.16 137 104.098C137 103.036 137.563 101.978 138.25 101.747C139.912 101.19 145.992 102.592 147.215 103.815ZM132.002 104.004C132.911 105.703 132.682 106.188 130.501 107.182C128.378 108.149 127.64 108.069 126.299 106.728C124.956 105.385 124.897 104.829 125.958 103.55C127.75 101.392 130.724 101.615 132.002 104.004ZM196.509 103.971C195.73 106.426 191.051 111 189.319 111C188.659 111 187.87 111.401 187.567 111.892C186.589 113.474 195.348 110.975 199.698 108.431C206.154 104.656 206.245 103.824 200.337 102.557C197.683 101.988 197.066 102.216 196.509 103.971ZM138.632 105.331C138.296 106.67 136.71 109.169 135.109 110.883C133.508 112.597 132.566 114 133.016 114C135.53 114 143.115 109.755 144.571 107.532C146.544 104.521 146.504 104.449 142.372 103.564C139.631 102.977 139.168 103.196 138.632 105.331ZM165.271 103.693C163.172 104.108 163.132 104.271 164.583 106.486C165.903 108.501 173.565 113 175.676 113C176.06 113 175.209 111.763 173.784 110.25C172.36 108.737 171.033 106.605 170.836 105.511C170.46 103.431 169.005 102.955 165.271 103.693ZM127 105C127 105.55 127.9 106 129 106C130.1 106 131 105.55 131 105C131 104.45 130.1 104 129 104C127.9 104 127 104.45 127 105ZM105.75 107.299C104.237 107.897 103 108.709 103 109.104C103 110.226 113.155 115.005 115.446 114.96C117.259 114.925 117.189 114.751 114.856 113.484C113.402 112.694 111.738 110.687 111.158 109.024C110.014 105.743 109.834 105.686 105.75 107.299ZM202 113C202 113.55 201.55 114 201 114C200.45 114 200 113.55 200 113C200 112.45 200.45 112 201 112C201.55 112 202 112.45 202 113ZM201.017 134.809C201.027 139.189 201.88 145.729 203 150C205.348 158.959 205.479 162.917 203.579 167.466C201.708 171.942 197.51 174 190.245 174C185.469 174 183.528 173.452 179.696 171.022C177.113 169.384 175 167.39 175 166.59C175 164.821 179.723 161.335 184.206 159.796C197.709 155.161 202.498 144.876 196.449 133.5C195.046 130.861 194.258 128.363 194.699 127.948C195.705 127.001 199.253 126.226 200.25 126.735C200.662 126.946 201.008 130.579 201.017 134.809ZM148 130.674C159.705 131.067 166.77 131.7 167.235 132.397C168.134 133.747 168.232 141.233 167.379 143.455C165.691 147.853 151.276 149.685 143.599 146.477C140.513 145.188 125 130.849 125 129.286C125 129 126.013 129.056 127.25 129.41C128.488 129.764 137.825 130.333 148 130.674ZM95.982 140.836C105.768 150.114 138.563 160.505 161.782 161.684C169.987 162.1 173.943 162.67 173.7 163.401C173.082 165.253 157.55 172.616 150.332 174.478C141.124 176.854 125.506 177.58 116.633 176.044C104.581 173.959 83.983 164.925 84.011 161.737C84.017 161.057 84.674 158.349 85.472 155.721C86.269 153.092 87.201 147.467 87.541 143.221C88.374 132.84 88.765 131.86 90.825 135C91.727 136.375 94.047 139.001 95.982 140.836ZM138.5 148C138.84 148.55 138.641 149 138.059 149C137.477 149 137 148.55 137 148C137 147.45 137.198 147 137.441 147C137.684 147 138.16 147.45 138.5 148Z" fill="#150E04"/>
<path fill-rule="evenodd" clip-rule="evenodd" d="M0 125V250H125H250V125V0H125H0V125ZM170.874 70.522C175.964 72.359 178.916 72.877 181.725 72.428C191.419 70.878 201.628 78.111 204.061 88.254C204.711 90.965 206.385 95.226 207.78 97.721C210.292 102.216 210.298 102.29 208.5 105.629C207.502 107.483 206.306 109 205.843 109C204.68 109 204.783 115.298 205.997 118.491C206.738 120.442 206.61 121.853 205.497 124.007C203.271 128.311 203.566 140.827 206.108 149.883C210.247 164.636 207.045 173.478 196.445 176.559C189.053 178.708 182.303 176.981 173.948 170.803C171.36 168.89 171.299 168.891 167.917 170.878C166.038 171.982 160.225 174.356 155 176.154C145.834 179.307 144.938 179.423 129.5 179.444C114.504 179.464 112.998 179.289 105.5 176.659C101.1 175.115 94.256 172.154 90.291 170.078L83.083 166.304L80.432 169.071C76.548 173.125 67.21 177.772 58.446 180.014C49.597 182.277 46.936 181.901 43.582 177.915C39.816 173.44 39.623 170.28 42.447 159.414C45.179 148.903 45.603 141.109 43.967 131.5C43.405 128.2 42.928 120.325 42.908 114C42.857 97.887 44.941 91.424 52.78 83.388C60.521 75.452 68.195 71.679 77.623 71.175C83.274 70.873 85.729 71.229 89.5 72.897C95.344 75.482 96.586 75.501 101.589 73.084C110.58 68.74 122.563 68.231 135.129 71.66C140.443 73.11 141.087 73.081 146.629 71.141C157.64 67.287 161.622 67.185 170.874 70.522ZM185 79.378C185 79.585 185.787 80.373 186.75 81.128C188.336 82.371 188.371 82.336 187.128 80.75C185.821 79.084 185 78.555 185 79.378ZM120.813 84.683C121.534 84.972 122.397 84.936 122.729 84.604C123.061 84.272 122.471 84.036 121.417 84.079C120.252 84.127 120.015 84.364 120.813 84.683ZM173.813 85.683C174.534 85.972 175.397 85.936 175.729 85.604C176.061 85.272 175.471 85.036 174.417 85.079C173.252 85.127 173.015 85.364 173.813 85.683ZM121.813 90.683C122.534 90.972 123.397 90.936 123.729 90.604C124.061 90.272 123.471 90.036 122.417 90.079C121.252 90.127 121.015 90.364 121.813 90.683ZM178.75 90.662C179.438 90.94 180.563 90.94 181.25 90.662C181.938 90.385 181.375 90.158 180 90.158C178.625 90.158 178.063 90.385 178.75 90.662ZM190 91.031C190 91.564 190.675 92 191.5 92C192.325 92 193 91.823 193 91.607C193 91.391 192.325 90.955 191.5 90.638C190.675 90.322 190 90.499 190 91.031ZM196.509 103.971C195.73 106.426 191.051 111 189.319 111C188.659 111 187.87 111.401 187.567 111.892C186.589 113.474 195.348 110.975 199.698 108.431C206.154 104.656 206.245 103.824 200.337 102.557C197.683 101.988 197.066 102.216 196.509 103.971ZM138.632 105.331C138.296 106.67 136.71 109.169 135.109 110.883C133.508 112.597 132.566 114 133.016 114C135.53 114 143.115 109.755 144.571 107.532C146.544 104.521 146.504 104.449 142.372 103.564C139.631 102.977 139.168 103.196 138.632 105.331ZM165.271 103.693C163.172 104.108 163.132 104.271 164.583 106.486C165.903 108.501 173.565 113 175.676 113C176.06 113 175.209 111.763 173.784 110.25C172.36 108.737 171.033 106.605 170.836 105.511C170.46 103.431 169.005 102.955 165.271 103.693ZM127 105C127 105.55 127.9 106 129 106C130.1 106 131 105.55 131 105C131 104.45 130.1 104 129 104C127.9 104 127 104.45 127 105ZM105.75 107.299C104.237 107.897 103 108.709 103 109.104C103 110.226 113.155 115.005 115.446 114.96C117.259 114.925 117.189 114.751 114.856 113.484C113.402 112.694 111.738 110.687 111.158 109.024C110.014 105.743 109.834 105.686 105.75 107.299ZM88.272 112C88.272 114.475 88.467 115.487 88.706 114.25C88.944 113.013 88.944 110.987 88.706 109.75C88.467 108.513 88.272 109.525 88.272 112ZM109.813 124.683C110.534 124.972 111.397 124.936 111.729 124.604C112.061 124.272 111.471 124.036 110.417 124.079C109.252 124.127 109.015 124.364 109.813 124.683ZM99.667 125.667C98.3 127.034 99.067 131.695 101.002 133.771C102.947 135.86 110.978 139.935 121.388 144.116C124.199 145.246 127.852 146.747 129.504 147.451C133.863 149.311 138.783 150.252 140.052 149.468C141.181 148.77 128.747 135.96 121.791 130.654C117.052 127.039 101.745 123.589 99.667 125.667ZM171.813 128.683C172.534 128.972 173.397 128.936 173.729 128.604C174.061 128.272 173.471 128.036 172.417 128.079C171.252 128.127 171.015 128.364 171.813 128.683ZM128.75 129.662C129.438 129.94 130.563 129.94 131.25 129.662C131.938 129.385 131.375 129.158 130 129.158C128.625 129.158 128.063 129.385 128.75 129.662ZM139.75 130.662C140.438 130.94 141.563 130.94 142.25 130.662C142.938 130.385 142.375 130.158 141 130.158C139.625 130.158 139.063 130.385 139.75 130.662ZM171.25 130.662C170.448 130.986 170 133.283 170 137.068C170 142.1 169.595 143.417 167.25 146.014C165.025 148.479 163.26 149.257 158 150.093C154.425 150.661 150.073 150.859 148.328 150.533C146.583 150.206 144.906 150.343 144.6 150.837C144 151.808 152.136 153.593 161.019 154.438C170.722 155.361 187.063 151.529 185.337 148.736C184.978 148.156 185.169 147.986 185.765 148.355C189.149 150.446 191.348 141.257 188.721 136C186.48 131.514 176.611 128.499 171.25 130.662ZM130 135.5C131.866 137.425 133.617 139 133.892 139C134.167 139 132.866 137.425 131 135.5C129.134 133.575 127.383 132 127.108 132C126.833 132 128.134 133.575 130 135.5ZM140 145.349C140.825 146.139 142.625 147.115 144 147.517C147.168 148.444 146.469 147.778 142 145.611C139.461 144.379 138.912 144.308 140 145.349ZM138.5 148C138.84 148.55 138.641 149 138.059 149C137.477 149 137 148.55 137 148C137 147.45 137.198 147 137.441 147C137.684 147 138.16 147.45 138.5 148ZM150.75 148.723C152.537 148.945 155.463 148.945 157.25 148.723C159.037 148.502 157.575 148.32 154 148.32C150.425 148.32 148.963 148.502 150.75 148.723ZM141.5 150C141.16 150.55 141.332 151 141.882 151C142.432 151 143.16 150.55 143.5 150C143.84 149.45 143.668 149 143.118 149C142.568 149 141.84 149.45 141.5 150ZM162.75 156.662C163.438 156.94 164.563 156.94 165.25 156.662C165.938 156.385 165.375 156.158 164 156.158C162.625 156.158 162.063 156.385 162.75 156.662Z" fill="#D62A3A"/>
<path fill-rule="evenodd" clip-rule="evenodd" d="M0 125V250H125H250V125V0H125H0V125ZM170.874 70.522C175.964 72.359 178.916 72.877 181.725 72.428C191.419 70.878 201.628 78.111 204.061 88.254C204.711 90.965 206.385 95.226 207.78 97.721C210.292 102.216 210.298 102.29 208.5 105.629C207.502 107.483 206.306 109 205.843 109C204.68 109 204.783 115.298 205.997 118.491C206.738 120.442 206.61 121.853 205.497 124.007C203.271 128.311 203.566 140.827 206.108 149.883C210.247 164.636 207.045 173.478 196.445 176.559C189.053 178.708 182.303 176.981 173.948 170.803C171.36 168.89 171.299 168.891 167.917 170.878C166.038 171.982 160.225 174.356 155 176.154C145.834 179.307 144.938 179.423 129.5 179.444C114.504 179.464 112.998 179.289 105.5 176.659C101.1 175.115 94.256 172.154 90.291 170.078L83.083 166.304L80.432 169.071C76.548 173.125 67.21 177.772 58.446 180.014C49.597 182.277 46.936 181.901 43.582 177.915C39.816 173.44 39.623 170.28 42.447 159.414C45.179 148.903 45.603 141.109 43.967 131.5C43.405 128.2 42.928 120.325 42.908 114C42.857 97.887 44.941 91.424 52.78 83.388C60.521 75.452 68.195 71.679 77.623 71.175C83.274 70.873 85.729 71.229 89.5 72.897C95.344 75.482 96.586 75.501 101.589 73.084C110.58 68.74 122.563 68.231 135.129 71.66C140.443 73.11 141.087 73.081 146.629 71.141C157.64 67.287 161.622 67.185 170.874 70.522ZM185 79.378C185 79.585 185.787 80.373 186.75 81.128C188.336 82.371 188.371 82.336 187.128 80.75C185.821 79.084 185 78.555 185 79.378ZM120.813 84.683C121.534 84.972 122.397 84.936 122.729 84.604C123.061 84.272 122.471 84.036 121.417 84.079C120.252 84.127 120.015 84.364 120.813 84.683ZM173.813 85.683C174.534 85.972 175.397 85.936 175.729 85.604C176.061 85.272 175.471 85.036 174.417 85.079C173.252 85.127 173.015 85.364 173.813 85.683ZM121.813 90.683C122.534 90.972 123.397 90.936 123.729 90.604C124.061 90.272 123.471 90.036 122.417 90.079C121.252 90.127 121.015 90.364 121.813 90.683ZM178.75 90.662C179.438 90.94 180.563 90.94 181.25 90.662C181.938 90.385 181.375 90.158 180 90.158C178.625 90.158 178.063 90.385 178.75 90.662ZM190 91.031C190 91.564 190.675 92 191.5 92C192.325 92 193 91.823 193 91.607C193 91.391 192.325 90.955 191.5 90.638C190.675 90.322 190 90.499 190 91.031ZM196.509 103.971C195.73 106.426 191.051 111 189.319 111C188.659 111 187.87 111.401 187.567 111.892C186.589 113.474 195.348 110.975 199.698 108.431C206.154 104.656 206.245 103.824 200.337 102.557C197.683 101.988 197.066 102.216 196.509 103.971ZM138.632 105.331C138.296 106.67 136.71 109.169 135.109 110.883C133.508 112.597 132.566 114 133.016 114C135.53 114 143.115 109.755 144.571 107.532C146.544 104.521 146.504 104.449 142.372 103.564C139.631 102.977 139.168 103.196 138.632 105.331ZM165.271 103.693C163.172 104.108 163.132 104.271 164.583 106.486C165.903 108.501 173.565 113 175.676 113C176.06 113 175.209 111.763 173.784 110.25C172.36 108.737 171.033 106.605 170.836 105.511C170.46 103.431 169.005 102.955 165.271 103.693ZM127 105C127 105.55 127.9 106 129 106C130.1 106 131 105.55 131 105C131 104.45 130.1 104 129 104C127.9 104 127 104.45 127 105ZM105.75 107.299C104.237 107.897 103 108.709 103 109.104C103 110.226 113.155 115.005 115.446 114.96C117.259 114.925 117.189 114.751 114.856 113.484C113.402 112.694 111.738 110.687 111.158 109.024C110.014 105.743 109.834 105.686 105.75 107.299ZM88.272 112C88.272 114.475 88.467 115.487 88.706 114.25C88.944 113.013 88.944 110.987 88.706 109.75C88.467 108.513 88.272 109.525 88.272 112ZM109.813 124.683C110.534 124.972 111.397 124.936 111.729 124.604C112.061 124.272 111.471 124.036 110.417 124.079C109.252 124.127 109.015 124.364 109.813 124.683ZM99.667 125.667C98.3 127.034 99.067 131.695 101.002 133.771C102.947 135.86 110.978 139.935 121.388 144.116C124.199 145.246 127.852 146.747 129.504 147.451C133.863 149.311 138.783 150.252 140.052 149.468C141.181 148.77 128.747 135.96 121.791 130.654C117.052 127.039 101.745 123.589 99.667 125.667ZM111.629 127.836C117.722 129.092 122.595 132.405 131.228 141.162C135.479 145.473 138.82 149 138.654 149C136.346 149 120.162 142.461 107.666 136.479C101.755 133.649 99.435 130.637 100.676 127.402C101.316 125.734 101.465 125.74 111.629 127.836ZM171.813 128.683C172.534 128.972 173.397 128.936 173.729 128.604C174.061 128.272 173.471 128.036 172.417 128.079C171.252 128.127 171.015 128.364 171.813 128.683ZM128.75 129.662C129.438 129.94 130.563 129.94 131.25 129.662C131.938 129.385 131.375 129.158 130 129.158C128.625 129.158 128.063 129.385 128.75 129.662ZM139.75 130.662C140.438 130.94 141.563 130.94 142.25 130.662C142.938 130.385 142.375 130.158 141 130.158C139.625 130.158 139.063 130.385 139.75 130.662ZM171.25 130.662C170.448 130.986 170 133.283 170 137.068C170 142.1 169.595 143.417 167.25 146.014C165.025 148.479 163.26 149.257 158 150.093C154.425 150.661 150.073 150.859 148.328 150.533C146.583 150.206 144.906 150.343 144.6 150.837C143.223 153.066 164.174 155.344 172.989 153.924C184.47 152.075 190.009 148.258 189.985 142.211C189.965 137.081 188.089 133.809 183.986 131.752C180.709 130.108 174.038 129.537 171.25 130.662ZM184.24 133.17C185.196 133.659 186.659 135.374 187.49 136.98C192.368 146.414 185.211 152.019 167.5 152.632C161.257 152.848 158.442 152.664 160.006 152.141C164.848 150.523 168.952 147.958 170.084 145.844C170.712 144.669 171.303 141.203 171.398 138.141C171.552 133.131 171.816 132.509 174.035 131.926C176.757 131.211 181.548 131.795 184.24 133.17ZM130 135.5C131.866 137.425 133.617 139 133.892 139C134.167 139 132.866 137.425 131 135.5C129.134 133.575 127.383 132 127.108 132C126.833 132 128.134 133.575 130 135.5ZM140 145.349C140.825 146.139 142.625 147.115 144 147.517C147.168 148.444 146.469 147.778 142 145.611C139.461 144.379 138.912 144.308 140 145.349ZM150.75 148.723C152.537 148.945 155.463 148.945 157.25 148.723C159.037 148.502 157.575 148.32 154 148.32C150.425 148.32 148.963 148.502 150.75 148.723ZM141.5 150C141.16 150.55 141.332 151 141.882 151C142.432 151 143.16 150.55 143.5 150C143.84 149.45 143.668 149 143.118 149C142.568 149 141.84 149.45 141.5 150ZM162.75 156.662C163.438 156.94 164.563 156.94 165.25 156.662C165.938 156.385 165.375 156.158 164 156.158C162.625 156.158 162.063 156.385 162.75 156.662Z" fill="#781C29"/>
<path fill-rule="evenodd" clip-rule="evenodd" d="M0 125V250H125H250V125V0H125H0V125ZM170.874 70.522C175.964 72.359 178.916 72.877 181.725 72.428C191.419 70.878 201.628 78.111 204.061 88.254C204.711 90.965 206.385 95.226 207.78 97.721C210.292 102.216 210.298 102.29 208.5 105.629C207.502 107.483 206.306 109 205.843 109C204.68 109 204.783 115.298 205.997 118.491C206.738 120.442 206.61 121.853 205.497 124.007C203.271 128.311 203.566 140.827 206.108 149.883C210.247 164.636 207.045 173.478 196.445 176.559C189.053 178.708 182.303 176.981 173.948 170.803C171.36 168.89 171.299 168.891 167.917 170.878C166.038 171.982 160.225 174.356 155 176.154C145.834 179.307 144.938 179.423 129.5 179.444C114.504 179.464 112.998 179.289 105.5 176.659C101.1 175.115 94.256 172.154 90.291 170.078L83.083 166.304L80.432 169.071C76.548 173.125 67.21 177.772 58.446 180.014C49.597 182.277 46.936 181.901 43.582 177.915C39.816 173.44 39.623 170.28 42.447 159.414C45.179 148.903 45.603 141.109 43.967 131.5C43.405 128.2 42.928 120.325 42.908 114C42.857 97.887 44.941 91.424 52.78 83.388C60.521 75.452 68.195 71.679 77.623 71.175C83.274 70.873 85.729 71.229 89.5 72.897C95.344 75.482 96.586 75.501 101.589 73.084C110.58 68.74 122.563 68.231 135.129 71.66C140.443 73.11 141.087 73.081 146.629 71.141C157.64 67.287 161.622 67.185 170.874 70.522ZM196.509 103.971C195.73 106.426 191.051 111 189.319 111C188.659 111 187.87 111.401 187.567 111.892C186.589 113.474 195.348 110.975 199.698 108.431C206.154 104.656 206.245 103.824 200.337 102.557C197.683 101.988 197.066 102.216 196.509 103.971ZM138.632 105.331C138.296 106.67 136.71 109.169 135.109 110.883C133.508 112.597 132.566 114 133.016 114C135.53 114 143.115 109.755 144.571 107.532C146.544 104.521 146.504 104.449 142.372 103.564C139.631 102.977 139.168 103.196 138.632 105.331ZM165.271 103.693C163.172 104.108 163.132 104.271 164.583 106.486C165.903 108.501 173.565 113 175.676 113C176.06 113 175.209 111.763 173.784 110.25C172.36 108.737 171.033 106.605 170.836 105.511C170.46 103.431 169.005 102.955 165.271 103.693ZM127 105C127 105.55 127.9 106 129 106C130.1 106 131 105.55 131 105C131 104.45 130.1 104 129 104C127.9 104 127 104.45 127 105ZM105.75 107.299C104.237 107.897 103 108.709 103 109.104C103 110.226 113.155 115.005 115.446 114.96C117.259 114.925 117.189 114.751 114.856 113.484C113.402 112.694 111.738 110.687 111.158 109.024C110.014 105.743 109.834 105.686 105.75 107.299Z" fill="white"/>
</svg>
