<svg width="64" height="64" viewBox="0 0 64 64" fill="none" xmlns="http://www.w3.org/2000/svg">
<g clip-path="url(#clip0_1_2)">
<path fill-rule="evenodd" clip-rule="evenodd" d="M0 32V64H32H64V32V0H32H0V32Z" fill="white"/>
<path fill-rule="evenodd" clip-rule="evenodd" d="M0 32V64H32H64V32V0H32H0V32ZM33.939 19.969C39.498 22.805 42.283 27.896 42.95 36.441C43.368 41.804 43.86 43.5 45 43.5C46.24 43.5 46.548 41.292 46.78 30.75C47.009 20.325 47.328 18 48.53 18C49.744 18 50 20.145 50 30.309C50 44.235 49.233 46.38 44.451 45.836C41.554 45.506 41.49 45.37 40.949 38.433C40.342 30.647 38.195 25.973 33.677 22.605C31.455 20.947 29.064 20.425 22.427 20.147C17.792 19.953 14 19.391 14 18.897C14 18.404 17.618 18 22.04 18C28.064 18 31.047 18.494 33.939 19.969ZM33.25 27.981C37.224 32.389 37.148 39.006 33.077 43.077C30.724 45.43 29.288 46 25.712 46C20.162 46 16.468 43.296 14.909 38.09C11.65 27.214 25.618 19.515 33.25 27.981ZM19.455 29.455C15.408 33.501 16.215 40.025 21.072 42.537C25.268 44.707 27.819 44.335 31.077 41.077C36.716 35.438 33.373 27 25.5 27C23.021 27 21.149 27.76 19.455 29.455Z" fill="#DBDBDB"/>
<path fill-rule="evenodd" clip-rule="evenodd" d="M0 32V64H32H64V32V0H32H0V32ZM30.219 18.044C34.986 19.368 39.897 23.509 41.636 27.671C42.386 29.467 43 33.37 43 36.345C43 41.425 44.697 44.969 46.342 43.325C46.704 42.963 47 36.892 47 29.833C47 19.093 47.245 17 48.5 17C49.759 17 50 19.16 50 30.443C50 43.202 49.887 43.966 47.777 45.443C44.917 47.447 44.408 47.408 42 45C40.437 43.437 40 41.667 40 36.904C40 25.683 34.859 20.951 21.85 20.197C16.087 19.864 14 19.378 14 18.372C14 16.684 24.554 16.471 30.219 18.044ZM31.128 25.566C37.397 28.808 38.525 38.256 33.238 43.219C27.734 48.386 19.423 47.372 15.706 41.08C9.814 31.105 20.687 20.167 31.128 25.566ZM20.913 28.282C16.59 31.601 15.957 36.676 19.37 40.644C24.019 46.049 32.138 43.561 33.593 36.287C34.821 30.143 25.859 24.485 20.913 28.282Z" fill="#A5A5A5"/>
<path fill-rule="evenodd" clip-rule="evenodd" d="M0 32V64H32H64V32V0H32H0V32ZM32.541 18.88C39.962 22.25 43.982 29.254 43.994 38.833C43.998 41.853 44.379 43.041 45.25 42.752C46.142 42.455 46.58 38.708 46.78 29.668C47.009 19.316 47.328 17 48.53 17C50.776 17 50.682 43.175 48.429 45.429C46.405 47.452 44.125 47.423 41.829 45.345C40.451 44.098 40 42.236 40 37.795C40 31.338 38.601 27.819 34.516 24C32.155 21.793 30.795 21.459 22.921 21.151C14.945 20.838 14 20.6 14 18.901C14 17.206 14.785 17.002 21.25 17.022C26.109 17.037 29.833 17.649 32.541 18.88ZM31.783 25.561C34.605 27.537 37 32.121 37 35.546C37 41.183 30.931 47 25.049 47C19.043 47 14 41.272 14 34.45C14 31.632 14.775 30.025 17.4 27.4C20.231 24.569 21.533 24 25.177 24C27.585 24 30.558 24.702 31.783 25.561ZM19.806 30.04C17.262 32.584 16.867 33.604 17.386 36.29C18.185 40.428 21.338 43 25.611 43C32.982 43 36.004 34.302 30.389 29.25C26.933 26.14 23.446 26.4 19.806 30.04Z" fill="#848484"/>
<path fill-rule="evenodd" clip-rule="evenodd" d="M0 32V64H32H64V32V0H32H0V32ZM33.494 18.997C40.328 22.306 44 29.028 44 38.233C44 41.735 44.363 43.046 45.25 42.752C46.142 42.455 46.58 38.708 46.78 29.668C47.009 19.316 47.328 17 48.53 17C49.753 17 50 19.344 50 30.965C50 43.748 49.836 45.017 48.066 45.965C42.9 48.73 40.001 45.932 39.998 38.179C39.997 31.259 37.731 26.363 33.102 23.27C30.29 21.391 28.351 21 21.852 21C14.667 21 14 20.83 14 19C14 17.174 14.667 17 21.684 17C27.321 17 30.468 17.532 33.494 18.997ZM33.046 26.75C43.132 35.763 32.038 51.725 20.011 45.506C15.849 43.354 14 40.176 14 35.177C14 31.533 14.569 30.231 17.4 27.4C20.278 24.522 21.504 24 25.384 24C28.972 24 30.637 24.597 33.046 26.75ZM22 28.27C18.218 30.219 16.524 34.437 18.047 38.113C21.322 46.019 33 43.82 33 35.296C33 29.421 27.09 25.646 22 28.27Z" fill="#6C6C6C"/>
<path fill-rule="evenodd" clip-rule="evenodd" d="M0 32V64H32H64V32V0H32H0V32ZM33.75 19.121C40.127 22.208 43.146 27.304 43.771 36.039C44.095 40.574 44.67 42.944 45.387 42.706C46.106 42.467 46.599 37.851 46.78 29.668C47.009 19.316 47.328 17 48.53 17C49.752 17 50 19.325 50 30.8C50 45.374 49.535 47 45.371 47C41.577 47 40 44.411 39.998 38.179C39.997 31.259 37.731 26.363 33.102 23.27C30.29 21.391 28.351 21 21.852 21C14.667 21 14 20.83 14 19C14 17.174 14.667 17 21.684 17C27.471 17 30.451 17.524 33.75 19.121ZM34.25 27.997C41.343 35.824 34.326 48.112 23.587 46.672C14.764 45.488 10.796 34.961 16.583 28.084C21.389 22.372 29.118 22.334 34.25 27.997ZM22.465 27.952C18.859 29.413 17.545 32.082 17.885 37.25C18.078 40.18 21.727 43 25.326 43C33.373 43 36.062 32.152 28.928 28.463C25.755 26.822 25.334 26.789 22.465 27.952Z" fill="#555555"/>
<path fill-rule="evenodd" clip-rule="evenodd" d="M0 32V64H32H64V32V0H32H0V32ZM33.79 18.894C40.727 22.434 44 28.389 44 37.468C44 40.511 44.45 43 45 43C45.616 43 46 37.977 46 29.93C46 16.949 46.015 16.863 48.25 17.18C50.427 17.49 50.509 17.901 50.782 29.877C51.102 43.954 50.105 47 45.177 47C41.12 47 40 45.272 40 39.012C40 31.783 36.822 25.34 32.016 22.824C29.581 21.55 26.359 21 21.325 21C14.406 21 12.175 20.144 13.5 18C14.646 16.146 29.706 16.809 33.79 18.894ZM30.643 24.635C34.832 26.623 37 30.516 37 36.05C37 39.436 36.374 40.826 33.6 43.6C30.749 46.451 29.48 47 25.735 47C12.897 47 8.801 29.481 20.452 24.406C24.51 22.638 26.531 22.684 30.643 24.635ZM20 30C17.022 32.978 17.333 38.33 20.635 40.927C22.084 42.067 24.354 43 25.68 43C29.01 43 33 38.759 33 35.22C33 29.071 24.387 25.613 20 30Z" fill="#1D1D1D"/>
<path fill-rule="evenodd" clip-rule="evenodd" d="M0 32V64H32H64V32V0H32H0V32ZM30.277 17.06C34.978 18.365 40.863 23.428 42.649 27.702C43.392 29.481 44 33.399 44 36.409C44 39.419 44.437 42.152 44.971 42.482C45.575 42.855 46.047 38.06 46.221 29.791C46.484 17.26 46.614 16.5 48.5 16.5C50.388 16.5 50.516 17.259 50.777 30.022C51.071 44.396 50.612 46.171 46.267 47.461C44.638 47.945 43.352 47.443 41.517 45.608C39.347 43.437 39 42.2 39 36.622C39 31.051 38.625 29.707 36.297 26.941C32.609 22.559 28.342 21 20.032 21C13.88 21 13 20.771 13 19.167C13 18.158 13.3 17.033 13.667 16.667C14.708 15.626 26.082 15.895 30.277 17.06ZM31.81 25.026C38.519 29.116 39.594 38.252 34.022 43.824C28.525 49.322 19.592 48.501 15.287 42.102C12.381 37.784 12.379 33.218 15.28 28.912C19.37 22.843 25.765 21.34 31.81 25.026ZM20.073 30.635C15.05 37.02 20.837 44.967 28.268 41.889C33.26 39.821 34.365 34.274 30.545 30.455C27.205 27.114 22.782 27.19 20.073 30.635Z" fill="black"/>
</g>
<defs>
<clipPath id="clip0_1_2">
<rect width="64" height="64" rx="32" fill="white"/>
</clipPath>
</defs>
</svg>
