<svg width="64" height="64" viewBox="0 0 64 64" fill="none" xmlns="http://www.w3.org/2000/svg">
<path fill-rule="evenodd" clip-rule="evenodd" d="M0 32V64H32H64V32V0H32H0V32Z" fill="white"/>
<path fill-rule="evenodd" clip-rule="evenodd" d="M9.183 24.887C8.259 25.458 8.505 26.963 10.193 31.071C11.421 34.057 12.782 36.651 13.219 36.835C13.655 37.02 13.715 37.652 13.352 38.24C12.976 38.848 13.16 39.019 13.777 38.638C14.374 38.269 15.456 38.814 16.182 39.849C16.907 40.884 17.725 41.76 18 41.795C18.275 41.831 19.85 42.392 21.5 43.043C34.081 48.006 50.934 41.804 54.908 30.75C55.7 28.544 55.603 28 54.417 28C53.603 28 52.679 28.672 52.364 29.494C52.048 30.316 51.318 30.697 50.741 30.34C50.163 29.983 49.967 30.137 50.304 30.683C51.17 32.085 48.089 36.173 46.777 35.362C46.124 34.958 45.979 35.157 46.413 35.86C47.687 37.921 37.296 41.979 30.718 41.99C24.482 42.001 17.449 39.701 18.502 37.996C18.858 37.421 18.553 37.074 17.824 37.225C17.096 37.376 16.613 36.937 16.75 36.25C16.888 35.562 16.469 35.112 15.82 35.25C14.082 35.618 9.598 26.867 11.061 25.962C11.695 25.571 11.806 24.998 11.309 24.691C10.812 24.384 9.855 24.472 9.183 24.887ZM53.008 25.68C53.012 26.131 54.164 27.033 55.569 27.685C57.786 28.714 58.079 28.648 57.801 27.185C57.482 25.515 52.993 24.106 53.008 25.68Z" fill="#E9E9E9"/>
<path fill-rule="evenodd" clip-rule="evenodd" d="M9 25C8.207 25.49 7.89 26.223 8.296 26.629C8.701 27.035 9.558 26.842 10.2 26.2C11.711 24.689 10.868 23.846 9 25ZM53 26C53 26.55 53.413 27 53.918 27C54.423 27 55.661 27.309 56.668 27.687C58.281 28.292 58.336 28.172 57.128 26.687C55.627 24.843 53 24.405 53 26ZM10.093 30.746C14.72 42.915 29.427 48.007 42.794 42.068C48.383 39.585 55 32.945 55 29.82C55 27.075 53.751 27.638 51.24 31.513C42.098 45.626 19.428 46.167 12.754 32.43C10.402 27.589 8.415 26.331 10.093 30.746Z" fill="#C3C3C3"/>
<path fill-rule="evenodd" clip-rule="evenodd" d="M53 26C53 26.55 53.413 27 53.918 27C54.423 27 55.661 27.309 56.668 27.687C58.281 28.292 58.336 28.172 57.128 26.687C55.627 24.843 53 24.405 53 26ZM10.543 30.439C12.467 40.028 24.81 46.427 36.644 43.97C39.579 43.361 44.122 41.431 46.739 39.681C51.509 36.493 56.154 29.821 54.651 28.318C54.21 27.877 53.361 28.413 52.764 29.508C49.986 34.601 43.375 39.835 37.599 41.514C25.971 44.894 15.566 40.336 10.984 29.855C10.04 27.697 10.003 27.746 10.543 30.439Z" fill="#AFAFAF"/>
<path fill-rule="evenodd" clip-rule="evenodd" d="M54.441 26.532C56.968 28.443 58.596 28.423 57 26.5C56.315 25.675 55.023 25.014 54.128 25.032C52.76 25.059 52.81 25.298 54.441 26.532ZM10.005 29.093C10.013 31.263 14.199 37.613 17.132 39.904C21.171 43.058 24.937 44.16 31.535 44.117C38.037 44.074 43.514 42.235 48.528 38.411C52.128 35.665 55.827 29.468 54.569 28.289C54.106 27.855 53.504 28.126 53.233 28.892C52.259 31.637 45.559 38.186 41.568 40.293C38.526 41.899 35.693 42.448 30.336 42.47C23.964 42.497 22.701 42.168 18.913 39.5C16.57 37.85 13.606 34.517 12.327 32.093C11.047 29.669 10.002 28.319 10.005 29.093Z" fill="#888888"/>
<path fill-rule="evenodd" clip-rule="evenodd" d="M55.226 26.574C56.176 27.568 57.227 28.107 57.562 27.771C57.897 27.436 57.12 26.623 55.836 25.964C53.603 24.819 53.576 24.846 55.226 26.574ZM51.495 31.828C42.176 45.91 21.089 46.822 12.861 33.5C11.841 31.85 11.006 31.047 11.004 31.715C10.997 33.913 17.404 40.278 21.491 42.135C32.46 47.118 48.28 41.965 53.663 31.657C55.971 27.237 54.454 27.357 51.495 31.828Z" fill="#515151"/>
<path fill-rule="evenodd" clip-rule="evenodd" d="M55.5 27C55.84 27.55 56.316 28 56.559 28C56.802 28 57 27.55 57 27C57 26.45 56.523 26 55.941 26C55.359 26 55.16 26.45 55.5 27ZM51.268 32.423C47.064 38.386 40.675 41.953 32.275 43.025L25.5 43.889L32.508 43.595C42.31 43.185 49.872 38.917 53.663 31.657C56.003 27.175 54.665 27.603 51.268 32.423ZM15.004 37.345C17.64 40.35 22.024 43.026 24.2 42.961C24.915 42.939 23.925 42.24 22 41.406C20.075 40.572 17.152 38.677 15.504 37.195L12.507 34.5L15.004 37.345Z" fill="#282828"/>
<path fill-rule="evenodd" clip-rule="evenodd" d="M52.511 30.964C51.591 33.865 43.324 40.77 39.861 41.53C38.209 41.893 37.091 42.425 37.377 42.711C38.311 43.645 44.062 41.12 47.822 38.124C51.649 35.076 55.846 29 54.124 29C53.58 29 52.854 29.884 52.511 30.964ZM28.25 43.716C29.763 43.945 32.238 43.945 33.75 43.716C35.263 43.487 34.025 43.3 31 43.3C27.975 43.3 26.738 43.487 28.25 43.716Z" fill="black"/>
</svg>
