<svg width="125" height="125" viewBox="0 0 125 125" fill="none" xmlns="http://www.w3.org/2000/svg">
<path fill-rule="evenodd" clip-rule="evenodd" d="M52 0.691C50.625 0.921 47.25 1.815 44.5 2.678C13.405 12.432 -5.177 43.897 1.511 75.471C7.632 104.367 33 124.931 62.59 124.985C79.867 125.017 93.773 119.178 106.603 106.504C115.418 97.798 120.592 88.92 123.485 77.54C125.428 69.895 125.428 55.105 123.485 47.46C117.838 25.245 99.111 6.753 77 1.557C71.005 0.148 57.945 -0.304 52 0.691ZM87.211 57C95.574 73.773 100.84 85.475 100.711 87L100.5 89.5H88H75.5L63.246 80.087C56.507 74.91 50.657 71.009 50.246 71.418C49.836 71.828 47.475 76.064 45 80.831L40.5 89.5H32.5C25.233 89.5 24.482 89.317 24.3 87.5C24.19 86.4 26.665 80.325 29.8 74L35.5 62.5L45.697 62.216L55.895 61.931L66.506 69.574C72.342 73.777 77.321 77.012 77.572 76.762C77.822 76.511 74.62 69.166 70.455 60.439L62.884 44.572L60.664 48.536L58.444 52.5L50.559 52.795C45.251 52.994 42.433 52.701 41.937 51.899C41.038 50.443 49.4 32.006 51.771 30.218C52.956 29.324 56.504 29.021 63.485 29.218L73.5 29.5L87.211 57Z" fill="black"/>
</svg>
