<svg width="125" height="125" viewBox="0 0 125 125" fill="none" xmlns="http://www.w3.org/2000/svg">
<path fill-rule="evenodd" clip-rule="evenodd" d="M46.209 1.556C24.616 7.368 7.204 24.989 1.57 46.731C-0.469001 54.598 -0.469001 70.403 1.57 78.27C6.926 98.941 23.093 116.152 43.087 122.468C49.693 124.554 53.073 124.998 62.302 124.988C75.251 124.974 81.338 123.615 91.978 118.359C106.249 111.31 119.407 95.053 123.472 79.448C125.449 71.857 125.472 53.367 123.515 46C117.842 24.655 99.913 6.919 78.54 1.509C71.035 -0.390999 53.346 -0.364999 46.209 1.556Z" fill="#1F2925"/>
<path fill-rule="evenodd" clip-rule="evenodd" d="M51.71 29.25C49.328 31.031 40.846 48.924 41.202 51.416C41.477 53.34 42.149 53.5 49.968 53.5H58.436L60.515 49.795L62.593 46.09L67.439 55.795C70.104 61.133 73.357 67.901 74.668 70.836L77.051 76.173L73.776 73.852C71.974 72.575 67.169 69.146 63.098 66.232L55.697 60.933L45.598 61.217L35.5 61.5L29 74.24C21.068 89.788 21.17 90.356 31.975 90.796C40.924 91.161 41.461 90.743 46.458 79.53L50.214 71.1L61.857 79.886C68.261 84.718 74.483 89.196 75.684 89.836C76.963 90.517 82.406 91 88.812 91C101.67 91 103.194 90.191 101.122 84.462C97.791 75.248 74.955 30.046 73.142 29.076C70.302 27.556 53.797 27.69 51.71 29.25Z" fill="#004000"/>
<path fill-rule="evenodd" clip-rule="evenodd" d="M51.71 29.25C49.328 31.031 40.846 48.924 41.202 51.416C41.477 53.34 42.149 53.5 49.968 53.5H58.436L60.515 49.795L62.593 46.09L67.439 55.795C70.104 61.133 73.357 67.901 74.668 70.836L77.051 76.173L73.776 73.852C71.974 72.575 67.169 69.146 63.098 66.232L55.697 60.933L45.598 61.217L35.5 61.5L29 74.24C21.068 89.788 21.17 90.356 31.975 90.796C40.924 91.161 41.461 90.743 46.458 79.53L50.214 71.1L61.857 79.886C68.261 84.718 74.483 89.196 75.684 89.836C76.963 90.517 82.406 91 88.812 91C101.67 91 103.194 90.191 101.122 84.462C97.791 75.248 74.955 30.046 73.142 29.076C70.302 27.556 53.797 27.69 51.71 29.25Z" fill="#D7FE51"/>
<path fill-rule="evenodd" clip-rule="evenodd" d="M51.223 29.557C50 30.413 49 31.624 49 32.248C49 32.872 49.637 32.509 50.416 31.441C51.605 29.811 53.49 29.409 62.166 28.931L72.5 28.362L62.973 28.181C55.742 28.044 52.909 28.375 51.223 29.557ZM79.454 41.011C82.76 47.532 85.614 52.72 85.794 52.539C86.251 52.083 75.249 30.272 74.252 29.655C73.806 29.38 76.147 34.49 79.454 41.011ZM44.077 42.841C39.321 52.672 39.707 53.435 49.607 53.788C56.415 54.03 57.906 53.793 59.048 52.288C60.205 50.762 60.198 50.683 59.002 51.75C58.135 52.523 54.626 53 49.8 53C42.63 53 42 52.836 42 50.971C42 49.856 43.379 46.21 45.065 42.87C46.751 39.53 47.96 36.626 47.75 36.417C47.541 36.207 45.888 39.098 44.077 42.841ZM67.214 55.459C70.074 61.212 72.575 65.759 72.769 65.564C73.212 65.121 63.161 45 62.497 45C62.23 45 64.353 49.707 67.214 55.459ZM87.104 56.5C87.104 57.05 89.982 63.125 93.5 70C97.018 76.875 99.896 82.05 99.896 81.5C99.896 80.95 97.018 74.875 93.5 68C89.982 61.125 87.104 55.95 87.104 56.5ZM34.872 62.75C33.666 64.289 33.688 64.354 35.056 63.289C35.958 62.586 40.792 61.939 46.556 61.748L56.5 61.419L46.372 61.209C37.758 61.031 36.04 61.261 34.872 62.75ZM57 62.316C57 62.968 78.133 78.202 78.507 77.82C78.678 77.644 77.944 75.925 76.875 74C75.522 71.564 75.134 71.245 75.597 72.951L76.262 75.402L73.381 73.548C71.797 72.529 68.925 70.495 67 69.03C61.503 64.845 57 61.822 57 62.316ZM27.47 77.06C21.316 89.569 21.577 90.372 31.947 90.796C40.052 91.127 41.148 90.59 44.073 84.857C47.007 79.105 46.325 78.818 43.226 84.5L40.499 89.5L32.734 89.792C22.545 90.176 22.309 89.495 28.392 77.249C30.983 72.035 32.942 67.609 32.747 67.413C32.551 67.218 30.177 71.559 27.47 77.06ZM48.456 73.085C47.574 74.79 47.05 76.383 47.292 76.625C47.533 76.867 48.287 75.721 48.968 74.078L50.204 71.093L61.852 79.882C68.258 84.717 74.483 89.196 75.684 89.836C78.667 91.426 99.204 91.396 100.8 89.8C101.46 89.14 101.955 87.677 101.9 86.55C101.817 84.833 101.688 84.907 101.107 87C100.426 89.454 100.206 89.505 89.202 89.783C81.897 89.967 77.209 89.649 75.746 88.869C74.51 88.211 68.226 83.692 61.78 78.828L50.06 69.984L48.456 73.085Z" fill="#B2D247"/>
<path fill-rule="evenodd" clip-rule="evenodd" d="M57.784 28.738C60.689 28.941 65.189 28.939 67.784 28.734C70.378 28.528 68 28.363 62.5 28.365C57 28.368 54.878 28.536 57.784 28.738ZM49.98 30.524C49.284 31.362 48.909 32.242 49.145 32.479C49.382 32.715 50.125 32.03 50.796 30.955C52.248 28.63 51.764 28.375 49.98 30.524ZM73 29.378C73 29.585 73.787 30.373 74.75 31.128C76.336 32.371 76.371 32.336 75.128 30.75C73.821 29.084 73 28.555 73 29.378ZM62.564 46.293C62.94 47.279 63.499 47.834 63.807 47.526C64.115 47.219 63.808 46.412 63.124 45.733C62.136 44.753 62.022 44.868 62.564 46.293ZM82.084 45.5C82.084 46.05 82.946 48.075 84 50C85.054 51.925 85.916 53.05 85.916 52.5C85.916 51.95 85.054 49.925 84 48C82.946 46.075 82.084 44.95 82.084 45.5ZM41.733 53.124C42.412 53.808 43.219 54.115 43.526 53.807C43.834 53.499 43.279 52.94 42.293 52.564C40.868 52.022 40.753 52.136 41.733 53.124ZM34.872 62.75C33.666 64.289 33.688 64.354 35.056 63.289C35.958 62.586 40.792 61.939 46.556 61.748L56.5 61.419L46.372 61.209C37.758 61.031 36.04 61.261 34.872 62.75ZM63 66.378C63 66.585 63.788 67.373 64.75 68.128C66.336 69.371 66.371 69.336 65.128 67.75C63.821 66.084 63 65.555 63 66.378ZM51 71.378C51 71.585 51.788 72.373 52.75 73.128C54.336 74.371 54.371 74.336 53.128 72.75C51.821 71.084 51 70.555 51 71.378ZM75.571 72.875C76.064 74.695 75.897 75.071 74.857 74.484C74.111 74.063 74.277 74.542 75.226 75.55C77.65 78.121 78.474 76.735 76.542 73.338C75.157 70.905 75.019 70.839 75.571 72.875ZM55 74.378C55 74.585 55.788 75.373 56.75 76.128C58.336 77.371 58.371 77.336 57.128 75.75C55.821 74.084 55 73.555 55 74.378ZM96.084 74.5C96.084 75.05 96.946 77.075 98 79C99.054 80.925 99.916 82.05 99.916 81.5C99.916 80.95 99.054 78.925 98 77C96.946 75.075 96.084 73.95 96.084 74.5ZM59 77.378C59 77.585 59.788 78.373 60.75 79.128C62.336 80.371 62.371 80.336 61.128 78.75C59.821 77.084 59 76.555 59 77.378ZM42.977 84.81L40.5 89.5H32.545C24.912 89.5 24.562 89.399 23.895 87C23.312 84.906 23.183 84.833 23.1 86.55C22.931 90.029 24.991 91 32.545 91C38.099 91 40.032 90.61 41.224 89.25C43.061 87.155 46.291 80.957 45.801 80.467C45.61 80.277 44.339 82.231 42.977 84.81ZM63 80.378C63 80.585 63.788 81.373 64.75 82.128C66.336 83.371 66.371 83.336 65.128 81.75C63.821 80.084 63 79.555 63 80.378ZM67 83.378C67 83.585 67.787 84.373 68.75 85.128C70.336 86.371 70.371 86.336 69.128 84.75C67.821 83.084 67 82.555 67 83.378ZM82.789 90.741C86.248 90.937 91.648 90.936 94.789 90.738C97.93 90.54 95.1 90.38 88.5 90.382C81.9 90.384 79.33 90.546 82.789 90.741Z" fill="#86A13D"/>
<path fill-rule="evenodd" clip-rule="evenodd" d="M57.784 28.738C60.689 28.941 65.189 28.939 67.784 28.734C70.378 28.528 68 28.363 62.5 28.365C57 28.368 54.878 28.536 57.784 28.738ZM49.872 30.75C48.629 32.336 48.664 32.371 50.25 31.128C51.212 30.373 52 29.585 52 29.378C52 28.555 51.179 29.084 49.872 30.75ZM74.613 75.183C74.902 75.65 75.557 75.774 76.069 75.457C77.377 74.649 77.23 74.333 75.544 74.333C74.743 74.333 74.324 74.716 74.613 75.183ZM23.872 89.25C24.994 90.68 26.641 90.964 32.872 90.801L40.5 90.603L33.045 90.253C28.944 90.061 24.894 89.363 24.045 88.702C22.689 87.647 22.668 87.714 23.872 89.25ZM82.789 90.741C86.248 90.937 91.648 90.936 94.789 90.738C97.93 90.54 95.1 90.38 88.5 90.382C81.9 90.384 79.33 90.546 82.789 90.741Z" fill="#5F7434"/>
<path fill-rule="evenodd" clip-rule="evenodd" d="M57.784 28.738C60.689 28.941 65.189 28.939 67.784 28.734C70.378 28.528 68 28.363 62.5 28.365C57 28.368 54.878 28.536 57.784 28.738Z" fill="#47572E"/>
</svg>
