<svg width="64" height="64" viewBox="0 0 64 64" fill="none" xmlns="http://www.w3.org/2000/svg">
<path fill-rule="evenodd" clip-rule="evenodd" d="M0 32V32C0 49.6731 14.3269 64 32 64V64V64C49.6731 64 64 49.6731 64 32V32V32C64 14.3269 49.6731 0 32 0V0V0C14.3269 0 0 14.3269 0 32V32Z" fill="white"/>
<path fill-rule="evenodd" clip-rule="evenodd" d="M0 32V32C0 49.6731 14.3269 64 32 64V64V64C49.6731 64 64 49.6731 64 32V32V32C64 14.3269 49.6731 0 32 0V0V0C14.3269 0 0 14.3269 0 32V32ZM32.705 23.235C35.986 24.804 38 30.002 38 36.901V38.25C38 40.8724 35.8724 42.9973 33.25 42.994V42.994C22.648 42.982 17 39.161 17 32C17 23.78 24.771 19.443 32.705 23.235ZM46.5 25C46.5 26.833 45.898 27.585 44.246 27.82C42.893 28.012 41.75 27.512 41.389 26.57C40.393 23.975 41.788 21.831 44.246 22.18C45.898 22.415 46.5 23.167 46.5 25Z" fill="#E8E8E8"/>
<path fill-rule="evenodd" clip-rule="evenodd" d="M0 32V32C0 49.6731 14.3269 64 32 64V64V64C49.6731 64 64 49.6731 64 32V32V32C64 14.3269 49.6731 0 32 0V0V0C14.3269 0 0 14.3269 0 32V32ZM32.033 22.517C36.236 24.691 38 28.809 38 36.45V36.901C38 40.2694 35.2694 43 31.901 43V43C21.921 43 16.667 39.206 16.667 32C16.667 27.792 18.738 24.382 22.388 22.581C26.333 20.635 28.367 20.621 32.033 22.517ZM46.427 22.569C48.404 24.546 46.86 28 44 28C41.14 28 39.596 24.546 41.573 22.569C43.545 20.598 44.455 20.598 46.427 22.569Z" fill="#C2C2C2"/>
<path fill-rule="evenodd" clip-rule="evenodd" d="M0 32V32C0 49.6731 14.3269 64 32 64V64V64C49.6731 64 64 49.6731 64 32V32V32C64 14.3269 49.6731 0 32 0V0V0C14.3269 0 0 14.3269 0 32V32ZM35.25 24.954C37.731 27.73 38 28.764 38 35.516V36.25C38 39.9773 34.9773 42.9982 31.25 42.996V42.996C22.947 42.992 18.75 40.803 17.026 35.577C13.29 24.258 27.32 16.08 35.25 24.954ZM46.961 22.928C47.529 23.988 47.721 25.563 47.389 26.428C46.595 28.499 41.405 28.499 40.611 26.428C39.747 24.178 41.732 21 44 21C45.061 21 46.394 21.867 46.961 22.928Z" fill="#ADADAD"/>
<path fill-rule="evenodd" clip-rule="evenodd" d="M0 32V32C0 49.6731 14.3269 64 32 64V64V64C49.6731 64 64 49.6731 64 32V32V32C64 14.3269 49.6731 0 32 0V0V0C14.3269 0 0 14.3269 0 32V32ZM34.6 24.4C37.87 27.67 38 28.09 38 35.4V35.4C38 39.5847 34.6077 43 30.423 43V43C23.413 43 22.631 42.785 19.974 40.128C18.395 38.549 16.806 36.074 16.443 34.628C15.488 30.825 16.694 27.152 19.974 23.872C24.243 19.603 30.012 19.812 34.6 24.4ZM46.8 22.2C49.987 25.387 46.037 30.161 42 28C38.594 26.177 40.073 21 44 21C44.88 21 46.14 21.54 46.8 22.2Z" fill="#686868"/>
<path fill-rule="evenodd" clip-rule="evenodd" d="M0 32V32C0 49.6731 14.3269 64 32 64V64V64C49.6731 64 64 49.6731 64 32V32V32C64 14.3269 49.6731 0 32 0V0V0C14.3269 0 0 14.3269 0 32V32ZM34.061 23.043C37.384 25.41 38.986 30.186 38.994 37.75V37.75C38.9973 40.6485 36.6485 43 33.75 43H30.9C23.022 43 22.707 42.907 19.4 39.6C16.613 36.813 16 35.443 16 32C16 28.557 16.613 27.187 19.4 24.4C22.186 21.614 23.557 21 26.996 21C29.618 21 32.267 21.766 34.061 23.043ZM47.593 23.513C48.316 26.394 46.61 29 44 29C41.39 29 39.684 26.394 40.407 23.513C40.903 21.537 41.671 21 44 21C46.329 21 47.097 21.537 47.593 23.513Z" fill="#3F3F3F"/>
<path fill-rule="evenodd" clip-rule="evenodd" d="M0 32V32C0 49.6731 14.3269 64 32 64V64V64C49.6731 64 64 49.6731 64 32V32V32C64 14.3269 49.6731 0 32 0V0V0C14.3269 0 0 14.3269 0 32V32ZM33.729 22.577C37.57 25.061 39.119 29.406 38.795 36.787V36.787C38.63 40.5412 35.5384 43.5 31.7805 43.5H31.398C23.349 43.5 19.548 41.96 17.415 37.835C14.573 32.34 16.441 24.597 21.165 22.288C26.374 19.741 29.454 19.812 33.729 22.577ZM46.404 21.306C50.154 24.048 46.167 30.848 42.25 28.393C39.787 26.849 39.422 22.896 41.596 21.306C42.579 20.588 43.66 20 44 20C44.34 20 45.421 20.588 46.404 21.306Z" fill="#1E1E1E"/>
<path fill-rule="evenodd" clip-rule="evenodd" d="M0 32V32C0 49.6731 14.3269 64 32 64V64V64C49.6731 64 64 49.6731 64 32V32V32C64 14.3269 49.6731 0 32 0V0V0C14.3269 0 0 14.3269 0 32V32ZM35.407 23.945C38.299 26.837 38.523 27.588 38.853 35.519L38.8959 36.5514C39.0645 40.6142 35.8163 44 31.75 44V44C22.603 44 18.261 41.629 16.124 35.467C12.108 23.883 26.652 15.191 35.407 23.945ZM47.548 22.433C49.757 25.804 48.03 29 44 29C39.97 29 38.243 25.804 40.452 22.433C41.329 21.095 42.925 20 44 20C45.075 20 46.671 21.095 47.548 22.433Z" fill="black"/>
</svg>
