<svg width="250" height="250" viewBox="0 0 250 250" fill="none" xmlns="http://www.w3.org/2000/svg">
<g clip-path="url(#clip0_1_2)">
<path fill-rule="evenodd" clip-rule="evenodd" d="M107.072 0.681003C105.976 0.927003 102.39 1.809 99.1036 2.64C95.8167 3.47 92.2829 4.327 91.251 4.543C90.2191 4.76 86.4094 6.376 82.7848 8.135C76.1245 11.367 75.4442 11.65 73.7759 11.875C73.2679 11.944 72.259 12.578 71.5349 13.284C70.8117 13.99 68.2022 15.749 65.737 17.194C55.1056 23.424 40.1345 37.543 28.8307 52C17.6892 66.249 7.00596 89.159 3.0966 107.188C-0.0597717 121.743 0.0726984 148.055 3.3705 161.686C6.73405 175.589 14.3317 191.995 22.1086 202.144C23.6444 204.148 24.9004 206.044 24.9004 206.357C24.9004 206.67 29.0468 211.143 34.1135 216.297C39.7988 222.08 47.1763 228.22 53.3815 232.334C58.9113 236 63.7191 239 64.0637 239C64.4084 239 67.6026 240.339 71.1613 241.975C74.7191 243.611 78.6524 245.172 79.9014 245.442C81.1494 245.713 85.5329 246.874 89.6414 248.023C96.258 249.873 99.1603 250.067 115.04 249.722C130.178 249.394 133.86 249.004 138.695 247.221C141.845 246.058 144.422 245.339 144.422 245.621C144.422 245.903 147.433 244.529 151.113 242.567C154.793 240.605 158.161 239 158.599 239C161.511 239 178.392 224.301 183.548 217.276C190.148 208.282 189.328 208.844 193.227 210.648C205.412 216.286 212.413 219.593 217.889 222.298C224.937 225.78 228.236 225.441 230.533 221C232.65 216.905 238.119 202.836 239.473 198C240.166 195.525 241.889 189.45 243.302 184.5C248.66 165.722 249.502 158.464 249.502 131C249.502 103.226 248.659 96.759 243.197 82.614C241.734 78.826 240.085 74.551 239.531 73.114C238.448 70.304 234.642 63.514 229.68 55.54C227.982 52.812 226.145 49.829 225.598 48.91C222.96 44.489 215.83 35.938 210.548 30.863C203.135 23.741 197.636 19 196.788 19C196.426 19 193.703 17.2 190.737 15C187.771 12.8 184.864 11 184.277 11C183.69 11 180.581 9.667 177.367 8.039C174.153 6.41 170.468 4.878 169.178 4.634C167.888 4.391 163.275 3.248 158.926 2.096C152.008 0.262003 148.396 0.0150023 130.042 0.116003C118.504 0.180003 108.167 0.434003 107.072 0.681003ZM156.933 67.901C161.299 77.515 162.351 83.715 162.351 99.845C162.351 114.497 161.684 120.183 158.758 130.5C156.822 137.329 155.81 138.833 154.225 137.242C153.545 136.559 152.019 136 150.835 136C149.649 136 145.401 134.643 141.394 132.983C130.856 128.62 127.167 128.197 125.13 131.116C124.237 132.397 123.507 134.357 123.509 135.473C123.514 138.534 116.231 152.999 114.684 152.999C113.847 153 113.569 153.617 113.953 154.623C114.769 156.758 108.886 165.6 101.271 173.684C95.238 180.088 83.738 187.635 78.3705 188.713L75.4671 189.296L76.1962 182.898C76.5966 179.379 77.8147 173.125 78.9014 169C79.988 164.875 81.252 159.667 81.7102 157.427C82.1683 155.188 83.508 150.913 84.6882 147.927C85.8675 144.942 87.8546 139.8 89.1036 136.5C93.1952 125.691 99.6335 114.213 108.456 102C116.338 91.09 140.734 66.993 145.403 65.505C146.507 65.153 147.41 64.46 147.41 63.965C147.41 63.469 148.642 62.416 150.147 61.624C153.312 59.959 153.338 59.983 156.933 67.901Z" fill="#EFC7FD"/>
<path fill-rule="evenodd" clip-rule="evenodd" d="M104.582 7.936C90.0458 11.177 75.1494 17.09 59.5209 25.822C55.2809 28.191 51.3735 29.858 50.8386 29.526C49.5857 28.749 37.8088 40.476 30.7799 49.5C12.1126 73.468 0.996017 102.535 0.996017 127.379C0.996017 133.156 1.41434 138.141 1.9253 138.458C2.43626 138.775 3.38745 141.615 4.03885 144.767C5.77789 153.187 11.5189 169.172 16.1225 178.416C25.3516 196.946 36.005 209.29 52.0936 220.094C61.2719 226.258 72.7092 232.534 72.7092 231.407C72.7092 231.066 71.3735 227.976 69.741 224.543C68.1086 221.109 66.1195 215.419 65.3197 211.9C63.507 203.915 62.2908 191.553 63.1773 190.114C63.6185 189.397 65.505 189.905 68.7739 191.621C72.4741 193.563 73.7052 194.775 73.7052 196.474C73.7052 197.719 74.3904 202.734 75.2291 207.619C77.9532 223.495 87.1584 238.658 95.4811 240.979C101.707 242.715 120.746 242.195 131.501 239.995L141.302 237.989L144.855 240.093C146.808 241.251 148.406 242.59 148.406 243.071C148.406 243.551 150.49 242.831 153.037 241.472C155.584 240.112 158.056 239 158.531 239C161.502 239 178.326 224.391 183.548 217.276C190.148 208.282 189.328 208.844 193.227 210.648C205.412 216.286 212.413 219.593 217.889 222.298C224.937 225.78 228.236 225.441 230.533 221C232.65 216.905 238.119 202.836 239.473 198C240.166 195.525 241.884 189.45 243.291 184.5C248.547 165.999 249.313 159.935 249.756 133.318C250.022 117.306 249.806 107.473 249.161 106.318C248.57 105.255 246.992 104.485 245.367 104.465C243.038 104.435 242.44 103.865 241.701 100.965C237.41 84.132 229.989 66.592 223.216 57.277C216.012 47.368 196.473 43.188 177.553 47.508L170.388 49.144L165.872 46.024C163.387 44.308 161.355 42.689 161.355 42.427C161.355 42.165 162.588 41.478 164.094 40.901C171.377 38.111 178.889 36.775 190.737 36.166L203.685 35.5L196.971 30.5C182.347 19.61 170.395 13.772 153.46 9.248C140.339 5.743 117.201 5.121 104.582 7.936ZM184.263 11.393C184.263 11.609 184.958 12.054 185.809 12.382C186.695 12.723 187.095 12.555 186.746 11.989C186.161 11.038 184.263 10.583 184.263 11.393ZM71.7132 13C70.8157 13.582 70.6922 13.975 71.4054 13.985C72.0578 13.993 72.8685 13.55 73.2072 13C73.9711 11.758 73.6265 11.758 71.7132 13ZM216.135 37.378C216.135 37.585 216.919 38.373 217.878 39.128C219.458 40.371 219.493 40.336 218.255 38.75C216.953 37.084 216.135 36.555 216.135 37.378ZM156.933 67.901C161.299 77.515 162.351 83.715 162.351 99.845C162.351 114.497 161.684 120.183 158.758 130.5C156.822 137.329 155.81 138.833 154.225 137.242C153.545 136.559 152.019 136 150.835 136C149.649 136 145.401 134.643 141.394 132.983C130.856 128.62 127.167 128.197 125.13 131.116C124.237 132.397 123.507 134.357 123.509 135.473C123.514 138.534 116.231 152.999 114.684 152.999C113.847 153 113.569 153.617 113.953 154.623C114.769 156.758 108.886 165.6 101.271 173.684C95.2381 180.088 83.738 187.635 78.3705 188.713L75.4671 189.296L76.1962 182.898C76.5966 179.379 77.8147 173.125 78.9014 169C79.9881 164.875 81.252 159.667 81.7102 157.427C82.1683 155.188 83.508 150.913 84.6883 147.927C85.8675 144.942 87.8546 139.8 89.1036 136.5C93.1952 125.691 99.6335 114.213 108.456 102C116.338 91.09 140.734 66.993 145.403 65.505C146.507 65.153 147.41 64.46 147.41 63.965C147.41 63.469 148.642 62.416 150.147 61.624C153.312 59.959 153.338 59.983 156.933 67.901ZM38.8446 221.378C38.8446 221.585 39.6295 222.373 40.5877 223.128C42.1673 224.371 42.2022 224.336 40.9641 222.75C39.6624 221.084 38.8446 220.555 38.8446 221.378ZM144.927 244.989C144.579 245.555 144.978 245.723 145.865 245.382C147.59 244.717 147.905 244 146.473 244C145.957 244 145.262 244.445 144.927 244.989Z" fill="#0000FF"/>
<path fill-rule="evenodd" clip-rule="evenodd" d="M104.582 7.936C90.0458 11.177 75.1494 17.09 59.5209 25.822C55.2809 28.191 51.3735 29.858 50.8386 29.526C49.5857 28.749 37.8088 40.476 30.7799 49.5C12.1126 73.468 0.996017 102.535 0.996017 127.379C0.996017 133.156 1.41434 138.141 1.9253 138.458C2.43626 138.775 3.38745 141.615 4.03885 144.767C5.77789 153.187 11.5189 169.172 16.1225 178.416C25.3516 196.946 36.005 209.29 52.0936 220.094C61.2719 226.258 72.7092 232.534 72.7092 231.407C72.7092 231.066 71.3735 227.976 69.741 224.543C68.1086 221.109 66.1195 215.419 65.3197 211.9C63.507 203.915 62.2908 191.553 63.1773 190.114C63.6185 189.397 65.505 189.905 68.7739 191.621C72.4741 193.563 73.7052 194.775 73.7052 196.474C73.7052 197.719 74.3904 202.734 75.2291 207.619C77.9532 223.495 87.1584 238.658 95.4811 240.979C101.707 242.715 120.746 242.195 131.501 239.995L141.302 237.989L144.855 240.093C146.808 241.251 148.406 242.59 148.406 243.071C148.406 243.551 150.49 242.831 153.037 241.472C155.584 240.112 158.082 239 158.589 239C159.869 239 173.107 228.809 177.037 224.798C180.053 221.721 184.72 215.96 188.283 210.919L189.812 208.755L200.733 213.969C206.739 216.836 214.459 220.576 217.889 222.28C224.935 225.781 228.233 225.447 230.533 221C232.65 216.905 238.119 202.836 239.473 198C240.166 195.525 241.884 189.45 243.291 184.5C248.547 165.999 249.313 159.935 249.756 133.318C250.022 117.306 249.806 107.473 249.161 106.318C248.57 105.255 246.992 104.485 245.367 104.465C243.038 104.435 242.44 103.865 241.701 100.965C237.41 84.132 229.989 66.592 223.216 57.277C216.012 47.368 196.473 43.188 177.553 47.508L170.388 49.144L165.872 46.024C163.387 44.308 161.355 42.689 161.355 42.427C161.355 42.165 162.588 41.478 164.094 40.901C171.377 38.111 178.889 36.775 190.737 36.166L203.685 35.5L196.971 30.5C182.347 19.61 170.395 13.772 153.46 9.248C140.339 5.743 117.201 5.121 104.582 7.936ZM184.263 11.393C184.263 11.609 184.958 12.054 185.809 12.382C186.695 12.723 187.095 12.555 186.746 11.989C186.161 11.038 184.263 10.583 184.263 11.393ZM71.7132 13C70.8157 13.582 70.6922 13.975 71.4054 13.985C72.0578 13.993 72.8685 13.55 73.2072 13C73.9711 11.758 73.6265 11.758 71.7132 13ZM216.135 37.378C216.135 37.585 216.919 38.373 217.878 39.128C219.458 40.371 219.493 40.336 218.255 38.75C216.953 37.084 216.135 36.555 216.135 37.378ZM156.924 67.882C164.441 84.431 165.245 105.634 159.232 128.797C157.016 137.334 156.001 139.025 154.183 137.2C153.526 136.54 152.019 136 150.835 136C149.649 136 145.401 134.643 141.394 132.983C130.856 128.62 127.167 128.197 125.13 131.116C124.237 132.397 123.507 134.357 123.509 135.473C123.514 138.534 116.231 152.999 114.684 152.999C113.847 153 113.569 153.617 113.953 154.623C114.769 156.758 108.886 165.6 101.271 173.684C95.5418 179.766 85.6763 186.403 78.7769 188.818L75.4681 189.976L76.1853 183.238C76.5807 179.532 77.7978 173.125 78.8904 169C79.9831 164.875 81.2709 159.568 81.752 157.206C82.2321 154.844 83.7898 150.119 85.2132 146.706C86.6355 143.293 88.0279 139.6 88.3068 138.5C90.0289 131.711 99.8655 113.892 108.456 102C116.338 91.09 140.734 66.993 145.403 65.505C146.507 65.153 147.41 64.46 147.41 63.965C147.41 63.469 148.642 62.416 150.147 61.624C153.311 59.96 153.339 59.985 156.924 67.882ZM38.8446 221.378C38.8446 221.585 39.6295 222.373 40.5877 223.128C42.1673 224.371 42.2022 224.336 40.9641 222.75C39.6624 221.084 38.8446 220.555 38.8446 221.378ZM144.927 244.989C144.579 245.555 144.978 245.723 145.865 245.382C147.59 244.717 147.905 244 146.473 244C145.957 244 145.262 244.445 144.927 244.989Z" fill="#2CBBF9"/>
<path fill-rule="evenodd" clip-rule="evenodd" d="M104.582 7.94199C99.9253 8.98299 93.8745 10.588 91.1355 11.507C84.2132 13.831 67.4412 21.102 66.2351 22.302C65.5747 22.959 65.7112 23.023 66.6384 22.492C67.5827 21.951 67.8028 22.071 67.3157 22.862C66.9193 23.506 66.1823 23.776 65.6763 23.463C65.1713 23.149 61.8516 24.525 58.2988 26.519C54.745 28.514 51.3944 29.871 50.8526 29.535C48.6873 28.191 29.5299 49.619 22.2749 61.5C8.07769 84.752 0.996017 106.675 0.996017 127.379C0.996017 133.156 1.41434 138.141 1.9253 138.458C2.43626 138.775 3.38745 141.615 4.03885 144.767C5.77789 153.187 11.5189 169.172 16.1225 178.416C24.749 195.736 35.4163 208.585 48.9094 217.908C55.2749 222.306 55.2759 222.307 51.3805 218.619C49.0199 216.386 47.8416 214.567 48.3934 214.013C49.2032 213.2 62.0677 208 63.2699 208C63.5309 208 63.745 208.75 63.745 209.667C63.745 210.583 63.9562 211.121 64.2141 210.862C64.4721 210.603 64.1823 206.301 63.5687 201.302C62.0488 188.904 62.3845 188.267 68.7022 191.583C73.238 193.965 73.7052 194.532 73.7052 197.664C73.7052 199.968 74.0787 200.887 74.8257 200.423C75.6096 199.936 75.8078 200.895 75.4831 203.614C73.9831 216.177 85.8137 238.283 95.4811 240.979C100.607 242.408 123.506 242.323 123.506 240.875C123.506 240.158 124.68 239.952 126.743 240.307C128.523 240.614 129.499 240.659 128.911 240.408C128.324 240.157 128.008 238.725 128.21 237.226C128.663 233.861 124.938 229.446 118.526 225.752C116.061 224.331 113.133 222.344 112.02 221.335C109.388 218.949 97.6663 211 96.7799 211C96.4034 211 94.8865 209.875 93.4094 208.5C91.9333 207.125 90.257 206 89.6853 206C89.1135 206 88.6454 205.55 88.6454 205C88.6454 204.45 88.1315 204 87.503 204C86.8745 204 84.3944 202.383 81.992 200.406C79.51 198.364 76.992 197.055 76.1624 197.374C74.24 198.115 74.3147 194.738 76.5379 180.363C77.8825 171.669 77.9811 169.334 76.9871 169.717C76.2869 169.987 75.4283 169.46 75.0787 168.546C74.7301 167.633 73.8416 167.117 73.1046 167.401C72.3685 167.685 71.4173 167.32 70.992 166.589C70.5667 165.859 69.248 164.96 68.0608 164.59C66.1325 163.99 65.7301 164.511 64.2928 169.476C62.3506 176.182 61.6604 176.027 53.5926 167.076C38.6733 150.524 32.1116 123.78 34.8466 90.668C35.9841 76.901 35.9472 75.077 34.4781 72.225C33.5817 70.484 31.9562 68.58 30.8675 67.995C28.992 66.987 28.9681 66.733 30.4173 63.215C34.5598 53.164 48.2371 36.547 59.1325 28.327C65.0379 23.873 64.9701 23.973 57.0996 31.369C48.755 39.211 39.8406 50.147 39.8406 52.543C39.8406 53.871 42.496 53.022 52.2908 48.566C67.6863 41.562 79.9223 38.703 94.6215 38.675C111.259 38.643 120.743 41.211 133.347 49.164C137.488 51.777 137.859 51.839 140.66 50.385C142.284 49.542 143.869 49.111 144.183 49.426C144.497 49.742 144.344 50.01 143.842 50.022C143.339 50.034 141.862 50.868 140.558 51.875L138.187 53.705L143.795 56.926C146.879 58.697 149.402 60.619 149.402 61.196C149.402 61.831 150.004 61.744 150.927 60.974C152.955 59.285 154.358 61.213 158.223 71C164.214 86.172 164.811 106.949 159.817 126.5C157.07 137.256 156.091 139.115 154.183 137.2C153.526 136.54 152.019 136 150.835 136C149.649 136 145.401 134.643 141.394 132.983C132.188 129.172 127.303 128.317 125.715 130.238C124.8 131.345 124.811 131.689 125.763 131.767C127.22 131.887 191.404 156.486 194.254 158.017C196.709 159.336 196.701 161.376 194.2 172C191.537 183.315 183.01 200.39 174.878 210.693C164.786 223.48 156.089 230.06 140.438 236.751C136.9 238.263 136.058 238.882 138.058 238.498C141.167 237.9 148.406 241.099 148.406 243.071C148.406 243.551 150.49 242.831 153.037 241.472C155.584 240.112 158.082 239 158.589 239C159.869 239 173.107 228.809 177.037 224.798C180.051 221.723 184.734 215.944 188.267 210.94L189.781 208.796L199.721 213.611C211.954 219.536 213.876 219.917 214.709 216.583C215.226 214.515 216.013 214.056 219.464 213.803C223.059 213.54 223.83 213.043 225.372 210C226.574 207.627 226.935 207.305 226.494 209C226.136 210.375 225.228 212.714 224.477 214.197C223.726 215.68 222.972 217.806 222.803 218.921C222.633 220.036 222.215 221.229 221.874 221.572C221.532 221.915 221.494 222.827 221.789 223.598C222.742 226.092 229.377 224.784 229.706 222.036C229.775 221.466 229.886 220.523 229.955 219.941C230.024 219.359 230.598 219.203 231.23 219.595C231.866 219.99 232.112 219.874 231.781 219.336C231.451 218.801 232.296 215.95 233.656 213.001C235.017 210.052 235.92 207.087 235.662 206.413C235.404 205.739 236.057 204.404 237.111 203.447C238.492 202.191 238.91 200.767 238.611 198.339C238.375 196.425 238.593 195.22 239.118 195.546C239.625 195.86 240.04 195.281 240.04 194.259C240.04 193.237 240.465 191.972 240.984 191.45C242.31 190.117 245.305 179.224 245.539 174.883C245.646 172.894 246.048 170.757 246.432 170.133C246.816 169.51 246.864 169 246.538 169C246.212 169 246.433 168.085 247.03 166.967C248.64 163.946 249.233 155.983 249.721 130.807C249.999 116.524 249.789 107.444 249.155 106.307C248.569 105.255 246.986 104.485 245.367 104.465C243.038 104.435 242.44 103.865 241.701 100.965C237.41 84.132 229.989 66.592 223.216 57.277C216.012 47.368 196.473 43.188 177.553 47.508L170.388 49.144L165.872 46.024C163.387 44.308 161.355 42.689 161.355 42.427C161.355 42.165 162.588 41.478 164.094 40.901C171.377 38.111 178.889 36.775 190.737 36.166L203.685 35.5L196.971 30.5C182.347 19.61 170.395 13.772 153.46 9.24799C140.324 5.73899 117.192 5.12099 104.582 7.94199ZM184.263 11.393C184.263 11.609 184.958 12.054 185.809 12.382C186.695 12.723 187.095 12.555 186.746 11.989C186.161 11.038 184.263 10.583 184.263 11.393ZM71.7132 13C70.8157 13.582 70.6922 13.975 71.4054 13.985C72.0578 13.993 72.8685 13.55 73.2072 13C73.9711 11.758 73.6265 11.758 71.7132 13ZM216.135 37.378C216.135 37.585 216.919 38.373 217.878 39.128C219.458 40.371 219.493 40.336 218.255 38.75C216.953 37.084 216.135 36.555 216.135 37.378ZM134.335 73.75C133.097 75.336 133.131 75.371 134.711 74.128C135.67 73.373 136.454 72.585 136.454 72.378C136.454 71.555 135.636 72.084 134.335 73.75ZM242.735 142.25C242.497 143.488 242.303 142.475 242.303 140C242.303 137.525 242.497 136.512 242.735 137.75C242.972 138.988 242.972 141.012 242.735 142.25ZM129.266 142.75C127.156 145.179 125.631 148.296 123.47 154.604L121.617 160.013L124.008 162.256C129.433 167.348 135.872 172 137.494 172C138.018 172 138.446 172.413 138.446 172.918C138.446 173.424 140.127 174.862 142.181 176.116C144.236 177.369 146.14 178.665 146.414 178.995C146.688 179.326 149.044 180.832 151.647 182.343C156.247 185.011 156.481 185.043 159.793 183.465C163.048 181.914 167.331 175.207 167.331 171.66C167.331 167.646 164.679 163.608 159.333 159.477C156.145 157.015 153.301 155 153.011 155C152.721 155 148.153 151.85 142.859 148C137.564 144.15 132.682 141 132.01 141C131.337 141 130.103 141.787 129.266 142.75ZM241.722 151.75C241.472 152.713 241.267 151.925 241.267 150C241.267 148.075 241.472 147.287 241.722 148.25C241.973 149.213 241.973 150.787 241.722 151.75ZM240.73 158.731C240.477 159.704 240.254 159.15 240.234 157.5C240.214 155.85 240.42 155.054 240.693 155.731C240.966 156.408 240.983 157.758 240.73 158.731ZM204.311 157.75C205.549 159.336 205.514 159.371 203.934 158.128C202.275 156.821 201.748 156 202.568 156C202.774 156 203.559 156.787 204.311 157.75ZM239.703 164.25C239.427 164.938 239.201 164.375 239.201 163C239.201 161.625 239.427 161.063 239.703 161.75C239.98 162.438 239.98 163.563 239.703 164.25ZM239.711 166.75C239.466 167.162 238.728 170.123 238.072 173.329C237.415 176.535 236.665 178.945 236.406 178.685C235.643 177.919 238.365 166 239.302 166C239.773 166 239.956 166.338 239.711 166.75ZM235.487 183.429C235.121 184.894 234.628 185.9 234.393 185.665C234.159 185.429 234.267 184.037 234.632 182.571C234.999 181.106 235.491 180.1 235.726 180.335C235.96 180.571 235.853 181.963 235.487 183.429ZM231.076 197.5C230.418 199.499 229.716 200.968 229.515 200.766C229.313 200.564 229.657 198.734 230.279 196.7C230.9 194.666 231.604 193.196 231.84 193.434C232.077 193.672 231.733 195.501 231.076 197.5ZM228.209 204.675C227.035 206.702 226.752 206.053 227.713 203.539C228.054 202.645 228.544 202.124 228.8 202.382C229.057 202.639 228.791 203.671 228.209 204.675ZM62.6982 221.856C60.753 222.833 58.512 223.451 57.7181 223.228C55.6873 222.659 61.743 226.454 67.7082 229.489C70.4582 230.889 72.7092 231.733 72.7092 231.367C72.7092 230.106 67.495 220 66.8655 220.04C66.5189 220.062 64.6434 220.879 62.6982 221.856ZM38.8446 221.378C38.8446 221.585 39.6295 222.373 40.5877 223.128C42.1673 224.371 42.2022 224.336 40.9641 222.75C39.6624 221.084 38.8446 220.555 38.8446 221.378ZM132.284 239.683C133.002 239.972 133.862 239.936 134.192 239.604C134.523 239.272 133.935 239.036 132.885 239.079C131.725 239.127 131.489 239.364 132.284 239.683ZM144.927 244.989C144.579 245.555 144.978 245.723 145.865 245.382C147.59 244.717 147.905 244 146.473 244C145.957 244 145.262 244.445 144.927 244.989Z" fill="#4D89FD"/>
<path fill-rule="evenodd" clip-rule="evenodd" d="M184.263 11.393C184.263 11.609 184.958 12.054 185.809 12.382C186.695 12.723 187.095 12.555 186.746 11.989C186.161 11.038 184.263 10.583 184.263 11.393ZM71.7131 13C70.8157 13.582 70.6922 13.975 71.4054 13.985C72.0578 13.993 72.8685 13.55 73.2072 13C73.9711 11.758 73.6265 11.758 71.7131 13ZM59.761 25.59C55.6524 28.01 51.7181 29.777 51.0179 29.516C48.3904 28.536 29.7112 49.321 22.2749 61.5C8.07769 84.752 0.996017 106.675 0.996017 127.379C0.996017 133.156 1.41434 138.141 1.9253 138.458C2.43626 138.775 3.38745 141.615 4.03885 144.767C5.77789 153.187 11.5189 169.172 16.1225 178.416C24.749 195.736 35.4163 208.585 48.9094 217.908C55.2749 222.306 55.2759 222.307 51.3805 218.619C49.0199 216.386 47.8416 214.567 48.3934 214.013C49.2032 213.2 62.0677 208 63.2699 208C63.5309 208 63.745 208.75 63.745 209.667C63.745 210.583 63.9562 211.121 64.2141 210.862C64.4721 210.603 64.1823 206.301 63.5687 201.302C62.0508 188.922 62.3904 188.27 68.6464 191.554C73.0189 193.85 73.6384 194.578 73.9801 197.826C74.3147 201.009 74.3964 200.832 74.5906 196.5C74.7151 193.75 75.5906 186.488 76.5378 180.363C77.8825 171.669 77.9811 169.334 76.987 169.717C76.2869 169.987 75.4283 169.46 75.0787 168.546C74.7301 167.633 73.8416 167.117 73.1046 167.401C72.3685 167.685 71.4173 167.32 70.992 166.589C70.5667 165.859 69.248 164.96 68.0608 164.59C66.1325 163.99 65.7301 164.511 64.2928 169.476C62.3506 176.182 61.6604 176.027 53.5926 167.076C38.6733 150.524 32.1116 123.78 34.8466 90.668C35.9841 76.901 35.9472 75.077 34.4781 72.225C33.5817 70.484 31.9562 68.58 30.8675 67.995C28.992 66.987 28.9681 66.733 30.4173 63.215C34.8516 52.455 48.6375 36.096 61.0926 26.816C65.3855 23.617 68.5229 21.042 68.0647 21.094C67.6056 21.146 63.8695 23.169 59.761 25.59ZM191.25 30.75C191.288 32.576 193.067 34.018 196.016 34.61C200.152 35.441 200.048 34.698 195.66 32.099C191.78 29.8 191.227 29.631 191.25 30.75ZM216.135 37.378C216.135 37.585 216.919 38.373 217.878 39.128C219.458 40.371 219.493 40.336 218.255 38.75C216.953 37.084 216.135 36.555 216.135 37.378ZM156.11 43.48C150.773 45.705 138.446 52.697 138.446 53.499C138.446 53.694 140.911 55.269 143.924 57C146.937 58.731 149.418 60.676 149.438 61.323C149.458 61.971 150.466 61.313 151.679 59.862C152.892 58.411 156.238 56.041 159.114 54.595C165.057 51.607 166.305 51.91 160.608 54.957C153.671 58.667 152.898 59.599 154.584 62.212C155.395 63.471 156.368 65.756 156.744 67.291C157.121 68.826 157.817 69.841 158.292 69.547C158.766 69.252 159.419 69.707 159.745 70.558C160.086 71.449 159.916 71.843 159.344 71.488C158.778 71.137 158.846 71.961 159.501 73.405C160.132 74.798 161.019 75.708 161.471 75.428C161.922 75.147 162.566 76.174 162.9 77.709C163.235 79.244 163.899 81.625 164.377 83C166.664 89.586 167.362 94.734 167.442 105.652C167.516 115.526 167.17 118.458 165.367 123.251C162.822 130.014 160.518 132.859 159.233 130.824C158.629 129.867 158.352 130.124 158.232 131.75C158.141 132.988 158.023 134.563 157.968 135.25C157.913 135.938 157.457 136.798 156.954 137.163C156.451 137.527 157.572 138.8 159.444 139.99C161.761 141.463 162.123 141.946 160.576 141.5C159.326 141.14 157.13 139.755 155.699 138.422C154.267 137.09 152.103 136 150.888 136C149.673 136 145.401 134.643 141.394 132.983C132.188 129.172 127.303 128.317 125.715 130.238C124.8 131.345 124.811 131.689 125.763 131.767C127.22 131.887 191.404 156.486 194.254 158.017C196.709 159.336 196.701 161.376 194.2 172C191.537 183.315 183.01 200.39 174.878 210.693C164.786 223.48 156.089 230.06 140.438 236.751C136.9 238.263 136.058 238.882 138.058 238.498C141.167 237.9 148.406 241.099 148.406 243.071C148.406 243.551 150.49 242.831 153.037 241.472C155.584 240.112 158.082 239 158.589 239C159.869 239 173.107 228.809 177.037 224.798C180.053 221.72 184.718 215.963 188.285 210.916L189.817 208.749L194.163 210.857C198.262 212.845 198.586 212.867 199.822 211.233C200.542 210.28 201.146 209.103 201.163 208.618C201.192 207.812 203.291 208.001 211.653 209.567C214.421 210.085 214.77 209.808 216.384 205.803C217.343 203.425 218.127 200.786 218.127 199.939C218.127 199.093 218.511 197.973 218.979 197.45C219.448 196.928 220.522 194.25 221.365 191.5C222.208 188.75 224.548 181.365 226.564 175.089C232.324 157.162 231.084 151.426 218.697 138.703C211.99 131.814 211.278 130.734 212.583 129.424C213.395 128.608 213.783 127.169 213.444 126.221C213.107 125.274 213.179 124.816 213.606 125.202C214.032 125.589 214.997 125.286 215.751 124.529C216.504 123.773 218.131 122.321 219.368 121.302C224.659 116.941 232.91 105.413 236.63 97.184C237.963 94.235 237.964 93.221 236.636 88.018C233.36 75.176 224.885 58.521 219.173 53.695C213.807 49.162 203.955 46.495 192.729 46.537C183.668 46.57 180.169 47.187 169.609 50.611C168.261 51.049 168.157 50.953 169.182 50.218C170.228 49.468 169.487 48.521 165.925 46.061C163.388 44.309 161.574 42.454 161.89 41.938C162.634 40.731 162.821 40.681 156.11 43.48ZM242.432 108.975C244.113 121.689 242.708 149.069 239.483 166.5C237.487 177.282 232.045 195.21 226.618 208.879C224.57 214.038 222.817 218.763 222.723 219.379C222.63 219.996 222.26 220.971 221.9 221.548C220.401 223.951 223.266 225.119 228.229 224.128C228.58 224.057 229.153 222.857 229.503 221.459C229.853 220.062 230.498 219.142 230.939 219.415C231.379 219.688 231.74 219.302 231.74 218.557C231.74 217.812 232.729 214.893 233.938 212.071C235.147 209.249 235.905 206.564 235.622 206.104C235.339 205.644 235.923 204.525 236.921 203.618C238.144 202.508 238.659 200.813 238.5 198.426C238.37 196.478 238.518 195.139 238.829 195.451C239.457 196.082 241.653 190.641 243.25 184.5C243.822 182.3 244.718 179.553 245.243 178.396C245.768 177.239 246.058 175.214 245.888 173.896C245.718 172.578 245.928 170.938 246.355 170.25C246.781 169.563 246.864 169 246.538 169C246.212 169 246.433 168.085 247.03 166.967C248.64 163.946 249.233 155.983 249.721 130.807C249.996 116.657 249.787 107.44 249.164 106.324C248.563 105.244 246.907 104.483 244.989 104.405L241.812 104.277L242.432 108.975ZM129.266 142.75C127.156 145.179 125.631 148.296 123.47 154.604L121.617 160.013L124.008 162.256C129.433 167.348 135.872 172 137.494 172C138.018 172 138.446 172.413 138.446 172.918C138.446 173.424 140.127 174.862 142.181 176.116C144.236 177.369 146.14 178.665 146.414 178.995C146.688 179.326 149.044 180.832 151.647 182.343C156.247 185.011 156.481 185.043 159.793 183.465C163.048 181.914 167.331 175.207 167.331 171.66C167.331 167.646 164.679 163.608 159.333 159.477C156.145 157.015 153.301 155 153.011 155C152.721 155 148.153 151.85 142.859 148C137.564 144.15 132.682 141 132.01 141C131.337 141 130.103 141.787 129.266 142.75ZM166.833 143C168.146 143.567 168.316 143.878 167.331 143.914C166.509 143.945 165.164 143.533 164.343 143C162.522 141.819 164.095 141.819 166.833 143ZM184.761 149.613C187.16 150.71 187.259 150.859 185.259 150.366C183.889 150.029 181.424 149.138 179.781 148.387C177.381 147.29 177.283 147.141 179.283 147.634C180.652 147.971 183.118 148.862 184.761 149.613ZM198.705 154.613C201.105 155.71 201.203 155.859 199.203 155.366C197.834 155.029 195.369 154.138 193.725 153.387C191.326 152.29 191.227 152.141 193.227 152.634C194.597 152.971 197.062 153.862 198.705 154.613ZM204.311 157.75C205.549 159.336 205.514 159.371 203.934 158.128C202.275 156.821 201.748 156 202.568 156C202.774 156 203.559 156.787 204.311 157.75ZM204.843 167.25C204.567 167.938 204.341 167.375 204.341 166C204.341 164.625 204.567 164.063 204.843 164.75C205.12 165.438 205.12 166.563 204.843 167.25ZM203.868 171.188C203.55 171.985 203.314 171.748 203.266 170.583C203.223 169.529 203.458 168.939 203.789 169.271C204.12 169.603 204.155 170.466 203.868 171.188ZM201.875 179.188C201.558 179.985 201.322 179.748 201.274 178.583C201.231 177.529 201.466 176.939 201.797 177.271C202.127 177.603 202.163 178.466 201.875 179.188ZM198.329 189.675C197.154 191.702 196.872 191.053 197.833 188.539C198.173 187.645 198.663 187.124 198.919 187.382C199.176 187.639 198.91 188.671 198.329 189.675ZM193.341 200.647C191.141 204.966 189.32 208.17 189.293 207.767C189.218 206.665 196.561 192.014 196.978 192.432C197.176 192.631 195.539 196.328 193.341 200.647ZM38.8446 221.378C38.8446 221.585 39.6295 222.373 40.5876 223.128C42.1673 224.371 42.2022 224.336 40.9641 222.75C39.6623 221.084 38.8446 220.555 38.8446 221.378ZM132.284 239.683C133.002 239.972 133.862 239.936 134.192 239.604C134.523 239.272 133.935 239.036 132.885 239.079C131.725 239.127 131.489 239.364 132.284 239.683ZM121.328 241.683C122.046 241.972 122.905 241.936 123.236 241.604C123.567 241.272 122.979 241.036 121.929 241.079C120.769 241.127 120.533 241.364 121.328 241.683ZM144.927 244.989C144.579 245.555 144.978 245.723 145.865 245.382C147.59 244.717 147.905 244 146.473 244C145.957 244 145.262 244.445 144.927 244.989Z" fill="#1A5A99"/>
<path fill-rule="evenodd" clip-rule="evenodd" d="M184.263 11.393C184.263 11.609 184.958 12.054 185.809 12.382C186.695 12.723 187.095 12.555 186.746 11.989C186.161 11.038 184.263 10.583 184.263 11.393ZM71.7131 13C70.8157 13.582 70.6922 13.975 71.4054 13.985C72.0578 13.993 72.8685 13.55 73.2072 13C73.9711 11.758 73.6265 11.758 71.7131 13ZM59.761 25.59C55.6524 28.01 51.7181 29.777 51.0179 29.516C48.3904 28.536 29.7112 49.321 22.2749 61.5C8.07769 84.752 0.996017 106.675 0.996017 127.379C0.996017 133.156 1.41434 138.141 1.9253 138.458C2.43626 138.775 3.38745 141.615 4.03885 144.767C5.77789 153.187 11.5189 169.172 16.1225 178.416C24.749 195.736 35.4163 208.585 48.9094 217.908C55.2749 222.306 55.2759 222.307 51.3805 218.619C49.0199 216.386 47.8416 214.567 48.3934 214.013C49.2032 213.2 62.0677 208 63.2699 208C63.5309 208 63.745 208.75 63.745 209.667C63.745 210.583 63.9562 211.121 64.2141 210.862C64.4721 210.603 64.1823 206.301 63.5687 201.302C62.0508 188.922 62.3904 188.27 68.6464 191.554C73.0189 193.85 73.6384 194.578 73.9801 197.826C74.3147 201.009 74.3964 200.832 74.5906 196.5C74.7151 193.75 75.5906 186.488 76.5378 180.363C77.8825 171.669 77.9811 169.334 76.987 169.717C76.2869 169.987 75.4283 169.46 75.0787 168.546C74.7301 167.633 73.8416 167.117 73.1046 167.401C72.3685 167.685 71.4173 167.32 70.992 166.589C70.5667 165.859 69.248 164.96 68.0608 164.59C66.1325 163.99 65.7301 164.511 64.2928 169.476C62.3506 176.182 61.6604 176.027 53.5926 167.076C38.6733 150.524 32.1116 123.78 34.8466 90.668C35.9841 76.901 35.9472 75.077 34.4781 72.225C33.5817 70.484 31.9562 68.58 30.8675 67.995C28.992 66.987 28.9681 66.733 30.4173 63.215C34.8516 52.455 48.6375 36.096 61.0926 26.816C65.3855 23.617 68.5229 21.042 68.0647 21.094C67.6056 21.146 63.8695 23.169 59.761 25.59ZM216.135 37.378C216.135 37.585 216.919 38.373 217.878 39.128C219.458 40.371 219.493 40.336 218.255 38.75C216.953 37.084 216.135 36.555 216.135 37.378ZM156.11 43.48C150.773 45.705 138.446 52.697 138.446 53.499C138.446 53.694 140.911 55.269 143.924 57C146.937 58.731 149.418 60.676 149.438 61.323C149.458 61.971 150.466 61.285 151.679 59.799C152.892 58.314 157.657 55.35 162.269 53.213L170.652 49.327L165.983 46.101C163.415 44.327 161.574 42.454 161.89 41.938C162.634 40.731 162.821 40.681 156.11 43.48ZM242.432 108.975C244.113 121.689 242.708 149.069 239.483 166.5C237.487 177.282 232.045 195.21 226.618 208.879C224.57 214.038 222.817 218.763 222.723 219.379C222.63 219.996 222.26 220.971 221.9 221.548C220.401 223.951 223.266 225.119 228.229 224.128C228.58 224.057 229.153 222.857 229.503 221.459C229.853 220.062 230.498 219.142 230.939 219.415C231.379 219.688 231.74 219.302 231.74 218.557C231.74 217.812 232.729 214.893 233.938 212.071C235.147 209.249 235.905 206.564 235.622 206.104C235.339 205.644 235.923 204.525 236.921 203.618C238.144 202.508 238.659 200.813 238.5 198.426C238.37 196.478 238.518 195.139 238.829 195.451C239.457 196.082 241.653 190.641 243.25 184.5C243.822 182.3 244.718 179.553 245.243 178.396C245.768 177.239 246.058 175.214 245.888 173.896C245.718 172.578 245.928 170.938 246.355 170.25C246.781 169.563 246.864 169 246.538 169C246.212 169 246.433 168.085 247.03 166.967C248.64 163.946 249.233 155.983 249.721 130.807C249.996 116.657 249.787 107.44 249.164 106.324C248.563 105.244 246.907 104.483 244.989 104.405L241.812 104.277L242.432 108.975ZM125.715 130.238C124.8 131.345 124.811 131.689 125.763 131.767C127.22 131.887 191.404 156.486 194.254 158.017C196.709 159.336 196.701 161.376 194.2 172C191.537 183.315 183.01 200.39 174.878 210.693C164.786 223.48 156.089 230.06 140.438 236.751C136.9 238.263 136.058 238.882 138.058 238.498C141.167 237.9 148.406 241.099 148.406 243.071C148.406 243.551 150.49 242.831 153.037 241.472C155.584 240.112 158.082 239 158.589 239C159.883 239 173.149 228.771 177.008 224.798C185.107 216.458 186.188 214.724 194.026 197.5C199.228 186.067 202.203 176.963 204.262 166.173C205.814 158.036 205.331 157.555 190.239 152.21C162.431 142.361 158.047 140.607 155.643 138.371C154.242 137.067 152.103 136 150.888 136C149.673 136 145.401 134.643 141.394 132.983C132.188 129.172 127.303 128.317 125.715 130.238ZM129.266 142.75C127.156 145.179 125.631 148.296 123.47 154.604L121.617 160.013L124.008 162.256C129.433 167.348 135.872 172 137.494 172C138.018 172 138.446 172.413 138.446 172.918C138.446 173.424 140.127 174.862 142.181 176.116C144.236 177.369 146.14 178.665 146.414 178.995C146.688 179.326 149.044 180.832 151.647 182.343C156.247 185.011 156.481 185.043 159.793 183.465C163.048 181.914 167.331 175.207 167.331 171.66C167.331 167.646 164.679 163.608 159.333 159.477C156.145 157.015 153.301 155 153.011 155C152.721 155 148.153 151.85 142.859 148C137.564 144.15 132.682 141 132.01 141C131.337 141 130.103 141.787 129.266 142.75ZM38.8446 221.378C38.8446 221.585 39.6295 222.373 40.5876 223.128C42.1673 224.371 42.2022 224.336 40.9641 222.75C39.6623 221.084 38.8446 220.555 38.8446 221.378ZM132.284 239.683C133.002 239.972 133.862 239.936 134.192 239.604C134.523 239.272 133.935 239.036 132.885 239.079C131.725 239.127 131.489 239.364 132.284 239.683ZM121.328 241.683C122.046 241.972 122.905 241.936 123.236 241.604C123.567 241.272 122.979 241.036 121.929 241.079C120.769 241.127 120.533 241.364 121.328 241.683ZM144.927 244.989C144.579 245.555 144.978 245.723 145.865 245.382C147.59 244.717 147.905 244 146.473 244C145.957 244 145.262 244.445 144.927 244.989Z" fill="#00FFFF"/>
<path fill-rule="evenodd" clip-rule="evenodd" d="M184.263 11.393C184.263 11.609 184.958 12.054 185.809 12.382C186.695 12.723 187.095 12.555 186.746 11.989C186.161 11.038 184.263 10.583 184.263 11.393ZM71.7131 13C70.8157 13.582 70.6922 13.975 71.4054 13.985C72.0578 13.993 72.8685 13.55 73.2072 13C73.9711 11.758 73.6265 11.758 71.7131 13ZM59.761 25.59C55.6524 28.01 51.757 29.792 51.1036 29.549C49.9363 29.115 41.2171 37.149 35.3586 44.058C13.99 69.257 0.996017 100.654 0.996017 127.089C0.996017 133.025 1.41434 138.141 1.9253 138.458C2.43626 138.775 3.38745 141.615 4.03885 144.767C5.77789 153.187 11.5189 169.172 16.1225 178.416C24.749 195.736 35.4163 208.585 48.9094 217.908C55.2749 222.306 55.2759 222.307 51.3805 218.619C49.0199 216.386 47.8416 214.567 48.3934 214.013C49.2032 213.2 62.0677 208 63.2699 208C63.5309 208 63.745 208.75 63.745 209.667C63.745 210.583 63.9562 211.121 64.2141 210.862C64.4721 210.603 64.1823 206.301 63.5687 201.302C62.0508 188.922 62.3904 188.27 68.6464 191.554C73.0189 193.85 73.6384 194.578 73.9801 197.826C74.3147 201.009 74.3964 200.832 74.5906 196.5C74.7151 193.75 75.5906 186.488 76.5378 180.363C77.8825 171.669 77.9811 169.334 76.987 169.717C76.2869 169.987 75.4283 169.46 75.0787 168.546C74.7301 167.633 73.8416 167.117 73.1046 167.401C72.3685 167.685 71.4173 167.32 70.992 166.589C70.5667 165.859 69.248 164.96 68.0608 164.59C66.1325 163.99 65.7301 164.511 64.2928 169.476C62.3506 176.182 61.6604 176.027 53.5926 167.076C38.6733 150.524 32.1116 123.78 34.8466 90.668C35.9841 76.901 35.9472 75.077 34.4781 72.225C33.5817 70.484 31.9562 68.58 30.8675 67.995C28.992 66.987 28.9681 66.733 30.4173 63.215C34.8516 52.455 48.6375 36.096 61.0926 26.816C65.3855 23.617 68.5229 21.042 68.0647 21.094C67.6056 21.146 63.8695 23.169 59.761 25.59ZM216.135 37.378C216.135 37.585 216.919 38.373 217.878 39.128C219.458 40.371 219.493 40.336 218.255 38.75C216.953 37.084 216.135 36.555 216.135 37.378ZM156.11 43.48C150.773 45.705 138.446 52.697 138.446 53.499C138.446 53.694 140.911 55.269 143.924 57C146.937 58.731 149.418 60.676 149.438 61.323C149.458 61.971 150.466 61.285 151.679 59.799C152.892 58.314 157.657 55.35 162.269 53.213L170.652 49.327L165.983 46.101C163.415 44.327 161.574 42.454 161.89 41.938C162.634 40.731 162.821 40.681 156.11 43.48ZM242.432 108.975C244.113 121.689 242.708 149.069 239.483 166.5C237.487 177.282 232.045 195.21 226.618 208.879C224.57 214.038 222.817 218.763 222.723 219.379C222.63 219.996 222.235 221.012 221.846 221.637C221.139 222.77 223.875 225.814 225.004 225.151C225.331 224.96 226.296 224.428 227.149 223.969C228.963 222.994 235.117 210.748 235.471 207.407C235.605 206.148 236.292 204.419 236.998 203.565C237.704 202.711 238.324 200.466 238.373 198.576C238.423 196.687 238.819 195.36 239.252 195.629C239.685 195.898 240.04 195.394 240.04 194.509C240.04 193.625 240.694 191.63 241.494 190.077C243.11 186.941 246.256 172.907 245.511 172.16C245.25 171.898 245.537 171.08 246.146 170.342C246.757 169.604 246.961 169 246.601 169C246.241 169 246.433 168.085 247.03 166.967C248.64 163.946 249.233 155.983 249.721 130.807C249.996 116.657 249.787 107.44 249.164 106.324C248.563 105.244 246.907 104.483 244.989 104.405L241.812 104.277L242.432 108.975ZM125.635 130.333C124.82 131.321 124.853 131.693 125.763 131.767C127.22 131.887 191.404 156.486 194.254 158.017C196.709 159.336 196.701 161.376 194.2 172C191.537 183.315 183.01 200.39 174.878 210.693C164.786 223.48 156.089 230.06 140.438 236.751C136.9 238.263 136.058 238.882 138.058 238.498C141.167 237.9 148.406 241.099 148.406 243.071C148.406 243.551 150.49 242.831 153.037 241.472C155.584 240.112 158.075 239 158.574 239C160.581 239 175.372 226.72 180.484 220.809C186.516 213.834 186.871 213.224 194.026 197.5C199.228 186.067 202.203 176.963 204.262 166.173C205.814 158.036 205.331 157.555 190.239 152.21C161.831 142.148 157.824 140.6 157.114 139.413C156.699 138.718 154.682 137.618 152.631 136.968C150.582 136.318 144.778 134.26 139.735 132.393C129.69 128.676 127.295 128.326 125.635 130.333ZM129.266 142.75C127.156 145.179 125.631 148.296 123.47 154.604L121.617 160.013L124.008 162.256C129.433 167.348 135.872 172 137.494 172C138.018 172 138.446 172.413 138.446 172.918C138.446 173.424 140.127 174.862 142.181 176.116C144.236 177.369 146.14 178.665 146.414 178.995C146.688 179.326 149.044 180.832 151.647 182.343C156.247 185.011 156.481 185.043 159.793 183.465C163.048 181.914 167.331 175.207 167.331 171.66C167.331 167.646 164.679 163.608 159.333 159.477C156.145 157.015 153.301 155 153.011 155C152.721 155 148.153 151.85 142.859 148C137.564 144.15 132.682 141 132.01 141C131.337 141 130.103 141.787 129.266 142.75ZM38.8446 221.378C38.8446 221.585 39.6295 222.373 40.5876 223.128C42.1673 224.371 42.2022 224.336 40.9641 222.75C39.6623 221.084 38.8446 220.555 38.8446 221.378ZM132.284 239.683C133.002 239.972 133.862 239.936 134.192 239.604C134.523 239.272 133.935 239.036 132.885 239.079C131.725 239.127 131.489 239.364 132.284 239.683ZM121.328 241.683C122.046 241.972 122.905 241.936 123.236 241.604C123.567 241.272 122.979 241.036 121.929 241.079C120.769 241.127 120.533 241.364 121.328 241.683ZM144.927 244.989C144.579 245.555 144.978 245.723 145.865 245.382C147.59 244.717 147.905 244 146.473 244C145.957 244 145.262 244.445 144.927 244.989Z" fill="#68DEFF"/>
<path fill-rule="evenodd" clip-rule="evenodd" d="M184.263 11.393C184.263 11.609 184.958 12.054 185.809 12.382C186.695 12.723 187.095 12.555 186.746 11.989C186.161 11.038 184.263 10.583 184.263 11.393ZM71.7131 13C70.8157 13.582 70.6922 13.975 71.4054 13.985C72.0578 13.993 72.8685 13.55 73.2072 13C73.9711 11.758 73.6265 11.758 71.7131 13ZM216.135 37.378C216.135 37.585 216.919 38.373 217.878 39.128C219.458 40.371 219.493 40.336 218.255 38.75C216.953 37.084 216.135 36.555 216.135 37.378ZM38.8446 221.378C38.8446 221.585 39.6295 222.373 40.5876 223.128C42.1673 224.371 42.2022 224.336 40.9641 222.75C39.6623 221.084 38.8446 220.555 38.8446 221.378Z" fill="white"/>
</g>
<defs>
<clipPath id="clip0_1_2">
<rect width="250" height="250" rx="125" fill="white"/>
</clipPath>
</defs>
</svg>
