<svg width="251" height="250" viewBox="0 0 251 250" fill="none" xmlns="http://www.w3.org/2000/svg">
<path fill-rule="evenodd" clip-rule="evenodd" d="M107.5 0.681003C106.4 0.927003 102.8 1.809 99.5 2.64C96.2 3.47 92.652 4.327 91.616 4.543C90.58 4.76 86.755 6.376 83.116 8.135C76.429 11.367 75.746 11.65 74.071 11.875C73.561 11.944 72.548 12.578 71.821 13.284C71.095 13.99 68.475 15.749 66 17.194C55.326 23.424 40.295 37.543 28.946 52C17.76 66.249 7.03399 89.159 3.10899 107.188C-0.0600052 121.743 0.0729947 148.055 3.38399 161.686C6.76099 175.589 14.389 191.995 22.197 202.144C23.739 204.148 25 206.044 25 206.357C25 206.67 29.163 211.143 34.25 216.297C39.958 222.08 47.365 228.22 53.595 232.334C59.147 236 63.974 239 64.32 239C64.666 239 67.873 240.339 71.446 241.975C75.018 243.611 78.967 245.172 80.221 245.442C81.474 245.713 85.875 246.874 90 248.023C96.643 249.873 99.557 250.067 115.5 249.722C130.699 249.394 134.395 249.004 139.25 247.221C142.412 246.058 145 245.339 145 245.621C145 245.903 148.023 244.529 151.717 242.567C155.412 240.605 158.794 239 159.233 239C162.157 239 179.106 224.301 184.282 217.276C190.909 208.282 190.085 208.844 194 210.648C206.234 216.286 213.263 219.593 218.761 222.298C225.837 225.78 229.149 225.441 231.455 221C233.581 216.905 239.071 202.836 240.431 198C241.127 195.525 242.857 189.45 244.275 184.5C249.655 165.722 250.5 158.464 250.5 131C250.5 103.226 249.654 96.759 244.17 82.614C242.701 78.826 241.045 74.551 240.489 73.114C239.402 70.304 235.581 63.514 230.599 55.54C228.894 52.812 227.05 49.829 226.5 48.91C223.852 44.489 216.693 35.938 211.39 30.863C203.948 23.741 198.427 19 197.575 19C197.212 19 194.478 17.2 191.5 15C188.522 12.8 185.603 11 185.014 11C184.425 11 181.303 9.667 178.076 8.039C174.85 6.41 171.15 4.878 169.855 4.634C168.56 4.391 163.928 3.248 159.562 2.096C152.616 0.262003 148.99 0.0150026 130.562 0.116003C118.978 0.180003 108.6 0.434003 107.5 0.681003ZM157.561 67.901C161.944 77.515 163 83.715 163 99.845C163 114.497 162.331 120.183 159.393 130.5C157.449 137.329 156.433 138.833 154.842 137.242C154.159 136.559 152.627 136 151.438 136C150.248 136 145.983 134.643 141.96 132.983C131.379 128.62 127.676 128.197 125.631 131.116C124.734 132.397 124.001 134.357 124.003 135.473C124.008 138.534 116.696 152.999 115.143 152.999C114.302 153 114.023 153.617 114.409 154.623C115.228 156.758 109.322 165.6 101.676 173.684C95.619 180.088 84.073 187.635 78.684 188.713L75.769 189.296L76.501 182.898C76.903 179.379 78.126 173.125 79.217 169C80.308 164.875 81.577 159.667 82.037 157.427C82.497 155.188 83.842 150.913 85.027 147.927C86.211 144.942 88.206 139.8 89.46 136.5C93.568 125.691 100.032 114.213 108.89 102C116.803 91.09 141.297 66.993 145.985 65.505C147.093 65.153 148 64.46 148 63.965C148 63.469 149.237 62.416 150.748 61.624C153.925 59.959 153.951 59.983 157.561 67.901Z" fill="#EFC7FD"/>
<path fill-rule="evenodd" clip-rule="evenodd" d="M105 7.936C90.406 11.177 75.45 17.09 59.759 25.822C55.502 28.191 51.579 29.858 51.042 29.526C49.784 28.749 37.96 40.476 30.903 49.5C12.161 73.468 1 102.535 1 127.379C1 133.156 1.42 138.141 1.933 138.458C2.446 138.775 3.401 141.615 4.055 144.767C5.801 153.187 11.565 169.172 16.187 178.416C25.453 196.946 36.149 209.29 52.302 220.094C61.517 226.258 73 232.534 73 231.407C73 231.066 71.659 227.976 70.02 224.543C68.381 221.109 66.384 215.419 65.581 211.9C63.761 203.915 62.54 191.553 63.43 190.114C63.873 189.397 65.767 189.905 69.049 191.621C72.764 193.563 74 194.775 74 196.474C74 197.719 74.688 202.734 75.53 207.619C78.265 223.495 87.507 238.658 95.863 240.979C102.114 242.715 121.229 242.195 132.027 239.995L141.867 237.989L145.434 240.093C147.395 241.251 149 242.59 149 243.071C149 243.551 151.092 242.831 153.649 241.472C156.206 240.112 158.688 239 159.165 239C162.148 239 179.039 224.391 184.282 217.276C190.909 208.282 190.085 208.844 194 210.648C206.234 216.286 213.263 219.593 218.761 222.298C225.837 225.78 229.149 225.441 231.455 221C233.581 216.905 239.071 202.836 240.431 198C241.127 195.525 242.852 189.45 244.264 184.5C249.541 165.999 250.31 159.935 250.755 133.318C251.022 117.306 250.805 107.473 250.158 106.318C249.564 105.255 247.98 104.485 246.348 104.465C244.01 104.435 243.41 103.865 242.668 100.965C238.36 84.132 230.909 66.592 224.109 57.277C216.876 47.368 197.259 43.188 178.263 47.508L171.07 49.144L166.535 46.024C164.041 44.308 162 42.689 162 42.427C162 42.165 163.238 41.478 164.75 40.901C172.062 38.111 179.605 36.775 191.5 36.166L204.5 35.5L197.759 30.5C183.076 19.61 171.077 13.772 154.074 9.248C140.9 5.743 117.67 5.121 105 7.936ZM185 11.393C185 11.609 185.698 12.054 186.552 12.382C187.442 12.723 187.843 12.555 187.493 11.989C186.906 11.038 185 10.583 185 11.393ZM72 13C71.099 13.582 70.975 13.975 71.691 13.985C72.346 13.993 73.16 13.55 73.5 13C74.267 11.758 73.921 11.758 72 13ZM217 37.378C217 37.585 217.787 38.373 218.75 39.128C220.336 40.371 220.371 40.336 219.128 38.75C217.821 37.084 217 36.555 217 37.378ZM157.561 67.901C161.944 77.515 163 83.715 163 99.845C163 114.497 162.331 120.183 159.393 130.5C157.449 137.329 156.433 138.833 154.842 137.242C154.159 136.559 152.627 136 151.438 136C150.248 136 145.983 134.643 141.96 132.983C131.379 128.62 127.676 128.197 125.631 131.116C124.734 132.397 124.001 134.357 124.003 135.473C124.008 138.534 116.696 152.999 115.143 152.999C114.302 153 114.023 153.617 114.409 154.623C115.228 156.758 109.322 165.6 101.676 173.684C95.619 180.088 84.073 187.635 78.684 188.713L75.769 189.296L76.501 182.898C76.903 179.379 78.126 173.125 79.217 169C80.308 164.875 81.577 159.667 82.037 157.427C82.497 155.188 83.842 150.913 85.027 147.927C86.211 144.942 88.206 139.8 89.46 136.5C93.568 125.691 100.032 114.213 108.89 102C116.803 91.09 141.297 66.993 145.985 65.505C147.093 65.153 148 64.46 148 63.965C148 63.469 149.237 62.416 150.748 61.624C153.925 59.959 153.951 59.983 157.561 67.901ZM39 221.378C39 221.585 39.788 222.373 40.75 223.128C42.336 224.371 42.371 224.336 41.128 222.75C39.821 221.084 39 220.555 39 221.378ZM145.507 244.989C145.157 245.555 145.558 245.723 146.448 245.382C148.18 244.717 148.497 244 147.059 244C146.541 244 145.843 244.445 145.507 244.989Z" fill="#0000FF"/>
<path fill-rule="evenodd" clip-rule="evenodd" d="M105 7.936C90.406 11.177 75.45 17.09 59.759 25.822C55.502 28.191 51.579 29.858 51.042 29.526C49.784 28.749 37.96 40.476 30.903 49.5C12.161 73.468 1 102.535 1 127.379C1 133.156 1.42 138.141 1.933 138.458C2.446 138.775 3.401 141.615 4.055 144.767C5.801 153.187 11.565 169.172 16.187 178.416C25.453 196.946 36.149 209.29 52.302 220.094C61.517 226.258 73 232.534 73 231.407C73 231.066 71.659 227.976 70.02 224.543C68.381 221.109 66.384 215.419 65.581 211.9C63.761 203.915 62.54 191.553 63.43 190.114C63.873 189.397 65.767 189.905 69.049 191.621C72.764 193.563 74 194.775 74 196.474C74 197.719 74.688 202.734 75.53 207.619C78.265 223.495 87.507 238.658 95.863 240.979C102.114 242.715 121.229 242.195 132.027 239.995L141.867 237.989L145.434 240.093C147.395 241.251 149 242.59 149 243.071C149 243.551 151.092 242.831 153.649 241.472C156.206 240.112 158.714 239 159.223 239C160.508 239 173.799 228.809 177.745 224.798C180.773 221.721 185.459 215.96 189.036 210.919L190.571 208.755L201.536 213.969C207.566 216.836 215.317 220.576 218.761 222.28C225.835 225.781 229.146 225.447 231.455 221C233.581 216.905 239.071 202.836 240.431 198C241.127 195.525 242.852 189.45 244.264 184.5C249.541 165.999 250.31 159.935 250.755 133.318C251.022 117.306 250.805 107.473 250.158 106.318C249.564 105.255 247.98 104.485 246.348 104.465C244.01 104.435 243.41 103.865 242.668 100.965C238.36 84.132 230.909 66.592 224.109 57.277C216.876 47.368 197.259 43.188 178.263 47.508L171.07 49.144L166.535 46.024C164.041 44.308 162 42.689 162 42.427C162 42.165 163.238 41.478 164.75 40.901C172.062 38.111 179.605 36.775 191.5 36.166L204.5 35.5L197.759 30.5C183.076 19.61 171.077 13.772 154.074 9.248C140.9 5.743 117.67 5.121 105 7.936ZM185 11.393C185 11.609 185.698 12.054 186.552 12.382C187.442 12.723 187.843 12.555 187.493 11.989C186.906 11.038 185 10.583 185 11.393ZM72 13C71.099 13.582 70.975 13.975 71.691 13.985C72.346 13.993 73.16 13.55 73.5 13C74.267 11.758 73.921 11.758 72 13ZM217 37.378C217 37.585 217.787 38.373 218.75 39.128C220.336 40.371 220.371 40.336 219.128 38.75C217.821 37.084 217 36.555 217 37.378ZM157.552 67.882C165.099 84.431 165.906 105.634 159.869 128.797C157.644 137.334 156.625 139.025 154.8 137.2C154.14 136.54 152.627 136 151.438 136C150.248 136 145.983 134.643 141.96 132.983C131.379 128.62 127.676 128.197 125.631 131.116C124.734 132.397 124.001 134.357 124.003 135.473C124.008 138.534 116.696 152.999 115.143 152.999C114.302 153 114.023 153.617 114.409 154.623C115.228 156.758 109.322 165.6 101.676 173.684C95.924 179.766 86.019 186.403 79.092 188.818L75.77 189.976L76.49 183.238C76.887 179.532 78.109 173.125 79.206 169C80.303 164.875 81.596 159.568 82.079 157.206C82.561 154.844 84.125 150.119 85.554 146.706C86.982 143.293 88.38 139.6 88.66 138.5C90.389 131.711 100.265 113.892 108.89 102C116.803 91.09 141.297 66.993 145.985 65.505C147.093 65.153 148 64.46 148 63.965C148 63.469 149.237 62.416 150.748 61.624C153.924 59.96 153.952 59.985 157.552 67.882ZM39 221.378C39 221.585 39.788 222.373 40.75 223.128C42.336 224.371 42.371 224.336 41.128 222.75C39.821 221.084 39 220.555 39 221.378ZM145.507 244.989C145.157 245.555 145.558 245.723 146.448 245.382C148.18 244.717 148.497 244 147.059 244C146.541 244 145.843 244.445 145.507 244.989Z" fill="#2CBBF9"/>
<path fill-rule="evenodd" clip-rule="evenodd" d="M105 7.94199C100.325 8.98299 94.25 10.588 91.5 11.507C84.55 13.831 67.711 21.102 66.5 22.302C65.837 22.959 65.974 23.023 66.905 22.492C67.853 21.951 68.074 22.071 67.585 22.862C67.187 23.506 66.447 23.776 65.939 23.463C65.432 23.149 62.099 24.525 58.532 26.519C54.964 28.514 51.6 29.871 51.056 29.535C48.882 28.191 29.648 49.619 22.364 61.5C8.11 84.752 1 106.675 1 127.379C1 133.156 1.42 138.141 1.933 138.458C2.446 138.775 3.401 141.615 4.055 144.767C5.801 153.187 11.565 169.172 16.187 178.416C24.848 195.736 35.558 208.585 49.105 217.908C55.496 222.306 55.497 222.307 51.586 218.619C49.216 216.386 48.033 214.567 48.587 214.013C49.4 213.2 62.316 208 63.523 208C63.785 208 64 208.75 64 209.667C64 210.583 64.212 211.121 64.471 210.862C64.73 210.603 64.439 206.301 63.823 201.302C62.297 188.904 62.634 188.267 68.977 191.583C73.531 193.965 74 194.532 74 197.664C74 199.968 74.375 200.887 75.125 200.423C75.912 199.936 76.111 200.895 75.785 203.614C74.279 216.177 86.157 238.283 95.863 240.979C101.009 242.408 124 242.323 124 240.875C124 240.158 125.179 239.952 127.25 240.307C129.037 240.614 130.017 240.659 129.427 240.408C128.837 240.157 128.52 238.725 128.723 237.226C129.178 233.861 125.438 229.446 119 225.752C116.525 224.331 113.586 222.344 112.468 221.335C109.826 218.949 98.057 211 97.167 211C96.789 211 95.266 209.875 93.783 208.5C92.301 207.125 90.618 206 90.044 206C89.47 206 89 205.55 89 205C89 204.45 88.484 204 87.853 204C87.222 204 84.732 202.383 82.32 200.406C79.828 198.364 77.3 197.055 76.467 197.374C74.537 198.115 74.612 194.738 76.844 180.363C78.194 171.669 78.293 169.334 77.295 169.717C76.592 169.987 75.73 169.46 75.379 168.546C75.029 167.633 74.137 167.117 73.397 167.401C72.658 167.685 71.703 167.32 71.276 166.589C70.849 165.859 69.525 164.96 68.333 164.59C66.397 163.99 65.993 164.511 64.55 169.476C62.6 176.182 61.907 176.027 53.807 167.076C38.828 150.524 32.24 123.78 34.986 90.668C36.128 76.901 36.091 75.077 34.616 72.225C33.716 70.484 32.084 68.58 30.991 67.995C29.108 66.987 29.084 66.733 30.539 63.215C34.698 53.164 48.43 36.547 59.369 28.327C65.298 23.873 65.23 23.973 57.328 31.369C48.95 39.211 40 50.147 40 52.543C40 53.871 42.666 53.022 52.5 48.566C67.957 41.562 80.242 38.703 95 38.675C111.704 38.643 121.226 41.211 133.88 49.164C138.038 51.777 138.41 51.839 141.223 50.385C142.853 49.542 144.444 49.111 144.76 49.426C145.075 49.742 144.921 50.01 144.417 50.022C143.912 50.034 142.429 50.868 141.12 51.875L138.74 53.705L144.37 56.926C147.467 58.697 150 60.619 150 61.196C150 61.831 150.604 61.744 151.531 60.974C153.567 59.285 154.975 61.213 158.856 71C164.871 86.172 165.47 106.949 160.456 126.5C157.698 137.256 156.715 139.115 154.8 137.2C154.14 136.54 152.627 136 151.438 136C150.248 136 145.983 134.643 141.96 132.983C132.717 129.172 127.812 128.317 126.218 130.238C125.299 131.345 125.31 131.689 126.266 131.767C127.729 131.887 192.17 156.486 195.031 158.017C197.496 159.336 197.488 161.376 194.977 172C192.303 183.315 183.742 200.39 175.578 210.693C165.445 223.48 156.713 230.06 141 236.751C137.448 238.263 136.602 238.882 138.61 238.498C141.732 237.9 149 241.099 149 243.071C149 243.551 151.092 242.831 153.649 241.472C156.206 240.112 158.714 239 159.223 239C160.508 239 173.799 228.809 177.745 224.798C180.771 221.723 185.473 215.944 189.02 210.94L190.54 208.796L200.52 213.611C212.802 219.536 214.732 219.917 215.568 216.583C216.087 214.515 216.877 214.056 220.342 213.803C223.951 213.54 224.725 213.043 226.273 210C227.48 207.627 227.843 207.305 227.4 209C227.041 210.375 226.129 212.714 225.375 214.197C224.621 215.68 223.864 217.806 223.694 218.921C223.524 220.036 223.104 221.229 222.761 221.572C222.418 221.915 222.38 222.827 222.676 223.598C223.633 226.092 230.294 224.784 230.625 222.036C230.694 221.466 230.806 220.523 230.875 219.941C230.944 219.359 231.52 219.203 232.155 219.595C232.793 219.99 233.04 219.874 232.708 219.336C232.377 218.801 233.225 215.95 234.591 213.001C235.957 210.052 236.864 207.087 236.605 206.413C236.346 205.739 237.001 204.404 238.059 203.447C239.446 202.191 239.866 200.767 239.565 198.339C239.328 196.425 239.547 195.22 240.074 195.546C240.583 195.86 241 195.281 241 194.259C241 193.237 241.427 191.972 241.948 191.45C243.279 190.117 246.286 179.224 246.521 174.883C246.629 172.894 247.032 170.757 247.418 170.133C247.803 169.51 247.851 169 247.524 169C247.197 169 247.419 168.085 248.018 166.967C249.635 163.946 250.23 155.983 250.72 130.807C250.999 116.524 250.788 107.444 250.152 106.307C249.563 105.255 247.974 104.485 246.348 104.465C244.01 104.435 243.41 103.865 242.668 100.965C238.36 84.132 230.909 66.592 224.109 57.277C216.876 47.368 197.259 43.188 178.263 47.508L171.07 49.144L166.535 46.024C164.041 44.308 162 42.689 162 42.427C162 42.165 163.238 41.478 164.75 40.901C172.062 38.111 179.605 36.775 191.5 36.166L204.5 35.5L197.759 30.5C183.076 19.61 171.077 13.772 154.074 9.24799C140.885 5.73899 117.661 5.12099 105 7.94199ZM185 11.393C185 11.609 185.698 12.054 186.552 12.382C187.442 12.723 187.843 12.555 187.493 11.989C186.906 11.038 185 10.583 185 11.393ZM72 13C71.099 13.582 70.975 13.975 71.691 13.985C72.346 13.993 73.16 13.55 73.5 13C74.267 11.758 73.921 11.758 72 13ZM217 37.378C217 37.585 217.787 38.373 218.75 39.128C220.336 40.371 220.371 40.336 219.128 38.75C217.821 37.084 217 36.555 217 37.378ZM134.872 73.75C133.629 75.336 133.664 75.371 135.25 74.128C136.213 73.373 137 72.585 137 72.378C137 71.555 136.179 72.084 134.872 73.75ZM243.706 142.25C243.467 143.488 243.272 142.475 243.272 140C243.272 137.525 243.467 136.512 243.706 137.75C243.944 138.988 243.944 141.012 243.706 142.25ZM129.783 142.75C127.665 145.179 126.134 148.296 123.964 154.604L122.103 160.013L124.504 162.256C129.951 167.348 136.415 172 138.044 172C138.57 172 139 172.413 139 172.918C139 173.424 140.688 174.862 142.75 176.116C144.813 177.369 146.725 178.665 147 178.995C147.275 179.326 149.64 180.832 152.254 182.343C156.872 185.011 157.107 185.043 160.432 183.465C163.7 181.914 168 175.207 168 171.66C168 167.646 165.338 163.608 159.97 159.477C156.77 157.015 153.914 155 153.623 155C153.332 155 148.746 151.85 143.43 148C138.114 144.15 133.213 141 132.538 141C131.862 141 130.623 141.787 129.783 142.75ZM242.689 151.75C242.438 152.713 242.232 151.925 242.232 150C242.232 148.075 242.438 147.287 242.689 148.25C242.941 149.213 242.941 150.787 242.689 151.75ZM241.693 158.731C241.439 159.704 241.215 159.15 241.195 157.5C241.175 155.85 241.382 155.054 241.656 155.731C241.93 156.408 241.947 157.758 241.693 158.731ZM205.128 157.75C206.371 159.336 206.336 159.371 204.75 158.128C203.084 156.821 202.555 156 203.378 156C203.585 156 204.373 156.787 205.128 157.75ZM240.662 164.25C240.385 164.938 240.158 164.375 240.158 163C240.158 161.625 240.385 161.063 240.662 161.75C240.94 162.438 240.94 163.563 240.662 164.25ZM240.67 166.75C240.424 167.162 239.683 170.123 239.024 173.329C238.365 176.535 237.612 178.945 237.352 178.685C236.586 177.919 239.318 166 240.259 166C240.732 166 240.916 166.338 240.67 166.75ZM236.429 183.429C236.061 184.894 235.567 185.9 235.331 185.665C235.096 185.429 235.204 184.037 235.571 182.571C235.939 181.106 236.433 180.1 236.669 180.335C236.904 180.571 236.796 181.963 236.429 183.429ZM232 197.5C231.34 199.499 230.635 200.968 230.433 200.766C230.23 200.564 230.576 198.734 231.2 196.7C231.824 194.666 232.53 193.196 232.767 193.434C233.005 193.672 232.66 195.501 232 197.5ZM229.122 204.675C227.943 206.702 227.659 206.053 228.624 203.539C228.966 202.645 229.458 202.124 229.715 202.382C229.973 202.639 229.706 203.671 229.122 204.675ZM62.949 221.856C60.996 222.833 58.746 223.451 57.949 223.228C55.91 222.659 61.99 226.454 67.979 229.489C70.74 230.889 73 231.733 73 231.367C73 230.106 67.765 220 67.133 220.04C66.785 220.062 64.902 220.879 62.949 221.856ZM39 221.378C39 221.585 39.788 222.373 40.75 223.128C42.336 224.371 42.371 224.336 41.128 222.75C39.821 221.084 39 220.555 39 221.378ZM132.813 239.683C133.534 239.972 134.397 239.936 134.729 239.604C135.061 239.272 134.471 239.036 133.417 239.079C132.252 239.127 132.015 239.364 132.813 239.683ZM145.507 244.989C145.157 245.555 145.558 245.723 146.448 245.382C148.18 244.717 148.497 244 147.059 244C146.541 244 145.843 244.445 145.507 244.989Z" fill="#4D89FD"/>
<path fill-rule="evenodd" clip-rule="evenodd" d="M185 11.393C185 11.609 185.698 12.054 186.552 12.382C187.442 12.723 187.843 12.555 187.493 11.989C186.906 11.038 185 10.583 185 11.393ZM72 13C71.099 13.582 70.975 13.975 71.691 13.985C72.346 13.993 73.16 13.55 73.5 13C74.267 11.758 73.921 11.758 72 13ZM60 25.59C55.875 28.01 51.925 29.777 51.222 29.516C48.584 28.536 29.83 49.321 22.364 61.5C8.11 84.752 1 106.675 1 127.379C1 133.156 1.42 138.141 1.933 138.458C2.446 138.775 3.401 141.615 4.055 144.767C5.801 153.187 11.565 169.172 16.187 178.416C24.848 195.736 35.558 208.585 49.105 217.908C55.496 222.306 55.497 222.307 51.586 218.619C49.216 216.386 48.033 214.567 48.587 214.013C49.4 213.2 62.316 208 63.523 208C63.785 208 64 208.75 64 209.667C64 210.583 64.212 211.121 64.471 210.862C64.73 210.603 64.439 206.301 63.823 201.302C62.299 188.922 62.64 188.27 68.921 191.554C73.311 193.85 73.933 194.578 74.276 197.826C74.612 201.009 74.694 200.832 74.889 196.5C75.014 193.75 75.893 186.488 76.844 180.363C78.194 171.669 78.293 169.334 77.295 169.717C76.592 169.987 75.73 169.46 75.379 168.546C75.029 167.633 74.137 167.117 73.397 167.401C72.658 167.685 71.703 167.32 71.276 166.589C70.849 165.859 69.525 164.96 68.333 164.59C66.397 163.99 65.993 164.511 64.55 169.476C62.6 176.182 61.907 176.027 53.807 167.076C38.828 150.524 32.24 123.78 34.986 90.668C36.128 76.901 36.091 75.077 34.616 72.225C33.716 70.484 32.084 68.58 30.991 67.995C29.108 66.987 29.084 66.733 30.539 63.215C34.991 52.455 48.832 36.096 61.337 26.816C65.647 23.617 68.797 21.042 68.337 21.094C67.876 21.146 64.125 23.169 60 25.59ZM192.015 30.75C192.053 32.576 193.839 34.018 196.8 34.61C200.953 35.441 200.848 34.698 196.443 32.099C192.547 29.8 191.992 29.631 192.015 30.75ZM217 37.378C217 37.585 217.787 38.373 218.75 39.128C220.336 40.371 220.371 40.336 219.128 38.75C217.821 37.084 217 36.555 217 37.378ZM156.734 43.48C151.376 45.705 139 52.697 139 53.499C139 53.694 141.475 55.269 144.5 57C147.525 58.731 150.016 60.676 150.036 61.323C150.056 61.971 151.068 61.313 152.286 59.862C153.504 58.411 156.863 56.041 159.75 54.595C165.717 51.607 166.97 51.91 161.25 54.957C154.286 58.667 153.51 59.599 155.202 62.212C156.017 63.471 156.993 65.756 157.371 67.291C157.749 68.826 158.448 69.841 158.925 69.547C159.401 69.252 160.057 69.707 160.384 70.558C160.726 71.449 160.556 71.843 159.981 71.488C159.413 71.137 159.481 71.961 160.139 73.405C160.773 74.798 161.663 75.708 162.117 75.428C162.57 75.147 163.216 76.174 163.552 77.709C163.888 79.244 164.555 81.625 165.035 83C167.331 89.586 168.031 94.734 168.112 105.652C168.186 115.526 167.839 118.458 166.028 123.251C163.473 130.014 161.16 132.859 159.87 130.824C159.264 129.867 158.985 130.124 158.865 131.75C158.774 132.988 158.655 134.563 158.6 135.25C158.545 135.938 158.087 136.798 157.582 137.163C157.077 137.527 158.202 138.8 160.082 139.99C162.408 141.463 162.771 141.946 161.218 141.5C159.963 141.14 157.759 139.755 156.322 138.422C154.884 137.09 152.711 136 151.492 136C150.272 136 145.983 134.643 141.96 132.983C132.717 129.172 127.812 128.317 126.218 130.238C125.299 131.345 125.31 131.689 126.266 131.767C127.729 131.887 192.17 156.486 195.031 158.017C197.496 159.336 197.488 161.376 194.977 172C192.303 183.315 183.742 200.39 175.578 210.693C165.445 223.48 156.713 230.06 141 236.751C137.448 238.263 136.602 238.882 138.61 238.498C141.732 237.9 149 241.099 149 243.071C149 243.551 151.092 242.831 153.649 241.472C156.206 240.112 158.714 239 159.223 239C160.508 239 173.799 228.809 177.745 224.798C180.773 221.72 185.457 215.963 189.038 210.916L190.576 208.749L194.94 210.857C199.055 212.845 199.38 212.867 200.621 211.233C201.344 210.28 201.951 209.103 201.968 208.618C201.997 207.812 204.104 208.001 212.5 209.567C215.279 210.085 215.629 209.808 217.25 205.803C218.212 203.425 219 200.786 219 199.939C219 199.093 219.385 197.973 219.855 197.45C220.326 196.928 221.404 194.25 222.25 191.5C223.097 188.75 225.446 181.365 227.47 175.089C233.253 157.162 232.008 151.426 219.572 138.703C212.838 131.814 212.123 130.734 213.433 129.424C214.249 128.608 214.638 127.169 214.298 126.221C213.959 125.274 214.032 124.816 214.46 125.202C214.888 125.589 215.857 125.286 216.614 124.529C217.37 123.773 219.004 122.321 220.245 121.302C225.558 116.941 233.842 105.413 237.577 97.184C238.915 94.235 238.916 93.221 237.583 88.018C234.293 75.176 225.785 58.521 220.05 53.695C214.662 49.162 204.771 46.495 193.5 46.537C184.403 46.57 180.89 47.187 170.287 50.611C168.934 51.049 168.83 50.953 169.859 50.218C170.909 49.468 170.165 48.521 166.589 46.061C164.042 44.309 162.22 42.454 162.538 41.938C163.285 40.731 163.472 40.681 156.734 43.48ZM243.402 108.975C245.089 121.689 243.679 149.069 240.441 166.5C238.437 177.282 232.973 195.21 227.524 208.879C225.468 214.038 223.708 218.763 223.614 219.379C223.521 219.996 223.149 220.971 222.788 221.548C221.283 223.951 224.159 225.119 229.142 224.128C229.494 224.057 230.07 222.857 230.421 221.459C230.772 220.062 231.42 219.142 231.863 219.415C232.305 219.688 232.667 219.302 232.667 218.557C232.667 217.812 233.66 214.893 234.874 212.071C236.088 209.249 236.849 206.564 236.564 206.104C236.28 205.644 236.867 204.525 237.869 203.618C239.097 202.508 239.614 200.813 239.454 198.426C239.323 196.478 239.472 195.139 239.784 195.451C240.415 196.082 242.62 190.641 244.223 184.5C244.797 182.3 245.697 179.553 246.224 178.396C246.751 177.239 247.042 175.214 246.872 173.896C246.701 172.578 246.912 170.938 247.34 170.25C247.768 169.563 247.851 169 247.524 169C247.197 169 247.419 168.085 248.018 166.967C249.635 163.946 250.23 155.983 250.72 130.807C250.996 116.657 250.786 107.44 250.161 106.324C249.557 105.244 247.895 104.483 245.969 104.405L242.779 104.277L243.402 108.975ZM129.783 142.75C127.665 145.179 126.134 148.296 123.964 154.604L122.103 160.013L124.504 162.256C129.951 167.348 136.415 172 138.044 172C138.57 172 139 172.413 139 172.918C139 173.424 140.688 174.862 142.75 176.116C144.813 177.369 146.725 178.665 147 178.995C147.275 179.326 149.64 180.832 152.254 182.343C156.872 185.011 157.107 185.043 160.432 183.465C163.7 181.914 168 175.207 168 171.66C168 167.646 165.338 163.608 159.97 159.477C156.77 157.015 153.914 155 153.623 155C153.332 155 148.746 151.85 143.43 148C138.114 144.15 133.213 141 132.538 141C131.862 141 130.623 141.787 129.783 142.75ZM167.5 143C168.819 143.567 168.989 143.878 168 143.914C167.175 143.945 165.825 143.533 165 143C163.172 141.819 164.751 141.819 167.5 143ZM185.5 149.613C187.909 150.71 188.008 150.859 186 150.366C184.625 150.029 182.15 149.138 180.5 148.387C178.091 147.29 177.992 147.141 180 147.634C181.375 147.971 183.85 148.862 185.5 149.613ZM199.5 154.613C201.909 155.71 202.008 155.859 200 155.366C198.625 155.029 196.15 154.138 194.5 153.387C192.091 152.29 191.992 152.141 194 152.634C195.375 152.971 197.85 153.862 199.5 154.613ZM205.128 157.75C206.371 159.336 206.336 159.371 204.75 158.128C203.084 156.821 202.555 156 203.378 156C203.585 156 204.373 156.787 205.128 157.75ZM205.662 167.25C205.385 167.938 205.158 167.375 205.158 166C205.158 164.625 205.385 164.063 205.662 164.75C205.94 165.438 205.94 166.563 205.662 167.25ZM204.683 171.188C204.364 171.985 204.127 171.748 204.079 170.583C204.036 169.529 204.272 168.939 204.604 169.271C204.936 169.603 204.972 170.466 204.683 171.188ZM202.683 179.188C202.364 179.985 202.127 179.748 202.079 178.583C202.036 177.529 202.272 176.939 202.604 177.271C202.936 177.603 202.972 178.466 202.683 179.188ZM199.122 189.675C197.943 191.702 197.659 191.053 198.624 188.539C198.966 187.645 199.458 187.124 199.715 187.382C199.973 187.639 199.706 188.671 199.122 189.675ZM194.114 200.647C191.906 204.966 190.077 208.17 190.05 207.767C189.975 206.665 197.347 192.014 197.766 192.432C197.965 192.631 196.321 196.328 194.114 200.647ZM39 221.378C39 221.585 39.788 222.373 40.75 223.128C42.336 224.371 42.371 224.336 41.128 222.75C39.821 221.084 39 220.555 39 221.378ZM132.813 239.683C133.534 239.972 134.397 239.936 134.729 239.604C135.061 239.272 134.471 239.036 133.417 239.079C132.252 239.127 132.015 239.364 132.813 239.683ZM121.813 241.683C122.534 241.972 123.397 241.936 123.729 241.604C124.061 241.272 123.471 241.036 122.417 241.079C121.252 241.127 121.015 241.364 121.813 241.683ZM145.507 244.989C145.157 245.555 145.558 245.723 146.448 245.382C148.18 244.717 148.497 244 147.059 244C146.541 244 145.843 244.445 145.507 244.989Z" fill="#1A5A99"/>
<path fill-rule="evenodd" clip-rule="evenodd" d="M185 11.393C185 11.609 185.698 12.054 186.552 12.382C187.442 12.723 187.843 12.555 187.493 11.989C186.906 11.038 185 10.583 185 11.393ZM72 13C71.099 13.582 70.975 13.975 71.691 13.985C72.346 13.993 73.16 13.55 73.5 13C74.267 11.758 73.921 11.758 72 13ZM60 25.59C55.875 28.01 51.925 29.777 51.222 29.516C48.584 28.536 29.83 49.321 22.364 61.5C8.11 84.752 1 106.675 1 127.379C1 133.156 1.42 138.141 1.933 138.458C2.446 138.775 3.401 141.615 4.055 144.767C5.801 153.187 11.565 169.172 16.187 178.416C24.848 195.736 35.558 208.585 49.105 217.908C55.496 222.306 55.497 222.307 51.586 218.619C49.216 216.386 48.033 214.567 48.587 214.013C49.4 213.2 62.316 208 63.523 208C63.785 208 64 208.75 64 209.667C64 210.583 64.212 211.121 64.471 210.862C64.73 210.603 64.439 206.301 63.823 201.302C62.299 188.922 62.64 188.27 68.921 191.554C73.311 193.85 73.933 194.578 74.276 197.826C74.612 201.009 74.694 200.832 74.889 196.5C75.014 193.75 75.893 186.488 76.844 180.363C78.194 171.669 78.293 169.334 77.295 169.717C76.592 169.987 75.73 169.46 75.379 168.546C75.029 167.633 74.137 167.117 73.397 167.401C72.658 167.685 71.703 167.32 71.276 166.589C70.849 165.859 69.525 164.96 68.333 164.59C66.397 163.99 65.993 164.511 64.55 169.476C62.6 176.182 61.907 176.027 53.807 167.076C38.828 150.524 32.24 123.78 34.986 90.668C36.128 76.901 36.091 75.077 34.616 72.225C33.716 70.484 32.084 68.58 30.991 67.995C29.108 66.987 29.084 66.733 30.539 63.215C34.991 52.455 48.832 36.096 61.337 26.816C65.647 23.617 68.797 21.042 68.337 21.094C67.876 21.146 64.125 23.169 60 25.59ZM217 37.378C217 37.585 217.787 38.373 218.75 39.128C220.336 40.371 220.371 40.336 219.128 38.75C217.821 37.084 217 36.555 217 37.378ZM156.734 43.48C151.376 45.705 139 52.697 139 53.499C139 53.694 141.475 55.269 144.5 57C147.525 58.731 150.016 60.676 150.036 61.323C150.056 61.971 151.068 61.285 152.286 59.799C153.504 58.314 158.288 55.35 162.918 53.213L171.335 49.327L166.647 46.101C164.069 44.327 162.22 42.454 162.538 41.938C163.285 40.731 163.472 40.681 156.734 43.48ZM243.402 108.975C245.089 121.689 243.679 149.069 240.441 166.5C238.437 177.282 232.973 195.21 227.524 208.879C225.468 214.038 223.708 218.763 223.614 219.379C223.521 219.996 223.149 220.971 222.788 221.548C221.283 223.951 224.159 225.119 229.142 224.128C229.494 224.057 230.07 222.857 230.421 221.459C230.772 220.062 231.42 219.142 231.863 219.415C232.305 219.688 232.667 219.302 232.667 218.557C232.667 217.812 233.66 214.893 234.874 212.071C236.088 209.249 236.849 206.564 236.564 206.104C236.28 205.644 236.867 204.525 237.869 203.618C239.097 202.508 239.614 200.813 239.454 198.426C239.323 196.478 239.472 195.139 239.784 195.451C240.415 196.082 242.62 190.641 244.223 184.5C244.797 182.3 245.697 179.553 246.224 178.396C246.751 177.239 247.042 175.214 246.872 173.896C246.701 172.578 246.912 170.938 247.34 170.25C247.768 169.563 247.851 169 247.524 169C247.197 169 247.419 168.085 248.018 166.967C249.635 163.946 250.23 155.983 250.72 130.807C250.996 116.657 250.786 107.44 250.161 106.324C249.557 105.244 247.895 104.483 245.969 104.405L242.779 104.277L243.402 108.975ZM126.218 130.238C125.299 131.345 125.31 131.689 126.266 131.767C127.729 131.887 192.17 156.486 195.031 158.017C197.496 159.336 197.488 161.376 194.977 172C192.303 183.315 183.742 200.39 175.578 210.693C165.445 223.48 156.713 230.06 141 236.751C137.448 238.263 136.602 238.882 138.61 238.498C141.732 237.9 149 241.099 149 243.071C149 243.551 151.092 242.831 153.649 241.472C156.206 240.112 158.714 239 159.223 239C160.523 239 173.842 228.771 177.716 224.798C185.847 216.458 186.933 214.724 194.802 197.5C200.025 186.067 203.012 176.963 205.079 166.173C206.637 158.036 206.152 157.555 191 152.21C163.081 142.361 158.679 140.607 156.266 138.371C154.859 137.067 152.711 136 151.492 136C150.272 136 145.983 134.643 141.96 132.983C132.717 129.172 127.812 128.317 126.218 130.238ZM129.783 142.75C127.665 145.179 126.134 148.296 123.964 154.604L122.103 160.013L124.504 162.256C129.951 167.348 136.415 172 138.044 172C138.57 172 139 172.413 139 172.918C139 173.424 140.688 174.862 142.75 176.116C144.813 177.369 146.725 178.665 147 178.995C147.275 179.326 149.64 180.832 152.254 182.343C156.872 185.011 157.107 185.043 160.432 183.465C163.7 181.914 168 175.207 168 171.66C168 167.646 165.338 163.608 159.97 159.477C156.77 157.015 153.914 155 153.623 155C153.332 155 148.746 151.85 143.43 148C138.114 144.15 133.213 141 132.538 141C131.862 141 130.623 141.787 129.783 142.75ZM39 221.378C39 221.585 39.788 222.373 40.75 223.128C42.336 224.371 42.371 224.336 41.128 222.75C39.821 221.084 39 220.555 39 221.378ZM132.813 239.683C133.534 239.972 134.397 239.936 134.729 239.604C135.061 239.272 134.471 239.036 133.417 239.079C132.252 239.127 132.015 239.364 132.813 239.683ZM121.813 241.683C122.534 241.972 123.397 241.936 123.729 241.604C124.061 241.272 123.471 241.036 122.417 241.079C121.252 241.127 121.015 241.364 121.813 241.683ZM145.507 244.989C145.157 245.555 145.558 245.723 146.448 245.382C148.18 244.717 148.497 244 147.059 244C146.541 244 145.843 244.445 145.507 244.989Z" fill="#00FFFF"/>
<path fill-rule="evenodd" clip-rule="evenodd" d="M185 11.393C185 11.609 185.698 12.054 186.552 12.382C187.442 12.723 187.843 12.555 187.493 11.989C186.906 11.038 185 10.583 185 11.393ZM72 13C71.099 13.582 70.975 13.975 71.691 13.985C72.346 13.993 73.16 13.55 73.5 13C74.267 11.758 73.921 11.758 72 13ZM60 25.59C55.875 28.01 51.964 29.792 51.308 29.549C50.136 29.115 41.382 37.149 35.5 44.058C14.046 69.257 1 100.654 1 127.089C1 133.025 1.42 138.141 1.933 138.458C2.446 138.775 3.401 141.615 4.055 144.767C5.801 153.187 11.565 169.172 16.187 178.416C24.848 195.736 35.558 208.585 49.105 217.908C55.496 222.306 55.497 222.307 51.586 218.619C49.216 216.386 48.033 214.567 48.587 214.013C49.4 213.2 62.316 208 63.523 208C63.785 208 64 208.75 64 209.667C64 210.583 64.212 211.121 64.471 210.862C64.73 210.603 64.439 206.301 63.823 201.302C62.299 188.922 62.64 188.27 68.921 191.554C73.311 193.85 73.933 194.578 74.276 197.826C74.612 201.009 74.694 200.832 74.889 196.5C75.014 193.75 75.893 186.488 76.844 180.363C78.194 171.669 78.293 169.334 77.295 169.717C76.592 169.987 75.73 169.46 75.379 168.546C75.029 167.633 74.137 167.117 73.397 167.401C72.658 167.685 71.703 167.32 71.276 166.589C70.849 165.859 69.525 164.96 68.333 164.59C66.397 163.99 65.993 164.511 64.55 169.476C62.6 176.182 61.907 176.027 53.807 167.076C38.828 150.524 32.24 123.78 34.986 90.668C36.128 76.901 36.091 75.077 34.616 72.225C33.716 70.484 32.084 68.58 30.991 67.995C29.108 66.987 29.084 66.733 30.539 63.215C34.991 52.455 48.832 36.096 61.337 26.816C65.647 23.617 68.797 21.042 68.337 21.094C67.876 21.146 64.125 23.169 60 25.59ZM217 37.378C217 37.585 217.787 38.373 218.75 39.128C220.336 40.371 220.371 40.336 219.128 38.75C217.821 37.084 217 36.555 217 37.378ZM156.734 43.48C151.376 45.705 139 52.697 139 53.499C139 53.694 141.475 55.269 144.5 57C147.525 58.731 150.016 60.676 150.036 61.323C150.056 61.971 151.068 61.285 152.286 59.799C153.504 58.314 158.288 55.35 162.918 53.213L171.335 49.327L166.647 46.101C164.069 44.327 162.22 42.454 162.538 41.938C163.285 40.731 163.472 40.681 156.734 43.48ZM243.402 108.975C245.089 121.689 243.679 149.069 240.441 166.5C238.437 177.282 232.973 195.21 227.524 208.879C225.468 214.038 223.708 218.763 223.614 219.379C223.521 219.996 223.124 221.012 222.733 221.637C222.024 222.77 224.771 225.814 225.904 225.151C226.232 224.96 227.201 224.428 228.058 223.969C229.879 222.994 236.057 210.748 236.413 207.407C236.547 206.148 237.237 204.419 237.946 203.565C238.655 202.711 239.277 200.466 239.327 198.576C239.377 196.687 239.774 195.36 240.209 195.629C240.644 195.898 241 195.394 241 194.509C241 193.625 241.657 191.63 242.46 190.077C244.082 186.941 247.241 172.907 246.493 172.16C246.231 171.898 246.519 171.08 247.131 170.342C247.744 169.604 247.949 169 247.587 169C247.226 169 247.419 168.085 248.018 166.967C249.635 163.946 250.23 155.983 250.72 130.807C250.996 116.657 250.786 107.44 250.161 106.324C249.557 105.244 247.895 104.483 245.969 104.405L242.779 104.277L243.402 108.975ZM126.138 130.333C125.319 131.321 125.352 131.693 126.266 131.767C127.729 131.887 192.17 156.486 195.031 158.017C197.496 159.336 197.488 161.376 194.977 172C192.303 183.315 183.742 200.39 175.578 210.693C165.445 223.48 156.713 230.06 141 236.751C137.448 238.263 136.602 238.882 138.61 238.498C141.732 237.9 149 241.099 149 243.071C149 243.551 151.092 242.831 153.649 241.472C156.206 240.112 158.707 239 159.208 239C161.223 239 176.073 226.72 181.206 220.809C187.262 213.834 187.618 213.224 194.802 197.5C200.025 186.067 203.012 176.963 205.079 166.173C206.637 158.036 206.152 157.555 191 152.21C162.478 142.148 158.455 140.6 157.742 139.413C157.326 138.718 155.301 137.618 153.242 136.968C151.184 136.318 145.357 134.26 140.294 132.393C130.209 128.676 127.804 128.326 126.138 130.333ZM129.783 142.75C127.665 145.179 126.134 148.296 123.964 154.604L122.103 160.013L124.504 162.256C129.951 167.348 136.415 172 138.044 172C138.57 172 139 172.413 139 172.918C139 173.424 140.688 174.862 142.75 176.116C144.813 177.369 146.725 178.665 147 178.995C147.275 179.326 149.64 180.832 152.254 182.343C156.872 185.011 157.107 185.043 160.432 183.465C163.7 181.914 168 175.207 168 171.66C168 167.646 165.338 163.608 159.97 159.477C156.77 157.015 153.914 155 153.623 155C153.332 155 148.746 151.85 143.43 148C138.114 144.15 133.213 141 132.538 141C131.862 141 130.623 141.787 129.783 142.75ZM39 221.378C39 221.585 39.788 222.373 40.75 223.128C42.336 224.371 42.371 224.336 41.128 222.75C39.821 221.084 39 220.555 39 221.378ZM132.813 239.683C133.534 239.972 134.397 239.936 134.729 239.604C135.061 239.272 134.471 239.036 133.417 239.079C132.252 239.127 132.015 239.364 132.813 239.683ZM121.813 241.683C122.534 241.972 123.397 241.936 123.729 241.604C124.061 241.272 123.471 241.036 122.417 241.079C121.252 241.127 121.015 241.364 121.813 241.683ZM145.507 244.989C145.157 245.555 145.558 245.723 146.448 245.382C148.18 244.717 148.497 244 147.059 244C146.541 244 145.843 244.445 145.507 244.989Z" fill="#68DEFF"/>
<path fill-rule="evenodd" clip-rule="evenodd" d="M185 11.393C185 11.609 185.698 12.054 186.552 12.382C187.442 12.723 187.843 12.555 187.493 11.989C186.906 11.038 185 10.583 185 11.393ZM72 13C71.099 13.582 70.975 13.975 71.691 13.985C72.346 13.993 73.16 13.55 73.5 13C74.267 11.758 73.921 11.758 72 13ZM217 37.378C217 37.585 217.787 38.373 218.75 39.128C220.336 40.371 220.371 40.336 219.128 38.75C217.821 37.084 217 36.555 217 37.378ZM39 221.378C39 221.585 39.788 222.373 40.75 223.128C42.336 224.371 42.371 224.336 41.128 222.75C39.821 221.084 39 220.555 39 221.378Z" fill="white"/>
</svg>
