<svg width="250" height="250" viewBox="0 0 250 250" fill="none" xmlns="http://www.w3.org/2000/svg">
<path fill-rule="evenodd" clip-rule="evenodd" d="M117.762 0.706998C119.006 0.945998 120.806 0.936998 121.762 0.686998C122.718 0.436998 121.7 0.240998 119.5 0.251998C117.3 0.262998 116.518 0.467998 117.762 0.706998ZM138.762 0.706998C140.006 0.945998 141.806 0.936998 142.762 0.686998C143.718 0.436998 142.7 0.240998 140.5 0.251998C138.3 0.262998 137.518 0.467998 138.762 0.706998ZM108.75 1.662C109.438 1.94 110.563 1.94 111.25 1.662C111.938 1.385 111.375 1.158 110 1.158C108.625 1.158 108.063 1.385 108.75 1.662ZM147.75 1.662C148.438 1.94 149.563 1.94 150.25 1.662C150.938 1.385 150.375 1.158 149 1.158C147.625 1.158 147.063 1.385 147.75 1.662ZM102.75 2.662C103.438 2.94 104.563 2.94 105.25 2.662C105.938 2.385 105.375 2.158 104 2.158C102.625 2.158 102.063 2.385 102.75 2.662ZM153.75 2.662C154.438 2.94 155.563 2.94 156.25 2.662C156.938 2.385 156.375 2.158 155 2.158C153.625 2.158 153.063 2.385 153.75 2.662ZM98.813 3.683C99.534 3.972 100.397 3.936 100.729 3.604C101.061 3.272 100.471 3.036 99.417 3.079C98.252 3.127 98.015 3.364 98.813 3.683ZM158.813 3.683C159.534 3.972 160.397 3.936 160.729 3.604C161.061 3.272 160.471 3.036 159.417 3.079C158.252 3.127 158.015 3.364 158.813 3.683ZM92.5 5C91.239 5.542 91.055 5.859 92 5.859C92.825 5.859 94.4 5.473 95.5 5C96.761 4.458 96.945 4.141 96 4.141C95.175 4.141 93.6 4.527 92.5 5ZM162.813 4.683C163.534 4.972 164.397 4.936 164.729 4.604C165.061 4.272 164.471 4.036 163.417 4.079C162.252 4.127 162.015 4.364 162.813 4.683ZM106.597 6.607C89.458 9.702 73.132 16.662 57.152 27.687C52.01 31.234 47.609 33.943 47.372 33.706C46.843 33.177 58.925 23.304 64.75 19.506C67.088 17.981 69 16.517 69 16.252C69 15.521 64.291 18.648 56.329 24.669C34.334 41.299 15.248 68.273 6.21 95.5C1.389 110.023 -1.457 130.143 0.967 132.567C1.499 133.099 2.334 135.327 2.823 137.517C3.615 141.068 3.771 141.229 4.26 139C4.562 137.625 5.282 131.775 5.86 126C7.89 105.728 16.196 81 20.975 81C24.255 81 25 84.845 25.006 101.815C25.014 124.51 27.786 140.259 34.391 155.139C36.919 160.832 42.63 168.981 50.415 178C57.502 186.21 58.358 188.207 56.597 192.421C55.391 195.309 53.776 196.527 46.638 199.934C41.953 202.17 37.642 204 37.06 204C32.153 204 42.897 215.875 54.5 223.276C62.197 228.186 71.346 233 72.979 233C73.555 233 72.413 229.799 70.442 225.886C66.777 218.608 63 205.907 63 200.861C63 198.218 63.155 198.114 65.5 199.182C66.875 199.808 68 200.725 68 201.22C68 201.714 68.419 201.859 68.931 201.543C69.443 201.226 70.149 201.432 70.5 202C70.851 202.568 71.484 202.819 71.908 202.557C72.331 202.296 73.44 205.634 74.373 209.976C76.427 219.532 81.565 230.121 86.705 235.39C93.495 242.352 93.809 242.448 109.408 242.343C125.223 242.236 133.18 240.609 146.857 234.681C154.576 231.336 154.736 231.312 157.991 232.995L161.294 234.703L155.188 238.06C151.83 239.906 149.267 241.601 149.493 241.826C150.327 242.66 163.712 234.618 170.234 229.364C173.938 226.381 179.76 220.338 183.173 215.935C186.585 211.533 189.855 208.132 190.439 208.379C191.022 208.625 198.903 212.305 207.951 216.556C228.365 226.147 227.566 226.331 233.805 210.602C250.593 168.277 254.668 121.54 244.418 88.874C241.697 80.203 235.569 66 234.548 66C234.228 66 235.093 68.224 236.471 70.943C240.901 79.684 244.269 90.97 242.93 92.584C242.284 93.363 241.449 94 241.074 94C240.7 94 239.348 90.737 238.07 86.75C233.677 73.041 223.983 55.874 218.569 52.218C216.881 51.077 212.575 49.136 209 47.904C201.018 45.152 183.479 44.828 175.752 47.29C173.14 48.122 171.213 48.464 171.47 48.049C172.217 46.84 169.62 43.914 167.527 43.607C163.704 43.046 164.988 41.081 170.186 39.537C178.207 37.155 187.701 35.843 195.5 36.038C199.35 36.135 202.853 36.166 203.285 36.107C205.896 35.751 187.675 22.769 177.239 17.55C154.972 6.415 129.506 2.47 106.597 6.607ZM76.75 11.566C74.138 12.926 72 14.262 72 14.536C72 14.982 81.9 10.306 82.917 9.38C84.155 8.251 80.901 9.405 76.75 11.566ZM179.083 10.365C179.313 10.565 180.625 11.265 182 11.92C184.357 13.042 184.389 13.022 182.559 11.555C180.966 10.279 177.711 9.164 179.083 10.365ZM188.5 15.518C189.6 16.414 191.4 17.588 192.5 18.128L194.5 19.11L192.5 17.482C191.4 16.586 189.6 15.412 188.5 14.872L186.5 13.89L188.5 15.518ZM195 19.378C195 19.585 195.787 20.373 196.75 21.128C198.336 22.371 198.371 22.336 197.128 20.75C195.821 19.084 195 18.555 195 19.378ZM201 24.5C202.292 25.875 203.574 27 203.849 27C204.124 27 203.292 25.875 202 24.5C200.708 23.125 199.426 22 199.151 22C198.876 22 199.708 23.125 201 24.5ZM208.958 31.25C211.41 33.862 213.548 36 213.708 36C214.459 36 213.665 35.102 209.25 30.958L204.5 26.5L208.958 31.25ZM216 39.5C217.292 40.875 218.574 42 218.849 42C219.124 42 218.292 40.875 217 39.5C215.708 38.125 214.426 37 214.151 37C213.876 37 214.708 38.125 216 39.5ZM221.437 46.329C222.977 48.348 224.44 50 224.687 50C225.381 50 221.052 44.15 219.772 43.359C219.148 42.973 219.897 44.31 221.437 46.329ZM228 56C228.589 57.1 229.295 58 229.57 58C229.845 58 229.589 57.1 229 56C228.411 54.9 227.705 54 227.43 54C227.155 54 227.411 54.9 228 56ZM156.001 65.003C164.394 81.628 165.34 109.034 158.385 134.068L156.839 139.635L144.669 135.188C137.976 132.742 131 130.686 129.167 130.62C125.904 130.503 125.774 130.66 123.068 138C114.082 162.377 100.804 178.974 83.882 186.979C75.034 191.165 74.073 191.037 74.672 185.75C78.004 156.332 89.143 126.913 105.815 103.5C116.049 89.128 131.387 73.779 145.407 63.878C149.206 61.195 152.462 59 152.642 59C152.823 59 154.335 61.701 156.001 65.003ZM231.5 62C232.353 63.65 233.276 65 233.551 65C233.826 65 233.353 63.65 232.5 62C231.647 60.35 230.724 59 230.449 59C230.174 59 230.647 60.35 231.5 62ZM0.286 142.5C0.294 145.25 0.488 146.256 0.718 144.736C0.947 143.216 0.941 140.966 0.704 139.736C0.467 138.506 0.279 139.75 0.286 142.5ZM1.158 152C1.158 153.375 1.385 153.938 1.662 153.25C1.94 152.563 1.94 151.438 1.662 150.75C1.385 150.063 1.158 150.625 1.158 152ZM2.158 157C2.158 158.375 2.385 158.938 2.662 158.25C2.94 157.563 2.94 156.438 2.662 155.75C2.385 155.063 2.158 155.625 2.158 157ZM3.079 161.583C3.127 162.748 3.364 162.985 3.683 162.188C3.972 161.466 3.936 160.603 3.604 160.271C3.272 159.939 3.036 160.529 3.079 161.583ZM4.141 165C4.141 165.825 4.527 167.4 5 168.5C5.542 169.761 5.859 169.945 5.859 169C5.859 168.175 5.473 166.6 5 165.5C4.458 164.239 4.141 164.055 4.141 165ZM6.031 171.5C6.031 172.05 6.467 173.175 7 174C7.533 174.825 7.969 175.05 7.969 174.5C7.969 173.95 7.533 172.825 7 172C6.467 171.175 6.031 170.95 6.031 171.5ZM8.084 176.5C8.084 177.05 8.946 179.075 10 181C11.054 182.925 11.916 184.05 11.916 183.5C11.916 182.95 11.054 180.925 10 179C8.946 177.075 8.084 175.95 8.084 176.5ZM15 191C15.589 192.1 16.295 193 16.57 193C16.845 193 16.589 192.1 16 191C15.411 189.9 14.705 189 14.43 189C14.155 189 14.411 189.9 15 191ZM18 196C18.589 197.1 19.295 198 19.57 198C19.845 198 19.589 197.1 19 196C18.411 194.9 17.705 194 17.43 194C17.155 194 17.411 194.9 18 196ZM22.977 203.204C24.79 205.791 27.407 208.941 28.792 210.204C30.178 211.467 29.165 209.8 26.54 206.5C20.31 198.668 18.86 197.327 22.977 203.204ZM34 216.5C35.866 218.425 37.617 220 37.892 220C38.167 220 36.866 218.425 35 216.5C33.134 214.575 31.383 213 31.108 213C30.833 213 32.134 214.575 34 216.5ZM40.796 222.208C42.059 223.593 45.209 226.21 47.796 228.023C53.673 232.14 52.332 230.69 44.5 224.46C41.2 221.835 39.533 220.822 40.796 222.208ZM53 231.43C53 231.705 53.9 232.411 55 233C56.1 233.589 57 233.845 57 233.57C57 233.295 56.1 232.589 55 232C53.9 231.411 53 231.155 53 231.43ZM58 234.495C58 235.165 70.122 241.211 70.569 240.764C70.771 240.563 68.025 238.962 64.468 237.208C60.911 235.454 58 234.233 58 234.495ZM73 242C73.825 242.533 74.95 242.969 75.5 242.969C76.05 242.969 75.825 242.533 75 242C74.175 241.467 73.05 241.031 72.5 241.031C71.95 241.031 72.175 241.467 73 242ZM144 243.2C142.625 243.791 138.8 245.08 135.5 246.066C132.2 247.051 130.302 247.89 131.282 247.929C133.171 248.004 144.471 244.416 147 242.938C149.085 241.719 147.03 241.899 144 243.2ZM86.5 246.528C88.7 247.253 91.4 247.841 92.5 247.834C93.6 247.827 92.25 247.195 89.5 246.43C83.244 244.689 81.13 244.758 86.5 246.528ZM96.75 248.662C97.438 248.94 98.563 248.94 99.25 248.662C99.938 248.385 99.375 248.158 98 248.158C96.625 248.158 96.063 248.385 96.75 248.662ZM125.75 248.662C126.438 248.94 127.563 248.94 128.25 248.662C128.938 248.385 128.375 248.158 127 248.158C125.625 248.158 125.063 248.385 125.75 248.662ZM103.25 249.689C104.213 249.941 105.787 249.941 106.75 249.689C107.713 249.438 106.925 249.232 105 249.232C103.075 249.232 102.287 249.438 103.25 249.689ZM118.25 249.689C119.213 249.941 120.787 249.941 121.75 249.689C122.713 249.438 121.925 249.232 120 249.232C118.075 249.232 117.287 249.438 118.25 249.689Z" fill="black"/>
</svg>
