<svg width="250" height="250" viewBox="0 0 250 250" fill="none" xmlns="http://www.w3.org/2000/svg">
<g clip-path="url(#clip0_1_72)">
<path fill-rule="evenodd" clip-rule="evenodd" d="M47.963 2.67307C46.356 3.44351 44.763 5.81971 43.614 9.15625C42.617 12.0529 41.465 14.4231 41.053 14.4231C40.641 14.4231 39.498 16.5721 38.512 19.1983C37.527 21.8245 36.436 23.762 36.089 23.5036C35.741 23.2452 34.635 25.4219 33.63 28.3413C32.625 31.2608 31.5 33.4243 31.13 33.149C30.76 32.8738 29.634 35.0385 28.629 37.9591C27.624 40.8798 26.465 43.2692 26.053 43.2692C25.641 43.2692 24.498 45.4183 23.512 48.0445C22.527 50.6707 21.436 52.6082 21.089 52.3498C20.741 52.0913 19.634 54.2692 18.629 57.1899C17.624 60.1106 16.465 62.5 16.053 62.5C15.641 62.5 14.498 64.649 13.512 67.2752C12.527 69.9014 11.436 71.8389 11.089 71.5805C10.741 71.3221 9.634 73.5 8.629 76.4207C7.624 79.3413 6.465 81.7308 6.053 81.7308C5.641 81.7308 4.492 83.8942 3.5 86.5385C2.508 89.1827 1.315 91.3461 0.848 91.3461C0.382 91.3461 0 95.0973 0 99.6815C0 105.02 1.76152 110.141 4.89824 113.92L18.018 129.73C27.927 141.672 36.489 151.442 37.042 151.442C37.596 151.442 38.478 152.798 39.003 154.456C39.527 156.113 40.492 157.331 41.146 157.16C41.801 156.99 42.921 158.203 43.635 159.856C44.349 161.508 45.286 162.869 45.717 162.879C47.284 162.916 49.018 164.858 48.457 165.948C48.141 166.564 48.417 167.067 49.072 167.067C49.726 167.067 58.583 177.073 68.753 189.303C78.924 201.532 87.609 211.538 88.055 211.538C88.501 211.538 89.153 212.629 89.505 213.96C89.856 215.292 90.555 216.076 91.057 215.703C91.559 215.331 92.803 216.673 93.822 218.686C94.84 220.7 95.958 222.005 96.306 221.588C96.653 221.169 97.739 222.52 98.719 224.589C99.698 226.657 101.037 228.353 101.693 228.358C102.35 228.362 103.587 229.567 104.443 231.037C105.299 232.506 106 233.212 106 232.606C106 232 107.125 233.337 108.5 235.577C109.875 237.817 111 239.169 111 238.582C111 237.994 112.125 239.346 113.5 241.587C114.875 243.827 116 245.284 116 244.825C116 244.365 116.9 245.072 118 246.394C120.803 249.763 129.197 249.763 132 246.394C133.1 245.072 134 244.365 134 244.825C134 245.284 135.125 243.827 136.5 241.587C137.875 239.346 139 237.994 139 238.582C139 239.169 140.125 237.817 141.5 235.577C142.875 233.337 144 231.984 144 232.572C144 233.16 145.125 231.808 146.5 229.567C147.875 227.327 149 225.975 149 226.562C149 227.15 150.012 225.989 151.25 223.984C152.487 221.978 153.955 220.523 154.511 220.75C155.067 220.977 155.967 220.005 156.511 218.59C157.055 217.175 157.95 216.012 158.5 216.006C159.05 215.999 160.294 214.424 161.265 212.505C162.236 210.585 163.441 209.321 163.943 209.693C164.445 210.066 165.144 209.282 165.495 207.951C165.847 206.619 166.494 205.529 166.934 205.529C167.373 205.529 176.832 194.576 187.954 181.19C199.075 167.803 208.6 156.851 209.12 156.851C209.641 156.851 210.627 155.499 211.313 153.846C211.998 152.193 213.123 150.841 213.813 150.841C214.502 150.841 215.627 149.489 216.313 147.837C216.998 146.184 217.996 144.823 218.53 144.812C219.063 144.802 226.363 136.526 234.75 126.423L245.09 113.969C248.234 110.182 250 105.051 250 99.7007C250 95.1058 249.618 91.3461 249.152 91.3461C248.685 91.3461 247.461 89.0481 246.43 86.238C245.4 83.4279 244.061 80.7512 243.455 80.2873C242.848 79.8233 241.756 77.2728 241.027 74.6178C240.298 71.9627 239.352 70.0505 238.926 70.3678C238.499 70.6851 237.297 68.1971 236.254 64.8389C235.212 61.4808 233.968 58.8089 233.491 58.9026C233.013 58.9952 231.898 56.8486 231.014 54.131C230.13 51.4135 229.135 49.5168 228.803 49.9159C228.471 50.3149 227.668 48.7079 227.019 46.3437C226.37 43.9796 225.186 41.2608 224.389 40.3029C223.591 39.3437 222.062 36.2392 220.991 33.4026C219.92 30.5661 219.019 28.7861 218.989 29.4471C218.959 30.1082 217.992 28.0805 216.84 24.9399C215.688 21.8005 214.421 19.2308 214.024 19.2308C213.628 19.2308 212.461 16.9315 211.43 14.1226C210.4 11.3125 208.982 8.58173 208.279 8.05288C207.575 7.52404 207 6.29447 207 5.31971C207 4.34375 205.846 3.01923 204.435 2.3738C200.89 0.753602 51.371 1.03966 47.963 2.67307Z" fill="#DCF0F0"/>
<path fill-rule="evenodd" clip-rule="evenodd" d="M47.963 2.67307C46.356 3.44351 44.763 5.81971 43.614 9.15625C42.617 12.0529 41.465 14.4231 41.053 14.4231C40.641 14.4231 39.498 16.5721 38.512 19.1983C37.527 21.8245 36.436 23.762 36.089 23.5036C35.741 23.2452 34.635 25.4219 33.63 28.3413C32.625 31.2608 31.5 33.4243 31.13 33.149C30.76 32.8738 29.634 35.0385 28.629 37.9591C27.624 40.8798 26.465 43.2692 26.053 43.2692C25.641 43.2692 24.498 45.4183 23.512 48.0445C22.527 50.6707 21.436 52.6082 21.089 52.3498C20.741 52.0913 19.634 54.2692 18.629 57.1899C17.624 60.1106 16.465 62.5 16.053 62.5C15.641 62.5 14.498 64.649 13.512 67.2752C12.527 69.9014 11.436 71.8389 11.089 71.5805C10.741 71.3221 9.634 73.5 8.629 76.4207C7.624 79.3413 6.465 81.7308 6.053 81.7308C5.641 81.7308 4.492 83.8942 3.5 86.5385C2.508 89.1827 1.315 91.3461 0.848 91.3461C0.382 91.3461 0 95.0973 0 99.6815C0 105.02 1.76152 110.141 4.89824 113.92L18.018 129.73C27.927 141.672 36.489 151.442 37.042 151.442C37.596 151.442 38.478 152.798 39.003 154.456C39.527 156.113 40.492 157.331 41.146 157.16C41.801 156.99 42.921 158.203 43.635 159.856C44.349 161.508 45.286 162.869 45.717 162.879C47.284 162.916 49.018 164.858 48.457 165.948C48.141 166.564 48.417 167.067 49.072 167.067C49.726 167.067 58.583 177.073 68.753 189.303C78.924 201.532 87.609 211.538 88.055 211.538C88.501 211.538 89.153 212.629 89.505 213.96C89.856 215.292 90.555 216.076 91.057 215.703C91.559 215.331 92.803 216.673 93.822 218.686C94.84 220.7 95.958 222.005 96.306 221.588C96.653 221.169 97.739 222.52 98.719 224.589C99.698 226.657 101.037 228.353 101.693 228.358C102.35 228.362 103.587 229.567 104.443 231.037C105.299 232.506 106 233.212 106 232.606C106 232 107.125 233.337 108.5 235.577C109.875 237.817 111 239.169 111 238.582C111 237.994 112.125 239.346 113.5 241.587C114.875 243.827 116 245.284 116 244.825C116 244.365 116.9 245.072 118 246.394C120.803 249.763 129.197 249.763 132 246.394C133.1 245.072 134 244.365 134 244.825C134 245.284 135.125 243.827 136.5 241.587C137.875 239.346 139 237.994 139 238.582C139 239.169 140.125 237.817 141.5 235.577C142.875 233.337 144 231.984 144 232.572C144 233.16 145.125 231.808 146.5 229.567C147.875 227.327 149 225.975 149 226.562C149 227.15 150.012 225.989 151.25 223.984C152.487 221.978 153.955 220.523 154.511 220.75C155.067 220.977 155.967 220.005 156.511 218.59C157.055 217.175 157.95 216.012 158.5 216.006C159.05 215.999 160.294 214.424 161.265 212.505C162.236 210.585 163.441 209.321 163.943 209.693C164.445 210.066 165.144 209.282 165.495 207.951C165.847 206.619 166.494 205.529 166.934 205.529C167.373 205.529 176.832 194.576 187.954 181.19C199.075 167.803 208.6 156.851 209.12 156.851C209.641 156.851 210.627 155.499 211.313 153.846C211.998 152.193 213.123 150.841 213.813 150.841C214.502 150.841 215.627 149.489 216.313 147.837C216.998 146.184 217.996 144.823 218.53 144.812C219.063 144.802 226.363 136.526 234.75 126.423L245.09 113.969C248.234 110.182 250 105.051 250 99.7007C250 95.1058 249.618 91.3461 249.152 91.3461C248.685 91.3461 247.461 89.0481 246.43 86.238C245.4 83.4279 244.061 80.7512 243.455 80.2873C242.848 79.8233 241.756 77.2728 241.027 74.6178C240.298 71.9627 239.352 70.0505 238.926 70.3678C238.499 70.6851 237.297 68.1971 236.254 64.8389C235.212 61.4808 233.968 58.8089 233.491 58.9026C233.013 58.9952 231.898 56.8486 231.014 54.131C230.13 51.4135 229.135 49.5168 228.803 49.9159C228.471 50.3149 227.668 48.7079 227.019 46.3437C226.37 43.9796 225.186 41.2608 224.389 40.3029C223.591 39.3437 222.062 36.2392 220.991 33.4026C219.92 30.5661 219.019 28.7861 218.989 29.4471C218.959 30.1082 217.992 28.0805 216.84 24.9399C215.688 21.8005 214.421 19.2308 214.024 19.2308C213.628 19.2308 212.461 16.9315 211.43 14.1226C210.4 11.3125 208.982 8.58173 208.279 8.05288C207.575 7.52404 207 6.29447 207 5.31971C207 4.34375 205.846 3.01923 204.435 2.3738C200.89 0.753602 51.371 1.03966 47.963 2.67307ZM125.75 42.9687L80.4709 43.2391C75.7858 43.2671 72 47.8399 72 53.4711C72 59.1178 75.7715 63.7187 80.4691 63.8024L91.75 64.0036L111.5 64.357L91.25 64.6298L79.8324 64.7844C74.9706 64.8501 71 60.1312 71 54.2873C71 48.4471 71.3 43.3089 71.667 42.869C72.033 42.4279 96.446 42.1983 125.917 42.357L179.5 42.6466L125.75 42.9687ZM172.5 64.53C155.326 65.3918 138.226 65.4291 138.652 64.6034C138.908 64.1082 148.204 63.8089 159.309 63.9411C170.414 64.0721 176.35 64.3377 172.5 64.53ZM112.733 78.3942C112.522 81.2211 112.346 79.2067 112.343 73.9183C112.339 68.6298 112.512 66.3173 112.727 68.7788C112.942 71.2404 112.945 75.5673 112.733 78.3942ZM143.123 83.8918C141.265 84.1214 139.365 83.8522 138.899 83.2921C138.433 82.732 139.953 82.5445 142.276 82.8738C146.396 83.4591 146.417 83.4844 143.123 83.8918ZM109.762 83.7584C108.806 84.0589 107.006 84.0697 105.762 83.7824C104.518 83.4952 105.3 83.2488 107.5 83.2356C109.7 83.2223 110.718 83.4579 109.762 83.7584ZM101.269 84.9231C100.592 85.2524 99.242 85.2728 98.269 84.9675C97.296 84.6623 97.85 84.393 99.5 84.369C101.15 84.3449 101.946 84.5937 101.269 84.9231ZM152.269 84.9231C151.592 85.2524 150.242 85.2728 149.269 84.9675C148.296 84.6623 148.85 84.393 150.5 84.369C152.15 84.3449 152.946 84.5937 152.269 84.9231ZM76 90.1442C75.175 90.7848 74.05 91.3089 73.5 91.3089C72.95 91.3089 73.175 90.7848 74 90.1442C74.825 89.5036 75.95 88.9796 76.5 88.9796C77.05 88.9796 76.825 89.5036 76 90.1442ZM110.729 94.476C110.397 94.875 109.534 94.9183 108.813 94.5709C108.015 94.1875 108.252 93.9026 109.417 93.8449C110.471 93.7933 111.061 94.0769 110.729 94.476ZM144 94.2151C144 94.4699 142.674 94.9135 141.053 95.1995C139.432 95.4844 138.333 95.2764 138.612 94.7344C139.107 93.7704 144 93.2993 144 94.2151ZM186.5 96.1538C187.495 97.476 188.085 98.5577 187.81 98.5577C187.535 98.5577 186.495 97.476 185.5 96.1538C184.505 94.8317 183.915 93.75 184.19 93.75C184.465 93.75 185.505 94.8317 186.5 96.1538ZM125.793 112.083L138.5 112.458L125.25 112.72L119.752 112.828C115.524 112.911 112.09 108.746 112.199 103.666L112.397 94.351L112.742 103.029C112.936 107.92 116.24 111.801 120.313 111.921L125.793 112.083ZM171.729 99.2836C171.397 99.6827 170.534 99.726 169.813 99.3786C169.015 98.9952 169.252 98.7103 170.417 98.6526C171.471 98.601 172.061 98.8846 171.729 99.2836ZM77.729 100.486C77.397 100.885 76.534 100.928 75.813 100.581C75.015 100.197 75.252 99.9123 76.417 99.8546C77.471 99.8029 78.061 100.087 77.729 100.486ZM188.707 106.055C188.468 107.55 188.263 106.611 188.252 103.966C188.241 101.322 188.437 100.099 188.687 101.248C188.937 102.397 188.946 104.56 188.707 106.055ZM187 112.338C187 112.644 185.988 113.486 184.75 114.207C182.589 115.465 182.577 115.444 184.441 113.648C186.481 111.684 187 111.418 187 112.338ZM188.689 117.488C188.438 118.645 188.232 117.698 188.232 115.385C188.232 113.071 188.438 112.124 188.689 113.281C188.941 114.439 188.941 116.331 188.689 117.488ZM172.729 119.716C172.397 120.115 171.534 120.159 170.813 119.811C170.015 119.428 170.252 119.143 171.417 119.085C172.471 119.034 173.061 119.317 172.729 119.716ZM83.729 120.918C83.397 121.317 82.534 121.361 81.813 121.013C81.015 120.63 81.252 120.345 82.417 120.287C83.471 120.236 84.061 120.519 83.729 120.918ZM168.729 120.918C168.397 121.317 167.534 121.361 166.813 121.013C166.015 120.63 166.252 120.345 167.417 120.287C168.471 120.236 169.061 120.519 168.729 120.918ZM88.729 122.12C88.397 122.519 87.534 122.562 86.813 122.215C86.015 121.832 86.252 121.547 87.417 121.489C88.471 121.437 89.061 121.721 88.729 122.12ZM79.729 130.534C79.397 130.933 78.534 130.976 77.813 130.629C77.015 130.245 77.252 129.96 78.417 129.903C79.471 129.851 80.061 130.135 79.729 130.534ZM107.762 135.441C106.806 135.742 105.006 135.752 103.762 135.465C102.518 135.178 103.3 134.931 105.5 134.918C107.7 134.905 108.718 135.141 107.762 135.441ZM145.75 135.444C144.787 135.746 143.213 135.746 142.25 135.444C141.287 135.142 142.075 134.894 144 134.894C145.925 134.894 146.713 135.142 145.75 135.444ZM113 156.886V161.579C113 169.944 118.545 176.785 125.502 177.004L138.003 177.395L125.252 177.34C118.143 177.309 112.336 170.505 112.129 161.963L112 156.662C111.725 145.321 111.838 136.293 112.25 136.601C112.662 136.909 113 146.037 113 156.886Z" fill="#00FFFF"/>
<path fill-rule="evenodd" clip-rule="evenodd" d="M46.65 5.21634C44.917 7.42428 42.199 11.887 40.609 15.1322C39.019 18.3786 36.578 23.1971 35.186 25.8413C33.793 28.4856 31.606 32.6779 30.327 35.1562C29.047 37.6358 26.953 41.6923 25.673 44.1707C22.166 50.9651 17.928 58.9916 15.327 63.7668C14.047 66.1154 13 68.619 13 69.3281C13 70.0385 12.292 71.3257 11.427 72.1887C10.562 73.0517 8.971 75.6863 7.893 78.0445C6.815 80.4026 4.633 84.7656 3.045 87.7404C0.709003 92.1142 0.142003 94.5481 0.0790032 100.466C0.028527 105.141 1.56404 109.639 4.33178 112.923L18.142 129.312C28.12 141.153 37.12 151.787 38.142 152.945C39.164 154.102 40 155.621 40 156.321C40 157.02 40.443 157.264 40.985 156.863C41.526 156.46 42.874 157.916 43.981 160.097C45.087 162.278 45.994 163.549 45.996 162.922C45.998 162.294 55.112 172.63 66.25 185.889C77.388 199.149 90.695 214.806 95.822 220.684C100.948 226.561 108.34 235.156 112.248 239.784C119.35 248.195 119.353 248.197 124.989 248.197C128.599 248.197 132.062 246.48 134.621 243.421L142.441 234.075C148.939 226.306 154.408 219.952 154.595 219.952C154.781 219.952 166.843 205.852 181.399 188.619C195.955 171.386 208.124 157.459 208.441 157.669C208.758 157.881 209.938 156.234 211.063 154.011C212.188 151.788 213.382 150.299 213.717 150.702C214.052 151.105 215.177 149.752 216.217 147.697C217.257 145.642 218.3 144.191 218.536 144.475C218.771 144.757 225.947 136.583 234.482 126.309L246.046 112.388C248.578 109.34 250 105.21 250 100.903C250 94.1454 248.823 90.768 241.281 75.8918C240.061 73.4844 238.136 69.238 237.003 66.4555C235.87 63.6743 234.499 61.0673 233.956 60.6647C233.414 60.262 232.282 58.2115 231.44 56.1082C230.019 52.5529 228.487 49.2873 222 35.9784C216.384 24.4579 214.046 19.5661 211.664 14.3534C210.287 11.3401 207.819 7.14783 206.179 5.03846C204.277 2.59121 201.616 1.20192 198.83 1.20192H126.499H54.3911C51.4609 1.20192 48.6604 2.65422 46.65 5.21634ZM125.75 42.9687L80.4709 43.2391C75.7858 43.2671 72 47.8399 72 53.4712C72 59.1178 75.7715 63.7187 80.4691 63.8024L91.75 64.0036L111.5 64.357L91.25 64.6298L79.8324 64.7844C74.9706 64.8501 71 60.1312 71 54.2873C71 48.4471 71.3 43.3089 71.667 42.869C72.033 42.4279 96.446 42.1983 125.917 42.357L179.5 42.6466L125.75 42.9687ZM172.5 64.53C155.326 65.3918 138.226 65.4291 138.652 64.6034C138.908 64.1082 148.204 63.8089 159.309 63.9411C170.414 64.0721 176.35 64.3377 172.5 64.53ZM112.733 78.3942C112.522 81.2212 112.346 79.2067 112.343 73.9183C112.339 68.6298 112.512 66.3173 112.727 68.7788C112.942 71.2404 112.945 75.5673 112.733 78.3942ZM143.123 83.8918C141.265 84.1214 139.365 83.8522 138.899 83.2921C138.433 82.732 139.953 82.5445 142.276 82.8738C146.396 83.4591 146.417 83.4844 143.123 83.8918ZM109.762 83.7584C108.806 84.0589 107.006 84.0697 105.762 83.7825C104.518 83.4952 105.3 83.2488 107.5 83.2356C109.7 83.2224 110.718 83.4579 109.762 83.7584ZM101.269 84.9231C100.592 85.2524 99.242 85.2728 98.269 84.9675C97.296 84.6623 97.85 84.393 99.5 84.369C101.15 84.345 101.946 84.5937 101.269 84.9231ZM152.269 84.9231C151.592 85.2524 150.242 85.2728 149.269 84.9675C148.296 84.6623 148.85 84.393 150.5 84.369C152.15 84.345 152.946 84.5937 152.269 84.9231ZM76 90.1442C75.175 90.7849 74.05 91.3089 73.5 91.3089C72.95 91.3089 73.175 90.7849 74 90.1442C74.825 89.5036 75.95 88.9796 76.5 88.9796C77.05 88.9796 76.825 89.5036 76 90.1442ZM110.729 94.476C110.397 94.875 109.534 94.9183 108.813 94.5709C108.015 94.1875 108.252 93.9026 109.417 93.845C110.471 93.7933 111.061 94.0769 110.729 94.476ZM144 94.2151C144 94.47 142.674 94.9135 141.053 95.1995C139.432 95.4844 138.333 95.2764 138.612 94.7344C139.107 93.7704 144 93.2993 144 94.2151ZM186.5 96.1538C187.495 97.476 188.085 98.5577 187.81 98.5577C187.535 98.5577 186.495 97.476 185.5 96.1538C184.505 94.8317 183.915 93.75 184.19 93.75C184.465 93.75 185.505 94.8317 186.5 96.1538ZM125.793 112.083L138.5 112.458L125.25 112.72L119.752 112.828C115.524 112.911 112.09 108.746 112.199 103.666L112.397 94.351L112.742 103.029C112.936 107.92 116.24 111.801 120.313 111.921L125.793 112.083ZM171.729 99.2837C171.397 99.6827 170.534 99.726 169.813 99.3786C169.015 98.9952 169.252 98.7103 170.417 98.6526C171.471 98.601 172.061 98.8846 171.729 99.2837ZM77.729 100.486C77.397 100.885 76.534 100.928 75.813 100.581C75.015 100.197 75.252 99.9123 76.417 99.8546C77.471 99.8029 78.061 100.087 77.729 100.486ZM188.707 106.055C188.468 107.55 188.263 106.611 188.252 103.966C188.241 101.322 188.437 100.099 188.687 101.248C188.937 102.397 188.946 104.56 188.707 106.055ZM187 112.338C187 112.644 185.988 113.486 184.75 114.207C182.589 115.465 182.577 115.444 184.441 113.648C186.481 111.684 187 111.418 187 112.338ZM188.689 117.488C188.438 118.645 188.232 117.698 188.232 115.385C188.232 113.071 188.438 112.124 188.689 113.281C188.941 114.439 188.941 116.331 188.689 117.488ZM172.729 119.716C172.397 120.115 171.534 120.159 170.813 119.811C170.015 119.428 170.252 119.143 171.417 119.085C172.471 119.034 173.061 119.317 172.729 119.716ZM83.729 120.918C83.397 121.317 82.534 121.361 81.813 121.013C81.015 120.63 81.252 120.345 82.417 120.287C83.471 120.236 84.061 120.519 83.729 120.918ZM168.729 120.918C168.397 121.317 167.534 121.361 166.813 121.013C166.015 120.63 166.252 120.345 167.417 120.287C168.471 120.236 169.061 120.519 168.729 120.918ZM88.729 122.12C88.397 122.519 87.534 122.563 86.813 122.215C86.015 121.832 86.252 121.547 87.417 121.489C88.471 121.438 89.061 121.721 88.729 122.12ZM79.729 130.534C79.397 130.933 78.534 130.976 77.813 130.629C77.015 130.245 77.252 129.96 78.417 129.903C79.471 129.851 80.061 130.135 79.729 130.534ZM107.762 135.441C106.806 135.742 105.006 135.752 103.762 135.465C102.518 135.178 103.3 134.931 105.5 134.918C107.7 134.905 108.718 135.141 107.762 135.441ZM145.75 135.444C144.787 135.746 143.213 135.746 142.25 135.444C141.287 135.142 142.075 134.894 144 134.894C145.925 134.894 146.713 135.142 145.75 135.444ZM113 156.886V161.579C113 169.944 118.545 176.785 125.502 177.004L138.003 177.395L125.252 177.34C118.143 177.309 112.336 170.505 112.129 161.963L112 156.662C111.725 145.321 111.838 136.293 112.25 136.601C112.662 136.909 113 146.037 113 156.886Z" fill="#B5DFDF"/>
<path fill-rule="evenodd" clip-rule="evenodd" d="M46.65 5.21634C44.917 7.42428 42.199 11.887 40.609 15.1322C39.019 18.3786 36.578 23.1971 35.186 25.8413C33.793 28.4856 31.606 32.6779 30.327 35.1562C29.047 37.6358 26.953 41.6923 25.673 44.1707C22.166 50.9651 17.928 58.9916 15.327 63.7668C14.047 66.1154 13 68.619 13 69.3281C13 70.0385 12.292 71.3257 11.427 72.1887C10.562 73.0517 8.971 75.6863 7.893 78.0445C6.815 80.4026 4.633 84.7656 3.045 87.7404C0.709003 92.1142 0.142003 94.5481 0.0790032 100.466C0.028527 105.141 1.56404 109.639 4.33178 112.923L18.142 129.312C28.12 141.153 37.12 151.787 38.142 152.945C39.164 154.102 40 155.621 40 156.321C40 157.02 40.443 157.264 40.985 156.863C41.526 156.46 42.874 157.916 43.981 160.097C45.087 162.278 45.994 163.549 45.996 162.922C45.998 162.294 55.112 172.63 66.25 185.889C77.388 199.149 90.695 214.806 95.822 220.684C100.948 226.561 108.34 235.156 112.248 239.784C119.35 248.195 119.353 248.197 124.989 248.197C128.599 248.197 132.062 246.48 134.621 243.421L142.441 234.075C148.939 226.306 154.408 219.952 154.595 219.952C154.781 219.952 166.843 205.852 181.399 188.619C195.955 171.386 208.124 157.459 208.441 157.669C208.758 157.881 209.938 156.234 211.063 154.011C212.188 151.788 213.382 150.299 213.717 150.702C214.052 151.105 215.177 149.752 216.217 147.697C217.257 145.642 218.3 144.191 218.536 144.475C218.771 144.757 225.947 136.583 234.482 126.309L246.046 112.388C248.578 109.34 250 105.21 250 100.903C250 94.1454 248.823 90.768 241.281 75.8918C240.061 73.4844 238.136 69.238 237.003 66.4555C235.87 63.6743 234.499 61.0673 233.956 60.6647C233.414 60.262 232.282 58.2115 231.44 56.1082C230.019 52.5529 228.487 49.2873 222 35.9784C216.384 24.4579 214.046 19.5661 211.664 14.3534C210.287 11.3401 207.819 7.14783 206.179 5.03846C204.277 2.59121 201.616 1.20192 198.83 1.20192H126.499H54.3911C51.4609 1.20192 48.6604 2.65422 46.65 5.21634ZM179.788 53.7861C179.945 59.8697 175.885 64.9038 170.821 64.9038H159.538H146.371C142.3 64.9038 139 68.8703 139 73.7632C139 78.7655 142.199 82.9275 146.348 83.3231L147.75 83.4567C152.563 83.9159 158.075 84.762 160 85.3389C163.69 86.4423 159.207 86.149 145 84.3546C141.305 83.888 138.5 80.1434 138.5 75.6781V73.9183C138.5 68.5871 142.064 64.2456 146.499 64.1742L158.75 63.9772L170.521 63.7886C175.222 63.7132 179 59.1113 179 53.4603C179 47.832 175.204 43.2692 170.521 43.2692H125.5H80.5C75.8056 43.2692 72 47.8433 72 53.4856C72 59.1279 75.8056 63.7019 80.5 63.7019H90.918C101.323 63.7019 110.548 64.03 111.418 64.4315C112.661 65.0048 113 67.0457 113 73.9663C113 84.2308 113.564 83.732 101 84.5817L92.5 85.1574L101 83.9471C112.893 82.2536 112.136 82.9772 111.796 73.6346C111.63 69.0715 108.53 65.4571 104.73 65.3959L91.25 65.1791L80.4872 65.0066C75.2272 64.9224 71 59.7733 71 53.4507C71 47.1613 75.2552 42.0712 80.4879 42.1011L125.25 42.357L170.246 42.6151C175.41 42.6448 179.627 47.5823 179.788 53.7861ZM91.269 86.125C90.592 86.4543 89.242 86.4748 88.269 86.1695C87.296 85.8642 87.85 85.595 89.5 85.5709C91.15 85.5469 91.946 85.7957 91.269 86.125ZM84.729 87.2644C84.397 87.6635 83.534 87.7067 82.813 87.3594C82.015 86.976 82.252 86.6911 83.417 86.6334C84.471 86.5817 85.061 86.8654 84.729 87.2644ZM167.729 87.2644C167.397 87.6635 166.534 87.7067 165.813 87.3594C165.015 86.976 165.252 86.6911 166.417 86.6334C167.471 86.5817 168.061 86.8654 167.729 87.2644ZM76 90.018C75.175 90.5709 73.15 91.3425 71.5 91.7356C71.0645 91.8392 70.8648 91.1099 71.2664 90.8823L71.5 90.75C74.875 88.8377 78.693 88.2175 76 90.018ZM178.5 90.7019C182.362 92.8269 180.566 92.8582 176 90.7452C174.075 89.8546 173.175 89.1082 174 89.0877C174.825 89.0673 176.85 89.7933 178.5 90.7019ZM64.174 96.5313C62.738 98.369 62 100.847 62 103.831V104.318C62 105.952 63.5666 106.867 64.635 105.857C66.084 104.487 67.772 103.375 68.385 103.386C68.998 103.397 68.037 104.531 66.25 105.907C64.463 107.284 63 109.124 63 109.996C63 110.869 65.246 112.803 67.992 114.294C70.738 115.786 72.797 117.232 72.568 117.506C72.339 117.781 69.868 116.627 67.076 114.942L65.0545 113.722C63.6524 112.876 62 114.101 62 115.987C62 118.875 62.816 121.065 64.75 123.362C66.263 125.159 66.6 125.883 65.5 124.972C61.513 121.668 61 119.909 61 109.523C61 100.695 61.294 98.9375 63.174 96.5313C64.37 95.0024 65.574 93.75 65.849 93.75C66.124 93.75 65.37 95.0024 64.174 96.5313ZM111.418 94.4796C112.649 95.0469 113 97.0481 113 103.494C113 108.07 116.086 111.779 119.893 111.779H125.456H130.656C134.71 111.779 138.042 107.934 138.206 103.065C138.488 94.7019 138.601 94.3462 141 94.2356C143.175 94.1346 143.208 94.1839 141.25 94.6154C139.155 95.0769 139 95.7296 139 104.046C139 108.98 135.672 112.981 131.566 112.981H125.5H119.032C115.148 112.981 112 109.197 112 104.529C112 96.887 111.784 95.9724 109.75 94.9892C108.513 94.3918 108.026 93.8678 108.668 93.8257C109.311 93.7849 110.548 94.0781 111.418 94.4796ZM188.028 97.4183C188.563 98.619 189 104.421 189 110.311C189 121.314 188.478 122.901 184 125.507C183.175 125.988 183.738 125.213 185.25 123.787C187.407 121.752 188 120.187 188 116.526V116.363C188 114.358 186.197 113.102 184.75 114.1C182.963 115.332 180.375 116.689 179 117.117C177.625 117.543 178.975 116.382 182 114.535C187.428 111.222 187.504 111.101 187.81 105.322C188.062 100.561 187.692 98.9195 185.833 96.5421C184.065 94.2788 183.944 93.7993 185.301 94.4255C186.266 94.8702 187.493 96.2176 188.028 97.4183ZM104.269 95.7404C103.592 96.0697 102.242 96.0901 101.269 95.7849C100.296 95.4796 100.85 95.2103 102.5 95.1863C104.15 95.1623 104.946 95.4111 104.269 95.7404ZM150.269 95.7404C149.592 96.0697 148.242 96.0901 147.269 95.7849C146.296 95.4796 146.85 95.2103 148.5 95.1863C150.15 95.1623 150.946 95.4111 150.269 95.7404ZM94.25 96.9495C93.563 97.2837 92.438 97.2837 91.75 96.9495C91.063 96.6166 91.625 96.3437 93 96.3437C94.375 96.3437 94.938 96.6166 94.25 96.9495ZM159.25 96.9495C158.563 97.2837 157.438 97.2837 156.75 96.9495C156.063 96.6166 156.625 96.3437 158 96.3437C159.375 96.3437 159.938 96.6166 159.25 96.9495ZM81 99.7837C76.875 100.982 73.342 101.773 73.149 101.541C72.956 101.309 74.531 100.584 76.649 99.9303C83.024 97.9603 84.411 97.6358 86.5 97.6202C87.6 97.6118 85.125 98.5853 81 99.7837ZM165.25 98.1514C164.563 98.4856 163.438 98.4856 162.75 98.1514C162.063 97.8185 162.625 97.5457 164 97.5457C165.375 97.5457 165.938 97.8185 165.25 98.1514ZM174.5 100.365L174.729 100.495C175.118 100.716 174.922 101.423 174.5 101.319C172.85 100.907 170.375 100.165 169 99.6683L168.894 99.63C168.469 99.4763 168.556 98.7239 169 98.7151C170.375 98.6887 172.85 99.4303 174.5 100.365ZM185.139 105.84C185.409 106.123 185.105 106.63 184.796 106.413L184.5 106.204C180.552 103.425 180.493 103.365 181.723 103.365C182.303 103.365 183.841 104.48 185.139 105.84ZM174.713 118.535C173.787 119.648 162.874 122.571 160 122.476C158.625 122.43 161.1 121.435 165.5 120.263C175.347 117.639 175.477 117.615 174.713 118.535ZM86 120.846C92.404 122.529 92.422 122.546 87.241 121.931C84.348 121.589 80.973 120.821 79.741 120.226C76.552 118.685 78.512 118.879 86 120.846ZM98.75 123.424C97.787 123.727 96.213 123.727 95.25 123.424C94.287 123.123 95.075 122.875 97 122.875C98.925 122.875 99.713 123.123 98.75 123.424ZM155.269 123.385C154.592 123.714 153.242 123.734 152.269 123.429C151.296 123.124 151.85 122.855 153.5 122.831C155.15 122.806 155.946 123.055 155.269 123.385ZM111.762 124.624C110.806 124.924 109.006 124.935 107.762 124.648C106.518 124.361 107.3 124.114 109.5 124.101C111.7 124.088 112.718 124.323 111.762 124.624ZM142.762 124.624C141.806 124.924 140.006 124.935 138.762 124.648C137.518 124.361 138.3 124.114 140.5 124.101C142.7 124.088 143.718 124.323 142.762 124.624ZM79.11 130.397C82.905 131.897 83.026 132.037 80 131.429C78.075 131.043 75.15 129.984 73.5 129.078C70.137 127.23 72.509 127.787 79.11 130.397ZM177 129.207C175.075 130.097 172.825 130.827 172 130.827C171.175 130.827 172.075 130.097 174 129.207C175.925 128.316 178.175 127.587 179 127.587C179.825 127.587 178.925 128.316 177 129.207ZM88.25 133.007C87.563 133.341 86.438 133.341 85.75 133.007C85.063 132.674 85.625 132.401 87 132.401C88.375 132.401 88.938 132.674 88.25 133.007ZM164.25 133.007C163.563 133.341 162.438 133.341 161.75 133.007C161.063 132.674 161.625 132.401 163 132.401C164.375 132.401 164.938 132.674 164.25 133.007ZM110.75 135.962C112.959 136.941 113 137.321 113 156.821V161.659C113 169.957 118.596 176.683 125.5 176.683C132.404 176.683 138 169.957 138 161.659V156.304V139.88C138 137.605 139.379 135.668 141.25 135.319C143.037 134.984 148.1 134.468 152.5 134.172L160.5 133.632L153 134.788C148.875 135.424 144.048 136.208 142.274 136.531C140.412 136.87 139.025 138.775 138.995 141.038L138.774 157.201L138.717 161.357C138.596 170.248 132.647 177.432 125.25 177.619C117.978 177.803 112 170.768 112 162.025V157.56V142.313C112 139.376 110.175 136.903 107.75 136.55C105.412 136.213 100.575 135.436 97 134.827C90.884 133.785 91.032 133.756 99.5 134.341C104.45 134.684 109.513 135.412 110.75 135.962Z" fill="#72C3C3"/>
<path fill-rule="evenodd" clip-rule="evenodd" d="M46.65 5.21634C44.917 7.42428 42.199 11.887 40.609 15.1322C39.019 18.3786 36.578 23.1971 35.186 25.8413C33.793 28.4856 31.606 32.6779 30.327 35.1562C29.047 37.6358 26.953 41.6923 25.673 44.1707C22.166 50.9651 17.928 58.9916 15.327 63.7668C14.047 66.1154 13 68.619 13 69.3281C13 70.0385 12.292 71.3257 11.427 72.1887C10.562 73.0517 8.971 75.6863 7.893 78.0445C6.815 80.4026 4.633 84.7656 3.045 87.7404C0.709003 92.1142 0.142003 94.5481 0.0790032 100.466C0.028527 105.141 1.56404 109.639 4.33178 112.923L18.142 129.312C28.12 141.153 37.12 151.787 38.142 152.945C39.164 154.102 40 155.621 40 156.321C40 157.02 40.443 157.264 40.985 156.863C41.526 156.46 42.874 157.916 43.981 160.097C45.087 162.278 45.994 163.549 45.996 162.922C45.998 162.294 55.112 172.63 66.25 185.889C77.388 199.149 90.695 214.806 95.822 220.684C100.948 226.561 108.34 235.156 112.248 239.784C119.35 248.195 119.353 248.197 124.989 248.197C128.599 248.197 132.062 246.48 134.621 243.421L142.441 234.075C148.939 226.306 154.408 219.952 154.595 219.952C154.781 219.952 166.843 205.852 181.399 188.619C195.955 171.386 208.124 157.459 208.441 157.669C208.758 157.881 209.938 156.234 211.063 154.011C212.188 151.788 213.382 150.299 213.717 150.702C214.052 151.105 215.177 149.752 216.217 147.697C217.257 145.642 218.3 144.191 218.536 144.475C218.771 144.757 225.947 136.583 234.482 126.309L246.046 112.388C248.578 109.34 250 105.21 250 100.903C250 94.1454 248.823 90.768 241.281 75.8918C240.061 73.4844 238.136 69.238 237.003 66.4555C235.87 63.6743 234.499 61.0673 233.956 60.6647C233.414 60.262 232.282 58.2115 231.44 56.1082C230.019 52.5529 228.487 49.2873 222 35.9784C216.384 24.4579 214.046 19.5661 211.664 14.3534C210.287 11.3401 207.819 7.14783 206.179 5.03846C204.277 2.59121 201.616 1.20192 198.83 1.20192H126.499H54.3911C51.4609 1.20192 48.6604 2.65422 46.65 5.21634ZM179.785 53.1851C179.626 60.0696 174.977 65.5775 169.247 65.6697L159.25 65.8305L145.46 66.0516C141.879 66.1089 139 69.6151 139 73.9207C139 82.9351 137.556 81.9976 154.555 84.0216C167.792 85.5986 180.709 89.8774 185.505 94.274C187.708 96.2934 189 99.4322 189 102.762V110.022V116.854C189 120.41 187.483 123.718 184.981 125.615C179.356 129.883 164.994 134.231 150.928 135.924C144.156 136.739 139 143.588 139 151.768V157.623V161.058C139 170.351 132.732 177.885 125 177.885C117.268 177.885 111 170.351 111 161.058V157.623V151.617C111 143.523 105.898 136.745 99.197 135.939C87.254 134.501 72.896 130.468 67.265 126.968C61.377 123.308 61 122.249 61 109.35V102.373C61 99.2905 62.2032 96.3864 64.25 94.5289C69.017 90.2031 82.939 85.5216 95.5 84.0204C112.438 81.9952 111 82.9327 111 73.9207C111 69.6151 108.121 66.1089 104.54 66.0516L90.75 65.8305L79.4249 65.6483C74.4308 65.568 70.3718 60.7823 70.209 54.7824C70.048 48.8858 70.147 43.3413 70.427 42.4627C70.843 41.1611 81.04 40.8654 125.504 40.8654H169.816C175.432 40.8654 179.941 46.4373 179.785 53.1851ZM72 53.4856C72 59.1279 75.8056 63.7019 80.5 63.7019H90.918C101.323 63.7019 110.548 64.03 111.418 64.4315C112.661 65.0048 113 67.0457 113 73.9663C113 84.0925 113.563 83.5421 102 84.738C84.014 86.5998 68.791 91.3089 64.275 96.4087C61.471 99.5745 61.202 106.752 63.75 110.44C66.233 114.036 77.686 118.472 91.047 121.016C106.957 124.043 143.914 124.069 159.401 121.063C172.371 118.546 183.827 114.028 186.25 110.474C188.811 106.718 188.528 99.5721 185.691 96.3702C180.962 91.03 167.63 87.0517 145.5 84.3786C141.526 83.8989 138.5 79.8786 138.5 75.0779V73.9183C138.5 68.5871 142.064 64.2456 146.499 64.1742L158.75 63.9772L170.521 63.7886C175.222 63.7132 179 59.1113 179 53.4603C179 47.832 175.204 43.2692 170.521 43.2692H125.5H80.5C75.8056 43.2692 72 47.8433 72 53.4856ZM111.418 94.4796C112.649 95.0469 113 97.0481 113 103.494C113 108.07 116.086 111.779 119.893 111.779H125.5H131.059C134.892 111.779 138 108.044 138 103.436C138 98.8474 138.423 94.7801 138.94 94.3954C139.746 93.7969 155.784 95.8954 167 98.0673C172.136 99.0613 184.796 104.626 186.048 106.44C186.642 107.3 184.062 106.471 180.314 104.597C173.126 101.002 159.682 97.774 146.75 96.5385L146.046 96.4712C142.248 96.1084 139 99.7145 139 104.293V104.927C139 109.398 136.194 113.15 132.495 113.626C128.917 114.088 122.617 114.084 118.495 113.62L117.884 113.551C113.982 113.111 111 109.175 111 104.465V100.507C111 98.1029 109.378 96.1538 107.378 96.1538C101.997 96.1538 83.297 99.5865 77 101.731C73.975 102.761 69.734 104.629 67.576 105.88C63.171 108.436 61.579 108.111 65.163 105.388C69.88 101.804 80.856 98.3774 94.505 96.226C102.202 95.0132 108.801 93.9603 109.168 93.8858C109.536 93.8113 110.548 94.0781 111.418 94.4796ZM62 115.799C62 118.885 62.735 120.913 64.608 123.001C68.281 127.095 82.789 132.018 95.659 133.537C101.621 134.24 107.85 135.197 109.5 135.661C111.264 136.157 112.521 138.032 112.551 140.209L112.774 156.594L112.844 161.69C112.957 170.01 118.601 176.683 125.524 176.683C132.414 176.683 138 169.969 138 161.688V156.304V139.874C138 137.608 139.384 135.685 141.25 135.359C143.037 135.048 149.45 134.183 155.5 133.439C167.337 131.981 180.502 127.648 185.131 123.686C187.462 121.691 188 120.339 188 116.477C188 111.745 187.989 111.732 185.617 113.6C172.589 123.861 126.394 128.239 90.433 122.623C81.878 121.287 68.301 116.464 64.362 113.363C62.031 111.526 62 111.559 62 115.799Z" fill="#00AAAA"/>
<path fill-rule="evenodd" clip-rule="evenodd" d="M46.668 5.17789C44.926 7.38943 41.025 14.2188 38 20.3558C31.24 34.0697 16.554 62.2548 14.506 65.4483C13.678 66.7404 13 68.2849 13 68.881C13 69.4772 11.875 71.5721 10.5 73.5361C9.125 75.5 8 77.7933 8 78.6322C8 79.4699 7.188 81.0397 6.195 82.119C5.202 83.1995 3.768 85.988 3.008 88.3149C2.249 90.643 1.261 92.5481 0.813 92.5481C0.366 92.5481 0 95.9856 0 100.188C0 105.075 1.63567 109.756 4.53865 113.178L12.127 122.123C18.797 129.986 27.797 140.599 32.127 145.708C36.457 150.816 40 155.581 40 156.296C40 157.01 40.443 157.264 40.985 156.863C41.526 156.46 42.874 157.916 43.981 160.097C45.087 162.278 45.994 163.575 45.996 162.977C45.998 162.38 49.937 166.544 54.75 172.231C72.558 193.274 101.161 226.886 110.191 237.38L115.501 243.549C118.066 246.531 121.495 248.197 125.063 248.197C128.625 248.197 132.043 246.502 134.569 243.483L142.441 234.075C148.939 226.306 154.362 219.952 154.492 219.952C154.622 219.952 166.753 205.754 181.45 188.401C196.147 171.048 208.362 157.121 208.594 157.452C208.827 157.782 209.938 156.234 211.063 154.011C212.188 151.788 213.382 150.299 213.717 150.702C214.052 151.105 215.16 149.786 216.178 147.773C217.197 145.76 218.474 144.441 219.015 144.844C219.557 145.245 220 145.026 220 144.357C220 143.13 225.367 136.469 241.318 117.897L245.933 112.523C248.533 109.497 250 105.333 250 100.983C250 94.0817 248.747 90.4844 241.411 76.3221C240.042 73.6779 238.026 69.238 236.932 66.4555C235.838 63.6743 234.478 61.0517 233.91 60.6298C233.342 60.2079 232.443 58.6983 231.914 57.2752C230.973 54.7464 226.425 44.9736 221.808 35.5565C217.729 27.238 214.232 19.9688 211.64 14.4231C210.25 11.4483 208.005 7.39183 206.651 5.40866C205.092 3.12511 202.767 1.79695 200.31 1.7867L127.013 1.48077L54.4423 1.17789C51.5028 1.16562 48.6896 2.61306 46.668 5.17789ZM180 53.4856C180 60.4555 175.299 66.1058 169.5 66.1058H159.5H145.42C141.874 66.1058 139 69.5605 139 73.8221C139 78.2005 141.765 81.8637 145.391 82.2885L145.75 82.3305C167.145 84.8389 182.008 89.4363 187.133 95.1334C189.875 98.1803 190 98.7873 190 108.989C190 123.733 188.869 125.394 175.012 131.005C168.502 133.641 150.939 136.953 143.25 136.995C140.9 137.008 139 139.303 139 142.127V158.053V162.26C139 171.553 132.732 179.087 125 179.087C117.268 179.087 111 171.553 111 162.26V158.225V148.411C111 142.18 107.005 137.001 101.835 136.532C85.519 135.052 70.323 130.412 63.961 124.966C61.005 122.436 61 122.412 61 109.941C61 98.6875 61.214 97.2091 63.161 95.0301C68.639 88.8954 86.803 83.7897 110.25 81.7945C110.662 81.7596 111 78.2151 111 73.9183C111 69.6036 108.09 66.1058 104.5 66.1058H90.5H80.5C74.701 66.1058 70 60.4555 70 53.4856C70 46.5156 74.701 40.8654 80.5 40.8654H125H169.5C175.299 40.8654 180 46.5156 180 53.4856ZM72 53.4856C72 59.1279 75.8056 63.7019 80.5 63.7019H90.918C101.323 63.7019 110.548 64.03 111.418 64.4315C112.661 65.0048 113 67.0457 113 73.9663C113 84.0925 113.563 83.5421 102 84.738C89.501 86.0325 81.869 87.6971 74.025 90.8425C64.58 94.6298 62 97.4014 62 103.761C62 108.322 62.086 108.453 63.831 106.554C67.401 102.671 79.833 98.5769 95.114 96.2524C103.447 94.9844 110.881 94.232 111.633 94.5781C112.606 95.0276 113 97.595 113 103.494C113 108.07 116.086 111.779 119.893 111.779H125.5H131.059C134.892 111.779 138 108.044 138 103.436C138 98.8474 138.423 94.7801 138.94 94.3954C139.754 93.7909 154.697 95.7668 167.427 98.1623C172.759 99.1647 184.027 104.248 186.25 106.653C187.887 108.424 188 108.238 188 103.761C188 97.4327 185.381 94.5805 176.081 90.7788C169.14 87.9411 161.156 86.2704 145.5 84.3786C141.526 83.8989 138.5 79.8786 138.5 75.0779V73.9183C138.5 68.5871 142.064 64.2456 146.499 64.1743L158.75 63.9772L170.521 63.7886C175.222 63.7132 179 59.1113 179 53.4603C179 47.832 175.204 43.2692 170.521 43.2692H125.5H80.5C75.8056 43.2692 72 47.8433 72 53.4856ZM105 96.9411C84.075 99.3522 69.773 103.286 64.98 107.951C63.9497 108.953 64.1316 110.902 65.3211 111.605L67.137 112.679C79.193 119.809 95.824 122.678 124.989 122.659C144.183 122.645 156.334 121.695 165.5 119.492C171.893 117.954 181.66 114.018 184.356 111.892L184.787 111.552C185.936 110.646 185.964 108.634 184.841 107.683C179.311 103 165.542 99.2067 145.295 96.7885C141.928 96.3862 138.974 99.4734 138.838 103.537L138.795 104.814C138.629 109.735 135.297 113.646 131.2 113.728L126.5 113.822C119.9 113.953 113.713 113.781 112.75 113.44C111.301 112.925 111 111.385 111 104.487C111 98.5192 110.645 96.2079 109.75 96.3462C109.063 96.4519 106.925 96.7199 105 96.9411ZM62 115.799C62 118.885 62.735 120.913 64.608 123.001C68.281 127.095 82.789 132.018 95.659 133.537C101.621 134.24 107.85 135.197 109.5 135.661C111.264 136.157 112.521 138.032 112.551 140.209L112.774 156.594L112.844 161.69C112.957 170.01 118.601 176.683 125.524 176.683C132.414 176.683 138 169.969 138 161.687V156.304V139.874C138 137.608 139.384 135.685 141.25 135.359C143.037 135.048 149.45 134.183 155.5 133.439C167.337 131.981 180.502 127.648 185.131 123.686C187.462 121.691 188 120.339 188 116.477C188 111.745 187.989 111.732 185.617 113.6C172.589 123.861 126.394 128.239 90.433 122.623C81.878 121.287 68.301 116.464 64.362 113.363C62.031 111.526 62 111.559 62 115.799Z" fill="#009393"/>
<path fill-rule="evenodd" clip-rule="evenodd" d="M72 53.4856C72 59.1279 75.8056 63.7019 80.5 63.7019H90.918C101.323 63.7019 110.548 64.03 111.418 64.4315C112.661 65.0048 113 67.0457 113 73.9663C113 84.0925 113.563 83.5421 102 84.738C89.501 86.0324 81.869 87.6971 74.025 90.8425C64.58 94.6298 62 97.4014 62 103.761C62 108.322 62.086 108.453 63.831 106.554C67.401 102.671 79.833 98.5769 95.114 96.2524C103.447 94.9844 110.881 94.232 111.633 94.5781C112.606 95.0276 113 97.595 113 103.494C113 108.07 116.086 111.779 119.893 111.779H125.5H131.059C134.892 111.779 138 108.044 138 103.436C138 98.8474 138.423 94.78 138.94 94.3954C139.754 93.7909 154.697 95.7668 167.427 98.1623C172.759 99.1647 184.027 104.248 186.25 106.653C187.887 108.424 188 108.238 188 103.761C188 97.4327 185.381 94.5805 176.081 90.7788C169.14 87.9411 161.156 86.2704 145.5 84.3786C141.526 83.8989 138.5 79.8786 138.5 75.0779V73.9183C138.5 68.5871 142.064 64.2455 146.499 64.1742L158.75 63.9772L170.521 63.7886C175.222 63.7132 179 59.1113 179 53.4603C179 47.832 175.204 43.2692 170.521 43.2692H125.5H80.5C75.8056 43.2692 72 47.8433 72 53.4856ZM62 115.799C62 118.885 62.735 120.913 64.608 123.001C68.281 127.095 82.789 132.018 95.659 133.537C101.621 134.24 107.85 135.197 109.5 135.661C111.264 136.157 112.521 138.032 112.551 140.209L112.774 156.594L112.844 161.69C112.957 170.01 118.601 176.683 125.524 176.683C132.414 176.683 138 169.969 138 161.688V156.304V139.874C138 137.608 139.384 135.685 141.25 135.359C143.037 135.048 149.45 134.183 155.5 133.439C167.337 131.981 180.502 127.648 185.131 123.686C187.462 121.691 188 120.339 188 116.477C188 111.745 187.989 111.732 185.617 113.6C172.589 123.861 126.394 128.239 90.433 122.623C81.878 121.287 68.301 116.464 64.362 113.363C62.031 111.526 62 111.559 62 115.799Z" fill="white"/>
</g>
<defs>
<clipPath id="clip0_1_72">
<rect width="250" height="250" rx="125" fill="white"/>
</clipPath>
</defs>
</svg>
