<svg width="66" height="66" viewBox="0 0 66 66" fill="none" xmlns="http://www.w3.org/2000/svg">
<g clip-path="url(#clip0_1_2)">
<path fill-rule="evenodd" clip-rule="evenodd" d="M18.8822 2.946C12.9102 5.575 6.07716 11.94 3.06075 17.683C1.04775 21.514 0.455813 24.377 0.168094 31.666C-0.15675 39.92 0.0866251 41.437 2.62144 46.914C5.78634 53.752 12.1883 60.107 18.8822 63.054C24.9851 65.741 41.0149 65.741 47.1178 63.054C53.0898 60.425 59.9228 54.06 62.9393 48.317C64.9523 44.486 65.5442 41.623 65.8319 34.334C66.1568 26.08 65.9134 24.563 63.3786 19.086C60.2137 12.248 53.8117 5.893 47.1178 2.946C41.0149 0.258998 24.9851 0.258998 18.8822 2.946Z" fill="#FFFF80"/>
<path fill-rule="evenodd" clip-rule="evenodd" d="M17.853 3.979C10.5518 7.543 5.94103 12.171 2.45231 19.435C0.495004 23.511 0.0185659 26.177 0.0103159 33.09C0.00103474 40.688 0.366098 42.39 3.16388 47.821C9.06366 59.268 17.458 64.277 31.6625 64.824C40.0166 65.146 41.812 64.897 46.662 62.744C54.3912 59.313 59.2072 54.863 62.8578 47.778C65.636 42.388 66 40.674 66 33C66 25.313 65.638 23.617 62.8361 18.179C56.8734 6.609 48.5358 1.693 34.0313 1.199C24.7789 0.883001 23.8796 1.038 17.853 3.979Z" fill="#B2D01D"/>
<path fill-rule="evenodd" clip-rule="evenodd" d="M17.853 3.979C10.5518 7.543 5.94103 12.171 2.45231 19.435C0.495004 23.511 0.0185659 26.177 0.0103159 33.09C0.00103474 40.688 0.366098 42.39 3.16388 47.821C9.06366 59.268 17.458 64.277 31.6625 64.824C40.0166 65.146 41.812 64.897 46.662 62.744C54.3912 59.313 59.2072 54.863 62.8578 47.778C65.636 42.388 66 40.674 66 33C66 25.313 65.638 23.617 62.8361 18.179C56.8734 6.609 48.5358 1.693 34.0313 1.199C24.7789 0.883001 23.8796 1.038 17.853 3.979ZM53.625 21.067C53.625 22.668 53.1671 22.994 51.5976 22.511C50.4828 22.168 47.9304 22.326 45.9257 22.863C42.1544 23.873 41.2108 23.107 43.7291 21.079C44.5263 20.438 46.3299 20.194 47.7417 20.538C49.1721 20.886 50.6107 20.684 50.9953 20.081C52.1318 18.298 53.625 18.858 53.625 21.067Z" fill="#FFCE4F"/>
<path fill-rule="evenodd" clip-rule="evenodd" d="M40.2188 16.962C26.8342 17.698 22.1915 19.367 16.7166 25.414C13.9446 28.475 11.3551 34.313 11.3551 37.5C11.3551 43.503 17.9809 53 22.1688 53C25.0408 53 25.7813 51.338 25.7813 44.886C25.7813 39.063 27.621 34.383 31.1468 31.233C34.4252 28.306 44.186 24.993 50.3456 24.716L55.1719 24.5V20.514C55.1719 15.852 56.1608 16.086 40.2188 16.962ZM53.625 21.019C53.625 22.608 53.13 22.922 51.3047 22.493C48.1253 21.746 35.8679 25.207 31.5645 28.066C26.3237 31.549 24.3066 35.516 23.7188 43.5C23.3258 48.833 22.835 50.5 21.6563 50.5C20.8055 50.5 20.2527 49.859 20.427 49.076C20.6013 48.293 20.2156 45.515 19.57 42.904C18.5429 38.753 18.6574 37.579 20.4806 33.583C21.7253 30.854 23.6301 28.54 25.2048 27.845C26.6568 27.204 27.8438 26.313 27.8438 25.865C27.8438 24.493 34.3406 21.704 37.3457 21.787C38.906 21.83 40.4137 21.503 40.6962 21.059C40.9788 20.616 43.3012 20.389 45.8556 20.554C48.411 20.72 50.7674 20.438 51.0933 19.928C52.1348 18.293 53.625 18.935 53.625 21.019Z" fill="#E3B014"/>
<path fill-rule="evenodd" clip-rule="evenodd" d="M28.6904 18.375C18.7729 21.005 12.3595 28.613 12.3915 37.71C12.4121 43.36 15.709 49.712 19.7691 51.922C24.1302 54.295 25.7812 52.187 25.7812 44.246C25.7812 33.643 29.634 29.523 43.1918 25.625C46.2454 24.747 49.7599 24.276 51.0025 24.579C53.7962 25.259 55.969 22.956 55.5091 19.805C55.1832 17.581 54.7934 17.493 44.3437 17.298C38.0634 17.18 31.4882 17.633 28.6904 18.375ZM37.6406 20C37.29 20.55 37.9861 21 39.1875 21C40.3889 21 41.085 20.55 40.7344 20C39.9279 18.735 40.7942 18.75 45.7566 20.086C48.609 20.854 50.0651 20.852 50.8612 20.08C52.5009 18.49 53.625 18.763 53.625 20.75C53.625 22.122 52.6783 22.528 49.2422 22.628C43.6858 22.789 33.9312 26.369 29.7495 29.781C25.4647 33.278 23.7187 37.673 23.7187 44.968C23.7187 52.015 22.3276 52.751 18.1387 47.923C14.9108 44.204 14.6654 39.283 17.4178 33.5C19.4122 29.31 25.5513 22.812 24.1354 26.39C23.4826 28.04 23.6517 28.105 25.7637 27.009C27.5107 26.102 27.7777 25.579 26.795 24.989C25.8813 24.442 27.0466 23.396 30.5219 21.643C35.8132 18.975 38.7224 18.303 37.6406 20Z" fill="#91752D"/>
<path fill-rule="evenodd" clip-rule="evenodd" d="M31.0891 18.102C14.2271 21.216 6.75778 37.858 17.194 49.06C19.2132 51.227 21.4912 53 22.2554 53C24.2983 53 25.6028 49.937 25.0522 46.43C24.3035 41.659 26.6537 34.954 30.3239 31.395C34.089 27.744 46.8817 23.397 50.9489 24.387C53.9952 25.128 56.1361 22.869 55.3317 19.763C54.7779 17.626 54.2107 17.494 45.1615 17.386C39.8908 17.324 33.5579 17.646 31.0891 18.102ZM53.625 20.382C53.625 22.456 53.1248 22.773 49.7578 22.832C44.9316 22.917 34.981 26.208 30.7777 29.111C26.4536 32.096 23.7693 38.232 23.7414 45.191C23.7291 48.321 23.2423 51.168 22.6586 51.517C22.076 51.866 20.2197 50.72 18.5336 48.97C16.0339 46.376 15.4729 44.932 15.4914 41.144C15.5358 32.143 20.0001 26.297 30.8797 20.995C34.7366 19.115 36.6444 18.835 42.9351 19.227C47.0446 19.483 51.0159 19.318 51.7584 18.861C53.626 17.713 53.625 17.711 53.625 20.382ZM37.9634 20.683C38.7069 20.972 39.5969 20.936 39.9393 20.604C40.2817 20.272 39.6732 20.036 38.5863 20.079C37.3849 20.127 37.1405 20.364 37.9634 20.683ZM24.75 26C23.4279 26.828 23.4651 26.972 25.0078 26.985C25.9999 26.993 26.8125 26.55 26.8125 26C26.8125 24.78 26.696 24.78 24.75 26Z" fill="#A4560A"/>
<path fill-rule="evenodd" clip-rule="evenodd" d="M31.0891 18.102C14.2271 21.216 6.75778 37.858 17.194 49.06C19.2132 51.227 21.4912 53 22.2554 53C24.2983 53 25.6028 49.937 25.0522 46.43C24.3035 41.659 26.6537 34.954 30.3239 31.395C34.089 27.744 46.8817 23.397 50.9489 24.387C53.9952 25.128 56.1361 22.869 55.3317 19.763C54.7779 17.626 54.2107 17.494 45.1615 17.386C39.8908 17.324 33.5579 17.646 31.0891 18.102ZM53.625 20.382C53.625 22.456 53.1248 22.773 49.7578 22.832C44.9316 22.917 34.981 26.208 30.7777 29.111C26.4536 32.096 23.7693 38.232 23.7414 45.191C23.7157 51.542 22.9649 52.577 19.8959 50.493C16.7867 48.381 14.4375 42.81 14.4375 37.549C14.4375 30.305 17.8726 25.415 25.7812 21.403C28.546 20 31.9987 19.53 40.5364 19.394C46.6672 19.297 51.9647 18.943 52.3102 18.608C53.3754 17.576 53.625 17.912 53.625 20.382ZM37.9634 20.683C38.7069 20.972 39.5969 20.936 39.9393 20.604C40.2817 20.272 39.6732 20.036 38.5863 20.079C37.3849 20.127 37.1405 20.364 37.9634 20.683ZM24.75 26C23.4279 26.828 23.4651 26.972 25.0078 26.985C25.9999 26.993 26.8125 26.55 26.8125 26C26.8125 24.78 26.696 24.78 24.75 26Z" fill="#685008"/>
<path fill-rule="evenodd" clip-rule="evenodd" d="M46.9219 18.037L41.7656 18.76L48.2109 18.644C51.7564 18.581 54.6563 18.185 54.6563 17.765C54.6563 17.344 54.0767 17.071 53.3672 17.157C52.6587 17.244 49.7578 17.639 46.9219 18.037ZM26.8744 19.301C21.7831 20.876 14.9005 27.685 13.3794 32.654C11.2819 39.507 14.3065 47.921 20.2187 51.674C22.1172 52.879 22.571 52.829 23.8281 51.276C25.1316 49.666 25.0996 49.627 23.4867 50.852C19.4019 53.956 12.3719 42 13.9703 34.666C15.6987 26.735 21.8976 21.457 31.9553 19.356C36.563 18.393 36.9559 18.171 34.0313 18.186C32.0461 18.196 28.8255 18.698 26.8744 19.301ZM48.6595 23.094C45.6442 23.481 42.9268 24.04 42.6205 24.337C42.0162 24.924 53.8643 23.956 54.5707 23.362C55.5772 22.514 53.8013 22.433 48.6595 23.094ZM34.9594 26.991C30.4827 29.285 24.7253 35.412 24.815 37.785C24.8593 38.943 25.2151 38.688 25.9081 37.001C27.522 33.077 31.0159 29.935 36.6094 27.377C39.4453 26.081 41.0695 25.035 40.2188 25.054C39.368 25.073 37.0013 25.945 34.9594 26.991ZM23.9786 44.5C23.99 46.7 24.2014 47.482 24.4478 46.238C24.6943 44.994 24.685 43.194 24.4272 42.238C24.1694 41.282 23.9673 42.3 23.9786 44.5Z" fill="#2D240E"/>
</g>
<defs>
<clipPath id="clip0_1_2">
<rect width="66" height="66" rx="33" fill="white"/>
</clipPath>
</defs>
</svg>
