<svg width="32" height="66" viewBox="0 0 64 66" fill="none" xmlns="http://www.w3.org/2000/svg">
<path fill-rule="evenodd" clip-rule="evenodd" d="M18.31 2.946C12.519 5.575 5.893 11.94 2.968 17.683C1.016 21.514 0.442 24.377 0.163 31.666C-0.152 39.92 0.0839999 41.437 2.542 46.914C5.611 53.752 11.819 60.107 18.31 63.054C24.228 65.741 39.772 65.741 45.69 63.054C51.481 60.425 58.107 54.06 61.032 48.317C62.984 44.486 63.558 41.623 63.837 34.334C64.152 26.08 63.916 24.563 61.458 19.086C58.389 12.248 52.181 5.893 45.69 2.946C39.772 0.259002 24.228 0.259002 18.31 2.946Z" fill="#FFFF80"/>
<path fill-rule="evenodd" clip-rule="evenodd" d="M17.312 3.979C10.232 7.543 5.761 12.171 2.378 19.435C0.480002 23.511 0.0180018 26.177 0.0100018 33.09C0.00100184 40.688 0.355002 42.39 3.068 47.821C8.789 59.268 16.929 64.277 30.703 64.824C38.804 65.146 40.545 64.897 45.248 62.744C52.743 59.313 57.413 54.863 60.953 47.778C63.647 42.388 64 40.674 64 33C64 25.313 63.649 23.617 60.932 18.179C55.15 6.609 47.065 1.693 33 1.199C24.028 0.882998 23.156 1.038 17.312 3.979Z" fill="#B2D01D"/>
<path fill-rule="evenodd" clip-rule="evenodd" d="M17.312 3.979C10.232 7.543 5.761 12.171 2.378 19.435C0.480002 23.511 0.0180018 26.177 0.0100018 33.09C0.00100184 40.688 0.355002 42.39 3.068 47.821C8.789 59.268 16.929 64.277 30.703 64.824C38.804 65.146 40.545 64.897 45.248 62.744C52.743 59.313 57.413 54.863 60.953 47.778C63.647 42.388 64 40.674 64 33C64 25.313 63.649 23.617 60.932 18.179C55.15 6.609 47.065 1.693 33 1.199C24.028 0.882998 23.156 1.038 17.312 3.979ZM52 21.067C52 22.668 51.556 22.994 50.034 22.511C48.953 22.168 46.478 22.326 44.534 22.863C40.877 23.873 39.962 23.107 42.404 21.079C43.177 20.438 44.926 20.194 46.295 20.538C47.682 20.886 49.077 20.684 49.45 20.081C50.552 18.298 52 18.858 52 21.067Z" fill="#FFCE4F"/>
<path fill-rule="evenodd" clip-rule="evenodd" d="M39 16.962C26.021 17.698 21.519 19.367 16.21 25.414C13.522 28.475 11.011 34.313 11.011 37.5C11.011 43.503 17.436 53 21.497 53C24.282 53 25 51.338 25 44.886C25 39.063 26.784 34.383 30.203 31.233C33.382 28.306 42.847 24.993 48.82 24.716L53.5 24.5V20.514C53.5 15.852 54.459 16.086 39 16.962ZM52 21.019C52 22.608 51.52 22.922 49.75 22.493C46.667 21.746 34.781 25.207 30.608 28.066C25.526 31.549 23.57 35.516 23 43.5C22.619 48.833 22.143 50.5 21 50.5C20.175 50.5 19.639 49.859 19.808 49.076C19.977 48.293 19.603 45.515 18.977 42.904C17.981 38.753 18.092 37.579 19.86 33.583C21.067 30.854 22.914 28.54 24.441 27.845C25.849 27.204 27 26.313 27 25.865C27 24.493 33.3 21.704 36.214 21.787C37.727 21.83 39.189 21.503 39.463 21.059C39.737 20.616 41.989 20.389 44.466 20.554C46.944 20.72 49.229 20.438 49.545 19.928C50.555 18.293 52 18.935 52 21.019Z" fill="#E3B014"/>
<path fill-rule="evenodd" clip-rule="evenodd" d="M27.821 18.375C18.204 21.005 11.985 28.613 12.016 37.71C12.036 43.36 15.233 49.712 19.17 51.922C23.399 54.295 25 52.187 25 44.246C25 33.643 28.736 29.523 41.883 25.625C44.844 24.747 48.252 24.276 49.457 24.579C52.166 25.259 54.273 22.956 53.827 19.805C53.511 17.581 53.133 17.493 43 17.298C36.91 17.18 30.534 17.633 27.821 18.375ZM36.5 20C36.16 20.55 36.835 21 38 21C39.165 21 39.84 20.55 39.5 20C38.718 18.735 39.558 18.75 44.37 20.086C47.136 20.854 48.548 20.852 49.32 20.08C50.91 18.49 52 18.763 52 20.75C52 22.122 51.082 22.528 47.75 22.628C42.362 22.789 32.903 26.369 28.848 29.781C24.693 33.278 23 37.673 23 44.968C23 52.015 21.651 52.751 17.589 47.923C14.459 44.204 14.221 39.283 16.89 33.5C18.824 29.31 24.777 22.812 23.404 26.39C22.771 28.04 22.935 28.105 24.983 27.009C26.677 26.102 26.936 25.579 25.983 24.989C25.097 24.442 26.227 23.396 29.597 21.643C34.728 18.975 37.549 18.303 36.5 20Z" fill="#91752D"/>
<path fill-rule="evenodd" clip-rule="evenodd" d="M30.147 18.102C13.796 21.216 6.553 37.858 16.673 49.06C18.631 51.227 20.84 53 21.581 53C23.562 53 24.827 49.937 24.293 46.43C23.567 41.659 25.846 34.954 29.405 31.395C33.056 27.744 45.461 23.397 49.405 24.387C52.359 25.128 54.435 22.869 53.655 19.763C53.118 17.626 52.568 17.494 43.793 17.386C38.682 17.324 32.541 17.646 30.147 18.102ZM52 20.382C52 22.456 51.515 22.773 48.25 22.832C43.57 22.917 33.921 26.208 29.845 29.111C25.652 32.096 23.049 38.232 23.022 45.191C23.01 48.321 22.538 51.168 21.972 51.517C21.407 51.866 19.607 50.72 17.972 48.97C15.548 46.376 15.004 44.932 15.022 41.144C15.065 32.143 19.394 26.297 29.944 20.995C33.684 19.115 35.534 18.835 41.634 19.227C45.619 19.483 49.47 19.318 50.19 18.861C52.001 17.713 52 17.711 52 20.382ZM36.813 20.683C37.534 20.972 38.397 20.936 38.729 20.604C39.061 20.272 38.471 20.036 37.417 20.079C36.252 20.127 36.015 20.364 36.813 20.683ZM24 26C22.718 26.828 22.754 26.972 24.25 26.985C25.212 26.993 26 26.55 26 26C26 24.78 25.887 24.78 24 26Z" fill="#A4560A"/>
<path fill-rule="evenodd" clip-rule="evenodd" d="M30.147 18.102C13.796 21.216 6.553 37.858 16.673 49.06C18.631 51.227 20.84 53 21.581 53C23.562 53 24.827 49.937 24.293 46.43C23.567 41.659 25.846 34.954 29.405 31.395C33.056 27.744 45.461 23.397 49.405 24.387C52.359 25.128 54.435 22.869 53.655 19.763C53.118 17.626 52.568 17.494 43.793 17.386C38.682 17.324 32.541 17.646 30.147 18.102ZM52 20.382C52 22.456 51.515 22.773 48.25 22.832C43.57 22.917 33.921 26.208 29.845 29.111C25.652 32.096 23.049 38.232 23.022 45.191C22.997 51.542 22.269 52.577 19.293 50.493C16.278 48.381 14 42.81 14 37.549C14 30.305 17.331 25.415 25 21.403C27.681 20 31.029 19.53 39.308 19.394C45.253 19.297 50.39 18.943 50.725 18.608C51.758 17.576 52 17.912 52 20.382ZM36.813 20.683C37.534 20.972 38.397 20.936 38.729 20.604C39.061 20.272 38.471 20.036 37.417 20.079C36.252 20.127 36.015 20.364 36.813 20.683ZM24 26C22.718 26.828 22.754 26.972 24.25 26.985C25.212 26.993 26 26.55 26 26C26 24.78 25.887 24.78 24 26Z" fill="#685008"/>
<path fill-rule="evenodd" clip-rule="evenodd" d="M45.5 18.037L40.5 18.76L46.75 18.644C50.188 18.581 53 18.185 53 17.765C53 17.344 52.438 17.071 51.75 17.157C51.063 17.244 48.25 17.639 45.5 18.037ZM26.06 19.301C21.123 20.876 14.449 27.685 12.974 32.654C10.94 39.507 13.873 47.921 19.606 51.674C21.447 52.879 21.887 52.829 23.106 51.276C24.37 49.666 24.339 49.627 22.775 50.852C18.814 53.956 11.997 42 13.547 34.666C15.223 26.735 21.234 21.457 30.987 19.356C35.455 18.393 35.836 18.171 33 18.186C31.075 18.196 27.952 18.698 26.06 19.301ZM47.185 23.094C44.261 23.481 41.626 24.04 41.329 24.337C40.743 24.924 52.232 23.956 52.917 23.362C53.893 22.514 52.171 22.433 47.185 23.094ZM33.9 26.991C29.559 29.285 23.976 35.412 24.063 37.785C24.106 38.943 24.451 38.688 25.123 37.001C26.688 33.077 30.076 29.935 35.5 27.377C38.25 26.081 39.825 25.035 39 25.054C38.175 25.073 35.88 25.945 33.9 26.991ZM23.252 44.5C23.263 46.7 23.468 47.482 23.707 46.238C23.946 44.994 23.937 43.194 23.687 42.238C23.437 41.282 23.241 42.3 23.252 44.5Z" fill="#2D240E"/>
</svg>
