<svg width="52" height="62" viewBox="0 0 52 62" fill="none" xmlns="http://www.w3.org/2000/svg">
<path fill-rule="evenodd" clip-rule="evenodd" d="M13.406 2.517C12.922 4.448 13.342 5.481 15.209 6.949C18.168 9.277 20.225 15.626 19.383 19.834C18.775 22.877 18.716 22.905 15.932 21.465C12.272 19.572 12.084 19.599 11.141 22.147C10.633 23.521 9.327 24.402 7.514 24.595C0.372 25.357 2.241 34 9.547 34C12.947 34 10.621 35.934 6.472 36.556C3.386 37.019 1.594 37.889 0.846 39.289C-0.709 42.193 2.102 44 8.175 44H12.968L11.299 47.5C9.817 50.607 8.76 51.549 7.654 50.75C6.548 49.952 4 53.685 4 56.103C4 58.412 4.529 59.075 6.75 59.55C8.262 59.874 10.534 60.557 11.797 61.069C15.14 62.424 17.643 62.214 19.429 60.429C22.939 56.919 19.552 51.055 14.872 52.541C12.873 53.175 12.873 53.169 14.839 49.316C16.619 45.826 17.159 45.473 20.471 45.629C24.778 45.831 24.644 45.735 25.527 49.252C25.969 51.011 25.818 52 25.108 52C24.499 52 24 53.298 24 54.885C24 59.012 27.926 61.381 33.689 60.732C36.114 60.458 38.341 59.992 38.637 59.696C39.562 58.771 40.829 51.987 39.979 52.513C39.534 52.788 38.982 52.447 38.752 51.756C38.513 51.04 36.688 50.5 34.507 50.5C31.039 50.5 30.573 50.178 29.522 47.06C28.884 45.169 27.841 43.447 27.205 43.235C26.448 42.983 27.118 40.713 29.142 36.675C30.844 33.279 32.351 30.371 32.489 30.213C32.628 30.054 33.957 30.479 35.442 31.156C38.511 32.554 39.957 31.31 39.985 27.25C40.002 24.693 40.332 24.572 43.159 26.085C48.4 28.89 52.403 23.674 50.981 15.894C50.551 13.542 49.486 11.097 48.615 10.46C47.744 9.823 47.348 8.985 47.735 8.598C48.122 8.211 47.715 8.172 46.83 8.512C45.777 8.916 45.41 9.852 45.768 11.221C46.129 12.601 45.937 13.079 45.204 12.626C43.396 11.509 39.119 13.05 38.485 15.046C37.935 16.78 37.779 16.791 35.949 15.225C34.877 14.307 34 12.986 34 12.29C34 11.594 30.868 9.448 27.039 7.52C23.21 5.592 19.595 3.111 19.004 2.007C17.465 -0.867 14.181 -0.568 13.406 2.517ZM16 27.607C16 28.373 15.605 29 15.122 29C13.875 29 11.901 26.432 12.606 25.727C13.573 24.761 16 26.105 16 27.607Z" fill="#FCD23F"/>
<path fill-rule="evenodd" clip-rule="evenodd" d="M13.406 2.517C12.922 4.448 13.342 5.481 15.209 6.949C18.168 9.277 20.225 15.626 19.383 19.834C18.775 22.877 18.716 22.905 15.932 21.465C12.272 19.572 12.084 19.599 11.141 22.147C10.633 23.521 9.327 24.402 7.514 24.595C0.372 25.357 2.241 34 9.547 34C12.947 34 10.621 35.934 6.472 36.556C3.386 37.019 1.594 37.889 0.846 39.289C-0.709 42.193 2.102 44 8.175 44H12.968L11.299 47.5C9.817 50.607 8.76 51.549 7.654 50.75C6.548 49.952 4 53.685 4 56.103C4 58.412 4.529 59.075 6.75 59.55C8.262 59.874 10.534 60.557 11.797 61.069C15.14 62.424 17.643 62.214 19.429 60.429C22.939 56.919 19.552 51.055 14.872 52.541C12.873 53.175 12.873 53.169 14.839 49.316C16.619 45.826 17.159 45.473 20.471 45.629C24.778 45.831 24.644 45.735 25.527 49.252C25.969 51.011 25.818 52 25.108 52C24.499 52 24 53.298 24 54.885C24 59.012 27.926 61.381 33.689 60.732C36.114 60.458 38.341 59.992 38.637 59.696C39.562 58.771 40.829 51.987 39.979 52.513C39.534 52.788 38.982 52.447 38.752 51.756C38.513 51.04 36.688 50.5 34.507 50.5C31.039 50.5 30.573 50.178 29.522 47.06C28.884 45.169 27.841 43.447 27.205 43.235C26.448 42.983 27.118 40.713 29.142 36.675C30.844 33.279 32.351 30.371 32.489 30.213C32.628 30.054 33.957 30.479 35.442 31.156C38.511 32.554 39.957 31.31 39.985 27.25C40.002 24.693 40.332 24.572 43.159 26.085C48.4 28.89 52.403 23.674 50.981 15.894C50.551 13.542 49.486 11.097 48.615 10.46C47.744 9.823 47.348 8.985 47.735 8.598C48.122 8.211 47.715 8.172 46.83 8.512C45.777 8.916 45.41 9.852 45.768 11.221C46.129 12.601 45.937 13.079 45.204 12.626C43.396 11.509 39.119 13.05 38.485 15.046C37.935 16.78 37.779 16.791 35.949 15.225C34.877 14.307 34 12.986 34 12.29C34 11.594 30.868 9.448 27.039 7.52C23.21 5.592 19.595 3.111 19.004 2.007C17.465 -0.867 14.181 -0.568 13.406 2.517ZM30.675 13.464C30.483 14.034 29.126 14.355 27.659 14.178C25.936 13.97 24.779 14.412 24.389 15.428C24.057 16.293 23.358 17 22.834 17C22.31 17 22.13 16.598 22.434 16.106C22.738 15.615 22.341 13.383 21.551 11.146L20.117 7.079L25.57 9.754C28.57 11.225 30.867 12.894 30.675 13.464ZM49 15C49 16.669 45.115 20.004 43.25 19.937C41.89 19.887 41.993 19.675 43.713 18.983C44.93 18.493 46.501 17.171 47.203 16.046C48.634 13.755 49 13.542 49 15ZM22.834 23.816C21.498 24.394 24.27 28.95 26.402 29.679C27.556 30.073 28.845 30.304 29.267 30.192C29.689 30.08 28.7 32.633 27.069 35.864C25.102 39.759 23.327 41.948 21.801 42.356C18.227 43.314 17.819 43.146 18.5 41C19.249 38.64 16.286 38.091 15.391 40.424C15.053 41.304 13.825 41.712 12.172 41.492C10.703 41.297 8.6 41.097 7.5 41.047C6.173 40.987 6.925 40.309 9.736 39.033C12.957 37.571 14.503 36.018 16.186 32.555C17.62 29.602 19.045 28 20.237 28C21.534 28 22.019 27.338 21.882 25.75C21.776 24.512 21.812 22.15 21.963 20.5L22.237 17.5L22.901 20.5C23.266 22.15 23.236 23.642 22.834 23.816ZM32 26.059C32 26.577 31.325 27 30.5 27C28.954 27 28.513 25.82 29.639 24.694C30.438 23.895 32 24.798 32 26.059ZM16 27.607C16 28.373 15.605 29 15.122 29C13.875 29 11.901 26.432 12.606 25.727C13.573 24.761 16 26.105 16 27.607Z" fill="#9C7D0F"/>
<path fill-rule="evenodd" clip-rule="evenodd" d="M13.406 2.517C12.922 4.448 13.342 5.481 15.209 6.949C18.168 9.277 20.225 15.626 19.383 19.834C18.775 22.877 18.716 22.905 15.932 21.465C12.272 19.572 12.084 19.599 11.141 22.147C10.633 23.521 9.327 24.402 7.514 24.595C0.372 25.357 2.241 34 9.547 34C12.947 34 10.621 35.934 6.472 36.556C3.386 37.019 1.594 37.889 0.846 39.289C-0.709 42.193 2.102 44 8.175 44H12.968L11.299 47.5C9.817 50.607 8.76 51.549 7.654 50.75C6.548 49.952 4 53.685 4 56.103C4 58.412 4.529 59.075 6.75 59.55C8.262 59.874 10.534 60.557 11.797 61.069C15.14 62.424 17.643 62.214 19.429 60.429C22.939 56.919 19.552 51.055 14.872 52.541C12.873 53.175 12.873 53.169 14.839 49.316C16.619 45.826 17.159 45.473 20.471 45.629C24.778 45.831 24.644 45.735 25.527 49.252C25.969 51.011 25.818 52 25.108 52C24.499 52 24 53.298 24 54.885C24 59.012 27.926 61.381 33.689 60.732C36.114 60.458 38.341 59.992 38.637 59.696C39.562 58.771 40.829 51.987 39.979 52.513C39.534 52.788 38.982 52.447 38.752 51.756C38.513 51.04 36.688 50.5 34.507 50.5C31.039 50.5 30.573 50.178 29.522 47.06C28.884 45.169 27.841 43.447 27.205 43.235C26.448 42.983 27.118 40.713 29.142 36.675C30.844 33.279 32.351 30.371 32.489 30.213C32.628 30.054 33.957 30.479 35.442 31.156C38.511 32.554 39.957 31.31 39.985 27.25C40.002 24.693 40.332 24.572 43.159 26.085C48.4 28.89 52.403 23.674 50.981 15.894C50.551 13.542 49.486 11.097 48.615 10.46C47.744 9.823 47.348 8.985 47.735 8.598C48.122 8.211 47.715 8.172 46.83 8.512C45.777 8.916 45.41 9.852 45.768 11.221C46.129 12.601 45.937 13.079 45.204 12.626C43.396 11.509 39.119 13.05 38.485 15.046C37.935 16.78 37.779 16.791 35.949 15.225C34.877 14.307 34 12.986 34 12.29C34 11.594 30.868 9.448 27.039 7.52C23.21 5.592 19.595 3.111 19.004 2.007C17.465 -0.867 14.181 -0.568 13.406 2.517ZM31.821 13.892C32.149 14.927 31.559 15.149 29.514 14.758C25.858 14.059 22.786 17.033 23.439 20.639C23.969 23.558 23.8 23.329 26.458 24.759C27.952 25.563 28.676 25.458 29.511 24.316C30.434 23.053 30.783 23.034 31.745 24.193C32.384 24.963 32.531 26.141 32.078 26.873C31.437 27.911 30.43 27.75 27.175 26.09C21.946 23.421 21.601 23.462 23.6 26.512C24.505 27.893 26.315 29.292 27.623 29.62C28.93 29.948 30 30.383 30 30.586C30 30.789 28.788 33.427 27.307 36.447C25.352 40.432 23.812 42.219 21.692 42.958C18.136 44.197 17.019 43.643 17.714 40.984C18.116 39.449 17.863 39.115 16.652 39.58C15.778 39.915 15.162 40.71 15.282 41.345C15.402 41.98 14.6 42.386 13.5 42.247C12.4 42.107 10.246 41.926 8.714 41.844C5.357 41.663 4.172 40.222 6.687 39.376C12.642 37.374 13.988 36.297 16.061 31.87C17.679 28.415 18.747 27.259 20.082 27.516C21.626 27.813 21.76 27.499 20.974 25.433C20.4 23.921 20.407 23 20.993 23C21.512 23 21.71 22.408 21.433 21.685C21.155 20.961 21.317 19.317 21.793 18.03C22.611 15.818 21.347 10.014 19.685 8.352C19.308 7.975 19 7.267 19 6.778C19 5.448 31.311 12.279 31.821 13.892ZM49.807 15.23C50.159 18.182 46.97 21 43.277 21C40.165 21 40.43 19.831 44.006 17.797C45.861 16.741 47 15.283 47 13.963C47 10.959 49.429 12.055 49.807 15.23ZM16 27.607C16 28.373 15.605 29 15.122 29C13.875 29 11.901 26.432 12.606 25.727C13.573 24.761 16 26.105 16 27.607Z" fill="white"/>
<path fill-rule="evenodd" clip-rule="evenodd" d="M14.75 1.08C12.401 2.448 12.571 4.061 15.339 6.683C18.238 9.43 20.193 15.787 19.383 19.834C18.767 22.915 18.75 22.922 15.789 21.391C14.153 20.545 12.692 19.998 12.543 20.176C12.393 20.354 11.737 21.525 11.085 22.778C10.433 24.031 9.452 24.78 8.906 24.442C7.182 23.376 3 26.888 3 29.402C3 31.984 7.746 34.695 10.45 33.658C11.267 33.344 12.245 33.587 12.622 34.198C13.019 34.839 12.857 35.03 12.24 34.648C11.652 34.285 11.012 34.465 10.817 35.048C10.623 35.632 9.797 36.241 8.982 36.403C8.167 36.565 6.734 37.031 5.798 37.438C4.862 37.844 3.62 37.883 3.039 37.524C1.654 36.668 -0.0909993 41.182 1.126 42.472C1.63 43.006 3.721 43.527 5.772 43.63C7.822 43.733 10.28 43.858 11.234 43.909C12.862 43.994 12.867 44.21 11.318 47.46C10.303 49.588 8.55 51.31 6.765 51.932C4.377 52.765 3.918 53.429 4.181 55.681C4.444 57.94 5.332 58.713 9.271 60.118C16.894 62.836 20.946 61.581 20.985 56.491C21.004 53.96 17.511 51.703 14.872 52.541C12.873 53.175 12.873 53.169 14.839 49.316C16.619 45.826 17.159 45.473 20.471 45.629C24.778 45.831 24.644 45.735 25.527 49.252C25.969 51.011 25.818 52 25.108 52C24.499 52 24 53.338 24 54.974C24 57.223 24.671 58.281 26.75 59.309C30.195 61.013 37.91 60.751 39.089 58.89C41.659 54.831 38.504 49.907 33.573 50.283C31.152 50.468 30.555 49.99 29.546 47.06C28.895 45.169 27.85 43.45 27.224 43.241C26.495 42.998 27.228 40.547 29.268 36.41C31.628 31.626 32.844 30.122 33.975 30.593C38.194 32.347 38.801 32.184 39.475 29.115C39.845 27.429 39.863 25.588 39.515 25.024C38.602 23.547 39.708 23.762 42.528 25.61C47.92 29.143 52.487 24.129 51.047 16.258C50.654 14.106 50.006 11.818 49.607 11.173C48.571 9.497 46 9.722 46 11.488C46 12.307 45.212 12.91 44.25 12.83C40.582 12.522 39.114 13.064 38.517 14.947C37.936 16.778 37.783 16.794 35.949 15.225C34.877 14.307 34 12.986 34 12.29C34 11.594 30.868 9.448 27.039 7.52C23.21 5.592 19.595 3.111 19.004 2.007C17.795 -0.252 17.243 -0.372 14.75 1.08ZM31.821 13.892C32.149 14.927 31.559 15.149 29.514 14.758C25.858 14.059 22.786 17.033 23.439 20.639C23.969 23.558 23.8 23.329 26.458 24.759C27.952 25.563 28.676 25.458 29.511 24.316C30.434 23.053 30.783 23.034 31.745 24.193C32.384 24.963 32.531 26.141 32.078 26.873C31.437 27.911 30.43 27.75 27.175 26.09C21.946 23.421 21.601 23.462 23.6 26.512C24.505 27.893 26.315 29.292 27.623 29.62C28.93 29.948 30 30.383 30 30.586C30 30.789 28.788 33.427 27.307 36.447C25.352 40.432 23.812 42.219 21.692 42.958C18.136 44.197 17.019 43.643 17.714 40.984C18.116 39.449 17.863 39.115 16.652 39.58C15.778 39.915 15.162 40.71 15.282 41.345C15.402 41.98 14.6 42.386 13.5 42.247C12.4 42.107 10.246 41.926 8.714 41.844C5.357 41.663 4.172 40.222 6.687 39.376C12.642 37.374 13.988 36.297 16.061 31.87C17.679 28.415 18.747 27.259 20.082 27.516C21.626 27.813 21.76 27.499 20.974 25.433C20.4 23.921 20.407 23 20.993 23C21.512 23 21.71 22.408 21.433 21.685C21.155 20.961 21.317 19.317 21.793 18.03C22.611 15.818 21.347 10.014 19.685 8.352C19.308 7.975 19 7.267 19 6.778C19 5.448 31.311 12.279 31.821 13.892ZM49.807 15.23C50.159 18.182 46.97 21 43.277 21C40.165 21 40.43 19.831 44.006 17.797C45.861 16.741 47 15.283 47 13.963C47 10.959 49.429 12.055 49.807 15.23ZM43 16.759C43 17.177 42.073 18.098 40.94 18.805C39.038 19.993 38.964 19.935 39.976 18.046C41.038 16.06 43 15.225 43 16.759ZM25.683 21.188C25.364 21.985 25.127 21.748 25.079 20.583C25.036 19.529 25.272 18.939 25.604 19.271C25.936 19.603 25.972 20.466 25.683 21.188ZM16 27.607C16 28.373 15.605 29 15.122 29C13.875 29 11.901 26.432 12.606 25.727C13.573 24.761 16 26.105 16 27.607ZM10 28C11.293 28.835 11.266 28.971 9.809 28.985C8.879 28.993 7.84 28.55 7.5 28C6.718 26.734 8.042 26.734 10 28ZM37.334 54.427C38.171 56.61 35.657 58.063 31.889 57.574C30.025 57.333 28.163 57.105 27.75 57.067C27.337 57.03 27 56.564 27 56.031C27 55.499 27.675 55.322 28.5 55.638C29.325 55.955 30 55.686 30 55.04C30 54.337 30.77 54.11 31.916 54.473C32.97 54.808 34.121 54.613 34.475 54.041C35.382 52.572 36.69 52.749 37.334 54.427ZM17.771 56.812C18.354 58.563 15.222 59.417 12.695 58.196L10.5 57.135L12.75 57.068C13.988 57.03 15 56.513 15 55.917C15 54.524 17.25 55.251 17.771 56.812ZM9 57C9 57.55 8.802 58 8.559 58C8.316 58 7.84 57.55 7.5 57C7.16 56.45 7.359 56 7.941 56C8.523 56 9 56.45 9 57Z" fill="#D7D7D7"/>
<path fill-rule="evenodd" clip-rule="evenodd" d="M14.75 1.08C12.401 2.448 12.571 4.061 15.339 6.683C18.238 9.43 20.193 15.787 19.383 19.834C18.767 22.915 18.75 22.922 15.789 21.391C14.153 20.545 12.692 19.998 12.543 20.176C12.393 20.354 11.737 21.525 11.085 22.778C10.433 24.031 9.452 24.78 8.906 24.442C7.182 23.376 3 26.888 3 29.402C3 31.984 7.746 34.695 10.45 33.658C11.267 33.344 12.245 33.587 12.622 34.198C13.019 34.839 12.857 35.03 12.24 34.648C11.652 34.285 11.012 34.465 10.817 35.048C10.623 35.632 9.797 36.241 8.982 36.403C8.167 36.565 6.734 37.031 5.798 37.438C4.862 37.844 3.62 37.883 3.039 37.524C1.654 36.668 -0.0909993 41.182 1.126 42.472C1.63 43.006 3.721 43.527 5.772 43.63C7.822 43.733 10.28 43.858 11.234 43.909C12.862 43.994 12.867 44.21 11.318 47.46C10.303 49.588 8.55 51.31 6.765 51.932C4.377 52.765 3.918 53.429 4.181 55.681C4.444 57.94 5.332 58.713 9.271 60.118C16.894 62.836 20.946 61.581 20.985 56.491C21.004 53.96 17.511 51.703 14.872 52.541C12.873 53.175 12.873 53.169 14.839 49.316C16.619 45.826 17.159 45.473 20.471 45.629C24.778 45.831 24.644 45.735 25.527 49.252C25.969 51.011 25.818 52 25.108 52C24.499 52 24 53.338 24 54.974C24 59.466 27.661 60.894 37.231 60.137C39.758 59.937 40.548 55.485 38.587 52.492C37.34 50.59 36.216 50.058 33.841 50.249C31.103 50.47 30.587 50.086 29.546 47.06C28.895 45.169 27.85 43.45 27.224 43.241C26.495 42.998 27.228 40.547 29.268 36.41C31.628 31.626 32.844 30.122 33.975 30.593C38.194 32.347 38.801 32.184 39.475 29.115C39.845 27.429 39.863 25.588 39.515 25.024C38.602 23.547 39.708 23.762 42.528 25.61C47.92 29.143 52.487 24.129 51.047 16.258C50.654 14.106 50.006 11.818 49.607 11.173C48.571 9.497 46 9.722 46 11.488C46 12.307 45.212 12.91 44.25 12.83C40.582 12.522 39.114 13.064 38.517 14.947C37.936 16.778 37.783 16.794 35.949 15.225C34.877 14.307 34 12.986 34 12.29C34 11.594 30.868 9.448 27.039 7.52C23.21 5.592 19.595 3.111 19.004 2.007C17.795 -0.252 17.243 -0.372 14.75 1.08ZM31.821 13.892C32.149 14.927 31.559 15.149 29.514 14.758C25.858 14.059 22.786 17.033 23.439 20.639C23.969 23.558 23.8 23.329 26.458 24.759C27.952 25.563 28.676 25.458 29.511 24.316C30.434 23.053 30.783 23.034 31.745 24.193C32.384 24.963 32.531 26.141 32.078 26.873C31.437 27.911 30.43 27.75 27.175 26.09C21.946 23.421 21.601 23.462 23.6 26.512C24.505 27.893 26.315 29.292 27.623 29.62C28.93 29.948 30 30.383 30 30.586C30 30.789 28.788 33.427 27.307 36.447C25.352 40.432 23.812 42.219 21.692 42.958C18.136 44.197 17.019 43.643 17.714 40.984C18.116 39.449 17.863 39.115 16.652 39.58C15.778 39.915 15.162 40.71 15.282 41.345C15.402 41.98 14.6 42.386 13.5 42.247C12.4 42.107 10.246 41.926 8.714 41.844C5.357 41.663 4.172 40.222 6.687 39.376C12.642 37.374 13.988 36.297 16.061 31.87C17.679 28.415 18.747 27.259 20.082 27.516C21.626 27.813 21.76 27.499 20.974 25.433C20.4 23.921 20.407 23 20.993 23C21.512 23 21.71 22.408 21.433 21.685C21.155 20.961 21.317 19.317 21.793 18.03C22.611 15.818 21.347 10.014 19.685 8.352C19.308 7.975 19 7.267 19 6.778C19 5.448 31.311 12.279 31.821 13.892ZM49.835 14.391C50.019 15.34 49.835 16.878 49.426 17.808C49.017 18.739 48.736 19.785 48.802 20.132C48.868 20.48 48.377 20.747 47.711 20.725C47.045 20.703 45.401 20.756 44.059 20.842C41.683 20.996 41.669 21.041 43.559 22.548C45.273 23.916 45.121 23.913 42.25 22.523C37.802 20.368 38.038 17.038 42.744 15.569C44.622 14.983 44.876 15.165 44.306 16.685C43.708 18.281 43.829 18.334 45.313 17.128C46.241 16.373 47 14.873 47 13.794C47 11.425 49.356 11.921 49.835 14.391ZM26.58 19.631C26.651 22.831 26.509 23.049 25.369 21.49C24.458 20.244 24.371 19.175 25.074 17.862C26.413 15.36 26.488 15.447 26.58 19.631ZM36.295 24.25C36.005 25.762 35.369 27 34.883 27C33.735 27 33.767 26.605 35.162 23.543C36.597 20.395 36.989 20.64 36.295 24.25ZM16 27.607C16 28.373 15.605 29 15.122 29C13.875 29 11.901 26.432 12.606 25.727C13.573 24.761 16 26.105 16 27.607ZM11 28.607C11 29.592 10.445 30.001 9.565 29.663C8.775 29.36 7.911 29.65 7.644 30.306C7.376 30.963 7.122 30.686 7.079 29.691C7.031 28.588 6.549 28.161 5.845 28.595C5.13 29.038 4.962 28.87 5.405 28.155C6.515 26.358 11 26.72 11 28.607ZM37.3 54.341C38.235 56.775 36.279 58.335 32.473 58.191C28.736 58.051 26 56.599 26 54.755C26 54.169 26.584 54.24 27.411 54.926C28.416 55.76 29.016 55.784 29.495 55.008C29.865 54.409 31.03 54.192 32.084 54.527C33.155 54.867 34 54.664 34 54.067C34 52.529 36.691 52.751 37.3 54.341ZM12.012 56.613C13.656 56.804 15 56.52 15 55.98C15 54.403 17.73 54.854 18.376 56.538C19.223 58.744 15.374 59.898 11.596 58.571C7.53 57.143 6 56.117 6 54.819C6 54.152 6.564 54.223 7.512 55.01C8.344 55.7 10.369 56.422 12.012 56.613Z" fill="#AAAAAA"/>
<path fill-rule="evenodd" clip-rule="evenodd" d="M14.75 1.08C12.401 2.448 12.571 4.061 15.339 6.683C18.238 9.43 20.193 15.787 19.383 19.834C18.767 22.915 18.75 22.922 15.789 21.391C14.153 20.545 12.692 19.998 12.543 20.176C12.393 20.354 11.737 21.525 11.085 22.778C10.433 24.031 9.452 24.78 8.906 24.442C7.182 23.376 3 26.888 3 29.402C3 31.984 7.746 34.695 10.45 33.658C11.267 33.344 12.248 33.63 12.628 34.294C13.009 34.957 12.97 35.184 12.541 34.798C12.113 34.411 11.104 34.753 10.3 35.557C9.496 36.361 8.456 36.782 7.988 36.493C7.521 36.204 6.856 36.425 6.51 36.984C6.165 37.543 4.836 38 3.558 38C2.075 38 1.044 38.724 0.711 39.999C-0.0619997 42.952 1.033 43.358 11.234 43.907C12.862 43.994 12.867 44.21 11.318 47.46C10.303 49.588 8.55 51.31 6.765 51.932C4.377 52.765 3.918 53.429 4.181 55.681C4.444 57.94 5.332 58.713 9.271 60.118C16.894 62.836 20.946 61.581 20.985 56.491C21.004 53.96 17.511 51.703 14.872 52.541C12.873 53.175 12.873 53.169 14.839 49.316C16.619 45.826 17.159 45.473 20.471 45.629C24.778 45.831 24.644 45.735 25.527 49.252C25.969 51.011 25.818 52 25.108 52C22.972 52 23.871 57.861 26.198 59.106C28.916 60.56 35.845 61.06 36.589 59.856C36.891 59.367 37.544 59.218 38.04 59.525C39.821 60.626 40.256 55.04 38.587 52.492C37.34 50.59 36.216 50.058 33.841 50.249C31.103 50.47 30.587 50.086 29.546 47.06C28.895 45.169 27.85 43.45 27.224 43.241C26.495 42.998 27.228 40.547 29.268 36.41C31.628 31.626 32.844 30.122 33.975 30.593C38.194 32.347 38.801 32.184 39.475 29.115C39.845 27.429 39.863 25.588 39.515 25.024C38.602 23.547 39.708 23.762 42.528 25.61C47.92 29.143 52.487 24.129 51.047 16.258C50.654 14.106 50.006 11.818 49.607 11.173C48.571 9.497 46 9.722 46 11.488C46 12.307 45.212 12.91 44.25 12.83C40.582 12.522 39.114 13.064 38.517 14.947C37.936 16.778 37.783 16.794 35.949 15.225C34.877 14.307 34 12.971 34 12.256C34 11.542 31.036 9.541 27.413 7.811C23.79 6.08 20.139 3.615 19.298 2.332C17.59 -0.274 17.24 -0.37 14.75 1.08ZM31.84 14.356C32.031 15.377 31.669 16.727 31.035 17.356C30.167 18.217 30.034 18.1 30.497 16.881C30.91 15.797 30.463 15.093 29.143 14.748C26.828 14.142 25.711 16.989 26.702 20.97C27.27 23.253 27.167 23.364 25.642 22.107C24.712 21.342 23.698 20.968 23.389 21.278C23.08 21.587 24.049 22.641 25.542 23.62C28.192 25.356 28.302 25.345 30.057 23.178C31.112 21.876 32.117 21.38 32.487 21.979C32.834 22.54 32.586 23 31.937 23C31.088 23 31.056 23.362 31.82 24.284C32.408 24.991 32.523 26.153 32.078 26.873C31.438 27.91 30.42 27.745 27.136 26.069C24.861 24.909 23 24.418 23 24.98C23 26.53 26.802 30 28.5 30C30.458 30 30.451 30.035 27.307 36.447C25.352 40.432 23.812 42.219 21.692 42.958C18.075 44.218 17.045 43.651 17.679 40.749L18.17 38.5L16.33 40.751C14.799 42.623 13.988 42.859 11.495 42.154C9.848 41.689 7.979 41.487 7.342 41.707C6.705 41.926 5.889 41.629 5.528 41.046C5.168 40.463 5.689 39.712 6.687 39.376C12.663 37.367 13.986 36.301 16.1 31.787C17.333 29.154 18.851 27 19.473 27C21.467 27 22.07 10.67 20.146 8.746C17.358 5.958 19.483 6.145 25.246 9.195C28.888 11.122 31.637 13.274 31.84 14.356ZM49.835 14.391C50.019 15.34 49.835 16.878 49.426 17.808C49.017 18.739 48.749 19.821 48.829 20.214C48.91 20.607 48.194 20.635 47.238 20.277C45.664 19.687 45.642 19.801 47 21.476C48.403 23.208 48.359 23.252 46.316 22.164C43.037 20.417 42.474 20.752 44.595 23.188L46.5 25.376L43.003 23.384C38.99 21.098 38.2 18.943 40.521 16.621C42.732 14.411 45.127 14.493 44.281 16.75C43.707 18.282 43.835 18.329 45.313 17.128C46.241 16.373 47 14.873 47 13.794C47 11.425 49.356 11.921 49.835 14.391ZM24 17C23.361 18.194 23.063 19.396 23.338 19.671C23.613 19.946 24.361 19.194 25 18C25.639 16.806 25.937 15.604 25.662 15.329C25.387 15.054 24.639 15.806 24 17ZM36.295 24.25C36.005 25.762 35.369 27 34.883 27C33.735 27 33.767 26.605 35.162 23.543C36.597 20.395 36.989 20.64 36.295 24.25ZM16.324 27.599C15.647 29.362 14.562 29.382 13.131 27.658C11.721 25.959 12.564 25.073 14.989 25.707C16.091 25.996 16.64 26.774 16.324 27.599ZM10.985 28.25C10.963 30.035 9.035 32.913 9.015 31.191C9.007 30.471 8.55 30.16 8 30.5C7.45 30.84 7 30.615 7 30C7 29.385 6.55 29.16 6 29.5C4.888 30.187 4.62 28.714 5.667 27.667C6.837 26.496 11.001 26.952 10.985 28.25ZM38 55.647C38 57.855 33.648 59.018 29.585 57.896C26.848 57.14 26.004 56.385 26.015 54.703C26.024 53.431 26.341 52.964 26.765 53.599C27.849 55.22 33.814 54.927 34.469 53.221C34.915 52.059 35.316 52.017 36.512 53.01C37.33 53.689 38 54.876 38 55.647ZM12.07 55.921C12.835 54.712 12.976 54.724 13.016 56C13.052 57.131 13.44 57.008 14.594 55.5C16.107 53.522 16.139 53.521 17.566 55.446C20.069 58.825 16.992 59.975 10.006 58.272C7.878 57.753 6.377 56.72 6.167 55.629C5.837 53.916 5.939 53.914 8.496 55.59C10.767 57.077 11.306 57.127 12.07 55.921Z" fill="#808080"/>
<path fill-rule="evenodd" clip-rule="evenodd" d="M14.571 1.571C12.511 3.632 12.522 3.676 15.91 7.064C18.761 9.914 20.206 14.831 19.634 19.73C19.249 23.032 18.342 23.454 15.558 21.63C13.152 20.053 12.989 20.087 11.417 22.486C10.517 23.859 9.361 24.723 8.847 24.405C7.17 23.369 3 26.932 3 29.402C3 31.984 7.746 34.695 10.45 33.658C11.267 33.344 12.182 33.485 12.482 33.972C12.93 34.696 11.252 35.656 8 36.537C7.725 36.612 6.712 36.971 5.75 37.336C4.787 37.701 3.325 38.211 2.5 38.469C0.72 39.025 0.513 41.581 2.165 42.602C2.806 42.998 5.32 43.439 7.752 43.581C10.184 43.724 12.374 44.04 12.618 44.285C13.675 45.341 9.252 51.056 6.681 51.957C4.372 52.765 3.92 53.444 4.181 55.704C4.421 57.781 5.242 58.682 7.5 59.349C9.15 59.837 11.228 60.599 12.119 61.044C14.408 62.188 19.066 61.506 20.098 59.875C22.545 56.013 19.112 51.195 14.872 52.541C12.875 53.175 12.875 53.166 14.828 49.338C16.781 45.509 17.722 45.164 24.152 45.923C24.511 45.965 25.263 47.315 25.823 48.923C26.624 51.219 26.538 51.963 25.421 52.392C23.388 53.172 23.66 57.748 25.808 58.897C28.421 60.296 35.888 60.99 36.564 59.897C36.88 59.386 37.509 59.197 37.962 59.477C38.416 59.757 39.081 58.814 39.441 57.381C40.408 53.527 38.002 50.5 33.971 50.5C31.121 50.5 30.534 50.046 29.525 47.06C28.885 45.169 27.841 43.447 27.205 43.235C26.448 42.983 27.118 40.713 29.142 36.675C32.946 29.086 32.396 29.607 35.085 31.046C36.967 32.052 37.547 31.973 38.576 30.565C39.255 29.637 39.69 27.78 39.543 26.439C39.225 23.542 39.048 23.578 43.389 25.648C46.374 27.072 47.04 27.103 48.265 25.878C50.607 23.536 52.392 19.631 51.289 19.263C50.74 19.08 50.493 17.871 50.74 16.577C50.988 15.283 50.682 13.274 50.06 12.112C48.738 9.642 46 9.285 46 11.583C46 12.454 45.438 12.966 44.75 12.721C43.197 12.166 38 14.704 38 16.016C38 16.546 37.1 16.21 36 15.268C34.9 14.326 34 13.077 34 12.492C34 11.908 31.094 9.996 27.543 8.245C23.992 6.494 20.34 3.922 19.428 2.531C17.497 -0.417 16.714 -0.572 14.571 1.571ZM31.603 16.221C31.66 18.267 32.287 20.641 32.996 21.495C33.705 22.349 33.988 23.345 33.626 23.707C32.389 24.944 30.808 22.215 30.708 18.669C30.638 16.228 30.077 14.992 28.898 14.683C26.874 14.154 25.91 17.525 27.137 20.841C28.034 23.266 26.249 23.849 24.2 21.8C23.54 21.14 23 20.905 23 21.277C23 21.649 24.127 22.692 25.505 23.595C27.402 24.838 28.34 24.962 29.372 24.106C31.097 22.675 33.288 24.915 32.078 26.873C31.438 27.91 30.42 27.745 27.136 26.069C24.861 24.909 23 24.418 23 24.98C23 26.53 26.802 30 28.5 30C30.458 30 30.451 30.035 27.307 36.447C25.352 40.432 23.812 42.219 21.692 42.958C18.075 44.218 17.045 43.651 17.679 40.749L18.17 38.5L16.33 40.751C14.799 42.623 13.988 42.859 11.495 42.154C9.848 41.689 7.979 41.487 7.342 41.707C6.705 41.926 5.889 41.629 5.528 41.046C5.168 40.463 5.689 39.712 6.687 39.376C12.663 37.367 13.986 36.301 16.1 31.787C17.333 29.154 18.851 27 19.473 27C21.467 27 22.07 10.67 20.146 8.746C17.358 5.958 19.483 6.145 25.25 9.195C31.15 12.315 31.506 12.708 31.603 16.221ZM49.535 16.836C49.567 20.544 49.348 20.938 47.535 20.447C45.533 19.905 45.531 19.921 47.441 21.448C49.141 22.807 49.172 23 47.691 23C46.761 23 46 23.443 46 23.984C46 25.276 39.227 22.033 38.619 20.451C37.897 18.567 40.871 15 43.164 15C44.654 15 45.042 15.448 44.584 16.641C44.057 18.014 44.204 18.076 45.477 17.019C46.315 16.324 47 14.873 47 13.794C47 12.668 47.532 12.012 48.25 12.254C48.974 12.497 49.515 14.425 49.535 16.836ZM23.954 17.086C23.34 18.233 23.026 19.36 23.257 19.59C23.487 19.82 24.189 18.882 24.816 17.504C26.194 14.48 25.523 14.154 23.954 17.086ZM37.101 22.811C36.604 23.74 36.187 24.939 36.174 25.475C36.142 26.795 34 27.44 34 26.13C34 24.121 36.303 20.069 37.149 20.592C37.62 20.883 37.599 21.882 37.101 22.811ZM44 22C44 22.55 44.477 23 45.059 23C45.641 23 45.84 22.55 45.5 22C45.16 21.45 44.684 21 44.441 21C44.198 21 44 21.45 44 22ZM15.308 25.565C16.198 25.906 16.575 26.91 16.262 28.105C15.777 29.961 15.634 29.979 13.896 28.406C11.407 26.154 12.277 24.402 15.308 25.565ZM11.157 27.408C12.029 28.614 9.951 33.088 8.837 32.4C8.359 32.104 8.269 31.373 8.638 30.776C9.037 30.131 8.844 29.978 8.162 30.4C7.532 30.789 6.297 30.706 5.419 30.215C3.974 29.406 3.97 29.173 5.377 27.766C7.039 26.104 10.077 25.916 11.157 27.408ZM37.386 53.529C39.168 55.311 38.552 57.69 36.108 58.466C33.14 59.408 27.684 58.288 26.349 56.463C24.875 54.447 25.651 52.251 27.266 53.866C27.967 54.567 28.915 54.581 30.174 53.907C31.201 53.357 32.482 53.18 33.021 53.513C33.559 53.846 34 53.641 34 53.059C34 51.533 35.614 51.757 37.386 53.529ZM12.029 55.753C13.388 55.666 14.761 55.222 15.08 54.764C16.06 53.358 19 55.101 19 57.088C19 61.519 6.83 59.402 6.148 54.852C5.812 52.615 5.884 52.585 7.677 54.207C8.711 55.143 10.669 55.839 12.029 55.753Z" fill="#2E2E2E"/>
<path fill-rule="evenodd" clip-rule="evenodd" d="M14.03 3.028C13.989 5.088 17.727 8.3 18.288 6.687C18.854 5.059 32 11.513 32 13.419C32 14.21 32.708 15.566 33.574 16.431C34.995 17.853 34.997 18.064 33.593 18.603C32.36 19.076 32.263 19.623 33.126 21.235C34.001 22.871 34.387 22.998 35.092 21.885C36.543 19.594 36.124 17.088 33.75 13.856C31.374 10.622 21.426 5 18.078 5C16.99 5 15.641 4.213 15.08 3.25C14.258 1.838 14.055 1.795 14.03 3.028ZM19.43 10.5C19.821 12.15 20.572 13.94 21.098 14.477C21.624 15.015 21.525 13.89 20.879 11.977C19.365 7.499 18.512 6.63 19.43 10.5ZM41.315 14.007C39.253 14.838 36.952 17.893 37.04 19.684C37.062 20.133 37.751 19.262 38.572 17.75C39.393 16.238 40.698 15 41.473 15C42.248 15 43.16 14.55 43.5 14C44.215 12.843 44.203 12.843 41.315 14.007ZM45.543 13.931C45.226 14.443 45.35 15.098 45.817 15.387C46.284 15.676 46.667 15.257 46.667 14.456C46.667 12.77 46.351 12.623 45.543 13.931ZM28.46 16.875C28.831 18.044 28.717 19 28.206 19C27.695 19 27.506 20.197 27.786 21.659C28.237 24.02 28.43 24.132 29.508 22.658C30.824 20.859 30.37 16.346 28.773 15.36C28.17 14.987 28.048 15.576 28.46 16.875ZM49.667 21.191C48.74 24.883 45.688 25.603 41.483 23.122L38.034 21.088L37.199 24.294C36.639 26.443 35.726 27.534 34.432 27.602C30.401 27.815 29.846 28.035 30.276 29.25C30.519 29.938 29.403 33.132 27.795 36.349C26.187 39.565 25.251 41.963 25.715 41.676C26.179 41.39 27.872 38.406 29.478 35.047C31.666 30.468 32.786 29.099 33.949 29.58C37.398 31.007 38.499 30.519 38.639 27.5C38.715 25.85 38.827 24.151 38.889 23.724C38.95 23.298 40.372 23.658 42.05 24.526C43.727 25.393 45.978 25.824 47.051 25.484C49.244 24.788 51.335 21.506 50.734 19.702C50.516 19.049 50.036 19.719 49.667 21.191ZM7.5 25C7.84 25.55 8.316 26 8.559 26C8.802 26 9 25.55 9 25C9 24.45 8.523 24 7.941 24C7.359 24 7.16 24.45 7.5 25ZM8 38C7.099 38.582 6.975 38.975 7.691 38.985C8.346 38.993 9.16 38.55 9.5 38C10.267 36.758 9.921 36.758 8 38ZM1.57 39.887C0.888999 40.988 3.438 43.229 4.342 42.325C4.704 41.963 5 41.067 5 40.333C5 38.844 2.422 38.508 1.57 39.887ZM14.75 42.083C13.788 43.138 13.234 44 13.52 44C13.807 44 13.122 45.8 12 48C10.878 50.2 9.518 52 8.98 52C7.552 52 7.779 54.708 9.25 55.225C9.938 55.467 11.625 55.335 13 54.932C14.611 54.46 14.878 54.164 13.75 54.1C11.556 53.975 11.556 53.967 14.155 48.618C15.676 45.487 16.78 44.33 17.905 44.685C19.201 45.094 19.238 45.002 18.104 44.195C17.337 43.649 16.985 42.481 17.323 41.601C18.138 39.478 16.92 39.706 14.75 42.083ZM21 44.11C19.71 45.038 19.731 45.115 21.153 44.663C23.672 43.862 25.736 46.043 26.986 50.824C27.923 54.405 28.362 54.944 29.546 53.962C30.332 53.31 31.655 53.037 32.487 53.357C33.319 53.676 34 53.533 34 53.038C34 52.544 33.014 51.995 31.809 51.82C30.256 51.593 29.355 50.481 28.716 48.002C27.461 43.135 24.46 41.621 21 44.11ZM16.755 52.69C16.514 53.136 17.146 54.288 18.159 55.25C20.304 57.289 20.557 56.318 18.564 53.69C17.809 52.695 16.995 52.245 16.755 52.69ZM4.615 56.278C4.956 57.256 6.195 58.548 7.368 59.15C9.193 60.087 9.29 60.047 8.046 58.872C7.246 58.118 6.007 56.825 5.293 56C4.163 54.694 4.075 54.73 4.615 56.278ZM17.559 59.532C16.491 60.339 16.099 61 16.686 61C17.274 61 18.315 60.325 19 59.5C20.557 57.624 20.067 57.634 17.559 59.532Z" fill="black"/>
</svg>
