<svg width="62" height="62" viewBox="0 0 62 62" fill="none" xmlns="http://www.w3.org/2000/svg">
<g clip-path="url(#clip0_1_2)">
<path fill-rule="evenodd" clip-rule="evenodd" d="M15.9841 2.517C15.407 4.448 15.9078 5.481 18.1338 6.949C21.6618 9.277 24.1144 15.626 23.1105 19.834C22.3856 22.877 22.3152 22.905 18.9958 21.465C14.632 19.572 14.4078 19.599 13.2835 22.147C12.6778 23.521 11.1207 24.402 8.959 24.595C0.443538 25.357 2.67196 34 11.383 34C15.4368 34 12.6635 35.934 7.71662 36.556C4.03715 37.019 1.90054 37.889 1.00869 39.289C-0.845346 42.193 2.50623 44 9.74712 44H15.4618L13.4719 47.5C11.7049 50.607 10.4446 51.549 9.12592 50.75C7.80723 49.952 4.76923 53.685 4.76923 56.103C4.76923 58.412 5.39996 59.075 8.04808 59.55C9.85085 59.874 12.5598 60.557 14.0657 61.069C18.0515 62.424 21.0359 62.214 23.1653 60.429C27.3503 56.919 23.312 51.055 17.732 52.541C15.3486 53.175 15.3486 53.169 17.6927 49.316C19.815 45.826 20.4588 45.473 24.4077 45.629C29.543 45.831 29.3832 45.735 30.436 49.252C30.963 51.011 30.783 52 29.9365 52C29.2103 52 28.6154 53.298 28.6154 54.885C28.6154 59.012 33.2964 61.381 40.1677 60.732C43.059 60.458 45.7143 59.992 46.0672 59.696C47.1701 58.771 48.6807 51.987 47.6673 52.513C47.1367 52.788 46.4785 52.447 46.2043 51.756C45.9193 51.04 43.7434 50.5 41.143 50.5C37.008 50.5 36.4524 50.178 35.1993 47.06C34.4386 45.169 33.195 43.447 32.4367 43.235C31.5342 42.983 32.333 40.713 34.7462 36.675C36.7755 33.279 38.5723 30.371 38.7369 30.213C38.9026 30.054 40.4872 30.479 42.2578 31.156C45.917 32.554 47.641 31.31 47.6744 27.25C47.6947 24.693 48.0882 24.572 51.4588 26.085C57.7077 28.89 62.4805 23.674 60.785 15.894C60.2723 13.542 59.0025 11.097 57.964 10.46C56.9255 9.823 56.4534 8.985 56.9148 8.598C57.3762 8.211 56.891 8.172 55.8358 8.512C54.5803 8.916 54.1427 9.852 54.5695 11.221C55 12.601 54.771 13.079 53.8971 12.626C51.7414 11.509 46.6419 13.05 45.886 15.046C45.2302 16.78 45.0442 16.791 42.8623 15.225C41.5841 14.307 40.5385 12.986 40.5385 12.29C40.5385 11.594 36.8042 9.448 32.2388 7.52C27.6735 5.592 23.3633 3.111 22.6586 2.007C20.8237 -0.867 16.9081 -0.568 15.9841 2.517ZM19.0769 27.607C19.0769 28.373 18.606 29 18.0301 29C16.5433 29 14.1897 26.432 15.0302 25.727C16.1832 24.761 19.0769 26.105 19.0769 27.607Z" fill="#FCD23F"/>
<path fill-rule="evenodd" clip-rule="evenodd" d="M15.9841 2.517C15.407 4.448 15.9078 5.481 18.1338 6.949C21.6618 9.277 24.1144 15.626 23.1105 19.834C22.3856 22.877 22.3152 22.905 18.9958 21.465C14.632 19.572 14.4078 19.599 13.2835 22.147C12.6778 23.521 11.1207 24.402 8.959 24.595C0.443538 25.357 2.67196 34 11.383 34C15.4368 34 12.6635 35.934 7.71662 36.556C4.03715 37.019 1.90054 37.889 1.00869 39.289C-0.845346 42.193 2.50623 44 9.74712 44H15.4618L13.4719 47.5C11.7049 50.607 10.4446 51.549 9.12592 50.75C7.80723 49.952 4.76923 53.685 4.76923 56.103C4.76923 58.412 5.39996 59.075 8.04808 59.55C9.85085 59.874 12.5598 60.557 14.0657 61.069C18.0515 62.424 21.0359 62.214 23.1653 60.429C27.3503 56.919 23.312 51.055 17.732 52.541C15.3486 53.175 15.3486 53.169 17.6927 49.316C19.815 45.826 20.4588 45.473 24.4077 45.629C29.543 45.831 29.3832 45.735 30.436 49.252C30.963 51.011 30.783 52 29.9365 52C29.2103 52 28.6154 53.298 28.6154 54.885C28.6154 59.012 33.2964 61.381 40.1677 60.732C43.059 60.458 45.7143 59.992 46.0672 59.696C47.1701 58.771 48.6807 51.987 47.6673 52.513C47.1367 52.788 46.4785 52.447 46.2043 51.756C45.9193 51.04 43.7434 50.5 41.143 50.5C37.008 50.5 36.4524 50.178 35.1993 47.06C34.4386 45.169 33.195 43.447 32.4367 43.235C31.5342 42.983 32.333 40.713 34.7462 36.675C36.7755 33.279 38.5723 30.371 38.7369 30.213C38.9026 30.054 40.4872 30.479 42.2578 31.156C45.917 32.554 47.641 31.31 47.6744 27.25C47.6947 24.693 48.0882 24.572 51.4588 26.085C57.7077 28.89 62.4805 23.674 60.785 15.894C60.2723 13.542 59.0025 11.097 57.964 10.46C56.9255 9.823 56.4534 8.985 56.9148 8.598C57.3762 8.211 56.891 8.172 55.8358 8.512C54.5803 8.916 54.1427 9.852 54.5695 11.221C55 12.601 54.771 13.079 53.8971 12.626C51.7414 11.509 46.6419 13.05 45.886 15.046C45.2302 16.78 45.0442 16.791 42.8623 15.225C41.5841 14.307 40.5385 12.986 40.5385 12.29C40.5385 11.594 36.8042 9.448 32.2388 7.52C27.6735 5.592 23.3633 3.111 22.6586 2.007C20.8237 -0.867 16.9081 -0.568 15.9841 2.517ZM36.574 13.464C36.3451 14.034 34.7272 14.355 32.978 14.178C30.9237 13.97 29.5442 14.412 29.0792 15.428C28.6833 16.293 27.8499 17 27.2252 17C26.6004 17 26.3858 16.598 26.7482 16.106C27.1107 15.615 26.6373 13.383 25.6954 11.146L23.9857 7.079L30.4873 9.754C34.0642 11.225 36.803 12.894 36.574 13.464ZM58.4231 15C58.4231 16.669 53.791 20.004 51.5673 19.937C49.9458 19.887 50.0686 19.675 52.1193 18.983C53.5704 18.493 55.4435 17.171 56.2805 16.046C57.9867 13.755 58.4231 13.542 58.4231 15ZM27.2252 23.816C25.6322 24.394 28.9373 28.95 31.4793 29.679C32.8552 30.073 34.3921 30.304 34.8953 30.192C35.3984 30.08 34.2192 32.633 32.2746 35.864C29.9293 39.759 27.813 41.948 25.9935 42.356C21.7322 43.314 21.2457 43.146 22.0577 41C22.9507 38.64 19.4179 38.091 18.3508 40.424C17.9478 41.304 16.4837 41.712 14.5128 41.492C12.7613 41.297 10.2538 41.097 8.94231 41.047C7.36012 40.987 8.25673 40.309 11.6083 39.033C15.4487 37.571 17.292 36.018 19.2987 32.555C21.0085 29.602 22.7075 28 24.1287 28C25.6752 28 26.2534 27.338 26.0901 25.75C25.9637 24.512 26.0066 22.15 26.1867 20.5L26.5133 17.5L27.305 20.5C27.7402 22.15 27.7045 23.642 27.2252 23.816ZM38.1538 26.059C38.1538 26.577 37.349 27 36.3654 27C34.5221 27 33.9963 25.82 35.3388 24.694C36.2915 23.895 38.1538 24.798 38.1538 26.059ZM19.0769 27.607C19.0769 28.373 18.606 29 18.0301 29C16.5433 29 14.1897 26.432 15.0302 25.727C16.1832 24.761 19.0769 26.105 19.0769 27.607Z" fill="#9C7D0F"/>
<path fill-rule="evenodd" clip-rule="evenodd" d="M15.9841 2.517C15.407 4.448 15.9078 5.481 18.1338 6.949C21.6618 9.277 24.1144 15.626 23.1105 19.834C22.3856 22.877 22.3152 22.905 18.9958 21.465C14.632 19.572 14.4078 19.599 13.2835 22.147C12.6778 23.521 11.1207 24.402 8.959 24.595C0.443538 25.357 2.67196 34 11.383 34C15.4368 34 12.6635 35.934 7.71662 36.556C4.03715 37.019 1.90054 37.889 1.00869 39.289C-0.845346 42.193 2.50623 44 9.74712 44H15.4618L13.4719 47.5C11.7049 50.607 10.4446 51.549 9.12592 50.75C7.80723 49.952 4.76923 53.685 4.76923 56.103C4.76923 58.412 5.39996 59.075 8.04808 59.55C9.85085 59.874 12.5598 60.557 14.0657 61.069C18.0515 62.424 21.0359 62.214 23.1653 60.429C27.3503 56.919 23.312 51.055 17.732 52.541C15.3486 53.175 15.3486 53.169 17.6927 49.316C19.815 45.826 20.4588 45.473 24.4077 45.629C29.543 45.831 29.3832 45.735 30.436 49.252C30.963 51.011 30.783 52 29.9365 52C29.2103 52 28.6154 53.298 28.6154 54.885C28.6154 59.012 33.2964 61.381 40.1677 60.732C43.059 60.458 45.7143 59.992 46.0672 59.696C47.1701 58.771 48.6807 51.987 47.6673 52.513C47.1367 52.788 46.4785 52.447 46.2043 51.756C45.9193 51.04 43.7434 50.5 41.143 50.5C37.008 50.5 36.4524 50.178 35.1993 47.06C34.4386 45.169 33.195 43.447 32.4367 43.235C31.5342 42.983 32.333 40.713 34.7462 36.675C36.7755 33.279 38.5723 30.371 38.7369 30.213C38.9026 30.054 40.4872 30.479 42.2578 31.156C45.917 32.554 47.641 31.31 47.6744 27.25C47.6947 24.693 48.0882 24.572 51.4588 26.085C57.7077 28.89 62.4805 23.674 60.785 15.894C60.2723 13.542 59.0025 11.097 57.964 10.46C56.9255 9.823 56.4534 8.985 56.9148 8.598C57.3762 8.211 56.891 8.172 55.8358 8.512C54.5803 8.916 54.1427 9.852 54.5695 11.221C55 12.601 54.771 13.079 53.8971 12.626C51.7414 11.509 46.6419 13.05 45.886 15.046C45.2302 16.78 45.0442 16.791 42.8623 15.225C41.5841 14.307 40.5385 12.986 40.5385 12.29C40.5385 11.594 36.8042 9.448 32.2388 7.52C27.6735 5.592 23.3633 3.111 22.6586 2.007C20.8237 -0.867 16.9081 -0.568 15.9841 2.517ZM37.9404 13.892C38.3315 14.927 37.628 15.149 35.1898 14.758C30.8307 14.059 27.1679 17.033 27.9465 20.639C28.5784 23.558 28.3769 23.329 31.5461 24.759C33.3274 25.563 34.1906 25.458 35.1862 24.316C36.2867 23.053 36.7028 23.034 37.8498 24.193C38.6117 24.963 38.787 26.141 38.2468 26.873C37.4826 27.911 36.2819 27.75 32.401 26.09C26.1664 23.421 25.755 23.462 28.1385 26.512C29.2175 27.893 31.3756 29.292 32.9351 29.62C34.4935 29.948 35.7692 30.383 35.7692 30.586C35.7692 30.789 34.3242 33.427 32.5583 36.447C30.2274 40.432 28.3912 42.219 25.8635 42.958C21.6237 44.197 20.2919 43.643 21.1205 40.984C21.5998 39.449 21.2982 39.115 19.8543 39.58C18.8122 39.915 18.0778 40.71 18.2208 41.345C18.3639 41.98 17.4077 42.386 16.0962 42.247C14.7846 42.107 12.2164 41.926 10.3898 41.844C6.38719 41.663 4.97431 40.222 7.97296 39.376C15.0732 37.374 16.678 36.297 19.1497 31.87C21.0788 28.415 22.3522 27.259 23.9439 27.516C25.7848 27.813 25.9446 27.499 25.0075 25.433C24.3231 23.921 24.3314 23 25.0301 23C25.6489 23 25.885 22.408 25.5547 21.685C25.2233 20.961 25.4164 19.317 25.984 18.03C26.9593 15.818 25.4522 10.014 23.4706 8.352C23.0211 7.975 22.6538 7.267 22.6538 6.778C22.6538 5.448 37.3323 12.279 37.9404 13.892ZM59.3853 15.23C59.805 18.182 56.0027 21 51.5995 21C47.889 21 48.205 19.831 52.4687 17.797C54.6804 16.741 56.0385 15.283 56.0385 13.963C56.0385 10.959 58.9346 12.055 59.3853 15.23ZM19.0769 27.607C19.0769 28.373 18.606 29 18.0301 29C16.5433 29 14.1897 26.432 15.0302 25.727C16.1832 24.761 19.0769 26.105 19.0769 27.607Z" fill="white"/>
<path fill-rule="evenodd" clip-rule="evenodd" d="M17.5865 1.08C14.7858 2.448 14.9885 4.061 18.2888 6.683C21.7453 9.43 24.0763 15.787 23.1105 19.834C22.376 22.915 22.3558 22.922 18.8253 21.391C16.8747 20.545 15.1328 19.998 14.9551 20.176C14.7763 20.354 13.9941 21.525 13.2167 22.778C12.4393 24.031 11.2697 24.78 10.6187 24.442C8.56315 23.376 3.57692 26.888 3.57692 29.402C3.57692 31.984 9.23561 34.695 12.4596 33.658C13.4337 33.344 14.5998 33.587 15.0493 34.198C15.5227 34.839 15.3295 35.03 14.5938 34.648C13.8928 34.285 13.1297 34.465 12.8972 35.048C12.6659 35.632 11.681 36.241 10.7093 36.403C9.73758 36.565 8.029 37.031 6.913 37.438C5.797 37.844 4.31615 37.883 3.62342 37.524C1.97208 36.668 -0.108499 41.182 1.34254 42.472C1.94346 43.006 4.43658 43.527 6.882 43.63C9.32623 43.733 12.2569 43.858 13.3944 43.909C15.3355 43.994 15.3414 44.21 13.4945 47.46C12.2843 49.588 10.1942 51.31 8.06596 51.932C5.21873 52.765 4.67146 53.429 4.98504 55.681C5.29862 57.94 6.35738 58.713 11.0539 60.118C20.1428 62.836 24.9741 61.581 25.0206 56.491C25.0432 53.96 20.8785 51.703 17.732 52.541C15.3486 53.175 15.3486 53.169 17.6927 49.316C19.815 45.826 20.4588 45.473 24.4077 45.629C29.543 45.831 29.3832 45.735 30.436 49.252C30.963 51.011 30.783 52 29.9365 52C29.2103 52 28.6154 53.338 28.6154 54.974C28.6154 57.223 29.4154 58.281 31.8942 59.309C36.0017 61.013 45.2004 60.751 46.6061 58.89C49.6703 54.831 45.9086 49.907 40.0294 50.283C37.1428 50.468 36.431 49.99 35.2279 47.06C34.4517 45.169 33.2058 43.45 32.4594 43.241C31.5902 42.998 32.4642 40.547 34.8965 36.41C37.7103 31.626 39.1602 30.122 40.5087 30.593C45.539 32.347 46.2627 32.184 47.0663 29.115C47.5075 27.429 47.529 25.588 47.114 25.024C46.0255 23.547 47.3442 23.762 50.7065 25.61C57.1354 29.143 62.5807 24.129 60.8637 16.258C60.3952 14.106 59.6225 11.818 59.1468 11.173C57.9116 9.497 54.8462 9.722 54.8462 11.488C54.8462 12.307 53.9066 12.91 52.7596 12.83C48.3862 12.522 46.6359 13.064 45.9241 14.947C45.2314 16.778 45.049 16.794 42.8623 15.225C41.5841 14.307 40.5385 12.986 40.5385 12.29C40.5385 11.594 36.8042 9.448 32.2388 7.52C27.6735 5.592 23.3633 3.111 22.6586 2.007C21.2171 -0.252002 20.559 -0.372002 17.5865 1.08ZM37.9404 13.892C38.3315 14.927 37.628 15.149 35.1898 14.758C30.8307 14.059 27.1679 17.033 27.9465 20.639C28.5784 23.558 28.3769 23.329 31.5461 24.759C33.3274 25.563 34.1906 25.458 35.1862 24.316C36.2867 23.053 36.7028 23.034 37.8498 24.193C38.6117 24.963 38.787 26.141 38.2468 26.873C37.4826 27.911 36.2819 27.75 32.401 26.09C26.1664 23.421 25.755 23.462 28.1385 26.512C29.2175 27.893 31.3756 29.292 32.9351 29.62C34.4935 29.948 35.7692 30.383 35.7692 30.586C35.7692 30.789 34.3242 33.427 32.5583 36.447C30.2274 40.432 28.3912 42.219 25.8635 42.958C21.6237 44.197 20.2919 43.643 21.1205 40.984C21.5998 39.449 21.2982 39.115 19.8543 39.58C18.8122 39.915 18.0778 40.71 18.2208 41.345C18.3639 41.98 17.4077 42.386 16.0962 42.247C14.7846 42.107 12.2164 41.926 10.3898 41.844C6.38719 41.663 4.97431 40.222 7.97296 39.376C15.0732 37.374 16.678 36.297 19.1497 31.87C21.0788 28.415 22.3522 27.259 23.9439 27.516C25.7848 27.813 25.9446 27.499 25.0075 25.433C24.3231 23.921 24.3314 23 25.0301 23C25.6489 23 25.885 22.408 25.5547 21.685C25.2233 20.961 25.4164 19.317 25.984 18.03C26.9593 15.818 25.4522 10.014 23.4706 8.352C23.0211 7.975 22.6538 7.267 22.6538 6.778C22.6538 5.448 37.3323 12.279 37.9404 13.892ZM59.3853 15.23C59.805 18.182 56.0027 21 51.5995 21C47.889 21 48.205 19.831 52.4687 17.797C54.6804 16.741 56.0385 15.283 56.0385 13.963C56.0385 10.959 58.9346 12.055 59.3853 15.23ZM51.2692 16.759C51.2692 17.177 50.164 18.098 48.8131 18.805C46.5453 19.993 46.4571 19.935 47.6637 18.046C48.9299 16.06 51.2692 15.225 51.2692 16.759ZM30.622 21.188C30.2417 21.985 29.9591 21.748 29.9019 20.583C29.8506 19.529 30.132 18.939 30.5278 19.271C30.9237 19.603 30.9666 20.466 30.622 21.188ZM19.0769 27.607C19.0769 28.373 18.606 29 18.0301 29C16.5433 29 14.1897 26.432 15.0302 25.727C16.1832 24.761 19.0769 26.105 19.0769 27.607ZM11.9231 28C13.4647 28.835 13.4325 28.971 11.6953 28.985C10.5865 28.993 9.34769 28.55 8.94231 28C8.00992 26.734 9.58854 26.734 11.9231 28ZM44.5136 54.427C45.5116 56.61 42.5141 58.063 38.0215 57.574C35.799 57.333 33.579 57.105 33.0865 57.067C32.5941 57.03 32.1923 56.564 32.1923 56.031C32.1923 55.499 32.9971 55.322 33.9808 55.638C34.9644 55.955 35.7692 55.686 35.7692 55.04C35.7692 54.337 36.6873 54.11 38.0537 54.473C39.3104 54.808 40.6827 54.613 41.1048 54.041C42.1862 52.572 43.7458 52.749 44.5136 54.427ZM21.1885 56.812C21.8836 58.563 18.1493 59.417 15.1363 58.196L12.5192 57.135L15.2019 57.068C16.678 57.03 17.8846 56.513 17.8846 55.917C17.8846 54.524 20.5673 55.251 21.1885 56.812ZM10.7308 57C10.7308 57.55 10.4947 58 10.205 58C9.91523 58 9.34769 57.55 8.94231 57C8.53692 56.45 8.77419 56 9.46812 56C10.162 56 10.7308 56.45 10.7308 57Z" fill="#D7D7D7"/>
<path fill-rule="evenodd" clip-rule="evenodd" d="M17.5865 1.08C14.7858 2.448 14.9885 4.061 18.2888 6.683C21.7453 9.43 24.0763 15.787 23.1105 19.834C22.376 22.915 22.3558 22.922 18.8253 21.391C16.8747 20.545 15.1328 19.998 14.9551 20.176C14.7763 20.354 13.9941 21.525 13.2167 22.778C12.4393 24.031 11.2697 24.78 10.6187 24.442C8.56315 23.376 3.57692 26.888 3.57692 29.402C3.57692 31.984 9.23561 34.695 12.4596 33.658C13.4337 33.344 14.5998 33.587 15.0493 34.198C15.5227 34.839 15.3295 35.03 14.5938 34.648C13.8928 34.285 13.1297 34.465 12.8972 35.048C12.6659 35.632 11.681 36.241 10.7093 36.403C9.73758 36.565 8.029 37.031 6.913 37.438C5.797 37.844 4.31615 37.883 3.62342 37.524C1.97208 36.668 -0.108499 41.182 1.34254 42.472C1.94346 43.006 4.43658 43.527 6.882 43.63C9.32623 43.733 12.2569 43.858 13.3944 43.909C15.3355 43.994 15.3414 44.21 13.4945 47.46C12.2843 49.588 10.1942 51.31 8.06596 51.932C5.21873 52.765 4.67146 53.429 4.98504 55.681C5.29862 57.94 6.35738 58.713 11.0539 60.118C20.1428 62.836 24.9741 61.581 25.0206 56.491C25.0432 53.96 20.8785 51.703 17.732 52.541C15.3486 53.175 15.3486 53.169 17.6927 49.316C19.815 45.826 20.4588 45.473 24.4077 45.629C29.543 45.831 29.3832 45.735 30.436 49.252C30.963 51.011 30.783 52 29.9365 52C29.2103 52 28.6154 53.338 28.6154 54.974C28.6154 59.466 32.9804 60.894 44.3908 60.137C47.4038 59.937 48.3457 55.485 46.0076 52.492C44.5208 50.59 43.1806 50.058 40.3489 50.249C37.0843 50.47 36.4691 50.086 35.2279 47.06C34.4517 45.169 33.2058 43.45 32.4594 43.241C31.5902 42.998 32.4642 40.547 34.8965 36.41C37.7103 31.626 39.1602 30.122 40.5087 30.593C45.539 32.347 46.2627 32.184 47.0663 29.115C47.5075 27.429 47.529 25.588 47.114 25.024C46.0255 23.547 47.3442 23.762 50.7065 25.61C57.1354 29.143 62.5807 24.129 60.8637 16.258C60.3952 14.106 59.6225 11.818 59.1468 11.173C57.9116 9.497 54.8462 9.722 54.8462 11.488C54.8462 12.307 53.9066 12.91 52.7596 12.83C48.3862 12.522 46.6359 13.064 45.9241 14.947C45.2314 16.778 45.049 16.794 42.8623 15.225C41.5841 14.307 40.5385 12.986 40.5385 12.29C40.5385 11.594 36.8042 9.448 32.2388 7.52C27.6735 5.592 23.3633 3.111 22.6586 2.007C21.2171 -0.252002 20.559 -0.372002 17.5865 1.08ZM37.9404 13.892C38.3315 14.927 37.628 15.149 35.1898 14.758C30.8307 14.059 27.1679 17.033 27.9465 20.639C28.5784 23.558 28.3769 23.329 31.5461 24.759C33.3274 25.563 34.1906 25.458 35.1862 24.316C36.2867 23.053 36.7028 23.034 37.8498 24.193C38.6117 24.963 38.787 26.141 38.2468 26.873C37.4826 27.911 36.2819 27.75 32.401 26.09C26.1664 23.421 25.755 23.462 28.1385 26.512C29.2175 27.893 31.3756 29.292 32.9351 29.62C34.4935 29.948 35.7692 30.383 35.7692 30.586C35.7692 30.789 34.3242 33.427 32.5583 36.447C30.2274 40.432 28.3912 42.219 25.8635 42.958C21.6237 44.197 20.2919 43.643 21.1205 40.984C21.5998 39.449 21.2982 39.115 19.8543 39.58C18.8122 39.915 18.0778 40.71 18.2208 41.345C18.3639 41.98 17.4077 42.386 16.0962 42.247C14.7846 42.107 12.2164 41.926 10.3898 41.844C6.38719 41.663 4.97431 40.222 7.97296 39.376C15.0732 37.374 16.678 36.297 19.1497 31.87C21.0788 28.415 22.3522 27.259 23.9439 27.516C25.7848 27.813 25.9446 27.499 25.0075 25.433C24.3231 23.921 24.3314 23 25.0301 23C25.6489 23 25.885 22.408 25.5547 21.685C25.2233 20.961 25.4164 19.317 25.984 18.03C26.9593 15.818 25.4522 10.014 23.4706 8.352C23.0211 7.975 22.6538 7.267 22.6538 6.778C22.6538 5.448 37.3323 12.279 37.9404 13.892ZM59.4187 14.391C59.638 15.34 59.4187 16.878 58.931 17.808C58.4433 18.739 58.1083 19.785 58.187 20.132C58.2657 20.48 57.6803 20.747 56.8862 20.725C56.0921 20.703 54.132 20.756 52.5319 20.842C49.699 20.996 49.6823 21.041 51.9357 22.548C53.9793 23.916 53.7981 23.913 50.375 22.523C45.0716 20.368 45.353 17.038 50.964 15.569C53.2032 14.983 53.506 15.165 52.8264 16.685C52.1134 18.281 52.2577 18.334 54.027 17.128C55.1335 16.373 56.0385 14.873 56.0385 13.794C56.0385 11.425 58.8475 11.921 59.4187 14.391ZM31.6915 19.631C31.7762 22.831 31.6069 23.049 30.2477 21.49C29.1615 20.244 29.0577 19.175 29.8959 17.862C31.4924 15.36 31.5818 15.447 31.6915 19.631ZM43.2748 24.25C42.929 25.762 42.1707 27 41.5913 27C40.2225 27 40.2607 26.605 41.9239 23.543C43.6349 20.395 44.1023 20.64 43.2748 24.25ZM19.0769 27.607C19.0769 28.373 18.606 29 18.0301 29C16.5433 29 14.1897 26.432 15.0302 25.727C16.1832 24.761 19.0769 26.105 19.0769 27.607ZM13.1154 28.607C13.1154 29.592 12.4537 30.001 11.4044 29.663C10.4625 29.36 9.43235 29.65 9.114 30.306C8.79446 30.963 8.49162 30.686 8.44035 29.691C8.38312 28.588 7.80842 28.161 6.96904 28.595C6.11654 29.038 5.91623 28.87 6.44442 28.155C7.76788 26.358 13.1154 26.72 13.1154 28.607ZM44.4731 54.341C45.5879 56.775 43.2557 58.335 38.7178 58.191C34.2622 58.051 31 56.599 31 54.755C31 54.169 31.6963 54.24 32.6823 54.926C33.8806 55.76 34.596 55.784 35.1671 55.008C35.6083 54.409 36.9973 54.192 38.254 54.527C39.531 54.867 40.5385 54.664 40.5385 54.067C40.5385 52.529 43.747 52.751 44.4731 54.341ZM14.322 56.613C16.2822 56.804 17.8846 56.52 17.8846 55.98C17.8846 54.403 21.1396 54.854 21.9098 56.538C22.9197 58.744 18.3305 59.898 13.826 58.571C8.97808 57.143 7.15385 56.117 7.15385 54.819C7.15385 54.152 7.82631 54.223 8.95662 55.01C9.94862 55.7 12.363 56.422 14.322 56.613Z" fill="#AAAAAA"/>
<path fill-rule="evenodd" clip-rule="evenodd" d="M17.5865 1.08C14.7858 2.448 14.9885 4.061 18.2888 6.683C21.7453 9.43 24.0763 15.787 23.1105 19.834C22.376 22.915 22.3558 22.922 18.8253 21.391C16.8747 20.545 15.1328 19.998 14.9551 20.176C14.7763 20.354 13.9941 21.525 13.2167 22.778C12.4393 24.031 11.2697 24.78 10.6187 24.442C8.56315 23.376 3.57692 26.888 3.57692 29.402C3.57692 31.984 9.23562 34.695 12.4596 33.658C13.4337 33.344 14.6034 33.63 15.0565 34.294C15.5107 34.957 15.4642 35.184 14.9527 34.798C14.4424 34.411 13.2394 34.753 12.2808 35.557C11.3222 36.361 10.0822 36.782 9.52415 36.493C8.96735 36.204 8.17446 36.425 7.76192 36.984C7.35058 37.543 5.766 38 4.24223 38C2.47404 38 1.24477 38.724 0.847731 39.999C-0.0739226 42.952 1.23165 43.358 13.3944 43.907C15.3355 43.994 15.3414 44.21 13.4945 47.46C12.2843 49.588 10.1942 51.31 8.06596 51.932C5.21873 52.765 4.67146 53.429 4.98504 55.681C5.29862 57.94 6.35738 58.713 11.0539 60.118C20.1428 62.836 24.9741 61.581 25.0206 56.491C25.0432 53.96 20.8785 51.703 17.732 52.541C15.3486 53.175 15.3486 53.169 17.6927 49.316C19.815 45.826 20.4588 45.473 24.4077 45.629C29.543 45.831 29.3832 45.735 30.436 49.252C30.963 51.011 30.783 52 29.9365 52C27.3897 52 28.4616 57.861 31.2361 59.106C34.4768 60.56 42.7383 61.06 43.6253 59.856C43.9854 59.367 44.764 59.218 45.3554 59.525C47.4789 60.626 47.9975 55.04 46.0076 52.492C44.5208 50.59 43.1806 50.058 40.3489 50.249C37.0843 50.47 36.4691 50.086 35.2279 47.06C34.4517 45.169 33.2058 43.45 32.4594 43.241C31.5902 42.998 32.4642 40.547 34.8965 36.41C37.7103 31.626 39.1602 30.122 40.5087 30.593C45.539 32.347 46.2627 32.184 47.0663 29.115C47.5075 27.429 47.529 25.588 47.114 25.024C46.0255 23.547 47.3442 23.762 50.7065 25.61C57.1354 29.143 62.5807 24.129 60.8637 16.258C60.3952 14.106 59.6225 11.818 59.1468 11.173C57.9116 9.497 54.8462 9.722 54.8462 11.488C54.8462 12.307 53.9066 12.91 52.7596 12.83C48.3862 12.522 46.6359 13.064 45.9241 14.947C45.2314 16.778 45.049 16.794 42.8623 15.225C41.5841 14.307 40.5385 12.971 40.5385 12.256C40.5385 11.542 37.0045 9.541 32.6847 7.811C28.365 6.08 24.0119 3.615 23.0092 2.332C20.9727 -0.274 20.5554 -0.37 17.5865 1.08ZM37.9631 14.356C38.1908 15.377 37.7592 16.727 37.0033 17.356C35.9683 18.217 35.8098 18.1 36.3618 16.881C36.8542 15.797 36.3213 15.093 34.7474 14.748C31.9872 14.142 30.6554 16.989 31.837 20.97C32.5142 23.253 32.3914 23.364 30.5732 22.107C29.4643 21.342 28.2553 20.968 27.8869 21.278C27.5185 21.587 28.6738 22.641 30.4539 23.62C33.6135 25.356 33.7447 25.345 35.8372 23.178C37.0951 21.876 38.2933 21.38 38.7345 21.979C39.1482 22.54 38.8525 23 38.0787 23C37.0665 23 37.0283 23.362 37.9392 24.284C38.6403 24.991 38.7774 26.153 38.2468 26.873C37.4838 27.91 36.27 27.745 32.3545 26.069C29.642 24.909 27.4231 24.418 27.4231 24.98C27.4231 26.53 31.9562 30 33.9808 30C36.3153 30 36.307 30.035 32.5583 36.447C30.2274 40.432 28.3912 42.219 25.8635 42.958C21.551 44.218 20.3229 43.651 21.0788 40.749L21.6642 38.5L19.4704 40.751C17.645 42.623 16.678 42.859 13.7056 42.154C11.7418 41.689 9.51342 41.487 8.75392 41.707C7.99442 41.926 7.0215 41.629 6.59108 41.046C6.16185 40.463 6.78304 39.712 7.97296 39.376C15.0982 37.367 16.6756 36.301 19.1962 31.787C20.6663 29.154 22.4762 27 23.2178 27C25.5953 27 26.3142 10.67 24.0202 8.746C20.6961 5.958 23.2297 6.145 30.101 9.195C34.4434 11.122 37.721 13.274 37.9631 14.356ZM59.4187 14.391C59.638 15.34 59.4187 16.878 58.931 17.808C58.4433 18.739 58.1238 19.821 58.2192 20.214C58.3158 20.607 57.4621 20.635 56.3222 20.277C54.4455 19.687 54.4193 19.801 56.0385 21.476C57.7113 23.208 57.6588 23.252 55.2229 22.164C51.3134 20.417 50.6421 20.752 53.171 23.188L55.4423 25.376L51.2728 23.384C46.4881 21.098 45.5462 18.943 48.3135 16.621C50.9497 14.411 53.8053 14.493 52.7966 16.75C52.1122 18.282 52.2648 18.329 54.027 17.128C55.1335 16.373 56.0385 14.873 56.0385 13.794C56.0385 11.425 58.8475 11.921 59.4187 14.391ZM28.6154 17C27.8535 18.194 27.4982 19.396 27.8261 19.671C28.154 19.946 29.0458 19.194 29.8077 18C30.5696 16.806 30.9249 15.604 30.597 15.329C30.2691 15.054 29.3773 15.806 28.6154 17ZM43.2748 24.25C42.929 25.762 42.1707 27 41.5913 27C40.2225 27 40.2607 26.605 41.9239 23.543C43.6349 20.395 44.1023 20.64 43.2748 24.25ZM19.4632 27.599C18.656 29.362 17.3624 29.382 15.6562 27.658C13.975 25.959 14.9802 25.073 17.8715 25.707C19.1854 25.996 19.84 26.774 19.4632 27.599ZM13.0975 28.25C13.0713 30.035 10.7725 32.913 10.7487 31.191C10.7391 30.471 10.1942 30.16 9.53846 30.5C8.88269 30.84 8.34615 30.615 8.34615 30C8.34615 29.385 7.80962 29.16 7.15385 29.5C5.828 30.187 5.50846 28.714 6.75681 27.667C8.15181 26.496 13.1166 26.952 13.0975 28.25ZM45.3077 55.647C45.3077 57.855 40.1188 59.018 35.2744 57.896C32.0111 57.14 31.0048 56.385 31.0179 54.703C31.0286 53.431 31.4066 52.964 31.9121 53.599C33.2046 55.22 40.3167 54.927 41.0977 53.221C41.6294 52.059 42.1075 52.017 43.5335 53.01C44.5089 53.689 45.3077 54.876 45.3077 55.647ZM14.3912 55.921C15.3033 54.712 15.4714 54.724 15.5191 56C15.562 57.131 16.0246 57.008 17.4005 55.5C19.2045 53.522 19.2427 53.521 20.9441 55.446C23.9284 58.825 20.2597 59.975 11.9302 58.272C9.393 57.753 7.60335 56.72 7.35296 55.629C6.9595 53.916 7.08112 53.914 10.1298 55.59C12.8376 57.077 13.4802 57.127 14.3912 55.921Z" fill="#808080"/>
<path fill-rule="evenodd" clip-rule="evenodd" d="M17.3731 1.571C14.917 3.632 14.9301 3.676 18.9696 7.064C22.3689 9.914 24.0918 14.831 23.4098 19.73C22.9507 23.032 21.8693 23.454 18.5499 21.63C15.6812 20.053 15.4869 20.087 13.6126 22.486C12.5395 23.859 11.1612 24.723 10.5483 24.405C8.54885 23.369 3.57692 26.932 3.57692 29.402C3.57692 31.984 9.23562 34.695 12.4596 33.658C13.4337 33.344 14.5247 33.485 14.8824 33.972C15.4165 34.696 13.4158 35.656 9.53846 36.537C9.21058 36.612 8.00277 36.971 6.85577 37.336C5.70758 37.701 3.96442 38.211 2.98077 38.469C0.858462 39.025 0.611654 41.581 2.58135 42.602C3.34562 42.998 6.34308 43.439 9.24277 43.581C12.1425 43.724 14.7536 44.04 15.0445 44.285C16.3048 45.341 11.0312 51.056 7.96581 51.957C5.21277 52.765 4.67385 53.444 4.98504 55.704C5.27119 57.781 6.25008 58.682 8.94231 59.349C10.9096 59.837 13.3872 60.599 14.4496 61.044C17.1788 62.188 22.7325 61.506 23.963 59.875C26.8806 56.013 22.7874 51.195 17.732 52.541C15.351 53.175 15.351 53.166 17.6795 49.338C20.0081 45.509 21.1301 45.164 28.7966 45.923C29.2247 45.965 30.1213 47.315 30.789 48.923C31.744 51.219 31.6415 51.963 30.3097 52.392C27.8857 53.172 28.21 57.748 30.7711 58.897C33.8866 60.296 42.7895 60.99 43.5955 59.897C43.9723 59.386 44.7223 59.197 45.2624 59.477C45.8037 59.757 46.5966 58.814 47.0258 57.381C48.1788 53.527 45.3101 50.5 40.5039 50.5C37.1058 50.5 36.4059 50.046 35.2029 47.06C34.4398 45.169 33.195 43.447 32.4367 43.235C31.5342 42.983 32.333 40.713 34.7462 36.675C39.2818 29.086 38.626 29.607 41.8321 31.046C44.076 32.052 44.7676 31.973 45.9945 30.565C46.804 29.637 47.3227 27.78 47.1474 26.439C46.7683 23.542 46.5572 23.578 51.733 25.648C55.2921 27.072 56.0862 27.103 57.5467 25.878C60.3391 23.536 62.4674 19.631 61.1523 19.263C60.4977 19.08 60.2032 17.871 60.4977 16.577C60.7934 15.283 60.4285 13.274 59.6869 12.112C58.1107 9.642 54.8462 9.285 54.8462 11.583C54.8462 12.454 54.1761 12.966 53.3558 12.721C51.5041 12.166 45.3077 14.704 45.3077 16.016C45.3077 16.546 44.2346 16.21 42.9231 15.268C41.6115 14.326 40.5385 13.077 40.5385 12.492C40.5385 11.908 37.0736 9.996 32.8397 8.245C28.6058 6.494 24.2515 3.922 23.1642 2.531C20.8618 -0.416999 19.9282 -0.571999 17.3731 1.571ZM37.6805 16.221C37.7485 18.267 38.496 20.641 39.3414 21.495C40.1867 22.349 40.5242 23.345 40.0925 23.707C38.6177 24.944 36.7326 22.215 36.6134 18.669C36.5299 16.228 35.861 14.992 34.4553 14.683C32.0421 14.154 30.8927 17.525 32.3557 20.841C33.4252 23.266 31.2969 23.849 28.8538 21.8C28.0669 21.14 27.4231 20.905 27.4231 21.277C27.4231 21.649 28.7668 22.692 30.4098 23.595C32.6716 24.838 33.79 24.962 35.0205 24.106C37.0772 22.675 39.6895 24.915 38.2468 26.873C37.4838 27.91 36.27 27.745 32.3545 26.069C29.642 24.909 27.4231 24.418 27.4231 24.98C27.4231 26.53 31.9562 30 33.9808 30C36.3153 30 36.307 30.035 32.5583 36.447C30.2274 40.432 28.3912 42.219 25.8635 42.958C21.551 44.218 20.3229 43.651 21.0788 40.749L21.6642 38.5L19.4704 40.751C17.645 42.623 16.678 42.859 13.7056 42.154C11.7418 41.689 9.51342 41.487 8.75392 41.707C7.99442 41.926 7.0215 41.629 6.59108 41.046C6.16185 40.463 6.78304 39.712 7.97296 39.376C15.0982 37.367 16.6756 36.301 19.1962 31.787C20.6663 29.154 22.4762 27 23.2178 27C25.5953 27 26.3142 10.67 24.0202 8.746C20.6961 5.958 23.2297 6.145 30.1058 9.195C37.1404 12.315 37.5648 12.708 37.6805 16.221ZM59.061 16.836C59.0991 20.544 58.838 20.938 56.6763 20.447C54.2893 19.905 54.287 19.921 56.5643 21.448C58.5912 22.807 58.6282 23 56.8623 23C55.7535 23 54.8462 23.443 54.8462 23.984C54.8462 25.276 46.7707 22.033 46.0457 20.451C45.1849 18.567 48.7308 15 51.4648 15C53.2413 15 53.7039 15.448 53.1578 16.641C52.5295 18.014 52.7048 18.076 54.2226 17.019C55.2217 16.324 56.0385 14.873 56.0385 13.794C56.0385 12.668 56.6728 12.012 57.5288 12.254C58.3921 12.497 59.0371 14.425 59.061 16.836ZM28.5605 17.086C27.8285 18.233 27.4541 19.36 27.7295 19.59C28.0037 19.82 28.8407 18.882 29.5883 17.504C31.2313 14.48 30.4313 14.154 28.5605 17.086ZM44.2358 22.811C43.6432 23.74 43.146 24.939 43.1305 25.475C43.0924 26.795 40.5385 27.44 40.5385 26.13C40.5385 24.121 43.2843 20.069 44.293 20.592C44.8546 20.883 44.8296 21.882 44.2358 22.811ZM52.4615 22C52.4615 22.55 53.0303 23 53.7242 23C54.4181 23 54.6554 22.55 54.25 22C53.8446 21.45 53.2771 21 52.9873 21C52.6976 21 52.4615 21.45 52.4615 22ZM18.2518 25.565C19.313 25.906 19.7625 26.91 19.3893 28.105C18.811 29.961 18.6405 29.979 16.5683 28.406C13.6007 26.154 14.638 24.402 18.2518 25.565ZM13.3026 27.408C14.3423 28.614 11.8647 33.088 10.5364 32.4C9.9665 32.104 9.85919 31.373 10.2992 30.776C10.7749 30.131 10.5448 29.978 9.73162 30.4C8.98046 30.789 7.50796 30.706 6.46112 30.215C4.73823 29.406 4.73346 29.173 6.41104 27.766C8.39265 26.104 12.0149 25.916 13.3026 27.408ZM44.5756 53.529C46.7003 55.311 45.9658 57.69 43.0518 58.466C39.5131 59.408 33.0078 58.288 31.4161 56.463C29.6587 54.447 30.5839 52.251 32.5095 53.866C33.3453 54.567 34.4756 54.581 35.9767 53.907C37.2012 53.357 38.7285 53.18 39.3712 53.513C40.0127 53.846 40.5385 53.641 40.5385 53.059C40.5385 51.533 42.4628 51.757 44.5756 53.529ZM14.3423 55.753C15.9626 55.666 17.5997 55.222 17.98 54.764C19.1485 53.358 22.6538 55.101 22.6538 57.088C22.6538 61.519 8.14346 59.402 7.33031 54.852C6.92969 52.615 7.01554 52.585 9.15335 54.207C10.3862 55.143 12.7207 55.839 14.3423 55.753Z" fill="#2E2E2E"/>
<path fill-rule="evenodd" clip-rule="evenodd" d="M16.7281 3.028C16.6792 5.088 21.136 8.3 21.8049 6.687C22.4798 5.059 38.1538 11.513 38.1538 13.419C38.1538 14.21 38.998 15.566 40.0305 16.431C41.7248 17.853 41.7272 18.064 40.0532 18.603C38.5831 19.076 38.4674 19.623 39.4964 21.235C40.5397 22.871 40.9999 22.998 41.8405 21.885C43.5705 19.594 43.0709 17.088 40.2404 13.856C37.4075 10.622 25.5464 5 21.5545 5C20.2573 5 18.6489 4.213 17.98 3.25C16.9999 1.838 16.7579 1.795 16.7281 3.028ZM23.1665 10.5C23.6327 12.15 24.5282 13.94 25.1553 14.477C25.7825 15.015 25.6644 13.89 24.8942 11.977C23.089 7.499 22.072 6.63 23.1665 10.5ZM49.2602 14.007C46.8017 14.838 44.0582 17.893 44.1631 19.684C44.1893 20.133 45.0108 19.262 45.9897 17.75C46.9686 16.238 48.5245 15 49.4486 15C50.3726 15 51.46 14.55 51.8654 14C52.7179 12.843 52.7036 12.843 49.2602 14.007ZM54.3013 13.931C53.9233 14.443 54.0712 15.098 54.628 15.387C55.1848 15.676 55.6414 15.257 55.6414 14.456C55.6414 12.77 55.2647 12.623 54.3013 13.931ZM33.9331 16.875C34.3754 18.044 34.2395 19 33.6302 19C33.021 19 32.7956 20.197 33.1295 21.659C33.6672 24.02 33.8973 24.132 35.1826 22.658C36.7517 20.859 36.2104 16.346 34.3063 15.36C33.5873 14.987 33.4418 15.576 33.9331 16.875ZM59.2183 21.191C58.1131 24.883 54.4742 25.603 49.4605 23.122L45.3482 21.088L44.3527 24.294C43.685 26.443 42.5964 27.534 41.0535 27.602C36.2473 27.815 35.5856 28.035 36.0983 29.25C36.388 29.938 35.0574 33.132 33.1402 36.349C31.223 39.565 30.107 41.963 30.6602 41.676C31.2134 41.39 33.232 38.406 35.1468 35.047C37.7556 30.468 39.091 29.099 40.4777 29.58C44.5899 31.007 45.9027 30.519 46.0696 27.5C46.1602 25.85 46.2937 24.151 46.3677 23.724C46.4404 23.298 48.1358 23.658 50.1365 24.526C52.136 25.393 54.8199 25.824 56.0993 25.484C58.714 24.788 61.2071 21.506 60.4905 19.702C60.2306 19.049 59.6583 19.719 59.2183 21.191ZM8.94231 25C9.34769 25.55 9.91523 26 10.205 26C10.4947 26 10.7308 25.55 10.7308 25C10.7308 24.45 10.162 24 9.46812 24C8.77419 24 8.53692 24.45 8.94231 25ZM9.53846 38C8.46419 38.582 8.31635 38.975 9.17004 38.985C9.951 38.993 10.9215 38.55 11.3269 38C12.2414 36.758 11.8289 36.758 9.53846 38ZM1.87192 39.887C1.05996 40.988 4.09915 43.229 5.177 42.325C5.60862 41.963 5.96154 41.067 5.96154 40.333C5.96154 38.844 2.88777 38.508 1.87192 39.887ZM17.5865 42.083C16.4395 43.138 15.779 44 16.12 44C16.4622 44 15.6455 45.8 14.3077 48C12.9699 50.2 11.3484 52 10.7069 52C9.00431 52 9.27496 54.708 11.0288 55.225C11.8492 55.467 13.8606 55.335 15.5 54.932C17.4208 54.46 17.7392 54.164 16.3942 54.1C13.7783 53.975 13.7783 53.967 16.8771 48.618C18.6906 45.487 20.0069 44.33 21.3483 44.685C22.8935 45.094 22.9376 45.002 21.5855 44.195C20.671 43.649 20.2513 42.481 20.6543 41.601C21.6261 39.478 20.1738 39.706 17.5865 42.083ZM25.0385 44.11C23.5004 45.038 23.5254 45.115 25.2209 44.663C28.2243 43.862 30.6852 46.043 32.1756 50.824C33.2928 54.405 33.8162 54.944 35.2279 53.962C36.1651 53.31 37.7425 53.037 38.7345 53.357C39.7265 53.676 40.5385 53.533 40.5385 53.038C40.5385 52.544 39.3628 51.995 37.9261 51.82C36.0745 51.593 35.0002 50.481 34.2383 48.002C32.742 43.135 29.1638 41.621 25.0385 44.11ZM19.9771 52.69C19.6898 53.136 20.4433 54.288 21.6511 55.25C24.2086 57.289 24.5103 56.318 22.134 53.69C21.2338 52.695 20.2633 52.245 19.9771 52.69ZM5.5025 56.278C5.90908 57.256 7.38635 58.548 8.78492 59.15C10.9609 60.087 11.0765 60.047 9.59331 58.872C8.63946 58.118 7.16219 56.825 6.31088 56C4.96358 54.694 4.85865 54.73 5.5025 56.278ZM20.9357 59.532C19.6623 60.339 19.195 61 19.8948 61C20.5959 61 21.8371 60.325 22.6538 59.5C24.5103 57.624 23.926 57.634 20.9357 59.532Z" fill="black"/>
</g>
<defs>
<clipPath id="clip0_1_2">
<rect width="62" height="62" rx="31" fill="white"/>
</clipPath>
</defs>
</svg>
