<svg width="250" height="250" viewBox="0 0 250 250" fill="none" xmlns="http://www.w3.org/2000/svg">
<g clip-path="url(#clip0_1_2)">
<path fill-rule="evenodd" clip-rule="evenodd" d="M0 125V250H125H250V125V0H125H0V125Z" fill="#03FFFF"/>
<path fill-rule="evenodd" clip-rule="evenodd" d="M0 125V250H125H250V125V0H125H0V125ZM152.412 59.233C171.71 65.715 179.964 77.076 178.78 95.527C178.062 106.71 173.858 114.253 165.139 120.002C162.867 121.5 162.875 121.513 168.181 125.002C178.603 131.855 183.608 143.206 182.761 158.064C181.938 172.487 176.377 181.856 165.055 187.89C154.583 193.471 149.834 193.963 106.25 193.983L67 194V124.927V55.855L105.75 56.215L144.5 56.576L152.412 59.233ZM75.459 64.25C75.196 64.938 75.098 92.725 75.241 126L75.5 186.5L82.5 186.576C86.35 186.617 90.287 186.452 91.25 186.209C92.893 185.794 93 182.039 93 125.014V64.262L89.25 63.642C82.902 62.593 75.976 62.898 75.459 64.25ZM102.75 63.689C101.138 64.111 101 66.271 101 91.092V118.038L123.75 117.769L146.5 117.5L146.767 92.386C146.988 71.569 146.789 67.069 145.601 66.084C142.887 63.832 109.372 61.959 102.75 63.689ZM154.966 68.75C154.72 74.213 155.179 116.513 155.488 116.822C156.571 117.905 165.34 111.443 167.772 107.77C170.124 104.219 170.548 102.43 170.851 94.792C171.167 86.795 170.938 85.393 168.494 80.398C166.67 76.669 164.272 73.753 161.143 71.457C156.445 68.009 155.028 67.388 154.966 68.75ZM101 155.933C101 184.742 101.073 185.888 102.952 186.485C106.029 187.461 141.193 186.292 144.25 185.111L147 184.05V155.661V127.272L142.36 126.636C139.809 126.286 129.459 126 119.36 126H101V155.933ZM154.781 155.04C154.626 170.526 154.745 183.591 155.044 184.074C155.834 185.349 163.128 181.482 166.912 177.781C172.224 172.588 174.291 167.489 174.793 158.338C175.653 142.683 169.13 131.223 157.281 127.569L155.061 126.885L154.781 155.04Z" fill="#0FDEDE"/>
<path fill-rule="evenodd" clip-rule="evenodd" d="M0 125V250H125H250V125V0H125H0V125ZM148.154 57.783C167.276 62.995 176.594 71.715 179.029 86.677C180.97 98.605 177.134 110.19 168.894 117.287C163.834 121.644 163.003 123 165.392 123C168.111 123 176.894 132.084 179.7 137.797C182.294 143.081 182.5 144.381 182.5 155.5C182.5 165.966 182.199 168.167 180.142 172.714C175.857 182.191 165.571 189.734 152.5 192.986C149.119 193.827 134.47 194.385 107.25 194.71L67 195.19V124.994V54.797L103.75 55.247C137.046 55.654 141.219 55.893 148.154 57.783ZM75 125V186H83.5H92V125V64H83.5H75V125ZM101 91.019V118.038L123.25 117.769L145.5 117.5L145.767 91.802L146.034 66.103L142.267 65.057C140.195 64.482 130.063 64.009 119.75 64.006L101 64V91.019ZM155 93C155 106.2 155.382 117 155.85 117C157.02 117 164.092 111.752 166.345 109.213C171.429 103.48 172.548 89.866 168.626 81.444C166.315 76.48 158.917 69 156.32 69C155.263 69 155 73.788 155 93ZM101.667 126.667C101.3 127.033 101 140.533 101 156.667V186L119.75 185.989C130.063 185.983 140.188 185.699 142.25 185.358L146 184.738V156.02V127.302L136.25 126.656C123.501 125.812 102.515 125.818 101.667 126.667ZM155 156C155 178.354 155.263 184 156.304 184C158.859 184 166.966 178.03 169.887 173.997C179.235 161.092 175.301 137.949 162.482 130.437C154.608 125.822 155 124.483 155 156Z" fill="#12C6C7"/>
<path fill-rule="evenodd" clip-rule="evenodd" d="M0 125V250H125H250V125V0H125H0V125ZM149.169 57.763C159.081 60.495 164.174 63.147 170.034 68.629C176.985 75.13 179.42 81.323 179.42 92.5C179.42 104.087 176.992 109.978 169.335 116.977L163.933 121.914L166.951 123.474C178.633 129.516 185.547 146.023 183.073 161.967C180.485 178.648 172.174 187.498 154.214 192.699C149.427 194.085 141.811 194.418 107.25 194.754L66 195.155V124.995V54.834L103.75 55.241C138.349 55.615 142.14 55.825 149.169 57.763ZM75 125V186H83.5H92V125V64H83.5H75V125ZM101 91V118L119.75 117.989C130.063 117.983 140.188 117.699 142.25 117.358L146 116.738V91.452V66.166L140.951 65.083C138.174 64.487 128.049 64 118.451 64H101V91ZM155 92.5C155 118.921 154.796 118.337 162.084 112.75C168.433 107.883 170.5 103.149 170.5 93.473C170.5 86.828 170.06 84.592 167.945 80.483C165.648 76.018 158.299 69 155.922 69C155.385 69 155 78.821 155 92.5ZM101 156.586V186.172L122.25 185.836C133.938 185.651 144.063 185.136 144.75 184.691C145.702 184.075 146 177.096 146 155.441V127H123.5H101V156.586ZM155 156C155 171.4 155.357 184 155.794 184C156.231 184 159.027 182.537 162.008 180.75C173.969 173.578 178.223 156.687 171.818 141.799C168.99 135.226 160.673 128 155.935 128C155.377 128 155 139.3 155 156Z" fill="#189698"/>
<path fill-rule="evenodd" clip-rule="evenodd" d="M0 125V250H125H250V125V0H125H0V125ZM143.619 56.53C154.287 58.368 165.167 63.233 170.473 68.54C183.99 82.057 182.62 108.017 167.815 118.905L163.925 121.766L168.438 124.411C178.495 130.305 183.557 140.991 183.402 156C183.233 172.238 177.234 182.814 164.697 188.97C153.772 194.335 147.126 195 104.412 195H66V125V55H100.369C126.682 55 136.82 55.359 143.619 56.53ZM75.459 65.25C75.196 65.938 75.098 93.275 75.241 126L75.5 185.5L83.75 185.79L92 186.081V125.04V64H83.969C78.465 64 75.787 64.393 75.459 65.25ZM101.486 65.175C101.199 65.923 101.085 78.002 101.232 92.017L101.5 117.5L113.5 117.818C120.1 117.993 130.113 117.837 135.75 117.472L146 116.808V91.879V66.95L143.25 65.785C141.608 65.089 132.744 64.457 121.254 64.217C105.677 63.893 101.908 64.075 101.486 65.175ZM155 92.5C155 118.716 154.799 118.101 161.717 113.09C167.644 108.796 170.451 102.336 170.445 93C170.441 86.593 170.013 84.721 167.508 80.152C165.036 75.644 157.924 69 155.57 69C155.256 69 155 79.575 155 92.5ZM101.235 156.231L101.5 185.5H121C131.725 185.5 141.744 185.152 143.266 184.727L146.031 183.954L145.766 155.727L145.5 127.5L123.235 127.231L100.97 126.962L101.235 156.231ZM155 156C155 171.4 155.243 184 155.54 184C157.347 184 164.422 179.466 167.399 176.401C171.798 171.872 174.168 164.882 174.245 156.213C174.322 147.599 172.759 142.151 168.676 136.798C165.573 132.73 158.954 128.052 156.25 128.016C155.279 128.004 155 134.258 155 156Z" fill="#148483"/>
<path fill-rule="evenodd" clip-rule="evenodd" d="M0 125V250H125H250V125V0H125H0V125ZM149.5 57.348C163.285 61.284 172.994 68.42 177.33 77.804C179.099 81.632 179.5 84.348 179.5 92.5C179.5 104.719 177.391 110.153 169.93 117.158L164.968 121.817L168.414 123.947C180.223 131.245 186.26 147.835 183.048 164.163C180.646 176.371 174.335 184.688 163.835 189.482C152.885 194.482 147.753 194.964 105.25 194.983L66 195V124.927V54.855L104.75 55.245C137.515 55.575 144.427 55.9 149.5 57.348ZM76 125V186.084L83.75 185.792L91.5 185.5V125V64.5L83.75 64.208L76 63.916V125ZM101.75 64.571C101.338 64.99 101 76.958 101 91.167V117H123.5H146V91.975V66.95L143.25 65.805C140.106 64.494 102.913 63.389 101.75 64.571ZM155 93C155 105.65 155.276 116 155.614 116C157.678 116 164.365 111.08 166.513 107.981C171.165 101.268 171.676 88.076 167.591 80.175C165.773 76.66 158.512 70 156.497 70C155.211 70 155 73.242 155 93ZM101.452 128.263C101.186 128.958 101.087 142.121 101.234 157.513L101.5 185.5L121 185.497C131.725 185.495 141.738 185.149 143.25 184.728L146 183.962V156.098V128.233L143.75 127.63C142.512 127.299 132.598 127.021 121.719 127.014C106.693 127.003 101.821 127.304 101.452 128.263ZM155.585 128.748C155.263 129.07 155 141.408 155 156.167C155 181.972 155.074 183 156.922 183C159.487 183 166.924 177.237 169.728 173.075C172.839 168.459 173.988 163.708 173.994 155.428C174.002 146.086 171.713 139.661 166.534 134.482C162.565 130.512 156.826 127.507 155.585 128.748Z" fill="#166669"/>
<path fill-rule="evenodd" clip-rule="evenodd" d="M0 125V250H125H250V125V0H125H0V125ZM146.185 56.531C160.771 59.585 171.671 66.665 176.828 76.437C179.255 81.036 179.5 82.507 179.5 92.5C179.5 102.523 179.26 103.955 176.797 108.623C175.311 111.441 172.017 115.576 169.477 117.811L164.859 121.876L167.8 123.396C169.417 124.233 172.819 127.229 175.36 130.055C181.114 136.455 184 144.955 184 155.5C184 173.81 175.012 186.534 158.039 192.253C151.773 194.365 149.714 194.47 108.75 194.778L66 195.099V125.05V55H102.435C131.302 55 140.389 55.318 146.185 56.531ZM76 125V185H84H92V125V65H84H76V125ZM102 91.02V117.039L123.75 116.77L145.5 116.5L145.767 91.802L146.035 67.104L142.267 66.057C140.195 65.482 130.287 65.009 120.25 65.006L102 65V91.02ZM156 93.115V116.23L158.75 114.483C166.842 109.341 169.945 103.712 169.978 94.116C170.01 84.874 168.302 80.25 162.825 74.75C160.224 72.138 157.624 70 157.048 70C156.348 70 156 77.671 156 93.115ZM102 156V185H121.435C132.124 185 142.024 184.561 143.435 184.025L146 183.05V155.661V128.272L141.36 127.636C138.809 127.286 128.909 127 119.36 127H102V156ZM156 155.48C156 170.616 156.362 183 156.804 183C158.698 183 166.881 176.976 168.967 174.046C172.163 169.559 174 162.743 174 155.379C174 143.874 168.759 134.469 159.803 129.899L156 127.959V155.48Z" fill="#103231"/>
<path fill-rule="evenodd" clip-rule="evenodd" d="M0 125V250H125H250V125V0H125H0V125ZM149.325 56.803C164.045 60.855 172.993 67.461 177.836 77.852C180.067 82.638 180.471 84.889 180.484 92.601C180.499 101.045 180.247 102.196 177 108.556C174.713 113.036 172.072 116.498 169.379 118.548L165.258 121.684L168.735 123.556C179.76 129.494 186.504 146.297 184.095 161.825C181.387 179.28 172.531 188.665 154 193.719C148.272 195.281 142.629 195.492 106.5 195.496L65.5 195.5L65.241 126C65.099 87.775 65.212 55.9 65.492 55.167C65.907 54.079 72.933 53.909 103.75 54.241C138.576 54.617 142.106 54.816 149.325 56.803ZM76 125V185H83.5H91V125V65H83.5H76V125ZM102 91V117H120.375C130.481 117 140.156 116.719 141.875 116.375L145 115.75V91.422V67.094L141.25 66.053C139.188 65.48 129.512 65.009 119.75 65.006L102 65V91ZM156 92.465C156 104.859 156.284 115 156.632 115C156.98 115 158.784 114.061 160.641 112.913C171.466 106.223 173.097 86.485 163.671 76.258C155.684 67.594 156 66.925 156 92.465ZM102 156.5V185L119.75 184.989C129.512 184.983 139.188 184.699 141.25 184.358L145 183.738V155.869V128H123.5H102V156.5ZM156 156.02V183.041L159.75 181.108C161.813 180.045 164.94 177.673 166.699 175.838C178.048 163.998 175.127 138.972 161.5 131.288C159.3 130.048 157.162 129.025 156.75 129.016C156.338 129.007 156 141.159 156 156.02Z" fill="#191919"/>
</g>
<defs>
<clipPath id="clip0_1_2">
<rect width="250" height="250" rx="125" fill="white"/>
</clipPath>
</defs>
</svg>
