<svg width="64" height="64" viewBox="0 0 64 64" fill="none" xmlns="http://www.w3.org/2000/svg">
<g clip-path="url(#clip0_1_2)">
<path fill-rule="evenodd" clip-rule="evenodd" d="M0 32V64H32H64V32V0H32H0V32Z" fill="#5D5D65"/>
<path fill-rule="evenodd" clip-rule="evenodd" d="M0 32V64H32H64V32V0H32H0V32Z" fill="#3A3A42"/>
<path fill-rule="evenodd" clip-rule="evenodd" d="M0 32V64H32H64V32V0H32H0V32ZM22.683 17.188C22.364 17.985 22.127 17.748 22.079 16.583C22.036 15.529 22.272 14.939 22.604 15.271C22.936 15.603 22.972 16.466 22.683 17.188ZM41 16.378C41 16.585 40.212 17.373 39.25 18.128C37.664 19.371 37.629 19.336 38.872 17.75C40.179 16.084 41 15.555 41 16.378ZM37.683 22.188C37.364 22.985 37.127 22.748 37.079 21.583C37.036 20.529 37.272 19.939 37.604 20.271C37.936 20.603 37.972 21.466 37.683 22.188Z" fill="#23232B"/>
<path fill-rule="evenodd" clip-rule="evenodd" d="M0 32V64H32H64V32V0H32H0V32ZM26.917 11.283C26.688 11.439 25.6 12.226 24.5 13.033C22.65 14.39 22.603 14.369 23.872 12.75C24.627 11.787 25.715 11 26.289 11C26.863 11 27.146 11.127 26.917 11.283ZM22.662 18.25C22.385 18.938 22.158 18.375 22.158 17C22.158 15.625 22.385 15.063 22.662 15.75C22.94 16.438 22.94 17.563 22.662 18.25ZM34.683 18.188C34.364 18.985 34.127 18.748 34.079 17.583C34.036 16.529 34.272 15.939 34.604 16.271C34.936 16.603 34.972 17.466 34.683 18.188ZM41 16.378C41 16.585 40.212 17.373 39.25 18.128C37.664 19.371 37.629 19.336 38.872 17.75C40.179 16.084 41 15.555 41 16.378ZM48.128 17.75C49.371 19.336 49.336 19.371 47.75 18.128C46.084 16.821 45.555 16 46.378 16C46.585 16 47.373 16.788 48.128 17.75ZM17.729 20.604C17.397 20.936 16.534 20.972 15.813 20.683C15.015 20.364 15.252 20.127 16.417 20.079C17.471 20.036 18.061 20.272 17.729 20.604ZM37.662 23.25C37.385 23.938 37.158 23.375 37.158 22C37.158 20.625 37.385 20.063 37.662 20.75C37.94 21.438 37.94 22.563 37.662 23.25ZM49.683 22.188C49.364 22.985 49.127 22.748 49.079 21.583C49.036 20.529 49.272 19.939 49.604 20.271C49.936 20.603 49.972 21.466 49.683 22.188ZM21.683 26.188C21.364 26.985 21.127 26.748 21.079 25.583C21.036 24.529 21.272 23.939 21.604 24.271C21.936 24.603 21.972 25.466 21.683 26.188ZM24.384 32C25.354 33.303 25.271 33.32 23.75 32.128C22.788 31.373 22.036 30.023 22.079 29.128C22.145 27.766 22.249 27.745 22.713 29C23.019 29.825 23.771 31.175 24.384 32ZM41.124 35.267C40.136 36.247 40.022 36.132 40.564 34.707C40.94 33.721 41.499 33.166 41.807 33.474C42.115 33.781 41.808 34.588 41.124 35.267ZM26.972 36.466C27.641 37.273 27.957 38.51 27.673 39.216C27.354 40.011 27.128 39.821 27.079 38.718C27.036 37.738 25.988 36.529 24.75 36.031C23.227 35.419 23.026 35.106 24.128 35.063C25.023 35.029 26.303 35.66 26.972 36.466ZM37 41.5C37 42.19 36.212 43.373 35.25 44.128C33.647 45.385 33.621 45.346 34.94 43.669C36.158 42.119 36.172 41.504 35.029 39.669C33.798 37.692 33.826 37.622 35.339 38.872C36.253 39.627 37 40.81 37 41.5ZM41 43.393C41 43.609 40.302 44.054 39.448 44.382C38.558 44.723 38.157 44.555 38.507 43.989C39.094 43.038 41 42.583 41 43.393ZM23.493 44.989C23.843 45.555 23.442 45.723 22.552 45.382C20.82 44.717 20.503 44 21.941 44C22.459 44 23.157 44.445 23.493 44.989Z" fill="#E3E4E9"/>
<path fill-rule="evenodd" clip-rule="evenodd" d="M0 32V64H32H64V32V0H32H0V32ZM27 11.465C27 11.72 25.988 12.469 24.75 13.129C22.71 14.216 22.628 14.172 23.872 12.664C25.15 11.115 27 10.406 27 11.465ZM33 13.229C33 13.815 32.365 13.718 31.5 13C30.675 12.315 30 11.599 30 11.409C30 11.219 30.675 11.322 31.5 11.638C32.325 11.955 33 12.671 33 13.229ZM22.662 18.25C22.385 18.938 22.158 18.375 22.158 17C22.158 15.625 22.385 15.063 22.662 15.75C22.94 16.438 22.94 17.563 22.662 18.25ZM35 17.559C35 18.352 34.646 19 34.214 19C33.782 19 33.429 18.133 33.429 17.073C33.429 16.014 33.782 15.365 34.214 15.632C34.646 15.9 35 16.766 35 17.559ZM39.413 18.492C38.515 19.863 38.04 21.663 38.359 22.492C38.677 23.322 38.501 24 37.969 24C36.482 24 36.818 20.705 38.557 18.223C40.694 15.17 41.436 15.404 39.413 18.492ZM44.729 16.604C44.397 16.936 43.534 16.972 42.813 16.683C42.015 16.364 42.252 16.127 43.417 16.079C44.471 16.036 45.061 16.272 44.729 16.604ZM48.019 17.523C49.076 18.796 49.014 18.943 47.641 18.416C46.739 18.069 46 17.384 46 16.893C46 15.607 46.579 15.788 48.019 17.523ZM20 22C22.143 24.143 22.68 27 20.941 27C20.359 27 20.172 26.53 20.527 25.956C21.328 24.661 19.245 22.05 16.535 20.952C14.834 20.262 14.787 20.116 16.25 20.063C17.212 20.029 18.9 20.9 20 22ZM26.128 21.664C27.372 23.172 27.29 23.216 25.25 22.129C22.923 20.889 22.35 20 23.878 20C24.36 20 25.373 20.749 26.128 21.664ZM33 20.893C33 21.384 32.261 22.069 31.359 22.416C29.986 22.943 29.924 22.796 30.981 21.523C32.421 19.788 33 19.607 33 20.893ZM50 21.441C50 22.234 49.646 23.1 49.214 23.368C48.782 23.635 48.429 22.986 48.429 21.927C48.429 20.867 48.782 20 49.214 20C49.646 20 50 20.648 50 21.441ZM14 22C14 22.55 13.523 23 12.941 23C12.359 23 12.16 22.55 12.5 22C12.84 21.45 13.316 21 13.559 21C13.802 21 14 21.45 14 22ZM12.985 26.25C12.973 28.007 12.768 28.182 12.051 27.048C11.545 26.249 11.354 25.237 11.625 24.798C12.492 23.394 13 23.937 12.985 26.25ZM29.559 25.468C30.626 26.276 31.027 26.951 30.45 26.968C29.872 26.986 28.935 26.535 28.367 25.967C27.106 24.706 24.353 25.637 23.609 27.577C22.289 31.017 25.709 33.761 29.072 31.961C30.133 31.394 31 31.155 31 31.43C31 31.705 30.07 32.427 28.933 33.036C27.325 33.896 26.325 33.788 24.433 32.548C21.477 30.611 21.347 28.653 24 26C26.389 23.611 27.023 23.55 29.559 25.468ZM32 29C32 29.55 31.523 30 30.941 30C30.359 30 30.16 29.55 30.5 29C30.84 28.45 31.316 28 31.559 28C31.802 28 32 28.45 32 29ZM17.25 29.662C16.563 29.94 15.438 29.94 14.75 29.662C14.063 29.385 14.625 29.158 16 29.158C17.375 29.158 17.938 29.385 17.25 29.662ZM47 31.345C47 31.535 46.1 32.505 45 33.5C42.643 35.633 42.286 34.857 44.571 32.571C46.073 31.07 47 30.602 47 31.345ZM51.526 32.807C51.219 33.115 50.412 32.808 49.733 32.124C48.753 31.136 48.868 31.022 50.293 31.564C51.279 31.94 51.834 32.499 51.526 32.807ZM42 33.965C42 34.495 40.987 35.461 39.75 36.11C37.512 37.285 37.51 37.28 39.405 35.146C41.521 32.762 42 32.544 42 33.965ZM36.128 35.664C37.372 37.172 37.29 37.216 35.25 36.129C32.923 34.889 32.35 34 33.878 34C34.36 34 35.373 34.749 36.128 35.664ZM26.972 36.466C29.048 38.967 27.626 39.628 25.286 37.25C23.86 35.801 23.549 35 24.413 35C25.151 35 26.303 35.66 26.972 36.466ZM17.168 40.232C16.426 40.974 16.296 40.583 16.731 38.92C17.085 37.568 17.538 37.114 17.788 37.863C18.028 38.585 17.75 39.65 17.168 40.232ZM45.539 39.043C47.058 40.721 47.099 40.975 45.771 40.466C44.882 40.125 43.909 39.205 43.609 38.423C42.862 36.476 43.361 36.636 45.539 39.043ZM32.5 39C32.16 39.55 31.346 39.993 30.691 39.985C29.975 39.975 30.099 39.582 31 39C32.921 37.758 33.267 37.758 32.5 39ZM37 41.5C37 42.19 36.245 43.373 35.323 44.128C33.819 45.358 33.759 45.296 34.738 43.526C35.522 42.11 35.525 40.979 34.751 39.526C33.784 37.71 33.845 37.642 35.336 38.872C36.251 39.627 37 40.81 37 41.5ZM13 40C13 40.55 12.802 41 12.559 41C12.316 41 11.84 40.55 11.5 40C11.16 39.45 11.359 39 11.941 39C12.523 39 13 39.45 13 40ZM52 39.393C52 39.609 51.302 40.054 50.448 40.382C49.558 40.723 49.157 40.555 49.507 39.989C50.094 39.038 52 38.583 52 39.393ZM23 41C23 41.55 22.802 42 22.559 42C22.316 42 21.84 41.55 21.5 41C21.16 40.45 21.359 40 21.941 40C22.523 40 23 40.45 23 41ZM40.5 44C40.16 44.55 39.432 45 38.882 45C38.332 45 38.16 44.55 38.5 44C38.84 43.45 39.568 43 40.118 43C40.668 43 40.84 43.45 40.5 44ZM23.423 44.875C23.72 45.356 22.799 45.75 21.375 45.75C19.546 45.75 19.184 45.498 20.143 44.89C21.883 43.788 22.749 43.784 23.423 44.875ZM39 47C39 47.55 38.802 48 38.559 48C38.316 48 37.84 47.55 37.5 47C37.16 46.45 37.359 46 37.941 46C38.523 46 39 46.45 39 47ZM20.382 48.552C20.723 49.442 20.555 49.843 19.989 49.493C19.445 49.157 19 48.459 19 47.941C19 46.503 19.717 46.82 20.382 48.552ZM23.124 49.267C22.136 50.247 22.022 50.132 22.564 48.707C22.94 47.721 23.499 47.166 23.807 47.474C24.115 47.781 23.808 48.588 23.124 49.267ZM31 47.345C31 47.535 30.1 48.505 29 49.5C26.643 51.633 26.286 50.857 28.571 48.571C30.073 47.07 31 46.602 31 47.345ZM45 48.465C45 48.72 44.127 49.397 43.061 49.968C41.676 50.709 40.917 50.675 40.406 49.848C39.979 49.157 40.128 48.961 40.776 49.362C41.373 49.731 42.144 49.575 42.49 49.016C43.118 48 45 47.587 45 48.465Z" fill="#9D9EA3"/>
<path fill-rule="evenodd" clip-rule="evenodd" d="M0 32V64H32H64V32V0H32H0V32ZM31.418 11.607C32.288 11.941 33 12.62 33 13.115C33 13.611 32.168 13.497 31.151 12.862C28.356 11.116 24.144 12.579 23.397 15.556C22.232 20.197 28.494 24.106 31.8 20.8C32.712 19.888 33 19.884 33 20.781C33 22.536 28.203 23.414 25.454 22.161C22.264 20.708 21.318 16.69 23.413 13.493C25.023 11.036 28.063 10.319 31.418 11.607ZM35 17.559C35 18.352 34.646 19 34.214 19C33.782 19 33.429 18.133 33.429 17.073C33.429 16.014 33.782 15.365 34.214 15.632C34.646 15.9 35 16.766 35 17.559ZM48.954 19.215C49.95 20.997 50.132 22.267 49.485 22.914C48.839 23.56 48.448 23.012 48.348 21.318C48.168 18.281 46.543 17.036 42.729 17.015C40.728 17.004 39.637 17.702 38.808 19.523C37.834 21.659 37.995 22.502 39.859 25.023C42.435 28.507 41.968 28.955 39.039 25.811C36.585 23.177 36.47 21.202 38.595 18.168C40.915 14.855 46.854 15.456 48.954 19.215ZM20 22C21.1 23.1 22 24.413 22 24.918C22 26.675 20.78 29 19.858 29C19.347 29 19.441 28.045 20.065 26.878C21.006 25.12 20.838 24.394 19.089 22.645C17.305 20.861 16.671 20.724 15.002 21.766C12.257 23.481 11.078 23.256 13.441 21.468C16.054 19.492 17.619 19.619 20 22ZM16.036 29.114C18.331 29.753 18.349 29.807 16.307 29.9C13.887 30.01 10.697 26.298 11.749 24.597C12.121 23.995 12.67 24.602 12.994 25.974C13.343 27.454 14.55 28.699 16.036 29.114ZM30 26C31.1 27.1 32 28.45 32 29C32 30.178 28.348 34 27.223 34C25.628 34 22 30.835 22 29.443C22 27.801 25.491 24 27 24C27.55 24 28.9 24.9 30 26ZM24.571 26.571C23.707 27.436 23 28.529 23 29C23 30.025 25.859 33.006 26.821 32.985C29.837 32.917 31.365 28.64 29.104 26.594C26.919 24.617 26.528 24.615 24.571 26.571ZM47 26.5C46.315 27.325 45.274 28 44.686 28C44.099 28 44.491 27.339 45.559 26.532C48.067 24.634 48.557 24.624 47 26.5ZM39.269 28.656C38.592 28.93 37.242 28.947 36.269 28.693C35.296 28.439 35.85 28.215 37.5 28.195C39.15 28.175 39.946 28.382 39.269 28.656ZM33.683 32.188C33.364 32.985 33.127 32.748 33.079 31.583C33.036 30.529 33.272 29.939 33.604 30.271C33.936 30.603 33.972 31.466 33.683 32.188ZM46.223 32.557C43.58 34.407 43.387 36.665 45.655 39.171C47.675 41.403 46.763 41.62 44.571 39.429C43.707 38.564 43 37.021 43 36C43 33.932 45.518 31 47.294 31C47.927 31 47.445 31.701 46.223 32.557ZM52.391 33.577C53.138 35.524 52.639 35.364 50.461 32.957C48.942 31.279 48.901 31.025 50.229 31.534C51.118 31.875 52.091 32.795 52.391 33.577ZM42 33.465C42 34.27 41.045 35.441 39.877 36.066C37.763 37.197 37.762 37.192 39.627 34.632C41.827 31.615 42 31.529 42 33.465ZM17.5 37.514C17.5 39.893 17.019 40.568 15.135 40.835C13.834 41.019 12.273 40.673 11.666 40.066C10.861 39.261 11.434 39.137 13.781 39.606C16.733 40.197 17 40.039 17 37.698C17 36.131 16.325 34.948 15.25 34.631C13.89 34.23 13.946 34.161 15.5 34.321C17.007 34.477 17.5 35.263 17.5 37.514ZM36.128 35.664C37.372 37.172 37.29 37.216 35.25 36.129C32.923 34.889 32.35 34 33.878 34C34.36 34 35.373 34.749 36.128 35.664ZM12.345 36.543C12.019 37.392 11.538 37.872 11.276 37.61C11.014 37.348 11.096 36.653 11.459 36.067C12.445 34.471 13.021 34.781 12.345 36.543ZM27.07 36.584C28.533 38.348 27.419 41.066 24.929 41.805C24.143 42.039 24.4 41.53 25.5 40.676C27.43 39.176 27.437 39.059 25.689 37.311C23.941 35.563 23.828 35.567 22.439 37.441C21.647 38.509 21 38.936 21 38.391C21 37.032 23.143 35 24.578 35C25.225 35 26.347 35.713 27.07 36.584ZM53 37.429C53 38.291 49.827 41 48.818 41C48.246 41 48.841 40.115 50.139 39.033C52.645 36.946 53 36.747 53 37.429ZM32.5 39C32.16 39.55 31.346 39.993 30.691 39.985C29.975 39.975 30.099 39.582 31 39C32.921 37.758 33.267 37.758 32.5 39ZM37 41.5C37 42.19 36.245 43.373 35.323 44.128C33.819 45.358 33.759 45.296 34.738 43.526C35.522 42.11 35.525 40.979 34.751 39.526C33.784 37.71 33.845 37.642 35.336 38.872C36.251 39.627 37 40.81 37 41.5ZM23 41C23 41.55 22.802 42 22.559 42C22.316 42 21.84 41.55 21.5 41C21.16 40.45 21.359 40 21.941 40C22.523 40 23 40.45 23 41ZM39.672 45.415C39.046 46.743 38.187 47.615 37.764 47.354C36.829 46.777 38.718 43 39.941 43C40.42 43 40.299 44.087 39.672 45.415ZM44.903 46.431C44.64 46.694 43.829 45.917 43.1 44.705C41.835 42.598 41.857 42.577 43.579 44.226C44.57 45.176 45.166 46.168 44.903 46.431ZM23.844 46.439C24.033 47.414 23.771 48.629 23.261 49.139C22.692 49.708 22.366 49.297 22.417 48.074C22.463 46.978 22.05 46.082 21.5 46.082C20.95 46.082 20.533 46.941 20.574 47.991C20.615 49.041 20.277 49.671 19.824 49.391C18.548 48.602 18.852 45.226 20.25 44.667C22.205 43.885 23.469 44.508 23.844 46.439ZM31.601 48.25C31.997 48.938 31.952 49.166 31.502 48.759C30.463 47.817 27.836 49.926 28.57 51.113C28.871 51.601 28.893 52 28.618 52C27.207 52 27.174 49.969 28.562 48.581C30.468 46.675 30.681 46.652 31.601 48.25ZM45 48.465C45 48.72 44.127 49.397 43.061 49.968C41.676 50.709 40.917 50.675 40.406 49.848C39.979 49.157 40.128 48.961 40.776 49.362C41.373 49.731 42.144 49.575 42.49 49.016C43.118 48 45 47.587 45 48.465ZM32.541 51.933C32.179 52.52 31.441 53 30.902 53C30.362 53 30.501 52.37 31.211 51.601C32.646 50.043 33.567 50.273 32.541 51.933Z" fill="#828388"/>
<path fill-rule="evenodd" clip-rule="evenodd" d="M0 32V64H32H64V32V0H32H0V32ZM31.6 11.765C32.205 12.169 33.264 13.569 33.952 14.875C36.529 19.763 30.859 24.624 25.454 22.161C20.186 19.761 22.012 10.983 27.773 11.015C29.273 11.024 30.995 11.361 31.6 11.765ZM24.571 13.571C22.484 15.659 22.584 18.314 24.829 20.345C27.47 22.735 30.703 22.383 32.592 19.5C34.109 17.184 34.109 16.816 32.592 14.5C30.709 11.626 26.952 11.191 24.571 13.571ZM48.948 19.204C50.342 21.699 50.298 22.125 48.381 24.704C45.685 28.33 41.835 28.813 39.093 25.869C36.586 23.178 36.459 21.217 38.595 18.168C40.912 14.861 46.853 15.455 48.948 19.204ZM38.837 19.459C37.339 22.747 39.969 27 43.5 27C48.014 27 50.249 20.283 46.573 17.765C44.108 16.078 39.964 16.985 38.837 19.459ZM20 22C22.408 24.408 22.535 26.322 20.429 28.429C18.211 30.646 14.379 30.379 12.632 27.885C11.006 25.563 11.437 23.179 13.831 21.25C16.018 19.488 17.691 19.691 20 22ZM14.046 22.445C11.978 24.936 13.162 28.461 16.183 28.81C19.944 29.244 21.913 25.666 19.425 22.917C17.355 20.63 15.675 20.482 14.046 22.445ZM30 26C31.1 27.1 32 28.45 32 29C32 30.178 28.348 34 27.223 34C25.628 34 22 30.835 22 29.443C22 27.801 25.491 24 27 24C27.55 24 28.9 24.9 30 26ZM24.571 26.571C23.707 27.436 23 28.529 23 29C23 30.025 25.859 33.006 26.821 32.985C29.837 32.917 31.365 28.64 29.104 26.594C26.919 24.617 26.528 24.615 24.571 26.571ZM40.51 29.016C40.856 29.575 41.476 29.824 41.888 29.569C42.301 29.314 42.438 30.467 42.194 32.131C41.645 35.873 38.273 37.751 35.126 36.068C32.789 34.817 32.289 31.111 34.2 29.2C35.663 27.737 39.647 27.621 40.51 29.016ZM34.309 30.636C33.482 32.792 35.259 35.5 37.5 35.5C38.48 35.5 39.74 34.774 40.3 33.886C41.828 31.464 40.416 29 37.5 29C36.05 29 34.665 29.71 34.309 30.636ZM51.429 32.571C54.461 35.604 52.266 41 48 41C46.979 41 45.436 40.293 44.571 39.429C43.707 38.564 43 37.021 43 36C43 34.979 43.707 33.436 44.571 32.571C45.436 31.707 46.979 31 48 31C49.021 31 50.564 31.707 51.429 32.571ZM45.04 33.452C43.485 35.325 44.028 37.989 46.25 39.388C49.715 41.57 53.617 36.653 50.96 33.452C49.416 31.591 46.584 31.591 45.04 33.452ZM17.5 37.5C17.5 40.164 17.165 40.5 14.514 40.5C12.434 40.5 11.422 39.954 11.181 38.702C10.7 36.201 12.915 33.845 15.412 34.202C16.999 34.428 17.5 35.22 17.5 37.5ZM12.38 36.452C11.605 38.473 12.758 40 15.059 40C16.463 40 17 39.308 17 37.5C17 35.654 16.469 35 14.969 35C13.851 35 12.686 35.653 12.38 36.452ZM27.07 36.584C28.846 38.724 27.059 41.5 23.905 41.5C21.184 41.5 20.157 38.721 22.04 36.452C23.608 34.562 25.432 34.61 27.07 36.584ZM22.38 37.452C21.676 39.286 22.7 41 24.5 41C26.558 41 27.338 39.112 25.964 37.456C24.425 35.603 23.09 35.601 22.38 37.452ZM36.376 40.231C37.947 42.727 34.727 45.947 32.231 44.376C30.004 42.973 29.418 39.988 31.152 38.871C33.036 37.657 35.092 38.193 36.376 40.231ZM31.38 40.452C30.683 42.267 31.695 44 33.452 44C34.982 44 35.91 42.085 35.269 40.25C34.672 38.537 32.063 38.673 31.38 40.452ZM43.8 44.2C45.614 46.014 45.24 48.801 43.023 49.988C40.156 51.522 36.478 47.844 38.012 44.977C39.199 42.76 41.986 42.386 43.8 44.2ZM23.5 47.083C23.5 48.828 22.947 49.5 21.514 49.5C19.167 49.5 18.175 46.138 20.152 44.886C22.22 43.577 23.5 44.416 23.5 47.083ZM39.667 44.667C38.483 45.85 38.958 48.77 40.427 49.334C42.256 50.035 44.401 47.487 43.643 45.513C43.046 43.955 40.846 43.487 39.667 44.667ZM20.639 45.694C19.444 46.889 19.994 49 21.5 49C22.325 49 23 48.352 23 47.559C23 45.888 21.573 44.761 20.639 45.694ZM33 50.654C33 52.767 30.052 53.481 28.351 51.78C27.026 50.454 27.047 50.096 28.535 48.608C29.832 47.311 30.527 47.193 31.606 48.088C32.373 48.724 33 49.879 33 50.654ZM29.122 49.353C27.906 50.818 28.596 52 30.667 52C32.156 52 32.492 49.422 31.113 48.57C30.626 48.269 29.73 48.621 29.122 49.353Z" fill="#0A0C19"/>
<path fill-rule="evenodd" clip-rule="evenodd" d="M24.571 13.571C22.484 15.659 22.584 18.314 24.829 20.345C27.47 22.735 30.703 22.383 32.592 19.5C34.109 17.184 34.109 16.816 32.592 14.5C30.709 11.626 26.952 11.191 24.571 13.571ZM38.837 19.459C37.339 22.747 39.969 27 43.5 27C48.014 27 50.249 20.283 46.573 17.765C44.108 16.078 39.964 16.985 38.837 19.459ZM14.046 22.445C11.978 24.936 13.162 28.461 16.183 28.81C19.944 29.244 21.913 25.666 19.425 22.917C17.355 20.63 15.675 20.482 14.046 22.445ZM24.571 26.571C23.707 27.436 23 28.529 23 29C23 30.025 25.859 33.006 26.821 32.985C29.837 32.917 31.365 28.64 29.104 26.594C26.919 24.617 26.528 24.615 24.571 26.571ZM34.309 30.636C33.482 32.792 35.259 35.5 37.5 35.5C38.48 35.5 39.74 34.774 40.3 33.886C41.828 31.464 40.416 29 37.5 29C36.05 29 34.665 29.71 34.309 30.636ZM45.04 33.452C43.485 35.325 44.028 37.989 46.25 39.388C49.715 41.57 53.617 36.653 50.96 33.452C49.416 31.591 46.584 31.591 45.04 33.452ZM12.38 36.452C11.605 38.473 12.758 40 15.059 40C16.463 40 17 39.308 17 37.5C17 35.654 16.469 35 14.969 35C13.851 35 12.686 35.653 12.38 36.452ZM22.38 37.452C21.676 39.286 22.7 41 24.5 41C26.558 41 27.338 39.112 25.964 37.456C24.425 35.603 23.09 35.601 22.38 37.452ZM31.38 40.452C30.683 42.267 31.695 44 33.452 44C34.982 44 35.91 42.085 35.269 40.25C34.672 38.537 32.063 38.673 31.38 40.452ZM39.667 44.667C38.483 45.85 38.958 48.77 40.427 49.334C42.256 50.035 44.401 47.487 43.643 45.513C43.046 43.955 40.846 43.487 39.667 44.667ZM20.639 45.694C19.444 46.889 19.994 49 21.5 49C22.325 49 23 48.352 23 47.559C23 45.888 21.573 44.761 20.639 45.694ZM29.122 49.353C27.906 50.818 28.596 52 30.667 52C32.156 52 32.492 49.422 31.113 48.57C30.626 48.269 29.73 48.621 29.122 49.353Z" fill="#FEFFFF"/>
</g>
<defs>
<clipPath id="clip0_1_2">
<rect width="64" height="64" rx="32" fill="white"/>
</clipPath>
</defs>
</svg>
