<svg width="250" height="250" viewBox="0 0 250 250" fill="none" xmlns="http://www.w3.org/2000/svg">
<path fill-rule="evenodd" clip-rule="evenodd" d="M0 125V250H125H250V125V0H125H0V125Z" fill="white"/>
<path fill-rule="evenodd" clip-rule="evenodd" d="M117.5 14.674C110.547 15.542 109.903 15.966 107.776 21.085C106.419 24.35 105.229 25.918 104.361 25.585C103.29 25.174 103.264 25.449 104.227 26.992C105.764 29.453 105.224 29.915 100.43 30.236C98.269 30.381 96.275 30.776 96 31.114C95.725 31.451 93.057 32.438 90.072 33.307L84.643 34.886L80.975 31.981C78.958 30.383 76.733 28.384 76.031 27.538C73.976 25.061 70.07 25.742 63.336 29.75C57.283 33.353 57.034 33.657 57.023 37.5C57.017 39.7 57.481 43.191 58.055 45.257L59.098 49.014L51.405 56.757C43.29 64.924 43.278 64.929 35.484 62.911C30.88 61.719 26 63.018 26 65.436C26 66.253 25.198 67.727 24.218 68.711C23.239 69.695 21.866 72.169 21.169 74.209C19.739 78.39 20.613 80.419 26.661 86.95C29.219 89.713 29.657 90.772 28.858 92.265C27.679 94.469 27.138 96.52 25.683 104.317C24.325 111.59 24.795 111.964 35.316 111.985C44.64 112.003 46.561 111.154 47.408 106.637C48.099 102.956 54.136 88.481 55.495 87.249C55.949 86.837 55.954 87.132 55.506 87.905C54.97 88.828 55.071 89.074 55.802 88.622C56.413 88.245 56.72 87.388 56.484 86.718C56.249 86.048 56.736 84.602 57.568 83.505C58.872 81.783 59.219 81.714 60.105 83.005C60.918 84.19 61.012 84.071 60.556 82.431C59.452 78.462 73.129 65.539 84.5 59.808C86.15 58.976 88.85 57.606 90.5 56.763C96.123 53.891 110.14 51 118.44 51.001C125.56 51.002 137.313 52.765 142.647 54.633C155.402 59.099 171.028 69.528 169.257 72.393C168.946 72.897 169.181 73.006 169.781 72.635C171.794 71.391 178.797 79.902 177.494 82.009C177.165 82.542 177.522 82.737 178.288 82.443C180.089 81.752 182.394 84.53 181.643 86.487C181.301 87.38 181.619 88 182.421 88C183.98 88 186.67 93.424 190.11 103.5C192.248 109.762 192.496 112.187 192.46 126.5C192.428 139.683 192.121 143.028 190.716 145.5C189.779 147.15 189.01 148.986 189.006 149.581C188.991 152.219 184.369 159.628 182.975 159.249C181.731 158.911 181.72 159.002 182.905 159.829C185.325 161.518 173.414 176.842 164.5 183.509C143.346 199.329 117.245 203.096 92.429 193.911C89.168 192.704 85.375 190.977 84 190.072C82.625 189.168 80.228 187.787 78.673 187.004C77.117 186.22 75.414 184.774 74.887 183.79C74.361 182.805 73.344 182 72.627 182C71.137 182 65.14 175.817 59.532 168.5C55.303 162.981 48.268 148.688 47.323 143.694C46.33 138.446 45.479 138 36.459 138C31.897 138 27.452 138.273 26.582 138.607C24.337 139.468 24.563 145.001 27.174 153.107L29.347 159.856L26.459 163.642C24.871 165.725 22.768 168.232 21.786 169.214C20.803 170.197 20 171.444 20 171.986C20 174.11 27.266 186.536 28.858 187.134C30.217 187.644 38.963 186.773 43.023 185.724C43.499 185.601 47.248 188.975 51.353 193.222C58.704 200.826 58.809 201.007 58.248 205.189C57.784 208.647 57.519 209.07 56.82 207.467C56.209 206.066 56.111 206.471 56.481 208.875C56.766 210.731 57 213.272 57 214.52C57 216.24 58.256 217.447 62.178 219.498C65.026 220.987 68.108 222.675 69.027 223.249C71.549 224.824 75.011 223.49 80 219.021C82.79 216.522 85.07 215.222 86 215.602C86.825 215.939 91.461 217.178 96.302 218.356C103.867 220.197 105.035 220.758 104.619 222.348C104.353 223.365 104.417 223.916 104.761 223.572C105.106 223.228 106.355 225.546 107.538 228.723L109.688 234.5L116.594 235C125.883 235.673 129.149 235.146 129.742 232.879C130.009 231.858 130.621 231.266 131.102 231.563C131.583 231.861 131.703 231.389 131.367 230.514C131.032 229.64 131.524 226.916 132.462 224.46C133.765 221.048 134.795 219.869 136.833 219.458C138.3 219.161 142.836 218.059 146.914 217.009L154.328 215.098L157.414 217.701C159.111 219.132 160.401 221.023 160.279 221.902C160.15 222.839 160.287 222.984 160.612 222.251C161.04 221.286 161.652 221.343 163.305 222.501C166.586 224.799 168.957 224.325 175.75 220.016C182.543 215.707 182.534 215.729 180.935 206.548L179.87 200.432L187.282 192.947L194.694 185.463L201.435 186.805C205.143 187.542 208.793 187.909 209.547 187.62C211.38 186.917 217.72 177.183 218.532 173.825C219.06 171.645 218.464 170.35 215.311 166.825C208.63 159.355 208.846 160.204 211.475 151.681C214.094 143.194 214 143.567 214 141.633C214 140.324 222.874 136 225.562 136C228.748 136 230 132.936 229.985 125.179C229.976 120.955 229.62 116.951 229.194 116.279C228.767 115.608 226.412 114.363 223.959 113.513C221.507 112.662 218.825 111.676 218 111.32C217.175 110.964 216.081 110.634 215.569 110.586C214.525 110.49 210.954 96.922 211.664 95.75C211.914 95.338 211.694 95 211.176 95C209.586 95 209.091 89.902 210.624 89.314C211.381 89.024 212 88.231 212 87.554C212 86.876 213.575 84.888 215.5 83.136C217.425 81.385 219 79.018 219 77.876C219 75.853 212.52 64.28 210.509 62.714C209.512 61.937 207.72 62.121 199.068 63.891C194.013 64.925 192.302 64.526 191.543 62.136C191.25 61.212 189.249 58.666 187.096 56.478C183.926 53.257 183.402 52.215 184.341 51C185.361 49.68 185.281 49.673 183.674 50.936C182.087 52.183 181.727 52.183 180.926 50.936C179.959 49.431 180.654 42.159 182.146 38.16C182.859 36.248 182.494 35.334 180.151 33.16C178.573 31.697 175.034 29.296 172.285 27.824L167.287 25.147L163.894 27.276C162.027 28.447 160.157 29.426 159.737 29.452C159.317 29.479 157.967 30.761 156.737 32.303L154.5 35.107L144.206 32.312L133.911 29.518L131.899 22.894C129.319 14.399 127.594 13.414 117.5 14.674ZM105.079 21.583C105.127 22.748 105.364 22.985 105.683 22.188C105.972 21.466 105.936 20.603 105.604 20.271C105.272 19.939 105.036 20.529 105.079 21.583ZM136.813 25.683C137.534 25.972 138.397 25.936 138.729 25.604C139.061 25.272 138.471 25.036 137.417 25.079C136.252 25.127 136.015 25.364 136.813 25.683ZM56.079 46.583C56.127 47.748 56.364 47.985 56.683 47.188C56.972 46.466 56.936 45.603 56.604 45.271C56.272 44.939 56.036 45.529 56.079 46.583ZM182.195 47.5C182.215 49.15 182.439 49.704 182.693 48.731C182.947 47.758 182.93 46.408 182.656 45.731C182.382 45.054 182.175 45.85 182.195 47.5ZM31.269 57.693C32.242 57.947 33.592 57.93 34.269 57.656C34.946 57.382 34.15 57.175 32.5 57.195C30.85 57.215 30.296 57.439 31.269 57.693ZM109.5 57.631C103.824 58.495 91.498 62.331 89.822 63.754C88.794 64.628 87.243 64.926 85.822 64.525C84.104 64.04 83.877 64.128 84.948 64.866C86.119 65.672 85.831 66.115 83.448 67.179C81.827 67.904 79.565 69.397 78.423 70.498C77.281 71.599 74.89 73.602 73.109 74.949C65.895 80.405 54.074 100.277 54.042 107C54.019 111.9 54.181 111.933 77.484 111.896C89.533 111.876 98.825 111.51 98.133 111.082C97.194 110.502 97.544 109.507 99.506 107.175C100.954 105.454 102.513 104.148 102.969 104.273C103.426 104.398 103.814 104.09 103.832 103.588C103.866 102.617 108.86 100.233 113 99.211C123.538 96.61 139.364 103.548 141.603 111.75C141.94 112.987 142.581 114 143.026 114C143.935 114 146 122.755 146 126.608C146 127.989 145.662 128.911 145.25 128.658C144.838 128.406 144.463 129.816 144.417 131.794C144.371 133.771 143.809 135.564 143.167 135.778C142.525 135.992 142 136.991 142 137.998C142 140.776 133.505 147.667 127.147 150.047C121.887 152.015 119.89 152.103 113 150.673C107.183 149.466 101.505 146.031 105.25 145.985C106.108 145.974 106.044 145.681 105.048 145.051C104.249 144.545 103.195 144.379 102.706 144.682C102.216 144.984 100.474 143.605 98.835 141.616L95.854 138H76.509C65.869 138 56.452 138.273 55.582 138.607C52.731 139.701 53.621 144.815 58.542 155.608C62.519 164.331 72.053 175.29 80.5 180.849C82.7 182.297 84.77 183.853 85.1 184.307C85.43 184.761 86.33 185.238 87.1 185.367C87.87 185.495 90.075 186.327 92 187.214C98.527 190.223 111.465 193.007 119.5 193.132C138.932 193.433 162.017 181.721 173.717 165.625C177.802 160.006 182.99 150.257 182.996 148.191C182.998 147.471 183.408 147.134 183.907 147.442C184.405 147.751 184.591 146.99 184.32 145.751C184.023 144.395 184.159 143.959 184.663 144.654C185.724 146.116 186.498 136.833 186.468 123C186.449 113.664 186.064 111.392 182.999 102.5C181.103 97 179.202 92.35 178.776 92.167C178.349 91.983 178 91.233 178 90.5C178 89.767 177.662 89.017 177.25 88.833C176.838 88.65 175.454 87.01 174.175 85.189C171.991 82.079 171.947 81.73 173.448 79.439C174.436 77.931 174.62 77 173.929 77C173.315 77 172.577 77.9 172.29 79C172.002 80.1 171.594 81 171.383 81C170.23 81 167.021 76.776 167.538 75.939C167.874 75.395 167.778 75.015 167.324 75.094C165.059 75.487 163.841 74.857 164.342 73.551C164.713 72.585 164.418 72.286 163.458 72.655C162.662 72.96 161.741 72.489 161.401 71.604C161.063 70.722 160.354 70 159.826 70C159.298 70 157.434 68.957 155.683 67.681C153.932 66.406 150.6 64.543 148.277 63.542C145.955 62.54 144.275 61.365 144.544 60.93C144.813 60.494 144.506 59.813 143.862 59.415C143.131 58.963 142.959 59.124 143.405 59.845C144.317 61.321 143.673 61.288 137.021 59.518C131.278 57.99 114.638 56.849 109.5 57.631ZM137.269 57.693C138.242 57.947 139.592 57.93 140.269 57.656C140.946 57.382 140.15 57.175 138.5 57.195C136.85 57.215 136.296 57.439 137.269 57.693ZM208.813 57.683C209.534 57.972 210.397 57.936 210.729 57.604C211.061 57.272 210.471 57.036 209.417 57.079C208.252 57.127 208.015 57.364 208.813 57.683ZM90 60.059C90 60.641 90.45 60.84 91 60.5C91.55 60.16 92 59.684 92 59.441C92 59.198 91.55 59 91 59C90.45 59 90 59.477 90 60.059ZM84.5 62C84.16 62.55 84.332 63 84.882 63C85.432 63 86.16 62.55 86.5 62C86.84 61.45 86.668 61 86.118 61C85.568 61 84.84 61.45 84.5 62ZM81.5 66C81.84 66.55 82.316 67 82.559 67C82.802 67 83 66.55 83 66C83 65.45 82.523 65 81.941 65C81.359 65 81.16 65.45 81.5 66ZM19 82.5C19 83.325 19.436 84 19.969 84C20.501 84 20.678 83.325 20.362 82.5C20.045 81.675 19.609 81 19.393 81C19.177 81 19 81.675 19 82.5ZM26.564 91.707C26.022 93.132 26.136 93.247 27.124 92.267C27.808 91.588 28.115 90.781 27.807 90.474C27.499 90.166 26.94 90.721 26.564 91.707ZM54.079 92.583C54.127 93.748 54.364 93.985 54.683 93.188C54.972 92.466 54.936 91.603 54.604 91.271C54.272 90.939 54.036 91.529 54.079 92.583ZM24.031 94.5C24.031 95.05 24.467 96.175 25 97C25.533 97.825 25.969 98.05 25.969 97.5C25.969 96.95 25.533 95.825 25 95C24.467 94.175 24.031 93.95 24.031 94.5ZM183.5 100C183.84 100.55 184.316 101 184.559 101C184.802 101 185 100.55 185 100C185 99.45 184.523 99 183.941 99C183.359 99 183.16 99.45 183.5 100ZM117.813 100.683C118.534 100.972 119.397 100.936 119.729 100.604C120.061 100.272 119.471 100.036 118.417 100.079C117.252 100.127 117.015 100.364 117.813 100.683ZM188.158 105C188.158 106.375 188.385 106.938 188.662 106.25C188.94 105.563 188.94 104.438 188.662 103.75C188.385 103.063 188.158 103.625 188.158 105ZM185.079 105.583C185.127 106.748 185.364 106.985 185.683 106.188C185.972 105.466 185.936 104.603 185.604 104.271C185.272 103.939 185.036 104.529 185.079 105.583ZM49.079 110.583C49.127 111.748 49.364 111.985 49.683 111.188C49.972 110.466 49.936 109.603 49.604 109.271C49.272 108.939 49.036 109.529 49.079 110.583ZM190.079 111.583C190.127 112.748 190.364 112.985 190.683 112.188C190.972 111.466 190.936 110.603 190.604 110.271C190.272 109.939 190.036 110.529 190.079 111.583ZM188.195 133.5C188.215 135.15 188.439 135.704 188.693 134.731C188.947 133.758 188.93 132.408 188.656 131.731C188.382 131.054 188.175 131.85 188.195 133.5ZM139.079 138.583C139.127 139.748 139.364 139.985 139.683 139.188C139.972 138.466 139.936 137.603 139.604 137.271C139.272 136.939 139.036 137.529 139.079 138.583ZM190.079 142.583C190.127 143.748 190.364 143.985 190.683 143.188C190.972 142.466 190.936 141.603 190.604 141.271C190.272 140.939 190.036 141.529 190.079 142.583ZM215.459 142.067C215.096 142.653 215.014 143.348 215.276 143.61C215.538 143.872 216.019 143.392 216.345 142.543C217.021 140.781 216.445 140.471 215.459 142.067ZM51.564 144.293C51.94 145.279 52.499 145.834 52.807 145.526C53.115 145.219 52.808 144.412 52.124 143.733C51.136 142.753 51.022 142.868 51.564 144.293ZM107.813 144.683C108.534 144.972 109.397 144.936 109.729 144.604C110.061 144.272 109.471 144.036 108.417 144.079C107.252 144.127 107.015 144.364 107.813 144.683ZM125.813 145.683C126.534 145.972 127.397 145.936 127.729 145.604C128.061 145.272 127.471 145.036 126.417 145.079C125.252 145.127 125.015 145.364 125.813 145.683ZM24.079 150.583C24.127 151.748 24.364 151.985 24.683 151.188C24.972 150.466 24.936 149.603 24.604 149.271C24.272 148.939 24.036 149.529 24.079 150.583ZM213.731 150.92C213.296 152.583 213.426 152.974 214.168 152.232C214.75 151.65 215.028 150.585 214.788 149.863C214.538 149.114 214.085 149.568 213.731 150.92ZM211.624 156.539C210.659 159.053 210.943 159.702 212.122 157.675C212.706 156.671 212.973 155.639 212.715 155.382C212.458 155.124 211.966 155.645 211.624 156.539ZM25.872 160.75C24.629 162.336 24.664 162.371 26.25 161.128C27.916 159.821 28.445 159 27.622 159C27.415 159 26.627 159.787 25.872 160.75ZM18.5 169C18.84 169.55 19.316 170 19.559 170C19.802 170 20 169.55 20 169C20 168.45 19.523 168 18.941 168C18.359 168 18.16 168.45 18.5 169ZM19.079 178.583C19.127 179.748 19.364 179.985 19.683 179.188C19.972 178.466 19.936 177.603 19.604 177.271C19.272 176.939 19.036 177.529 19.079 178.583ZM71 179.059C71 179.641 71.45 179.84 72 179.5C72.55 179.16 73 178.684 73 178.441C73 178.198 72.55 178 72 178C71.45 178 71 178.477 71 179.059ZM77 184.393C77 184.609 77.698 185.054 78.552 185.382C79.442 185.723 79.843 185.555 79.493 184.989C78.906 184.038 77 183.583 77 184.393ZM152 188.059C152 188.641 152.45 188.84 153 188.5C153.55 188.16 154 187.684 154 187.441C154 187.198 153.55 187 153 187C152.45 187 152 187.477 152 188.059ZM103.507 193.989C103.157 194.555 103.558 194.723 104.448 194.382C106.18 193.717 106.497 193 105.059 193C104.541 193 103.843 193.445 103.507 193.989ZM182.374 200.467C182.065 201.274 182.004 202.511 182.24 203.217C182.476 203.923 182.906 203.262 183.196 201.75C183.762 198.797 183.295 198.068 182.374 200.467ZM135.204 222.452C134.335 224.358 134.364 224.798 135.332 224.426C136.018 224.163 136.645 223.06 136.727 221.974C136.923 219.369 136.556 219.484 135.204 222.452ZM105.031 230.5C105.031 231.05 105.467 232.175 106 233C106.533 233.825 106.969 234.05 106.969 233.5C106.969 232.95 106.533 231.825 106 231C105.467 230.175 105.031 229.95 105.031 230.5ZM131.564 234.707C131.022 236.132 131.136 236.247 132.124 235.267C132.808 234.588 133.115 233.781 132.807 233.474C132.499 233.166 131.94 233.721 131.564 234.707Z" fill="#F2F2F2"/>
<path fill-rule="evenodd" clip-rule="evenodd" d="M111.282 15.805C110.612 16.23 108.812 19.68 107.282 23.471L104.5 30.363L96.5 32.217C92.1 33.236 87.504 34.329 86.288 34.645C84.629 35.075 82.724 34.064 78.68 30.609C75.712 28.074 72.633 26 71.838 26C71.042 26 68.263 27.35 65.661 29C63.059 30.65 60.551 32 60.088 32C59.624 32 58.678 32.684 57.984 33.519C56.971 34.74 56.97 36.478 57.978 42.372L59.233 49.707L51.528 57.312C43.881 64.861 43.793 64.912 39.662 64.249C37.373 63.882 33.771 63.563 31.659 63.541C28.15 63.504 27.62 63.867 25.539 67.74C24.287 70.072 22.823 72.547 22.286 73.24C19.938 76.272 20.207 77.984 23.769 82.682C25.778 85.332 28.002 88.095 28.711 88.821C30.279 90.429 30.364 89.533 28.044 95.88C26.968 98.823 25.798 103.164 25.444 105.527C24.624 110.991 26.224 112 35.712 112C43.914 112 46.488 110.542 47.318 105.427C48.111 100.539 56.103 84.479 60.207 79.525C74.175 62.665 89.884 53.948 111.541 51.041C120.846 49.792 131.721 50.893 141.95 54.121C175.751 64.785 198.273 100.691 193 135.507C191.287 146.815 184.726 162.564 178.793 169.608C171.934 177.753 170.19 179.506 164.92 183.562C126.549 213.088 72.59 199.867 51.453 155.762C49.561 151.813 47.727 146.988 47.379 145.041C46.307 139.04 44.668 138 36.279 138C26.133 138 24.613 138.932 25.467 144.627C25.834 147.074 27.009 151.62 28.079 154.729L30.023 160.381L26.762 163.881C24.968 165.806 22.938 168.003 22.25 168.762C20.113 171.123 20.858 174.969 24.642 181.099C28.678 187.638 29.276 187.844 38.902 186.019L44.077 185.037L51.538 192.769C55.642 197.021 58.999 201.04 59 201.701C59 202.361 58.502 205.226 57.892 208.067C56.389 215.078 57.43 216.851 65.361 220.789C72.842 224.503 73.314 224.421 80.166 218.231L84.156 214.627L88.828 215.962C91.397 216.696 95.75 217.794 98.5 218.402C104.961 219.831 105.706 220.373 106.544 224.261C107.377 228.132 109.846 233.213 111.39 234.235C113.327 235.517 127.661 235.117 128.765 233.75C129.321 233.063 130.601 229.858 131.609 226.628C132.827 222.725 134.123 220.494 135.471 219.975C138.329 218.876 152.623 215 153.819 215C154.365 215 156.766 216.635 159.155 218.633C166.342 224.643 166.865 224.704 174.337 220.406C177.966 218.319 181.169 216.001 181.456 215.255C181.742 214.509 181.44 210.774 180.785 206.955L179.595 200.011L187.047 192.621L194.5 185.231L201.685 186.247C205.637 186.806 209.462 187.028 210.185 186.741C210.908 186.453 212.625 184.031 214 181.359C215.375 178.686 216.838 176.35 217.25 176.167C219.429 175.198 217.658 170.138 213.518 165.5C208.52 159.902 208.424 159.55 210.439 154.27C211.231 152.197 212.369 148.005 212.967 144.957L214.056 139.413L221.278 136.942L228.5 134.47V124.985V115.5L222 113.347C214.572 110.887 214.233 110.423 210.977 98.291L208.773 90.082L213.387 84.808C215.924 81.908 218 78.546 218 77.339C218 76.131 216.341 72.359 214.314 68.956L210.628 62.768L205.511 63.37C202.697 63.7 199.053 64.239 197.413 64.567C194.714 65.107 193.715 64.433 186.866 57.449L179.3 49.735L180.667 43.21C181.42 39.622 181.798 35.969 181.508 35.093C180.704 32.664 168.442 25.725 166.208 26.434C165.172 26.763 162.789 28.361 160.912 29.985C159.036 31.609 156.892 33.462 156.15 34.102C155.111 34.997 152.686 34.749 145.65 33.028C140.617 31.797 135.792 30.413 134.926 29.954C134.061 29.494 132.519 26.365 131.5 23C130.481 19.635 128.856 16.458 127.89 15.941C125.781 14.813 113.008 14.708 111.282 15.805ZM102 59.509C93.753 61.738 80.663 68.765 74.463 74.291C65.065 82.667 56.256 96.789 54.461 106.355C53.839 109.673 54.016 110.056 56.642 111.056C58.441 111.741 66.09 112.025 77.283 111.822L95.066 111.5L99.142 107.215C105.445 100.587 110.122 98.546 119 98.548C125.197 98.55 127.395 99.018 131.649 101.241C147.254 109.395 150.864 130.413 138.814 142.953C127.499 154.729 110.56 154.842 99.843 143.213L95.5 138.5H75.8C61.09 138.5 55.775 138.825 54.815 139.785C53.769 140.831 53.963 142.316 55.861 147.785C61.322 163.522 73.512 177.522 88.011 184.707C98.767 190.037 107.014 191.97 119 191.97C136.909 191.97 152.221 186.125 164.786 174.492C193.438 147.964 193.932 102.715 165.855 76.421C157.934 69.002 153.325 66.049 143.862 62.327C134.961 58.826 133.835 58.629 121 58.333C111.335 58.11 105.938 58.444 102 59.509Z" fill="#DBDBDB"/>
<path fill-rule="evenodd" clip-rule="evenodd" d="M111.311 15.642C110.656 15.908 109.133 19.135 107.925 22.813C106.717 26.491 105.602 29.65 105.447 29.834C105.292 30.018 101.135 31.193 96.209 32.447C91.283 33.7 86.726 35.051 86.082 35.449C85.402 35.869 82.578 34.251 79.341 31.586C76.277 29.064 72.915 27 71.87 27C69.71 27 59.759 32.381 58 34.5C57.113 35.568 57.173 37.527 58.252 42.771L59.666 49.641L51.881 57.432L44.096 65.222L37.471 64.068C30.896 62.923 27 63.29 27 65.052C27 65.557 25.65 68.164 24 70.846C22.35 73.527 21 76.5 21 77.451C21 78.403 23.034 81.562 25.521 84.473L30.042 89.765L27.419 98.907C23.986 110.875 24.207 111.169 36.322 110.786L45.339 110.5L47.558 103.651C55.11 80.337 72.33 62.355 94.526 54.603C111.998 48.501 128.312 48.68 145.746 55.166C167.294 63.181 185.369 83.138 191.471 105.65C194.127 115.448 194.594 131.453 192.477 140.092C183.306 177.519 151.289 202.002 114.64 199.617C82.549 197.529 56.355 176.042 46.837 144L45.5 139.5L36.402 139.214C24.2 138.832 23.984 139.117 27.411 151.065L30.026 160.18L27.051 163.936C25.414 166.002 23.384 168.267 22.538 168.969C20.313 170.815 20.62 172.943 24.016 179.213C28.43 187.364 28.789 187.549 37.083 185.984L44.091 184.662L51.991 192.626L59.891 200.59L58.772 207.122C58.157 210.714 57.917 214.342 58.24 215.182C58.998 217.159 69.335 223 72.073 223C73.231 223 76.386 221.068 79.086 218.706L83.995 214.412L94.71 217.097L105.424 219.783L107.462 225.767C110.424 234.463 111.09 235 118.931 235C122.75 235 126.361 234.457 127.35 233.733C128.303 233.036 130.119 229.605 131.385 226.108L133.688 219.75L142.84 217.436C147.874 216.163 152.464 214.831 153.039 214.476C153.614 214.12 156.532 215.92 159.523 218.475C162.514 221.031 165.757 223.173 166.731 223.235C169.064 223.386 180.014 217.126 180.744 215.224C181.058 214.407 180.836 210.649 180.252 206.873L179.19 200.009L186.845 192.226L194.5 184.443L201.682 185.9C207.435 187.067 209.164 187.109 210.366 186.111C211.969 184.781 218 173.729 218 172.122C218 171.594 215.795 168.578 213.101 165.421L208.202 159.68L209.664 155.59C210.468 153.34 211.679 148.8 212.356 145.5L213.585 139.5L219.988 137.21C223.509 135.951 226.978 134.434 227.695 133.838C228.566 133.116 229 130.14 229 124.901C229 116.009 228.453 115.281 220 112.911C214.267 111.304 213 110.31 213 107.416C213 106.129 211.946 101.758 210.658 97.702C208.033 89.436 207.754 90.406 215.091 82.277C216.691 80.504 218 78.399 218 77.598C218 76.006 211.278 64.29 209.863 63.415C209.38 63.117 205.711 63.422 201.711 64.094L194.438 65.316L186.789 57.815L179.14 50.314L180.227 43.288C181.41 35.645 180.996 33.314 178.273 32.284C177.298 31.916 174.546 30.381 172.159 28.873C167.092 25.675 166.27 25.855 159.402 31.668L154.305 35.982L149.511 34.349C146.874 33.451 142.228 32.217 139.185 31.608L133.654 30.5L131.282 23.366C129.138 16.915 128.616 16.173 125.83 15.616C122.291 14.908 113.073 14.925 111.311 15.642ZM102.013 60.131C80.79 65.827 62.974 82.229 56.004 102.49C53.051 111.071 52.884 111 75.882 111H95.665L98.695 107.229C100.387 105.124 104.295 102.201 107.544 100.61C112.707 98.082 114.161 97.812 120.432 98.222C129.196 98.795 134.42 101.334 139.812 107.642C144.788 113.463 146.415 118.955 145.782 127.796C144.783 141.765 133.606 151.928 119.187 151.978C111.345 152.005 103.162 148.329 98.695 142.771L95.665 139H75.955C53.317 139 53.295 139.007 55.452 146.174C60.307 162.306 73.122 176.985 89.625 185.319C113.472 197.361 146.321 192.329 165.18 173.746C179.275 159.856 186.019 144.23 185.983 125.54C185.951 109.116 181.147 94.894 171.533 82.758C155.717 62.796 126.958 53.436 102.013 60.131Z" fill="#C9C9C9"/>
<path fill-rule="evenodd" clip-rule="evenodd" d="M107.902 23.195L105.465 30.461L100.389 31.588C97.597 32.208 92.79 33.509 89.706 34.479L84.1 36.242L78.817 31.621C75.912 29.08 72.946 27 72.226 27C70.007 27 58.858 33.207 58.255 34.778C57.942 35.594 58.167 39.377 58.757 43.183L59.828 50.104L51.74 57.893L43.652 65.683L37.258 64.343C33.263 63.505 30.233 63.34 29.182 63.903C28.257 64.398 25.943 67.718 24.04 71.281L20.579 77.759L23.54 81.506C30.99 90.934 30.485 89.443 28.471 96.096C27.48 99.369 26.631 103.949 26.585 106.273L26.5 110.5L34.847 110.792C39.709 110.962 43.728 110.641 44.472 110.023C45.175 109.439 46.34 106.833 47.061 104.231C52.833 83.393 70.523 63.742 91.003 55.421C121.419 43.062 157.432 52.587 177.912 78.409C187.884 90.982 192.912 104.713 193.729 121.603C194.608 139.783 189.567 156.242 178.753 170.5C158.32 197.44 120.673 207.375 89.575 194.034C71.339 186.211 55.101 168.756 48.72 150.118C47.097 145.378 45.316 140.938 44.762 140.25C43.59 138.795 29.303 138.522 27.108 139.912C25.436 140.971 26.209 148.862 28.527 154.41C30.645 159.479 30.443 160.346 26.021 165.164C23.832 167.549 21.778 170.285 21.455 171.244C20.883 172.947 24.258 180.114 27.853 184.83C29.618 187.145 29.675 187.15 36.684 185.7L43.739 184.239L51.984 192.223L60.229 200.207L59.02 205.908C57.12 214.86 57.573 215.901 65.132 219.93C72.673 223.949 73.464 223.814 80.334 217.333L84.118 213.763L89.715 215.524C92.794 216.492 97.605 217.787 100.407 218.401L105.5 219.517L107.615 225.823C108.778 229.291 110.17 232.57 110.708 233.108C111.246 233.646 115.419 233.954 119.981 233.793L128.276 233.5L130.929 226.514L133.581 219.528L142.041 217.298C146.693 216.071 151.4 214.814 152.5 214.504C153.91 214.106 156.12 215.276 159.993 218.47C163.014 220.961 166.209 223 167.093 223C167.977 223 171.468 221.357 174.85 219.35C181.666 215.304 181.751 215.072 179.852 205.619L178.705 199.904L186.602 192.034L194.5 184.165L201.851 185.774L209.202 187.384L210.964 185.048C211.933 183.763 214.003 180.35 215.565 177.464L218.403 172.217L215.711 168.859C214.23 167.011 211.889 164.111 210.507 162.413L207.995 159.326L209.931 153.701C210.995 150.608 212.169 146.055 212.54 143.584C213.213 139.096 213.218 139.09 219.622 136.959C228.355 134.053 229 133.231 229 125C229 116.94 228.256 115.897 220.763 113.452C213.875 111.205 213.282 110.651 212.466 105.692C212.087 103.387 211.225 100.15 210.552 98.5C208.026 92.311 207.939 90.377 210.076 87.886C211.201 86.574 212.958 84.526 213.98 83.335C218.066 78.577 218.195 77.448 215.254 72.198C209.591 62.087 210.522 62.64 201.897 64.269L194.314 65.7L186.553 57.928L178.793 50.156L179.992 43.048C180.651 39.139 180.968 35.391 180.695 34.72C180.422 34.049 177.265 31.942 173.679 30.039C166.266 26.104 165.476 26.242 158.675 32.659L154.899 36.221L146.7 33.98C142.19 32.747 137.375 31.423 136 31.037C134.024 30.483 132.972 28.888 130.977 23.418L128.454 16.5L119.396 16.215L110.339 15.929L107.902 23.195ZM106 59.497C87.891 63.143 72.692 73.608 62.628 89.36C57.95 96.682 54.806 104.534 55.2 107.915L55.5 110.5L75.386 110.772L95.271 111.043L98.638 107.11C108.668 95.392 127.646 94.713 138.612 105.679C149.192 116.258 149.169 133.521 138.562 144.186C127.425 155.384 108.826 154.793 98.661 142.917L95.271 138.957L75.386 139.228L55.5 139.5L55.185 142.231C54.823 145.373 58.998 155.426 63.395 162C78.912 185.2 107.548 196.539 134.374 190.107C170.142 181.529 192.156 146.712 184.538 110.766C183.753 107.062 181.287 100.14 179.058 95.384C175.674 88.162 173.562 85.298 166.253 78.018C159.232 71.025 155.818 68.48 149 65.153C135.13 58.386 120.847 56.507 106 59.497Z" fill="#BCBCBC"/>
<path fill-rule="evenodd" clip-rule="evenodd" d="M110.138 17.75C109.625 18.712 108.718 21.314 108.123 23.531C106.567 29.327 105.072 30.869 100 31.905C97.525 32.41 92.947 33.591 89.827 34.529L84.154 36.235L78.485 31.617C75.367 29.078 72.335 27 71.747 27C69.565 27 58 34.467 58 35.876C58 36.679 58.49 40.15 59.089 43.59L60.178 49.844L52.212 57.788L44.246 65.733L37.465 64.458C33.735 63.758 30.192 63.38 29.592 63.62C28.991 63.86 26.781 66.939 24.68 70.463C20.731 77.085 20.682 78.42 24.25 82.172C24.944 82.902 26.689 84.928 28.127 86.673L30.741 89.846L28.957 95.173C27.975 98.103 26.861 102.617 26.479 105.204C25.834 109.587 25.949 109.949 28.164 110.505C29.472 110.833 33.635 110.966 37.417 110.801C45.013 110.468 44.7 110.74 47.559 102C57.731 70.906 86.436 50.026 119 50.033C131.837 50.035 140.707 52.071 151.849 57.571C161.451 62.31 162.931 63.33 171.249 70.932C180.511 79.399 188.154 92.364 191.942 106.033C194.406 114.925 194.701 131.032 192.582 141.026C188.831 158.718 177.931 175.289 162.767 186.352C156.49 190.932 142.908 196.92 135 198.593C123.935 200.935 106.993 200.087 96.5 196.665C73.167 189.056 54.293 170.126 47.479 147.5C46.485 144.2 45.241 140.938 44.713 140.25C43.714 138.947 30.586 138.454 27.582 139.607C25.424 140.435 25.591 143.361 28.338 152.847L30.677 160.921L27.572 163.93C25.864 165.586 23.704 168.231 22.772 169.808C21.138 172.576 21.165 172.832 23.56 177.088C24.925 179.515 26.545 182.492 27.16 183.704C28.614 186.568 30.167 186.807 37.952 185.364L44.404 184.168L52.306 192.252L60.208 200.337L59.104 205.835C57.262 215.007 57.355 215.25 64.227 219.316C67.652 221.342 71.14 222.996 71.977 222.991C72.815 222.986 75.75 220.951 78.5 218.469C84.064 213.449 83.032 213.523 97.151 217.135L105.802 219.348L108.172 226.424L110.542 233.5L118.936 233.793C128.443 234.125 127.98 234.447 131.027 225.367L133.085 219.234L141.793 217.07C146.582 215.88 151.496 214.653 152.712 214.344C154.363 213.924 156.294 214.951 160.32 218.391C163.288 220.926 166.266 223 166.94 223C167.91 223 179.504 216.732 180.817 215.497C180.991 215.334 180.609 211.667 179.968 207.35L178.803 199.5L186.443 191.78L194.084 184.06L201.257 185.416C205.201 186.162 208.895 186.589 209.465 186.364C210.979 185.767 217 174.469 217 172.223C217 171.168 214.971 168.099 212.491 165.402C209.251 161.88 208.139 159.937 208.542 158.5C208.85 157.4 210.115 152.514 211.353 147.643L213.605 138.785L220.345 136.517C224.051 135.27 227.326 134.007 227.621 133.712C228.554 132.78 229.212 122.945 228.571 119.528C228.006 116.514 227.367 116.037 220.577 113.561C213.533 110.992 213.168 110.702 212.529 107.185C212.161 105.158 210.95 100.47 209.838 96.767L207.816 90.035L212.521 84.527C216.76 79.565 217.161 78.672 216.568 75.51C216.206 73.579 215.592 71.995 215.205 71.989C214.817 71.982 213.652 70.207 212.616 68.044C211.58 65.881 210.133 63.881 209.401 63.601C208.669 63.32 205.017 63.733 201.285 64.519L194.5 65.948L186.577 58.044L178.655 50.14L179.924 43.038C180.899 37.581 180.92 35.609 180.015 34.518C178.571 32.778 168.47 27 166.873 27C166.236 27 163.345 29.025 160.448 31.5C157.551 33.975 154.766 36 154.259 36C153.752 36 150.449 35.133 146.918 34.074C143.388 33.015 138.914 31.889 136.975 31.571C133.638 31.025 133.302 30.595 130.662 23.497L127.874 16H119.472C112.492 16 110.913 16.296 110.138 17.75ZM124.794 28C127.75 37.062 127.477 36.756 133.691 37.954C136.886 38.57 142.883 40.182 147.018 41.537C151.153 42.892 155.096 44 155.78 44C156.464 44 159.371 41.773 162.24 39.051C166.877 34.651 167.633 34.263 169.056 35.551C169.937 36.348 171.242 37 171.956 37C173.247 37 173.067 41.237 171.419 49.651C170.754 53.049 170.776 53.081 179.068 60.5C181.527 62.7 184.516 65.764 185.71 67.309C189.368 72.043 192.712 74.221 194.722 73.178C197.325 71.828 205.311 70.881 206.671 71.762C207.315 72.179 208.142 73.719 208.51 75.185C209.065 77.397 208.465 78.625 204.982 82.403C200.204 87.587 200.172 88.151 203.843 102.5C204.969 106.9 206.152 111.753 206.473 113.285C206.854 115.107 207.998 116.426 209.778 117.097C211.275 117.661 213.807 118.77 215.404 119.561C217.001 120.353 218.913 121 219.654 121C220.394 121 221.035 121.338 221.077 121.75C221.589 126.739 221.327 129 220.236 129C219.541 129 218.191 129.406 217.236 129.903C216.281 130.399 213.595 131.369 211.266 132.057C207.487 133.175 206.975 133.695 206.498 136.905C205.473 143.79 203.818 150.522 202.346 153.795C199.953 159.114 200.364 162.326 204.019 166.874C205.843 169.143 207.709 171 208.167 171C209.658 171 209.044 175.813 207.336 177.521C206.149 178.708 204.788 179 202.586 178.541C200.889 178.187 197.455 177.644 194.955 177.334C190.528 176.785 190.322 176.884 187.037 181.135C185.182 183.536 181.251 187.525 178.301 190C175.351 192.475 172.529 195.208 172.028 196.073C171.468 197.042 171.565 200.252 172.28 204.425C173.364 210.756 173.311 211.294 171.471 212.568C170.387 213.318 168.971 214.384 168.324 214.937C167.677 215.489 167.002 215.608 166.824 215.202C166.175 213.718 156.335 206 155.093 206C154.39 206 150.594 207.105 146.657 208.456C142.721 209.807 137.005 211.394 133.956 211.984L128.412 213.056L125.8 219.778C123.307 226.197 123.028 226.514 119.601 226.81C116.63 227.067 115.854 226.722 115.099 224.81C114.596 223.54 113.326 220.259 112.277 217.52C110.596 213.137 109.992 212.51 107.233 212.286C105.509 212.147 102.164 211.55 99.799 210.96C97.435 210.37 93.7 209.437 91.5 208.886C89.3 208.336 87.072 207.461 86.55 206.943C84.727 205.134 82.343 206.032 77.109 210.5C74.209 212.975 71.626 215 71.369 215C71.111 215 69.623 214.339 68.061 213.531L65.22 212.063L66.605 204.798L67.989 197.534L61.744 191.657C58.31 188.425 55.607 185.396 55.738 184.926C55.869 184.456 55.306 184.329 54.488 184.643C53.601 184.983 53 184.64 53 183.794C53 183.013 51.673 181.103 50.051 179.549C46.95 176.578 46.787 176.567 36 178.53C32.849 179.104 32.32 178.86 30.698 176.091C28.962 173.127 28.962 172.924 30.698 170.539C31.689 169.177 32.821 168.049 33.214 168.031C33.607 168.014 35.045 166.356 36.41 164.347C38.681 161.005 38.773 160.462 37.49 157.981C36.719 156.49 35.862 154.196 35.587 152.885C35.311 151.573 34.789 149.488 34.426 148.25C33.846 146.27 34.127 146 36.768 146C39.508 146 39.917 146.458 41.461 151.25C43.984 159.082 47.983 166.651 53.863 174.726C59.311 182.207 69.423 192 71.7 192C72.415 192 73 192.373 73 192.829C73 193.773 84.993 200 86.81 200C87.464 200 88 200.379 88 200.842C88 202.85 108.336 207 118.178 207C134.424 207 148.917 203.046 162.337 194.952C166.025 192.728 169.478 191.177 170.01 191.506C170.553 191.842 170.716 191.423 170.382 190.552C170.054 189.698 170.209 189 170.726 189C172.338 189 183.174 177.362 187.09 171.426C192.505 163.216 193.516 161.319 195.835 155C203.891 133.056 202.779 108.514 192.826 88.604C188.182 79.314 185.438 75.479 178 67.884C158.029 47.49 131.532 39.167 103.596 44.513C85.918 47.896 74.483 53.824 62.5 65.82C55.366 72.962 54.722 73.726 50.308 80.286C46.306 86.233 42.6 94.059 41.036 99.867C40.041 103.561 39.6 104 36.882 104C33.975 104 33.872 103.857 34.536 100.75C34.918 98.963 35.588 97.05 36.025 96.5C36.462 95.95 37.236 93.925 37.746 92C38.604 88.758 38.345 88.08 34.234 82.807C30.304 77.768 29.904 76.793 30.741 74.307C31.765 71.269 32.564 71.157 43.178 72.568C47.283 73.114 48.08 72.906 49.678 70.87C54.043 65.31 63.697 55.795 65.862 54.92C67.711 54.172 68.079 53.479 67.556 51.732C67.189 50.504 66.634 46.784 66.324 43.465C65.779 37.625 65.849 37.39 68.503 36.181C71.668 34.739 74.778 36.205 77.56 40.451C79.792 43.858 83.761 44.458 89.073 42.191C91.508 41.152 95.3 39.994 97.5 39.618C109.247 37.61 110.36 37.048 112.75 31.915C113.987 29.257 115 26.464 115 25.708C115 23.501 116.199 22.885 119.878 23.202C122.995 23.471 123.467 23.932 124.794 28ZM106.5 59.453C91.897 62.828 80.488 69.152 70.73 79.281C62.065 88.274 54.167 103.532 55.474 108.75C56.035 110.989 56.132 111 76.019 111C87.009 111 96 110.625 96 110.167C96 108.38 103.73 101.655 108 99.726C114.546 96.769 125.038 96.868 131 99.942C151.951 110.746 151.868 139.354 130.854 150.074C127.709 151.679 124.818 152.233 119.563 152.236C110.65 152.242 104.628 149.734 98.701 143.548L94.343 139H75.239C57.013 139 56.106 139.092 55.5 141C54 145.725 62.124 161.818 70.675 171.059C74.005 174.658 87.979 185 89.512 185C89.889 185 91.616 185.647 93.349 186.438C115.735 196.654 145.133 191.678 163.867 174.503C181.749 158.109 189.277 134.927 184.422 111.208C183.555 106.969 182.43 103.073 181.922 102.55C181.415 102.027 181 100.929 181 100.108C181 99.288 179.204 95.593 177.009 91.899C167.571 76.012 153.592 65.212 136.424 60.542C128.092 58.276 113.839 57.757 106.5 59.453ZM128.566 66.046C135.685 67.3 149 71.919 149 73.134C149 73.61 149.498 74 150.106 74C151.549 74 157.393 78.655 163.021 84.288C171.766 93.039 179 110.761 179 123.434C179 130.192 176.112 145.031 174.479 146.664C173.665 147.477 173 148.795 173 149.591C173 150.388 171.875 152.822 170.5 155C169.125 157.178 168 159.226 168 159.552C168 159.877 167.407 160.736 166.682 161.461C165.956 162.186 164.269 164.074 162.932 165.657C161.594 167.239 158.7 169.874 156.5 171.511C154.3 173.149 152.275 174.761 152 175.093C150.807 176.535 137.995 182 135.807 182C134.483 182 132.836 182.563 132.147 183.25C130.541 184.853 105.192 184.913 104.177 183.317C103.805 182.731 102.005 181.927 100.177 181.53C94.29 180.253 78.545 170.544 79.598 168.841C79.884 168.378 79.607 168 78.982 168C76.406 168 65.368 153.831 66.508 151.987C66.753 151.591 66.063 150.462 64.976 149.479C63.889 148.495 63 147.31 63 146.845C63 146.38 69.243 146 76.874 146H90.747L95.124 150.019C100.766 155.201 106.256 157.83 114.058 159.087C135.414 162.526 154 145.844 154 123.238C154 119.872 153.55 116.84 153 116.5C152.45 116.16 152 115.114 152 114.176C152 109.483 141.247 96 137.504 96C136.677 96 136 95.622 136 95.161C136 93.825 131.547 92.151 124.58 90.867C113.74 88.869 102.49 92.677 93.907 101.25C91.174 103.98 91.054 104 77.577 104C66.728 104 64 103.724 64 102.626C64 101.446 65.467 98.636 70.5 90.172C73.463 85.188 86.233 74 88.957 74C89.531 74 90.005 73.662 90.011 73.25C90.048 70.87 109.086 65.229 117.566 65.086C120.353 65.039 125.303 65.471 128.566 66.046Z" fill="#AFAFAF"/>
<path fill-rule="evenodd" clip-rule="evenodd" d="M109.475 20.75C108.545 23.363 107.332 26.726 106.781 28.226C106.016 30.305 104.914 31.094 102.139 31.554C100.137 31.886 95.825 33.022 92.556 34.078C84.682 36.624 83.787 36.538 79.856 32.862C73.174 26.613 72.925 26.56 66.232 29.962C57.622 34.337 57.413 34.723 59.208 42.904L60.71 49.749L52.518 57.924C45.105 65.32 44.048 66.038 41.413 65.464C39.811 65.115 36.25 64.611 33.5 64.343L28.5 63.857L25.25 69.858C23.462 73.158 22 76.606 22 77.52C22 78.433 24.064 81.597 26.587 84.55L31.174 89.919L29.226 95.21C28.155 98.119 26.988 102.395 26.634 104.712C26.092 108.249 26.299 109.09 27.929 109.962C30.181 111.167 41.921 111.337 43.726 110.191C44.4 109.762 45.873 106.527 47 103C53.403 82.957 67.499 66.531 86.182 57.343C97.038 52.003 106.199 50 119.759 50C140.769 50 156.371 56.474 171.576 71.5C193.258 92.928 199.987 121.295 190.198 150C182.4 172.864 161.673 191.924 137.905 198.085C130.727 199.945 127.711 200.175 116.039 199.754C104.526 199.338 101.395 198.857 95.115 196.537C77.392 189.991 65.34 180.436 55.655 165.252C53.287 161.538 50.753 156.925 50.024 155C49.296 153.075 48.135 150.15 47.444 148.5C46.753 146.85 45.925 144.316 45.605 142.869C45.25 141.268 44.137 140.002 42.761 139.633C38.709 138.547 29.426 138.968 27.575 140.322C25.836 141.593 25.844 141.943 27.795 149.572C28.91 153.932 30.074 158.175 30.381 159C30.72 159.907 29.173 162.453 26.47 165.437C24.012 168.153 22 171.248 22 172.316C22 174.859 27.818 184.993 29.691 185.712C30.493 186.019 34.143 185.775 37.803 185.168L44.458 184.066L51.712 191.277C55.701 195.243 59.364 198.621 59.85 198.783C60.337 198.946 60.136 201.873 59.403 205.289C57.149 215.792 56.888 215.307 67.962 221.168C72.227 223.426 73.37 223.084 78.856 217.911C82.346 214.621 83.738 213.912 85.856 214.348C92.721 215.762 105.21 218.877 105.608 219.274C105.852 219.519 106.982 222.37 108.118 225.61C109.254 228.849 110.648 232.063 111.214 232.75C112.614 234.447 126.401 234.447 127.745 232.75C128.29 232.063 129.529 229.025 130.5 226C132.805 218.816 133.223 218.378 138.463 217.66C140.905 217.325 145.388 216.178 148.425 215.111L153.947 213.17L156.723 215.314C158.25 216.494 160.85 218.703 162.5 220.225C164.15 221.746 165.887 222.993 166.36 222.995C168.145 223.005 179.146 216.595 179.942 215.081C180.406 214.199 180.261 210.404 179.613 206.5L178.453 199.5L186.19 191.751L193.927 184.001L201.465 185.122C207.352 185.998 209.33 185.971 210.501 184.999C211.325 184.315 212 183.336 212 182.825C212 182.313 213.125 180.238 214.5 178.215C215.875 176.191 216.985 173.628 216.967 172.518C216.948 171.408 214.894 168.25 212.402 165.5C209.36 162.142 208.012 159.843 208.297 158.5C209.238 154.075 212.296 142.373 213.016 140.441C213.495 139.155 215.421 137.893 218.142 137.081C220.539 136.366 223.755 135.134 225.29 134.344C228.039 132.928 228.075 132.789 227.79 124.747L227.5 116.586L220.827 114.043C213.048 111.078 212.696 110.798 212.264 107.212C212.084 105.72 210.993 101.263 209.839 97.307L207.742 90.113L210.833 86.21C212.533 84.064 214.616 81.733 215.462 81.031C217.776 79.111 217.274 76.088 213.631 70C210.41 64.615 210.248 64.502 205.92 64.606C203.489 64.664 199.894 65.047 197.932 65.457C194.477 66.179 194.108 65.951 186.311 58.247L178.259 50.292L179.548 43.429C180.271 39.585 180.475 35.888 180.013 35.025C179.56 34.177 176.407 31.991 173.008 30.166L166.827 26.848L163.047 29.468C160.968 30.908 158.271 33.147 157.055 34.442L154.842 36.797L147.171 34.413C142.952 33.102 138.52 32.023 137.321 32.015C134.119 31.993 132.429 29.798 130.005 22.515L127.837 16H119.501H111.165L109.475 20.75ZM123.695 23.25C124.212 23.938 125.49 27.104 126.537 30.286C128.075 34.967 128.922 36.171 130.969 36.592C136.53 37.733 145.754 40.202 150.218 41.743C155.664 43.623 157.207 43.113 163.219 37.441L166.889 33.979L170.548 35.724C174.542 37.629 174.447 36.967 172.451 49C171.897 52.338 172.309 52.95 181.386 62.25C191.7 72.817 192.416 73.132 201.371 71.054C206.142 69.947 207.165 70.316 208.75 73.717C210.487 77.444 210.521 77.347 205.5 83C203.025 85.787 201 88.389 201 88.783C201 89.178 202.113 93.1 203.473 97.5C204.832 101.9 206.237 107.435 206.593 109.8C207.423 115.299 208.697 116.494 216.062 118.681L222.09 120.47L221.795 124.896L221.5 129.323L215.08 131.628C211.549 132.895 208.326 134.472 207.919 135.132C207.511 135.791 206.872 138.394 206.499 140.915C206.125 143.437 204.735 148.616 203.41 152.424C202.084 156.233 201 159.964 201 160.717C201 161.47 203.063 164.291 205.585 166.987C210.096 171.81 210.149 171.946 208.896 175.41C208.196 177.346 207.007 179.167 206.253 179.456C205.052 179.917 198.617 178.868 193.891 177.441C192.829 177.12 188.839 180.384 182.133 187.062L171.984 197.169L172.984 203.335C174.413 212.137 174.366 212.348 170.514 214.423L167.028 216.3L162.057 211.65C156.512 206.463 155.158 206.189 148.287 208.863C144.136 210.478 139.7 211.637 130.25 213.576C129.012 213.83 128 214.524 128 215.118C128 215.712 127.388 217.616 126.641 219.349C125.893 221.082 124.777 223.738 124.162 225.25C123.25 227.491 122.414 228 119.644 228C115.718 228 114.713 227.008 113.061 221.5C110.775 213.88 110.378 213.505 103.191 212.165C99.511 211.479 93.843 210.036 90.595 208.959C87.347 207.881 84.065 207 83.302 207C82.539 207 79.749 209.025 77.103 211.5C74.457 213.975 72.027 216 71.703 216C71.379 216 69.569 215.088 67.68 213.974L64.246 211.948L65.767 205.019L67.287 198.09L57.019 187.922L46.751 177.754L41.626 178.38C38.807 178.725 35.554 179.265 34.398 179.581C32.785 180.022 31.807 179.385 30.199 176.845L28.103 173.534L30.561 170.517C31.913 168.858 34.125 166.127 35.477 164.448L37.935 161.396L35.441 154.023C33.483 148.235 33.221 146.477 34.223 145.841C37.606 143.694 40.042 145.809 43.041 153.5C51.151 174.292 63.836 188.307 83.586 198.295C101.568 207.389 124.999 208.927 144.824 202.313C154.391 199.122 156.748 197.934 165.594 191.848C193.983 172.312 206.687 137.668 197.807 104C190.533 76.42 170.047 55.532 141.482 46.568C135.351 44.644 116.18 42.724 111.161 43.532C87.183 47.389 67.811 58.026 55.686 73.993C53.387 77.022 51.223 79.725 50.879 80C49.874 80.803 41.238 99.303 40.843 101.5C40.572 103.007 39.561 103.577 36.742 103.81C34.684 103.981 33 103.965 33 103.775C33 103.585 34.098 100.078 35.44 95.981L37.88 88.531L35.19 85.185C33.71 83.345 31.635 80.764 30.577 79.449C28.682 77.095 28.682 77.005 30.563 73.513C31.613 71.563 33.011 70.174 33.669 70.426C34.327 70.679 37.605 71.195 40.953 71.574L47.042 72.263L55.7 63.132C60.462 58.109 64.953 54 65.679 54C67.385 54 67.336 50.851 65.523 44.038C63.961 38.171 63.889 38.345 69.091 35.52C71.505 34.209 71.948 34.33 75.591 37.29C77.741 39.037 80.095 41.036 80.821 41.733C82.537 43.378 84.13 43.331 88.73 41.497C90.803 40.67 96.253 39.188 100.839 38.204C107.712 36.729 109.405 35.982 110.472 33.957C112.217 30.641 113.743 26.97 114.505 24.25C115.017 22.421 115.847 22 118.945 22C121.041 22 123.178 22.563 123.695 23.25ZM105.437 59.991C89.254 63.65 76.322 71.765 66.378 84.501C62.861 89.005 56.644 101.031 55.602 105.346C54.311 110.687 55.423 111 75.696 111H94.146L97.823 106.895C108.241 95.265 125.842 93.948 137.203 103.948C147.027 112.595 149.652 124.891 144.156 136.509C139.001 147.405 131.155 152.355 119 152.38C110.089 152.398 104.908 150.15 98.203 143.354L93.907 139H77.019C59.608 139 55 139.754 55 142.6C55 145.007 59.919 155.774 63.45 161.097C73.512 176.262 87.293 185.755 105.366 189.969C115.475 192.326 119.69 192.432 130.022 190.588C136.802 189.378 150.74 184.623 152 183.09C152.275 182.755 154.461 181.209 156.858 179.655C175.756 167.399 187.379 143.246 185.536 120.064C183.034 88.592 159.226 63.557 127.5 59.037C118.141 57.704 114.946 57.842 105.437 59.991ZM134.5 66.684C145.36 69.359 152.479 73.514 161.572 82.486C166.207 87.059 170 91.314 170 91.941C170 92.568 170.894 94.3 171.987 95.79C173.079 97.281 175.104 101.841 176.487 105.925C178.579 112.108 179 115.224 179 124.548C179 137.167 176.688 146.277 170.988 156.113C166.375 164.075 154.688 174.791 145.876 179.14C136.627 183.705 130.48 185.004 118.201 184.987C110.12 184.975 107.121 184.493 100.242 182.099C86.096 177.175 73.549 167.199 67.417 156C66.362 154.075 65.169 152.253 64.765 151.95C64.361 151.648 63.742 149.96 63.39 148.2L62.75 145H76.705H90.661L95.08 149.013C97.511 151.22 101.975 154.257 105 155.763C109.805 158.154 111.637 158.493 119.5 158.448C127.291 158.402 129.211 158.028 133.795 155.658C140.447 152.219 147.021 145.613 149.912 139.464C153.021 132.849 153.707 122.944 151.566 115.579C148.489 104.994 143.302 98.888 133.5 94.312C128.411 91.936 126.209 91.51 119 91.505C111.77 91.501 109.679 91.905 105 94.211C101.975 95.702 97.801 98.577 95.725 100.599L91.951 104.276L77.477 104.388C66.168 104.476 63.002 104.214 63.001 103.192C63 101.659 67.024 94.273 70.988 88.532C75.795 81.572 84.666 74.598 94.5 70.048C101.728 66.704 104.605 65.94 113 65.132C121.655 64.299 126.132 64.622 134.5 66.684Z" fill="#A2A2A2"/>
<path fill-rule="evenodd" clip-rule="evenodd" d="M111.26 17.25C110.718 17.938 109.463 21.132 108.47 24.348C106.482 30.786 106.768 30.586 95 33.812C90.875 34.943 86.733 36.163 85.794 36.524C84.679 36.953 83.194 36.284 81.499 34.59C80.075 33.165 78.657 32 78.349 32C78.041 32 76.479 30.898 74.879 29.552L71.97 27.104L65.758 30.477C59.637 33.802 56.185 37.895 58.776 38.759C59.456 38.985 59.776 39.553 59.487 40.02C59.199 40.488 59.412 42.876 59.962 45.329L60.961 49.788L52.984 57.894C45.679 65.317 44.676 66 41.063 66C38.893 66 36.837 65.545 36.493 64.988C36.149 64.431 34.251 64.1 32.276 64.252C29.021 64.501 28.373 65.088 25.354 70.514C23.523 73.806 22.018 77.047 22.012 77.717C22.005 78.386 24.025 81.213 26.5 84C28.975 86.787 31 89.431 31 89.877C31 90.322 30.141 93.185 29.09 96.238C28.04 99.29 27.027 103.523 26.84 105.644L26.5 109.5L31.837 110.405C39.48 111.701 44.208 110.336 45.363 106.5C47.277 100.147 53.672 86.176 55.768 83.769C57.061 82.284 57.078 81.785 55.888 80.269C54.627 78.662 54.66 78.625 56.25 79.872C57.213 80.627 58 80.803 58 80.263C58 79.723 59.566 77.755 61.481 75.89C63.93 73.505 64.8 71.907 64.415 70.5C63.978 68.9 64.074 68.798 64.893 69.992C65.726 71.206 66.156 71.244 67.2 70.2C68.244 69.156 68.206 68.721 66.992 67.864C65.775 67.006 65.847 66.924 67.377 67.423C69.546 68.13 72.284 66.269 71.334 64.732C70.981 64.16 71.126 63.96 71.658 64.289C72.19 64.617 73.947 63.983 75.562 62.878C79.875 59.931 91.292 54.393 96.75 52.601C104.435 50.079 118.932 48.854 128.254 49.94C137.705 51.04 144.047 52.93 152.308 57.108C155.503 58.724 158.61 59.741 159.213 59.368C159.874 58.96 160.024 59.152 159.591 59.853C159.177 60.522 159.631 61.305 160.663 61.701C167.068 64.159 182.26 80.923 186.081 89.75C187.58 93.212 188.499 93.77 189.377 91.75C189.676 91.063 189.695 91.625 189.419 93C189.141 94.384 190.049 98.618 191.455 102.486C198.019 120.552 194.981 145.514 183.932 164.306C177.389 175.433 163.777 187.807 152.299 193.062C148.821 194.654 147.496 195.723 148.299 196.287C149.036 196.805 148.695 196.907 147.417 196.551C146.271 196.232 143.393 196.656 141.022 197.492C128.786 201.809 107.38 201.258 93.552 196.27C87.041 193.922 75.691 187.504 71.865 184.007C60.11 173.265 52.774 163.594 49.48 154.5C48.484 151.75 47.294 149.072 46.835 148.55C46.376 148.027 46 146.651 46 145.491C46 141.001 43.918 139.823 35.855 139.753C31.708 139.716 27.809 140 27.191 140.382C25.629 141.347 26.757 146.861 29.239 150.393C30.356 151.984 30.76 152.97 30.135 152.584C28.708 151.702 28.7 152.841 30.105 156.87C31.127 159.803 30.924 160.391 27.372 164.769C25.261 167.371 23.189 169.65 22.767 169.833C21.085 170.564 22.18 174.535 25.632 180.218L29.265 186.197L34.882 185.525C37.972 185.155 41.4 184.649 42.5 184.402C43.96 184.073 46.671 186.059 52.549 191.764L60.598 199.576L59.233 207.025C57.902 214.284 57.922 214.519 60.044 216.237C62.506 218.23 64.481 218.588 63.405 216.845C62.949 216.108 63.132 215.963 63.912 216.446C64.584 216.861 64.881 217.452 64.573 217.76C63.382 218.951 68.03 221.037 70.71 220.514C72.777 220.11 72.999 220.188 71.566 220.812C70.405 221.318 70.056 221.916 70.691 222.309C71.824 223.009 78.242 218.71 81.439 215.109C82.963 213.392 84.034 213.064 86.439 213.578C88.123 213.937 89.95 214.587 90.5 215.021C91.05 215.456 94.425 216.363 98 217.036C101.575 217.71 105.009 218.764 105.632 219.38C106.255 219.996 107.552 222.975 108.514 226C109.477 229.025 110.71 232.063 111.255 232.75C112.458 234.269 122.745 234.428 126.54 232.985C128.803 232.124 129.113 231.554 128.574 229.235C128.075 227.086 128.177 226.822 129.048 228C129.931 229.195 130.066 228.933 129.71 226.715C129.465 225.184 129.531 224.198 129.857 224.524C130.184 224.85 130.94 223.662 131.539 221.883C132.536 218.924 133.164 218.54 138.926 217.365C142.39 216.658 147.189 215.329 149.592 214.412C153.738 212.828 154.101 212.838 156.73 214.594C158.253 215.612 159.871 216.334 160.324 216.198C160.778 216.062 160.885 216.377 160.563 216.899C159.852 218.049 165.166 222 167.424 222C168.313 222 170.718 220.955 172.77 219.677C174.821 218.399 177.287 217.063 178.25 216.708C180.315 215.947 180.504 212.45 178.889 204.918L177.778 199.737L185.798 191.717L193.819 183.696L201.392 184.918C205.557 185.59 209.31 185.915 209.732 185.641C210.155 185.367 212.053 182.229 213.951 178.669L217.402 172.196L213.485 167.348C211.33 164.682 209.157 162.212 208.654 161.861C207.685 161.183 207.812 160.294 210.763 147.114L212.641 138.727L220.071 136.039L227.5 133.351V124.926V116.5L223 114.932C213.016 111.452 212 110.866 212 108.593C212 107.376 211.06 102.662 209.91 98.117L207.82 89.853L212.572 83.805L217.324 77.757L215.435 74.128C210.911 65.439 209.636 64.025 206.309 64.012C204.554 64.006 202.825 64.474 202.467 65.053C202.11 65.632 201.295 65.926 200.658 65.707C200.021 65.487 198.249 65.661 196.72 66.093C194.549 66.706 193.689 66.475 192.792 65.039C192.143 63.999 190.997 63.448 190.158 63.77C189.118 64.169 188.916 63.944 189.486 63.023C190.046 62.117 188.392 59.954 184.195 56.103L178.09 50.5L179.243 42.755C180.54 34.05 180.795 34.531 172.466 29.981C167.145 27.075 164.467 27.726 159.131 33.223L155.007 37.472L150.119 35.736C147.431 34.781 144.306 34 143.175 34C142.044 34 140.84 33.55 140.5 33C140.16 32.45 138.671 31.993 137.191 31.985C133.148 31.962 132.459 31.133 129.931 23.25L127.606 16H119.926C114.973 16 111.895 16.444 111.26 17.25ZM126.352 28.211C127.462 31.928 129.057 35.196 129.928 35.535C130.793 35.872 136.225 37.401 142 38.933C147.775 40.464 153.193 42.018 154.04 42.385C155.001 42.802 156.754 42.009 158.7 40.276C160.416 38.749 162.982 36.493 164.403 35.263L166.986 33.025L170.993 35.113C175.512 37.469 175.404 37.077 173.851 45.503C172.856 50.906 172.923 52.051 174.351 54.091C175.258 55.386 176 56.141 176 55.769C176 55.073 184.933 64.278 189.203 69.375C191.565 72.194 191.712 72.228 196.855 71.125C205.159 69.344 207.321 69.631 208.75 72.707C210.752 77.018 210.251 79.004 206 83.616C203.8 86.003 202.011 88.528 202.024 89.228C202.036 89.927 202.993 93.875 204.15 98C205.307 102.125 206.47 106.959 206.735 108.742C207 110.525 207.539 111.785 207.933 111.542C208.326 111.298 208.615 112.039 208.574 113.188C208.515 114.858 209.723 115.72 214.611 117.493C222.903 120.502 223 120.588 223 124.97C223 128.527 222.675 128.971 218.75 130.78C216.412 131.857 213.148 133.256 211.495 133.889C208.705 134.957 208.291 135.808 205.723 145.77C201.187 163.362 201.114 161.532 206.568 167.069L211.388 171.963L209.696 175.512C207.509 180.098 206.1 180.548 198.385 179.127L192.002 177.951L182.399 187.679L172.796 197.408L173.451 202.344C173.811 205.059 174.356 208.53 174.662 210.058C175.131 212.407 174.744 213.081 172.158 214.418C167.668 216.74 166.579 216.455 161 211.5C158.213 209.025 155.679 207 155.368 207C155.057 207 153.384 207.634 151.651 208.409C149.918 209.184 147.375 210.068 146 210.374C131.049 213.702 128.141 214.664 128.143 216.278C128.145 217.529 124.739 226.39 123.757 227.687C123.263 228.34 121.034 228.79 118.803 228.687L114.748 228.5L112.383 221.5C111.082 217.65 110.014 214.415 110.009 214.311C110.004 214.207 107.862 213.802 105.25 213.411C102.638 213.019 96.675 211.459 92 209.944C87.325 208.429 82.977 207.484 82.338 207.845C81.699 208.205 79.376 210.169 77.176 212.209C73.277 215.824 66.839 218.688 68.442 216.093C68.92 215.32 68.08 214.479 66.071 213.721C63.891 212.898 63.146 212.091 63.58 211.023C63.922 210.185 64.698 206.682 65.306 203.238C66.381 197.14 66.346 196.932 63.955 195.295C62.605 194.37 58.271 190.292 54.325 186.232L47.149 178.85L39.325 179.504L31.5 180.159L29.75 176.998C27.877 173.616 27.477 171 28.833 171C30.147 171 36.078 163.19 36.525 160.873C36.746 159.721 36.109 157.141 35.108 155.139C34.107 153.138 33.01 150.037 32.669 148.25L32.05 145H36.446C40.595 145 40.88 145.182 41.539 148.25C42.414 152.326 49.365 166.447 52.582 170.683C53.912 172.434 55 174.164 55 174.528C55 176.034 63.407 183.87 64.41 183.3C65.01 182.958 65.199 183.015 64.832 183.424C64.078 184.265 66.954 188 68.355 188C68.856 188 70.106 188.969 71.133 190.153C72.16 191.337 73 191.989 73 191.602C73 191.215 74.486 192.031 76.301 193.416C80.643 196.728 89.365 200.534 98.843 203.255C108.572 206.047 130.207 206.291 139 203.707C148.312 200.971 152.051 199.388 151.259 198.515C150.842 198.056 150.968 197.945 151.54 198.269C152.473 198.798 158.743 196.406 160 195.042C160.918 194.046 166.911 190 167.468 190C168.874 190 173.871 184.601 173.308 183.69C172.924 183.069 173.312 182.906 174.285 183.279C175.472 183.735 175.735 183.472 175.279 182.285C174.892 181.275 175.063 180.921 175.736 181.337C177.916 182.684 186.179 171.858 192.022 160C201.751 140.252 202.613 117.257 194.448 95.228C192.868 90.966 191.35 88.284 190.733 88.665C190.128 89.039 189.99 88.826 190.403 88.157C191.126 86.987 188.733 81.994 186 78.972C185.175 78.06 183.088 75.555 181.363 73.406C174.578 64.954 162.958 55.419 160.564 56.337C159.688 56.673 159.28 56.417 159.545 55.699C160.087 54.234 145.341 47.695 143.662 48.656C143.019 49.024 142.86 48.926 143.307 48.436C144.545 47.08 127.551 44.082 118.378 44.039C99.813 43.95 78.365 52.666 63.168 66.473C55.426 73.508 46.356 87.843 42.107 99.759C40.529 104.186 40.163 104.521 36.577 104.818C34.465 104.993 32.451 104.768 32.102 104.318C31.752 103.868 31.691 103.642 31.966 103.816C32.241 103.99 33.206 101.29 34.112 97.816C35.017 94.342 36.057 90.788 36.422 89.917C36.86 88.872 35.511 86.421 32.453 82.707L27.82 77.079L29.517 73.233L31.215 69.386L35.857 70.155C38.411 70.578 41.969 71.218 43.765 71.578C46.568 72.139 47.344 71.826 49.248 69.366C52.781 64.799 63.954 54 65.145 54C66.168 54 65.814 47.11 64.425 39.954C64.008 37.804 64.537 37.085 67.83 35.326L71.73 33.245L77.507 38.175C81.375 41.475 83.816 42.888 84.892 42.45C85.777 42.09 87.85 41.352 89.5 40.81C91.15 40.267 93.175 39.571 94 39.261C95.724 38.614 95.62 38.639 103.262 37.051C108.005 36.065 109.288 35.344 110.512 32.976C111.331 31.394 112 29.613 112 29.018C112 28.423 112.663 26.35 113.472 24.412C114.894 21.01 115.107 20.899 119.646 21.194L124.348 21.5L126.352 28.211ZM110.683 24.188C110.364 24.985 110.127 24.748 110.079 23.583C110.036 22.529 110.272 21.939 110.604 22.271C110.936 22.603 110.972 23.466 110.683 24.188ZM71.434 31.102C68.157 32.385 66.354 32.048 69 30.646C70.375 29.918 71.92 29.552 72.434 29.834C72.947 30.115 72.497 30.686 71.434 31.102ZM177.683 41.188C177.364 41.985 177.127 41.748 177.079 40.583C177.036 39.529 177.272 38.939 177.604 39.271C177.936 39.603 177.972 40.466 177.683 41.188ZM64 51.326C64 51.505 62.875 52.708 61.5 54C60.125 55.292 59 56.063 59 55.713C59 55.364 59.985 54.16 61.189 53.039C63.306 51.066 64 50.643 64 51.326ZM102 61.072C97.875 62.15 94.35 63.476 94.167 64.017C93.983 64.557 93.123 65 92.255 65C91.386 65 88.668 66.177 86.214 67.615C82.86 69.58 82.094 70.45 83.126 71.118C84.097 71.745 83.766 71.932 82 71.753C80.005 71.551 79.559 71.904 79.792 73.5C80.028 75.121 79.895 75.219 79.089 74.018C78.252 72.77 77.618 72.992 75.083 75.421C73.426 77.008 72.35 78.757 72.69 79.308C73.03 79.858 72.819 80.006 72.22 79.636C70.878 78.807 65.827 85.211 66.317 87.119C66.512 87.879 66.483 88.162 66.253 87.75C65.238 85.935 63.958 87.517 60.183 95.25C54.894 106.087 54.294 108.564 56.662 109.777C57.673 110.295 65.95 110.812 75.056 110.926C92.158 111.141 96.419 110.407 97.48 107.062C98.341 104.35 108.729 98.163 113.664 97.423C119.652 96.525 127.71 97.448 131.74 99.492C133.522 100.397 136.738 102.931 138.888 105.123C141.038 107.316 142.994 108.748 143.234 108.305C143.475 107.862 143.511 108.126 143.313 108.891C143.116 109.656 143.706 111.429 144.624 112.83C146.893 116.292 147.651 127.946 145.957 133.314C142.853 143.148 134.849 150.2 123.75 152.881C115.489 154.877 104.646 150.916 98.168 143.538L95.061 140H75.59C62.948 140 55.888 140.372 55.463 141.06C55.102 141.644 55.289 143.331 55.877 144.81C56.465 146.29 57.472 148.85 58.114 150.5L59.281 153.5L60.105 151C60.681 149.254 60.763 149.783 60.377 152.75C59.851 156.794 61.088 158.622 62.407 155.75C62.723 155.063 62.732 155.509 62.426 156.742C61.349 161.089 75.227 176.428 84.3 180.92C86.61 182.063 88.05 183.009 87.5 183.022C86.157 183.054 91.438 185.41 97 187.261C106.646 190.472 112.744 191.268 123.639 190.737C135.703 190.15 143.767 187.626 154 181.235C160.8 176.988 169.123 169.038 168.295 167.582C167.956 166.987 168.03 166.816 168.459 167.202C169.428 168.076 170.762 166.736 174.629 161C177.196 157.192 178.636 154.531 179.497 152C179.591 151.725 180.237 150.15 180.933 148.5C181.629 146.85 182.303 145.05 182.431 144.5C182.559 143.95 183.146 141.7 183.737 139.5C186.327 129.846 185.863 110.463 182.971 107.571C182.437 107.037 182 105.735 182 104.678C182 103.002 181.787 102.931 180.339 104.128C178.822 105.381 178.798 105.309 180.056 103.288C181.286 101.313 181.132 100.516 178.615 95.857C175.366 89.841 171.979 84.576 169.057 81C167.309 78.86 166.86 78.716 165.942 80C165.093 81.187 165.001 81.029 165.503 79.245C166.36 76.202 163.263 74.92 161.355 77.529C160.61 78.548 160 78.936 160 78.391C160 77.846 160.563 76.804 161.25 76.075C162.25 75.015 162.249 74.658 161.244 74.29C160.553 74.036 160.242 73.418 160.553 72.915C160.864 72.412 160.687 72 160.161 72C159.635 72 156.243 70.201 152.623 68.002C138.466 59.401 118.722 56.698 102 61.072ZM114.729 60.604C114.397 60.936 113.534 60.972 112.813 60.683C112.015 60.364 112.252 60.127 113.417 60.079C114.471 60.036 115.061 60.272 114.729 60.604ZM128.5 62C128.16 62.55 127.121 62.968 126.191 62.93C124.812 62.872 124.87 62.701 126.5 62C129.176 60.85 129.211 60.85 128.5 62ZM187.5 63C187.16 63.55 186.346 63.993 185.691 63.985C184.975 63.975 185.099 63.582 186 63C187.921 61.758 188.267 61.758 187.5 63ZM138.953 67.349C148.476 70.661 153.388 73.708 161.323 81.224C165.028 84.734 168.309 87.357 168.613 87.053C168.918 86.749 169.024 86.95 168.849 87.5C168.674 88.05 169.936 90.975 171.654 94C173.371 97.025 175.084 100.519 175.46 101.765C175.845 103.039 176.617 103.737 177.227 103.36C177.871 102.962 178.021 103.158 177.596 103.844C177.204 104.478 177.585 107.734 178.442 111.079C180.217 118.008 180.493 130.828 178.978 136.007C178.417 137.928 177.894 140.944 177.818 142.71C177.741 144.475 177.301 145.686 176.839 145.401C175.708 144.702 175.778 147.286 176.975 150.435C177.512 151.846 177.722 153 177.443 153C177.164 153 176.602 152.099 176.195 150.999C175.581 149.339 174.861 150.178 171.977 155.913C170.065 159.717 168.275 162.788 168 162.738C167.725 162.688 164.473 165.544 160.773 169.083C148.215 181.096 131.664 186.961 114.126 185.613C109.469 185.255 105.173 184.584 104.58 184.122C103.986 183.66 101.936 182.984 100.024 182.621C96.404 181.932 88.367 178.374 86.316 176.552C85.665 175.973 83.335 174.2 81.138 172.612C76.311 169.122 68.938 160.742 66.199 155.633C65.031 153.454 64.003 152.442 63.726 153.201C63.466 153.915 63.219 153.375 63.178 152C63.137 150.625 62.968 148.506 62.802 147.291C62.636 146.076 62.837 145.063 63.25 145.041C71.762 144.576 94 145.237 94 145.955C94 147.664 99.009 151.971 103.808 154.388C113.097 159.067 121.32 159.463 131.948 155.743C136.202 154.254 136.864 153.785 142.849 148C147.727 143.286 149.99 139.403 150.015 135.703C150.026 134.112 150.266 133.871 150.878 134.836C151.413 135.681 151.978 133.6 152.415 129.17C154.347 109.561 139.901 92.286 121.192 91.831C110.986 91.583 102.266 94.879 95.942 101.375L92.5 104.911L77.5 105.04L62.5 105.168L62.78 102.633C63.336 97.604 75.538 80 78.468 80C79.44 80 79.725 79.408 79.309 78.25C78.964 77.287 79.044 76.828 79.487 77.229C79.929 77.63 82.115 76.618 84.343 74.979C86.571 73.341 88.98 72 89.697 72C90.414 72 91 71.602 91 71.117C91 70.631 91.945 69.986 93.101 69.684C94.387 69.347 94.92 68.68 94.475 67.96C93.973 67.147 94.363 66.98 95.743 67.418C96.839 67.766 99.033 67.519 100.618 66.869C109.299 63.311 128.015 63.545 138.953 67.349ZM148.493 67.989C148.843 68.555 148.442 68.723 147.552 68.382C145.82 67.717 145.503 67 146.941 67C147.459 67 148.157 67.445 148.493 67.989ZM199 68C199 68.55 198.523 69 197.941 69C197.359 69 197.16 68.55 197.5 68C197.84 67.45 198.316 67 198.559 67C198.802 67 199 67.45 199 68ZM213 80.378C213 80.585 212.315 81.324 211.477 82.019C210.204 83.076 210.057 83.014 210.584 81.641C211.122 80.24 213 79.257 213 80.378ZM112 96C112 96.55 111.802 97 111.559 97C111.316 97 110.84 96.55 110.5 96C110.16 95.45 110.359 95 110.941 95C111.523 95 112 95.45 112 96ZM177.397 95.833C177.68 96.292 177.277 96.667 176.5 96.667C175.723 96.667 175.32 96.292 175.603 95.833C175.886 95.375 176.29 95 176.5 95C176.71 95 177.114 95.375 177.397 95.833ZM30.683 100.188C30.364 100.985 30.127 100.748 30.079 99.583C30.036 98.529 30.272 97.939 30.604 98.271C30.936 98.603 30.972 99.466 30.683 100.188ZM148.683 116.188C148.364 116.985 148.127 116.748 148.079 115.583C148.036 114.529 148.272 113.939 148.604 114.271C148.936 114.603 148.972 115.466 148.683 116.188ZM196.689 134.75C196.438 135.713 196.232 134.925 196.232 133C196.232 131.075 196.438 130.287 196.689 131.25C196.941 132.213 196.941 133.787 196.689 134.75ZM43.683 145.188C43.364 145.985 43.127 145.748 43.079 144.583C43.036 143.529 43.272 142.939 43.604 143.271C43.936 143.603 43.972 144.466 43.683 145.188ZM191.683 152.188C191.364 152.985 191.127 152.748 191.079 151.583C191.036 150.529 191.272 149.939 191.604 150.271C191.936 150.603 191.972 151.466 191.683 152.188ZM189.362 161.5C189.045 162.325 188.609 163 188.393 163C188.177 163 188 162.325 188 161.5C188 160.675 188.436 160 188.969 160C189.501 160 189.678 160.675 189.362 161.5ZM53 166.25C53 167.901 51.239 166.023 50.67 163.766C50.12 161.58 50.151 161.568 51.55 163.441C52.347 164.509 53 165.773 53 166.25ZM31 164C31 164.55 30.523 165 29.941 165C29.359 165 29.16 164.55 29.5 164C29.84 163.45 30.316 163 30.559 163C30.802 163 31 163.45 31 164ZM71.382 167.552C71.723 168.442 71.555 168.843 70.989 168.493C70.445 168.157 70 167.459 70 166.941C70 165.503 70.717 165.82 71.382 167.552ZM164 171C164 171.55 163.523 172 162.941 172C162.359 172 162.16 171.55 162.5 171C162.84 170.45 163.316 170 163.559 170C163.802 170 164 170.45 164 171ZM79.128 173.75C80.371 175.336 80.336 175.371 78.75 174.128C77.787 173.373 77 172.585 77 172.378C77 171.555 77.821 172.084 79.128 173.75ZM29 179C29 179.55 28.802 180 28.559 180C28.316 180 27.84 179.55 27.5 179C27.16 178.45 27.359 178 27.941 178C28.523 178 29 178.45 29 179ZM31.382 183.552C31.723 184.442 31.555 184.843 30.989 184.493C30.445 184.157 30 183.459 30 182.941C30 181.503 30.717 181.82 31.382 183.552ZM53 188C53 188.55 52.802 189 52.559 189C52.316 189 51.84 188.55 51.5 188C51.16 187.45 51.359 187 51.941 187C52.523 187 53 187.45 53 188ZM86.5 196C86.84 196.55 86.668 197 86.118 197C85.568 197 84.84 196.55 84.5 196C84.16 195.45 84.332 195 84.882 195C85.432 195 86.16 195.45 86.5 196ZM60.693 213.731C60.439 214.704 60.215 214.15 60.195 212.5C60.175 210.85 60.382 210.054 60.656 210.731C60.93 211.408 60.947 212.758 60.693 213.731ZM177.683 212.188C177.364 212.985 177.127 212.748 177.079 211.583C177.036 210.529 177.272 209.939 177.604 210.271C177.936 210.603 177.972 211.466 177.683 212.188ZM75 218C75 218.55 74.802 219 74.559 219C74.316 219 73.84 218.55 73.5 218C73.16 217.45 73.359 217 73.941 217C74.523 217 75 217.45 75 218ZM108.683 220.188C108.364 220.985 108.127 220.748 108.079 219.583C108.036 218.529 108.272 217.939 108.604 218.271C108.936 218.603 108.972 219.466 108.683 220.188Z" fill="#969696"/>
</svg>
