<svg width="209" height="219" viewBox="0 0 209 219" fill="none" xmlns="http://www.w3.org/2000/svg">
<path fill-rule="evenodd" clip-rule="evenodd" d="M87.971 8.194L85.485 15.457L80.399 16.586C77.602 17.207 72.79 18.509 69.706 19.479L64.1 21.242L58.817 16.621C55.912 14.08 52.946 12 52.226 12C50.007 12 38.858 18.207 38.255 19.778C37.942 20.594 38.173 24.41 38.768 28.258L39.851 35.254L31.727 42.963L23.604 50.673L17.234 49.338C13.256 48.504 10.233 48.34 9.18199 48.903C8.25699 49.398 5.943 52.718 4.04 56.281L0.578995 62.759L3.54 66.506C10.99 75.934 10.485 74.443 8.47099 81.096C7.47999 84.369 6.63099 88.949 6.58499 91.273L6.49999 95.5L14.847 95.792C19.709 95.962 23.728 95.641 24.472 95.023C25.175 94.439 26.34 91.833 27.061 89.231C32.441 69.806 47.444 51.935 66.087 42.745C75.648 38.032 83.386 35.981 94.243 35.285C124.767 33.325 153.651 50.059 166.479 77.135C184.319 114.789 169.368 158.775 132.449 177.252C123.235 181.864 114.634 183.999 102.5 184.688C69.931 186.537 39.915 166.426 28.642 135.204C26.914 130.417 25.136 125.938 24.691 125.25C23.746 123.791 9.31699 123.514 7.10799 124.912C5.43599 125.971 6.20899 133.862 8.52699 139.41C10.645 144.479 10.443 145.346 6.02099 150.164C3.83199 152.549 1.77799 155.285 1.45499 156.244C0.886994 157.935 4.25299 165.108 7.79099 169.747C9.47299 171.953 9.63799 171.969 16.724 170.619L23.944 169.243L32.08 177.259L40.215 185.275L39.012 190.942C37.168 199.634 37.651 200.841 44.5 204.644C47.8 206.477 51.239 207.982 52.142 207.988C53.045 207.995 56.099 205.919 58.928 203.375L64.073 198.749L69.693 200.517C72.784 201.489 77.605 202.787 80.407 203.401L85.5 204.517L87.615 210.823C88.778 214.291 90.17 217.57 90.708 218.108C91.246 218.646 95.419 218.954 99.981 218.793L108.276 218.5L110.929 211.514L113.581 204.528L122.041 202.298C126.693 201.071 131.4 199.814 132.5 199.504C133.91 199.106 136.12 200.276 139.993 203.47C143.014 205.961 146.209 208 147.093 208C149.7 208 161 200.835 161 199.182C161 198.347 160.498 194.779 159.884 191.252L158.767 184.841L166.634 177.014L174.5 169.187L181.907 170.711L189.313 172.236L191.111 169.868C192.099 168.566 194.107 165.138 195.573 162.25L198.238 157.001L195.629 153.75C194.193 151.963 191.889 149.111 190.507 147.413L187.995 144.326L189.931 138.701C190.995 135.608 192.169 131.055 192.54 128.584C193.213 124.096 193.218 124.09 199.622 121.959C208.355 119.053 209 118.231 209 110C209 101.94 208.256 100.897 200.763 98.452C193.875 96.205 193.282 95.651 192.466 90.692C192.087 88.387 191.225 85.15 190.552 83.5C188.026 77.311 187.939 75.377 190.076 72.886C191.201 71.574 192.958 69.526 193.98 68.335C198.066 63.577 198.195 62.448 195.254 57.198C189.591 47.087 190.522 47.64 181.897 49.269L174.314 50.7L166.553 42.928L158.793 35.156L159.992 28.048C160.651 24.139 160.968 20.391 160.695 19.72C160.422 19.049 157.265 16.942 153.679 15.039C146.264 11.103 145.478 11.241 138.659 17.674L134.867 21.252L127.683 19.191C123.732 18.058 119.01 16.834 117.19 16.472C113.755 15.79 112.906 14.53 109.799 5.5L108.422 1.5L99.439 1.215L90.456 0.931L87.971 8.194ZM81.729 24.604C81.397 24.936 80.534 24.972 79.813 24.683C79.015 24.364 79.252 24.127 80.417 24.079C81.471 24.036 82.061 24.272 81.729 24.604ZM118.729 24.604C118.397 24.936 117.534 24.972 116.813 24.683C116.015 24.364 116.252 24.127 117.417 24.079C118.471 24.036 119.061 24.272 118.729 24.604ZM69 28.441C69 28.684 68.55 29.16 68 29.5C67.45 29.84 67 29.641 67 29.059C67 28.477 67.45 28 68 28C68.55 28 69 28.198 69 28.441ZM49 40C49 40.55 48.523 41 47.941 41C47.359 41 47.16 40.55 47.5 40C47.84 39.45 48.316 39 48.559 39C48.802 39 49 39.45 49 40ZM86.5 44.406C72.627 47.204 59.681 54.257 50.792 63.858C42.178 73.162 34.4 87.725 35.164 93.121L35.5 95.5L55.386 95.772L75.271 96.043L78.661 92.083C86.063 83.435 100.108 80.266 110.351 84.932C127.754 92.86 132.052 115.797 118.64 129.171C107.399 140.379 88.83 139.797 78.661 127.917L75.271 123.957L55.386 124.228L35.5 124.5L35.185 127.231C34.777 130.773 39.237 140.897 44.561 148.514C60.141 170.805 88.394 181.515 114.5 175.028C134.044 170.171 149.312 158.341 158.437 140.984C168.359 122.112 168.579 100.699 159.058 80.384C155.674 73.162 153.562 70.298 146.253 63.018C139.214 56.008 135.835 53.491 129 50.168C115.323 43.518 100.719 41.538 86.5 44.406ZM84 54C84 54.55 83.802 55 83.559 55C83.316 55 82.84 54.55 82.5 54C82.16 53.45 82.359 53 82.941 53C83.523 53 84 53.45 84 54ZM136.526 64.807C136.219 65.115 135.412 64.808 134.733 64.124C133.753 63.136 133.868 63.022 135.293 63.564C136.279 63.94 136.834 64.499 136.526 64.807ZM37 165.118C37 165.668 36.55 165.84 36 165.5C35.45 165.16 35 164.432 35 163.882C35 163.332 35.45 163.16 36 163.5C36.55 163.84 37 164.568 37 165.118ZM84 166C84 166.55 83.55 167 83 167C82.45 167 82 166.55 82 166C82 165.45 82.45 165 83 165C83.55 165 84 165.45 84 166ZM118 195C118 195.55 117.55 196 117 196C116.45 196 116 195.55 116 195C116 194.45 116.45 194 117 194C117.55 194 118 194.45 118 195Z" fill="black"/>
</svg>
