<svg width="250" height="250" viewBox="0 0 250 250" fill="none" xmlns="http://www.w3.org/2000/svg">
<g clip-path="url(#clip0_1_42)">
<path fill-rule="evenodd" clip-rule="evenodd" d="M0 125V250H125H250V125V0H125H0V125Z" fill="#E4F2AA"/>
<path fill-rule="evenodd" clip-rule="evenodd" d="M0 125V250H125H250V125V0H125H0V125ZM70.247 84.749C70.107 100.562 69.87 120.475 69.719 129C69.569 137.525 69.345 124.588 69.223 100.25C69.1 75.912 69.338 56 69.75 55.999C70.162 55.999 70.386 68.937 70.247 84.749ZM148.606 59.412C151.848 60.891 156.468 63.991 158.874 66.301C163.315 70.563 169.008 78.524 168.991 80.446C168.985 81.026 167.685 79.241 166.102 76.48C160.564 66.826 151.192 60.079 139.611 57.409C133.891 56.09 133.795 56.023 138.106 56.361C140.64 56.559 145.365 57.932 148.606 59.412ZM171.93 98.55C171.968 103.527 172.448 108.142 172.996 108.804C173.635 109.575 173.489 109.557 172.59 108.754C171.6 107.869 171.078 104.323 170.817 96.711C170.613 90.777 170.764 86.727 171.153 87.711C171.542 88.695 171.891 93.572 171.93 98.55ZM177.128 111.75C178.371 113.336 178.336 113.371 176.75 112.128C175.084 110.821 174.555 110 175.378 110C175.585 110 176.373 110.787 177.128 111.75ZM185.128 119.75C186.371 121.336 186.336 121.371 184.75 120.128C183.787 119.373 183 118.585 183 118.378C183 117.555 183.821 118.084 185.128 119.75ZM189.807 127.526C189.499 127.834 188.94 127.279 188.564 126.293C188.022 124.868 188.136 124.753 189.124 125.733C189.808 126.412 190.115 127.219 189.807 127.526ZM192.914 135C192.878 135.989 192.567 135.819 192 134.5C190.819 131.751 190.819 130.172 192 132C192.533 132.825 192.945 134.175 192.914 135ZM193.683 139.188C193.364 139.985 193.127 139.748 193.079 138.583C193.036 137.529 193.272 136.939 193.604 137.271C193.936 137.603 193.972 138.466 193.683 139.188ZM194.718 149.736C194.488 151.256 194.294 150.25 194.286 147.5C194.279 144.75 194.467 143.506 194.704 144.736C194.941 145.966 194.947 148.216 194.718 149.736ZM69.747 182.193C69.574 188.962 69.432 183.7 69.431 170.5C69.431 157.3 69.572 151.762 69.746 158.193C69.92 164.624 69.921 175.424 69.747 182.193ZM193.683 158.188C193.364 158.985 193.127 158.748 193.079 157.583C193.036 156.529 193.272 155.939 193.604 156.271C193.936 156.603 193.972 157.466 193.683 158.188ZM181 180.5C178.571 182.975 176.359 185 176.084 185C175.809 185 177.571 182.975 180 180.5C182.429 178.025 184.641 176 184.916 176C185.191 176 183.429 178.025 181 180.5ZM170.559 188.532C169.491 189.339 168.141 189.984 167.559 189.965C166.976 189.945 167.625 189.286 169 188.5C172.239 186.648 173.028 186.664 170.559 188.532ZM162.5 192C161.4 192.473 159.6 192.846 158.5 192.83C156.892 192.806 156.99 192.644 159 192C162.419 190.905 165.048 190.905 162.5 192ZM154.75 193.689C153.787 193.941 152.213 193.941 151.25 193.689C150.287 193.438 151.075 193.232 153 193.232C154.925 193.232 155.713 193.438 154.75 193.689Z" fill="#AEDB01"/>
<path fill-rule="evenodd" clip-rule="evenodd" d="M0 125V250H125H250V125V0H125H0V125ZM148.5 59.3C154.749 62.215 162.651 69.142 166.16 74.782C169.744 80.541 171.984 89.861 171.992 99.05C171.997 104.448 172.461 108.129 173.25 109.035C173.938 109.824 173.375 109.558 172 108.443C167.862 105.088 162.148 102.966 154.626 101.988C145.235 100.767 117.275 100.783 108.766 102.013C89.476 104.803 73.22 120.37 70.142 139C69.521 142.762 69.197 130.51 69.117 100.215L69 55.93L105.75 56.215L142.5 56.5L148.5 59.3ZM177.128 111.75C178.371 113.336 178.336 113.371 176.75 112.128C175.084 110.821 174.555 110 175.378 110C175.585 110 176.373 110.787 177.128 111.75ZM185.128 119.75C186.371 121.336 186.336 121.371 184.75 120.128C183.787 119.373 183 118.585 183 118.378C183 117.555 183.821 118.084 185.128 119.75ZM189.807 127.526C189.499 127.834 188.94 127.279 188.564 126.293C188.022 124.868 188.136 124.753 189.124 125.733C189.808 126.412 190.115 127.219 189.807 127.526ZM192.914 135C192.878 135.989 192.567 135.819 192 134.5C190.819 131.751 190.819 130.172 192 132C192.533 132.825 192.945 134.175 192.914 135ZM193.683 139.188C193.364 139.985 193.127 139.748 193.079 138.583C193.036 137.529 193.272 136.939 193.604 137.271C193.936 137.603 193.972 138.466 193.683 139.188ZM194.718 149.736C194.488 151.256 194.294 150.25 194.286 147.5C194.279 144.75 194.467 143.506 194.704 144.736C194.941 145.966 194.947 148.216 194.718 149.736ZM69.747 182.193C69.574 188.962 69.432 183.7 69.431 170.5C69.431 157.3 69.572 151.762 69.746 158.193C69.92 164.624 69.921 175.424 69.747 182.193ZM193.683 158.188C193.364 158.985 193.127 158.748 193.079 157.583C193.036 156.529 193.272 155.939 193.604 156.271C193.936 156.603 193.972 157.466 193.683 158.188ZM181 180.5C178.571 182.975 176.359 185 176.084 185C175.809 185 177.571 182.975 180 180.5C182.429 178.025 184.641 176 184.916 176C185.191 176 183.429 178.025 181 180.5ZM170.559 188.532C169.491 189.339 168.141 189.984 167.559 189.965C166.976 189.945 167.625 189.286 169 188.5C172.239 186.648 173.028 186.664 170.559 188.532ZM162.5 192C161.4 192.473 159.6 192.846 158.5 192.83C156.892 192.806 156.99 192.644 159 192C162.419 190.905 165.048 190.905 162.5 192ZM154.75 193.689C153.787 193.941 152.213 193.941 151.25 193.689C150.287 193.438 151.075 193.232 153 193.232C154.925 193.232 155.713 193.438 154.75 193.689Z" fill="#B0B1AC"/>
<path fill-rule="evenodd" clip-rule="evenodd" d="M0 125V250H125H250V125V0H125H0V125ZM148.5 59.3C154.749 62.215 162.651 69.142 166.16 74.782C169.758 80.563 171.984 89.858 171.992 99.131L172 107.763L175.75 110.601C186.01 118.367 192.045 128.334 194.13 140.956C197.905 163.818 181.733 187.673 158.888 192.939C156.304 193.535 136.925 193.961 111.75 193.976L69 194V124.965V55.93L105.75 56.215L142.5 56.5L148.5 59.3ZM107.857 102.073C88.115 104.972 71.435 122.539 70.204 141.727L69.726 149.177L105.113 148.798L140.5 148.42L147.359 145.56C158.992 140.71 167.622 130.315 171.12 116.941C172.911 110.093 171.839 107.465 166.242 104.986C163.634 103.831 158.35 102.476 154.5 101.974C145.988 100.865 115.646 100.929 107.857 102.073Z" fill="#92B515"/>
<path fill-rule="evenodd" clip-rule="evenodd" d="M0 125V250H125H250V125V0H125H0V125ZM148.5 59.3C154.749 62.215 162.651 69.142 166.16 74.782C169.758 80.563 171.984 89.858 171.992 99.131L172 107.763L175.75 110.601C186.01 118.367 192.045 128.334 194.13 140.956C197.905 163.818 181.733 187.673 158.888 192.939C156.304 193.535 136.925 193.961 111.75 193.976L69 194V124.965V55.93L105.75 56.215L142.5 56.5L148.5 59.3ZM104.046 103.598C95.358 105.933 89.936 109.062 83.428 115.496C75.642 123.195 71.099 132.434 70.277 142.242L69.695 149.177L105.098 148.805L140.5 148.433L146.872 145.737C158.432 140.846 165.744 132.87 169.996 120.513C173.766 109.554 172.717 107.492 161.645 104.1C155.506 102.22 152.421 102.007 132.145 102.066C115.575 102.114 108.037 102.525 104.046 103.598Z" fill="#949985"/>
<path fill-rule="evenodd" clip-rule="evenodd" d="M0 125V250H125H250V125V0H125H0V125ZM148.5 59.3C154.749 62.215 162.651 69.142 166.16 74.782C169.758 80.563 171.984 89.858 171.992 99.131L172 107.763L175.75 110.601C186.01 118.367 192.045 128.334 194.13 140.956C197.905 163.818 181.733 187.673 158.888 192.939C156.304 193.535 136.925 193.961 111.75 193.976L69 194V124.965V55.93L105.75 56.215L142.5 56.5L148.5 59.3ZM104.046 103.598C95.358 105.933 89.936 109.062 83.428 115.496C75.901 122.938 71.172 132.347 70.308 141.603L69.711 148L102.605 147.984C139.266 147.967 143.283 147.477 152.59 141.887C162.249 136.086 169.554 124.718 170.689 113.723C171.345 107.366 170.972 106.968 161.645 104.105C155.5 102.218 152.441 102.007 132.145 102.066C115.575 102.114 108.037 102.525 104.046 103.598Z" fill="#7A9526"/>
<path fill-rule="evenodd" clip-rule="evenodd" d="M0 125V250H125H250V125V0H125H0V125ZM148.5 59.3C154.749 62.215 162.651 69.142 166.16 74.782C169.758 80.563 171.984 89.858 171.992 99.131L172 107.763L175.75 110.601C186.01 118.367 192.045 128.334 194.13 140.956C197.905 163.818 181.733 187.673 158.888 192.939C156.304 193.535 136.925 193.961 111.75 193.976L69 194V124.965V55.93L105.75 56.215L142.5 56.5L148.5 59.3ZM103.618 104.076C93.822 106.467 83.065 114.505 77.095 123.894C73.773 129.12 69.679 141.71 70.172 145.186L70.5 147.5L100.5 147.777C142.184 148.161 147.832 147.071 158.909 136.505C165.604 130.12 169.582 122.407 170.586 113.869L171.235 108.347L165.867 105.925C160.664 103.577 159.693 103.498 134 103.316C119.425 103.213 105.753 103.555 103.618 104.076Z" fill="#5D6D3C"/>
<path fill-rule="evenodd" clip-rule="evenodd" d="M0 125V250H125H250V125V0H125H0V125ZM148.5 59.3C154.749 62.215 162.651 69.142 166.16 74.782C169.758 80.563 171.984 89.858 171.992 99.131L172 107.763L175.75 110.601C186.01 118.367 192.045 128.334 194.13 140.956C197.905 163.818 181.733 187.673 158.888 192.939C156.304 193.535 136.925 193.961 111.75 193.976L69 194V124.965V55.93L105.75 56.215L142.5 56.5L148.5 59.3Z" fill="white"/>
</g>
<defs>
<clipPath id="clip0_1_42">
<rect width="250" height="250" rx="125" fill="white"/>
</clipPath>
</defs>
</svg>
