<svg width="64" height="64" viewBox="0 0 64 64" fill="none" xmlns="http://www.w3.org/2000/svg">
<g clip-path="url(#clip0_1_2)">
<path fill-rule="evenodd" clip-rule="evenodd" d="M0 32V64H32H64V32V0H32H0V32Z" fill="#BFF3E7"/>
<path fill-rule="evenodd" clip-rule="evenodd" d="M0 32V64H32H64V32V0H32H0V32ZM18.344 18.545C18.032 19.359 18.34 20.705 19.03 21.536C20.074 22.794 20.008 22.94 18.634 22.413C17.558 22 17.06 20.801 17.2 18.959C17.318 17.408 17.752 16.347 18.164 16.601C18.576 16.856 18.657 17.73 18.344 18.545ZM46.648 20.012C46.54 22.937 46.852 23.888 47.802 23.523C48.531 23.243 48.821 23.481 48.46 24.064C47.167 26.157 45.669 24.294 45.75 20.694C45.85 16.269 45.887 16 46.398 16C46.617 16 46.729 17.805 46.648 20.012ZM17.526 24.807C17.219 25.115 16.412 24.808 15.733 24.124C14.753 23.136 14.868 23.022 16.293 23.564C17.279 23.94 17.834 24.499 17.526 24.807ZM12.716 34.75C12.487 36.263 12.3 35.025 12.3 32C12.3 28.975 12.487 27.738 12.716 29.25C12.945 30.762 12.945 33.237 12.716 34.75ZM41.526 28.807C41.219 29.115 40.412 28.808 39.733 28.124C38.753 27.136 38.868 27.022 40.293 27.564C41.279 27.94 41.834 28.499 41.526 28.807ZM51.716 34.75C51.487 36.263 51.3 35.025 51.3 32C51.3 28.975 51.487 27.738 51.716 29.25C51.945 30.762 51.945 33.237 51.716 34.75ZM29 28.393C29 28.609 28.302 29.054 27.448 29.382C26.558 29.723 26.157 29.555 26.507 28.989C27.094 28.038 29 27.583 29 28.393ZM24.554 36.087C25.526 37.66 23.425 39.377 21.455 38.621C20.091 38.098 20.007 37.697 21.01 36.488C22.473 34.725 23.631 34.594 24.554 36.087ZM21.5 37C21.16 37.55 21.584 38 22.441 38C23.298 38 24 37.55 24 37C24 36.45 23.577 36 23.059 36C22.541 36 21.84 36.45 21.5 37ZM18.333 43.306C18.333 45.338 18.078 47.255 17.766 47.567C17.455 47.879 17.267 46.298 17.35 44.055C17.46 41.074 17.15 40.111 16.198 40.477C15.469 40.757 15.179 40.519 15.54 39.936C16.819 37.865 18.333 39.691 18.333 43.306ZM48.493 39.989C48.843 40.555 48.442 40.723 47.552 40.382C45.82 39.717 45.503 39 46.941 39C47.459 39 48.157 39.445 48.493 39.989ZM47.273 47.266C46.346 48.992 45.307 46.854 45.819 44.274L46.369 41.5L47.027 44C47.389 45.375 47.5 46.845 47.273 47.266Z" fill="#74E8CF"/>
<path fill-rule="evenodd" clip-rule="evenodd" d="M0 32V64H32H64V32V0H32H0V32ZM29.8 12.2C30.539 12.939 31 16.565 31 21.641C31 26.174 31.457 30.165 32.016 30.51C32.575 30.856 32.726 31.634 32.352 32.239C31.938 32.909 32.226 33.126 33.086 32.795C34.254 32.344 34.461 33.926 34.274 41.875C34.114 48.654 34.327 50.835 34.992 49.25C36.071 46.676 37.268 46.137 36.3 48.661C35.806 49.949 36.112 50.204 37.665 49.798C38.782 49.506 39.667 49.766 39.667 50.387C39.667 50.999 38.279 51.458 36.584 51.407L33.5 51.314L33.23 43.407C33.082 39.058 32.673 34.825 32.322 34C31.97 33.175 31.772 32.107 31.882 31.627C31.992 31.147 31.501 30.979 30.791 31.253C29.782 31.642 29.549 29.647 29.726 22.125C29.886 15.346 29.673 13.165 29.008 14.75C28.489 15.988 27.875 17 27.643 17C26.811 17 27.522 13.484 28.5 12.765C29.05 12.361 28.461 12.024 27.191 12.015C25.921 12.007 25.146 12.427 25.469 12.95C25.792 13.472 25.184 14.366 24.118 14.937C22.568 15.766 22.227 15.66 22.411 14.407C22.862 11.332 27.536 9.936 29.8 12.2ZM39.209 12.896C39.039 13.688 39.487 14.027 40.292 13.718C41.048 13.428 41.667 13.798 41.667 14.541C41.667 15.523 41.184 15.633 39.899 14.946C37.258 13.533 35.709 13.8 36.382 15.552C36.723 16.442 36.555 16.843 35.989 16.493C35.445 16.157 34.916 15.121 34.814 14.191C34.711 13.261 34.345 16.325 34 21L33.373 29.5L33.186 21.45C33.064 16.158 33.424 12.976 34.238 12.162C35.829 10.571 39.591 11.127 39.209 12.896ZM35.75 12.662C36.438 12.94 37.563 12.94 38.25 12.662C38.938 12.385 38.375 12.158 37 12.158C35.625 12.158 35.063 12.385 35.75 12.662ZM20.667 15.405C20.667 16.177 20.166 16.617 19.553 16.382C18.941 16.147 18.345 17.099 18.229 18.498C18.024 20.978 18.09 21.005 20.843 19.581C23.15 18.388 23.667 18.367 23.667 19.465C23.667 20.248 23.041 20.569 22.169 20.235C21.239 19.878 20.93 20.077 21.352 20.761C21.726 21.366 21.603 22.127 21.078 22.452C20.553 22.776 20.294 23.931 20.503 25.017C20.863 26.884 20.726 26.91 17.991 25.496C14.661 23.773 13.641 23.61 14.457 24.931C14.774 25.443 14.575 26.144 14.016 26.49C12.656 27.33 12.713 36.313 14.087 37.687C14.87 38.47 14.827 38.989 13.933 39.542C13.16 40.019 12.945 39.899 13.362 39.224C13.731 38.627 13.575 37.856 13.016 37.51C11.572 36.617 11.754 27.665 13.25 26.053C14.27 24.953 14.179 24.819 12.75 25.321C10.376 26.157 10.534 25.32 13 24C14.433 23.233 15.591 23.246 17.086 24.046C19.799 25.498 20.547 24.69 18.44 22.583C17.515 21.657 17.012 20.063 17.299 18.964C17.589 17.857 17.309 16.985 16.656 16.965C15.822 16.939 18.562 14.895 20.583 14.035C20.629 14.016 20.667 14.632 20.667 15.405ZM46.649 19.925C46.522 23.313 46.787 23.861 48.473 23.694C49.559 23.587 50.459 24.025 50.473 24.667C50.488 25.308 50.837 26.171 51.25 26.583C52.375 27.708 52.153 36.787 50.984 37.51C50.425 37.856 50.223 38.552 50.536 39.058C50.85 39.566 50.337 39.683 49.388 39.319C48.162 38.848 47.896 39.022 48.457 39.93C49.071 40.925 48.796 40.961 47.186 40.1C44.674 38.755 43.693 38.694 44.457 39.931C44.774 40.443 44.568 41.149 44 41.5C43.432 41.851 43.223 42.552 43.536 43.058C43.85 43.566 43.337 43.683 42.388 43.319C41.259 42.885 40.909 43.043 41.364 43.78C41.745 44.396 41.218 45.348 40.195 45.896C38.807 46.639 38.333 46.549 38.333 45.541C38.333 44.753 38.956 44.43 39.831 44.765C40.773 45.127 41.072 44.925 40.636 44.22C40.255 43.604 40.83 42.626 41.914 42.046C43.139 41.391 43.738 40.235 43.498 38.991C43.17 37.286 43.401 37.144 45.056 38.03C48.679 39.969 51 37.624 51 32.024C51 29.326 50.543 26.835 49.984 26.49C49.425 26.144 49.226 25.443 49.543 24.931C50.592 23.233 48.33 23.965 44.502 26.563C41.585 28.543 40.473 28.851 39.613 27.916C38.78 27.011 38.826 26.891 39.794 27.439C41.281 28.282 44.249 26.211 43.437 24.898C43.14 24.417 43.53 24.266 44.305 24.564C45.392 24.981 45.714 24.05 45.714 20.5C45.714 17.35 45.338 16.04 44.524 16.352C43.869 16.604 43.333 16.202 43.333 15.459C43.333 14.488 43.82 14.369 45.065 15.035C46.307 15.7 46.755 17.084 46.649 19.925ZM29 23.617C29 26.739 28.555 29 27.941 29C27.359 29 27.188 29.495 27.562 30.1C28.033 30.862 27.582 30.846 26.093 30.05C24.895 29.409 24.25 28.404 24.636 27.78C25.072 27.075 24.773 26.873 23.831 27.235C22.956 27.57 22.333 27.247 22.333 26.459C22.333 25.451 22.807 25.361 24.195 26.104C25.218 26.652 25.756 27.586 25.389 28.18C25 28.81 25.301 29.069 26.111 28.802C26.976 28.516 27.617 26.532 27.81 23.542C28.054 19.764 27.823 18.854 26.727 19.275C25.96 19.569 25.333 19.239 25.333 18.542C25.333 17.805 26.101 17.475 27.167 17.754C28.658 18.144 29 19.237 29 23.617ZM38.667 18.405C38.667 19.177 38.09 19.588 37.386 19.318C36.458 18.962 36.005 20.434 35.742 24.663L35.378 30.5L35.189 24.323C35.032 19.185 35.294 18.07 36.75 17.689C37.712 17.438 38.538 17.18 38.583 17.116C38.629 17.052 38.667 17.632 38.667 18.405ZM43.436 21.103C42.55 22.538 40.718 21.689 40.428 19.709C40.227 18.338 40.54 18.218 42.118 19.063C43.184 19.634 43.777 20.552 43.436 21.103ZM41.729 25.604C41.397 25.936 40.534 25.972 39.813 25.683C39.015 25.364 39.252 25.127 40.417 25.079C41.471 25.036 42.061 25.272 41.729 25.604ZM39.364 36.22C38.928 36.925 39.227 37.127 40.169 36.765C41.044 36.43 41.667 36.753 41.667 37.541C41.667 38.549 41.193 38.639 39.805 37.896C38.782 37.348 38.244 36.414 38.611 35.82C39.001 35.189 38.702 34.936 37.889 35.21C36.944 35.53 36.5 37.328 36.5 40.842C36.5 43.681 36.163 46.003 35.75 46.002C35.337 46.001 35 43.525 35 40.5C35 37.296 35.442 35 36.059 35C36.641 35 36.812 34.505 36.438 33.9C35.967 33.138 36.418 33.154 37.907 33.95C39.105 34.591 39.75 35.596 39.364 36.22ZM29 40C29 43.3 28.663 46.001 28.25 46.002C27.837 46.003 27.652 43.303 27.839 40.002C28.276 32.255 29 32.254 29 40ZM24.5 36.969C24.5 37.685 23.532 38.629 22.349 39.067C20.116 39.893 19.744 38.801 21.37 36.197C22.353 34.623 24.5 35.152 24.5 36.969ZM30.733 46.224C30.522 48.576 30.346 46.9 30.343 42.5C30.339 38.1 30.512 36.176 30.727 38.224C30.942 40.272 30.945 43.872 30.733 46.224ZM21.5 37C21.16 37.55 21.584 38 22.441 38C23.298 38 24 37.55 24 37C24 36.45 23.577 36 23.059 36C22.541 36 21.84 36.45 21.5 37ZM18.4 42.539C18.321 45.035 18.018 47.315 17.728 47.606C17.437 47.896 17.267 46.298 17.35 44.055C17.469 40.829 17.186 40.084 16 40.491C15.138 40.786 15.326 40.366 16.441 39.502C17.509 38.676 18.419 38 18.463 38C18.508 38 18.479 40.042 18.4 42.539ZM47 44C47 45.1 47 46.225 47 46.5C47 46.775 46.692 46.888 46.315 46.75C45.354 46.399 45.263 42 46.217 42C46.648 42 47 42.9 47 44ZM23.395 44.17C22.925 44.93 23.196 45.139 24.169 44.765C25.044 44.43 25.667 44.753 25.667 45.541C25.667 46.549 25.193 46.639 23.805 45.896C22.218 45.046 22.085 43 23.618 43C23.893 43 23.793 43.526 23.395 44.17ZM20.667 48.456C20.667 49.257 20.284 49.676 19.817 49.387C19.35 49.098 19.226 48.443 19.543 47.931C20.351 46.623 20.667 46.77 20.667 48.456ZM28.414 49.986C27.767 50.633 27.429 50.295 27.429 49C27.429 47.705 27.767 47.367 28.414 48.014C29.062 48.662 29.062 49.338 28.414 49.986ZM44.469 47.95C44.792 48.472 44.218 49.348 43.195 49.896C41.807 50.639 41.333 50.549 41.333 49.541C41.333 48.753 41.956 48.43 42.831 48.765C43.804 49.139 44.075 48.93 43.605 48.17C43.207 47.526 43.107 47 43.382 47C43.657 47 44.146 47.427 44.469 47.95ZM26 50.476C26 50.699 25.48 51.203 24.845 51.595C24.077 52.07 23.965 51.866 24.51 50.985C25.086 50.052 24.885 49.83 23.831 50.235C22.956 50.57 22.333 50.247 22.333 49.459C22.333 48.459 22.81 48.363 24.167 49.089C25.175 49.629 26 50.253 26 50.476Z" fill="#10E0B8"/>
<path fill-rule="evenodd" clip-rule="evenodd" d="M24.048 12.951C23.249 13.455 22.237 13.646 21.798 13.375C21.359 13.104 21 13.385 21 14C21 14.615 20.48 14.797 19.845 14.405C19.141 13.969 18.962 14.13 19.386 14.816C19.805 15.493 19.107 16.186 17.635 16.555C16.29 16.893 14.964 18.031 14.688 19.085C14.254 20.745 13.242 21 7.094 21H0V42.5V64H32H64V42.5V21H56.975C50.397 21 49.89 20.841 48.997 18.493C48.473 17.114 47.697 16.042 47.272 16.111C45.166 16.454 43.955 15.882 44.595 14.845C45.038 14.13 44.87 13.962 44.155 14.405C43.52 14.797 43 14.615 43 14C43 13.385 42.55 13.16 42 13.5C41.45 13.84 41 13.711 41 13.213C41 12.715 39.313 12.307 37.25 12.305L33.5 12.303L33.616 20.901C33.679 25.631 33.538 27.475 33.302 25C32.651 18.157 31 17.613 31 24.241C31 27.344 31.457 30.165 32.016 30.51C32.575 30.856 32.726 31.634 32.352 32.239C31.938 32.909 32.226 33.126 33.086 32.795C34.254 32.344 34.461 33.926 34.274 41.875C34.114 48.654 34.327 50.835 34.992 49.25C36.071 46.676 37.268 46.137 36.3 48.661C35.806 49.949 36.112 50.204 37.665 49.798C38.782 49.506 39.667 49.766 39.667 50.387C39.667 50.999 38.279 51.458 36.584 51.407L33.5 51.314L33.23 43.407C33.082 39.058 32.673 34.825 32.322 34C31.97 33.175 31.772 32.107 31.882 31.627C31.992 31.147 31.501 30.979 30.791 31.252C29.771 31.646 29.605 29.721 30 22.067L30.5 12.383L28 12.209C26.625 12.113 24.846 12.447 24.048 12.951ZM28.753 14.807C28.548 15.738 27.845 16.387 27.191 16.25C26.536 16.112 26 16.45 26 17C26 17.55 26.675 18 27.5 18C28.652 18 29 19.278 29 23.5C29 26.704 28.558 29 27.941 29C27.359 29 27.188 29.495 27.562 30.1C28.033 30.862 27.582 30.846 26.093 30.05C24.895 29.409 24.25 28.404 24.636 27.78C25.072 27.075 24.773 26.873 23.831 27.235C22.986 27.559 22.333 27.257 22.333 26.542C22.333 25.791 23.104 25.476 24.223 25.769C25.375 26.07 25.895 26.83 25.556 27.715C25.219 28.593 25.493 29.004 26.249 28.755C27.724 28.27 28.569 19 27.138 19C26.604 19 25.978 19.337 25.747 19.75C25.517 20.163 25.459 19.952 25.62 19.282C25.781 18.612 25.482 17.798 24.956 17.473C24.43 17.148 24 17.385 24 18C24 18.615 23.438 18.8 22.75 18.412C21.75 17.848 21.75 17.976 22.75 19.053C23.438 19.794 23.993 20.873 23.985 21.45C23.976 22.027 23.583 21.891 23.112 21.147C22.453 20.108 21.776 20.05 20.193 20.897C17.263 22.465 16.816 22.293 17.204 19.75C17.393 18.512 18.099 17.612 18.774 17.75C19.448 17.887 20 17.475 20 16.833C20 16.192 20.262 15.929 20.583 16.25C20.904 16.571 21.926 16.074 22.853 15.147C25.194 12.806 29.243 12.573 28.753 14.807ZM41 15C42.1 16.1 43 16.689 43 16.309C43 15.929 43.708 16.491 44.574 17.559C45.44 18.626 45.82 18.868 45.42 18.095C44.918 17.128 45.08 16.931 45.942 17.464C46.655 17.905 47.012 19.465 46.773 21.093C46.39 23.705 46.567 23.896 48.841 23.325C50.854 22.82 51.21 23.01 50.708 24.318C50.367 25.208 50.518 26.202 51.044 26.527C52.324 27.318 52.272 36.714 50.984 37.51C50.425 37.856 50.223 38.552 50.536 39.058C50.85 39.566 50.337 39.683 49.388 39.319C48.162 38.848 47.896 39.022 48.457 39.93C49.071 40.925 48.796 40.961 47.186 40.1C44.674 38.755 43.693 38.694 44.457 39.931C44.774 40.443 44.568 41.149 44 41.5C43.432 41.851 43.223 42.552 43.536 43.058C43.85 43.566 43.337 43.683 42.388 43.319C41.259 42.885 40.909 43.043 41.364 43.78C41.745 44.396 41.218 45.348 40.195 45.896C38.807 46.639 38.333 46.549 38.333 45.541C38.333 44.753 38.956 44.43 39.831 44.765C40.773 45.127 41.072 44.925 40.636 44.22C40.255 43.604 40.83 42.626 41.914 42.046C43.139 41.391 43.738 40.235 43.498 38.991C43.17 37.286 43.401 37.144 45.056 38.03C48.695 39.978 51 37.625 51 31.965C51 29.002 50.554 27 49.893 27C49.284 27 49.045 26.325 49.362 25.5C49.678 24.675 49.72 24 49.455 24C48.709 24 44.699 26.34 42.726 27.926C41.319 29.058 40.7 29.098 39.726 28.117C38.756 27.139 38.832 27.008 40.09 27.486C40.964 27.819 42.232 27.426 42.907 26.612C43.901 25.414 43.742 24.742 42.067 23.067C39.634 20.634 39.439 19.847 41.462 20.624C42.266 20.932 43.196 22.043 43.529 23.092C44.289 25.485 45.941 25.618 45.488 23.25C45.304 22.288 45.119 21.162 45.077 20.75C45.034 20.337 44.663 20.053 44.25 20.118C42.153 20.449 40.958 19.876 41.595 18.845C42.038 18.13 41.87 17.962 41.155 18.405C40.52 18.797 40 18.615 40 18C40 17.385 39.57 17.148 39.044 17.473C38.518 17.798 38.219 18.612 38.38 19.282C38.541 19.952 38.483 20.163 38.253 19.75C37.062 17.621 36.061 19.612 35.739 24.75L35.378 30.5L35.189 24.25C35.039 19.277 35.306 18 36.5 18C37.325 18 38 17.55 38 17C38 16.45 37.464 16.113 36.809 16.25C36.155 16.387 35.447 15.713 35.236 14.75C34.698 12.29 38.452 12.452 41 15ZM21.363 22.804C20.769 23.187 20.397 24.233 20.535 25.129C20.714 26.286 20.235 26.613 18.878 26.258C17.828 25.983 16.724 25.363 16.425 24.879C16.127 24.396 15.432 24 14.882 24C14.332 24 14.141 24.419 14.457 24.931C14.774 25.443 14.575 26.144 14.016 26.49C12.656 27.33 12.713 36.313 14.087 37.687C14.87 38.47 14.827 38.989 13.933 39.542C13.16 40.019 12.945 39.899 13.362 39.224C13.731 38.627 13.575 37.856 13.016 37.51C11.572 36.617 11.754 27.665 13.25 26.053C14.27 24.953 14.179 24.819 12.75 25.321C11.787 25.66 11 25.554 11 25.085C11 23.72 15.159 23.015 17.096 24.051C19.444 25.308 20.273 25.25 19.431 23.888C19.053 23.277 19.351 22.401 20.093 21.943C21.694 20.953 22.932 21.793 21.363 22.804ZM42 25C42 25.55 41.212 25.993 40.25 25.985C38.754 25.972 38.718 25.828 40 25C41.887 23.78 42 23.78 42 25ZM39.364 36.22C38.928 36.925 39.227 37.127 40.169 36.765C41.044 36.43 41.667 36.753 41.667 37.541C41.667 38.549 41.193 38.639 39.805 37.896C38.782 37.348 38.244 36.414 38.611 35.82C39.001 35.189 38.702 34.936 37.889 35.21C36.944 35.53 36.5 37.328 36.5 40.842C36.5 43.681 36.163 46.003 35.75 46.002C35.337 46.001 35 43.525 35 40.5C35 37.296 35.442 35 36.059 35C36.641 35 36.812 34.505 36.438 33.9C35.967 33.138 36.418 33.154 37.907 33.95C39.105 34.591 39.75 35.596 39.364 36.22ZM29 40C29 43.3 28.663 46.001 28.25 46.002C27.837 46.003 27.652 43.303 27.839 40.002C28.276 32.255 29 32.254 29 40ZM24.5 36.969C24.5 37.685 23.532 38.629 22.349 39.067C20.116 39.893 19.744 38.801 21.37 36.197C22.353 34.623 24.5 35.152 24.5 36.969ZM30.733 46.224C30.522 48.576 30.346 46.9 30.343 42.5C30.339 38.1 30.512 36.176 30.727 38.224C30.942 40.272 30.945 43.872 30.733 46.224ZM21.5 37C21.16 37.55 21.584 38 22.441 38C23.298 38 24 37.55 24 37C24 36.45 23.577 36 23.059 36C22.541 36 21.84 36.45 21.5 37ZM18.4 42.539C18.321 45.035 18.018 47.315 17.728 47.606C17.437 47.896 17.267 46.298 17.35 44.055C17.469 40.829 17.186 40.084 16 40.491C15.138 40.786 15.326 40.366 16.441 39.502C17.509 38.676 18.419 38 18.463 38C18.508 38 18.479 40.042 18.4 42.539ZM47 44C47 45.1 47 46.225 47 46.5C47 46.775 46.692 46.888 46.315 46.75C45.354 46.399 45.263 42 46.217 42C46.648 42 47 42.9 47 44ZM23.395 44.17C22.925 44.93 23.196 45.139 24.169 44.765C25.044 44.43 25.667 44.753 25.667 45.541C25.667 46.549 25.193 46.639 23.805 45.896C22.218 45.046 22.085 43 23.618 43C23.893 43 23.793 43.526 23.395 44.17ZM20.667 48.456C20.667 49.257 20.284 49.676 19.817 49.387C19.35 49.098 19.226 48.443 19.543 47.931C20.351 46.623 20.667 46.77 20.667 48.456ZM28.414 49.986C27.767 50.633 27.429 50.295 27.429 49C27.429 47.705 27.767 47.367 28.414 48.014C29.062 48.662 29.062 49.338 28.414 49.986ZM44.469 47.95C44.792 48.472 44.218 49.348 43.195 49.896C41.807 50.639 41.333 50.549 41.333 49.541C41.333 48.753 41.956 48.43 42.831 48.765C43.804 49.139 44.075 48.93 43.605 48.17C43.207 47.526 43.107 47 43.382 47C43.657 47 44.146 47.427 44.469 47.95ZM26 50.476C26 50.699 25.48 51.203 24.845 51.595C24.077 52.07 23.965 51.866 24.51 50.985C25.086 50.052 24.885 49.83 23.831 50.235C22.956 50.57 22.333 50.247 22.333 49.459C22.333 48.459 22.81 48.363 24.167 49.089C25.175 49.629 26 50.253 26 50.476Z" fill="#51D9B6"/>
<path fill-rule="evenodd" clip-rule="evenodd" d="M23.013 13.45C21.644 14.206 20.112 14.569 19.608 14.258C19.104 13.946 18.992 14.178 19.36 14.773C19.728 15.369 19.123 16.144 18.015 16.495C15.468 17.304 15.131 23.452 17.582 24.393C19.793 25.242 20.002 25.17 19.459 23.75C19.039 22.653 26.165 17.99 28.25 17.997C28.663 17.999 29 20.475 29 23.5C29 26.704 28.558 29 27.941 29C27.359 29 27.187 29.493 27.559 30.095C27.931 30.697 25.635 29.821 22.456 28.146C14.931 24.184 13 24.971 13 32C13 35.923 13.413 37.15 15.021 38.011C16.132 38.606 17.422 38.857 17.887 38.57C18.352 38.283 18.548 39.724 18.322 41.774C17.941 45.239 18.192 45.658 21.905 47.75C24.1 48.987 26.37 50 26.948 50C29.147 50 27.851 48.285 24.03 46.137C19.176 43.409 18.219 42.09 21.341 42.433C24.363 42.765 26.181 43.898 25.488 45.019C25.189 45.503 25.857 46.388 26.972 46.985C29.621 48.403 29.542 49.834 26.75 51.022C24.533 51.966 24.536 51.977 27 51.74C29.457 51.504 29.501 51.346 29.579 42.5C29.628 36.815 29.519 35.802 29.281 39.75C29.074 43.188 28.589 46.001 28.202 46.002C27.816 46.003 27.651 43.078 27.835 39.502C28.02 35.926 28.525 33 28.958 33C29.391 33 29.827 28.643 29.926 23.318C30.025 17.993 30.276 13.362 30.484 13.026C31.249 11.788 25.42 12.119 23.013 13.45ZM34.667 12.667C34.3 13.033 33.919 17.196 33.82 21.917C33.699 27.663 33.514 28.847 33.26 25.5C32.678 17.843 30.76 17.157 31.166 24.752C31.365 28.47 31.095 31.009 30.5 31.017C29.95 31.025 30.175 31.467 31 32C31.825 32.533 32.05 32.975 31.5 32.982C30.887 32.99 30.626 36.304 30.825 41.555C31.163 50.447 30.325 53 27.069 53C26.141 53 24.509 52.324 23.441 51.498C21.529 50.017 21.53 50.004 23.5 50.565C24.6 50.879 23.563 49.92 21.196 48.434C17.671 46.222 16.948 45.26 17.196 43.117C17.423 41.163 16.803 40.06 14.75 38.765C12.353 37.252 12 36.393 12 32.071C12 28.082 12.434 26.809 14.223 25.557C16.729 23.801 15.881 23.458 12.934 25.035C11.353 25.882 11 27.162 11 32.057C11 37.472 11.239 38.152 13.5 39.182C14.875 39.808 16 40.729 16 41.229C16 41.728 14.65 41.175 13 40C10.265 38.053 10.001 37.362 10.015 32.182C10.032 26.051 10.545 24.706 13.25 23.708C14.213 23.353 15.001 22.486 15.002 21.781C15.004 20.824 13.108 20.583 7.502 20.829L0 21.158V42.579V64H32H64V42.5V21H56.906C50.758 21 49.746 20.745 49.312 19.085C49.036 18.031 47.71 16.893 46.365 16.555C44.811 16.166 44.174 15.496 44.619 14.721C45.005 14.049 44.966 13.82 44.534 14.21C44.101 14.601 42.476 14.263 40.923 13.46C37.872 11.883 35.723 11.61 34.667 12.667ZM29 14.474C29 16.189 23.63 19.26 22.466 18.21C22.034 17.82 21.962 17.997 22.308 18.604C22.654 19.211 21.805 20.223 20.422 20.854C17.114 22.361 17 22.333 17 20.026C17 17.915 22.173 14.562 23.534 15.79C23.966 16.18 24.021 15.976 23.654 15.335C22.947 14.1 24.366 13.209 27.25 13.079C28.212 13.036 29 13.663 29 14.474ZM39.412 13.605C40.279 13.937 40.694 14.725 40.334 15.355C39.974 15.985 40.034 16.18 40.466 15.79C40.899 15.399 42.547 15.748 44.127 16.566C46.102 17.587 47 18.815 47 20.494C47 22.251 46.58 22.776 45.506 22.364C44.684 22.048 44.267 21.376 44.58 20.87C44.893 20.364 44.778 20.015 44.324 20.094C42.127 20.475 40.944 19.892 41.601 18.75C41.997 18.063 41.966 17.82 41.534 18.21C40.37 19.26 35 16.189 35 14.474C35 12.929 36.751 12.583 39.412 13.605ZM39.785 19.727C41.278 20.677 42.725 21.722 43 22.05C44.123 23.388 47.382 24.001 48.006 22.991C48.438 22.291 49.518 22.65 51.086 24.013C53.298 25.937 53.317 26.025 51.316 25.056C48.088 23.495 47.232 23.774 49.777 25.557C51.543 26.793 52 28.089 52 31.857C52 34.466 51.438 37.206 50.75 37.947C49.724 39.053 49.859 39.178 51.5 38.645C53.485 38 53.486 38.006 51.529 39.52C50.444 40.358 48.869 40.766 48.029 40.426C47.188 40.086 45.864 39.55 45.086 39.234C44.22 38.882 43.935 39.086 44.352 39.761C44.726 40.366 44.568 41.149 44 41.5C43.432 41.851 43.214 42.538 43.516 43.027C43.818 43.515 42.776 44.582 41.199 45.397C38.66 46.71 38.333 46.708 38.333 45.379C38.333 44.554 39.57 43.24 41.081 42.458C43.905 40.998 44.443 37.981 42.023 37.174C41.209 36.903 41.002 37.195 41.471 37.953C41.921 38.681 40.938 38.502 39.008 37.504L35.796 35.843L36.148 40.922C36.342 43.716 36.163 46.001 35.75 46.001C35.337 46 35 43.525 35 40.5C35 37.296 35.442 35 36.059 35C36.641 35 36.84 34.55 36.5 34C34.783 31.221 34.006 33.852 34.063 42.25C34.108 48.808 34.39 50.845 35.031 49.25C35.529 48.013 36.161 47 36.436 47C36.712 47 36.65 47.747 36.3 48.661C35.801 49.96 36.111 50.204 37.725 49.782C39.234 49.388 39.725 49.68 39.553 50.871C39.259 52.914 35.688 53.534 34.243 51.793C32.829 50.088 32.154 33 33.5 32.982C34.05 32.975 33.825 32.533 33 32C32.175 31.467 31.871 31.024 32.326 31.015C32.78 31.007 36.263 32.818 40.068 35.039C45.763 38.366 47.339 38.889 48.992 38.004C51.728 36.54 51.927 27.619 49.25 26.449C46.98 25.458 44.887 25.835 42.921 27.59C41.104 29.213 39 29.45 39 28.031C39 27.499 39.603 27.294 40.34 27.577C41.077 27.86 42.28 27.367 43.014 26.483C44.202 25.051 44.027 24.942 41.425 25.494L38.5 26.114L40.988 24.644L43.477 23.174L40.738 21.927C39.232 21.24 38 20.301 38 19.839C38 19.378 37.572 19 37.05 19C36.527 19 35.937 21.587 35.739 24.75L35.378 30.5L35.189 24.25C34.984 17.477 35.481 16.989 39.785 19.727ZM26 19.819C26 20.269 24.58 21.309 22.845 22.131L19.691 23.625L23.426 25.398C25.481 26.373 26.915 27.418 26.612 27.721C26.31 28.023 24.884 27.499 23.444 26.556C22.005 25.612 20.599 25.068 20.32 25.346C19.521 26.146 25.948 29.15 27.029 28.482C28.314 27.688 28.287 19 27 19C26.45 19 26 19.368 26 19.819ZM25 36.883C25 38.075 24.122 38.935 22.612 39.223C20.826 39.565 20.303 39.279 20.535 38.09C20.707 37.215 20.881 36.163 20.923 35.75C20.966 35.337 21.9 35 23 35C24.292 35 25 35.667 25 36.883ZM38 36C38.825 36.533 39.95 36.969 40.5 36.969C41.05 36.969 40.825 36.533 40 36C39.175 35.467 38.05 35.031 37.5 35.031C36.95 35.031 37.175 35.467 38 36ZM21.5 37C21.16 37.55 21.584 38 22.441 38C23.298 38 24 37.55 24 37C24 36.45 23.577 36 23.059 36C22.541 36 21.84 36.45 21.5 37ZM47 43.418C47 44.198 47.239 45.458 47.53 46.219C47.863 47.086 46.809 48.197 44.697 49.205C41.751 50.61 41.333 50.622 41.333 49.307C41.333 48.481 42.413 47.313 43.733 46.712C45.343 45.978 45.978 45.023 45.66 43.809C45.4 42.814 45.595 42 46.094 42C46.592 42 47 42.638 47 43.418ZM22 44C22.825 44.533 23.95 44.969 24.5 44.969C25.05 44.969 24.825 44.533 24 44C23.175 43.467 22.05 43.031 21.5 43.031C20.95 43.031 21.175 43.467 22 44ZM40 44C39.175 44.533 38.95 44.969 39.5 44.969C40.05 44.969 41.175 44.533 42 44C42.825 43.467 43.05 43.031 42.5 43.031C41.95 43.031 40.825 43.467 40 44ZM44 47.5C42.625 48.286 41.976 48.945 42.559 48.965C43.141 48.984 44.491 48.339 45.559 47.532C48.028 45.664 47.239 45.648 44 47.5ZM19.559 48.555C21.389 50.022 21.357 50.042 19 48.92C15.939 47.462 15.372 47 16.642 47C17.179 47 18.491 47.7 19.559 48.555ZM35.75 51.662C36.438 51.94 37.563 51.94 38.25 51.662C38.938 51.385 38.375 51.158 37 51.158C35.625 51.158 35.063 51.385 35.75 51.662Z" fill="#2AD4A9"/>
<path fill-rule="evenodd" clip-rule="evenodd" d="M20.754 14.758C16.684 17.11 16.008 17.947 16.004 20.643C16.002 22.589 16.602 24.017 17.582 24.393C19.793 25.242 20.002 25.17 19.459 23.75C19.039 22.653 26.165 17.99 28.25 17.997C28.663 17.999 29 20.475 29 23.5C29 26.525 28.663 29 28.25 29.001C27.837 29.001 27.655 26.765 27.844 24.032L28.189 19.063L24.138 21.281L20.086 23.5L23.543 25.274C27.47 27.289 28.103 28.451 24.75 27.49C23.188 27.042 23.501 27.48 25.774 28.923C27.575 30.065 29.279 31 29.562 31C29.844 31 29.946 26.837 29.788 21.75C29.527 13.358 29.315 12.478 27.5 12.258C26.4 12.125 23.364 13.25 20.754 14.758ZM34.613 12.817C34.336 13.266 34.026 17.724 33.925 22.723L33.741 31.813L30.551 31.56C28.796 31.421 24.523 29.644 21.055 27.612C17.588 25.579 14.506 24.16 14.208 24.458C13.91 24.756 14.304 25.014 15.083 25.03C16.1 25.052 16.006 25.349 14.75 26.08C12.332 27.488 12.299 35.767 14.704 37.525C16.51 38.846 21 37.594 21 35.77C21 34.429 25.275 35.292 25.748 36.728C25.976 37.422 24.359 38.673 22.023 39.607C16.701 41.737 16.865 44.522 22.5 47.707C26.753 50.11 28 50.46 28 49.248C28 48.835 25.975 47.422 23.5 46.109C21.025 44.796 19 43.361 19 42.92C19 41.051 21.08 41.115 24.423 43.087L28 45.198V39.015C28 34.516 28.34 32.946 29.25 33.248C30.099 33.529 30.592 36.593 30.787 42.803C31.071 51.841 31.046 51.95 28.552 52.576C26.762 53.026 24.5 52.348 20.765 50.243C16.344 47.752 15.449 46.765 15.183 44.086C14.961 41.856 14.134 40.562 12.433 39.787C10.2 38.77 10 38.115 10 31.818C10 25.47 10.187 24.872 12.5 23.818C17.279 21.641 15.346 20.485 7.502 20.829L0 21.158V42.579V64H32H64V42.579V21.158L56.498 20.829C48.566 20.481 46.9 21.538 51.5 24C53.761 25.21 54 25.941 54 31.646C54 37.271 53.729 38.131 51.5 39.592C49.815 40.696 49 42.146 49 44.042C49 46.404 48.115 47.36 43.457 50.024C39.628 52.215 37.176 53.01 35.526 52.596C33.247 52.024 33.122 51.558 32.819 42.507C32.576 35.285 32.819 32.895 33.835 32.507C34.57 32.227 37.945 33.543 41.335 35.433C46.601 38.367 47.755 38.679 49.25 37.574C51.632 35.812 51.664 28.206 49.296 26.475C47.49 25.154 43 26.406 43 28.23C43 28.73 41.987 28.995 40.75 28.82C37.829 28.405 37.86 25.878 40.804 24.41C43.102 23.265 43.098 23.256 39.554 21.164L36 19.067V25.034C36 28.315 35.663 31.001 35.25 31.002C34.837 31.003 34.651 28.078 34.835 24.502C35.02 20.926 35.591 18 36.105 18C36.619 18 38.88 19.162 41.129 20.582C43.379 22.002 44.921 22.682 44.558 22.094C44.194 21.505 41.895 19.851 39.448 18.417C35.044 15.836 33.538 13 36.572 13C37.436 13 40.136 14.168 42.572 15.595C48.588 19.12 48.702 22.336 42.905 24.931C40.653 25.94 39.293 27.063 39.884 27.428C40.474 27.793 42.293 27.104 43.926 25.896C46.753 23.807 47.018 23.782 49.448 25.374C51.595 26.78 52 27.805 52 31.823C52 34.45 51.438 37.196 50.75 37.925C49.741 38.994 49.789 39.162 51 38.796C52.077 38.47 52.584 36.599 52.798 32.171C53.076 26.397 52.932 25.926 50.548 24.84C48.618 23.961 48 22.929 47.999 20.589C47.998 17.932 47.313 17.115 43.102 14.75C38.111 11.947 35.516 11.356 34.613 12.817ZM29 14.427C29 15.645 19.457 22 17.628 22C17.283 22 17 21.146 17 20.102C17 18.937 18.642 17.213 21.25 15.641C26.022 12.763 29 12.297 29 14.427ZM31 24.441C31 27.498 31.45 30 32 30C32.55 30 33 27.777 33 25.059C33 22.341 32.55 19.84 32 19.5C31.379 19.116 31 20.99 31 24.441ZM11.667 25.667C11.3 26.033 11 28.968 11 32.188C11 37.463 11.248 38.156 13.5 39.182C15.39 40.043 16 41.083 16 43.446C16 46.194 16.642 46.918 21.334 49.456C29.191 53.705 30.042 52.984 29.807 42.281C29.642 34.744 29.564 34.385 29.26 39.75C29.064 43.188 28.683 46 28.412 46C28.142 46 26.138 45.091 23.96 43.98C18.593 41.242 18.942 42.19 24.5 45.447C26.975 46.898 29 48.529 29 49.074C29 51.272 25.881 51.014 21.513 48.455C17.758 46.254 16.949 45.288 17.196 43.301C17.381 41.815 18.677 40.198 20.5 39.178C22.15 38.255 23.688 37.388 23.917 37.25C24.146 37.112 24.059 36.726 23.724 36.391C23.389 36.056 21.724 36.773 20.023 37.983C17.116 40.054 16.784 40.089 14.466 38.569C12.414 37.225 12 36.151 12 32.177C12 29.55 12.54 26.86 13.2 26.2C13.918 25.482 13.985 25 13.367 25C12.798 25 12.033 25.3 11.667 25.667ZM20.5 26C20.84 26.55 21.568 27 22.118 27C22.668 27 22.84 26.55 22.5 26C22.16 25.45 21.432 25 20.882 25C20.332 25 20.16 25.45 20.5 26ZM34.212 42.25C34.473 50.638 34.686 51.523 36.5 51.752C37.6 51.891 40.638 50.652 43.25 49C47.143 46.538 48 45.471 48 43.081C48 41.478 48.337 39.978 48.75 39.747C49.163 39.517 48.901 39.479 48.168 39.664C47.436 39.849 44.149 38.425 40.865 36.5C37.58 34.575 34.675 33 34.409 33C34.143 33 34.054 37.163 34.212 42.25ZM40.721 37.577C44.512 39.798 44.938 40.369 43.817 41.721C42.684 43.086 42.806 43.196 44.758 42.577C46.566 42.003 47 42.249 47 43.847C47 45.833 39.324 51 36.374 51C34.241 51 34.753 48.425 37.25 46.594L39.5 44.945L37.25 45.54C35.115 46.104 35 45.851 35 40.567C35 37.505 35.298 35 35.662 35C36.026 35 38.303 36.159 40.721 37.577ZM36 40.482V45.128L39.989 42.886C42.183 41.653 43.87 40.577 43.739 40.496C43.607 40.414 41.813 39.332 39.75 38.092L36 35.837V40.482ZM39.875 44.179C38.912 44.846 39.249 44.951 41 44.532C42.928 44.07 42.644 44.455 39.76 46.216C36.305 48.326 34.949 50.023 36.75 49.984C38.12 49.953 45.339 45.517 45.671 44.5C46.098 43.195 41.652 42.949 39.875 44.179Z" fill="#09D3A5"/>
<path fill-rule="evenodd" clip-rule="evenodd" d="M20.754 14.758C16.711 17.094 16.008 17.958 16.004 20.589C16.001 22.912 15.38 23.962 13.5 24.818C11.235 25.85 11 26.525 11 32C11 37.475 11.235 38.15 13.5 39.182C15.379 40.038 16.002 41.089 16.006 43.411C16.011 45.822 16.699 46.891 19.142 48.281C20.863 49.261 22.477 49.857 22.728 49.605C22.98 49.353 21.767 48.414 20.032 47.517C15.934 45.398 16.147 41.613 20.5 39.178C22.15 38.255 23.687 37.388 23.917 37.25C24.146 37.112 24.059 36.726 23.724 36.391C23.389 36.056 21.724 36.773 20.023 37.983C17.116 40.054 16.784 40.089 14.466 38.569C12.394 37.212 12 36.162 12 32C12 27.87 12.401 26.784 14.407 25.469C16.707 23.962 17.191 24.104 25.355 28.696L33.896 33.5L34.198 42.5C34.473 50.694 34.679 51.509 36.5 51.598C38.022 51.673 38.082 51.597 36.75 51.279C33.564 50.518 34.929 48.081 40.25 45.03C46.461 41.468 47 41.384 47 43.98C47 45.29 45.615 46.666 42.903 48.049C40.65 49.199 39.032 50.366 39.309 50.642C39.585 50.918 41.654 49.981 43.906 48.56C47.123 46.529 48 45.369 48 43.148C48 41.103 48.692 40.006 50.5 39.182C52.765 38.15 53 37.475 53 32C53 26.525 52.765 25.85 50.5 24.818C48.61 23.957 48 22.917 48 20.554C48 17.806 47.358 17.082 42.666 14.544C34.809 10.295 33.958 11.016 34.193 21.719C34.358 29.256 34.436 29.615 34.74 24.25C34.936 20.813 35.498 18 35.991 18C36.483 18 38.486 18.944 40.443 20.099C42.399 21.253 44 21.947 44 21.641C44 21.335 41.975 19.898 39.5 18.447C35.052 15.84 33.525 13 36.572 13C37.436 13 40.136 14.168 42.572 15.595C48.588 19.12 48.702 22.336 42.905 24.931C40.653 25.94 39.293 27.063 39.884 27.428C40.474 27.793 42.293 27.104 43.926 25.896C46.753 23.807 47.018 23.782 49.448 25.374C51.616 26.794 52 27.792 52 32C52 36.13 51.599 37.216 49.593 38.531C47.293 40.038 46.809 39.896 38.645 35.304L30.104 30.5L29.802 21.5C29.529 13.364 29.308 12.477 27.5 12.258C26.4 12.125 23.364 13.25 20.754 14.758ZM29 14.427C29 15.645 19.457 22 17.628 22C17.283 22 17 21.146 17 20.102C17 18.937 18.642 17.213 21.25 15.641C26.022 12.763 29 12.297 29 14.427ZM29 23.5C29 26.525 28.702 29 28.338 29C27.158 29 19 23.938 19.003 23.208C19.006 22.344 26.012 18.259 27.75 18.108C28.612 18.034 29 19.709 29 23.5ZM29.201 39.75C29.091 43.188 28.757 46 28.46 46C28.163 46 26.138 45.091 23.96 43.98C18.567 41.228 18.953 42.196 24.558 45.481C29.757 48.528 29.894 50.469 24.916 50.569C21.675 50.634 14.997 48.274 15.002 47.065C15.004 46.754 11.629 46.648 7.502 46.829L0 47.158V55.579V64H32H64V55.579V47.158L56.497 46.829C52.371 46.648 48.883 46.754 48.747 47.064C48.611 47.374 45.872 49.04 42.66 50.766C37.786 53.386 36.505 53.708 34.91 52.712C33.796 52.016 33 50.394 33 48.818C33 47.333 32.55 45.84 32 45.5C31.41 45.135 31 46.243 31 48.2C31 52.286 28.049 54.632 24.977 52.988C22.147 51.473 22.535 50.957 25.985 51.647C29.817 52.413 30.181 51.424 29.746 41.412C29.423 33.974 29.39 33.875 29.201 39.75ZM40.686 37.556C43.085 38.962 44.782 40.544 44.456 41.071C43.885 41.995 36.641 46 35.54 46C35.243 46 35 43.525 35 40.5C35 37.475 35.298 35 35.662 35C36.026 35 38.287 36.15 40.686 37.556ZM23.5 48C25.15 49.093 26.95 49.98 27.5 49.971C29.099 49.946 23.658 46.046 22 46.029C21.175 46.02 21.85 46.907 23.5 48ZM37.892 47.942C36.576 49.037 35.976 49.948 36.559 49.967C38.109 50.015 41.6 47.267 40.89 46.557C40.556 46.223 39.207 46.846 37.892 47.942Z" fill="#01C38D"/>
<path fill-rule="evenodd" clip-rule="evenodd" d="M20.754 14.758C16.711 17.094 16.008 17.958 16.004 20.589C16.001 22.912 15.38 23.962 13.5 24.818C11.235 25.85 11 26.525 11 32C11 37.475 11.235 38.15 13.5 39.182C15.39 40.043 16 41.083 16 43.446C16 46.194 16.642 46.918 21.334 49.456C29.191 53.705 30.042 52.984 29.807 42.281C29.642 34.744 29.564 34.385 29.26 39.75C29.064 43.188 28.683 46 28.412 46C28.142 46 26.138 45.091 23.96 43.98C18.593 41.242 18.942 42.19 24.5 45.447C26.975 46.898 29 48.529 29 49.074C29 51.272 25.881 51.014 21.513 48.455C17.758 46.254 16.949 45.288 17.196 43.301C17.381 41.815 18.677 40.198 20.5 39.178C22.15 38.255 23.687 37.388 23.917 37.25C24.146 37.112 24.059 36.726 23.724 36.391C23.389 36.056 21.724 36.773 20.023 37.983C17.116 40.054 16.784 40.089 14.466 38.569C12.394 37.212 12 36.162 12 32C12 27.87 12.401 26.784 14.407 25.469C16.707 23.962 17.191 24.104 25.355 28.696L33.896 33.5L34.198 42.5C34.471 50.632 34.693 51.524 36.5 51.752C37.6 51.891 40.638 50.652 43.25 49C47.095 46.569 48 45.456 48 43.159C48 41.102 48.688 40.007 50.5 39.182C52.765 38.15 53 37.475 53 32C53 26.525 52.765 25.85 50.5 24.818C48.61 23.957 48 22.917 48 20.554C48 17.806 47.358 17.082 42.666 14.544C34.809 10.295 33.958 11.016 34.193 21.719C34.358 29.256 34.436 29.615 34.74 24.25C34.936 20.813 35.498 18 35.991 18C36.483 18 38.486 18.944 40.443 20.099C42.399 21.253 44 21.947 44 21.641C44 21.335 41.975 19.898 39.5 18.447C35.052 15.84 33.525 13 36.572 13C37.436 13 40.136 14.168 42.572 15.595C48.588 19.12 48.702 22.336 42.905 24.931C40.653 25.94 39.293 27.063 39.884 27.428C40.474 27.793 42.293 27.104 43.926 25.896C46.753 23.807 47.018 23.782 49.448 25.374C51.616 26.794 52 27.792 52 32C52 36.13 51.599 37.216 49.593 38.531C47.293 40.038 46.809 39.896 38.645 35.304L30.104 30.5L29.802 21.5C29.529 13.364 29.308 12.477 27.5 12.258C26.4 12.125 23.364 13.25 20.754 14.758ZM29 14.427C29 15.645 19.457 22 17.628 22C17.283 22 17 21.146 17 20.102C17 18.937 18.642 17.213 21.25 15.641C26.022 12.763 29 12.297 29 14.427ZM29 23.5C29 26.525 28.702 29 28.338 29C27.158 29 19 23.938 19.003 23.208C19.006 22.344 26.012 18.259 27.75 18.108C28.612 18.034 29 19.709 29 23.5ZM40.686 37.556C43.085 38.962 44.782 40.544 44.456 41.071C43.885 41.995 36.641 46 35.54 46C35.243 46 35 43.525 35 40.5C35 37.475 35.298 35 35.662 35C36.026 35 38.287 36.15 40.686 37.556ZM47 43.915C47 45.834 39.253 51 36.374 51C33.284 51 35.328 47.852 40.25 45.03C46.436 41.482 47 41.389 47 43.915Z" fill="white"/>
</g>
<defs>
<clipPath id="clip0_1_2">
<rect width="64" height="64" rx="32" fill="white"/>
</clipPath>
</defs>
</svg>
