<svg width="64" height="64" viewBox="0 0 64 64" fill="none" xmlns="http://www.w3.org/2000/svg">
<g clip-path="url(#clip0_1_2)">
<path fill-rule="evenodd" clip-rule="evenodd" d="M0 31.5077V63.0154H32H64V31.5077V0H32H0V31.5077Z" fill="#D0C78C"/>
<path fill-rule="evenodd" clip-rule="evenodd" d="M22.606 4.52332C22.729 5.14954 21.843 5.41637 20.488 5.16135C18.44 4.77637 18.04 5.24308 17.186 9.00825C16.53 11.902 16.179 12.482 16.107 10.7943C16.002 8.34068 15.857 8.29539 8 8.25009L0 8.2048V35.6106V63.0154H32H64V50.7323V38.4492L60.845 39.0705C58.679 39.4969 57.902 39.3531 58.367 38.6127C58.739 38.019 58.087 36.6543 56.916 35.5801C55.745 34.5068 55.055 33.2012 55.383 32.6794C55.71 32.1575 55.343 31.2123 54.567 30.5782C53.791 29.9441 52.843 27.5673 52.46 25.2967C52.077 23.0272 51.16 20.0074 50.422 18.5866C48.984 15.8188 45.369 14.2513 44.698 16.1054C44.475 16.7247 44.484 16.1231 44.72 14.7692C44.955 13.4154 45.526 12.1728 45.988 12.0074C46.818 11.711 45.815 7.01834 44.462 4.86203C44.012 4.14523 42.735 4.864 40.851 6.89428C38.661 9.25538 37.616 9.77329 36.645 8.97969C35.718 8.22252 35.019 8.25206 34.176 9.08209C33.275 9.96923 33 9.73391 33 8.07385C33 4.93391 31.726 5.41145 29.567 9.35975C28.528 11.2581 27.443 12.5804 27.156 12.2969C26.869 12.0143 27.166 11.2581 27.817 10.6171C29.145 9.30954 29.392 7.81588 28.25 7.99311C25.835 8.36923 24.27 7.61797 23.391 5.66154C22.843 4.44259 22.49 3.93059 22.606 4.52332ZM38.32 10.6368C38.625 9.88652 38.875 9.81465 38.921 10.4645C38.964 11.075 38.239 12.1826 37.308 12.926C36.344 13.695 35.921 13.7767 36.324 13.1141C36.714 12.4751 36.575 11.6736 36.016 11.3329C35.457 10.9932 35.014 10.1868 35.032 9.54191C35.049 8.89699 35.679 9.16776 36.431 10.1445C37.454 11.4727 37.929 11.5968 38.32 10.6368ZM21.947 14.8677C20.577 17.3873 20 17.2219 20 14.3074C20 12.5647 20.419 12.0359 21.482 12.4367C22.603 12.861 22.716 13.4518 21.947 14.8677ZM42.279 14.8086C41.986 15.9124 41.523 16.5967 41.249 16.3279C40.708 15.7952 41.664 12.8 42.375 12.8C42.616 12.8 42.573 13.7039 42.279 14.8086ZM34 25.6C34 26.1415 33.523 26.5846 32.941 26.5846C32.359 26.5846 32.16 26.1415 32.5 25.6C32.84 25.0585 33.316 24.6154 33.559 24.6154C33.802 24.6154 34 25.0585 34 25.6ZM29.447 27.6529C29.125 28.1659 28.436 28.3264 27.915 28.0094C27.394 27.6923 27.231 27.0139 27.553 26.5009C27.875 25.9879 28.564 25.8274 29.085 26.1445C29.606 26.4615 29.769 27.1399 29.447 27.6529ZM47.662 31.7538C47.385 32.4313 47.158 31.8769 47.158 30.5231C47.158 29.1692 47.385 28.6159 47.662 29.2923C47.94 29.9697 47.94 31.0774 47.662 31.7538ZM31.362 47.7538C31.045 48.5662 30.609 49.2308 30.393 49.2308C30.177 49.2308 30 48.5662 30 47.7538C30 46.9415 30.436 46.2769 30.969 46.2769C31.501 46.2769 31.678 46.9415 31.362 47.7538ZM37.527 54.0711C37.192 55.1089 37.387 56.2422 37.959 56.5908C38.532 56.9393 38.963 58.1947 38.918 59.3812C38.85 61.1801 38.603 61.0137 37.433 58.3808C36.661 56.6449 36.296 54.5398 36.622 53.7039C37.475 51.5151 38.249 51.8292 37.527 54.0711Z" fill="#BBB176"/>
<path fill-rule="evenodd" clip-rule="evenodd" d="M18.365 6.12234C17.439 7.59729 16.243 22.6146 17.092 22.0977C17.988 21.5532 20.201 29.4065 19.477 30.5595C19.139 31.0991 18.33 31.2261 17.681 30.8421C16.792 30.3173 16.779 30.4965 17.626 31.5648C18.301 32.4155 18.43 33.7743 17.947 34.9538C17.099 37.0245 17.168 37.2628 16.6 30.2769C16.545 29.6005 17.046 29.1515 17.714 29.2805C18.407 29.4144 18.687 28.8975 18.367 28.0753C17.884 26.8347 17.585 26.8524 16.217 28.1994C14.766 29.6281 14.565 29.5946 13.894 27.8085C13.49 26.7323 11.98 25.5616 10.539 25.2052C9.097 24.8487 8.119 24.2383 8.364 23.8484C8.609 23.4575 7.839 23.0784 6.655 23.0055C5.47 22.9327 3.488 22.5497 2.25 22.1529L0 21.4321V42.2469V63.0617L19 62.9701C29.45 62.9209 38 62.6294 38 62.3232C38 62.017 37.496 60.1098 36.88 58.0844C36.181 55.7873 36.103 53.7984 36.672 52.7961C37.363 51.5801 37.909 52.6267 38.917 57.1028L40.25 63.0154H52.125H64V57.6994V52.3835L58.449 52.7626C55.397 52.9713 53.142 52.7557 53.439 52.2821C53.736 51.8095 53.421 51.4422 52.739 51.4658C49.202 51.5919 47 51.0897 47 50.1573C47 49.5842 47.403 49.3598 47.896 49.6601C48.389 49.9594 49.828 49.3785 51.095 48.3682C53.309 46.6028 53.333 46.4325 51.718 44.0054C47.506 37.6753 46.239 34.6585 46.73 32.128C47.056 30.4512 46.415 27.9375 44.986 25.2849C42.761 21.1554 42.752 20.995 44.379 14.6058C47.018 4.24763 43.981 1.1392 39.579 9.69255C37.004 14.6954 32.794 18.2341 30.464 17.3538C29.709 17.0683 28.151 15.0223 27.004 12.8069C23.575 6.18929 20.04 3.45403 18.365 6.12234ZM22.444 12.7114C23.167 13.8624 22.059 16.7385 20.893 16.7385C20.402 16.7385 20 15.6308 20 14.2769C20 11.8439 21.355 10.9755 22.444 12.7114ZM42.085 14.8726C41.204 17.0407 41.122 17.0654 41.063 15.1798C41.029 14.0514 41.3 12.8325 41.667 12.4721C42.861 11.2955 43.064 12.4623 42.085 14.8726ZM22 18.7077C22 19.2492 21.55 19.6923 21 19.6923C20.45 19.6923 20 19.2492 20 18.7077C20 18.1662 20.45 17.7231 21 17.7231C21.55 17.7231 22 18.1662 22 18.7077ZM31.982 26.114C32.666 25.3017 33.652 24.896 34.171 25.2121C34.691 25.5281 33.517 26.6309 31.562 27.6628C27.255 29.9353 27.367 29.9303 26.573 27.8942C25.706 25.6679 28.178 24.2294 29.618 26.1218C30.61 27.4235 30.878 27.4235 31.982 26.114ZM43.5 34.4615C43.84 35.0031 43.641 35.4462 43.059 35.4462C42.477 35.4462 42 35.0031 42 34.4615C42 33.92 42.198 33.4769 42.441 33.4769C42.684 33.4769 43.16 33.92 43.5 34.4615ZM31.965 47.0154C31.945 47.422 31.286 48.8615 30.5 50.2154L29.071 52.6769L29.035 50.1337C29.016 48.7345 29.3 47.294 29.667 46.9337C30.565 46.0485 32.008 46.0997 31.965 47.0154ZM50.442 53.0777C50.751 53.568 50.102 53.7383 49.001 53.4548C46.666 52.8532 46.371 52.1846 48.441 52.1846C49.234 52.1846 50.134 52.5863 50.442 53.0777Z" fill="#A89986"/>
<path fill-rule="evenodd" clip-rule="evenodd" d="M19.036 5.88603C16.747 7.27926 16.416 18.6122 18.507 24.0039C20.157 28.2594 20.152 28.797 18.396 35.648C17.165 40.448 16.432 42.0441 16.187 40.4598C15.575 36.5105 11.024 30.7239 6.458 28.0891C4.085 26.7205 1.661 25.6 1.072 25.6C0.347 25.6 0 31.6554 0 44.3077V63.0154H15.3C25.867 63.0154 30.971 62.6501 31.8 61.8338C32.46 61.184 33 61.0875 33 61.6192C33 62.1509 34.173 62.6816 35.606 62.7978C37.614 62.9622 38.073 62.654 37.606 61.4558C37.273 60.6001 36.993 59.3831 36.985 58.75C36.976 58.0874 36.553 58.2252 35.986 59.0769C35.294 60.1167 35.191 59.5348 35.639 57.1077C36.758 51.0474 37.553 51.0454 38.917 57.1028L40.25 63.0154H52.125H64V59.0769V55.1385H57.934C54.598 55.1385 50.944 54.6511 49.814 54.0554C48.319 53.2687 47.944 53.2687 48.438 54.0554C48.812 54.6511 48.641 55.1385 48.059 55.1385C47.477 55.1385 47 53.8092 47 52.1846C47 49.9052 47.448 49.2308 48.965 49.2308C52.927 49.2308 53.078 46.0977 49.393 40.3436C46.783 36.2683 46.095 34.3069 46.554 32.2491C46.967 30.397 46.498 28.479 45.08 26.2193C42.605 22.2759 42.528 20.5883 44.488 13.1801C45.587 9.02498 45.685 7.21329 44.865 6.24049C43.165 4.224 42.556 4.58535 40.037 9.10769C37.699 13.3051 33.228 18.0057 31.143 18.4566C30.53 18.5895 28.942 16.5957 27.613 14.0258C24.541 8.08369 20.98 4.70351 19.036 5.88603ZM41.982 15.7873C40.277 18.9233 39.897 17.6414 41.225 13.2372C42.147 10.176 42.473 9.81169 42.76 11.518C42.961 12.7094 42.611 14.6304 41.982 15.7873ZM23 12.8C23.726 14.1351 23.737 14.7692 23.035 14.7692C22.466 14.7692 22 15.2596 22 15.8592C22 16.4588 22.661 16.6991 23.468 16.3948C24.275 16.0896 25.228 16.3062 25.586 16.8753C26.354 18.0992 24.086 22.6462 22.709 22.6462C22.184 22.6462 22.349 21.9422 23.074 21.0816C24.208 19.7356 24.12 19.5643 22.446 19.8508C20.776 20.1374 20.457 19.521 20.195 15.5077C19.875 10.5925 21.138 9.37354 23 12.8ZM40 20.6769C40 21.2185 39.802 21.6615 39.559 21.6615C39.316 21.6615 38.84 21.2185 38.5 20.6769C38.16 20.1354 38.359 19.6923 38.941 19.6923C39.523 19.6923 40 20.1354 40 20.6769ZM34.815 25.5458C35.033 26.1888 34.238 26.9657 33.049 27.2709C31.634 27.6352 31.087 28.3422 31.466 29.315C31.908 30.4473 31.735 30.5477 30.739 29.7344C29.924 29.0678 28.882 29.0018 27.967 29.5591C26.155 30.6609 24.846 27.8479 26.08 25.5025C27.058 23.6455 34.183 23.68 34.815 25.5458ZM44.821 36.1846L47.04 40.8615L43.535 36.9231C39.752 32.6725 39.271 31.5077 41.301 31.5077C42.016 31.5077 43.6 33.6128 44.821 36.1846ZM31.332 49.2446C29.515 52.2742 28 52.2634 28 49.2219C28 47.298 30.854 45.0875 32.245 45.9333C32.677 46.1972 32.267 47.6869 31.332 49.2446ZM45.554 53.2549C45.923 53.8437 45.758 54.786 45.186 55.3492C43.888 56.6272 39 55.5126 39 53.9382C39 53.055 39.288 53.059 40.2 53.9569C41.61 55.3452 45 55.5422 45 54.2356C45 53.7393 44.438 53.1102 43.75 52.8364C42.849 52.479 42.832 52.3185 43.691 52.2624C44.346 52.2201 45.184 52.6661 45.554 53.2549Z" fill="#A09150"/>
<path fill-rule="evenodd" clip-rule="evenodd" d="M41.715 6.65797C40.772 7.68492 40 8.96394 40 9.50055C40 11.075 32.968 18.7077 31.517 18.7077C30.787 18.7077 28.96 16.6036 27.456 14.0308C25.953 11.458 24.04 8.57895 23.206 7.63077C21.457 5.64283 18.033 5.32381 17.93 7.13846C17.891 7.81587 17.627 10.5777 17.342 13.2775C17.009 16.445 17.434 20.1649 18.543 23.7706C20.165 29.0452 20.165 29.759 18.55 36.5863C16.492 45.2834 15.046 49.2308 13.919 49.2308C13.458 49.2308 12.529 51.1143 11.855 53.4154C11.182 55.7164 10.039 58.4743 9.315 59.5426C8.592 60.61 8 61.8289 8 62.2503C8 62.6708 13.175 63.0154 19.5 63.0154C29.774 63.0154 31.003 62.8313 31.032 61.2923C31.061 59.6933 31.164 59.6992 32.459 61.3829C33.754 63.0646 33.933 62.9218 34.922 59.4137C35.509 57.3332 35.991 54.9297 35.994 54.0721C36.004 51.4107 37.117 51.2266 40.093 53.3927C42.876 55.4191 43.019 55.427 44.98 53.6793C46.091 52.6897 47 51.3142 47 50.624C47 49.9328 48.013 49.2258 49.25 49.0535C51.99 48.6695 52.826 44.8935 50.701 42.5039C47.927 39.3826 45.956 34.4852 46.545 32.1753C46.917 30.7161 46.336 28.543 44.962 26.2498C42.706 22.4857 42.669 19.4265 44.784 11.6047C45.492 8.98757 45.44 7.49883 44.602 6.37046C43.539 4.93981 43.27 4.9664 41.715 6.65797ZM23.949 14.1598C26.034 17.8412 26.075 21.4479 24.019 20.1954C23.444 19.8459 23.275 20.2358 23.618 21.118C24.331 22.9455 22.653 23.1572 21.263 21.4154C19.625 19.3625 18.951 13.7462 20.09 11.65C21.338 9.35384 21.163 9.23963 23.949 14.1598ZM41.982 15.7873C40.21 19.0464 39.649 17.3026 41.12 13.1121C42.194 10.0539 42.504 9.75655 42.783 11.518C42.971 12.7094 42.611 14.6304 41.982 15.7873ZM40.342 21.119C40.714 22.0731 40.418 22.3646 39.449 21.9983C37.867 21.4006 37.455 19.6923 38.893 19.6923C39.384 19.6923 40.036 20.3343 40.342 21.119ZM35.5 21.6615C35.16 22.2031 34.346 22.6393 33.691 22.6314C32.975 22.6215 33.099 22.2346 34 21.6615C35.921 20.4386 36.267 20.4386 35.5 21.6615ZM34.819 25.8914C35.013 26.8859 34.519 27.5692 33.605 27.5692C32.75 27.5692 32.285 28.1403 32.562 28.8492C32.912 29.7482 32.028 30.1292 29.595 30.1292C26.971 30.1292 26.002 29.6517 25.606 28.162C24.826 25.2258 26.7 23.7233 30.817 23.9833C33.361 24.1438 34.591 24.7296 34.819 25.8914ZM43.982 34.2154C45.095 36.2466 46.788 38.9858 47.746 40.3023L49.486 42.6978L46.908 41.0348C45.491 40.1201 43.73 38.2671 42.996 36.9162C42.263 35.5663 41.288 34.4615 40.831 34.4615C40.374 34.4615 40 33.5754 40 32.4923C40 29.4085 41.768 30.1735 43.982 34.2154ZM31.301 49.7182C30.404 51.5702 29.295 52.8561 28.835 52.5765C27.337 51.6647 27.957 47.3826 29.729 46.4069C32.487 44.8866 33.058 46.0898 31.301 49.7182ZM44.5 52.1846C44.84 52.7262 44.668 53.1692 44.118 53.1692C43.568 53.1692 42.84 52.7262 42.5 52.1846C42.16 51.6431 42.332 51.2 42.882 51.2C43.432 51.2 44.16 51.6431 44.5 52.1846ZM35.651 60.5204C34.889 62.4768 35.35 63.4181 36.803 62.8716C37.314 62.6796 37.421 61.6694 37.041 60.6257C36.384 58.8229 36.315 58.818 35.651 60.5204Z" fill="#7E6F4E"/>
<path fill-rule="evenodd" clip-rule="evenodd" d="M41.544 7.35311C40.695 8.72467 39.242 11.0651 38.315 12.5538C37.388 14.0426 35.583 16.0729 34.305 17.0634C33.027 18.0549 32.234 19.2679 32.542 19.7602C32.851 20.2516 32.452 20.4081 31.655 20.1068C30.859 19.8065 28.816 16.9895 27.115 13.8486C21.507 3.48751 18.626 3.28369 17.55 13.1702C17.118 17.1441 17.25 20.2791 17.895 21.3711C19.063 23.3482 19.063 23.3482 19.369 15.5313C19.635 8.75421 21.342 7.67015 23.919 12.6434C26.168 16.9856 26.638 20.6769 24.941 20.6769C24.359 20.6769 24.16 21.12 24.5 21.6615C24.84 22.2031 24.191 22.6462 23.059 22.6462C21.927 22.6462 21 23.1158 21 23.6889C21 24.2619 20.577 24.4736 20.059 24.1595C19.504 23.8208 19.345 24.959 19.671 26.9371C19.984 28.8404 19.308 34.1238 18.105 39.17C16.94 44.0546 16.283 48.8113 16.645 49.7398C17.178 51.1065 16.9 51.3014 15.185 50.7658C13.448 50.2223 12.945 50.6014 12.391 52.867C12.02 54.3872 10.871 57.2928 9.838 59.3231L7.959 63.0154H19.596C30.741 63.0154 31.211 62.9317 30.71 61.0462C30.37 59.7662 30.68 59.0769 31.594 59.0769C32.367 59.0769 33.03 59.8528 33.068 60.8C33.126 62.274 33.261 62.2385 34.002 60.5538C34.478 59.4708 35.143 56.9236 35.48 54.8923C36.153 50.8229 36.588 50.5836 39.441 52.7084C42.227 54.783 44.662 54.6658 42.524 52.5598C40.617 50.6821 41.315 49.4149 43.343 51.072C44.414 51.9473 45.024 51.8666 45.99 50.7195C46.68 49.9013 47.81 49.2308 48.5 49.2308C49.19 49.2308 50.297 48.5878 50.96 47.8011C52.484 45.9934 51.314 42.0096 49.464 42.7077C48.719 42.9893 47.072 42.0903 45.805 40.7099C44.537 39.3295 42.784 37.4292 41.908 36.4869C39.409 33.7959 38.854 30.5231 40.897 30.5231C41.911 30.5231 43.421 32.1792 44.609 34.5954L46.612 38.6678L46.374 33.5596C46.243 30.7495 45.3 27.0336 44.279 25.3026C42.822 22.8332 42.596 21.3031 43.229 18.2154C44.948 9.8304 45.217 6.15581 44.159 5.51187C43.57 5.15347 42.393 5.98252 41.544 7.35311ZM41.834 16.9364C40.58 19.136 40.535 19.1429 40.227 17.1658C40.052 16.0473 40.466 13.8319 41.148 12.2427L42.386 9.35384L42.755 12.0133C42.957 13.4754 42.543 15.6908 41.834 16.9364ZM41.661 23.0174L43.242 26.0923L40.121 23.2005C38.405 21.6103 37 20.8345 37 21.4774C37 22.1204 36.325 22.6462 35.5 22.6462C34.675 22.6462 34 23.0892 34 23.6308C34 24.1723 34.466 24.6154 35.035 24.6154C35.737 24.6154 35.726 25.2495 35 26.5846C34.233 27.9966 34.24 28.5538 35.024 28.5538C35.626 28.5538 35.835 29.0038 35.49 29.5542C35.144 30.1046 34.477 30.3212 34.007 30.0347C33.536 29.7482 33.005 30.2631 32.826 31.1788C32.528 32.6991 32.338 32.6843 30.628 31.0006C28.799 29.1998 28.725 29.1998 27.378 31.0134C26.049 32.8025 26 32.7946 26 30.7692C26 29.6143 25.549 28.3963 24.999 28.0606C23.253 26.9982 27.251 22.7151 29.5 23.2379C30.726 23.5225 32.467 22.7988 34 21.3671C37.11 18.4615 39.593 18.9962 41.661 23.0174ZM27 35.5623C27 36.1039 26.55 36.2732 26 35.9385C25.45 35.6037 25 34.8869 25 34.3454C25 33.8038 25.45 33.6345 26 33.9692C26.55 34.304 27 35.0208 27 35.5623ZM36.362 38.8923C36.678 39.7046 37.851 40.3692 38.969 40.3692C40.353 40.3692 41 41.0151 41 42.3966C41 44.6306 40.782 44.5548 34.6 40.1772C30.917 37.569 30.841 37.4154 33.243 37.4154C34.642 37.4154 36.045 38.08 36.362 38.8923ZM32.487 46.2562C32.82 46.787 32.591 48.1438 31.978 49.2721C31.364 50.4005 30.825 52.6247 30.779 54.2159C30.655 58.499 29.601 57.729 28.356 52.4465C27.418 48.4657 27.495 47.6081 28.879 46.5703C30.869 45.0786 31.702 45.0058 32.487 46.2562ZM21.768 58.0923C21.081 59.1754 19.952 60.0615 19.259 60.0615C17.495 60.0615 17.692 59.0316 19.75 57.4937C22.311 55.5796 23.195 55.8415 21.768 58.0923ZM35.638 61.5385C35.322 62.3508 35.499 63.0154 36.031 63.0154C36.564 63.0154 37 62.3508 37 61.5385C37 60.7262 36.823 60.0615 36.607 60.0615C36.391 60.0615 35.955 60.7262 35.638 61.5385Z" fill="#645D55"/>
<path fill-rule="evenodd" clip-rule="evenodd" d="M18.584 8.12308C17.413 13.8329 17.214 17.7369 18.066 18.2558C18.58 18.5679 19.045 17.1362 19.1 15.0735C19.155 13.0107 19.508 10.2351 19.885 8.90388L20.57 6.48567L23.02 9.87274C24.791 12.3225 25.505 14.6698 25.598 18.3493C25.721 23.2438 25.612 23.4614 22.754 24.0236C20.198 24.5268 19.867 24.9442 20.391 27.0011C20.732 28.3392 19.901 33.4366 18.503 38.5733C17.129 43.6224 16.004 47.8641 16.003 48C16.001 48.1359 16.675 48.2462 17.5 48.2462C19.313 48.2462 19.359 48.6912 17.803 51.1439C16.887 52.5893 16.18 52.8069 14.788 52.0734C13.484 51.3861 12.876 51.4747 12.637 52.3884C12.18 54.1322 10.407 59.1902 9.503 61.3248C8.815 62.9524 9.566 63.0715 19.723 62.9474L30.685 62.8135L29.277 56.7611C28.503 53.4311 27.224 49.726 26.435 48.5268C24.639 45.7984 24.589 44.7153 26.324 46.1332C27.286 46.9199 27.95 46.9169 28.757 46.1223C29.367 45.5217 30.541 45.2864 31.366 45.5975C32.553 46.0465 32.747 47.3118 32.294 51.6362C31.978 54.6452 32.071 57.1077 32.5 57.1077C33.754 57.1077 35.934 53.8171 35.968 51.8715C35.998 50.1957 36.186 50.2114 38.904 52.1177C40.502 53.2372 42.402 54.1538 43.127 54.1538C43.852 54.1538 43.445 53.4636 42.223 52.6208C39.372 50.6545 39.333 49.0516 42.161 50.0815C43.606 50.6073 45.594 50.2636 48.161 49.0417C52.355 47.0469 53.137 46.1686 50 46.976C47.535 47.6111 47.364 45.7826 49.75 44.3097C51.332 43.3329 51.309 43.2778 49.5 43.7376C48.007 44.1167 46.786 43.2542 44.685 40.3377C43.137 38.1893 41.449 36.4308 40.935 36.4308C40.421 36.4308 40 35.3772 40 34.0894C40 30.782 37.697 29.1023 35.064 30.4896C33.929 31.0873 33 31.7982 33 32.0689C33 32.3397 34.013 32.0384 35.25 31.3994C37.434 30.271 37.449 30.2937 35.748 32.1831C34.784 33.2534 34.297 34.4251 34.664 34.7875C36.574 36.6681 33.528 35.0956 31.274 33.0378C28.484 30.4896 26.797 30.6018 27.067 33.3184C27.373 36.3884 27.001 37.5316 25.91 36.8679C25.241 36.4613 25.076 34.8642 25.483 32.7276C25.937 30.3429 25.738 29.0028 24.847 28.4603C23.836 27.8449 24.041 27.0139 25.774 24.706C26.998 23.0754 28 21.2805 28 20.7163C28 19.2522 29.976 19.4452 30.118 20.9231C30.184 21.6005 30.184 22.4857 30.118 22.8923C29.894 24.2895 31.787 23.6288 32.382 22.1026C32.709 21.2618 32.59 20.8098 32.117 21.0983C31.644 21.3858 29.793 18.9164 28.003 15.6101C23.037 6.43545 19.505 3.6293 18.584 8.12308ZM40.982 8.90388C40.289 10.5521 38.434 13.2578 36.861 14.9159C33.262 18.7087 33.267 19.457 36.888 18.9342C39.332 18.5807 39.866 17.9604 40.364 14.8943C40.687 12.9014 41.669 10.3975 42.546 9.32825C44.056 7.488 44.112 7.59434 43.599 11.3231C43.226 14.0337 43.355 14.8017 44.013 13.7846C44.539 12.9723 44.976 10.8682 44.985 9.1077C45.004 4.9792 42.683 4.86105 40.982 8.90388ZM42.116 16.9029C42.052 17.8048 41.438 18.7471 40.75 18.9952C39.767 19.3497 39.76 19.7179 40.717 20.7183C41.707 21.7531 42.05 21.695 42.552 20.4071C42.891 19.5358 42.958 18.0214 42.701 17.0417C42.305 15.5382 42.214 15.5166 42.116 16.9029ZM38.186 22.1568C38.359 22.6993 40.075 26.0145 42 29.5237C45.407 35.7337 45.508 35.8193 45.81 32.766C46.133 29.4932 44.548 25.4484 43.102 25.856C42.642 25.986 41.276 24.9846 40.068 23.6308C38.86 22.2769 38.013 21.6133 38.186 22.1568ZM34.813 23.3187C35.534 23.6032 36.397 23.5678 36.729 23.2409C37.061 22.914 36.471 22.6816 35.417 22.7239C34.252 22.7712 34.015 23.0046 34.813 23.3187ZM35 27.5692C35 28.1108 35.9 28.5538 37 28.5538C38.1 28.5538 39 28.1108 39 27.5692C39 27.0277 38.1 26.5846 37 26.5846C35.9 26.5846 35 27.0277 35 27.5692ZM34.329 37.4154C35.248 37.4154 36 36.9723 36 36.4308C36 35.8892 36.684 35.4462 37.519 35.4462C38.624 35.4462 38.874 36.0921 38.435 37.8122C37.968 39.6426 38.216 40.1438 39.527 40.0276C40.46 39.9449 41.608 40.8743 42.079 42.0923C42.752 43.8331 42.583 44.3077 41.291 44.3077C38.872 44.3077 29 37.3317 29 35.6224C29 34.3838 29.284 34.4094 30.829 35.7859C31.835 36.6819 33.41 37.4154 34.329 37.4154ZM24 56.2914C24 58.0608 20.889 61.0462 19.045 61.0462C18.14 61.0462 16.882 60.5361 16.248 59.9119C15.379 59.0562 15.883 58.3454 18.298 57.0151C22.069 54.9376 24 54.6934 24 56.2914Z" fill="#3E3935"/>
<path fill-rule="evenodd" clip-rule="evenodd" d="M40.716 9.62462L38.932 13.2923L40.944 10.8308C42.05 9.47692 42.966 7.81588 42.978 7.13846C43.012 5.25095 42.649 5.64972 40.716 9.62462ZM44.079 8.45096C44.127 9.59803 44.364 9.83139 44.683 9.04665C44.972 8.33575 44.936 7.48603 44.604 7.15914C44.272 6.83225 44.036 7.41317 44.079 8.45096ZM18.079 11.4048C18.127 12.5519 18.364 12.7852 18.683 12.0005C18.972 11.2896 18.936 10.4399 18.604 10.113C18.272 9.78609 18.036 10.367 18.079 11.4048ZM35.75 16.1398C33.513 17.8117 33.526 18.7077 35.787 18.7077C36.858 18.7077 37.635 17.918 37.725 16.7385C37.901 14.4374 37.992 14.464 35.75 16.1398ZM26.301 18.7215C24.997 22.1214 25.907 22.6265 27.842 19.5761C28.589 18.3975 28.787 17.1195 28.296 16.6361C27.805 16.1526 26.938 17.0594 26.301 18.7215ZM41 20.735C41 21.3081 41.45 21.504 42 21.1692C42.55 20.8345 43 20.3658 43 20.1265C43 19.8873 42.55 19.6923 42 19.6923C41.45 19.6923 41 20.162 41 20.735ZM22.028 26.0194C20.542 29.8683 20.836 30.4738 22.618 27.2364C23.464 25.6985 23.909 24.1979 23.606 23.8996C23.304 23.6012 22.593 24.5553 22.028 26.0194ZM35.5 27.5692C35.84 28.1108 36.793 28.5538 37.618 28.5538C38.443 28.5538 38.84 28.1108 38.5 27.5692C38.16 27.0277 37.207 26.5846 36.382 26.5846C35.557 26.5846 35.16 27.0277 35.5 27.5692ZM42 28.5538C42 29.0954 42.675 29.5385 43.5 29.5385C44.325 29.5385 45 29.0954 45 28.5538C45 28.0123 44.325 27.5692 43.5 27.5692C42.675 27.5692 42 28.0123 42 28.5538ZM22.608 30.1086C22.275 30.9642 22.267 32.705 22.591 33.9761C22.915 35.2473 22.704 37.0954 22.121 38.083C21.202 39.6377 21.055 39.4841 21.015 36.9231C20.939 32.0246 19.036 36.2102 19 41.3538C18.978 44.5814 18.706 45.3839 18 44.3077C17.223 43.1242 17.028 43.2916 17.015 45.1515C17.005 46.7367 17.442 47.3049 18.397 46.9445C19.351 46.5841 19.93 47.3334 20.225 49.3066C20.461 50.8958 20.433 52.415 20.161 52.6828C19.135 53.693 14.147 53.118 13.704 51.9385C13.45 51.262 12.682 52.8197 11.998 55.4014C11.314 57.983 10.359 60.3353 9.877 60.6287C7.907 61.827 9.213 63.0154 12.5 63.0154C15.928 63.0154 17.378 61.0166 15 59.5692C13.29 58.5285 13.88 57.6404 17.25 56.1782C19.038 55.4023 21.116 54.1647 21.869 53.4292C23.528 51.8075 23.811 52.0418 24.961 55.9892C25.542 57.984 25.506 59.0769 24.859 59.0769C23.788 59.0769 21 61.5158 21 62.4532C21 62.7623 22.125 63.0154 23.5 63.0154C25.202 63.0154 26.01 62.466 26.032 61.2923C26.061 59.7278 26.198 59.7435 27.521 61.4666C28.323 62.5103 29.187 63.1601 29.44 62.91C30.537 61.8309 27.14 50.3739 24.687 46.8775C23.209 44.7714 22.014 42.3345 22.03 41.4622C22.054 40.2196 22.305 40.3023 23.192 41.8462C24.752 44.5627 26.968 45.7531 30.5 45.7698C33.431 45.7846 33.493 45.887 33.205 50.2154L32.91 54.6462L34.818 52.289C36.106 50.6978 37.176 50.1996 38.113 50.755C39.288 51.4521 39.292 51.325 38.137 49.923C37.387 49.0122 36.449 48.4647 36.053 48.706C35.657 48.9472 35.333 48.5061 35.333 47.7263C35.333 46.6718 35.668 46.5812 36.638 47.3748C39.139 49.4179 45.167 50.1908 46.716 48.6666C47.509 47.8858 47.667 47.2615 47.071 47.2615C46.482 47.2615 45.993 46.4857 45.985 45.5385C45.975 44.4623 45.694 44.2279 45.235 44.9132C44.323 46.2769 39.5 47.87 40.341 46.531C40.666 46.013 39.71 44.9871 38.216 44.2506C36.722 43.5151 34.723 42.0086 33.772 40.9029C32.796 39.7666 32.035 39.4279 32.022 40.1231C32.01 40.8005 30.875 41.3538 29.5 41.3538C26.975 41.3538 26.158 40.0138 28 38.8923C28.55 38.5575 28.986 37.5345 28.968 36.6188C28.939 35.0671 28.848 35.069 27.633 36.6425C25.597 39.2822 24.165 36.9871 25.01 32.4372C25.538 29.5966 25.394 28.5538 24.473 28.5538C23.78 28.5538 22.941 29.2539 22.608 30.1086ZM37.569 31.618C37.947 32.2196 37.701 33.0506 37.021 33.4641C36.342 33.8777 36.194 34.4635 36.691 34.7658C38.221 35.6962 40.105 33.9072 39.427 32.1674C39.074 31.2635 38.358 30.5231 37.834 30.5231C37.31 30.5231 37.191 31.0154 37.569 31.618ZM44.012 32.515C45.253 34.7973 46 35.0129 46 33.09C46 32.3358 45.315 31.4594 44.477 31.1424C43.234 30.6737 43.149 30.9258 44.012 32.515ZM30.607 34.8741C30.908 35.647 31.859 36.545 32.72 36.8699C35.32 37.8526 35.226 36.803 32.561 35.0838C30.58 33.8058 30.174 33.7625 30.607 34.8741Z" fill="#2C251F"/>
</g>
<defs>
<clipPath id="clip0_1_2">
<rect width="64" height="64" rx="32" fill="white"/>
</clipPath>
</defs>
</svg>
