<svg width="50" height="50" viewBox="0 0 50 50" fill="none" xmlns="http://www.w3.org/2000/svg">
<g clip-path="url(#clip0_1_2)">
<path fill-rule="evenodd" clip-rule="evenodd" d="M35.4167 0.831C35.4167 1.288 34.2656 2.253 32.8594 2.976C30.6823 4.095 29.9167 4.046 27.6969 2.65C25.1896 1.073 24.8531 1.146 18.75 4.579L12.4083 8.147L12.7146 14.818L13.0208 21.488L18.7042 24.744C21.8292 26.535 24.6625 28 25 28C25.3375 28 28.1708 26.536 31.2958 24.747C36.1208 21.985 37.0292 20.996 37.3094 18.195C37.5448 15.847 38.3708 14.576 40.174 13.787C42.2698 12.871 42.7083 11.956 42.7083 8.5C42.7083 5.013 42.2771 4.132 40.1042 3.182C38.6719 2.555 37.5 1.583 37.5 1.021C37.5 0.46 37.0312 0 36.4583 0C35.8854 0 35.4167 0.374 35.4167 0.831ZM35.4167 11.07C35.4167 12.76 35.0937 12.905 33.3333 12C32.1875 11.411 31.25 10.03 31.25 8.93C31.25 7.24 31.5729 7.095 33.3333 8C34.4792 8.589 35.4167 9.97 35.4167 11.07ZM5.46875 26.105L0 29.165L0.0156253 35.833C0.0250003 39.5 0.486458 43.175 1.04167 44C1.59687 44.825 2.05833 45.144 2.06771 44.708C2.07604 44.272 4.26146 45.141 6.92292 46.638L11.7625 49.361L17.5583 46.448C20.7448 44.846 24.075 43.523 24.9583 43.508C25.8406 43.493 29.0885 44.801 32.1771 46.415L37.7906 49.348L42.2729 47.066C44.7385 45.81 47.0812 44.87 47.4802 44.977C49.0812 45.405 49.9687 42.162 49.9844 35.823L50 29.147L44.4042 26.073C41.3271 24.383 38.1625 23.035 37.3729 23.079C36.5833 23.122 33.8281 24.387 31.25 25.89L26.5625 28.624L26.2562 35.812C26.0885 39.765 25.5229 43 25 43C24.4771 43 23.9115 39.765 23.7437 35.812L23.4375 28.624L18.75 25.89C16.1719 24.387 13.3594 23.132 12.5 23.101C11.6406 23.07 8.47708 24.421 5.46875 26.105Z" fill="#FFFF00"/>
<path fill-rule="evenodd" clip-rule="evenodd" d="M18.4437 4.649L12.4083 8.141L12.7146 14.814L13.0208 21.488L18.7042 24.744C21.8292 26.535 24.6625 28 25 28C25.3375 28 28.1708 26.536 31.2958 24.747C36.1208 21.985 37.0292 20.996 37.3094 18.195C37.5448 15.847 38.3708 14.576 40.174 13.787C42.2594 12.875 42.7073 11.954 42.7021 8.589C42.6958 5.071 42.2469 4.255 39.4844 2.746C36.4719 1.1 36.0927 1.094 33.325 2.664C30.5719 4.225 30.201 4.225 27.725 2.668C26.2667 1.751 24.9396 1.035 24.776 1.079C24.6125 1.122 21.7635 2.729 18.4437 4.649ZM35.4167 11.07C35.4167 12.76 35.0937 12.905 33.3333 12C32.1875 11.411 31.25 10.03 31.25 8.93C31.25 7.24 31.5729 7.095 33.3333 8C34.4792 8.589 35.4167 9.97 35.4167 11.07ZM5.46875 26.105L0 29.165V36.009V42.853L5.93646 46.114L11.8729 49.374L17.6552 46.356L23.4375 43.338V35.985V28.632L18.75 25.895C16.1719 24.389 13.3594 23.132 12.5 23.101C11.6406 23.07 8.47708 24.421 5.46875 26.105ZM31.25 25.895L26.5625 28.632V35.946V43.261L32.176 46.305L37.7885 49.35L42.55 46.925C45.1687 45.591 47.5125 44.651 47.7583 44.835C48.9906 45.761 49.9698 41.798 49.9844 35.823L50 29.147L44.4042 26.073C41.3271 24.383 38.1625 23.035 37.3729 23.079C36.5833 23.122 33.8281 24.389 31.25 25.895Z" fill="#FF8000"/>
<path fill-rule="evenodd" clip-rule="evenodd" d="M33.8 2.611C31.5417 3.736 30.2761 3.791 27.6469 2.879C24.6928 1.853 23.7292 2.055 18.6792 4.759L13.0209 7.788L12.7167 14.237C12.3792 21.391 12.4084 21.436 20.0521 25.325L25 27.842L29.948 25.325C36.9646 21.755 37.7323 20.97 37.2553 17.854C36.9094 15.587 37.3584 14.885 39.7709 13.925C42.324 12.91 42.7073 12.217 42.7021 8.629C42.6959 5.12 42.2407 4.252 39.6698 2.848C37.0084 1.394 36.3011 1.366 33.8 2.611ZM35.4167 11.035C35.4167 12.116 35.0417 13 34.5834 13C33.1 13 31.25 10.649 31.25 8.765C31.25 7.24 31.6021 7.11 33.3334 8C34.4792 8.589 35.4167 9.955 35.4167 11.035ZM7.81255 25.066C6.0938 26.195 3.63338 27.531 2.3438 28.035C0.228171 28.861 4.59075e-05 29.63 4.59075e-05 35.921C4.59075e-05 43.557 -0.30933 43.166 9.12817 47.483C12.2261 48.9 12.8219 48.891 15.848 47.389C17.675 46.483 19.8115 45.124 20.5969 44.37C21.3813 43.617 22.4792 43 23.0365 43C23.6271 43 23.9219 39.995 23.7438 35.791L23.4375 28.582L18.2292 25.881C11.8084 22.552 11.6573 22.541 7.81255 25.066ZM31.7709 25.881L26.5625 28.582L26.2563 35.791C26.0782 39.995 26.373 43 26.9636 43C27.5209 43 28.6188 43.617 29.4032 44.37C30.1886 45.124 32.3053 46.472 34.1073 47.367C37.6438 49.123 41.4386 48.413 44.9844 45.332C45.9521 44.492 47.1928 44.071 47.7417 44.396C49.2823 45.31 50 42.447 50 35.393C50 29.65 49.7459 28.851 47.6563 28.035C46.3678 27.531 43.9063 26.195 42.1875 25.066C38.3428 22.541 38.1917 22.552 31.7709 25.881Z" fill="#F77300"/>
<path fill-rule="evenodd" clip-rule="evenodd" d="M36.5406 17.583C36.5906 18.748 36.8375 18.985 37.1698 18.188C37.4708 17.466 37.4333 16.603 37.0875 16.271C36.7417 15.939 36.4958 16.529 36.5406 17.583ZM48.3948 43.067C48.0167 43.653 47.9312 44.348 48.2042 44.61C48.4771 44.872 48.9781 44.392 49.3177 43.543C50.0219 41.781 49.4219 41.471 48.3948 43.067Z" fill="#FF6600"/>
<path fill-rule="evenodd" clip-rule="evenodd" d="M36.5406 17.583C36.5906 18.748 36.8375 18.985 37.1698 18.188C37.4708 17.466 37.4333 16.603 37.0875 16.271C36.7417 15.939 36.4958 16.529 36.5406 17.583Z" fill="#E37100"/>
</g>
<defs>
<clipPath id="clip0_1_2">
<rect width="50" height="50" rx="25" fill="white"/>
</clipPath>
</defs>
</svg>
