<svg width="48" height="50" viewBox="0 0 48 50" fill="none" xmlns="http://www.w3.org/2000/svg">
<path fill-rule="evenodd" clip-rule="evenodd" d="M34 0.831C34 1.288 32.895 2.253 31.545 2.976C29.455 4.095 28.72 4.046 26.589 2.65C24.182 1.073 23.859 1.146 18 4.579L11.912 8.147L12.206 14.818L12.5 21.488L17.956 24.744C20.956 26.535 23.676 28 24 28C24.324 28 27.044 26.536 30.044 24.747C34.676 21.985 35.548 20.996 35.817 18.195C36.043 15.847 36.836 14.576 38.567 13.787C40.579 12.871 41 11.956 41 8.5C41 5.013 40.586 4.132 38.5 3.182C37.125 2.555 36 1.583 36 1.021C36 0.46 35.55 0 35 0C34.45 0 34 0.374 34 0.831ZM34 11.07C34 12.76 33.69 12.905 32 12C30.9 11.411 30 10.03 30 8.93C30 7.24 30.31 7.095 32 8C33.1 8.589 34 9.97 34 11.07ZM5.25 26.105L0 29.165L0.0150003 35.833C0.0240003 39.5 0.467 43.175 1 44C1.533 44.825 1.976 45.144 1.985 44.708C1.993 44.272 4.091 45.141 6.646 46.638L11.292 49.361L16.856 46.448C19.915 44.846 23.112 43.523 23.96 43.508C24.807 43.493 27.925 44.801 30.89 46.415L36.279 49.348L40.582 47.066C42.949 45.81 45.198 44.87 45.581 44.977C47.118 45.405 47.97 42.162 47.985 35.823L48 29.147L42.628 26.073C39.674 24.383 36.636 23.035 35.878 23.079C35.12 23.122 32.475 24.387 30 25.89L25.5 28.624L25.206 35.812C25.045 39.765 24.502 43 24 43C23.498 43 22.955 39.765 22.794 35.812L22.5 28.624L18 25.89C15.525 24.387 12.825 23.132 12 23.101C11.175 23.07 8.138 24.421 5.25 26.105Z" fill="#FFFF00"/>
<path fill-rule="evenodd" clip-rule="evenodd" d="M17.706 4.649L11.912 8.141L12.206 14.814L12.5 21.488L17.956 24.744C20.956 26.535 23.676 28 24 28C24.324 28 27.044 26.536 30.044 24.747C34.676 21.985 35.548 20.996 35.817 18.195C36.043 15.847 36.836 14.576 38.567 13.787C40.569 12.875 40.999 11.954 40.994 8.589C40.988 5.071 40.557 4.255 37.905 2.746C35.013 1.1 34.649 1.094 31.992 2.664C29.349 4.225 28.993 4.225 26.616 2.668C25.216 1.751 23.942 1.035 23.785 1.079C23.628 1.122 20.893 2.729 17.706 4.649ZM34 11.07C34 12.76 33.69 12.905 32 12C30.9 11.411 30 10.03 30 8.93C30 7.24 30.31 7.095 32 8C33.1 8.589 34 9.97 34 11.07ZM5.25 26.105L0 29.165V36.009V42.853L5.699 46.114L11.398 49.374L16.949 46.356L22.5 43.338V35.985V28.632L18 25.895C15.525 24.389 12.825 23.132 12 23.101C11.175 23.07 8.138 24.421 5.25 26.105ZM30 25.895L25.5 28.632V35.946V43.261L30.889 46.305L36.277 49.35L40.848 46.925C43.362 45.591 45.612 44.651 45.848 44.835C47.031 45.761 47.971 41.798 47.985 35.823L48 29.147L42.628 26.073C39.674 24.383 36.636 23.035 35.878 23.079C35.12 23.122 32.475 24.389 30 25.895Z" fill="#FF8000"/>
<path fill-rule="evenodd" clip-rule="evenodd" d="M32.448 2.611C30.28 3.736 29.065 3.791 26.541 2.879C23.705 1.853 22.78 2.055 17.932 4.759L12.5 7.788L12.208 14.237C11.884 21.391 11.912 21.436 19.25 25.325L24 27.842L28.75 25.325C35.486 21.755 36.223 20.97 35.765 17.854C35.433 15.587 35.864 14.885 38.18 13.925C40.631 12.91 40.999 12.217 40.994 8.629C40.988 5.12 40.551 4.252 38.083 2.848C35.528 1.394 34.849 1.366 32.448 2.611ZM34 11.035C34 12.116 33.64 13 33.2 13C31.776 13 30 10.649 30 8.765C30 7.24 30.338 7.11 32 8C33.1 8.589 34 9.955 34 11.035ZM7.5 25.066C5.85 26.195 3.488 27.531 2.25 28.035C0.218999 28.861 -9.52277e-07 29.63 -9.52277e-07 35.921C-9.52277e-07 43.557 -0.297001 43.166 8.763 47.483C11.737 48.9 12.309 48.891 15.214 47.389C16.968 46.483 19.019 45.124 19.773 44.37C20.526 43.617 21.58 43 22.115 43C22.682 43 22.965 39.995 22.794 35.791L22.5 28.582L17.5 25.881C11.336 22.552 11.191 22.541 7.5 25.066ZM30.5 25.881L25.5 28.582L25.206 35.791C25.035 39.995 25.318 43 25.885 43C26.42 43 27.474 43.617 28.227 44.37C28.981 45.124 31.013 46.472 32.743 47.367C36.138 49.123 39.781 48.413 43.185 45.332C44.114 44.492 45.305 44.071 45.832 44.396C47.311 45.31 48 42.447 48 35.393C48 29.65 47.756 28.851 45.75 28.035C44.513 27.531 42.15 26.195 40.5 25.066C36.809 22.541 36.664 22.552 30.5 25.881Z" fill="#F77300"/>
<path fill-rule="evenodd" clip-rule="evenodd" d="M35.079 17.583C35.127 18.748 35.364 18.985 35.683 18.188C35.972 17.466 35.936 16.603 35.604 16.271C35.272 15.939 35.036 16.529 35.079 17.583ZM46.459 43.067C46.096 43.653 46.014 44.348 46.276 44.61C46.538 44.872 47.019 44.392 47.345 43.543C48.021 41.781 47.445 41.471 46.459 43.067Z" fill="#FF6600"/>
<path fill-rule="evenodd" clip-rule="evenodd" d="M35.079 17.583C35.127 18.748 35.364 18.985 35.683 18.188C35.972 17.466 35.936 16.603 35.604 16.271C35.272 15.939 35.036 16.529 35.079 17.583Z" fill="#E37100"/>
</svg>
