<svg width="252" height="251" viewBox="0 0 252 251" fill="none" xmlns="http://www.w3.org/2000/svg">
<path fill-rule="evenodd" clip-rule="evenodd" d="M101 1.514C84.424 5.219 71.146 10.58 58.794 18.556C31.579 36.128 12.848 61.7 4.26501 93C1.99001 101.294 1.60601 104.929 1.23901 121.631C0.903006 136.946 1.15801 142.42 2.51601 149.078C12.362 197.353 47.053 234.155 95 247.189C102.703 249.283 105.61 249.5 126 249.5C147.571 249.5 148.913 249.385 158.491 246.71C202.689 234.365 235.589 201.294 247.735 157C250.01 148.706 250.394 145.071 250.761 128.369C251.097 113.054 250.842 107.58 249.484 100.922C239.681 52.857 205.206 16.125 157.5 2.914C150.658 1.019 146.46 0.652996 128.5 0.379996C112.805 0.141996 105.858 0.427997 101 1.514Z" fill="#8000FF"/>
<path fill-rule="evenodd" clip-rule="evenodd" d="M106.5 0.625995C96.69 2.558 93.089 3.44 86.558 5.513C53.31 16.065 23.952 43.11 10.042 76C3.41801 91.66 1.70201 100.558 1.23901 121.631C0.903006 136.946 1.15801 142.42 2.51601 149.078C10.713 189.268 36.174 221.768 73.167 239.26C81.633 243.263 94.298 247.315 103.434 248.943C112.756 250.604 141.744 250.277 150.792 248.408C198.193 238.618 234.826 204.077 247.735 157C250.01 148.706 250.394 145.071 250.761 128.369C251.097 113.054 250.842 107.58 249.484 100.922C241.327 60.931 217.1 29.719 180 11.405C170.5 6.71599 157.79 2.602 148 1.047C141.898 0.0779952 110.88 -0.237005 106.5 0.625995Z" fill="#CAB3FF"/>
<path fill-rule="evenodd" clip-rule="evenodd" d="M106.5 0.625995C96.69 2.558 93.089 3.44 86.558 5.513C53.31 16.065 23.952 43.11 10.042 76C3.41801 91.66 1.70201 100.558 1.23901 121.631C0.903006 136.946 1.15801 142.42 2.51601 149.078C10.713 189.268 36.174 221.768 73.167 239.26C81.633 243.263 94.298 247.315 103.434 248.943C112.756 250.604 141.744 250.277 150.792 248.408C198.193 238.618 234.826 204.077 247.735 157C250.01 148.706 250.394 145.071 250.761 128.369C251.097 113.054 250.842 107.58 249.484 100.922C241.327 60.931 217.1 29.719 180 11.405C170.5 6.71599 157.79 2.602 148 1.047C141.898 0.0779952 110.88 -0.237005 106.5 0.625995ZM154.5 61C156.648 63.2 158.181 65 157.906 65C157.631 65 155.648 63.2 153.5 61C151.352 58.8 149.819 57 150.094 57C150.369 57 152.352 58.8 154.5 61ZM134 58.297C134 58.46 132.088 60.373 129.75 62.547L125.5 66.5L129.453 62.25C133.129 58.298 134 57.54 134 58.297ZM170.5 76C172.648 78.2 174.181 80 173.906 80C173.631 80 171.648 78.2 169.5 76C167.352 73.8 165.819 72 166.094 72C166.369 72 168.352 73.8 170.5 76ZM114 77.5C111.571 79.975 109.359 82 109.084 82C108.809 82 110.571 79.975 113 77.5C115.429 75.025 117.641 73 117.916 73C118.191 73 116.429 75.025 114 77.5ZM176 81.284C176 81.44 173.412 84.028 170.25 87.034L164.5 92.5L169.966 86.75C175.044 81.408 176 80.542 176 81.284ZM98 92.5C95.571 94.975 93.359 97 93.084 97C92.809 97 94.571 94.975 97 92.5C99.429 90.025 101.641 88 101.916 88C102.191 88 100.429 90.025 98 92.5ZM162 94.279C162 94.432 158.963 97.47 155.25 101.029L148.5 107.5L154.971 100.75C160.982 94.48 162 93.543 162 94.279ZM80.985 108.515L76.553 113.031L86.027 121.868C91.237 126.729 106.075 140.639 119 152.78L142.5 174.854L148 169.677L153.5 164.5L148.283 170L143.066 175.5L142.783 187.437L142.5 199.374L109.25 168.118L76 136.861V124.719V112.576L80.208 108.288C82.523 105.93 84.641 104 84.916 104C85.191 104 83.422 106.032 80.985 108.515ZM146 109.378C146 109.585 145.213 110.373 144.25 111.128C142.664 112.371 142.629 112.336 143.872 110.75C145.179 109.084 146 108.555 146 109.378ZM155.5 124C159.874 128.4 163.228 132 162.953 132C162.678 132 158.874 128.4 154.5 124C150.126 119.6 146.772 116 147.047 116C147.322 116 151.126 119.6 155.5 124ZM174.012 146.247L171.574 148.5L173.452 146.24C175.3 144.013 175.293 143.937 172.943 141.24L170.556 138.5L173.503 141.247L176.449 143.995L174.012 146.247ZM169 150.279C169 150.432 165.963 153.47 162.25 157.029L155.5 163.5L161.971 156.75C167.982 150.48 169 149.543 169 150.279Z" fill="#AB87FF"/>
<path fill-rule="evenodd" clip-rule="evenodd" d="M106.5 0.626005C96.69 2.55801 93.089 3.44001 86.558 5.51301C47.054 18.051 15.56 51.541 4.286 93C0.840004 105.675 -0.138996 134.566 2.416 148.203C7.589 175.812 22.675 202.314 43.115 219.702C61.35 235.213 83.543 245.746 104.995 249.069C117.084 250.942 147.682 249.757 157 247.056C169.091 243.551 172.924 242.12 181.177 238.032C214.442 221.555 237.941 192.937 247.714 157C251.16 144.325 252.139 115.434 249.584 101.797C244.411 74.188 229.325 47.686 208.885 30.298C191.021 15.102 168.726 4.39601 148 1.06101C141.915 0.0820052 110.913 -0.242995 106.5 0.626005ZM152 58.5C155.543 62.075 158.217 65 157.942 65C157.667 65 154.543 62.075 151 58.5C147.457 54.925 144.783 52 145.058 52C145.333 52 148.457 54.925 152 58.5ZM139 53.279C139 53.432 135.963 56.47 132.25 60.029L125.5 66.5L131.971 59.75C137.982 53.48 139 52.543 139 53.279ZM168 73.5C171.543 77.075 174.217 80 173.942 80C173.667 80 170.543 77.075 167 73.5C163.457 69.925 160.783 67 161.058 67C161.333 67 164.457 69.925 168 73.5ZM123 68.277C123 68.429 119.737 71.692 115.75 75.527L108.5 82.5L115.473 75.25C121.95 68.516 123 67.543 123 68.277ZM166.041 115L155.955 124.5L159.727 128.48C161.802 130.669 158.942 128.194 153.371 122.98C147.801 117.766 143.301 113.023 143.371 112.439C143.442 111.856 150.7 104.601 159.5 96.317L175.5 81.255L175.814 93.378L176.127 105.5L166.041 115ZM106 84.279C106 84.432 102.963 87.47 99.25 91.029L92.5 97.5L98.971 90.75C104.982 84.48 106 83.543 106 84.279ZM83.492 106.008L76.537 113.016L86.019 121.861C91.233 126.725 106.073 140.619 118.996 152.736L142.491 174.766L153.3 164.633C159.245 159.06 166.672 152.172 169.805 149.326L175.5 144.151L170.5 138.826L165.5 133.5L170.75 138.462L176 143.425L175.981 155.962L175.961 168.5L159.315 184C150.159 192.525 142.551 199.5 142.408 199.5C142.265 199.5 127.265 185.561 109.074 168.524L76 137.548V125.049V112.55L82.723 105.775C86.421 102.049 89.671 99 89.946 99C90.221 99 87.317 102.154 83.492 106.008Z" fill="#8E63FE"/>
<path fill-rule="evenodd" clip-rule="evenodd" d="M106.5 0.626005C96.69 2.55801 93.089 3.44001 86.558 5.51301C47.054 18.051 15.56 51.541 4.286 93C0.840004 105.675 -0.138996 134.566 2.416 148.203C7.589 175.812 22.675 202.314 43.115 219.702C61.35 235.213 83.543 245.746 104.995 249.069C117.084 250.942 147.682 249.757 157 247.056C169.091 243.551 172.924 242.12 181.177 238.032C214.442 221.555 237.941 192.937 247.714 157C251.16 144.325 252.139 115.434 249.584 101.797C244.411 74.188 229.325 47.686 208.885 30.298C191.021 15.102 168.726 4.39601 148 1.06101C141.915 0.0820052 110.913 -0.242995 106.5 0.626005ZM159.858 65.5L175.968 80.5L176.008 93.5L176.049 106.5L166.321 115.592L156.593 124.684L166.297 133.96L176 143.236L175.921 156.368L175.841 169.5L159.44 184.821C148.522 195.019 142.614 199.882 141.769 199.366C141.071 198.939 125.975 184.916 108.222 168.204L75.945 137.818L76.222 124.559L76.5 111.299L109 80.678C126.875 63.836 142.006 50.156 142.624 50.278C143.242 50.4 150.997 57.25 159.858 65.5ZM109.5 81.396C91.9 98.048 77.5 112.166 77.5 112.77C77.5 113.374 92.124 127.569 109.999 144.314L142.497 174.761L153.303 164.63C159.247 159.059 166.672 152.152 169.805 149.282L175.5 144.063L168.5 137.326C146.402 116.058 142.966 112.616 143.22 112.009C143.374 111.641 150.588 104.689 159.25 96.56C167.912 88.431 174.955 81.492 174.9 81.14C174.732 80.068 143.285 50.996 142.362 51.059C141.888 51.092 127.1 64.743 109.5 81.396Z" fill="#5555FF"/>
<path fill-rule="evenodd" clip-rule="evenodd" d="M106.5 0.625995C96.69 2.558 93.089 3.44 86.558 5.513C44.037 19.008 11.055 56.622 2.491 101.386C0.503998 111.767 0.503998 138.233 2.491 148.614C11.19 194.083 43.77 230.75 88.037 244.895C102.195 249.419 110.001 250.297 130.995 249.73C145.972 249.326 150.93 248.816 157 247.056C169.091 243.551 172.924 242.12 181.177 238.032C217.245 220.167 242.023 187.743 249.509 148.614C251.496 138.233 251.496 111.767 249.509 101.386C240.81 55.916 208.194 19.211 163.963 5.112C158.758 3.454 151.575 1.628 148 1.056C141.909 0.0809951 110.9 -0.241005 106.5 0.625995ZM159.858 65.5L175.968 80.5L176.008 93.5L176.049 106.5L166.321 115.592L156.593 124.684L166.297 133.96L176 143.236L175.921 156.368L175.841 169.5L159.44 184.821C148.522 195.019 142.614 199.882 141.769 199.366C141.071 198.939 125.975 184.916 108.222 168.204L75.945 137.818L76.222 124.559L76.5 111.299L109 80.678C126.875 63.836 142.006 50.156 142.624 50.278C143.242 50.4 150.997 57.25 159.858 65.5ZM109.5 81.396C91.9 98.048 77.5 112.166 77.5 112.77C77.5 113.374 92.124 127.569 109.999 144.314L142.497 174.761L153.303 164.63C159.247 159.059 166.672 152.152 169.805 149.282L175.5 144.063L168.5 137.326C146.402 116.058 142.966 112.616 143.22 112.009C143.374 111.641 150.588 104.689 159.25 96.56C167.912 88.431 174.955 81.492 174.9 81.14C174.732 80.068 143.285 50.996 142.362 51.059C141.888 51.092 127.1 64.743 109.5 81.396Z" fill="#713FFE"/>
<path fill-rule="evenodd" clip-rule="evenodd" d="M36.437 36.25L33.5 39.5L36.75 36.563C38.538 34.948 40 33.485 40 33.313C40 32.54 39.175 33.221 36.437 36.25ZM212 33.313C212 33.485 213.463 34.948 215.25 36.563L218.5 39.5L215.563 36.25C212.825 33.221 212 32.54 212 33.313ZM109.5 81.396C91.9 98.048 77.5 112.166 77.5 112.77C77.5 113.374 92.124 127.569 109.999 144.314L142.497 174.761L153.303 164.63C159.247 159.059 166.672 152.152 169.805 149.282L175.5 144.063L168.5 137.326C146.402 116.058 142.966 112.616 143.22 112.009C143.374 111.641 150.588 104.689 159.25 96.56C167.912 88.431 174.955 81.492 174.9 81.14C174.732 80.068 143.285 50.996 142.362 51.059C141.888 51.092 127.1 64.743 109.5 81.396ZM34 211.313C34 211.485 35.462 212.948 37.25 214.563L40.5 217.5L37.563 214.25C34.825 211.221 34 210.54 34 211.313ZM214.437 214.25L211.5 217.5L214.75 214.563C217.779 211.825 218.46 211 217.687 211C217.515 211 216.052 212.463 214.437 214.25Z" fill="#0000FF"/>
<path fill-rule="evenodd" clip-rule="evenodd" d="M109.5 81.396C91.9 98.048 77.5 112.166 77.5 112.77C77.5 113.374 92.124 127.569 109.999 144.314L142.497 174.761L153.303 164.63C159.247 159.059 166.672 152.152 169.805 149.282L175.5 144.063L168.5 137.326C146.402 116.058 142.966 112.616 143.22 112.009C143.374 111.641 150.588 104.689 159.25 96.56C167.912 88.431 174.955 81.492 174.9 81.14C174.732 80.068 143.285 50.996 142.362 51.059C141.888 51.092 127.1 64.743 109.5 81.396Z" fill="white"/>
</svg>
