<svg width="252" height="252" viewBox="0 0 252 252" fill="none" xmlns="http://www.w3.org/2000/svg">
<g clip-path="url(#clip0_1_2)">
<path fill-rule="evenodd" clip-rule="evenodd" d="M101 1.52003C84.424 5.2398 71.146 10.6222 58.794 18.6299C31.579 36.2719 12.848 61.9458 4.26501 93.3705C1.99001 101.698 1.60601 105.347 1.23901 122.116C0.903004 137.492 1.15801 142.987 2.51601 149.672C12.362 198.139 47.053 235.088 95 248.174C102.703 250.276 105.61 250.494 126 250.494C147.571 250.494 148.913 250.379 158.491 247.693C202.689 235.299 235.589 202.096 247.735 157.626C250.01 149.298 250.394 145.649 250.761 128.88C251.097 113.504 250.842 108.009 249.484 101.324C239.681 53.0676 205.206 16.1892 157.5 2.92561C150.658 1.02306 146.46 0.655601 128.5 0.381513C112.805 0.142565 105.858 0.429705 101 1.52003Z" fill="#8000FF"/>
<path fill-rule="evenodd" clip-rule="evenodd" d="M106.5 0.62849C96.69 2.56819 93.089 3.45371 86.558 5.53497C53.31 16.129 23.952 43.2818 10.042 76.3028C3.41801 92.0252 1.70201 100.959 1.23901 122.116C0.903004 137.492 1.15801 142.987 2.51601 149.672C10.713 190.022 36.174 222.652 73.167 240.213C81.633 244.232 94.298 248.3 103.434 249.935C112.756 251.602 141.744 251.274 150.792 249.398C198.193 239.569 234.826 204.89 247.735 157.626C250.01 149.298 250.394 145.649 250.761 128.88C251.097 113.504 250.842 108.009 249.484 101.324C241.327 61.1738 217.1 29.8374 180 11.4504C170.5 6.74275 157.79 2.61237 148 1.05117C141.898 0.0783069 110.88 -0.237948 106.5 0.62849Z" fill="#CAB3FF"/>
<path fill-rule="evenodd" clip-rule="evenodd" d="M106.5 0.62849C96.69 2.56819 93.089 3.45371 86.558 5.53497C53.31 16.129 23.952 43.2818 10.042 76.3028C3.41801 92.0252 1.70201 100.959 1.23901 122.116C0.903004 137.492 1.15801 142.987 2.51601 149.672C10.713 190.022 36.174 222.652 73.167 240.213C81.633 244.232 94.298 248.3 103.434 249.935C112.756 251.602 141.744 251.274 150.792 249.398C198.193 239.569 234.826 204.89 247.735 157.626C250.01 149.298 250.394 145.649 250.761 128.88C251.097 113.504 250.842 108.009 249.484 101.324C241.327 61.1738 217.1 29.8374 180 11.4504C170.5 6.74275 157.79 2.61237 148 1.05117C141.898 0.0783069 110.88 -0.237948 106.5 0.62849ZM154.5 61.243C156.648 63.4518 158.181 65.259 157.906 65.259C157.631 65.259 155.648 63.4518 153.5 61.243C151.352 59.0343 149.819 57.2271 150.094 57.2271C150.369 57.2271 152.352 59.0343 154.5 61.243ZM134 58.5293C134 58.6929 132.088 60.6135 129.75 62.7962L125.5 66.7649L129.453 62.498C133.129 58.5303 134 57.7692 134 58.5293ZM170.5 76.3028C172.648 78.5116 174.181 80.3187 173.906 80.3187C173.631 80.3187 171.648 78.5116 169.5 76.3028C167.352 74.094 165.819 72.2869 166.094 72.2869C166.369 72.2869 168.352 74.094 170.5 76.3028ZM114 77.8088C111.571 80.2936 109.359 82.3267 109.084 82.3267C108.809 82.3267 110.571 80.2936 113 77.8088C115.429 75.3239 117.641 73.2908 117.916 73.2908C118.191 73.2908 116.429 75.3239 114 77.8088ZM176 81.6078C176 81.7645 173.412 84.3628 170.25 87.3807L164.5 92.8685L169.966 87.0956C175.044 81.7323 176 80.8629 176 81.6078ZM98 92.8685C95.571 95.3534 93.359 97.3865 93.084 97.3865C92.809 97.3865 94.571 95.3534 97 92.8685C99.429 90.3837 101.641 88.3506 101.916 88.3506C102.191 88.3506 100.429 90.3837 98 92.8685ZM162 94.6546C162 94.8082 158.963 97.8583 155.25 101.432L148.5 107.928L154.971 101.151C160.982 94.8564 162 93.9157 162 94.6546ZM80.985 108.947L76.553 113.481L86.027 122.354C91.237 127.234 106.075 141.199 119 153.389L142.5 175.551L148 170.353L153.5 165.155L148.283 170.677L143.066 176.199L142.783 188.184L142.5 200.168L109.25 168.788L76 137.406V125.216V113.025L80.208 108.719C82.523 106.352 84.641 104.414 84.916 104.414C85.191 104.414 83.422 106.454 80.985 108.947ZM146 109.814C146 110.022 145.213 110.813 144.25 111.571C142.664 112.819 142.629 112.784 143.872 111.191C145.179 109.519 146 108.987 146 109.814ZM155.5 124.494C159.874 128.912 163.228 132.526 162.953 132.526C162.678 132.526 158.874 128.912 154.5 124.494C150.126 120.076 146.772 116.462 147.047 116.462C147.322 116.462 151.126 120.076 155.5 124.494ZM174.012 146.83L171.574 149.092L173.452 146.823C175.3 144.587 175.293 144.51 172.943 141.803L170.556 139.052L173.503 141.81L176.449 144.569L174.012 146.83ZM169 150.878C169 151.031 165.963 154.081 162.25 157.655L155.5 164.151L161.971 157.375C167.982 151.08 169 150.139 169 150.878Z" fill="#AB87FF"/>
<path fill-rule="evenodd" clip-rule="evenodd" d="M106.5 0.628502C96.69 2.5682 93.089 3.45372 86.558 5.53498C47.054 18.1229 15.56 51.7463 4.286 93.3705C0.840006 106.096 -0.138994 135.102 2.416 148.793C7.589 176.512 22.675 203.12 43.115 220.577C61.35 236.15 83.543 246.725 104.995 250.061C117.084 251.942 147.682 250.752 157 248.04C169.091 244.521 172.924 243.085 181.177 238.98C214.442 222.438 237.941 193.706 247.714 157.626C251.16 144.9 252.139 115.894 249.584 102.203C244.411 74.4836 229.325 47.876 208.885 30.4187C191.021 15.1622 168.726 4.41353 148 1.06524C141.915 0.0823349 110.913 -0.24396 106.5 0.628502ZM152 58.7331C155.543 62.3223 158.217 65.259 157.942 65.259C157.667 65.259 154.543 62.3223 151 58.7331C147.457 55.1438 144.783 52.2072 145.058 52.2072C145.333 52.2072 148.457 55.1438 152 58.7331ZM139 53.4913C139 53.6449 135.963 56.695 132.25 60.2682L125.5 66.7649L131.971 59.9881C137.982 53.6931 139 52.7523 139 53.4913ZM168 73.7928C171.543 77.3821 174.217 80.3187 173.942 80.3187C173.667 80.3187 170.543 77.3821 167 73.7928C163.457 70.2036 160.783 67.2669 161.058 67.2669C161.333 67.2669 164.457 70.2036 168 73.7928ZM123 68.549C123 68.7016 119.737 71.9776 115.75 75.8279L108.5 82.8287L115.473 75.5498C121.95 68.789 123 67.8121 123 68.549ZM166.041 115.458L155.955 124.996L159.727 128.992C161.802 131.19 158.942 128.705 153.371 123.47C147.801 118.235 143.301 113.473 143.371 112.887C143.442 112.302 150.7 105.018 159.5 96.7007L175.5 81.5787L175.814 93.75L176.127 105.92L166.041 115.458ZM106 84.6148C106 84.7684 102.963 87.8185 99.25 91.3917L92.5 97.8885L98.971 91.1116C104.982 84.8166 106 83.8758 106 84.6148ZM83.492 106.43L76.537 113.466L86.019 122.347C91.233 127.23 106.073 141.179 118.996 153.345L142.491 175.462L153.3 165.289C159.245 159.694 166.672 152.778 169.805 149.921L175.5 144.725L170.5 139.379L165.5 134.032L170.75 139.014L176 143.996L175.981 156.583L175.961 169.171L159.315 184.733C150.159 193.292 142.551 200.295 142.408 200.295C142.265 200.295 127.265 186.3 109.074 169.195L76 138.096V125.547V112.998L82.723 106.196C86.421 102.456 89.671 99.3944 89.946 99.3944C90.221 99.3944 87.317 102.561 83.492 106.43Z" fill="#8E63FE"/>
<path fill-rule="evenodd" clip-rule="evenodd" d="M106.5 0.628502C96.69 2.5682 93.089 3.45372 86.558 5.53498C47.054 18.1229 15.56 51.7463 4.286 93.3705C0.840006 106.096 -0.138994 135.102 2.416 148.793C7.589 176.512 22.675 203.12 43.115 220.577C61.35 236.15 83.543 246.725 104.995 250.061C117.084 251.942 147.682 250.752 157 248.04C169.091 244.521 172.924 243.085 181.177 238.98C214.442 222.438 237.941 193.706 247.714 157.626C251.16 144.9 252.139 115.894 249.584 102.203C244.411 74.4836 229.325 47.876 208.885 30.4187C191.021 15.1622 168.726 4.41353 148 1.06524C141.915 0.0823349 110.913 -0.24396 106.5 0.628502ZM159.858 65.761L175.968 80.8207L176.008 93.8725L176.049 106.924L166.321 116.053L156.593 125.181L166.297 134.494L176 143.807L175.921 156.991L175.841 170.175L159.44 185.557C148.522 195.796 142.614 200.678 141.769 200.16C141.071 199.732 125.975 185.653 108.222 168.874L75.945 138.367L76.222 125.055L76.5 111.742L109 80.9994C126.875 64.0903 142.006 50.3558 142.624 50.4783C143.242 50.6008 150.997 57.4781 159.858 65.761ZM109.5 81.7203C91.9 98.4386 77.5 112.613 77.5 113.219C77.5 113.826 92.124 128.077 109.999 144.889L142.497 175.457L153.303 165.286C159.247 159.693 166.672 152.758 169.805 149.877L175.5 144.637L168.5 137.873C146.402 116.52 142.966 113.065 143.22 112.455C143.374 112.086 150.588 105.106 159.25 96.9447C167.912 88.7833 174.955 81.8167 174.9 81.4633C174.732 80.387 143.285 51.1992 142.362 51.2624C141.888 51.2956 127.1 65.0009 109.5 81.7203Z" fill="#5555FF"/>
<path fill-rule="evenodd" clip-rule="evenodd" d="M106.5 0.628491C96.69 2.56819 93.089 3.45371 86.558 5.53497C44.037 19.0837 11.055 56.8476 2.491 101.79C0.503997 112.212 0.503997 138.784 2.491 149.206C11.19 194.856 43.77 231.669 88.037 245.871C102.195 250.413 110.001 251.294 130.995 250.725C145.972 250.319 150.93 249.807 157 248.04C169.091 244.521 172.924 243.085 181.177 238.98C217.245 221.044 242.023 188.491 249.509 149.206C251.496 138.784 251.496 112.212 249.509 101.79C240.81 56.1388 208.194 19.2875 163.963 5.13237C158.758 3.46776 151.575 1.63449 148 1.06021C141.909 0.0813198 110.9 -0.241963 106.5 0.628491ZM159.858 65.761L175.968 80.8207L176.008 93.8725L176.049 106.924L166.321 116.053L156.593 125.181L166.297 134.494L176 143.807L175.921 156.991L175.841 170.175L159.44 185.557C148.522 195.796 142.614 200.678 141.769 200.16C141.071 199.732 125.975 185.653 108.222 168.874L75.945 138.367L76.222 125.055L76.5 111.742L109 80.9994C126.875 64.0903 142.006 50.3558 142.624 50.4783C143.242 50.6008 150.997 57.4781 159.858 65.761ZM109.5 81.7203C91.9 98.4386 77.5 112.613 77.5 113.219C77.5 113.826 92.124 128.077 109.999 144.889L142.497 175.457L153.303 165.286C159.247 159.693 166.672 152.758 169.805 149.877L175.5 144.637L168.5 137.873C146.402 116.52 142.966 113.065 143.22 112.455C143.374 112.086 150.588 105.106 159.25 96.9447C167.912 88.7833 174.955 81.8167 174.9 81.4633C174.732 80.387 143.285 51.1992 142.362 51.2624C141.888 51.2956 127.1 65.0009 109.5 81.7203Z" fill="#713FFE"/>
<path fill-rule="evenodd" clip-rule="evenodd" d="M36.437 36.3944L33.5 39.6574L36.75 36.7087C38.538 35.0872 40 33.6184 40 33.4457C40 32.6696 39.175 33.3534 36.437 36.3944ZM212 33.4457C212 33.6184 213.463 35.0872 215.25 36.7087L218.5 39.6574L215.563 36.3944C212.825 33.3534 212 32.6696 212 33.4457ZM109.5 81.7203C91.9 98.4386 77.5 112.613 77.5 113.219C77.5 113.826 92.124 128.077 109.999 144.889L142.497 175.457L153.303 165.286C159.247 159.693 166.672 152.758 169.805 149.877L175.5 144.637L168.5 137.873C146.402 116.52 142.966 113.065 143.22 112.455C143.374 112.086 150.588 105.106 159.25 96.9447C167.912 88.7833 174.955 81.8167 174.9 81.4633C174.732 80.387 143.285 51.1992 142.362 51.2624C141.888 51.2956 127.1 65.0009 109.5 81.7203ZM34 212.155C34 212.328 35.462 213.796 37.25 215.418L40.5 218.367L37.563 215.104C34.825 212.063 34 211.379 34 212.155ZM214.437 215.104L211.5 218.367L214.75 215.418C217.779 212.669 218.46 211.841 217.687 211.841C217.515 211.841 216.052 213.309 214.437 215.104Z" fill="#0000FF"/>
<path fill-rule="evenodd" clip-rule="evenodd" d="M109.5 81.7203C91.9 98.4386 77.5 112.613 77.5 113.219C77.5 113.826 92.124 128.077 109.999 144.889L142.497 175.457L153.303 165.286C159.247 159.693 166.672 152.758 169.805 149.877L175.5 144.637L168.5 137.873C146.402 116.52 142.966 113.065 143.22 112.455C143.374 112.086 150.588 105.106 159.25 96.9447C167.912 88.7833 174.955 81.8167 174.9 81.4633C174.732 80.387 143.285 51.1992 142.362 51.2624C141.888 51.2955 127.1 65.0009 109.5 81.7203Z" fill="white"/>
</g>
<defs>
<clipPath id="clip0_1_2">
<rect width="252" height="252" rx="126" fill="white"/>
</clipPath>
</defs>
</svg>
