<svg width="31" height="63" viewBox="0 0 64 63" fill="none" xmlns="http://www.w3.org/2000/svg">
<path fill-rule="evenodd" clip-rule="evenodd" d="M0 31.5V63H32H64V31.5V0H32H0V31.5Z" fill="#3C525D"/>
<path fill-rule="evenodd" clip-rule="evenodd" d="M0 31.5V63H32H64V31.5V0H32H0V31.5ZM23.675 8.658C23.313 9.02 23.576 10.032 24.259 10.908C25.357 12.317 25.298 12.342 23.75 11.128C21.745 9.555 21.455 8 23.167 8C23.808 8 24.037 8.296 23.675 8.658ZM35.992 9.974C37.262 10.777 37.277 11.108 36.095 12.208C35.212 13.03 34.95 13.068 35.374 12.311C35.742 11.658 35.245 10.659 34.271 10.092C33.297 9.525 32.95 9.054 33.5 9.046C34.05 9.037 35.171 9.455 35.992 9.974ZM50.667 26.411C51.161 26.95 50.921 26.985 50.079 26.496C49.216 25.994 49.412 26.676 50.579 28.232C51.636 29.641 52.837 30.589 53.25 30.338C53.976 29.896 54.406 32.196 54.075 34.75C53.985 35.438 54.273 36 54.713 36C55.154 36 55.353 38.025 55.157 40.5C54.813 44.817 53.816 46.129 52.498 43.997C52.088 43.333 51.206 43.355 49.886 44.061C48.73 44.679 43.127 45.032 36.537 44.9L25.179 44.673L24.8 40.703C24.54 37.976 24.972 36.034 26.178 34.501C27.144 33.273 27.724 31.983 27.467 31.634C27.21 31.285 27.262 31.187 27.581 31.415C27.901 31.643 29.764 30.743 31.721 29.415C33.678 28.087 35.891 27 36.64 27C37.388 27 38.001 26.663 38.003 26.25C38.007 25.174 49.67 25.322 50.667 26.411ZM32.362 32.5C31.411 34.977 32.782 37 35.41 37C38.358 37 39.358 35.702 38.497 32.991C37.741 30.608 33.226 30.246 32.362 32.5ZM23.116 52.885C24.555 54.012 26.017 54.649 26.366 54.301C26.715 53.952 27 54.267 27 55C27 55.733 27.279 56.055 27.619 55.714C27.96 55.374 28.924 55.781 29.763 56.62C30.731 57.588 32.179 57.921 33.728 57.532C35.257 57.148 35.934 57.298 35.541 57.934C34.811 59.114 27.013 58.892 27.005 57.691C27.002 57.246 26.48 57.203 25.845 57.595C25.13 58.038 24.962 57.87 25.405 57.155C26.042 56.124 24.847 55.551 22.75 55.882C22.338 55.947 22.113 55.437 22.25 54.75C22.388 54.063 21.904 53.624 21.176 53.775C20.447 53.926 20.117 53.619 20.442 53.094C20.767 52.568 20.575 51.856 20.016 51.51C19.457 51.165 19.032 50.121 19.07 49.191C19.135 47.625 19.191 47.623 19.82 49.167C20.194 50.085 21.677 51.757 23.116 52.885ZM19 53C19 53.55 18.523 54 17.941 54C17.359 54 17.16 53.55 17.5 53C17.84 52.45 18.316 52 18.559 52C18.802 52 19 52.45 19 53ZM51 56.5C47.972 58.231 47 58.338 47 56.941C47 56.359 47.359 56.104 47.798 56.375C48.237 56.646 49.249 56.455 50.048 55.949C50.846 55.444 51.95 55.04 52.5 55.051C53.05 55.062 52.375 55.714 51 56.5ZM45.5 58C45.84 58.55 45.416 59 44.559 59C43.702 59 43 58.55 43 58C43 57.45 43.423 57 43.941 57C44.459 57 45.16 57.45 45.5 58ZM41 60C41 60.55 40.127 61 39.059 61C37.991 61 36.84 60.55 36.5 60C36.149 59.433 36.99 59 38.441 59C39.848 59 41 59.45 41 60Z" fill="#253D49"/>
<path fill-rule="evenodd" clip-rule="evenodd" d="M0 31.5V63H32H64V31.5V0H32H0V31.5ZM24.305 10.057C24.746 11.745 24.588 11.903 23.421 10.935C21.83 9.614 21.535 8 22.883 8C23.369 8 24.009 8.926 24.305 10.057ZM35.992 9.974C36.935 10.57 37.119 11.214 36.492 11.725C35.946 12.17 35.606 12.345 35.734 12.116C35.863 11.886 35.188 11.105 34.234 10.381C32.258 8.88 33.724 8.54 35.992 9.974ZM52.419 28.75C56.395 34.84 57.086 41.536 54.577 49.654C52.675 55.808 52.067 56.694 48.554 58.417C44.109 60.598 35.798 60.911 29.4 59.139C24.499 57.782 19 52.841 19 49.795C19 47.729 19.18 47.779 22.25 50.692C26.339 54.572 30.318 56.567 35.779 57.475C40.843 58.316 49.329 56.528 51.2 54.225C52.335 52.829 52.246 52.738 50.5 53.512C46.396 55.332 35.692 55.222 30.534 53.307C24.951 51.234 24.26 49.906 24.1 40.94C24.01 35.954 24.335 35.035 27.25 32.039C31.793 27.369 37.411 25.048 44.236 25.022C49.771 25.001 50.057 25.131 52.419 28.75ZM32.362 32.5C31.411 34.977 32.782 37 35.41 37C38.358 37 39.358 35.702 38.497 32.991C37.741 30.608 33.226 30.246 32.362 32.5ZM19 53C19 53.55 18.523 54 17.941 54C17.359 54 17.16 53.55 17.5 53C17.84 52.45 18.316 52 18.559 52C18.802 52 19 52.45 19 53Z" fill="#DFEDED"/>
<path fill-rule="evenodd" clip-rule="evenodd" d="M0 31.5V63H32H64V31.5V0H32H0V31.5ZM26.25 2.662C25.563 2.94 24.438 2.94 23.75 2.662C23.063 2.385 23.625 2.158 25 2.158C26.375 2.158 26.938 2.385 26.25 2.662ZM19.5 5C19.16 5.55 19.61 6 20.5 6C21.39 6 21.858 5.58 21.541 5.066C20.777 3.829 27.15 3.986 28.737 5.244C29.418 5.783 30.67 5.957 31.519 5.631C32.543 5.238 33.369 5.84 33.967 7.414C34.464 8.721 35.462 10.006 36.185 10.27C37.234 10.653 37.2 11.028 36.017 12.125C35.201 12.881 34.826 13.125 35.183 12.667C36.058 11.545 32.187 7.766 30.947 8.533C30.408 8.866 30.228 9.56 30.547 10.076C30.866 10.592 30.423 11.284 29.563 11.614C28.704 11.944 28 13.066 28 14.107C28 15.148 27.305 16 26.456 16C24.514 16 24.937 19.245 27 20.18C28.069 20.664 27.837 20.88 26.191 20.93C24.711 20.975 24.138 21.414 24.595 22.155C25.011 22.827 24.872 23.039 24.264 22.663C23.689 22.308 22.506 23.105 21.635 24.434C20.447 26.248 20.357 26.974 21.276 27.346C22.203 27.722 22.189 27.861 21.219 27.921C20.514 27.964 19.642 27.212 19.281 26.25C18.919 25.288 17.965 24.006 17.159 23.402C16.308 22.763 16.02 21.776 16.472 21.045C17.002 20.188 17.461 20.128 17.911 20.856C18.678 22.098 23 21.222 23 19.824C23 19.306 22.55 19.16 22 19.5C21.45 19.84 21 19.593 21 18.952C21 18.311 20.382 18.023 19.626 18.313C18.847 18.612 17.805 17.902 17.217 16.67C15.43 12.926 15.079 11.14 16.066 10.811C16.591 10.636 17.215 9.481 17.453 8.243C17.927 5.781 18.836 4 19.618 4C19.893 4 19.84 4.45 19.5 5ZM18.575 9.736C18.84 12.149 20.984 15.412 21.015 13.45C21.024 12.928 21.508 13.175 22.091 14C22.894 15.135 23.276 15.194 23.662 14.244C23.942 13.553 24.695 13.308 25.335 13.699C25.976 14.091 25.213 12.875 23.64 10.998C20.118 6.796 18.2 6.318 18.575 9.736ZM24 8.941C24 11.334 25.81 12.59 27.223 11.177C27.954 10.446 27.798 9.655 26.707 8.564C24.644 6.501 24 6.591 24 8.941ZM48.579 13.655C48.3 14.381 48.393 14.91 48.786 14.829C49.179 14.749 50.299 15.031 51.276 15.458C52.672 16.068 52.802 16.534 51.884 17.64C50.946 18.77 51.041 18.921 52.37 18.412C53.598 17.94 53.864 18.192 53.404 19.389C53.064 20.275 53.206 21 53.72 21C54.233 21 54.456 22.345 54.215 23.99C53.973 25.634 53.396 26.745 52.932 26.458C52.467 26.171 52.318 25.334 52.6 24.599C53.203 23.029 46.508 15.568 45.215 16.367C44.058 17.082 44.034 13.676 45.191 12.917C46.843 11.831 49.091 12.321 48.579 13.655ZM36.999 15.167C37 16.127 34.715 16.784 33.25 16.246C31.077 15.447 31.897 14.206 34.499 14.356C35.874 14.435 36.999 14.8 36.999 15.167ZM31.493 18.989C31.843 19.555 31.442 19.723 30.552 19.382C28.82 18.717 28.503 18 29.941 18C30.459 18 31.157 18.445 31.493 18.989ZM42.771 22.563C42.597 22.736 41.328 23.083 39.951 23.332C38.573 23.582 35.844 24.456 33.885 25.275C30.366 26.745 30.328 26.735 30.768 24.432C31.148 22.446 31.902 22.056 35.857 21.8C40.254 21.516 43.464 21.87 42.771 22.563ZM15.195 27.001C14.569 28.693 14.11 28.986 13.537 28.059C13.078 27.318 13.274 26.449 14 26C14.726 25.551 14.929 24.649 14.481 23.862C13.909 22.856 14.015 22.783 14.884 23.58C15.66 24.293 15.766 25.459 15.195 27.001ZM52.525 28.822C53.886 30.825 55 33.188 55 34.072C55 34.956 56.15 36.203 57.556 36.844C59.079 37.537 59.826 38.472 59.404 39.156C58.914 39.947 58.277 39.732 57.347 38.46C56.139 36.808 56.015 37.028 56.155 40.583C56.304 44.404 53.649 54.338 51.876 56.592C51.404 57.193 51.257 57.924 51.55 58.217C51.843 58.51 50.888 58.75 49.428 58.75C47.967 58.75 46.486 59.144 46.136 59.625C45.363 60.689 31 60.808 31 59.75C31 59.337 30.2 59 29.223 59C28.245 59 26.332 58.221 24.973 57.268C23.613 56.316 22.275 55.703 22 55.906C21.241 56.467 19.031 51.765 19.015 49.554C19.002 47.863 19.426 48.012 22.25 50.692C26.339 54.572 30.318 56.567 35.779 57.475C40.843 58.316 49.329 56.528 51.2 54.225C52.335 52.829 52.246 52.738 50.5 53.512C49.4 54 45.572 54.567 41.993 54.772C33.705 55.247 25.665 52.593 25.18 49.223C25.005 48 24.555 47.001 24.18 47.001C22.776 47.004 24.207 35.479 25.844 33.604C27.422 31.799 27.398 31.763 25.339 32.842C24.151 33.465 22.582 35.323 21.852 36.971C20.063 41.015 17.744 41.914 18.626 38.223C18.984 36.726 19.76 34.6 20.351 33.5C20.942 32.4 21.352 31.229 21.262 30.898C21.172 30.567 22.149 30.497 23.432 30.742C24.716 30.988 26.07 30.696 26.442 30.094C26.814 29.492 27.568 29 28.118 29C28.668 29 28.835 29.458 28.489 30.017C28.144 30.576 29.53 29.901 31.57 28.517C33.61 27.133 35.891 26 36.64 26C37.388 26 37.999 25.663 37.998 25.25C37.997 24.837 40.709 24.653 44.023 24.84C49.683 25.159 50.201 25.402 52.525 28.822ZM16.403 33.064C15.072 33.936 14.325 35.026 14.742 35.486C15.159 35.945 14.919 35.986 14.209 35.576C12.824 34.777 13.437 31.518 15.36 29.46C16.217 28.542 16.746 28.637 17.648 29.872C18.609 31.185 18.383 31.765 16.403 33.064ZM32.362 32.5C31.411 34.977 32.782 37 35.41 37C38.358 37 39.358 35.702 38.497 32.991C37.741 30.608 33.226 30.246 32.362 32.5ZM10.683 36.188C10.364 36.985 10.127 36.748 10.079 35.583C10.036 34.529 10.272 33.939 10.604 34.271C10.936 34.603 10.972 35.466 10.683 36.188ZM16 39.57C16 39.845 15.1 39.589 14 39C12.9 38.411 12 37.705 12 37.43C12 37.155 12.9 37.411 14 38C15.1 38.589 16 39.295 16 39.57ZM10.667 41.456C10.667 42.257 10.292 42.68 9.833 42.397C8.753 41.73 8.753 40 9.833 40C10.292 40 10.667 40.655 10.667 41.456ZM16.315 43.331C16.212 43.679 16.519 45.321 16.995 46.982C17.542 48.889 17.496 50 16.871 50C16.327 50 16.143 50.422 16.461 50.937C17 51.809 13.208 51.543 10.25 50.502C8.787 49.988 8.546 47 9.969 47C10.501 47 10.676 46.32 10.357 45.489C9.942 44.407 10.236 44.153 11.389 44.596C12.275 44.936 13.007 45.728 13.015 46.357C13.024 46.986 13.465 46.825 13.997 46C14.688 44.927 14.476 44.136 13.251 43.221C11.723 42.08 11.805 41.983 14.019 42.321C15.384 42.529 16.417 42.984 16.315 43.331ZM18.183 54.217C17.466 54.934 17 54.993 17 54.367C17 53.032 18.183 51.849 18.85 52.517C19.134 52.801 18.834 53.566 18.183 54.217Z" fill="#CED8D9"/>
<path fill-rule="evenodd" clip-rule="evenodd" d="M0 31.5V63H32H64V31.5V0H32H0V31.5ZM17 4.57C17 4.845 16.1 4.589 15 4C13.516 3.206 13 3.24 13 4.131C13 4.793 12.73 5.063 12.4 4.733C12.07 4.403 12.097 3.652 12.461 3.064C13.097 2.035 17 3.33 17 4.57ZM26.25 2.662C25.563 2.94 24.438 2.94 23.75 2.662C23.063 2.385 23.625 2.158 25 2.158C26.375 2.158 26.938 2.385 26.25 2.662ZM29.46 5.065C29.147 5.572 30.04 5.892 31.445 5.775C32.85 5.659 34 5.212 34 4.782C34 4.352 34.439 4 34.975 4C35.606 4 35.61 4.896 34.986 6.536C34.173 8.675 34.348 9.193 36.099 9.841C38.097 10.58 38.106 10.663 36.338 12.022C35.327 12.798 34.8 13.074 35.167 12.634C36.069 11.55 32.181 7.77 30.947 8.533C30.408 8.866 30.228 9.56 30.547 10.076C30.866 10.592 30.423 11.284 29.563 11.614C28.704 11.944 28 12.976 28 13.907C28 14.838 27.438 16.206 26.75 16.947C25.736 18.04 25.783 18.158 27 17.573C27.825 17.176 27.626 17.56 26.559 18.426C25.044 19.654 24.953 20 26.142 20C26.981 20 27.667 20.69 27.667 21.533C27.667 22.589 27.344 22.744 26.633 22.033C25.23 20.63 23.709 20.721 24.595 22.155C25.011 22.827 24.872 23.039 24.264 22.663C23.689 22.308 22.484 23.138 21.586 24.509C20.688 25.879 20.414 27 20.977 27C21.54 27 22 27.505 22 28.122C22 28.898 21.536 28.86 20.5 28C19.675 27.315 19 26.183 19 25.485C19 24.786 18.275 23.936 17.389 23.596C16.259 23.162 15.943 23.409 16.332 24.424C16.638 25.22 16.37 26.043 15.736 26.255C15.019 26.494 15.417 27.532 16.793 29.008C18.996 31.373 19.669 33.142 18.25 32.841C17.837 32.754 16.701 33.031 15.724 33.458C14.266 34.095 14.168 34.525 15.176 35.867C16.206 37.237 16.179 37.3 15.01 36.258C13.487 34.902 12.898 26 14.331 26C14.816 26 14.966 25.354 14.663 24.565C14.36 23.775 14.65 22.948 15.306 22.727C16.184 22.432 16.115 21.819 15.048 20.413C14.125 19.197 14.079 18.927 14.92 19.672C15.648 20.316 16.938 20.577 17.786 20.252C18.798 19.863 19.08 20.062 18.605 20.83C17.59 22.473 19.248 22.286 21.559 20.498C23.441 19.041 23.442 19.016 21.586 19.667C20.148 20.173 19.878 20.006 20.5 19C21.092 18.043 20.889 17.829 19.79 18.25C18.266 18.835 17.628 17.945 15.162 11.786C14.371 9.81 14.379 8.884 15.192 8.381C15.845 7.978 16.03 8.142 15.638 8.776C15.269 9.373 15.425 10.144 15.984 10.49C16.543 10.835 17 10.641 17 10.059C17 5.343 18.523 4.143 24.512 4.143C27.624 4.143 29.781 4.545 29.46 5.065ZM19.813 5.683C20.534 5.972 21.397 5.936 21.729 5.604C22.061 5.272 21.471 5.036 20.417 5.079C19.252 5.127 19.015 5.364 19.813 5.683ZM18.379 8.857C18.446 9.761 19.175 11.096 20 11.824C21.333 13.001 21.333 13.067 20 12.414C19.175 12.01 18.835 12.049 19.244 12.501C19.654 12.952 21.304 13.362 22.911 13.411C24.519 13.46 25.653 13.319 25.432 13.099C25.212 12.878 25.786 12.146 26.709 11.471C28.256 10.339 28.261 10.118 26.765 8.622C24.426 6.283 23.694 6.616 24.292 9.746L24.817 12.492L22.834 10.044C20.491 7.149 18.208 6.542 18.379 8.857ZM48.373 12.172C48.853 12.032 48.981 12.606 48.659 13.447C48.336 14.288 48.393 14.91 48.786 14.829C49.179 14.749 50.299 15.031 51.276 15.458C52.672 16.068 52.802 16.534 51.884 17.64C50.946 18.77 51.041 18.921 52.37 18.412C53.643 17.923 53.866 18.185 53.341 19.553C52.835 20.872 53.004 21.116 54 20.5C54.992 19.887 55.166 20.126 54.67 21.418C54.301 22.378 54 24.053 54 25.141C54 26.228 53.57 26.852 53.044 26.527C52.518 26.202 52.323 25.321 52.612 24.569C53.386 22.551 51.173 21.626 49.206 23.147C47.684 24.323 47.69 24.242 49.258 22.395C50.936 20.42 50.936 20.258 49.258 18.868C44.145 14.631 44.1 14.624 44.519 18.181C44.89 21.322 44.843 21.378 43.653 19.219C42.962 17.964 42.006 17.289 41.53 17.719C41.053 18.148 41.526 17.277 42.582 15.781C43.637 14.286 44.924 13.049 45.441 13.031C45.959 13.014 45.509 12.3 44.441 11.445C42.62 9.986 42.655 9.968 45 11.157C46.375 11.854 47.893 12.311 48.373 12.172ZM38.683 14.188C38.364 14.985 38.127 14.748 38.079 13.583C38.036 12.529 38.272 11.939 38.604 12.271C38.936 12.603 38.972 13.466 38.683 14.188ZM41.683 14.188C41.364 14.985 41.127 14.748 41.079 13.583C41.036 12.529 41.272 11.939 41.604 12.271C41.936 12.603 41.972 13.466 41.683 14.188ZM37 15.135C37 16.122 34.736 16.792 33.25 16.246C31.04 15.433 31.918 14.016 34.5 14.229C35.875 14.343 37 14.751 37 15.135ZM31.493 18.989C31.843 19.555 31.442 19.723 30.552 19.382C28.82 18.717 28.503 18 29.941 18C30.459 18 31.157 18.445 31.493 18.989ZM35 19.5C35.718 20.365 35.815 21 35.229 21C34.671 21 33.955 20.325 33.638 19.5C33.322 18.675 33.219 18 33.409 18C33.599 18 34.315 18.675 35 19.5ZM48.447 20.085C48.125 20.606 47.436 20.769 46.915 20.447C46.394 20.125 46.231 19.436 46.553 18.915C46.875 18.394 47.564 18.231 48.085 18.553C48.606 18.875 48.769 19.564 48.447 20.085ZM41.729 19.604C41.397 19.936 40.534 19.972 39.813 19.683C39.015 19.364 39.252 19.127 40.417 19.079C41.471 19.036 42.061 19.272 41.729 19.604ZM42.745 22.411C43.068 22.735 42.583 23 41.667 23C40.75 23 40 23.454 40 24.008C40 25.295 49.081 25.051 50.773 23.719C51.721 22.973 51.888 23.129 51.426 24.333C51.085 25.222 51.749 27.476 52.903 29.343C54.056 31.209 55 33.398 55 34.208C55 35.017 56.15 36.203 57.556 36.844C58.962 37.484 59.822 38.478 59.467 39.053C59.034 39.754 58.323 39.683 57.301 38.834C55.975 37.735 55.842 38.037 56.265 41.181C56.533 43.165 57.066 45.298 57.45 45.919C57.853 46.571 57.588 46.933 56.824 46.775C56.089 46.622 55.562 47.278 55.639 48.25C55.715 49.212 55.351 50 54.83 50C54.309 50 54.141 50.419 54.457 50.931C54.774 51.443 54.575 52.144 54.016 52.49C53.457 52.835 53 53.991 53 55.059C53 56.127 52.523 57 51.941 57C51.359 57 51.207 57.526 51.605 58.17C52.091 58.957 51.783 59.131 50.664 58.701C49.749 58.35 49 58.485 49 59C49 59.515 48.325 59.678 47.5 59.362C46.675 59.045 46 59.172 46 59.643C46 60.114 42.625 60.5 38.5 60.5C34.375 60.5 31 60.125 31 59.667C31 59.208 30.438 59.032 29.75 59.274C29.063 59.516 27.375 58.928 26 57.967C24.625 57.006 23.05 56.232 22.5 56.248C20.125 56.314 17.987 48.744 20.025 47.485C20.588 47.136 20.926 47.447 20.775 48.176C20.624 48.904 21.096 49.376 21.824 49.225C22.553 49.074 22.901 49.351 22.598 49.842C21.129 52.218 30.056 56.828 37.164 57.365C41.592 57.7 41.904 57.628 39 56.944C36.162 56.276 36.588 56.189 41.25 56.488C44.413 56.69 47 56.438 47 55.928C47 55.417 44.357 55 41.126 55C37.895 55 33.436 54.359 31.216 53.576C28.997 52.793 26.918 52.415 26.597 52.736C26.276 53.057 25.731 51.905 25.385 50.176C25.039 48.447 24.404 47.25 23.973 47.517C23.542 47.783 23.44 45.241 23.746 41.867C24.198 36.876 24.041 35.824 22.901 36.224C22.13 36.494 21.529 37.342 21.564 38.108C21.6 38.873 20.75 40.349 19.677 41.387C17.751 43.25 17.735 43.225 18.472 39.387C18.882 37.249 19.32 34.849 19.446 34.054C19.572 33.259 20.201 32.433 20.844 32.219C21.486 32.005 21.798 31.483 21.536 31.059C21.275 30.635 22.119 30.491 23.413 30.739C24.707 30.986 26.07 30.696 26.442 30.094C26.814 29.492 27.568 29 28.118 29C28.668 29 28.78 29.563 28.367 30.25C27.823 31.156 28.065 31.136 29.249 30.177C30.312 29.315 30.81 27.569 30.675 25.177L30.469 21.5L36.312 21.661C39.526 21.75 42.421 22.088 42.745 22.411ZM56.683 23.188C56.364 23.985 56.127 23.748 56.079 22.583C56.036 21.529 56.272 20.939 56.604 21.271C56.936 21.603 56.972 22.466 56.683 23.188ZM37.25 23.662C35.82 24.239 35.551 26 36.893 26C37.384 26 38.045 25.325 38.362 24.5C38.678 23.675 38.839 23.036 38.719 23.079C38.598 23.122 37.938 23.385 37.25 23.662ZM32.143 25.89C31.197 26.49 31.122 26.957 31.893 27.434C32.502 27.81 33 27.615 33 27C33 26.385 33.45 26.16 34 26.5C34.55 26.84 35 26.641 35 26.059C35 24.786 33.981 24.726 32.143 25.89ZM32.362 32.5C31.411 34.977 32.782 37 35.41 37C38.358 37 39.358 35.702 38.497 32.991C37.741 30.608 33.226 30.246 32.362 32.5ZM24.441 33.468C23.374 34.276 23.007 34.951 23.628 34.968C24.248 34.986 25.315 34.325 26 33.5C27.581 31.595 26.935 31.582 24.441 33.468ZM36.5 34C36.16 34.55 35.459 35 34.941 35C34.423 35 34 34.55 34 34C34 33.45 34.702 33 35.559 33C36.416 33 36.84 33.45 36.5 34ZM10.683 36.188C10.364 36.985 10.127 36.748 10.079 35.583C10.036 34.529 10.272 33.939 10.604 34.271C10.936 34.603 10.972 35.466 10.683 36.188ZM59.729 34.604C59.397 34.936 58.534 34.972 57.813 34.683C57.015 34.364 57.252 34.127 58.417 34.079C59.471 34.036 60.061 34.272 59.729 34.604ZM16 39.57C16 39.845 15.1 39.589 14 39C12.9 38.411 12 37.705 12 37.43C12 37.155 12.9 37.411 14 38C15.1 38.589 16 39.295 16 39.57ZM9.324 39.859C10.327 40.255 11.227 40.99 11.324 41.493C11.57 42.769 15 42.9 15 41.633C15 39.05 16.803 42.889 17.374 46.69C17.805 49.553 17.608 51.127 16.752 51.662C14.915 52.809 12.902 52.967 13.554 51.912C13.864 51.41 13.668 51 13.118 51C12.568 51 11.822 51.479 11.46 52.065C11.028 52.764 10.159 52.549 8.933 51.439C7.491 50.134 7.297 49.314 8.082 47.846C8.642 46.8 9.477 46.177 9.937 46.461C11.396 47.363 10.568 43.576 8.901 41.723C7.873 40.582 6.653 40.196 5.487 40.643C4.236 41.123 3.897 40.976 4.395 40.17C5.198 38.87 6.592 38.783 9.324 39.859ZM22.683 44.188C22.364 44.985 22.127 44.748 22.079 43.583C22.036 42.529 22.272 41.939 22.604 42.271C22.936 42.603 22.972 43.466 22.683 44.188ZM11.625 43.814C11.397 44.191 11.762 45.01 12.437 45.633C13.363 46.488 13.923 46.353 14.714 45.087C15.55 43.748 15.385 43.379 13.901 43.267C12.877 43.19 11.853 43.436 11.625 43.814ZM8 49.544C8 49.66 8.6 50.253 9.333 50.862C10.33 51.689 10.667 51.635 10.667 50.651C10.667 49.926 10.067 49.333 9.333 49.333C8.6 49.333 8 49.428 8 49.544ZM18.541 53.933C18.179 54.52 16.896 54.993 15.691 54.985C13.59 54.971 13.602 54.917 16 53.653C18.745 52.207 19.553 52.296 18.541 53.933ZM49.029 53.961C48.22 54.473 47.893 55.226 48.303 55.636C48.712 56.046 49.808 55.62 50.738 54.69C52.545 52.883 51.464 52.421 49.029 53.961Z" fill="#ABB5B7"/>
<path fill-rule="evenodd" clip-rule="evenodd" d="M0 31.5V63H32H64V31.5V0H32H0V31.5ZM18.07 3.416C17.216 4.445 17.332 4.913 18.556 5.383C20.997 6.32 22.79 5.982 20.5 5.017C18.472 4.162 22.118 3.795 32.865 3.771C35.93 3.764 36.824 3.476 35.865 2.804C34.726 2.006 34.733 1.91 35.908 2.227C36.683 2.435 37.472 3.707 37.661 5.053C37.865 6.5 37.684 7.006 37.218 6.29C36.646 5.41 36.105 5.602 35.236 6.994C34.481 8.202 34.402 9.13 35.02 9.513C35.559 9.846 36.007 9.529 36.015 8.809C36.027 7.803 36.237 7.826 36.923 8.909C37.967 10.559 37.253 13 35.726 13C35.144 13 34.929 12.738 35.25 12.417C35.571 12.096 34.933 10.933 33.833 9.833C31.749 7.749 30.768 7.973 30.379 10.621C30.253 11.48 30.379 11.955 30.658 11.675C30.938 11.395 32.046 12.046 33.12 13.12C34.194 14.194 35.459 14.834 35.932 14.542C36.404 14.25 37.027 14.628 37.316 15.381C37.676 16.319 37.039 16.75 35.294 16.75C33.645 16.75 32.575 16.089 32.257 14.875C31.585 12.303 29.542 12.523 27.679 15.368L26.127 17.735L30.958 17.562C34.571 17.432 35.662 17.717 35.287 18.694C35.012 19.412 35.284 20 35.893 20C36.502 20 37 19.561 37 19.025C37 18.475 38.308 18.312 40 18.65C41.982 19.046 43 18.848 43 18.066C43 17.385 42.469 17.201 41.75 17.633C40.804 18.201 40.815 17.996 41.792 16.789C42.847 15.486 42.847 15.109 41.792 14.726C39.607 13.933 42.255 10.749 45.376 10.416C47.575 10.182 48.039 10.455 47.561 11.701C47.034 13.076 47.175 13.101 48.641 11.891C50.191 10.612 50.223 10.702 49.028 13C48.314 14.375 48.086 15.166 48.523 14.759C48.959 14.351 49.873 14.479 50.553 15.044C51.233 15.608 52.399 15.942 53.145 15.785C54.562 15.487 54.617 16.177 53.44 19.5L52.731 21.5L54.447 19.5L56.163 17.5L55.429 19.5C55.026 20.6 54.554 23.075 54.38 25L54.066 28.5L54.917 25.199C56.216 20.161 57 20.178 57 25.245C57 29.837 56.225 30.521 53.176 28.617C52.088 27.938 52.079 28.153 53.126 29.831C53.827 30.953 54.697 31.687 55.06 31.463C55.422 31.239 55.599 32.151 55.452 33.49C55.127 36.443 58.267 37.829 60.759 35.833C61.853 34.956 61.676 35.564 60.24 37.613C59.041 39.325 58.335 41.002 58.673 41.339C59.01 41.677 58.555 42.233 57.661 42.576C56.402 43.06 56.267 43.63 57.061 45.114C57.833 46.556 57.766 46.963 56.793 46.764C56.082 46.619 55.562 47.288 55.639 48.25C55.715 49.212 55.378 50 54.889 50C54.4 50 54.053 50.337 54.118 50.75C54.184 51.163 54.127 51.837 53.993 52.25C53.86 52.663 53.672 53.337 53.576 53.75C52.729 57.398 51.635 59.074 50.41 58.604C49.634 58.306 49 58.485 49 59C49 59.515 48.325 59.678 47.5 59.362C46.675 59.045 46 59.191 46 59.686C46 60.181 42.625 60.57 38.5 60.55C34.375 60.53 31 60.153 31 59.713C31 59.273 30.438 59.02 29.75 59.152C27.894 59.508 24 58.005 24 56.933C24 56.42 23.474 56.112 22.832 56.25C22.189 56.387 21.122 55.462 20.461 54.192C19.486 52.322 19.145 52.18 18.66 53.442C18.332 54.299 17.036 54.968 15.781 54.93C13.616 54.863 13.602 54.816 15.5 54C16.6 53.527 16.882 53.109 16.128 53.07C14.964 53.011 14.964 52.733 16.128 51.25C17.342 49.702 17.317 49.643 15.908 50.741C15.032 51.424 14.031 51.697 13.682 51.349C13.334 51 12.422 51.235 11.657 51.87C10.581 52.763 9.956 52.651 8.898 51.377C8.146 50.47 7.523 49.002 7.515 48.114C7.507 47.227 6.972 46.601 6.327 46.724C5.478 46.887 5.405 46.076 6.06 43.791C6.558 42.054 6.748 40.415 6.483 40.15C6.217 39.884 6 40.24 6 40.94C6 41.704 5.351 41.965 4.379 41.592C3.133 41.114 2.881 41.436 3.286 42.987C3.576 44.095 3.405 44.751 2.907 44.442C1.413 43.519 1.883 40 3.5 40C4.325 40 5 39.523 5 38.941C5 38.359 5.5 38.191 6.112 38.569C6.723 38.947 7.666 38.636 8.206 37.878C8.949 36.835 9.041 36.953 8.583 38.361C8.134 39.741 8.369 40.073 9.489 39.643C10.32 39.324 11 39.525 11 40.09C11 40.656 11.562 40.789 12.25 40.387C12.938 39.985 12.643 40.634 11.595 41.828C9.598 44.105 9.64 44.168 13.25 44.312C14.892 44.378 15.414 43.915 15.183 42.601C14.66 39.628 16.794 41.786 17.484 44.928C17.835 46.526 18.718 48.062 19.447 48.341C20.49 48.742 20.459 48.224 19.302 45.903C18.25 43.796 18.052 41.752 18.604 38.728C19.028 36.403 19.288 34.154 19.182 33.731C19.075 33.309 20.228 32.473 21.744 31.874C23.26 31.275 25.281 30.383 26.236 29.892C28.616 28.669 29.246 28.773 28.412 30.25C27.885 31.183 28.014 31.217 28.919 30.384C30.78 28.672 31.402 22.87 29.832 21.875C27.872 20.633 26.774 20.82 27.633 22.25C28.081 22.996 27.654 22.907 26.574 22.029C24.934 20.697 24.541 20.838 22.393 23.529C21.089 25.163 20.467 26.65 21.011 26.833C21.555 27.017 21.971 28.142 21.937 29.333C21.873 31.5 21.873 31.5 20.969 29.25C19.907 26.608 18.614 26.194 19.41 28.75C19.995 30.632 18.837 33.168 17.388 33.176C16.9 33.178 15.825 33.56 15 34.023C13.711 34.747 13.746 34.96 15.25 35.54C16.212 35.911 17 36.671 17 37.229C17 37.868 16.502 37.831 15.658 37.131C14.92 36.519 14.006 36.328 13.627 36.707C13.247 37.086 13.964 37.966 15.219 38.663C16.872 39.58 17.052 39.939 15.872 39.965C13.882 40.008 11.739 37.623 12.759 36.499C13.166 36.049 12.713 35.964 11.75 36.309C10.604 36.721 10 36.441 10 35.5C10 34.652 10.597 34.292 11.458 34.622C13.464 35.392 14.577 30.562 13.127 27.379C11.471 23.745 11.805 23.186 14.033 25.861C16.435 28.743 16.548 27.96 14.345 23.7C12.806 20.723 12.806 20.596 14.345 21.872C15.368 22.72 16 22.828 16 22.154C16 21.555 17.237 20.393 18.75 19.572C20.262 18.751 21.038 18.062 20.473 18.04C19.907 18.018 18.474 18.68 17.288 19.511C15.699 20.624 14.942 20.715 14.411 19.856C13.963 19.13 14.126 18.96 14.845 19.405C15.536 19.832 16 19.468 16 18.5C16 17.532 16.464 17.168 17.155 17.595C17.95 18.087 18.03 17.872 17.413 16.905C15.544 13.977 14.233 8.974 15.18 8.388C15.704 8.065 16.403 8.07 16.733 8.4C17.063 8.73 16.782 9 16.108 9C15.434 9 15.19 9.498 15.566 10.107C16.048 10.887 16.485 10.834 17.045 9.927C17.482 9.22 18.664 8.525 19.67 8.384C21.371 8.145 21.363 8.228 19.559 9.563C18.491 10.353 18.154 11 18.809 11C19.464 11 19.888 11.503 19.75 12.117C19.611 12.737 20.904 13.294 22.655 13.367C24.39 13.44 25.63 13.21 25.41 12.855C25.191 12.5 25.684 11.952 26.506 11.636C27.328 11.321 27.993 10.486 27.985 9.781C27.974 8.885 27.678 8.951 27 10C26.138 11.333 26.016 11.333 25.897 10C25.823 9.175 25.816 8.162 25.882 7.75C25.947 7.338 25.498 7 24.883 7C24.232 7 23.966 8.041 24.245 9.5C24.835 12.59 23.65 12.773 22.323 9.797C21.698 8.398 20.275 7.481 18.42 7.284C16.814 7.113 14.999 6.905 14.387 6.82C13.775 6.736 13.477 5.729 13.724 4.583C14.091 2.88 13.978 2.774 13.102 4C12.513 4.825 12.024 5.013 12.015 4.417C11.993 2.808 12.529 2.522 16.017 2.283C18.581 2.107 18.975 2.325 18.07 3.416ZM26.25 2.662C25.563 2.94 24.438 2.94 23.75 2.662C23.063 2.385 23.625 2.158 25 2.158C26.375 2.158 26.938 2.385 26.25 2.662ZM30 5.005C28.845 5.756 29.117 5.934 31.178 5.778C32.651 5.667 33.637 5.221 33.369 4.788C32.731 3.756 31.834 3.814 30 5.005ZM21.457 10.931C21.774 11.443 21.65 12.098 21.183 12.387C20.716 12.676 20.333 12.257 20.333 11.456C20.333 9.77 20.649 9.623 21.457 10.931ZM14.104 15.296C13.299 16.101 13.008 15.601 13.03 13.45C13.057 10.864 13.193 10.728 14.134 12.346C14.903 13.67 14.895 14.505 14.104 15.296ZM42.446 12.087C42.106 12.638 42.232 13.63 42.726 14.294C43.22 14.957 43.596 16.4 43.562 17.5C43.516 18.995 42.824 19.492 40.825 19.466C39.353 19.448 38.367 19.785 38.634 20.216C38.9 20.647 37.715 21 36 21C34.285 21 33.09 20.663 33.345 20.25C33.6 19.837 31.714 19.394 29.154 19.264L24.5 19.028L28.5 20.508C30.7 21.322 34.868 21.921 37.762 21.839C40.656 21.758 43.319 21.985 43.679 22.345C44.039 22.705 43.332 23 42.108 23C40.879 23 40.159 23.448 40.5 24C41.455 25.545 44.993 25.181 45.65 23.471C46.159 22.143 46.405 22.171 47.51 23.683C48.635 25.221 48.989 25.254 50.536 23.97C52.143 22.636 52.231 22.722 51.596 25.008C50.994 27.177 51.054 27.261 52.056 25.654C53.701 23.016 51.734 21.181 49.292 23.075C47.57 24.411 47.57 24.383 49.289 22.361C51.039 20.303 50.995 20.188 47.289 17.149C44.412 14.789 43.821 13.829 44.834 13.16C45.915 12.445 45.874 12.166 44.616 11.683C43.762 11.355 42.786 11.537 42.446 12.087ZM38.683 14.188C38.364 14.985 38.127 14.748 38.079 13.583C38.036 12.529 38.272 11.939 38.604 12.271C38.936 12.603 38.972 13.466 38.683 14.188ZM51.872 17.75C50.629 19.336 50.664 19.371 52.25 18.128C53.212 17.373 54 16.585 54 16.378C54 15.555 53.179 16.084 51.872 17.75ZM48.804 19.264C49.606 20.23 49.164 20.555 46.926 20.647C45.317 20.713 44 20.342 44 19.824C44 19.306 44.419 19.141 44.931 19.457C45.443 19.774 46.144 19.575 46.49 19.016C47.297 17.71 47.536 17.736 48.804 19.264ZM25.447 24.085C25.125 24.606 24.436 24.769 23.915 24.447C23.394 24.125 23.231 23.436 23.553 22.915C23.875 22.394 24.564 22.231 25.085 22.553C25.606 22.875 25.769 23.564 25.447 24.085ZM37.143 23.89C36.309 24.419 36.172 24.988 36.788 25.369C37.34 25.71 38.048 25.316 38.364 24.494C39.026 22.767 38.964 22.737 37.143 23.89ZM16.769 25.417C17.144 26.012 17.356 27.4 17.241 28.5L17.033 30.5L17.946 28.5C19.294 25.548 19.177 24.333 17.544 24.333C16.743 24.333 16.394 24.821 16.769 25.417ZM32.143 25.89C31.197 26.49 31.122 26.957 31.893 27.434C32.502 27.81 33 27.615 33 27C33 26.385 33.45 26.16 34 26.5C34.55 26.84 35 26.641 35 26.059C35 24.786 33.981 24.726 32.143 25.89ZM11.683 29.188C11.364 29.985 11.127 29.748 11.079 28.583C11.036 27.529 11.272 26.939 11.604 27.271C11.936 27.603 11.972 28.466 11.683 29.188ZM32.362 32.5C31.411 34.977 32.782 37 35.41 37C38.358 37 39.358 35.702 38.497 32.991C37.741 30.608 33.226 30.246 32.362 32.5ZM24.441 33.555C22.577 35.049 22.589 35.067 24.75 34.02C25.988 33.42 27 32.72 27 32.465C27 31.7 26.481 31.921 24.441 33.555ZM37 34C37 35.1 36.352 36 35.559 36C33.792 36 32.663 34.354 33.5 33C34.587 31.24 37 31.93 37 34ZM59.729 34.604C59.397 34.936 58.534 34.972 57.813 34.683C57.015 34.364 57.252 34.127 58.417 34.079C59.471 34.036 60.061 34.272 59.729 34.604ZM21.473 37.044C21.118 37.618 21.268 38.63 21.806 39.294C22.344 39.957 23.006 41.4 23.276 42.5C23.547 43.6 23.82 42.587 23.884 40.25C23.994 36.224 22.888 34.754 21.473 37.044ZM56 40.5C56 41.325 56.436 42 56.969 42C57.501 42 57.678 41.325 57.362 40.5C57.045 39.675 56.609 39 56.393 39C56.177 39 56 39.675 56 40.5ZM20.33 41.418C20.699 42.378 21.01 43.914 21.022 44.832C21.034 45.749 21.913 47.625 22.974 49C24.84 51.419 24.897 51.43 24.744 49.319C24.656 48.12 24.275 47.33 23.897 47.564C23.06 48.081 22 45.518 22 42.977C22 41.955 21.474 40.793 20.83 40.395C20.032 39.902 19.873 40.227 20.33 41.418ZM14.368 42.786C14.635 43.218 14.019 43.571 13 43.571C11.981 43.571 11.365 43.218 11.632 42.786C11.9 42.354 12.515 42 13 42C13.485 42 14.1 42.354 14.368 42.786ZM8 49.544C8 49.66 8.6 50.253 9.333 50.862C10.33 51.689 10.667 51.635 10.667 50.651C10.667 49.926 10.067 49.333 9.333 49.333C8.6 49.333 8 49.428 8 49.544ZM14 52.441C14 52.684 13.55 53.16 13 53.5C12.45 53.84 12 53.641 12 53.059C12 52.477 12.45 52 13 52C13.55 52 14 52.198 14 52.441ZM50 54.059C50 54.641 49.48 54.797 48.845 54.405C48.114 53.952 47.963 54.131 48.435 54.894C49.004 55.815 49.509 55.823 50.589 54.926C52.254 53.544 52.371 53 51 53C50.45 53 50 53.477 50 54.059ZM38.264 55.718C39.784 55.947 42.034 55.941 43.264 55.704C44.494 55.467 43.25 55.279 40.5 55.286C37.75 55.294 36.744 55.488 38.264 55.718ZM31.813 56.683C32.534 56.972 33.397 56.936 33.729 56.604C34.061 56.272 33.471 56.036 32.417 56.079C31.252 56.127 31.015 56.364 31.813 56.683ZM37.762 57.707C39.006 57.946 40.806 57.937 41.762 57.687C42.718 57.437 41.7 57.241 39.5 57.252C37.3 57.263 36.518 57.468 37.762 57.707Z" fill="#798B8D"/>
<path fill-rule="evenodd" clip-rule="evenodd" d="M0 31.5V63H32H64V31.5V0H32H0V31.5ZM37.51 6.154C37.515 7.994 37.878 10.496 38.315 11.712C39.164 14.071 37.658 18 35.906 18C35.343 18 35.203 17.48 35.595 16.845C36.028 16.146 35.871 15.962 35.198 16.378C34.587 16.755 34.345 17.736 34.66 18.558C35.045 19.561 35.614 19.735 36.392 19.09C37.029 18.561 38.759 17.967 40.237 17.769C41.715 17.571 43.239 17.094 43.624 16.709C44.009 16.324 45.938 17.167 47.912 18.581C51.367 21.058 51.352 21.02 47.5 17.574C44.192 14.615 43.759 13.826 45 13.013C46.265 12.184 46.208 12.028 44.633 12.015C43.257 12.004 42.904 12.525 43.289 13.999C43.992 16.685 42.32 17.583 41.489 14.967C40.657 12.345 42.573 10 45.546 10C48.589 10 53.931 14.59 55.636 18.671C57.798 23.845 57.201 32.86 54.795 31.374C54.192 31.001 54.219 31.541 54.865 32.748C55.451 33.842 55.608 35.119 55.215 35.586C54.822 36.052 55.266 35.849 56.202 35.134C58.529 33.358 62 34.615 62 37.234C62 38.389 61.721 39.055 61.381 38.714C61.04 38.374 60.104 38.753 59.3 39.557C58.496 40.361 57.356 40.72 56.765 40.355C56.123 39.958 55.982 40.162 56.415 40.862C56.813 41.506 57.67 41.714 58.319 41.324C59.003 40.914 58.927 41.323 58.138 42.295C57.389 43.219 57.035 44.65 57.352 45.475C57.687 46.347 57.42 46.876 56.714 46.738C56.046 46.607 55.632 47.288 55.794 48.25C55.955 49.213 55.693 50 55.211 50C54.728 50 54.333 50.626 54.333 51.391C54.333 54.332 51.698 59.098 50.357 58.584C49.611 58.297 49 58.547 49 59.138C49 59.73 48.325 59.955 47.5 59.638C46.675 59.322 46 59.45 46 59.924C46 60.398 42.625 60.769 38.5 60.75C34.375 60.73 31 60.302 31 59.798C31 59.294 30.565 59.151 30.034 59.479C28.731 60.284 20.785 56.157 21.478 55.035C21.78 54.547 20.434 54.345 18.488 54.586C14.087 55.132 9.883 53.048 6.882 48.835C5.631 47.077 5.14 45.968 5.792 46.371C6.557 46.844 6.783 46.597 6.428 45.673C6.126 44.886 5.119 44.3 4.19 44.371C3.02 44.46 2.5 43.731 2.5 42C2.5 40.533 3.017 39.603 3.75 39.75C4.437 39.887 4.887 39.464 4.75 38.809C4.349 36.902 7.979 36.671 9.975 38.477C11.261 39.641 12.009 39.795 12.502 38.997C12.887 38.374 13.832 38.105 14.601 38.4C15.371 38.696 16 38.554 16 38.085C16 37.617 15.099 36.998 13.999 36.71C12.898 36.422 12.23 36.563 12.515 37.024C12.8 37.485 12.622 38.115 12.121 38.425C11.62 38.735 10.937 38.279 10.605 37.412C9.617 34.839 9.908 33.751 11.427 34.334C12.597 34.783 12.671 34.355 11.838 31.966C11.067 29.754 11.225 27.839 12.491 24.026C13.41 21.262 14.607 19 15.152 19C15.697 19 15.436 18.293 14.571 17.429C12.823 15.681 12.541 12.274 13.958 10.034C14.559 9.084 14.465 8.047 13.693 7.092C12.725 5.894 12.782 5.76 14 6.382C14.825 6.804 14.667 6.47 13.65 5.641C10.24 2.862 12.722 2.19 25.248 2.503L37.5 2.809L37.51 6.154ZM18 5C18.825 5.533 20.175 5.945 21 5.914C21.989 5.878 21.819 5.567 20.5 5C17.751 3.819 16.172 3.819 18 5ZM29.813 5.683C30.534 5.972 31.397 5.936 31.729 5.604C32.061 5.272 31.471 5.036 30.417 5.079C29.252 5.127 29.015 5.364 29.813 5.683ZM34.872 7.75C33.629 9.336 33.664 9.371 35.25 8.128C36.212 7.373 37 6.585 37 6.378C37 5.555 36.179 6.084 34.872 7.75ZM17.097 8.303C16.494 8.906 16.014 9.873 16.03 10.45C16.047 11.027 16.504 10.74 17.046 9.81C17.637 8.798 18.881 8.285 20.151 8.529C21.317 8.754 21.972 8.638 21.606 8.273C20.473 7.14 18.246 7.154 17.097 8.303ZM30.485 9.025C30.136 9.588 30.222 9.926 30.676 9.775C31.129 9.624 31.613 9.838 31.75 10.25C32.338 12.015 31.903 13 30.535 13C29.73 13 28.589 13.9 28 15C27.274 16.356 27.263 17 27.965 17C28.534 17 29 16.325 29 15.5C29 14.675 29.45 14 30 14C30.55 14 31 14.675 31 15.5C31 16.325 31.477 17 32.059 17C32.641 17 32.837 16.546 32.494 15.991C31.359 14.154 32.98 11.055 34.725 11.725C35.842 12.153 35.67 11.67 34.174 10.174C31.704 7.704 31.366 7.599 30.485 9.025ZM26.564 10.707C26.022 12.132 26.136 12.247 27.124 11.267C27.808 10.588 28.115 9.781 27.807 9.474C27.499 9.166 26.94 9.721 26.564 10.707ZM15.116 13.628C15.052 14.798 15.787 16.373 16.75 17.128C18.272 18.321 18.351 18.305 17.358 17C16.729 16.175 15.994 14.6 15.724 13.5C15.257 11.6 15.226 11.607 15.116 13.628ZM48.399 14.25C48.003 14.938 48.048 15.166 48.498 14.759C48.948 14.351 50.032 14.576 50.908 15.259C52.317 16.357 52.342 16.298 51.128 14.75C49.492 12.664 49.328 12.634 48.399 14.25ZM17.223 19.557C16 20.413 15 21.624 15 22.248C15 22.872 15.563 22.677 16.25 21.815C16.938 20.954 18.4 19.756 19.5 19.155C20.6 18.553 21.038 18.047 20.473 18.03C19.907 18.014 18.445 18.701 17.223 19.557ZM43.186 19.214C41.575 20.825 41.694 22 43.469 22C44.436 22 44.727 21.402 44.32 20.25C43.981 19.288 45.12 20.044 46.852 21.93C49.587 24.91 51.308 25.322 49.235 22.5C47.051 19.528 44.343 18.057 43.186 19.214ZM26.25 19.689C27.212 19.941 28.788 19.941 29.75 19.689C30.712 19.438 29.925 19.232 28 19.232C26.075 19.232 25.288 19.438 26.25 19.689ZM39.904 20.43C39.667 20.666 36.892 21.001 33.737 21.174C30.582 21.347 28 21.884 28 22.367C28 22.85 27.306 22.669 26.458 21.965C25.253 20.965 24.651 20.949 23.708 21.892C23.043 22.557 22.444 23.528 22.375 24.05C22.306 24.573 22.159 25.113 22.048 25.25C21.937 25.387 21.768 26.879 21.673 28.564C21.522 31.244 21.784 31.573 23.765 31.194C25.01 30.956 26.274 30.365 26.574 29.881C27.429 28.496 29.201 28.852 28.412 30.25C27.884 31.185 28.013 31.218 28.923 30.381C30.128 29.271 30.776 27.124 30.923 23.75C30.984 22.358 31.907 22 35.441 22C37.884 22 40.16 21.55 40.5 21C41.117 20.001 40.716 19.617 39.904 20.43ZM26 22.833C26 24.135 24.811 25.001 23.844 24.404C22.81 23.765 23.702 22 25.059 22C25.577 22 26 22.375 26 22.833ZM51.564 23.293C51.94 24.279 52.499 24.834 52.807 24.526C53.115 24.219 52.808 23.412 52.124 22.733C51.136 21.753 51.022 21.868 51.564 23.293ZM54.232 25C54.232 26.925 54.438 27.712 54.689 26.75C54.941 25.788 54.941 24.212 54.689 23.25C54.438 22.288 54.232 23.075 54.232 25ZM37.143 23.89C36.309 24.419 36.172 24.988 36.788 25.369C37.34 25.71 38.048 25.316 38.364 24.494C39.026 22.767 38.964 22.737 37.143 23.89ZM41.25 23.689C42.212 23.941 43.788 23.941 44.75 23.689C45.712 23.438 44.925 23.232 43 23.232C41.075 23.232 40.288 23.438 41.25 23.689ZM14.031 24.5C14.031 25.05 14.467 26.175 15 27C15.533 27.825 15.969 28.05 15.969 27.5C15.969 26.95 15.533 25.825 15 25C14.467 24.175 14.031 23.95 14.031 24.5ZM18.079 25.583C18.127 26.748 18.364 26.985 18.683 26.188C18.972 25.466 18.936 24.603 18.604 24.271C18.272 23.939 18.036 24.529 18.079 25.583ZM32.143 25.89C31.197 26.49 31.122 26.957 31.893 27.434C32.502 27.81 33 27.615 33 27C33 26.385 33.45 26.16 34 26.5C34.55 26.84 35 26.641 35 26.059C35 24.786 33.981 24.726 32.143 25.89ZM13.195 30.5C13.215 32.15 13.439 32.704 13.693 31.731C13.947 30.758 13.93 29.408 13.656 28.731C13.382 28.054 13.175 28.85 13.195 30.5ZM32.667 31.667C31.764 32.57 31.821 35.771 32.75 36.345C33.163 36.6 33.5 35.502 33.5 33.905C33.5 32.307 33.462 31 33.417 31C33.371 31 33.033 31.3 32.667 31.667ZM15.559 33.532C14.491 34.339 14.099 35 14.686 35C15.274 35 16.315 34.325 17 33.5C18.557 31.624 18.067 31.634 15.559 33.532ZM38 34.25C38 35.121 37.438 36.06 36.75 36.338C35.771 36.733 35.778 36.859 36.781 36.921C38.207 37.009 39.599 34.266 38.624 33.29C38.281 32.947 38 33.379 38 34.25ZM18 36.5C18 37.875 18.173 39 18.383 39C18.594 39 18.982 37.875 19.245 36.5C19.508 35.125 19.335 34 18.861 34C18.388 34 18 35.125 18 36.5ZM21.459 37.067C21.096 37.653 21.07 38.403 21.4 38.733C21.73 39.063 22 38.782 22 38.108C22 37.434 22.52 37.203 23.155 37.595C23.87 38.038 24.038 37.87 23.595 37.155C22.711 35.724 22.299 35.707 21.459 37.067ZM57.813 36.683C58.534 36.972 59.397 36.936 59.729 36.604C60.061 36.272 59.471 36.036 58.417 36.079C57.252 36.127 57.015 36.364 57.813 36.683ZM6 38.393C6 38.609 6.698 39.054 7.552 39.382C8.442 39.723 8.843 39.555 8.493 38.989C7.906 38.038 6 37.583 6 38.393ZM11.948 41.841C10.357 43.129 10.032 43.901 10.862 44.415C11.553 44.842 11.935 44.647 11.775 43.949C11.624 43.29 12.077 42.539 12.781 42.281C13.486 42.023 13.936 42.26 13.781 42.806C13.627 43.353 13.929 43.732 14.454 43.65C15.559 43.476 16.025 40 14.944 40C14.547 40 13.199 40.828 11.948 41.841ZM22 47.378C22 47.585 22.788 48.373 23.75 49.128C25.336 50.371 25.371 50.336 24.128 48.75C22.821 47.084 22 46.555 22 47.378ZM15.527 50.956C15.202 51.482 14.163 51.652 13.218 51.333C12.157 50.976 12.386 51.414 13.815 52.479C15.088 53.428 16.4 53.933 16.731 53.602C17.062 53.271 16.753 53 16.044 53C15.012 53 15.003 52.701 16 51.5C16.685 50.675 16.991 50 16.681 50C16.372 50 15.852 50.43 15.527 50.956ZM40.269 55.693C41.242 55.947 42.592 55.93 43.269 55.656C43.946 55.382 43.15 55.175 41.5 55.195C39.85 55.215 39.296 55.439 40.269 55.693ZM37.762 57.707C39.006 57.946 40.806 57.937 41.762 57.687C42.718 57.437 41.7 57.241 39.5 57.252C37.3 57.263 36.518 57.468 37.762 57.707Z" fill="#576A71"/>
<path fill-rule="evenodd" clip-rule="evenodd" d="M0 31.5V63H32H64V31.5V0H32H0V31.5ZM37.51 6.154C37.515 7.994 37.89 10.535 38.343 11.799C38.904 13.366 38.671 14.853 37.611 16.471C36.073 18.818 36.088 18.835 38.953 18.014C40.546 17.557 42.148 17.479 42.514 17.841C42.879 18.204 42.622 17.276 41.942 15.78C39.238 9.828 45.633 7.983 51.404 13.05C56.692 17.693 57.648 21.883 55.84 32.5C55.624 33.773 55.992 34.397 56.854 34.215C59.094 33.744 62 35.043 62 36.516C62 37.275 60.847 39.141 59.439 40.661C57.955 42.261 57.074 44.177 57.346 45.213C57.603 46.198 57.405 46.751 56.907 46.442C56.408 46.134 56 46.524 56 47.308C56 48.092 55.065 50.982 53.923 53.731C52.156 57.984 51.281 58.899 48.057 59.865C41.523 61.823 32.125 61.271 26.373 58.593C23.552 57.28 20.937 55.708 20.561 55.099C20.185 54.491 18.828 54.256 17.546 54.578C14.425 55.361 9.677 52.774 6.879 48.765C5.626 46.969 4.015 45.14 3.3 44.7C1.514 43.602 1.67 41.022 3.655 38.829C5.457 36.837 8.05 36.45 9.55 37.949C10.15 38.549 10.587 36.908 10.736 33.498C10.865 30.527 11.8 25.915 12.814 23.247C14.189 19.629 14.402 17.827 13.653 16.148C12.989 14.66 12.983 12.986 13.636 11.2C14.364 9.208 14.256 7.921 13.225 6.294C12.457 5.081 12.091 3.663 12.412 3.143C12.745 2.604 18.27 2.329 25.248 2.503L37.5 2.809L37.51 6.154ZM18 5C18.825 5.533 20.175 5.945 21 5.914C21.989 5.878 21.819 5.567 20.5 5C17.751 3.819 16.172 3.819 18 5ZM29.813 5.683C30.534 5.972 31.397 5.936 31.729 5.604C32.061 5.272 31.471 5.036 30.417 5.079C29.252 5.127 29.015 5.364 29.813 5.683ZM17.033 8.367C16.465 8.935 16.014 9.873 16.03 10.45C16.047 11.027 16.525 10.703 17.092 9.729C17.659 8.755 18.514 8.2 18.992 8.495C19.471 8.791 20.098 8.65 20.387 8.183C21.136 6.971 18.272 7.128 17.033 8.367ZM30.507 8.989C30.157 9.555 30.558 9.723 31.448 9.382C33.18 8.717 33.497 8 32.059 8C31.541 8 30.843 8.445 30.507 8.989ZM26.564 10.707C26.022 12.132 26.136 12.247 27.124 11.267C27.808 10.588 28.115 9.781 27.807 9.474C27.499 9.166 26.94 9.721 26.564 10.707ZM15.116 13.628C15.052 14.798 15.787 16.373 16.75 17.128C18.272 18.321 18.351 18.305 17.358 17C16.729 16.175 15.994 14.6 15.724 13.5C15.257 11.6 15.226 11.607 15.116 13.628ZM43 13.416C43 14.195 44.913 16.262 47.25 18.011L51.5 21.189L47.5 17.593C44.191 14.617 43.759 13.826 45 13.013C46.284 12.172 46.248 12.028 44.75 12.015C43.788 12.007 43 12.637 43 13.416ZM31 15C31 16.1 31.408 17 31.906 17C32.405 17 32.577 16.1 32.29 15C32.002 13.9 31.594 13 31.383 13C31.173 13 31 13.9 31 15ZM48.399 14.25C48.003 14.938 48.048 15.166 48.498 14.759C48.948 14.351 50.032 14.576 50.908 15.259C52.317 16.357 52.342 16.298 51.128 14.75C49.492 12.664 49.328 12.634 48.399 14.25ZM27.638 15.5C27.322 16.325 27.499 17 28.031 17C28.564 17 29 16.325 29 15.5C29 14.675 28.823 14 28.607 14C28.391 14 27.955 14.675 27.638 15.5ZM44.987 19.5C47.119 22.435 50.002 25.198 49.985 24.289C49.962 23.137 48.82 21.758 46.017 19.5L43.534 17.5L44.987 19.5ZM26.25 19.689C27.212 19.941 28.788 19.941 29.75 19.689C30.712 19.438 29.925 19.232 28 19.232C26.075 19.232 25.288 19.438 26.25 19.689ZM15.459 21.067C15.096 21.653 15.014 22.348 15.276 22.61C15.538 22.872 16.019 22.392 16.345 21.543C17.021 19.781 16.445 19.471 15.459 21.067ZM22.872 22.75C21.603 24.369 21.65 24.39 23.5 23.033C24.6 22.226 25.688 21.439 25.917 21.283C26.146 21.127 25.863 21 25.289 21C24.715 21 23.627 21.788 22.872 22.75ZM26.935 23.316C23.611 25.074 22.402 26.379 21.921 28.729C21.4 31.277 21.573 31.737 22.894 31.323C25.768 30.423 34.952 25.619 34.556 25.223C34.345 25.011 33.299 25.305 32.233 25.876C30.527 26.789 30.349 26.624 30.754 24.507C31.148 22.448 31.883 22.047 35.857 21.731L40.5 21.36L35.907 21.18C32.76 21.057 29.936 21.729 26.935 23.316ZM51.564 23.293C51.94 24.279 52.499 24.834 52.807 24.526C53.115 24.219 52.808 23.412 52.124 22.733C51.136 21.753 51.022 21.868 51.564 23.293ZM54.232 25C54.232 26.925 54.438 27.712 54.689 26.75C54.941 25.788 54.941 24.212 54.689 23.25C54.438 22.288 54.232 23.075 54.232 25ZM37 24C36.099 24.582 35.975 24.975 36.691 24.985C37.346 24.993 38.16 24.55 38.5 24C39.267 22.758 38.921 22.758 37 24ZM41.25 23.689C42.212 23.941 43.788 23.941 44.75 23.689C45.712 23.438 44.925 23.232 43 23.232C41.075 23.232 40.288 23.438 41.25 23.689ZM14.031 24.5C14.031 25.05 14.467 26.175 15 27C15.533 27.825 15.969 28.05 15.969 27.5C15.969 26.95 15.533 25.825 15 25C14.467 24.175 14.031 23.95 14.031 24.5ZM18.079 25.583C18.127 26.748 18.364 26.985 18.683 26.188C18.972 25.466 18.936 24.603 18.604 24.271C18.272 23.939 18.036 24.529 18.079 25.583ZM13.195 30.5C13.215 32.15 13.439 32.704 13.693 31.731C13.947 30.758 13.93 29.408 13.656 28.731C13.382 28.054 13.175 28.85 13.195 30.5ZM15.559 33.532C14.491 34.339 14.099 35 14.686 35C15.274 35 16.315 34.325 17 33.5C18.557 31.624 18.067 31.634 15.559 33.532ZM18 36.5C18 37.875 18.173 39 18.383 39C18.594 39 18.982 37.875 19.245 36.5C19.508 35.125 19.335 34 18.861 34C18.388 34 18 35.125 18 36.5ZM12.333 37.423C12.333 38.055 13.158 38.571 14.167 38.571C15.175 38.571 16 38.27 16 37.902C16 37.534 15.175 37.018 14.167 36.754C13.158 36.49 12.333 36.791 12.333 37.423ZM21.459 37.067C21.096 37.653 21.014 38.348 21.276 38.61C21.538 38.872 22.019 38.392 22.345 37.543C23.021 35.781 22.445 35.471 21.459 37.067ZM57.813 36.683C58.534 36.972 59.397 36.936 59.729 36.604C60.061 36.272 59.471 36.036 58.417 36.079C57.252 36.127 57.015 36.364 57.813 36.683ZM6 38.393C6 38.609 6.698 39.054 7.552 39.382C8.442 39.723 8.843 39.555 8.493 38.989C7.906 38.038 6 37.583 6 38.393ZM12.835 41.877C13.57 42.343 14.132 43.011 14.085 43.362C14.038 43.713 14.225 44 14.5 44C14.775 44 15 43.775 15 43.5C15 43.225 15 42.55 15 42C15 41.45 14.213 41.007 13.25 41.015C11.908 41.027 11.812 41.228 12.835 41.877ZM15.527 50.956C15.202 51.482 14.275 51.659 13.468 51.349C12.661 51.04 12 51.011 12 51.286C12 52.6 14.992 52.715 16.049 51.441C16.707 50.648 16.991 50 16.681 50C16.372 50 15.852 50.43 15.527 50.956Z" fill="white"/>
</svg>
