<svg width="64" height="64" viewBox="0 0 64 64" fill="none" xmlns="http://www.w3.org/2000/svg">
<g clip-path="url(#clip0_1_2)">
<path fill-rule="evenodd" clip-rule="evenodd" d="M0 32V64H32H64V32V0H32H0V32Z" fill="#3C525D"/>
<path fill-rule="evenodd" clip-rule="evenodd" d="M0 32V64H32H64V32V0H32H0V32ZM23.675 8.79543C23.313 9.16318 23.576 10.1912 24.259 11.0811C25.357 12.5125 25.298 12.5379 23.75 11.3046C21.745 9.70667 21.455 8.12698 23.167 8.12698C23.808 8.12698 24.037 8.42768 23.675 8.79543ZM35.992 10.1323C37.262 10.9481 37.277 11.2843 36.095 12.4018C35.212 13.2368 34.95 13.2754 35.374 12.5064C35.742 11.843 35.245 10.8282 34.271 10.2522C33.297 9.67619 32.95 9.19771 33.5 9.18959C34.05 9.18044 35.171 9.60508 35.992 10.1323ZM50.667 26.8302C51.161 27.3778 50.921 27.4133 50.079 26.9166C49.216 26.4066 49.412 27.0994 50.579 28.6801C51.636 30.1115 52.837 31.0745 53.25 30.8196C53.976 30.3705 54.406 32.707 54.075 35.3016C53.985 36.0005 54.273 36.5714 54.713 36.5714C55.154 36.5714 55.353 38.6286 55.157 41.1429C54.813 45.5284 53.816 46.8612 52.498 44.6954C52.088 44.0208 51.206 44.0432 49.886 44.7604C48.73 45.3882 43.127 45.7468 36.537 45.6127L25.179 45.3821L24.8 41.3491C24.54 38.5788 24.972 36.606 26.178 35.0486C27.144 33.8011 27.724 32.4907 27.467 32.1361C27.21 31.7816 27.262 31.682 27.581 31.9137C27.901 32.1453 29.764 31.231 31.721 29.8819C33.678 28.5328 35.891 27.4286 36.64 27.4286C37.388 27.4286 38.001 27.0862 38.003 26.6667C38.007 25.5736 49.67 25.7239 50.667 26.8302ZM32.362 33.0159C31.411 35.5322 32.782 37.5873 35.41 37.5873C38.358 37.5873 39.358 36.2687 38.497 33.5147C37.741 31.0938 33.226 30.7261 32.362 33.0159ZM23.116 53.7244C24.555 54.8693 26.017 55.5164 26.366 55.1629C26.715 54.8084 27 55.1284 27 55.873C27 56.6177 27.279 56.9448 27.619 56.5984C27.96 56.253 28.924 56.6664 29.763 57.5187C30.731 58.5021 32.179 58.8404 33.728 58.4452C35.257 58.0551 35.934 58.2075 35.541 58.8536C34.811 60.0523 27.013 59.8268 27.005 58.6067C27.002 58.1547 26.48 58.111 25.845 58.5092C25.13 58.9592 24.962 58.7886 25.405 58.0622C26.042 57.0149 24.847 56.4328 22.75 56.769C22.338 56.8351 22.113 56.317 22.25 55.6191C22.388 54.9211 21.904 54.4752 21.176 54.6286C20.447 54.782 20.117 54.4701 20.442 53.9368C20.767 53.4024 20.575 52.6791 20.016 52.3276C19.457 51.9771 19.032 50.9166 19.07 49.9718C19.135 48.381 19.191 48.3789 19.82 49.9474C20.194 50.88 21.677 52.5785 23.116 53.7244ZM19 53.8413C19 54.4 18.523 54.8571 17.941 54.8571C17.359 54.8571 17.16 54.4 17.5 53.8413C17.84 53.2825 18.316 52.8254 18.559 52.8254C18.802 52.8254 19 53.2825 19 53.8413ZM51 57.3968C47.972 59.1553 47 59.264 47 57.8448C47 57.2536 47.359 56.9945 47.798 57.2698C48.237 57.5451 49.249 57.3511 50.048 56.8371C50.846 56.3241 51.95 55.9137 52.5 55.9248C53.05 55.936 52.375 56.5984 51 57.3968ZM45.5 58.9206C45.84 59.4794 45.416 59.9365 44.559 59.9365C43.702 59.9365 43 59.4794 43 58.9206C43 58.3619 43.423 57.9048 43.941 57.9048C44.459 57.9048 45.16 58.3619 45.5 58.9206ZM41 60.9524C41 61.5111 40.127 61.9683 39.059 61.9683C37.991 61.9683 36.84 61.5111 36.5 60.9524C36.149 60.3764 36.99 59.9365 38.441 59.9365C39.848 59.9365 41 60.3937 41 60.9524Z" fill="#253D49"/>
<path fill-rule="evenodd" clip-rule="evenodd" d="M0 32V64H32H64V32V0H32H0V32ZM24.305 10.2166C24.746 11.9314 24.588 12.0919 23.421 11.1086C21.83 9.7666 21.535 8.12698 22.883 8.12698C23.369 8.12698 24.009 9.06768 24.305 10.2166ZM35.992 10.1323C36.935 10.7378 37.119 11.392 36.492 11.9111C35.946 12.3632 35.606 12.541 35.734 12.3083C35.863 12.0747 35.188 11.2813 34.234 10.5458C32.258 9.02095 33.724 8.67556 35.992 10.1323ZM52.419 29.2064C56.395 35.393 57.086 42.1953 54.577 50.4422C52.675 56.6938 52.067 57.5939 48.554 59.3443C44.109 61.5599 35.798 61.8778 29.4 60.0777C24.499 58.6992 19 53.6797 19 50.5854C19 48.4866 19.18 48.5374 22.25 51.4966C26.339 55.4382 30.318 57.4649 35.779 58.3873C40.843 59.2417 49.329 57.4253 51.2 55.0857C52.335 53.6676 52.246 53.5751 50.5 54.3614C46.396 56.2103 35.692 56.0985 30.534 54.1531C24.951 52.0472 24.26 50.6982 24.1 41.5898C24.01 36.5247 24.335 35.5911 27.25 32.5476C31.793 27.8034 37.411 25.4456 44.236 25.4192C49.771 25.3978 50.057 25.5299 52.419 29.2064ZM32.362 33.0159C31.411 35.5322 32.782 37.5873 35.41 37.5873C38.358 37.5873 39.358 36.2687 38.497 33.5147C37.741 31.0938 33.226 30.7261 32.362 33.0159ZM19 53.8413C19 54.4 18.523 54.8571 17.941 54.8571C17.359 54.8571 17.16 54.4 17.5 53.8413C17.84 53.2825 18.316 52.8254 18.559 52.8254C18.802 52.8254 19 53.2825 19 53.8413Z" fill="#DFEDED"/>
<path fill-rule="evenodd" clip-rule="evenodd" d="M0 32V64H32H64V32V0H32H0V32ZM26.25 2.70425C25.563 2.98667 24.438 2.98667 23.75 2.70425C23.063 2.42286 23.625 2.19225 25 2.19225C26.375 2.19225 26.938 2.42286 26.25 2.70425ZM19.5 5.07937C19.16 5.6381 19.61 6.09524 20.5 6.09524C21.39 6.09524 21.858 5.66857 21.541 5.14641C20.777 3.88978 27.15 4.04927 28.737 5.32724C29.418 5.87479 30.67 6.05156 31.519 5.72038C32.543 5.32114 33.369 5.9327 33.967 7.53168C34.464 8.85943 35.462 10.1648 36.185 10.433C37.234 10.8221 37.2 11.203 36.017 12.3175C35.201 13.0855 34.826 13.3333 35.183 12.8681C36.058 11.7283 32.187 7.88927 30.947 8.66844C30.408 9.00673 30.228 9.71175 30.547 10.2359C30.866 10.7601 30.423 11.4631 29.563 11.7984C28.704 12.1336 28 13.2734 28 14.3309C28 15.3884 27.305 16.254 26.456 16.254C24.514 16.254 24.937 19.5505 27 20.5003C28.069 20.992 27.837 21.2114 26.191 21.2622C24.711 21.3079 24.138 21.7539 24.595 22.5067C25.011 23.1893 24.872 23.4047 24.264 23.0227C23.689 22.6621 22.506 23.4717 21.635 24.8218C20.447 26.6646 20.357 27.4022 21.276 27.7801C22.203 28.162 22.189 28.3032 21.219 28.3642C20.514 28.4079 19.642 27.6439 19.281 26.6667C18.919 25.6894 17.965 24.387 17.159 23.7735C16.308 23.1243 16.02 22.1217 16.472 21.379C17.002 20.5084 17.461 20.4475 17.911 21.187C18.678 22.4488 23 21.5589 23 20.1387C23 19.6124 22.55 19.4641 22 19.8095C21.45 20.1549 21 19.904 21 19.2528C21 18.6017 20.382 18.3091 19.626 18.6037C18.847 18.9074 17.805 18.1862 17.217 16.9346C15.43 13.1312 15.079 11.3168 16.066 10.9826C16.591 10.8048 17.215 9.63149 17.453 8.37384C17.927 5.87276 18.836 4.06349 19.618 4.06349C19.893 4.06349 19.84 4.52064 19.5 5.07937ZM18.575 9.89054C18.84 12.3418 20.984 15.6566 21.015 13.6635C21.024 13.1332 21.508 13.3841 22.091 14.2222C22.894 15.3752 23.276 15.4352 23.662 14.4701C23.942 13.7681 24.695 13.5192 25.335 13.9164C25.976 14.3147 25.213 13.0794 23.64 11.1726C20.118 6.90387 18.2 6.41829 18.575 9.89054ZM24 9.08292C24 11.5139 25.81 12.7898 27.223 11.3544C27.954 10.6118 27.798 9.80825 26.707 8.69994C24.644 6.60419 24 6.69562 24 9.08292ZM48.579 13.8717C48.3 14.6093 48.393 15.1467 48.786 15.0644C49.179 14.9831 50.299 15.2696 51.276 15.7034C52.672 16.323 52.802 16.7964 51.884 17.92C50.946 19.0679 51.041 19.2213 52.37 18.7043C53.598 18.2248 53.864 18.4808 53.404 19.6968C53.064 20.5968 53.206 21.3333 53.72 21.3333C54.233 21.3333 54.456 22.6997 54.215 24.3708C53.973 26.0409 53.396 27.1695 52.932 26.878C52.467 26.5864 52.318 25.7361 52.6 24.9895C53.203 23.3945 46.508 15.8151 45.215 16.6268C44.058 17.3531 44.034 13.8931 45.191 13.122C46.843 12.0188 49.091 12.5166 48.579 13.8717ZM36.999 15.4077C37 16.383 34.715 17.0504 33.25 16.5039C31.077 15.6922 31.897 14.4315 34.499 14.5839C35.874 14.6641 36.999 15.0349 36.999 15.4077ZM31.493 19.2904C31.843 19.8654 31.442 20.0361 30.552 19.6897C28.82 19.0141 28.503 18.2857 29.941 18.2857C30.459 18.2857 31.157 18.7378 31.493 19.2904ZM42.771 22.9211C42.597 23.0969 41.328 23.4494 39.951 23.7024C38.573 23.9563 35.844 24.8442 33.885 25.6762C30.366 27.1695 30.328 27.1594 30.768 24.8198C31.148 22.8023 31.902 22.4061 35.857 22.146C40.254 21.8575 43.464 22.2171 42.771 22.9211ZM15.195 27.4296C14.569 29.1484 14.11 29.4461 13.537 28.5044C13.078 27.7516 13.274 26.8688 14 26.4127C14.726 25.9566 14.929 25.0403 14.481 24.2408C13.909 23.2188 14.015 23.1446 14.884 23.9543C15.66 24.6786 15.766 25.8631 15.195 27.4296ZM52.525 29.2795C53.886 31.3143 55 33.7148 55 34.6128C55 35.5109 56.15 36.7777 57.556 37.4288C59.079 38.1328 59.826 39.0827 59.404 39.7775C58.914 40.5811 58.277 40.3627 57.347 39.0705C56.139 37.3923 56.015 37.6157 56.155 41.2272C56.304 45.1088 53.649 55.2005 51.876 57.4903C51.404 58.1008 51.257 58.8434 51.55 59.1411C51.843 59.4387 50.888 59.6825 49.428 59.6825C47.967 59.6825 46.486 60.0828 46.136 60.5714C45.363 61.6523 31 61.7732 31 60.6984C31 60.2789 30.2 59.9365 29.223 59.9365C28.245 59.9365 26.332 59.1451 24.973 58.177C23.613 57.2099 22.275 56.5872 22 56.7934C21.241 57.3633 19.031 52.5867 19.015 50.3406C19.002 48.6227 19.426 48.7741 22.25 51.4966C26.339 55.4382 30.318 57.4649 35.779 58.3873C40.843 59.2417 49.329 57.4253 51.2 55.0857C52.335 53.6676 52.246 53.5751 50.5 54.3614C49.4 54.8571 45.572 55.4331 41.993 55.6414C33.705 56.1239 25.665 53.4278 25.18 50.0043C25.005 48.7619 24.555 47.747 24.18 47.747C22.776 47.7501 24.207 36.0422 25.844 34.1374C27.422 32.3037 27.398 32.2672 25.339 33.3633C24.151 33.9962 22.582 35.8837 21.852 37.5578C20.063 41.666 17.744 42.5793 18.626 38.8297C18.984 37.309 19.76 35.1492 20.351 34.0317C20.942 32.9143 21.352 31.7247 21.262 31.3884C21.172 31.0522 22.149 30.9811 23.432 31.23C24.716 31.4799 26.07 31.1832 26.442 30.5717C26.814 29.9601 27.568 29.4603 28.118 29.4603C28.668 29.4603 28.835 29.9256 28.489 30.4935C28.144 31.0613 29.53 30.3756 31.57 28.9697C33.61 27.5637 35.891 26.4127 36.64 26.4127C37.388 26.4127 37.999 26.0704 37.998 25.6508C37.997 25.2312 40.709 25.0443 44.023 25.2343C49.683 25.5584 50.201 25.8052 52.525 29.2795ZM16.403 33.5888C15.072 34.4747 14.325 35.582 14.742 36.0493C15.159 36.5156 14.919 36.5572 14.209 36.1407C12.824 35.329 13.437 32.0183 15.36 29.9276C16.217 28.995 16.746 29.0916 17.648 30.3462C18.609 31.68 18.383 32.2692 16.403 33.5888ZM32.362 33.0159C31.411 35.5322 32.782 37.5873 35.41 37.5873C38.358 37.5873 39.358 36.2687 38.497 33.5147C37.741 31.0938 33.226 30.7261 32.362 33.0159ZM10.683 36.7624C10.364 37.5721 10.127 37.3313 10.079 36.1478C10.036 35.0771 10.272 34.4777 10.604 34.815C10.936 35.1523 10.972 36.029 10.683 36.7624ZM16 40.1981C16 40.4775 15.1 40.2174 14 39.619C12.9 39.0207 12 38.3035 12 38.0241C12 37.7448 12.9 38.0048 14 38.6032C15.1 39.2015 16 39.9187 16 40.1981ZM10.667 42.114C10.667 42.9277 10.292 43.3575 9.833 43.07C8.753 42.3924 8.753 40.6349 9.833 40.6349C10.292 40.6349 10.667 41.3003 10.667 42.114ZM16.315 44.0188C16.212 44.3723 16.519 46.0404 16.995 47.7277C17.542 49.665 17.496 50.7937 16.871 50.7937C16.327 50.7937 16.143 51.2224 16.461 51.7455C17 52.6314 13.208 52.3611 10.25 51.3036C8.787 50.7815 8.546 47.746 9.969 47.746C10.501 47.746 10.676 47.0552 10.357 46.211C9.942 45.1119 10.236 44.8538 11.389 45.3039C12.275 45.6493 13.007 46.4538 13.015 47.0928C13.024 47.7318 13.465 47.5683 13.997 46.7302C14.688 45.6401 14.476 44.8366 13.251 43.9071C11.723 42.7479 11.805 42.6494 14.019 42.9928C15.384 43.2041 16.417 43.6663 16.315 44.0188ZM18.183 55.0776C17.466 55.806 17 55.8659 17 55.23C17 53.8738 18.183 52.672 18.85 53.3506C19.134 53.6391 18.834 54.4163 18.183 55.0776Z" fill="#CED8D9"/>
<path fill-rule="evenodd" clip-rule="evenodd" d="M0 32V64H32H64V32V0H32H0V32ZM17 4.64254C17 4.92191 16.1 4.66184 15 4.06349C13.516 3.25689 13 3.29143 13 4.19657C13 4.86908 12.73 5.14337 12.4 4.80813C12.07 4.47289 12.097 3.70997 12.461 3.11263C13.097 2.0673 17 3.38286 17 4.64254ZM26.25 2.70425C25.563 2.98667 24.438 2.98667 23.75 2.70425C23.063 2.42286 23.625 2.19225 25 2.19225C26.375 2.19225 26.938 2.42286 26.25 2.70425ZM29.46 5.1454C29.147 5.66044 30.04 5.98552 31.445 5.86667C32.85 5.74883 34 5.29473 34 4.85791C34 4.42108 34.439 4.06349 34.975 4.06349C35.606 4.06349 35.61 4.97371 34.986 6.63975C34.173 8.8127 34.348 9.33892 36.099 9.99721C38.097 10.7479 38.106 10.8323 36.338 12.2128C35.327 13.0011 34.8 13.2815 35.167 12.8345C36.069 11.7333 32.181 7.89333 30.947 8.66844C30.408 9.00673 30.228 9.71175 30.547 10.2359C30.866 10.7601 30.423 11.4631 29.563 11.7984C28.704 12.1336 28 13.182 28 14.1277C28 15.0735 27.438 16.4632 26.75 17.216C25.736 18.3264 25.783 18.4462 27 17.8519C27.825 17.4486 27.626 17.8387 26.559 18.7185C25.044 19.966 24.953 20.3175 26.142 20.3175C26.981 20.3175 27.667 21.0184 27.667 21.8748C27.667 22.9476 27.344 23.105 26.633 22.3827C25.23 20.9575 23.709 21.0499 24.595 22.5067C25.011 23.1893 24.872 23.4047 24.264 23.0227C23.689 22.6621 22.484 23.5053 21.586 24.898C20.688 26.2898 20.414 27.4286 20.977 27.4286C21.54 27.4286 22 27.9416 22 28.5684C22 29.3567 21.536 29.3181 20.5 28.4444C19.675 27.7486 19 26.5986 19 25.8895C19 25.1794 18.275 24.3159 17.389 23.9705C16.259 23.5297 15.943 23.7806 16.332 24.8117C16.638 25.6203 16.37 26.4564 15.736 26.6717C15.019 26.9145 15.417 27.969 16.793 29.4684C18.996 31.871 19.669 33.6681 18.25 33.3623C17.837 33.2739 16.701 33.5553 15.724 33.9891C14.266 34.6362 14.168 35.073 15.176 36.4363C16.206 37.8281 16.179 37.8921 15.01 36.8335C13.487 35.456 12.898 26.4127 14.331 26.4127C14.816 26.4127 14.966 25.7564 14.663 24.9549C14.36 24.1524 14.65 23.3123 15.306 23.0877C16.184 22.7881 16.115 22.1653 15.048 20.737C14.125 19.5017 14.079 19.2274 14.92 19.9843C15.648 20.6385 16.938 20.9036 17.786 20.5735C18.798 20.1783 19.08 20.3804 18.605 21.1606C17.59 22.8297 19.248 22.6397 21.559 20.8234C23.441 19.3432 23.442 19.3178 21.586 19.9792C20.148 20.4932 19.878 20.3236 20.5 19.3016C21.092 18.3294 20.889 18.112 19.79 18.5397C18.266 19.134 17.628 18.2298 15.162 11.9731C14.371 9.96572 14.379 9.02502 15.192 8.51403C15.845 8.10463 16.03 8.27124 15.638 8.9153C15.269 9.52178 15.425 10.305 15.984 10.6565C16.543 11.007 17 10.8099 17 10.2187C17 5.42781 18.523 4.20876 24.512 4.20876C27.624 4.20876 29.781 4.61714 29.46 5.1454ZM19.813 5.77321C20.534 6.06679 21.397 6.03022 21.729 5.69295C22.061 5.35568 21.471 5.11594 20.417 5.15962C19.252 5.20838 19.015 5.44914 19.813 5.77321ZM18.379 8.99759C18.446 9.91594 19.175 11.2721 20 12.0117C21.333 13.2074 21.333 13.2744 20 12.611C19.175 12.2006 18.835 12.2403 19.244 12.6994C19.654 13.1576 21.304 13.5741 22.911 13.6239C24.519 13.6737 25.653 13.5304 25.432 13.3069C25.212 13.0824 25.786 12.3388 26.709 11.6531C28.256 10.5031 28.261 10.2786 26.765 8.75886C24.426 6.38273 23.694 6.72102 24.292 9.9007L24.817 12.6903L22.834 10.2034C20.491 7.26248 18.208 6.64584 18.379 8.99759ZM48.373 12.3652C48.853 12.223 48.981 12.8061 48.659 13.6604C48.336 14.5148 48.393 15.1467 48.786 15.0644C49.179 14.9831 50.299 15.2696 51.276 15.7034C52.672 16.323 52.802 16.7964 51.884 17.92C50.946 19.0679 51.041 19.2213 52.37 18.7043C53.643 18.2075 53.866 18.4737 53.341 19.8634C52.835 21.2033 53.004 21.4512 54 20.8254C54.992 20.2027 55.166 20.4455 54.67 21.758C54.301 22.7332 54 24.4348 54 25.5401C54 26.6443 53.57 27.2782 53.044 26.9481C52.518 26.6179 52.323 25.7229 52.612 24.959C53.386 22.909 51.173 21.9693 49.206 23.5144C47.684 24.7091 47.69 24.6268 49.258 22.7505C50.936 20.7441 50.936 20.5796 49.258 19.1675C44.145 14.8632 44.1 14.8561 44.519 18.4696C44.89 21.6604 44.843 21.7173 43.653 19.5241C42.962 18.2491 42.006 17.5634 41.53 18.0003C41.053 18.4361 41.526 17.5512 42.582 16.0315C43.637 14.5128 44.924 13.2561 45.441 13.2378C45.959 13.2206 45.509 12.4952 44.441 11.6267C42.62 10.1445 42.655 10.1262 45 11.3341C46.375 12.0422 47.893 12.5064 48.373 12.3652ZM38.683 14.4132C38.364 15.2229 38.127 14.9821 38.079 13.7986C38.036 12.7279 38.272 12.1285 38.604 12.4658C38.936 12.803 38.972 13.6797 38.683 14.4132ZM41.683 14.4132C41.364 15.2229 41.127 14.9821 41.079 13.7986C41.036 12.7279 41.272 12.1285 41.604 12.4658C41.936 12.803 41.972 13.6797 41.683 14.4132ZM37 15.3752C37 16.3779 34.736 17.0585 33.25 16.5039C31.04 15.678 31.918 14.2385 34.5 14.4549C35.875 14.5707 37 14.9851 37 15.3752ZM31.493 19.2904C31.843 19.8654 31.442 20.0361 30.552 19.6897C28.82 19.0141 28.503 18.2857 29.941 18.2857C30.459 18.2857 31.157 18.7378 31.493 19.2904ZM35 19.8095C35.718 20.6883 35.815 21.3333 35.229 21.3333C34.671 21.3333 33.955 20.6476 33.638 19.8095C33.322 18.9714 33.219 18.2857 33.409 18.2857C33.599 18.2857 34.315 18.9714 35 19.8095ZM48.447 20.4038C48.125 20.9331 47.436 21.0987 46.915 20.7716C46.394 20.4444 46.231 19.7445 46.553 19.2152C46.875 18.686 47.564 18.5204 48.085 18.8475C48.606 19.1746 48.769 19.8745 48.447 20.4038ZM41.729 19.9152C41.397 20.2524 40.534 20.289 39.813 19.9954C39.015 19.6714 39.252 19.4306 40.417 19.3818C41.471 19.3382 42.061 19.5779 41.729 19.9152ZM42.745 22.7667C43.068 23.0959 42.583 23.3651 41.667 23.3651C40.75 23.3651 40 23.8263 40 24.3891C40 25.6965 49.081 25.4486 50.773 24.0955C51.721 23.3377 51.888 23.4961 51.426 24.7192C51.085 25.6224 51.749 27.9121 52.903 29.8088C54.056 31.7044 55 33.9281 55 34.751C55 35.5728 56.15 36.7777 57.556 37.4288C58.962 38.079 59.822 39.0888 59.467 39.6729C59.034 40.385 58.323 40.3129 57.301 39.4504C55.975 38.334 55.842 38.6408 56.265 41.8347C56.533 43.8502 57.066 46.017 57.45 46.6479C57.853 47.3102 57.588 47.678 56.824 47.5175C56.089 47.362 55.562 48.0284 55.639 49.0159C55.715 49.9931 55.351 50.7937 54.83 50.7937C54.309 50.7937 54.141 51.2193 54.457 51.7394C54.774 52.2596 54.575 52.9717 54.016 53.3232C53.457 53.6737 53 54.848 53 55.933C53 57.0179 52.523 57.9048 51.941 57.9048C51.359 57.9048 51.207 58.4391 51.605 59.0933C52.091 59.8928 51.783 60.0696 50.664 59.6328C49.749 59.2762 49 59.4133 49 59.9365C49 60.4597 48.325 60.6253 47.5 60.3043C46.675 59.9822 46 60.1112 46 60.5897C46 61.0682 42.625 61.4603 38.5 61.4603C34.375 61.4603 31 61.0794 31 60.6141C31 60.1478 30.438 59.969 29.75 60.2149C29.063 60.4607 27.375 59.8634 26 58.8871C24.625 57.9109 23.05 57.1246 22.5 57.1408C20.125 57.2079 17.987 49.5177 20.025 48.2387C20.588 47.8842 20.926 48.2001 20.775 48.9407C20.624 49.6803 21.096 50.1597 21.824 50.0064C22.553 49.853 22.901 50.1344 22.598 50.6331C21.129 53.0469 30.056 57.73 37.164 58.2756C41.592 58.6159 41.904 58.5427 39 57.8479C36.162 57.1693 36.588 57.0809 41.25 57.3846C44.413 57.5898 47 57.3338 47 56.8158C47 56.2966 44.357 55.873 41.126 55.873C37.895 55.873 33.436 55.2218 31.216 54.4264C28.997 53.631 26.918 53.247 26.597 53.5731C26.276 53.8992 25.731 52.7289 25.385 50.9724C25.039 49.216 24.404 48 23.973 48.2712C23.542 48.5415 23.44 45.9591 23.746 42.5316C24.198 37.4613 24.041 36.3926 22.901 36.799C22.13 37.0733 21.529 37.9347 21.564 38.7129C21.6 39.49 20.75 40.9895 19.677 42.0439C17.751 43.9365 17.735 43.9111 18.472 40.0122C18.882 37.8403 19.32 35.4022 19.446 34.5945C19.572 33.7869 20.201 32.9478 20.844 32.7304C21.486 32.513 21.798 31.9827 21.536 31.552C21.275 31.1213 22.119 30.975 23.413 31.2269C24.707 31.4778 26.07 31.1832 26.442 30.5717C26.814 29.9601 27.568 29.4603 28.118 29.4603C28.668 29.4603 28.78 30.0323 28.367 30.7302C27.823 31.6505 28.065 31.6302 29.249 30.656C30.312 29.7803 30.81 28.0066 30.675 25.5766L30.469 21.8413L36.312 22.0048C39.526 22.0952 42.421 22.4386 42.745 22.7667ZM56.683 23.5561C56.364 24.3657 56.127 24.125 56.079 22.9415C56.036 21.8707 56.272 21.2714 56.604 21.6086C56.936 21.9459 56.972 22.8226 56.683 23.5561ZM37.25 24.0376C35.82 24.6237 35.551 26.4127 36.893 26.4127C37.384 26.4127 38.045 25.727 38.362 24.8889C38.678 24.0508 38.839 23.4017 38.719 23.4453C38.598 23.489 37.938 23.7562 37.25 24.0376ZM32.143 26.301C31.197 26.9105 31.122 27.3849 31.893 27.8695C32.502 28.2514 33 28.0533 33 27.4286C33 26.8038 33.45 26.5752 34 26.9206C34.55 27.266 35 27.0639 35 26.4726C35 25.1794 33.981 25.1185 32.143 26.301ZM32.362 33.0159C31.411 35.5322 32.782 37.5873 35.41 37.5873C38.358 37.5873 39.358 36.2687 38.497 33.5147C37.741 31.0938 33.226 30.7261 32.362 33.0159ZM24.441 33.9992C23.374 34.8201 23.007 35.5058 23.628 35.523C24.248 35.5413 25.315 34.8698 26 34.0317C27.581 32.0965 26.935 32.0833 24.441 33.9992ZM36.5 34.5397C36.16 35.0984 35.459 35.5556 34.941 35.5556C34.423 35.5556 34 35.0984 34 34.5397C34 33.981 34.702 33.5238 35.559 33.5238C36.416 33.5238 36.84 33.981 36.5 34.5397ZM10.683 36.7624C10.364 37.5721 10.127 37.3313 10.079 36.1478C10.036 35.0771 10.272 34.4777 10.604 34.815C10.936 35.1523 10.972 36.029 10.683 36.7624ZM59.729 35.1533C59.397 35.4905 58.534 35.5271 57.813 35.2335C57.015 34.9095 57.252 34.6687 58.417 34.6199C59.471 34.5763 60.061 34.816 59.729 35.1533ZM16 40.1981C16 40.4775 15.1 40.2174 14 39.619C12.9 39.0207 12 38.3035 12 38.0241C12 37.7448 12.9 38.0048 14 38.6032C15.1 39.2015 16 39.9187 16 40.1981ZM9.324 40.4917C10.327 40.894 11.227 41.6406 11.324 42.1516C11.57 43.4479 15 43.581 15 42.2938C15 39.6698 16.803 43.5698 17.374 47.4311C17.805 50.3396 17.608 51.9385 16.752 52.482C14.915 53.6472 12.902 53.8077 13.554 52.736C13.864 52.226 13.668 51.8095 13.118 51.8095C12.568 51.8095 11.822 52.2961 11.46 52.8914C11.028 53.6015 10.159 53.3831 8.933 52.2555C7.491 50.9298 7.297 50.0968 8.082 48.6055C8.642 47.5429 9.477 46.91 9.937 47.1985C11.396 48.1148 10.568 44.2677 8.901 42.3853C7.873 41.2262 6.653 40.834 5.487 41.2881C4.236 41.7758 3.897 41.6264 4.395 40.8076C5.198 39.487 6.592 39.3986 9.324 40.4917ZM22.683 44.8894C22.364 45.699 22.127 45.4583 22.079 44.2748C22.036 43.2041 22.272 42.6047 22.604 42.942C22.936 43.2792 22.972 44.1559 22.683 44.8894ZM11.625 44.5095C11.397 44.8924 11.762 45.7244 12.437 46.3573C13.363 47.2259 13.923 47.0888 14.714 45.8027C15.55 44.4424 15.385 44.0676 13.901 43.9538C12.877 43.8756 11.853 44.1255 11.625 44.5095ZM8 50.3304C8 50.4483 8.6 51.0507 9.333 51.6693C10.33 52.5095 10.667 52.4546 10.667 51.455C10.667 50.7185 10.067 50.1161 9.333 50.1161C8.6 50.1161 8 50.2126 8 50.3304ZM18.541 54.7891C18.179 55.3854 16.896 55.8659 15.691 55.8578C13.59 55.8436 13.602 55.7887 16 54.5046C18.745 53.0357 19.553 53.1261 18.541 54.7891ZM49.029 54.8175C48.22 55.3377 47.893 56.1026 48.303 56.5191C48.712 56.9356 49.808 56.5029 50.738 55.5581C52.545 53.7224 51.464 53.2531 49.029 54.8175Z" fill="#ABB5B7"/>
<path fill-rule="evenodd" clip-rule="evenodd" d="M0 32V64H32H64V32V0H32H0V32ZM18.07 3.47022C17.216 4.51556 17.332 4.99098 18.556 5.46844C20.997 6.42032 22.79 6.07695 20.5 5.09664C18.472 4.22806 22.118 3.85524 32.865 3.83086C35.93 3.82375 36.824 3.53117 35.865 2.84851C34.726 2.03784 34.733 1.94032 35.908 2.26235C36.683 2.47365 37.472 3.76584 37.661 5.13321C37.865 6.60317 37.684 7.11721 37.218 6.38984C36.646 5.49587 36.105 5.69092 35.236 7.10502C34.481 8.33219 34.402 9.27492 35.02 9.664C35.559 10.0023 36.007 9.68025 36.015 8.94883C36.027 7.92686 36.237 7.95022 36.923 9.05041C37.967 10.7266 37.253 13.2063 35.726 13.2063C35.144 13.2063 34.929 12.9402 35.25 12.6141C35.571 12.288 34.933 11.1065 33.833 9.98908C31.749 7.872 30.768 8.09956 30.379 10.7896C30.253 11.6622 30.379 12.1448 30.658 11.8603C30.938 11.5759 32.046 12.2372 33.12 13.3283C34.194 14.4193 35.459 15.0695 35.932 14.7728C36.404 14.4762 37.027 14.8602 37.316 15.6251C37.676 16.578 37.039 17.0159 35.294 17.0159C33.645 17.0159 32.575 16.3444 32.257 15.1111C31.585 12.4983 29.542 12.7218 27.679 15.6119L26.127 18.0165L30.958 17.8408C34.571 17.7087 35.662 17.9982 35.287 18.9907C35.012 19.7201 35.284 20.3175 35.893 20.3175C36.502 20.3175 37 19.8715 37 19.327C37 18.7683 38.308 18.6027 40 18.946C41.982 19.3483 43 19.1472 43 18.3528C43 17.661 42.469 17.474 41.75 17.9129C40.804 18.4899 40.815 18.2817 41.792 17.0555C42.847 15.7318 42.847 15.3488 41.792 14.9597C39.607 14.1542 42.255 10.9196 45.376 10.5813C47.575 10.3436 48.039 10.621 47.561 11.8867C47.034 13.2836 47.175 13.309 48.641 12.0797C50.191 10.7804 50.223 10.8719 49.028 13.2063C48.314 14.6032 48.086 15.4067 48.523 14.9933C48.959 14.5788 49.873 14.7088 50.553 15.2828C51.233 15.8557 52.399 16.195 53.145 16.0356C54.562 15.7328 54.617 16.4338 53.44 19.8095L52.731 21.8413L54.447 19.8095L56.163 17.7778L55.429 19.8095C55.026 20.927 54.554 23.4413 54.38 25.3968L54.066 28.9524L54.917 25.599C56.216 20.481 57 20.4983 57 25.6457C57 30.3106 56.225 31.0055 53.176 29.0712C52.088 28.3815 52.079 28.5999 53.126 30.3045C53.827 31.4443 54.697 32.19 55.06 31.9624C55.422 31.7349 55.599 32.6613 55.452 34.0216C55.127 37.0215 58.267 38.4295 60.759 36.4018C61.853 35.5109 61.676 36.1285 60.24 38.21C59.041 39.9492 58.335 41.6528 58.673 41.9952C59.01 42.3385 58.555 42.9034 57.661 43.2518C56.402 43.7435 56.267 44.3225 57.061 45.8301C57.833 47.295 57.766 47.7084 56.793 47.5063C56.082 47.359 55.562 48.0386 55.639 49.0159C55.715 49.9931 55.378 50.7937 54.889 50.7937C54.4 50.7937 54.053 51.136 54.118 51.5556C54.184 51.9751 54.127 52.6598 53.993 53.0794C53.86 53.4989 53.672 54.1836 53.576 54.6032C52.729 58.3091 51.635 60.0117 50.41 59.5342C49.634 59.2315 49 59.4133 49 59.9365C49 60.4597 48.325 60.6253 47.5 60.3043C46.675 59.9822 46 60.1305 46 60.6334C46 61.1363 42.625 61.5314 38.5 61.5111C34.375 61.4908 31 61.1078 31 60.6608C31 60.2138 30.438 59.9568 29.75 60.0909C27.894 60.4526 24 58.9257 24 57.8367C24 57.3156 23.474 57.0027 22.832 57.1429C22.189 57.282 21.122 56.3424 20.461 55.0522C19.486 53.1525 19.145 53.0083 18.66 54.2903C18.332 55.1609 17.036 55.8405 15.781 55.8019C13.616 55.7338 13.602 55.6861 15.5 54.8571C16.6 54.3766 16.882 53.952 16.128 53.9124C14.964 53.8524 14.964 53.57 16.128 52.0635C17.342 50.4909 17.317 50.431 15.908 51.5464C15.032 52.2403 14.031 52.5176 13.682 52.1641C13.334 51.8095 12.422 52.0483 11.657 52.6933C10.581 53.6005 9.956 53.4867 8.898 52.1925C8.146 51.2711 7.523 49.7798 7.515 48.8777C7.507 47.9766 6.972 47.3407 6.327 47.4657C5.478 47.6312 5.405 46.8074 6.06 44.4861C6.558 42.7215 6.748 41.0565 6.483 40.7873C6.217 40.5171 6 40.8787 6 41.5898C6 42.366 5.351 42.6311 4.379 42.2522C3.133 41.7666 2.881 42.0937 3.286 43.6693C3.576 44.7949 3.405 45.4613 2.907 45.1474C1.413 44.2098 1.883 40.6349 3.5 40.6349C4.325 40.6349 5 40.1504 5 39.5591C5 38.9679 5.5 38.7972 6.112 39.1812C6.723 39.5652 7.666 39.2493 8.206 38.4792C8.949 37.4197 9.041 37.5396 8.583 38.9699C8.134 40.3718 8.369 40.7091 9.489 40.2723C10.32 39.9482 11 40.1524 11 40.7264C11 41.3013 11.562 41.4364 12.25 41.0281C12.938 40.6197 12.643 41.279 11.595 42.4919C9.598 44.8051 9.64 44.8691 13.25 45.0154C14.892 45.0824 15.414 44.6121 15.183 43.2772C14.66 40.257 16.794 42.4493 17.484 45.6411C17.835 47.2645 18.718 48.8249 19.447 49.1083C20.49 49.5157 20.459 48.9895 19.302 46.6316C18.25 44.4912 18.052 42.4147 18.604 39.3427C19.028 36.9808 19.288 34.6961 19.182 34.2664C19.075 33.8377 20.228 32.9884 21.744 32.3799C23.26 31.7714 25.281 30.8653 26.236 30.3665C28.616 29.1241 29.246 29.2297 28.412 30.7302C27.885 31.678 28.014 31.7125 28.919 30.8663C30.78 29.1271 31.402 23.233 29.832 22.2222C27.872 20.9605 26.774 21.1505 27.633 22.6032C28.081 23.361 27.654 23.2706 26.574 22.3787C24.934 21.0255 24.541 21.1688 22.393 23.9025C21.089 25.5624 20.467 27.073 21.011 27.2589C21.555 27.4458 21.971 28.5887 21.937 29.7986C21.873 32 21.873 32 20.969 29.7143C19.907 27.0304 18.614 26.6098 19.41 29.2064C19.995 31.1182 18.837 33.6945 17.388 33.7026C16.9 33.7046 15.825 34.0927 15 34.563C13.711 35.2985 13.746 35.5149 15.25 36.1041C16.212 36.481 17 37.2531 17 37.8199C17 38.4691 16.502 38.4315 15.658 37.7204C14.92 37.0987 14.006 36.9046 13.627 37.2897C13.247 37.6747 13.964 38.5686 15.219 39.2767C16.872 40.2083 17.052 40.573 15.872 40.5994C13.882 40.6431 11.739 38.2202 12.759 37.0784C13.166 36.6212 12.713 36.5349 11.75 36.8853C10.604 37.3039 10 37.0194 10 36.0635C10 35.202 10.597 34.8363 11.458 35.1716C13.464 35.9538 14.577 31.0471 13.127 27.8136C11.471 24.1219 11.805 23.554 14.033 26.2715C16.435 29.1992 16.548 28.4038 14.345 24.0762C12.806 21.0519 12.806 20.9229 14.345 22.2192C15.368 23.0806 16 23.1903 16 22.5057C16 21.8971 17.237 20.7167 18.75 19.8827C20.262 19.0486 21.038 18.3487 20.473 18.3264C19.907 18.304 18.474 18.9765 17.288 19.8207C15.699 20.9514 14.942 21.0438 14.411 20.1712C13.963 19.4337 14.126 19.261 14.845 19.713C15.536 20.1468 16 19.777 16 18.7937C16 17.8103 16.464 17.4405 17.155 17.8743C17.95 18.3741 18.03 18.1557 17.413 17.1733C15.544 14.1989 14.233 9.11644 15.18 8.52114C15.704 8.19302 16.403 8.1981 16.733 8.53333C17.063 8.86857 16.782 9.14286 16.108 9.14286C15.434 9.14286 15.19 9.64876 15.566 10.2674C16.048 11.0598 16.485 11.006 17.045 10.0846C17.482 9.36635 18.664 8.66032 19.67 8.51708C21.371 8.27429 21.363 8.3586 19.559 9.71479C18.491 10.5173 18.154 11.1746 18.809 11.1746C19.464 11.1746 19.888 11.6856 19.75 12.3093C19.611 12.9392 20.904 13.505 22.655 13.5792C24.39 13.6533 25.63 13.4197 25.41 13.059C25.191 12.6984 25.684 12.1417 26.506 11.8207C27.328 11.5007 27.993 10.6524 27.985 9.93625C27.974 9.02603 27.678 9.09308 27 10.1587C26.138 11.5129 26.016 11.5129 25.897 10.1587C25.823 9.32064 25.816 8.29156 25.882 7.87302C25.947 7.45448 25.498 7.11111 24.883 7.11111C24.232 7.11111 23.966 8.16864 24.245 9.65079C24.835 12.7898 23.65 12.9757 22.323 9.95251C21.698 8.5313 20.275 7.59975 18.42 7.39962C16.814 7.22591 14.999 7.0146 14.387 6.92825C13.775 6.84292 13.477 5.81994 13.724 4.65575C14.091 2.92571 13.978 2.81803 13.102 4.06349C12.513 4.90159 12.024 5.09257 12.015 4.48711C11.993 2.85257 12.529 2.56203 16.017 2.31924C18.581 2.14044 18.975 2.3619 18.07 3.47022ZM26.25 2.70425C25.563 2.98667 24.438 2.98667 23.75 2.70425C23.063 2.42286 23.625 2.19225 25 2.19225C26.375 2.19225 26.938 2.42286 26.25 2.70425ZM30 5.08444C28.845 5.84737 29.117 6.02819 31.178 5.86971C32.651 5.75695 33.637 5.30387 33.369 4.864C32.731 3.81562 31.834 3.87454 30 5.08444ZM21.457 11.1045C21.774 11.6246 21.65 12.29 21.183 12.5836C20.716 12.8772 20.333 12.4516 20.333 11.6378C20.333 9.92508 20.649 9.77575 21.457 11.1045ZM14.104 15.5388C13.299 16.3566 13.008 15.8486 13.03 13.6635C13.057 11.0364 13.193 10.8983 14.134 12.542C14.903 13.887 14.895 14.7352 14.104 15.5388ZM42.446 12.2789C42.106 12.8386 42.232 13.8463 42.726 14.5209C43.22 15.1944 43.596 16.6603 43.562 17.7778C43.516 19.2965 42.824 19.8014 40.825 19.775C39.353 19.7567 38.367 20.099 38.634 20.5369C38.9 20.9747 37.715 21.3333 36 21.3333C34.285 21.3333 33.09 20.991 33.345 20.5714C33.6 20.1519 31.714 19.7018 29.154 19.5698L24.5 19.33L28.5 20.8335C30.7 21.6604 34.868 22.269 37.762 22.1857C40.656 22.1034 43.319 22.334 43.679 22.6997C44.039 23.0654 43.332 23.3651 42.108 23.3651C40.879 23.3651 40.159 23.8202 40.5 24.381C41.455 25.9505 44.993 25.5807 45.65 23.8436C46.159 22.4945 46.405 22.5229 47.51 24.0589C48.635 25.6213 48.989 25.6549 50.536 24.3505C52.143 22.9953 52.231 23.0827 51.596 25.405C50.994 27.6084 51.054 27.6937 52.056 26.0612C53.701 23.3813 51.734 21.5172 49.292 23.4413C47.57 24.7985 47.57 24.77 49.289 22.7159C51.039 20.6253 50.995 20.5084 47.289 17.4212C44.412 15.0237 43.821 14.0485 44.834 13.3689C45.915 12.6425 45.874 12.3591 44.616 11.8684C43.762 11.5352 42.786 11.7201 42.446 12.2789ZM38.683 14.4132C38.364 15.2229 38.127 14.9821 38.079 13.7986C38.036 12.7279 38.272 12.1285 38.604 12.4658C38.936 12.803 38.972 13.6797 38.683 14.4132ZM51.872 18.0317C50.629 19.6429 50.664 19.6785 52.25 18.4157C53.212 17.6488 54 16.8483 54 16.638C54 15.8019 53.179 16.3393 51.872 18.0317ZM48.804 19.5698C49.606 20.5511 49.164 20.8813 46.926 20.9747C45.317 21.0418 44 20.6649 44 20.1387C44 19.6124 44.419 19.4448 44.931 19.7658C45.443 20.0879 46.144 19.8857 46.49 19.3178C47.297 17.9911 47.536 18.0175 48.804 19.5698ZM25.447 24.4673C25.125 24.9966 24.436 25.1622 23.915 24.835C23.394 24.5079 23.231 23.808 23.553 23.2787C23.875 22.7495 24.564 22.5839 25.085 22.911C25.606 23.2381 25.769 23.938 25.447 24.4673ZM37.143 24.2692C36.309 24.8066 36.172 25.3846 36.788 25.7717C37.34 26.1181 38.048 25.7178 38.364 24.8828C39.026 23.1284 38.964 23.0979 37.143 24.2692ZM16.769 25.8204C17.144 26.4249 17.356 27.8349 17.241 28.9524L17.033 30.9841L17.946 28.9524C19.294 25.9535 19.177 24.7192 17.544 24.7192C16.743 24.7192 16.394 25.215 16.769 25.8204ZM32.143 26.301C31.197 26.9105 31.122 27.3849 31.893 27.8695C32.502 28.2514 33 28.0533 33 27.4286C33 26.8038 33.45 26.5752 34 26.9206C34.55 27.266 35 27.0639 35 26.4726C35 25.1794 33.981 25.1185 32.143 26.301ZM11.683 29.6513C11.364 30.461 11.127 30.2202 11.079 29.0367C11.036 27.966 11.272 27.3666 11.604 27.7039C11.936 28.0411 11.972 28.9178 11.683 29.6513ZM32.362 33.0159C31.411 35.5322 32.782 37.5873 35.41 37.5873C38.358 37.5873 39.358 36.2687 38.497 33.5147C37.741 31.0938 33.226 30.7261 32.362 33.0159ZM24.441 34.0876C22.577 35.6053 22.589 35.6236 24.75 34.56C25.988 33.9505 27 33.2394 27 32.9803C27 32.2032 26.481 32.4277 24.441 34.0876ZM37 34.5397C37 35.6571 36.352 36.5714 35.559 36.5714C33.792 36.5714 32.663 34.8993 33.5 33.5238C34.587 31.7359 37 32.4368 37 34.5397ZM59.729 35.1533C59.397 35.4905 58.534 35.5271 57.813 35.2335C57.015 34.9095 57.252 34.6687 58.417 34.6199C59.471 34.5763 60.061 34.816 59.729 35.1533ZM21.473 37.632C21.118 38.2151 21.268 39.2432 21.806 39.9177C22.344 40.5912 23.006 42.0571 23.276 43.1746C23.547 44.2921 23.82 43.263 23.884 40.8889C23.994 36.799 22.888 35.3057 21.473 37.632ZM56 41.1429C56 41.981 56.436 42.6667 56.969 42.6667C57.501 42.6667 57.678 41.981 57.362 41.1429C57.045 40.3048 56.609 39.619 56.393 39.619C56.177 39.619 56 40.3048 56 41.1429ZM20.33 42.0754C20.699 43.0507 21.01 44.6111 21.022 45.5436C21.034 46.4752 21.913 48.381 22.974 49.7778C24.84 52.2352 24.897 52.2464 24.744 50.1018C24.656 48.8838 24.275 48.0813 23.897 48.319C23.06 48.8442 22 46.2405 22 43.6592C22 42.621 21.474 41.4405 20.83 41.0362C20.032 40.5354 19.873 40.8655 20.33 42.0754ZM14.368 43.4651C14.635 43.904 14.019 44.2626 13 44.2626C11.981 44.2626 11.365 43.904 11.632 43.4651C11.9 43.0263 12.515 42.6667 13 42.6667C13.485 42.6667 14.1 43.0263 14.368 43.4651ZM8 50.3304C8 50.4483 8.6 51.0507 9.333 51.6693C10.33 52.5095 10.667 52.4546 10.667 51.455C10.667 50.7185 10.067 50.1161 9.333 50.1161C8.6 50.1161 8 50.2126 8 50.3304ZM14 53.2734C14 53.5203 13.55 54.0038 13 54.3492C12.45 54.6946 12 54.4924 12 53.9012C12 53.31 12.45 52.8254 13 52.8254C13.55 52.8254 14 53.0265 14 53.2734ZM50 54.9171C50 55.5083 49.48 55.6668 48.845 55.2686C48.114 54.8084 47.963 54.9902 48.435 55.7653C49.004 56.701 49.509 56.7091 50.589 55.7978C52.254 54.3939 52.371 53.8413 51 53.8413C50.45 53.8413 50 54.3258 50 54.9171ZM38.264 56.6024C39.784 56.835 42.034 56.829 43.264 56.5882C44.494 56.3474 43.25 56.1564 40.5 56.1636C37.75 56.1717 36.744 56.3688 38.264 56.6024ZM31.813 57.5827C32.534 57.8763 33.397 57.8397 33.729 57.5025C34.061 57.1652 33.471 56.9255 32.417 56.9691C31.252 57.0179 31.015 57.2587 31.813 57.5827ZM37.762 58.623C39.006 58.8658 40.806 58.8566 41.762 58.6027C42.718 58.3487 41.7 58.1496 39.5 58.1608C37.3 58.1719 36.518 58.3802 37.762 58.623Z" fill="#798B8D"/>
<path fill-rule="evenodd" clip-rule="evenodd" d="M0 32V64H32H64V32V0H32H0V32ZM37.51 6.25168C37.515 8.12089 37.878 10.6626 38.315 11.8979C39.164 14.2943 37.658 18.2857 35.906 18.2857C35.343 18.2857 35.203 17.7575 35.595 17.1124C36.028 16.4023 35.871 16.2154 35.198 16.638C34.587 17.021 34.345 18.0175 34.66 18.8526C35.045 19.8715 35.614 20.0483 36.392 19.393C37.029 18.8556 38.759 18.2522 40.237 18.051C41.715 17.8499 43.239 17.3653 43.624 16.9742C44.009 16.5831 45.938 17.4395 47.912 18.8759C51.367 21.3923 51.352 21.3537 47.5 17.853C44.192 14.847 43.759 14.0455 45 13.2196C46.265 12.3774 46.208 12.2189 44.633 12.2057C43.257 12.1945 42.904 12.7238 43.289 14.2212C43.992 16.9498 42.32 17.8621 41.489 15.2046C40.657 12.541 42.573 10.1587 45.546 10.1587C48.589 10.1587 53.931 14.8216 55.636 18.9674C57.798 24.2235 57.201 33.3816 54.795 31.872C54.192 31.4931 54.219 32.0417 54.865 33.2678C55.451 34.3792 55.608 35.6764 55.215 36.1509C54.822 36.6243 55.266 36.418 56.202 35.6917C58.529 33.8875 62 35.1644 62 37.825C62 38.9984 61.721 39.6749 61.381 39.3285C61.04 38.9831 60.104 39.3681 59.3 40.1849C58.496 41.0017 57.356 41.3664 56.765 40.9956C56.123 40.5923 55.982 40.7995 56.415 41.5106C56.813 42.1648 57.67 42.3761 58.319 41.9799C59.003 41.5634 58.927 41.9789 58.138 42.9663C57.389 43.905 57.035 45.3587 57.352 46.1968C57.687 47.0827 57.42 47.6201 56.714 47.4799C56.046 47.3468 55.632 48.0386 55.794 49.0159C55.955 49.9942 55.693 50.7937 55.211 50.7937C54.728 50.7937 54.333 51.4296 54.333 52.2067C54.333 55.1944 51.698 60.0361 50.357 59.5139C49.611 59.2224 49 59.4763 49 60.0767C49 60.6781 48.325 60.9067 47.5 60.5846C46.675 60.2636 46 60.3937 46 60.8752C46 61.3567 42.625 61.7336 38.5 61.7143C34.375 61.694 31 61.2592 31 60.7472C31 60.2352 30.565 60.0899 30.034 60.4231C28.731 61.2409 20.785 57.0484 21.478 55.9086C21.78 55.4128 20.434 55.2076 18.488 55.4524C14.087 56.0071 9.883 53.89 6.882 49.6102C5.631 47.8243 5.14 46.6977 5.792 47.107C6.557 47.5876 6.783 47.3366 6.428 46.398C6.126 45.5985 5.119 45.0032 4.19 45.0753C3.02 45.1657 2.5 44.4251 2.5 42.6667C2.5 41.1764 3.017 40.2316 3.75 40.381C4.437 40.5201 4.887 40.0904 4.75 39.425C4.349 37.4877 7.979 37.2531 9.975 39.0877C11.261 40.2702 12.009 40.4267 12.502 39.616C12.887 38.9831 13.832 38.7098 14.601 39.0095C15.371 39.3102 16 39.166 16 38.6895C16 38.2141 15.099 37.5853 13.999 37.2927C12.898 37.0001 12.23 37.1434 12.515 37.6117C12.8 38.08 12.622 38.72 12.121 39.0349C11.62 39.3498 10.937 38.8866 10.605 38.0058C9.617 35.392 9.908 34.2867 11.427 34.879C12.597 35.3351 12.671 34.9003 11.838 32.4734C11.067 30.2263 11.225 28.2809 12.491 24.4074C13.41 21.5995 14.607 19.3016 15.152 19.3016C15.697 19.3016 15.436 18.5834 14.571 17.7057C12.823 15.9299 12.541 12.4688 13.958 10.1933C14.559 9.22819 14.465 8.17473 13.693 7.20457C12.725 5.98756 12.782 5.85143 14 6.4833C14.825 6.912 14.667 6.5727 13.65 5.73054C10.24 2.90743 12.722 2.22476 25.248 2.54273L37.5 2.85359L37.51 6.25168ZM18 5.07937C18.825 5.62083 20.175 6.03937 21 6.00787C21.989 5.9713 21.819 5.65537 20.5 5.07937C17.751 3.87962 16.172 3.87962 18 5.07937ZM29.813 5.77321C30.534 6.06679 31.397 6.03022 31.729 5.69295C32.061 5.35568 31.471 5.11594 30.417 5.15962C29.252 5.20838 29.015 5.44914 29.813 5.77321ZM34.872 7.87302C33.629 9.48419 33.664 9.51975 35.25 8.25702C36.212 7.49003 37 6.68952 37 6.47924C37 5.64317 36.179 6.18057 34.872 7.87302ZM17.097 8.43479C16.494 9.04737 16.014 10.0297 16.03 10.6159C16.047 11.202 16.504 10.9105 17.046 9.96572C17.637 8.93765 18.881 8.41651 20.151 8.66438C21.317 8.89295 21.972 8.77511 21.606 8.40432C20.473 7.25333 18.246 7.26756 17.097 8.43479ZM30.485 9.16825C30.136 9.74019 30.222 10.0836 30.676 9.93016C31.129 9.77676 31.613 9.99416 31.75 10.4127C32.338 12.2057 31.903 13.2063 30.535 13.2063C29.73 13.2063 28.589 14.1206 28 15.2381C27.274 16.6156 27.263 17.2698 27.965 17.2698C28.534 17.2698 29 16.5841 29 15.746C29 14.9079 29.45 14.2222 30 14.2222C30.55 14.2222 31 14.9079 31 15.746C31 16.5841 31.477 17.2698 32.059 17.2698C32.641 17.2698 32.837 16.8086 32.494 16.2448C31.359 14.3787 32.98 11.2305 34.725 11.9111C35.842 12.3459 35.67 11.8552 34.174 10.3355C31.704 7.82629 31.366 7.71962 30.485 9.16825ZM26.564 10.877C26.022 12.3246 26.136 12.4414 27.124 11.4458C27.808 10.7561 28.115 9.93625 27.807 9.62438C27.499 9.31149 26.94 9.8753 26.564 10.877ZM15.116 13.8443C15.052 15.0329 15.787 16.6329 16.75 17.3999C18.272 18.6118 18.351 18.5956 17.358 17.2698C16.729 16.4317 15.994 14.8317 15.724 13.7143C15.257 11.7841 15.226 11.7912 15.116 13.8443ZM48.399 14.4762C48.003 15.1751 48.048 15.4067 48.498 14.9933C48.948 14.5788 50.032 14.8074 50.908 15.5012C52.317 16.6166 52.342 16.5567 51.128 14.9841C49.492 12.865 49.328 12.8345 48.399 14.4762ZM17.223 19.8674C16 20.737 15 21.9672 15 22.6011C15 23.235 15.563 23.037 16.25 22.1613C16.938 21.2866 18.4 20.0696 19.5 19.459C20.6 18.8475 21.038 18.3335 20.473 18.3162C19.907 18.2999 18.445 18.9978 17.223 19.8674ZM43.186 19.519C41.575 21.1556 41.694 22.3492 43.469 22.3492C44.436 22.3492 44.727 21.7417 44.32 20.5714C43.981 19.5942 45.12 20.3622 46.852 22.2781C49.587 25.3054 51.308 25.7239 49.235 22.8571C47.051 19.838 44.343 18.3436 43.186 19.519ZM26.25 20.0015C27.212 20.2575 28.788 20.2575 29.75 20.0015C30.712 19.7465 29.925 19.5373 28 19.5373C26.075 19.5373 25.288 19.7465 26.25 20.0015ZM39.904 20.7543C39.667 20.994 36.892 21.3344 33.737 21.5101C30.582 21.6858 28 22.2314 28 22.722C28 23.2127 27.306 23.0288 26.458 22.3137C25.253 21.2978 24.651 21.2815 23.708 22.2395C23.043 22.915 22.444 23.9015 22.375 24.4317C22.306 24.963 22.159 25.5116 22.048 25.6508C21.937 25.79 21.768 27.3057 21.673 29.0174C21.522 31.7399 21.784 32.0742 23.765 31.6891C25.01 31.4474 26.274 30.847 26.574 30.3553C27.429 28.9483 29.201 29.31 28.412 30.7302C27.884 31.68 28.013 31.7135 28.923 30.8632C30.128 29.7356 30.776 27.5545 30.923 24.127C30.984 22.7129 31.907 22.3492 35.441 22.3492C37.884 22.3492 40.16 21.8921 40.5 21.3333C41.117 20.3185 40.716 19.9284 39.904 20.7543ZM26 23.1954C26 24.5181 24.811 25.3978 23.844 24.7914C22.81 24.1422 23.702 22.3492 25.059 22.3492C25.577 22.3492 26 22.7302 26 23.1954ZM51.564 23.6627C51.94 24.6644 52.499 25.2282 52.807 24.9153C53.115 24.6034 52.808 23.7836 52.124 23.0938C51.136 22.0983 51.022 22.2151 51.564 23.6627ZM54.232 25.3968C54.232 27.3524 54.438 28.1519 54.689 27.1746C54.941 26.1973 54.941 24.5963 54.689 23.619C54.438 22.6418 54.232 23.4413 54.232 25.3968ZM37.143 24.2692C36.309 24.8066 36.172 25.3846 36.788 25.7717C37.34 26.1181 38.048 25.7178 38.364 24.8828C39.026 23.1284 38.964 23.0979 37.143 24.2692ZM41.25 24.065C42.212 24.321 43.788 24.321 44.75 24.065C45.712 23.81 44.925 23.6008 43 23.6008C41.075 23.6008 40.288 23.81 41.25 24.065ZM14.031 24.8889C14.031 25.4476 14.467 26.5905 15 27.4286C15.533 28.2667 15.969 28.4952 15.969 27.9365C15.969 27.3778 15.533 26.2349 15 25.3968C14.467 24.5587 14.031 24.3302 14.031 24.8889ZM18.079 25.9891C18.127 27.1726 18.364 27.4133 18.683 26.6037C18.972 25.8702 18.936 24.9935 18.604 24.6563C18.272 24.319 18.036 24.9184 18.079 25.9891ZM32.143 26.301C31.197 26.9105 31.122 27.3849 31.893 27.8695C32.502 28.2514 33 28.0533 33 27.4286C33 26.8038 33.45 26.5752 34 26.9206C34.55 27.266 35 27.0639 35 26.4726C35 25.1794 33.981 25.1185 32.143 26.301ZM13.195 30.9841C13.215 32.6603 13.439 33.2231 13.693 32.2347C13.947 31.2462 13.93 29.8748 13.656 29.1871C13.382 28.4993 13.175 29.3079 13.195 30.9841ZM32.667 32.1697C31.764 33.087 31.821 36.3388 32.75 36.9219C33.163 37.181 33.5 36.0655 33.5 34.4432C33.5 32.8198 33.462 31.4921 33.417 31.4921C33.371 31.4921 33.033 31.7968 32.667 32.1697ZM15.559 34.0643C14.491 34.8841 14.099 35.5556 14.686 35.5556C15.274 35.5556 16.315 34.8698 17 34.0317C18.557 32.126 18.067 32.1361 15.559 34.0643ZM38 34.7937C38 35.6785 37.438 36.6324 36.75 36.9148C35.771 37.3161 35.778 37.4441 36.781 37.5071C38.207 37.5964 39.599 34.8099 38.624 33.8184C38.281 33.47 38 33.9088 38 34.7937ZM18 37.0794C18 38.4762 18.173 39.619 18.383 39.619C18.594 39.619 18.982 38.4762 19.245 37.0794C19.508 35.6825 19.335 34.5397 18.861 34.5397C18.388 34.5397 18 35.6825 18 37.0794ZM21.459 37.6554C21.096 38.2507 21.07 39.0126 21.4 39.3478C21.73 39.6831 22 39.3976 22 38.7129C22 38.0282 22.52 37.7935 23.155 38.1917C23.87 38.6418 24.038 38.4711 23.595 37.7448C22.711 36.291 22.299 36.2738 21.459 37.6554ZM57.813 37.2653C58.534 37.5589 59.397 37.5223 59.729 37.185C60.061 36.8477 59.471 36.608 58.417 36.6517C57.252 36.7004 57.015 36.9412 57.813 37.2653ZM6 39.0024C6 39.2218 6.698 39.6739 7.552 40.0071C8.442 40.3535 8.843 40.1829 8.493 39.6079C7.906 38.6418 6 38.1796 6 39.0024ZM11.948 42.5051C10.357 43.8136 10.032 44.5978 10.862 45.12C11.553 45.5538 11.935 45.3557 11.775 44.6466C11.624 43.9771 12.077 43.2142 12.781 42.9521C13.486 42.69 13.936 42.9308 13.781 43.4855C13.627 44.0411 13.929 44.4262 14.454 44.3429C15.559 44.1661 16.025 40.6349 14.944 40.6349C14.547 40.6349 13.199 41.4761 11.948 42.5051ZM22 48.13C22 48.3403 22.788 49.1408 23.75 49.9078C25.336 51.1705 25.371 51.135 24.128 49.5238C22.821 47.8314 22 47.294 22 48.13ZM15.527 51.7648C15.202 52.2992 14.163 52.4719 13.218 52.1478C12.157 51.7851 12.386 52.2301 13.815 53.312C15.088 54.2761 16.4 54.7891 16.731 54.4528C17.062 54.1166 16.753 53.8413 16.044 53.8413C15.012 53.8413 15.003 53.5375 16 52.3175C16.685 51.4794 16.991 50.7937 16.681 50.7937C16.372 50.7937 15.852 51.2305 15.527 51.7648ZM40.269 56.577C41.242 56.8351 42.592 56.8178 43.269 56.5394C43.946 56.2611 43.15 56.0508 41.5 56.0711C39.85 56.0914 39.296 56.319 40.269 56.577ZM37.762 58.623C39.006 58.8658 40.806 58.8566 41.762 58.6027C42.718 58.3487 41.7 58.1496 39.5 58.1608C37.3 58.1719 36.518 58.3802 37.762 58.623Z" fill="#576A71"/>
<path fill-rule="evenodd" clip-rule="evenodd" d="M0 32V64H32H64V32V0H32H0V32ZM37.51 6.25168C37.515 8.12089 37.89 10.7022 38.343 11.9863C38.904 13.5782 38.671 15.0888 37.611 16.7324C36.073 19.1167 36.088 19.134 38.953 18.2999C40.546 17.8357 42.148 17.7564 42.514 18.1242C42.879 18.493 42.622 17.5502 41.942 16.0305C39.238 9.984 45.633 8.10972 51.404 13.2571C56.692 17.9738 57.648 22.2304 55.84 33.0159C55.624 34.3091 55.992 34.943 56.854 34.7581C59.094 34.2796 62 35.5992 62 37.0956C62 37.8667 60.847 39.7623 59.439 41.3064C57.955 42.9318 57.074 44.8782 57.346 45.9307C57.603 46.9313 57.405 47.4931 56.907 47.1792C56.408 46.8663 56 47.2625 56 48.0589C56 48.8554 55.065 51.7912 53.923 54.5839C52.156 58.9044 51.281 59.8339 48.057 60.8152C41.523 62.8043 32.125 62.2436 26.373 59.523C23.552 58.1892 20.937 56.5923 20.561 55.9736C20.185 55.3559 18.828 55.1172 17.546 55.4443C14.425 56.2397 9.677 53.6117 6.879 49.539C5.626 47.7145 4.015 45.8565 3.3 45.4095C1.514 44.2941 1.67 41.6731 3.655 39.4453C5.457 37.4217 8.05 37.0286 9.55 38.5514C10.15 39.1609 10.587 37.4938 10.736 34.0297C10.865 31.0116 11.8 26.3264 12.814 23.616C14.189 19.9406 14.402 18.11 13.653 16.4043C12.989 14.8927 12.983 13.1921 13.636 11.3778C14.364 9.35416 14.256 8.04673 13.225 6.39391C12.457 5.16165 12.091 3.72114 12.412 3.19289C12.745 2.64533 18.27 2.36597 25.248 2.54273L37.5 2.85359L37.51 6.25168ZM18 5.07937C18.825 5.62083 20.175 6.03937 21 6.00787C21.989 5.9713 21.819 5.65537 20.5 5.07937C17.751 3.87962 16.172 3.87962 18 5.07937ZM29.813 5.77321C30.534 6.06679 31.397 6.03022 31.729 5.69295C32.061 5.35568 31.471 5.11594 30.417 5.15962C29.252 5.20838 29.015 5.44914 29.813 5.77321ZM17.033 8.49981C16.465 9.07683 16.014 10.0297 16.03 10.6159C16.047 11.202 16.525 10.8729 17.092 9.88343C17.659 8.89397 18.514 8.33016 18.992 8.62984C19.471 8.93054 20.098 8.7873 20.387 8.31289C21.136 7.08165 18.272 7.24114 17.033 8.49981ZM30.507 9.13168C30.157 9.70667 30.558 9.87733 31.448 9.53092C33.18 8.85537 33.497 8.12698 32.059 8.12698C31.541 8.12698 30.843 8.57905 30.507 9.13168ZM26.564 10.877C26.022 12.3246 26.136 12.4414 27.124 11.4458C27.808 10.7561 28.115 9.93625 27.807 9.62438C27.499 9.31149 26.94 9.8753 26.564 10.877ZM15.116 13.8443C15.052 15.0329 15.787 16.6329 16.75 17.3999C18.272 18.6118 18.351 18.5956 17.358 17.2698C16.729 16.4317 15.994 14.8317 15.724 13.7143C15.257 11.7841 15.226 11.7912 15.116 13.8443ZM43 13.629C43 14.4203 44.913 16.5201 47.25 18.2969L51.5 21.5253L47.5 17.8723C44.191 14.849 43.759 14.0455 45 13.2196C46.284 12.3652 46.248 12.2189 44.75 12.2057C43.788 12.1976 43 12.8376 43 13.629ZM31 15.2381C31 16.3556 31.408 17.2698 31.906 17.2698C32.405 17.2698 32.577 16.3556 32.29 15.2381C32.002 14.1206 31.594 13.2063 31.383 13.2063C31.173 13.2063 31 14.1206 31 15.2381ZM48.399 14.4762C48.003 15.1751 48.048 15.4067 48.498 14.9933C48.948 14.5788 50.032 14.8074 50.908 15.5012C52.317 16.6166 52.342 16.5567 51.128 14.9841C49.492 12.865 49.328 12.8345 48.399 14.4762ZM27.638 15.746C27.322 16.5841 27.499 17.2698 28.031 17.2698C28.564 17.2698 29 16.5841 29 15.746C29 14.9079 28.823 14.2222 28.607 14.2222C28.391 14.2222 27.955 14.9079 27.638 15.746ZM44.987 19.8095C47.119 22.7911 50.002 25.598 49.985 24.6745C49.962 23.5043 48.82 22.1034 46.017 19.8095L43.534 17.7778L44.987 19.8095ZM26.25 20.0015C27.212 20.2575 28.788 20.2575 29.75 20.0015C30.712 19.7465 29.925 19.5373 28 19.5373C26.075 19.5373 25.288 19.7465 26.25 20.0015ZM15.459 21.4014C15.096 21.9967 15.014 22.7027 15.276 22.9689C15.538 23.235 16.019 22.7474 16.345 21.885C17.021 20.095 16.445 19.7801 15.459 21.4014ZM22.872 23.1111C21.603 24.7558 21.65 24.7771 23.5 23.3986C24.6 22.5788 25.688 21.7793 25.917 21.6208C26.146 21.4624 25.863 21.3333 25.289 21.3333C24.715 21.3333 23.627 22.1338 22.872 23.1111ZM26.935 23.6861C23.611 25.472 22.402 26.7977 21.921 29.185C21.4 31.7735 21.573 32.2408 22.894 31.8202C25.768 30.9059 34.952 26.0257 34.556 25.6234C34.345 25.408 33.299 25.7067 32.233 26.2867C30.527 27.2142 30.349 27.0466 30.754 24.896C31.148 22.8043 31.883 22.397 35.857 22.0759L40.5 21.699L35.907 21.5162C32.76 21.3912 29.936 22.0739 26.935 23.6861ZM51.564 23.6627C51.94 24.6644 52.499 25.2282 52.807 24.9153C53.115 24.6034 52.808 23.7836 52.124 23.0938C51.136 22.0983 51.022 22.2151 51.564 23.6627ZM54.232 25.3968C54.232 27.3524 54.438 28.1519 54.689 27.1746C54.941 26.1973 54.941 24.5963 54.689 23.619C54.438 22.6418 54.232 23.4413 54.232 25.3968ZM37 24.381C36.099 24.9722 35.975 25.3714 36.691 25.3816C37.346 25.3897 38.16 24.9397 38.5 24.381C39.267 23.1192 38.921 23.1192 37 24.381ZM41.25 24.065C42.212 24.321 43.788 24.321 44.75 24.065C45.712 23.81 44.925 23.6008 43 23.6008C41.075 23.6008 40.288 23.81 41.25 24.065ZM14.031 24.8889C14.031 25.4476 14.467 26.5905 15 27.4286C15.533 28.2667 15.969 28.4952 15.969 27.9365C15.969 27.3778 15.533 26.2349 15 25.3968C14.467 24.5587 14.031 24.3302 14.031 24.8889ZM18.079 25.9891C18.127 27.1726 18.364 27.4133 18.683 26.6037C18.972 25.8702 18.936 24.9935 18.604 24.6563C18.272 24.319 18.036 24.9184 18.079 25.9891ZM13.195 30.9841C13.215 32.6603 13.439 33.2231 13.693 32.2347C13.947 31.2462 13.93 29.8748 13.656 29.1871C13.382 28.4993 13.175 29.3079 13.195 30.9841ZM15.559 34.0643C14.491 34.8841 14.099 35.5556 14.686 35.5556C15.274 35.5556 16.315 34.8698 17 34.0317C18.557 32.126 18.067 32.1361 15.559 34.0643ZM18 37.0794C18 38.4762 18.173 39.619 18.383 39.619C18.594 39.619 18.982 38.4762 19.245 37.0794C19.508 35.6825 19.335 34.5397 18.861 34.5397C18.388 34.5397 18 35.6825 18 37.0794ZM12.333 38.017C12.333 38.6591 13.158 39.1832 14.167 39.1832C15.175 39.1832 16 38.8775 16 38.5036C16 38.1298 15.175 37.6056 14.167 37.3374C13.158 37.0692 12.333 37.375 12.333 38.017ZM21.459 37.6554C21.096 38.2507 21.014 38.9567 21.276 39.2229C21.538 39.489 22.019 39.0014 22.345 38.1389C23.021 36.349 22.445 36.034 21.459 37.6554ZM57.813 37.2653C58.534 37.5589 59.397 37.5223 59.729 37.185C60.061 36.8477 59.471 36.608 58.417 36.6517C57.252 36.7004 57.015 36.9412 57.813 37.2653ZM6 39.0024C6 39.2218 6.698 39.6739 7.552 40.0071C8.442 40.3535 8.843 40.1829 8.493 39.6079C7.906 38.6418 6 38.1796 6 39.0024ZM12.835 42.5417C13.57 43.0151 14.132 43.6937 14.085 44.0503C14.038 44.4069 14.225 44.6984 14.5 44.6984C14.775 44.6984 15 44.4698 15 44.1905C15 43.9111 15 43.2254 15 42.6667C15 42.1079 14.213 41.6579 13.25 41.666C11.908 41.6782 11.812 41.8824 12.835 42.5417ZM15.527 51.7648C15.202 52.2992 14.275 52.479 13.468 52.1641C12.661 51.8502 12 51.8207 12 52.1001C12 53.4349 14.992 53.5518 16.049 52.2575C16.707 51.4519 16.991 50.7937 16.681 50.7937C16.372 50.7937 15.852 51.2305 15.527 51.7648Z" fill="white"/>
</g>
<defs>
<clipPath id="clip0_1_2">
<rect width="64" height="64" rx="32" fill="white"/>
</clipPath>
</defs>
</svg>
