<svg width="250" height="250" viewBox="0 0 250 250" fill="none" xmlns="http://www.w3.org/2000/svg">
<g clip-path="url(#clip0_1_2)">
<path fill-rule="evenodd" clip-rule="evenodd" d="M104 1.69544C53.859 10.3899 13.609 48.2034 2.42201 97.127C0.379005 106.062 0.0180054 110.243 0.0180054 125C0.0180054 139.844 0.373006 143.914 2.46601 153.068C13.123 199.673 50.008 236.097 97.259 246.678C107.779 249.033 109.783 249.165 128.5 248.74C150.27 248.246 157.556 246.874 173.677 240.232C210.599 225.022 238.667 191.842 247.578 152.873C249.621 143.938 249.982 139.757 249.982 125C249.982 110.156 249.627 106.086 247.534 96.9315C236.929 50.5516 200.029 13.9563 153.254 3.43056C143.834 1.31052 140.266 1.0258 124.5 1.13592C114.6 1.20536 105.375 1.45735 104 1.69544Z" fill="#0000FF"/>
<path fill-rule="evenodd" clip-rule="evenodd" d="M96.432 3.44347C48.595 14.4325 11.487 52.6131 1.518 101.101C0.158003 107.72 -0.0969966 113.139 0.239003 128.342C0.609003 145.051 0.983003 148.509 3.36 157.242C4.862 162.762 8.668 172.461 11.939 179.107C29.081 213.939 59.647 238.22 96.904 246.605C105.91 248.632 110.125 248.99 125 248.99C139.875 248.99 144.09 248.632 153.096 246.605C201.217 235.775 238.465 197.622 248.482 148.899C249.842 142.28 250.097 136.861 249.761 121.658C249.391 104.949 249.017 101.491 246.64 92.7579C245.138 87.2381 241.332 77.5387 238.061 70.8929C220.919 36.0615 190.353 11.7798 153.096 3.39486C143.945 1.33533 140.045 1.01787 124.5 1.07045C109.34 1.12105 104.912 1.49505 96.432 3.44347Z" fill="#C4D7FF"/>
<path fill-rule="evenodd" clip-rule="evenodd" d="M96.432 3.44347C48.595 14.4325 11.487 52.6131 1.518 101.101C0.158003 107.72 -0.0969966 113.139 0.239003 128.342C0.609003 145.051 0.983003 148.509 3.36 157.242C4.862 162.762 8.668 172.461 11.939 179.107C29.081 213.939 59.647 238.22 96.904 246.605C105.91 248.632 110.125 248.99 125 248.99C139.875 248.99 144.09 248.632 153.096 246.605C201.217 235.775 238.465 197.622 248.482 148.899C249.842 142.28 250.097 136.861 249.761 121.658C249.391 104.949 249.017 101.491 246.64 92.7579C245.138 87.2381 241.332 77.5387 238.061 70.8929C220.919 36.0615 190.353 11.7798 153.096 3.39486C143.945 1.33533 140.045 1.01787 124.5 1.07045C109.34 1.12105 104.912 1.49505 96.432 3.44347ZM116.729 13.496C116.397 13.8254 115.534 13.8611 114.813 13.5744C114.015 13.2579 114.252 13.0228 115.417 12.9752C116.471 12.9325 117.061 13.1667 116.729 13.496ZM135.729 13.496C135.397 13.8254 134.534 13.8611 133.813 13.5744C133.015 13.2579 133.252 13.0228 134.417 12.9752C135.471 12.9325 136.061 13.1667 135.729 13.496ZM174 89.7818C175.292 91.1458 176.124 92.2619 175.849 92.2619C175.574 92.2619 174.292 91.1458 173 89.7818C171.708 88.4177 170.876 87.3016 171.151 87.3016C171.426 87.3016 172.708 88.4177 174 89.7818ZM180.707 107.379C180.468 108.613 180.263 107.837 180.252 105.655C180.241 103.472 180.437 102.462 180.687 103.411C180.937 104.359 180.946 106.145 180.707 107.379ZM12.683 116.258C12.364 117.049 12.127 116.814 12.079 115.658C12.036 114.612 12.272 114.027 12.604 114.356C12.936 114.686 12.972 115.542 12.683 116.258ZM237.683 116.258C237.364 117.049 237.127 116.814 237.079 115.658C237.036 114.612 237.272 114.027 237.604 114.356C237.936 114.686 237.972 115.542 237.683 116.258ZM12.683 135.107C12.364 135.898 12.127 135.663 12.079 134.507C12.036 133.461 12.272 132.876 12.604 133.205C12.936 133.535 12.972 134.391 12.683 135.107ZM237.683 135.107C237.364 135.898 237.127 135.663 237.079 134.507C237.036 133.461 237.272 132.876 237.604 133.205C237.936 133.535 237.972 134.391 237.683 135.107ZM71 148.207C71 148.422 70.302 148.863 69.448 149.189C68.558 149.527 68.157 149.36 68.507 148.799C69.094 147.855 71 147.404 71 148.207ZM177.683 153.956C177.364 154.747 177.127 154.512 177.079 153.356C177.036 152.311 177.272 151.725 177.604 152.055C177.936 152.384 177.972 153.24 177.683 153.956ZM143.269 182.198C142.592 182.47 141.242 182.487 140.269 182.235C139.296 181.983 139.85 181.761 141.5 181.741C143.15 181.721 143.946 181.927 143.269 182.198ZM150.269 182.198C149.592 182.47 148.242 182.487 147.269 182.235C146.296 181.983 146.85 181.761 148.5 181.741C150.15 181.721 150.946 181.927 150.269 182.198ZM116.729 236.71C116.397 237.04 115.534 237.075 114.813 236.789C114.015 236.472 114.252 236.237 115.417 236.189C116.471 236.147 117.061 236.381 116.729 236.71ZM135.729 236.71C135.397 237.04 134.534 237.075 133.813 236.789C133.015 236.472 133.252 236.237 134.417 236.189C135.471 236.147 136.061 236.381 135.729 236.71Z" fill="#99BAFF"/>
<path fill-rule="evenodd" clip-rule="evenodd" d="M96.432 3.44347C48.595 14.4325 11.487 52.6131 1.518 101.101C0.158003 107.72 -0.0969966 113.139 0.239003 128.342C0.609003 145.051 0.983003 148.509 3.36 157.242C4.862 162.762 8.668 172.461 11.939 179.107C29.081 213.939 59.647 238.22 96.904 246.605C105.91 248.632 110.125 248.99 125 248.99C139.875 248.99 144.09 248.632 153.096 246.605C201.217 235.775 238.465 197.622 248.482 148.899C249.842 142.28 250.097 136.861 249.761 121.658C249.391 104.949 249.017 101.491 246.64 92.7579C245.138 87.2381 241.332 77.5387 238.061 70.8929C220.919 36.0615 190.353 11.7798 153.096 3.39486C143.945 1.33533 140.045 1.01787 124.5 1.07045C109.34 1.12105 104.912 1.49505 96.432 3.44347ZM115.75 13.5804C114.787 13.8304 113.213 13.8304 112.25 13.5804C111.287 13.3314 112.075 13.127 114 13.127C115.925 13.127 116.713 13.3314 115.75 13.5804ZM137.75 13.5804C136.787 13.8304 135.213 13.8304 134.25 13.5804C133.287 13.3314 134.075 13.127 136 13.127C137.925 13.127 138.713 13.3314 137.75 13.5804ZM107.729 14.4881C107.397 14.8175 106.534 14.8532 105.813 14.5665C105.015 14.25 105.252 14.0149 106.417 13.9673C107.471 13.9246 108.061 14.1587 107.729 14.4881ZM144.729 14.4881C144.397 14.8175 143.534 14.8532 142.813 14.5665C142.015 14.25 142.252 14.0149 143.417 13.9673C144.471 13.9246 145.061 14.1587 144.729 14.4881ZM176.493 24.7907C176.843 25.3522 176.442 25.5189 175.552 25.1806C173.82 24.5208 173.503 23.8095 174.941 23.8095C175.459 23.8095 176.157 24.251 176.493 24.7907ZM56 36.0566C56 36.245 54.987 37.249 53.75 38.2887L51.5 40.1786L53.405 37.9464C55.195 35.8492 56 35.2629 56 36.0566ZM196.5 37.6984C197.495 38.7897 198.085 39.6825 197.81 39.6825C197.535 39.6825 196.495 38.7897 195.5 37.6984C194.505 36.6071 193.915 35.7143 194.19 35.7143C194.465 35.7143 195.505 36.6071 196.5 37.6984ZM50 40.9603C50 41.1171 47.638 43.4603 44.75 46.1687L39.5 51.0913L44.462 45.8829C49.074 41.0437 50 40.2192 50 40.9603ZM205.5 45.6349C208.209 48.3631 210.2 50.5952 209.925 50.5952C209.65 50.5952 207.209 48.3631 204.5 45.6349C201.791 42.9068 199.8 40.6746 200.075 40.6746C200.35 40.6746 202.791 42.9068 205.5 45.6349ZM119.683 51.7738C119.364 52.5645 119.127 52.3294 119.079 51.1736C119.036 50.128 119.272 49.5427 119.604 49.872C119.936 50.2014 119.972 51.0575 119.683 51.7738ZM39 52.9216C39 53.1101 37.987 54.1141 36.75 55.1538L34.5 57.0437L36.405 54.8115C38.195 52.7143 39 52.128 39 52.9216ZM213.5 54.5635C214.495 55.6548 215.085 56.5476 214.81 56.5476C214.535 56.5476 213.495 55.6548 212.5 54.5635C211.505 53.4722 210.915 52.5794 211.19 52.5794C211.465 52.5794 212.505 53.4722 213.5 54.5635ZM118.683 55.7421C118.364 56.5327 118.127 56.2976 118.079 55.1419C118.036 54.0962 118.272 53.5109 118.604 53.8403C118.936 54.1696 118.972 55.0258 118.683 55.7421ZM132.683 58.7183C132.364 59.5089 132.127 59.2738 132.079 58.1181C132.036 57.0724 132.272 56.4871 132.604 56.8165C132.936 57.1458 132.972 58.002 132.683 58.7183ZM143.683 58.7183C143.364 59.5089 143.127 59.2738 143.079 58.1181C143.036 57.0724 143.272 56.4871 143.604 56.8165C143.936 57.1458 143.972 58.002 143.683 58.7183ZM117.683 59.7103C117.364 60.501 117.127 60.2659 117.079 59.1101C117.036 58.0645 117.272 57.4792 117.604 57.8085C117.936 58.1379 117.972 58.9941 117.683 59.7103ZM142.683 62.6865C142.364 63.4772 142.127 63.2421 142.079 62.0863C142.036 61.0407 142.272 60.4554 142.604 60.7847C142.936 61.1141 142.972 61.9702 142.683 62.6865ZM116.683 63.6786C116.364 64.4693 116.127 64.2341 116.079 63.0784C116.036 62.0327 116.272 61.4474 116.604 61.7768C116.936 62.1062 116.972 62.9623 116.683 63.6786ZM91 62.88C91 63.0893 90.1 63.4941 89 63.7798C87.9 64.0645 87 63.8939 87 63.3988C87 62.9048 87.9 62.5 89 62.5C90.1 62.5 91 62.6716 91 62.88ZM94.729 64.0913C94.397 64.4206 93.534 64.4564 92.813 64.1696C92.015 63.8532 92.252 63.6181 93.417 63.5704C94.471 63.5278 95.061 63.7619 94.729 64.0913ZM98.729 65.0833C98.397 65.4127 97.534 65.4484 96.813 65.1617C96.015 64.8452 96.252 64.6101 97.417 64.5625C98.471 64.5199 99.061 64.754 98.729 65.0833ZM130.683 66.6548C130.364 67.4454 130.127 67.2103 130.079 66.0546C130.036 65.0089 130.272 64.4236 130.604 64.753C130.936 65.0824 130.972 65.9385 130.683 66.6548ZM141.683 66.6548C141.364 67.4454 141.127 67.2103 141.079 66.0546C141.036 65.0089 141.272 64.4236 141.604 64.753C141.936 65.0824 141.972 65.9385 141.683 66.6548ZM102.729 66.0754C102.397 66.4048 101.534 66.4405 100.813 66.1538C100.015 65.8373 100.252 65.6022 101.417 65.5546C102.471 65.5119 103.061 65.746 102.729 66.0754ZM115.655 67.9137C115.329 68.756 114.261 69.3929 113.281 69.3294C111.612 69.2212 111.61 69.1855 113.25 68.7609C114.213 68.5109 115 67.5952 115 66.7262C115 65.8572 115.281 65.4236 115.624 65.7639C115.966 66.1042 115.981 67.0714 115.655 67.9137ZM106.729 67.0675C106.397 67.3968 105.534 67.4325 104.813 67.1458C104.015 66.8294 104.252 66.5943 105.417 66.5466C106.471 66.504 107.061 66.7381 106.729 67.0675ZM110.729 68.0595C110.397 68.3889 109.534 68.4246 108.813 68.1379C108.015 67.8214 108.252 67.5863 109.417 67.5387C110.471 67.496 111.061 67.7302 110.729 68.0595ZM140.683 70.623C140.364 71.4137 140.127 71.1786 140.079 70.0228C140.036 68.9772 140.272 68.3919 140.604 68.7212C140.936 69.0506 140.972 69.9068 140.683 70.623ZM24.345 74.9435C24.019 75.7857 23.538 76.2619 23.276 76.002C23.014 75.7421 23.096 75.0526 23.459 74.4712C24.445 72.8879 25.021 73.1954 24.345 74.9435ZM86.811 77.7589C88.036 78.122 87.954 78.2034 86.511 78.0566C85.346 77.9375 84.439 77.0377 84.319 75.882C84.171 74.4504 84.253 74.3691 84.619 75.5843C84.896 76.505 85.883 77.4841 86.811 77.7589ZM153.683 78.5595C153.364 79.3502 153.127 79.1151 153.079 77.9593C153.036 76.9137 153.272 76.3284 153.604 76.6578C153.936 76.9871 153.972 77.8433 153.683 78.5595ZM161 81.3492C161.825 81.878 162.05 82.3105 161.5 82.3105C160.95 82.3105 159.825 81.878 159 81.3492C158.175 80.8204 157.95 80.3879 158.5 80.3879C159.05 80.3879 160.175 80.8204 161 81.3492ZM20.122 84.003C18.943 86.0139 18.659 85.3701 19.624 82.876C19.966 81.9891 20.458 81.4722 20.715 81.7282C20.973 81.9831 20.706 83.007 20.122 84.003ZM167 84.8909C167 85.1637 166.1 84.9097 165 84.3254C163.9 83.7411 163 83.0407 163 82.7679C163 82.4951 163.9 82.749 165 83.3333C166.1 83.9177 167 84.6181 167 84.8909ZM174 89.7818C175.292 91.1458 176.124 92.2619 175.849 92.2619C175.574 92.2619 174.292 91.1458 173 89.7818C171.708 88.4177 170.876 87.3016 171.151 87.3016C171.426 87.3016 172.708 88.4177 174 89.7818ZM99.683 90.4643C99.364 91.255 99.127 91.0199 99.079 89.8641C99.036 88.8185 99.272 88.2331 99.604 88.5625C99.936 88.8919 99.972 89.748 99.683 90.4643ZM127.729 88.8929C127.397 89.2222 126.534 89.2579 125.813 88.9712C125.015 88.6548 125.252 88.4197 126.417 88.372C127.471 88.3294 128.061 88.5635 127.729 88.8929ZM98.683 94.4326C98.364 95.2232 98.127 94.9881 98.079 93.8324C98.036 92.7867 98.272 92.2014 98.604 92.5308C98.936 92.8601 98.972 93.7163 98.683 94.4326ZM97.683 98.4008C97.364 99.1915 97.127 98.9564 97.079 97.8006C97.036 96.755 97.272 96.1697 97.604 96.499C97.936 96.8284 97.972 97.6845 97.683 98.4008ZM150.5 98.2143C151.495 99.3056 152.085 100.198 151.81 100.198C151.535 100.198 150.495 99.3056 149.5 98.2143C148.505 97.123 147.915 96.2302 148.19 96.2302C148.465 96.2302 149.505 97.123 150.5 98.2143ZM96.683 102.369C96.364 103.16 96.127 102.925 96.079 101.769C96.036 100.723 96.272 100.138 96.604 100.467C96.936 100.797 96.972 101.653 96.683 102.369ZM180.707 107.379C180.468 108.613 180.263 107.837 180.252 105.655C180.241 103.472 180.437 102.462 180.687 103.411C180.937 104.359 180.946 106.145 180.707 107.379ZM95.683 106.337C95.364 107.128 95.127 106.893 95.079 105.737C95.036 104.691 95.272 104.106 95.604 104.436C95.936 104.765 95.972 105.621 95.683 106.337ZM153.662 107.391C153.385 108.073 153.158 107.515 153.158 106.151C153.158 104.787 153.385 104.229 153.662 104.911C153.94 105.593 153.94 106.709 153.662 107.391ZM13.683 107.329C13.364 108.12 13.127 107.885 13.079 106.729C13.036 105.684 13.272 105.098 13.604 105.428C13.936 105.757 13.972 106.613 13.683 107.329ZM236.683 107.329C236.364 108.12 236.127 107.885 236.079 106.729C236.036 105.684 236.272 105.098 236.604 105.428C236.936 105.757 236.972 106.613 236.683 107.329ZM94.683 110.306C94.364 111.096 94.127 110.861 94.079 109.705C94.036 108.66 94.272 108.074 94.604 108.404C94.936 108.733 94.972 109.589 94.683 110.306ZM152.124 112.368C151.136 113.34 151.022 113.226 151.564 111.813C151.94 110.834 152.499 110.284 152.807 110.589C153.115 110.894 152.808 111.694 152.124 112.368ZM12.689 115.823C12.438 116.779 12.232 115.997 12.232 114.087C12.232 112.178 12.438 111.396 12.689 112.351C12.941 113.307 12.941 114.868 12.689 115.823ZM237.689 115.823C237.438 116.779 237.232 115.997 237.232 114.087C237.232 112.178 237.438 111.396 237.689 112.351C237.941 113.307 237.941 114.868 237.689 115.823ZM93.683 114.274C93.364 115.064 93.127 114.829 93.079 113.674C93.036 112.628 93.272 112.043 93.604 112.372C93.936 112.701 93.972 113.558 93.683 114.274ZM122.729 115.679C122.397 116.008 121.534 116.044 120.813 115.757C120.015 115.44 120.252 115.205 121.417 115.158C122.471 115.115 123.061 115.349 122.729 115.679ZM92.683 118.242C92.364 119.033 92.127 118.798 92.079 117.642C92.036 116.596 92.272 116.011 92.604 116.34C92.936 116.67 92.972 117.526 92.683 118.242ZM126.729 116.671C126.397 117 125.534 117.036 124.813 116.749C124.015 116.433 124.252 116.197 125.417 116.15C126.471 116.107 127.061 116.341 126.729 116.671ZM131.729 117.663C131.397 117.992 130.534 118.028 129.813 117.741C129.015 117.425 129.252 117.189 130.417 117.142C131.471 117.099 132.061 117.333 131.729 117.663ZM140.269 118.706C139.592 118.978 138.242 118.995 137.269 118.743C136.296 118.491 136.85 118.269 138.5 118.249C140.15 118.229 140.946 118.435 140.269 118.706ZM91.683 122.21C91.364 123.001 91.127 122.766 91.079 121.61C91.036 120.564 91.272 119.979 91.604 120.309C91.936 120.638 91.972 121.494 91.683 122.21ZM177 120.415C177 120.62 176.213 121.402 175.25 122.151C173.664 123.384 173.629 123.349 174.872 121.776C176.179 120.123 177 119.598 177 120.415ZM90.683 126.179C90.364 126.969 90.127 126.734 90.079 125.578C90.036 124.533 90.272 123.947 90.604 124.277C90.936 124.606 90.972 125.462 90.683 126.179ZM89.683 130.147C89.364 130.938 89.127 130.702 89.079 129.547C89.036 128.501 89.272 127.916 89.604 128.245C89.936 128.574 89.972 129.431 89.683 130.147ZM119.729 129.567C119.397 129.897 118.534 129.933 117.813 129.646C117.015 129.329 117.252 129.094 118.417 129.047C119.471 129.004 120.061 129.238 119.729 129.567ZM123.729 130.56C123.397 130.889 122.534 130.925 121.813 130.638C121.015 130.321 121.252 130.086 122.417 130.039C123.471 129.996 124.061 130.23 123.729 130.56ZM127.729 131.552C127.397 131.881 126.534 131.917 125.813 131.63C125.015 131.314 125.252 131.078 126.417 131.031C127.471 130.988 128.061 131.222 127.729 131.552ZM88.683 134.115C88.364 134.906 88.127 134.671 88.079 133.515C88.036 132.469 88.272 131.884 88.604 132.213C88.936 132.543 88.972 133.399 88.683 134.115ZM171.563 135.169L174.5 138.393L171.25 135.479C168.221 132.763 167.54 131.944 168.313 131.944C168.485 131.944 169.948 133.396 171.563 135.169ZM12.689 137.649C12.438 138.604 12.232 137.822 12.232 135.913C12.232 134.003 12.438 133.221 12.689 134.177C12.941 135.132 12.941 136.693 12.689 137.649ZM237.689 137.649C237.438 138.604 237.232 137.822 237.232 135.913C237.232 134.003 237.438 133.221 237.689 134.177C237.941 135.132 237.941 136.693 237.689 137.649ZM87.683 138.083C87.364 138.874 87.127 138.639 87.079 137.483C87.036 136.438 87.272 135.852 87.604 136.182C87.936 136.511 87.972 137.367 87.683 138.083ZM146.128 140.625C147.371 142.198 147.336 142.233 145.75 141C144.084 139.703 143.555 138.889 144.378 138.889C144.585 138.889 145.373 139.67 146.128 140.625ZM175.807 141.395C175.499 141.7 174.94 141.15 174.564 140.172C174.022 138.758 174.136 138.644 175.124 139.616C175.808 140.29 176.115 141.09 175.807 141.395ZM86.683 142.052C86.364 142.842 86.127 142.607 86.079 141.451C86.036 140.406 86.272 139.82 86.604 140.15C86.936 140.479 86.972 141.335 86.683 142.052ZM13.683 144.036C13.364 144.826 13.127 144.591 13.079 143.436C13.036 142.39 13.272 141.805 13.604 142.134C13.936 142.463 13.972 143.319 13.683 144.036ZM236.683 144.036C236.364 144.826 236.127 144.591 236.079 143.436C236.036 142.39 236.272 141.805 236.604 142.134C236.936 142.463 236.972 143.319 236.683 144.036ZM85.683 146.02C85.364 146.811 85.127 146.575 85.079 145.42C85.036 144.374 85.272 143.789 85.604 144.118C85.936 144.447 85.972 145.304 85.683 146.02ZM177.718 152.516C177.488 154.024 177.294 153.026 177.286 150.298C177.279 147.569 177.467 146.335 177.704 147.556C177.941 148.776 177.947 151.008 177.718 152.516ZM71 148.207C71 148.422 70.302 148.863 69.448 149.189C68.558 149.527 68.157 149.36 68.507 148.799C69.094 147.855 71 147.404 71 148.207ZM149.683 149.988C149.364 150.779 149.127 150.544 149.079 149.388C149.036 148.342 149.272 147.757 149.604 148.086C149.936 148.416 149.972 149.272 149.683 149.988ZM78.729 150.401C78.397 150.73 77.534 150.766 76.813 150.479C76.015 150.163 76.252 149.928 77.417 149.88C78.471 149.837 79.061 150.071 78.729 150.401ZM148 156.096C148 156.285 146.988 157.289 145.75 158.328L143.5 160.218L145.405 157.986C147.195 155.889 148 155.303 148 156.096ZM64.122 160.392C62.943 162.403 62.659 161.759 63.624 159.265C63.966 158.378 64.458 157.861 64.715 158.117C64.973 158.372 64.706 159.396 64.122 160.392ZM110.729 158.337C110.397 158.667 109.534 158.702 108.813 158.416C108.015 158.099 108.252 157.864 109.417 157.816C110.471 157.774 111.061 158.008 110.729 158.337ZM118.729 160.321C118.397 160.651 117.534 160.687 116.813 160.4C116.015 160.083 116.252 159.848 117.417 159.801C118.471 159.758 119.061 159.992 118.729 160.321ZM123.729 161.314C123.397 161.643 122.534 161.679 121.813 161.392C121.015 161.075 121.252 160.84 122.417 160.793C123.471 160.75 124.061 160.984 123.729 161.314ZM134.75 162.417C133.238 162.644 130.762 162.644 129.25 162.417C127.737 162.19 128.975 162.004 132 162.004C135.025 162.004 136.262 162.19 134.75 162.417ZM64.526 164.491C64.219 164.797 63.412 164.492 62.733 163.813C61.753 162.833 61.868 162.72 63.293 163.258C64.279 163.631 64.834 164.186 64.526 164.491ZM68.729 165.282C68.397 165.611 67.534 165.647 66.813 165.36C66.015 165.044 66.252 164.809 67.417 164.761C68.471 164.718 69.061 164.952 68.729 165.282ZM230.122 167.336C228.943 169.347 228.659 168.703 229.624 166.209C229.966 165.322 230.458 164.806 230.715 165.062C230.973 165.316 230.706 166.34 230.122 167.336ZM72.729 166.274C72.397 166.603 71.534 166.639 70.813 166.352C70.015 166.036 70.252 165.801 71.417 165.753C72.471 165.71 73.061 165.944 72.729 166.274ZM76.729 167.266C76.397 167.595 75.534 167.631 74.813 167.344C74.015 167.028 74.252 166.793 75.417 166.745C76.471 166.702 77.061 166.937 76.729 167.266ZM80.729 168.258C80.397 168.587 79.534 168.623 78.813 168.336C78.015 168.02 78.252 167.785 79.417 167.737C80.471 167.694 81.061 167.929 80.729 168.258ZM84.729 169.25C84.397 169.579 83.534 169.615 82.813 169.328C82.015 169.012 82.252 168.777 83.417 168.729C84.471 168.687 85.061 168.921 84.729 169.25ZM172 170.018C172 170.223 171.213 171.005 170.25 171.754C168.664 172.987 168.629 172.952 169.872 171.379C171.179 169.726 172 169.201 172 170.018ZM226.124 175.86C225.136 176.832 225.022 176.718 225.564 175.305C225.94 174.326 226.499 173.776 226.807 174.081C227.115 174.386 226.808 175.187 226.124 175.86ZM134.25 181.212C133.563 181.488 132.438 181.488 131.75 181.212C131.063 180.938 131.625 180.712 133 180.712C134.375 180.712 134.938 180.938 134.25 181.212ZM148.25 182.265C146.463 182.485 143.537 182.485 141.75 182.265C139.963 182.046 141.425 181.865 145 181.865C148.575 181.865 150.037 182.046 148.25 182.265ZM37.5 195.437C38.495 196.528 39.085 197.421 38.81 197.421C38.535 197.421 37.495 196.528 36.5 195.437C35.505 194.345 34.915 193.452 35.19 193.452C35.465 193.452 36.505 194.345 37.5 195.437ZM215 193.795C215 193.983 213.988 194.987 212.75 196.027L210.5 197.917L212.405 195.685C214.195 193.587 215 193.001 215 193.795ZM97.729 196.036C97.397 196.365 96.534 196.401 95.813 196.114C95.015 195.798 95.252 195.563 96.417 195.515C97.471 195.472 98.061 195.706 97.729 196.036ZM108.683 198.599C108.364 199.39 108.127 199.155 108.079 197.999C108.036 196.953 108.272 196.368 108.604 196.697C108.936 197.027 108.972 197.883 108.683 198.599ZM45.5 204.365C48.209 207.093 50.2 209.325 49.925 209.325C49.65 209.325 47.209 207.093 44.5 204.365C41.791 201.637 39.8 199.405 40.075 199.405C40.35 199.405 42.791 201.637 45.5 204.365ZM122.541 201.322C122.179 201.905 121.121 202.329 120.191 202.266C118.666 202.162 118.672 202.106 120.25 201.697C121.213 201.447 122 200.755 122 200.159C122 199.563 122.27 199.342 122.6 199.67C122.93 199.997 122.904 200.741 122.541 201.322ZM210 199.69C210 199.847 207.637 202.19 204.75 204.899L199.5 209.821L204.462 204.613C209.074 199.774 210 198.949 210 199.69ZM54.5 212.302C55.495 213.393 56.085 214.286 55.81 214.286C55.535 214.286 54.495 213.393 53.5 212.302C52.505 211.21 51.915 210.317 52.19 210.317C52.465 210.317 53.505 211.21 54.5 212.302ZM198 210.66C198 210.848 196.988 211.852 195.75 212.892L193.5 214.782L195.405 212.55C197.195 210.452 198 209.866 198 210.66ZM75.526 225.999C75.219 226.305 74.412 226 73.733 225.321C72.753 224.341 72.868 224.228 74.293 224.766C75.279 225.139 75.834 225.693 75.526 225.999ZM107.729 235.718C107.397 236.048 106.534 236.083 105.813 235.797C105.015 235.48 105.252 235.245 106.417 235.197C107.471 235.155 108.061 235.389 107.729 235.718ZM144.729 235.718C144.397 236.048 143.534 236.083 142.813 235.797C142.015 235.48 142.252 235.245 143.417 235.197C144.471 235.155 145.061 235.389 144.729 235.718ZM115.75 236.795C114.787 237.045 113.213 237.045 112.25 236.795C111.287 236.546 112.075 236.341 114 236.341C115.925 236.341 116.713 236.546 115.75 236.795ZM137.75 236.795C136.787 237.045 135.213 237.045 134.25 236.795C133.287 236.546 134.075 236.341 136 236.341C137.925 236.341 138.713 236.546 137.75 236.795Z" fill="#4E87FF"/>
<path fill-rule="evenodd" clip-rule="evenodd" d="M96.432 3.44347C48.595 14.4325 11.487 52.6131 1.518 101.101C0.158003 107.72 -0.0969966 113.139 0.239003 128.342C0.609003 145.051 0.983003 148.509 3.36 157.242C4.862 162.762 8.668 172.461 11.939 179.107C29.081 213.939 59.647 238.22 96.904 246.605C105.91 248.632 110.125 248.99 125 248.99C139.875 248.99 144.09 248.632 153.096 246.605C201.217 235.775 238.465 197.622 248.482 148.899C249.842 142.28 250.097 136.861 249.761 121.658C249.391 104.949 249.017 101.491 246.64 92.7579C245.138 87.2381 241.332 77.5387 238.061 70.8929C220.919 36.0615 190.353 11.7798 153.096 3.39486C143.945 1.33533 140.045 1.01787 124.5 1.07045C109.34 1.12105 104.912 1.49505 96.432 3.44347ZM127.75 12.6151C126.237 12.8423 123.763 12.8423 122.25 12.6151C120.737 12.3879 121.975 12.2024 125 12.2024C128.025 12.2024 129.262 12.3879 127.75 12.6151ZM115.25 13.5972C114.013 13.8333 111.987 13.8333 110.75 13.5972C109.513 13.3601 110.525 13.1667 113 13.1667C115.475 13.1667 116.487 13.3601 115.25 13.5972ZM139.25 13.5972C138.012 13.8333 135.988 13.8333 134.75 13.5972C133.512 13.3601 134.525 13.1667 137 13.1667C139.475 13.1667 140.488 13.3601 139.25 13.5972ZM107.269 14.5397C106.592 14.8115 105.242 14.8284 104.269 14.5764C103.296 14.3244 103.85 14.1022 105.5 14.0823C107.15 14.0625 107.946 14.2679 107.269 14.5397ZM146.269 14.5397C145.592 14.8115 144.242 14.8284 143.269 14.5764C142.296 14.3244 142.85 14.1022 144.5 14.0823C146.15 14.0625 146.946 14.2679 146.269 14.5397ZM101.729 15.4802C101.397 15.8095 100.534 15.8452 99.813 15.5585C99.015 15.2421 99.252 15.0069 100.417 14.9593C101.471 14.9167 102.061 15.1508 101.729 15.4802ZM150.729 15.4802C150.397 15.8095 149.534 15.8452 148.813 15.5585C148.015 15.2421 148.252 15.0069 149.417 14.9593C150.471 14.9167 151.061 15.1508 150.729 15.4802ZM97.729 16.4722C97.397 16.8016 96.534 16.8373 95.813 16.5506C95.015 16.2341 95.252 15.999 96.417 15.9514C97.471 15.9087 98.061 16.1429 97.729 16.4722ZM154.729 16.4722C154.397 16.8016 153.534 16.8373 152.813 16.5506C152.015 16.2341 152.252 15.999 153.417 15.9514C154.471 15.9087 155.061 16.1429 154.729 16.4722ZM86 20.1419C54.227 32.1429 31.4 54.7887 19.303 86.3095C17.523 90.9474 16.051 94.1945 16.033 93.5248C15.972 91.2887 21.05 78.9564 25.131 71.4286C37.66 48.3165 58.073 30.374 83.5 20.124C87.9 18.3502 92.175 16.9058 93 16.9147C93.825 16.9236 90.675 18.376 86 20.1419ZM162.376 18.4643C164.979 19.3442 166.935 20.2361 166.724 20.4454C166.513 20.6558 163.901 19.9683 160.92 18.9187C157.939 17.8691 155.982 16.9772 156.572 16.9375C157.161 16.8978 159.773 17.5853 162.376 18.4643ZM177.238 24.9851C197.117 35.245 214.428 52.122 224.876 71.4286C228.955 78.9653 234.028 91.2956 233.967 93.5248C233.949 94.1945 232.477 90.9474 230.697 86.3095C220.322 59.2768 202.63 39.37 176.969 25.8581C171.761 23.1151 167.881 20.8631 168.347 20.8522C168.813 20.8423 172.814 22.7014 177.238 24.9851ZM118.213 58.7887C116.487 65.7589 115.109 69.4445 114.229 69.4445C113.489 69.4445 107.439 68.0804 100.784 66.4147C91.118 63.9931 88.519 63.6439 87.858 64.6786C87.239 65.6468 87.027 65.5347 87.015 64.2361C86.995 61.9812 87.072 61.9881 101 65.4762C107.536 67.1131 113.305 68.4524 113.82 68.4524C114.335 68.4524 115.51 65.4395 116.43 61.756C119.351 50.0645 120.122 47.4097 120.492 47.7758C120.69 47.9732 119.664 52.9286 118.213 58.7887ZM124.729 48.2183C124.397 48.5476 123.534 48.5833 122.813 48.2966C122.015 47.9802 122.252 47.745 123.417 47.6974C124.471 47.6548 125.061 47.8889 124.729 48.2183ZM128.729 49.2103C128.397 49.5397 127.534 49.5754 126.813 49.2887C126.015 48.9722 126.252 48.7371 127.417 48.6895C128.471 48.6468 129.061 48.881 128.729 49.2103ZM133.63 51.0695C133.942 51.876 133.154 56.8284 131.88 62.0744C130.605 67.3204 129.414 71.1716 129.233 70.6329C129.052 70.0943 129.825 66.0724 130.952 61.6954C133.448 51.997 133.477 50.8641 131.25 50.2867C129.61 49.8621 129.612 49.8264 131.281 49.7183C132.261 49.6548 133.318 50.2629 133.63 51.0695ZM142.416 64.8542C140.951 70.6528 139.343 75.3968 138.841 75.3968C138.299 75.3968 138.292 74.6945 138.825 73.6607C139.318 72.7054 140.739 67.7758 141.983 62.7044C143.227 57.6329 144.433 53.6706 144.662 53.8978C144.891 54.125 143.881 59.0556 142.416 64.8542ZM148.729 54.1706C148.397 54.5 147.534 54.5357 146.813 54.249C146.015 53.9325 146.252 53.6974 147.417 53.6498C148.471 53.6071 149.061 53.8413 148.729 54.1706ZM152.729 55.1627C152.397 55.4921 151.534 55.5278 150.813 55.2411C150.015 54.9246 150.252 54.6895 151.417 54.6419C152.471 54.5992 153.061 54.8333 152.729 55.1627ZM156.729 56.1548C156.397 56.4841 155.534 56.5198 154.813 56.2331C154.015 55.9167 154.252 55.6816 155.417 55.6339C156.471 55.5913 157.061 55.8254 156.729 56.1548ZM157.683 61.6944C157.364 62.4851 157.127 62.25 157.079 61.0943C157.036 60.0486 157.272 59.4633 157.604 59.7927C157.936 60.122 157.972 60.9782 157.683 61.6944ZM156.683 65.6627C156.364 66.4534 156.127 66.2183 156.079 65.0625C156.036 64.0169 156.272 63.4316 156.604 63.7609C156.936 64.0903 156.972 64.9464 156.683 65.6627ZM86.683 68.6389C86.364 69.4296 86.127 69.1945 86.079 68.0387C86.036 66.9931 86.272 66.4078 86.604 66.7371C86.936 67.0665 86.972 67.9226 86.683 68.6389ZM155.683 69.631C155.364 70.4216 155.127 70.1865 155.079 69.0308C155.036 67.9851 155.272 67.3998 155.604 67.7292C155.936 68.0585 155.972 68.9147 155.683 69.631ZM85.683 72.6072C85.364 73.3978 85.127 73.1627 85.079 72.007C85.036 70.9613 85.272 70.376 85.604 70.7054C85.936 71.0347 85.972 71.8909 85.683 72.6072ZM154.683 73.5992C154.364 74.3899 154.127 74.1548 154.079 72.999C154.036 71.9534 154.272 71.3681 154.604 71.6974C154.936 72.0268 154.972 72.8829 154.683 73.5992ZM132.729 73.0198C132.397 73.3492 131.534 73.3849 130.813 73.0982C130.015 72.7818 130.252 72.5466 131.417 72.499C132.471 72.4564 133.061 72.6905 132.729 73.0198ZM136.729 74.0119C136.397 74.3413 135.534 74.377 134.813 74.0903C134.015 73.7738 134.252 73.5387 135.417 73.4911C136.471 73.4484 137.061 73.6825 136.729 74.0119ZM87.311 77.7302C89.146 78.126 89.097 78.1756 87.01 78.0397C85.32 77.9296 84.455 77.2401 84.318 75.8929C84.172 74.4653 84.256 74.378 84.619 75.5843C84.896 76.505 86.108 77.4712 87.311 77.7302ZM153.662 78.621C153.385 79.3036 153.158 78.745 153.158 77.381C153.158 76.0169 153.385 75.4593 153.662 76.1409C153.94 76.8234 153.94 77.9395 153.662 78.621ZM97.75 80.9435C98.987 81.7371 100 82.9087 100 83.5456C100 84.1835 99.438 83.9583 98.75 83.0466C98.063 82.1339 95.7 80.7024 93.5 79.8651C90.457 78.7073 90.218 78.4812 92.5 78.9216C94.15 79.2391 96.513 80.1488 97.75 80.9435ZM162.5 82.1101C169.006 85.3681 174.32 89.7173 177.093 94.0556C178.692 96.5566 180 99.2728 180 100.091C180 100.91 178.814 99.2193 177.365 96.3343C174.442 90.5149 169.859 86.6697 160.5 82.1845C157.2 80.6032 155.625 79.6012 157 79.9583C158.375 80.3165 160.85 81.2847 162.5 82.1101ZM93.524 116.192C85.555 147.988 84.697 150.794 82.95 150.794C82.274 150.794 82.361 150.29 83.179 149.471C83.905 148.743 88.044 133.993 92.376 116.692C96.707 99.3909 100.437 85.4206 100.664 85.6458C100.891 85.871 97.678 99.6171 93.524 116.192ZM127.25 88.9941C126.013 89.2302 125 90.1369 125 91.0079C125 91.88 124.719 92.3145 124.376 91.9742C123.094 90.7014 125.021 88.2986 127.219 88.4286L129.5 88.5635L127.25 88.9941ZM132.729 89.8849C132.397 90.2143 131.534 90.25 130.813 89.9633C130.015 89.6468 130.252 89.4117 131.417 89.3641C132.471 89.3214 133.061 89.5556 132.729 89.8849ZM139.5 91.7302C143.362 93.4841 141.566 93.5099 137 91.7659C135.075 91.0308 134.175 90.4147 135 90.3978C135.825 90.381 137.85 90.9802 139.5 91.7302ZM123.683 95.4246C123.364 96.2153 123.127 95.9802 123.079 94.8244C123.036 93.7788 123.272 93.1935 123.604 93.5228C123.936 93.8522 123.972 94.7083 123.683 95.4246ZM150.921 98.6151C154.779 102.707 152.9 102.075 148.514 97.8056C146.321 95.6716 145.421 94.4028 146.514 94.9861C147.606 95.5704 149.589 97.2034 150.921 98.6151ZM15.683 97.4087C15.364 98.1994 15.127 97.9643 15.079 96.8085C15.036 95.7629 15.272 95.1776 15.604 95.507C15.936 95.8363 15.972 96.6925 15.683 97.4087ZM234.683 97.4087C234.364 98.1994 234.127 97.9643 234.079 96.8085C234.036 95.7629 234.272 95.1776 234.604 95.507C234.936 95.8363 234.972 96.6925 234.683 97.4087ZM122.683 99.3929C122.364 100.184 122.127 99.9484 122.079 98.7927C122.036 97.747 122.272 97.1617 122.604 97.4911C122.936 97.8205 122.972 98.6766 122.683 99.3929ZM14.683 101.377C14.364 102.168 14.127 101.933 14.079 100.777C14.036 99.7312 14.272 99.1458 14.604 99.4752C14.936 99.8046 14.972 100.661 14.683 101.377ZM235.683 101.377C235.364 102.168 235.127 101.933 235.079 100.777C235.036 99.7312 235.272 99.1458 235.604 99.4752C235.936 99.8046 235.972 100.661 235.683 101.377ZM121.683 103.361C121.364 104.152 121.127 103.917 121.079 102.761C121.036 101.715 121.272 101.13 121.604 101.459C121.936 101.789 121.972 102.645 121.683 103.361ZM180.707 107.379C180.468 108.613 180.263 107.837 180.252 105.655C180.241 103.472 180.437 102.462 180.687 103.411C180.937 104.359 180.946 106.145 180.707 107.379ZM13.693 106.876C13.439 107.841 13.215 107.292 13.195 105.655C13.175 104.018 13.382 103.228 13.656 103.9C13.93 104.571 13.947 105.911 13.693 106.876ZM152.941 111.251C151.557 114.568 147.501 118.074 145.115 118.017C144.227 117.995 144.933 117.359 146.685 116.603C150.32 115.035 152.931 110.733 153.15 105.952C153.294 102.798 153.315 102.782 153.727 105.513C153.961 107.072 153.608 109.655 152.941 111.251ZM236.693 106.876C236.439 107.841 236.215 107.292 236.195 105.655C236.175 104.018 236.382 103.228 236.656 103.9C236.93 104.571 236.947 105.911 236.693 106.876ZM120.683 107.329C120.364 108.12 120.127 107.885 120.079 106.729C120.036 105.684 120.272 105.098 120.604 105.428C120.936 105.757 120.972 106.613 120.683 107.329ZM12.706 115.327C12.467 116.555 12.272 115.551 12.272 113.095C12.272 110.64 12.467 109.636 12.706 110.863C12.944 112.09 12.944 114.1 12.706 115.327ZM119.683 111.298C119.364 112.088 119.127 111.853 119.079 110.697C119.036 109.652 119.272 109.066 119.604 109.396C119.936 109.725 119.972 110.581 119.683 111.298ZM237.706 115.327C237.467 116.555 237.272 115.551 237.272 113.095C237.272 110.64 237.467 109.636 237.706 110.863C237.944 112.09 237.944 114.1 237.706 115.327ZM178.975 115.652C178.322 117.613 176.419 120.765 174.746 122.656C171.783 126.003 166.258 129.555 165.375 128.679C165.133 128.439 166.302 127.682 167.973 126.995C172.299 125.217 176.838 119.678 178.245 114.457C178.909 111.994 179.612 110.452 179.807 111.032C180.002 111.612 179.627 113.69 178.975 115.652ZM126 116.363C129.575 117.197 131.6 117.912 130.5 117.948C126.761 118.076 118.636 115.486 118.241 114.04C117.978 113.077 118.122 112.972 118.674 113.722C119.128 114.339 122.425 115.528 126 116.363ZM140.75 118.766C139.238 118.993 136.762 118.993 135.25 118.766C133.738 118.539 134.975 118.353 138 118.353C141.025 118.353 142.262 118.539 140.75 118.766ZM11.716 127.728C11.487 129.228 11.3 128.001 11.3 125C11.3 121.999 11.487 120.771 11.716 122.272C11.945 123.773 11.945 126.227 11.716 127.728ZM238.716 127.728C238.487 129.228 238.3 128.001 238.3 125C238.3 121.999 238.487 120.771 238.716 122.272C238.945 123.773 238.945 126.227 238.716 127.728ZM115.279 130C114.986 131.112 114.523 131.802 114.249 131.531C113.708 130.994 114.664 127.976 115.375 127.976C115.616 127.976 115.573 128.887 115.279 130ZM129.02 131.547C131.868 132.385 134.04 133.223 133.849 133.409C133.657 133.594 129.675 132.669 125 131.352C120.325 130.036 118.152 129.198 120.171 129.49C122.191 129.782 126.173 130.707 129.02 131.547ZM172.612 136.339C174.475 138.483 176 140.672 176 141.2C176 141.73 174.693 140.373 173.096 138.186C171.498 135.998 168.573 133.215 166.596 132.003C162.194 129.305 161.784 128.156 166.112 130.648C167.824 131.634 170.749 134.194 172.612 136.339ZM12.706 139.137C12.467 140.365 12.272 139.36 12.272 136.905C12.272 134.449 12.467 133.444 12.706 134.673C12.944 135.901 12.944 137.909 12.706 139.137ZM113.683 135.107C113.364 135.898 113.127 135.663 113.079 134.507C113.036 133.461 113.272 132.876 113.604 133.205C113.936 133.535 113.972 134.391 113.683 135.107ZM237.706 139.137C237.467 140.365 237.272 139.36 237.272 136.905C237.272 134.449 237.467 133.444 237.706 134.673C237.944 135.901 237.944 137.909 237.706 139.137ZM141.174 136.802C145.638 139.609 149.004 143.271 148.996 145.311C148.994 145.871 148.113 144.898 147.038 143.149C145.962 141.399 142.702 138.613 139.791 136.957C136.881 135.302 134.974 133.943 135.554 133.938C136.134 133.933 138.663 135.221 141.174 136.802ZM112.683 139.075C112.364 139.866 112.127 139.631 112.079 138.475C112.036 137.43 112.272 136.844 112.604 137.174C112.936 137.503 112.972 138.359 112.683 139.075ZM111.683 143.044C111.364 143.834 111.127 143.599 111.079 142.443C111.036 141.398 111.272 140.813 111.604 141.142C111.936 141.471 111.972 142.327 111.683 143.044ZM13.693 145.566C13.439 146.532 13.215 145.982 13.195 144.345C13.175 142.708 13.382 141.919 13.656 142.59C13.93 143.262 13.947 144.601 13.693 145.566ZM236.693 145.566C236.439 146.532 236.215 145.982 236.195 144.345C236.175 142.708 236.382 141.919 236.656 142.59C236.93 143.262 236.947 144.601 236.693 145.566ZM110.683 147.012C110.364 147.803 110.127 147.567 110.079 146.412C110.036 145.366 110.272 144.781 110.604 145.11C110.936 145.439 110.972 146.296 110.683 147.012ZM177.718 152.516C177.488 154.024 177.294 153.026 177.286 150.298C177.279 147.569 177.467 146.335 177.704 147.556C177.941 148.776 177.947 151.008 177.718 152.516ZM149.693 150.527C149.439 151.492 149.215 150.942 149.195 149.306C149.175 147.669 149.382 146.879 149.656 147.551C149.93 148.222 149.947 149.562 149.693 150.527ZM14.683 149.988C14.364 150.779 14.127 150.544 14.079 149.388C14.036 148.342 14.272 147.757 14.604 148.086C14.936 148.416 14.972 149.272 14.683 149.988ZM69.571 149.376C68.707 150.234 68 151.425 68 152.022C68 152.619 67.739 152.849 67.419 152.532C66.61 151.73 68.841 147.817 70.107 147.817C70.677 147.817 70.436 148.519 69.571 149.376ZM235.683 149.988C235.364 150.779 235.127 150.544 235.079 149.388C235.036 148.342 235.272 147.757 235.604 148.086C235.936 148.416 235.972 149.272 235.683 149.988ZM77 149.802C79.01 150.44 79.108 150.601 77.5 150.625C76.4 150.641 74.6 150.271 73.5 149.802C70.952 148.715 73.581 148.715 77 149.802ZM109.683 150.98C109.364 151.771 109.127 151.536 109.079 150.38C109.036 149.334 109.272 148.749 109.604 149.078C109.936 149.408 109.972 150.264 109.683 150.98ZM15.683 153.956C15.364 154.747 15.127 154.512 15.079 153.356C15.036 152.311 15.272 151.725 15.604 152.055C15.936 152.384 15.972 153.24 15.683 153.956ZM234.683 153.956C234.364 154.747 234.127 154.512 234.079 153.356C234.036 152.311 234.272 151.725 234.604 152.055C234.936 152.384 234.972 153.24 234.683 153.956ZM108.683 154.948C108.364 155.739 108.127 155.504 108.079 154.348C108.036 153.303 108.272 152.717 108.604 153.047C108.936 153.376 108.972 154.232 108.683 154.948ZM65.116 158.389C64.001 160.486 63.069 161.883 63.044 161.492C62.973 160.351 66.319 153.756 66.752 154.185C66.968 154.399 66.232 156.291 65.116 158.389ZM26.365 179.067C36.923 198.228 52.644 213.42 73 224.13C78.225 226.879 82.119 229.137 81.653 229.148C79.869 229.188 64.442 220.663 58.609 216.413C44.99 206.491 32.744 192.653 25.124 178.571C21.045 171.035 15.972 158.704 16.033 156.475C16.051 155.806 17.523 159.053 19.303 163.69C21.083 168.328 24.261 175.248 26.365 179.067ZM145.234 158.759C143.438 160.38 141.188 161.689 140.234 161.668C139.188 161.644 139.691 161.114 141.5 160.331C143.151 159.618 145.118 158.297 145.873 157.394C146.627 156.492 147.527 155.767 147.872 155.783C148.218 155.799 147.03 157.138 145.234 158.759ZM176.683 157.925C176.364 158.715 176.127 158.48 176.079 157.324C176.036 156.279 176.272 155.693 176.604 156.023C176.936 156.352 176.972 157.208 176.683 157.925ZM231.491 164.306C221.924 189.53 202.679 211.442 179 224.076C171.412 228.125 158.981 233.163 156.727 233.102C156.052 233.084 159.325 231.624 164 229.858C192.6 219.056 214.389 199.177 226.943 172.432C229.072 167.897 231.396 162.224 232.108 159.826C232.821 157.429 233.556 155.92 233.742 156.474C233.928 157.028 232.915 160.553 231.491 164.306ZM114 159.513C114.275 159.782 113.15 159.684 111.5 159.296C109.85 158.908 108.06 158.163 107.523 157.641C106.985 157.119 108.11 157.217 110.023 157.858C111.935 158.5 113.725 159.244 114 159.513ZM121.5 160.714C124.195 161.395 124.246 161.473 122 161.49C120.625 161.5 118.375 161.151 117 160.714C115.041 160.092 114.933 159.924 116.5 159.939C117.6 159.948 119.85 160.298 121.5 160.714ZM173.635 166.403C171.459 170.662 164.128 178.571 162.356 178.571C162.005 178.571 163.743 176.804 166.218 174.642C168.98 172.23 171.642 168.619 173.109 165.292C174.424 162.311 175.638 160.249 175.807 160.71C175.976 161.172 174.998 163.733 173.635 166.403ZM134.728 162.431C132.653 162.645 129.503 162.642 127.728 162.423C125.952 162.203 127.65 162.028 131.5 162.032C135.35 162.037 136.802 162.215 134.728 162.431ZM89.749 171.627C90.026 172.65 89.89 172.75 89.313 171.949C88.852 171.308 82.855 169.38 75.987 167.665C69.119 165.95 63.148 164.206 62.718 163.79C62.288 163.372 68.103 164.631 75.64 166.585C84.739 168.944 89.481 170.639 89.749 171.627ZM88.683 175.782C88.364 176.572 88.127 176.337 88.079 175.182C88.036 174.136 88.272 173.551 88.604 173.88C88.936 174.209 88.972 175.065 88.683 175.782ZM107.729 175.202C107.397 175.532 106.534 175.567 105.813 175.281C105.015 174.964 105.252 174.729 106.417 174.682C107.471 174.639 108.061 174.873 107.729 175.202ZM102.683 177.766C102.364 178.557 102.127 178.321 102.079 177.166C102.036 176.12 102.272 175.535 102.604 175.864C102.936 176.193 102.972 177.05 102.683 177.766ZM111.729 176.194C111.397 176.524 110.534 176.56 109.813 176.273C109.015 175.956 109.252 175.721 110.417 175.674C111.471 175.631 112.061 175.865 111.729 176.194ZM113.683 178.758C113.364 179.549 113.127 179.313 113.079 178.158C113.036 177.112 113.272 176.527 113.604 176.856C113.936 177.186 113.972 178.042 113.683 178.758ZM87.683 179.75C87.364 180.541 87.127 180.306 87.079 179.15C87.036 178.104 87.272 177.519 87.604 177.848C87.936 178.178 87.972 179.034 87.683 179.75ZM101.683 181.734C101.364 182.525 101.127 182.29 101.079 181.134C101.036 180.088 101.272 179.503 101.604 179.832C101.936 180.162 101.972 181.018 101.683 181.734ZM130 179.953C130 180.168 129.325 180.6 128.5 180.915C127.675 181.228 127 181.053 127 180.525C127 179.996 127.675 179.564 128.5 179.564C129.325 179.564 130 179.739 130 179.953ZM112.683 182.726C112.364 183.517 112.127 183.282 112.079 182.126C112.036 181.08 112.272 180.495 112.604 180.824C112.936 181.154 112.972 182.01 112.683 182.726ZM135.75 181.239C134.787 181.489 133.213 181.489 132.25 181.239C131.287 180.99 132.075 180.786 134 180.786C135.925 180.786 136.713 180.99 135.75 181.239ZM155.25 181.212C154.563 181.488 153.438 181.488 152.75 181.212C152.063 180.938 152.625 180.712 154 180.712C155.375 180.712 155.938 180.938 155.25 181.212ZM86.683 183.718C86.364 184.509 86.127 184.274 86.079 183.118C86.036 182.072 86.272 181.487 86.604 181.816C86.936 182.146 86.972 183.002 86.683 183.718ZM148.25 182.265C146.463 182.485 143.537 182.485 141.75 182.265C139.963 182.046 141.425 181.865 145 181.865C148.575 181.865 150.037 182.046 148.25 182.265ZM126.683 184.71C126.364 185.501 126.127 185.266 126.079 184.11C126.036 183.064 126.272 182.479 126.604 182.809C126.936 183.138 126.972 183.994 126.683 184.71ZM100.683 185.702C100.364 186.493 100.127 186.258 100.079 185.102C100.036 184.057 100.272 183.471 100.604 183.801C100.936 184.13 100.972 184.986 100.683 185.702ZM111.683 186.694C111.364 187.485 111.127 187.25 111.079 186.094C111.036 185.049 111.272 184.463 111.604 184.793C111.936 185.122 111.972 185.978 111.683 186.694ZM85.683 187.687C85.364 188.477 85.127 188.242 85.079 187.086C85.036 186.041 85.272 185.455 85.604 185.785C85.936 186.114 85.972 186.97 85.683 187.687ZM125.683 188.679C125.364 189.469 125.127 189.234 125.079 188.078C125.036 187.033 125.272 186.447 125.604 186.777C125.936 187.106 125.972 187.962 125.683 188.679ZM99.683 189.671C99.364 190.461 99.127 190.226 99.079 189.07C99.036 188.025 99.272 187.439 99.604 187.769C99.936 188.098 99.972 188.954 99.683 189.671ZM110.683 190.663C110.364 191.453 110.127 191.218 110.079 190.063C110.036 189.017 110.272 188.432 110.604 188.761C110.936 189.09 110.972 189.946 110.683 190.663ZM85.29 191.468C85.577 192.56 85.405 193.452 84.906 193.452C84.408 193.452 84 192.56 84 191.468C84 190.377 84.173 189.484 84.383 189.484C84.594 189.484 85.002 190.377 85.29 191.468ZM124.683 192.647C124.364 193.438 124.127 193.202 124.079 192.047C124.036 191.001 124.272 190.416 124.604 190.745C124.936 191.074 124.972 191.931 124.683 192.647ZM98.683 193.639C98.364 194.43 98.127 194.194 98.079 193.039C98.036 191.993 98.272 191.408 98.604 191.737C98.936 192.066 98.972 192.923 98.683 193.639ZM109.683 194.631C109.364 195.422 109.127 195.187 109.079 194.031C109.036 192.985 109.272 192.4 109.604 192.729C109.936 193.059 109.972 193.915 109.683 194.631ZM89.729 194.052C89.397 194.381 88.534 194.417 87.813 194.13C87.015 193.814 87.252 193.578 88.417 193.531C89.471 193.488 90.061 193.722 89.729 194.052ZM93.729 195.044C93.397 195.373 92.534 195.409 91.813 195.122C91.015 194.806 91.252 194.57 92.417 194.523C93.471 194.48 94.061 194.714 93.729 195.044ZM123.683 196.615C123.364 197.406 123.127 197.171 123.079 196.015C123.036 194.969 123.272 194.384 123.604 194.713C123.936 195.043 123.972 195.899 123.683 196.615ZM97.729 196.036C97.397 196.365 96.534 196.401 95.813 196.114C95.015 195.798 95.252 195.563 96.417 195.515C97.471 195.472 98.061 195.706 97.729 196.036ZM109.362 197.917C109.678 198.735 109.501 199.405 108.969 199.405C108.436 199.405 108 198.735 108 197.917C108 197.098 108.177 196.429 108.393 196.429C108.609 196.429 109.045 197.098 109.362 197.917ZM122.655 200.85C122.329 201.692 121.261 202.329 120.281 202.266C118.612 202.158 118.61 202.122 120.25 201.697C121.213 201.447 122 200.532 122 199.663C122 198.794 122.281 198.36 122.624 198.7C122.966 199.041 122.981 200.008 122.655 200.85ZM113.729 200.004C113.397 200.333 112.534 200.369 111.813 200.082C111.015 199.766 111.252 199.531 112.417 199.483C113.471 199.44 114.061 199.675 113.729 200.004ZM117.729 200.996C117.397 201.325 116.534 201.361 115.813 201.074C115.015 200.758 115.252 200.523 116.417 200.475C117.471 200.433 118.061 200.667 117.729 200.996ZM91 231.804C93.995 232.968 94.083 233.083 91.61 232.6C90.021 232.29 87.321 231.395 85.61 230.611C83.271 229.54 83.12 229.342 85 229.814C86.375 230.16 89.075 231.055 91 231.804ZM97.729 233.734C97.397 234.064 96.534 234.099 95.813 233.813C95.015 233.496 95.252 233.261 96.417 233.213C97.471 233.171 98.061 233.405 97.729 233.734ZM154.729 233.734C154.397 234.064 153.534 234.099 152.813 233.813C152.015 233.496 152.252 233.261 153.417 233.213C154.471 233.171 155.061 233.405 154.729 233.734ZM101.729 234.726C101.397 235.056 100.534 235.091 99.813 234.805C99.015 234.488 99.252 234.253 100.417 234.205C101.471 234.163 102.061 234.397 101.729 234.726ZM150.729 234.726C150.397 235.056 149.534 235.091 148.813 234.805C148.015 234.488 148.252 234.253 149.417 234.205C150.471 234.163 151.061 234.397 150.729 234.726ZM107.269 235.77C106.592 236.042 105.242 236.059 104.269 235.807C103.296 235.555 103.85 235.332 105.5 235.313C107.15 235.293 107.946 235.498 107.269 235.77ZM146.269 235.77C145.592 236.042 144.242 236.059 143.269 235.807C142.296 235.555 142.85 235.332 144.5 235.313C146.15 235.293 146.946 235.498 146.269 235.77ZM115.25 236.812C114.013 237.048 111.987 237.048 110.75 236.812C109.513 236.574 110.525 236.381 113 236.381C115.475 236.381 116.487 236.574 115.25 236.812ZM139.25 236.812C138.012 237.048 135.988 237.048 134.75 236.812C133.512 236.574 134.525 236.381 137 236.381C139.475 236.381 140.488 236.574 139.25 236.812ZM127.75 237.814C126.237 238.041 123.763 238.041 122.25 237.814C120.737 237.586 121.975 237.401 125 237.401C128.025 237.401 129.262 237.586 127.75 237.814Z" fill="#0080FF"/>
<path fill-rule="evenodd" clip-rule="evenodd" d="M98.5 2.96429C60.662 11.502 29.332 35.8323 12.256 69.9405C3.162 88.1052 0 102.312 0 125C0 148.531 3.215 162.305 13.285 181.92C30.369 215.198 61.442 238.824 99 247.093C111.034 249.743 138.966 249.743 151 247.093C189.082 238.708 220.56 214.383 237.744 180.06C246.838 161.895 250 147.688 250 125C250 101.469 246.785 87.6954 236.715 68.0804C219.631 34.8016 188.558 11.1756 151 2.90675C139.212 0.311515 110.117 0.343261 98.5 2.96429ZM127.75 12.6151C126.237 12.8423 123.763 12.8423 122.25 12.6151C120.737 12.3879 121.975 12.2024 125 12.2024C128.025 12.2024 129.262 12.3879 127.75 12.6151ZM115.25 13.5972C114.013 13.8333 111.987 13.8333 110.75 13.5972C109.513 13.3601 110.525 13.1667 113 13.1667C115.475 13.1667 116.487 13.3601 115.25 13.5972ZM139.25 13.5972C138.012 13.8333 135.988 13.8333 134.75 13.5972C133.512 13.3601 134.525 13.1667 137 13.1667C139.475 13.1667 140.488 13.3601 139.25 13.5972ZM107.269 14.5397C106.592 14.8115 105.242 14.8284 104.269 14.5764C103.296 14.3244 103.85 14.1022 105.5 14.0823C107.15 14.0625 107.946 14.2679 107.269 14.5397ZM146.269 14.5397C145.592 14.8115 144.242 14.8284 143.269 14.5764C142.296 14.3244 142.85 14.1022 144.5 14.0823C146.15 14.0625 146.946 14.2679 146.269 14.5397ZM101.729 15.4802C101.397 15.8095 100.534 15.8452 99.813 15.5585C99.015 15.2421 99.252 15.007 100.417 14.9593C101.471 14.9167 102.061 15.1508 101.729 15.4802ZM150.729 15.4802C150.397 15.8095 149.534 15.8452 148.813 15.5585C148.015 15.2421 148.252 15.007 149.417 14.9593C150.471 14.9167 151.061 15.1508 150.729 15.4802ZM97.729 16.4722C97.397 16.8016 96.534 16.8373 95.813 16.5506C95.015 16.2341 95.252 15.999 96.417 15.9514C97.471 15.9087 98.061 16.1429 97.729 16.4722ZM154.729 16.4722C154.397 16.8016 153.534 16.8373 152.813 16.5506C152.015 16.2341 152.252 15.999 153.417 15.9514C154.471 15.9087 155.061 16.1429 154.729 16.4722ZM86 20.1419C54.227 32.1429 31.4 54.7887 19.303 86.3095C17.523 90.9474 16.051 94.1945 16.033 93.5248C15.972 91.2887 21.05 78.9564 25.131 71.4286C37.66 48.3165 58.073 30.374 83.5 20.124C87.9 18.3502 92.175 16.9058 93 16.9147C93.825 16.9236 90.675 18.376 86 20.1419ZM162.376 18.4643C164.979 19.3443 166.935 20.2361 166.724 20.4454C166.513 20.6558 163.901 19.9683 160.92 18.9187C157.939 17.8691 155.982 16.9772 156.572 16.9375C157.161 16.8978 159.773 17.5853 162.376 18.4643ZM177.238 24.9851C197.117 35.245 214.428 52.122 224.876 71.4286C228.955 78.9653 234.028 91.2956 233.967 93.5248C233.949 94.1945 232.477 90.9474 230.697 86.3095C220.322 59.2768 202.63 39.37 176.969 25.8581C171.761 23.1151 167.881 20.8631 168.347 20.8522C168.813 20.8423 172.814 22.7014 177.238 24.9851ZM118.213 58.7887C116.487 65.7589 115.109 69.4444 114.229 69.4444C113.489 69.4444 107.439 68.0804 100.784 66.4147C91.118 63.9931 88.519 63.6439 87.858 64.6786C87.239 65.6468 87.027 65.5347 87.015 64.2361C86.995 61.9812 87.072 61.9881 101 65.4762C107.536 67.1131 113.305 68.4524 113.82 68.4524C114.335 68.4524 115.51 65.4395 116.43 61.756C119.351 50.0645 120.122 47.4097 120.492 47.7758C120.69 47.9732 119.664 52.9286 118.213 58.7887ZM124.729 48.2183C124.397 48.5476 123.534 48.5833 122.813 48.2966C122.015 47.9802 122.252 47.745 123.417 47.6974C124.471 47.6548 125.061 47.8889 124.729 48.2183ZM128.729 49.2103C128.397 49.5397 127.534 49.5754 126.813 49.2887C126.015 48.9722 126.252 48.7371 127.417 48.6895C128.471 48.6468 129.061 48.881 128.729 49.2103ZM133.63 51.0695C133.942 51.876 133.154 56.8284 131.88 62.0744C130.605 67.3204 129.414 71.1716 129.233 70.6329C129.052 70.0942 129.825 66.0724 130.952 61.6954C133.448 51.997 133.477 50.8641 131.25 50.2867C129.61 49.8621 129.612 49.8264 131.281 49.7183C132.261 49.6548 133.318 50.2629 133.63 51.0695ZM142.416 64.8542C140.951 70.6528 139.343 75.3968 138.841 75.3968C138.299 75.3968 138.292 74.6944 138.825 73.6607C139.318 72.7054 140.739 67.7758 141.983 62.7044C143.227 57.6329 144.433 53.6706 144.662 53.8978C144.891 54.125 143.881 59.0556 142.416 64.8542ZM148.729 54.1706C148.397 54.5 147.534 54.5357 146.813 54.249C146.015 53.9325 146.252 53.6974 147.417 53.6498C148.471 53.6071 149.061 53.8413 148.729 54.1706ZM152.729 55.1627C152.397 55.4921 151.534 55.5278 150.813 55.2411C150.015 54.9246 150.252 54.6895 151.417 54.6419C152.471 54.5992 153.061 54.8333 152.729 55.1627ZM156.729 56.1548C156.397 56.4841 155.534 56.5198 154.813 56.2331C154.015 55.9167 154.252 55.6816 155.417 55.6339C156.471 55.5913 157.061 55.8254 156.729 56.1548ZM157.683 61.6944C157.364 62.4851 157.127 62.25 157.079 61.0943C157.036 60.0486 157.272 59.4633 157.604 59.7927C157.936 60.122 157.972 60.9782 157.683 61.6944ZM156.683 65.6627C156.364 66.4534 156.127 66.2183 156.079 65.0625C156.036 64.0169 156.272 63.4316 156.604 63.7609C156.936 64.0903 156.972 64.9464 156.683 65.6627ZM86.683 68.6389C86.364 69.4296 86.127 69.1944 86.079 68.0387C86.036 66.9931 86.272 66.4077 86.604 66.7371C86.936 67.0665 86.972 67.9226 86.683 68.6389ZM155.683 69.631C155.364 70.4216 155.127 70.1865 155.079 69.0308C155.036 67.9851 155.272 67.3998 155.604 67.7292C155.936 68.0585 155.972 68.9147 155.683 69.631ZM85.683 72.6072C85.364 73.3978 85.127 73.1627 85.079 72.0069C85.036 70.9613 85.272 70.376 85.604 70.7054C85.936 71.0347 85.972 71.8909 85.683 72.6072ZM154.683 73.5992C154.364 74.3899 154.127 74.1548 154.079 72.999C154.036 71.9534 154.272 71.3681 154.604 71.6974C154.936 72.0268 154.972 72.8829 154.683 73.5992ZM132.729 73.0198C132.397 73.3492 131.534 73.3849 130.813 73.0982C130.015 72.7817 130.252 72.5466 131.417 72.499C132.471 72.4564 133.061 72.6905 132.729 73.0198ZM136.729 74.0119C136.397 74.3413 135.534 74.377 134.813 74.0903C134.015 73.7738 134.252 73.5387 135.417 73.4911C136.471 73.4484 137.061 73.6825 136.729 74.0119ZM87.311 77.7302C89.146 78.126 89.097 78.1756 87.01 78.0397C85.32 77.9296 84.455 77.2401 84.318 75.8929C84.172 74.4653 84.256 74.378 84.619 75.5843C84.896 76.505 86.108 77.4712 87.311 77.7302ZM153.662 78.621C153.385 79.3036 153.158 78.745 153.158 77.381C153.158 76.0169 153.385 75.4593 153.662 76.1409C153.94 76.8234 153.94 77.9395 153.662 78.621ZM97.75 80.9435C98.987 81.7371 100 82.9087 100 83.5456C100 84.1835 99.438 83.9583 98.75 83.0466C98.063 82.1339 95.7 80.7024 93.5 79.8651C90.457 78.7073 90.218 78.4812 92.5 78.9216C94.15 79.2391 96.513 80.1488 97.75 80.9435ZM162.5 82.1101C169.006 85.3681 174.32 89.7173 177.093 94.0556C178.692 96.5565 180 99.2728 180 100.091C180 100.91 178.814 99.2193 177.365 96.3343C174.442 90.5149 169.859 86.6696 160.5 82.1845C157.2 80.6032 155.625 79.6012 157 79.9583C158.375 80.3165 160.85 81.2847 162.5 82.1101ZM93.524 116.192C85.555 147.988 84.697 150.794 82.95 150.794C82.274 150.794 82.361 150.29 83.179 149.471C83.905 148.743 88.044 133.993 92.376 116.692C96.707 99.3909 100.437 85.4206 100.664 85.6458C100.891 85.871 97.678 99.6171 93.524 116.192ZM127.25 88.9941C126.013 89.2302 125 90.1369 125 91.0079C125 91.88 124.719 92.3145 124.376 91.9742C123.094 90.7014 125.021 88.2986 127.219 88.4286L129.5 88.5635L127.25 88.9941ZM132.729 89.8849C132.397 90.2143 131.534 90.25 130.813 89.9633C130.015 89.6468 130.252 89.4117 131.417 89.3641C132.471 89.3214 133.061 89.5556 132.729 89.8849ZM139.5 91.7302C143.362 93.4841 141.566 93.5099 137 91.7659C135.075 91.0308 134.175 90.4147 135 90.3978C135.825 90.381 137.85 90.9802 139.5 91.7302ZM123.683 95.4246C123.364 96.2153 123.127 95.9802 123.079 94.8244C123.036 93.7788 123.272 93.1935 123.604 93.5228C123.936 93.8522 123.972 94.7083 123.683 95.4246ZM150.921 98.6151C154.779 102.707 152.9 102.075 148.514 97.8056C146.321 95.6716 145.421 94.4028 146.514 94.9861C147.606 95.5704 149.589 97.2034 150.921 98.6151ZM15.683 97.4087C15.364 98.1994 15.127 97.9643 15.079 96.8085C15.036 95.7629 15.272 95.1776 15.604 95.507C15.936 95.8363 15.972 96.6925 15.683 97.4087ZM234.683 97.4087C234.364 98.1994 234.127 97.9643 234.079 96.8085C234.036 95.7629 234.272 95.1776 234.604 95.507C234.936 95.8363 234.972 96.6925 234.683 97.4087ZM122.683 99.3929C122.364 100.184 122.127 99.9484 122.079 98.7927C122.036 97.747 122.272 97.1617 122.604 97.4911C122.936 97.8204 122.972 98.6766 122.683 99.3929ZM14.683 101.377C14.364 102.168 14.127 101.933 14.079 100.777C14.036 99.7312 14.272 99.1458 14.604 99.4752C14.936 99.8046 14.972 100.661 14.683 101.377ZM235.683 101.377C235.364 102.168 235.127 101.933 235.079 100.777C235.036 99.7312 235.272 99.1458 235.604 99.4752C235.936 99.8046 235.972 100.661 235.683 101.377ZM121.683 103.361C121.364 104.152 121.127 103.917 121.079 102.761C121.036 101.715 121.272 101.13 121.604 101.459C121.936 101.789 121.972 102.645 121.683 103.361ZM180.707 107.379C180.468 108.613 180.263 107.837 180.252 105.655C180.241 103.472 180.437 102.462 180.687 103.411C180.937 104.359 180.946 106.145 180.707 107.379ZM13.693 106.876C13.439 107.841 13.215 107.292 13.195 105.655C13.175 104.018 13.382 103.228 13.656 103.9C13.93 104.571 13.947 105.911 13.693 106.876ZM152.941 111.251C151.557 114.568 147.501 118.074 145.115 118.017C144.227 117.995 144.933 117.359 146.685 116.603C150.32 115.035 152.931 110.733 153.15 105.952C153.294 102.798 153.315 102.782 153.727 105.513C153.961 107.072 153.608 109.655 152.941 111.251ZM236.693 106.876C236.439 107.841 236.215 107.292 236.195 105.655C236.175 104.018 236.382 103.228 236.656 103.9C236.93 104.571 236.947 105.911 236.693 106.876ZM120.683 107.329C120.364 108.12 120.127 107.885 120.079 106.729C120.036 105.684 120.272 105.098 120.604 105.428C120.936 105.757 120.972 106.613 120.683 107.329ZM12.706 115.327C12.467 116.555 12.272 115.551 12.272 113.095C12.272 110.64 12.467 109.636 12.706 110.863C12.944 112.09 12.944 114.1 12.706 115.327ZM119.683 111.298C119.364 112.088 119.127 111.853 119.079 110.697C119.036 109.652 119.272 109.066 119.604 109.396C119.936 109.725 119.972 110.581 119.683 111.298ZM237.706 115.327C237.467 116.555 237.272 115.551 237.272 113.095C237.272 110.64 237.467 109.636 237.706 110.863C237.944 112.09 237.944 114.1 237.706 115.327ZM178.975 115.652C178.322 117.613 176.419 120.765 174.746 122.656C171.783 126.003 166.258 129.555 165.375 128.679C165.133 128.439 166.302 127.682 167.973 126.995C172.299 125.217 176.838 119.678 178.245 114.457C178.909 111.994 179.612 110.452 179.807 111.032C180.002 111.612 179.627 113.69 178.975 115.652ZM126 116.363C129.575 117.197 131.6 117.912 130.5 117.948C126.761 118.076 118.636 115.486 118.241 114.04C117.978 113.077 118.122 112.972 118.674 113.722C119.128 114.339 122.425 115.528 126 116.363ZM140.75 118.766C139.238 118.993 136.762 118.993 135.25 118.766C133.738 118.539 134.975 118.353 138 118.353C141.025 118.353 142.262 118.539 140.75 118.766ZM11.716 127.728C11.487 129.228 11.3 128.001 11.3 125C11.3 121.999 11.487 120.771 11.716 122.272C11.945 123.773 11.945 126.227 11.716 127.728ZM238.716 127.728C238.487 129.228 238.3 128.001 238.3 125C238.3 121.999 238.487 120.771 238.716 122.272C238.945 123.773 238.945 126.227 238.716 127.728ZM115.279 130C114.986 131.112 114.523 131.802 114.249 131.531C113.708 130.994 114.664 127.976 115.375 127.976C115.616 127.976 115.573 128.887 115.279 130ZM129.02 131.547C131.868 132.385 134.04 133.223 133.849 133.409C133.657 133.594 129.675 132.669 125 131.352C120.325 130.036 118.152 129.198 120.171 129.49C122.191 129.782 126.173 130.707 129.02 131.547ZM172.612 136.339C174.475 138.483 176 140.672 176 141.2C176 141.73 174.693 140.373 173.096 138.186C171.498 135.998 168.573 133.215 166.596 132.003C162.194 129.305 161.784 128.156 166.112 130.648C167.824 131.634 170.749 134.194 172.612 136.339ZM12.706 139.137C12.467 140.365 12.272 139.36 12.272 136.905C12.272 134.449 12.467 133.444 12.706 134.673C12.944 135.901 12.944 137.909 12.706 139.137ZM113.683 135.107C113.364 135.898 113.127 135.663 113.079 134.507C113.036 133.461 113.272 132.876 113.604 133.205C113.936 133.535 113.972 134.391 113.683 135.107ZM237.706 139.137C237.467 140.365 237.272 139.36 237.272 136.905C237.272 134.449 237.467 133.444 237.706 134.673C237.944 135.901 237.944 137.909 237.706 139.137ZM141.174 136.802C145.638 139.609 149.004 143.271 148.996 145.311C148.994 145.871 148.113 144.898 147.038 143.149C145.962 141.399 142.702 138.613 139.791 136.957C136.881 135.302 134.974 133.943 135.554 133.938C136.134 133.933 138.663 135.221 141.174 136.802ZM112.683 139.075C112.364 139.866 112.127 139.631 112.079 138.475C112.036 137.43 112.272 136.844 112.604 137.174C112.936 137.503 112.972 138.359 112.683 139.075ZM111.683 143.044C111.364 143.834 111.127 143.599 111.079 142.443C111.036 141.398 111.272 140.812 111.604 141.142C111.936 141.471 111.972 142.327 111.683 143.044ZM13.693 145.566C13.439 146.532 13.215 145.982 13.195 144.345C13.175 142.708 13.382 141.919 13.656 142.59C13.93 143.262 13.947 144.601 13.693 145.566ZM236.693 145.566C236.439 146.532 236.215 145.982 236.195 144.345C236.175 142.708 236.382 141.919 236.656 142.59C236.93 143.262 236.947 144.601 236.693 145.566ZM110.683 147.012C110.364 147.803 110.127 147.567 110.079 146.412C110.036 145.366 110.272 144.781 110.604 145.11C110.936 145.439 110.972 146.296 110.683 147.012ZM177.718 152.516C177.488 154.024 177.294 153.026 177.286 150.298C177.279 147.569 177.467 146.335 177.704 147.556C177.941 148.776 177.947 151.008 177.718 152.516ZM149.693 150.527C149.439 151.492 149.215 150.942 149.195 149.306C149.175 147.669 149.382 146.879 149.656 147.551C149.93 148.222 149.947 149.562 149.693 150.527ZM14.683 149.988C14.364 150.779 14.127 150.544 14.079 149.388C14.036 148.342 14.272 147.757 14.604 148.086C14.936 148.416 14.972 149.272 14.683 149.988ZM69.571 149.376C68.707 150.234 68 151.425 68 152.022C68 152.619 67.739 152.849 67.419 152.532C66.61 151.73 68.841 147.817 70.107 147.817C70.677 147.817 70.436 148.519 69.571 149.376ZM235.683 149.988C235.364 150.779 235.127 150.544 235.079 149.388C235.036 148.342 235.272 147.757 235.604 148.086C235.936 148.416 235.972 149.272 235.683 149.988ZM77 149.802C79.01 150.44 79.108 150.601 77.5 150.625C76.4 150.641 74.6 150.271 73.5 149.802C70.952 148.715 73.581 148.715 77 149.802ZM109.683 150.98C109.364 151.771 109.127 151.536 109.079 150.38C109.036 149.334 109.272 148.749 109.604 149.078C109.936 149.408 109.972 150.264 109.683 150.98ZM15.683 153.956C15.364 154.747 15.127 154.512 15.079 153.356C15.036 152.311 15.272 151.725 15.604 152.055C15.936 152.384 15.972 153.24 15.683 153.956ZM234.683 153.956C234.364 154.747 234.127 154.512 234.079 153.356C234.036 152.311 234.272 151.725 234.604 152.055C234.936 152.384 234.972 153.24 234.683 153.956ZM108.683 154.948C108.364 155.739 108.127 155.504 108.079 154.348C108.036 153.303 108.272 152.717 108.604 153.047C108.936 153.376 108.972 154.232 108.683 154.948ZM65.116 158.389C64.001 160.486 63.069 161.883 63.044 161.492C62.973 160.351 66.319 153.756 66.752 154.185C66.968 154.399 66.232 156.291 65.116 158.389ZM26.365 179.067C36.923 198.228 52.644 213.42 73 224.13C78.225 226.879 82.119 229.137 81.653 229.148C79.869 229.188 64.442 220.663 58.609 216.413C44.99 206.491 32.744 192.653 25.124 178.571C21.045 171.035 15.972 158.704 16.033 156.475C16.051 155.806 17.523 159.053 19.303 163.69C21.083 168.328 24.261 175.248 26.365 179.067ZM145.234 158.759C143.438 160.38 141.188 161.688 140.234 161.668C139.188 161.644 139.691 161.114 141.5 160.331C143.151 159.618 145.118 158.297 145.873 157.394C146.627 156.492 147.527 155.767 147.872 155.783C148.218 155.799 147.03 157.138 145.234 158.759ZM176.683 157.925C176.364 158.715 176.127 158.48 176.079 157.324C176.036 156.279 176.272 155.693 176.604 156.023C176.936 156.352 176.972 157.208 176.683 157.925ZM231.491 164.306C221.924 189.53 202.679 211.442 179 224.076C171.412 228.125 158.981 233.163 156.727 233.102C156.052 233.084 159.325 231.624 164 229.858C192.6 219.056 214.389 199.177 226.943 172.432C229.072 167.897 231.396 162.224 232.108 159.826C232.821 157.429 233.556 155.92 233.742 156.474C233.928 157.028 232.915 160.553 231.491 164.306ZM114 159.513C114.275 159.782 113.15 159.684 111.5 159.296C109.85 158.908 108.06 158.163 107.523 157.641C106.985 157.119 108.11 157.217 110.023 157.858C111.935 158.5 113.725 159.244 114 159.513ZM121.5 160.714C124.195 161.395 124.246 161.473 122 161.49C120.625 161.5 118.375 161.151 117 160.714C115.041 160.092 114.933 159.924 116.5 159.938C117.6 159.948 119.85 160.298 121.5 160.714ZM173.635 166.403C171.459 170.662 164.128 178.571 162.356 178.571C162.005 178.571 163.743 176.804 166.218 174.642C168.98 172.23 171.642 168.619 173.109 165.292C174.424 162.311 175.638 160.249 175.807 160.71C175.976 161.172 174.998 163.733 173.635 166.403ZM134.728 162.431C132.653 162.645 129.503 162.642 127.728 162.423C125.952 162.203 127.65 162.028 131.5 162.032C135.35 162.037 136.802 162.215 134.728 162.431ZM89.749 171.627C90.026 172.65 89.89 172.75 89.313 171.949C88.852 171.308 82.855 169.38 75.987 167.665C69.119 165.95 63.148 164.206 62.718 163.79C62.288 163.372 68.103 164.631 75.64 166.585C84.739 168.944 89.481 170.639 89.749 171.627ZM88.683 175.782C88.364 176.572 88.127 176.337 88.079 175.182C88.036 174.136 88.272 173.551 88.604 173.88C88.936 174.209 88.972 175.065 88.683 175.782ZM107.729 175.202C107.397 175.532 106.534 175.567 105.813 175.281C105.015 174.964 105.252 174.729 106.417 174.682C107.471 174.639 108.061 174.873 107.729 175.202ZM102.683 177.766C102.364 178.557 102.127 178.321 102.079 177.166C102.036 176.12 102.272 175.535 102.604 175.864C102.936 176.193 102.972 177.05 102.683 177.766ZM111.729 176.194C111.397 176.524 110.534 176.56 109.813 176.273C109.015 175.956 109.252 175.721 110.417 175.674C111.471 175.631 112.061 175.865 111.729 176.194ZM113.683 178.758C113.364 179.549 113.127 179.313 113.079 178.158C113.036 177.112 113.272 176.527 113.604 176.856C113.936 177.186 113.972 178.042 113.683 178.758ZM87.683 179.75C87.364 180.541 87.127 180.306 87.079 179.15C87.036 178.104 87.272 177.519 87.604 177.848C87.936 178.178 87.972 179.034 87.683 179.75ZM101.683 181.734C101.364 182.525 101.127 182.29 101.079 181.134C101.036 180.088 101.272 179.503 101.604 179.832C101.936 180.162 101.972 181.018 101.683 181.734ZM130 179.953C130 180.168 129.325 180.6 128.5 180.915C127.675 181.228 127 181.053 127 180.525C127 179.996 127.675 179.563 128.5 179.563C129.325 179.563 130 179.739 130 179.953ZM112.683 182.726C112.364 183.517 112.127 183.282 112.079 182.126C112.036 181.08 112.272 180.495 112.604 180.824C112.936 181.154 112.972 182.01 112.683 182.726ZM135.75 181.239C134.787 181.489 133.213 181.489 132.25 181.239C131.287 180.99 132.075 180.786 134 180.786C135.925 180.786 136.713 180.99 135.75 181.239ZM155.25 181.212C154.563 181.488 153.438 181.488 152.75 181.212C152.063 180.938 152.625 180.712 154 180.712C155.375 180.712 155.938 180.938 155.25 181.212ZM86.683 183.718C86.364 184.509 86.127 184.274 86.079 183.118C86.036 182.072 86.272 181.487 86.604 181.816C86.936 182.146 86.972 183.002 86.683 183.718ZM148.25 182.265C146.463 182.485 143.537 182.485 141.75 182.265C139.963 182.046 141.425 181.865 145 181.865C148.575 181.865 150.037 182.046 148.25 182.265ZM126.683 184.71C126.364 185.501 126.127 185.266 126.079 184.11C126.036 183.064 126.272 182.479 126.604 182.809C126.936 183.138 126.972 183.994 126.683 184.71ZM100.683 185.702C100.364 186.493 100.127 186.258 100.079 185.102C100.036 184.057 100.272 183.471 100.604 183.801C100.936 184.13 100.972 184.986 100.683 185.702ZM111.683 186.694C111.364 187.485 111.127 187.25 111.079 186.094C111.036 185.049 111.272 184.463 111.604 184.793C111.936 185.122 111.972 185.978 111.683 186.694ZM85.683 187.687C85.364 188.477 85.127 188.242 85.079 187.086C85.036 186.041 85.272 185.455 85.604 185.785C85.936 186.114 85.972 186.97 85.683 187.687ZM125.683 188.679C125.364 189.469 125.127 189.234 125.079 188.078C125.036 187.033 125.272 186.447 125.604 186.777C125.936 187.106 125.972 187.962 125.683 188.679ZM99.683 189.671C99.364 190.461 99.127 190.226 99.079 189.07C99.036 188.025 99.272 187.439 99.604 187.769C99.936 188.098 99.972 188.954 99.683 189.671ZM110.683 190.663C110.364 191.453 110.127 191.218 110.079 190.062C110.036 189.017 110.272 188.432 110.604 188.761C110.936 189.09 110.972 189.946 110.683 190.663ZM85.29 191.468C85.577 192.56 85.405 193.452 84.906 193.452C84.408 193.452 84 192.56 84 191.468C84 190.377 84.173 189.484 84.383 189.484C84.594 189.484 85.002 190.377 85.29 191.468ZM124.683 192.647C124.364 193.438 124.127 193.202 124.079 192.047C124.036 191.001 124.272 190.416 124.604 190.745C124.936 191.074 124.972 191.931 124.683 192.647ZM98.683 193.639C98.364 194.43 98.127 194.194 98.079 193.039C98.036 191.993 98.272 191.408 98.604 191.737C98.936 192.066 98.972 192.923 98.683 193.639ZM109.683 194.631C109.364 195.422 109.127 195.187 109.079 194.031C109.036 192.985 109.272 192.4 109.604 192.729C109.936 193.059 109.972 193.915 109.683 194.631ZM89.729 194.052C89.397 194.381 88.534 194.417 87.813 194.13C87.015 193.813 87.252 193.578 88.417 193.531C89.471 193.488 90.061 193.722 89.729 194.052ZM93.729 195.044C93.397 195.373 92.534 195.409 91.813 195.122C91.015 194.806 91.252 194.57 92.417 194.523C93.471 194.48 94.061 194.714 93.729 195.044ZM123.683 196.615C123.364 197.406 123.127 197.171 123.079 196.015C123.036 194.969 123.272 194.384 123.604 194.713C123.936 195.043 123.972 195.899 123.683 196.615ZM97.729 196.036C97.397 196.365 96.534 196.401 95.813 196.114C95.015 195.798 95.252 195.562 96.417 195.515C97.471 195.472 98.061 195.706 97.729 196.036ZM109.362 197.917C109.678 198.735 109.501 199.405 108.969 199.405C108.436 199.405 108 198.735 108 197.917C108 197.098 108.177 196.429 108.393 196.429C108.609 196.429 109.045 197.098 109.362 197.917ZM122.655 200.85C122.329 201.692 121.261 202.329 120.281 202.266C118.612 202.158 118.61 202.122 120.25 201.697C121.213 201.447 122 200.532 122 199.663C122 198.794 122.281 198.36 122.624 198.7C122.966 199.041 122.981 200.008 122.655 200.85ZM113.729 200.004C113.397 200.333 112.534 200.369 111.813 200.082C111.015 199.766 111.252 199.531 112.417 199.483C113.471 199.44 114.061 199.675 113.729 200.004ZM117.729 200.996C117.397 201.325 116.534 201.361 115.813 201.074C115.015 200.758 115.252 200.523 116.417 200.475C117.471 200.433 118.061 200.667 117.729 200.996ZM91 231.804C93.995 232.968 94.083 233.083 91.61 232.6C90.021 232.29 87.321 231.395 85.61 230.611C83.271 229.54 83.12 229.342 85 229.814C86.375 230.16 89.075 231.055 91 231.804ZM97.729 233.734C97.397 234.063 96.534 234.099 95.813 233.812C95.015 233.496 95.252 233.261 96.417 233.213C97.471 233.171 98.061 233.405 97.729 233.734ZM154.729 233.734C154.397 234.063 153.534 234.099 152.813 233.812C152.015 233.496 152.252 233.261 153.417 233.213C154.471 233.171 155.061 233.405 154.729 233.734ZM101.729 234.726C101.397 235.056 100.534 235.091 99.813 234.805C99.015 234.488 99.252 234.253 100.417 234.205C101.471 234.163 102.061 234.397 101.729 234.726ZM150.729 234.726C150.397 235.056 149.534 235.091 148.813 234.805C148.015 234.488 148.252 234.253 149.417 234.205C150.471 234.163 151.061 234.397 150.729 234.726ZM107.269 235.77C106.592 236.042 105.242 236.059 104.269 235.807C103.296 235.555 103.85 235.332 105.5 235.313C107.15 235.293 107.946 235.498 107.269 235.77ZM146.269 235.77C145.592 236.042 144.242 236.059 143.269 235.807C142.296 235.555 142.85 235.332 144.5 235.313C146.15 235.293 146.946 235.498 146.269 235.77ZM115.25 236.812C114.013 237.048 111.987 237.048 110.75 236.812C109.513 236.574 110.525 236.381 113 236.381C115.475 236.381 116.487 236.574 115.25 236.812ZM139.25 236.812C138.012 237.048 135.988 237.048 134.75 236.812C133.512 236.574 134.525 236.381 137 236.381C139.475 236.381 140.488 236.574 139.25 236.812ZM127.75 237.813C126.237 238.041 123.763 238.041 122.25 237.813C120.737 237.586 121.975 237.401 125 237.401C128.025 237.401 129.262 237.586 127.75 237.813Z" fill="#286DFF"/>
<path fill-rule="evenodd" clip-rule="evenodd" d="M98.5 2.96429C60.662 11.502 29.332 35.8323 12.256 69.9405C3.162 88.1052 0 102.312 0 125C0 148.531 3.215 162.305 13.285 181.92C30.369 215.198 61.442 238.824 99 247.093C111.034 249.743 138.966 249.743 151 247.093C189.082 238.708 220.56 214.383 237.744 180.06C246.838 161.895 250 147.688 250 125C250 101.469 246.785 87.6954 236.715 68.0804C219.631 34.8016 188.558 11.1756 151 2.90675C139.212 0.311515 110.117 0.343261 98.5 2.96429ZM147.725 14.3105C170.899 19.2024 187.757 28.3909 205.07 45.5655C222.319 62.6786 231.263 78.7768 236.677 102.455C238.929 112.309 238.929 137.691 236.677 147.545C231.263 171.223 222.319 187.321 205.07 204.435C187.82 221.547 171.593 230.42 147.725 235.791C137.793 238.025 112.207 238.025 102.275 235.791C78.407 230.42 62.18 221.547 44.93 204.435C27.681 187.321 18.737 171.223 13.323 147.545C11.071 137.691 11.071 112.309 13.323 102.455C18.399 80.252 27.39 63.381 42.481 47.7411C61.626 27.9008 83.534 16.63 110.208 12.8968C118.794 11.6964 138.934 12.4544 147.725 14.3105ZM110.5 14.0149C73.754 18.5685 40.305 42.4435 24.007 75.752C8.331 107.786 8.331 142.214 24.007 174.248C47.659 222.583 103.671 247.382 155.737 232.569C208.037 217.69 242.911 166.935 237.134 114.1C230.217 50.8304 173.723 6.18056 110.5 14.0149ZM128.499 48.9425C131.501 49.7153 133.618 50.8472 133.799 51.7788C133.964 52.632 133.016 57.5645 131.691 62.7401L129.282 72.1508L133.884 73.1954C136.577 73.8066 138.716 73.8691 139.042 73.3452C139.348 72.8542 140.631 68.2034 141.893 63.0119C143.648 55.7867 144.576 53.5744 145.843 53.5833C147.612 53.5962 157.973 56.1905 158.554 56.7659C158.744 56.9554 157.807 61.3363 156.47 66.501C155.134 71.6667 154.031 76.5694 154.02 77.3958C154.008 78.3026 155.896 79.5675 158.772 80.5814C166.025 83.1359 174.04 89.1806 177.465 94.6766C179.978 98.7093 180.499 100.583 180.491 105.577C180.486 108.979 179.698 113.633 178.683 116.256C176.723 121.319 170.565 127.549 166.525 128.555C164.002 129.183 164.003 129.187 167.868 131.964C176.147 137.914 179.22 145.866 177.126 155.924C173.566 173.022 163.216 181.825 146.5 181.973C142.1 182.012 136.054 181.82 133.065 181.548L127.631 181.052L125.065 191.15C123.654 196.703 122.212 201.528 121.861 201.87C121.315 202.401 109.057 199.77 108.202 198.938C108.039 198.779 109.051 194.162 110.452 188.679C111.854 183.194 113 178.281 113 177.758C113 177.235 111.393 176.509 109.429 176.144C107.465 175.778 105.3 175.267 104.618 175.007C103.766 174.683 102.637 177.646 101.015 184.461C99.716 189.922 98.352 194.871 97.986 195.459C97.182 196.75 84 193.745 84 192.272C84 191.755 85.146 186.845 86.548 181.361C87.949 175.878 88.958 171.255 88.79 171.088C88.623 170.922 82.864 169.382 75.993 167.667C69.122 165.951 63.19 164.243 62.81 163.871C62.181 163.254 67.343 150.264 68.883 148.591C69.244 148.198 72.006 148.525 75.02 149.317C81.974 151.145 83.721 150.563 84.929 146.022C94.103 111.516 100.008 85.628 99.137 83.7321C98.179 81.6468 90.693 78.373 86.881 78.373C85.911 78.373 84.863 77.9643 84.552 77.4643C83.779 76.2232 87.172 62.5 88.252 62.5C88.728 62.5 94.464 63.8393 101 65.4762C107.536 67.1131 113.305 68.4524 113.82 68.4524C114.335 68.4524 115.51 65.4395 116.43 61.756C120.475 45.5635 119.478 46.623 128.499 48.9425ZM120.099 52.3314C119.561 54.378 118.378 58.9494 117.471 62.4911C116.563 66.0327 115.64 69.2202 115.418 69.5754C115.197 69.9306 109.063 68.7312 101.787 66.9107C94.51 65.0903 88.473 63.6885 88.37 63.7946C87.686 64.505 85.188 75.9147 85.622 76.3462C85.92 76.6429 88.669 77.5546 91.732 78.373C95.585 79.4028 97.938 80.7113 99.37 82.622L101.44 85.3829L93.47 117.232C84.241 154.114 84.854 152.993 75.221 150.585L69.46 149.146L66.391 156.247L63.322 163.347L76.661 166.597C83.998 168.384 90 170.278 90 170.805C90 171.332 88.854 176.25 87.452 181.734C86.051 187.217 85.105 191.903 85.349 192.145C86.358 193.147 96.51 195.321 97.099 194.663C97.451 194.27 98.756 189.707 100 184.524C101.244 179.34 102.58 174.747 102.97 174.316C103.906 173.282 113.125 175.755 113.679 177.188C114.033 178.103 111.527 189.484 109.4 196.625C108.903 198.295 109.776 198.682 119.056 200.897C121.561 201.495 121.657 201.313 123.979 191.555C125.282 186.081 126.649 181.118 127.019 180.526C127.5 179.753 130.116 179.769 136.29 180.584C159.642 183.667 173.343 174.502 176.488 153.698C177.636 146.104 175.666 141.163 168.936 134.754L163.031 129.131L167.542 126.963C173.475 124.115 176.646 119.798 178.612 111.893C180.087 105.964 180.088 104.974 178.623 99.9742C176.573 92.9812 170.746 87.4851 160.186 82.5853C155.959 80.624 152.401 78.9623 152.28 78.8909C152.159 78.8204 153.33 73.9484 154.882 68.0635C156.767 60.9157 157.338 57.247 156.602 57.0099C153.723 56.0843 147.377 54.5744 146.343 54.5694C145.707 54.5665 144.155 58.8115 142.893 64.004C141.631 69.1954 140.31 73.9067 139.957 74.4742C139.324 75.4901 130.409 73.9355 128.793 72.5268C128.404 72.1885 129.183 67.6726 130.523 62.4931C131.863 57.3135 132.969 52.5943 132.98 52.006C132.997 51.1101 124.885 48.6111 121.962 48.6111C121.475 48.6111 120.637 50.2857 120.099 52.3314ZM146.302 94.5744C151.689 97.7064 154 101.425 154 106.959C154 114.266 147.695 119.048 138.061 119.048C132.03 119.048 118 116.125 118 114.868C118 113.966 123.714 90.8046 124.481 88.6002C125.066 86.9167 140.308 91.0893 146.302 94.5744ZM122.085 101.813C120.346 108.703 119.053 114.454 119.211 114.593C120.2 115.453 134.677 118.056 138.48 118.056C147.781 118.056 153 113.561 153 105.551C153 99.9435 147.283 95.0476 136.954 91.8105C132.522 90.4216 128.076 89.2857 127.072 89.2857C125.569 89.2857 124.69 91.495 122.085 101.813ZM130.681 132.057C142.74 135.883 148.954 141.046 149.65 147.817C150.236 153.514 147.752 158.404 143.016 160.878C138.244 163.371 127.167 163.262 115.784 160.611C108.524 158.92 106.903 158.213 107.249 156.891C107.484 155.993 109.203 149.089 111.068 141.55L114.459 127.84L117.979 128.492C119.916 128.85 125.631 130.454 130.681 132.057ZM111.692 143.058C109.729 150.835 108.227 157.302 108.353 157.428C109.403 158.468 122.07 160.961 128.588 161.41C141.671 162.31 147.809 159.008 148.671 150.607C149.529 142.24 142.157 136.014 126.567 131.939C122.13 130.78 117.771 129.626 116.881 129.374C115.551 128.999 114.625 131.44 111.692 143.058Z" fill="#0052FF"/>
<path fill-rule="evenodd" clip-rule="evenodd" d="M110.5 14.0149C73.754 18.5685 40.305 42.4435 24.007 75.752C8.331 107.786 8.331 142.214 24.007 174.248C47.659 222.583 103.671 247.382 155.737 232.569C208.037 217.69 242.911 166.935 237.134 114.1C230.217 50.8304 173.723 6.18056 110.5 14.0149ZM128.499 48.9425C131.501 49.7153 133.618 50.8472 133.799 51.7788C133.964 52.6319 133.016 57.5645 131.691 62.7401L129.282 72.1508L133.884 73.1954C136.577 73.8065 138.716 73.8691 139.042 73.3452C139.348 72.8542 140.631 68.2034 141.893 63.0119C143.648 55.7867 144.576 53.5744 145.843 53.5833C147.612 53.5962 157.973 56.1905 158.554 56.7659C158.744 56.9554 157.807 61.3363 156.47 66.501C155.134 71.6667 154.031 76.5694 154.02 77.3958C154.008 78.3026 155.896 79.5675 158.772 80.5814C166.025 83.1359 174.04 89.1806 177.465 94.6766C179.978 98.7093 180.499 100.583 180.491 105.577C180.486 108.979 179.698 113.633 178.683 116.256C176.723 121.319 170.565 127.549 166.525 128.555C164.002 129.183 164.003 129.187 167.868 131.964C176.147 137.914 179.22 145.866 177.126 155.924C173.566 173.022 163.216 181.825 146.5 181.973C142.1 182.012 136.054 181.82 133.065 181.548L127.631 181.052L125.065 191.15C123.654 196.703 122.212 201.528 121.861 201.87C121.315 202.401 109.057 199.77 108.202 198.938C108.039 198.779 109.051 194.162 110.452 188.679C111.854 183.194 113 178.281 113 177.758C113 177.235 111.393 176.509 109.429 176.144C107.465 175.778 105.3 175.267 104.618 175.007C103.766 174.683 102.637 177.646 101.015 184.461C99.716 189.922 98.352 194.871 97.986 195.459C97.182 196.75 84 193.745 84 192.272C84 191.755 85.146 186.845 86.548 181.361C87.949 175.878 88.958 171.255 88.79 171.088C88.623 170.922 82.864 169.382 75.993 167.667C69.122 165.951 63.19 164.243 62.81 163.871C62.181 163.254 67.343 150.264 68.883 148.591C69.244 148.198 72.006 148.525 75.02 149.317C81.974 151.145 83.721 150.563 84.929 146.022C94.103 111.516 100.008 85.628 99.137 83.7321C98.179 81.6468 90.693 78.373 86.881 78.373C85.911 78.373 84.863 77.9643 84.552 77.4643C83.779 76.2232 87.172 62.5 88.252 62.5C88.728 62.5 94.464 63.8393 101 65.4762C107.536 67.1131 113.305 68.4524 113.82 68.4524C114.335 68.4524 115.51 65.4395 116.43 61.756C120.475 45.5635 119.478 46.623 128.499 48.9425ZM122.085 101.813C120.346 108.703 119.053 114.454 119.211 114.593C120.2 115.453 134.677 118.056 138.48 118.056C147.781 118.056 153 113.561 153 105.551C153 99.9435 147.283 95.0476 136.954 91.8105C132.522 90.4216 128.076 89.2857 127.072 89.2857C125.569 89.2857 124.69 91.495 122.085 101.813ZM111.692 143.058C109.729 150.835 108.227 157.302 108.353 157.428C109.403 158.468 122.07 160.961 128.588 161.41C141.671 162.31 147.809 159.008 148.671 150.607C149.529 142.24 142.157 136.014 126.567 131.939C122.13 130.78 117.771 129.626 116.881 129.374C115.551 128.999 114.625 131.44 111.692 143.058Z" fill="white"/>
</g>
<defs>
<clipPath id="clip0_1_2">
<rect width="250" height="250" rx="125" fill="white"/>
</clipPath>
</defs>
</svg>
