<svg width="250" height="252" viewBox="0 0 250 252" fill="none" xmlns="http://www.w3.org/2000/svg">
<path fill-rule="evenodd" clip-rule="evenodd" d="M104 1.70901C53.859 10.473 13.609 48.589 2.42201 97.904C0.379005 106.91 0.0180054 111.125 0.0180054 126C0.0180054 140.963 0.373006 145.065 2.46601 154.293C13.123 201.27 50.008 237.986 97.259 248.651C107.779 251.025 109.783 251.158 128.5 250.73C150.27 250.232 157.556 248.849 173.677 242.154C210.599 226.822 238.667 193.377 247.578 154.096C249.621 145.09 249.982 140.875 249.982 126C249.982 111.037 249.627 106.935 247.534 97.707C236.929 50.956 200.029 14.068 153.254 3.45801C143.834 1.32101 140.266 1.03401 124.5 1.14501C114.6 1.21501 105.375 1.46901 104 1.70901Z" fill="#0000FF"/>
<path fill-rule="evenodd" clip-rule="evenodd" d="M96.432 3.47101C48.595 14.548 11.487 53.034 1.518 101.91C0.158003 108.582 -0.0969968 114.044 0.239003 129.369C0.609003 146.211 0.983003 149.697 3.36 158.5C4.862 164.064 8.668 173.841 11.939 180.54C29.081 215.65 59.647 240.126 96.904 248.578C105.91 250.621 110.125 250.982 125 250.982C139.875 250.982 144.09 250.621 153.096 248.578C201.217 237.661 238.465 199.203 248.482 150.09C249.842 143.418 250.097 137.956 249.761 122.631C249.391 105.789 249.017 102.303 246.64 93.5C245.138 87.936 241.332 78.159 238.061 71.46C220.919 36.35 190.353 11.874 153.096 3.42201C143.945 1.34601 140.045 1.02601 124.5 1.07901C109.34 1.13001 104.912 1.50701 96.432 3.47101Z" fill="#C4D7FF"/>
<path fill-rule="evenodd" clip-rule="evenodd" d="M96.432 3.47101C48.595 14.548 11.487 53.034 1.518 101.91C0.158003 108.582 -0.0969968 114.044 0.239003 129.369C0.609003 146.211 0.983003 149.697 3.36 158.5C4.862 164.064 8.668 173.841 11.939 180.54C29.081 215.65 59.647 240.126 96.904 248.578C105.91 250.621 110.125 250.982 125 250.982C139.875 250.982 144.09 250.621 153.096 248.578C201.217 237.661 238.465 199.203 248.482 150.09C249.842 143.418 250.097 137.956 249.761 122.631C249.391 105.789 249.017 102.303 246.64 93.5C245.138 87.936 241.332 78.159 238.061 71.46C220.919 36.35 190.353 11.874 153.096 3.42201C143.945 1.34601 140.045 1.02601 124.5 1.07901C109.34 1.13001 104.912 1.50701 96.432 3.47101ZM116.729 13.604C116.397 13.936 115.534 13.972 114.813 13.683C114.015 13.364 114.252 13.127 115.417 13.079C116.471 13.036 117.061 13.272 116.729 13.604ZM135.729 13.604C135.397 13.936 134.534 13.972 133.813 13.683C133.015 13.364 133.252 13.127 134.417 13.079C135.471 13.036 136.061 13.272 135.729 13.604ZM174 90.5C175.292 91.875 176.124 93 175.849 93C175.574 93 174.292 91.875 173 90.5C171.708 89.125 170.876 88 171.151 88C171.426 88 172.708 89.125 174 90.5ZM180.707 108.238C180.468 109.482 180.263 108.7 180.252 106.5C180.241 104.3 180.437 103.282 180.687 104.238C180.937 105.194 180.946 106.994 180.707 108.238ZM12.683 117.188C12.364 117.985 12.127 117.748 12.079 116.583C12.036 115.529 12.272 114.939 12.604 115.271C12.936 115.603 12.972 116.466 12.683 117.188ZM237.683 117.188C237.364 117.985 237.127 117.748 237.079 116.583C237.036 115.529 237.272 114.939 237.604 115.271C237.936 115.603 237.972 116.466 237.683 117.188ZM12.683 136.188C12.364 136.985 12.127 136.748 12.079 135.583C12.036 134.529 12.272 133.939 12.604 134.271C12.936 134.603 12.972 135.466 12.683 136.188ZM237.683 136.188C237.364 136.985 237.127 136.748 237.079 135.583C237.036 134.529 237.272 133.939 237.604 134.271C237.936 134.603 237.972 135.466 237.683 136.188ZM71 149.393C71 149.609 70.302 150.054 69.448 150.382C68.558 150.723 68.157 150.555 68.507 149.989C69.094 149.038 71 148.583 71 149.393ZM177.683 155.188C177.364 155.985 177.127 155.748 177.079 154.583C177.036 153.529 177.272 152.939 177.604 153.271C177.936 153.603 177.972 154.466 177.683 155.188ZM143.269 183.656C142.592 183.93 141.242 183.947 140.269 183.693C139.296 183.439 139.85 183.215 141.5 183.195C143.15 183.175 143.946 183.382 143.269 183.656ZM150.269 183.656C149.592 183.93 148.242 183.947 147.269 183.693C146.296 183.439 146.85 183.215 148.5 183.195C150.15 183.175 150.946 183.382 150.269 183.656ZM116.729 238.604C116.397 238.936 115.534 238.972 114.813 238.683C114.015 238.364 114.252 238.127 115.417 238.079C116.471 238.036 117.061 238.272 116.729 238.604ZM135.729 238.604C135.397 238.936 134.534 238.972 133.813 238.683C133.015 238.364 133.252 238.127 134.417 238.079C135.471 238.036 136.061 238.272 135.729 238.604Z" fill="#99BAFF"/>
<path fill-rule="evenodd" clip-rule="evenodd" d="M96.432 3.47101C48.595 14.548 11.487 53.034 1.518 101.91C0.158003 108.582 -0.0969968 114.044 0.239003 129.369C0.609003 146.211 0.983003 149.697 3.36 158.5C4.862 164.064 8.668 173.841 11.939 180.54C29.081 215.65 59.647 240.126 96.904 248.578C105.91 250.621 110.125 250.982 125 250.982C139.875 250.982 144.09 250.621 153.096 248.578C201.217 237.661 238.465 199.203 248.482 150.09C249.842 143.418 250.097 137.956 249.761 122.631C249.391 105.789 249.017 102.303 246.64 93.5C245.138 87.936 241.332 78.159 238.061 71.46C220.919 36.35 190.353 11.874 153.096 3.42201C143.945 1.34601 140.045 1.02601 124.5 1.07901C109.34 1.13001 104.912 1.50701 96.432 3.47101ZM115.75 13.689C114.787 13.941 113.213 13.941 112.25 13.689C111.287 13.438 112.075 13.232 114 13.232C115.925 13.232 116.713 13.438 115.75 13.689ZM137.75 13.689C136.787 13.941 135.213 13.941 134.25 13.689C133.287 13.438 134.075 13.232 136 13.232C137.925 13.232 138.713 13.438 137.75 13.689ZM107.729 14.604C107.397 14.936 106.534 14.972 105.813 14.683C105.015 14.364 105.252 14.127 106.417 14.079C107.471 14.036 108.061 14.272 107.729 14.604ZM144.729 14.604C144.397 14.936 143.534 14.972 142.813 14.683C142.015 14.364 142.252 14.127 143.417 14.079C144.471 14.036 145.061 14.272 144.729 14.604ZM176.493 24.989C176.843 25.555 176.442 25.723 175.552 25.382C173.82 24.717 173.503 24 174.941 24C175.459 24 176.157 24.445 176.493 24.989ZM56 36.345C56 36.535 54.987 37.547 53.75 38.595L51.5 40.5L53.405 38.25C55.195 36.136 56 35.545 56 36.345ZM196.5 38C197.495 39.1 198.085 40 197.81 40C197.535 40 196.495 39.1 195.5 38C194.505 36.9 193.915 36 194.19 36C194.465 36 195.505 36.9 196.5 38ZM50 41.288C50 41.446 47.638 43.808 44.75 46.538L39.5 51.5L44.462 46.25C49.074 41.372 50 40.541 50 41.288ZM205.5 46C208.209 48.75 210.2 51 209.925 51C209.65 51 207.209 48.75 204.5 46C201.791 43.25 199.8 41 200.075 41C200.35 41 202.791 43.25 205.5 46ZM119.683 52.188C119.364 52.985 119.127 52.748 119.079 51.583C119.036 50.529 119.272 49.939 119.604 50.271C119.936 50.603 119.972 51.466 119.683 52.188ZM39 53.345C39 53.535 37.987 54.547 36.75 55.595L34.5 57.5L36.405 55.25C38.195 53.136 39 52.545 39 53.345ZM213.5 55C214.495 56.1 215.085 57 214.81 57C214.535 57 213.495 56.1 212.5 55C211.505 53.9 210.915 53 211.19 53C211.465 53 212.505 53.9 213.5 55ZM118.683 56.188C118.364 56.985 118.127 56.748 118.079 55.583C118.036 54.529 118.272 53.939 118.604 54.271C118.936 54.603 118.972 55.466 118.683 56.188ZM132.683 59.188C132.364 59.985 132.127 59.748 132.079 58.583C132.036 57.529 132.272 56.939 132.604 57.271C132.936 57.603 132.972 58.466 132.683 59.188ZM143.683 59.188C143.364 59.985 143.127 59.748 143.079 58.583C143.036 57.529 143.272 56.939 143.604 57.271C143.936 57.603 143.972 58.466 143.683 59.188ZM117.683 60.188C117.364 60.985 117.127 60.748 117.079 59.583C117.036 58.529 117.272 57.939 117.604 58.271C117.936 58.603 117.972 59.466 117.683 60.188ZM142.683 63.188C142.364 63.985 142.127 63.748 142.079 62.583C142.036 61.529 142.272 60.939 142.604 61.271C142.936 61.603 142.972 62.466 142.683 63.188ZM116.683 64.188C116.364 64.985 116.127 64.748 116.079 63.583C116.036 62.529 116.272 61.939 116.604 62.271C116.936 62.603 116.972 63.466 116.683 64.188ZM91 63.383C91 63.594 90.1 64.002 89 64.29C87.9 64.577 87 64.405 87 63.906C87 63.408 87.9 63 89 63C90.1 63 91 63.173 91 63.383ZM94.729 64.604C94.397 64.936 93.534 64.972 92.813 64.683C92.015 64.364 92.252 64.127 93.417 64.079C94.471 64.036 95.061 64.272 94.729 64.604ZM98.729 65.604C98.397 65.936 97.534 65.972 96.813 65.683C96.015 65.364 96.252 65.127 97.417 65.079C98.471 65.036 99.061 65.272 98.729 65.604ZM130.683 67.188C130.364 67.985 130.127 67.748 130.079 66.583C130.036 65.529 130.272 64.939 130.604 65.271C130.936 65.603 130.972 66.466 130.683 67.188ZM141.683 67.188C141.364 67.985 141.127 67.748 141.079 66.583C141.036 65.529 141.272 64.939 141.604 65.271C141.936 65.603 141.972 66.466 141.683 67.188ZM102.729 66.604C102.397 66.936 101.534 66.972 100.813 66.683C100.015 66.364 100.252 66.127 101.417 66.079C102.471 66.036 103.061 66.272 102.729 66.604ZM115.655 68.457C115.329 69.306 114.261 69.948 113.281 69.884C111.612 69.775 111.61 69.739 113.25 69.311C114.213 69.059 115 68.136 115 67.26C115 66.384 115.281 65.947 115.624 66.29C115.966 66.633 115.981 67.608 115.655 68.457ZM106.729 67.604C106.397 67.936 105.534 67.972 104.813 67.683C104.015 67.364 104.252 67.127 105.417 67.079C106.471 67.036 107.061 67.272 106.729 67.604ZM110.729 68.604C110.397 68.936 109.534 68.972 108.813 68.683C108.015 68.364 108.252 68.127 109.417 68.079C110.471 68.036 111.061 68.272 110.729 68.604ZM140.683 71.188C140.364 71.985 140.127 71.748 140.079 70.583C140.036 69.529 140.272 68.939 140.604 69.271C140.936 69.603 140.972 70.466 140.683 71.188ZM24.345 75.543C24.019 76.392 23.538 76.872 23.276 76.61C23.014 76.348 23.096 75.653 23.459 75.067C24.445 73.471 25.021 73.781 24.345 75.543ZM86.811 78.381C88.036 78.747 87.954 78.829 86.511 78.681C85.346 78.561 84.439 77.654 84.319 76.489C84.171 75.046 84.253 74.964 84.619 76.189C84.896 77.117 85.883 78.104 86.811 78.381ZM153.683 79.188C153.364 79.985 153.127 79.748 153.079 78.583C153.036 77.529 153.272 76.939 153.604 77.271C153.936 77.603 153.972 78.466 153.683 79.188ZM161 82C161.825 82.533 162.05 82.969 161.5 82.969C160.95 82.969 159.825 82.533 159 82C158.175 81.467 157.95 81.031 158.5 81.031C159.05 81.031 160.175 81.467 161 82ZM20.122 84.675C18.943 86.702 18.659 86.053 19.624 83.539C19.966 82.645 20.458 82.124 20.715 82.382C20.973 82.639 20.706 83.671 20.122 84.675ZM167 85.57C167 85.845 166.1 85.589 165 85C163.9 84.411 163 83.705 163 83.43C163 83.155 163.9 83.411 165 84C166.1 84.589 167 85.295 167 85.57ZM174 90.5C175.292 91.875 176.124 93 175.849 93C175.574 93 174.292 91.875 173 90.5C171.708 89.125 170.876 88 171.151 88C171.426 88 172.708 89.125 174 90.5ZM99.683 91.188C99.364 91.985 99.127 91.748 99.079 90.583C99.036 89.529 99.272 88.939 99.604 89.271C99.936 89.603 99.972 90.466 99.683 91.188ZM127.729 89.604C127.397 89.936 126.534 89.972 125.813 89.683C125.015 89.364 125.252 89.127 126.417 89.079C127.471 89.036 128.061 89.272 127.729 89.604ZM98.683 95.188C98.364 95.985 98.127 95.748 98.079 94.583C98.036 93.529 98.272 92.939 98.604 93.271C98.936 93.603 98.972 94.466 98.683 95.188ZM97.683 99.188C97.364 99.985 97.127 99.748 97.079 98.583C97.036 97.529 97.272 96.939 97.604 97.271C97.936 97.603 97.972 98.466 97.683 99.188ZM150.5 99C151.495 100.1 152.085 101 151.81 101C151.535 101 150.495 100.1 149.5 99C148.505 97.9 147.915 97 148.19 97C148.465 97 149.505 97.9 150.5 99ZM96.683 103.188C96.364 103.985 96.127 103.748 96.079 102.583C96.036 101.529 96.272 100.939 96.604 101.271C96.936 101.603 96.972 102.466 96.683 103.188ZM180.707 108.238C180.468 109.482 180.263 108.7 180.252 106.5C180.241 104.3 180.437 103.282 180.687 104.238C180.937 105.194 180.946 106.994 180.707 108.238ZM95.683 107.188C95.364 107.985 95.127 107.748 95.079 106.583C95.036 105.529 95.272 104.939 95.604 105.271C95.936 105.603 95.972 106.466 95.683 107.188ZM153.662 108.25C153.385 108.938 153.158 108.375 153.158 107C153.158 105.625 153.385 105.063 153.662 105.75C153.94 106.438 153.94 107.563 153.662 108.25ZM13.683 108.188C13.364 108.985 13.127 108.748 13.079 107.583C13.036 106.529 13.272 105.939 13.604 106.271C13.936 106.603 13.972 107.466 13.683 108.188ZM236.683 108.188C236.364 108.985 236.127 108.748 236.079 107.583C236.036 106.529 236.272 105.939 236.604 106.271C236.936 106.603 236.972 107.466 236.683 108.188ZM94.683 111.188C94.364 111.985 94.127 111.748 94.079 110.583C94.036 109.529 94.272 108.939 94.604 109.271C94.936 109.603 94.972 110.466 94.683 111.188ZM152.124 113.267C151.136 114.247 151.022 114.132 151.564 112.707C151.94 111.721 152.499 111.166 152.807 111.474C153.115 111.781 152.808 112.588 152.124 113.267ZM12.689 116.75C12.438 117.713 12.232 116.925 12.232 115C12.232 113.075 12.438 112.287 12.689 113.25C12.941 114.213 12.941 115.787 12.689 116.75ZM237.689 116.75C237.438 117.713 237.232 116.925 237.232 115C237.232 113.075 237.438 112.287 237.689 113.25C237.941 114.213 237.941 115.787 237.689 116.75ZM93.683 115.188C93.364 115.985 93.127 115.748 93.079 114.583C93.036 113.529 93.272 112.939 93.604 113.271C93.936 113.603 93.972 114.466 93.683 115.188ZM122.729 116.604C122.397 116.936 121.534 116.972 120.813 116.683C120.015 116.364 120.252 116.127 121.417 116.079C122.471 116.036 123.061 116.272 122.729 116.604ZM92.683 119.188C92.364 119.985 92.127 119.748 92.079 118.583C92.036 117.529 92.272 116.939 92.604 117.271C92.936 117.603 92.972 118.466 92.683 119.188ZM126.729 117.604C126.397 117.936 125.534 117.972 124.813 117.683C124.015 117.364 124.252 117.127 125.417 117.079C126.471 117.036 127.061 117.272 126.729 117.604ZM131.729 118.604C131.397 118.936 130.534 118.972 129.813 118.683C129.015 118.364 129.252 118.127 130.417 118.079C131.471 118.036 132.061 118.272 131.729 118.604ZM140.269 119.656C139.592 119.93 138.242 119.947 137.269 119.693C136.296 119.439 136.85 119.215 138.5 119.195C140.15 119.175 140.946 119.382 140.269 119.656ZM91.683 123.188C91.364 123.985 91.127 123.748 91.079 122.583C91.036 121.529 91.272 120.939 91.604 121.271C91.936 121.603 91.972 122.466 91.683 123.188ZM177 121.378C177 121.585 176.213 122.373 175.25 123.128C173.664 124.371 173.629 124.336 174.872 122.75C176.179 121.084 177 120.555 177 121.378ZM90.683 127.188C90.364 127.985 90.127 127.748 90.079 126.583C90.036 125.529 90.272 124.939 90.604 125.271C90.936 125.603 90.972 126.466 90.683 127.188ZM89.683 131.188C89.364 131.985 89.127 131.748 89.079 130.583C89.036 129.529 89.272 128.939 89.604 129.271C89.936 129.603 89.972 130.466 89.683 131.188ZM119.729 130.604C119.397 130.936 118.534 130.972 117.813 130.683C117.015 130.364 117.252 130.127 118.417 130.079C119.471 130.036 120.061 130.272 119.729 130.604ZM123.729 131.604C123.397 131.936 122.534 131.972 121.813 131.683C121.015 131.364 121.252 131.127 122.417 131.079C123.471 131.036 124.061 131.272 123.729 131.604ZM127.729 132.604C127.397 132.936 126.534 132.972 125.813 132.683C125.015 132.364 125.252 132.127 126.417 132.079C127.471 132.036 128.061 132.272 127.729 132.604ZM88.683 135.188C88.364 135.985 88.127 135.748 88.079 134.583C88.036 133.529 88.272 132.939 88.604 133.271C88.936 133.603 88.972 134.466 88.683 135.188ZM171.563 136.25L174.5 139.5L171.25 136.563C168.221 133.825 167.54 133 168.313 133C168.485 133 169.948 134.463 171.563 136.25ZM12.689 138.75C12.438 139.713 12.232 138.925 12.232 137C12.232 135.075 12.438 134.287 12.689 135.25C12.941 136.213 12.941 137.787 12.689 138.75ZM237.689 138.75C237.438 139.713 237.232 138.925 237.232 137C237.232 135.075 237.438 134.287 237.689 135.25C237.941 136.213 237.941 137.787 237.689 138.75ZM87.683 139.188C87.364 139.985 87.127 139.748 87.079 138.583C87.036 137.529 87.272 136.939 87.604 137.271C87.936 137.603 87.972 138.466 87.683 139.188ZM146.128 141.75C147.371 143.336 147.336 143.371 145.75 142.128C144.084 140.821 143.555 140 144.378 140C144.585 140 145.373 140.787 146.128 141.75ZM175.807 142.526C175.499 142.834 174.94 142.279 174.564 141.293C174.022 139.868 174.136 139.753 175.124 140.733C175.808 141.412 176.115 142.219 175.807 142.526ZM86.683 143.188C86.364 143.985 86.127 143.748 86.079 142.583C86.036 141.529 86.272 140.939 86.604 141.271C86.936 141.603 86.972 142.466 86.683 143.188ZM13.683 145.188C13.364 145.985 13.127 145.748 13.079 144.583C13.036 143.529 13.272 142.939 13.604 143.271C13.936 143.603 13.972 144.466 13.683 145.188ZM236.683 145.188C236.364 145.985 236.127 145.748 236.079 144.583C236.036 143.529 236.272 142.939 236.604 143.271C236.936 143.603 236.972 144.466 236.683 145.188ZM85.683 147.188C85.364 147.985 85.127 147.748 85.079 146.583C85.036 145.529 85.272 144.939 85.604 145.271C85.936 145.603 85.972 146.466 85.683 147.188ZM177.718 153.736C177.488 155.256 177.294 154.25 177.286 151.5C177.279 148.75 177.467 147.506 177.704 148.736C177.941 149.966 177.947 152.216 177.718 153.736ZM71 149.393C71 149.609 70.302 150.054 69.448 150.382C68.558 150.723 68.157 150.555 68.507 149.989C69.094 149.038 71 148.583 71 149.393ZM149.683 151.188C149.364 151.985 149.127 151.748 149.079 150.583C149.036 149.529 149.272 148.939 149.604 149.271C149.936 149.603 149.972 150.466 149.683 151.188ZM78.729 151.604C78.397 151.936 77.534 151.972 76.813 151.683C76.015 151.364 76.252 151.127 77.417 151.079C78.471 151.036 79.061 151.272 78.729 151.604ZM148 157.345C148 157.535 146.988 158.547 145.75 159.595L143.5 161.5L145.405 159.25C147.195 157.136 148 156.545 148 157.345ZM64.122 161.675C62.943 163.702 62.659 163.053 63.624 160.539C63.966 159.645 64.458 159.124 64.715 159.382C64.973 159.639 64.706 160.671 64.122 161.675ZM110.729 159.604C110.397 159.936 109.534 159.972 108.813 159.683C108.015 159.364 108.252 159.127 109.417 159.079C110.471 159.036 111.061 159.272 110.729 159.604ZM118.729 161.604C118.397 161.936 117.534 161.972 116.813 161.683C116.015 161.364 116.252 161.127 117.417 161.079C118.471 161.036 119.061 161.272 118.729 161.604ZM123.729 162.604C123.397 162.936 122.534 162.972 121.813 162.683C121.015 162.364 121.252 162.127 122.417 162.079C123.471 162.036 124.061 162.272 123.729 162.604ZM134.75 163.716C133.238 163.945 130.762 163.945 129.25 163.716C127.737 163.487 128.975 163.3 132 163.3C135.025 163.3 136.262 163.487 134.75 163.716ZM64.526 165.807C64.219 166.115 63.412 165.808 62.733 165.124C61.753 164.136 61.868 164.022 63.293 164.564C64.279 164.94 64.834 165.499 64.526 165.807ZM68.729 166.604C68.397 166.936 67.534 166.972 66.813 166.683C66.015 166.364 66.252 166.127 67.417 166.079C68.471 166.036 69.061 166.272 68.729 166.604ZM230.122 168.675C228.943 170.702 228.659 170.053 229.624 167.539C229.966 166.645 230.458 166.124 230.715 166.382C230.973 166.639 230.706 167.671 230.122 168.675ZM72.729 167.604C72.397 167.936 71.534 167.972 70.813 167.683C70.015 167.364 70.252 167.127 71.417 167.079C72.471 167.036 73.061 167.272 72.729 167.604ZM76.729 168.604C76.397 168.936 75.534 168.972 74.813 168.683C74.015 168.364 74.252 168.127 75.417 168.079C76.471 168.036 77.061 168.272 76.729 168.604ZM80.729 169.604C80.397 169.936 79.534 169.972 78.813 169.683C78.015 169.364 78.252 169.127 79.417 169.079C80.471 169.036 81.061 169.272 80.729 169.604ZM84.729 170.604C84.397 170.936 83.534 170.972 82.813 170.683C82.015 170.364 82.252 170.127 83.417 170.079C84.471 170.036 85.061 170.272 84.729 170.604ZM172 171.378C172 171.585 171.213 172.373 170.25 173.128C168.664 174.371 168.629 174.336 169.872 172.75C171.179 171.084 172 170.555 172 171.378ZM226.124 177.267C225.136 178.247 225.022 178.132 225.564 176.707C225.94 175.721 226.499 175.166 226.807 175.474C227.115 175.781 226.808 176.588 226.124 177.267ZM134.25 182.662C133.563 182.94 132.438 182.94 131.75 182.662C131.063 182.385 131.625 182.158 133 182.158C134.375 182.158 134.938 182.385 134.25 182.662ZM148.25 183.723C146.463 183.945 143.537 183.945 141.75 183.723C139.963 183.502 141.425 183.32 145 183.32C148.575 183.32 150.037 183.502 148.25 183.723ZM37.5 197C38.495 198.1 39.085 199 38.81 199C38.535 199 37.495 198.1 36.5 197C35.505 195.9 34.915 195 35.19 195C35.465 195 36.505 195.9 37.5 197ZM215 195.345C215 195.535 213.988 196.547 212.75 197.595L210.5 199.5L212.405 197.25C214.195 195.136 215 194.545 215 195.345ZM97.729 197.604C97.397 197.936 96.534 197.972 95.813 197.683C95.015 197.364 95.252 197.127 96.417 197.079C97.471 197.036 98.061 197.272 97.729 197.604ZM108.683 200.188C108.364 200.985 108.127 200.748 108.079 199.583C108.036 198.529 108.272 197.939 108.604 198.271C108.936 198.603 108.972 199.466 108.683 200.188ZM45.5 206C48.209 208.75 50.2 211 49.925 211C49.65 211 47.209 208.75 44.5 206C41.791 203.25 39.8 201 40.075 201C40.35 201 42.791 203.25 45.5 206ZM122.541 202.933C122.179 203.52 121.121 203.948 120.191 203.884C118.666 203.779 118.672 203.723 120.25 203.311C121.213 203.059 122 202.361 122 201.76C122 201.159 122.27 200.937 122.6 201.267C122.93 201.597 122.904 202.347 122.541 202.933ZM210 201.288C210 201.446 207.637 203.808 204.75 206.538L199.5 211.5L204.462 206.25C209.074 201.372 210 200.541 210 201.288ZM54.5 214C55.495 215.1 56.085 216 55.81 216C55.535 216 54.495 215.1 53.5 214C52.505 212.9 51.915 212 52.19 212C52.465 212 53.505 212.9 54.5 214ZM198 212.345C198 212.535 196.988 213.547 195.75 214.595L193.5 216.5L195.405 214.25C197.195 212.136 198 211.545 198 212.345ZM75.526 227.807C75.219 228.115 74.412 227.808 73.733 227.124C72.753 226.136 72.868 226.022 74.293 226.564C75.279 226.94 75.834 227.499 75.526 227.807ZM107.729 237.604C107.397 237.936 106.534 237.972 105.813 237.683C105.015 237.364 105.252 237.127 106.417 237.079C107.471 237.036 108.061 237.272 107.729 237.604ZM144.729 237.604C144.397 237.936 143.534 237.972 142.813 237.683C142.015 237.364 142.252 237.127 143.417 237.079C144.471 237.036 145.061 237.272 144.729 237.604ZM115.75 238.689C114.787 238.941 113.213 238.941 112.25 238.689C111.287 238.438 112.075 238.232 114 238.232C115.925 238.232 116.713 238.438 115.75 238.689ZM137.75 238.689C136.787 238.941 135.213 238.941 134.25 238.689C133.287 238.438 134.075 238.232 136 238.232C137.925 238.232 138.713 238.438 137.75 238.689Z" fill="#4E87FF"/>
<path fill-rule="evenodd" clip-rule="evenodd" d="M96.432 3.47101C48.595 14.548 11.487 53.034 1.518 101.91C0.158003 108.582 -0.0969968 114.044 0.239003 129.369C0.609003 146.211 0.983003 149.697 3.36 158.5C4.862 164.064 8.668 173.841 11.939 180.54C29.081 215.65 59.647 240.126 96.904 248.578C105.91 250.621 110.125 250.982 125 250.982C139.875 250.982 144.09 250.621 153.096 248.578C201.217 237.661 238.465 199.203 248.482 150.09C249.842 143.418 250.097 137.956 249.761 122.631C249.391 105.789 249.017 102.303 246.64 93.5C245.138 87.936 241.332 78.159 238.061 71.46C220.919 36.35 190.353 11.874 153.096 3.42201C143.945 1.34601 140.045 1.02601 124.5 1.07901C109.34 1.13001 104.912 1.50701 96.432 3.47101ZM127.75 12.716C126.237 12.945 123.763 12.945 122.25 12.716C120.737 12.487 121.975 12.3 125 12.3C128.025 12.3 129.262 12.487 127.75 12.716ZM115.25 13.706C114.013 13.944 111.987 13.944 110.75 13.706C109.513 13.467 110.525 13.272 113 13.272C115.475 13.272 116.487 13.467 115.25 13.706ZM139.25 13.706C138.012 13.944 135.988 13.944 134.75 13.706C133.512 13.467 134.525 13.272 137 13.272C139.475 13.272 140.488 13.467 139.25 13.706ZM107.269 14.656C106.592 14.93 105.242 14.947 104.269 14.693C103.296 14.439 103.85 14.215 105.5 14.195C107.15 14.175 107.946 14.382 107.269 14.656ZM146.269 14.656C145.592 14.93 144.242 14.947 143.269 14.693C142.296 14.439 142.85 14.215 144.5 14.195C146.15 14.175 146.946 14.382 146.269 14.656ZM101.729 15.604C101.397 15.936 100.534 15.972 99.813 15.683C99.015 15.364 99.252 15.127 100.417 15.079C101.471 15.036 102.061 15.272 101.729 15.604ZM150.729 15.604C150.397 15.936 149.534 15.972 148.813 15.683C148.015 15.364 148.252 15.127 149.417 15.079C150.471 15.036 151.061 15.272 150.729 15.604ZM97.729 16.604C97.397 16.936 96.534 16.972 95.813 16.683C95.015 16.364 95.252 16.127 96.417 16.079C97.471 16.036 98.061 16.272 97.729 16.604ZM154.729 16.604C154.397 16.936 153.534 16.972 152.813 16.683C152.015 16.364 152.252 16.127 153.417 16.079C154.471 16.036 155.061 16.272 154.729 16.604ZM86 20.303C54.227 32.4 31.4 55.227 19.303 87C17.523 91.675 16.051 94.948 16.033 94.273C15.972 92.019 21.05 79.588 25.131 72C37.66 48.703 58.073 30.617 83.5 20.285C87.9 18.497 92.175 17.041 93 17.05C93.825 17.059 90.675 18.523 86 20.303ZM162.376 18.612C164.979 19.499 166.935 20.398 166.724 20.609C166.513 20.821 163.901 20.128 160.92 19.07C157.939 18.012 155.982 17.113 156.572 17.073C157.161 17.033 159.773 17.726 162.376 18.612ZM177.238 25.185C197.117 35.527 214.428 52.539 224.876 72C228.955 79.597 234.028 92.026 233.967 94.273C233.949 94.948 232.477 91.675 230.697 87C220.322 59.751 202.63 39.685 176.969 26.065C171.761 23.3 167.881 21.03 168.347 21.019C168.813 21.009 172.814 22.883 177.238 25.185ZM118.213 59.259C116.487 66.285 115.109 70 114.229 70C113.489 70 107.439 68.625 100.784 66.946C91.118 64.505 88.519 64.153 87.858 65.196C87.239 66.172 87.027 66.059 87.015 64.75C86.995 62.477 87.072 62.484 101 66C107.536 67.65 113.305 69 113.82 69C114.335 69 115.51 65.963 116.43 62.25C119.351 50.465 120.122 47.789 120.492 48.158C120.69 48.357 119.664 53.352 118.213 59.259ZM124.729 48.604C124.397 48.936 123.534 48.972 122.813 48.683C122.015 48.364 122.252 48.127 123.417 48.079C124.471 48.036 125.061 48.272 124.729 48.604ZM128.729 49.604C128.397 49.936 127.534 49.972 126.813 49.683C126.015 49.364 126.252 49.127 127.417 49.079C128.471 49.036 129.061 49.272 128.729 49.604ZM133.63 51.478C133.942 52.291 133.154 57.283 131.88 62.571C130.605 67.859 129.414 71.741 129.233 71.198C129.052 70.655 129.825 66.601 130.952 62.189C133.448 52.413 133.477 51.271 131.25 50.689C129.61 50.261 129.612 50.225 131.281 50.116C132.261 50.052 133.318 50.665 133.63 51.478ZM142.416 65.373C140.951 71.218 139.343 76 138.841 76C138.299 76 138.292 75.292 138.825 74.25C139.318 73.287 140.739 68.318 141.983 63.206C143.227 58.094 144.433 54.1 144.662 54.329C144.891 54.558 143.881 59.528 142.416 65.373ZM148.729 54.604C148.397 54.936 147.534 54.972 146.813 54.683C146.015 54.364 146.252 54.127 147.417 54.079C148.471 54.036 149.061 54.272 148.729 54.604ZM152.729 55.604C152.397 55.936 151.534 55.972 150.813 55.683C150.015 55.364 150.252 55.127 151.417 55.079C152.471 55.036 153.061 55.272 152.729 55.604ZM156.729 56.604C156.397 56.936 155.534 56.972 154.813 56.683C154.015 56.364 154.252 56.127 155.417 56.079C156.471 56.036 157.061 56.272 156.729 56.604ZM157.683 62.188C157.364 62.985 157.127 62.748 157.079 61.583C157.036 60.529 157.272 59.939 157.604 60.271C157.936 60.603 157.972 61.466 157.683 62.188ZM156.683 66.188C156.364 66.985 156.127 66.748 156.079 65.583C156.036 64.529 156.272 63.939 156.604 64.271C156.936 64.603 156.972 65.466 156.683 66.188ZM86.683 69.188C86.364 69.985 86.127 69.748 86.079 68.583C86.036 67.529 86.272 66.939 86.604 67.271C86.936 67.603 86.972 68.466 86.683 69.188ZM155.683 70.188C155.364 70.985 155.127 70.748 155.079 69.583C155.036 68.529 155.272 67.939 155.604 68.271C155.936 68.603 155.972 69.466 155.683 70.188ZM85.683 73.188C85.364 73.985 85.127 73.748 85.079 72.583C85.036 71.529 85.272 70.939 85.604 71.271C85.936 71.603 85.972 72.466 85.683 73.188ZM154.683 74.188C154.364 74.985 154.127 74.748 154.079 73.583C154.036 72.529 154.272 71.939 154.604 72.271C154.936 72.603 154.972 73.466 154.683 74.188ZM132.729 73.604C132.397 73.936 131.534 73.972 130.813 73.683C130.015 73.364 130.252 73.127 131.417 73.079C132.471 73.036 133.061 73.272 132.729 73.604ZM136.729 74.604C136.397 74.936 135.534 74.972 134.813 74.683C134.015 74.364 134.252 74.127 135.417 74.079C136.471 74.036 137.061 74.272 136.729 74.604ZM87.311 78.352C89.146 78.751 89.097 78.801 87.01 78.664C85.32 78.553 84.455 77.858 84.318 76.5C84.172 75.061 84.256 74.973 84.619 76.189C84.896 77.117 86.108 78.091 87.311 78.352ZM153.662 79.25C153.385 79.938 153.158 79.375 153.158 78C153.158 76.625 153.385 76.063 153.662 76.75C153.94 77.438 153.94 78.563 153.662 79.25ZM97.75 81.591C98.987 82.391 100 83.572 100 84.214C100 84.857 99.438 84.63 98.75 83.711C98.063 82.791 95.7 81.348 93.5 80.504C90.457 79.337 90.218 79.109 92.5 79.553C94.15 79.873 96.513 80.79 97.75 81.591ZM162.5 82.767C169.006 86.051 174.32 90.435 177.093 94.808C178.692 97.329 180 100.067 180 100.892C180 101.717 178.814 100.013 177.365 97.105C174.442 91.239 169.859 87.363 160.5 82.842C157.2 81.248 155.625 80.238 157 80.598C158.375 80.959 160.85 81.935 162.5 82.767ZM93.524 117.122C85.555 149.172 84.697 152 82.95 152C82.274 152 82.361 151.492 83.179 150.667C83.905 149.933 88.044 135.065 92.376 117.626C96.707 100.186 100.437 86.104 100.664 86.331C100.891 86.558 97.678 100.414 93.524 117.122ZM127.25 89.706C126.013 89.944 125 90.858 125 91.736C125 92.615 124.719 93.053 124.376 92.71C123.094 91.427 125.021 89.005 127.219 89.136L129.5 89.272L127.25 89.706ZM132.729 90.604C132.397 90.936 131.534 90.972 130.813 90.683C130.015 90.364 130.252 90.127 131.417 90.079C132.471 90.036 133.061 90.272 132.729 90.604ZM139.5 92.464C143.362 94.232 141.566 94.258 137 92.5C135.075 91.759 134.175 91.138 135 91.121C135.825 91.104 137.85 91.708 139.5 92.464ZM123.683 96.188C123.364 96.985 123.127 96.748 123.079 95.583C123.036 94.529 123.272 93.939 123.604 94.271C123.936 94.603 123.972 95.466 123.683 96.188ZM150.921 99.404C154.779 103.529 152.9 102.892 148.514 98.588C146.321 96.437 145.421 95.158 146.514 95.746C147.606 96.335 149.589 97.981 150.921 99.404ZM15.683 98.188C15.364 98.985 15.127 98.748 15.079 97.583C15.036 96.529 15.272 95.939 15.604 96.271C15.936 96.603 15.972 97.466 15.683 98.188ZM234.683 98.188C234.364 98.985 234.127 98.748 234.079 97.583C234.036 96.529 234.272 95.939 234.604 96.271C234.936 96.603 234.972 97.466 234.683 98.188ZM122.683 100.188C122.364 100.985 122.127 100.748 122.079 99.583C122.036 98.529 122.272 97.939 122.604 98.271C122.936 98.603 122.972 99.466 122.683 100.188ZM14.683 102.188C14.364 102.985 14.127 102.748 14.079 101.583C14.036 100.529 14.272 99.939 14.604 100.271C14.936 100.603 14.972 101.466 14.683 102.188ZM235.683 102.188C235.364 102.985 235.127 102.748 235.079 101.583C235.036 100.529 235.272 99.939 235.604 100.271C235.936 100.603 235.972 101.466 235.683 102.188ZM121.683 104.188C121.364 104.985 121.127 104.748 121.079 103.583C121.036 102.529 121.272 101.939 121.604 102.271C121.936 102.603 121.972 103.466 121.683 104.188ZM180.707 108.238C180.468 109.482 180.263 108.7 180.252 106.5C180.241 104.3 180.437 103.282 180.687 104.238C180.937 105.194 180.946 106.994 180.707 108.238ZM13.693 107.731C13.439 108.704 13.215 108.15 13.195 106.5C13.175 104.85 13.382 104.054 13.656 104.731C13.93 105.408 13.947 106.758 13.693 107.731ZM152.941 112.141C151.557 115.485 147.501 119.019 145.115 118.961C144.227 118.939 144.933 118.298 146.685 117.536C150.32 115.955 152.931 111.619 153.15 106.8C153.294 103.62 153.315 103.604 153.727 106.357C153.961 107.929 153.608 110.532 152.941 112.141ZM236.693 107.731C236.439 108.704 236.215 108.15 236.195 106.5C236.175 104.85 236.382 104.054 236.656 104.731C236.93 105.408 236.947 106.758 236.693 107.731ZM120.683 108.188C120.364 108.985 120.127 108.748 120.079 107.583C120.036 106.529 120.272 105.939 120.604 106.271C120.936 106.603 120.972 107.466 120.683 108.188ZM12.706 116.25C12.467 117.487 12.272 116.475 12.272 114C12.272 111.525 12.467 110.513 12.706 111.75C12.944 112.987 12.944 115.013 12.706 116.25ZM119.683 112.188C119.364 112.985 119.127 112.748 119.079 111.583C119.036 110.529 119.272 109.939 119.604 110.271C119.936 110.603 119.972 111.466 119.683 112.188ZM237.706 116.25C237.467 117.487 237.272 116.475 237.272 114C237.272 111.525 237.467 110.513 237.706 111.75C237.944 112.987 237.944 115.013 237.706 116.25ZM178.975 116.577C178.322 118.554 176.419 121.731 174.746 123.637C171.783 127.011 166.258 130.591 165.375 129.708C165.133 129.467 166.302 128.703 167.973 128.011C172.299 126.219 176.838 120.635 178.245 115.373C178.909 112.89 179.612 111.336 179.807 111.92C180.002 112.505 179.627 114.6 178.975 116.577ZM126 117.294C129.575 118.135 131.6 118.855 130.5 118.892C126.761 119.021 118.636 116.41 118.241 114.952C117.978 113.982 118.122 113.876 118.674 114.632C119.128 115.254 122.425 116.452 126 117.294ZM140.75 119.716C139.238 119.945 136.762 119.945 135.25 119.716C133.738 119.487 134.975 119.3 138 119.3C141.025 119.3 142.262 119.487 140.75 119.716ZM11.716 128.75C11.487 130.262 11.3 129.025 11.3 126C11.3 122.975 11.487 121.737 11.716 123.25C11.945 124.763 11.945 127.237 11.716 128.75ZM238.716 128.75C238.487 130.262 238.3 129.025 238.3 126C238.3 122.975 238.487 121.737 238.716 123.25C238.945 124.763 238.945 127.237 238.716 128.75ZM115.279 131.04C114.986 132.161 114.523 132.856 114.249 132.583C113.708 132.042 114.664 129 115.375 129C115.616 129 115.573 129.918 115.279 131.04ZM129.02 132.599C131.868 133.444 134.04 134.289 133.849 134.476C133.657 134.663 129.675 133.73 125 132.403C120.325 131.076 118.152 130.232 120.171 130.526C122.191 130.82 126.173 131.753 129.02 132.599ZM172.612 137.43C174.475 139.591 176 141.797 176 142.33C176 142.864 174.693 141.496 173.096 139.291C171.498 137.086 168.573 134.281 166.596 133.059C162.194 130.339 161.784 129.181 166.112 131.693C167.824 132.687 170.749 135.268 172.612 137.43ZM12.706 140.25C12.467 141.488 12.272 140.475 12.272 138C12.272 135.525 12.467 134.512 12.706 135.75C12.944 136.988 12.944 139.012 12.706 140.25ZM113.683 136.188C113.364 136.985 113.127 136.748 113.079 135.583C113.036 134.529 113.272 133.939 113.604 134.271C113.936 134.603 113.972 135.466 113.683 136.188ZM237.706 140.25C237.467 141.488 237.272 140.475 237.272 138C237.272 135.525 237.467 134.512 237.706 135.75C237.944 136.988 237.944 139.012 237.706 140.25ZM141.174 137.896C145.638 140.726 149.004 144.417 148.996 146.473C148.994 147.038 148.113 146.057 147.038 144.294C145.962 142.53 142.702 139.722 139.791 138.053C136.881 136.384 134.974 135.015 135.554 135.009C136.134 135.004 138.663 136.303 141.174 137.896ZM112.683 140.188C112.364 140.985 112.127 140.748 112.079 139.583C112.036 138.529 112.272 137.939 112.604 138.271C112.936 138.603 112.972 139.466 112.683 140.188ZM111.683 144.188C111.364 144.985 111.127 144.748 111.079 143.583C111.036 142.529 111.272 141.939 111.604 142.271C111.936 142.603 111.972 143.466 111.683 144.188ZM13.693 146.731C13.439 147.704 13.215 147.15 13.195 145.5C13.175 143.85 13.382 143.054 13.656 143.731C13.93 144.408 13.947 145.758 13.693 146.731ZM236.693 146.731C236.439 147.704 236.215 147.15 236.195 145.5C236.175 143.85 236.382 143.054 236.656 143.731C236.93 144.408 236.947 145.758 236.693 146.731ZM110.683 148.188C110.364 148.985 110.127 148.748 110.079 147.583C110.036 146.529 110.272 145.939 110.604 146.271C110.936 146.603 110.972 147.466 110.683 148.188ZM177.718 153.736C177.488 155.256 177.294 154.25 177.286 151.5C177.279 148.75 177.467 147.506 177.704 148.736C177.941 149.966 177.947 152.216 177.718 153.736ZM149.693 151.731C149.439 152.704 149.215 152.15 149.195 150.5C149.175 148.85 149.382 148.054 149.656 148.731C149.93 149.408 149.947 150.758 149.693 151.731ZM14.683 151.188C14.364 151.985 14.127 151.748 14.079 150.583C14.036 149.529 14.272 148.939 14.604 149.271C14.936 149.603 14.972 150.466 14.683 151.188ZM69.571 150.571C68.707 151.436 68 152.636 68 153.238C68 153.84 67.739 154.072 67.419 153.752C66.61 152.944 68.841 149 70.107 149C70.677 149 70.436 149.707 69.571 150.571ZM235.683 151.188C235.364 151.985 235.127 151.748 235.079 150.583C235.036 149.529 235.272 148.939 235.604 149.271C235.936 149.603 235.972 150.466 235.683 151.188ZM77 151C79.01 151.644 79.108 151.806 77.5 151.83C76.4 151.846 74.6 151.473 73.5 151C70.952 149.905 73.581 149.905 77 151ZM109.683 152.188C109.364 152.985 109.127 152.748 109.079 151.583C109.036 150.529 109.272 149.939 109.604 150.271C109.936 150.603 109.972 151.466 109.683 152.188ZM15.683 155.188C15.364 155.985 15.127 155.748 15.079 154.583C15.036 153.529 15.272 152.939 15.604 153.271C15.936 153.603 15.972 154.466 15.683 155.188ZM234.683 155.188C234.364 155.985 234.127 155.748 234.079 154.583C234.036 153.529 234.272 152.939 234.604 153.271C234.936 153.603 234.972 154.466 234.683 155.188ZM108.683 156.188C108.364 156.985 108.127 156.748 108.079 155.583C108.036 154.529 108.272 153.939 108.604 154.271C108.936 154.603 108.972 155.466 108.683 156.188ZM65.116 159.656C64.001 161.77 63.069 163.178 63.044 162.784C62.973 161.634 66.319 154.986 66.752 155.418C66.968 155.634 66.232 157.541 65.116 159.656ZM26.365 180.5C36.923 199.814 52.644 215.127 73 225.923C78.225 228.694 82.119 230.97 81.653 230.981C79.869 231.021 64.442 222.428 58.609 218.144C44.99 208.143 32.744 194.194 25.124 180C21.045 172.403 15.972 159.974 16.033 157.727C16.051 157.052 17.523 160.325 19.303 165C21.083 169.675 24.261 176.65 26.365 180.5ZM145.234 160.029C143.438 161.663 141.188 162.982 140.234 162.961C139.188 162.937 139.691 162.403 141.5 161.614C143.151 160.895 145.118 159.563 145.873 158.653C146.627 157.744 147.527 157.013 147.872 157.029C148.218 157.045 147.03 158.395 145.234 160.029ZM176.683 159.188C176.364 159.985 176.127 159.748 176.079 158.583C176.036 157.529 176.272 156.939 176.604 157.271C176.936 157.603 176.972 158.466 176.683 159.188ZM231.491 165.62C221.924 191.046 202.679 213.134 179 225.869C171.412 229.95 158.981 235.028 156.727 234.967C156.052 234.949 159.325 233.477 164 231.697C192.6 220.808 214.389 200.77 226.943 173.811C229.072 169.24 231.396 163.522 232.108 161.105C232.821 158.688 233.556 157.167 233.742 157.726C233.928 158.284 232.915 161.837 231.491 165.62ZM114 160.789C114.275 161.06 113.15 160.961 111.5 160.57C109.85 160.179 108.06 159.428 107.523 158.902C106.985 158.376 108.11 158.475 110.023 159.121C111.935 159.768 113.725 160.518 114 160.789ZM121.5 162C124.195 162.686 124.246 162.765 122 162.782C120.625 162.792 118.375 162.44 117 162C115.041 161.373 114.933 161.203 116.5 161.218C117.6 161.228 119.85 161.58 121.5 162ZM173.635 167.734C171.459 172.027 164.128 180 162.356 180C162.005 180 163.743 178.218 166.218 176.039C168.98 173.608 171.642 169.968 173.109 166.614C174.424 163.609 175.638 161.531 175.807 161.996C175.976 162.461 174.998 165.043 173.635 167.734ZM134.728 163.73C132.653 163.946 129.503 163.943 127.728 163.722C125.952 163.501 127.65 163.324 131.5 163.328C135.35 163.333 136.802 163.513 134.728 163.73ZM89.749 173C90.026 174.031 89.89 174.132 89.313 173.325C88.852 172.678 82.855 170.735 75.987 169.006C69.119 167.278 63.148 165.52 62.718 165.1C62.288 164.679 68.103 165.948 75.64 167.918C84.739 170.296 89.481 172.004 89.749 173ZM88.683 177.188C88.364 177.985 88.127 177.748 88.079 176.583C88.036 175.529 88.272 174.939 88.604 175.271C88.936 175.603 88.972 176.466 88.683 177.188ZM107.729 176.604C107.397 176.936 106.534 176.972 105.813 176.683C105.015 176.364 105.252 176.127 106.417 176.079C107.471 176.036 108.061 176.272 107.729 176.604ZM102.683 179.188C102.364 179.985 102.127 179.748 102.079 178.583C102.036 177.529 102.272 176.939 102.604 177.271C102.936 177.603 102.972 178.466 102.683 179.188ZM111.729 177.604C111.397 177.936 110.534 177.972 109.813 177.683C109.015 177.364 109.252 177.127 110.417 177.079C111.471 177.036 112.061 177.272 111.729 177.604ZM113.683 180.188C113.364 180.985 113.127 180.748 113.079 179.583C113.036 178.529 113.272 177.939 113.604 178.271C113.936 178.603 113.972 179.466 113.683 180.188ZM87.683 181.188C87.364 181.985 87.127 181.748 87.079 180.583C87.036 179.529 87.272 178.939 87.604 179.271C87.936 179.603 87.972 180.466 87.683 181.188ZM101.683 183.188C101.364 183.985 101.127 183.748 101.079 182.583C101.036 181.529 101.272 180.939 101.604 181.271C101.936 181.603 101.972 182.466 101.683 183.188ZM130 181.393C130 181.609 129.325 182.045 128.5 182.362C127.675 182.678 127 182.501 127 181.969C127 181.436 127.675 181 128.5 181C129.325 181 130 181.177 130 181.393ZM112.683 184.188C112.364 184.985 112.127 184.748 112.079 183.583C112.036 182.529 112.272 181.939 112.604 182.271C112.936 182.603 112.972 183.466 112.683 184.188ZM135.75 182.689C134.787 182.941 133.213 182.941 132.25 182.689C131.287 182.438 132.075 182.232 134 182.232C135.925 182.232 136.713 182.438 135.75 182.689ZM155.25 182.662C154.563 182.94 153.438 182.94 152.75 182.662C152.063 182.385 152.625 182.158 154 182.158C155.375 182.158 155.938 182.385 155.25 182.662ZM86.683 185.188C86.364 185.985 86.127 185.748 86.079 184.583C86.036 183.529 86.272 182.939 86.604 183.271C86.936 183.603 86.972 184.466 86.683 185.188ZM148.25 183.723C146.463 183.945 143.537 183.945 141.75 183.723C139.963 183.502 141.425 183.32 145 183.32C148.575 183.32 150.037 183.502 148.25 183.723ZM126.683 186.188C126.364 186.985 126.127 186.748 126.079 185.583C126.036 184.529 126.272 183.939 126.604 184.271C126.936 184.603 126.972 185.466 126.683 186.188ZM100.683 187.188C100.364 187.985 100.127 187.748 100.079 186.583C100.036 185.529 100.272 184.939 100.604 185.271C100.936 185.603 100.972 186.466 100.683 187.188ZM111.683 188.188C111.364 188.985 111.127 188.748 111.079 187.583C111.036 186.529 111.272 185.939 111.604 186.271C111.936 186.603 111.972 187.466 111.683 188.188ZM85.683 189.188C85.364 189.985 85.127 189.748 85.079 188.583C85.036 187.529 85.272 186.939 85.604 187.271C85.936 187.603 85.972 188.466 85.683 189.188ZM125.683 190.188C125.364 190.985 125.127 190.748 125.079 189.583C125.036 188.529 125.272 187.939 125.604 188.271C125.936 188.603 125.972 189.466 125.683 190.188ZM99.683 191.188C99.364 191.985 99.127 191.748 99.079 190.583C99.036 189.529 99.272 188.939 99.604 189.271C99.936 189.603 99.972 190.466 99.683 191.188ZM110.683 192.188C110.364 192.985 110.127 192.748 110.079 191.583C110.036 190.529 110.272 189.939 110.604 190.271C110.936 190.603 110.972 191.466 110.683 192.188ZM85.29 193C85.577 194.1 85.405 195 84.906 195C84.408 195 84 194.1 84 193C84 191.9 84.173 191 84.383 191C84.594 191 85.002 191.9 85.29 193ZM124.683 194.188C124.364 194.985 124.127 194.748 124.079 193.583C124.036 192.529 124.272 191.939 124.604 192.271C124.936 192.603 124.972 193.466 124.683 194.188ZM98.683 195.188C98.364 195.985 98.127 195.748 98.079 194.583C98.036 193.529 98.272 192.939 98.604 193.271C98.936 193.603 98.972 194.466 98.683 195.188ZM109.683 196.188C109.364 196.985 109.127 196.748 109.079 195.583C109.036 194.529 109.272 193.939 109.604 194.271C109.936 194.603 109.972 195.466 109.683 196.188ZM89.729 195.604C89.397 195.936 88.534 195.972 87.813 195.683C87.015 195.364 87.252 195.127 88.417 195.079C89.471 195.036 90.061 195.272 89.729 195.604ZM93.729 196.604C93.397 196.936 92.534 196.972 91.813 196.683C91.015 196.364 91.252 196.127 92.417 196.079C93.471 196.036 94.061 196.272 93.729 196.604ZM123.683 198.188C123.364 198.985 123.127 198.748 123.079 197.583C123.036 196.529 123.272 195.939 123.604 196.271C123.936 196.603 123.972 197.466 123.683 198.188ZM97.729 197.604C97.397 197.936 96.534 197.972 95.813 197.683C95.015 197.364 95.252 197.127 96.417 197.079C97.471 197.036 98.061 197.272 97.729 197.604ZM109.362 199.5C109.678 200.325 109.501 201 108.969 201C108.436 201 108 200.325 108 199.5C108 198.675 108.177 198 108.393 198C108.609 198 109.045 198.675 109.362 199.5ZM122.655 202.457C122.329 203.306 121.261 203.948 120.281 203.884C118.612 203.775 118.61 203.739 120.25 203.311C121.213 203.059 122 202.136 122 201.26C122 200.384 122.281 199.947 122.624 200.29C122.966 200.633 122.981 201.608 122.655 202.457ZM113.729 201.604C113.397 201.936 112.534 201.972 111.813 201.683C111.015 201.364 111.252 201.127 112.417 201.079C113.471 201.036 114.061 201.272 113.729 201.604ZM117.729 202.604C117.397 202.936 116.534 202.972 115.813 202.683C115.015 202.364 115.252 202.127 116.417 202.079C117.471 202.036 118.061 202.272 117.729 202.604ZM91 233.658C93.995 234.832 94.083 234.948 91.61 234.461C90.021 234.148 87.321 233.246 85.61 232.456C83.271 231.376 83.12 231.177 85 231.653C86.375 232.001 89.075 232.903 91 233.658ZM97.729 235.604C97.397 235.936 96.534 235.972 95.813 235.683C95.015 235.364 95.252 235.127 96.417 235.079C97.471 235.036 98.061 235.272 97.729 235.604ZM154.729 235.604C154.397 235.936 153.534 235.972 152.813 235.683C152.015 235.364 152.252 235.127 153.417 235.079C154.471 235.036 155.061 235.272 154.729 235.604ZM101.729 236.604C101.397 236.936 100.534 236.972 99.813 236.683C99.015 236.364 99.252 236.127 100.417 236.079C101.471 236.036 102.061 236.272 101.729 236.604ZM150.729 236.604C150.397 236.936 149.534 236.972 148.813 236.683C148.015 236.364 148.252 236.127 149.417 236.079C150.471 236.036 151.061 236.272 150.729 236.604ZM107.269 237.656C106.592 237.93 105.242 237.947 104.269 237.693C103.296 237.439 103.85 237.215 105.5 237.195C107.15 237.175 107.946 237.382 107.269 237.656ZM146.269 237.656C145.592 237.93 144.242 237.947 143.269 237.693C142.296 237.439 142.85 237.215 144.5 237.195C146.15 237.175 146.946 237.382 146.269 237.656ZM115.25 238.706C114.013 238.944 111.987 238.944 110.75 238.706C109.513 238.467 110.525 238.272 113 238.272C115.475 238.272 116.487 238.467 115.25 238.706ZM139.25 238.706C138.012 238.944 135.988 238.944 134.75 238.706C133.512 238.467 134.525 238.272 137 238.272C139.475 238.272 140.488 238.467 139.25 238.706ZM127.75 239.716C126.237 239.945 123.763 239.945 122.25 239.716C120.737 239.487 121.975 239.3 125 239.3C128.025 239.3 129.262 239.487 127.75 239.716Z" fill="#0080FF"/>
<path fill-rule="evenodd" clip-rule="evenodd" d="M98.5 2.988C60.662 11.594 29.332 36.119 12.256 70.5C3.162 88.81 0 103.13 0 126C0 149.719 3.215 163.603 13.285 183.375C30.369 216.92 61.442 240.735 99 249.07C111.034 251.741 138.966 251.741 151 249.07C189.082 240.618 220.56 216.098 237.744 181.5C246.838 163.19 250 148.87 250 126C250 102.281 246.785 88.397 236.715 68.625C219.631 35.08 188.558 11.265 151 2.93C139.212 0.314001 110.117 0.346001 98.5 2.988ZM127.75 12.716C126.237 12.945 123.763 12.945 122.25 12.716C120.737 12.487 121.975 12.3 125 12.3C128.025 12.3 129.262 12.487 127.75 12.716ZM115.25 13.706C114.013 13.944 111.987 13.944 110.75 13.706C109.513 13.467 110.525 13.272 113 13.272C115.475 13.272 116.487 13.467 115.25 13.706ZM139.25 13.706C138.012 13.944 135.988 13.944 134.75 13.706C133.512 13.467 134.525 13.272 137 13.272C139.475 13.272 140.488 13.467 139.25 13.706ZM107.269 14.656C106.592 14.93 105.242 14.947 104.269 14.693C103.296 14.439 103.85 14.215 105.5 14.195C107.15 14.175 107.946 14.382 107.269 14.656ZM146.269 14.656C145.592 14.93 144.242 14.947 143.269 14.693C142.296 14.439 142.85 14.215 144.5 14.195C146.15 14.175 146.946 14.382 146.269 14.656ZM101.729 15.604C101.397 15.936 100.534 15.972 99.813 15.683C99.015 15.364 99.252 15.127 100.417 15.079C101.471 15.036 102.061 15.272 101.729 15.604ZM150.729 15.604C150.397 15.936 149.534 15.972 148.813 15.683C148.015 15.364 148.252 15.127 149.417 15.079C150.471 15.036 151.061 15.272 150.729 15.604ZM97.729 16.604C97.397 16.936 96.534 16.972 95.813 16.683C95.015 16.364 95.252 16.127 96.417 16.079C97.471 16.036 98.061 16.272 97.729 16.604ZM154.729 16.604C154.397 16.936 153.534 16.972 152.813 16.683C152.015 16.364 152.252 16.127 153.417 16.079C154.471 16.036 155.061 16.272 154.729 16.604ZM86 20.303C54.227 32.4 31.4 55.227 19.303 87C17.523 91.675 16.051 94.948 16.033 94.273C15.972 92.019 21.05 79.588 25.131 72C37.66 48.703 58.073 30.617 83.5 20.285C87.9 18.497 92.175 17.041 93 17.05C93.825 17.059 90.675 18.523 86 20.303ZM162.376 18.612C164.979 19.499 166.935 20.398 166.724 20.609C166.513 20.821 163.901 20.128 160.92 19.07C157.939 18.012 155.982 17.113 156.572 17.073C157.161 17.033 159.773 17.726 162.376 18.612ZM177.238 25.185C197.117 35.527 214.428 52.539 224.876 72C228.955 79.597 234.028 92.026 233.967 94.273C233.949 94.948 232.477 91.675 230.697 87C220.322 59.751 202.63 39.685 176.969 26.065C171.761 23.3 167.881 21.03 168.347 21.019C168.813 21.009 172.814 22.883 177.238 25.185ZM118.213 59.259C116.487 66.285 115.109 70 114.229 70C113.489 70 107.439 68.625 100.784 66.946C91.118 64.505 88.519 64.153 87.858 65.196C87.239 66.172 87.027 66.059 87.015 64.75C86.995 62.477 87.072 62.484 101 66C107.536 67.65 113.305 69 113.82 69C114.335 69 115.51 65.963 116.43 62.25C119.351 50.465 120.122 47.789 120.492 48.158C120.69 48.357 119.664 53.352 118.213 59.259ZM124.729 48.604C124.397 48.936 123.534 48.972 122.813 48.683C122.015 48.364 122.252 48.127 123.417 48.079C124.471 48.036 125.061 48.272 124.729 48.604ZM128.729 49.604C128.397 49.936 127.534 49.972 126.813 49.683C126.015 49.364 126.252 49.127 127.417 49.079C128.471 49.036 129.061 49.272 128.729 49.604ZM133.63 51.478C133.942 52.291 133.154 57.283 131.88 62.571C130.605 67.859 129.414 71.741 129.233 71.198C129.052 70.655 129.825 66.601 130.952 62.189C133.448 52.413 133.477 51.271 131.25 50.689C129.61 50.261 129.612 50.225 131.281 50.116C132.261 50.052 133.318 50.665 133.63 51.478ZM142.416 65.373C140.951 71.218 139.343 76 138.841 76C138.299 76 138.292 75.292 138.825 74.25C139.318 73.287 140.739 68.318 141.983 63.206C143.227 58.094 144.433 54.1 144.662 54.329C144.891 54.558 143.881 59.528 142.416 65.373ZM148.729 54.604C148.397 54.936 147.534 54.972 146.813 54.683C146.015 54.364 146.252 54.127 147.417 54.079C148.471 54.036 149.061 54.272 148.729 54.604ZM152.729 55.604C152.397 55.936 151.534 55.972 150.813 55.683C150.015 55.364 150.252 55.127 151.417 55.079C152.471 55.036 153.061 55.272 152.729 55.604ZM156.729 56.604C156.397 56.936 155.534 56.972 154.813 56.683C154.015 56.364 154.252 56.127 155.417 56.079C156.471 56.036 157.061 56.272 156.729 56.604ZM157.683 62.188C157.364 62.985 157.127 62.748 157.079 61.583C157.036 60.529 157.272 59.939 157.604 60.271C157.936 60.603 157.972 61.466 157.683 62.188ZM156.683 66.188C156.364 66.985 156.127 66.748 156.079 65.583C156.036 64.529 156.272 63.939 156.604 64.271C156.936 64.603 156.972 65.466 156.683 66.188ZM86.683 69.188C86.364 69.985 86.127 69.748 86.079 68.583C86.036 67.529 86.272 66.939 86.604 67.271C86.936 67.603 86.972 68.466 86.683 69.188ZM155.683 70.188C155.364 70.985 155.127 70.748 155.079 69.583C155.036 68.529 155.272 67.939 155.604 68.271C155.936 68.603 155.972 69.466 155.683 70.188ZM85.683 73.188C85.364 73.985 85.127 73.748 85.079 72.583C85.036 71.529 85.272 70.939 85.604 71.271C85.936 71.603 85.972 72.466 85.683 73.188ZM154.683 74.188C154.364 74.985 154.127 74.748 154.079 73.583C154.036 72.529 154.272 71.939 154.604 72.271C154.936 72.603 154.972 73.466 154.683 74.188ZM132.729 73.604C132.397 73.936 131.534 73.972 130.813 73.683C130.015 73.364 130.252 73.127 131.417 73.079C132.471 73.036 133.061 73.272 132.729 73.604ZM136.729 74.604C136.397 74.936 135.534 74.972 134.813 74.683C134.015 74.364 134.252 74.127 135.417 74.079C136.471 74.036 137.061 74.272 136.729 74.604ZM87.311 78.352C89.146 78.751 89.097 78.801 87.01 78.664C85.32 78.553 84.455 77.858 84.318 76.5C84.172 75.061 84.256 74.973 84.619 76.189C84.896 77.117 86.108 78.091 87.311 78.352ZM153.662 79.25C153.385 79.938 153.158 79.375 153.158 78C153.158 76.625 153.385 76.063 153.662 76.75C153.94 77.438 153.94 78.563 153.662 79.25ZM97.75 81.591C98.987 82.391 100 83.572 100 84.214C100 84.857 99.438 84.63 98.75 83.711C98.063 82.791 95.7 81.348 93.5 80.504C90.457 79.337 90.218 79.109 92.5 79.553C94.15 79.873 96.513 80.79 97.75 81.591ZM162.5 82.767C169.006 86.051 174.32 90.435 177.093 94.808C178.692 97.329 180 100.067 180 100.892C180 101.717 178.814 100.013 177.365 97.105C174.442 91.239 169.859 87.363 160.5 82.842C157.2 81.248 155.625 80.238 157 80.598C158.375 80.959 160.85 81.935 162.5 82.767ZM93.524 117.122C85.555 149.172 84.697 152 82.95 152C82.274 152 82.361 151.492 83.179 150.667C83.905 149.933 88.044 135.065 92.376 117.626C96.707 100.186 100.437 86.104 100.664 86.331C100.891 86.558 97.678 100.414 93.524 117.122ZM127.25 89.706C126.013 89.944 125 90.858 125 91.736C125 92.615 124.719 93.053 124.376 92.71C123.094 91.427 125.021 89.005 127.219 89.136L129.5 89.272L127.25 89.706ZM132.729 90.604C132.397 90.936 131.534 90.972 130.813 90.683C130.015 90.364 130.252 90.127 131.417 90.079C132.471 90.036 133.061 90.272 132.729 90.604ZM139.5 92.464C143.362 94.232 141.566 94.258 137 92.5C135.075 91.759 134.175 91.138 135 91.121C135.825 91.104 137.85 91.708 139.5 92.464ZM123.683 96.188C123.364 96.985 123.127 96.748 123.079 95.583C123.036 94.529 123.272 93.939 123.604 94.271C123.936 94.603 123.972 95.466 123.683 96.188ZM150.921 99.404C154.779 103.529 152.9 102.892 148.514 98.588C146.321 96.437 145.421 95.158 146.514 95.746C147.606 96.335 149.589 97.981 150.921 99.404ZM15.683 98.188C15.364 98.985 15.127 98.748 15.079 97.583C15.036 96.529 15.272 95.939 15.604 96.271C15.936 96.603 15.972 97.466 15.683 98.188ZM234.683 98.188C234.364 98.985 234.127 98.748 234.079 97.583C234.036 96.529 234.272 95.939 234.604 96.271C234.936 96.603 234.972 97.466 234.683 98.188ZM122.683 100.188C122.364 100.985 122.127 100.748 122.079 99.583C122.036 98.529 122.272 97.939 122.604 98.271C122.936 98.603 122.972 99.466 122.683 100.188ZM14.683 102.188C14.364 102.985 14.127 102.748 14.079 101.583C14.036 100.529 14.272 99.939 14.604 100.271C14.936 100.603 14.972 101.466 14.683 102.188ZM235.683 102.188C235.364 102.985 235.127 102.748 235.079 101.583C235.036 100.529 235.272 99.939 235.604 100.271C235.936 100.603 235.972 101.466 235.683 102.188ZM121.683 104.188C121.364 104.985 121.127 104.748 121.079 103.583C121.036 102.529 121.272 101.939 121.604 102.271C121.936 102.603 121.972 103.466 121.683 104.188ZM180.707 108.238C180.468 109.482 180.263 108.7 180.252 106.5C180.241 104.3 180.437 103.282 180.687 104.238C180.937 105.194 180.946 106.994 180.707 108.238ZM13.693 107.731C13.439 108.704 13.215 108.15 13.195 106.5C13.175 104.85 13.382 104.054 13.656 104.731C13.93 105.408 13.947 106.758 13.693 107.731ZM152.941 112.141C151.557 115.485 147.501 119.019 145.115 118.961C144.227 118.939 144.933 118.298 146.685 117.536C150.32 115.955 152.931 111.619 153.15 106.8C153.294 103.62 153.315 103.604 153.727 106.357C153.961 107.929 153.608 110.532 152.941 112.141ZM236.693 107.731C236.439 108.704 236.215 108.15 236.195 106.5C236.175 104.85 236.382 104.054 236.656 104.731C236.93 105.408 236.947 106.758 236.693 107.731ZM120.683 108.188C120.364 108.985 120.127 108.748 120.079 107.583C120.036 106.529 120.272 105.939 120.604 106.271C120.936 106.603 120.972 107.466 120.683 108.188ZM12.706 116.25C12.467 117.487 12.272 116.475 12.272 114C12.272 111.525 12.467 110.513 12.706 111.75C12.944 112.987 12.944 115.013 12.706 116.25ZM119.683 112.188C119.364 112.985 119.127 112.748 119.079 111.583C119.036 110.529 119.272 109.939 119.604 110.271C119.936 110.603 119.972 111.466 119.683 112.188ZM237.706 116.25C237.467 117.487 237.272 116.475 237.272 114C237.272 111.525 237.467 110.513 237.706 111.75C237.944 112.987 237.944 115.013 237.706 116.25ZM178.975 116.577C178.322 118.554 176.419 121.731 174.746 123.637C171.783 127.011 166.258 130.591 165.375 129.708C165.133 129.467 166.302 128.703 167.973 128.011C172.299 126.219 176.838 120.635 178.245 115.373C178.909 112.89 179.612 111.336 179.807 111.92C180.002 112.505 179.627 114.6 178.975 116.577ZM126 117.294C129.575 118.135 131.6 118.855 130.5 118.892C126.761 119.021 118.636 116.41 118.241 114.952C117.978 113.982 118.122 113.876 118.674 114.632C119.128 115.254 122.425 116.452 126 117.294ZM140.75 119.716C139.238 119.945 136.762 119.945 135.25 119.716C133.738 119.487 134.975 119.3 138 119.3C141.025 119.3 142.262 119.487 140.75 119.716ZM11.716 128.75C11.487 130.262 11.3 129.025 11.3 126C11.3 122.975 11.487 121.737 11.716 123.25C11.945 124.763 11.945 127.237 11.716 128.75ZM238.716 128.75C238.487 130.262 238.3 129.025 238.3 126C238.3 122.975 238.487 121.737 238.716 123.25C238.945 124.763 238.945 127.237 238.716 128.75ZM115.279 131.04C114.986 132.161 114.523 132.856 114.249 132.583C113.708 132.042 114.664 129 115.375 129C115.616 129 115.573 129.918 115.279 131.04ZM129.02 132.599C131.868 133.444 134.04 134.289 133.849 134.476C133.657 134.663 129.675 133.73 125 132.403C120.325 131.076 118.152 130.232 120.171 130.526C122.191 130.82 126.173 131.753 129.02 132.599ZM172.612 137.43C174.475 139.591 176 141.797 176 142.33C176 142.864 174.693 141.496 173.096 139.291C171.498 137.086 168.573 134.281 166.596 133.059C162.194 130.339 161.784 129.181 166.112 131.693C167.824 132.687 170.749 135.268 172.612 137.43ZM12.706 140.25C12.467 141.488 12.272 140.475 12.272 138C12.272 135.525 12.467 134.512 12.706 135.75C12.944 136.988 12.944 139.012 12.706 140.25ZM113.683 136.188C113.364 136.985 113.127 136.748 113.079 135.583C113.036 134.529 113.272 133.939 113.604 134.271C113.936 134.603 113.972 135.466 113.683 136.188ZM237.706 140.25C237.467 141.488 237.272 140.475 237.272 138C237.272 135.525 237.467 134.512 237.706 135.75C237.944 136.988 237.944 139.012 237.706 140.25ZM141.174 137.896C145.638 140.726 149.004 144.417 148.996 146.473C148.994 147.038 148.113 146.057 147.038 144.294C145.962 142.53 142.702 139.722 139.791 138.053C136.881 136.384 134.974 135.015 135.554 135.009C136.134 135.004 138.663 136.303 141.174 137.896ZM112.683 140.188C112.364 140.985 112.127 140.748 112.079 139.583C112.036 138.529 112.272 137.939 112.604 138.271C112.936 138.603 112.972 139.466 112.683 140.188ZM111.683 144.188C111.364 144.985 111.127 144.748 111.079 143.583C111.036 142.529 111.272 141.939 111.604 142.271C111.936 142.603 111.972 143.466 111.683 144.188ZM13.693 146.731C13.439 147.704 13.215 147.15 13.195 145.5C13.175 143.85 13.382 143.054 13.656 143.731C13.93 144.408 13.947 145.758 13.693 146.731ZM236.693 146.731C236.439 147.704 236.215 147.15 236.195 145.5C236.175 143.85 236.382 143.054 236.656 143.731C236.93 144.408 236.947 145.758 236.693 146.731ZM110.683 148.188C110.364 148.985 110.127 148.748 110.079 147.583C110.036 146.529 110.272 145.939 110.604 146.271C110.936 146.603 110.972 147.466 110.683 148.188ZM177.718 153.736C177.488 155.256 177.294 154.25 177.286 151.5C177.279 148.75 177.467 147.506 177.704 148.736C177.941 149.966 177.947 152.216 177.718 153.736ZM149.693 151.731C149.439 152.704 149.215 152.15 149.195 150.5C149.175 148.85 149.382 148.054 149.656 148.731C149.93 149.408 149.947 150.758 149.693 151.731ZM14.683 151.188C14.364 151.985 14.127 151.748 14.079 150.583C14.036 149.529 14.272 148.939 14.604 149.271C14.936 149.603 14.972 150.466 14.683 151.188ZM69.571 150.571C68.707 151.436 68 152.636 68 153.238C68 153.84 67.739 154.072 67.419 153.752C66.61 152.944 68.841 149 70.107 149C70.677 149 70.436 149.707 69.571 150.571ZM235.683 151.188C235.364 151.985 235.127 151.748 235.079 150.583C235.036 149.529 235.272 148.939 235.604 149.271C235.936 149.603 235.972 150.466 235.683 151.188ZM77 151C79.01 151.644 79.108 151.806 77.5 151.83C76.4 151.846 74.6 151.473 73.5 151C70.952 149.905 73.581 149.905 77 151ZM109.683 152.188C109.364 152.985 109.127 152.748 109.079 151.583C109.036 150.529 109.272 149.939 109.604 150.271C109.936 150.603 109.972 151.466 109.683 152.188ZM15.683 155.188C15.364 155.985 15.127 155.748 15.079 154.583C15.036 153.529 15.272 152.939 15.604 153.271C15.936 153.603 15.972 154.466 15.683 155.188ZM234.683 155.188C234.364 155.985 234.127 155.748 234.079 154.583C234.036 153.529 234.272 152.939 234.604 153.271C234.936 153.603 234.972 154.466 234.683 155.188ZM108.683 156.188C108.364 156.985 108.127 156.748 108.079 155.583C108.036 154.529 108.272 153.939 108.604 154.271C108.936 154.603 108.972 155.466 108.683 156.188ZM65.116 159.656C64.001 161.77 63.069 163.178 63.044 162.784C62.973 161.634 66.319 154.986 66.752 155.418C66.968 155.634 66.232 157.541 65.116 159.656ZM26.365 180.5C36.923 199.814 52.644 215.127 73 225.923C78.225 228.694 82.119 230.97 81.653 230.981C79.869 231.021 64.442 222.428 58.609 218.144C44.99 208.143 32.744 194.194 25.124 180C21.045 172.403 15.972 159.974 16.033 157.727C16.051 157.052 17.523 160.325 19.303 165C21.083 169.675 24.261 176.65 26.365 180.5ZM145.234 160.029C143.438 161.663 141.188 162.982 140.234 162.961C139.188 162.937 139.691 162.403 141.5 161.614C143.151 160.895 145.118 159.563 145.873 158.653C146.627 157.744 147.527 157.013 147.872 157.029C148.218 157.045 147.03 158.395 145.234 160.029ZM176.683 159.188C176.364 159.985 176.127 159.748 176.079 158.583C176.036 157.529 176.272 156.939 176.604 157.271C176.936 157.603 176.972 158.466 176.683 159.188ZM231.491 165.62C221.924 191.046 202.679 213.134 179 225.869C171.412 229.95 158.981 235.028 156.727 234.967C156.052 234.949 159.325 233.477 164 231.697C192.6 220.808 214.389 200.77 226.943 173.811C229.072 169.24 231.396 163.522 232.108 161.105C232.821 158.688 233.556 157.167 233.742 157.726C233.928 158.284 232.915 161.837 231.491 165.62ZM114 160.789C114.275 161.06 113.15 160.961 111.5 160.57C109.85 160.179 108.06 159.428 107.523 158.902C106.985 158.376 108.11 158.475 110.023 159.121C111.935 159.768 113.725 160.518 114 160.789ZM121.5 162C124.195 162.686 124.246 162.765 122 162.782C120.625 162.792 118.375 162.44 117 162C115.041 161.373 114.933 161.203 116.5 161.218C117.6 161.228 119.85 161.58 121.5 162ZM173.635 167.734C171.459 172.027 164.128 180 162.356 180C162.005 180 163.743 178.218 166.218 176.039C168.98 173.608 171.642 169.968 173.109 166.614C174.424 163.609 175.638 161.531 175.807 161.996C175.976 162.461 174.998 165.043 173.635 167.734ZM134.728 163.73C132.653 163.946 129.503 163.943 127.728 163.722C125.952 163.501 127.65 163.324 131.5 163.328C135.35 163.333 136.802 163.513 134.728 163.73ZM89.749 173C90.026 174.031 89.89 174.132 89.313 173.325C88.852 172.678 82.855 170.735 75.987 169.006C69.119 167.278 63.148 165.52 62.718 165.1C62.288 164.679 68.103 165.948 75.64 167.918C84.739 170.296 89.481 172.004 89.749 173ZM88.683 177.188C88.364 177.985 88.127 177.748 88.079 176.583C88.036 175.529 88.272 174.939 88.604 175.271C88.936 175.603 88.972 176.466 88.683 177.188ZM107.729 176.604C107.397 176.936 106.534 176.972 105.813 176.683C105.015 176.364 105.252 176.127 106.417 176.079C107.471 176.036 108.061 176.272 107.729 176.604ZM102.683 179.188C102.364 179.985 102.127 179.748 102.079 178.583C102.036 177.529 102.272 176.939 102.604 177.271C102.936 177.603 102.972 178.466 102.683 179.188ZM111.729 177.604C111.397 177.936 110.534 177.972 109.813 177.683C109.015 177.364 109.252 177.127 110.417 177.079C111.471 177.036 112.061 177.272 111.729 177.604ZM113.683 180.188C113.364 180.985 113.127 180.748 113.079 179.583C113.036 178.529 113.272 177.939 113.604 178.271C113.936 178.603 113.972 179.466 113.683 180.188ZM87.683 181.188C87.364 181.985 87.127 181.748 87.079 180.583C87.036 179.529 87.272 178.939 87.604 179.271C87.936 179.603 87.972 180.466 87.683 181.188ZM101.683 183.188C101.364 183.985 101.127 183.748 101.079 182.583C101.036 181.529 101.272 180.939 101.604 181.271C101.936 181.603 101.972 182.466 101.683 183.188ZM130 181.393C130 181.609 129.325 182.045 128.5 182.362C127.675 182.678 127 182.501 127 181.969C127 181.436 127.675 181 128.5 181C129.325 181 130 181.177 130 181.393ZM112.683 184.188C112.364 184.985 112.127 184.748 112.079 183.583C112.036 182.529 112.272 181.939 112.604 182.271C112.936 182.603 112.972 183.466 112.683 184.188ZM135.75 182.689C134.787 182.941 133.213 182.941 132.25 182.689C131.287 182.438 132.075 182.232 134 182.232C135.925 182.232 136.713 182.438 135.75 182.689ZM155.25 182.662C154.563 182.94 153.438 182.94 152.75 182.662C152.063 182.385 152.625 182.158 154 182.158C155.375 182.158 155.938 182.385 155.25 182.662ZM86.683 185.188C86.364 185.985 86.127 185.748 86.079 184.583C86.036 183.529 86.272 182.939 86.604 183.271C86.936 183.603 86.972 184.466 86.683 185.188ZM148.25 183.723C146.463 183.945 143.537 183.945 141.75 183.723C139.963 183.502 141.425 183.32 145 183.32C148.575 183.32 150.037 183.502 148.25 183.723ZM126.683 186.188C126.364 186.985 126.127 186.748 126.079 185.583C126.036 184.529 126.272 183.939 126.604 184.271C126.936 184.603 126.972 185.466 126.683 186.188ZM100.683 187.188C100.364 187.985 100.127 187.748 100.079 186.583C100.036 185.529 100.272 184.939 100.604 185.271C100.936 185.603 100.972 186.466 100.683 187.188ZM111.683 188.188C111.364 188.985 111.127 188.748 111.079 187.583C111.036 186.529 111.272 185.939 111.604 186.271C111.936 186.603 111.972 187.466 111.683 188.188ZM85.683 189.188C85.364 189.985 85.127 189.748 85.079 188.583C85.036 187.529 85.272 186.939 85.604 187.271C85.936 187.603 85.972 188.466 85.683 189.188ZM125.683 190.188C125.364 190.985 125.127 190.748 125.079 189.583C125.036 188.529 125.272 187.939 125.604 188.271C125.936 188.603 125.972 189.466 125.683 190.188ZM99.683 191.188C99.364 191.985 99.127 191.748 99.079 190.583C99.036 189.529 99.272 188.939 99.604 189.271C99.936 189.603 99.972 190.466 99.683 191.188ZM110.683 192.188C110.364 192.985 110.127 192.748 110.079 191.583C110.036 190.529 110.272 189.939 110.604 190.271C110.936 190.603 110.972 191.466 110.683 192.188ZM85.29 193C85.577 194.1 85.405 195 84.906 195C84.408 195 84 194.1 84 193C84 191.9 84.173 191 84.383 191C84.594 191 85.002 191.9 85.29 193ZM124.683 194.188C124.364 194.985 124.127 194.748 124.079 193.583C124.036 192.529 124.272 191.939 124.604 192.271C124.936 192.603 124.972 193.466 124.683 194.188ZM98.683 195.188C98.364 195.985 98.127 195.748 98.079 194.583C98.036 193.529 98.272 192.939 98.604 193.271C98.936 193.603 98.972 194.466 98.683 195.188ZM109.683 196.188C109.364 196.985 109.127 196.748 109.079 195.583C109.036 194.529 109.272 193.939 109.604 194.271C109.936 194.603 109.972 195.466 109.683 196.188ZM89.729 195.604C89.397 195.936 88.534 195.972 87.813 195.683C87.015 195.364 87.252 195.127 88.417 195.079C89.471 195.036 90.061 195.272 89.729 195.604ZM93.729 196.604C93.397 196.936 92.534 196.972 91.813 196.683C91.015 196.364 91.252 196.127 92.417 196.079C93.471 196.036 94.061 196.272 93.729 196.604ZM123.683 198.188C123.364 198.985 123.127 198.748 123.079 197.583C123.036 196.529 123.272 195.939 123.604 196.271C123.936 196.603 123.972 197.466 123.683 198.188ZM97.729 197.604C97.397 197.936 96.534 197.972 95.813 197.683C95.015 197.364 95.252 197.127 96.417 197.079C97.471 197.036 98.061 197.272 97.729 197.604ZM109.362 199.5C109.678 200.325 109.501 201 108.969 201C108.436 201 108 200.325 108 199.5C108 198.675 108.177 198 108.393 198C108.609 198 109.045 198.675 109.362 199.5ZM122.655 202.457C122.329 203.306 121.261 203.948 120.281 203.884C118.612 203.775 118.61 203.739 120.25 203.311C121.213 203.059 122 202.136 122 201.26C122 200.384 122.281 199.947 122.624 200.29C122.966 200.633 122.981 201.608 122.655 202.457ZM113.729 201.604C113.397 201.936 112.534 201.972 111.813 201.683C111.015 201.364 111.252 201.127 112.417 201.079C113.471 201.036 114.061 201.272 113.729 201.604ZM117.729 202.604C117.397 202.936 116.534 202.972 115.813 202.683C115.015 202.364 115.252 202.127 116.417 202.079C117.471 202.036 118.061 202.272 117.729 202.604ZM91 233.658C93.995 234.832 94.083 234.948 91.61 234.461C90.021 234.148 87.321 233.246 85.61 232.456C83.271 231.376 83.12 231.177 85 231.653C86.375 232.001 89.075 232.903 91 233.658ZM97.729 235.604C97.397 235.936 96.534 235.972 95.813 235.683C95.015 235.364 95.252 235.127 96.417 235.079C97.471 235.036 98.061 235.272 97.729 235.604ZM154.729 235.604C154.397 235.936 153.534 235.972 152.813 235.683C152.015 235.364 152.252 235.127 153.417 235.079C154.471 235.036 155.061 235.272 154.729 235.604ZM101.729 236.604C101.397 236.936 100.534 236.972 99.813 236.683C99.015 236.364 99.252 236.127 100.417 236.079C101.471 236.036 102.061 236.272 101.729 236.604ZM150.729 236.604C150.397 236.936 149.534 236.972 148.813 236.683C148.015 236.364 148.252 236.127 149.417 236.079C150.471 236.036 151.061 236.272 150.729 236.604ZM107.269 237.656C106.592 237.93 105.242 237.947 104.269 237.693C103.296 237.439 103.85 237.215 105.5 237.195C107.15 237.175 107.946 237.382 107.269 237.656ZM146.269 237.656C145.592 237.93 144.242 237.947 143.269 237.693C142.296 237.439 142.85 237.215 144.5 237.195C146.15 237.175 146.946 237.382 146.269 237.656ZM115.25 238.706C114.013 238.944 111.987 238.944 110.75 238.706C109.513 238.467 110.525 238.272 113 238.272C115.475 238.272 116.487 238.467 115.25 238.706ZM139.25 238.706C138.012 238.944 135.988 238.944 134.75 238.706C133.512 238.467 134.525 238.272 137 238.272C139.475 238.272 140.488 238.467 139.25 238.706ZM127.75 239.716C126.237 239.945 123.763 239.945 122.25 239.716C120.737 239.487 121.975 239.3 125 239.3C128.025 239.3 129.262 239.487 127.75 239.716Z" fill="#286DFF"/>
<path fill-rule="evenodd" clip-rule="evenodd" d="M98.5 2.988C60.662 11.594 29.332 36.119 12.256 70.5C3.162 88.81 0 103.13 0 126C0 149.719 3.215 163.603 13.285 183.375C30.369 216.92 61.442 240.735 99 249.07C111.034 251.741 138.966 251.741 151 249.07C189.082 240.618 220.56 216.098 237.744 181.5C246.838 163.19 250 148.87 250 126C250 102.281 246.785 88.397 236.715 68.625C219.631 35.08 188.558 11.265 151 2.93C139.212 0.314001 110.117 0.346001 98.5 2.988ZM147.725 14.425C170.899 19.356 187.757 28.618 205.07 45.93C222.319 63.18 231.263 79.407 236.677 103.275C238.929 113.207 238.929 138.793 236.677 148.725C231.263 172.593 222.319 188.82 205.07 206.07C187.82 223.319 171.593 232.263 147.725 237.677C137.793 239.929 112.207 239.929 102.275 237.677C78.407 232.263 62.18 223.319 44.93 206.07C27.681 188.82 18.737 172.593 13.323 148.725C11.071 138.793 11.071 113.207 13.323 103.275C18.399 80.894 27.39 63.888 42.481 48.123C61.626 28.124 83.534 16.763 110.208 13C118.794 11.79 138.934 12.554 147.725 14.425ZM110.5 14.127C73.754 18.717 40.305 42.783 24.007 76.358C8.331 108.648 8.331 143.352 24.007 175.642C47.659 224.364 103.671 249.361 155.737 234.43C208.037 219.432 242.911 168.27 237.134 115.013C230.217 51.237 173.723 6.23 110.5 14.127ZM128.499 49.334C131.501 50.113 133.618 51.254 133.799 52.193C133.964 53.053 133.016 58.025 131.691 63.242L129.282 72.728L133.884 73.781C136.577 74.397 138.716 74.46 139.042 73.932C139.348 73.437 140.631 68.749 141.893 63.516C143.648 56.233 144.576 54.003 145.843 54.012C147.612 54.025 157.973 56.64 158.554 57.22C158.744 57.411 157.807 61.827 156.47 67.033C155.134 72.24 154.031 77.182 154.02 78.015C154.008 78.929 155.896 80.204 158.772 81.226C166.025 83.801 174.04 89.894 177.465 95.434C179.978 99.499 180.499 101.388 180.491 106.422C180.486 109.851 179.698 114.542 178.683 117.186C176.723 122.29 170.565 128.569 166.525 129.583C164.002 130.216 164.003 130.22 167.868 133.02C176.147 139.017 179.22 147.033 177.126 157.171C173.566 174.406 163.216 183.28 146.5 183.429C142.1 183.468 136.054 183.275 133.065 183L127.631 182.5L125.065 192.679C123.654 198.277 122.212 203.14 121.861 203.485C121.315 204.02 109.057 201.368 108.202 200.53C108.039 200.369 109.051 195.715 110.452 190.188C111.854 184.66 113 179.707 113 179.18C113 178.653 111.393 177.921 109.429 177.553C107.465 177.184 105.3 176.669 104.618 176.407C103.766 176.08 102.637 179.067 101.015 185.937C99.716 191.441 98.352 196.43 97.986 197.023C97.182 198.324 84 195.295 84 193.81C84 193.289 85.146 188.34 86.548 182.812C87.949 177.285 88.958 172.625 88.79 172.457C88.623 172.289 82.864 170.737 75.993 169.008C69.122 167.279 63.19 165.557 62.81 165.182C62.181 164.56 67.343 151.466 68.883 149.78C69.244 149.384 72.006 149.713 75.02 150.512C81.974 152.354 83.721 151.768 84.929 147.19C94.103 112.408 100.008 86.313 99.137 84.402C98.179 82.3 90.693 79 86.881 79C85.911 79 84.863 78.588 84.552 78.084C83.779 76.833 87.172 63 88.252 63C88.728 63 94.464 64.35 101 66C107.536 67.65 113.305 69 113.82 69C114.335 69 115.51 65.963 116.43 62.25C120.475 45.928 119.478 46.996 128.499 49.334ZM120.099 52.75C119.561 54.813 118.378 59.421 117.471 62.991C116.563 66.561 115.64 69.774 115.418 70.132C115.197 70.49 109.063 69.281 101.787 67.446C94.51 65.611 88.473 64.198 88.37 64.305C87.686 65.021 85.188 76.522 85.622 76.957C85.92 77.256 88.669 78.175 91.732 79C95.585 80.038 97.938 81.357 99.37 83.283L101.44 86.066L93.47 118.17C84.241 155.347 84.854 154.217 75.221 151.79L69.46 150.339L66.391 157.497L63.322 164.654L76.661 167.93C83.998 169.731 90 171.64 90 172.171C90 172.703 88.854 177.66 87.452 183.188C86.051 188.715 85.105 193.438 85.349 193.682C86.358 194.692 96.51 196.884 97.099 196.22C97.451 195.824 98.756 191.225 100 186C101.244 180.775 102.58 176.145 102.97 175.711C103.906 174.668 113.125 177.161 113.679 178.606C114.033 179.528 111.527 191 109.4 198.198C108.903 199.881 109.776 200.271 119.056 202.504C121.561 203.107 121.657 202.923 123.979 193.087C125.282 187.57 126.649 182.567 127.019 181.97C127.5 181.191 130.116 181.207 136.29 182.029C159.642 185.136 173.343 175.898 176.488 154.928C177.636 147.273 175.666 142.292 168.936 135.832L163.031 130.164L167.542 127.979C173.475 125.108 176.646 120.756 178.612 112.788C180.087 106.812 180.088 105.814 178.623 100.774C176.573 93.725 170.746 88.185 160.186 83.246C155.959 81.269 152.401 79.594 152.28 79.522C152.159 79.451 153.33 74.54 154.882 68.608C156.767 61.403 157.338 57.705 156.602 57.466C153.723 56.533 147.377 55.011 146.343 55.006C145.707 55.003 144.155 59.282 142.893 64.516C141.631 69.749 140.31 74.498 139.957 75.07C139.324 76.094 130.409 74.527 128.793 73.107C128.404 72.766 129.183 68.214 130.523 62.993C131.863 57.772 132.969 53.015 132.98 52.422C132.997 51.519 124.885 49 121.962 49C121.475 49 120.637 50.688 120.099 52.75ZM146.302 95.331C151.689 98.488 154 102.236 154 107.815C154 115.18 147.695 120 138.061 120C132.03 120 118 117.054 118 115.787C118 114.878 123.714 91.531 124.481 89.309C125.066 87.612 140.308 91.818 146.302 95.331ZM122.085 102.628C120.346 109.573 119.053 115.37 119.211 115.51C120.2 116.377 134.677 119 138.48 119C147.781 119 153 114.469 153 106.395C153 100.743 147.283 95.808 136.954 92.545C132.522 91.145 128.076 90 127.072 90C125.569 90 124.69 92.227 122.085 102.628ZM130.681 133.113C142.74 136.97 148.954 142.174 149.65 149C150.236 154.742 147.752 159.671 143.016 162.165C138.244 164.678 127.167 164.568 115.784 161.896C108.524 160.191 106.903 159.479 107.249 158.146C107.484 157.241 109.203 150.282 111.068 142.682L114.459 128.863L117.979 129.52C119.916 129.881 125.631 131.498 130.681 133.113ZM111.692 144.202C109.729 152.042 108.227 158.56 108.353 158.687C109.403 159.736 122.07 162.249 128.588 162.701C141.671 163.608 147.809 160.28 148.671 151.812C149.529 143.378 142.157 137.102 126.567 132.995C122.13 131.826 117.771 130.663 116.881 130.409C115.551 130.031 114.625 132.492 111.692 144.202Z" fill="#0052FF"/>
<path fill-rule="evenodd" clip-rule="evenodd" d="M110.5 14.127C73.754 18.717 40.305 42.783 24.007 76.358C8.331 108.648 8.331 143.352 24.007 175.642C47.659 224.364 103.671 249.361 155.737 234.43C208.037 219.432 242.911 168.27 237.134 115.013C230.217 51.237 173.723 6.23 110.5 14.127ZM128.499 49.334C131.501 50.113 133.618 51.254 133.799 52.193C133.964 53.053 133.016 58.025 131.691 63.242L129.282 72.728L133.884 73.781C136.577 74.397 138.716 74.46 139.042 73.932C139.348 73.437 140.631 68.749 141.893 63.516C143.648 56.233 144.576 54.003 145.843 54.012C147.612 54.025 157.973 56.64 158.554 57.22C158.744 57.411 157.807 61.827 156.47 67.033C155.134 72.24 154.031 77.182 154.02 78.015C154.008 78.929 155.896 80.204 158.772 81.226C166.025 83.801 174.04 89.894 177.465 95.434C179.978 99.499 180.499 101.388 180.491 106.422C180.486 109.851 179.698 114.542 178.683 117.186C176.723 122.29 170.565 128.569 166.525 129.583C164.002 130.216 164.003 130.22 167.868 133.02C176.147 139.017 179.22 147.033 177.126 157.171C173.566 174.406 163.216 183.28 146.5 183.429C142.1 183.468 136.054 183.275 133.065 183L127.631 182.5L125.065 192.679C123.654 198.277 122.212 203.14 121.861 203.485C121.315 204.02 109.057 201.368 108.202 200.53C108.039 200.369 109.051 195.715 110.452 190.188C111.854 184.66 113 179.707 113 179.18C113 178.653 111.393 177.921 109.429 177.553C107.465 177.184 105.3 176.669 104.618 176.407C103.766 176.08 102.637 179.067 101.015 185.937C99.716 191.441 98.352 196.43 97.986 197.023C97.182 198.324 84 195.295 84 193.81C84 193.289 85.146 188.34 86.548 182.812C87.949 177.285 88.958 172.625 88.79 172.457C88.623 172.289 82.864 170.737 75.993 169.008C69.122 167.279 63.19 165.557 62.81 165.182C62.181 164.56 67.343 151.466 68.883 149.78C69.244 149.384 72.006 149.713 75.02 150.512C81.974 152.354 83.721 151.768 84.929 147.19C94.103 112.408 100.008 86.313 99.137 84.402C98.179 82.3 90.693 79 86.881 79C85.911 79 84.863 78.588 84.552 78.084C83.779 76.833 87.172 63 88.252 63C88.728 63 94.464 64.35 101 66C107.536 67.65 113.305 69 113.82 69C114.335 69 115.51 65.963 116.43 62.25C120.475 45.928 119.478 46.996 128.499 49.334ZM122.085 102.628C120.346 109.573 119.053 115.37 119.211 115.51C120.2 116.377 134.677 119 138.48 119C147.781 119 153 114.469 153 106.395C153 100.743 147.283 95.808 136.954 92.545C132.522 91.145 128.076 90 127.072 90C125.569 90 124.69 92.227 122.085 102.628ZM111.692 144.202C109.729 152.042 108.227 158.56 108.353 158.687C109.403 159.736 122.07 162.249 128.588 162.701C141.671 163.608 147.809 160.28 148.671 151.812C149.529 143.378 142.157 137.102 126.567 132.995C122.13 131.826 117.771 130.663 116.881 130.409C115.551 130.031 114.625 132.492 111.692 144.202Z" fill="white"/>
</svg>
