<svg width="66" height="65" viewBox="0 0 66 65" fill="none" xmlns="http://www.w3.org/2000/svg">
<path fill-rule="evenodd" clip-rule="evenodd" d="M18.261 3.557C12.072 6.641 6.646 12.416 3.413 19.36C-0.00199986 26.694 -0.00199986 39.306 3.413 46.64C6.646 53.584 12.072 59.359 18.261 62.443C22.695 64.652 24.699 65 33 65C41.301 65 43.305 64.652 47.739 62.443C53.928 59.359 59.354 53.584 62.587 46.64C66.002 39.306 66.002 26.694 62.587 19.36C59.354 12.416 53.928 6.641 47.739 3.557C40.244 -0.178 25.756 -0.178 18.261 3.557Z" fill="#050009"/>
<path fill-rule="evenodd" clip-rule="evenodd" d="M18.261 3.557C12.072 6.641 6.646 12.416 3.413 19.36C-0.00199986 26.694 -0.00199986 39.306 3.413 46.64C6.646 53.584 12.072 59.359 18.261 62.443C22.695 64.652 24.699 65 33 65C41.301 65 43.305 64.652 47.739 62.443C53.928 59.359 59.354 53.584 62.587 46.64C66.002 39.306 66.002 26.694 62.587 19.36C59.354 12.416 53.928 6.641 47.739 3.557C40.244 -0.178 25.756 -0.178 18.261 3.557ZM41 16.54C41 18.063 36.736 19.573 35.17 18.605C34.651 18.284 33.671 18.692 32.991 19.511C31.553 21.243 28 21.515 28 19.893C28 19.282 28.728 19.065 29.627 19.41C30.521 19.754 31.915 19.486 32.723 18.815C33.531 18.144 35.387 17.574 36.846 17.548C38.737 17.514 39.461 17 39.363 15.761C39.288 14.804 39.625 14.268 40.113 14.57C40.601 14.871 41 15.758 41 16.54ZM21.741 18.523C19.396 21.052 19.255 21.083 18.753 19.164C18.405 17.834 18.643 17.309 19.453 17.62C20.128 17.879 21.266 17.385 21.982 16.521C22.699 15.658 23.491 15.158 23.744 15.41C23.996 15.663 23.095 17.064 21.741 18.523ZM17.5 24C17.84 24.55 17.641 25 17.059 25C16.477 25 16 24.55 16 24C16 23.45 16.198 23 16.441 23C16.684 23 17.16 23.45 17.5 24ZM26.729 23.604C26.397 23.936 25.534 23.972 24.813 23.683C24.015 23.364 24.252 23.127 25.417 23.079C26.471 23.036 27.061 23.272 26.729 23.604ZM26.326 26.406C26.622 27.179 26.03 28.568 25.008 29.492C23.081 31.236 22.901 30.34 24.456 26.75C25.373 24.633 25.627 24.586 26.326 26.406ZM18 28.378C18 28.585 17.212 29.373 16.25 30.128C14.664 31.371 14.629 31.336 15.872 29.75C17.179 28.084 18 27.555 18 28.378ZM33 28.378C33 28.585 32.365 29.282 31.589 29.926C30.509 30.823 30.004 30.815 29.435 29.894C28.98 29.159 29.113 28.952 29.776 29.362C30.373 29.731 31.144 29.575 31.49 29.016C32.108 28.016 33 27.639 33 28.378ZM17.75 37.583C16.797 38.536 14.886 36.993 15.597 35.844C16.019 35.161 16.578 35.178 17.296 35.896C17.885 36.485 18.089 37.244 17.75 37.583ZM33 35.75C33 36.163 30.781 36.519 28.069 36.542C25.358 36.565 23.359 36.228 23.629 35.792C24.251 34.784 33 34.745 33 35.75ZM20.434 42.898C21.497 43.314 21.942 43.918 21.423 44.239C20.903 44.56 19.609 44.188 18.548 43.411C16.476 41.896 17.302 41.671 20.434 42.898ZM25.342 49.896C24.879 50.241 24.258 50.835 23.962 51.216C23.666 51.597 22.919 51.1 22.301 50.11C21.313 48.528 21.479 48.369 23.681 48.79C25.057 49.053 25.805 49.551 25.342 49.896ZM47 50.378C47 50.585 46.212 51.373 45.25 52.128C43.664 53.371 43.629 53.336 44.872 51.75C46.179 50.084 47 49.555 47 50.378Z" fill="#020102"/>
<path fill-rule="evenodd" clip-rule="evenodd" d="M17.958 13.55C16.896 14.831 16.961 15.39 18.336 16.764C19.888 18.317 20.112 18.317 21.664 16.764C23.039 15.39 23.104 14.831 22.042 13.55C20.423 11.6 19.577 11.6 17.958 13.55ZM35 13.975C35 14.529 33.68 14.686 31.942 14.338C29.458 13.842 28.788 14.093 28.373 15.68C27.977 17.197 27.208 17.537 24.931 17.203C22.355 16.825 22 17.076 22 19.28C22 20.658 21.302 22.054 20.448 22.382C19.594 22.709 19.092 22.645 19.331 22.239C20.253 20.672 17.988 17 16.1 17C13.672 17 12.189 20.872 14.143 22.11C15.131 22.736 14.88 22.974 13.219 22.985C10.55 23.003 9.282 25.43 10.914 27.396C11.785 28.446 11.695 28.903 10.526 29.352C8.824 30.005 8.44 34.536 10.004 35.502C10.556 35.843 10.741 37.183 10.416 38.479C9.987 40.189 10.362 41.123 11.781 41.883C12.857 42.458 14.08 42.608 14.5 42.215C14.919 41.822 14.652 42.501 13.906 43.725C12.341 46.293 13.434 48.006 16.8 48.26C18.484 48.387 18.668 48.696 17.731 49.824C16.05 51.849 20.593 55.583 22.656 53.871C23.847 52.882 23.825 52.401 22.511 50.606C21.663 49.448 20.423 47.375 19.755 46C19.087 44.625 18.082 43.12 17.52 42.656C16.928 42.165 17.268 42.061 18.332 42.406C19.339 42.733 20.577 43 21.082 43C21.587 43 22 44.298 22 45.883C22 48.165 22.522 48.867 24.5 49.245C25.936 49.519 27.027 49.25 27.063 48.611C27.098 48 27.534 48.513 28.031 49.75C28.529 50.987 29.652 52 30.527 52C31.452 52 31.827 52.471 31.422 53.126C30.921 53.936 31.232 53.969 32.529 53.244C33.569 52.662 35.5 52.57 37.094 53.027C39.044 53.586 40.004 53.433 40.359 52.507C41.201 50.312 38.544 47.625 36.151 48.25C34.969 48.559 33.75 48.404 33.442 47.906C33.134 47.408 32.024 47 30.976 47C29.928 47 28.589 46.1 28 45C27.411 43.9 25.933 42.948 24.715 42.884C23.022 42.795 22.913 42.66 24.25 42.311C26.392 41.751 26.433 41.063 24.489 38.288C22.494 35.44 23.72 34.796 30.537 35.111C37.26 35.423 39.083 34.079 36.173 30.955C33.751 28.355 31.304 28.917 30.798 32.189C30.46 34.373 30.408 34.35 29.865 31.78C29.548 30.284 29.623 29.267 30.031 29.519C30.439 29.772 31.223 29.42 31.772 28.739C33.03 27.177 31.555 23 29.745 23C29.019 23 28.358 22.1 28.275 21C28.104 18.726 28.406 18.612 30.961 19.979C32.331 20.712 33.13 20.524 34.145 19.229C35.398 17.63 35.349 17.613 33.5 19C31.669 20.373 31.61 20.359 32.802 18.835C33.784 17.579 34.794 17.367 36.91 17.974C39.762 18.792 39.931 18.47 39.128 13.75C38.937 12.629 35 12.844 35 13.975ZM42.104 14.914C40.039 16.222 41.568 19 44.352 19C45.903 19 46.949 19.696 47.276 20.946C47.586 22.134 48.564 22.833 49.784 22.741C51.361 22.623 51.623 22.158 51.025 20.545C50.607 19.42 49.469 18.498 48.495 18.495C47.522 18.492 46.351 17.479 45.895 16.245C44.995 13.811 44.256 13.552 42.104 14.914ZM17.985 25.809C17.971 27.266 17.835 27.293 17 26C15.734 24.042 15.734 22.718 17 23.5C17.55 23.84 17.993 24.879 17.985 25.809ZM26.729 23.604C26.397 23.936 25.534 23.972 24.813 23.683C24.015 23.364 24.252 23.127 25.417 23.079C26.471 23.036 27.061 23.272 26.729 23.604ZM51 25.393C51 26.901 53.429 28.238 54.402 27.264C55.719 25.948 54.883 24 53 24C51.9 24 51 24.627 51 25.393ZM26.199 29.093C25.29 29.419 24.224 30.769 23.831 32.093C23.21 34.179 23.153 34.1 23.399 31.5C23.555 29.85 24.032 27.699 24.46 26.721C25.204 25.015 25.291 25.015 26.544 26.721C27.65 28.226 27.596 28.591 26.199 29.093ZM17.75 29.08C16.787 29.641 15.948 31.09 15.884 32.3C15.791 34.064 15.676 34.144 15.301 32.702C14.789 30.727 16.593 27.982 18.372 28.03C18.993 28.047 18.712 28.519 17.75 29.08ZM18.267 38.088C17.783 39.938 17.683 39.949 16.466 38.284C14.969 36.237 15.462 34.856 17.422 35.608C18.203 35.908 18.562 36.96 18.267 38.088ZM25.765 37.954C26.065 38.804 26.687 39.991 27.147 40.592C27.606 41.193 27.781 41.886 27.534 42.132C27.288 42.379 27.936 42.645 28.976 42.723C31.643 42.924 32.938 40.943 31.91 38.232C31.255 36.502 30.36 36.017 28.135 36.187C25.986 36.35 25.363 36.815 25.765 37.954ZM51 40.393C51 41.901 53.429 43.238 54.402 42.264C55.719 40.948 54.883 39 53 39C51.9 39 51 39.627 51 40.393ZM47 46C47 47.446 47.667 48 49.406 48C51.32 48 51.706 47.591 51.29 46C51 44.893 49.926 44 48.883 44C47.667 44 47 44.708 47 46ZM41.38 48.452C40.554 50.605 41.802 51.994 44.372 51.781C46.168 51.633 46.553 51.112 46.206 49.297C45.71 46.702 42.282 46.102 41.38 48.452Z" fill="#0E061B"/>
<path fill-rule="evenodd" clip-rule="evenodd" d="M18 13.5C17.068 14.623 17.04 15.343 17.886 16.363C18.803 17.467 18.493 17.661 16.259 17.382C13.542 17.042 13.538 17.05 16 17.862C20.138 19.226 24.239 16.197 21.964 13.456C20.433 11.612 19.559 11.621 18 13.5ZM35 13.975C35 14.529 33.68 14.686 31.942 14.338C29.458 13.842 28.788 14.093 28.373 15.68C27.977 17.197 27.208 17.537 24.931 17.203C22.312 16.819 22 17.058 22 19.454C22 21.64 21.647 22.023 20.084 21.527C18.157 20.915 16.234 22.568 17.454 23.788C17.814 24.148 18.473 23.852 18.919 23.131C19.538 22.129 20.356 22.446 22.384 24.475C25.086 27.177 25.085 29 22.382 29C21.557 29 21.141 29.419 21.457 29.931C21.774 30.443 23.15 30.659 24.516 30.411C25.882 30.164 27 30.42 27 30.98C27 31.541 27.723 32 28.607 32C29.648 32 30.004 31.454 29.618 30.448C29.291 29.594 29.417 29.14 29.898 29.437C30.38 29.735 31.223 29.42 31.772 28.739C33.03 27.177 31.555 23 29.745 23C29.019 23 28.358 22.1 28.275 21C28.104 18.726 28.406 18.612 30.961 19.979C32.331 20.712 33.13 20.524 34.145 19.229C35.398 17.63 35.349 17.613 33.5 19C31.669 20.373 31.61 20.359 32.802 18.835C33.784 17.579 34.794 17.367 36.91 17.974C39.762 18.792 39.931 18.47 39.128 13.75C38.937 12.629 35 12.844 35 13.975ZM42.104 14.914C40.039 16.222 41.568 19 44.352 19C45.903 19 46.949 19.696 47.276 20.946C47.586 22.134 48.564 22.833 49.784 22.741C51.361 22.623 51.623 22.158 51.025 20.545C50.607 19.42 49.469 18.498 48.495 18.495C47.522 18.492 46.351 17.479 45.895 16.245C44.995 13.811 44.256 13.552 42.104 14.914ZM13.079 20.583C13.127 21.748 13.364 21.985 13.683 21.188C13.972 20.466 13.936 19.603 13.604 19.271C13.272 18.939 13.036 19.529 13.079 20.583ZM26.729 23.604C26.397 23.936 25.534 23.972 24.813 23.683C24.015 23.364 24.252 23.127 25.417 23.079C26.471 23.036 27.061 23.272 26.729 23.604ZM51 25.393C51 26.901 53.429 28.238 54.402 27.264C55.719 25.948 54.883 24 53 24C51.9 24 51 24.627 51 25.393ZM16 26.541C16 27.378 15.328 28.321 14.506 28.636C12.529 29.395 13.524 30.903 15.754 30.528C16.714 30.367 17.369 29.676 17.209 28.994C17.033 28.244 17.526 27.988 18.459 28.346C20.499 29.129 20.403 28.789 18 26.732C16.293 25.271 16 25.243 16 26.541ZM26.804 27.128C27.845 28.497 27.698 28.846 25.877 29.322C24.344 29.723 24.023 29.577 24.778 28.822C25.364 28.236 25.582 27.024 25.263 26.128C24.648 24.408 24.82 24.519 26.804 27.128ZM31.667 29.667C31.3 30.033 31 31.158 31 32.167C31 33.175 30.438 34.059 29.75 34.132C29.063 34.204 30.075 34.569 32 34.944C36.822 35.881 38.895 34.068 36.371 31.121C34.529 28.969 32.875 28.458 31.667 29.667ZM13.504 34.993C13.15 35.566 13.942 35.9 15.373 35.781C16.739 35.668 17.637 35.221 17.369 34.788C16.683 33.678 14.237 33.808 13.504 34.993ZM21.5 35C21.16 35.55 21.557 36 22.382 36C23.207 36 24.16 35.55 24.5 35C24.84 34.45 24.443 34 23.618 34C22.793 34 21.84 34.45 21.5 35ZM25.613 37.183C25.902 37.65 26.557 37.774 27.069 37.457C28.377 36.649 28.23 36.333 26.544 36.333C25.743 36.333 25.324 36.716 25.613 37.183ZM16.03 38.668C16.014 39.311 15.707 40.6 15.349 41.534C14.813 42.93 15.102 43.103 16.974 42.508C18.516 42.019 19.032 42.139 18.573 42.881C18.139 43.584 18.493 43.748 19.558 43.34C21.054 42.765 21.062 42.614 19.641 41.819C18.774 41.334 17.613 40.163 17.062 39.218C16.511 38.273 16.047 38.026 16.03 38.668ZM25.25 39.662C23.82 40.239 23.551 42 24.893 42C25.384 42 26.045 41.325 26.362 40.5C26.678 39.675 26.839 39.036 26.719 39.079C26.598 39.122 25.938 39.385 25.25 39.662ZM51 40.393C51 41.901 53.429 43.238 54.402 42.264C55.719 40.948 54.883 39 53 39C51.9 39 51 39.627 51 40.393ZM31 40.969C31 41.501 30.371 41.696 29.601 41.4C28.832 41.105 27.963 41.251 27.67 41.724C26.753 43.209 30.805 42.939 32.056 41.433C32.902 40.413 32.921 40 32.122 40C31.505 40 31 40.436 31 40.969ZM47 46C47 47.446 47.667 48 49.406 48C51.32 48 51.706 47.591 51.29 46C51 44.893 49.926 44 48.883 44C47.667 44 47 44.708 47 46ZM18.173 47.291C17.365 48.265 17.567 48.617 18.994 48.725C20.256 48.82 20.703 48.39 20.336 47.434C19.663 45.679 19.519 45.669 18.173 47.291ZM27.183 47.217C26.532 47.867 26 48.792 26 49.271C26 49.751 26.729 49.414 27.619 48.524C28.51 47.633 29.042 46.709 28.802 46.469C28.563 46.229 27.834 46.566 27.183 47.217ZM41.281 48.75C40.919 49.712 39.965 50.994 39.16 51.597C38.215 52.306 38.068 52.924 38.744 53.342C39.319 53.697 40.016 53.4 40.293 52.68C40.577 51.939 42.072 51.46 43.738 51.575C46.34 51.755 46.628 51.503 46.224 49.389C45.681 46.55 42.272 46.109 41.281 48.75ZM33.504 48.837C33.78 49.114 33.298 50.422 32.433 51.743C30.933 54.032 30.951 54.097 32.798 53.108C33.864 52.537 34.909 52.242 35.119 52.452C35.328 52.662 35.5 51.821 35.5 50.583C35.5 49.346 34.938 48.333 34.25 48.333C33.563 48.333 33.227 48.56 33.504 48.837ZM44 49.5C45.02 50.729 44.951 51 43.622 51C42.73 51 42 50.325 42 49.5C42 48.675 42.17 48 42.378 48C42.585 48 43.315 48.675 44 49.5ZM22.015 51.177C22.007 52.099 21.212 53.012 20.25 53.206C18.642 53.53 18.636 53.613 20.177 54.22C22.356 55.079 24.197 52.925 22.958 50.966C22.173 49.726 22.028 49.758 22.015 51.177Z" fill="#090815"/>
<path fill-rule="evenodd" clip-rule="evenodd" d="M33.49 19.016C33.144 19.575 32.373 19.731 31.776 19.362C31.113 18.952 30.98 19.159 31.435 19.894C32.004 20.815 32.509 20.823 33.589 19.926C35.004 18.752 35.383 18 34.559 18C34.316 18 33.835 18.457 33.49 19.016ZM17.667 21.667C16.711 22.622 16.845 24 17.893 24C18.384 24 19.045 23.325 19.362 22.5C19.947 20.976 18.881 20.452 17.667 21.667ZM26.5 22C26.16 22.55 26.246 23.032 26.691 23.07C27.136 23.109 26.6 23.527 25.5 24C23.837 24.715 23.789 24.871 25.215 24.93C26.158 24.968 27.411 24.1 28 23C29.09 20.964 27.709 20.043 26.5 22ZM16 26.541C16 27.378 15.328 28.321 14.506 28.636C12.529 29.395 13.524 30.903 15.754 30.528C16.714 30.367 17.369 29.676 17.209 28.994C17.033 28.244 17.526 27.988 18.459 28.346C20.499 29.129 20.403 28.789 18 26.732C16.293 25.271 16 25.243 16 26.541ZM24.446 26.913C24.926 27.69 24.44 28.334 23.112 28.681C20.701 29.311 21.182 30.943 23.671 30.578C25.581 30.297 26.343 27.33 24.756 26.349C24.107 25.948 23.986 26.168 24.446 26.913ZM30.364 28.494C30.048 29.316 29.318 29.697 28.741 29.34C28.113 28.952 27.99 29.174 28.435 29.894C28.956 30.739 29.551 30.787 30.431 30.057C31.12 29.485 31.905 29.238 32.175 29.509C32.446 29.779 32.667 29.325 32.667 28.5C32.667 26.562 31.107 26.558 30.364 28.494ZM36.5 33C36.84 33.55 36.641 34 36.059 34C35.477 34 35 34.505 35 35.122C35 35.898 35.464 35.86 36.5 35C38.242 33.554 38.47 32 36.941 32C36.359 32 36.16 32.45 36.5 33ZM13.504 34.993C13.15 35.566 13.942 35.9 15.373 35.781C16.739 35.668 17.637 35.221 17.369 34.788C16.683 33.678 14.237 33.808 13.504 34.993ZM21.5 35C21.16 35.55 21.557 36 22.382 36C23.207 36 24.16 35.55 24.5 35C24.84 34.45 24.443 34 23.618 34C22.793 34 21.84 34.45 21.5 35ZM29.813 34.683C30.534 34.972 31.397 34.936 31.729 34.604C32.061 34.272 31.471 34.036 30.417 34.079C29.252 34.127 29.015 34.364 29.813 34.683ZM16.03 38.668C16.014 39.311 15.707 40.6 15.349 41.534C14.813 42.93 15.102 43.103 16.974 42.508C18.516 42.019 19.032 42.139 18.573 42.881C18.139 43.584 18.493 43.748 19.558 43.34C21.054 42.765 21.062 42.614 19.641 41.819C18.774 41.334 17.613 40.163 17.062 39.218C16.511 38.273 16.047 38.026 16.03 38.668ZM25.25 39.662C23.82 40.239 23.551 42 24.893 42C25.384 42 26.045 41.325 26.362 40.5C26.678 39.675 26.839 39.036 26.719 39.079C26.598 39.122 25.938 39.385 25.25 39.662ZM31 40.969C31 41.501 30.371 41.696 29.601 41.4C28.832 41.105 27.963 41.251 27.67 41.724C26.753 43.209 30.805 42.939 32.056 41.433C32.902 40.413 32.921 40 32.122 40C31.505 40 31 40.436 31 40.969ZM18.173 47.291C17.365 48.265 17.567 48.617 18.994 48.725C20.256 48.82 20.703 48.39 20.336 47.434C19.663 45.679 19.519 45.669 18.173 47.291ZM27.183 47.217C26.532 47.867 26 48.792 26 49.271C26 49.751 26.729 49.414 27.619 48.524C28.51 47.633 29.042 46.709 28.802 46.469C28.563 46.229 27.834 46.566 27.183 47.217ZM33.254 48.51C33.668 48.967 33.298 50.422 32.433 51.743C30.933 54.032 30.951 54.097 32.798 53.108C33.864 52.537 34.991 52.324 35.301 52.634C35.611 52.944 35.616 52.246 35.312 51.083C35.007 49.92 34.25 48.679 33.629 48.324C33.008 47.969 32.839 48.053 33.254 48.51ZM22.015 51.177C22.007 52.099 21.212 53.012 20.25 53.206C18.642 53.53 18.636 53.613 20.177 54.22C22.356 55.079 24.197 52.925 22.958 50.966C22.173 49.726 22.028 49.758 22.015 51.177ZM39.395 51.453C38.33 52.232 38.087 52.936 38.744 53.342C39.319 53.697 40.035 53.351 40.334 52.572C40.666 51.707 41.68 51.365 42.939 51.694C44.072 51.991 45 52.008 45 51.733C45 50.528 40.938 50.325 39.395 51.453Z" fill="#0B0414"/>
<path fill-rule="evenodd" clip-rule="evenodd" d="M33.49 19.016C33.144 19.575 32.373 19.731 31.776 19.362C31.113 18.952 30.98 19.159 31.435 19.894C32.004 20.815 32.509 20.823 33.589 19.926C35.004 18.752 35.383 18 34.559 18C34.316 18 33.835 18.457 33.49 19.016ZM17.667 21.667C16.711 22.622 16.845 24 17.893 24C18.384 24 19.045 23.325 19.362 22.5C19.947 20.976 18.881 20.452 17.667 21.667ZM26.5 22C26.16 22.55 26.246 23.032 26.691 23.07C27.136 23.109 26.6 23.527 25.5 24C23.837 24.715 23.789 24.871 25.215 24.93C26.158 24.968 27.411 24.1 28 23C29.09 20.964 27.709 20.043 26.5 22ZM16 26.46C16 27.252 15.213 28.359 14.25 28.92C12.583 29.891 12.583 29.941 14.25 29.97C17.102 30.019 17.515 29.853 17.209 28.777C17.049 28.215 17.612 28.021 18.459 28.346C20.499 29.129 20.403 28.789 18 26.732C16.385 25.349 16 25.297 16 26.46ZM24.404 26.758C24.861 27.552 24.303 28.322 22.893 28.844C21.53 29.348 21.088 29.936 21.76 30.352C22.366 30.726 23.149 30.568 23.5 30C23.851 29.432 24.518 29.202 24.981 29.488C26.064 30.157 25.668 27.31 24.535 26.279C24.065 25.851 24.005 26.066 24.404 26.758ZM30.364 28.494C30.048 29.316 29.318 29.697 28.741 29.34C28.113 28.952 27.99 29.174 28.435 29.894C28.956 30.739 29.551 30.787 30.431 30.057C31.12 29.485 31.905 29.238 32.175 29.509C32.446 29.779 32.667 29.325 32.667 28.5C32.667 26.562 31.107 26.558 30.364 28.494ZM36.5 33C36.84 33.55 36.641 34 36.059 34C35.477 34 35 34.505 35 35.122C35 35.898 35.464 35.86 36.5 35C38.242 33.554 38.47 32 36.941 32C36.359 32 36.16 32.45 36.5 33ZM14 35.005C12.845 35.756 13.117 35.934 15.178 35.778C16.651 35.667 17.637 35.221 17.369 34.788C16.731 33.756 15.834 33.814 14 35.005ZM22 35C20.707 35.835 20.734 35.971 22.191 35.985C23.121 35.993 24.16 35.55 24.5 35C25.282 33.734 23.958 33.734 22 35ZM29.813 34.683C30.534 34.972 31.397 34.936 31.729 34.604C32.061 34.272 31.471 34.036 30.417 34.079C29.252 34.127 29.015 34.364 29.813 34.683ZM16 38.752C16 39.348 15.707 40.6 15.349 41.534C14.813 42.93 15.102 43.103 16.974 42.508C18.671 41.97 19.052 42.107 18.471 43.047C17.949 43.891 18.095 44.059 18.911 43.555C19.825 42.99 19.678 42.262 18.326 40.651C17.333 39.468 16.404 38.313 16.261 38.083C16.117 37.854 16 38.155 16 38.752ZM25.25 39.662C23.82 40.239 23.551 42 24.893 42C25.384 42 26.045 41.325 26.362 40.5C26.678 39.675 26.839 39.036 26.719 39.079C26.598 39.122 25.938 39.385 25.25 39.662ZM31 40.969C31 41.501 30.371 41.696 29.601 41.4C28.832 41.105 27.963 41.251 27.67 41.724C26.753 43.209 30.805 42.939 32.056 41.433C32.902 40.413 32.921 40 32.122 40C31.505 40 31 40.436 31 40.969ZM17.981 47.523C16.924 48.796 16.986 48.943 18.359 48.416C19.261 48.069 20 47.384 20 46.893C20 45.607 19.421 45.788 17.981 47.523ZM27.183 47.217C26.532 47.867 26 48.792 26 49.271C26 49.751 26.729 49.414 27.619 48.524C28.51 47.633 29.042 46.709 28.802 46.469C28.563 46.229 27.834 46.566 27.183 47.217ZM33.504 48.67C33.78 49.039 33.298 50.422 32.433 51.743C30.933 54.032 30.951 54.097 32.798 53.108C33.864 52.537 35.119 52.392 35.586 52.785C36.052 53.178 35.774 52.643 34.967 51.596C34.16 50.549 33.65 49.499 33.833 49.263C34.017 49.027 33.904 48.646 33.583 48.417C33.263 48.188 33.227 48.302 33.504 48.67ZM40.25 50.746C39.563 50.977 39.014 51.917 39.03 52.833C39.059 54.382 39.129 54.383 40.028 52.843C40.626 51.819 41.76 51.386 42.998 51.71C44.099 51.998 45 52.008 45 51.733C45 50.967 41.658 50.272 40.25 50.746ZM20.573 52.895C18.912 53.546 18.867 53.735 20.25 54.266C21.132 54.604 22.392 54.233 23.049 53.441C24.346 51.879 23.592 51.713 20.573 52.895Z" fill="#090410"/>
<path fill-rule="evenodd" clip-rule="evenodd" d="M32.872 19.75C31.629 21.336 31.664 21.371 33.25 20.128C34.212 19.373 35 18.585 35 18.378C35 17.555 34.179 18.084 32.872 19.75ZM18.25 21.662C16.82 22.239 16.551 24 17.893 24C18.384 24 19.045 23.325 19.362 22.5C19.678 21.675 19.839 21.036 19.719 21.079C19.598 21.122 18.938 21.385 18.25 21.662ZM27 22.059C27 22.641 27.45 22.84 28 22.5C28.55 22.16 29 21.684 29 21.441C29 21.198 28.55 21 28 21C27.45 21 27 21.477 27 22.059ZM24.813 24.683C25.534 24.972 26.397 24.936 26.729 24.604C27.061 24.272 26.471 24.036 25.417 24.079C24.252 24.127 24.015 24.364 24.813 24.683ZM16 26.46C16 27.252 15.213 28.359 14.25 28.92C12.583 29.891 12.583 29.941 14.25 29.97C17.102 30.019 17.515 29.853 17.209 28.777C17.049 28.215 17.612 28.021 18.459 28.346C20.499 29.129 20.403 28.789 18 26.732C16.385 25.349 16 25.297 16 26.46ZM23.632 28.479C21.817 29.853 21.82 29.889 23.715 29.747C24.788 29.666 25.667 29.015 25.667 28.3C25.667 27.585 25.629 27.014 25.583 27.032C25.538 27.049 24.659 27.7 23.632 28.479ZM31.25 27.662C29.594 28.331 29.649 29.667 31.333 29.667C32.067 29.667 32.667 29.067 32.667 28.333C32.667 27.6 32.629 27.036 32.583 27.079C32.538 27.122 31.938 27.385 31.25 27.662ZM36.5 33C36.84 33.55 36.641 34 36.059 34C35.477 34 35 34.505 35 35.122C35 35.898 35.464 35.86 36.5 35C38.242 33.554 38.47 32 36.941 32C36.359 32 36.16 32.45 36.5 33ZM14 35.005C12.845 35.756 13.117 35.934 15.178 35.778C16.651 35.667 17.637 35.221 17.369 34.788C16.731 33.756 15.834 33.814 14 35.005ZM22 35C20.707 35.835 20.734 35.971 22.191 35.985C23.121 35.993 24.16 35.55 24.5 35C25.282 33.734 23.958 33.734 22 35ZM29.813 34.683C30.534 34.972 31.397 34.936 31.729 34.604C32.061 34.272 31.471 34.036 30.417 34.079C29.252 34.127 29.015 34.364 29.813 34.683ZM15.721 39.96C15.317 41.502 15.667 42 17.153 42C18.384 42 18.851 42.431 18.405 43.155C17.949 43.892 18.132 44.037 18.911 43.555C19.825 42.99 19.678 42.262 18.326 40.651C17.333 39.468 16.461 38.37 16.388 38.21C16.314 38.051 16.014 38.839 15.721 39.96ZM24 41C24 41.55 24.45 42 25 42C25.55 42 26 41.55 26 41C26 40.45 25.55 40 25 40C24.45 40 24 40.45 24 41ZM31 40.969C31 41.501 30.371 41.696 29.601 41.4C28.832 41.105 27.963 41.251 27.67 41.724C26.753 43.209 30.805 42.939 32.056 41.433C32.902 40.413 32.921 40 32.122 40C31.505 40 31 40.436 31 40.969ZM17.981 47.523C16.924 48.796 16.986 48.943 18.359 48.416C19.261 48.069 20 47.384 20 46.893C20 45.607 19.421 45.788 17.981 47.523ZM27.183 47.217C26.532 47.867 26 48.792 26 49.271C26 49.751 26.729 49.414 27.619 48.524C28.51 47.633 29.042 46.709 28.802 46.469C28.563 46.229 27.834 46.566 27.183 47.217ZM40.25 50.662C39.563 50.94 39.014 51.917 39.03 52.833C39.058 54.325 39.169 54.314 40.092 52.729C40.659 51.755 41.615 51.262 42.216 51.633C42.871 52.038 43.023 51.847 42.595 51.155C42.203 50.52 41.796 50.036 41.691 50.079C41.586 50.122 40.938 50.385 40.25 50.662ZM31.872 52.664C30.628 54.172 30.71 54.216 32.75 53.129C35.077 51.889 35.65 51 34.122 51C33.64 51 32.627 51.749 31.872 52.664ZM20.573 52.895C18.912 53.546 18.867 53.735 20.25 54.266C21.132 54.604 22.392 54.233 23.049 53.441C24.346 51.879 23.592 51.713 20.573 52.895Z" fill="#06020C"/>
<path fill-rule="evenodd" clip-rule="evenodd" d="M32.872 19.75C31.629 21.336 31.664 21.371 33.25 20.128C34.212 19.373 35 18.585 35 18.378C35 17.555 34.179 18.084 32.872 19.75ZM18 22.5C17.282 23.365 17.185 24 17.771 24C18.329 24 19.045 23.325 19.362 22.5C19.678 21.675 19.781 21 19.591 21C19.401 21 18.685 21.675 18 22.5ZM15 28.5C14.306 29.337 14.197 30 14.755 30C15.305 30 16.315 29.325 17 28.5C17.694 27.663 17.803 27 17.245 27C16.695 27 15.685 27.675 15 28.5ZM23.559 28.532C22.491 29.339 22.099 30 22.686 30C23.274 30 24.315 29.325 25 28.5C26.557 26.624 26.067 26.634 23.559 28.532ZM31.138 28.333C30.311 29.33 30.365 29.667 31.349 29.667C32.074 29.667 32.667 29.067 32.667 28.333C32.667 27.6 32.572 27 32.456 27C32.34 27 31.747 27.6 31.138 28.333ZM36.325 32.658C36.687 33.02 36.424 34.032 35.741 34.908C34.643 36.317 34.702 36.342 36.25 35.128C38.255 33.555 38.545 32 36.833 32C36.192 32 35.963 32.296 36.325 32.658ZM14.5 35C14.16 35.55 14.359 36 14.941 36C15.523 36 16 35.55 16 35C16 34.45 15.802 34 15.559 34C15.316 34 14.84 34.45 14.5 35ZM22.5 35C22.16 35.55 22.332 36 22.882 36C23.432 36 24.16 35.55 24.5 35C24.84 34.45 24.668 34 24.118 34C23.568 34 22.84 34.45 22.5 35ZM29.813 34.683C30.534 34.972 31.397 34.936 31.729 34.604C32.061 34.272 31.471 34.036 30.417 34.079C29.252 34.127 29.015 34.364 29.813 34.683ZM16 41C16 41.55 16.702 42 17.559 42C18.483 42 18.827 42.47 18.405 43.155C17.952 43.886 18.131 44.037 18.894 43.565C19.815 42.996 19.823 42.491 18.926 41.411C17.567 39.773 16 39.553 16 41ZM24.5 41C24.16 41.55 24.359 42 24.941 42C25.523 42 26 41.55 26 41C26 40.45 25.802 40 25.559 40C25.316 40 24.84 40.45 24.5 41ZM31 41.107C31 41.716 30.339 41.96 29.532 41.651C28.725 41.341 27.856 41.424 27.601 41.836C26.732 43.243 30.864 42.869 32.056 41.433C32.902 40.413 32.921 40 32.122 40C31.505 40 31 40.498 31 41.107ZM17.981 47.523C16.924 48.796 16.986 48.943 18.359 48.416C19.261 48.069 20 47.384 20 46.893C20 45.607 19.421 45.788 17.981 47.523ZM27.5 47C27.16 47.55 27.359 48 27.941 48C28.523 48 29 47.55 29 47C29 46.45 28.802 46 28.559 46C28.316 46 27.84 46.45 27.5 47ZM40.2 51.2C39.54 51.86 39.014 52.873 39.03 53.45C39.047 54.027 39.525 53.703 40.092 52.729C40.659 51.755 41.615 51.262 42.216 51.633C42.871 52.038 43.023 51.847 42.595 51.155C41.713 49.727 41.673 49.727 40.2 51.2ZM31.872 52.664C30.628 54.172 30.71 54.216 32.75 53.129C35.077 51.889 35.65 51 34.122 51C33.64 51 32.627 51.749 31.872 52.664ZM21.459 53.067C20.383 54.808 21.608 55.177 22.98 53.524C23.769 52.574 23.845 52 23.181 52C22.597 52 21.821 52.48 21.459 53.067Z" fill="#050109"/>
</svg>
