<svg width="64" height="65" viewBox="0 0 64 65" fill="none" xmlns="http://www.w3.org/2000/svg">
<path fill-rule="evenodd" clip-rule="evenodd" d="M17.255 4.008C10.45 7.433 5.336 12.834 2.059 20.057C0.548002 23.388 0.0380016 26.65 0.0220016 33.09C0.00300161 40.701 0.350002 42.381 3.068 47.821C8.863 59.418 16.917 64.297 31.129 64.823C40.031 65.153 41.191 64.968 46.481 62.378C52.567 59.398 58.62 53.343 61.627 47.225C62.883 44.67 63.575 40.569 63.828 34.173C64.178 25.366 64.023 24.489 61.057 18.465C55.238 6.644 47.201 1.698 33 1.199C24.011 0.881998 23.164 1.034 17.255 4.008Z" fill="#FF0076"/>
<path fill-rule="evenodd" clip-rule="evenodd" d="M17.255 4.008C10.45 7.433 5.336 12.834 2.059 20.057C0.548002 23.388 0.0380016 26.65 0.0220016 33.09C0.00300161 40.701 0.350002 42.381 3.068 47.821C8.863 59.418 16.917 64.297 31.129 64.823C40.031 65.153 41.191 64.968 46.481 62.378C52.567 59.398 58.62 53.343 61.627 47.225C62.883 44.67 63.575 40.569 63.828 34.173C64.178 25.366 64.023 24.489 61.057 18.465C55.238 6.644 47.201 1.698 33 1.199C24.011 0.881998 23.164 1.034 17.255 4.008ZM48.066 23.035C50.602 24.393 50.552 27 47.99 27C46.885 27 42.684 30.057 38.655 33.792C30.822 41.054 26.951 42.831 17 43.729C12.405 44.144 11.208 43.901 9.724 42.255C7.984 40.325 8.051 40.273 13.01 39.685C19.041 38.971 25.75 35.491 34.16 28.714C39.297 24.575 41.706 23.205 45.816 22.086C45.989 22.039 47.002 22.466 48.066 23.035Z" fill="#7B0096"/>
<path fill-rule="evenodd" clip-rule="evenodd" d="M17.186 4.042C10.305 7.506 3.336 15.068 2.313 20.183C1.999 21.755 1.35 23.284 0.871 23.58C0.392 23.876 0 28.07 0 32.899C0 40.699 0.343 42.367 3.068 47.821C8.863 59.418 16.917 64.297 31.129 64.823C40.031 65.153 41.191 64.968 46.481 62.378C52.567 59.398 58.62 53.343 61.627 47.225C62.883 44.67 63.575 40.569 63.828 34.173C64.178 25.366 64.023 24.489 61.057 18.465C55.238 6.644 47.201 1.698 33 1.199C23.992 0.882001 23.173 1.029 17.186 4.042ZM42.525 4.414C44.161 5.356 44.6 5.832 43.5 5.471C37.309 3.439 26.35 3.909 18.498 6.543C17.399 6.911 17.899 6.31 19.609 5.207C21.319 4.104 23.569 2.956 24.609 2.658C28.311 1.594 39.54 2.695 42.525 4.414ZM4.421 24.25C2.548 31.287 2.691 37.417 4.877 43.743C6.2 47.575 6.323 48.683 5.334 47.862C2.985 45.913 0.71 36.099 1.294 30.437C1.759 25.938 4.27 19 5.435 19C5.646 19 5.19 21.362 4.421 24.25ZM49.066 23.035C51.602 24.393 51.708 29 49.203 29C48.214 29 44.829 31.73 41.681 35.066C38.327 38.619 34.018 41.989 31.277 43.202C25.069 45.948 14.511 46.217 10.708 43.727C6.482 40.96 7.19 39 12.417 39C17.691 39 28.091 33.85 34.875 27.879C38.627 24.576 42.764 22.483 46.316 22.09C46.764 22.041 48.002 22.466 49.066 23.035Z" fill="#33239A"/>
<path fill-rule="evenodd" clip-rule="evenodd" d="M23.708 1.657C23.42 2.121 26.188 2.355 29.86 2.177C39.253 1.723 46.619 4.622 53.838 11.614C56.878 14.558 59.064 17.269 58.695 17.638C58.326 18.007 56.276 16.323 54.139 13.895C47.633 6.504 37.49 2.747 28.562 4.422C25.605 4.977 25 5.516 25 7.595C25 13.847 17.02 22.041 8.908 24.12C4.486 25.253 3.96 25.697 3.382 28.778C1.336 39.686 7.705 53.258 17.126 58.064C19.257 59.151 21 60.493 21 61.046C21 61.599 19.623 61.339 17.94 60.469C12.592 57.704 7.148 52.001 4.28 46.161C1.922 41.36 1.5 39.247 1.5 32.251C1.5 27.714 1.163 24.002 0.75 24.001C0.337 24.001 0 27.978 0 32.84C0 40.706 0.338 42.358 3.068 47.821C8.863 59.418 16.917 64.297 31.129 64.823C40.031 65.153 41.191 64.968 46.481 62.378C52.567 59.398 58.62 53.343 61.627 47.225C62.883 44.67 63.575 40.569 63.828 34.173C64.178 25.366 64.023 24.489 61.057 18.465C57.782 11.813 52.516 6.469 46.145 3.335C42.234 1.411 24.678 0.0979984 23.708 1.657ZM12.852 6.455C9.196 8.939 2.62 16.953 3.509 17.842C3.774 18.108 7.031 15.467 10.746 11.973C14.461 8.48 17.927 5.257 18.45 4.811C20.724 2.87 16.15 4.213 12.852 6.455ZM11.997 11.816C6.774 16.85 5.801 19.003 8.75 18.996C11.899 18.99 17.09 15.028 18.56 11.51C20.351 7.225 20.348 7 18.497 7C17.67 7 14.745 9.167 11.997 11.816ZM48.535 22.615C51.643 24.652 52.152 31 49.207 31C48.22 31 45.301 33.238 42.72 35.973C37.066 41.964 32.42 44.473 24.234 45.958C18.584 46.982 17.682 46.886 13.288 44.787C10.655 43.529 8.355 41.712 8.177 40.75C7.91 39.306 8.609 38.996 12.177 38.978C17.518 38.951 23.571 36.241 27.403 32.162C29 30.462 30.726 29.331 31.239 29.648C31.753 29.965 33.596 28.88 35.336 27.237C38.216 24.517 43.321 21.371 45.285 21.106C45.717 21.048 47.18 21.727 48.535 22.615Z" fill="#140132"/>
<path fill-rule="evenodd" clip-rule="evenodd" d="M12.852 6.455C9.196 8.939 2.62 16.953 3.509 17.842C3.774 18.108 7.031 15.467 10.746 11.973C14.461 8.48 17.927 5.257 18.45 4.811C20.724 2.87 16.15 4.213 12.852 6.455ZM11.997 11.816C6.774 16.85 5.801 19.003 8.75 18.996C11.899 18.99 17.09 15.028 18.56 11.51C20.351 7.225 20.348 7 18.497 7C17.67 7 14.745 9.167 11.997 11.816ZM42.667 13.667C41.815 14.518 41.793 18 42.64 18C42.992 18 43.823 17.256 44.488 16.347C45.749 14.623 48 15.243 48 17.315C48 18.5 44.83 20.168 40 21.523C37.271 22.289 32.407 26.431 30.838 29.326C29.987 30.896 30.106 31.014 31.685 30.168C32.696 29.628 34.417 28.194 35.511 26.983C38.743 23.404 45.473 20.647 47.86 21.925C48.965 22.516 50.348 23 50.934 23C52.589 23 52.189 16.332 50.429 14.571C48.852 12.994 43.914 12.419 42.667 13.667ZM58 18.562C58 18.871 58.735 21.37 59.633 24.116C61.729 30.526 61.056 40.01 58.091 45.821C51.921 57.915 36.877 64.693 24.243 61.07C20.074 59.874 19.993 61.453 24.149 62.902C37.682 67.62 55.624 58.639 60.914 44.501C63.605 37.308 63.652 28.034 61.027 22.25C59.326 18.503 58 16.887 58 18.562ZM42.73 35.962C37.262 41.756 33.566 43.905 26 45.692L20.5 46.991L27.019 46.629C35.015 46.185 42.093 42.853 47.313 37.075C49.341 34.83 51 32.546 51 31.997C51 29.516 47.008 31.43 42.73 35.962Z" fill="#0F3549"/>
<path fill-rule="evenodd" clip-rule="evenodd" d="M12.852 6.455C9.196 8.939 2.62 16.953 3.509 17.842C3.774 18.108 7.031 15.467 10.746 11.973C14.461 8.48 17.927 5.257 18.45 4.811C20.724 2.87 16.15 4.213 12.852 6.455ZM11.997 11.816C6.774 16.85 5.801 19.003 8.75 18.996C11.899 18.99 17.09 15.028 18.56 11.51C20.351 7.225 20.348 7 18.497 7C17.67 7 14.745 9.167 11.997 11.816ZM43.25 13.662C42.563 13.94 42.014 15.142 42.032 16.333C42.061 18.347 42.157 18.377 43.392 16.75C44.123 15.787 45.432 15 46.301 15C48.957 15 49.414 17.179 47.12 18.909L44.953 20.544L47.919 21.663C51.403 22.978 52 22.587 52 18.988C52 14.579 47.607 11.904 43.25 13.662ZM59.596 21.5C59.994 22.6 60.52 26.728 60.765 30.674C61.393 40.773 59.18 46.951 52.565 53.565C45.775 60.355 39.803 62.409 28.627 61.799L20.5 61.355L25 62.741C43.545 68.452 64.264 51.263 62.73 31.438C62.472 28.103 61.498 24.053 60.567 22.438C59.635 20.822 59.198 20.4 59.596 21.5ZM38.047 22.835C35.029 24.454 28.826 31 30.311 31C30.623 31 32.958 29.2 35.5 27C38.042 24.8 40.743 23 41.502 23C42.261 23 43.16 22.55 43.5 22C44.477 20.419 41.782 20.832 38.047 22.835ZM44.378 34.571C40.474 39.689 34 43.806 27.304 45.428C22.186 46.667 21.922 46.843 25.068 46.917C33.533 47.114 46.171 40.438 49.493 34.014C50.972 31.153 50.951 31 49.077 31C47.987 31 45.88 32.601 44.378 34.571Z" fill="#00CCCC"/>
<path fill-rule="evenodd" clip-rule="evenodd" d="M14.54 5.347C13.399 6.181 13.096 6.941 13.744 7.342C14.32 7.698 15.851 7.107 17.146 6.028C18.888 4.576 19.095 4.058 17.941 4.033C17.084 4.015 15.553 4.606 14.54 5.347ZM16.458 8.068C16.095 8.656 15.22 8.915 14.514 8.644C13.807 8.373 11.94 9.537 10.365 11.23C8.789 12.924 8.14 13.94 8.923 13.489C9.969 12.886 9.903 13.301 8.673 15.057C6.545 18.094 6.563 19.001 8.75 18.996C11.899 18.99 17.09 15.028 18.56 11.51C19.352 9.615 20 7.825 20 7.532C20 6.552 17.126 6.987 16.458 8.068ZM13.633 10.25C13.301 12.443 11.894 14.053 10.866 13.417C10.267 13.047 10.555 12.044 11.59 10.901C13.613 8.665 13.887 8.578 13.633 10.25ZM4.591 15.173C2.515 18.137 3.543 18.901 6.129 16.316C7.396 15.049 7.8 13.995 7.169 13.605C6.601 13.254 5.441 13.959 4.591 15.173ZM44.955 14.354C45.426 14.825 46.616 14.755 47.614 14.196C49.167 13.327 49.048 13.207 46.761 13.343C45.293 13.43 44.484 13.882 44.955 14.354ZM42.263 15.839C42.369 17.247 42.761 17.639 43.412 16.988C44.063 16.337 44.008 15.608 43.251 14.851C42.385 13.985 42.142 14.229 42.263 15.839ZM50.921 19.249C50.623 21.399 50.776 22.624 51.279 22.121C51.762 21.638 51.995 19.951 51.798 18.372C51.468 15.728 51.399 15.798 50.921 19.249ZM46.441 19.555C44.577 21.049 44.589 21.067 46.75 20.02C47.987 19.42 49 18.72 49 18.465C49 17.7 48.481 17.921 46.441 19.555ZM59.59 21.5C59.984 22.6 60.509 26.65 60.755 30.5C61.001 34.35 61.66 37.95 62.219 38.5C63.96 40.212 62.489 25.779 60.586 22.475C59.644 20.839 59.195 20.4 59.59 21.5ZM38.047 22.835C35.029 24.454 28.826 31 30.311 31C30.623 31 32.958 29.2 35.5 27C38.042 24.8 40.743 23 41.502 23C42.261 23 43.16 22.55 43.5 22C44.477 20.419 41.782 20.832 38.047 22.835ZM44.378 34.571C40.513 39.638 34.049 43.78 27.304 45.512L21.5 47.001L27.484 46.549C30.775 46.3 33.617 45.65 33.799 45.104C33.98 44.559 34.676 44.322 35.343 44.578C36.011 44.834 37.444 44.326 38.529 43.448C39.613 42.57 39.868 42.18 39.095 42.58C38.14 43.076 37.933 42.918 38.447 42.086C38.862 41.414 39.855 41.114 40.653 41.42C41.451 41.727 41.873 41.604 41.591 41.147C41.309 40.69 42.635 38.807 44.539 36.962C48.388 33.231 49.266 33.932 45.75 37.928L43.5 40.486L45.852 38.495C47.146 37.4 48.845 35.266 49.628 33.752C50.949 31.198 50.909 31 49.077 31C47.987 31 45.88 32.601 44.378 34.571ZM60 41C60 41.55 60.477 42 61.059 42C61.641 42 61.84 41.55 61.5 41C61.16 40.45 60.684 40 60.441 40C60.198 40 60 40.45 60 41ZM59 44C59 44.55 59.477 45 60.059 45C60.641 45 60.84 44.55 60.5 44C60.16 43.45 59.684 43 59.441 43C59.198 43 59 43.45 59 44ZM56.923 48.25C56.285 50.336 56.373 51.888 57.104 51.436C57.615 51.12 57.797 50.481 57.51 50.016C57.223 49.551 57.553 48.943 58.244 48.664C59.242 48.262 59.243 48.142 58.25 48.079C57.563 48.036 56.966 48.112 56.923 48.25ZM51.982 54.75C50.792 56.263 49.335 57.5 48.743 57.5C48.151 57.5 47.55 58.074 47.408 58.775C47.266 59.476 47.38 59.586 47.66 59.019C47.941 58.452 48.532 58.211 48.974 58.484C49.416 58.757 50.975 57.41 52.44 55.49C53.904 53.571 54.887 52 54.623 52C54.36 52 53.172 53.237 51.982 54.75ZM42.5 61C42.84 61.55 43.316 62 43.559 62C43.802 62 44 61.55 44 61C44 60.45 43.523 60 42.941 60C42.359 60 42.16 60.45 42.5 61ZM24.5 62.44C29.224 64.101 36.623 64.42 37.5 63C37.887 62.374 35.757 61.995 31.809 61.986C28.339 61.979 24.375 61.761 23 61.503C21.625 61.245 22.3 61.667 24.5 62.44ZM39 62C39 62.55 39.45 63 40 63C40.55 63 41 62.55 41 62C41 61.45 40.55 61 40 61C39.45 61 39 61.45 39 62Z" fill="#1994AE"/>
<path fill-rule="evenodd" clip-rule="evenodd" d="M16.588 7.827C17.136 11.253 16.867 11.934 14.023 14.327C12.276 15.797 9.981 17 8.923 17C7.865 17 7 17.45 7 18C7 19.629 10.262 19.138 13.81 16.974C15.631 15.864 17.768 13.406 18.56 11.51C20.365 7.192 20.357 7 18.378 7C17.049 7 16.98 6.729 18 5.5C19.02 4.271 18.95 4 17.611 4C16.276 4 16.089 4.703 16.588 7.827ZM3.5 17C3.16 17.55 3.332 18 3.882 18C4.432 18 5.16 17.55 5.5 17C5.84 16.45 5.668 16 5.118 16C4.568 16 3.84 16.45 3.5 17ZM59.571 22C59.93 23.375 60.624 24.928 61.112 25.45C62.54 26.977 62.102 24.786 60.423 22L58.917 19.5L59.571 22ZM41.813 21.683C42.534 21.972 43.397 21.936 43.729 21.604C44.061 21.272 43.471 21.036 42.417 21.079C41.252 21.127 41.015 21.364 41.813 21.683ZM33.916 25.601C33.186 26.481 32.492 27.856 32.374 28.657C32.204 29.815 32.455 29.867 33.604 28.913C34.399 28.254 34.816 27.483 34.533 27.2C34.249 26.916 34.519 26.08 35.131 25.342C35.744 24.604 36.02 24 35.745 24C35.47 24 34.647 24.72 33.916 25.601ZM61.667 28.667C60.809 29.524 60.928 34.962 61.856 37.315C62.275 38.377 62.571 36.823 62.571 33.565C62.571 30.504 62.518 28 62.452 28C62.387 28 62.033 28.3 61.667 28.667ZM43.539 35.75L39.837 40.5L43.669 36.344C45.776 34.058 48.4 31.973 49.5 31.71C51.395 31.257 51.388 31.226 49.37 31.116C47.94 31.038 46.026 32.56 43.539 35.75ZM24.5 46C21.702 46.712 21.791 46.771 25.809 46.882C28.453 46.954 29.879 46.614 29.5 46C28.822 44.902 28.813 44.902 24.5 46ZM22.5 62C25.249 63.181 26.828 63.181 25 62C24.175 61.467 22.825 61.055 22 61.086C21.011 61.122 21.181 61.433 22.5 62ZM27.444 62.91C27.753 63.41 30.053 63.788 32.555 63.75C35.353 63.708 36.602 63.364 35.801 62.856C34.025 61.729 26.744 61.776 27.444 62.91Z" fill="#0C6262"/>
</svg>
