<svg width="64" height="64" viewBox="0 0 64 64" fill="none" xmlns="http://www.w3.org/2000/svg">
<g clip-path="url(#clip0_1_2)">
<path fill-rule="evenodd" clip-rule="evenodd" d="M17.255 3.94634C10.45 7.31864 5.336 12.6366 2.059 19.7484C0.548002 23.0282 0.0380016 26.24 0.0220016 32.5809C0.00300162 40.0748 0.350002 41.729 3.068 47.0853C8.863 58.5039 16.917 63.3078 31.129 63.8257C40.031 64.1506 41.191 63.9685 46.481 61.4183C52.567 58.4842 58.62 52.5223 61.627 46.4985C62.883 43.9828 63.575 39.9449 63.828 33.6473C64.178 24.9758 64.023 24.1122 61.057 18.1809C55.238 6.54178 47.201 1.67187 33 1.18055C24.011 0.868426 23.164 1.01809 17.255 3.94634Z" fill="#FF0076"/>
<path fill-rule="evenodd" clip-rule="evenodd" d="M17.255 3.94634C10.45 7.31864 5.336 12.6366 2.059 19.7484C0.548002 23.0282 0.0380016 26.24 0.0220016 32.5809C0.00300162 40.0748 0.350002 41.729 3.068 47.0853C8.863 58.5039 16.917 63.3078 31.129 63.8257C40.031 64.1506 41.191 63.9685 46.481 61.4183C52.567 58.4842 58.62 52.5223 61.627 46.4985C62.883 43.9828 63.575 39.9449 63.828 33.6473C64.178 24.9758 64.023 24.1122 61.057 18.1809C55.238 6.54178 47.201 1.67187 33 1.18055C24.011 0.868426 23.164 1.01809 17.255 3.94634ZM48.066 22.6806C50.602 24.0177 50.552 26.5846 47.99 26.5846C46.885 26.5846 42.684 29.5946 38.655 33.2721C30.822 40.4224 26.951 42.1721 17 43.0562C12.405 43.4649 11.208 43.2256 9.724 41.6049C7.984 39.7046 8.051 39.6534 13.01 39.0745C19.041 38.3714 25.75 34.945 34.16 28.2722C39.297 24.1969 41.706 22.848 45.816 21.7462C45.989 21.6999 47.002 22.1204 48.066 22.6806Z" fill="#7B0096"/>
<path fill-rule="evenodd" clip-rule="evenodd" d="M17.186 3.97981C10.305 7.39052 3.336 14.8362 2.313 19.8725C1.999 21.4203 1.35 22.9258 0.871 23.2172C0.392 23.5087 0 27.6382 0 32.3929C0 40.0729 0.343 41.7152 3.068 47.0853C8.863 58.5039 16.917 63.3078 31.129 63.8257C40.031 64.1506 41.191 63.9685 46.481 61.4183C52.567 58.4842 58.62 52.5223 61.627 46.4985C62.883 43.9828 63.575 39.9449 63.828 33.6473C64.178 24.9758 64.023 24.1122 61.057 18.1809C55.238 6.54178 47.201 1.67188 33 1.18055C23.992 0.868431 23.173 1.01317 17.186 3.97981ZM42.525 4.34609C44.161 5.2736 44.6 5.74228 43.5 5.38683C37.309 3.38609 26.35 3.84886 18.498 6.44234C17.399 6.80468 17.899 6.21292 19.609 5.12689C21.319 4.04086 23.569 2.91052 24.609 2.61711C28.311 1.56948 39.54 2.65354 42.525 4.34609ZM4.421 23.8769C2.548 30.8057 2.691 36.8414 4.877 43.07C6.2 46.8431 6.323 47.934 5.334 47.1257C2.985 45.2066 0.71 35.5436 1.294 29.9687C1.759 25.539 4.27 18.7077 5.435 18.7077C5.646 18.7077 5.19 21.0334 4.421 23.8769ZM49.066 22.6806C51.602 24.0177 51.708 28.5538 49.203 28.5538C48.214 28.5538 44.829 31.2418 41.681 34.5265C38.327 38.0249 34.018 41.343 31.277 42.5374C25.069 45.2411 14.511 45.506 10.708 43.0543C6.482 40.3298 7.19 38.4 12.417 38.4C17.691 38.4 28.091 33.3292 34.875 27.4501C38.627 24.1979 42.764 22.1371 46.316 21.7502C46.764 21.7019 48.002 22.1204 49.066 22.6806Z" fill="#33239A"/>
<path fill-rule="evenodd" clip-rule="evenodd" d="M23.708 1.63151C23.42 2.08837 26.188 2.31877 29.86 2.14351C39.253 1.69649 46.619 4.55089 53.838 11.4353C56.878 14.334 59.064 17.0033 58.695 17.3666C58.326 17.73 56.276 16.0719 54.139 13.6812C47.633 6.40394 37.49 2.70474 28.562 4.35397C25.605 4.90043 25 5.43114 25 7.47815C25 13.634 17.02 21.7019 8.908 23.7489C4.486 24.8645 3.96 25.3017 3.382 28.3353C1.336 39.0754 7.705 52.4386 17.126 57.1707C19.257 58.241 21 59.5623 21 60.1068C21 60.6513 19.623 60.3953 17.94 59.5387C12.592 56.8162 7.148 51.201 4.28 45.4508C1.922 40.7237 1.5 38.6432 1.5 31.7548C1.5 27.2876 1.163 23.6327 0.75 23.6318C0.337 23.6318 0 27.5476 0 32.3348C0 40.0798 0.338 41.7063 3.068 47.0853C8.863 58.5039 16.917 63.3078 31.129 63.8257C40.031 64.1506 41.191 63.9685 46.481 61.4183C52.567 58.4842 58.62 52.5223 61.627 46.4985C62.883 43.9828 63.575 39.9449 63.828 33.6473C64.178 24.9758 64.023 24.1122 61.057 18.1809C57.782 11.6313 52.516 6.36948 46.145 3.28369C42.234 1.38929 24.678 0.0964897 23.708 1.63151ZM12.852 6.35569C9.196 8.80148 2.62 16.6922 3.509 17.5675C3.774 17.8294 7.031 15.229 10.746 11.7888C14.461 8.34954 17.927 5.17612 18.45 4.73698C20.724 2.82584 16.15 4.14818 12.852 6.35569ZM11.997 11.6342C6.774 16.5908 5.801 18.7106 8.75 18.7038C11.899 18.6978 17.09 14.7968 18.56 11.3329C20.351 7.11385 20.348 6.89231 18.497 6.89231C17.67 6.89231 14.745 9.02597 11.997 11.6342ZM48.535 22.2671C51.643 24.2727 52.152 30.5231 49.207 30.5231C48.22 30.5231 45.301 32.7266 42.72 35.4196C37.066 41.3184 32.42 43.7888 24.234 45.251C18.584 46.2592 17.682 46.1647 13.288 44.098C10.655 42.8593 8.355 41.0703 8.177 40.1231C7.91 38.7013 8.609 38.3961 12.177 38.3783C17.518 38.3518 23.571 35.6834 27.403 31.6672C29 29.9934 30.726 28.8798 31.239 29.1919C31.753 29.504 33.596 28.4357 35.336 26.818C38.216 24.1398 43.321 21.0422 45.285 20.7813C45.717 20.7242 47.18 21.3927 48.535 22.2671Z" fill="#140132"/>
<path fill-rule="evenodd" clip-rule="evenodd" d="M12.852 6.35569C9.196 8.80147 2.62 16.6922 3.509 17.5675C3.774 17.8294 7.031 15.229 10.746 11.7888C14.461 8.34954 17.927 5.17612 18.45 4.73698C20.724 2.82584 16.15 4.14818 12.852 6.35569ZM11.997 11.6342C6.774 16.5908 5.801 18.7106 8.75 18.7038C11.899 18.6978 17.09 14.7968 18.56 11.3329C20.351 7.11384 20.348 6.89231 18.497 6.89231C17.67 6.89231 14.745 9.02597 11.997 11.6342ZM42.667 13.4567C41.815 14.2946 41.793 17.7231 42.64 17.7231C42.992 17.7231 43.823 16.9905 44.488 16.0955C45.749 14.398 48 15.0085 48 17.0486C48 18.2154 44.83 19.8577 40 21.1919C37.271 21.9461 32.407 26.0244 30.838 28.8748C29.987 30.4207 30.106 30.5369 31.685 29.7039C32.696 29.1722 34.417 27.7602 35.511 26.5679C38.743 23.0439 45.473 20.3294 47.86 21.5877C48.965 22.1696 50.348 22.6462 50.934 22.6462C52.589 22.6462 52.189 16.0807 50.429 14.3468C48.852 12.7941 43.914 12.2279 42.667 13.4567ZM58 18.2764C58 18.5807 58.735 21.0412 59.633 23.745C61.729 30.0564 61.056 39.3945 58.091 45.1161C51.921 57.024 36.877 63.6977 24.243 60.1305C20.074 58.9529 19.993 60.5076 24.149 61.9343C37.682 66.5797 55.624 57.7369 60.914 43.8164C63.605 36.734 63.652 27.6027 61.027 21.9077C59.326 18.2183 58 16.6272 58 18.2764ZM42.73 35.4087C37.262 41.1136 33.566 43.2295 26 44.989L20.5 46.2681L27.019 45.9116C35.015 45.4745 42.093 42.1937 47.313 36.5046C49.341 34.2942 51 32.0453 51 31.5047C51 29.0619 47.008 30.9465 42.73 35.4087Z" fill="#0F3549"/>
<path fill-rule="evenodd" clip-rule="evenodd" d="M12.852 6.35569C9.196 8.80147 2.62 16.6922 3.509 17.5675C3.774 17.8294 7.031 15.229 10.746 11.7888C14.461 8.34954 17.927 5.17612 18.45 4.73698C20.724 2.82584 16.15 4.14818 12.852 6.35569ZM11.997 11.6342C6.774 16.5908 5.801 18.7106 8.75 18.7038C11.899 18.6978 17.09 14.7968 18.56 11.3329C20.351 7.11384 20.348 6.89231 18.497 6.89231C17.67 6.89231 14.745 9.02597 11.997 11.6342ZM43.25 13.4518C42.563 13.7255 42.014 14.909 42.032 16.0817C42.061 18.0647 42.157 18.0943 43.392 16.4923C44.123 15.5441 45.432 14.7692 46.301 14.7692C48.957 14.7692 49.414 16.9147 47.12 18.6181L44.953 20.2279L47.919 21.3297C51.403 22.6245 52 22.2395 52 18.6959C52 14.3547 47.607 11.7209 43.25 13.4518ZM59.596 21.1692C59.994 22.2523 60.52 26.3168 60.765 30.2021C61.393 40.1457 59.18 46.2287 52.565 52.7409C45.775 59.4265 39.803 61.4489 28.627 60.8482L20.5 60.4111L25 61.7758C43.545 67.3989 64.264 50.4743 62.73 30.9543C62.472 27.6706 61.498 23.683 60.567 22.0928C59.635 20.5017 59.198 20.0862 59.596 21.1692ZM38.047 22.4837C35.029 24.0778 28.826 30.5231 30.311 30.5231C30.623 30.5231 32.958 28.7508 35.5 26.5846C38.042 24.4185 40.743 22.6462 41.502 22.6462C42.261 22.6462 43.16 22.2031 43.5 21.6615C44.477 20.1049 41.782 20.5115 38.047 22.4837ZM44.378 34.0391C40.474 39.0784 34 43.1321 27.304 44.7291C22.186 45.949 21.922 46.1223 25.068 46.1952C33.533 46.3892 46.171 39.8159 49.493 33.4907C50.972 30.6737 50.951 30.5231 49.077 30.5231C47.987 30.5231 45.88 32.0994 44.378 34.0391Z" fill="#00CCCC"/>
<path fill-rule="evenodd" clip-rule="evenodd" d="M14.54 5.26474C13.399 6.08591 13.096 6.83421 13.744 7.22904C14.32 7.57957 15.851 6.99766 17.146 5.93526C18.888 4.5056 19.095 3.99557 17.941 3.97095C17.084 3.95323 15.553 4.53514 14.54 5.26474ZM16.458 7.94388C16.095 8.52283 15.22 8.77784 14.514 8.51101C13.807 8.24418 11.94 9.39028 10.365 11.0572C8.789 12.7252 8.14 13.7255 8.923 13.2815C9.969 12.6878 9.903 13.0964 8.673 14.8254C6.545 17.8156 6.563 18.7087 8.75 18.7038C11.899 18.6978 17.09 14.7968 18.56 11.3329C19.352 9.46708 20 7.70461 20 7.41612C20 6.4512 17.126 6.87951 16.458 7.94388ZM13.633 10.0923C13.301 12.2516 11.894 13.8368 10.866 13.2106C10.267 12.8463 10.555 11.8587 11.59 10.7333C13.613 8.53169 13.887 8.44603 13.633 10.0923ZM4.591 14.9396C2.515 17.858 3.543 18.6102 6.129 16.065C7.396 14.8175 7.8 13.7797 7.169 13.3957C6.601 13.0501 5.441 13.7442 4.591 14.9396ZM44.955 14.1332C45.426 14.5969 46.616 14.528 47.614 13.9776C49.167 13.122 49.048 13.0038 46.761 13.1377C45.293 13.2234 44.484 13.6684 44.955 14.1332ZM42.263 15.5953C42.369 16.9817 42.761 17.3676 43.412 16.7266C44.063 16.0857 44.008 15.3679 43.251 14.6225C42.385 13.7698 42.142 14.0101 42.263 15.5953ZM50.921 18.9529C50.623 21.0698 50.776 22.2759 51.279 21.7807C51.762 21.3051 51.995 19.6441 51.798 18.0894C51.468 15.486 51.399 15.555 50.921 18.9529ZM46.441 19.2542C44.577 20.7252 44.589 20.7429 46.75 19.712C47.987 19.1212 49 18.432 49 18.1809C49 17.4277 48.481 17.6453 46.441 19.2542ZM59.59 21.1692C59.984 22.2523 60.509 26.24 60.755 30.0308C61.001 33.8215 61.66 37.3662 62.219 37.9077C63.96 39.5934 62.489 25.3824 60.586 22.1292C59.644 20.5184 59.195 20.0862 59.59 21.1692ZM38.047 22.4837C35.029 24.0778 28.826 30.5231 30.311 30.5231C30.623 30.5231 32.958 28.7508 35.5 26.5846C38.042 24.4185 40.743 22.6462 41.502 22.6462C42.261 22.6462 43.16 22.2031 43.5 21.6615C44.477 20.1049 41.782 20.5115 38.047 22.4837ZM44.378 34.0391C40.513 39.0282 34.049 43.1065 27.304 44.8118L21.5 46.2779L27.484 45.8329C30.775 45.5877 33.617 44.9477 33.799 44.4101C33.98 43.8735 34.676 43.6401 35.343 43.8922C36.011 44.1442 37.444 43.6441 38.529 42.7796C39.613 41.9151 39.868 41.5311 39.095 41.9249C38.14 42.4133 37.933 42.2577 38.447 41.4385C38.862 40.7769 39.855 40.4815 40.653 40.7828C41.451 41.085 41.873 40.9639 41.591 40.514C41.309 40.064 42.635 38.21 44.539 36.3934C48.388 32.7198 49.266 33.41 45.75 37.3445L43.5 39.8631L45.852 37.9028C47.146 36.8246 48.845 34.7234 49.628 33.2327C50.949 30.718 50.909 30.5231 49.077 30.5231C47.987 30.5231 45.88 32.0994 44.378 34.0391ZM60 40.3692C60 40.9108 60.477 41.3538 61.059 41.3538C61.641 41.3538 61.84 40.9108 61.5 40.3692C61.16 39.8277 60.684 39.3846 60.441 39.3846C60.198 39.3846 60 39.8277 60 40.3692ZM59 43.3231C59 43.8646 59.477 44.3077 60.059 44.3077C60.641 44.3077 60.84 43.8646 60.5 43.3231C60.16 42.7815 59.684 42.3385 59.441 42.3385C59.198 42.3385 59 42.7815 59 43.3231ZM56.923 47.5077C56.285 49.5616 56.373 51.0897 57.104 50.6447C57.615 50.3335 57.797 49.7044 57.51 49.2465C57.223 48.7887 57.553 48.19 58.244 47.9153C59.242 47.5195 59.243 47.4014 58.25 47.3393C57.563 47.297 56.966 47.3718 56.923 47.5077ZM51.982 53.9077C50.792 55.3974 49.335 56.6154 48.743 56.6154C48.151 56.6154 47.55 57.1806 47.408 57.8708C47.266 58.561 47.38 58.6693 47.66 58.111C47.941 57.5527 48.532 57.3154 48.974 57.5842C49.416 57.853 50.975 56.5268 52.44 54.6363C53.904 52.7468 54.887 51.2 54.623 51.2C54.36 51.2 53.172 52.418 51.982 53.9077ZM42.5 60.0615C42.84 60.6031 43.316 61.0462 43.559 61.0462C43.802 61.0462 44 60.6031 44 60.0615C44 59.52 43.523 59.0769 42.941 59.0769C42.359 59.0769 42.16 59.52 42.5 60.0615ZM24.5 61.4794C29.224 63.1148 36.623 63.4289 37.5 62.0308C37.887 61.4144 35.757 61.0412 31.809 61.0324C28.339 61.0255 24.375 60.8108 23 60.5568C21.625 60.3028 22.3 60.7183 24.5 61.4794ZM39 61.0462C39 61.5877 39.45 62.0308 40 62.0308C40.55 62.0308 41 61.5877 41 61.0462C41 60.5046 40.55 60.0615 40 60.0615C39.45 60.0615 39 60.5046 39 61.0462Z" fill="#1994AE"/>
<path fill-rule="evenodd" clip-rule="evenodd" d="M16.588 7.70658C17.136 11.0799 16.867 11.7504 14.023 14.1066C12.276 15.554 9.981 16.7385 8.923 16.7385C7.865 16.7385 7 17.1815 7 17.7231C7 19.327 10.262 18.8436 13.81 16.7129C15.631 15.6199 17.768 13.1998 18.56 11.3329C20.365 7.08135 20.357 6.89231 18.378 6.89231C17.049 6.89231 16.98 6.62548 18 5.41538C19.02 4.20529 18.95 3.93846 17.611 3.93846C16.276 3.93846 16.089 4.63065 16.588 7.70658ZM3.5 16.7385C3.16 17.28 3.332 17.7231 3.882 17.7231C4.432 17.7231 5.16 17.28 5.5 16.7385C5.84 16.1969 5.668 15.7538 5.118 15.7538C4.568 15.7538 3.84 16.1969 3.5 16.7385ZM59.571 21.6615C59.93 23.0154 60.624 24.5445 61.112 25.0585C62.54 26.562 62.102 24.4047 60.423 21.6615L58.917 19.2L59.571 21.6615ZM41.813 21.3494C42.534 21.634 43.397 21.5985 43.729 21.2716C44.061 20.9447 43.471 20.7124 42.417 20.7547C41.252 20.802 41.015 21.0353 41.813 21.3494ZM33.916 25.2071C33.186 26.0736 32.492 27.4274 32.374 28.2161C32.204 29.3563 32.455 29.4075 33.604 28.4682C34.399 27.8193 34.816 27.0602 34.533 26.7815C34.249 26.5019 34.519 25.6788 35.131 24.9521C35.744 24.2255 36.02 23.6308 35.745 23.6308C35.47 23.6308 34.647 24.3397 33.916 25.2071ZM61.667 28.226C60.809 29.0698 60.928 34.4241 61.856 36.7409C62.275 37.7866 62.571 36.2565 62.571 33.0486C62.571 30.0347 62.518 27.5692 62.452 27.5692C62.387 27.5692 62.033 27.8646 61.667 28.226ZM43.539 35.2L39.837 39.8769L43.669 35.7849C45.776 33.534 48.4 31.4811 49.5 31.2222C51.395 30.7761 51.388 30.7456 49.37 30.6373C47.94 30.5605 46.026 32.0591 43.539 35.2ZM24.5 45.2923C21.702 45.9934 21.791 46.0514 25.809 46.1607C28.453 46.2316 29.879 45.8969 29.5 45.2923C28.822 44.2112 28.813 44.2112 24.5 45.2923ZM22.5 61.0462C25.249 62.209 26.828 62.209 25 61.0462C24.175 60.5214 22.825 60.1157 22 60.1462C21.011 60.1817 21.181 60.4879 22.5 61.0462ZM27.444 61.9422C27.753 62.4345 30.053 62.8066 32.555 62.7692C35.353 62.7279 36.602 62.3892 35.801 61.889C34.025 60.7793 26.744 60.8256 27.444 61.9422Z" fill="#0C6262"/>
</g>
<defs>
<clipPath id="clip0_1_2">
<rect width="64" height="64" rx="32" fill="white"/>
</clipPath>
</defs>
</svg>
