<svg width="250" height="250" viewBox="0 0 250 250" fill="none" xmlns="http://www.w3.org/2000/svg">
<path fill-rule="evenodd" clip-rule="evenodd" d="M0 125V250H125H250V125V0H125H0V125Z" fill="#E1DBCD"/>
<path fill-rule="evenodd" clip-rule="evenodd" d="M0 125V250H125H250V125V0H125H0V125ZM129.009 79.522C129.479 80.76 131.244 82.383 132.932 83.13C134.619 83.877 136 84.763 136 85.099C136 85.435 134.631 86.844 132.958 88.23C131.285 89.616 130.048 91.369 130.208 92.125C130.549 93.733 125.024 93.618 121.911 91.952C119.752 90.797 119.375 87.025 121.234 85.166C121.912 84.488 122.538 82.542 122.623 80.844C122.88 75.735 127.227 74.835 129.009 79.522ZM138.5 85C138.84 85.55 138.641 86 138.059 86C137.477 86 137 85.55 137 85C137 84.45 137.198 84 137.441 84C137.684 84 138.16 84.45 138.5 85ZM128.441 99.582C126.784 100.932 126.756 101.083 128.25 100.613C130.608 99.872 130.472 101.224 128.037 102.745C126.334 103.809 126.16 103.741 126.724 102.235C127.315 100.66 127.196 100.638 125.437 102C123.599 103.423 123.577 103.397 125 101.5C126.79 99.114 128.163 98.036 129.441 98.015C129.959 98.007 129.509 98.712 128.441 99.582ZM151.617 131.753C151.681 135.464 152.448 140.507 153.322 142.961C154.196 145.414 154.778 147.555 154.616 147.718C154.453 147.88 152.191 145.114 149.59 141.571C146.989 138.028 144.257 134.628 143.52 134.017C142.443 133.123 142.997 132.133 146.34 128.977C148.628 126.817 150.725 125.04 151 125.028C151.275 125.015 151.553 128.042 151.617 131.753ZM127.305 133.894C129.612 134.935 132.4 136.043 133.5 136.355C134.6 136.667 133.834 136.698 131.798 136.425L128.096 135.927L124.011 144.214C119.734 152.891 119.864 152.935 121.165 143.25C121.258 142.563 121.688 142 122.121 142C123.583 142 124.292 135.057 122.991 133.489C121.363 131.528 122.247 131.611 127.305 133.894ZM153 153C154.1 154.1 155.033 155.338 155.074 155.75C155.115 156.162 155.337 157.512 155.568 158.75C156.177 162.015 153.684 161.601 150.589 157.923C148.002 154.849 147.41 152.923 148.667 151.667C149.777 150.556 150.902 150.902 153 153Z" fill="#BDB199"/>
<path fill-rule="evenodd" clip-rule="evenodd" d="M0 125V250H125H250V125V0H125H0V125ZM159.118 55.25C159.477 59.036 157.983 66.59 157.143 65.232C156.606 64.362 156.416 55.562 156.906 54.25C157.223 53.405 159.021 54.218 159.118 55.25ZM129.691 72.643C130.044 72.289 129.733 72 129 72C128.267 72 127.916 71.751 128.221 71.446C128.525 71.141 130.288 71.861 132.137 73.044C134.653 74.655 134.934 75.07 133.25 74.692C132.012 74.414 131 74.595 131 75.094C131 75.592 131.477 76 132.059 76C132.641 76 132.84 76.45 132.5 77C131.822 78.097 132.472 78.249 138.714 78.456C141.032 78.532 143.127 78.799 143.37 79.048C143.612 79.296 143.992 82.088 144.214 85.25C144.523 89.644 144.295 91 143.25 91C142.498 91 142.16 90.55 142.5 90C142.84 89.45 142.641 89 142.059 89C141.477 89 141 89.351 141 89.781C141 90.21 139.762 91.029 138.25 91.601C136.11 92.41 135.218 93.7 134.228 97.417C133.074 101.749 133.141 102.486 134.949 105.346C138.409 110.822 146.618 118.189 149.439 118.35C151.196 118.451 151.94 118.99 151.715 120C151.531 120.825 150.812 121.376 150.116 121.225C149.372 121.064 149.151 121.435 149.578 122.127C149.978 122.774 149.674 123.811 148.903 124.43C148.131 125.05 146.375 126.891 145 128.522L142.5 131.486L145 129.524C146.375 128.445 148.905 126.278 150.622 124.709L153.743 121.857L153.257 128.678C152.926 133.318 153.287 137.237 154.385 140.932C155.273 143.919 156 147.026 156 147.836C156 150.015 152.643 146.726 147.746 139.75C143.701 133.986 141.743 133.01 137.498 134.639C136.169 135.149 136.102 135.449 137.166 136.124C137.991 136.647 136.471 136.975 133.185 136.985L127.871 137L123.878 145.643C119.504 155.109 118.15 155.514 117.261 147.621C116.942 144.796 117.364 141.185 118.37 138.107C119.263 135.378 119.721 132.438 119.39 131.573C118.636 129.61 119.778 129.591 124.324 131.491C126.287 132.311 128.139 132.584 128.439 132.098C129.383 130.571 128.282 124.682 126.844 123.567C123.647 121.086 119 114.019 119 111.637C119 110.22 118.1 107.458 117 105.5C115.9 103.542 115 101.075 115 100.019C115 98.963 114.213 97.641 113.25 97.08C111.865 96.273 111.813 96.048 113 95.999C114.151 95.951 114.049 95.595 112.559 94.468C111.491 93.661 110.984 93 111.431 93C111.879 93 111.763 92.419 111.173 91.709C110.377 90.749 110.612 90.099 112.09 89.176C113.183 88.493 113.809 87.499 113.48 86.967C113.151 86.435 113.766 86 114.847 86C116.32 86 116.682 85.499 116.29 84C116.002 82.9 116.215 82 116.762 82C117.309 82 118.32 80.641 119.008 78.98C120.832 74.576 125.821 70.606 127.636 72.113C128.413 72.758 129.337 72.996 129.691 72.643ZM152.834 99.876C153.901 100.553 153.841 100.847 152.532 101.349C151.632 101.695 151.147 101.571 151.454 101.074C151.761 100.577 151.447 99.943 150.756 99.664C150.065 99.386 149.95 99.129 150.5 99.094C151.05 99.059 152.1 99.411 152.834 99.876ZM136.2 142.2C134.567 143.833 134.692 145 136.5 145C137.325 145 138.9 145.9 140 147C143.239 150.239 139.242 149.606 135.833 146.34C133.263 143.877 133.184 143.582 134.778 142.372C136.952 140.721 137.779 140.621 136.2 142.2ZM151.926 150.462C156.544 152.85 160.443 166 156.532 166C154.512 166 145 156.627 145 154.636C145 153.242 147.839 149 148.772 149C148.952 149 150.371 149.658 151.926 150.462ZM128.396 153.253C130.292 155.15 133 161.157 133 163.468C133 165.999 129.992 165.203 126.851 161.841C122.837 157.544 122.094 155.877 123.057 153.329C123.994 150.849 125.963 150.82 128.396 153.253ZM153 174.25C153 175.901 151.239 174.023 150.67 171.766C150.12 169.58 150.151 169.568 151.55 171.441C152.347 172.509 153 173.773 153 174.25Z" fill="#B18944"/>
<path fill-rule="evenodd" clip-rule="evenodd" d="M0 125V250H125H250V125V0H125H0V125ZM136.25 38.662C135.563 38.94 134.438 38.94 133.75 38.662C133.063 38.385 133.625 38.158 135 38.158C136.375 38.158 136.938 38.385 136.25 38.662ZM150 39.272C150 39.972 151.274 42.109 152.831 44.022C158.095 50.488 160.375 56.334 159.521 61.178C159.101 63.555 158.7 66.851 158.629 68.503C158.507 71.351 158.266 71.515 153.929 71.706C149.22 71.912 149.408 72.023 142.59 65.017C140.893 63.272 140.555 63.226 139.547 64.605C138.206 66.439 129 67.703 129 66.054C129 65.084 133.929 61.544 136.5 60.667C137.086 60.467 136.919 59.621 136.098 58.626C134.803 57.059 135.032 56.981 139.064 57.626C143.474 58.331 146.2 60.156 147.255 63.111C147.572 63.997 148.83 64.984 150.051 65.303C152.247 65.877 152.265 65.79 151.74 57.192C151.395 51.539 150.498 46.942 149.173 44.044C148.053 41.594 147.357 39.231 147.627 38.794C148.4 37.545 150 37.867 150 39.272ZM103.767 58.198C103.268 59.697 101.534 59.267 101.177 57.556C100.955 56.487 101.356 56.199 102.47 56.627C103.358 56.968 103.942 57.675 103.767 58.198ZM132.62 72.513C136.055 74.339 138.214 74.863 140.52 74.43C143.864 73.803 144.687 74.786 147.903 83.246C148.598 85.072 149.433 85.771 150.454 85.379C152.526 84.584 154.526 89.662 152.908 91.611C152.284 92.363 151.33 92.704 150.789 92.37C149.29 91.443 139.547 91.044 138.234 91.855C136.094 93.178 133.972 99.572 135.249 100.849C136.117 101.717 136.097 102 135.168 102C132.899 102 136.201 106.589 142.308 111.925C148.182 117.058 149.107 117.56 150.362 116.304C151.67 114.996 153.861 115.196 154.429 116.675C154.782 117.595 152.825 120.448 149.248 124.229C145.859 127.812 144.629 129.58 146.25 128.538C147.762 127.565 149 126.423 149 126C149 125.577 150.071 124.528 151.38 123.67L153.761 122.111L153.276 128.305C152.965 132.264 153.37 136.718 154.395 140.644C155.278 144.024 156 147.365 156 148.069C156 149.959 151.589 145.502 147.305 139.282C144.035 134.533 143.243 133.938 140.55 134.202C138.758 134.377 137.603 135.016 137.75 135.75C137.923 136.616 136.472 137 133.028 137H128.057L123.907 145.694C120.024 153.831 119.664 154.264 118.302 152.444C116.88 150.545 116.895 148.369 118.432 133C118.625 131.075 119.281 129.613 119.891 129.75C121.369 130.083 121.298 128.721 119.75 127.053C118.75 125.976 118.75 125.848 119.75 126.412C121.315 127.296 121.315 126.802 119.754 123.297C119.069 121.759 117.494 119.68 116.254 118.677C115.015 117.675 114 116.213 114 115.427C114 114.642 113.07 113.07 111.933 111.933C110.184 110.184 110.069 109.617 111.183 108.246C112.313 106.856 112.258 106.716 110.801 107.262C109.586 107.717 109.26 107.485 109.658 106.449C109.964 105.652 109.668 105 109 105C108.294 105 108.045 104.325 108.404 103.389C108.864 102.192 108.598 101.94 107.37 102.412C106.006 102.935 105.932 102.787 106.945 101.567C107.62 100.753 107.852 99.57 107.461 98.937C106.973 98.147 107.39 97.989 108.791 98.434C109.913 98.79 111.118 98.618 111.468 98.052C111.851 97.432 111.464 97.268 110.492 97.641C109.39 98.064 108.705 97.586 108.324 96.13C108.017 94.958 107.032 93.993 106.133 93.985C104.753 93.972 104.725 93.827 105.952 93.051C106.751 92.545 107.876 92.361 108.452 92.64C109.029 92.92 108.699 92.493 107.721 91.692C106.133 90.393 106.113 90.171 107.534 89.625C108.41 89.289 108.861 88.584 108.535 88.057C108.21 87.531 108.869 86.605 110 86C111.131 85.395 111.811 84.503 111.512 84.019C111.212 83.535 111.432 82.851 112 82.5C112.568 82.149 112.774 81.443 112.457 80.931C112.141 80.419 112.584 80 113.441 80C114.298 80 115 79.325 115 78.5C115 77.675 115.45 77 116 77C116.55 77 117 76.314 117 75.475C117 74.637 118.237 73.512 119.75 72.976C121.263 72.44 123.175 71.577 124 71.059C126.32 69.603 127.531 69.807 132.62 72.513ZM156.557 94.184C156.765 95.607 156.437 95.7 154.433 94.788C153.129 94.194 152.316 93.298 152.625 92.798C153.516 91.356 156.286 92.332 156.557 94.184ZM151.25 94.674C151.662 94.918 152 95.597 152 96.181C152 96.851 151.444 96.783 150.498 95.998C149.596 95.25 147.776 94.995 145.948 95.36C144.237 95.703 143.144 95.575 143.457 95.07C143.762 94.576 143.447 93.913 142.756 93.598C142.065 93.283 143.525 93.296 146 93.628C148.475 93.959 150.838 94.43 151.25 94.674ZM150 97C150 97.55 149.298 98 148.441 98C147.584 98 147.16 97.55 147.5 97C147.84 96.45 148.541 96 149.059 96C149.577 96 150 96.45 150 97ZM153.588 98.171C151.812 99.201 151.92 99.418 155.088 101.202C156.965 102.258 157.6 102.805 156.5 102.417C155.4 102.029 153.746 101.68 152.823 101.641C151.901 101.603 151.344 101.252 151.586 100.861C151.827 100.471 151.231 99.961 150.262 99.728C148.8 99.377 148.926 99.119 151 98.216C154.282 96.786 156.025 96.756 153.588 98.171ZM144.093 141.872C147.542 145.085 144.992 149.887 139.785 149.986C138.439 150.012 132 143.795 132 142.47C132 139.662 141.231 139.205 144.093 141.872ZM156.02 154.037C156.552 155.032 157.481 158.243 158.084 161.173C158.687 164.103 160.722 169.529 162.607 173.232C164.535 177.018 165.941 181.187 165.821 182.76C165.704 184.299 165.918 186.058 166.296 186.669C167.231 188.184 162.262 191.302 159.898 190.684C158.854 190.411 157.968 190.708 157.93 191.344C157.891 191.98 157.503 191.6 157.067 190.5C156.45 188.941 156.741 188.377 158.388 187.941C160.378 187.414 160.337 187.298 157.675 185.941C155.531 184.848 154.305 182.932 152.592 178C151.35 174.425 149.35 169.588 148.147 167.25C145.905 162.894 146.178 161.632 148.688 164.75C149.744 166.061 149.711 165.701 148.556 163.313C147.708 161.561 146.491 159.804 145.853 159.409C145.071 158.926 144.953 159.151 145.492 160.095C146.117 161.191 146.014 161.242 145.025 160.328C144.327 159.683 143.59 157.728 143.386 155.982C143.1 153.522 143.444 152.697 144.916 152.312C145.96 152.039 147.042 150.948 147.319 149.889C147.81 148.012 147.914 148.017 151.437 150.095C153.425 151.268 155.487 153.042 156.02 154.037ZM128.73 153.25C131.217 155.943 134.211 162.85 133.434 164.106C131.016 168.019 121.336 158.254 122.651 153.228C123.398 150.37 126.079 150.38 128.73 153.25ZM144.29 167.001C144.578 168.102 144.405 168.751 143.907 168.442C143.408 168.134 143 167.234 143 166.441C143 164.371 143.679 164.666 144.29 167.001ZM145.341 173.75C146.106 175.262 147.064 178.3 147.468 180.5C147.873 182.7 148.392 185.512 148.621 186.75C149.131 189.497 147.647 189.647 145.105 187.105C143.328 185.328 141 177.303 141 172.951C141 170.076 143.736 170.579 145.341 173.75Z" fill="#827C70"/>
<path fill-rule="evenodd" clip-rule="evenodd" d="M0 125V250H125H250V125V0H125H0V125ZM145.418 34.607C147.993 35.595 147.221 36.765 144.356 36.217L141.712 35.712L143.923 37.923C145.685 39.685 146.425 39.892 147.567 38.944C148.677 38.023 149.338 38.035 150.5 39C151.325 39.685 152 40.644 152 41.131C152 41.619 153.35 43.881 155 46.159C156.65 48.436 158 50.818 158 51.45C158 52.083 158.528 53.128 159.172 53.772C159.817 54.417 160.445 55.97 160.568 57.222C160.691 58.475 161.116 60.513 161.513 61.75C161.959 63.144 161.82 64 161.148 64C160.551 64 160.308 63.212 160.607 62.25C161.06 60.792 160.95 60.816 159.943 62.397C159.279 63.441 158.693 65.916 158.641 67.897L158.547 71.5L153.374 71.733C149.566 71.905 148.051 71.575 147.632 70.483C147.319 69.667 146.426 69 145.648 69C144.87 69 143.998 68.1 143.71 67C143.162 64.904 140.559 64.286 139.5 66C138.688 67.314 129 67.3 129 65.985C129 65.07 134.01 61.516 136.5 60.667C137.13 60.451 137.075 59.803 136.35 58.913C134.553 56.704 137.344 54.487 139.371 56.514C140.188 57.331 141.564 58 142.429 58C143.293 58 144 58.45 144 59C144 59.55 144.643 60 145.429 60C146.214 60 147.598 60.74 148.502 61.645C149.831 62.974 149.893 63.452 148.824 64.13C148.096 64.592 147.95 64.969 148.5 64.969C150.796 64.969 151.673 63.206 151.884 58.167C152.006 55.233 151.605 52.229 150.992 51.491C150.38 50.752 149.996 49.552 150.14 48.824C150.539 46.805 147.755 40.034 146.775 40.639C146.3 40.932 145.213 40.592 144.359 39.883C142.312 38.184 138.808 37.692 138.006 38.991C137.222 40.258 131 39.158 131 37.753C131 37.199 130.332 37.309 129.5 38C128.464 38.86 128 38.898 128 38.122C128 37.505 126.8 37 125.333 37C119.189 37 124.619 35.724 133.694 35.035C139.087 34.626 143.576 34.225 143.668 34.145C143.761 34.065 144.548 34.273 145.418 34.607ZM121 37C120.175 37.533 118.375 37.945 117 37.914C114.71 37.864 114.668 37.787 116.5 37C117.6 36.527 119.4 36.116 120.5 36.086C122.151 36.04 122.238 36.2 121 37ZM113.25 38.662C112.563 38.94 111.438 38.94 110.75 38.662C110.063 38.385 110.625 38.158 112 38.158C113.375 38.158 113.938 38.385 113.25 38.662ZM112 40.418C112 40.648 112.291 41.594 112.646 42.519C113.247 44.087 113.077 44.091 110.146 42.575C106.347 40.611 106.194 40 109.5 40C110.875 40 112 40.188 112 40.418ZM103.812 58.261C104.015 59.318 103.529 60 102.573 60C101.708 60 101 59.812 101 59.582C101 59.352 100.709 58.406 100.354 57.48C99.868 56.214 100.174 55.887 101.593 56.16C102.629 56.36 103.628 57.305 103.812 58.261ZM104 63.535C104 63.791 103.1 64 102 64C100.869 64 100 63.333 100 62.465C100 61.24 100.404 61.146 102 62C103.1 62.589 104 63.28 104 63.535ZM131.272 71.746C132.419 72.784 135.481 73.697 138.82 73.996L144.439 74.5L146.469 79.797C147.996 83.778 148.919 84.986 150.188 84.657C151.345 84.357 152.383 85.287 153.485 87.61C154.37 89.474 155.699 91 156.438 91C157.405 91 157.674 92.123 157.394 95C157.18 97.2 157.356 99 157.785 99C158.695 99 158.644 103.689 157.725 104.608C156.843 105.49 151.642 103.53 149.11 101.362C147.132 99.668 147.105 99.477 148.738 98.752C149.912 98.23 149.603 98.142 147.811 98.488C144.832 99.063 142.938 97.422 145.738 96.692C147.079 96.342 146.962 96.204 145.25 96.116C144.012 96.052 143 95.55 143 95C143 93.407 140.703 93.898 138.131 96.04C135.982 97.83 135.878 98.29 137.003 101.006C137.685 102.653 138.691 104 139.238 104C139.785 104 139.998 104.901 139.71 106.001C139.413 107.138 139.6 107.747 140.144 107.411C140.67 107.086 142.68 107.569 144.61 108.485C147.657 109.931 147.947 110.364 146.81 111.767C145.987 112.783 145.939 113.121 146.681 112.676C147.33 112.286 148.158 112.447 148.52 113.032C148.978 113.773 149.608 113.74 150.589 112.926C151.365 112.282 152 112.087 152 112.493C152 112.898 153.125 112.493 154.5 111.592C155.875 110.691 157.033 110.077 157.074 110.227C158 113.627 157.74 115.861 156.172 117.982C153.732 121.282 152.563 130.663 153.95 135.814C155.922 143.137 156.757 149.032 155.898 149.563C155.431 149.852 152.45 146.497 149.274 142.106C146.098 137.716 142.86 134.096 142.079 134.062C141.297 134.028 139.831 134.748 138.821 135.662C137.627 136.742 135.478 137.267 132.677 137.161L128.369 136.998L125.506 142.987C123.932 146.281 122.949 149.282 123.322 149.655C123.695 150.028 124 149.808 124 149.167C124 146.982 126.815 147.992 129.448 151.121C134.839 157.528 137.251 167.287 134.307 170.785C132.586 172.831 132.402 172.851 130.454 171.217C128.718 169.76 125.363 165.053 119.236 155.476C118.54 154.389 117.072 152.15 115.973 150.5C112.418 145.162 111.65 140.368 113.461 134.831C114.344 132.129 114.757 129.416 114.378 128.803C113.9 128.029 114.64 127.878 116.8 128.31C119.401 128.83 119.809 128.665 119.286 127.302C118.868 126.213 119.048 125.912 119.83 126.395C121.311 127.31 121.3 126.774 119.765 123.297C119.086 121.759 117.73 119.907 116.751 119.183C115.772 118.459 114.325 116.321 113.537 114.433C112.748 112.545 111.581 111 110.944 111C110.307 111 110.045 110.325 110.362 109.5C110.678 108.675 110.51 108 109.988 108C109.465 108 108.756 106.875 108.411 105.5C108.066 104.125 107.071 103 106.2 103C104.868 103 104.902 102.792 106.42 101.682C108.153 100.415 108.15 100.293 106.361 98.504C104.279 96.422 104.26 96.084 106.165 94.877C107.268 94.178 107.262 94.028 106.128 94.015C104.964 94.002 104.964 93.742 106.128 92.308C106.909 91.344 106.992 90.921 106.319 91.324C105.67 91.714 104.849 91.564 104.495 90.992C104.141 90.419 104.222 90.067 104.676 90.209C105.538 90.48 111.367 85.051 111.61 83.75C111.687 83.338 111.86 82.662 111.993 82.25C112.127 81.838 112.184 81.162 112.118 80.75C112.053 80.338 112.675 80 113.5 80C114.325 80 115 79.325 115 78.5C115 77.675 115.45 77 116 77C116.55 77 117 76.314 117 75.475C117 74.637 118.237 73.512 119.75 72.976C121.263 72.44 123.175 71.577 124 71.059C126.357 69.579 129.172 69.845 131.272 71.746ZM162.693 75.731C162.439 76.704 162.215 76.15 162.195 74.5C162.175 72.85 162.382 72.054 162.656 72.731C162.93 73.408 162.947 74.758 162.693 75.731ZM139.813 92.683C140.534 92.972 141.397 92.936 141.729 92.604C142.061 92.272 141.471 92.036 140.417 92.079C139.252 92.127 139.015 92.364 139.813 92.683ZM146 93C146 93.55 146.648 94 147.441 94C148.234 94 149.16 93.55 149.5 93C149.84 92.45 149.191 92 148.059 92C146.927 92 146 92.45 146 93ZM144.8 141.2C145.46 141.86 146 143.671 146 145.225C146 147.355 145.353 148.295 143.368 149.05C139.912 150.364 138.282 149.739 133.616 145.309C130.131 142 129.925 141.544 131.616 140.881C134.664 139.684 143.498 139.898 144.8 141.2ZM156.047 152.811C157.057 154.082 158.404 157.682 159.039 160.811C159.674 163.94 161.771 169.993 163.699 174.262C165.627 178.532 166.962 182.657 166.665 183.43C166.369 184.202 166.773 185.083 167.563 185.386C169.785 186.238 169.265 187.717 166.5 188.411C164.917 188.808 164 189.744 164 190.962C164 192.021 163.171 193.475 162.158 194.193C161.145 194.912 160.099 196.163 159.834 196.972C159.569 197.782 157.663 193.282 155.6 186.972C153.536 180.663 149.922 171.45 147.569 166.5C142.678 156.212 141.935 152 145.011 152C146.273 152 147 151.33 147 150.167C147 149.158 147.288 148.045 147.64 147.693C148.533 146.8 153.834 150.028 156.047 152.811ZM147.592 163.5C148.493 164.875 149.394 166 149.594 166C149.794 166 149.445 164.875 148.818 163.5C148.192 162.125 147.291 161 146.816 161C146.342 161 146.691 162.125 147.592 163.5ZM145.405 170.304C145.561 172.062 145.944 174.175 146.255 175C147.023 177.032 147.995 180.739 148.943 185.25C149.676 188.736 149.567 189 147.401 189C146.119 189 144.658 188.213 144.155 187.25C142.929 184.906 139.798 170.868 140.374 170.293C140.624 170.043 141.767 170.34 142.914 170.954C145.186 172.17 145.462 171.771 144.138 169.184C143.664 168.258 142.988 166.15 142.635 164.5L141.994 161.5L143.557 164.304C144.417 165.846 145.248 168.546 145.405 170.304ZM157 187C157 187.55 157.702 188 158.559 188C159.416 188 159.84 187.55 159.5 187C159.16 186.45 158.459 186 157.941 186C157.423 186 157 186.45 157 187ZM149 192.5C149 193.325 148.823 194 148.607 194C148.391 194 147.955 193.325 147.638 192.5C147.322 191.675 147.499 191 148.031 191C148.564 191 149 191.675 149 192.5ZM57.586 209.648C58.97 210.555 60.703 212.468 61.438 213.898C63.129 217.194 66.201 229.132 65.531 229.803C64.987 230.346 61.593 223.228 61.516 221.386C61.491 220.773 60.951 219.646 60.317 218.882C59.683 218.118 59.015 216.82 58.832 215.997C58.649 215.173 57.06 213.037 55.3 211.25C51.822 207.719 53.185 206.765 57.586 209.648ZM58.6 223.765C60.89 225.294 62.989 231.016 61.25 230.988C60.52 230.976 56 224.541 56 223.514C56 222.779 57.314 222.906 58.6 223.765Z" fill="#8F6441"/>
<path fill-rule="evenodd" clip-rule="evenodd" d="M0 125V250H125H250V125V0H125H0V125ZM150.443 34.223C151.299 35.445 152 37.634 152 39.088C152 40.541 152.851 42.812 153.891 44.134C157.337 48.515 161.161 56.138 160.62 57.547C160.327 58.311 160.518 59.202 161.044 59.527C162.535 60.449 162.167 63.722 160.5 64.362C158.985 64.943 158.51 68.56 159.583 71.355C159.903 72.19 160.803 72.629 161.583 72.33C162.621 71.932 163 72.628 163 74.932V78.078L160.805 76.033C159.542 74.856 157.871 74.223 156.868 74.542C155.298 75.04 153.643 74.472 149 71.838C148.175 71.371 146.035 70.231 144.245 69.306C141.883 68.086 141.334 67.379 142.245 66.731C143.062 66.15 142.627 66.02 141 66.358C139.625 66.644 135.622 67.196 132.104 67.584L125.708 68.291L128.604 69.771C130.197 70.585 132.258 71.912 133.184 72.721C134.223 73.627 136.524 74.103 139.184 73.961C145.297 73.636 146 73.802 146 75.578C146 77.239 152.243 83.917 155.498 85.739C157.071 86.619 157.185 87.073 156.147 88.323C155.116 89.565 155.197 90.011 156.596 90.794C157.911 91.53 158.167 92.581 157.714 95.374C157.391 97.368 157.449 99 157.845 99C159.662 99 158.821 104.012 156.762 105.454C153.975 107.406 152.901 107.421 153.64 105.497C154.055 104.415 153.322 103.814 151.028 103.356C148.782 102.906 148.232 102.468 149.169 101.874C150.076 101.299 149.605 101.026 147.691 101.015C146.076 101.007 145.145 100.575 145.5 100C145.84 99.45 145.641 99 145.059 99C144.477 99 144 98.38 144 97.622C144 96.865 143.346 95.702 142.547 95.039C141.373 94.065 140.555 94.335 138.297 96.441C136.628 97.997 135.904 99.342 136.502 99.775C137.052 100.174 138.121 101.7 138.875 103.166C139.63 104.632 140.98 106.081 141.874 106.387C143.655 106.995 147.208 109.149 148 110.101C149.138 111.468 154.042 111.655 155.107 110.371C155.723 109.629 156.626 109.269 157.113 109.57C158.698 110.549 158.05 116.57 156.139 118.62C153.035 121.952 152.611 130.203 155.022 140.354C156.178 145.224 156.828 149.499 156.465 149.854C155.713 150.589 151.433 145.728 146.71 138.776C143.244 133.674 141.257 132.954 138.638 135.848C137.363 137.256 135.952 137.595 132.704 137.27L128.442 136.845L125.543 142.911C123.948 146.247 122.949 149.282 123.322 149.655C123.695 150.028 124 149.808 124 149.167C124 146.861 126.91 148.068 129.798 151.572C132.647 155.027 136 163.371 136 167.004C136 167.98 135.205 169.76 134.234 170.959C132.519 173.077 132.409 173.088 130.413 171.32C128.666 169.773 125.616 165.449 119.236 155.476C118.54 154.389 117.072 152.15 115.973 150.5C112.484 145.26 111.65 140.343 113.366 135.13C114.719 131.019 114.72 130.348 113.368 128.854C112.009 127.352 112.041 127.073 113.677 126.121C115.368 125.138 115.373 125.059 113.75 125.03C112.787 125.014 112 124.373 112 123.607C112 122.841 111.302 121.946 110.448 121.618C109.558 121.277 109.157 121.445 109.507 122.011C110.26 123.23 107.999 123.285 106.118 122.094C105.032 121.406 105.193 121.074 106.868 120.542C109.743 119.63 109.557 118.647 105.935 115.599C104.249 114.18 103.092 112.661 103.363 112.222C103.634 111.783 102.493 110.821 100.827 110.084C98.631 109.111 98.16 108.519 99.117 107.928C100.133 107.3 99.891 106.64 98.065 105.056C96.761 103.925 95.293 103 94.803 103C94.313 103 94.003 102.438 94.114 101.75C94.528 99.181 92.8 96.929 90.882 97.538C88.816 98.193 88.237 96.475 90.25 95.662C90.997 95.361 90.795 95.126 89.75 95.079C88.787 95.036 87.769 95.112 87.486 95.25C86.925 95.523 84 90.261 84 88.979C84 88.544 84.907 88.424 86.015 88.714C87.564 89.119 87.886 88.867 87.408 87.621C87.066 86.729 86.144 86 85.359 86C84.359 86 84.067 85.177 84.384 83.25C84.632 81.737 84.873 80.162 84.918 79.75C84.963 79.338 85.81 79 86.8 79C87.79 79 89.092 78.508 89.693 77.907C90.483 77.117 91.425 77.157 93.095 78.051C94.797 78.962 95.505 78.986 95.786 78.143C95.995 77.515 97.206 77 98.476 77C99.747 77 101.045 76.325 101.362 75.5C101.678 74.675 102.937 74 104.16 74C106.269 74 106.288 74.069 104.538 75.348C102.661 76.721 103.147 79.012 105.309 78.985C106.089 78.975 106.024 78.668 105.118 78.094C104.022 77.4 104.152 77.087 105.745 76.581C107.149 76.135 107.948 74.727 108.4 71.901C108.755 69.678 109.75 66.786 110.609 65.474C112.278 62.926 111.618 60.327 109.661 61.743C108.154 62.833 100.941 65.286 100.549 64.842C100.384 64.654 99.937 63.487 99.557 62.25C98.791 59.757 99.837 59.335 102.035 61.25C102.824 61.938 102.407 61.285 101.109 59.801C98.638 56.977 98.638 56.953 101.243 47.767C103.717 39.045 107.308 37.471 129 35.603C136.425 34.964 143.4 33.905 144.5 33.251C147.412 31.518 148.696 31.728 150.443 34.223ZM112.522 41.026C113.283 41.865 114.21 44.463 114.584 46.798C115.48 52.404 116.713 52.941 119.759 49.049C121.214 47.19 122.55 46.272 122.923 46.876C123.313 47.506 124.054 47.143 124.793 45.96C125.806 44.339 125.756 44 124.508 44C123.667 44 123 43.116 123 42C123 40.9 122.662 39.973 122.25 39.94C121.838 39.907 119.169 39.794 116.32 39.69C111.733 39.522 111.298 39.675 112.522 41.026ZM95.502 48.407C94.061 49.848 91.517 53.945 89.847 57.512C88.178 61.079 86.356 64.28 85.799 64.624C82.696 66.542 91.756 49.868 95.465 46.836C98.486 44.366 98.511 45.399 95.502 48.407ZM106.272 47.211C103.21 48.688 102.762 50.803 104.402 56.034C105.658 60.039 105.927 60.012 106.375 55.833C106.535 54.337 109 53.477 109 54.917C109 55.513 109.338 56 109.75 56C110.743 56 110.686 50.841 109.676 49.25C109.165 48.445 109.437 48 110.441 48C111.298 48 112 47.55 112 47C112 45.721 109.141 45.826 106.272 47.211ZM146.007 53.25C146.01 53.938 146.907 55.85 148 57.5C149.882 60.341 149.987 60.377 149.993 58.184C150.001 55.431 148.321 52 146.965 52C146.434 52 146.003 52.563 146.007 53.25ZM89 71C89 71.55 88.523 72 87.941 72C87.359 72 87.16 71.55 87.5 71C87.84 70.45 88.316 70 88.559 70C88.802 70 89 70.45 89 71ZM90 73.571C90 73.886 89.325 74.818 88.5 75.643C87.167 76.976 87 76.913 87 75.071C87 73.897 87.649 73 88.5 73C89.325 73 90 73.257 90 73.571ZM95.463 92.5C96.425 97.537 96.58 97.98 97.81 99.21C98.73 100.13 99.284 100.099 100.25 99.075C101.25 98.015 101.249 97.658 100.244 97.29C99.553 97.036 99.239 96.423 99.546 95.926C99.853 95.429 99.332 95.319 98.388 95.681C97.425 96.051 96.925 95.931 97.248 95.407C97.565 94.895 97.164 93.356 96.357 91.987L94.89 89.5L95.463 92.5ZM104 117.455C104 116.985 104.511 117.111 105.136 117.736C105.983 118.583 105.856 119.286 104.636 120.507C103.427 121.716 103 121.796 103 120.812C103 120.08 102.083 118.908 100.961 118.208C99.84 117.508 99.21 116.47 99.56 115.902C99.963 115.251 100.901 115.506 102.099 116.59C103.145 117.536 104 117.925 104 117.455ZM144.066 140.035C145.143 140.612 146 142.121 146 143.44C146 145.192 147.175 146.499 150.507 148.451C156.018 151.681 157.4 153.734 159.448 161.726C160.94 167.553 162.562 171.537 169.532 186.5C173.264 194.512 173.249 197.483 169.453 201.375C167.777 203.094 165.428 205.058 164.233 205.74C161.515 207.291 160.993 206.434 157.619 194.876C153.742 181.595 150.152 172.166 145.407 162.809C140.871 153.863 140.354 152.483 141.895 153.435C142.388 153.74 143.048 153.316 143.364 152.494C143.679 151.672 144.626 151 145.469 151C146.311 151 147 150.522 147 149.939C147 149.25 145.445 149.111 142.572 149.542C138.394 150.168 137.898 149.978 133.827 146.18C131.454 143.966 129.855 141.812 130.275 141.392C130.929 140.737 136.53 139.533 140.816 139.125C141.539 139.056 143.002 139.466 144.066 140.035ZM144.097 163.94C146.297 169.767 153 195.74 153 198.436C153 202.781 146.513 197.349 145.418 192.088C145.122 190.664 144.48 188.757 143.992 187.848C141.424 183.064 137.734 160.906 140.02 164C140.888 165.173 141.039 164.738 140.717 162C140.49 160.075 139.974 157.6 139.571 156.5C138.847 154.529 138.86 154.528 140.418 156.44C141.287 157.507 142.943 160.882 144.097 163.94ZM58 209.864C60.434 211.657 62.533 216.075 65.077 224.755C66.67 230.193 65.61 231.346 63.358 226.624C62.407 224.631 61.24 223 60.764 223C59.964 223 56.699 216.542 56.561 214.685C56.527 214.237 54.7 212.254 52.5 210.279L48.5 206.687L52 207.355C53.925 207.723 56.625 208.852 58 209.864ZM60.092 225.075C62.088 227.673 62.619 231 61.036 231C60.077 231 55 224.151 55 222.856C55 221.346 58.346 222.805 60.092 225.075Z" fill="#393532"/>
<path fill-rule="evenodd" clip-rule="evenodd" d="M0 125V250H125H250V125V0H125H0V125ZM150.722 32.122C151.339 32.739 151.606 33.864 151.315 34.622C151.024 35.38 151.314 36 151.959 36C152.65 36 153.003 37.133 152.816 38.75C152.604 40.596 153.181 42.053 154.574 43.184C158.818 46.63 164.336 60.301 160.75 58.485C160.063 58.137 160.175 58.448 161 59.176C162.634 60.618 162.611 69 160.974 69C160.473 69 160.345 68.213 160.691 67.25C161.036 66.287 161.008 65.777 160.628 66.115C160.248 66.453 159.744 67.735 159.507 68.963C159.133 70.904 159.4 71.116 161.538 70.58C163.014 70.209 164 70.394 164 71.04C164 71.633 163.613 71.879 163.139 71.586C162.166 70.985 163.378 78.711 164.42 79.753C164.791 80.124 164.921 78.853 164.709 76.929C164.497 75.004 164.669 72.546 165.091 71.465C165.779 69.705 165.875 69.76 166.009 72C166.091 73.375 166.385 73.938 166.662 73.25C167.347 71.552 169.486 71.675 171 73.5C171.685 74.325 173.09 75 174.122 75C175.298 75 176 75.708 176 76.893C176 79.049 177.863 80 182.082 80C184.82 80 185 80.247 185 84C185 86.255 184.518 88 183.894 88C183.286 88 181.411 89.159 179.727 90.576C177.058 92.822 176.551 92.95 175.778 91.568C175.291 90.697 175.148 89.569 175.462 89.061C175.776 88.554 175.506 87.813 174.862 87.415C174.077 86.93 173.961 87.128 174.51 88.015C175.109 88.985 174.868 89.164 173.612 88.681C171.853 88.006 172.074 88.912 174.395 91.891C175.838 93.743 176.051 99 174.683 99C173.971 99 174.011 99.411 174.8 100.2C175.46 100.86 176 101.792 176 102.271C176 102.751 175.325 102.468 174.5 101.643C173.675 100.818 173 98.926 173 97.439C173 93.65 169.346 90.681 165.604 91.429C161.771 92.196 160 93.761 160 96.383C160 98.822 164.391 104 166.459 104C167.216 104 168.661 104.267 169.668 104.594C171.015 105.031 171.147 104.936 170.166 104.233C169.097 103.468 169.182 103.144 170.599 102.6C171.739 102.163 173.1 102.658 174.433 103.994C176.216 105.781 176.294 106.199 175 107.033C174.02 107.665 173.861 108.26 174.542 108.75C175.116 109.162 175.676 110.767 175.787 112.316C175.898 113.864 176.666 115.809 177.494 116.637C179.406 118.549 179.408 119.906 177.5 120.638C176.675 120.955 176 122.03 176 123.028C176 124.996 179.812 126.291 186 126.424C188.659 126.482 189.436 126.893 189.232 128.136C189.085 129.036 189.648 130.035 190.482 130.355C191.317 130.675 192 132.039 192 133.385C192 134.732 192.563 136.07 193.25 136.359C194.145 136.735 194.003 137.198 192.75 137.992C191.787 138.601 191 139.818 191 140.696C191 141.872 190.355 141.596 188.548 139.646C185.249 136.087 184.359 136.291 187 140C188.175 141.65 189.608 143 190.185 143C190.761 143 190.998 143.9 190.711 144.999C190.423 146.098 190.596 147.25 191.094 147.558C191.592 147.866 192 149.205 192 150.534C192 152.585 192.415 152.899 194.75 152.61C196.262 152.423 196.686 152.469 195.692 152.712C194.164 153.086 194.086 153.402 195.192 154.751C196.329 156.138 196.219 156.275 194.354 155.794C190.563 154.818 189.638 158.392 191.442 167.041C193.157 175.262 193.521 182.37 192.113 180.148C191.442 179.09 190.893 179.306 189.582 181.148C187.932 183.464 187.889 183.47 186.704 181.5C186.042 180.4 184.959 177.475 184.298 175C183.196 170.876 183.144 171.26 183.666 179.611C184.197 188.089 184.09 188.824 182.124 190.2C180.963 191.014 180.31 191.977 180.673 192.34C181.036 192.703 180.616 193 179.74 193C178.864 193 177.959 193.787 177.731 194.75C177.093 197.435 175.319 192.475 171.386 177C169.498 169.575 167.538 162.6 167.03 161.5C166.521 160.4 164.889 156.35 163.402 152.5C161.915 148.65 160.429 145.275 160.099 145C159.77 144.725 159.375 143.825 159.222 143C158.94 141.483 158.182 139.547 156.089 135C155.456 133.625 155.163 133.287 155.438 134.25C155.712 135.213 155.501 136 154.969 136C154.436 136 154 136.477 154 137.059C154 137.641 154.468 137.829 155.04 137.475C155.717 137.057 155.863 137.823 155.459 139.666C154.97 141.898 155.076 142.181 155.956 141C156.82 139.841 156.95 140.41 156.526 143.5C156.171 146.093 156.273 146.82 156.817 145.566C157.396 144.231 157.881 143.999 158.387 144.816C158.789 145.467 158.797 146.52 158.405 147.155C157.948 147.892 158.132 148.037 158.912 147.554C159.665 147.089 160.048 147.318 159.909 148.15C159.786 148.892 159.968 150.175 160.314 151C165.601 163.597 170.843 183.827 169.418 186.133C169.123 186.61 169.385 187 170 187C170.615 187 170.84 187.45 170.5 188C170.16 188.55 170.347 189 170.915 189C172.635 189 175.192 194.763 173.842 195.598C173.13 196.038 172.963 195.868 173.405 195.155C173.797 194.52 173.589 194 172.942 194C172.265 194 171.985 194.835 172.281 195.968C172.823 198.04 168.447 203.333 164.168 205.781C162.109 206.959 161.822 206.807 160.595 203.889C159.677 201.705 159.063 201.15 158.625 202.108C158.275 202.874 158.234 202.225 158.534 200.666C158.928 198.623 158.746 198.039 157.883 198.573C157.042 199.092 156.853 198.67 157.249 197.156C157.559 195.97 157.375 195 156.839 195C156.301 195 156.167 194.049 156.54 192.875C157.034 191.318 156.879 190.957 155.961 191.524C155.024 192.103 154.876 191.63 155.373 189.649C155.784 188.011 155.627 187 154.96 187C154.367 187 154.141 186.581 154.457 186.069C154.774 185.557 154.568 184.851 154 184.5C153.432 184.149 153.226 183.443 153.543 182.931C153.859 182.419 153.593 182 152.952 182C152.311 182 152.003 181.435 152.268 180.745C152.533 180.054 152.045 178.832 151.184 178.027C149.809 176.742 149.69 176.749 150.201 178.08C153.256 186.042 159.139 212.473 158.327 214.589C157.567 216.571 152.612 216.348 150.792 214.25C149.957 213.287 148.46 210.25 147.465 207.5C146.47 204.75 145.323 202.05 144.917 201.5C144.511 200.95 143.864 198.813 143.478 196.75C143.093 194.688 142.377 193 141.889 193C140.552 193 140.813 195.493 142.625 200.021C143.519 202.255 143.959 204.375 143.602 204.731C142.831 205.503 139.39 200.886 139.799 199.627C139.954 199.147 139.37 199.028 138.501 199.361C137.544 199.728 137.009 199.48 137.146 198.734C137.489 196.87 132.997 190 131.436 190C129.676 190 127.678 186.281 128.412 184.37C128.729 183.542 128.544 183.164 127.989 183.507C127.445 183.843 127 183.176 127 182.024C127 178.571 124.086 174.989 121.649 175.447C120.467 175.67 119.132 175.885 118.683 175.926C118.233 175.967 118.151 176.9 118.5 178C119.184 180.155 117.523 180.819 116.623 178.75C116.324 178.063 116.354 178.85 116.689 180.5C117.292 183.463 117.274 183.477 115.241 181.678C114.109 180.675 112.654 178.425 112.009 176.678C111.363 174.93 110.204 172.037 109.433 170.25C108.663 168.462 108.213 167 108.434 167C109.721 167 112 168.347 112 169.107C112 170.819 115.588 173.571 117.818 173.571C119.768 173.571 119.996 173.17 119.545 170.536L119.025 167.5L120.467 170.5C121.401 172.441 121.926 172.882 121.955 171.75C122.008 169.706 118.317 165.686 117.085 166.447C116.312 166.925 114.542 161.528 114.878 159.716C114.957 159.285 113.893 157.802 112.511 156.42C111.13 155.039 110 153.255 110 152.455C110 151.655 109.325 151 108.5 151C107.675 151 107 150.183 107 149.184C107 147.36 100.37 140.618 98.5 140.541C97.95 140.518 97.5 139.6 97.5 138.5C97.5 137.108 98.108 136.554 99.5 136.676C101.498 136.852 101.498 136.85 99.505 135.387C98.015 134.292 97.828 133.725 98.766 133.145C100.354 132.163 98.187 130.09 87.829 122.685L80.158 117.201L77.831 122.475C76.436 125.635 74.401 128.381 72.752 129.328C69.236 131.346 69.147 133.75 72.589 133.75C75.558 133.75 77.787 135.614 78.274 138.505C78.459 139.602 79.355 141.905 80.265 143.623C81.176 145.341 81.636 147.03 81.289 147.377C80.942 147.724 81.422 148.794 82.355 149.754C83.288 150.714 85.686 153.704 87.684 156.398C90.938 160.784 91.147 161.42 89.685 162.488C88.187 163.584 88.215 163.998 90.018 167.535C91.098 169.654 92.261 172.988 92.602 174.944C92.944 176.9 93.775 178.95 94.449 179.5C95.124 180.05 95.887 181.142 96.147 181.926C96.406 182.711 98.391 183.87 100.559 184.503L104.5 185.654L100.255 186.414C95.2 187.319 93.742 188.762 98.303 188.347L101.5 188.055L98.14 188.924C95.574 189.587 94.342 189.417 92.926 188.205C91.873 187.303 91.416 186.16 91.869 185.559C93.114 183.903 91.107 176 89.441 176C88.649 176 88 175.596 88 175.101C88 174.607 85.828 171.984 83.173 169.273C80.518 166.561 78.032 163.526 77.649 162.528C77.266 161.53 76.649 161.017 76.278 161.388C75.907 161.759 75.131 161.218 74.552 160.186C72.871 157.186 66 149.538 66 150.666C66 151.231 68.25 155.474 71 160.096C75.702 167.999 77.996 174.337 76.644 175.69C76.316 176.018 75.738 175.434 75.361 174.393C74.983 173.352 73.861 171.324 72.867 169.887C71.873 168.45 71.311 167.023 71.618 166.715C72.267 166.067 65.284 156.408 62.133 153.595C60.96 152.547 60 151.185 60 150.568C60 148.432 54.07 142.964 51.111 142.372C48.599 141.87 48.153 141.325 48.224 138.843C48.269 137.228 47.788 135.388 47.154 134.754C45.393 132.993 45.757 131.008 48.5 127.411C49.875 125.608 51 123.238 51 122.143C51 118.197 53.421 109.776 54.696 109.286C55.413 109.011 56 107.969 56 106.971C56 105.292 63.408 98 65.114 98C65.528 98 66.055 99.237 66.284 100.75C66.63 103.034 66.726 102.884 66.85 99.864C66.995 96.351 67.153 96.204 71.5 95.552C75.975 94.881 77.818 93 74 93C72.584 93 72.009 92.343 72.03 90.75C72.058 88.741 72.17 88.687 73.08 90.25C73.641 91.213 74.696 92 75.425 92C76.891 92 78.368 86.405 77.341 84.743C76.937 84.089 77.178 83.992 77.98 84.488C78.957 85.091 79.158 84.53 78.811 82.166C78.559 80.452 78.837 78.847 79.427 78.601C80.119 78.311 80.019 77.815 79.145 77.202C78.019 76.413 78.065 75.83 79.417 73.767C80.313 72.4 80.762 70.543 80.416 69.641C80.066 68.729 80.278 68 80.893 68C81.502 68 82.014 66.987 82.03 65.75C82.058 63.699 82.153 63.659 83.109 65.302C83.852 66.579 83.829 67.501 83.03 68.464C82.41 69.211 81.726 71.775 81.51 74.161C81.294 76.548 80.634 80.745 80.044 83.489C79.428 86.354 79.322 89.547 79.795 90.989C80.248 92.37 80.49 95.941 80.332 98.924C80.172 101.94 80.549 104.956 81.18 105.717C82.028 106.739 82.023 107.377 81.158 108.242C79.16 110.24 79.882 111.995 82.75 112.116C84.442 112.187 84.827 112.408 83.75 112.689C81.643 113.24 81.395 116 83.453 116C86.111 116 89.849 118.231 89.353 119.522C88.928 120.629 94.67 126 96.278 126C98.191 126 106.546 136.512 109.742 142.94C111.809 147.098 114.85 151.785 116.5 153.356C118.343 155.11 118.825 155.99 117.75 155.637C115.699 154.964 115.453 156.292 117.279 158.179C117.983 158.905 119.896 161.637 121.529 164.248C123.163 166.86 124.838 168.997 125.25 168.998C125.662 168.999 126 169.675 126 170.5C126 171.325 126.579 172 127.286 172C128.687 172 136 182.505 136 184.517C136 185.198 136.743 186.372 137.651 187.125C139.172 188.387 139.244 187.828 138.569 179.998C138.166 175.324 137.419 169.28 136.909 166.566C136.399 163.852 136.248 160.793 136.574 159.767C137.19 157.825 135.296 154.311 131.324 150.027C130.046 148.648 129 147.178 129 146.76C129 146.342 128.01 146 126.8 146C125.089 146 124.867 145.733 125.8 144.8C126.46 144.14 126.986 143.127 126.968 142.55C126.951 141.972 126.29 142.354 125.5 143.397C124.71 144.441 124.301 145.678 124.591 146.147C124.881 146.616 124.641 147 124.059 147C123.477 147 123.007 147.787 123.015 148.75C123.028 150.151 123.207 150.221 123.914 149.104C125.91 145.952 131.645 152.069 134.397 160.285C136.45 166.413 136.414 168.267 134.193 171.01C132.498 173.103 132.28 173.137 130.7 171.557C129.774 170.631 128.492 170.196 127.853 170.591C127.136 171.034 126.961 170.873 127.394 170.171C127.781 169.546 126.388 166.428 124.299 163.243C122.209 160.058 119.931 156.563 119.236 155.476C118.54 154.389 117.072 152.15 115.973 150.5C112.484 145.26 111.65 140.343 113.366 135.13C114.719 131.019 114.72 130.348 113.368 128.854C112.009 127.352 112.041 127.073 113.677 126.121C115.368 125.138 115.373 125.059 113.75 125.03C112.787 125.014 112 124.373 112 123.607C112 122.841 111.302 121.946 110.448 121.618C109.558 121.277 109.157 121.445 109.507 122.011C110.26 123.23 107.999 123.285 106.118 122.094C105.032 121.406 105.193 121.074 106.868 120.542C109.743 119.63 109.557 118.647 105.935 115.599C104.249 114.18 103.092 112.661 103.363 112.222C103.634 111.783 102.493 110.821 100.827 110.084C98.631 109.111 98.16 108.519 99.117 107.928C100.133 107.3 99.891 106.64 98.065 105.056C96.761 103.925 95.293 103 94.803 103C94.313 103 94.003 102.438 94.114 101.75C94.528 99.181 92.8 96.929 90.882 97.538C88.816 98.193 88.237 96.475 90.25 95.662C90.997 95.361 90.795 95.126 89.75 95.079C88.787 95.036 87.769 95.112 87.486 95.25C86.925 95.523 84 90.261 84 88.979C84 88.544 84.907 88.424 86.015 88.714C87.564 89.119 87.886 88.867 87.408 87.621C87.066 86.729 86.144 86 85.359 86C84.359 86 84.067 85.177 84.384 83.25C84.632 81.737 84.873 80.162 84.918 79.75C84.963 79.338 85.81 79 86.8 79C87.79 79 89.092 78.508 89.693 77.907C90.483 77.117 91.425 77.157 93.095 78.051C94.797 78.962 95.505 78.986 95.786 78.143C95.995 77.515 97.206 77 98.476 77C99.747 77 101.045 76.325 101.362 75.5C101.678 74.675 102.937 74 104.16 74C106.269 74 106.288 74.069 104.538 75.348C102.661 76.721 103.147 79.012 105.309 78.985C106.089 78.975 106.024 78.668 105.118 78.094C104.022 77.4 104.152 77.087 105.745 76.581C107.149 76.135 107.948 74.727 108.4 71.901C108.755 69.678 109.75 66.786 110.609 65.474C112.473 62.628 111.678 60.632 109.204 61.946C108.267 62.444 105.7 63.537 103.5 64.374C100.991 65.329 100.264 65.916 101.55 65.948C102.677 65.977 104.14 65.46 104.8 64.8C105.733 63.867 105.994 63.922 105.972 65.05C105.957 65.847 104.355 67.625 102.413 69C100.47 70.375 98.236 72.091 97.448 72.814C95.982 74.158 93.558 73.525 94.477 72.037C94.757 71.584 94.336 69.655 93.541 67.751C92.016 64.103 91.831 56 93.272 56C93.737 56 93.809 55.5 93.431 54.888C93.053 54.277 93.149 53.489 93.645 53.138C94.141 52.787 95.306 51.304 96.236 49.843C97.72 47.507 97.741 47.115 96.41 46.604C95.439 46.231 95.149 46.432 95.603 47.166C96.043 47.879 95.865 48.035 95.13 47.58C94.481 47.179 94.059 47.222 94.191 47.676C94.471 48.631 87 63.882 85.928 64.545C85.533 64.789 84.943 64.293 84.616 63.442C84.232 62.441 84.427 62.146 85.169 62.604C85.949 63.086 86.135 62.623 85.751 61.155C85.418 59.883 85.586 59.244 86.16 59.599C86.696 59.93 86.991 59.368 86.817 58.35C86.62 57.201 87.02 56.61 87.873 56.791C88.763 56.98 89.031 56.522 88.634 55.489C88.259 54.512 88.431 54.148 89.078 54.548C89.705 54.936 90.005 54.449 89.817 53.35C89.62 52.201 90.02 51.61 90.873 51.791C91.763 51.98 92.031 51.522 91.634 50.489C91.28 49.567 91.439 49.153 92.011 49.507C92.555 49.843 93 49.191 93 48.059C93 46.927 93.375 46 93.833 46C94.292 46 96.357 44.313 98.422 42.25C101.874 38.803 102.077 38.723 100.929 41.25C100.241 42.763 99.001 44 98.173 44C97.344 44 97.004 44.337 97.417 44.75C97.829 45.162 98.692 45.502 99.333 45.505C100.014 45.508 100.403 46.758 100.266 48.505C100.069 51.024 100.177 51.182 100.946 49.5C101.448 48.4 101.891 46.491 101.93 45.258C101.968 44.026 102.9 42.455 104 41.768C106.329 40.314 106.702 38.517 104.5 39.362C103.675 39.678 103 39.445 103 38.844C103 38.158 104.137 37.977 106.05 38.36C108.201 38.79 108.891 38.633 108.393 37.827C107.914 37.052 108.38 36.866 109.843 37.249C111.028 37.559 112.238 37.424 112.531 36.95C112.824 36.475 113.725 36.341 114.532 36.651C115.339 36.96 116 36.723 116 36.122C116 35.385 117.948 35.234 122 35.658C125.32 36.005 127.999 35.886 127.998 35.392C127.997 34.902 130.955 34.652 134.573 34.839C140.01 35.119 141.41 34.859 142.649 33.339C143.474 32.327 143.867 32.057 143.522 32.739C143.111 33.553 143.426 33.774 144.442 33.384C145.293 33.057 145.74 32.388 145.435 31.895C144.63 30.592 149.396 30.796 150.722 32.122ZM112.522 41.026C113.283 41.865 114.21 44.463 114.584 46.798C115.48 52.404 116.713 52.941 119.759 49.049C121.214 47.19 122.55 46.272 122.923 46.876C123.313 47.506 124.054 47.143 124.793 45.96C125.806 44.339 125.756 44 124.508 44C123.667 44 123 43.116 123 42C123 40.9 122.662 39.973 122.25 39.94C121.838 39.907 119.169 39.794 116.32 39.69C111.733 39.522 111.298 39.675 112.522 41.026ZM122 42.596C122 43.473 121.035 45.547 119.855 47.204L117.71 50.216L116.355 46.993C114.661 42.964 114.659 42.472 116.342 43.869C117.946 45.2 119.077 44.364 118.324 42.402C117.967 41.473 118.496 41 119.893 41C121.155 41 122 41.64 122 42.596ZM153 43.378C153 43.585 153.787 44.373 154.75 45.128C156.336 46.371 156.371 46.336 155.128 44.75C153.821 43.084 153 42.555 153 43.378ZM106.272 47.211C103.21 48.688 102.762 50.803 104.402 56.034C105.172 58.49 105.903 59.712 106.026 58.75C106.392 55.891 106.49 55.564 107.429 54.08C108.101 53.02 107.928 52.814 106.747 53.267C105.861 53.607 104.937 53.278 104.646 52.52C104.086 51.061 106.595 49.631 108.09 50.556C108.591 50.865 109 52.216 109 53.559C109 54.902 109.338 56 109.75 56C110.743 56 110.686 50.841 109.676 49.25C109.165 48.445 109.437 48 110.441 48C111.298 48 112 47.55 112 47C112 45.721 109.141 45.826 106.272 47.211ZM98.356 53.515C98.036 54.348 98.001 55.894 98.277 56.95C98.553 58.006 98.072 59.912 97.209 61.185L95.638 63.5L97.8 61.612C99.658 59.989 100.211 59.915 101.731 61.082C102.704 61.828 102.431 61.239 101.124 59.771C99.485 57.93 98.899 56.311 99.235 54.551C99.773 51.738 99.267 51.142 98.356 53.515ZM146.007 53.25C146.01 53.938 146.907 55.85 148 57.5C149.882 60.341 149.987 60.377 149.993 58.184C150.001 55.431 148.321 52 146.965 52C146.434 52 146.003 52.563 146.007 53.25ZM166.662 67.25C166.385 67.938 166.158 67.375 166.158 66C166.158 64.625 166.385 64.063 166.662 64.75C166.94 65.438 166.94 66.563 166.662 67.25ZM136.5 66.778C133.144 67.149 132.822 67.367 134.5 68.129C136.081 68.848 135.854 68.942 133.417 68.577C131.223 68.25 130.333 68.52 130.333 69.514C130.333 70.283 130.678 70.699 131.098 70.439C131.519 70.179 132.456 70.762 133.182 71.733C134.751 73.836 140.396 74.051 143.833 72.138C145.804 71.042 146.437 71.086 147.912 72.42C148.872 73.289 150.41 74 151.329 74C152.248 74 152.888 74.541 152.75 75.203C152.613 75.865 153.175 76.465 154 76.537C157.178 76.814 162 79.511 162 81.011C162 82.644 170.614 91.719 171.41 90.924C171.658 90.675 169.867 88.071 167.431 85.137C164.994 82.202 163 79.414 163 78.94C163 76.963 158.611 74.06 156.444 74.603C155.22 74.911 153.918 74.676 153.55 74.081C153.183 73.486 152.254 73 151.485 73C150.717 73 148.408 71.86 146.355 70.466C144.301 69.072 141.918 68.173 141.06 68.468C140.055 68.814 140.191 68.47 141.441 67.502C142.738 66.498 142.904 66.056 141.941 66.168C141.149 66.261 138.7 66.535 136.5 66.778ZM126 68.393C126 68.609 126.675 69.045 127.5 69.362C128.325 69.678 129 69.501 129 68.969C129 68.436 128.325 68 127.5 68C126.675 68 126 68.177 126 68.393ZM144.526 70.807C144.219 71.115 143.412 70.808 142.733 70.124C141.753 69.136 141.868 69.022 143.293 69.564C144.279 69.94 144.834 70.499 144.526 70.807ZM89 71C89 71.55 88.523 72 87.941 72C87.359 72 87.16 71.55 87.5 71C87.84 70.45 88.316 70 88.559 70C88.802 70 89 70.45 89 71ZM90 73.571C90 73.886 89.325 74.818 88.5 75.643C87.167 76.976 87 76.913 87 75.071C87 73.897 87.649 73 88.5 73C89.325 73 90 73.257 90 73.571ZM144.75 73.662C145.438 73.94 146 74.839 146 75.662C146 77.256 152.318 83.96 155.498 85.739C157.071 86.619 157.185 87.073 156.147 88.323C155.116 89.565 155.197 90.011 156.596 90.794C157.911 91.53 158.167 92.581 157.714 95.374C157.391 97.368 157.449 99 157.845 99C159.662 99 158.821 104.012 156.762 105.454C155.431 106.387 155.108 107 155.949 107C158.862 107 160.867 104.022 159.997 100.989C159.545 99.412 159.152 95.155 159.124 91.527C159.074 85.029 157.749 81.917 155.368 82.711C154.756 82.915 154.014 82.163 153.721 81.041C153.364 79.674 152.363 79 150.691 79C148.817 79 147.935 78.253 147.15 76C146.575 74.35 145.518 73.036 144.802 73.079C143.796 73.14 143.784 73.273 144.75 73.662ZM77 78C77 78.55 76.523 79 75.941 79C75.359 79 75.16 78.55 75.5 78C75.84 77.45 76.316 77 76.559 77C76.802 77 77 77.45 77 78ZM165.614 79.563C165.193 80.662 165.607 80.886 167.286 80.464C168.746 80.098 170.281 80.613 171.718 81.952C174.166 84.233 176.391 84.673 175.75 82.75C175.521 82.063 173.273 80.736 170.755 79.801C166.795 78.331 166.099 78.298 165.614 79.563ZM76.351 80.765C75.719 81.169 74.993 82.625 74.737 84C74.344 86.117 74.251 86.002 74.136 83.25C74.032 80.764 74.412 80.004 75.75 80.015C76.874 80.025 77.089 80.293 76.351 80.765ZM67 87.429C67 87.743 66.325 88 65.5 88C64.649 88 64 87.103 64 85.929C64 84.087 64.167 84.024 65.5 85.357C66.325 86.182 67 87.114 67 87.429ZM72.683 87.188C72.364 87.985 72.127 87.748 72.079 86.583C72.036 85.529 72.272 84.939 72.604 85.271C72.936 85.603 72.972 86.466 72.683 87.188ZM95.463 92.5C96.425 97.537 96.58 97.98 97.81 99.21C98.73 100.13 99.284 100.099 100.25 99.075C101.25 98.015 101.249 97.658 100.244 97.29C99.553 97.036 99.239 96.423 99.546 95.926C99.853 95.429 99.332 95.319 98.388 95.681C97.425 96.051 96.925 95.931 97.248 95.407C97.565 94.895 97.164 93.356 96.357 91.987L94.89 89.5L95.463 92.5ZM138.25 96.35C135.588 98.977 135.482 99.587 137.552 100.382C138.409 100.711 138.841 100.551 138.515 100.025C138.192 99.501 138.787 98.213 139.838 97.162C141.72 95.28 141.774 95.303 143.34 98.588C144.324 100.649 144.556 102.156 143.949 102.531C142.846 103.213 143.627 105 145.028 105C145.528 105 145.678 104.325 145.362 103.5C144.366 100.905 146.621 101.873 147.849 104.568C148.674 106.38 149.657 107.043 151.181 106.818C154.659 106.306 154.545 104.059 151.005 103.351C148.773 102.905 148.231 102.469 149.169 101.874C150.076 101.299 149.605 101.026 147.691 101.015C146.076 101.007 145.145 100.575 145.5 100C145.84 99.45 145.748 99 145.296 99C144.844 99 144.03 98.017 143.487 96.815C142.144 93.84 140.904 93.73 138.25 96.35ZM140.177 100.667C140.663 103.176 143 103.52 143 101.083C143 99.855 142.354 99 141.427 99C140.495 99 139.985 99.68 140.177 100.667ZM139.22 103.981C139.87 105.021 141.098 106.112 141.95 106.407C143.674 107.002 147.227 109.172 148 110.101C149.144 111.476 154.042 111.654 155.116 110.36C156.352 108.871 155.683 108.648 150.883 108.955C149.443 109.048 147.643 108.519 146.883 107.78C146.122 107.042 143.821 105.46 141.77 104.265C138.367 102.282 138.143 102.257 139.22 103.981ZM171.5 106C171.16 106.55 171.332 107 171.882 107C172.432 107 173.16 106.55 173.5 106C173.84 105.45 173.668 105 173.118 105C172.568 105 171.84 105.45 171.5 106ZM157.81 112.5C158.035 114.425 158.395 116 158.609 116C158.824 116 159 114.425 159 112.5C159 110.575 158.64 109 158.201 109C157.761 109 157.585 110.575 157.81 112.5ZM95 113C95 113.55 94.802 114 94.559 114C94.316 114 93.84 113.55 93.5 113C93.16 112.45 93.359 112 93.941 112C94.523 112 95 112.45 95 113ZM104.83 118.175C105.171 117.996 105.611 118.334 105.808 118.925C106.005 119.516 105.679 120 105.083 120C104.487 120 104 120.733 104 121.628C104 122.983 103.287 123.142 99.75 122.577C97.412 122.203 95.05 121.411 94.5 120.817C93.462 119.694 97.64 120.14 101.25 121.537C103.745 122.502 103.511 119.8 100.961 118.208C99.84 117.508 99.21 116.47 99.56 115.902C99.96 115.256 100.949 115.549 102.204 116.685C103.307 117.683 104.489 118.354 104.83 118.175ZM156.667 117.667C156.3 118.033 156 118.798 156 119.367C156 119.993 156.466 119.934 157.183 119.217C157.834 118.566 158.134 117.801 157.85 117.517C157.566 117.233 157.033 117.3 156.667 117.667ZM154.158 122C154.158 123.375 154.385 123.938 154.662 123.25C154.94 122.563 154.94 121.438 154.662 120.75C154.385 120.063 154.158 120.625 154.158 122ZM155.608 127.5C155.964 129.15 159.068 137.7 162.506 146.5C169.715 164.952 170.575 167.383 170.875 170.155C170.953 170.88 171.68 170.694 172.829 169.655C173.835 168.745 175.158 168 175.77 168C176.381 168 177.12 167.615 177.411 167.144C177.702 166.674 176.828 166.501 175.47 166.761C173.024 167.229 172.049 165.706 174.016 164.49C174.575 164.144 174.811 163.503 174.54 163.065C174.269 162.626 175.014 161.42 176.195 160.384C177.377 159.348 178.015 159.063 177.613 159.75C177.173 160.502 177.438 161 178.275 161C179.399 161 179.514 159.868 178.87 155.159C178.431 151.946 177.593 148.059 177.008 146.52C176.423 144.982 176.172 143.495 176.451 143.216C177.015 142.652 181.975 152.858 181.99 154.614C181.996 155.227 183.298 157.215 184.884 159.032L187.768 162.335L188.461 159.177C188.976 156.835 188.484 154.533 186.556 150.26C182.094 140.369 181.609 139.726 177.204 137.861C174.842 136.861 173.181 136.484 173.513 137.022C175.646 140.472 162.869 133.257 158.73 128.674L154.961 124.5L155.608 127.5ZM153.094 130.5C153.069 133.55 153.291 134.105 154.031 132.838C154.642 131.79 154.654 130.312 154.064 128.838C153.244 126.793 153.123 127.001 153.094 130.5ZM181 128.893C181 129.384 181.675 130.045 182.5 130.362C183.414 130.712 184 130.363 184 129.469C184 128.661 183.325 128 182.5 128C181.675 128 181 128.402 181 128.893ZM138.405 136.25L136.5 138.5L138.75 136.595C140.864 134.805 141.455 134 140.655 134C140.465 134 139.453 135.012 138.405 136.25ZM142.782 136.967C143.043 138.744 143.976 140.175 145.109 140.534C146.149 140.865 147 141.779 147 142.567C147 143.355 147.375 144 147.833 144C149.457 144 148.639 140.718 146.903 140.264C145.886 139.998 145.366 139.209 145.676 138.401C145.972 137.631 145.716 137 145.107 137C144.498 137 144 136.325 144 135.5C144 134.675 143.628 134 143.173 134C142.718 134 142.542 135.335 142.782 136.967ZM86.699 137.472C90.057 138.435 88.424 141 84.452 141C82.618 141 80.865 140.591 80.556 140.09C79.569 138.493 81.175 135.923 82.868 136.391C83.766 136.639 85.49 137.125 86.699 137.472ZM128.241 137.498C128.649 137.948 128.515 138.88 127.943 139.569C127.221 140.438 127.229 141.023 127.968 141.48C128.553 141.842 128.82 142.482 128.56 142.902C128.301 143.323 128.723 143.667 129.5 143.667C130.277 143.667 130.649 143.241 130.328 142.722C130.007 142.202 130.364 141.347 131.122 140.823C132.067 140.168 131.718 140.092 130.008 140.579C127.834 141.198 127.681 141.09 128.806 139.733C129.861 138.462 129.86 138.041 128.799 137.429C128.084 137.017 127.834 137.048 128.241 137.498ZM131.813 137.683C132.534 137.972 133.397 137.936 133.729 137.604C134.061 137.272 133.471 137.036 132.417 137.079C131.252 137.127 131.015 137.364 131.813 137.683ZM96 141.5C96 143.766 95.61 144 91.845 144C87.793 144 87.734 143.952 89.449 142.056C90.417 140.987 92.174 139.923 93.354 139.692C94.534 139.461 95.612 139.211 95.75 139.136C95.888 139.061 96 140.125 96 141.5ZM135.75 139.662C136.438 139.94 137.563 139.94 138.25 139.662C138.938 139.385 138.375 139.158 137 139.158C135.625 139.158 135.063 139.385 135.75 139.662ZM174.886 140.363C175.802 141.467 175.537 141.634 173.494 141.244C172.106 140.978 170.726 140.365 170.426 139.881C169.534 138.437 173.658 138.883 174.886 140.363ZM66.5 143C66.16 143.55 66.61 144 67.5 144C68.39 144 68.84 143.55 68.5 143C68.16 142.45 67.71 142 67.5 142C67.29 142 66.84 142.45 66.5 143ZM70.397 142.833C70.884 143.621 77 143.208 77 142.387C77 142.174 75.398 142 73.441 142C71.484 142 70.114 142.375 70.397 142.833ZM92.815 146.267C94.662 147.177 95.316 147.113 96.05 145.954C96.81 144.752 96.972 144.81 96.985 146.282C96.993 147.262 96.004 148.433 94.787 148.883L92.574 149.702L94.815 150.901C97.357 152.261 96.849 154.263 94.218 153.254C93.273 152.891 90.595 151.309 88.266 149.737C84.794 147.394 84.255 146.63 85.266 145.489C86.539 144.053 88.795 144.286 92.815 146.267ZM62.015 146.372C62.002 147.953 61.757 148.043 60.445 146.954C59.054 145.8 59.027 145.966 60.192 148.523C61.163 150.653 61.579 150.948 61.823 149.679C62.004 148.742 62.567 148.233 63.076 148.547C64.276 149.288 64.235 147.911 63 146C62.185 144.738 62.028 144.798 62.015 146.372ZM146 145.401C146 145.622 147.688 146.756 149.75 147.921L153.5 150.039L150.5 147.525C147.748 145.218 146 144.393 146 145.401ZM143.079 150.219C143.031 151.265 142.452 151.727 141.601 151.4C140.832 151.105 139.908 151.339 139.549 151.92C139.152 152.563 139.504 152.744 140.448 152.382C141.376 152.026 142.012 152.332 142.03 153.143C142.05 154.026 142.424 153.875 143.101 152.712C143.673 151.729 143.92 150.379 143.65 149.712C143.369 149.021 143.124 149.239 143.079 150.219ZM155 150.535C155 150.83 155.642 152.067 156.426 153.285C157.211 154.503 158.555 158.242 159.413 161.593C160.96 167.634 164.684 177 165.538 177C166.207 177 165.481 171.587 164.627 170.205C164.217 169.542 164.203 168.48 164.595 167.845C165.059 167.095 164.867 166.964 164.047 167.471C163.119 168.044 162.964 167.688 163.46 166.125C163.86 164.864 163.701 164 163.067 164C162.48 164 162 162.848 162 161.441C162 159.761 161.603 159.127 160.845 159.595C160.185 160.004 159.96 159.873 160.32 159.291C161.093 158.041 157.333 150 155.977 150C155.439 150 155 150.241 155 150.535ZM104.5 152C104.16 152.55 103.346 152.993 102.691 152.985C101.975 152.975 102.099 152.582 103 152C104.921 150.758 105.267 150.758 104.5 152ZM101 155C101 155.55 100.298 156 99.441 156C98.584 156 98.16 155.55 98.5 155C98.84 154.45 99.541 154 100.059 154C100.577 154 101 154.45 101 155ZM138.143 159.639C138.18 162.74 138.558 164.715 138.984 164.026C139.592 163.042 139.89 163.066 140.372 164.137C140.71 164.887 140.754 163.7 140.47 161.5C140.187 159.3 139.868 156.713 139.763 155.75C139.658 154.787 139.235 154 138.823 154C138.412 154 138.106 156.538 138.143 159.639ZM61 158.5C61 159.325 60.55 160 60 160C59.45 160 59 159.325 59 158.5C59 157.675 59.45 157 60 157C60.55 157 61 157.675 61 158.5ZM199 160.944C199 162.708 194.118 166.839 193.885 165.273C193.539 162.948 194.333 160.355 195.72 159.282C197.638 157.799 199 158.489 199 160.944ZM108 164.059C108 164.577 107.55 165 107 165C106.45 165 106 164.298 106 163.441C106 162.584 106.45 162.16 107 162.5C107.55 162.84 108 163.541 108 164.059ZM179 166.441C179 167.298 179.45 168 180 168C180.55 168 181 167.577 181 167.059C181 166.541 180.55 165.84 180 165.5C179.45 165.16 179 165.584 179 166.441ZM145 167.059C145 167.641 145.45 167.84 146 167.5C146.55 167.16 147 166.684 147 166.441C147 166.198 146.55 166 146 166C145.45 166 145 166.477 145 167.059ZM204.423 168.31C205.662 170.273 204.207 173.318 201.802 173.793C200.669 174.016 200.375 173.189 200.555 170.293C200.685 168.207 200.838 166.35 200.896 166.167C201.146 165.366 203.45 166.766 204.423 168.31ZM139.158 170C139.158 171.375 139.385 171.938 139.662 171.25C139.94 170.563 139.94 169.438 139.662 168.75C139.385 168.063 139.158 168.625 139.158 170ZM147.459 172.067C146.433 173.727 147.354 173.957 148.789 172.399C149.499 171.63 149.638 171 149.098 171C148.559 171 147.821 171.48 147.459 172.067ZM64.935 173.421C65.903 174.588 65.743 174.746 64.042 174.301C61.54 173.646 60.307 172 62.319 172C63.109 172 64.286 172.64 64.935 173.421ZM57 173.807C57 174.251 58.237 175.103 59.75 175.701C62.153 176.65 62.23 176.801 60.361 176.894C59.184 176.952 57.159 176.115 55.861 175.033C53.88 173.383 53.782 173.061 55.25 173.033C56.212 173.015 57 173.363 57 173.807ZM149 173.941C149 174.459 149.445 175.157 149.989 175.493C150.555 175.843 150.723 175.442 150.382 174.552C149.717 172.82 149 172.503 149 173.941ZM210.559 174.501C212.464 175.973 212.456 176.039 210.139 178.001C208.841 179.1 207.378 180 206.889 180C205.87 180 205.71 176.92 206.607 174.582C207.362 172.614 208.098 172.598 210.559 174.501ZM148.079 177.583C148.127 178.748 148.364 178.985 148.683 178.188C148.972 177.466 148.936 176.603 148.604 176.271C148.272 175.939 148.036 176.529 148.079 177.583ZM218.865 182.089C221.492 184.537 221.223 186.37 218.172 186.82C215.882 187.156 215.118 185.461 217.241 184.753C218.133 184.456 217.993 183.85 216.741 182.598C213.476 179.333 215.409 178.869 218.865 182.089ZM180.015 182.191C180.024 182.911 180.467 184.175 181 185C181.788 186.219 181.972 186.09 181.985 184.309C181.993 183.104 181.55 181.84 181 181.5C180.45 181.16 180.007 181.471 180.015 182.191ZM64.25 186.083C67.082 188.206 67.837 190 65.9 190C64.438 190 57.906 183.427 58.64 182.693C58.955 182.378 59.728 182.548 60.357 183.071C60.985 183.594 62.737 184.95 64.25 186.083ZM73 187C74.925 188.62 75.97 189.958 75.321 189.973C74.673 189.988 73.447 189.304 72.597 188.454C71.746 187.603 69.802 186.256 68.275 185.46C66.011 184.279 65.868 184.016 67.5 184.033C68.6 184.044 71.075 185.38 73 187ZM150.012 184.583C150.018 185.088 150.688 187.975 151.5 191C152.312 194.025 152.982 197.32 152.988 198.323C153.007 201.17 149.882 199.949 147.285 196.095C146.028 194.23 145 193.36 145 194.161C145 194.962 145.661 196.491 146.468 197.559C147.276 198.626 147.951 200.078 147.968 200.784C147.986 201.49 149.417 203.452 151.148 205.145C155.924 209.814 156.487 207.268 153.42 194.871C151.095 185.475 149.98 182.108 150.012 184.583ZM143.825 189.674C144.251 191.767 144.503 192.019 144.794 190.644C145.011 189.623 144.751 188.351 144.218 187.818C143.592 187.192 143.452 187.849 143.825 189.674ZM56.549 192.607C59.018 194.008 59.94 197.575 57.601 196.677C56.721 196.339 56 196.547 56 197.138C56 197.772 55.282 197.916 54.25 197.489C53.288 197.09 48.9 195.724 44.5 194.453C39.018 192.87 37.453 192.12 39.527 192.071C41.193 192.032 43.455 191.369 44.556 190.599C47.608 188.461 51.31 188.17 53.049 189.931C53.901 190.794 55.476 191.998 56.549 192.607ZM141.079 190.583C141.127 191.748 141.364 191.985 141.683 191.188C141.972 190.466 141.936 189.603 141.604 189.271C141.272 188.939 141.036 189.529 141.079 190.583ZM179.39 202.017C180.274 204.227 181.392 207.715 181.875 209.767C182.357 211.82 182.92 214.175 183.126 215C183.412 216.146 182.025 216.718 177.25 217.426C173.813 217.935 170.993 218.835 170.985 219.426C170.976 220.016 170.533 219.825 170 219C169.184 217.737 169.028 217.795 169.015 219.367C169.003 220.816 168.441 221.126 166.5 220.755C162.86 220.059 163.44 221.346 167.75 223.527L171.5 225.424L167 226.062C161.021 226.909 161.921 227.185 173.25 227.977L176.5 228.205L173.5 228.894C171.85 229.273 148.321 229.564 121.214 229.541C79.593 229.506 71.79 229.278 71.044 228.07C70.558 227.284 69.449 226.536 68.58 226.409C67.05 226.184 66.575 227.598 66.95 231.262C67.141 233.132 61.911 239 60.052 239C59.446 239 58.512 237.846 57.975 236.435C56.578 232.759 56.771 231.628 58.5 233.357C59.325 234.182 60 235.339 60 235.929C60 236.518 60.414 237 60.919 237C62.524 237 63.943 227.969 62.75 225.351C62.161 224.058 61.278 223 60.788 223C59.97 223 56.701 216.572 56.561 214.685C56.527 214.237 54.781 212.341 52.681 210.472L48.861 207.073L51.586 206.389C53.54 205.899 54.649 206.167 55.504 207.337C56.161 208.235 56.991 208.676 57.349 208.318C57.707 207.96 58 208.218 58 208.892C58 209.566 58.52 209.797 59.155 209.405C59.851 208.974 60.038 209.129 59.627 209.795C59.251 210.403 59.84 211.379 60.935 211.965C62.11 212.594 62.692 213.639 62.356 214.515C62.042 215.332 62.27 216 62.862 216C63.453 216 63.718 216.571 63.451 217.268C63.108 218.161 64.004 218.487 66.482 218.371C68.551 218.274 70.006 218.678 70.015 219.353C70.024 219.984 70.467 219.825 71 219C71.646 218 71.974 217.917 71.985 218.75C71.993 219.438 72.675 220 73.5 220C74.325 220 75 219.644 75 219.208C75 218.258 71.292 218.352 121.262 218.031C143.682 217.887 162.271 217.371 162.571 216.884C162.872 216.398 162.704 216 162.197 216C161.293 216 158.643 205.023 159.372 204.295C159.576 204.091 160.262 205.984 160.896 208.502L162.049 213.081L165.775 212.389C167.911 211.993 170.458 210.589 171.747 209.099C172.982 207.669 174.557 206.48 175.247 206.455C175.936 206.43 176.369 205.812 176.209 205.082C176.027 204.25 176.494 203.975 177.459 204.346C179.381 205.083 179.383 204.641 177.474 200.95C176.635 199.328 176.361 198 176.866 198C177.37 198 178.506 199.808 179.39 202.017ZM39.23 201.931C41.772 203.543 45.348 205.046 47.176 205.271L50.5 205.68L46.809 205.84C41.642 206.064 41.29 207.526 45.728 210.328C49.738 212.86 52.844 215.989 51.372 216.015C50.893 216.024 51.018 216.361 51.65 216.765C52.782 217.488 53.351 219.385 53.118 221.656C53.052 222.305 52.122 222.583 51 222.29C48.666 221.679 48.237 224.085 50.306 226.179C51.024 226.905 52.003 228.4 52.482 229.5C53.322 231.431 53.365 231.423 53.745 229.25C54.197 226.668 55.516 226.296 56.366 228.511C56.901 229.905 56.415 234.615 55.402 237.863C54.704 240.098 52.208 237.354 49.758 231.66L47.594 226.629L46.178 230.064L44.761 233.5L42.26 228.238C40.856 225.286 38.061 221.633 35.892 219.914C32.12 216.927 32.061 216.782 33.492 214.016C34.298 212.457 35.53 210.99 36.229 210.756C36.928 210.522 36.263 210.094 34.75 209.804C33.237 209.514 32 209.625 32 210.051C32 210.476 30.087 211.113 27.75 211.466C25.413 211.818 22.297 212.336 20.827 212.616C18.504 213.058 18.226 212.85 18.704 211.023C19.006 209.867 21.334 207.503 23.877 205.769C26.42 204.035 28.65 202.253 28.833 201.808C29.017 201.364 29.804 201 30.583 201C31.363 201 32 200.55 32 200C32 198.252 34.469 198.912 39.23 201.931ZM221.643 207.119C222.504 207.833 223.612 209.479 224.105 210.776C224.8 212.603 225.48 212.982 227.126 212.46C228.563 212.004 229.028 212.146 228.561 212.901C228.183 213.514 228.622 214.765 229.539 215.682C231.453 217.596 230.942 223.81 228.731 225.497C228.008 226.049 226.743 228.3 225.921 230.5C224.883 233.277 223.749 234.598 222.213 234.82C220.275 235.099 220 234.686 220 231.486C220 226.331 217.586 227.484 217.193 232.828C216.984 235.654 216.42 237 215.443 237C214.649 237 214 237.466 214 238.035C214 238.737 213.356 238.726 212 238C210.83 237.374 210 235.906 210 234.465C210 233.109 209.55 232 209 232C208.45 232 208 232.9 208 234C208 235.1 207.576 236 207.057 236C205.554 236 203 231.768 203 229.277C203 227.969 202.391 227 201.57 227C200.446 227 200.33 226.336 201.028 223.903C201.516 222.2 202.326 220.287 202.828 219.653C203.329 219.019 204.278 216.828 204.936 214.785C205.594 212.742 207.462 209.647 209.087 207.906C211.706 205.103 212.501 204.804 216.061 205.281C218.27 205.578 220.783 206.405 221.643 207.119ZM231.562 210.771C231.227 211.107 230.176 210.568 229.226 209.574C227.576 207.846 227.603 207.819 229.836 208.964C231.12 209.623 231.897 210.436 231.562 210.771ZM227 211C227 211.55 226.55 212 226 212C225.45 212 225 211.55 225 211C225 210.45 225.45 210 226 210C226.55 210 227 210.45 227 211ZM64.079 222.583C64.127 223.748 64.364 223.985 64.683 223.188C64.972 222.466 64.936 221.603 64.604 221.271C64.272 220.939 64.036 221.529 64.079 222.583ZM60.092 225.075C62.088 227.673 62.619 231 61.036 231C60.077 231 55 224.151 55 222.856C55 221.346 58.346 222.805 60.092 225.075ZM76.269 226.693C77.242 226.947 78.592 226.93 79.269 226.656C79.946 226.382 79.15 226.175 77.5 226.195C75.85 226.215 75.296 226.439 76.269 226.693ZM107.25 226.689C108.213 226.941 109.787 226.941 110.75 226.689C111.713 226.438 110.925 226.232 109 226.232C107.075 226.232 106.287 226.438 107.25 226.689ZM64 230.941C64 232.073 64.45 233 65 233C65.55 233 66 232.352 66 231.559C66 230.766 65.55 229.84 65 229.5C64.45 229.16 64 229.809 64 230.941Z" fill="#1E1D1B"/>
<path fill-rule="evenodd" clip-rule="evenodd" d="M143.507 32.989C143.157 33.555 143.558 33.723 144.448 33.382C146.18 32.717 146.497 32 145.059 32C144.541 32 143.843 32.445 143.507 32.989ZM150.1 33.705C150.829 34.917 151.64 35.694 151.903 35.431C152.166 35.168 151.57 34.176 150.579 33.226C148.857 31.577 148.835 31.598 150.1 33.705ZM131.728 34.722C133.503 34.943 136.653 34.946 138.728 34.73C140.802 34.513 139.35 34.333 135.5 34.328C131.65 34.324 129.952 34.501 131.728 34.722ZM121.75 35.706C122.987 35.944 125.013 35.944 126.25 35.706C127.487 35.467 126.475 35.272 124 35.272C121.525 35.272 120.513 35.467 121.75 35.706ZM113.507 36.989C113.157 37.555 113.558 37.723 114.448 37.382C116.18 36.717 116.497 36 115.059 36C114.541 36 113.843 36.445 113.507 36.989ZM100.717 41.722C100.146 42.975 99.131 44 98.462 44C96.97 44 94.668 46.657 94.363 48.732C94.24 49.573 93.607 50.765 92.957 51.381C92.057 52.233 91.94 51.903 92.465 50C93.014 48.012 92.701 48.216 90.935 51C86.377 58.185 82.977 65.154 83.565 66.105C83.899 66.646 83.661 67.703 83.037 68.455C82.413 69.207 81.726 71.775 81.51 74.161C81.294 76.548 80.634 80.745 80.044 83.489C79.428 86.354 79.322 89.547 79.795 90.989C80.248 92.37 80.49 95.941 80.332 98.924C80.172 101.94 80.549 104.956 81.18 105.717C82.028 106.739 82.023 107.377 81.158 108.242C79.16 110.24 79.882 111.995 82.75 112.116C84.442 112.187 84.827 112.408 83.75 112.689C81.643 113.24 81.395 116 83.453 116C86.111 116 89.849 118.231 89.353 119.522C88.928 120.629 94.67 126 96.278 126C98.191 126 106.546 136.512 109.742 142.94C111.809 147.098 114.85 151.785 116.5 153.356C118.343 155.11 118.825 155.99 117.75 155.637C115.699 154.964 115.453 156.292 117.279 158.179C117.983 158.905 119.896 161.637 121.529 164.248C123.163 166.86 124.838 168.997 125.25 168.998C125.662 168.999 126 169.675 126 170.5C126 171.325 126.579 172 127.286 172C128.687 172 136 182.505 136 184.517C136 185.198 136.743 186.372 137.651 187.125C139.172 188.387 139.244 187.828 138.569 179.998C138.166 175.324 137.419 169.28 136.909 166.566C136.399 163.852 136.248 160.793 136.574 159.767C137.19 157.825 135.296 154.311 131.324 150.027C130.046 148.648 129 147.231 129 146.877C129 146.523 127.889 146.021 126.53 145.761C125.172 145.501 124.298 145.674 124.589 146.144C124.88 146.615 124.641 147 124.059 147C123.477 147 123.007 147.787 123.015 148.75C123.028 150.151 123.207 150.221 123.914 149.104C125.91 145.952 131.645 152.069 134.397 160.285C136.45 166.413 136.414 168.267 134.193 171.01C132.498 173.103 132.28 173.137 130.7 171.557C129.774 170.631 128.492 170.196 127.853 170.591C127.136 171.034 126.961 170.873 127.394 170.171C127.781 169.546 126.388 166.428 124.299 163.243C122.209 160.058 119.931 156.563 119.236 155.476C118.54 154.389 117.072 152.15 115.973 150.5C112.484 145.26 111.65 140.343 113.366 135.13C114.719 131.019 114.72 130.348 113.368 128.854C112.009 127.352 112.041 127.073 113.677 126.121C115.368 125.138 115.373 125.059 113.75 125.03C112.787 125.014 112 124.373 112 123.607C112 122.841 111.302 121.946 110.448 121.618C109.558 121.277 109.157 121.445 109.507 122.011C110.26 123.23 107.999 123.285 106.118 122.094C105.032 121.406 105.193 121.074 106.868 120.542C109.743 119.63 109.557 118.647 105.935 115.599C104.249 114.18 103.092 112.661 103.363 112.222C103.634 111.783 102.493 110.821 100.827 110.084C98.631 109.111 98.16 108.519 99.117 107.928C100.133 107.3 99.891 106.64 98.065 105.056C96.761 103.925 95.293 103 94.803 103C94.313 103 94.003 102.438 94.114 101.75C94.528 99.181 92.8 96.929 90.882 97.538C88.816 98.193 88.237 96.475 90.25 95.662C90.997 95.361 90.795 95.126 89.75 95.079C88.787 95.036 87.769 95.112 87.486 95.25C86.925 95.523 84 90.261 84 88.979C84 88.544 84.907 88.424 86.015 88.714C87.564 89.119 87.886 88.867 87.408 87.621C87.066 86.729 86.144 86 85.359 86C84.359 86 84.067 85.177 84.384 83.25C84.632 81.737 84.873 80.162 84.918 79.75C84.963 79.338 85.81 79 86.8 79C87.79 79 89.092 78.508 89.693 77.907C90.483 77.117 91.425 77.157 93.095 78.051C94.797 78.962 95.505 78.986 95.786 78.143C95.995 77.515 97.206 77 98.476 77C99.747 77 101.045 76.325 101.362 75.5C101.678 74.675 102.937 74 104.16 74C106.269 74 106.288 74.069 104.538 75.348C102.661 76.721 103.147 79.012 105.309 78.985C106.089 78.975 106.024 78.668 105.118 78.094C104.022 77.4 104.152 77.087 105.745 76.581C107.149 76.135 107.948 74.727 108.4 71.901C108.755 69.678 109.75 66.786 110.609 65.474C112.473 62.628 111.678 60.632 109.204 61.946C108.267 62.444 105.7 63.537 103.5 64.374C100.991 65.329 100.264 65.916 101.55 65.948C102.678 65.977 104.14 65.46 104.8 64.8C105.733 63.867 105.994 63.922 105.972 65.05C105.957 65.847 104.355 67.625 102.413 69C100.47 70.375 98.236 72.091 97.448 72.814C95.982 74.158 93.558 73.525 94.477 72.037C94.757 71.584 94.336 69.655 93.541 67.751C92.016 64.103 91.831 56 93.272 56C93.737 56 93.809 55.5 93.431 54.888C93.053 54.277 93.149 53.489 93.645 53.138C95.392 51.901 98.042 47 96.964 47C96.369 47 96.135 46.59 96.445 46.089C96.755 45.588 97.794 45.295 98.754 45.438C100.021 45.626 100.436 46.494 100.266 48.599C100.067 51.066 100.169 51.201 100.946 49.5C101.448 48.4 101.891 46.491 101.93 45.258C101.968 44.026 102.9 42.455 104 41.768C106.599 40.145 106.547 39.083 103.877 39.284C102.71 39.372 101.288 40.469 100.717 41.722ZM112.522 41.026C113.283 41.865 114.21 44.463 114.584 46.798C115.48 52.404 116.713 52.941 119.759 49.049C121.214 47.19 122.55 46.272 122.923 46.876C123.313 47.506 124.054 47.143 124.793 45.96C125.806 44.339 125.756 44 124.508 44C123.667 44 123 43.116 123 42C123 40.9 122.662 39.973 122.25 39.94C121.838 39.907 119.169 39.794 116.32 39.69C111.733 39.522 111.298 39.675 112.522 41.026ZM122 42.596C122 43.473 121.035 45.547 119.855 47.204L117.71 50.216L116.355 46.993C114.661 42.964 114.659 42.472 116.342 43.869C117.946 45.2 119.077 44.364 118.324 42.402C117.967 41.473 118.496 41 119.893 41C121.155 41 122 41.64 122 42.596ZM153 43.378C153 43.585 153.787 44.373 154.75 45.128C156.336 46.371 156.371 46.336 155.128 44.75C153.821 43.084 153 42.555 153 43.378ZM106.272 47.211C103.21 48.688 102.762 50.803 104.402 56.034C105.172 58.49 105.903 59.712 106.026 58.75C106.392 55.891 106.49 55.564 107.429 54.08C108.101 53.02 107.928 52.814 106.747 53.267C105.861 53.607 104.937 53.278 104.646 52.52C104.086 51.061 106.595 49.631 108.09 50.556C108.591 50.865 109 52.216 109 53.559C109 54.902 109.338 56 109.75 56C110.743 56 110.686 50.841 109.676 49.25C109.165 48.445 109.437 48 110.441 48C111.298 48 112 47.55 112 47C112 45.721 109.141 45.826 106.272 47.211ZM89.45 58.329C86.757 64.211 84.188 67.183 85.521 62.875C86.46 59.838 91.118 51.785 91.636 52.303C91.852 52.519 90.868 55.23 89.45 58.329ZM98.584 52.864C97.701 54.292 98.252 60.962 99.204 60.374C99.69 60.073 100.855 60.415 101.794 61.134C102.732 61.852 102.431 61.239 101.124 59.771C99.485 57.93 98.899 56.311 99.235 54.551C99.737 51.924 99.517 51.354 98.584 52.864ZM146.007 53.25C146.01 53.938 146.907 55.85 148 57.5C149.882 60.341 149.987 60.377 149.993 58.184C150.001 55.431 148.321 52 146.965 52C146.434 52 146.003 52.563 146.007 53.25ZM162.079 62.583C162.127 63.748 162.364 63.985 162.683 63.188C162.972 62.466 162.936 61.603 162.604 61.271C162.272 60.939 162.036 61.529 162.079 62.583ZM136.5 67L132.5 67.716L136.29 67.858C140.052 67.999 147.289 71.04 148.491 72.986C148.836 73.544 149.991 74 151.059 74C152.127 74 152.888 74.541 152.75 75.203C152.613 75.865 153.175 76.465 154 76.537C157.178 76.814 162 79.511 162 81.011C162 82.644 170.614 91.719 171.41 90.924C171.658 90.675 169.909 88.122 167.524 85.249C163.651 80.585 163.243 79.611 163.708 76.143C163.994 74.007 163.821 72.008 163.323 71.7C162.82 71.389 162.604 72.734 162.837 74.728L163.256 78.316L160.933 76.152C159.575 74.887 157.887 74.218 156.868 74.542C155.298 75.04 153.643 74.472 149 71.838C148.175 71.371 146.035 70.231 144.245 69.306C141.97 68.131 141.368 67.384 142.245 66.828C143.731 65.884 142.531 65.92 136.5 67ZM126 68.393C126 68.609 126.675 69.045 127.5 69.362C128.325 69.678 129 69.501 129 68.969C129 68.436 128.325 68 127.5 68C126.675 68 126 68.177 126 68.393ZM89 71C89 71.55 88.523 72 87.941 72C87.359 72 87.16 71.55 87.5 71C87.84 70.45 88.316 70 88.559 70C88.802 70 89 70.45 89 71ZM90 73.571C90 73.886 89.325 74.818 88.5 75.643C87.167 76.976 87 76.913 87 75.071C87 73.897 87.649 73 88.5 73C89.325 73 90 73.257 90 73.571ZM144.75 73.662C145.438 73.94 146 74.839 146 75.662C146 77.256 152.318 83.96 155.498 85.739C157.071 86.619 157.185 87.073 156.147 88.323C155.116 89.565 155.197 90.011 156.596 90.794C157.911 91.53 158.167 92.581 157.714 95.374C157.391 97.368 157.449 99 157.845 99C159.662 99 158.821 104.012 156.762 105.454C155.431 106.387 155.108 107 155.949 107C158.862 107 160.867 104.022 159.997 100.989C159.545 99.412 159.152 95.155 159.124 91.527C159.074 85.029 157.749 81.917 155.368 82.711C154.756 82.915 154.014 82.163 153.721 81.041C153.364 79.674 152.363 79 150.691 79C148.817 79 147.935 78.253 147.15 76C146.575 74.35 145.518 73.036 144.802 73.079C143.796 73.14 143.784 73.273 144.75 73.662ZM95.463 92.5C96.425 97.537 96.58 97.98 97.81 99.21C98.73 100.13 99.284 100.099 100.25 99.075C101.25 98.015 101.249 97.658 100.244 97.29C99.553 97.036 99.239 96.423 99.546 95.926C99.853 95.429 99.332 95.319 98.388 95.681C97.425 96.051 96.925 95.931 97.248 95.407C97.565 94.895 97.164 93.356 96.357 91.987L94.89 89.5L95.463 92.5ZM138.25 96.35C135.588 98.977 135.482 99.587 137.552 100.382C138.409 100.711 138.841 100.551 138.515 100.025C138.192 99.501 138.787 98.213 139.838 97.162C141.72 95.28 141.774 95.303 143.358 98.625C144.243 100.481 145.353 102 145.823 102C146.294 102 147.206 103.156 147.849 104.568C148.674 106.38 149.657 107.043 151.181 106.818C154.659 106.306 154.545 104.059 151.005 103.351C148.773 102.905 148.231 102.469 149.169 101.874C150.076 101.299 149.605 101.026 147.691 101.015C146.076 101.007 145.145 100.575 145.5 100C145.84 99.45 145.748 99 145.296 99C144.844 99 144.03 98.017 143.487 96.815C142.144 93.84 140.904 93.73 138.25 96.35ZM139.22 103.981C139.87 105.021 141.098 106.112 141.95 106.407C143.674 107.002 147.227 109.172 148 110.101C149.144 111.476 154.042 111.654 155.116 110.36C156.352 108.871 155.683 108.648 150.883 108.955C149.443 109.048 147.643 108.519 146.883 107.78C146.122 107.042 143.821 105.46 141.77 104.265C138.367 102.282 138.143 102.257 139.22 103.981ZM157.81 112.5C158.035 114.425 158.395 116 158.609 116C158.824 116 159 114.425 159 112.5C159 110.575 158.64 109 158.201 109C157.761 109 157.585 110.575 157.81 112.5ZM95 113C95 113.55 94.802 114 94.559 114C94.316 114 93.84 113.55 93.5 113C93.16 112.45 93.359 112 93.941 112C94.523 112 95 112.45 95 113ZM104.83 118.175C105.171 117.996 105.611 118.334 105.808 118.925C106.005 119.516 105.679 120 105.083 120C104.487 120 104 120.733 104 121.628C104 122.983 103.287 123.142 99.75 122.577C97.412 122.203 95.05 121.411 94.5 120.817C93.462 119.694 97.64 120.14 101.25 121.537C103.745 122.502 103.511 119.8 100.961 118.208C99.84 117.508 99.21 116.47 99.56 115.902C99.96 115.256 100.949 115.549 102.204 116.685C103.307 117.683 104.489 118.354 104.83 118.175ZM156.667 117.667C156.3 118.033 156 118.798 156 119.367C156 119.993 156.466 119.934 157.183 119.217C157.834 118.566 158.134 117.801 157.85 117.517C157.566 117.233 157.033 117.3 156.667 117.667ZM154.158 122C154.158 123.375 154.385 123.938 154.662 123.25C154.94 122.563 154.94 121.438 154.662 120.75C154.385 120.063 154.158 120.625 154.158 122ZM155.608 127.5C155.964 129.15 159.068 137.7 162.506 146.5C169.715 164.952 170.575 167.383 170.875 170.155C170.953 170.88 171.68 170.694 172.829 169.655C173.835 168.745 175.158 168 175.77 168C176.381 168 177.12 167.615 177.411 167.144C177.702 166.674 176.828 166.501 175.47 166.761C173.024 167.229 172.049 165.706 174.016 164.49C174.575 164.144 174.811 163.503 174.54 163.065C174.269 162.626 175.014 161.42 176.195 160.384C177.377 159.348 178.015 159.063 177.613 159.75C177.173 160.502 177.438 161 178.275 161C179.399 161 179.514 159.868 178.87 155.159C178.431 151.946 177.593 148.059 177.008 146.52C176.423 144.982 176.172 143.495 176.451 143.216C177.015 142.652 181.975 152.858 181.99 154.614C181.996 155.227 183.298 157.215 184.884 159.032L187.768 162.335L188.461 159.177C188.976 156.835 188.484 154.533 186.556 150.26C182.094 140.369 181.609 139.726 177.204 137.861C174.842 136.861 173.181 136.484 173.513 137.022C175.646 140.472 162.869 133.257 158.73 128.674L154.961 124.5L155.608 127.5ZM153.252 130.5C153.263 132.7 153.468 133.482 153.707 132.238C153.946 130.994 153.937 129.194 153.687 128.238C153.437 127.282 153.241 128.3 153.252 130.5ZM138.405 136.25L136.5 138.5L138.75 136.595C140.864 134.805 141.455 134 140.655 134C140.465 134 139.453 135.012 138.405 136.25ZM131.813 137.683C132.534 137.972 133.397 137.936 133.729 137.604C134.061 137.272 133.471 137.036 132.417 137.079C131.252 137.127 131.015 137.364 131.813 137.683ZM135.75 139.662C136.438 139.94 137.563 139.94 138.25 139.662C138.938 139.385 138.375 139.158 137 139.158C135.625 139.158 135.063 139.385 135.75 139.662ZM143 139.393C143 139.609 143.698 140.054 144.552 140.382C145.442 140.723 145.843 140.555 145.493 139.989C144.906 139.038 143 138.583 143 139.393ZM155.079 140.583C155.127 141.748 155.364 141.985 155.683 141.188C155.972 140.466 155.936 139.603 155.604 139.271C155.272 138.939 155.036 139.529 155.079 140.583ZM174.886 140.363C175.802 141.467 175.537 141.634 173.494 141.244C172.106 140.978 170.726 140.365 170.426 139.881C169.534 138.437 173.658 138.883 174.886 140.363ZM129.203 140.854C128.182 141.501 128.277 141.978 129.645 143.088C131.036 144.217 131.22 144.227 130.564 143.138C130.059 142.3 130.274 141.441 131.122 140.904C131.88 140.423 132.05 140.031 131.5 140.031C130.95 140.031 129.916 140.401 129.203 140.854ZM66.5 143C66.16 143.55 66.61 144 67.5 144C68.39 144 68.84 143.55 68.5 143C68.16 142.45 67.71 142 67.5 142C67.29 142 66.84 142.45 66.5 143ZM70.397 142.833C70.884 143.621 77 143.208 77 142.387C77 142.174 75.398 142 73.441 142C71.484 142 70.114 142.375 70.397 142.833ZM156.158 145C156.158 146.375 156.385 146.938 156.662 146.25C156.94 145.563 156.94 144.438 156.662 143.75C156.385 143.063 156.158 143.625 156.158 145ZM146 145.401C146 145.622 147.688 146.756 149.75 147.921L153.5 150.039L150.5 147.525C147.748 145.218 146 144.393 146 145.401ZM60.141 148.363C60.847 149.938 61.606 150.682 61.828 150.015C62.05 149.349 61.473 148.06 60.545 147.152C58.966 145.606 58.94 145.683 60.141 148.363ZM155 150.535C155 150.83 155.642 152.067 156.426 153.285C157.211 154.503 158.555 158.242 159.413 161.593C160.96 167.634 164.684 177 165.538 177C166.207 177 165.481 171.587 164.627 170.205C164.217 169.542 164.203 168.48 164.595 167.845C165.059 167.095 164.867 166.964 164.047 167.471C163.119 168.044 162.964 167.688 163.46 166.125C163.86 164.864 163.701 164 163.067 164C162.48 164 162 162.848 162 161.441C162 159.761 161.603 159.127 160.845 159.595C160.185 160.004 159.96 159.873 160.32 159.291C161.093 158.041 157.333 150 155.977 150C155.439 150 155 150.241 155 150.535ZM142.459 152.067C142.096 152.653 142.014 153.348 142.276 153.61C142.538 153.872 143.019 153.392 143.345 152.543C144.021 150.781 143.445 150.471 142.459 152.067ZM138.143 159.639C138.18 162.74 138.558 164.715 138.984 164.026C139.592 163.042 139.89 163.066 140.372 164.137C140.71 164.887 140.754 163.7 140.47 161.5C140.187 159.3 139.868 156.713 139.763 155.75C139.658 154.787 139.235 154 138.823 154C138.412 154 138.106 156.538 138.143 159.639ZM179 166.441C179 167.298 179.45 168 180 168C180.55 168 181 167.577 181 167.059C181 166.541 180.55 165.84 180 165.5C179.45 165.16 179 165.584 179 166.441ZM139.158 170C139.158 171.375 139.385 171.938 139.662 171.25C139.94 170.563 139.94 169.438 139.662 168.75C139.385 168.063 139.158 168.625 139.158 170ZM148.079 177.583C148.127 178.748 148.364 178.985 148.683 178.188C148.972 177.466 148.936 176.603 148.604 176.271C148.272 175.939 148.036 176.529 148.079 177.583ZM150.012 184.583C150.018 185.088 150.688 187.975 151.5 191C152.312 194.025 152.982 197.32 152.988 198.323C153.007 201.17 149.882 199.949 147.285 196.095C146.028 194.23 145 193.36 145 194.161C145 194.962 145.661 196.491 146.468 197.559C147.276 198.626 147.951 200.078 147.968 200.784C147.986 201.49 149.417 203.452 151.148 205.145C155.924 209.814 156.487 207.268 153.42 194.871C151.095 185.475 149.98 182.108 150.012 184.583ZM143.825 189.674C144.251 191.767 144.503 192.019 144.794 190.644C145.011 189.623 144.751 188.351 144.218 187.818C143.592 187.192 143.452 187.849 143.825 189.674ZM172.281 195.968C172.823 198.04 168.447 203.333 164.168 205.781C162.105 206.961 161.817 206.804 160.504 203.781C158.609 199.421 158.64 200.953 160.58 207.626L162.16 213.061L165.83 212.379C167.913 211.992 170.472 210.574 171.747 209.099C172.982 207.669 174.557 206.48 175.247 206.455C175.936 206.43 176.369 205.812 176.209 205.082C176.027 204.25 176.494 203.975 177.459 204.346C179.495 205.127 179.433 204.788 176.483 198.967C174.004 194.074 171.277 192.128 172.281 195.968ZM42.522 206.964C42.194 207.494 43.637 209.008 45.728 210.328C49.738 212.86 52.844 215.989 51.372 216.015C50.893 216.024 51.018 216.361 51.65 216.765C52.782 217.488 53.351 219.385 53.118 221.656C53.052 222.305 52.122 222.583 51 222.29C48.666 221.679 48.237 224.085 50.306 226.179C51.024 226.905 52.003 228.4 52.482 229.5C53.322 231.431 53.365 231.423 53.745 229.25C54.319 225.972 55.678 226.494 57 230.5C57.635 232.425 58.57 234 59.078 234C59.585 234 60 234.675 60 235.5C60 238.823 61.9 236.707 62.83 232.351C63.822 227.697 62.797 223 60.788 223C59.97 223 56.701 216.572 56.561 214.685C56.527 214.237 54.807 212.364 52.738 210.523C50.319 208.37 49.426 206.993 50.238 206.666C50.932 206.387 49.614 206.122 47.309 206.079C45.004 206.036 42.85 206.434 42.522 206.964ZM58 209.378C58 209.585 58.788 210.373 59.75 211.128C61.336 212.371 61.371 212.336 60.128 210.75C58.821 209.084 58 208.555 58 209.378ZM61.564 214.293C61.94 215.279 62.499 215.834 62.807 215.526C63.115 215.219 62.808 214.412 62.124 213.733C61.136 212.753 61.022 212.868 61.564 214.293ZM64.079 222.583C64.127 223.748 64.364 223.985 64.683 223.188C64.972 222.466 64.936 221.603 64.604 221.271C64.272 220.939 64.036 221.529 64.079 222.583ZM60.092 225.075C62.088 227.673 62.619 231 61.036 231C60.077 231 55 224.151 55 222.856C55 221.346 58.346 222.805 60.092 225.075ZM64 231.167C64 232.175 64.398 233 64.883 233C65.369 233 65.982 232.175 66.246 231.167C66.538 230.051 66.192 229.333 65.363 229.333C64.613 229.333 64 230.158 64 231.167Z" fill="#605856"/>
</svg>
