<svg width="220" height="246" viewBox="0 0 220 246" fill="none" xmlns="http://www.w3.org/2000/svg">
<path fill-rule="evenodd" clip-rule="evenodd" d="M101.054 1.667C98.584 2.573 94.506 5.399 91.881 8.024C87.551 12.353 86.772 13.886 84.5 22.535C84.35 23.104 80.239 25.082 75.364 26.931C63.154 31.562 53.09 37.358 44.371 44.783C38.582 49.712 36.616 50.872 35.246 50.165C28.804 46.839 17.332 48.324 10.831 53.325C8.562 55.071 5.328 58.95 3.646 61.944C1.088 66.497 0.592004 68.46 0.611004 73.944C0.636004 81.416 2.341 85.538 7.738 91.173L11.256 94.846L9.878 101.673C8.113 110.418 8.111 136.483 9.874 144.356L11.186 150.213L8.18 153.356C-1.502 163.482 -2.126 177.651 6.657 187.913C13.259 195.625 24.865 199.035 33.852 195.902C36.827 194.864 37.32 195.076 42.751 199.729C53.293 208.759 64.225 215.091 76.998 219.564C83.978 222.009 84.213 222.252 85.985 228.875C87.62 234.988 94.952 242.159 101.939 244.48C115.877 249.109 131.856 239.947 134.509 225.804C135.169 222.284 135.455 222.081 144.153 218.945C155.032 215.022 167.569 207.697 176.023 200.324C180.891 196.079 182.776 194.998 184.402 195.522C185.556 195.894 189.251 196.427 192.612 196.707C202.94 197.566 211.737 192.324 216.581 182.424C218.913 177.658 219.201 176.058 218.783 170.212C218.234 162.535 216.471 158.525 211.542 153.738L208.088 150.383L209.73 143.942C211.992 135.068 211.996 110.948 209.737 102.09L208.103 95.68L212.363 90.942C221.279 81.024 221.431 66.762 212.719 57.311C205.533 49.515 196.94 46.809 187.332 49.316L182.164 50.665L176.455 45.793C165.704 36.619 154.725 30.349 141.842 26.026C135.561 23.919 135.145 23.587 134.506 20.181C131.836 5.949 114.915 -3.416 101.054 1.667ZM118.674 12.522C121.019 14.058 124.989 19.609 124.996 21.361C125.002 22.664 117.752 21.033 116.55 19.462C113.748 15.8 107.169 15.799 103.002 19.458C100.846 21.352 95 22.466 95 20.984C95 18.221 98.796 13.587 102.5 11.826C107.143 9.62 114.743 9.947 118.674 12.522ZM103.066 32.035C104.482 32.793 105 34.139 105 37.061V41.051L102.061 39.531C98.941 37.918 96 34.398 96 32.277C96 30.741 100.367 30.591 103.066 32.035ZM123.688 32.545C124.135 33.911 118.168 40 116.381 40C114.616 40 114.51 33.89 116.245 32.155C117.687 30.713 123.183 31.001 123.688 32.545ZM86.546 36.146C87.72 39.844 94.681 46.509 99.947 48.975C102.726 50.277 105 51.898 105 52.577C105 53.31 102.864 54.103 99.75 54.527C84.309 56.627 66.855 66.533 56.786 78.911C51.549 85.349 50.087 84.784 50.746 76.576C51.289 69.807 49.179 61.224 46.406 58.922C45.122 57.857 45.298 57.293 47.711 54.744C53.94 48.161 67.6 39.813 78.5 35.928C85.063 33.589 85.741 33.607 86.546 36.146ZM142.076 36.382C150.668 39.499 154.051 41.274 162.587 47.148C172.249 53.796 174.793 56.58 173.231 58.795C170.031 63.336 168.895 67.734 169.099 74.795C169.359 83.78 167.92 86.008 164.768 81.5C161.304 76.544 151.551 67.723 145.506 64.077C138.955 60.125 126.637 55.579 119.75 54.572C116.691 54.125 115 53.382 115 52.486C115 51.72 117.137 50.148 119.75 48.993C125.483 46.458 129.523 42.784 132.112 37.75C133.173 35.688 134.371 34 134.775 34C135.178 34 138.464 35.072 142.076 36.382ZM30 58.535C30 60.409 26.392 63.975 23.954 64.51C18.496 65.709 14.402 72.927 16.922 76.908C17.761 78.233 16.667 82.252 14.891 84.369C14.49 84.847 13.176 83.305 11.971 80.943C6.695 70.602 14.208 58 25.648 58C28.042 58 30 58.241 30 58.535ZM200.626 59.627C209.408 63.794 212.483 76.389 206.369 83.145C204.684 85.007 204.612 84.983 203.428 82.167C202.76 80.579 202.422 77.304 202.676 74.89C203.068 71.172 202.739 70.079 200.529 67.75C199.093 66.237 197.242 65 196.414 65C194.705 65 190 60.632 190 59.045C190 57.436 196.791 57.807 200.626 59.627ZM105 89.059C105 102.841 104.662 113.931 104.25 113.701C100.632 111.692 69.413 93.651 69.122 93.402C68.496 92.865 77.589 78.807 81.527 74.224C83.547 71.872 86.559 69.245 88.219 68.387C90.632 67.139 100.565 64.47 104.25 64.079C104.662 64.036 105 75.277 105 89.059ZM130.901 68.449C132.442 69.246 135.195 71.597 137.019 73.674C140.628 77.785 150 91.771 150 93.046C150 93.751 144.985 96.791 122 110.018L115.5 113.759L115.231 90.149C115.084 77.164 115.169 66.002 115.421 65.344C115.956 63.952 126.163 65.999 130.901 68.449ZM39.573 66.118C40.743 68.012 41.873 74.166 41.317 75.616C40.885 76.741 40.267 76.68 37.894 75.278C34.132 73.056 33.442 70.637 35.689 67.551C37.706 64.781 38.553 64.468 39.573 66.118ZM183.171 66.655C185.894 69.119 185.449 72.544 182.096 74.932C180.498 76.069 178.923 77 178.596 77C177.612 77 177.923 71.519 179.098 68.149C180.362 64.523 180.685 64.405 183.171 66.655ZM33.174 83.59C35.892 84.995 36.077 85.352 34.765 86.664C32.955 88.474 25.807 90.207 24.703 89.103C23.578 87.978 25.951 83.18 27.889 82.662C28.775 82.426 29.635 82.18 29.8 82.116C29.964 82.052 31.483 82.715 33.174 83.59ZM191.455 82.621C193.582 83.437 196.309 88.691 195.019 89.488C193.915 90.171 187.266 88.515 185 86.993C183.727 86.138 183.878 85.688 186 84.015C188.78 81.824 189.139 81.732 191.455 82.621ZM47.175 92C47.214 92.275 45.992 96.325 44.461 101C42.303 107.592 41.578 112.016 41.232 120.708C40.834 130.731 41.074 132.897 43.503 141.208C44.996 146.318 46.447 151.287 46.726 152.25C47.44 154.712 45.272 154.445 41.558 151.612C37.261 148.335 29.388 145.819 24.535 146.172L20.5 146.465L19.2 141.483C17.493 134.943 17.493 111.062 19.2 104.5L20.5 99.5L27.155 98.842C34.312 98.134 39.75 96.039 42.598 92.892C44.164 91.162 46.982 90.612 47.175 92ZM179.054 94.443C183.775 97.691 186.949 98.59 196 99.246C199.483 99.499 199.506 99.532 200.642 106C202.158 114.631 202.264 129.142 200.878 138.459L199.757 146H195.56C189.43 146 181.449 148.667 177.683 151.974C172.333 156.671 171.294 154.697 174.477 145.883C179.772 131.216 179.749 113.737 174.417 99.782C172.186 93.944 171.906 91 173.583 91C173.839 91 176.301 92.549 179.054 94.443ZM76.12 108.651C82.379 112.309 90.347 116.97 93.826 119.008L100.152 122.715L86.826 130.496C79.497 134.775 71.372 139.555 68.77 141.117L64.04 143.957L58.52 134.578C55.484 129.419 53 124.021 53 122.582C53 119.881 62.499 102 63.934 102C64.378 102 69.862 104.993 76.12 108.651ZM160.887 110.992C163.699 115.938 166 120.947 166 122.123C166 124.506 156.113 143 154.838 143C154.392 143 150.309 140.803 145.764 138.118C141.219 135.432 134.35 131.416 130.5 129.192C118.622 122.332 118.865 123.004 126.623 118.461C130.345 116.283 138.139 111.708 143.945 108.296C149.75 104.885 154.787 102.072 155.137 102.046C155.488 102.021 158.075 106.046 160.887 110.992ZM105 152.5V174H94.111C85.154 174 82.873 173.689 81.259 172.25C78.309 169.619 68.739 152.854 69.68 151.966C70.131 151.541 76.125 147.927 83 143.936C89.875 139.945 97.525 135.433 100 133.909C102.475 132.386 104.612 131.108 104.75 131.07C104.888 131.031 105 140.675 105 152.5ZM133.862 142.165C142.463 147.194 149.656 151.432 149.846 151.583C150.639 152.215 138.739 172.069 137.013 172.993C135.978 173.547 130.602 174 125.066 174H115V152.893C115 133.89 115.161 131.848 116.612 132.405C117.499 132.745 125.261 137.137 133.862 142.165ZM32.782 157.568L36.5 159.136L34.139 161.068C32.841 162.131 30.729 163 29.446 163C27.126 163 24 159.715 24 157.277C24 155.53 28.287 155.672 32.782 157.568ZM196 156.55C196 156.852 195.313 158.427 194.474 160.05C192.828 163.233 190.673 163.719 186.547 161.839C183.292 160.356 183.336 159.424 186.75 157.572C189.389 156.14 196 155.41 196 156.55ZM16.471 163.944C17.622 166.169 17.745 167.541 16.975 169.565C15.611 173.152 18.309 177.808 23.312 180.5C25.356 181.6 27.688 183.463 28.493 184.639C29.827 186.587 29.779 186.824 27.955 187.302C25.517 187.939 19.488 186.366 16.258 184.249C12.453 181.757 9.699 175.363 10.265 170.338C10.691 166.562 13.212 161 14.497 161C14.746 161 15.634 162.325 16.471 163.944ZM207.254 163.265C212.898 171.879 207.915 183.997 197.552 186.858C194.133 187.802 189.967 187.4 190.033 186.133C190.112 184.626 193.965 181 195.487 181C196.404 181 198.515 179.638 200.18 177.974C202.804 175.35 203.148 174.389 202.774 170.724C202.333 166.414 203.563 161 204.983 161C205.416 161 206.438 162.019 207.254 163.265ZM60.208 170.345C64.768 174.935 71.311 180.32 74.747 182.312C80.797 185.819 93.57 190.239 101.25 191.483C106.486 192.331 106.008 194.511 100.023 197.085C95.621 198.979 87.026 206.654 86.985 208.728C86.925 211.713 85.22 211.964 78.937 209.911C68.996 206.662 57.067 199.669 48.936 192.323L45.293 189.032L48.214 183.266C50.701 178.357 51.109 176.459 50.961 170.5C50.765 162.682 50.805 162 51.458 162C51.709 162 55.647 165.755 60.208 170.345ZM169.1 170.134C168.872 177.901 170.362 183.532 173.586 187.095C174.958 188.611 174.613 189.165 169.798 193.173C160.481 200.927 152.228 205.742 141.806 209.504C135.028 211.951 134.428 212.018 133.5 210.426C129.906 204.262 125.923 200.215 120.993 197.719C117.972 196.189 115.333 194.45 115.128 193.853C114.622 192.377 116.957 191.034 120.062 191.015C123.499 190.995 138.514 185.833 143.5 182.959C149.746 179.358 157.805 172.509 162.303 166.979C168.032 159.937 169.38 160.562 169.1 170.134ZM41.333 170.425C41.835 171.734 40.461 178.382 39.287 180.325C38.62 181.429 34 177.021 34 175.28C34 173.734 38.408 169 39.848 169C40.364 169 41.032 169.641 41.333 170.425ZM182.535 170.615C185.461 172.532 185.729 175.878 183.208 178.992C181.584 180.996 181.29 181.054 180.085 179.602C179.353 178.72 178.526 175.974 178.247 173.499C177.685 168.513 178.495 167.968 182.535 170.615ZM105 209.521C105 213.794 101.869 215.79 97.47 214.323L94.743 213.414L98.24 209.707C102.787 204.886 105 204.825 105 209.521ZM121.042 209.544C123.891 212.483 124.223 213.248 122.988 214.028C120.915 215.339 117.629 215.229 116.2 213.8C114.554 212.154 114.636 206 116.304 206C117.021 206 119.153 207.595 121.042 209.544ZM102.595 226.115C106.644 230.61 113.391 230.541 117.534 225.962C119.279 224.034 125 223.183 125 224.852C125 226.964 120.137 232.663 116.98 234.248C112.702 236.398 108.225 236.476 103.27 234.486C99.7 233.053 95 227.768 95 225.188C95 223.174 100.556 223.852 102.595 226.115Z" fill="black"/>
</svg>
