<svg width="125" height="125" viewBox="0 0 125 125" fill="none" xmlns="http://www.w3.org/2000/svg">
<g clip-path="url(#clip0_1_2)">
<path fill-rule="evenodd" clip-rule="evenodd" d="M0 62.5V125H62.5H125V62.5V0H62.5H0V62.5Z" fill="#9DA3A3"/>
<path fill-rule="evenodd" clip-rule="evenodd" d="M0 62.5V125H62.5H125V62.5V0H62.5H0V62.5ZM74.443 61.9832C76.291 66.903 76.416 74.3955 74.718 78.5224C73.155 82.3246 71 80.9944 71 76.2276C71 74.1996 71.403 73.0056 71.895 73.5728C72.388 74.1418 73.048 73.3507 73.364 71.8172C73.719 70.0896 73.353 69.0299 72.401 69.0299C71.29 69.0299 71.052 67.9328 71.54 65.0653C71.994 62.3974 71.852 61.5168 71.107 62.3769C70.498 63.0784 70 66.0933 70 69.0746C70 76.5485 67.257 78.9198 60.444 77.3321C57.45 76.6343 54.932 75.1101 54.849 73.9459C54.766 72.7817 54.654 69.2015 54.599 65.9888C54.508 60.6325 54.691 60.2854 56.815 61.791C60.12 64.1343 65.016 63.6791 68.5 60.7015C72.563 57.2313 72.668 57.2537 74.443 61.9832ZM60.342 95.7556C60.704 95.0802 61 95.5075 61 96.7034C61 99.8974 59.445 99.3563 57.872 95.6157C56.658 92.7276 56.683 92.6175 58.092 94.666C58.968 95.9403 59.98 96.431 60.342 95.7556ZM68.592 98.7575C70.369 98.1325 71.109 98.9067 70.498 100.752C69.698 103.168 65.994 99.6418 66.015 96.4832C66.026 94.8321 66.255 94.8769 66.857 96.6474C67.311 97.9832 68.092 98.9347 68.592 98.7575ZM65.362 116.604C64.905 118.823 65.688 119.414 69.143 119.459C72.528 119.504 73.118 119.933 71.788 121.379C68.73 124.705 62.995 120.215 64.5 115.672C65.441 112.83 66.011 113.448 65.362 116.604Z" fill="#83B9A1"/>
<path fill-rule="evenodd" clip-rule="evenodd" d="M0 62.5V125H62.5H125V62.5V0H62.5H0V62.5ZM74.443 61.9832C76.291 66.903 76.416 74.3955 74.718 78.5224C73.155 82.3246 71 80.9944 71 76.2276C71 74.1996 71.403 73.0056 71.895 73.5728C72.388 74.1418 73.048 73.3507 73.364 71.8172C73.719 70.0896 73.353 69.0299 72.401 69.0299C71.29 69.0299 71.052 67.9328 71.54 65.0653C71.994 62.3974 71.852 61.5168 71.107 62.3769C70.498 63.0784 70 66.0933 70 69.0746C70 76.5485 67.257 78.9198 60.444 77.3321C57.45 76.6343 54.932 75.1101 54.849 73.9459C54.766 72.7817 54.654 69.2015 54.599 65.9888C54.508 60.6325 54.691 60.2854 56.815 61.791C60.12 64.1343 65.016 63.6791 68.5 60.7015C72.563 57.2313 72.668 57.2537 74.443 61.9832ZM57.768 83.9552C58.455 86.0075 59.613 87.6866 60.341 87.6866C61.069 87.6866 62.148 90.625 62.739 94.2164L63.813 100.746H60.406C58.371 100.746 56.982 99.8078 56.956 98.4142C56.932 97.1325 56.543 92.5131 56.091 88.153C55.2 79.5597 55.797 78.0653 57.768 83.9552ZM70.25 85.4645C69.917 88.4216 71.695 88.3265 72.338 85.3545C72.615 84.0728 72.878 87.5243 72.921 93.0243L73 103.028L69.252 101.716C67.191 100.994 65.173 99.431 64.768 98.2425C63.456 94.3974 63.922 87.6866 65.5 87.6866C66.325 87.6866 66.947 87.0578 66.882 86.2873C66.596 82.9104 67.117 81.8638 68.75 82.5299C69.713 82.9235 70.388 84.2444 70.25 85.4645ZM58.5 95.1493C58.84 96.1754 59.316 97.0149 59.559 97.0149C59.802 97.0149 60 96.1754 60 95.1493C60 94.1231 59.523 93.2836 58.941 93.2836C58.359 93.2836 58.16 94.1231 58.5 95.1493ZM67 97.0149C67 98.041 67.477 98.8806 68.059 98.8806C68.641 98.8806 68.84 98.041 68.5 97.0149C68.16 95.9888 67.684 95.1493 67.441 95.1493C67.198 95.1493 67 95.9888 67 97.0149ZM58.5 104.478C58.84 105.504 58.641 106.343 58.059 106.343C57.477 106.343 57 105.504 57 104.478C57 103.451 57.198 102.612 57.441 102.612C57.684 102.612 58.16 103.451 58.5 104.478ZM62.729 103.739C62.397 104.358 61.534 104.425 60.813 103.886C60.015 103.291 60.252 102.849 61.417 102.759C62.471 102.679 63.061 103.119 62.729 103.739ZM65.643 105.41C64.818 106.95 63.643 108.209 63.032 108.209C61.423 108.209 64.168 102.772 65.821 102.683C66.833 102.629 66.791 103.269 65.643 105.41ZM65.362 116.604C64.905 118.823 65.688 119.414 69.143 119.459C72.528 119.504 73.118 119.933 71.788 121.379C68.73 124.705 62.995 120.215 64.5 115.672C65.441 112.83 66.011 113.448 65.362 116.604Z" fill="#879077"/>
<path fill-rule="evenodd" clip-rule="evenodd" d="M64.667 4.97575C64.3 5.65859 64 8.14552 64 10.5C64 13.8787 63.21 15.166 60.25 16.6063C56.676 18.3433 41.544 24.2537 40.667 24.2537C39.826 24.2537 39.182 34.666 39.709 39.7388C40.366 46.056 46.262 54.1045 50.232 54.1045C53.397 54.1045 53.388 54.0541 51.856 63.5933C50.868 69.7444 51.007 71.9925 52.871 80.0784C55.934 93.3619 56.649 104.881 54.607 108.043C52.705 110.989 52.523 115.901 54.2 119.03C56.317 122.979 62.563 121.774 64.357 117.071C65.238 114.763 65.713 114.254 65.413 115.94C64.969 118.437 65.735 119.136 69.52 119.698C72.08 120.078 74.458 119.537 74.806 118.496C75.154 117.455 75.576 108.629 75.743 98.8806C75.91 89.1325 76.313 77.5056 76.638 73.0429C77.107 66.597 76.802 63.8507 75.154 59.6903C73.337 55.1063 73.053 51.4627 72.876 30.4907C72.765 17.3134 72.495 5.89739 72.276 5.125C72.058 4.35261 71.033 4.5653 70 5.59702C68.745 6.85075 67.916 6.85261 67.502 5.60261C66.786 3.44217 65.626 3.18657 64.667 4.97575ZM74.839 62.5877C76.401 68.9813 76.301 75.0224 74.561 79.4011C73.239 82.7295 72.99 82.7799 71.49 80.0243C69.98 77.25 69.98 76.7948 71.5 73.9608C72.404 72.2743 72.692 70.8955 72.141 70.8955C71.59 70.8955 70.944 69.0056 70.706 66.6978C70.363 63.3769 70.241 63.6698 70.121 68.097C69.861 77.6922 68.869 78.9235 62.133 78.0149C55.214 77.0821 55.242 77.1101 54.077 69.5336C52.802 61.2351 53.789 59.6175 58.653 62.0392C61.995 63.7034 63.516 63.5336 66.641 61.1474C72.127 56.9552 73.524 57.2015 74.839 62.5877ZM53.39 73.694C53.88 77.7817 53.787 78.5354 53.046 76.4925C52.487 74.9534 52.024 72.0858 52.015 70.1175C51.995 65.3452 52.567 66.834 53.39 73.694ZM59.079 84.7257C61.021 87.7743 62.665 88.8787 64.17 88.1437C66.23 87.1399 66.254 86.9683 64.498 85.819C62.888 84.7668 63.084 84.2649 65.793 82.5037C68.186 80.9478 69.547 80.9851 71.242 82.6586C73.152 84.5448 73.452 86.1511 73.185 93.0989C72.996 98.0392 73.345 101.856 74.063 102.685C75.454 104.289 74.436 108.278 72.691 108.062C71.839 107.957 71.857 107.646 72.756 106.97C74.724 105.491 73.151 102.612 70.375 102.612C68.997 102.612 66.998 101.743 65.934 100.681C64.87 99.6175 64 99.4739 64 100.358C64 101.243 62.578 101.576 60.84 101.101C58.227 100.384 57.789 100.763 58.309 103.289C58.655 104.968 58.563 106.343 58.105 106.343C57.647 106.343 56.994 102.565 56.655 97.9496C56.316 93.3321 55.756 87.4552 55.411 84.8899C54.625 79.0522 55.441 79.0149 59.079 84.7257ZM63.079 94.3713C63.127 96.5448 63.364 96.9869 63.683 95.5C63.972 94.153 63.936 92.5429 63.604 91.9235C63.272 91.3041 63.036 92.4049 63.079 94.3713ZM62.729 103.739C62.397 104.358 61.534 104.425 60.813 103.886C60.015 103.291 60.252 102.849 61.417 102.759C62.471 102.679 63.061 103.119 62.729 103.739ZM66 105.41C65.315 106.95 63.798 108.112 62.628 107.993C60.938 107.821 60.86 107.601 62.25 106.924C63.212 106.453 64 105.291 64 104.341C64 103.39 64.73 102.612 65.622 102.612C66.951 102.612 67.02 103.118 66 105.41ZM64 121.177C64 122.424 52.851 123.261 31.75 123.601C14.012 123.888 27.812 124.319 62.417 124.56C97.021 124.802 125.125 124.61 124.869 124.134C124.614 123.659 111.614 123.168 95.981 123.045C80.163 122.922 66.768 122.035 65.778 121.047C64.613 119.884 64 119.929 64 121.177Z" fill="#757B65"/>
<path fill-rule="evenodd" clip-rule="evenodd" d="M64.748 6.68844C63.964 8.15112 65.089 14.9254 66.117 14.9254C67.253 14.9254 67.272 7.99627 66.139 6.6903C65.666 6.14552 65.04 6.14366 64.748 6.68844ZM69.465 7.56903C69.106 8.65299 69.107 11.7388 69.469 14.4235C70.014 18.4757 69.886 18.9384 68.721 17.1325C67.948 15.9366 67.022 15.5056 66.662 16.1772C66.303 16.847 64.413 17.2836 62.463 17.1474C60.513 17.0112 59.148 17.5933 59.429 18.4403C59.71 19.2892 58.761 19.5634 57.321 19.0504C55.719 18.4776 54.943 18.8396 55.321 19.9832C55.699 21.125 54.923 21.4869 53.321 20.916C51.881 20.4011 50.948 20.7332 51.248 21.6511C51.548 22.569 49.84 23.4235 47.453 23.5466C40.735 23.8974 40 24.9403 40 34.1306C40 43.9552 42.636 49.4291 49.143 53.1213C51.539 54.4795 53.405 56.4179 53.289 57.4272C53.088 59.1791 59.874 58.903 66.3 56.8993C68.193 56.3097 68.876 56.6996 68.411 58.1063C67.993 59.3657 68.269 59.8153 69.111 59.2444C69.875 58.7257 70.393 57.3881 70.262 56.2705C70.131 55.153 70.581 54.6343 71.262 55.1194C72.182 55.7724 72.49 52.2817 72.461 41.5187C72.44 33.556 72.186 26.2034 71.896 25.181C71.606 24.1567 71.398 21.6418 71.434 19.5896C71.47 17.5373 71.05 15.2407 70.5 14.4869C69.916 13.6866 70.139 13.1045 71.036 13.0877C71.9 13.0728 72.571 11.4272 72.571 9.32836C72.571 5.37873 70.566 4.24441 69.465 7.56903ZM65.244 23.6269C64.553 24.1474 64.285 25.4702 64.648 26.5672C65.042 27.7556 64.836 28.0168 64.138 27.2108C62.761 25.625 63.588 22.3228 65.309 22.5355C66.161 22.6399 66.143 22.9515 65.244 23.6269ZM49.733 48.3022C49.653 50.2948 49.047 51.4384 48.34 50.9328C47.362 50.2332 47.352 49.4795 48.295 47.4776C49.866 44.1418 49.901 44.1623 49.733 48.3022ZM63.807 55.0858C63.499 55.6604 62.94 54.625 62.564 52.7854C62.022 50.1269 62.136 49.9123 63.124 51.7407C63.808 53.0075 64.115 54.5131 63.807 55.0858ZM54 77.5075C54 79.3433 54.282 80.319 54.627 79.6772C55.452 78.1362 61 83.5261 61 85.8694C61 86.8694 62.013 87.6269 63.25 87.556C65.317 87.4347 65.343 87.3097 63.566 86.0112C61.334 84.3806 62.202 83.0466 66.655 81.2668C68.53 80.5168 70.075 80.806 70.464 81.9795C70.824 83.0672 71.541 83.9552 72.059 83.9552C72.577 83.9552 72.215 82.4851 71.255 80.6903C69.876 78.1101 68.19 77.5578 63.213 78.0541C59.283 78.4478 56.367 77.8358 55.458 76.4272C54.273 74.5933 54 74.7948 54 77.5075ZM74.079 99.9683C74.127 102.142 74.364 102.584 74.683 101.097C74.972 99.75 74.936 98.1399 74.604 97.5205C74.272 96.9011 74.036 98.0019 74.079 99.9683ZM63.45 102.763C63.078 103.884 61.683 104.265 60.307 103.621C58.715 102.875 58.062 103.155 58.475 104.403C59.45 107.343 63.708 106.724 64.362 103.545C65.027 100.308 64.432 99.7985 63.45 102.763ZM67.962 104.159C67.158 104.642 66.266 105.7 65.979 106.507C65.692 107.317 62.968 108.241 59.926 108.562C55.506 109.024 54.366 109.799 54.259 112.407C54.185 114.201 54.659 115.685 55.312 115.7C56.022 115.716 55.896 116.457 55 117.537C54.139 118.575 53.998 119.358 54.668 119.375C55.311 119.39 56.661 119.901 57.668 120.511C59.192 121.435 59.248 121.282 58 119.608C56.703 117.868 56.737 117.591 58.25 117.565C59.37 117.549 60.028 116.026 60.079 113.34C60.151 109.532 60.251 109.618 61.162 114.272C61.715 117.095 62.579 119.403 63.083 119.403C64.444 119.403 64.194 116.129 62.75 115.041C62.063 114.524 62.625 114.021 64 113.925C65.992 113.785 66.195 113.382 65 111.94C64.175 110.946 63.801 110.119 64.168 110.103C64.536 110.088 65.661 109.576 66.668 108.966C68.192 108.043 68.248 108.196 67 109.869C65.667 111.659 65.667 111.892 67 111.968C68.183 112.035 68.13 112.455 66.75 113.955C64.044 116.896 64.675 119.403 68.122 119.403C70.952 119.403 71.116 119.097 69.872 116.138C68.629 113.179 68.664 113.114 70.25 115.433C71.213 116.841 72.034 117.681 72.077 117.299C72.8 110.731 72.671 110.069 70.662 109.991C68.852 109.92 68.989 109.515 71.5 107.509L74.5 105.112L71.962 104.196C70.566 103.692 68.766 103.675 67.962 104.159ZM73.643 111.032C73.963 112.584 73.702 115.028 73.063 116.463C72.368 118.026 72.281 119.507 72.847 120.159C73.366 120.757 74.063 119.924 74.395 118.306C75.318 113.819 75.116 108.209 74.031 108.209C73.499 108.209 73.324 109.479 73.643 111.032ZM65.853 123.606C66.357 124.547 67.834 125.004 69.135 124.621C71.136 124.034 70.996 123.772 68.219 122.912C66.231 122.299 65.298 122.571 65.853 123.606Z" fill="#37382F"/>
<path fill-rule="evenodd" clip-rule="evenodd" d="M65 11.194C65 13.2463 65.45 14.9254 66 14.9254C66.55 14.9254 67 13.2463 67 11.194C67 9.14179 66.55 7.46268 66 7.46268C65.45 7.46268 65 9.14179 65 11.194ZM69.494 9.34515C69.152 10.3806 69.173 13.0037 69.543 15.1754C70.005 17.8955 69.858 18.7127 69.07 17.806C68.441 17.0802 66.208 17.028 64.108 17.6903C60.798 18.7332 60.325 19.5 60.556 23.4384C60.881 28.9534 59.029 29.528 58.275 24.1474C57.904 21.5 57.235 20.6922 56.119 21.541C55.228 22.2164 51.648 23.2239 48.163 23.7798C42.767 24.6399 41.668 25.4384 40.762 29.1474C39.36 34.8862 40.842 44.4384 43.68 47.9534C45.64 50.3825 46.064 50.2537 48.002 46.6381L50.151 42.6287L49.826 46.9216C49.592 50.0056 50.063 51.416 51.5 51.9347C52.6 52.3302 53.86 53.8209 54.3 55.2444C55.287 58.4422 64.297 58.75 68.921 55.7425L72.14 53.6493L71.721 38.4851C71.49 30.1437 71.028 20.5653 70.694 17.1978C70.327 13.4963 70.465 11.5112 71.043 12.1772C71.57 12.7836 72 11.9701 72 10.3713C72 7.10448 70.447 6.46828 69.494 9.34515ZM67.132 22.1959C66.38 23.0858 65.415 24.8657 64.989 26.1511C64.425 27.8545 63.905 27.4086 63.072 24.5056C62.013 20.8116 62.169 20.5243 65.215 20.5504C67.458 20.5709 68.066 21.0933 67.132 22.1959ZM49.683 30.2015C49.364 31.6884 49.127 31.2463 49.079 29.0728C49.036 27.1063 49.272 26.0056 49.604 26.625C49.936 27.2444 49.972 28.8545 49.683 30.2015ZM64.885 49.6399C63.573 50.9963 61.6 52.1343 60.5 52.1698C59.081 52.2145 59.517 51.2519 62 48.8582C65.931 45.069 68.604 45.7929 64.885 49.6399ZM64 54.1045C64 55.1306 63.212 55.9571 62.25 55.9422C60.754 55.9179 60.718 55.6493 62 54.1045C63.887 51.8284 64 51.8284 64 54.1045ZM58.59 104.748C59.24 106.711 64.001 106.882 63.998 104.944C63.996 104.174 62.66 103.457 61.028 103.349C59.396 103.241 58.299 103.871 58.59 104.748ZM66 106.343C66 108.724 71.026 108.724 73 106.343C74.099 105.019 73.362 104.528 70.25 104.506C67.912 104.491 66 105.317 66 106.343ZM54.466 112.043C53.63 114.567 55.676 117.466 58.323 117.509C60.929 117.55 60.035 111.157 57.334 110.435C56.154 110.119 54.864 110.843 54.466 112.043ZM65.667 115.05C64.217 117.754 65.147 119.403 68.122 119.403C70.785 119.403 71.061 118.991 70 116.604C68.687 113.651 66.782 112.968 65.667 115.05Z" fill="#D4CFBD"/>
<path fill-rule="evenodd" clip-rule="evenodd" d="M65 11.194C65 13.2463 65.45 14.9254 66 14.9254C66.55 14.9254 67 13.2463 67 11.194C67 9.14179 66.55 7.46268 66 7.46268C65.45 7.46268 65 9.14179 65 11.194ZM69.494 9.34515C69.152 10.3806 69.173 13.0037 69.543 15.1754C70.005 17.8955 69.858 18.7127 69.07 17.806C68.441 17.0802 66.208 17.028 64.108 17.6903C60.798 18.7332 60.325 19.5 60.556 23.4384C60.881 28.9534 59.029 29.528 58.275 24.1474C57.904 21.5 57.235 20.6922 56.119 21.541C55.228 22.2164 51.648 23.2239 48.163 23.7798C42.767 24.6399 41.668 25.4384 40.762 29.1474C39.36 34.8862 40.842 44.4384 43.68 47.9533C45.64 50.3825 46.064 50.2537 48.002 46.6381L50.151 42.6287L49.826 46.9216C49.592 50.0056 50.063 51.416 51.5 51.9347C52.6 52.3302 53.86 53.8209 54.3 55.2444C55.287 58.4422 64.297 58.75 68.921 55.7425L72.14 53.6492L71.721 38.4851C71.49 30.1437 71.028 20.5653 70.694 17.1978C70.327 13.4963 70.465 11.5112 71.043 12.1772C71.57 12.7836 72 11.9701 72 10.3713C72 7.10448 70.447 6.46828 69.494 9.34515ZM67.132 22.1959C66.38 23.0858 65.415 24.8657 64.989 26.1511C64.425 27.8545 63.905 27.4086 63.072 24.5056C62.013 20.8116 62.169 20.5243 65.215 20.5504C67.458 20.5709 68.066 21.0933 67.132 22.1959ZM49.683 30.2015C49.364 31.6884 49.127 31.2463 49.079 29.0728C49.036 27.1063 49.272 26.0056 49.604 26.625C49.936 27.2444 49.972 28.8545 49.683 30.2015ZM64.885 49.6399C63.573 50.9963 61.6 52.1343 60.5 52.1698C59.081 52.2145 59.517 51.2519 62 48.8582C65.931 45.069 68.604 45.7929 64.885 49.6399ZM64 54.1045C64 55.1306 63.212 55.9571 62.25 55.9422C60.754 55.9179 60.718 55.6492 62 54.1045C63.887 51.8284 64 51.8284 64 54.1045Z" fill="#A28342"/>
<path fill-rule="evenodd" clip-rule="evenodd" d="M40.944 28.181C38.314 37.347 42.934 52.5672 47.087 48.4216C49.499 46.0112 50.293 40.4739 49.493 31.6381C48.868 24.7407 48.602 24.2537 45.447 24.2537C43.038 24.2537 41.748 25.3787 40.944 28.181Z" fill="black"/>
</g>
<defs>
<clipPath id="clip0_1_2">
<rect width="125" height="125" rx="62.5" fill="white"/>
</clipPath>
</defs>
</svg>
