<svg width="125" height="67" viewBox="0 0 125 67" fill="none" xmlns="http://www.w3.org/2000/svg">
<path fill-rule="evenodd" clip-rule="evenodd" d="M0 33.5V67H62.5H125V33.5V0H62.5H0V33.5Z" fill="#9DA3A3"/>
<path fill-rule="evenodd" clip-rule="evenodd" d="M0 33.5V67H62.5H125V33.5V0H62.5H0V33.5ZM74.443 33.223C76.291 35.86 76.416 39.876 74.718 42.088C73.155 44.126 71 43.413 71 40.858C71 39.771 71.403 39.131 71.895 39.435C72.388 39.74 73.048 39.316 73.364 38.494C73.719 37.568 73.353 37 72.401 37C71.29 37 71.052 36.412 71.54 34.875C71.994 33.445 71.852 32.973 71.107 33.434C70.498 33.81 70 35.426 70 37.024C70 41.03 67.257 42.301 60.444 41.45C57.45 41.076 54.932 40.259 54.849 39.635C54.766 39.011 54.654 37.092 54.599 35.37C54.508 32.499 54.691 32.313 56.815 33.12C60.12 34.376 65.016 34.132 68.5 32.536C72.563 30.676 72.668 30.688 74.443 33.223ZM60.342 51.325C60.704 50.963 61 51.192 61 51.833C61 53.545 59.445 53.255 57.872 51.25C56.658 49.702 56.683 49.643 58.092 50.741C58.968 51.424 59.98 51.687 60.342 51.325ZM68.592 52.934C70.369 52.599 71.109 53.014 70.498 54.003C69.698 55.298 65.994 53.408 66.015 51.715C66.026 50.83 66.255 50.854 66.857 51.803C67.311 52.519 68.092 53.029 68.592 52.934ZM65.362 62.5C64.905 63.689 65.688 64.006 69.143 64.03C72.528 64.054 73.118 64.284 71.788 65.059C68.73 66.842 62.995 64.435 64.5 62C65.441 60.477 66.011 60.808 65.362 62.5Z" fill="#83B9A1"/>
<path fill-rule="evenodd" clip-rule="evenodd" d="M0 33.5V67H62.5H125V33.5V0H62.5H0V33.5ZM74.443 33.223C76.291 35.86 76.416 39.876 74.718 42.088C73.155 44.126 71 43.413 71 40.858C71 39.771 71.403 39.131 71.895 39.435C72.388 39.74 73.048 39.316 73.364 38.494C73.719 37.568 73.353 37 72.401 37C71.29 37 71.052 36.412 71.54 34.875C71.994 33.445 71.852 32.973 71.107 33.434C70.498 33.81 70 35.426 70 37.024C70 41.03 67.257 42.301 60.444 41.45C57.45 41.076 54.932 40.259 54.849 39.635C54.766 39.011 54.654 37.092 54.599 35.37C54.508 32.499 54.691 32.313 56.815 33.12C60.12 34.376 65.016 34.132 68.5 32.536C72.563 30.676 72.668 30.688 74.443 33.223ZM57.768 45C58.455 46.1 59.613 47 60.341 47C61.069 47 62.148 48.575 62.739 50.5L63.813 54H60.406C58.371 54 56.982 53.497 56.956 52.75C56.932 52.063 56.543 49.587 56.091 47.25C55.2 42.644 55.797 41.843 57.768 45ZM70.25 45.809C69.917 47.394 71.695 47.343 72.338 45.75C72.615 45.063 72.878 46.913 72.921 49.861L73 55.223L69.252 54.52C67.191 54.133 65.173 53.295 64.768 52.658C63.456 50.597 63.922 47 65.5 47C66.325 47 66.947 46.663 66.882 46.25C66.596 44.44 67.117 43.879 68.75 44.236C69.713 44.447 70.388 45.155 70.25 45.809ZM58.5 51C58.84 51.55 59.316 52 59.559 52C59.802 52 60 51.55 60 51C60 50.45 59.523 50 58.941 50C58.359 50 58.16 50.45 58.5 51ZM67 52C67 52.55 67.477 53 68.059 53C68.641 53 68.84 52.55 68.5 52C68.16 51.45 67.684 51 67.441 51C67.198 51 67 51.45 67 52ZM58.5 56C58.84 56.55 58.641 57 58.059 57C57.477 57 57 56.55 57 56C57 55.45 57.198 55 57.441 55C57.684 55 58.16 55.45 58.5 56ZM62.729 55.604C62.397 55.936 61.534 55.972 60.813 55.683C60.015 55.364 60.252 55.127 61.417 55.079C62.471 55.036 63.061 55.272 62.729 55.604ZM65.643 56.5C64.818 57.325 63.643 58 63.032 58C61.423 58 64.168 55.086 65.821 55.038C66.833 55.009 66.791 55.352 65.643 56.5ZM65.362 62.5C64.905 63.689 65.688 64.006 69.143 64.03C72.528 64.054 73.118 64.284 71.788 65.059C68.73 66.842 62.995 64.435 64.5 62C65.441 60.477 66.011 60.808 65.362 62.5Z" fill="#879077"/>
<path fill-rule="evenodd" clip-rule="evenodd" d="M64.667 2.667C64.3 3.033 64 4.366 64 5.628C64 7.439 63.21 8.129 60.25 8.901C56.676 9.832 41.544 13 40.667 13C39.826 13 39.182 18.581 39.709 21.3C40.366 24.686 46.262 29 50.232 29C53.397 29 53.388 28.973 51.856 34.086C50.868 37.383 51.007 38.588 52.871 42.922C55.934 50.042 56.649 56.216 54.607 57.911C52.705 59.49 52.523 62.123 54.2 63.8C56.317 65.917 62.563 65.271 64.357 62.75C65.238 61.513 65.713 61.24 65.413 62.144C64.969 63.482 65.735 63.857 69.52 64.158C72.08 64.362 74.458 64.072 74.806 63.514C75.154 62.956 75.576 58.225 75.743 53C75.91 47.775 76.313 41.543 76.638 39.151C77.107 35.696 76.802 34.224 75.154 31.994C73.337 29.537 73.053 27.584 72.876 16.343C72.765 9.28 72.495 3.161 72.276 2.747C72.058 2.333 71.033 2.447 70 3C68.745 3.672 67.916 3.673 67.502 3.003C66.786 1.845 65.626 1.708 64.667 2.667ZM74.839 33.547C76.401 36.974 76.301 40.212 74.561 42.559C73.239 44.343 72.99 44.37 71.49 42.893C69.98 41.406 69.98 41.162 71.5 39.643C72.404 38.739 72.692 38 72.141 38C71.59 38 70.944 36.987 70.706 35.75C70.363 33.97 70.241 34.127 70.121 36.5C69.861 41.643 68.869 42.303 62.133 41.816C55.214 41.316 55.242 41.331 54.077 37.27C52.802 32.822 53.789 31.955 58.653 33.253C61.995 34.145 63.516 34.054 66.641 32.775C72.127 30.528 73.524 30.66 74.839 33.547ZM53.39 39.5C53.88 41.691 53.787 42.095 53.046 41C52.487 40.175 52.024 38.638 52.015 37.583C51.995 35.025 52.567 35.823 53.39 39.5ZM59.079 45.413C61.021 47.047 62.665 47.639 64.17 47.245C66.23 46.707 66.254 46.615 64.498 45.999C62.888 45.435 63.084 45.166 65.793 44.222C68.186 43.388 69.547 43.408 71.242 44.305C73.152 45.316 73.452 46.177 73.185 49.901C72.996 52.549 73.345 54.595 74.063 55.039C75.454 55.899 74.436 58.037 72.691 57.921C71.839 57.865 71.857 57.698 72.756 57.336C74.724 56.543 73.151 55 70.375 55C68.997 55 66.998 54.534 65.934 53.965C64.87 53.395 64 53.318 64 53.792C64 54.266 62.578 54.445 60.84 54.19C58.227 53.806 57.789 54.009 58.309 55.363C58.655 56.263 58.563 57 58.105 57C57.647 57 56.994 54.975 56.655 52.501C56.316 50.026 55.756 46.876 55.411 45.501C54.625 42.372 55.441 42.352 59.079 45.413ZM63.079 50.583C63.127 51.748 63.364 51.985 63.683 51.188C63.972 50.466 63.936 49.603 63.604 49.271C63.272 48.939 63.036 49.529 63.079 50.583ZM62.729 55.604C62.397 55.936 61.534 55.972 60.813 55.683C60.015 55.364 60.252 55.127 61.417 55.079C62.471 55.036 63.061 55.272 62.729 55.604ZM66 56.5C65.315 57.325 63.798 57.948 62.628 57.884C60.938 57.792 60.86 57.674 62.25 57.311C63.212 57.059 64 56.436 64 55.927C64 55.417 64.73 55 65.622 55C66.951 55 67.02 55.271 66 56.5ZM64 64.951C64 65.619 52.851 66.068 31.75 66.25C14.012 66.404 27.812 66.635 62.417 66.764C97.021 66.894 125.125 66.791 124.869 66.536C124.614 66.281 111.614 66.018 95.981 65.952C80.163 65.886 66.768 65.411 65.778 64.881C64.613 64.258 64 64.282 64 64.951Z" fill="#757B65"/>
<path fill-rule="evenodd" clip-rule="evenodd" d="M64.748 3.585C63.964 4.369 65.089 8 66.117 8C67.253 8 67.272 4.286 66.139 3.586C65.666 3.294 65.04 3.293 64.748 3.585ZM69.465 4.057C69.106 4.638 69.107 6.292 69.469 7.731C70.014 9.903 69.886 10.151 68.721 9.183C67.948 8.542 67.022 8.311 66.662 8.671C66.303 9.03 64.413 9.264 62.463 9.191C60.513 9.118 59.148 9.43 59.429 9.884C59.71 10.339 58.761 10.486 57.321 10.211C55.719 9.904 54.943 10.098 55.321 10.711C55.699 11.323 54.923 11.517 53.321 11.211C51.881 10.935 50.948 11.113 51.248 11.605C51.548 12.097 49.84 12.555 47.453 12.621C40.735 12.809 40 13.368 40 18.294C40 23.56 42.636 26.494 49.143 28.473C51.539 29.201 53.405 30.24 53.289 30.781C53.088 31.72 59.874 31.572 66.3 30.498C68.193 30.182 68.876 30.391 68.411 31.145C67.993 31.82 68.269 32.061 69.111 31.755C69.875 31.477 70.393 30.76 70.262 30.161C70.131 29.562 70.581 29.284 71.262 29.544C72.182 29.894 72.49 28.023 72.461 22.254C72.44 17.986 72.186 14.045 71.896 13.497C71.606 12.948 71.398 11.6 71.434 10.5C71.47 9.4 71.05 8.169 70.5 7.765C69.916 7.336 70.139 7.024 71.036 7.015C71.9 7.007 72.571 6.125 72.571 5C72.571 2.883 70.566 2.275 69.465 4.057ZM65.244 12.664C64.553 12.943 64.285 13.652 64.648 14.24C65.042 14.877 64.836 15.017 64.138 14.585C62.761 13.735 63.588 11.965 65.309 12.079C66.161 12.135 66.143 12.302 65.244 12.664ZM49.733 25.89C49.653 26.958 49.047 27.571 48.34 27.3C47.362 26.925 47.352 26.521 48.295 25.448C49.866 23.66 49.901 23.671 49.733 25.89ZM63.807 29.526C63.499 29.834 62.94 29.279 62.564 28.293C62.022 26.868 62.136 26.753 63.124 27.733C63.808 28.412 64.115 29.219 63.807 29.526ZM54 41.544C54 42.528 54.282 43.051 54.627 42.707C55.452 41.881 61 44.77 61 46.026C61 46.562 62.013 46.968 63.25 46.93C65.317 46.865 65.343 46.798 63.566 46.102C61.334 45.228 62.202 44.513 66.655 43.559C68.53 43.157 70.075 43.312 70.464 43.941C70.824 44.524 71.541 45 72.059 45C72.577 45 72.215 44.212 71.255 43.25C69.876 41.867 68.19 41.571 63.213 41.837C59.283 42.048 56.367 41.72 55.458 40.965C54.273 39.982 54 40.09 54 41.544ZM74.079 53.583C74.127 54.748 74.364 54.985 74.683 54.188C74.972 53.466 74.936 52.603 74.604 52.271C74.272 51.939 74.036 52.529 74.079 53.583ZM63.45 55.081C63.078 55.682 61.683 55.886 60.307 55.541C58.715 55.141 58.062 55.291 58.475 55.96C59.45 57.536 63.708 57.204 64.362 55.5C65.027 53.765 64.432 53.492 63.45 55.081ZM67.962 55.829C67.158 56.088 66.266 56.655 65.979 57.088C65.692 57.522 62.968 58.017 59.926 58.189C55.506 58.437 54.366 58.852 54.259 60.25C54.185 61.212 54.659 62.007 55.312 62.015C56.022 62.024 55.896 62.421 55 63C54.139 63.556 53.998 63.976 54.668 63.985C55.311 63.993 56.661 64.267 57.668 64.594C59.192 65.089 59.248 65.007 58 64.11C56.703 63.177 56.737 63.029 58.25 63.015C59.37 63.006 60.028 62.19 60.079 60.75C60.151 58.709 60.251 58.755 61.162 61.25C61.715 62.763 62.579 64 63.083 64C64.444 64 64.194 62.245 62.75 61.662C62.063 61.385 62.625 61.115 64 61.064C65.992 60.989 66.195 60.773 65 60C64.175 59.467 63.801 59.024 64.168 59.015C64.536 59.007 65.661 58.733 66.668 58.406C68.192 57.911 68.248 57.993 67 58.89C65.667 59.849 65.667 59.974 67 60.015C68.183 60.051 68.13 60.276 66.75 61.08C64.044 62.656 64.675 64 68.122 64C70.952 64 71.116 63.836 69.872 62.25C68.629 60.664 68.664 60.629 70.25 61.872C71.213 62.627 72.034 63.077 72.077 62.872C72.8 59.352 72.671 58.997 70.662 58.955C68.852 58.917 68.989 58.7 71.5 57.625L74.5 56.34L71.962 55.849C70.566 55.579 68.766 55.57 67.962 55.829ZM73.643 59.513C73.963 60.345 73.702 61.655 73.063 62.424C72.368 63.262 72.281 64.056 72.847 64.405C73.366 64.726 74.063 64.279 74.395 63.412C75.318 61.007 75.116 58 74.031 58C73.499 58 73.324 58.681 73.643 59.513ZM65.853 66.253C66.357 66.757 67.834 67.002 69.135 66.797C71.136 66.482 70.996 66.342 68.219 65.881C66.231 65.552 65.298 65.698 65.853 66.253Z" fill="#37382F"/>
<path fill-rule="evenodd" clip-rule="evenodd" d="M65 6C65 7.1 65.45 8 66 8C66.55 8 67 7.1 67 6C67 4.9 66.55 4 66 4C65.45 4 65 4.9 65 6ZM69.494 5.009C69.152 5.564 69.173 6.97 69.543 8.134C70.005 9.592 69.858 10.03 69.07 9.544C68.441 9.155 66.208 9.127 64.108 9.482C60.798 10.041 60.325 10.452 60.556 12.563C60.881 15.519 59.029 15.827 58.275 12.943C57.904 11.524 57.235 11.091 56.119 11.546C55.228 11.908 51.648 12.448 48.163 12.746C42.767 13.207 41.668 13.635 40.762 15.623C39.36 18.699 40.842 23.819 43.68 25.703C45.64 27.005 46.064 26.936 48.002 24.998L50.151 22.849L49.826 25.15C49.592 26.803 50.063 27.559 51.5 27.837C52.6 28.049 53.86 28.848 54.3 29.611C55.287 31.325 64.297 31.49 68.921 29.878L72.14 28.756L71.721 20.628C71.49 16.157 71.028 11.023 70.694 9.218C70.327 7.234 70.465 6.17 71.043 6.527C71.57 6.852 72 6.416 72 5.559C72 3.808 70.447 3.467 69.494 5.009ZM67.132 11.897C66.38 12.374 65.415 13.328 64.989 14.017C64.425 14.93 63.905 14.691 63.072 13.135C62.013 11.155 62.169 11.001 65.215 11.015C67.458 11.026 68.066 11.306 67.132 11.897ZM49.683 16.188C49.364 16.985 49.127 16.748 49.079 15.583C49.036 14.529 49.272 13.939 49.604 14.271C49.936 14.603 49.972 15.466 49.683 16.188ZM64.885 26.607C63.573 27.334 61.6 27.944 60.5 27.963C59.081 27.987 59.517 27.471 62 26.188C65.931 24.157 68.604 24.545 64.885 26.607ZM64 29C64 29.55 63.212 29.993 62.25 29.985C60.754 29.972 60.718 29.828 62 29C63.887 27.78 64 27.78 64 29ZM58.59 56.145C59.24 57.197 64.001 57.289 63.998 56.25C63.996 55.837 62.66 55.453 61.028 55.395C59.396 55.337 58.299 55.675 58.59 56.145ZM66 57C66 58.276 71.026 58.276 73 57C74.099 56.29 73.362 56.027 70.25 56.015C67.912 56.007 66 56.45 66 57ZM54.466 60.055C53.63 61.408 55.676 62.962 58.323 62.985C60.929 63.007 60.035 59.58 57.334 59.193C56.154 59.024 54.864 59.412 54.466 60.055ZM65.667 61.667C64.217 63.116 65.147 64 68.122 64C70.785 64 71.061 63.779 70 62.5C68.687 60.917 66.782 60.551 65.667 61.667Z" fill="#D4CFBD"/>
<path fill-rule="evenodd" clip-rule="evenodd" d="M65 6C65 7.1 65.45 8 66 8C66.55 8 67 7.1 67 6C67 4.9 66.55 4 66 4C65.45 4 65 4.9 65 6ZM69.494 5.009C69.152 5.564 69.173 6.97 69.543 8.134C70.005 9.592 69.858 10.03 69.07 9.544C68.441 9.155 66.208 9.127 64.108 9.482C60.798 10.041 60.325 10.452 60.556 12.563C60.881 15.519 59.029 15.827 58.275 12.943C57.904 11.524 57.235 11.091 56.119 11.546C55.228 11.908 51.648 12.448 48.163 12.746C42.767 13.207 41.668 13.635 40.762 15.623C39.36 18.699 40.842 23.819 43.68 25.703C45.64 27.005 46.064 26.936 48.002 24.998L50.151 22.849L49.826 25.15C49.592 26.803 50.063 27.559 51.5 27.837C52.6 28.049 53.86 28.848 54.3 29.611C55.287 31.325 64.297 31.49 68.921 29.878L72.14 28.756L71.721 20.628C71.49 16.157 71.028 11.023 70.694 9.218C70.327 7.234 70.465 6.17 71.043 6.527C71.57 6.852 72 6.416 72 5.559C72 3.808 70.447 3.467 69.494 5.009ZM67.132 11.897C66.38 12.374 65.415 13.328 64.989 14.017C64.425 14.93 63.905 14.691 63.072 13.135C62.013 11.155 62.169 11.001 65.215 11.015C67.458 11.026 68.066 11.306 67.132 11.897ZM49.683 16.188C49.364 16.985 49.127 16.748 49.079 15.583C49.036 14.529 49.272 13.939 49.604 14.271C49.936 14.603 49.972 15.466 49.683 16.188ZM64.885 26.607C63.573 27.334 61.6 27.944 60.5 27.963C59.081 27.987 59.517 27.471 62 26.188C65.931 24.157 68.604 24.545 64.885 26.607ZM64 29C64 29.55 63.212 29.993 62.25 29.985C60.754 29.972 60.718 29.828 62 29C63.887 27.78 64 27.78 64 29Z" fill="#A28342"/>
<path fill-rule="evenodd" clip-rule="evenodd" d="M40.944 15.105C38.314 20.018 42.934 28.176 47.087 25.954C49.499 24.662 50.293 21.694 49.493 16.958C48.868 13.261 48.602 13 45.447 13C43.038 13 41.748 13.603 40.944 15.105Z" fill="black"/>
</svg>
