<svg width="32" height="64" viewBox="0 0 64 64" fill="none" xmlns="http://www.w3.org/2000/svg">
<path fill-rule="evenodd" clip-rule="evenodd" d="M0 32V64H32H64V32V0H32H0V32Z" fill="#C7F5D3"/>
<path fill-rule="evenodd" clip-rule="evenodd" d="M43 12C43 14.925 43.209 15.107 46.25 14.813C48.966 14.551 49.5 14.09 49.5 12C49.5 9.91 48.966 9.449 46.25 9.187C43.209 8.893 43 9.075 43 12ZM20.667 14.667C20.3 15.033 20 16.353 20 17.6C20 19.33 19.348 19.942 17.25 20.184C15.09 20.432 14.432 21.09 14.184 23.25C13.935 25.41 13.345 26 11.434 26C9.036 26 9 26.132 9 35C9 43.868 9.036 44 11.434 44C13.345 44 13.935 44.59 14.184 46.75C14.432 48.91 15.09 49.568 17.25 49.816C19.41 50.065 20 50.655 20 52.566C20 54.964 20.132 55 29 55C37.868 55 38 54.964 38 52.566C38 50.655 38.59 50.065 40.75 49.816C42.893 49.57 43.569 48.906 43.811 46.811C44.051 44.732 44.732 44.051 46.811 43.811C49.265 43.527 49.527 43.078 49.808 38.672C50.209 32.388 48.955 31 42.878 31C38.341 31 38 30.825 38 28.5C38 26.5 37.5 26 35.5 26C33.181 26 33 25.653 33 21.2C33 18.56 32.46 15.86 31.8 15.2C30.539 13.939 21.812 13.521 20.667 14.667ZM39.08 18.404C36.929 20.995 38.184 23.468 41.827 23.818C45.025 24.126 45.126 24.025 44.818 20.818C44.581 18.344 43.969 17.424 42.412 17.202C41.264 17.038 39.765 17.579 39.08 18.404ZM49 23.5C49 26.722 49.238 27 52 27C54.762 27 55 26.722 55 23.5C55 20.278 54.762 20 52 20C49.238 20 49 20.278 49 23.5ZM26.184 23.75C26.41 25.719 27.139 26.591 28.75 26.82C30.093 27.01 31 27.836 31 28.87C31 31.086 32.914 33 35.13 33C36.164 33 36.99 33.907 37.18 35.25C37.409 36.861 38.281 37.59 40.25 37.816C42.386 38.062 43 38.661 43 40.5C43 42.339 42.386 42.938 40.25 43.184C38.079 43.433 37.433 44.087 37.18 46.291L36.859 49.082L29.18 48.791C21.671 48.506 21.493 48.44 21.189 45.811C20.949 43.732 20.268 43.051 18.189 42.811C15.56 42.507 15.494 42.329 15.209 34.82L14.918 27.141L17.709 26.82C19.913 26.567 20.567 25.921 20.816 23.75C21.062 21.614 21.661 21 23.5 21C25.339 21 25.938 21.614 26.184 23.75Z" fill="#9CC1A6"/>
<path fill-rule="evenodd" clip-rule="evenodd" d="M43.362 10.5C42.404 12.995 43.789 15 46.469 15C48.615 15 49 14.543 49 12C49 9.457 48.615 9 46.469 9C45.076 9 43.678 9.675 43.362 10.5ZM20.667 15.667C20.3 16.033 20 17.127 20 18.097C20 19.153 19.114 19.989 17.791 20.18C16.393 20.383 15.369 21.418 15.001 23C14.583 24.8 13.652 25.59 11.673 25.82L8.924 26.14L9.212 34.777C9.488 43.066 9.601 43.438 12 43.998C13.552 44.361 14.618 45.396 14.811 46.73C15.001 48.033 15.967 48.999 17.27 49.189C18.604 49.382 19.639 50.448 20.002 52C20.562 54.399 20.934 54.512 29.223 54.788L37.86 55.076L38.18 52.327C38.41 50.348 39.2 49.417 41 48.999C42.554 48.638 43.618 47.605 43.811 46.27C44.003 44.95 44.965 44.003 46.311 43.811C48.231 43.538 48.537 42.793 48.8 37.75L49.1 32H43.616C38.378 32 38.119 31.877 37.816 29.25C37.568 27.09 36.91 26.432 34.75 26.184C32.126 25.882 32 25.618 32 20.434V15H26.667C23.733 15 21.033 15.3 20.667 15.667ZM39 21.066C39 23.822 39.279 24.101 41.75 23.816C43.91 23.568 44.568 22.91 44.816 20.75C45.101 18.279 44.822 18 42.066 18C39.311 18 39 18.311 39 21.066ZM49.411 21.371C48.299 24.268 49.432 26.5 52.014 26.5C54.11 26.5 54.5 26.029 54.5 23.5C54.5 21.148 54.013 20.431 52.246 20.18C50.923 19.992 49.751 20.485 49.411 21.371ZM26.184 23.75C26.432 25.91 27.09 26.568 29.25 26.816C31.41 27.065 32 27.655 32 29.566C32 31.478 32.522 32 34.434 32C36.345 32 36.935 32.59 37.184 34.75C37.432 36.91 38.09 37.568 40.25 37.816C42.386 38.062 43 38.661 43 40.5C43 42.339 42.386 42.938 40.25 43.184C38.09 43.432 37.432 44.09 37.184 46.25C36.868 48.99 36.839 49 29 49C21.161 49 21.132 48.99 20.816 46.25C20.568 44.09 19.91 43.432 17.75 43.184C15.01 42.868 15 42.839 15 35C15 27.161 15.01 27.132 17.75 26.816C19.91 26.568 20.568 25.91 20.816 23.75C21.062 21.614 21.661 21 23.5 21C25.339 21 25.938 21.614 26.184 23.75Z" fill="#86A58E"/>
<path fill-rule="evenodd" clip-rule="evenodd" d="M43.362 10.5C42.404 12.995 43.789 15 46.469 15C48.615 15 49 14.543 49 12C49 9.457 48.615 9 46.469 9C45.076 9 43.678 9.675 43.362 10.5ZM20.667 15.667C20.3 16.033 20 17.127 20 18.097C20 19.165 19.112 19.987 17.75 20.18C16.154 20.407 15.41 21.281 15.189 23.189C14.949 25.268 14.268 25.949 12.189 26.189C9.505 26.499 9.5 26.517 9.5 35V43.5L12.25 43.816C14.41 44.065 15 44.655 15 46.566C15 48.478 15.522 49 17.434 49C19.345 49 19.935 49.59 20.184 51.75L20.5 54.5H29C37.483 54.5 37.501 54.495 37.811 51.811C38.051 49.732 38.732 49.051 40.811 48.811C42.693 48.593 43.593 47.843 43.811 46.311C44.006 44.948 44.948 44.006 46.311 43.811C48.231 43.538 48.537 42.793 48.8 37.75L49.1 32H43.616C38.378 32 38.119 31.877 37.816 29.25C37.568 27.09 36.91 26.432 34.75 26.184C32.126 25.882 32 25.618 32 20.434V15H26.667C23.733 15 21.033 15.3 20.667 15.667ZM39.184 20.75C39.435 22.932 40.016 23.5 42 23.5C43.984 23.5 44.565 22.932 44.816 20.75C45.102 18.268 44.828 18 42 18C39.172 18 38.898 18.268 39.184 20.75ZM49.709 20.624C49.319 21.014 49 22.383 49 23.667C49 25.604 49.521 26 52.066 26C54.822 26 55.101 25.721 54.816 23.25C54.506 20.554 51.384 18.949 49.709 20.624ZM26 23.434C26 25.345 26.59 25.935 28.75 26.184C30.893 26.43 31.569 27.094 31.811 29.189C32.051 31.268 32.732 31.949 34.811 32.189C36.906 32.431 37.57 33.107 37.816 35.25C38.065 37.41 38.655 38 40.566 38C42.496 38 43 38.518 43 40.5C43 42.482 42.496 43 40.566 43C38.655 43 38.065 43.59 37.816 45.75C37.503 48.473 37.419 48.503 29.32 48.789L21.14 49.079L20.82 46.289C20.566 44.076 19.924 43.434 17.711 43.18L14.921 42.86L15.211 34.68C15.497 26.581 15.527 26.497 18.25 26.184C20.41 25.935 21 25.345 21 23.434C21 21.504 21.518 21 23.5 21C25.482 21 26 21.504 26 23.434Z" fill="#6F8976"/>
<path fill-rule="evenodd" clip-rule="evenodd" d="M43.362 10.5C42.404 12.995 43.789 15 46.469 15C48.615 15 49 14.543 49 12C49 9.457 48.615 9 46.469 9C45.076 9 43.678 9.675 43.362 10.5ZM21 16.8C21 17.79 20.46 19.14 19.8 19.8C19.14 20.46 17.79 21 16.8 21C15.56 21 15 21.757 15 23.434C15 25.345 14.41 25.935 12.25 26.184C9.527 26.497 9.497 26.581 9.211 34.68L8.921 42.86L11.711 43.18C13.895 43.431 14.567 44.083 14.811 46.189C15.051 48.268 15.732 48.949 17.811 49.189C19.917 49.433 20.569 50.105 20.82 52.289L21.14 55.079L29.32 54.789C37.419 54.503 37.503 54.473 37.816 51.75C38.065 49.59 38.655 49 40.566 49C42.243 49 43 48.44 43 47.2C43 46.21 43.54 44.86 44.2 44.2C44.86 43.54 46.21 43 47.2 43C48.715 43 49 42.13 49 37.5V32H43.566C38.382 32 38.118 31.874 37.816 29.25C37.568 27.09 36.91 26.432 34.75 26.184C32.126 25.882 32 25.618 32 20.434V15H26.5C21.87 15 21 15.285 21 16.8ZM39.176 20.676C39.435 22.935 40 23.5 42 23.5C44 23.5 44.5 23 44.5 21C44.5 19 43.935 18.435 41.676 18.176C39.108 17.882 38.882 18.108 39.176 20.676ZM26 23.434C26 25.345 26.59 25.935 28.75 26.184C30.893 26.43 31.569 27.094 31.811 29.189C32.051 31.268 32.732 31.949 34.811 32.189C36.906 32.431 37.57 33.107 37.816 35.25C38.065 37.41 38.655 38 40.566 38C43.915 38 44.119 42.699 40.791 43.18C39.394 43.382 38.367 44.419 37.999 46C37.442 48.385 37.037 48.513 29.208 48.79C21.799 49.053 21 48.902 21 47.24C21 44.886 19.114 43 16.76 43C15.098 43 14.947 42.201 15.21 34.792C15.487 26.963 15.615 26.558 18 26.001C19.581 25.633 20.618 24.606 20.82 23.209C21.301 19.881 26 20.085 26 23.434ZM49 23.5C49 25.611 49.467 26 52 26C54.533 26 55 25.611 55 23.5C55 21.389 54.533 21 52 21C49.467 21 49 21.389 49 23.5Z" fill="#586D5E"/>
<path fill-rule="evenodd" clip-rule="evenodd" d="M44 12C44 14.683 44.327 15.093 46.25 14.82C47.898 14.585 48.5 13.831 48.5 12C48.5 10.169 47.898 9.415 46.25 9.18C44.327 8.907 44 9.317 44 12ZM20.816 17.75C20.568 19.91 19.91 20.568 17.75 20.816C15.614 21.062 15 21.661 15 23.5C15 25.339 14.386 25.938 12.25 26.184C9.527 26.497 9.497 26.581 9.211 34.68L8.921 42.86L11.711 43.18C13.895 43.431 14.567 44.083 14.811 46.189C15.051 48.268 15.732 48.949 17.811 49.189C19.917 49.433 20.569 50.105 20.82 52.289L21.14 55.079L29.32 54.789C37.419 54.503 37.503 54.473 37.816 51.75C38.062 49.614 38.661 49 40.5 49C42.339 49 42.938 48.386 43.184 46.25C43.432 44.09 44.09 43.432 46.25 43.184C48.874 42.882 49 42.618 49 37.434V32H43.566C38.382 32 38.118 31.874 37.816 29.25C37.568 27.09 36.91 26.432 34.75 26.184C32.126 25.882 32 25.618 32 20.434V15H26.566C21.382 15 21.118 15.126 20.816 17.75ZM39 20.5C39 22.782 39.366 23.091 41.75 22.816C43.728 22.589 44.5 21.938 44.5 20.5C44.5 19.062 43.728 18.411 41.75 18.184C39.366 17.909 39 18.218 39 20.5ZM25.996 23.005C26.408 24.77 27.355 25.591 29.229 25.811C31.264 26.049 31.951 26.745 32.189 28.811C32.429 30.889 33.111 31.571 35.189 31.811C37.268 32.051 37.949 32.732 38.189 34.811C38.413 36.743 39.151 37.592 40.811 37.828C45.182 38.447 44.342 44 39.878 44C38.534 44 38 44.722 38 46.539V49.078L29.25 48.789C21.115 48.52 20.478 48.346 20.189 46.311C19.994 44.948 19.052 44.006 17.689 43.811C15.654 43.522 15.48 42.885 15.211 34.75L14.922 26H17.461C19.239 26 20 25.461 20 24.2C20 19.755 25.003 18.758 25.996 23.005ZM49 23.5C49 25.611 49.467 26 52 26C54.533 26 55 25.611 55 23.5C55 21.389 54.533 21 52 21C49.467 21 49 21.389 49 23.5Z" fill="#3F4E43"/>
<path fill-rule="evenodd" clip-rule="evenodd" d="M44.39 10.426C43.48 12.797 44.767 15.191 46.747 14.81C49.125 14.352 49.125 9.648 46.747 9.19C45.783 9.004 44.722 9.56 44.39 10.426ZM20.821 17.7C20.569 19.896 19.919 20.567 17.811 20.811C15.732 21.051 15.051 21.732 14.811 23.811C14.567 25.917 13.895 26.569 11.709 26.82L8.918 27.141L9.209 34.778C9.484 41.999 9.636 42.447 12 42.997C13.771 43.409 14.591 44.352 14.811 46.229C15.048 48.252 15.748 48.952 17.771 49.189C19.648 49.409 20.591 50.229 21.003 52C21.553 54.364 22.001 54.516 29.222 54.791L36.859 55.082L37.18 52.291C37.431 50.105 38.083 49.433 40.189 49.189C42.268 48.949 42.949 48.268 43.189 46.189C43.433 44.081 44.104 43.431 46.3 43.179C49.01 42.868 49.09 42.691 48.8 37.679L48.5 32.5L43 32C38.29 31.572 37.455 31.186 37.189 29.311C36.994 27.948 36.052 27.006 34.689 26.811C32.814 26.545 32.428 25.71 32 21L31.5 15.5L26.321 15.2C21.309 14.91 21.132 14.99 20.821 17.7ZM39.667 18.667C39.3 19.033 39 20.158 39 21.167C39 22.456 39.742 23 41.5 23C43.5 23 44 22.5 44 20.5C44 18.742 43.456 18 42.167 18C41.158 18 40.033 18.3 39.667 18.667ZM26.65 23C27.109 25.294 27.793 26 29.559 26C31.334 26 31.94 26.636 32.184 28.75C32.432 30.91 33.09 31.568 35.25 31.816C37.364 32.06 38 32.666 38 34.441C38 36.218 38.707 36.891 41.068 37.364C43.712 37.892 44.091 38.358 43.818 40.739C43.568 42.911 42.913 43.568 40.75 43.816C38.59 44.065 38 44.655 38 46.566C38 48.964 37.868 49 29 49C20.067 49 20 48.981 20 46.5C20 44.5 19.5 44 17.5 44C15.019 44 15 43.933 15 35C15 26.067 15.019 26 17.5 26C19.452 26 20 25.489 20 23.667C20 20.728 20.733 20 23.692 20C25.512 20 26.187 20.684 26.65 23ZM49.363 22.497C49.017 23.398 49.196 24.596 49.761 25.161C51.391 26.791 54.5 25.692 54.5 23.486C54.5 20.943 50.272 20.128 49.363 22.497Z" fill="#2A342D"/>
<path fill-rule="evenodd" clip-rule="evenodd" d="M44 12C44 13.467 44.667 14 46.5 14C48.333 14 49 13.467 49 12C49 10.533 48.333 10 46.5 10C44.667 10 44 10.533 44 12ZM21.667 15.667C19.961 17.372 21.119 19.881 23.75 20.184C25.91 20.432 26.568 21.09 26.816 23.25C27.054 25.313 27.678 26 29.316 26.001C31.338 26.003 31.475 25.595 31.157 20.501L30.815 15H26.574C24.242 15 22.033 15.3 21.667 15.667ZM39.38 19.452C38.605 21.473 39.758 23 42.059 23C43.463 23 44 22.308 44 20.5C44 18.654 43.469 18 41.969 18C40.851 18 39.686 18.653 39.38 19.452ZM15.667 21.667C15.3 22.033 15 23.158 15 24.167C15 25.456 15.742 26 17.5 26C19.5 26 20 25.5 20 23.5C20 21.742 19.456 21 18.167 21C17.158 21 16.033 21.3 15.667 21.667ZM50 23.5C50 25.333 50.533 26 52 26C53.467 26 54 25.333 54 23.5C54 21.667 53.467 21 52 21C50.533 21 50 21.667 50 23.5ZM10 35C10 42.333 10.167 43 12 43C13.833 43 14 42.333 14 35C14 27.667 13.833 27 12 27C10.167 27 10 27.667 10 35ZM32.686 28.908C32.96 29.957 34.043 31.04 35.092 31.314C36.579 31.703 37 31.282 37 29.406C37 27.531 36.469 27 34.594 27C32.718 27 32.297 27.421 32.686 28.908ZM37.999 34.684C38 36.322 38.687 36.946 40.75 37.184C42.926 37.434 43.567 38.086 43.822 40.31C44.079 42.551 44.586 43.057 46.322 42.81C48.15 42.55 48.548 41.752 48.801 37.846L49.102 33.191L43.55 32.846C38.403 32.525 37.997 32.659 37.999 34.684ZM15.18 46.25C15.386 47.696 16.304 48.614 17.75 48.82C19.582 49.08 20 48.662 20 46.57C20 44.477 19.523 44 17.43 44C15.338 44 14.92 44.418 15.18 46.25ZM38 46.57C38 48.662 38.418 49.08 40.25 48.82C41.696 48.614 42.614 47.696 42.82 46.25C43.08 44.418 42.662 44 40.57 44C38.477 44 38 44.477 38 46.57ZM21 52C21 53.833 21.667 54 29 54C36.333 54 37 53.833 37 52C37 50.167 36.333 50 29 50C21.667 50 21 50.167 21 52Z" fill="black"/>
</svg>
