<svg width="250" height="250" viewBox="0 0 250 250" fill="none" xmlns="http://www.w3.org/2000/svg">
<path fill-rule="evenodd" clip-rule="evenodd" d="M98.833 0.791997C98.65 1.227 94.929 2.349 90.564 3.284C86.199 4.219 82.374 5.378 82.064 5.86C81.754 6.341 78.8 7.512 75.5 8.462C72.2 9.412 69.16 10.786 68.744 11.516C68.328 12.246 66.679 13.131 65.079 13.483C63.479 13.834 60.894 15.219 59.335 16.56C57.776 17.9 55.938 18.998 55.25 18.999C54.563 18.999 54 19.429 54 19.953C54 20.477 52.425 21.654 50.5 22.567C48.575 23.48 47 24.702 47 25.281C47 25.86 46.706 26.039 46.347 25.68C45.987 25.321 44.75 26.299 43.597 27.853C42.444 29.407 40.938 30.489 40.25 30.256C39.563 30.024 39 30.516 39 31.349C39 32.183 38.166 33.13 37.146 33.454C36.127 33.777 34.464 35.58 33.452 37.46C32.439 39.34 31.331 40.705 30.989 40.493C30.647 40.282 29.579 41.442 28.617 43.072C27.654 44.702 26.509 45.815 26.073 45.545C25.636 45.275 24.473 46.842 23.488 49.027C22.502 51.212 21.383 53 21 53C20.617 53 19.498 54.788 18.512 56.973C17.527 59.158 16.414 60.756 16.039 60.524C15.665 60.293 14.558 62.329 13.579 65.049C12.601 67.769 11.459 69.784 11.041 69.526C10.624 69.267 9.493 71.968 8.53 75.528C7.566 79.088 6.425 82 5.994 82C5.563 82 4.397 86.021 3.404 90.935C2.411 95.849 1.238 99.647 0.799 99.376C0.36 99.104 0 110.635 0 125C0 139.365 0.36 150.896 0.799 150.624C1.238 150.353 2.411 154.151 3.404 159.065C4.397 163.979 5.557 168 5.981 168C6.405 168 7.58 170.891 8.592 174.425C9.604 177.959 10.748 180.656 11.133 180.418C11.519 180.179 12.584 182.241 13.5 185C14.416 187.759 15.531 189.79 15.977 189.514C16.423 189.239 17.507 190.81 18.386 193.006C19.265 195.203 20.369 197 20.84 197C21.311 197 22.499 198.78 23.48 200.956C24.461 203.132 25.694 204.819 26.22 204.706C26.746 204.593 27.973 205.951 28.948 207.723C29.922 209.496 30.964 210.703 31.263 210.404C31.561 210.106 32.621 211.243 33.618 212.931C34.615 214.619 35.784 216 36.216 216C36.647 216 37.9 216.9 39 218C40.1 219.1 41 219.688 41 219.306C41 218.924 42.056 220.043 43.347 221.792C44.637 223.542 45.987 224.679 46.347 224.32C46.706 223.961 47 224.14 47 224.719C47 225.298 48.575 226.52 50.5 227.433C52.425 228.346 54 229.523 54 230.047C54 230.571 54.59 231 55.311 231C56.033 231 57.614 231.923 58.824 233.051C60.035 234.179 61.47 234.828 62.013 234.492C62.556 234.156 63 234.382 63 234.993C63 235.604 64.35 236.575 66 237.15C67.65 237.725 69 238.53 69 238.939C69 239.349 71.813 240.52 75.25 241.544C78.688 242.567 81.754 243.767 82.064 244.21C82.374 244.653 86.199 245.781 90.564 246.716C94.929 247.651 98.65 248.773 98.833 249.208C99.269 250.243 150.731 250.243 151.167 249.208C151.35 248.773 155.071 247.651 159.436 246.716C163.801 245.781 167.626 244.622 167.936 244.14C168.246 243.659 171.2 242.488 174.5 241.538C177.8 240.588 180.84 239.214 181.256 238.484C181.672 237.754 183.321 236.869 184.921 236.517C186.521 236.166 189.106 234.781 190.665 233.44C192.224 232.1 194.063 231.002 194.75 231.001C195.438 231.001 196 230.571 196 230.047C196 229.523 197.575 228.346 199.5 227.433C201.425 226.52 203 225.298 203 224.719C203 224.14 203.294 223.961 203.653 224.32C204.013 224.679 205.25 223.701 206.403 222.147C207.556 220.593 209.063 219.511 209.75 219.744C210.438 219.976 211 219.484 211 218.651C211 217.817 211.834 216.87 212.854 216.546C213.873 216.223 215.536 214.42 216.548 212.54C217.561 210.66 218.669 209.295 219.011 209.507C219.353 209.718 220.421 208.558 221.383 206.928C222.346 205.298 223.491 204.185 223.927 204.455C224.364 204.725 225.527 203.158 226.512 200.973C227.498 198.788 228.617 197 229 197C229.383 197 230.502 195.212 231.488 193.027C232.473 190.842 233.586 189.244 233.961 189.476C234.335 189.707 235.442 187.671 236.421 184.951C237.399 182.231 238.541 180.216 238.959 180.474C239.376 180.733 240.507 178.032 241.47 174.472C242.434 170.912 243.575 168 244.006 168C244.437 168 245.603 163.979 246.596 159.065C247.589 154.151 248.762 150.353 249.201 150.624C249.64 150.896 250 139.365 250 125C250 110.635 249.64 99.104 249.201 99.376C248.762 99.647 247.589 95.849 246.596 90.935C245.603 86.021 244.443 82 244.019 82C243.595 82 242.42 79.109 241.408 75.575C240.396 72.041 239.252 69.344 238.867 69.582C238.481 69.821 237.416 67.759 236.5 65C235.584 62.241 234.469 60.21 234.023 60.486C233.577 60.761 232.493 59.19 231.614 56.994C230.735 54.797 229.631 53 229.16 53C228.689 53 227.501 51.22 226.52 49.044C225.539 46.868 224.306 45.181 223.78 45.294C223.254 45.407 222.027 44.049 221.052 42.277C220.078 40.504 219.036 39.297 218.737 39.596C218.439 39.894 217.379 38.757 216.382 37.069C215.385 35.381 214.216 34 213.784 34C213.353 34 212.1 33.1 211 32C209.9 30.9 209 30.312 209 30.694C209 31.076 207.944 29.957 206.653 28.208C205.363 26.458 204.013 25.321 203.653 25.68C203.294 26.039 203 25.86 203 25.281C203 24.702 201.425 23.48 199.5 22.567C197.575 21.654 196 20.477 196 19.953C196 19.429 195.41 19 194.689 19C193.967 19 192.386 18.077 191.176 16.949C189.965 15.821 188.53 15.172 187.987 15.508C187.444 15.844 187 15.618 187 15.007C187 14.396 185.65 13.425 184 12.85C182.35 12.275 181 11.47 181 11.061C181 10.651 178.188 9.48 174.75 8.456C171.313 7.433 168.246 6.233 167.936 5.79C167.626 5.347 163.801 4.219 159.436 3.284C155.071 2.349 151.35 1.227 151.167 0.791997C150.731 -0.243003 99.269 -0.243003 98.833 0.791997Z" fill="#FFFF00"/>
<path fill-rule="evenodd" clip-rule="evenodd" d="M96.032 2.07801C91.374 3.12401 86.199 4.60901 84.532 5.37801C82.864 6.14801 80.375 7.10501 79 7.50501C75.978 8.38401 64.655 13.871 60.5 16.471C58.85 17.504 55.025 19.927 52 21.856C46.61 25.293 24 47.082 24 48.839C24 49.329 22.987 51.001 21.75 52.553C14.502 61.647 5.732 80.632 2.374 94.5C1.154 99.535 0.568002 107.322 0.283002 122.243C-0.0649983 140.513 0.138002 144.148 1.989 152.743C4.899 166.251 10.767 180.637 17.846 191.616C24.953 202.639 27.028 205.2 36.412 214.533C46.04 224.108 52.276 229.042 59.302 232.641C61.061 233.542 62.725 234.575 63 234.937C63.697 235.854 73.21 240.308 81.164 243.443C93.582 248.336 100.065 249.329 122.236 249.733C140.551 250.068 144.17 249.861 153.236 247.958C158.881 246.774 163.95 245.457 164.5 245.033C165.05 244.608 167.3 243.697 169.5 243.008C173.917 241.624 184.824 236.455 189.5 233.529C191.15 232.496 194.975 230.073 198 228.144C203.39 224.707 226 202.918 226 201.161C226 200.671 227.012 198.999 228.25 197.447C235.498 188.353 244.268 169.368 247.626 155.5C248.846 150.465 249.432 142.678 249.717 127.757C250.065 109.487 249.862 105.852 248.011 97.257C245.802 87 242.523 77.615 238.441 69.865C237.099 67.315 236 64.728 236 64.115C236 63.502 235.296 62.212 234.435 61.25C232.244 58.801 228.282 52.974 226.784 50C226.092 48.625 220.57 42.533 214.513 36.463C204.063 25.989 197.911 21.054 190.698 17.359C188.939 16.458 187.275 15.425 187 15.063C185.34 12.88 164.64 4.52601 155.336 2.28501C144.536 -0.316994 107.275 -0.446994 96.032 2.07801Z" fill="#F2CD16"/>
<path fill-rule="evenodd" clip-rule="evenodd" d="M52.654 76.25C53.078 76.938 56.255 81.674 59.713 86.775C63.171 91.876 66 96.263 66 96.525C66 96.786 59.869 97 52.375 97H38.75L39.397 100.25C40.987 108.234 47.55 126.5 49.781 129.151C53.393 133.444 57.654 135.295 65.393 135.932L72.287 136.5L74.041 141.5C75.006 144.25 78.385 154.501 81.55 164.281C86.606 179.9 87.726 182.43 90.764 185.098C92.666 186.768 95.326 188.554 96.676 189.067C100.79 190.631 150.466 190.25 154.357 188.624C160.435 186.084 163.177 181.307 168.896 163.283C171.824 154.052 175.019 144.25 175.995 141.5L177.768 136.5L184.634 135.932C192.353 135.294 196.611 133.44 200.227 129.142C202.483 126.461 209.114 108.028 210.62 100.25L211.25 97H197.625C190.131 97 184 96.76 184 96.467C184 96.173 187.16 91.223 191.022 85.467L198.045 75H124.963C66.753 75 52.039 75.254 52.654 76.25ZM110.338 116.25C115.716 121.188 115.496 129.438 109.883 133.369C101.383 139.323 91.202 128.237 96.67 118.981C99.753 113.762 106.222 112.469 110.338 116.25ZM150.046 115.282C158.577 122.004 155.037 135 144.675 135C138.939 135 134.359 127.905 136.078 121.681C137.821 115.368 145.621 111.794 150.046 115.282Z" fill="#FFAA00"/>
<path fill-rule="evenodd" clip-rule="evenodd" d="M52.654 76.25C53.078 76.938 56.255 81.674 59.713 86.775C63.171 91.876 66 96.263 66 96.525C66 96.786 59.869 97 52.375 97H38.75L39.397 100.25C40.987 108.234 47.55 126.5 49.781 129.151C53.393 133.444 57.654 135.295 65.393 135.932L72.287 136.5L74.047 141.5C75.016 144.25 77.949 153.25 80.566 161.5C86.373 179.807 87.953 183.099 92.661 186.692L96.34 189.5L122.42 189.806C136.764 189.975 150.002 189.835 151.838 189.495C153.888 189.115 156.782 187.26 159.338 184.688C163.13 180.873 163.974 178.987 168.83 163.5C171.761 154.15 174.96 144.25 175.937 141.5L177.713 136.5L184.607 135.932C192.351 135.294 196.607 133.444 200.227 129.142C202.483 126.461 209.114 108.028 210.62 100.25L211.25 97H197.625C190.131 97 184 96.76 184 96.467C184 96.173 187.16 91.223 191.022 85.467L198.045 75H124.963C66.753 75 52.039 75.254 52.654 76.25ZM110.293 116.016C114.09 119.003 115.454 123.978 113.655 128.284C112.861 130.184 111.164 132.472 109.883 133.369C101.383 139.323 91.202 128.237 96.67 118.981C99.685 113.877 105.864 112.532 110.293 116.016ZM150.046 115.282C154.608 118.876 156.215 124.756 153.883 129.316C149.691 137.513 138.958 136.464 136.023 127.57C133.911 121.171 138.942 113.963 145.473 114.032C147.138 114.049 149.196 114.612 150.046 115.282Z" fill="#C2A210"/>
<path fill-rule="evenodd" clip-rule="evenodd" d="M53 75.503C53 75.78 56.15 80.666 60 86.362C63.85 92.058 67 97.007 67 97.359C67 97.712 60.652 98 52.893 98C42.034 98 38.89 98.288 39.237 99.25C39.485 99.938 41.446 106.109 43.594 112.965C46.895 123.502 48.119 126.078 51.5 129.611C55.892 134.201 60.584 135.985 68.281 135.994C71.224 135.998 73.215 136.481 73.459 137.25C73.677 137.938 76.387 146.6 79.481 156.5C82.575 166.4 85.808 176.148 86.666 178.163C88.522 182.524 93.405 187.464 97.315 188.939C99.026 189.584 109.945 190 125.164 190C160.909 190 159.593 190.928 169.843 158.5L176.797 136.5L183.72 135.868C196.979 134.657 200.568 130.899 206.719 111.786C209.07 104.479 210.996 98.388 210.997 98.25C210.999 98.112 204.7 98 197 98C189.3 98 183 97.748 183 97.439C183 97.131 185.838 92.518 189.307 87.189C192.776 81.86 195.952 76.938 196.366 76.25C196.965 75.255 182.441 75 125.059 75C85.427 75 53 75.226 53 75.503ZM110.055 115.03C112.499 116.337 115 121.127 115 124.5C115 127.873 112.499 132.663 110.055 133.97C108.997 134.537 106.342 135 104.155 135C98.525 135 95 130.769 95 124.012C95 119.841 95.422 118.822 98.077 116.589C101.355 113.83 106.55 113.154 110.055 115.03ZM152.411 117.077C158.204 123.962 154.161 135 145.845 135C140.828 135 138.422 133.716 136.51 130.02C134.595 126.316 134.592 122.69 136.5 119C138.455 115.219 140.577 114.068 145.661 114.03C149.1 114.005 150.272 114.534 152.411 117.077Z" fill="#9A7E0B"/>
<path fill-rule="evenodd" clip-rule="evenodd" d="M54 75.798C54 76.237 56.925 81.002 60.5 86.386C64.075 91.77 67 96.586 67 97.088C67 97.592 60.965 98 53.5 98C44.373 98 40 98.355 40 99.097C40 99.7 41.838 106.023 44.084 113.147C47.425 123.746 48.806 126.74 51.678 129.611C56.073 134.007 58.661 134.996 65.815 135.015C68.942 135.024 71.963 135.361 72.528 135.765C73.094 136.169 76.451 145.725 79.988 157C87.07 179.578 89.043 183.621 94.686 187.129C98.449 189.469 98.853 189.5 125.073 189.5H151.646L155.7 186.817C157.929 185.342 160.643 182.642 161.73 180.817C162.818 178.993 166.571 168.275 170.071 157C173.571 145.725 176.9 136.169 177.467 135.765C178.035 135.361 181.16 135.024 184.412 135.015C191.039 134.998 197.456 132.005 200.356 127.579C202 125.07 209.987 101.598 209.995 99.25C209.999 98.312 206.636 98 196.5 98C189.075 98 183 97.599 183 97.109C183 96.62 185.746 92.038 189.101 86.927C192.457 81.816 195.43 77.042 195.708 76.317C196.124 75.235 183.524 75 125.107 75C85.998 75 54 75.359 54 75.798ZM112.25 116.981C114.385 119.349 115 121.032 115 124.5C115 136.99 98.482 140.016 94.935 128.176C91.436 116.5 104.312 108.175 112.25 116.981ZM150.696 114.956C157.332 119.002 157.304 129.957 150.647 134.125C143.697 138.477 135 133.193 135 124.619C135 115.467 143.227 110.402 150.696 114.956Z" fill="#7A6308"/>
<path fill-rule="evenodd" clip-rule="evenodd" d="M54 75.475C54 75.736 57.15 80.635 61 86.362C64.85 92.088 68 97.275 68 97.887C68 98.652 63.586 99 53.893 99C40.858 99 39.839 99.133 40.486 100.75C40.871 101.713 42.93 107.914 45.06 114.531C50.255 130.667 53.776 134.046 66.374 134.987L73.247 135.5L75.533 142C76.79 145.575 79.72 154.575 82.044 162C90.62 189.405 91.537 190 125.144 190C143.486 190 146.553 189.765 151.278 187.997C160.835 184.422 160.916 184.26 174.21 142.266L176.5 135.032L182.79 135.016C186.979 135.005 190.319 134.365 192.79 133.097C199.763 129.521 201.313 126.902 206.459 110C207.715 105.875 209.074 101.713 209.478 100.75C210.159 99.131 209.156 99 196.107 99C186.333 99 182 98.655 182 97.876C182 97.258 185.037 92.197 188.75 86.629C192.463 81.062 195.65 76.167 195.833 75.753C196.017 75.339 164.179 75 125.083 75C85.987 75 54 75.214 54 75.475ZM111.495 115.415C113.827 117.274 114.373 118.581 114.696 123.078C115.17 129.696 113.734 132.682 108.865 135.198C105.479 136.948 104.964 136.969 101.314 135.509C93.144 132.24 91.298 121.858 97.799 115.738C102.152 111.639 106.628 111.534 111.495 115.415ZM152.201 115.769C158.666 121.78 156.972 132.194 149.012 135.378C145.455 136.802 144.53 136.831 141.604 135.608C136.851 133.622 135 130.477 135 124.388C135 118.67 136.574 116.033 141.461 113.564C145.106 111.723 148.627 112.446 152.201 115.769Z" fill="#544003"/>
</svg>
