<svg width="32" height="64" viewBox="0 0 64 64" fill="none" xmlns="http://www.w3.org/2000/svg">
<path fill-rule="evenodd" clip-rule="evenodd" d="M4.368 4.368L0 8.737V32V55.263L4.368 59.632L8.737 64H32H55.263L59.632 59.632L64 55.263V32V8.737L59.632 4.368L55.263 0H32H8.737L4.368 4.368Z" fill="#FFFFBF"/>
<path fill-rule="evenodd" clip-rule="evenodd" d="M4.368 4.368L0 8.737V32V55.263L4.368 59.632L8.737 64H30.918C55.23 64 56.512 63.746 61.381 57.959L64 54.847V31.792V8.737L59.632 4.368L55.263 0H32H8.737L4.368 4.368Z" fill="#FFEDDC"/>
<path fill-rule="evenodd" clip-rule="evenodd" d="M4.368 4.368L0 8.737V32V55.263L4.368 59.632L8.737 64L19.618 63.967L30.5 63.935L25.372 62.162C18.508 59.79 15.531 57.715 12.003 52.846C6.744 45.585 6.788 37.366 12.115 32.039C16.099 28.055 17.003 28.205 16.269 32.73L15.664 36.461L18.908 33.73C24.927 28.666 33.366 30.875 35.913 38.181L37.026 41.373L34.521 39.02C28.739 33.588 20.235 38.26 21.311 46.279C22.266 53.399 28.925 58.14 40.637 60.037C44.412 60.649 50.308 60.855 53.739 60.496C63.988 59.423 64 59.391 64 31.734V8.737L59.632 4.368L55.263 0H32H8.737L4.368 4.368ZM16.076 9.743C18.009 11.93 18.065 12.12 16.354 10.682C14.696 9.288 14.088 9.176 13.683 10.189C13.394 10.91 13.122 10.488 13.079 9.25C12.979 6.397 13.142 6.423 16.076 9.743ZM3.729 12.604C3.397 12.936 2.534 12.972 1.812 12.683C1.015 12.364 1.252 12.127 2.417 12.079C3.471 12.036 4.061 12.272 3.729 12.604ZM36.128 20.75C37.371 22.336 37.336 22.371 35.75 21.128C34.788 20.373 34 19.585 34 19.378C34 18.555 34.821 19.084 36.128 20.75ZM32.25 24.392C33.212 25.123 33.993 26.346 33.985 27.11C33.972 28.221 33.779 28.199 33.021 27C32.5 26.175 31.532 25.5 30.87 25.5C30.208 25.5 29.479 24.938 29.25 24.25C28.714 22.641 30.026 22.704 32.25 24.392ZM37.662 26.25C37.385 26.938 37.158 26.375 37.158 25C37.158 23.625 37.385 23.063 37.662 23.75C37.94 24.438 37.94 25.563 37.662 26.25ZM41 38.378C41 38.585 40.212 39.373 39.25 40.128C37.664 41.371 37.629 41.336 38.872 39.75C40.179 38.084 41 37.555 41 38.378Z" fill="#FFAA55"/>
<path fill-rule="evenodd" clip-rule="evenodd" d="M4.368 4.368L0 8.737V32V55.263L4.368 59.632L8.737 64L19.618 63.967L30.5 63.935L25.372 62.162C18.508 59.79 15.531 57.715 12.003 52.846C6.744 45.585 6.788 37.366 12.115 32.039C16.099 28.055 17.003 28.205 16.269 32.73L15.664 36.461L18.908 33.73C24.871 28.713 33.365 30.871 35.863 38.038L36.926 41.087L34.328 39.044C26.89 33.193 17.964 41.229 22.392 49.79C26.064 56.892 35.102 60.34 49.935 60.298C58.922 60.273 59.479 60.144 61.685 57.58C63.953 54.943 64 54.445 64 32.895C64 8.787 63.74 7.483 57.959 2.619L54.847 0H31.792H8.737L4.368 4.368ZM16.076 9.743C18.009 11.93 18.065 12.12 16.354 10.682C14.696 9.288 14.088 9.176 13.683 10.189C13.394 10.91 13.122 10.488 13.079 9.25C12.979 6.397 13.142 6.423 16.076 9.743ZM4.25 12.662C3.563 12.94 2.438 12.94 1.75 12.662C1.063 12.385 1.625 12.158 3 12.158C4.375 12.158 4.938 12.385 4.25 12.662ZM15.821 15.966C15.644 16.456 14.375 16.195 13 15.386C10.714 14.043 10.692 13.969 12.744 14.524C14.579 15.02 14.884 14.8 14.418 13.315C13.875 11.583 13.902 11.582 14.995 13.288C15.626 14.271 15.997 15.476 15.821 15.966ZM30.857 16.927C32.934 17.987 35.271 19.674 36.05 20.677C37.389 22.401 37.358 22.412 35.483 20.869C34.392 19.972 31.7 18.304 29.5 17.163C27.3 16.022 25.855 15.069 26.29 15.044C26.724 15.02 28.779 15.867 30.857 16.927ZM32.25 24.392C34.226 25.892 34.583 28 32.86 28C32.233 28 31.123 27.212 30.392 26.25C27.942 23.022 29.022 21.942 32.25 24.392ZM39.853 28.5C41.486 30.484 41.482 30.484 39.25 28.595C38.013 27.547 37.052 25.747 37.116 24.595C37.228 22.58 37.251 22.576 37.719 24.5C37.987 25.6 38.948 27.4 39.853 28.5ZM40.05 39.278L37.712 41.5L39.606 38.848C40.648 37.389 41.7 36.389 41.944 36.626C42.189 36.862 41.337 38.056 40.05 39.278Z" fill="#FF802B"/>
<path fill-rule="evenodd" clip-rule="evenodd" d="M4.273 4.464C-0.506 9.243 -0.778 10.999 3.074 12.204C5.355 12.918 5.336 12.942 2.75 12.62L0 12.277V33.77V55.263L4.368 59.632L8.737 64L19.618 63.967L30.5 63.935L25.372 62.162C18.508 59.79 15.531 57.715 12.003 52.846C6.744 45.585 6.788 37.366 12.115 32.039C16.099 28.055 17.003 28.205 16.269 32.73L15.664 36.461L18.908 33.73C24.794 28.778 32.684 30.606 35.606 37.599C37.306 41.669 37.353 43.043 35.718 40.913C32.655 36.923 25.792 36.136 23.035 39.458C20.753 42.207 20.971 47.342 23.534 51.223C27.759 57.621 37.286 60.645 52 60.258C58.694 60.083 59.742 59.784 61.75 57.475C63.739 55.188 63.996 53.824 63.966 45.694L63.931 36.5L45.96 18.25L27.989 0H18.363H8.737L4.273 4.464ZM18 11.329C18 11.869 17.147 11.538 16.104 10.594C14.63 9.26 14.09 9.17 13.683 10.189C13.394 10.91 13.122 10.184 13.079 8.576L13 5.651L15.5 8C16.875 9.292 18 10.79 18 11.329ZM8.526 13.807C8.219 14.115 7.412 13.808 6.733 13.124C5.753 12.136 5.868 12.022 7.293 12.564C8.279 12.94 8.834 13.499 8.526 13.807ZM15.985 15.776C15.996 16.748 15.285 16.682 13 15.5C9.539 13.71 9.118 12.957 12 13.71C13.276 14.044 14.006 13.739 14.015 12.867C14.036 11.063 15.962 13.91 15.985 15.776ZM21.493 12.989C21.843 13.555 21.442 13.723 20.552 13.382C18.82 12.717 18.503 12 19.941 12C20.459 12 21.157 12.445 21.493 12.989ZM24.5 14C24.84 14.55 24.641 15 24.059 15C23.477 15 23 14.55 23 14C23 13.45 23.198 13 23.441 13C23.684 13 24.16 13.45 24.5 14ZM32.662 17.542C35.048 18.94 37 20.585 37 21.197C37 21.853 36.281 21.679 35.25 20.774C34.288 19.929 31.7 18.304 29.5 17.163C27.3 16.022 26.135 15.069 26.912 15.044C27.689 15.02 30.276 16.144 32.662 17.542ZM32.25 24.392C34.226 25.892 34.583 28 32.86 28C32.233 28 31.123 27.212 30.392 26.25C27.942 23.022 29.022 21.942 32.25 24.392ZM39 26.059C39 27.127 39.45 28 40 28C40.55 28 41 28.52 41 29.155C41 29.81 40.134 29.526 39 28.5C36.993 26.684 36.125 22.341 38 23.5C38.55 23.84 39 24.991 39 26.059ZM42.342 36.8C42.083 37.789 40.97 39.162 39.869 39.85C38.031 40.998 38.052 40.849 40.121 38.05C42.744 34.503 42.977 34.371 42.342 36.8Z" fill="#FF6C22"/>
<path fill-rule="evenodd" clip-rule="evenodd" d="M4.401 4.336C1.981 6.756 0 9.209 0 9.785C0 10.362 1.238 11.323 2.75 11.921L5.5 13.009L2.75 12.643L0 12.277V33.77V55.263L4.368 59.632L8.737 64L19.618 63.967L30.5 63.935L25.372 62.162C18.508 59.79 15.531 57.715 12.003 52.846C6.744 45.585 6.788 37.366 12.115 32.039C16.099 28.055 17.003 28.205 16.269 32.73L15.664 36.461L18.908 33.73C24.794 28.778 32.684 30.606 35.606 37.599C37.571 42.303 37.396 42.511 33.923 39.589C32.231 38.165 30.094 37.007 29.173 37.015C26.726 37.036 22.52 39.366 22.375 40.78C22.306 41.451 22.136 42.112 21.997 42.25C20.865 43.37 21.625 48.055 23.336 50.5C26.031 54.354 26.955 55.223 30 56.771C34.023 58.816 43.258 60.469 49.5 60.261C59.322 59.933 60.034 59.772 61.854 57.458L63.698 55.114L53.849 44.943C48.432 39.349 44 34.149 44 33.386C44 32.624 43.662 32.112 43.25 32.25C42.837 32.387 42.305 32.05 42.067 31.5C41.829 30.95 40.567 29.661 39.263 28.635C37.796 27.481 37.011 25.955 37.205 24.635C37.546 22.321 34.065 19.098 28.932 16.972C27.319 16.304 26 15.376 26 14.91C26 14.444 25.247 14.352 24.326 14.705C23.097 15.177 22.811 14.936 23.247 13.798C23.635 12.788 23.021 11.875 21.484 11.175C20.187 10.584 17.386 7.94 15.259 5.3C13.132 2.66 10.81 0.372997 10.097 0.216997C9.385 0.0619972 6.822 1.915 4.401 4.336ZM18 11.329C18 11.869 17.1 11.495 16 10.5C14.541 9.18 14 9.057 14 10.045C14 11.054 13.711 11.111 12.867 10.267C12.244 9.644 12.031 8.362 12.393 7.417C12.988 5.869 13.295 5.928 15.526 8.025C16.887 9.303 18 10.79 18 11.329ZM22 13.076C22 13.549 21.325 13.678 20.5 13.362C19.675 13.045 19 12.398 19 11.924C19 11.451 19.675 11.322 20.5 11.638C21.325 11.955 22 12.602 22 13.076ZM8.5 13C8.84 13.55 8.668 14 8.118 14C7.568 14 6.84 13.55 6.5 13C6.16 12.45 6.332 12 6.882 12C7.432 12 8.16 12.45 8.5 13ZM15.393 13.582C16.549 16.594 15.987 17.044 13 15.5C9.531 13.706 9.017 12.553 12.125 13.54C13.555 13.994 14.027 13.852 13.566 13.107C13.19 12.498 13.31 12 13.834 12C14.358 12 15.059 12.712 15.393 13.582ZM32.25 24.392C34.226 25.892 34.583 28 32.86 28C32.233 28 31.123 27.212 30.392 26.25C27.942 23.022 29.022 21.942 32.25 24.392ZM43 35.854C43 36.324 41.875 37.922 40.5 39.405C37.416 42.733 37.245 41.94 40.188 37.96C42.494 34.84 43 34.461 43 35.854Z" fill="#FF9D7E"/>
<path fill-rule="evenodd" clip-rule="evenodd" d="M5.487 3.146C1.749 6.428 -0.533 9.801 0.373 10.706C0.667 11 3.066 11.643 5.704 12.135C8.342 12.626 11.288 13.278 12.251 13.582C13.785 14.067 13.873 13.796 12.96 11.395C12.387 9.888 12.175 7.986 12.489 7.169C12.949 5.97 13.586 6.174 15.78 8.219C18.538 10.791 22.198 13.003 23.684 12.996C24.133 12.994 23.085 12.13 21.356 11.076C19.628 10.021 16.691 7.211 14.832 4.829C12.972 2.448 10.911 0.390998 10.251 0.257998C9.591 0.125998 7.447 1.425 5.487 3.146ZM14.408 11C14.806 12.375 15.391 14.332 15.708 15.349C16.25 17.086 16.107 17.107 13.354 15.683C11.742 14.85 8.078 13.741 5.212 13.22L0 12.273V33.768V55.263L4.368 59.632L8.737 64L19.618 63.967L30.5 63.935L25.372 62.162C18.508 59.79 15.531 57.715 12.003 52.846C6.744 45.585 6.788 37.366 12.115 32.039C16.099 28.055 17.003 28.205 16.269 32.73L15.664 36.461L18.908 33.73C24.892 28.696 32.685 30.609 35.713 37.856L37.215 41.451L39.608 38.67C42.651 35.131 42.626 32.897 39.5 29.182C38.125 27.548 37 25.333 37 24.261C37 21.471 34.517 19.577 25.468 15.461C21.086 13.467 16.642 11.086 15.593 10.168C13.77 8.573 13.718 8.61 14.408 11ZM32.25 24.392C34.226 25.892 34.583 28 32.86 28C32.233 28 31.123 27.212 30.392 26.25C27.942 23.022 29.022 21.942 32.25 24.392ZM43.063 34.115C42.997 36.866 39.584 42 37.822 42C37.254 42 35.452 40.875 33.818 39.5C30.075 36.351 27.57 36.339 24.455 39.455C19.852 44.057 22.004 51.96 28.91 55.816C37.402 60.559 58.565 61.355 62.114 57.066C63.65 55.209 63.275 54.65 54.271 45.394C49.07 40.048 44.435 34.734 43.971 33.587C43.191 31.658 43.122 31.698 43.063 34.115Z" fill="#FF5518"/>
<path fill-rule="evenodd" clip-rule="evenodd" d="M14.408 11C14.806 12.375 15.391 14.332 15.708 15.349C16.25 17.086 16.107 17.107 13.354 15.683C11.742 14.85 8.078 13.741 5.212 13.22L0 12.273V33.768V55.263L4.368 59.632L8.737 64L19.618 63.967L30.5 63.935L25.372 62.162C18.508 59.79 15.531 57.715 12.003 52.846C6.744 45.585 6.788 37.366 12.115 32.039C16.099 28.055 17.003 28.205 16.269 32.73L15.664 36.461L18.908 33.73C24.892 28.696 32.685 30.609 35.713 37.856L37.215 41.451L39.608 38.67C42.651 35.131 42.626 32.897 39.5 29.182C38.125 27.548 37 25.333 37 24.261C37 21.471 34.517 19.577 25.468 15.461C21.086 13.467 16.642 11.086 15.593 10.168C13.77 8.573 13.718 8.61 14.408 11ZM32.25 24.392C34.226 25.892 34.583 28 32.86 28C32.233 28 31.123 27.212 30.392 26.25C27.942 23.022 29.022 21.942 32.25 24.392Z" fill="white"/>
</svg>
