<svg width="32" height="32" viewBox="0 0 32 32" fill="none" xmlns="http://www.w3.org/2000/svg">
<g clip-path="url(#clip0_1_2)">
<path fill-rule="evenodd" clip-rule="evenodd" d="M0 16V32H16H32V16V0H16H0V16Z" fill="#2C3132"/>
<path fill-rule="evenodd" clip-rule="evenodd" d="M0 16V32H16H32V16V0H16H0V16ZM17 10.893C17 13.849 18.441 15 22.141 15C23.228 15 23.84 15.45 23.5 16C23.16 16.55 21.559 17 19.941 17C17.237 17 17 17.287 17 20.559C17 22.677 16.595 23.868 16 23.5C15.45 23.16 15 21.559 15 19.941C15 17.353 14.647 17 12.059 17C10.441 17 8.84 16.55 8.5 16C8.132 15.405 9.323 15 11.441 15C14.842 15 15 14.844 15 11.5C15 9.575 15.45 8 16 8C16.55 8 17 9.302 17 10.893Z" fill="#121211"/>
<path fill-rule="evenodd" clip-rule="evenodd" d="M0 16V32H16H32V16V0H16H0V16ZM17 10.952C17 13.846 18.466 15 22.141 15C23.228 15 23.84 15.45 23.5 16C23.16 16.55 21.559 17 19.941 17C17.237 17 17 17.287 17 20.559C17 22.677 16.595 23.868 16 23.5C15.45 23.16 15 21.559 15 19.941C15 17.353 14.647 17 12.059 17C10.441 17 8.84 16.55 8.5 16C7.893 15.018 9.795 14.596 13.25 14.948C14.662 15.091 15 14.331 15 11.004C15 8.511 15.395 7.126 16 7.5C16.55 7.84 17 9.393 17 10.952Z" fill="#191919"/>
<path fill-rule="evenodd" clip-rule="evenodd" d="M0 16V32H16H32V16V0H16H0V16ZM17.165 11C17.41 12.83 18.371 13.757 20.75 14.457C24.779 15.643 24.97 17 21.107 17C18.165 17 17 18.442 17 22.082C17 23.137 16.55 24 16 24C15.45 24 15 22.425 15 20.5C15 17.167 14.833 17 11.5 17C9.575 17 8 16.57 8 16.045C8 15.52 9.575 14.795 11.5 14.434C14.728 13.828 15 13.498 15 10.189C15 6.231 16.608 6.833 17.165 11Z" fill="#111111"/>
<path fill-rule="evenodd" clip-rule="evenodd" d="M0 16V32H16H32V16V0H16H0V16ZM17 9.965C17 13.174 19.2 14.977 23.184 15.032C25.352 15.062 25.385 15.151 23.704 16.426C22.715 17.175 21.071 17.57 20.05 17.303C18.173 16.812 16.611 19.413 17.215 22.021C17.372 22.697 16.938 23.456 16.25 23.708C15.393 24.023 15 23.004 15 20.467C15 17.06 14.802 16.805 12.501 17.245C11.127 17.507 9.239 17.164 8.306 16.482C6.83 15.402 7.154 15.15 10.805 14.533C14.774 13.862 15 13.64 15 10.412C15 8.535 15.45 7 16 7C16.55 7 17 8.334 17 9.965Z" fill="#121212"/>
<path fill-rule="evenodd" clip-rule="evenodd" d="M0 16V32H6.8C10.54 32 14.089 31.511 14.687 30.913C15.47 30.13 15.962 30.13 16.446 30.913C16.833 31.538 20.279 32 24.559 32H32V28.2C32 26.11 31.511 23.911 30.913 23.313C30.13 22.53 30.13 22.038 30.913 21.554C31.583 21.139 32 16.881 32 10.441V0H16H0V16ZM17 10.025C17 12.328 17.594 13.275 19.491 13.997C20.862 14.518 22.662 14.683 23.491 14.365C24.451 13.997 25 14.371 25 15.393C25 16.941 23.455 17.429 19.75 17.052C17.921 16.866 17.867 16.957 17.395 21C16.438 29.196 14.452 30.116 14.874 22.168C15.142 17.125 15.031 16.847 12.828 17.029C6.153 17.581 4.806 15.895 10.75 14.426C13.436 13.763 14.541 12.932 14.644 11.5C14.723 10.4 14.835 8.938 14.894 8.25C15.121 5.583 17 7.167 17 10.025ZM22.447 13.085C22.125 13.606 21.436 13.769 20.915 13.447C20.394 13.125 20.231 12.436 20.553 11.915C20.875 11.394 21.564 11.231 22.085 11.553C22.606 11.875 22.769 12.564 22.447 13.085ZM29.504 13.621C28.515 14.344 27.253 14.657 26.701 14.315C26.112 13.951 26.441 13.151 27.496 12.379C28.485 11.656 29.747 11.343 30.299 11.685C30.888 12.049 30.559 12.849 29.504 13.621ZM28.574 23.7C28.437 24.63 27.69 25.563 26.913 25.772C25.742 26.087 25.733 25.989 26.857 25.201C27.82 24.526 27.888 24.049 27.09 23.556C26.473 23.174 26.231 22.436 26.553 21.915C27.428 20.498 28.858 21.761 28.574 23.7ZM24.039 26.476C24.058 27.535 21.064 28.158 19.187 27.485C18.464 27.226 18.111 26.63 18.401 26.16C19.095 25.038 24.018 25.314 24.039 26.476Z" fill="#131313"/>
<path fill-rule="evenodd" clip-rule="evenodd" d="M17.079 10.583C17.127 11.748 17.364 11.985 17.683 11.188C17.972 10.466 17.936 9.603 17.604 9.271C17.272 8.939 17.036 9.529 17.079 10.583ZM14.079 11.583C14.127 12.748 14.364 12.985 14.683 12.188C14.972 11.466 14.936 10.603 14.604 10.271C14.272 9.939 14.036 10.529 14.079 11.583ZM12.189 17.677C13.117 17.922 14.068 19.108 14.302 20.311C14.652 22.113 14.752 22.014 14.864 19.75C14.976 17.494 14.596 17.021 12.75 17.116C11.156 17.198 10.992 17.362 12.189 17.677ZM18.813 17.683C19.534 17.972 20.397 17.936 20.729 17.604C21.061 17.272 20.471 17.036 19.417 17.079C18.252 17.127 18.015 17.364 18.813 17.683Z" fill="#101010"/>
<path fill-rule="evenodd" clip-rule="evenodd" d="M11.75 17.662C12.438 17.94 13.563 17.94 14.25 17.662C14.938 17.385 14.375 17.158 13 17.158C11.625 17.158 11.063 17.385 11.75 17.662ZM18.813 17.683C19.534 17.972 20.397 17.936 20.729 17.604C21.061 17.272 20.471 17.036 19.417 17.079C18.252 17.127 18.015 17.364 18.813 17.683Z" fill="#0E0E0E"/>
</g>
<defs>
<clipPath id="clip0_1_2">
<rect width="32" height="32" rx="16" fill="white"/>
</clipPath>
</defs>
</svg>
