<svg width="64" height="64" viewBox="0 0 64 64" fill="none" xmlns="http://www.w3.org/2000/svg">
<g clip-path="url(#clip0_1_2)">
<path fill-rule="evenodd" clip-rule="evenodd" d="M0 32V64H32H64V32V0H32H0V32Z" fill="#FDF1F1"/>
<path fill-rule="evenodd" clip-rule="evenodd" d="M0 32V64H32H64V32V0H32H0V32ZM21.75 35.689C20.788 35.941 19.212 35.941 18.25 35.689C17.288 35.438 18.075 35.232 20 35.232C21.925 35.232 22.712 35.438 21.75 35.689ZM32.25 45.737C29.363 45.939 24.638 45.939 21.75 45.737C18.863 45.535 21.225 45.37 27 45.37C32.775 45.37 35.138 45.535 32.25 45.737Z" fill="#FCE0E0"/>
<path fill-rule="evenodd" clip-rule="evenodd" d="M0 32V64H32H64V32V0H32H0V32ZM33.728 16.73C31.653 16.946 28.503 16.943 26.728 16.722C24.952 16.501 26.65 16.324 30.5 16.328C34.35 16.333 35.802 16.513 33.728 16.73ZM34.25 23.723C32.462 23.945 29.538 23.945 27.75 23.723C25.962 23.502 27.425 23.32 31 23.32C34.575 23.32 36.038 23.502 34.25 23.723ZM19.998 35C22.735 35 22.917 34.736 23.276 30.25L23.656 25.5L23.578 30.5L23.5 35.5H20H16.5L16.418 29.745L16.336 23.99L16.718 29.495C17.087 34.814 17.198 35 19.998 35ZM41.128 25.75C42.371 27.336 42.336 27.371 40.75 26.128C39.788 25.373 39 24.585 39 24.378C39 23.555 39.821 24.084 41.128 25.75ZM50.662 32.25C50.385 32.938 50.158 32.375 50.158 31C50.158 29.625 50.385 29.063 50.662 29.75C50.94 30.438 50.94 31.563 50.662 32.25ZM28.311 45.254L39.5 45.572L27.75 45.786L16 46L16.16 42.25C16.316 38.604 16.331 38.589 16.721 41.718L17.122 44.936L28.311 45.254Z" fill="#F9C3C3"/>
<path fill-rule="evenodd" clip-rule="evenodd" d="M0 32V64H32H64V32V0H32H0V32ZM35.25 16.732C32.912 16.943 29.087 16.943 26.75 16.732C24.412 16.522 26.325 16.349 31 16.349C35.675 16.349 37.587 16.522 35.25 16.732ZM19.995 35C22.781 35 22.91 34.792 23.263 29.75L23.63 24.5L23.815 30.25L24 36H20H16L16.193 29.25L16.385 22.5L16.74 28.75C17.09 34.898 17.143 35 19.995 35ZM34.25 23.723C32.462 23.945 29.538 23.945 27.75 23.723C25.962 23.502 27.425 23.32 31 23.32C34.575 23.32 36.038 23.502 34.25 23.723ZM41.128 25.75C42.397 27.369 42.35 27.39 40.5 26.033C39.4 25.226 38.313 24.439 38.083 24.283C37.854 24.127 38.137 24 38.711 24C39.285 24 40.373 24.788 41.128 25.75ZM50.689 32.75C50.438 33.712 50.232 32.925 50.232 31C50.232 29.075 50.438 28.288 50.689 29.25C50.941 30.212 50.941 31.788 50.689 32.75ZM41.05 36.278L38.712 38.5L40.606 35.848C41.648 34.389 42.7 33.389 42.944 33.626C43.189 33.862 42.337 35.056 41.05 36.278ZM27.75 38.746L17 39.068V42.002V44.937L28.75 45.253L40.5 45.57L28.25 45.785L16 46V42V38L27.25 38.212L38.5 38.425L27.75 38.746ZM48 40.378C48 40.585 47.212 41.373 46.25 42.128C44.664 43.371 44.629 43.336 45.872 41.75C47.179 40.084 48 39.555 48 40.378Z" fill="#F48989"/>
<path fill-rule="evenodd" clip-rule="evenodd" d="M0 32V64H32H64V32V0H32H0V32ZM42.619 17.623C45.8 19.133 50.009 23.716 49.993 25.654C49.99 26.119 49.098 25.15 48.012 23.5C44.736 18.522 40.688 17 30.72 17C22.699 17 21.689 17.22 19.455 19.455C17.348 21.561 17 22.838 17 28.455V35H20C22.917 35 23 34.867 23 30.2C23 27.56 23.54 24.86 24.2 24.2C24.913 23.487 27.854 23.07 31.45 23.173L37.5 23.345L31 23.923L24.5 24.5L24.2 30.25L23.9 36H19.95H16V28.923C16 22.435 16.243 21.603 18.923 18.923C21.705 16.142 22.266 16 30.522 16C36.455 16 40.279 16.513 42.619 17.623ZM41.571 26.468C42.46 27.825 42.956 29.513 42.673 30.218C42.35 31.022 42.128 30.848 42.079 29.75C42.036 28.788 41.1 27.1 40 26C38.9 24.9 38.44 24 38.977 24C39.514 24 40.682 25.111 41.571 26.468ZM49.256 38.301C48.231 40.057 45.887 42.507 44.048 43.747C41.027 45.782 39.511 46 28.352 46H16V42V38H26.566C37.754 38 40.572 37.212 41.993 33.685C42.639 32.08 42.89 31.945 42.937 33.177C42.971 34.1 41.814 35.788 40.365 36.927C38.084 38.721 36.337 39 27.365 39H17V42V45L28.75 44.996C38.639 44.993 41.007 44.683 43.701 43.04C47.707 40.598 49.949 36.359 50.175 30.8L50.349 26.5L50.735 30.805C51 33.761 50.536 36.109 49.256 38.301Z" fill="#EC3838"/>
<path fill-rule="evenodd" clip-rule="evenodd" d="M0 32V64H32H64V32V0H32H0V32ZM43.759 17.995C48.573 20.93 50.992 25.54 50.996 31.789C51 36.522 50.606 37.499 47.25 41.091C42.706 45.954 39.091 46.943 25.75 46.976L16 47V42.586V38.172L27.583 37.836C40.268 37.468 42 36.643 42 30.964C42 26.45 38.725 24.5 31.146 24.5H24.5L24 30.437L23.5 36.373L20 36.371L16.5 36.369L16.211 28.86C15.942 21.864 16.105 21.168 18.597 18.675C21.127 16.145 21.795 16 30.886 16.004C38.715 16.007 41.105 16.376 43.759 17.995ZM19.455 19.455C17.348 21.561 17 22.838 17 28.455V35H20C22.923 35 23 34.875 23 30.122C23 23.599 24.305 22.659 32.627 23.189C38.055 23.535 39.608 24.033 41.134 25.917C43.921 29.36 43.569 34.407 40.365 36.927C38.084 38.721 36.337 39 27.365 39H17V42V45L28.75 44.996C38.639 44.993 41.007 44.683 43.701 43.04C52.602 37.613 51.936 23.045 42.583 18.606C40.285 17.516 36.42 17 30.553 17C22.709 17 21.682 17.227 19.455 19.455Z" fill="#EA2121"/>
<path fill-rule="evenodd" clip-rule="evenodd" d="M0 32V64H32H64V32V0H32H0V32ZM39.942 15.983C47.861 18.254 53.105 27.183 51.035 34.869C48.464 44.418 42.71 47.213 26.5 46.788L15.5 46.5L15.197 42.337L14.894 38.175L26.345 37.837C35.9 37.556 38.144 37.185 39.898 35.595C42.391 33.335 42.59 30.287 40.443 27.223C39.091 25.291 37.983 25 31.993 25H25.1L24.8 30.75L24.5 36.5H20H15.5L15.203 30.831C14.81 23.35 16.894 18.383 21.213 16.507C25.039 14.844 34.999 14.566 39.942 15.983ZM19.455 19.455C17.348 21.561 17 22.838 17 28.455V35H20C22.923 35 23 34.875 23 30.122C23 23.599 24.305 22.659 32.627 23.189C38.055 23.535 39.608 24.033 41.134 25.917C43.921 29.36 43.569 34.407 40.365 36.927C38.084 38.721 36.337 39 27.365 39H17V42V45L28.75 44.996C38.639 44.993 41.007 44.683 43.701 43.04C52.602 37.613 51.936 23.045 42.583 18.606C40.285 17.516 36.42 17 30.553 17C22.709 17 21.682 17.227 19.455 19.455Z" fill="#E80303"/>
<path fill-rule="evenodd" clip-rule="evenodd" d="M19.455 19.455C17.348 21.561 17 22.838 17 28.455V35H20C22.923 35 23 34.875 23 30.122C23 23.599 24.305 22.659 32.627 23.189C38.055 23.535 39.608 24.033 41.134 25.917C43.921 29.36 43.569 34.407 40.365 36.927C38.084 38.721 36.337 39 27.365 39H17V42V45L28.75 44.996C38.639 44.993 41.007 44.683 43.701 43.04C52.602 37.613 51.936 23.045 42.583 18.606C40.285 17.516 36.42 17 30.553 17C22.709 17 21.682 17.227 19.455 19.455Z" fill="white"/>
</g>
<defs>
<clipPath id="clip0_1_2">
<rect width="64" height="64" rx="32" fill="white"/>
</clipPath>
</defs>
</svg>
