<svg width="252" height="252" viewBox="0 0 252 252" fill="none" xmlns="http://www.w3.org/2000/svg">
<g clip-path="url(#clip0_1_2)">
<path fill-rule="evenodd" clip-rule="evenodd" d="M98.8924 2.99599C51.0536 13.88 14.7947 49.852 3.44668 97.686C1.3363 106.584 1.00499 110.397 1.01302 125.742C1.02105 140.826 1.38249 145.081 3.41455 154C14.2616 201.603 51.4763 238.464 99.3944 249.068C111.564 251.761 141.466 251.758 153.61 249.062C201.686 238.39 238.155 202.377 249.557 154.314C251.668 145.416 251.999 141.603 251.991 126.258C251.983 111.174 251.621 106.919 249.589 98C238.742 50.397 201.528 13.536 153.61 2.93199C141.69 0.293996 110.608 0.330996 98.8924 2.99599Z" fill="#FF00FF"/>
<path fill-rule="evenodd" clip-rule="evenodd" d="M98.8924 2.99599C51.0536 13.88 14.7947 49.852 3.44668 97.686C0.0823251 111.869 -0.0783125 138.032 3.10934 152.767C13.5498 201.036 50.9602 238.192 99.9888 248.987C112.618 251.768 140.401 251.817 153.179 249.08C201.263 238.781 238.115 202.546 249.557 154.314C251.668 145.416 251.999 141.603 251.991 126.258C251.983 111.174 251.622 106.919 249.589 98C238.742 50.397 201.528 13.536 153.61 2.93199C141.69 0.293996 110.608 0.330996 98.8924 2.99599Z" fill="#8080FF"/>
<path fill-rule="evenodd" clip-rule="evenodd" d="M98.8924 2.996C51.0536 13.88 14.7947 49.852 3.44668 97.686C0.0823251 111.869 -0.0783125 138.032 3.10934 152.767C13.7164 201.806 51.8728 239.038 102.221 249.477C109.772 251.043 141.035 251.655 147.514 250.364C150.224 249.824 150.66 249.34 150.401 247.154C150.116 244.746 150.583 244.441 157.626 242.435C178.402 236.516 194.13 227.393 210.837 211.568C216.082 206.599 219.178 203.876 217.714 205.517C216.181 207.236 215.064 209.665 215.079 211.25C215.126 216.478 217.509 214.541 227.849 200.87C238.684 186.546 245.253 172.457 249.557 154.314C251.668 145.416 251.999 141.603 251.991 126.258C251.983 111.146 251.625 106.935 249.58 98C245.613 80.649 239.966 68.112 229.314 53C221.308 41.643 205.623 26 202.242 26C199.085 26 202.129 30.984 210.335 39.247L219.371 48.347L210.119 39.674C193.965 24.53 175.65 14.354 156.133 9.677C147.142 7.523 146.924 7.402 147.931 5.156C148.721 3.391 148.626 2.635 147.522 1.94C146.728 1.44 137.27 1.062 126.502 1.1C111.335 1.153 105.115 1.58 98.8924 2.996ZM130.267 5.716C128.748 5.945 126.264 5.945 124.745 5.716C123.226 5.487 124.469 5.3 127.506 5.3C130.543 5.3 131.785 5.487 130.267 5.716ZM113.701 6.662C113.011 6.94 111.882 6.94 111.191 6.662C110.501 6.385 111.066 6.158 112.446 6.158C113.827 6.158 114.392 6.385 113.701 6.662ZM143.84 6.656C143.16 6.93 141.805 6.947 140.828 6.693C139.851 6.439 140.407 6.215 142.064 6.195C143.72 6.175 144.519 6.382 143.84 6.656ZM222.009 51.75C223.257 53.336 223.222 53.371 221.629 52.128C220.663 51.373 219.873 50.585 219.873 50.378C219.873 49.555 220.697 50.084 222.009 51.75ZM151.853 72.942C161.102 77.998 168.669 82.342 168.669 82.593C168.669 82.845 167.347 82.37 165.731 81.538L162.793 80.024L163.57 82.762C163.998 84.268 164.262 86.85 164.157 88.5C164.053 90.15 164.687 92.385 165.565 93.466C166.445 94.547 164.904 93.473 162.143 91.08C159.382 88.687 149.453 82.515 140.078 77.364C130.703 72.214 123.391 68 123.829 68C124.267 68 125.45 68.439 126.457 68.976C127.966 69.78 128.504 69.43 129.524 66.976C130.205 65.339 131.272 63.99 131.894 63.978C132.518 63.966 131.898 63.021 130.518 61.879L128.008 59.802L131.522 61.775C133.455 62.86 142.603 67.885 151.853 72.942ZM123.49 73.57C123.49 73.845 122.586 73.589 121.482 73C120.378 72.411 119.474 71.705 119.474 71.43C119.474 71.155 120.378 71.411 121.482 72C122.586 72.589 123.49 73.295 123.49 73.57ZM146.08 85.789C150.497 88.231 155.623 91.64 157.47 93.365C160.992 96.652 166.672 104.276 166.646 105.68C166.637 106.131 166.151 105.825 165.565 105C164.804 103.928 164.647 107.785 165.018 118.534C165.851 142.688 167.949 172 168.846 172C169.301 172 169.673 172.702 169.673 173.559C169.673 174.416 169.227 174.843 168.68 174.507C168.133 174.17 167.932 174.529 168.233 175.308C168.926 177.11 164.312 182.607 160.425 184.61C156.65 186.554 156.225 186.099 158.177 182.203C159.512 179.535 159.696 174.533 159.436 147.791L159.131 116.5L156.288 110.732C151.97 101.975 145.682 96.263 132.386 89.024L120.701 82.661L121.739 79.58C123.982 72.926 121.813 72.373 146.08 85.789ZM173.689 86.5C174.986 87.875 175.822 89 175.546 89C175.27 89 173.982 87.875 172.685 86.5C171.388 85.125 170.553 84 170.829 84C171.105 84 172.392 85.125 173.689 86.5ZM133.028 95.272C144.358 101.325 152.003 111.131 154.489 122.799C155.978 129.789 155.985 176.142 154.498 181.477C152.494 188.666 141.893 196.709 139.461 192.885C138.042 190.652 138.394 190 141.025 190C142.451 190 143.943 189.173 144.548 188.048C145.458 186.354 145.01 185.753 141.169 183.511C138.235 181.798 136.522 180.011 136.092 178.213C135.735 176.721 135.199 174.685 134.901 173.689C134.423 172.093 134.961 172.182 139.433 174.439C142.223 175.848 144.747 177 145.043 177C145.337 177 145.578 175.743 145.578 174.208C145.578 171.824 144.611 170.852 138.973 167.568C134.68 165.066 132.045 162.806 131.444 161.11C130.934 159.674 130.055 157.702 129.491 156.728C128.75 155.447 130.695 156.072 136.497 158.978C140.914 161.19 144.765 163 145.054 163C145.342 163 145.578 156.12 145.578 147.71C145.578 137.118 145.099 130.589 144.02 126.46C140.983 114.848 134.374 106.742 122.712 100.326L115.757 96.5L117.113 92.601C118.199 89.476 118.219 88.403 117.214 87.192C116.524 86.361 118.445 87.115 121.482 88.867C124.519 90.62 129.715 93.502 133.028 95.272ZM103.149 108.25C102.954 111.688 102.793 108.875 102.793 102C102.793 95.125 102.954 92.313 103.149 95.75C103.346 99.188 103.346 104.813 103.149 108.25ZM117.734 148.872C121.956 151.35 123.87 152.897 122.304 152.566C120.824 152.253 118.533 152.406 117.212 152.906C115.342 153.614 113.719 153.215 109.864 151.097C107.143 149.602 104.99 147.956 105.079 147.439C105.167 146.923 106.035 143.125 107.005 139C108.171 134.037 108.965 125.242 109.352 113L109.936 94.5L110.204 119.554L110.472 144.608L117.734 148.872ZM169.355 114.188C169.035 114.985 168.797 114.748 168.749 113.583C168.705 112.529 168.942 111.939 169.276 112.271C169.609 112.603 169.645 113.466 169.355 114.188ZM174.354 115.25C174.076 115.938 173.848 115.375 173.848 114C173.848 112.625 174.076 112.063 174.354 112.75C174.633 113.438 174.633 114.563 174.354 115.25ZM246.662 114.188C246.342 114.985 246.104 114.748 246.055 113.583C246.012 112.529 246.249 111.939 246.583 112.271C246.916 112.603 246.952 113.466 246.662 114.188ZM170.424 157.191C170.253 164.511 170.111 158.8 170.111 144.5C170.11 130.2 170.251 124.211 170.423 131.191C170.595 138.171 170.596 149.871 170.424 157.191ZM246.662 139.188C246.342 139.985 246.104 139.748 246.055 138.583C246.012 137.529 246.249 136.939 246.583 137.271C246.916 137.603 246.952 138.466 246.662 139.188ZM106.15 156.604C105.817 156.936 104.95 156.972 104.227 156.683C103.425 156.364 103.663 156.127 104.833 156.079C105.891 156.036 106.484 156.272 106.15 156.604ZM174.375 170.188C174.055 170.985 173.817 170.748 173.769 169.583C173.725 168.529 173.962 167.939 174.296 168.271C174.629 168.603 174.665 169.466 174.375 170.188ZM172.351 176.5C172.351 177.325 171.974 178 171.514 178C170.512 178 170.411 176.599 171.347 175.667C172.278 174.74 172.351 174.801 172.351 176.5ZM225.896 195.378C225.896 195.585 225.106 196.373 224.139 197.128C222.547 198.371 222.512 198.336 223.76 196.75C225.072 195.084 225.896 194.555 225.896 195.378ZM222.884 199.378C222.884 199.585 222.094 200.373 221.128 201.128C219.535 202.371 219.5 202.336 220.748 200.75C222.06 199.084 222.884 198.555 222.884 199.378Z" fill="#494A94"/>
<path fill-rule="evenodd" clip-rule="evenodd" d="M98.8924 2.99599C51.0536 13.88 14.7947 49.852 3.44668 97.686C0.0823251 111.869 -0.0783125 138.032 3.10934 152.767C8.54993 177.921 20.2825 198.518 40.1594 217.813C47.1099 224.559 59.9178 233.527 57.8546 230.202C57.5825 229.763 57.7381 228.795 58.201 228.049C58.7963 227.089 57.459 225.41 53.6168 222.292C45.857 215.996 46.9202 216.147 55.4701 222.554C79.1792 240.323 112.154 248.941 141.093 244.932C183.051 239.119 216.29 215.021 235.006 176.845C237.795 171.155 239.763 167.625 239.381 169C237.325 176.378 227.22 193.849 219.669 203.082C213.38 210.773 213.321 218.232 219.603 211.25C234.482 194.716 244.481 175.711 249.557 154.314C251.668 145.416 251.999 141.603 251.991 126.258C251.983 111.146 251.625 106.935 249.58 98C245.613 80.649 239.966 68.112 229.314 53C221.308 41.643 205.623 26 202.242 26C199.131 26 202.264 30.964 210.914 39.743C220.178 49.142 228.242 59.83 232.801 68.75C233.996 71.088 234.746 73 234.467 73C234.189 73 232.865 70.862 231.525 68.25C224.883 55.305 210.238 38.655 197.654 29.743C178.016 15.836 160.851 9.48599 135.036 6.57999L121.984 5.11099L132.024 5.60099C137.546 5.86999 143.268 6.32199 144.737 6.60599C146.853 7.01299 147.558 6.66399 148.108 4.93599C148.554 3.53899 148.313 2.43999 147.442 1.88999C146.693 1.41799 137.27 1.06199 126.502 1.09999C111.335 1.15299 105.115 1.57999 98.8924 2.99599ZM121.399 6.36299C121.169 6.56199 117.14 6.96299 112.446 7.25299C107.536 7.55599 105.404 7.45799 107.426 7.02199C111.047 6.23999 122.144 5.71699 121.399 6.36299ZM103.138 8.60399C102.805 8.93599 101.939 8.97199 101.215 8.68299C100.413 8.36399 100.651 8.12699 101.821 8.07899C102.879 8.03599 103.472 8.27199 103.138 8.60399ZM99.1223 9.60399C98.789 9.93599 97.9226 9.97199 97.1987 9.68299C96.3975 9.36399 96.6355 9.12699 97.8051 9.07899C98.8633 9.03599 99.4557 9.27199 99.1223 9.60399ZM95.1064 10.604C94.7731 10.936 93.9067 10.972 93.1828 10.683C92.3816 10.364 92.6195 10.127 93.7892 10.079C94.8474 10.036 95.4397 10.272 95.1064 10.604ZM84.3347 14C83.5064 14.533 82.3769 14.969 81.8247 14.969C81.2725 14.969 81.4984 14.533 82.3267 14C83.155 13.467 84.2845 13.031 84.8367 13.031C85.3888 13.031 85.1629 13.467 84.3347 14ZM78.3108 16.5C76.9303 17.286 75.349 17.929 74.7968 17.929C74.2446 17.929 74.9223 17.286 76.3028 16.5C77.6833 15.714 79.2645 15.071 79.8167 15.071C80.3689 15.071 79.6912 15.714 78.3108 16.5ZM73.2908 18.48C73.2908 18.743 71.4837 19.878 69.2749 21C67.0661 22.122 65.259 22.817 65.259 22.544C65.259 22.271 66.9537 21.157 69.0239 20.068C73.2838 17.828 73.2908 17.826 73.2908 18.48ZM64.255 23.367C64.255 23.569 62.4478 24.925 60.239 26.381C58.0303 27.837 56.2231 28.813 56.2231 28.55C56.2231 28.111 63.3715 23 63.9859 23C64.1335 23 64.255 23.165 64.255 23.367ZM55.2191 29.378C55.2191 29.585 54.428 30.373 53.4622 31.128C51.8698 32.371 51.8347 32.336 53.0826 30.75C54.3949 29.084 55.2191 28.555 55.2191 29.378ZM51.2032 32.313C51.2032 32.485 49.7354 33.948 47.9402 35.563L44.6773 38.5L47.626 35.25C50.3749 32.221 51.2032 31.54 51.2032 32.313ZM38.1514 45.313C38.1514 45.485 36.6836 46.948 34.8884 48.563L31.6255 51.5L34.5742 48.25C37.3231 45.221 38.1514 44.54 38.1514 45.313ZM114.949 51.989C115.294 52.544 114.914 52.729 114.083 52.412C113.268 52.1 111.552 52.355 110.266 52.978C108.036 54.058 108.019 54.039 109.877 52.555C112.11 50.774 114.061 50.556 114.949 51.989ZM32.1275 52.378C32.1275 52.585 31.3364 53.373 30.3705 54.128C28.7782 55.371 28.7431 55.336 29.991 53.75C31.3032 52.084 32.1275 51.555 32.1275 52.378ZM149.56 71C161.511 77.509 168.625 82.074 172.158 85.5C174.994 88.25 175.482 88.861 173.243 86.859C171.004 84.856 167.736 82.499 165.982 81.621L162.793 80.024L163.57 82.762C163.998 84.268 164.272 86.85 164.18 88.5C164.08 90.28 164.943 92.737 166.301 94.542C167.559 96.215 169.85 100.265 171.39 103.542L174.191 109.5L174.496 139.654C174.749 164.717 174.546 170.415 173.293 173.404C172.462 175.382 172.1 176.998 172.485 176.996C174.412 176.986 179.964 172.638 181.726 169.759C182.824 167.967 183.723 167.047 183.725 167.715C183.735 170.796 171.83 180.481 170.123 178.781C169.907 178.566 170.646 176.548 171.765 174.296C173.695 170.41 173.784 168.654 173.493 139.826L173.187 109.45L169.9 102.803C164.919 92.733 159.289 88.335 133.177 74.123C110.048 61.534 103.317 57.342 119.222 65.431L128.005 69.898L129.408 67.199C130.179 65.715 131.258 64.21 131.806 63.856C132.353 63.502 129.125 61.1 124.632 58.519C120.139 55.937 116.462 53.613 116.462 53.354C116.462 53.095 119.985 54.821 124.29 57.191C128.595 59.561 139.967 65.775 149.56 71ZM106.071 55.465C105.049 56.236 104.508 57.342 104.868 57.922C105.266 58.563 104.911 58.744 103.965 58.382C101.787 57.549 102.022 56.49 104.665 55.22C107.783 53.723 108.268 53.807 106.071 55.465ZM99.3111 59.373C98.286 60.286 92.3665 63.001 92.3665 62.558C92.3665 61.936 97.5722 59.094 98.8091 59.04C99.3151 59.018 99.541 59.168 99.3111 59.373ZM106.422 63.551C106.422 63.826 105.067 63.353 103.41 62.5C101.754 61.647 100.398 60.724 100.398 60.449C100.398 60.174 101.754 60.647 103.41 61.5C105.067 62.353 106.422 63.276 106.422 63.551ZM134.619 78.843C154.624 89.818 158.538 92.55 163.137 98.748C170.068 108.087 170.805 112.8 170.47 145.65L170.175 174.651L167.413 178.806C164.982 182.464 157.171 187.881 156.004 186.719C155.772 186.487 156.484 184.318 157.585 181.899C159.428 177.855 159.591 175.318 159.611 150.46C159.636 119.996 158.915 115.079 153.143 106.378C148.488 99.364 143.44 95.572 126.753 86.556C118.884 82.305 112.446 78.631 112.446 78.393C112.446 78.154 114.235 78.868 116.422 79.98C121.082 82.348 121.48 82.408 121.488 80.75C121.492 80.063 122.102 78.341 122.844 76.924C124.181 74.372 124.115 74.302 115.811 69.56C111.199 66.927 107.426 64.556 107.426 64.291C107.426 64.026 109.798 65.137 112.697 66.759C115.597 68.382 125.461 73.819 134.619 78.843ZM96.3825 69.551C96.3825 69.826 95.0271 69.353 93.3705 68.5C91.7139 67.647 90.3586 66.724 90.3586 66.449C90.3586 66.174 91.7139 66.647 93.3705 67.5C95.0271 68.353 96.3825 69.276 96.3825 69.551ZM19.3719 72.472C17.889 75.482 16.5085 77.776 16.3027 77.571C15.8519 77.122 20.916 67 21.5917 67C21.8527 67 20.8538 69.462 19.3719 72.472ZM82.3267 68.465C82.3267 68.72 81.3097 69.42 80.0677 70.02C77.8981 71.067 77.8861 71.049 79.7575 69.555C81.8056 67.921 82.3267 67.7 82.3267 68.465ZM96.3825 74.551C96.3825 74.826 95.0271 74.353 93.3705 73.5C91.7139 72.647 90.3586 71.724 90.3586 71.449C90.3586 71.174 91.7139 71.647 93.3705 72.5C95.0271 73.353 96.3825 74.276 96.3825 74.551ZM111.442 77.534C111.442 77.809 109.183 76.894 106.422 75.5C103.661 74.106 101.402 72.741 101.402 72.466C101.402 72.191 103.661 73.106 106.422 74.5C109.183 75.894 111.442 77.259 111.442 77.534ZM237.873 79.5C237.873 80.05 237.227 79.375 236.438 78C235.649 76.625 235.004 75.05 235.004 74.5C235.004 73.95 235.649 74.625 236.438 76C237.227 77.375 237.873 78.95 237.873 79.5ZM105.418 79.551C105.418 79.826 104.063 79.353 102.406 78.5C100.75 77.647 99.3944 76.724 99.3944 76.449C99.3944 76.174 100.75 76.647 102.406 77.5C104.063 78.353 105.418 79.276 105.418 79.551ZM84.0827 139.183C83.921 150.358 83.7885 141.5 83.7885 119.5C83.7875 97.5 83.92 88.358 84.0827 99.183C84.2443 110.009 84.2443 128.009 84.0827 139.183ZM89.1166 118.785L88.8787 155.5L88.6016 119.101C88.3496 85.942 88.1699 82.577 86.5806 81.296C85.0144 80.033 85.0666 80.001 87.0956 80.98L89.3546 82.07L89.1166 118.785ZM123.992 89.574C141.897 99.438 147.652 104.355 152.274 113.735L155.116 119.5L155.443 149.5C155.656 169.07 155.392 180.766 154.682 183.14C152.395 190.798 141.781 196.93 133.184 195.561C129.849 195.03 88.3506 173.564 88.3506 172.37C88.3506 172.148 90.6547 173.129 93.4699 174.55C96.2861 175.972 98.7197 176.992 98.8774 176.817C99.036 176.643 99.4657 174.683 99.8342 172.463C100.484 168.541 100.386 168.362 96.4347 166.149C94.1968 164.897 92.3665 163.643 92.3665 163.363C92.3665 163.082 94.7379 164.199 97.6375 165.843C119.999 178.529 140.285 189.038 141.936 188.793C143.025 188.632 144.074 188.017 144.269 187.427C144.463 186.836 133.429 180.22 119.749 172.725C94.7108 159.005 88.2944 155.28 96.0913 158.989C100.963 161.307 101.402 161.384 101.402 159.929C101.402 159.339 102.123 158.139 103.005 157.262C104.471 155.801 104.28 155.469 100.746 153.338C98.6224 152.058 97.1947 151.008 97.5742 151.005C97.9537 151.002 108.513 156.625 121.039 163.5C133.567 170.375 143.986 176 144.195 176C144.403 176 144.572 174.988 144.57 173.75C144.567 171.855 141.243 169.685 123.515 160L102.464 148.5L102.435 119.282L102.406 90.064L99.6454 88.572C98.1264 87.751 97.3483 87.062 97.9156 87.04C98.4838 87.018 99.9516 87.701 101.179 88.557C103.397 90.104 103.41 90.283 103.41 118.998C103.41 134.884 103.769 148.102 104.206 148.372C104.643 148.641 105.077 148.105 105.168 147.181C105.261 146.256 106.105 142.35 107.046 138.5C108.169 133.901 108.958 125.154 109.346 113C109.968 93.491 109.952 93.545 114.525 95.427C115.703 95.912 116.39 95.14 117.243 92.373C117.871 90.336 118.14 88.277 117.843 87.797C117.544 87.317 114.853 85.548 111.861 83.867C108.87 82.185 106.422 80.6 106.422 80.346C106.422 80.091 106.762 80.071 107.175 80.303C107.589 80.534 115.157 84.706 123.992 89.574ZM239.921 84.5C239.921 85.05 239.483 84.825 238.948 84C238.413 83.175 237.975 82.05 237.975 81.5C237.975 80.95 238.413 81.175 238.948 82C239.483 82.825 239.921 83.95 239.921 84.5ZM98.0511 92.25C97.773 92.938 97.5451 92.375 97.5451 91C97.5451 89.625 97.773 89.063 98.0511 89.75C98.3302 90.438 98.3302 91.563 98.0511 92.25ZM242.646 94.188C242.326 94.985 242.088 94.748 242.039 93.583C241.996 92.529 242.233 91.939 242.567 92.271C242.9 92.603 242.936 93.466 242.646 94.188ZM110.438 119.433V143.866L126.698 152.683C135.641 157.532 143.322 161.65 143.766 161.833C144.21 162.017 144.574 154.969 144.574 146.172C144.574 133.325 144.202 128.989 142.685 124.136C140.584 117.409 135.242 109.518 130.271 105.799C126.898 103.275 112.183 95 111.068 95C110.721 95 110.438 105.995 110.438 119.433ZM9.72158 98.188C9.40131 98.985 9.16336 98.748 9.11517 97.583C9.072 96.529 9.30894 95.939 9.64226 96.271C9.97558 96.603 10.0117 97.466 9.72158 98.188ZM243.65 98.188C243.33 98.985 243.092 98.748 243.043 97.583C243 96.529 243.237 95.939 243.571 96.271C243.904 96.603 243.94 97.466 243.65 98.188ZM244.633 103.25C244.355 103.938 244.127 103.375 244.127 102C244.127 100.625 244.355 100.063 244.633 100.75C244.912 101.438 244.912 102.563 244.633 103.25ZM8.71759 103.188C8.39732 103.985 8.15938 103.748 8.11119 102.583C8.06802 101.529 8.30496 100.939 8.63828 101.271C8.9716 101.603 9.00774 102.466 8.71759 103.188ZM165.093 118.534C165.783 141.919 167.925 172 168.901 172C169.395 172 169.648 158.91 169.478 142.25C169.183 113.709 169.079 112.317 166.91 108L164.65 103.5L165.093 118.534ZM184.394 108.25C184.116 108.938 183.888 108.375 183.888 107C183.888 105.625 184.116 105.063 184.394 105.75C184.673 106.438 184.673 107.563 184.394 108.25ZM245.668 108.731C245.413 109.704 245.188 109.15 245.168 107.5C245.148 105.85 245.356 105.054 245.631 105.731C245.906 106.408 245.923 107.758 245.668 108.731ZM7.69252 109.25C7.41442 109.938 7.18652 109.375 7.18652 108C7.18652 106.625 7.41442 106.063 7.69252 106.75C7.97163 107.438 7.97163 108.563 7.69252 109.25ZM246.695 119.75C246.465 121.263 246.277 120.025 246.277 117C246.277 113.975 246.465 112.737 246.695 114.25C246.925 115.763 246.925 118.237 246.695 119.75ZM6.74476 119.736C6.51385 121.256 6.31907 120.25 6.31104 117.5C6.30401 114.75 6.49276 113.506 6.73071 114.736C6.96865 115.966 6.97468 118.216 6.74476 119.736ZM246.704 137.232C246.48 139.029 246.292 137.8 246.287 134.5C246.281 131.2 246.464 129.729 246.694 131.232C246.923 132.735 246.927 135.435 246.704 137.232ZM6.73272 137.25C6.49276 138.488 6.29699 137.475 6.29699 135C6.29699 132.525 6.49276 131.512 6.73272 132.75C6.97166 133.988 6.97166 136.012 6.73272 137.25ZM7.69252 145.25C7.41442 145.938 7.18652 145.375 7.18652 144C7.18652 142.625 7.41442 142.063 7.69252 142.75C7.97163 143.438 7.97163 144.563 7.69252 145.25ZM245.668 145.731C245.413 146.704 245.188 146.15 245.168 144.5C245.148 142.85 245.356 142.054 245.631 142.731C245.906 143.408 245.923 144.758 245.668 145.731ZM244.633 151.25C244.355 151.938 244.127 151.375 244.127 150C244.127 148.625 244.355 148.063 244.633 148.75C244.912 149.438 244.912 150.563 244.633 151.25ZM8.71759 151.188C8.39732 151.985 8.15938 151.748 8.11119 150.583C8.06802 149.529 8.30496 148.939 8.63828 149.271C8.9716 149.603 9.00774 150.466 8.71759 151.188ZM9.72158 155.188C9.40131 155.985 9.16336 155.748 9.11517 154.583C9.072 153.529 9.30894 152.939 9.64226 153.271C9.97558 153.603 10.0117 154.466 9.72158 155.188ZM243.65 155.188C243.33 155.985 243.092 155.748 243.043 154.583C243 153.529 243.237 152.939 243.571 153.271C243.904 153.603 243.94 154.466 243.65 155.188ZM242.646 159.188C242.326 159.985 242.088 159.748 242.039 158.583C241.996 157.529 242.233 156.939 242.567 157.271C242.9 157.603 242.936 158.466 242.646 159.188ZM91.3626 162.551C91.3626 162.826 90.0072 162.353 88.3506 161.5C86.694 160.647 85.3386 159.724 85.3386 159.449C85.3386 159.174 86.694 159.647 88.3506 160.5C90.0072 161.353 91.3626 162.276 91.3626 162.551ZM184.415 165.188C184.095 165.985 183.857 165.748 183.808 164.583C183.765 163.529 184.002 162.939 184.336 163.271C184.669 163.603 184.705 164.466 184.415 165.188ZM83.3307 169.57C83.3307 169.845 82.4271 169.589 81.3227 169C80.2183 168.411 79.3147 167.705 79.3147 167.43C79.3147 167.155 80.2183 167.411 81.3227 168C82.4271 168.589 83.3307 169.295 83.3307 169.57ZM22.0876 185C22.679 186.1 22.936 187 22.6599 187C22.3838 187 21.675 186.1 21.0837 185C20.4923 183.9 20.2353 183 20.5114 183C20.7875 183 21.4963 183.9 22.0876 185ZM29.1155 196C30.2952 197.65 31.0342 199 30.7581 199C30.482 199 29.2912 197.65 28.1116 196C26.9319 194.35 26.1929 193 26.469 193C26.7451 193 27.9359 194.35 29.1155 196ZM34.1355 202.5C35.4326 203.875 36.2679 205 35.9918 205C35.7157 205 34.4286 203.875 33.1315 202.5C31.8343 201.125 30.999 200 31.2751 200C31.5512 200 32.8383 201.125 34.1355 202.5ZM42.1673 211.5C45.1662 214.525 47.3951 217 47.119 217C46.8429 217 44.1622 214.525 41.1633 211.5C38.1644 208.475 35.9356 206 36.2117 206C36.4878 206 39.1684 208.475 42.1673 211.5Z" fill="#0000FF"/>
<path fill-rule="evenodd" clip-rule="evenodd" d="M98.8924 2.99599C51.0536 13.88 14.7947 49.852 3.44668 97.686C0.0823251 111.869 -0.0783125 138.032 3.10934 152.767C8.54993 177.921 20.2825 198.518 40.1594 217.813C47.1099 224.559 59.9178 233.527 57.8546 230.202C57.5825 229.763 57.7381 228.795 58.201 228.049C58.7963 227.089 57.459 225.41 53.6168 222.292C45.857 215.996 46.9202 216.147 55.4701 222.554C79.1792 240.323 112.154 248.941 141.093 244.932C183.051 239.119 216.29 215.021 235.006 176.845C237.795 171.155 239.763 167.625 239.381 169C237.325 176.378 227.22 193.849 219.669 203.082C213.38 210.773 213.321 218.232 219.603 211.25C234.482 194.716 244.481 175.711 249.557 154.314C251.668 145.416 251.999 141.603 251.991 126.258C251.983 111.146 251.625 106.935 249.58 98C245.613 80.649 239.966 68.112 229.314 53C221.308 41.643 205.623 26 202.242 26C199.131 26 202.264 30.964 210.914 39.743C220.178 49.142 228.242 59.83 232.801 68.75C233.996 71.088 234.746 73 234.467 73C234.189 73 232.865 70.862 231.525 68.25C224.883 55.305 210.238 38.655 197.654 29.743C178.016 15.836 160.851 9.48599 135.036 6.57999L121.984 5.11099L132.024 5.60099C137.546 5.86999 143.268 6.32199 144.737 6.60599C146.853 7.01299 147.558 6.66399 148.108 4.93599C148.554 3.53899 148.313 2.43999 147.442 1.88999C146.693 1.41799 137.27 1.06199 126.502 1.09999C111.335 1.15299 105.115 1.57999 98.8924 2.99599ZM121.399 6.36299C121.169 6.56199 117.14 6.96299 112.446 7.25299C107.536 7.55599 105.404 7.45799 107.426 7.02199C111.047 6.23999 122.144 5.71699 121.399 6.36299ZM103.138 8.60399C102.805 8.93599 101.939 8.97199 101.215 8.68299C100.413 8.36399 100.651 8.12699 101.821 8.07899C102.879 8.03599 103.472 8.27199 103.138 8.60399ZM99.1223 9.60399C98.789 9.93599 97.9226 9.97199 97.1987 9.68299C96.3975 9.36399 96.6355 9.12699 97.8051 9.07899C98.8633 9.03599 99.4557 9.27199 99.1223 9.60399ZM95.1064 10.604C94.7731 10.936 93.9067 10.972 93.1828 10.683C92.3816 10.364 92.6195 10.127 93.7892 10.079C94.8474 10.036 95.4397 10.272 95.1064 10.604ZM84.3347 14C83.5064 14.533 82.3769 14.969 81.8247 14.969C81.2725 14.969 81.4984 14.533 82.3267 14C83.155 13.467 84.2845 13.031 84.8367 13.031C85.3888 13.031 85.1629 13.467 84.3347 14ZM78.3108 16.5C76.9303 17.286 75.349 17.929 74.7968 17.929C74.2446 17.929 74.9223 17.286 76.3028 16.5C77.6833 15.714 79.2645 15.071 79.8167 15.071C80.3689 15.071 79.6912 15.714 78.3108 16.5ZM73.2908 18.48C73.2908 18.743 71.4837 19.878 69.2749 21C67.0661 22.122 65.259 22.817 65.259 22.544C65.259 22.271 66.9537 21.157 69.0239 20.068C73.2838 17.828 73.2908 17.826 73.2908 18.48ZM64.255 23.367C64.255 23.569 62.4478 24.925 60.239 26.381C58.0303 27.837 56.2231 28.813 56.2231 28.55C56.2231 28.111 63.3715 23 63.9859 23C64.1335 23 64.255 23.165 64.255 23.367ZM55.2191 29.378C55.2191 29.585 54.428 30.373 53.4622 31.128C51.8698 32.371 51.8347 32.336 53.0826 30.75C54.3949 29.084 55.2191 28.555 55.2191 29.378ZM51.2032 32.313C51.2032 32.485 49.7354 33.948 47.9402 35.563L44.6773 38.5L47.626 35.25C50.3749 32.221 51.2032 31.54 51.2032 32.313ZM38.1514 45.313C38.1514 45.485 36.6836 46.948 34.8884 48.563L31.6255 51.5L34.5742 48.25C37.3231 45.221 38.1514 44.54 38.1514 45.313ZM114.949 51.989C115.294 52.544 114.914 52.729 114.083 52.412C113.268 52.1 111.552 52.355 110.266 52.978C108.036 54.058 108.019 54.039 109.877 52.555C112.11 50.774 114.061 50.556 114.949 51.989ZM32.1275 52.378C32.1275 52.585 31.3364 53.373 30.3705 54.128C28.7782 55.371 28.7431 55.336 29.991 53.75C31.3032 52.084 32.1275 51.555 32.1275 52.378ZM149.56 71C161.511 77.509 168.625 82.074 172.158 85.5C174.994 88.25 175.482 88.861 173.243 86.859C171.004 84.856 167.736 82.499 165.982 81.621L162.793 80.024L163.57 82.762C163.998 84.268 164.272 86.85 164.18 88.5C164.08 90.28 164.943 92.737 166.301 94.542C167.559 96.215 169.85 100.265 171.39 103.542L174.191 109.5L174.496 139.654C174.749 164.717 174.546 170.415 173.293 173.404C172.462 175.382 172.1 176.998 172.485 176.996C174.412 176.986 179.964 172.638 181.726 169.759C182.824 167.967 183.723 167.047 183.725 167.715C183.735 170.796 171.83 180.481 170.123 178.781C169.907 178.566 170.646 176.548 171.765 174.296C173.695 170.41 173.784 168.654 173.493 139.826L173.187 109.45L169.9 102.803C164.919 92.733 159.289 88.335 133.177 74.123C110.048 61.534 103.317 57.342 119.222 65.431L128.005 69.898L129.408 67.199C130.179 65.715 131.258 64.21 131.806 63.856C132.353 63.502 129.125 61.1 124.632 58.519C120.139 55.937 116.462 53.613 116.462 53.354C116.462 53.095 119.985 54.821 124.29 57.191C128.595 59.561 139.967 65.775 149.56 71ZM106.071 55.465C105.049 56.236 104.508 57.342 104.868 57.922C105.266 58.563 104.911 58.744 103.965 58.382C101.787 57.549 102.022 56.49 104.665 55.22C107.783 53.723 108.268 53.807 106.071 55.465ZM99.3111 59.373C98.286 60.286 92.3665 63.001 92.3665 62.558C92.3665 61.936 97.5722 59.094 98.8091 59.04C99.3151 59.018 99.541 59.168 99.3111 59.373ZM106.422 63.551C106.422 63.826 105.067 63.353 103.41 62.5C101.754 61.647 100.398 60.724 100.398 60.449C100.398 60.174 101.754 60.647 103.41 61.5C105.067 62.353 106.422 63.276 106.422 63.551ZM134.619 78.843C154.624 89.818 158.538 92.55 163.137 98.748C170.068 108.087 170.805 112.8 170.47 145.65L170.175 174.651L167.413 178.806C164.982 182.464 157.171 187.881 156.004 186.719C155.772 186.487 156.484 184.318 157.585 181.899C159.428 177.855 159.591 175.318 159.611 150.46C159.636 119.996 158.915 115.079 153.143 106.378C148.488 99.364 143.44 95.572 126.753 86.556C118.884 82.305 112.446 78.631 112.446 78.393C112.446 78.154 114.235 78.868 116.422 79.98C121.082 82.348 121.48 82.408 121.488 80.75C121.492 80.063 122.102 78.341 122.844 76.924C124.181 74.372 124.115 74.302 115.811 69.56C111.199 66.927 107.426 64.556 107.426 64.291C107.426 64.026 109.798 65.137 112.697 66.759C115.597 68.382 125.461 73.819 134.619 78.843ZM96.3825 69.551C96.3825 69.826 95.0271 69.353 93.3705 68.5C91.7139 67.647 90.3586 66.724 90.3586 66.449C90.3586 66.174 91.7139 66.647 93.3705 67.5C95.0271 68.353 96.3825 69.276 96.3825 69.551ZM19.3719 72.472C17.889 75.482 16.5085 77.776 16.3027 77.571C15.8519 77.122 20.916 67 21.5917 67C21.8527 67 20.8538 69.462 19.3719 72.472ZM82.3267 68.465C82.3267 68.72 81.3097 69.42 80.0677 70.02C77.8981 71.067 77.8861 71.049 79.7575 69.555C81.8056 67.921 82.3267 67.7 82.3267 68.465ZM96.3825 74.551C96.3825 74.826 95.0271 74.353 93.3705 73.5C91.7139 72.647 90.3586 71.724 90.3586 71.449C90.3586 71.174 91.7139 71.647 93.3705 72.5C95.0271 73.353 96.3825 74.276 96.3825 74.551ZM111.442 77.534C111.442 77.809 109.183 76.894 106.422 75.5C103.661 74.106 101.402 72.741 101.402 72.466C101.402 72.191 103.661 73.106 106.422 74.5C109.183 75.894 111.442 77.259 111.442 77.534ZM237.873 79.5C237.873 80.05 237.227 79.375 236.438 78C235.649 76.625 235.004 75.05 235.004 74.5C235.004 73.95 235.649 74.625 236.438 76C237.227 77.375 237.873 78.95 237.873 79.5ZM105.418 79.551C105.418 79.826 104.063 79.353 102.406 78.5C100.75 77.647 99.3944 76.724 99.3944 76.449C99.3944 76.174 100.75 76.647 102.406 77.5C104.063 78.353 105.418 79.276 105.418 79.551ZM84.0827 139.183C83.921 150.358 83.7885 141.5 83.7885 119.5C83.7875 97.5 83.92 88.358 84.0827 99.183C84.2443 110.009 84.2443 128.009 84.0827 139.183ZM89.1166 118.785L88.8787 155.5L88.6016 119.101C88.3496 85.942 88.1699 82.577 86.5806 81.296C85.0144 80.033 85.0666 80.001 87.0956 80.98L89.3546 82.07L89.1166 118.785ZM123.992 89.574C141.897 99.438 147.652 104.355 152.274 113.735L155.116 119.5L155.443 149.5C155.656 169.07 155.392 180.766 154.682 183.14C152.395 190.798 141.781 196.93 133.184 195.561C129.849 195.03 88.3506 173.564 88.3506 172.37C88.3506 172.148 90.6547 173.129 93.4699 174.55C96.2861 175.972 98.7197 176.992 98.8774 176.817C99.036 176.643 99.4657 174.683 99.8342 172.463C100.484 168.541 100.386 168.362 96.4347 166.149C94.1968 164.897 92.3665 163.643 92.3665 163.363C92.3665 163.082 94.7379 164.199 97.6375 165.843C119.999 178.529 140.285 189.038 141.936 188.793C143.025 188.632 144.074 188.017 144.269 187.427C144.463 186.836 133.429 180.22 119.749 172.725C94.7108 159.005 88.2944 155.28 96.0913 158.989C100.963 161.307 101.402 161.384 101.402 159.929C101.402 159.339 102.123 158.139 103.005 157.262C104.471 155.801 104.28 155.469 100.746 153.338C98.6224 152.058 97.1947 151.008 97.5742 151.005C97.9537 151.002 108.513 156.625 121.039 163.5C133.567 170.375 143.986 176 144.195 176C144.403 176 144.572 174.988 144.57 173.75C144.567 171.855 141.243 169.685 123.515 160L102.464 148.5L102.435 119.282L102.406 90.064L99.6454 88.572C98.1264 87.751 97.3483 87.062 97.9156 87.04C98.4838 87.018 99.9516 87.701 101.179 88.557C103.397 90.104 103.41 90.283 103.41 118.998C103.41 134.884 103.769 148.102 104.206 148.372C104.643 148.641 105.077 148.105 105.168 147.181C105.261 146.256 106.105 142.35 107.046 138.5C108.169 133.901 108.958 125.154 109.346 113C109.968 93.491 109.952 93.545 114.525 95.427C115.703 95.912 116.39 95.14 117.243 92.373C117.871 90.336 118.14 88.277 117.843 87.797C117.544 87.317 114.853 85.548 111.861 83.867C108.87 82.185 106.422 80.6 106.422 80.346C106.422 80.091 106.762 80.071 107.175 80.303C107.589 80.534 115.157 84.706 123.992 89.574ZM239.921 84.5C239.921 85.05 239.483 84.825 238.948 84C238.413 83.175 237.975 82.05 237.975 81.5C237.975 80.95 238.413 81.175 238.948 82C239.483 82.825 239.921 83.95 239.921 84.5ZM98.0511 92.25C97.773 92.938 97.5451 92.375 97.5451 91C97.5451 89.625 97.773 89.063 98.0511 89.75C98.3302 90.438 98.3302 91.563 98.0511 92.25ZM242.646 94.188C242.326 94.985 242.088 94.748 242.039 93.583C241.996 92.529 242.233 91.939 242.567 92.271C242.9 92.603 242.936 93.466 242.646 94.188ZM110.438 119.433V143.866L126.698 152.683C135.641 157.532 143.322 161.65 143.766 161.833C144.21 162.017 144.574 154.969 144.574 146.172C144.574 133.325 144.202 128.989 142.685 124.136C140.584 117.409 135.242 109.518 130.271 105.799C126.898 103.275 112.183 95 111.068 95C110.721 95 110.438 105.995 110.438 119.433ZM9.72158 98.188C9.40131 98.985 9.16336 98.748 9.11517 97.583C9.072 96.529 9.30894 95.939 9.64226 96.271C9.97558 96.603 10.0117 97.466 9.72158 98.188ZM243.65 98.188C243.33 98.985 243.092 98.748 243.043 97.583C243 96.529 243.237 95.939 243.571 96.271C243.904 96.603 243.94 97.466 243.65 98.188ZM244.633 103.25C244.355 103.938 244.127 103.375 244.127 102C244.127 100.625 244.355 100.063 244.633 100.75C244.912 101.438 244.912 102.563 244.633 103.25ZM8.71759 103.188C8.39732 103.985 8.15938 103.748 8.11119 102.583C8.06802 101.529 8.30496 100.939 8.63828 101.271C8.9716 101.603 9.00774 102.466 8.71759 103.188ZM165.093 118.534C165.783 141.919 167.925 172 168.901 172C169.395 172 169.648 158.91 169.478 142.25C169.183 113.709 169.079 112.317 166.91 108L164.65 103.5L165.093 118.534ZM184.394 108.25C184.116 108.938 183.888 108.375 183.888 107C183.888 105.625 184.116 105.063 184.394 105.75C184.673 106.438 184.673 107.563 184.394 108.25ZM245.668 108.731C245.413 109.704 245.188 109.15 245.168 107.5C245.148 105.85 245.356 105.054 245.631 105.731C245.906 106.408 245.923 107.758 245.668 108.731ZM7.69252 109.25C7.41442 109.938 7.18652 109.375 7.18652 108C7.18652 106.625 7.41442 106.063 7.69252 106.75C7.97163 107.438 7.97163 108.563 7.69252 109.25ZM246.695 119.75C246.465 121.263 246.277 120.025 246.277 117C246.277 113.975 246.465 112.737 246.695 114.25C246.925 115.763 246.925 118.237 246.695 119.75ZM6.74476 119.736C6.51385 121.256 6.31907 120.25 6.31104 117.5C6.30401 114.75 6.49276 113.506 6.73071 114.736C6.96865 115.966 6.97468 118.216 6.74476 119.736ZM246.704 137.232C246.48 139.029 246.292 137.8 246.287 134.5C246.281 131.2 246.464 129.729 246.694 131.232C246.923 132.735 246.927 135.435 246.704 137.232ZM6.73272 137.25C6.49276 138.488 6.29699 137.475 6.29699 135C6.29699 132.525 6.49276 131.512 6.73272 132.75C6.97166 133.988 6.97166 136.012 6.73272 137.25ZM7.69252 145.25C7.41442 145.938 7.18652 145.375 7.18652 144C7.18652 142.625 7.41442 142.063 7.69252 142.75C7.97163 143.438 7.97163 144.563 7.69252 145.25ZM245.668 145.731C245.413 146.704 245.188 146.15 245.168 144.5C245.148 142.85 245.356 142.054 245.631 142.731C245.906 143.408 245.923 144.758 245.668 145.731ZM244.633 151.25C244.355 151.938 244.127 151.375 244.127 150C244.127 148.625 244.355 148.063 244.633 148.75C244.912 149.438 244.912 150.563 244.633 151.25ZM8.71759 151.188C8.39732 151.985 8.15938 151.748 8.11119 150.583C8.06802 149.529 8.30496 148.939 8.63828 149.271C8.9716 149.603 9.00774 150.466 8.71759 151.188ZM9.72158 155.188C9.40131 155.985 9.16336 155.748 9.11517 154.583C9.072 153.529 9.30894 152.939 9.64226 153.271C9.97558 153.603 10.0117 154.466 9.72158 155.188ZM243.65 155.188C243.33 155.985 243.092 155.748 243.043 154.583C243 153.529 243.237 152.939 243.571 153.271C243.904 153.603 243.94 154.466 243.65 155.188ZM242.646 159.188C242.326 159.985 242.088 159.748 242.039 158.583C241.996 157.529 242.233 156.939 242.567 157.271C242.9 157.603 242.936 158.466 242.646 159.188ZM91.3626 162.551C91.3626 162.826 90.0072 162.353 88.3506 161.5C86.694 160.647 85.3386 159.724 85.3386 159.449C85.3386 159.174 86.694 159.647 88.3506 160.5C90.0072 161.353 91.3626 162.276 91.3626 162.551ZM184.415 165.188C184.095 165.985 183.857 165.748 183.808 164.583C183.765 163.529 184.002 162.939 184.336 163.271C184.669 163.603 184.705 164.466 184.415 165.188ZM83.3307 169.57C83.3307 169.845 82.4271 169.589 81.3227 169C80.2183 168.411 79.3147 167.705 79.3147 167.43C79.3147 167.155 80.2183 167.411 81.3227 168C82.4271 168.589 83.3307 169.295 83.3307 169.57ZM22.0876 185C22.679 186.1 22.936 187 22.6599 187C22.3838 187 21.675 186.1 21.0837 185C20.4923 183.9 20.2353 183 20.5114 183C20.7875 183 21.4963 183.9 22.0876 185ZM29.1155 196C30.2952 197.65 31.0342 199 30.7581 199C30.482 199 29.2912 197.65 28.1116 196C26.9319 194.35 26.1929 193 26.469 193C26.7451 193 27.9359 194.35 29.1155 196ZM34.1355 202.5C35.4326 203.875 36.2679 205 35.9918 205C35.7157 205 34.4286 203.875 33.1315 202.5C31.8343 201.125 30.999 200 31.2751 200C31.5512 200 32.8383 201.125 34.1355 202.5ZM42.1673 211.5C45.1662 214.525 47.3951 217 47.119 217C46.8429 217 44.1622 214.525 41.1633 211.5C38.1644 208.475 35.9356 206 36.2117 206C36.4878 206 39.1684 208.475 42.1673 211.5Z" fill="#0B1524"/>
<path fill-rule="evenodd" clip-rule="evenodd" d="M98.8924 2.99599C51.0536 13.88 14.7947 49.852 3.44668 97.686C0.0823251 111.869 -0.0783125 138.032 3.10934 152.767C8.54993 177.921 20.2825 198.518 40.1594 217.813C47.1099 224.559 59.9178 233.527 57.8546 230.202C57.5825 229.763 57.7301 228.807 58.1839 228.076C58.7662 227.138 56.4349 224.616 50.2343 219.476C21.8467 195.942 6.04198 162.48 6.02792 125.881C6.01587 94.703 17.8719 65.421 39.5409 43.11C57.952 24.153 78.378 13.015 104.916 7.46199C113.326 5.70299 138.212 5.02999 144.235 6.39899C146.951 7.01599 147.512 6.80399 148.108 4.93599C148.554 3.53899 148.313 2.43999 147.442 1.88999C146.693 1.41799 137.27 1.06199 126.502 1.09999C111.335 1.15299 105.115 1.57999 98.8924 2.99599ZM201.22 27.993C201.264 29.096 205.589 34.338 210.914 39.743C221.167 50.146 228.36 59.993 234.324 71.789C255.63 113.932 249.791 166.249 219.669 203.082C213.38 210.773 213.321 218.232 219.603 211.25C234.482 194.716 244.481 175.711 249.557 154.314C251.668 145.416 251.999 141.603 251.991 126.258C251.981 106.238 249.971 94.495 243.987 79.5C236.57 60.91 223.041 42.16 208.345 30.103C202.78 25.537 201.101 25.04 201.22 27.993ZM108.164 54.228C106.085 55.428 104.523 56.823 104.691 57.328C104.86 57.832 110.175 60.864 116.503 64.065L128.008 69.885L129.409 67.192C130.18 65.712 131.246 64.218 131.778 63.873C132.684 63.287 114.518 51.973 112.753 52.023C112.309 52.036 110.243 53.028 108.164 54.228ZM93.6215 62.247C91.2742 63.428 89.3546 64.645 89.3546 64.953C89.3546 65.53 119.813 82 120.882 82C121.212 82 121.485 81.438 121.488 80.75C121.492 80.063 122.103 78.338 122.846 76.919C124.199 74.338 124.199 74.337 112.136 67.419C105.502 63.613 99.5812 60.41 98.9808 60.3C98.3804 60.189 95.9688 61.066 93.6215 62.247ZM78.3108 70.895L73.7928 73.632V118.918V164.204L86.1438 170.717C92.9368 174.299 98.6455 177.066 98.8302 176.865C99.0139 176.664 99.4657 174.687 99.8322 172.471L100.5 168.441L91.9157 163.5L83.3307 158.559V119.279C83.3307 92.144 83.662 80 84.4009 80C84.9893 80 86.3446 80.466 87.4129 81.035C89.2783 82.03 89.3546 83.51 89.3546 118.827V155.583L94.8986 158.292C101.159 161.35 101.402 161.411 101.402 159.929C101.402 159.339 102.115 158.147 102.987 157.279C104.429 155.842 104.273 155.52 101.23 153.665C99.3924 152.546 97.7519 151.539 97.5842 151.428C97.0963 151.106 97.3905 87.662 97.8824 87.173C98.1274 86.929 99.4717 87.475 100.869 88.388L103.41 90.046V118.964C103.41 134.869 103.769 148.102 104.206 148.372C104.643 148.641 105.077 148.105 105.168 147.181C105.261 146.256 106.105 142.35 107.046 138.5C108.169 133.901 108.958 125.154 109.346 113C109.968 93.491 109.952 93.545 114.525 95.427C115.705 95.913 116.401 95.124 117.289 92.288C118.357 88.884 118.27 88.329 116.435 86.815C114.3 85.053 83.9983 67.942 83.2554 68.079C83.0205 68.122 80.7956 69.389 78.3108 70.895ZM163.571 82.768C163.998 84.271 164.272 86.85 164.18 88.5C164.08 90.28 164.943 92.737 166.301 94.542C167.559 96.215 169.85 100.265 171.39 103.542L174.191 109.5L174.496 139.654C174.749 164.717 174.546 170.415 173.293 173.404C172.462 175.382 172.146 177 172.588 177C174.53 177 180.283 172.194 182.169 168.997C184.126 165.679 184.231 163.962 184.231 135.5C184.231 106.498 184.154 105.31 181.918 99.798C179.203 93.106 171.985 84.705 166.599 81.968L162.796 80.036L163.571 82.768ZM165.093 118.534C165.783 141.919 167.925 172 168.901 172C169.395 172 169.648 158.91 169.478 142.25C169.183 113.709 169.079 112.317 166.91 108L164.65 103.5L165.093 118.534Z" fill="#62E9FE"/>
<path fill-rule="evenodd" clip-rule="evenodd" d="M98.8924 3.019C51.2122 13.732 14.7937 49.854 3.44668 97.686C0.0823251 111.869 -0.0783125 138.032 3.10934 152.767C8.54993 177.921 20.2825 198.518 40.1594 217.813C47.1099 224.559 59.9178 233.527 57.8546 230.202C57.5825 229.763 57.7301 228.807 58.1839 228.076C58.7662 227.138 56.4349 224.616 50.2343 219.476C21.8467 195.942 6.04198 162.48 6.02792 125.881C6.01587 94.703 17.8719 65.421 39.5409 43.11C57.952 24.153 78.378 13.015 104.916 7.462C113.326 5.703 138.212 5.03 144.235 6.399C146.951 7.016 147.512 6.804 148.108 4.936C148.553 3.542 148.316 2.449 147.455 1.92C146.713 1.463 137.29 1.117 126.515 1.151C111.448 1.2 105.07 1.631 98.8924 3.019ZM108.164 54.228C106.085 55.428 104.523 56.823 104.691 57.328C104.86 57.832 110.175 60.864 116.503 64.065L128.008 69.885L129.409 67.192C130.18 65.712 131.246 64.218 131.778 63.873C132.684 63.287 114.518 51.973 112.753 52.023C112.309 52.036 110.243 53.028 108.164 54.228ZM93.6215 62.247C91.2742 63.428 89.3546 64.645 89.3546 64.953C89.3546 65.53 119.813 82 120.882 82C121.212 82 121.485 81.438 121.488 80.75C121.492 80.063 122.103 78.338 122.846 76.919C124.199 74.338 124.199 74.337 112.136 67.419C105.502 63.613 99.5812 60.41 98.9808 60.3C98.3804 60.189 95.9688 61.066 93.6215 62.247ZM78.3108 70.895L73.7928 73.632V118.918V164.204L86.1438 170.717C92.9368 174.299 98.6455 177.066 98.8302 176.865C99.0139 176.664 99.4657 174.687 99.8322 172.471L100.5 168.441L91.9157 163.5L83.3307 158.559V119.279C83.3307 92.144 83.662 80 84.4009 80C84.9893 80 86.3446 80.466 87.4129 81.035C89.2783 82.03 89.3546 83.51 89.3546 118.827V155.583L94.8986 158.292C101.159 161.35 101.402 161.411 101.402 159.929C101.402 159.339 102.115 158.147 102.987 157.279C104.429 155.842 104.273 155.52 101.23 153.665C99.3924 152.546 97.7519 151.539 97.5842 151.428C97.0963 151.106 97.3905 87.662 97.8824 87.173C98.1274 86.929 99.4717 87.475 100.869 88.388L103.41 90.046V118.964C103.41 134.869 103.769 148.102 104.206 148.372C104.643 148.641 105.077 148.105 105.168 147.181C105.261 146.256 106.105 142.35 107.046 138.5C108.169 133.901 108.958 125.154 109.346 113C109.968 93.491 109.952 93.545 114.525 95.427C115.705 95.913 116.401 95.124 117.289 92.288C118.357 88.884 118.27 88.329 116.435 86.815C114.3 85.053 83.9983 67.942 83.2554 68.079C83.0205 68.122 80.7956 69.389 78.3108 70.895Z" fill="#FF8080"/>
<path fill-rule="evenodd" clip-rule="evenodd" d="M79.6471 9.06899C79.0567 9.65699 77.9493 10.249 77.1873 10.383C76.4243 10.517 72.8641 12.086 69.2749 13.868C45.5618 25.644 26.6176 44.442 14.2164 68.502C9.41637 77.816 4.50488 90.435 6.05001 89.484C6.63634 89.123 7.78489 89.381 8.60214 90.056C10.4424 91.577 10.1533 92.005 13.4323 82.883C22.923 56.478 48.3378 28.886 74.0438 17.079C76.9433 15.748 79.3147 14.222 79.3147 13.689C79.3147 13.156 80.1049 12.139 81.0717 11.428C82.3026 10.521 82.5134 9.81499 81.7745 9.06699C81.0275 8.31099 80.4081 8.31099 79.6471 9.06899ZM108.179 54.758C105.131 56.641 104.761 57.535 106.718 58.283C107.437 58.558 108.764 57.487 109.683 55.89C110.6 54.3 111.256 53.012 111.144 53.027C111.033 53.041 109.698 53.82 108.179 54.758ZM94.1335 62.294C92.0683 63.507 90.3736 64.78 90.3686 65.123C90.3626 65.465 92.6848 66.892 95.5271 68.293L100.697 70.841L102.54 67.239C103.554 65.257 104.278 63.582 104.148 63.516C104.019 63.449 102.685 62.631 101.187 61.697C97.9346 59.672 98.7087 59.607 94.1335 62.294ZM78.3067 71.281L73.0298 74.315L73.6553 80.908C73.9996 84.533 74.2838 91.198 74.2878 95.719C74.2928 102.174 74.583 103.827 75.6401 103.423C76.3801 103.14 77.5648 103.604 78.2726 104.454C78.9814 105.305 80.4091 106 81.4452 106C83.1961 106 83.3307 105.04 83.3307 92.5C83.3307 85.075 83.5355 79 83.7855 79C84.0355 79 85.3908 79.522 86.7974 80.161C89.1076 81.209 89.3656 81.908 89.47 87.411C89.5684 92.595 89.6909 92.98 90.2973 90C91.0744 86.182 95.0743 77.868 96.6053 76.887C97.1314 76.55 94.4167 74.468 90.5724 72.26L83.5837 68.246L78.3067 71.281Z" fill="white"/>
</g>
<defs>
<clipPath id="clip0_1_2">
<rect width="252" height="252" rx="126" fill="white"/>
</clipPath>
</defs>
</svg>
