<svg width="251" height="252" viewBox="0 0 251 252" fill="none" xmlns="http://www.w3.org/2000/svg">
<path fill-rule="evenodd" clip-rule="evenodd" d="M98.5 2.99599C50.851 13.88 14.736 49.852 3.433 97.686C1.331 106.584 1.001 110.397 1.009 125.742C1.017 140.826 1.377 145.081 3.401 154C14.205 201.603 51.272 238.464 99 249.068C111.121 251.761 140.905 251.758 153 249.062C200.886 238.39 237.21 202.377 248.567 154.314C250.669 145.416 250.999 141.603 250.991 126.258C250.983 111.174 250.623 106.919 248.599 98C237.795 50.397 200.728 13.536 153 2.93199C141.128 0.293995 110.169 0.330995 98.5 2.99599Z" fill="#FF00FF"/>
<path fill-rule="evenodd" clip-rule="evenodd" d="M98.5 2.99599C50.851 13.88 14.736 49.852 3.433 97.686C0.0819998 111.869 -0.0780003 138.032 3.097 152.767C13.496 201.036 50.758 238.192 99.592 248.987C112.171 251.768 139.844 251.817 152.571 249.08C200.464 238.781 237.17 202.546 248.567 154.314C250.669 145.416 250.999 141.603 250.991 126.258C250.983 111.174 250.623 106.919 248.599 98C237.795 50.397 200.728 13.536 153 2.93199C141.128 0.293995 110.169 0.330995 98.5 2.99599Z" fill="#8080FF"/>
<path fill-rule="evenodd" clip-rule="evenodd" d="M98.5 2.996C50.851 13.88 14.736 49.852 3.433 97.686C0.0819998 111.869 -0.0780003 138.032 3.097 152.767C13.662 201.806 51.667 239.038 101.815 249.477C109.336 251.043 140.475 251.655 146.929 250.364C149.628 249.824 150.062 249.34 149.804 247.154C149.52 244.746 149.985 244.441 157 242.435C177.694 236.516 193.36 227.393 210 211.568C215.225 206.599 218.308 203.876 216.85 205.517C215.323 207.236 214.211 209.665 214.225 211.25C214.272 216.478 216.646 214.541 226.945 200.87C237.737 186.546 244.28 172.457 248.567 154.314C250.669 145.416 250.999 141.603 250.991 126.258C250.983 111.146 250.626 106.935 248.59 98C244.638 80.649 239.014 68.112 228.404 53C220.43 41.643 204.807 26 201.439 26C198.295 26 201.327 30.984 209.5 39.247L218.5 48.347L209.285 39.674C193.195 24.53 174.953 14.354 155.513 9.677C146.558 7.523 146.341 7.402 147.344 5.156C148.131 3.391 148.036 2.635 146.937 1.94C146.146 1.44 136.725 1.062 126 1.1C110.893 1.153 104.698 1.58 98.5 2.996ZM129.75 5.716C128.237 5.945 125.763 5.945 124.25 5.716C122.737 5.487 123.975 5.3 127 5.3C130.025 5.3 131.262 5.487 129.75 5.716ZM113.25 6.662C112.563 6.94 111.438 6.94 110.75 6.662C110.063 6.385 110.625 6.158 112 6.158C113.375 6.158 113.938 6.385 113.25 6.662ZM143.269 6.656C142.592 6.93 141.242 6.947 140.269 6.693C139.296 6.439 139.85 6.215 141.5 6.195C143.15 6.175 143.946 6.382 143.269 6.656ZM221.128 51.75C222.371 53.336 222.336 53.371 220.75 52.128C219.787 51.373 219 50.585 219 50.378C219 49.555 219.821 50.084 221.128 51.75ZM151.25 72.942C160.463 77.998 168 82.342 168 82.593C168 82.845 166.683 82.37 165.073 81.538L162.147 80.024L162.921 82.762C163.347 84.268 163.61 86.85 163.506 88.5C163.402 90.15 164.033 92.385 164.908 93.466C165.784 94.547 164.25 93.473 161.5 91.08C158.75 88.687 148.86 82.515 139.522 77.364C130.184 72.214 122.901 68 123.338 68C123.774 68 124.952 68.439 125.955 68.976C127.458 69.78 127.994 69.43 129.01 66.976C129.688 65.339 130.751 63.99 131.371 63.978C131.992 63.966 131.375 63.021 130 61.879L127.5 59.802L131 61.775C132.925 62.86 142.037 67.885 151.25 72.942ZM123 73.57C123 73.845 122.1 73.589 121 73C119.9 72.411 119 71.705 119 71.43C119 71.155 119.9 71.411 121 72C122.1 72.589 123 73.295 123 73.57ZM145.5 85.789C149.9 88.231 155.005 91.64 156.845 93.365C160.353 96.652 166.011 104.276 165.985 105.68C165.976 106.131 165.492 105.825 164.908 105C164.15 103.928 163.994 107.785 164.363 118.534C165.193 142.688 167.283 172 168.176 172C168.629 172 169 172.702 169 173.559C169 174.416 168.555 174.843 168.011 174.507C167.466 174.17 167.266 174.529 167.565 175.308C168.256 177.11 163.66 182.607 159.788 184.61C156.028 186.554 155.605 186.099 157.549 182.203C158.879 179.535 159.062 174.533 158.803 147.791L158.5 116.5L155.668 110.732C151.367 101.975 145.104 96.263 131.861 89.024L120.222 82.661L121.256 79.58C123.49 72.926 121.33 72.373 145.5 85.789ZM173 86.5C174.292 87.875 175.124 89 174.849 89C174.574 89 173.292 87.875 172 86.5C170.708 85.125 169.876 84 170.151 84C170.426 84 171.708 85.125 173 86.5ZM132.5 95.272C143.785 101.325 151.4 111.131 153.876 122.799C155.359 129.789 155.366 176.142 153.885 181.477C151.889 188.666 141.33 196.709 138.908 192.885C137.494 190.652 137.845 190 140.465 190C141.886 190 143.372 189.173 143.974 188.048C144.881 186.354 144.435 185.753 140.609 183.511C137.686 181.798 135.98 180.011 135.552 178.213C135.196 176.721 134.662 174.685 134.366 173.689C133.89 172.093 134.425 172.182 138.88 174.439C141.659 175.848 144.173 177 144.467 177C144.76 177 145 175.743 145 174.208C145 171.824 144.037 170.852 138.422 167.568C134.146 165.066 131.521 162.806 130.922 161.11C130.414 159.674 129.539 157.702 128.977 156.728C128.239 155.447 130.176 156.072 135.955 158.978C140.355 161.19 144.191 163 144.478 163C144.765 163 145 156.12 145 147.71C145 137.118 144.523 130.589 143.448 126.46C140.424 114.848 133.841 106.742 122.225 100.326L115.298 96.5L116.648 92.601C117.73 89.476 117.75 88.403 116.749 87.192C116.062 86.361 117.975 87.115 121 88.867C124.025 90.62 129.2 93.502 132.5 95.272ZM102.74 108.25C102.545 111.688 102.385 108.875 102.385 102C102.385 95.125 102.545 92.313 102.74 95.75C102.936 99.188 102.936 104.813 102.74 108.25ZM117.267 148.872C121.472 151.35 123.378 152.897 121.819 152.566C120.345 152.253 118.063 152.406 116.747 152.906C114.884 153.614 113.268 153.215 109.428 151.097C106.718 149.602 104.573 147.956 104.662 147.439C104.75 146.923 105.614 143.125 106.58 139C107.742 134.037 108.533 125.242 108.918 113L109.5 94.5L109.767 119.554L110.034 144.608L117.267 148.872ZM168.683 114.188C168.364 114.985 168.127 114.748 168.079 113.583C168.036 112.529 168.272 111.939 168.604 112.271C168.936 112.603 168.972 113.466 168.683 114.188ZM173.662 115.25C173.385 115.938 173.158 115.375 173.158 114C173.158 112.625 173.385 112.063 173.662 112.75C173.94 113.438 173.94 114.563 173.662 115.25ZM245.683 114.188C245.364 114.985 245.127 114.748 245.079 113.583C245.036 112.529 245.272 111.939 245.604 112.271C245.936 112.603 245.972 113.466 245.683 114.188ZM169.748 157.191C169.577 164.511 169.436 158.8 169.436 144.5C169.435 130.2 169.575 124.211 169.747 131.191C169.918 138.171 169.919 149.871 169.748 157.191ZM245.683 139.188C245.364 139.985 245.127 139.748 245.079 138.583C245.036 137.529 245.272 136.939 245.604 137.271C245.936 137.603 245.972 138.466 245.683 139.188ZM105.729 156.604C105.397 156.936 104.534 156.972 103.813 156.683C103.015 156.364 103.252 156.127 104.417 156.079C105.471 156.036 106.061 156.272 105.729 156.604ZM173.683 170.188C173.364 170.985 173.127 170.748 173.079 169.583C173.036 168.529 173.272 167.939 173.604 168.271C173.936 168.603 173.972 169.466 173.683 170.188ZM171.667 176.5C171.667 177.325 171.292 178 170.833 178C169.835 178 169.735 176.599 170.667 175.667C171.594 174.74 171.667 174.801 171.667 176.5ZM225 195.378C225 195.585 224.213 196.373 223.25 197.128C221.664 198.371 221.629 198.336 222.872 196.75C224.179 195.084 225 194.555 225 195.378ZM222 199.378C222 199.585 221.213 200.373 220.25 201.128C218.664 202.371 218.629 202.336 219.872 200.75C221.179 199.084 222 198.555 222 199.378Z" fill="#494A94"/>
<path fill-rule="evenodd" clip-rule="evenodd" d="M98.5 2.99599C50.851 13.88 14.736 49.852 3.433 97.686C0.0819998 111.869 -0.0780003 138.032 3.097 152.767C8.516 177.921 20.202 198.518 40 217.813C46.923 224.559 59.68 233.527 57.625 230.202C57.354 229.763 57.509 228.795 57.97 228.049C58.563 227.089 57.231 225.41 53.404 222.292C45.675 215.996 46.734 216.147 55.25 222.554C78.865 240.323 111.709 248.941 140.533 244.932C182.325 239.119 215.432 215.021 234.073 176.845C236.851 171.155 238.812 167.625 238.431 169C236.383 176.378 226.318 193.849 218.797 203.082C212.533 210.773 212.474 218.232 218.732 211.25C233.552 194.716 243.511 175.711 248.567 154.314C250.669 145.416 250.999 141.603 250.991 126.258C250.983 111.146 250.626 106.935 248.59 98C244.638 80.649 239.014 68.112 228.404 53C220.43 41.643 204.807 26 201.439 26C198.341 26 201.461 30.964 210.077 39.743C219.304 49.142 227.336 59.83 231.877 68.75C233.067 71.088 233.814 73 233.537 73C233.26 73 231.941 70.862 230.606 68.25C223.991 55.305 209.404 38.655 196.87 29.743C177.31 15.836 160.213 9.48599 134.5 6.57999L121.5 5.11099L131.5 5.60099C137 5.86999 142.699 6.32199 144.163 6.60599C146.27 7.01299 146.972 6.66399 147.52 4.93599C147.964 3.53899 147.724 2.43999 146.857 1.88999C146.111 1.41799 136.725 1.06199 126 1.09999C110.893 1.15299 104.698 1.57999 98.5 2.99599ZM120.917 6.36299C120.688 6.56199 116.675 6.96299 112 7.25299C107.109 7.55599 104.986 7.45799 107 7.02199C110.606 6.23999 121.659 5.71699 120.917 6.36299ZM102.729 8.60399C102.397 8.93599 101.534 8.97199 100.813 8.68299C100.015 8.36399 100.252 8.12699 101.417 8.07899C102.471 8.03599 103.061 8.27199 102.729 8.60399ZM98.729 9.60399C98.397 9.93599 97.534 9.97199 96.813 9.68299C96.015 9.36399 96.252 9.12699 97.417 9.07899C98.471 9.03599 99.061 9.27199 98.729 9.60399ZM94.729 10.604C94.397 10.936 93.534 10.972 92.813 10.683C92.015 10.364 92.252 10.127 93.417 10.079C94.471 10.036 95.061 10.272 94.729 10.604ZM84 14C83.175 14.533 82.05 14.969 81.5 14.969C80.95 14.969 81.175 14.533 82 14C82.825 13.467 83.95 13.031 84.5 13.031C85.05 13.031 84.825 13.467 84 14ZM78 16.5C76.625 17.286 75.05 17.929 74.5 17.929C73.95 17.929 74.625 17.286 76 16.5C77.375 15.714 78.95 15.071 79.5 15.071C80.05 15.071 79.375 15.714 78 16.5ZM73 18.48C73 18.743 71.2 19.878 69 21C66.8 22.122 65 22.817 65 22.544C65 22.271 66.688 21.157 68.75 20.068C72.993 17.828 73 17.826 73 18.48ZM64 23.367C64 23.569 62.2 24.925 60 26.381C57.8 27.837 56 28.813 56 28.55C56 28.111 63.12 23 63.732 23C63.879 23 64 23.165 64 23.367ZM55 29.378C55 29.585 54.212 30.373 53.25 31.128C51.664 32.371 51.629 32.336 52.872 30.75C54.179 29.084 55 28.555 55 29.378ZM51 32.313C51 32.485 49.538 33.948 47.75 35.563L44.5 38.5L47.437 35.25C50.175 32.221 51 31.54 51 32.313ZM38 45.313C38 45.485 36.538 46.948 34.75 48.563L31.5 51.5L34.437 48.25C37.175 45.221 38 44.54 38 45.313ZM114.493 51.989C114.836 52.544 114.458 52.729 113.63 52.412C112.819 52.1 111.109 52.355 109.828 52.978C107.607 54.058 107.59 54.039 109.441 52.555C111.665 50.774 113.608 50.556 114.493 51.989ZM32 52.378C32 52.585 31.212 53.373 30.25 54.128C28.664 55.371 28.629 55.336 29.872 53.75C31.179 52.084 32 51.555 32 52.378ZM148.966 71C160.87 77.509 167.956 82.074 171.475 85.5C174.3 88.25 174.786 88.861 172.556 86.859C170.325 84.856 167.07 82.499 165.323 81.621L162.147 80.024L162.921 82.762C163.347 84.268 163.62 86.85 163.528 88.5C163.429 90.28 164.288 92.737 165.641 94.542C166.894 96.215 169.176 100.265 170.71 103.542L173.5 109.5L173.804 139.654C174.056 164.717 173.853 170.415 172.605 173.404C171.778 175.382 171.417 176.998 171.801 176.996C173.72 176.986 179.25 172.638 181.005 169.759C182.098 167.967 182.994 167.047 182.996 167.715C183.006 170.796 171.148 180.481 169.448 178.781C169.233 178.566 169.969 176.548 171.083 174.296C173.006 170.41 173.094 168.654 172.805 139.826L172.5 109.45L169.226 102.803C164.265 92.733 158.657 88.335 132.649 74.123C109.611 61.534 102.907 57.342 118.749 65.431L127.497 69.898L128.894 67.199C129.662 65.715 130.737 64.21 131.283 63.856C131.828 63.502 128.613 61.1 124.137 58.519C119.662 55.937 116 53.613 116 53.354C116 53.095 119.509 54.821 123.797 57.191C128.085 59.561 139.412 65.775 148.966 71ZM105.65 55.465C104.632 56.236 104.093 57.342 104.452 57.922C104.848 58.563 104.495 58.744 103.552 58.382C101.383 57.549 101.617 56.49 104.25 55.22C107.355 53.723 107.838 53.807 105.65 55.465ZM98.917 59.373C97.896 60.286 92 63.001 92 62.558C92 61.936 97.185 59.094 98.417 59.04C98.921 59.018 99.146 59.168 98.917 59.373ZM106 63.551C106 63.826 104.65 63.353 103 62.5C101.35 61.647 100 60.724 100 60.449C100 60.174 101.35 60.647 103 61.5C104.65 62.353 106 63.276 106 63.551ZM134.085 78.843C154.01 89.818 157.909 92.55 162.49 98.748C169.393 108.087 170.127 112.8 169.794 145.65L169.5 174.651L166.749 178.806C164.327 182.464 156.547 187.881 155.385 186.719C155.154 186.487 155.863 184.318 156.96 181.899C158.795 177.855 158.958 175.318 158.978 150.46C159.003 119.996 158.284 115.079 152.535 106.378C147.899 99.364 142.871 95.572 126.25 86.556C118.412 82.305 112 78.631 112 78.393C112 78.154 113.782 78.868 115.96 79.98C120.602 82.348 120.998 82.408 121.006 80.75C121.01 80.063 121.617 78.341 122.357 76.924C123.688 74.372 123.622 74.302 115.351 69.56C110.758 66.927 107 64.556 107 64.291C107 64.026 109.362 65.137 112.25 66.759C115.138 68.382 124.963 73.819 134.085 78.843ZM96 69.551C96 69.826 94.65 69.353 93 68.5C91.35 67.647 90 66.724 90 66.449C90 66.174 91.35 66.647 93 67.5C94.65 68.353 96 69.276 96 69.551ZM19.295 72.472C17.818 75.482 16.443 77.776 16.238 77.571C15.789 77.122 20.833 67 21.506 67C21.766 67 20.771 69.462 19.295 72.472ZM82 68.465C82 68.72 80.987 69.42 79.75 70.02C77.589 71.067 77.577 71.049 79.441 69.555C81.481 67.921 82 67.7 82 68.465ZM96 74.551C96 74.826 94.65 74.353 93 73.5C91.35 72.647 90 71.724 90 71.449C90 71.174 91.35 71.647 93 72.5C94.65 73.353 96 74.276 96 74.551ZM111 77.534C111 77.809 108.75 76.894 106 75.5C103.25 74.106 101 72.741 101 72.466C101 72.191 103.25 73.106 106 74.5C108.75 75.894 111 77.259 111 77.534ZM236.929 79.5C236.929 80.05 236.286 79.375 235.5 78C234.714 76.625 234.071 75.05 234.071 74.5C234.071 73.95 234.714 74.625 235.5 76C236.286 77.375 236.929 78.95 236.929 79.5ZM105 79.551C105 79.826 103.65 79.353 102 78.5C100.35 77.647 99 76.724 99 76.449C99 76.174 100.35 76.647 102 77.5C103.65 78.353 105 79.276 105 79.551ZM83.749 139.183C83.588 150.358 83.456 141.5 83.456 119.5C83.455 97.5 83.587 88.358 83.749 99.183C83.91 110.009 83.91 128.009 83.749 139.183ZM88.763 118.785L88.526 155.5L88.25 119.101C87.999 85.942 87.82 82.577 86.237 81.296C84.677 80.033 84.729 80.001 86.75 80.98L89 82.07L88.763 118.785ZM123.5 89.574C141.334 99.438 147.066 104.355 151.67 113.735L154.5 119.5L154.826 149.5C155.038 169.07 154.775 180.766 154.068 183.14C151.79 190.798 141.218 196.93 132.655 195.561C129.334 195.03 88 173.564 88 172.37C88 172.148 90.295 173.129 93.099 174.55C95.904 175.972 98.328 176.992 98.485 176.817C98.643 176.643 99.071 174.683 99.438 172.463C100.085 168.541 99.988 168.362 96.052 166.149C93.823 164.897 92 163.643 92 163.363C92 163.082 94.362 164.199 97.25 165.843C119.523 178.529 139.728 189.038 141.373 188.793C142.457 188.632 143.502 188.017 143.696 187.427C143.89 186.836 132.9 180.22 119.274 172.725C94.335 159.005 87.944 155.28 95.71 158.989C100.562 161.307 101 161.384 101 159.929C101 159.339 101.718 158.139 102.596 157.262C104.056 155.801 103.866 155.469 100.346 153.338C98.231 152.058 96.809 151.008 97.187 151.005C97.565 151.002 108.082 156.625 120.559 163.5C133.037 170.375 143.415 176 143.623 176C143.83 176 143.998 174.988 143.996 173.75C143.993 171.855 140.683 169.685 123.025 160L102.057 148.5L102.029 119.282L102 90.064L99.25 88.572C97.737 87.751 96.962 87.062 97.527 87.04C98.093 87.018 99.555 87.701 100.777 88.557C102.987 90.104 103 90.283 103 118.998C103 134.884 103.357 148.102 103.792 148.372C104.228 148.641 104.66 148.105 104.751 147.181C104.843 146.256 105.684 142.35 106.621 138.5C107.74 133.901 108.526 125.154 108.912 113C109.532 93.491 109.516 93.545 114.071 95.427C115.244 95.912 115.928 95.14 116.778 92.373C117.403 90.336 117.671 88.277 117.375 87.797C117.078 87.317 114.397 85.548 111.417 83.867C108.438 82.185 106 80.6 106 80.346C106 80.091 106.338 80.071 106.75 80.303C107.162 80.534 114.7 84.706 123.5 89.574ZM238.969 84.5C238.969 85.05 238.533 84.825 238 84C237.467 83.175 237.031 82.05 237.031 81.5C237.031 80.95 237.467 81.175 238 82C238.533 82.825 238.969 83.95 238.969 84.5ZM97.662 92.25C97.385 92.938 97.158 92.375 97.158 91C97.158 89.625 97.385 89.063 97.662 89.75C97.94 90.438 97.94 91.563 97.662 92.25ZM241.683 94.188C241.364 94.985 241.127 94.748 241.079 93.583C241.036 92.529 241.272 91.939 241.604 92.271C241.936 92.603 241.972 93.466 241.683 94.188ZM110 119.433V143.866L126.195 152.683C135.103 157.532 142.753 161.65 143.195 161.833C143.638 162.017 144 154.969 144 146.172C144 133.325 143.63 128.989 142.119 124.136C140.026 117.409 134.705 109.518 129.754 105.799C126.394 103.275 111.738 95 110.627 95C110.282 95 110 105.995 110 119.433ZM9.683 98.188C9.364 98.985 9.127 98.748 9.079 97.583C9.036 96.529 9.272 95.939 9.604 96.271C9.936 96.603 9.972 97.466 9.683 98.188ZM242.683 98.188C242.364 98.985 242.127 98.748 242.079 97.583C242.036 96.529 242.272 95.939 242.604 96.271C242.936 96.603 242.972 97.466 242.683 98.188ZM243.662 103.25C243.385 103.938 243.158 103.375 243.158 102C243.158 100.625 243.385 100.063 243.662 100.75C243.94 101.438 243.94 102.563 243.662 103.25ZM8.683 103.188C8.364 103.985 8.127 103.748 8.079 102.583C8.036 101.529 8.272 100.939 8.604 101.271C8.936 101.603 8.972 102.466 8.683 103.188ZM164.438 118.534C165.125 141.919 167.259 172 168.231 172C168.723 172 168.975 158.91 168.805 142.25C168.512 113.709 168.408 112.317 166.248 108L163.997 103.5L164.438 118.534ZM183.662 108.25C183.385 108.938 183.158 108.375 183.158 107C183.158 105.625 183.385 105.063 183.662 105.75C183.94 106.438 183.94 107.563 183.662 108.25ZM244.693 108.731C244.439 109.704 244.215 109.15 244.195 107.5C244.175 105.85 244.382 105.054 244.656 105.731C244.93 106.408 244.947 107.758 244.693 108.731ZM7.662 109.25C7.385 109.938 7.158 109.375 7.158 108C7.158 106.625 7.385 106.063 7.662 106.75C7.94 107.438 7.94 108.563 7.662 109.25ZM245.716 119.75C245.487 121.263 245.3 120.025 245.3 117C245.3 113.975 245.487 112.737 245.716 114.25C245.945 115.763 245.945 118.237 245.716 119.75ZM6.718 119.736C6.488 121.256 6.294 120.25 6.286 117.5C6.279 114.75 6.467 113.506 6.704 114.736C6.941 115.966 6.947 118.216 6.718 119.736ZM245.725 137.232C245.502 139.029 245.315 137.8 245.31 134.5C245.304 131.2 245.486 129.729 245.715 131.232C245.943 132.735 245.947 135.435 245.725 137.232ZM6.706 137.25C6.467 138.488 6.272 137.475 6.272 135C6.272 132.525 6.467 131.512 6.706 132.75C6.944 133.988 6.944 136.012 6.706 137.25ZM7.662 145.25C7.385 145.938 7.158 145.375 7.158 144C7.158 142.625 7.385 142.063 7.662 142.75C7.94 143.438 7.94 144.563 7.662 145.25ZM244.693 145.731C244.439 146.704 244.215 146.15 244.195 144.5C244.175 142.85 244.382 142.054 244.656 142.731C244.93 143.408 244.947 144.758 244.693 145.731ZM243.662 151.25C243.385 151.938 243.158 151.375 243.158 150C243.158 148.625 243.385 148.063 243.662 148.75C243.94 149.438 243.94 150.563 243.662 151.25ZM8.683 151.188C8.364 151.985 8.127 151.748 8.079 150.583C8.036 149.529 8.272 148.939 8.604 149.271C8.936 149.603 8.972 150.466 8.683 151.188ZM9.683 155.188C9.364 155.985 9.127 155.748 9.079 154.583C9.036 153.529 9.272 152.939 9.604 153.271C9.936 153.603 9.972 154.466 9.683 155.188ZM242.683 155.188C242.364 155.985 242.127 155.748 242.079 154.583C242.036 153.529 242.272 152.939 242.604 153.271C242.936 153.603 242.972 154.466 242.683 155.188ZM241.683 159.188C241.364 159.985 241.127 159.748 241.079 158.583C241.036 157.529 241.272 156.939 241.604 157.271C241.936 157.603 241.972 158.466 241.683 159.188ZM91 162.551C91 162.826 89.65 162.353 88 161.5C86.35 160.647 85 159.724 85 159.449C85 159.174 86.35 159.647 88 160.5C89.65 161.353 91 162.276 91 162.551ZM183.683 165.188C183.364 165.985 183.127 165.748 183.079 164.583C183.036 163.529 183.272 162.939 183.604 163.271C183.936 163.603 183.972 164.466 183.683 165.188ZM83 169.57C83 169.845 82.1 169.589 81 169C79.9 168.411 79 167.705 79 167.43C79 167.155 79.9 167.411 81 168C82.1 168.589 83 169.295 83 169.57ZM22 185C22.589 186.1 22.845 187 22.57 187C22.295 187 21.589 186.1 21 185C20.411 183.9 20.155 183 20.43 183C20.705 183 21.411 183.9 22 185ZM29 196C30.175 197.65 30.911 199 30.636 199C30.361 199 29.175 197.65 28 196C26.825 194.35 26.089 193 26.364 193C26.639 193 27.825 194.35 29 196ZM34 202.5C35.292 203.875 36.124 205 35.849 205C35.574 205 34.292 203.875 33 202.5C31.708 201.125 30.876 200 31.151 200C31.426 200 32.708 201.125 34 202.5ZM42 211.5C44.987 214.525 47.207 217 46.932 217C46.657 217 43.987 214.525 41 211.5C38.013 208.475 35.793 206 36.068 206C36.343 206 39.013 208.475 42 211.5Z" fill="#0000FF"/>
<path fill-rule="evenodd" clip-rule="evenodd" d="M98.5 2.99599C50.851 13.88 14.736 49.852 3.433 97.686C0.0819998 111.869 -0.0780003 138.032 3.097 152.767C8.516 177.921 20.202 198.518 40 217.813C46.923 224.559 59.68 233.527 57.625 230.202C57.354 229.763 57.509 228.795 57.97 228.049C58.563 227.089 57.231 225.41 53.404 222.292C45.675 215.996 46.734 216.147 55.25 222.554C78.865 240.323 111.709 248.941 140.533 244.932C182.325 239.119 215.432 215.021 234.073 176.845C236.851 171.155 238.812 167.625 238.431 169C236.383 176.378 226.318 193.849 218.797 203.082C212.533 210.773 212.474 218.232 218.732 211.25C233.552 194.716 243.511 175.711 248.567 154.314C250.669 145.416 250.999 141.603 250.991 126.258C250.983 111.146 250.626 106.935 248.59 98C244.638 80.649 239.014 68.112 228.404 53C220.43 41.643 204.807 26 201.439 26C198.341 26 201.461 30.964 210.077 39.743C219.304 49.142 227.336 59.83 231.877 68.75C233.067 71.088 233.814 73 233.537 73C233.26 73 231.941 70.862 230.606 68.25C223.991 55.305 209.404 38.655 196.87 29.743C177.31 15.836 160.213 9.48599 134.5 6.57999L121.5 5.11099L131.5 5.60099C137 5.86999 142.699 6.32199 144.163 6.60599C146.27 7.01299 146.972 6.66399 147.52 4.93599C147.964 3.53899 147.724 2.43999 146.857 1.88999C146.111 1.41799 136.725 1.06199 126 1.09999C110.893 1.15299 104.698 1.57999 98.5 2.99599ZM120.917 6.36299C120.688 6.56199 116.675 6.96299 112 7.25299C107.109 7.55599 104.986 7.45799 107 7.02199C110.606 6.23999 121.659 5.71699 120.917 6.36299ZM102.729 8.60399C102.397 8.93599 101.534 8.97199 100.813 8.68299C100.015 8.36399 100.252 8.12699 101.417 8.07899C102.471 8.03599 103.061 8.27199 102.729 8.60399ZM98.729 9.60399C98.397 9.93599 97.534 9.97199 96.813 9.68299C96.015 9.36399 96.252 9.12699 97.417 9.07899C98.471 9.03599 99.061 9.27199 98.729 9.60399ZM94.729 10.604C94.397 10.936 93.534 10.972 92.813 10.683C92.015 10.364 92.252 10.127 93.417 10.079C94.471 10.036 95.061 10.272 94.729 10.604ZM84 14C83.175 14.533 82.05 14.969 81.5 14.969C80.95 14.969 81.175 14.533 82 14C82.825 13.467 83.95 13.031 84.5 13.031C85.05 13.031 84.825 13.467 84 14ZM78 16.5C76.625 17.286 75.05 17.929 74.5 17.929C73.95 17.929 74.625 17.286 76 16.5C77.375 15.714 78.95 15.071 79.5 15.071C80.05 15.071 79.375 15.714 78 16.5ZM73 18.48C73 18.743 71.2 19.878 69 21C66.8 22.122 65 22.817 65 22.544C65 22.271 66.688 21.157 68.75 20.068C72.993 17.828 73 17.826 73 18.48ZM64 23.367C64 23.569 62.2 24.925 60 26.381C57.8 27.837 56 28.813 56 28.55C56 28.111 63.12 23 63.732 23C63.879 23 64 23.165 64 23.367ZM55 29.378C55 29.585 54.212 30.373 53.25 31.128C51.664 32.371 51.629 32.336 52.872 30.75C54.179 29.084 55 28.555 55 29.378ZM51 32.313C51 32.485 49.538 33.948 47.75 35.563L44.5 38.5L47.437 35.25C50.175 32.221 51 31.54 51 32.313ZM38 45.313C38 45.485 36.538 46.948 34.75 48.563L31.5 51.5L34.437 48.25C37.175 45.221 38 44.54 38 45.313ZM114.493 51.989C114.836 52.544 114.458 52.729 113.63 52.412C112.819 52.1 111.109 52.355 109.828 52.978C107.607 54.058 107.59 54.039 109.441 52.555C111.665 50.774 113.608 50.556 114.493 51.989ZM32 52.378C32 52.585 31.212 53.373 30.25 54.128C28.664 55.371 28.629 55.336 29.872 53.75C31.179 52.084 32 51.555 32 52.378ZM148.966 71C160.87 77.509 167.956 82.074 171.475 85.5C174.3 88.25 174.786 88.861 172.556 86.859C170.325 84.856 167.07 82.499 165.323 81.621L162.147 80.024L162.921 82.762C163.347 84.268 163.62 86.85 163.528 88.5C163.429 90.28 164.288 92.737 165.641 94.542C166.894 96.215 169.176 100.265 170.71 103.542L173.5 109.5L173.804 139.654C174.056 164.717 173.853 170.415 172.605 173.404C171.778 175.382 171.417 176.998 171.801 176.996C173.72 176.986 179.25 172.638 181.005 169.759C182.098 167.967 182.994 167.047 182.996 167.715C183.006 170.796 171.148 180.481 169.448 178.781C169.233 178.566 169.969 176.548 171.083 174.296C173.006 170.41 173.094 168.654 172.805 139.826L172.5 109.45L169.226 102.803C164.265 92.733 158.657 88.335 132.649 74.123C109.611 61.534 102.907 57.342 118.749 65.431L127.497 69.898L128.894 67.199C129.662 65.715 130.737 64.21 131.283 63.856C131.828 63.502 128.613 61.1 124.137 58.519C119.662 55.937 116 53.613 116 53.354C116 53.095 119.509 54.821 123.797 57.191C128.085 59.561 139.412 65.775 148.966 71ZM105.65 55.465C104.632 56.236 104.093 57.342 104.452 57.922C104.848 58.563 104.495 58.744 103.552 58.382C101.383 57.549 101.617 56.49 104.25 55.22C107.355 53.723 107.838 53.807 105.65 55.465ZM98.917 59.373C97.896 60.286 92 63.001 92 62.558C92 61.936 97.185 59.094 98.417 59.04C98.921 59.018 99.146 59.168 98.917 59.373ZM106 63.551C106 63.826 104.65 63.353 103 62.5C101.35 61.647 100 60.724 100 60.449C100 60.174 101.35 60.647 103 61.5C104.65 62.353 106 63.276 106 63.551ZM134.085 78.843C154.01 89.818 157.909 92.55 162.49 98.748C169.393 108.087 170.127 112.8 169.794 145.65L169.5 174.651L166.749 178.806C164.327 182.464 156.547 187.881 155.385 186.719C155.154 186.487 155.863 184.318 156.96 181.899C158.795 177.855 158.958 175.318 158.978 150.46C159.003 119.996 158.284 115.079 152.535 106.378C147.899 99.364 142.871 95.572 126.25 86.556C118.412 82.305 112 78.631 112 78.393C112 78.154 113.782 78.868 115.96 79.98C120.602 82.348 120.998 82.408 121.006 80.75C121.01 80.063 121.617 78.341 122.357 76.924C123.688 74.372 123.622 74.302 115.351 69.56C110.758 66.927 107 64.556 107 64.291C107 64.026 109.362 65.137 112.25 66.759C115.138 68.382 124.963 73.819 134.085 78.843ZM96 69.551C96 69.826 94.65 69.353 93 68.5C91.35 67.647 90 66.724 90 66.449C90 66.174 91.35 66.647 93 67.5C94.65 68.353 96 69.276 96 69.551ZM19.295 72.472C17.818 75.482 16.443 77.776 16.238 77.571C15.789 77.122 20.833 67 21.506 67C21.766 67 20.771 69.462 19.295 72.472ZM82 68.465C82 68.72 80.987 69.42 79.75 70.02C77.589 71.067 77.577 71.049 79.441 69.555C81.481 67.921 82 67.7 82 68.465ZM96 74.551C96 74.826 94.65 74.353 93 73.5C91.35 72.647 90 71.724 90 71.449C90 71.174 91.35 71.647 93 72.5C94.65 73.353 96 74.276 96 74.551ZM111 77.534C111 77.809 108.75 76.894 106 75.5C103.25 74.106 101 72.741 101 72.466C101 72.191 103.25 73.106 106 74.5C108.75 75.894 111 77.259 111 77.534ZM236.929 79.5C236.929 80.05 236.286 79.375 235.5 78C234.714 76.625 234.071 75.05 234.071 74.5C234.071 73.95 234.714 74.625 235.5 76C236.286 77.375 236.929 78.95 236.929 79.5ZM105 79.551C105 79.826 103.65 79.353 102 78.5C100.35 77.647 99 76.724 99 76.449C99 76.174 100.35 76.647 102 77.5C103.65 78.353 105 79.276 105 79.551ZM83.749 139.183C83.588 150.358 83.456 141.5 83.456 119.5C83.455 97.5 83.587 88.358 83.749 99.183C83.91 110.009 83.91 128.009 83.749 139.183ZM88.763 118.785L88.526 155.5L88.25 119.101C87.999 85.942 87.82 82.577 86.237 81.296C84.677 80.033 84.729 80.001 86.75 80.98L89 82.07L88.763 118.785ZM123.5 89.574C141.334 99.438 147.066 104.355 151.67 113.735L154.5 119.5L154.826 149.5C155.038 169.07 154.775 180.766 154.068 183.14C151.79 190.798 141.218 196.93 132.655 195.561C129.334 195.03 88 173.564 88 172.37C88 172.148 90.295 173.129 93.099 174.55C95.904 175.972 98.328 176.992 98.485 176.817C98.643 176.643 99.071 174.683 99.438 172.463C100.085 168.541 99.988 168.362 96.052 166.149C93.823 164.897 92 163.643 92 163.363C92 163.082 94.362 164.199 97.25 165.843C119.523 178.529 139.728 189.038 141.373 188.793C142.457 188.632 143.502 188.017 143.696 187.427C143.89 186.836 132.9 180.22 119.274 172.725C94.335 159.005 87.944 155.28 95.71 158.989C100.562 161.307 101 161.384 101 159.929C101 159.339 101.718 158.139 102.596 157.262C104.056 155.801 103.866 155.469 100.346 153.338C98.231 152.058 96.809 151.008 97.187 151.005C97.565 151.002 108.082 156.625 120.559 163.5C133.037 170.375 143.415 176 143.623 176C143.83 176 143.998 174.988 143.996 173.75C143.993 171.855 140.683 169.685 123.025 160L102.057 148.5L102.029 119.282L102 90.064L99.25 88.572C97.737 87.751 96.962 87.062 97.527 87.04C98.093 87.018 99.555 87.701 100.777 88.557C102.987 90.104 103 90.283 103 118.998C103 134.884 103.357 148.102 103.792 148.372C104.228 148.641 104.66 148.105 104.751 147.181C104.843 146.256 105.684 142.35 106.621 138.5C107.74 133.901 108.526 125.154 108.912 113C109.532 93.491 109.516 93.545 114.071 95.427C115.244 95.912 115.928 95.14 116.778 92.373C117.403 90.336 117.671 88.277 117.375 87.797C117.078 87.317 114.397 85.548 111.417 83.867C108.438 82.185 106 80.6 106 80.346C106 80.091 106.338 80.071 106.75 80.303C107.162 80.534 114.7 84.706 123.5 89.574ZM238.969 84.5C238.969 85.05 238.533 84.825 238 84C237.467 83.175 237.031 82.05 237.031 81.5C237.031 80.95 237.467 81.175 238 82C238.533 82.825 238.969 83.95 238.969 84.5ZM97.662 92.25C97.385 92.938 97.158 92.375 97.158 91C97.158 89.625 97.385 89.063 97.662 89.75C97.94 90.438 97.94 91.563 97.662 92.25ZM241.683 94.188C241.364 94.985 241.127 94.748 241.079 93.583C241.036 92.529 241.272 91.939 241.604 92.271C241.936 92.603 241.972 93.466 241.683 94.188ZM110 119.433V143.866L126.195 152.683C135.103 157.532 142.753 161.65 143.195 161.833C143.638 162.017 144 154.969 144 146.172C144 133.325 143.63 128.989 142.119 124.136C140.026 117.409 134.705 109.518 129.754 105.799C126.394 103.275 111.738 95 110.627 95C110.282 95 110 105.995 110 119.433ZM9.683 98.188C9.364 98.985 9.127 98.748 9.079 97.583C9.036 96.529 9.272 95.939 9.604 96.271C9.936 96.603 9.972 97.466 9.683 98.188ZM242.683 98.188C242.364 98.985 242.127 98.748 242.079 97.583C242.036 96.529 242.272 95.939 242.604 96.271C242.936 96.603 242.972 97.466 242.683 98.188ZM243.662 103.25C243.385 103.938 243.158 103.375 243.158 102C243.158 100.625 243.385 100.063 243.662 100.75C243.94 101.438 243.94 102.563 243.662 103.25ZM8.683 103.188C8.364 103.985 8.127 103.748 8.079 102.583C8.036 101.529 8.272 100.939 8.604 101.271C8.936 101.603 8.972 102.466 8.683 103.188ZM164.438 118.534C165.125 141.919 167.259 172 168.231 172C168.723 172 168.975 158.91 168.805 142.25C168.512 113.709 168.408 112.317 166.248 108L163.997 103.5L164.438 118.534ZM183.662 108.25C183.385 108.938 183.158 108.375 183.158 107C183.158 105.625 183.385 105.063 183.662 105.75C183.94 106.438 183.94 107.563 183.662 108.25ZM244.693 108.731C244.439 109.704 244.215 109.15 244.195 107.5C244.175 105.85 244.382 105.054 244.656 105.731C244.93 106.408 244.947 107.758 244.693 108.731ZM7.662 109.25C7.385 109.938 7.158 109.375 7.158 108C7.158 106.625 7.385 106.063 7.662 106.75C7.94 107.438 7.94 108.563 7.662 109.25ZM245.716 119.75C245.487 121.263 245.3 120.025 245.3 117C245.3 113.975 245.487 112.737 245.716 114.25C245.945 115.763 245.945 118.237 245.716 119.75ZM6.718 119.736C6.488 121.256 6.294 120.25 6.286 117.5C6.279 114.75 6.467 113.506 6.704 114.736C6.941 115.966 6.947 118.216 6.718 119.736ZM245.725 137.232C245.502 139.029 245.315 137.8 245.31 134.5C245.304 131.2 245.486 129.729 245.715 131.232C245.943 132.735 245.947 135.435 245.725 137.232ZM6.706 137.25C6.467 138.488 6.272 137.475 6.272 135C6.272 132.525 6.467 131.512 6.706 132.75C6.944 133.988 6.944 136.012 6.706 137.25ZM7.662 145.25C7.385 145.938 7.158 145.375 7.158 144C7.158 142.625 7.385 142.063 7.662 142.75C7.94 143.438 7.94 144.563 7.662 145.25ZM244.693 145.731C244.439 146.704 244.215 146.15 244.195 144.5C244.175 142.85 244.382 142.054 244.656 142.731C244.93 143.408 244.947 144.758 244.693 145.731ZM243.662 151.25C243.385 151.938 243.158 151.375 243.158 150C243.158 148.625 243.385 148.063 243.662 148.75C243.94 149.438 243.94 150.563 243.662 151.25ZM8.683 151.188C8.364 151.985 8.127 151.748 8.079 150.583C8.036 149.529 8.272 148.939 8.604 149.271C8.936 149.603 8.972 150.466 8.683 151.188ZM9.683 155.188C9.364 155.985 9.127 155.748 9.079 154.583C9.036 153.529 9.272 152.939 9.604 153.271C9.936 153.603 9.972 154.466 9.683 155.188ZM242.683 155.188C242.364 155.985 242.127 155.748 242.079 154.583C242.036 153.529 242.272 152.939 242.604 153.271C242.936 153.603 242.972 154.466 242.683 155.188ZM241.683 159.188C241.364 159.985 241.127 159.748 241.079 158.583C241.036 157.529 241.272 156.939 241.604 157.271C241.936 157.603 241.972 158.466 241.683 159.188ZM91 162.551C91 162.826 89.65 162.353 88 161.5C86.35 160.647 85 159.724 85 159.449C85 159.174 86.35 159.647 88 160.5C89.65 161.353 91 162.276 91 162.551ZM183.683 165.188C183.364 165.985 183.127 165.748 183.079 164.583C183.036 163.529 183.272 162.939 183.604 163.271C183.936 163.603 183.972 164.466 183.683 165.188ZM83 169.57C83 169.845 82.1 169.589 81 169C79.9 168.411 79 167.705 79 167.43C79 167.155 79.9 167.411 81 168C82.1 168.589 83 169.295 83 169.57ZM22 185C22.589 186.1 22.845 187 22.57 187C22.295 187 21.589 186.1 21 185C20.411 183.9 20.155 183 20.43 183C20.705 183 21.411 183.9 22 185ZM29 196C30.175 197.65 30.911 199 30.636 199C30.361 199 29.175 197.65 28 196C26.825 194.35 26.089 193 26.364 193C26.639 193 27.825 194.35 29 196ZM34 202.5C35.292 203.875 36.124 205 35.849 205C35.574 205 34.292 203.875 33 202.5C31.708 201.125 30.876 200 31.151 200C31.426 200 32.708 201.125 34 202.5ZM42 211.5C44.987 214.525 47.207 217 46.932 217C46.657 217 43.987 214.525 41 211.5C38.013 208.475 35.793 206 36.068 206C36.343 206 39.013 208.475 42 211.5Z" fill="#0B1524"/>
<path fill-rule="evenodd" clip-rule="evenodd" d="M98.5 2.99599C50.851 13.88 14.736 49.852 3.433 97.686C0.0819998 111.869 -0.0780003 138.032 3.097 152.767C8.516 177.921 20.202 198.518 40 217.813C46.923 224.559 59.68 233.527 57.625 230.202C57.354 229.763 57.501 228.807 57.953 228.076C58.533 227.138 56.211 224.616 50.035 219.476C21.76 195.942 6.018 162.48 6.004 125.881C5.992 94.703 17.801 65.421 39.384 43.11C57.722 24.153 78.067 13.015 104.5 7.46199C112.876 5.70299 137.664 5.02999 143.663 6.39899C146.368 7.01599 146.927 6.80399 147.52 4.93599C147.964 3.53899 147.724 2.43999 146.857 1.88999C146.111 1.41799 136.725 1.06199 126 1.09999C110.893 1.15299 104.698 1.57999 98.5 2.99599ZM200.421 27.993C200.465 29.096 204.773 34.338 210.077 39.743C220.289 50.146 227.454 59.993 233.394 71.789C254.616 113.932 248.8 166.249 218.797 203.082C212.533 210.773 212.474 218.232 218.732 211.25C233.552 194.716 243.511 175.711 248.567 154.314C250.669 145.416 250.999 141.603 250.991 126.258C250.981 106.238 248.979 94.495 243.019 79.5C235.631 60.91 222.156 42.16 207.518 30.103C201.975 25.537 200.303 25.04 200.421 27.993ZM107.735 54.228C105.664 55.428 104.108 56.823 104.276 57.328C104.444 57.832 109.738 60.864 116.041 64.065L127.5 69.885L128.895 67.192C129.663 65.712 130.725 64.218 131.255 63.873C132.157 63.287 114.064 51.973 112.306 52.023C111.863 52.036 109.806 53.028 107.735 54.228ZM93.25 62.247C90.912 63.428 89 64.645 89 64.953C89 65.53 119.338 82 120.402 82C120.731 82 121.003 81.438 121.006 80.75C121.01 80.063 121.618 78.338 122.359 76.919C123.706 74.338 123.706 74.337 111.691 67.419C105.083 63.613 99.186 60.41 98.588 60.3C97.99 60.189 95.588 61.066 93.25 62.247ZM78 70.895L73.5 73.632V118.918V164.204L85.802 170.717C92.568 174.299 98.254 177.066 98.438 176.865C98.621 176.664 99.071 174.687 99.436 172.471L100.101 168.441L91.551 163.5L83 158.559V119.279C83 92.144 83.33 80 84.066 80C84.652 80 86.002 80.466 87.066 81.035C88.924 82.03 89 83.51 89 118.827V155.583L94.522 158.292C100.758 161.35 101 161.411 101 159.929C101 159.339 101.71 158.147 102.578 157.279C104.015 155.842 103.859 155.52 100.828 153.665C98.998 152.546 97.364 151.539 97.197 151.428C96.711 151.106 97.004 87.662 97.494 87.173C97.738 86.929 99.077 87.475 100.469 88.388L103 90.046V118.964C103 134.869 103.357 148.102 103.792 148.372C104.228 148.641 104.66 148.105 104.751 147.181C104.843 146.256 105.684 142.35 106.621 138.5C107.74 133.901 108.526 125.154 108.912 113C109.532 93.491 109.516 93.545 114.071 95.427C115.246 95.913 115.939 95.124 116.824 92.288C117.887 88.884 117.801 88.329 115.973 86.815C113.846 85.053 83.665 67.942 82.925 68.079C82.691 68.122 80.475 69.389 78 70.895ZM162.922 82.768C163.347 84.271 163.62 86.85 163.528 88.5C163.429 90.28 164.288 92.737 165.641 94.542C166.894 96.215 169.176 100.265 170.71 103.542L173.5 109.5L173.804 139.654C174.056 164.717 173.853 170.415 172.605 173.404C171.778 175.382 171.463 177 171.903 177C173.837 177 179.568 172.194 181.446 168.997C183.395 165.679 183.5 163.962 183.5 135.5C183.5 106.498 183.423 105.31 181.196 99.798C178.492 93.106 171.303 84.705 165.938 81.968L162.15 80.036L162.922 82.768ZM164.438 118.534C165.125 141.919 167.259 172 168.231 172C168.723 172 168.975 158.91 168.805 142.25C168.512 113.709 168.408 112.317 166.248 108L163.997 103.5L164.438 118.534Z" fill="#62E9FE"/>
<path fill-rule="evenodd" clip-rule="evenodd" d="M98.5 3.019C51.009 13.732 14.735 49.854 3.433 97.686C0.0819998 111.869 -0.0780003 138.032 3.097 152.767C8.516 177.921 20.202 198.518 40 217.813C46.923 224.559 59.68 233.527 57.625 230.202C57.354 229.763 57.501 228.807 57.953 228.076C58.533 227.138 56.211 224.616 50.035 219.476C21.76 195.942 6.018 162.48 6.004 125.881C5.992 94.703 17.801 65.421 39.384 43.11C57.722 24.153 78.067 13.015 104.5 7.462C112.876 5.703 137.664 5.03 143.663 6.399C146.368 7.016 146.927 6.804 147.52 4.936C147.963 3.542 147.727 2.449 146.87 1.92C146.131 1.463 136.745 1.117 126.013 1.151C111.006 1.2 104.653 1.631 98.5 3.019ZM107.735 54.228C105.664 55.428 104.108 56.823 104.276 57.328C104.444 57.832 109.738 60.864 116.041 64.065L127.5 69.885L128.895 67.192C129.663 65.712 130.725 64.218 131.255 63.873C132.157 63.287 114.064 51.973 112.306 52.023C111.863 52.036 109.806 53.028 107.735 54.228ZM93.25 62.247C90.912 63.428 89 64.645 89 64.953C89 65.53 119.338 82 120.402 82C120.731 82 121.003 81.438 121.006 80.75C121.01 80.063 121.618 78.338 122.359 76.919C123.706 74.338 123.706 74.337 111.691 67.419C105.083 63.613 99.186 60.41 98.588 60.3C97.99 60.189 95.588 61.066 93.25 62.247ZM78 70.895L73.5 73.632V118.918V164.204L85.802 170.717C92.568 174.299 98.254 177.066 98.438 176.865C98.621 176.664 99.071 174.687 99.436 172.471L100.101 168.441L91.551 163.5L83 158.559V119.279C83 92.144 83.33 80 84.066 80C84.652 80 86.002 80.466 87.066 81.035C88.924 82.03 89 83.51 89 118.827V155.583L94.522 158.292C100.758 161.35 101 161.411 101 159.929C101 159.339 101.71 158.147 102.578 157.279C104.015 155.842 103.859 155.52 100.828 153.665C98.998 152.546 97.364 151.539 97.197 151.428C96.711 151.106 97.004 87.662 97.494 87.173C97.738 86.929 99.077 87.475 100.469 88.388L103 90.046V118.964C103 134.869 103.357 148.102 103.792 148.372C104.228 148.641 104.66 148.105 104.751 147.181C104.843 146.256 105.684 142.35 106.621 138.5C107.74 133.901 108.526 125.154 108.912 113C109.532 93.491 109.516 93.545 114.071 95.427C115.246 95.913 115.939 95.124 116.824 92.288C117.887 88.884 117.801 88.329 115.973 86.815C113.846 85.053 83.665 67.942 82.925 68.079C82.691 68.122 80.475 69.389 78 70.895Z" fill="#FF8080"/>
<path fill-rule="evenodd" clip-rule="evenodd" d="M79.331 9.06899C78.743 9.65699 77.64 10.249 76.881 10.383C76.121 10.517 72.575 12.086 69 13.868C45.381 25.644 26.512 44.442 14.16 68.502C9.379 77.816 4.487 90.435 6.026 89.484C6.61 89.123 7.754 89.381 8.568 90.056C10.401 91.577 10.113 92.005 13.379 82.883C22.832 56.478 48.146 28.886 73.75 17.079C76.638 15.748 79 14.222 79 13.689C79 13.156 79.787 12.139 80.75 11.428C81.976 10.521 82.186 9.81499 81.45 9.06699C80.706 8.31099 80.089 8.31099 79.331 9.06899ZM107.75 54.758C104.714 56.641 104.345 57.535 106.295 58.283C107.011 58.558 108.332 57.487 109.248 55.89C110.161 54.3 110.815 53.012 110.703 53.027C110.592 53.041 109.263 53.82 107.75 54.758ZM93.76 62.294C91.703 63.507 90.015 64.78 90.01 65.123C90.004 65.465 92.317 66.892 95.148 68.293L100.297 70.841L102.133 67.239C103.143 65.257 103.864 63.582 103.735 63.516C103.606 63.449 102.278 62.631 100.785 61.697C97.546 59.672 98.317 59.607 93.76 62.294ZM77.996 71.281L72.74 74.315L73.363 80.908C73.706 84.533 73.989 91.198 73.993 95.719C73.998 102.174 74.287 103.827 75.34 103.423C76.077 103.14 77.257 103.604 77.962 104.454C78.668 105.305 80.09 106 81.122 106C82.866 106 83 105.04 83 92.5C83 85.075 83.204 79 83.453 79C83.702 79 85.052 79.522 86.453 80.161C88.754 81.209 89.011 81.908 89.115 87.411C89.213 92.595 89.335 92.98 89.939 90C90.713 86.182 94.697 77.868 96.222 76.887C96.746 76.55 94.042 74.468 90.213 72.26L83.252 68.246L77.996 71.281Z" fill="white"/>
</svg>
