<svg width="66" height="65" viewBox="0 0 66 65" fill="none" xmlns="http://www.w3.org/2000/svg">
<path fill-rule="evenodd" clip-rule="evenodd" d="M1 33V65H33H65V33V1H33H1V33Z" fill="#FBD2D1"/>
<path fill-rule="evenodd" clip-rule="evenodd" d="M1 33V65H33H65V33V1H33H1V33ZM21.613 6.818C21.335 7.268 21.983 8.267 23.054 9.039C24.124 9.81 25 11.042 25 11.777C25 12.511 23.916 11.852 22.592 10.312C20.483 7.86 20.063 6 21.618 6C21.893 6 21.891 6.368 21.613 6.818ZM44.5 15C44.84 15.55 44.641 16 44.059 16C43.477 16 43 15.55 43 15C43 14.45 43.198 14 43.441 14C43.684 14 44.16 14.45 44.5 15ZM34.25 47.662C33.563 47.94 32.438 47.94 31.75 47.662C31.063 47.385 31.625 47.158 33 47.158C34.375 47.158 34.938 47.385 34.25 47.662ZM14.264 50.704C13.034 50.941 10.784 50.947 9.264 50.718C7.744 50.488 8.75 50.294 11.5 50.286C14.25 50.279 15.494 50.467 14.264 50.704ZM16.707 57.238C16.468 58.482 16.263 57.7 16.252 55.5C16.241 53.3 16.437 52.282 16.687 53.238C16.937 54.194 16.946 55.994 16.707 57.238Z" fill="#E7B0B0"/>
<path fill-rule="evenodd" clip-rule="evenodd" d="M1 33V65H33H65V33V1H33H1V33ZM8.911 7.833C9.645 9.206 9.54 9.667 8.49 9.667C7.719 9.667 7.351 9.241 7.672 8.722C7.993 8.202 7.636 7.384 6.878 6.904C5.934 6.305 5.882 6.026 6.715 6.015C7.383 6.007 8.371 6.825 8.911 7.833ZM23 8.559C23 9.352 23.45 10 24 10C24.55 10 24.971 11.012 24.937 12.25C24.876 14.416 24.842 14.424 24.048 12.465C23.595 11.346 22.503 9.833 21.623 9.102C20.742 8.371 20.273 7.367 20.58 6.87C21.344 5.634 23 6.79 23 8.559ZM38.985 8.25C38.972 10.069 38.784 10.213 38 9C36.747 7.061 36.747 6 38 6C38.55 6 38.993 7.012 38.985 8.25ZM33 11C33 11.55 32.802 12 32.559 12C32.316 12 31.84 11.55 31.5 11C31.16 10.45 31.359 10 31.941 10C32.523 10 33 10.45 33 11ZM13 13.57C13 13.845 12.1 13.589 11 13C9.9 12.411 9 11.705 9 11.43C9 11.155 9.9 11.411 11 12C12.1 12.589 13 13.295 13 13.57ZM54.563 14.246C57.226 17.189 57.249 17.272 54.817 15.135L52.134 12.777L51.706 16.639C51.331 20.02 51.284 19.91 51.326 15.75C51.352 13.137 51.43 11 51.5 11C51.569 11 52.948 12.461 54.563 14.246ZM44.112 16.287C43.296 17.104 43 16.992 43 15.867C43 13.879 44.345 12.534 44.842 14.025C45.053 14.658 44.724 15.676 44.112 16.287ZM18.925 15.25C18.581 17.901 19.045 19.09 20.155 18.405C20.854 17.972 21.038 18.129 20.622 18.802C19.491 20.632 17.4 19.119 17.4 16.47C17.4 15.111 17.78 14 18.244 14C18.708 14 19.015 14.563 18.925 15.25ZM31.944 18.374C31.7 18.611 30.648 17.611 29.606 16.152L27.712 13.5L30.05 15.722C31.337 16.944 32.189 18.138 31.944 18.374ZM37.5 19C37.16 19.55 36.459 20 35.941 20C35.423 20 35 19.55 35 19C35 18.45 35.702 18 36.559 18C37.416 18 37.84 18.45 37.5 19ZM44.996 22.006C45.534 21.136 45.946 21.103 46.434 21.893C46.81 22.502 46.586 23 45.937 23C45.094 23 45.144 23.502 46.11 24.75C47.214 26.175 47.05 26.146 45.233 24.595C44.005 23.547 43.036 22.197 43.079 21.595C43.122 20.993 43.402 21.113 43.7 21.863C44.115 22.906 44.419 22.94 44.996 22.006ZM8.667 25.456C8.667 26.257 8.284 26.676 7.817 26.387C7.35 26.098 7.226 25.443 7.543 24.931C8.351 23.623 8.667 23.77 8.667 25.456ZM19.683 26.188C19.364 26.985 19.127 26.748 19.079 25.583C19.036 24.529 19.272 23.939 19.604 24.271C19.936 24.603 19.972 25.466 19.683 26.188ZM20.5 29C20.892 29.635 18.264 29.994 13.309 29.985C7.898 29.974 5.961 29.672 7 29C8.98 27.72 19.709 27.72 20.5 29ZM62.693 34.731C62.439 35.704 62.215 35.15 62.195 33.5C62.175 31.85 62.382 31.054 62.656 31.731C62.93 32.408 62.947 33.758 62.693 34.731ZM24.02 40.257L28.5 40.651L23.872 40.825C20.505 40.952 18.871 40.523 17.872 39.25C16.674 37.721 16.692 37.649 18.02 38.681C18.855 39.331 21.555 40.04 24.02 40.257ZM46 41.345C46 41.535 44.987 42.547 43.75 43.595L41.5 45.5L43.405 43.25C45.195 41.136 46 40.545 46 41.345ZM34.25 47.662C33.563 47.94 32.438 47.94 31.75 47.662C31.063 47.385 31.625 47.158 33 47.158C34.375 47.158 34.938 47.385 34.25 47.662ZM26.25 48.706C25.012 48.944 22.988 48.944 21.75 48.706C20.512 48.467 21.525 48.272 24 48.272C26.475 48.272 27.488 48.467 26.25 48.706ZM57 49.326C57 49.505 55.763 50.742 54.25 52.076L51.5 54.5L53.924 51.75C56.19 49.18 57 48.541 57 49.326ZM14.264 50.704C13.034 50.941 10.784 50.947 9.264 50.718C7.744 50.488 8.75 50.294 11.5 50.286C14.25 50.279 15.494 50.467 14.264 50.704ZM16.707 57.238C16.468 58.482 16.263 57.7 16.252 55.5C16.241 53.3 16.437 52.282 16.687 53.238C16.937 54.194 16.946 55.994 16.707 57.238Z" fill="#B85853"/>
<path fill-rule="evenodd" clip-rule="evenodd" d="M1 33V65H33H65V33V1H33H1V33ZM39.266 7.75C39.002 8.438 39.483 9 40.334 9C41.185 9 42.12 9.385 42.411 9.856C42.702 10.326 41.821 10.497 40.455 10.236C39.088 9.975 37.726 9.365 37.426 8.881C36.694 7.696 23 7.749 23 8.937C23 9.452 24.428 10.014 26.173 10.187C27.918 10.359 29.459 11.074 29.598 11.775C29.737 12.476 29.621 12.589 29.342 12.025C28.499 10.326 25 10.843 25 12.667C25 13.583 24.738 14.071 24.417 13.75C24.096 13.429 23.839 12.792 23.845 12.333C23.852 11.875 23.145 10.713 22.274 9.75C20.109 7.358 8.018 7.111 10 9.5C10.685 10.325 10.879 11 10.431 11C9.984 11 10.447 11.606 11.46 12.347C12.973 13.454 13.052 13.84 11.901 14.508C11.131 14.955 10.831 14.955 11.234 14.509C11.638 14.063 11.188 13.123 10.234 12.421C8.656 11.26 8.444 11.656 7.882 16.823C7.336 21.846 7.287 21.611 7.458 14.775C7.564 10.526 7.282 6.926 6.83 6.775C6.379 6.624 13.6 6.5 22.878 6.5C35.962 6.5 39.638 6.78 39.266 7.75ZM46.5 9C46.16 9.55 45.432 10 44.882 10C44.332 10 44.16 9.55 44.5 9C44.84 8.45 45.568 8 46.118 8C46.668 8 46.84 8.45 46.5 9ZM36.5 10C36.84 10.55 36.668 11 36.118 11C35.568 11 34.84 10.55 34.5 10C34.16 9.45 34.332 9 34.882 9C35.432 9 36.16 9.45 36.5 10ZM33.5 11C33.84 11.55 33.668 12 33.118 12C32.568 12 31.84 11.55 31.5 11C31.16 10.45 31.332 10 31.882 10C32.432 10 33.16 10.45 33.5 11ZM58.186 18.5C58.748 19.6 57.698 18.711 55.854 16.525L52.5 12.55L51.892 16.525L51.284 20.5L51.142 16.809C51.064 14.779 50.543 12.835 49.984 12.49C49.425 12.144 49.25 11.404 49.596 10.844C50.293 9.717 56.547 15.292 58.186 18.5ZM44.101 17.062C43.177 19.375 43.124 19.389 43.063 17.332C43.029 16.139 43.324 14.339 43.72 13.332C44.313 11.825 44.497 11.777 44.758 13.062C44.932 13.922 44.636 15.722 44.101 17.062ZM22.5 14C22.84 14.55 22.668 15 22.118 15C21.568 15 20.84 14.55 20.5 14C20.16 13.45 20.332 13 20.882 13C21.432 13 22.16 13.45 22.5 14ZM19.5 15C19.84 15.55 19.555 16 18.868 16C18.18 16 18.491 16.661 19.559 17.468C21.473 18.916 31 19.633 31 18.329C31 17.96 30.213 16.73 29.25 15.596C27.936 14.048 27.896 13.839 29.092 14.759C29.968 15.432 30.916 15.751 31.2 15.467C31.483 15.184 32.342 15.724 33.107 16.668C34.029 17.803 34.077 18.13 33.25 17.633C32.542 17.208 32 17.376 32 18.02C32 18.779 33.085 18.93 35.25 18.474C37.739 17.95 38.235 18.067 37.37 18.975C36.624 19.757 33.456 20.048 28.04 19.83L19.839 19.5L20.17 24.751L20.5 30.003L13 29.986C7.788 29.974 5.958 29.674 7 29C7.825 28.467 10.862 28.024 13.75 28.015L19 28V23.5C19 21.025 18.64 19 18.2 19C17.76 19 17.4 17.875 17.4 16.5C17.4 13.936 18.401 13.222 19.5 15ZM11.371 21.599C10.634 22.203 10.362 23.063 10.766 23.509C11.169 23.955 10.869 23.955 10.099 23.508C8.898 22.811 8.899 22.538 10.106 21.597C10.881 20.994 11.421 19.375 11.306 18L11.097 15.5L11.904 18C12.455 19.707 12.286 20.848 11.371 21.599ZM48.323 20.941C50.427 19.925 50.435 19.942 48.559 21.445C47.491 22.3 46.243 23 45.786 23C45.328 23 45.682 24.111 46.571 25.468C47.46 26.825 47.956 28.513 47.673 29.218C47.316 30.106 47.134 30.021 47.079 28.944C46.965 26.692 42.454 20.893 41.493 21.763C41.045 22.169 41.045 21.869 41.492 21.099C42.16 19.948 42.546 20.027 43.653 21.54C44.92 23.273 45.007 23.238 45.116 20.941C45.196 19.252 45.373 19.038 45.689 20.246C46.061 21.67 46.548 21.798 48.323 20.941ZM61.914 27C61.878 27.989 61.567 27.819 61 26.5C59.819 23.751 59.819 22.172 61 24C61.533 24.825 61.945 26.175 61.914 27ZM9.447 26.085C9.125 26.606 8.436 26.769 7.915 26.447C7.394 26.125 7.231 25.436 7.553 24.915C7.875 24.394 8.564 24.231 9.085 24.553C9.606 24.875 9.769 25.564 9.447 26.085ZM62.718 35.736C62.488 37.256 62.294 36.25 62.286 33.5C62.279 30.75 62.467 29.506 62.704 30.736C62.941 31.966 62.947 34.216 62.718 35.736ZM23.95 40.157L28.5 40.314L23.5 40.928C18.485 41.543 15.499 40.619 16.624 38.8C17.004 38.184 17.626 38.226 18.313 38.913C18.911 39.511 21.447 40.071 23.95 40.157ZM60.995 42.712C59.906 44.412 59.877 44.409 60.424 42.668C60.741 41.661 61.036 40.311 61.079 39.668C61.136 38.825 61.295 38.837 61.65 39.712C61.92 40.379 61.626 41.729 60.995 42.712ZM46 41.345C46 41.535 44.987 42.547 43.75 43.595L41.5 45.5L43.405 43.25C45.195 41.136 46 40.545 46 41.345ZM34.25 47.662C33.563 47.94 32.438 47.94 31.75 47.662C31.063 47.385 31.625 47.158 33 47.158C34.375 47.158 34.938 47.385 34.25 47.662ZM26.25 48.706C25.012 48.944 22.988 48.944 21.75 48.706C20.512 48.467 21.525 48.272 24 48.272C26.475 48.272 27.488 48.467 26.25 48.706ZM58 48.304C58 48.471 56.313 50.158 54.25 52.054L50.5 55.5L53.946 51.75C57.154 48.26 58 47.54 58 48.304ZM11.75 50.735L7 51.11L6.84 55.305C6.694 59.138 6.645 59.212 6.27 56.155C5.613 50.801 6.363 49.978 11.719 50.18L16.5 50.36L11.75 50.735ZM16.299 59.101C15.833 59.567 15.677 58.047 15.951 55.724C16.438 51.604 16.459 51.583 16.798 54.877C16.989 56.735 16.765 58.635 16.299 59.101ZM50 55.474C50 56.211 44.255 59.003 42.8 58.974C42.085 58.959 43.3 58.096 45.5 57.055C50.296 54.785 50 54.889 50 55.474ZM40.729 59.604C40.397 59.936 39.534 59.972 38.813 59.683C38.015 59.364 38.252 59.127 39.417 59.079C40.471 59.036 41.061 59.272 40.729 59.604ZM34.25 60.662C33.563 60.94 32.438 60.94 31.75 60.662C31.063 60.385 31.625 60.158 33 60.158C34.375 60.158 34.938 60.385 34.25 60.662Z" fill="#B63A33"/>
<path fill-rule="evenodd" clip-rule="evenodd" d="M1 33V65H33H65V33V1H33H1V33ZM33.156 6.705C40.886 6.248 43.938 6.423 45.234 7.396C46.188 8.112 46.638 9.062 46.234 9.508C45.831 9.954 46.311 10.027 47.302 9.671C48.441 9.261 48.864 9.412 48.451 10.08C48.092 10.661 47.209 10.91 46.489 10.634C45.543 10.271 44.988 11.791 44.485 16.127C44.103 19.425 44.062 22.395 44.395 22.728C44.728 23.061 45.045 22.021 45.1 20.417C45.189 17.805 45.267 17.737 45.85 19.772C46.463 21.915 46.628 21.954 48.75 20.465C51.165 18.771 51.814 14.214 49.913 12.313C49.208 11.608 49.175 11.01 49.819 10.612C51.437 9.612 59.685 19.626 61.408 24.684C63.374 30.453 63.387 37.526 61.44 41.5C60.631 43.15 60.26 43.6 60.615 42.5C63.446 33.732 61.342 22.983 55.501 16.37L52.083 12.5L52.042 16.093C52.006 19.139 51.479 19.966 48.574 21.53C45.406 23.236 45.256 23.527 46.574 25.41C47.359 26.529 47.954 28.582 47.898 29.973C47.814 32.04 47.646 31.867 46.977 29.019C46.526 27.104 44.986 24.603 43.554 23.461C42.121 22.319 41.298 21.037 41.725 20.612C42.701 19.64 44.834 8.167 44.163 7.497C43.303 6.636 39 6.958 39 7.883C39 8.369 39.9 9.002 41 9.29C42.154 9.592 42.951 10.592 42.884 11.656C42.8 12.989 42.654 13.08 42.356 11.985C42.129 11.151 40.163 9.914 37.988 9.235C33.496 7.833 24.379 7.578 23.603 8.833C23.32 9.292 23.631 9.702 24.294 9.745C24.957 9.788 26.625 9.927 28 10.053C29.375 10.179 31.688 9.957 33.141 9.56C34.818 9.101 36.05 9.271 36.516 10.026C37.042 10.877 36.612 11.011 35 10.5C33.365 9.981 32.955 10.118 33.5 11C34.034 11.865 33.662 12.028 32.208 11.566C29.621 10.745 29.79 12.977 32.552 16.124C33.623 17.345 33.938 18.015 33.25 17.613C32.563 17.211 32 17.379 32 17.986C32 18.703 33.317 18.879 35.75 18.488C38.787 18 39.159 18.1 37.705 19.017C36.627 19.697 32.702 20.02 27.875 19.825L19.839 19.5L20.17 24.789L20.5 30.078L13 29.789L5.5 29.5L5.22 17.914L4.939 6.327L12.97 6.792C19.347 7.161 21.003 6.973 21.015 5.878C21.028 4.728 21.178 4.733 21.922 5.908C22.637 7.037 24.858 7.195 33.156 6.705ZM6 18C6 24.05 6.338 29 6.75 29.001C7.162 29.001 7.5 24.051 7.5 18.002C7.5 11.952 7.162 7.002 6.75 7.001C6.338 7 6 11.95 6 18ZM15 7.923L8.5 8.5L8.389 17C8.328 21.675 8.489 26.063 8.746 26.75C9.031 27.511 11.09 28 14.01 28H18.807L19.153 23.202L19.5 18.404L16.094 19.577C14.21 20.225 12.072 21.923 11.312 23.375C9.556 26.725 9.151 26.693 9.767 23.25C10.458 19.396 10.426 13.951 9.697 11C9.08 8.501 9.08 8.5 10.822 10.592C12.978 13.18 17.391 14.108 21.211 12.777C23.865 11.851 23.974 11.629 22.548 10.053C21.694 9.11 21.297 8.037 21.664 7.669C22.032 7.301 22.146 7.078 21.917 7.173C21.688 7.268 18.575 7.605 15 7.923ZM25 12.5C25 13.333 25.889 14 27 14C28.111 14 29 13.333 29 12.5C29 11.667 28.111 11 27 11C25.889 11 25 11.667 25 12.5ZM11.5 17.03C11.5 19.976 11.797 20.55 13 19.925C13.825 19.497 15.252 18.916 16.171 18.635C18.859 17.812 17.656 14.614 14.408 13.95C11.617 13.379 11.5 13.503 11.5 17.03ZM22.566 14.107C23.032 14.861 22.533 14.987 21 14.5C19.467 14.013 18.968 14.139 19.434 14.893C19.81 15.502 19.555 16 18.868 16C18.18 16 18.491 16.661 19.559 17.468C22.17 19.443 30.598 19.489 31.349 17.532C32.047 15.713 30.201 14.471 27.346 14.84C26.161 14.993 24.896 14.642 24.536 14.059C24.177 13.477 23.432 13 22.882 13C22.332 13 22.19 13.498 22.566 14.107ZM40.5 20C40.16 20.55 39.346 20.993 38.691 20.985C37.975 20.975 38.099 20.582 39 20C40.921 18.758 41.267 18.758 40.5 20ZM13.75 32.728C10.48 33.071 9.985 33.465 9.884 35.81C9.806 37.609 9.613 37.901 9.299 36.692C8.428 33.328 9.734 31.991 13.719 32.168L17.5 32.336L13.75 32.728ZM23.505 40L28.5 40.5V44.5C28.5 48.446 28.446 48.504 24.5 48.824C19.145 49.257 17 51.369 17 56.207V60.105L11.75 59.802L6.5 59.5L6.195 54.75L5.89 50L10.695 49.985C17.132 49.964 18.206 49.122 17.819 44.398C17.516 40.69 17.305 40.47 13.5 39.892L9.5 39.284L13.25 39.142C16.608 39.015 17.012 38.713 17.118 36.25L17.237 33.5L17.873 36.5C18.458 39.255 18.918 39.541 23.505 40ZM46.512 39.977C44.856 43.18 39.654 47.007 37 46.974C36.175 46.964 37.383 46.101 39.684 45.057C43.783 43.195 46.868 39.145 47.116 35.3C47.218 33.717 47.286 33.703 47.676 35.183C47.921 36.108 47.397 38.266 46.512 39.977ZM18 40.2C18.55 40.86 19 43.094 19 45.165C19 49.622 17.127 51 11.066 51H7V55V59H11.5C15.931 59 16 58.949 16 55.674C16 51.178 19.443 48 24.314 48C27.86 48 28 47.867 28 44.5C28 41.043 27.948 41 23.7 41C21.335 41 18.86 40.55 18.2 40C17.327 39.273 17.273 39.327 18 40.2ZM60 45.522C60 45.81 58.087 48.128 55.75 50.674C51.476 55.33 43.218 60.03 39.5 59.923C38.4 59.892 39.3 59.297 41.5 58.601C48.127 56.505 51.633 54.265 55.664 49.552C59.554 45.003 60 44.588 60 45.522ZM33.25 47.706C31.222 48.096 31 48.717 31 54.006C31 59.641 31.109 59.889 33.75 60.28C36.345 60.663 36.33 60.681 33.5 60.593C30.503 60.5 30.5 60.494 30.204 53.75L29.909 47L32.704 47.136C35.063 47.251 35.148 47.34 33.25 47.706Z" fill="#780000"/>
<path fill-rule="evenodd" clip-rule="evenodd" d="M1 10.8C1 16.524 1.452 21.052 2.087 21.687C2.87 22.47 2.87 22.962 2.087 23.446C0.520001 24.415 0.660001 41.24 2.25 42.925C3.25 43.985 3.25 44.342 2.25 44.708C1.365 45.033 1 48.061 1 55.083V65H33.003H65.005L64.943 49.5C64.906 40.354 64.488 34 63.924 34C63.398 34 63.063 35.241 63.178 36.758C63.469 40.576 58.37 49.527 53.556 53.648C51.352 55.534 47.4 57.841 44.774 58.774C42.149 59.706 40 60.751 40 61.096C40 61.441 38.827 61.498 37.394 61.224C35.794 60.919 34.448 61.262 33.909 62.113C33.277 63.111 33.026 63.149 33.015 62.25C33.007 61.563 32.325 61 31.5 61C30.325 61 30 59.631 30 54.681V48.362L24.25 49.505L18.5 50.648L18 55.074L17.5 59.5H12H6.5V54.5V49.5L12 49C17.144 48.532 17.521 48.318 17.822 45.69C18.24 42.043 16.619 40.19 12.676 39.808C9.772 39.526 9.5 39.201 9.5 36C9.5 32.583 9.595 32.5 13.5 32.5C17.138 32.5 17.529 32.753 17.821 35.302C18.174 38.379 21.019 40 26.065 40C28.737 40 29 40.305 29 43.405V46.81L33.25 46.267C42.725 45.057 47.407 39.923 46.682 31.537C46.325 27.414 45.695 26.109 42.957 23.823C39.402 20.855 34.181 19.662 27 20.177C22.529 20.498 22.498 20.526 22.199 24.5C21.811 29.656 19.912 31.004 13.059 30.985C4.647 30.962 4.616 30.912 4.874 17.909C4.997 11.717 5.327 6.28 5.608 5.826C5.888 5.371 9.151 5 12.859 5C16.894 5 20.098 4.502 20.842 3.758C21.779 2.821 22.26 2.803 22.805 3.685C23.221 4.358 25.853 4.831 29.014 4.801C41.246 4.685 50.07 7.898 55.972 14.62C59.88 19.072 62.948 25.451 62.978 29.191C62.99 30.671 63.425 32.145 63.945 32.466C64.522 32.822 64.911 26.813 64.944 17.025L64.998 1H32.999H1V10.8ZM46.447 5.085C46.125 5.606 45.436 5.769 44.915 5.447C44.394 5.125 44.231 4.436 44.553 3.915C44.875 3.394 45.564 3.231 46.085 3.553C46.606 3.875 46.769 4.564 46.447 5.085ZM7.25 6.682C6.356 7.029 6 10.275 6 18.083C6 28.197 6.994 31.955 8.324 26.869C8.839 24.899 9.004 24.861 10.512 26.369C13.769 29.627 19.46 27.294 18.845 22.954C18.335 19.356 15.075 19.201 12.182 22.637C10.374 24.785 9.929 25 10.399 23.5C10.913 21.863 10.665 21.953 9.035 24L7.044 26.5L7.022 17.595C7 8.753 7.014 8.703 9 10.5C10.1 11.495 11 11.925 11 11.455C11 10.985 11.54 11.14 12.2 11.8C13.674 13.274 20.64 13.391 21.527 11.956C22.784 9.922 19.796 8 15.378 8C12.006 8 11 8.373 11 9.622C11 10.951 10.729 11.02 9.5 10C8.675 9.315 8 8.376 8 7.913C8 7.45 14.362 7.068 22.138 7.064C29.913 7.061 36.502 6.831 36.779 6.554C37.423 5.91 8.921 6.034 7.25 6.682ZM39 7.883C39 8.369 39.9 9.002 41 9.29C42.23 9.611 43.046 10.715 43.118 12.156C43.218 14.128 43.348 14.024 43.94 11.5C44.327 9.85 44.472 8.162 44.263 7.75C43.726 6.692 39 6.812 39 7.883ZM26.5 9C26.84 9.55 27.965 10 29 10C30.035 10 31.16 9.55 31.5 9C31.862 8.415 30.824 8 29 8C27.176 8 26.138 8.415 26.5 9ZM48.75 10.989C51.359 12.58 52 13.621 52 16.27C52 18.851 51.368 19.942 49.096 21.284C45.163 23.608 45.023 23.541 44.84 19.25C44.682 15.543 44.675 15.537 44.276 18.761C43.998 21.003 44.516 22.841 45.936 24.646C47.412 26.522 47.999 28.727 47.996 32.385C47.99 40.924 43.673 45.845 34.715 47.526L31 48.223V54.251V60.279L35.938 59.694C43.593 58.787 50.542 55.303 55.341 49.966C64.913 39.32 64.205 25.331 53.537 14.318C50.704 11.393 47.737 9.002 46.943 9.004C46.15 9.006 46.962 9.899 48.75 10.989ZM37.024 11.183C35.661 11.689 33.411 11.841 32.024 11.521C30.607 11.195 30.025 11.293 30.697 11.746C31.495 12.283 31.578 13.045 30.947 14.026C30.17 15.235 29.889 15.095 29.383 13.25C28.693 10.729 25 10.098 25 12.5C25 13.325 25.867 14 26.927 14C27.988 14 29.74 15.125 30.821 16.5C31.903 17.875 33.335 19 34.005 19C34.674 19 34.159 18.117 32.861 17.037C30.527 15.096 30.56 15.096 35.813 17.057C38.735 18.147 41.461 18.833 41.87 18.581C42.996 17.884 41.96 11.198 40.649 10.699C40.017 10.459 38.386 10.677 37.024 11.183ZM45.698 11.75C45.468 12.162 45.493 14.21 45.755 16.301C46.11 19.137 46.646 20.024 47.865 19.793C49.876 19.412 50.609 14.439 48.95 12.44C47.639 10.86 46.349 10.586 45.698 11.75ZM11.5 17.03C11.5 19.976 11.797 20.55 13 19.925C13.825 19.497 15.252 18.916 16.171 18.635C18.859 17.812 17.656 14.614 14.408 13.95C11.617 13.379 11.5 13.503 11.5 17.03ZM8 16.941C8 18.559 8.437 20.152 8.971 20.482C10.132 21.2 11.468 16.567 10.535 15.057C9.294 13.049 8 14.01 8 16.941ZM21.5 16C21.131 16.596 22.343 17 24.5 17C26.657 17 27.869 16.596 27.5 16C27.16 15.45 25.81 15 24.5 15C23.19 15 21.84 15.45 21.5 16ZM19.989 23.903L20.478 29.5L20.789 24.301L21.101 19.101L25.801 18.723C30.337 18.357 30.309 18.343 25 18.325L19.5 18.306L19.989 23.903ZM38 19.714C38.825 20.02 40.4 20.684 41.5 21.19C43.468 22.096 43.469 22.085 41.559 20.555C40.491 19.7 38.916 19.036 38.059 19.079C36.712 19.147 36.704 19.234 38 19.714ZM10 36C10 38.727 10.3 39 13.3 39C17.582 39 19 40.534 19 45.165C19 49.622 17.127 51 11.066 51H7V55V59H11.5C15.931 59 16 58.949 16 55.674C16 51.178 19.443 48 24.314 48C27.86 48 28 47.867 28 44.5C28 41.043 27.948 41 23.7 41C18.692 41 17 39.687 17 35.8C17 33.267 16.667 33 13.5 33C10.278 33 10 33.238 10 36ZM23 62C23 62.55 22.577 63 22.059 63C21.541 63 20.84 62.55 20.5 62C20.16 61.45 20.584 61 21.441 61C22.298 61 23 61.45 23 62ZM47 62C47 62.55 46.325 63 45.5 63C44.675 63 44 62.55 44 62C44 61.45 44.675 61 45.5 61C46.325 61 47 61.45 47 62Z" fill="#3C0000"/>
<path fill-rule="evenodd" clip-rule="evenodd" d="M1 9.009C1 15.088 1.318 17.062 2.25 16.755C2.978 16.515 3.626 14.188 3.802 11.179C4.15 5.234 6.033 3.552 11.614 4.203C13.776 4.456 15 4.171 15 3.416C15 1.96 13.028 1.44 6.25 1.108L1 0.851997V9.009ZM16 2.383C16 3.144 16.9 4.002 18 4.29C19.1 4.577 20 4.384 20 3.861C20 3.315 21.492 3.189 23.5 3.566C26.324 4.096 27 3.911 27 2.611C27 1.325 25.891 0.999997 21.5 0.999997C17.484 0.999997 16 1.373 16 2.383ZM28.393 2.582C28.727 3.452 29 4.31 29 4.488C29 4.667 29.9 4.577 31 4.29C33.954 3.517 33.489 0.999997 30.393 0.999997C28.427 0.999997 27.935 1.389 28.393 2.582ZM34 2.5C34 3.325 34.413 4 34.918 4C35.423 4 36.548 4.273 37.418 4.607C38.552 5.042 39 4.617 39 3.107C39 1.526 38.376 0.999997 36.5 0.999997C34.944 0.999997 34 1.567 34 2.5ZM40 2.883C40 3.926 40.893 5 42 5.29C43.3 5.63 44 5.32 44 4.406C44 3.633 44.727 3 45.617 3C46.72 3 47.073 3.611 46.73 4.926C46.36 6.341 46.978 7.163 49.063 8.026C54.749 10.381 63 20.703 63 25.46C63 26.307 63.45 27 64 27C64.55 27 65 26.1 65 25C65 23.9 64.438 22.993 63.75 22.985C62.849 22.974 62.818 22.765 63.641 22.235C64.357 21.773 64.833 17.684 64.921 11.25L65.061 0.999997H52.531C40.925 0.999997 40 1.139 40 2.883ZM7.25 6.682C5.868 7.218 5.379 29.02 6.75 28.975C7.162 28.962 8.303 27.274 9.284 25.225L11.068 21.5L9.056 24L7.044 26.5L7.022 17.595L7 8.69L9.25 10.595C11.498 12.498 11.498 12.498 9.75 10.421C8.787 9.278 8 8.056 8 7.707C8 7.357 14.362 7.068 22.138 7.064C29.913 7.061 36.502 6.831 36.779 6.554C37.423 5.91 8.921 6.034 7.25 6.682ZM39 7.883C39 8.369 39.9 9.002 41 9.29C42.23 9.611 43.046 10.715 43.118 12.156C43.218 14.128 43.348 14.024 43.94 11.5C44.327 9.85 44.472 8.162 44.263 7.75C43.726 6.692 39 6.812 39 7.883ZM13.22 10.179C13.459 10.905 15.13 11.645 16.934 11.821C19.303 12.053 20.094 11.775 19.78 10.821C19.541 10.095 17.87 9.355 16.066 9.179C13.697 8.947 12.906 9.225 13.22 10.179ZM48.75 10.989C51.359 12.58 52 13.621 52 16.27C52 18.851 51.368 19.942 49.096 21.284C45.163 23.608 45.023 23.541 44.84 19.25C44.682 15.543 44.675 15.537 44.276 18.761C43.998 21.003 44.516 22.841 45.936 24.646C47.412 26.522 47.999 28.727 47.996 32.385C47.99 40.924 43.673 45.845 34.715 47.526L31 48.223V54.251V60.279L35.938 59.694C43.593 58.787 50.542 55.303 55.341 49.966C64.913 39.32 64.205 25.331 53.537 14.318C50.704 11.393 47.737 9.002 46.943 9.004C46.15 9.006 46.962 9.899 48.75 10.989ZM25 12.5C25 13.325 25.867 14 26.927 14C27.988 14 29.74 15.125 30.821 16.5C31.903 17.875 33.32 19 33.971 19C34.621 19 33.769 17.835 32.077 16.411C30.385 14.987 29 13.187 29 12.411C29 11.635 28.1 11 27 11C25.889 11 25 11.667 25 12.5ZM34.008 12.974C32.078 14.194 33.542 15.721 37.817 16.948C40.878 17.825 41 17.748 41 14.93C41 12.397 40.628 12.002 38.25 12.015C36.737 12.024 34.829 12.455 34.008 12.974ZM11.5 17.03C11.5 19.976 11.797 20.55 13 19.925C13.825 19.497 15.252 18.916 16.171 18.635C18.859 17.812 17.656 14.614 14.408 13.95C11.617 13.379 11.5 13.503 11.5 17.03ZM47 15.382C47 16.757 47.45 18.16 48 18.5C48.565 18.849 49 18.03 49 16.618C49 15.243 48.55 13.84 48 13.5C47.435 13.151 47 13.97 47 15.382ZM1 19.393C1 20.159 1.675 21.045 2.5 21.362C3.52 21.753 4 21.308 4 19.969C4 18.885 3.325 18 2.5 18C1.675 18 1 18.627 1 19.393ZM19.989 23.903L20.478 29.5L20.789 24.301L21.101 19.101L25.801 18.723C30.337 18.357 30.309 18.343 25 18.325L19.5 18.306L19.989 23.903ZM38 19.714C38.825 20.02 40.4 20.684 41.5 21.19C43.468 22.096 43.469 22.085 41.559 20.555C40.491 19.7 38.916 19.036 38.059 19.079C36.712 19.147 36.704 19.234 38 19.714ZM13.021 23.462C11.365 26.555 12.079 27.448 15.518 26.585C17.495 26.089 18.053 25.393 17.815 23.725C17.37 20.608 14.629 20.457 13.021 23.462ZM23.667 21.667C23.3 22.033 22.993 23.721 22.985 25.417C22.967 28.939 22.192 30.391 19.874 31.244C18.753 31.656 18.399 32.634 18.734 34.391C19.388 37.808 20.777 38.79 25.508 39.175C29.055 39.464 29.548 39.829 30.01 42.5C30.467 45.137 30.89 45.464 33.515 45.202C38.591 44.696 41.898 42.9 43.991 39.514C48.039 32.966 45.548 25.38 38.364 22.379C34.978 20.964 24.86 20.474 23.667 21.667ZM2.25 23.662C0.492001 24.372 0.688001 27 2.5 27C3.333 27 4 26.111 4 25C4 23.9 3.888 23.036 3.75 23.079C3.612 23.122 2.938 23.385 2.25 23.662ZM1 30.934C1 32.275 1.842 32.995 3.75 33.284L6.5 33.7L3.75 33.85C-0.117 34.061 -0.117 37.698 3.75 38.284L6.5 38.7L3.677 38.85C0.0940006 39.04 0.337001 42.127 4.005 43.018L6.5 43.624L3.75 44.331C1.842 44.822 1 45.684 1 47.148C1 49.166 1.319 49.228 8.25 48.556C12.238 48.169 15.895 47.469 16.377 47C16.859 46.53 16.963 44.988 16.608 43.573C16.149 41.746 15.298 41 13.672 41C9.733 41 7.664 38.739 8.209 35.029C8.592 32.422 8.307 31.632 6.846 31.25C5.831 30.984 5 30.369 5 29.883C5 29.398 4.1 29 3 29C1.69 29 1 29.667 1 30.934ZM64.079 30.583C64.127 31.748 64.364 31.985 64.683 31.188C64.972 30.466 64.936 29.603 64.604 29.271C64.272 28.939 64.036 29.529 64.079 30.583ZM10 36C10 38.727 10.3 39 13.3 39C17.582 39 19 40.534 19 45.165C19 49.622 17.127 51 11.066 51H7V55V59H11.5C15.931 59 16 58.949 16 55.674C16 51.178 19.443 48 24.314 48C27.86 48 28 47.867 28 44.5C28 41.043 27.948 41 23.7 41C18.692 41 17 39.687 17 35.8C17 33.267 16.667 33 13.5 33C10.278 33 10 33.238 10 36ZM64.079 35.583C64.127 36.748 64.364 36.985 64.683 36.188C64.972 35.466 64.936 34.603 64.604 34.271C64.272 33.939 64.036 34.529 64.079 35.583ZM63.697 40.393C63.288 41.434 63.189 42.522 63.476 42.81C64.389 43.722 65.191 42.227 64.809 40.328C64.459 38.588 64.405 38.591 63.697 40.393ZM62 44.836C62 45.388 59.732 48.32 56.96 51.353C53.221 55.444 50.382 57.464 45.96 59.179C41.822 60.783 40 62.026 40 63.245C40 64.706 40.922 65 45.5 65C50.503 65 51.01 64.797 51.116 62.75C51.195 61.225 51.373 61.031 51.67 62.147C52.189 64.104 54.952 64.968 60.75 64.986L65 65V57.5C65 52.175 64.638 49.996 63.75 49.985C62.824 49.973 62.85 49.748 63.848 49.115C65.441 48.105 65.04 44.846 63.25 44.25C62.563 44.021 62 44.285 62 44.836ZM1 57.5V65L4.25 64.989C6.038 64.983 9.188 64.699 11.25 64.358C16.13 63.551 16.31 61.047 11.5 60.875C9.575 60.806 7.438 60.691 6.75 60.619C5.926 60.533 5.5 58.702 5.5 55.242C5.5 50.468 5.298 49.997 3.25 49.998C1.117 50 1 50.389 1 57.5ZM21.052 51.177C19.642 51.698 19 52.825 19 54.777C19 56.339 18.339 58.491 17.532 59.559C14.483 63.589 15.512 65 21.5 65C26.734 65 27 64.876 27 62.441C27 61.034 27.408 60.134 27.906 60.442C28.404 60.75 28.577 61.902 28.289 63.001C27.865 64.624 28.26 65 30.383 65C33.486 65 33.815 62.99 31 61.232C29.433 60.253 29 58.9 29 54.976C29 50.047 28.953 49.972 26.052 50.193C24.43 50.316 22.18 50.759 21.052 51.177ZM23.569 61.112C24.431 62.507 21.828 64.228 20.645 63.045C19.684 62.084 20.61 60 22 60C22.485 60 23.191 60.5 23.569 61.112ZM46.5 63C46.016 63.783 45.441 63.841 44.774 63.174C44.224 62.624 44.101 61.646 44.5 61C44.984 60.217 45.559 60.159 46.226 60.826C46.776 61.376 46.899 62.354 46.5 63ZM36.25 61.706C33.142 62.304 33.346 65 36.5 65C38.333 65 39 64.467 39 63C39 61.9 38.888 61.061 38.75 61.136C38.612 61.211 37.487 61.467 36.25 61.706Z" fill="white"/>
<path fill-rule="evenodd" clip-rule="evenodd" d="M1 9.009C1 15.088 1.318 17.062 2.25 16.755C2.978 16.515 3.626 14.188 3.802 11.179C4.15 5.234 6.033 3.552 11.614 4.203C13.776 4.456 15 4.171 15 3.416C15 1.96 13.028 1.44 6.25 1.108L1 0.851997V9.009ZM16 2.383C16 3.144 16.9 4.002 18 4.29C19.1 4.577 20 4.384 20 3.861C20 3.315 21.492 3.189 23.5 3.566C26.324 4.096 27 3.911 27 2.611C27 1.325 25.891 0.999997 21.5 0.999997C17.484 0.999997 16 1.373 16 2.383ZM28.393 2.582C28.727 3.452 29 4.31 29 4.488C29 4.667 29.9 4.577 31 4.29C33.954 3.517 33.489 0.999997 30.393 0.999997C28.427 0.999997 27.935 1.389 28.393 2.582ZM34 2.5C34 3.325 34.413 4 34.918 4C35.423 4 36.548 4.273 37.418 4.607C38.552 5.042 39 4.617 39 3.107C39 1.526 38.376 0.999997 36.5 0.999997C34.944 0.999997 34 1.567 34 2.5ZM40 2.883C40 3.926 40.893 5 42 5.29C43.3 5.63 44 5.32 44 4.406C44 3.633 44.727 3 45.617 3C46.72 3 47.073 3.611 46.73 4.926C46.36 6.341 46.978 7.163 49.063 8.026C54.749 10.381 63 20.703 63 25.46C63 26.307 63.45 27 64 27C64.55 27 65 26.1 65 25C65 23.9 64.438 22.993 63.75 22.985C62.849 22.974 62.818 22.765 63.641 22.235C64.357 21.773 64.833 17.684 64.921 11.25L65.061 0.999997H52.531C40.925 0.999997 40 1.139 40 2.883ZM13.22 10.179C13.459 10.905 15.13 11.645 16.934 11.821C19.303 12.053 20.094 11.775 19.78 10.821C19.541 10.095 17.87 9.355 16.066 9.179C13.697 8.947 12.906 9.225 13.22 10.179ZM34.008 12.974C32.078 14.194 33.542 15.721 37.817 16.948C40.878 17.825 41 17.748 41 14.93C41 12.397 40.628 12.002 38.25 12.015C36.737 12.024 34.829 12.455 34.008 12.974ZM47 15.382C47 16.757 47.45 18.16 48 18.5C48.565 18.849 49 18.03 49 16.618C49 15.243 48.55 13.84 48 13.5C47.435 13.151 47 13.97 47 15.382ZM1 19.393C1 20.159 1.675 21.045 2.5 21.362C3.52 21.753 4 21.308 4 19.969C4 18.885 3.325 18 2.5 18C1.675 18 1 18.627 1 19.393ZM13.021 23.462C11.365 26.555 12.079 27.448 15.518 26.585C17.495 26.089 18.053 25.393 17.815 23.725C17.37 20.608 14.629 20.457 13.021 23.462ZM23.667 21.667C23.3 22.033 22.993 23.721 22.985 25.417C22.967 28.939 22.192 30.391 19.874 31.244C18.753 31.656 18.399 32.634 18.734 34.391C19.388 37.808 20.777 38.79 25.508 39.175C29.055 39.464 29.548 39.829 30.01 42.5C30.467 45.137 30.89 45.464 33.515 45.202C38.591 44.696 41.898 42.9 43.991 39.514C48.039 32.966 45.548 25.38 38.364 22.379C34.978 20.964 24.86 20.474 23.667 21.667ZM2.25 23.662C0.492001 24.372 0.688001 27 2.5 27C3.333 27 4 26.111 4 25C4 23.9 3.888 23.036 3.75 23.079C3.612 23.122 2.938 23.385 2.25 23.662ZM1 30.934C1 32.275 1.842 32.995 3.75 33.284L6.5 33.7L3.75 33.85C-0.117 34.061 -0.117 37.698 3.75 38.284L6.5 38.7L3.677 38.85C0.0940006 39.04 0.337001 42.127 4.005 43.018L6.5 43.624L3.75 44.331C1.842 44.822 1 45.684 1 47.148C1 49.166 1.319 49.228 8.25 48.556C12.238 48.169 15.895 47.469 16.377 47C16.859 46.53 16.963 44.988 16.608 43.573C16.149 41.746 15.298 41 13.672 41C9.733 41 7.664 38.739 8.209 35.029C8.592 32.422 8.307 31.632 6.846 31.25C5.831 30.984 5 30.369 5 29.883C5 29.398 4.1 29 3 29C1.69 29 1 29.667 1 30.934ZM64.079 30.583C64.127 31.748 64.364 31.985 64.683 31.188C64.972 30.466 64.936 29.603 64.604 29.271C64.272 28.939 64.036 29.529 64.079 30.583ZM64.079 35.583C64.127 36.748 64.364 36.985 64.683 36.188C64.972 35.466 64.936 34.603 64.604 34.271C64.272 33.939 64.036 34.529 64.079 35.583ZM63.697 40.393C63.288 41.434 63.189 42.522 63.476 42.81C64.389 43.722 65.191 42.227 64.809 40.328C64.459 38.588 64.405 38.591 63.697 40.393ZM62 44.836C62 45.388 59.732 48.32 56.96 51.353C53.221 55.444 50.382 57.464 45.96 59.179C41.822 60.783 40 62.026 40 63.245C40 64.706 40.922 65 45.5 65C50.503 65 51.01 64.797 51.116 62.75C51.195 61.225 51.373 61.031 51.67 62.147C52.189 64.104 54.952 64.968 60.75 64.986L65 65V57.5C65 52.175 64.638 49.996 63.75 49.985C62.824 49.973 62.85 49.748 63.848 49.115C65.441 48.105 65.04 44.846 63.25 44.25C62.563 44.021 62 44.285 62 44.836ZM1 57.5V65L4.25 64.989C6.038 64.983 9.188 64.699 11.25 64.358C16.13 63.551 16.31 61.047 11.5 60.875C9.575 60.806 7.438 60.691 6.75 60.619C5.926 60.533 5.5 58.702 5.5 55.242C5.5 50.468 5.298 49.997 3.25 49.998C1.117 50 1 50.389 1 57.5ZM21.052 51.177C19.642 51.698 19 52.825 19 54.777C19 56.339 18.339 58.491 17.532 59.559C14.483 63.589 15.512 65 21.5 65C26.734 65 27 64.876 27 62.441C27 61.034 27.408 60.134 27.906 60.442C28.404 60.75 28.577 61.902 28.289 63.001C27.865 64.624 28.26 65 30.383 65C33.486 65 33.815 62.99 31 61.232C29.433 60.253 29 58.9 29 54.976C29 50.047 28.953 49.972 26.052 50.193C24.43 50.316 22.18 50.759 21.052 51.177ZM23.569 61.112C24.431 62.507 21.828 64.228 20.645 63.045C19.684 62.084 20.61 60 22 60C22.485 60 23.191 60.5 23.569 61.112ZM46.5 63C46.016 63.783 45.441 63.841 44.774 63.174C44.224 62.624 44.101 61.646 44.5 61C44.984 60.217 45.559 60.159 46.226 60.826C46.776 61.376 46.899 62.354 46.5 63ZM36.25 61.706C33.142 62.304 33.346 65 36.5 65C38.333 65 39 64.467 39 63C39 61.9 38.888 61.061 38.75 61.136C38.612 61.211 37.487 61.467 36.25 61.706Z" fill="black"/>
</svg>
