<svg width="66" height="66" viewBox="0 0 66 66" fill="none" xmlns="http://www.w3.org/2000/svg">
<g clip-path="url(#clip0_1_2)">
<path fill-rule="evenodd" clip-rule="evenodd" d="M1 33.5077V66H33H65V33.5077V1.01538H33H1V33.5077Z" fill="#FBD2D1"/>
<path fill-rule="evenodd" clip-rule="evenodd" d="M1 33.5077V66H33H65V33.5077V1.01538H33H1V33.5077ZM21.613 6.92289C21.335 7.37981 21.983 8.39418 23.054 9.17806C24.124 9.96092 25 11.2119 25 11.9582C25 12.7035 23.916 12.0343 22.592 10.4706C20.483 7.98092 20.063 6.0923 21.618 6.0923C21.893 6.0923 21.891 6.46597 21.613 6.92289ZM44.5 15.2308C44.84 15.7892 44.641 16.2462 44.059 16.2462C43.477 16.2462 43 15.7892 43 15.2308C43 14.6723 43.198 14.2154 43.441 14.2154C43.684 14.2154 44.16 14.6723 44.5 15.2308ZM34.25 48.3953C33.563 48.6775 32.438 48.6775 31.75 48.3953C31.063 48.114 31.625 47.8835 33 47.8835C34.375 47.8835 34.938 48.114 34.25 48.3953ZM14.264 51.4841C13.034 51.7247 10.784 51.7308 9.264 51.4983C7.744 51.2647 8.75 51.0678 11.5 51.0596C14.25 51.0525 15.494 51.2434 14.264 51.4841ZM16.707 58.1186C16.468 59.3817 16.263 58.5877 16.252 56.3538C16.241 54.12 16.437 53.0863 16.687 54.057C16.937 55.0278 16.946 56.8554 16.707 58.1186Z" fill="#E7B0B0"/>
<path fill-rule="evenodd" clip-rule="evenodd" d="M1 33.5077V66H33H65V33.5077V1.01538H33H1V33.5077ZM8.911 7.9535C9.645 9.34763 9.54 9.81572 8.49 9.81572C7.719 9.81572 7.351 9.38317 7.672 8.85618C7.993 8.32818 7.636 7.4976 6.878 7.01021C5.934 6.402 5.882 6.1187 6.715 6.10753C7.383 6.09941 8.371 6.93 8.911 7.9535ZM23 8.69067C23 9.49587 23.45 10.1538 24 10.1538C24.55 10.1538 24.971 11.1814 24.937 12.4385C24.876 14.6378 24.842 14.6459 24.048 12.6568C23.595 11.5206 22.503 9.98427 21.623 9.24203C20.742 8.49978 20.273 7.48033 20.58 6.97569C21.344 5.72067 23 6.89446 23 8.69067ZM38.985 8.37692C38.972 10.2239 38.784 10.3701 38 9.13846C36.747 7.16963 36.747 6.0923 38 6.0923C38.55 6.0923 38.993 7.11987 38.985 8.37692ZM33 11.1692C33 11.7277 32.802 12.1846 32.559 12.1846C32.316 12.1846 31.84 11.7277 31.5 11.1692C31.16 10.6108 31.359 10.1538 31.941 10.1538C32.523 10.1538 33 10.6108 33 11.1692ZM13 13.7788C13 14.058 12.1 13.7981 11 13.2C9.9 12.6019 9 11.8851 9 11.6058C9 11.3266 9.9 11.5866 11 12.1846C12.1 12.7827 13 13.4995 13 13.7788ZM54.563 14.4652C57.226 17.4534 57.249 17.5377 54.817 15.3678L52.134 12.9736L51.706 16.895C51.331 20.328 51.284 20.2163 51.326 15.9923C51.352 13.3391 51.43 11.1692 51.5 11.1692C51.569 11.1692 52.948 12.6527 54.563 14.4652ZM44.112 16.5376C43.296 17.3671 43 17.2534 43 16.1111C43 14.0925 44.345 12.7268 44.842 14.2408C45.053 14.8835 44.724 15.9172 44.112 16.5376ZM18.925 15.4846C18.581 18.1764 19.045 19.3837 20.155 18.6882C20.854 18.2485 21.038 18.4079 20.622 19.0913C19.491 20.9494 17.4 19.4131 17.4 16.7234C17.4 15.3435 17.78 14.2154 18.244 14.2154C18.708 14.2154 19.015 14.787 18.925 15.4846ZM31.944 18.6567C31.7 18.8973 30.648 17.8819 29.606 16.4005L27.712 13.7077L30.05 15.9639C31.337 17.2047 32.189 18.417 31.944 18.6567ZM37.5 19.2923C37.16 19.8508 36.459 20.3077 35.941 20.3077C35.423 20.3077 35 19.8508 35 19.2923C35 18.7338 35.702 18.2769 36.559 18.2769C37.416 18.2769 37.84 18.7338 37.5 19.2923ZM44.996 22.3446C45.534 21.4612 45.946 21.4277 46.434 22.2298C46.81 22.8482 46.586 23.3538 45.937 23.3538C45.094 23.3538 45.144 23.8636 46.11 25.1308C47.214 26.5777 47.05 26.5482 45.233 24.9734C44.005 23.9093 43.036 22.5385 43.079 21.9272C43.122 21.316 43.402 21.4378 43.7 22.1994C44.115 23.2584 44.419 23.2929 44.996 22.3446ZM8.667 25.8476C8.667 26.661 8.284 27.0864 7.817 26.793C7.35 26.4995 7.226 25.8344 7.543 25.3146C8.351 23.9864 8.667 24.1357 8.667 25.8476ZM19.683 26.5909C19.364 27.4002 19.127 27.1595 19.079 25.9766C19.036 24.9064 19.272 24.3073 19.604 24.6444C19.936 24.9815 19.972 25.8578 19.683 26.5909ZM20.5 29.4462C20.892 30.0909 18.264 30.4554 13.309 30.4463C7.898 30.4351 5.961 30.1285 7 29.4462C8.98 28.1465 19.709 28.1465 20.5 29.4462ZM62.693 35.2653C62.439 36.2533 62.215 35.6908 62.195 34.0154C62.175 32.34 62.382 31.5318 62.656 32.2192C62.93 32.9066 62.947 34.2774 62.693 35.2653ZM24.02 40.8763L28.5 41.2764L23.872 41.4531C20.505 41.582 18.871 41.1464 17.872 39.8538C16.674 38.3013 16.692 38.2282 18.02 39.2761C18.855 39.9361 21.555 40.656 24.02 40.8763ZM46 41.9811C46 42.174 44.987 43.2016 43.75 44.2657L41.5 46.2L43.405 43.9154C45.195 41.7689 46 41.1688 46 41.9811ZM34.25 48.3953C33.563 48.6775 32.438 48.6775 31.75 48.3953C31.063 48.114 31.625 47.8835 33 47.8835C34.375 47.8835 34.938 48.114 34.25 48.3953ZM26.25 49.4553C25.012 49.697 22.988 49.697 21.75 49.4553C20.512 49.2126 21.525 49.0146 24 49.0146C26.475 49.0146 27.488 49.2126 26.25 49.4553ZM57 50.0849C57 50.2666 55.763 51.5226 54.25 52.8772L51.5 55.3385L53.924 52.5462C56.19 49.9366 57 49.2878 57 50.0849ZM14.264 51.4841C13.034 51.7247 10.784 51.7308 9.264 51.4983C7.744 51.2647 8.75 51.0678 11.5 51.0596C14.25 51.0525 15.494 51.2434 14.264 51.4841ZM16.707 58.1186C16.468 59.3817 16.263 58.5877 16.252 56.3538C16.241 54.12 16.437 53.0863 16.687 54.057C16.937 55.0278 16.946 56.8554 16.707 58.1186Z" fill="#B85853"/>
<path fill-rule="evenodd" clip-rule="evenodd" d="M1 33.5077V66H33H65V33.5077V1.01538H33H1V33.5077ZM39.266 7.86923C39.002 8.56781 39.483 9.13846 40.334 9.13846C41.185 9.13846 42.12 9.52938 42.411 10.0076C42.702 10.4849 41.821 10.6585 40.455 10.3935C39.088 10.1285 37.726 9.50907 37.426 9.01763C36.694 7.8144 23 7.86821 23 9.07449C23 9.59741 24.428 10.1681 26.173 10.3437C27.918 10.5184 29.459 11.2444 29.598 11.9562C29.737 12.6679 29.621 12.7827 29.342 12.21C28.499 10.4849 25 11.0098 25 12.8619C25 13.792 24.738 14.2875 24.417 13.9615C24.096 13.6356 23.839 12.9888 23.845 12.5227C23.852 12.0577 23.145 10.8778 22.274 9.9C20.109 7.4712 8.018 7.2204 10 9.64615C10.685 10.4838 10.879 11.1692 10.431 11.1692C9.984 11.1692 10.447 11.7846 11.46 12.537C12.973 13.661 13.052 14.0529 11.901 14.7312C11.131 15.1851 10.831 15.1851 11.234 14.7322C11.638 14.2794 11.188 13.3249 10.234 12.6121C8.656 11.4332 8.444 11.8353 7.882 17.0818C7.336 22.1821 7.287 21.9435 7.458 15.0023C7.564 10.6879 7.282 7.03255 6.83 6.87923C6.379 6.7259 13.6 6.6 22.878 6.6C35.962 6.6 39.638 6.8843 39.266 7.86923ZM46.5 9.13846C46.16 9.69692 45.432 10.1538 44.882 10.1538C44.332 10.1538 44.16 9.69692 44.5 9.13846C44.84 8.58 45.568 8.12307 46.118 8.12307C46.668 8.12307 46.84 8.58 46.5 9.13846ZM36.5 10.1538C36.84 10.7123 36.668 11.1692 36.118 11.1692C35.568 11.1692 34.84 10.7123 34.5 10.1538C34.16 9.59538 34.332 9.13846 34.882 9.13846C35.432 9.13846 36.16 9.59538 36.5 10.1538ZM33.5 11.1692C33.84 11.7277 33.668 12.1846 33.118 12.1846C32.568 12.1846 31.84 11.7277 31.5 11.1692C31.16 10.6108 31.332 10.1538 31.882 10.1538C32.432 10.1538 33.16 10.6108 33.5 11.1692ZM58.186 18.7846C58.748 19.9015 57.698 18.9989 55.854 16.7792L52.5 12.7431L51.892 16.7792L51.284 20.8154L51.142 17.0676C51.064 15.0064 50.543 13.0325 49.984 12.6822C49.425 12.3308 49.25 11.5794 49.596 11.0108C50.293 9.86649 56.547 15.5273 58.186 18.7846ZM44.101 17.3245C43.177 19.6731 43.124 19.6873 43.063 17.5986C43.029 16.3873 43.324 14.5596 43.72 13.5371C44.313 12.0069 44.497 11.9582 44.758 13.263C44.932 14.1362 44.636 15.9639 44.101 17.3245ZM22.5 14.2154C22.84 14.7738 22.668 15.2308 22.118 15.2308C21.568 15.2308 20.84 14.7738 20.5 14.2154C20.16 13.6569 20.332 13.2 20.882 13.2C21.432 13.2 22.16 13.6569 22.5 14.2154ZM19.5 15.2308C19.84 15.7892 19.555 16.2462 18.868 16.2462C18.18 16.2462 18.491 16.9173 19.559 17.7367C21.473 19.207 31 19.935 31 18.611C31 18.2363 30.213 16.9874 29.25 15.8359C27.936 14.2641 27.896 14.0519 29.092 14.9861C29.968 15.6694 30.916 15.9933 31.2 15.705C31.483 15.4176 32.342 15.9659 33.107 16.9244C34.029 18.0769 34.077 18.4089 33.25 17.9043C32.542 17.4727 32 17.6433 32 18.2972C32 19.0679 33.085 19.2212 35.25 18.7582C37.739 18.2262 38.235 18.345 37.37 19.2669C36.624 20.061 33.456 20.3564 28.04 20.1351L19.839 19.8L20.17 25.1318L20.5 30.4646L13 30.4473C7.788 30.4351 5.958 30.1305 7 29.4462C7.825 28.905 10.862 28.4551 13.75 28.446L19 28.4308V23.8615C19 21.3485 18.64 19.2923 18.2 19.2923C17.76 19.2923 17.4 18.15 17.4 16.7538C17.4 14.1504 18.401 13.4254 19.5 15.2308ZM11.371 21.9313C10.634 22.5446 10.362 23.4178 10.766 23.8707C11.169 24.3235 10.869 24.3235 10.099 23.8697C8.898 23.1619 8.899 22.8847 10.106 21.9293C10.881 21.317 11.421 19.6731 11.306 18.2769L11.097 15.7385L11.904 18.2769C12.455 20.0102 12.286 21.1687 11.371 21.9313ZM48.323 21.2632C50.427 20.2315 50.435 20.2488 48.559 21.7749C47.491 22.6431 46.243 23.3538 45.786 23.3538C45.328 23.3538 45.682 24.4819 46.571 25.8598C47.46 27.2377 47.956 28.9517 47.673 29.6675C47.316 30.5692 47.134 30.4829 47.079 29.3893C46.965 27.1026 42.454 21.2144 41.493 22.0978C41.045 22.5101 41.045 22.2054 41.492 21.4236C42.16 20.2549 42.546 20.3351 43.653 21.8714C44.92 23.631 45.007 23.5955 45.116 21.2632C45.196 19.5482 45.373 19.3309 45.689 20.5575C46.061 22.0034 46.548 22.1334 48.323 21.2632ZM61.914 27.4154C61.878 28.4196 61.567 28.247 61 26.9077C59.819 24.1164 59.819 22.5131 61 24.3692C61.533 25.2069 61.945 26.5777 61.914 27.4154ZM9.447 26.4863C9.125 27.0153 8.436 27.1808 7.915 26.8539C7.394 26.5269 7.231 25.8273 7.553 25.2983C7.875 24.7693 8.564 24.6038 9.085 24.9307C9.606 25.2577 9.769 25.9573 9.447 26.4863ZM62.718 36.2858C62.488 37.8292 62.294 36.8077 62.286 34.0154C62.279 31.2231 62.467 29.9599 62.704 31.2089C62.941 32.4578 62.947 34.7424 62.718 36.2858ZM23.95 40.7748L28.5 40.9342L23.5 41.5577C18.485 42.1821 15.499 41.2439 16.624 39.3969C17.004 38.7714 17.626 38.8141 18.313 39.5117C18.911 40.1189 21.447 40.6875 23.95 40.7748ZM60.995 43.3691C59.906 45.0953 59.877 45.0922 60.424 43.3244C60.741 42.3019 61.036 40.9312 61.079 40.2783C61.136 39.4223 61.295 39.4345 61.65 40.323C61.92 41.0002 61.626 42.371 60.995 43.3691ZM46 41.9811C46 42.174 44.987 43.2016 43.75 44.2657L41.5 46.2L43.405 43.9154C45.195 41.7689 46 41.1688 46 41.9811ZM34.25 48.3953C33.563 48.6775 32.438 48.6775 31.75 48.3953C31.063 48.114 31.625 47.8835 33 47.8835C34.375 47.8835 34.938 48.114 34.25 48.3953ZM26.25 49.4553C25.012 49.697 22.988 49.697 21.75 49.4553C20.512 49.2126 21.525 49.0146 24 49.0146C26.475 49.0146 27.488 49.2126 26.25 49.4553ZM58 49.0471C58 49.2167 56.313 50.9297 54.25 52.8548L50.5 56.3538L53.946 52.5462C57.154 49.0025 58 48.2714 58 49.0471ZM11.75 51.5155L7 51.8963L6.84 56.1558C6.694 60.0478 6.645 60.123 6.27 57.0189C5.613 51.5826 6.363 50.7469 11.719 50.952L16.5 51.1348L11.75 51.5155ZM16.299 60.0102C15.833 60.4834 15.677 58.94 15.951 56.5813C16.438 52.3979 16.459 52.3766 16.798 55.7213C16.989 57.6078 16.765 59.5371 16.299 60.0102ZM50 56.3274C50 57.0758 44.255 59.9107 42.8 59.8813C42.085 59.8661 43.3 58.9898 45.5 57.9328C50.296 55.6278 50 55.7334 50 56.3274ZM40.729 60.521C40.397 60.8581 39.534 60.8946 38.813 60.6012C38.015 60.2773 38.252 60.0366 39.417 59.9879C40.471 59.9442 41.061 60.1839 40.729 60.521ZM34.25 61.5953C33.563 61.8775 32.438 61.8775 31.75 61.5953C31.063 61.314 31.625 61.0835 33 61.0835C34.375 61.0835 34.938 61.314 34.25 61.5953Z" fill="#B63A33"/>
<path fill-rule="evenodd" clip-rule="evenodd" d="M1 33.5077V66H33H65V33.5077V1.01538H33H1V33.5077ZM33.156 6.80815C40.886 6.34412 43.938 6.52181 45.234 7.50978C46.188 8.2368 46.638 9.20141 46.234 9.65427C45.831 10.1071 46.311 10.1813 47.302 9.81978C48.441 9.40347 48.864 9.5568 48.451 10.2351C48.092 10.825 47.209 11.0778 46.489 10.7976C45.543 10.429 44.988 11.9724 44.485 16.3751C44.103 19.7238 44.062 22.7395 44.395 23.0777C44.728 23.4158 45.045 22.3598 45.1 20.7311C45.189 18.0789 45.267 18.0099 45.85 20.0762C46.463 22.2522 46.628 22.2918 48.75 20.7798C51.165 19.0598 51.814 14.4327 49.913 12.5024C49.208 11.7866 49.175 11.1794 49.819 10.7753C51.437 9.75987 59.685 19.9279 61.408 25.0638C63.374 30.9215 63.387 38.1033 61.44 42.1385C60.631 43.8138 60.26 44.2708 60.615 43.1538C63.446 34.251 61.342 23.3366 55.501 16.6218L52.083 12.6923L52.042 16.3406C52.006 19.4334 51.479 20.2732 48.574 21.8612C45.406 23.5935 45.256 23.889 46.574 25.8009C47.359 26.9371 47.954 29.0217 47.898 30.4341C47.814 32.5329 47.646 32.3573 46.977 29.4654C46.526 27.521 44.986 24.9815 43.554 23.8219C42.121 22.6624 41.298 21.3606 41.725 20.9291C42.701 19.9422 44.834 8.29264 44.163 7.61234C43.303 6.73809 39 7.06504 39 8.00427C39 8.49775 39.9 9.14049 41 9.43292C42.154 9.73957 42.951 10.755 42.884 11.8353C42.8 13.1888 42.654 13.2812 42.356 12.1694C42.129 11.3226 40.163 10.0665 37.988 9.37707C33.496 7.9535 24.379 7.69458 23.603 8.96889C23.32 9.43495 23.631 9.85126 24.294 9.89492C24.957 9.93858 26.625 10.0797 28 10.2077C29.375 10.3356 31.688 10.1102 33.141 9.70707C34.818 9.24101 36.05 9.41363 36.516 10.1802C37.042 11.0443 36.612 11.1804 35 10.6615C33.365 10.1346 32.955 10.2737 33.5 11.1692C34.034 12.0475 33.662 12.213 32.208 11.7439C29.621 10.9103 29.79 13.1766 32.552 16.3721C33.623 17.6118 33.938 18.2922 33.25 17.884C32.563 17.4758 32 17.6464 32 18.2627C32 18.9907 33.317 19.1694 35.75 18.7724C38.787 18.2769 39.159 18.3785 37.705 19.3096C36.627 20 32.702 20.328 27.875 20.13L19.839 19.8L20.17 25.1704L20.5 30.5407L13 30.2473L5.5 29.9538L5.22 18.1896L4.939 6.42434L12.97 6.89649C19.347 7.27117 21.003 7.08027 21.015 5.96843C21.028 4.80073 21.178 4.80581 21.922 5.99889C22.637 7.14526 24.858 7.30569 33.156 6.80815ZM6 18.2769C6 24.42 6.338 29.4462 6.75 29.4472C7.162 29.4472 7.5 24.421 7.5 18.279C7.5 12.1359 7.162 7.10972 6.75 7.1087C6.338 7.10769 6 12.1338 6 18.2769ZM15 8.04489L8.5 8.63077L8.389 17.2615C8.328 22.0085 8.489 26.464 8.746 27.1615C9.031 27.9342 11.09 28.4308 14.01 28.4308H18.807L19.153 23.559L19.5 18.6871L16.094 19.8782C14.21 20.5362 12.072 22.2603 11.312 23.7346C9.556 27.1362 9.151 27.1037 9.767 23.6077C10.458 19.6944 10.426 14.1656 9.697 11.1692C9.08 8.63178 9.08 8.63077 10.822 10.755C12.978 13.3828 17.391 14.325 21.211 12.9736C23.865 12.0333 23.974 11.8079 22.548 10.2077C21.694 9.25015 21.297 8.16064 21.664 7.78698C22.032 7.41332 22.146 7.18689 21.917 7.28335C21.688 7.37981 18.575 7.722 15 8.04489ZM25 12.6923C25 13.5381 25.889 14.2154 27 14.2154C28.111 14.2154 29 13.5381 29 12.6923C29 11.8465 28.111 11.1692 27 11.1692C25.889 11.1692 25 11.8465 25 12.6923ZM11.5 17.292C11.5 20.2833 11.797 20.8662 13 20.2315C13.825 19.797 15.252 19.207 16.171 18.9217C18.859 18.086 17.656 14.8388 14.408 14.1646C11.617 13.5848 11.5 13.7107 11.5 17.292ZM22.566 14.324C23.032 15.0896 22.533 15.2176 21 14.7231C19.467 14.2286 18.968 14.3565 19.434 15.1221C19.81 15.7405 19.555 16.2462 18.868 16.2462C18.18 16.2462 18.491 16.9173 19.559 17.7367C22.17 19.7421 30.598 19.7888 31.349 17.8017C32.047 15.9547 30.201 14.6936 27.346 15.0683C26.161 15.2237 24.896 14.8673 24.536 14.2753C24.177 13.6843 23.432 13.2 22.882 13.2C22.332 13.2 22.19 13.7057 22.566 14.324ZM40.5 20.3077C40.16 20.8662 39.346 21.316 38.691 21.3078C37.975 21.2977 38.099 20.8986 39 20.3077C40.921 19.0466 41.267 19.0466 40.5 20.3077ZM13.75 33.2315C10.48 33.5798 9.985 33.9798 9.884 36.3609C9.806 38.1876 9.613 38.4841 9.299 37.2565C8.428 33.8407 9.734 32.4832 13.719 32.6629L17.5 32.8335L13.75 33.2315ZM23.505 40.6154L28.5 41.1231V45.1846C28.5 49.1913 28.446 49.2502 24.5 49.5751C19.145 50.0148 17 52.1593 17 57.0717V61.0297L11.75 60.722L6.5 60.4154L6.195 55.5923L5.89 50.7692L10.695 50.754C17.132 50.7327 18.206 49.8777 17.819 45.081C17.516 41.316 17.305 41.0926 13.5 40.5057L9.5 39.8884L13.25 39.7442C16.608 39.6152 17.012 39.3086 17.118 36.8077L17.237 34.0154L17.873 37.0615C18.458 39.8589 18.918 40.1493 23.505 40.6154ZM46.512 40.592C44.856 43.8443 39.654 47.7302 37 47.6967C36.175 47.6865 37.383 46.8102 39.684 45.7502C43.783 43.8595 46.868 39.7472 47.116 35.8431C47.218 34.2357 47.286 34.2215 47.676 35.7243C47.921 36.6635 47.397 38.8547 46.512 40.592ZM18 40.8185C18.55 41.4886 19 43.757 19 45.8598C19 50.3854 17.127 51.7846 11.066 51.7846H7V55.8462V59.9077H11.5C15.931 59.9077 16 59.8559 16 56.5305C16 51.9654 19.443 48.7385 24.314 48.7385C27.86 48.7385 28 48.6034 28 45.1846C28 41.6744 27.948 41.6308 23.7 41.6308C21.335 41.6308 18.86 41.1738 18.2 40.6154C17.327 39.8772 17.273 39.932 18 40.8185ZM60 46.2223C60 46.5148 58.087 48.8684 55.75 51.4536C51.476 56.1812 43.218 60.9535 39.5 60.8449C38.4 60.8134 39.3 60.2093 41.5 59.5026C48.127 57.3743 51.633 55.0998 55.664 50.3143C59.554 45.6954 60 45.274 60 46.2223ZM33.25 48.4399C31.222 48.8359 31 49.4665 31 54.8369C31 60.5586 31.109 60.8104 33.75 61.2074C36.345 61.5963 36.33 61.6146 33.5 61.5252C30.503 61.4308 30.5 61.4247 30.204 54.5769L29.909 47.7231L32.704 47.8612C35.063 47.9779 35.148 48.0683 33.25 48.4399Z" fill="#780000"/>
<path fill-rule="evenodd" clip-rule="evenodd" d="M1 10.9662C1 16.7782 1.452 21.3759 2.087 22.0206C2.87 22.8157 2.87 23.3153 2.087 23.8067C0.520001 24.7906 0.660001 41.8745 2.25 43.5854C3.25 44.6617 3.25 45.0242 2.25 45.3958C1.365 45.7258 1 48.8004 1 55.9304V66H33.003H65.005L64.943 50.2615C64.906 40.9748 64.488 34.5231 63.924 34.5231C63.398 34.5231 63.063 35.7832 63.178 37.3235C63.469 41.2002 58.37 50.289 53.556 54.4734C51.352 56.3884 47.4 58.7309 44.774 59.6782C42.149 60.6246 40 61.6856 40 62.0359C40 62.3862 38.827 62.4441 37.394 62.1659C35.794 61.8562 34.448 62.2045 33.909 63.0686C33.277 64.0819 33.026 64.1205 33.015 63.2077C33.007 62.5101 32.325 61.9385 31.5 61.9385C30.325 61.9385 30 60.5484 30 55.5222V49.106L24.25 50.2666L18.5 51.4272L18 55.9213L17.5 60.4154H12H6.5V55.3385V50.2615L12 49.7538C17.144 49.2786 17.521 49.0614 17.822 46.3929C18.24 42.6898 16.619 40.8083 12.676 40.4204C9.772 40.1341 9.5 39.8041 9.5 36.5538C9.5 33.0843 9.595 33 13.5 33C17.138 33 17.529 33.2569 17.821 35.8451C18.174 38.9694 21.019 40.6154 26.065 40.6154C28.737 40.6154 29 40.9251 29 44.0728V47.5302L33.25 46.9788C42.725 45.7502 47.407 40.5372 46.682 32.0222C46.325 27.8358 45.695 26.5107 42.957 24.1895C39.402 21.1758 34.181 19.9645 27 20.4874C22.529 20.8134 22.498 20.8418 22.199 24.8769C21.811 30.1122 19.912 31.481 13.059 31.4617C4.647 31.4383 4.616 31.3876 4.874 18.1845C4.997 11.8973 5.327 6.37661 5.608 5.91563C5.888 5.45363 9.151 5.07692 12.859 5.07692C16.894 5.07692 20.098 4.57126 20.842 3.81581C21.779 2.8644 22.26 2.84612 22.805 3.74169C23.221 4.42504 25.853 4.90532 29.014 4.87486C41.246 4.75707 50.07 8.0195 55.972 14.8449C59.88 19.3654 62.948 25.8426 62.978 29.6401C62.99 31.1429 63.425 32.6395 63.945 32.9655C64.522 33.327 64.911 27.2255 64.944 17.2869L64.998 1.01538H32.999H1V10.9662ZM46.447 5.16323C46.125 5.69224 45.436 5.85775 44.915 5.5308C44.394 5.20384 44.231 4.50424 44.553 3.97523C44.875 3.44621 45.564 3.2807 46.085 3.60766C46.606 3.93461 46.769 4.63421 46.447 5.16323ZM7.25 6.7848C6.356 7.13714 6 10.4331 6 18.3612C6 28.6308 6.994 32.4466 8.324 27.2824C8.839 25.2821 9.004 25.2435 10.512 26.7747C13.769 30.0828 19.46 27.7139 18.845 23.3071C18.335 19.6538 15.075 19.4964 12.182 22.9853C10.374 25.1663 9.929 25.3846 10.399 23.8615C10.913 22.1994 10.665 22.2907 9.035 24.3692L7.044 26.9077L7.022 17.8657C7 8.88766 7.014 8.83689 9 10.6615C10.1 11.6718 11 12.1085 11 11.6312C11 11.154 11.54 11.3114 12.2 11.9815C13.674 13.4782 20.64 13.597 21.527 12.1399C22.784 10.0746 19.796 8.12307 15.378 8.12307C12.006 8.12307 11 8.50181 11 9.77003C11 11.1195 10.729 11.1895 9.5 10.1538C8.675 9.4583 8 8.50486 8 8.03474C8 7.56461 14.362 7.17674 22.138 7.17267C29.913 7.16963 36.502 6.93609 36.779 6.65483C37.423 6.00092 8.921 6.12683 7.25 6.7848ZM39 8.00427C39 8.49775 39.9 9.14049 41 9.43292C42.23 9.75886 43.046 10.8798 43.118 12.343C43.218 14.3454 43.348 14.2398 43.94 11.6769C44.327 10.0015 44.472 8.28757 44.263 7.86923C43.726 6.79495 39 6.9168 39 8.00427ZM26.5 9.13846C26.84 9.69692 27.965 10.1538 29 10.1538C30.035 10.1538 31.16 9.69692 31.5 9.13846C31.862 8.54446 30.824 8.12307 29 8.12307C27.176 8.12307 26.138 8.54446 26.5 9.13846ZM48.75 11.1581C51.359 12.7735 52 13.8306 52 16.5203C52 19.141 51.368 20.2488 49.096 21.6114C45.163 23.9712 45.023 23.9032 44.84 19.5462C44.682 15.7821 44.675 15.776 44.276 19.0496C43.998 21.3261 44.516 23.1924 45.936 25.0252C47.412 26.93 47.999 29.169 47.996 32.8832C47.99 41.5536 43.673 46.5503 34.715 48.2572L31 48.9649V55.0856V61.2064L35.938 60.6124C43.593 59.6914 50.542 56.1538 55.341 50.7347C64.913 39.9249 64.205 25.7207 53.537 14.5383C50.704 11.5683 47.737 9.14049 46.943 9.14252C46.15 9.14455 46.962 10.0513 48.75 11.1581ZM37.024 11.355C35.661 11.8688 33.411 12.0232 32.024 11.6982C30.607 11.3672 30.025 11.4667 30.697 11.9267C31.495 12.472 31.578 13.2457 30.947 14.2418C30.17 15.4694 29.889 15.3272 29.383 13.4538C28.693 10.8941 25 10.2534 25 12.6923C25 13.53 25.867 14.2154 26.927 14.2154C27.988 14.2154 29.74 15.3577 30.821 16.7538C31.903 18.15 33.335 19.2923 34.005 19.2923C34.674 19.2923 34.159 18.3957 32.861 17.2991C30.527 15.3282 30.56 15.3282 35.813 17.3194C38.735 18.4262 41.461 19.1227 41.87 18.8669C42.996 18.1591 41.96 11.3703 40.649 10.8636C40.017 10.6199 38.386 10.8413 37.024 11.355ZM45.698 11.9308C45.468 12.3491 45.493 14.4286 45.755 16.5518C46.11 19.4314 46.646 20.3321 47.865 20.0975C49.876 19.7106 50.609 14.6611 48.95 12.6314C47.639 11.0271 46.349 10.7489 45.698 11.9308ZM11.5 17.292C11.5 20.2833 11.797 20.8662 13 20.2315C13.825 19.797 15.252 19.207 16.171 18.9217C18.859 18.086 17.656 14.8388 14.408 14.1646C11.617 13.5848 11.5 13.7107 11.5 17.292ZM8 17.2016C8 18.8445 8.437 20.462 8.971 20.7971C10.132 21.5262 11.468 16.8219 10.535 15.2886C9.294 13.2498 8 14.2255 8 17.2016ZM21.5 16.2462C21.131 16.8513 22.343 17.2615 24.5 17.2615C26.657 17.2615 27.869 16.8513 27.5 16.2462C27.16 15.6877 25.81 15.2308 24.5 15.2308C23.19 15.2308 21.84 15.6877 21.5 16.2462ZM19.989 24.2707L20.478 29.9538L20.789 24.6749L21.101 19.3949L25.801 19.011C30.337 18.6394 30.309 18.6252 25 18.6069L19.5 18.5876L19.989 24.2707ZM38 20.0173C38.825 20.328 40.4 21.0022 41.5 21.516C43.468 22.4359 43.469 22.4248 41.559 20.8712C40.491 20.0031 38.916 19.3289 38.059 19.3725C36.712 19.4416 36.704 19.5299 38 20.0173ZM10 36.5538C10 39.3228 10.3 39.6 13.3 39.6C17.582 39.6 19 41.1576 19 45.8598C19 50.3854 17.127 51.7846 11.066 51.7846H7V55.8462V59.9077H11.5C15.931 59.9077 16 59.8559 16 56.5305C16 51.9654 19.443 48.7385 24.314 48.7385C27.86 48.7385 28 48.6034 28 45.1846C28 41.6744 27.948 41.6308 23.7 41.6308C18.692 41.6308 17 40.2976 17 36.3508C17 33.7788 16.667 33.5077 13.5 33.5077C10.278 33.5077 10 33.7494 10 36.5538ZM23 62.9538C23 63.5123 22.577 63.9692 22.059 63.9692C21.541 63.9692 20.84 63.5123 20.5 62.9538C20.16 62.3954 20.584 61.9385 21.441 61.9385C22.298 61.9385 23 62.3954 23 62.9538ZM47 62.9538C47 63.5123 46.325 63.9692 45.5 63.9692C44.675 63.9692 44 63.5123 44 62.9538C44 62.3954 44.675 61.9385 45.5 61.9385C46.325 61.9385 47 62.3954 47 62.9538Z" fill="#3C0000"/>
<path fill-rule="evenodd" clip-rule="evenodd" d="M0.999997 9.14761C0.999997 15.3201 1.318 17.3245 2.25 17.0128C2.978 16.7691 3.626 14.4063 3.802 11.351C4.15 5.31453 6.033 3.60665 11.614 4.26767C13.776 4.52456 15 4.23518 15 3.46856C15 1.99016 13.028 1.46216 6.25 1.12505L0.999997 0.865112V9.14761ZM16 2.41967C16 3.19238 16.9 4.06358 18 4.35601C19.1 4.64742 20 4.45145 20 3.92041C20 3.36601 21.492 3.23807 23.5 3.62087C26.324 4.15902 27 3.97118 27 2.65118C27 1.34539 25.891 1.01539 21.5 1.01539C17.484 1.01539 16 1.39413 16 2.41967ZM28.393 2.62173C28.727 3.50512 29 4.37632 29 4.55705C29 4.73881 29.9 4.64742 31 4.35601C33.954 3.57112 33.489 1.01539 30.393 1.01539C28.427 1.01539 27.935 1.41038 28.393 2.62173ZM34 2.53847C34 3.37616 34.413 4.06155 34.918 4.06155C35.423 4.06155 36.548 4.33875 37.418 4.67788C38.552 5.11958 39 4.68804 39 3.15481C39 1.54948 38.376 1.01539 36.5 1.01539C34.944 1.01539 34 1.59112 34 2.53847ZM40 2.92736C40 3.98641 40.893 5.07693 42 5.37139C43.3 5.71662 44 5.40185 44 4.47379C44 3.6889 44.727 3.04616 45.617 3.04616C46.72 3.04616 47.073 3.66656 46.73 5.00179C46.36 6.43856 46.978 7.27321 49.063 8.14949C54.749 10.5407 63 21.0215 63 25.8517C63 26.7117 63.45 27.4154 64 27.4154C64.55 27.4154 65 26.5015 65 25.3846C65 24.2677 64.438 23.3467 63.75 23.3386C62.849 23.3275 62.818 23.1152 63.641 22.5771C64.357 22.108 64.833 17.9561 64.921 11.4231L65.061 1.01539H52.531C40.925 1.01539 40 1.15653 40 2.92736ZM7.25 6.78481C5.868 7.32905 5.379 29.4665 6.75 29.4208C7.162 29.4076 8.303 27.6936 9.284 25.6131L11.068 21.8308L9.056 24.3692L7.044 26.9077L7.022 17.8657L7 8.8237L9.25 10.758C11.498 12.6903 11.498 12.6903 9.75 10.5813C8.787 9.42075 8 8.17995 8 7.82558C8 7.47019 14.362 7.17675 22.138 7.17269C29.913 7.16964 36.502 6.9361 36.779 6.65484C37.423 6.00093 8.921 6.12684 7.25 6.78481ZM39 8.00428C39 8.49776 39.9 9.1405 41 9.43293C42.23 9.75887 43.046 10.8799 43.118 12.343C43.218 14.3454 43.348 14.2398 43.94 11.6769C44.327 10.0015 44.472 8.28758 44.263 7.86924C43.726 6.79496 39 6.91681 39 8.00428ZM13.22 10.3356C13.459 11.0728 15.13 11.8242 16.934 12.0029C19.303 12.2384 20.094 11.9562 19.78 10.9875C19.541 10.2503 17.87 9.49893 16.066 9.32022C13.697 9.08465 12.906 9.36693 13.22 10.3356ZM48.75 11.1581C51.359 12.7735 52 13.8306 52 16.5203C52 19.141 51.368 20.2488 49.096 21.6115C45.163 23.9712 45.023 23.9032 44.84 19.5462C44.682 15.7821 44.675 15.776 44.276 19.0496C43.998 21.3261 44.516 23.1924 45.936 25.0252C47.412 26.93 47.999 29.169 47.996 32.8832C47.99 41.5536 43.673 46.5503 34.715 48.2572L31 48.9649V55.0856V61.2064L35.938 60.6124C43.593 59.6914 50.542 56.1538 55.341 50.7347C64.913 39.9249 64.205 25.7207 53.537 14.5383C50.704 11.5683 47.737 9.1405 46.943 9.14253C46.15 9.14456 46.962 10.0513 48.75 11.1581ZM25 12.6923C25 13.53 25.867 14.2154 26.927 14.2154C27.988 14.2154 29.74 15.3577 30.821 16.7539C31.903 18.15 33.32 19.2923 33.971 19.2923C34.621 19.2923 33.769 18.1094 32.077 16.6635C30.385 15.2176 29 13.3899 29 12.6019C29 11.814 28.1 11.1692 27 11.1692C25.889 11.1692 25 11.8465 25 12.6923ZM34.008 13.1736C32.078 14.4124 33.542 15.9629 37.817 17.2087C40.878 18.0992 41 18.0211 41 15.1597C41 12.5877 40.628 12.1867 38.25 12.1999C36.737 12.209 34.829 12.6466 34.008 13.1736ZM11.5 17.292C11.5 20.2833 11.797 20.8662 13 20.2315C13.825 19.797 15.252 19.207 16.171 18.9217C18.859 18.086 17.656 14.8388 14.408 14.1646C11.617 13.5848 11.5 13.7107 11.5 17.292ZM47 15.6187C47 17.0148 47.45 18.4394 48 18.7846C48.565 19.139 49 18.3074 49 16.8737C49 15.4775 48.55 14.0529 48 13.7077C47.435 13.3533 47 14.1849 47 15.6187ZM0.999997 19.6914C0.999997 20.4691 1.675 21.3688 2.5 21.6907C3.52 22.0877 4 21.6358 4 20.2762C4 19.1755 3.325 18.2769 2.5 18.2769C1.675 18.2769 0.999997 18.9136 0.999997 19.6914ZM19.989 24.2707L20.478 29.9539L20.789 24.6749L21.101 19.3949L25.801 19.0111C30.337 18.6394 30.309 18.6252 25 18.6069L19.5 18.5876L19.989 24.2707ZM38 20.0173C38.825 20.328 40.4 21.0022 41.5 21.516C43.468 22.4359 43.469 22.4248 41.559 20.8712C40.491 20.0031 38.916 19.3289 38.059 19.3725C36.712 19.4416 36.704 19.5299 38 20.0173ZM13.021 23.823C11.365 26.9635 12.079 27.8703 15.518 26.994C17.495 26.4904 18.053 25.7837 17.815 24.09C17.37 20.9251 14.629 20.7717 13.021 23.823ZM23.667 22.0003C23.3 22.372 22.993 24.0859 22.985 25.808C22.967 29.3842 22.192 30.8586 19.874 31.7247C18.753 32.143 18.399 33.1361 18.734 34.9201C19.388 38.3897 20.777 39.3868 25.508 39.7777C29.055 40.0711 29.548 40.4418 30.01 43.1539C30.467 45.8314 30.89 46.1635 33.515 45.8974C38.591 45.3836 41.898 43.56 43.991 40.1219C48.039 33.4732 45.548 25.7705 38.364 22.7233C34.978 21.2865 24.86 20.789 23.667 22.0003ZM2.25 24.026C0.491998 24.747 0.687998 27.4154 2.5 27.4154C3.333 27.4154 4 26.5127 4 25.3846C4 24.2677 3.888 23.3904 3.75 23.4341C3.612 23.4777 2.938 23.7448 2.25 24.026ZM0.999997 31.4099C0.999997 32.7715 1.842 33.5026 3.75 33.7961L6.5 34.2185L3.75 34.3708C-0.117003 34.585 -0.117003 38.278 3.75 38.873L6.5 39.2954L3.677 39.4477C0.0939972 39.6406 0.336998 42.7751 4.005 43.6798L6.5 44.2951L3.75 45.013C1.842 45.5116 0.999997 46.3868 0.999997 47.8734C0.999997 49.9224 1.319 49.9854 8.25 49.303C12.238 48.9101 15.895 48.1993 16.377 47.7231C16.859 47.2459 16.963 45.6801 16.608 44.2434C16.149 42.3883 15.298 41.6308 13.672 41.6308C9.733 41.6308 7.664 39.335 8.209 35.5679C8.592 32.9208 8.307 32.1187 6.846 31.7308C5.831 31.4607 5 30.8362 5 30.3427C5 29.8503 4.1 29.4462 3 29.4462C1.69 29.4462 0.999997 30.1234 0.999997 31.4099ZM64.079 31.0535C64.127 32.2364 64.364 32.4771 64.683 31.6678C64.972 30.9347 64.936 30.0584 64.604 29.7213C64.272 29.3842 64.036 29.9833 64.079 31.0535ZM10 36.5539C10 39.3228 10.3 39.6 13.3 39.6C17.582 39.6 19 41.1576 19 45.8599C19 50.3854 17.127 51.7846 11.066 51.7846H7V55.8462V59.9077H11.5C15.931 59.9077 16 59.8559 16 56.5305C16 51.9654 19.443 48.7385 24.314 48.7385C27.86 48.7385 28 48.6034 28 45.1846C28 41.6744 27.948 41.6308 23.7 41.6308C18.692 41.6308 17 40.2976 17 36.3508C17 33.7788 16.667 33.5077 13.5 33.5077C10.278 33.5077 10 33.7494 10 36.5539ZM64.079 36.1304C64.127 37.3134 64.364 37.554 64.683 36.7447C64.972 36.0116 64.936 35.1354 64.604 34.7983C64.272 34.4611 64.036 35.0602 64.079 36.1304ZM63.697 41.0144C63.288 42.0715 63.189 43.1762 63.476 43.4686C64.389 44.3947 65.191 42.8767 64.809 40.9484C64.459 39.1817 64.405 39.1847 63.697 41.0144ZM62 45.5258C62 46.0863 59.732 49.0634 56.96 52.1431C53.221 56.297 50.382 58.3481 45.96 60.0895C41.822 61.7181 40 62.9803 40 64.218C40 65.7015 40.922 66 45.5 66C50.503 66 51.01 65.7939 51.116 63.7154C51.195 62.1669 51.373 61.9699 51.67 63.1031C52.189 65.0902 54.952 65.9675 60.75 65.9858L65 66V58.3846C65 52.9777 64.638 50.7652 63.75 50.754C62.824 50.7418 62.85 50.5134 63.848 49.8706C65.441 48.8451 65.04 45.5359 63.25 44.9308C62.563 44.6983 62 44.9663 62 45.5258ZM0.999997 58.3846V66L4.25 65.9888C6.038 65.9827 9.188 65.6944 11.25 65.3481C16.13 64.5287 16.31 61.9862 11.5 61.8115C9.575 61.7415 7.438 61.6247 6.75 61.5516C5.926 61.4643 5.5 59.6051 5.5 56.0919C5.5 51.2444 5.298 50.7662 3.25 50.7672C1.117 50.7692 0.999997 51.1642 0.999997 58.3846ZM21.052 51.9643C19.642 52.4934 19 53.6377 19 55.6197C19 57.2058 18.339 59.3909 17.532 60.4753C14.483 64.5673 15.512 66 21.5 66C26.734 66 27 65.8741 27 63.4016C27 61.973 27.408 61.0592 27.906 61.3719C28.404 61.6846 28.577 62.8543 28.289 63.9703C27.865 65.6182 28.26 66 30.383 66C33.486 66 33.815 63.9591 31 62.174C29.433 61.18 29 59.8062 29 55.8218C29 50.817 28.953 50.7408 26.052 50.9652C24.43 51.0901 22.18 51.5399 21.052 51.9643ZM23.569 62.0522C24.431 63.4687 21.828 65.2161 20.645 64.0149C19.684 63.0391 20.61 60.9231 22 60.9231C22.485 60.9231 23.191 61.4308 23.569 62.0522ZM46.5 63.9692C46.016 64.7643 45.441 64.8232 44.774 64.1459C44.224 63.5875 44.101 62.5944 44.5 61.9385C44.984 61.1434 45.559 61.0845 46.226 61.7618C46.776 62.3203 46.899 63.3133 46.5 63.9692ZM36.25 62.6553C33.142 63.2625 33.346 66 36.5 66C38.333 66 39 65.4588 39 63.9692C39 62.8523 38.888 62.0004 38.75 62.0766C38.612 62.1527 37.487 62.4127 36.25 62.6553Z" fill="white"/>
<path fill-rule="evenodd" clip-rule="evenodd" d="M0.999997 9.14761C0.999997 15.3201 1.318 17.3245 2.25 17.0128C2.978 16.7691 3.626 14.4063 3.802 11.351C4.15 5.31453 6.033 3.60665 11.614 4.26767C13.776 4.52456 15 4.23518 15 3.46856C15 1.99016 13.028 1.46216 6.25 1.12505L0.999997 0.865112V9.14761ZM16 2.41967C16 3.19238 16.9 4.06358 18 4.35601C19.1 4.64742 20 4.45145 20 3.92041C20 3.36601 21.492 3.23807 23.5 3.62087C26.324 4.15902 27 3.97118 27 2.65118C27 1.34539 25.891 1.01539 21.5 1.01539C17.484 1.01539 16 1.39413 16 2.41967ZM28.393 2.62173C28.727 3.50512 29 4.37632 29 4.55705C29 4.73881 29.9 4.64742 31 4.35601C33.954 3.57112 33.489 1.01539 30.393 1.01539C28.427 1.01539 27.935 1.41038 28.393 2.62173ZM34 2.53847C34 3.37616 34.413 4.06155 34.918 4.06155C35.423 4.06155 36.548 4.33875 37.418 4.67788C38.552 5.11958 39 4.68804 39 3.15481C39 1.54948 38.376 1.01539 36.5 1.01539C34.944 1.01539 34 1.59112 34 2.53847ZM40 2.92736C40 3.98641 40.893 5.07693 42 5.37139C43.3 5.71662 44 5.40185 44 4.47379C44 3.6889 44.727 3.04616 45.617 3.04616C46.72 3.04616 47.073 3.66656 46.73 5.00179C46.36 6.43856 46.978 7.27321 49.063 8.14949C54.749 10.5407 63 21.0215 63 25.8517C63 26.7117 63.45 27.4154 64 27.4154C64.55 27.4154 65 26.5015 65 25.3846C65 24.2677 64.438 23.3467 63.75 23.3386C62.849 23.3275 62.818 23.1152 63.641 22.5771C64.357 22.108 64.833 17.9561 64.921 11.4231L65.061 1.01539H52.531C40.925 1.01539 40 1.15653 40 2.92736ZM13.22 10.3356C13.459 11.0728 15.13 11.8242 16.934 12.0029C19.303 12.2384 20.094 11.9562 19.78 10.9875C19.541 10.2503 17.87 9.49893 16.066 9.32022C13.697 9.08465 12.906 9.36693 13.22 10.3356ZM34.008 13.1736C32.078 14.4124 33.542 15.9629 37.817 17.2087C40.878 18.0992 41 18.0211 41 15.1597C41 12.5877 40.628 12.1867 38.25 12.1999C36.737 12.209 34.829 12.6466 34.008 13.1736ZM47 15.6187C47 17.0148 47.45 18.4394 48 18.7846C48.565 19.139 49 18.3074 49 16.8737C49 15.4775 48.55 14.0529 48 13.7077C47.435 13.3533 47 14.1849 47 15.6187ZM0.999997 19.6914C0.999997 20.4691 1.675 21.3688 2.5 21.6907C3.52 22.0877 4 21.6358 4 20.2762C4 19.1755 3.325 18.2769 2.5 18.2769C1.675 18.2769 0.999997 18.9136 0.999997 19.6914ZM13.021 23.823C11.365 26.9635 12.079 27.8703 15.518 26.994C17.495 26.4904 18.053 25.7837 17.815 24.09C17.37 20.9251 14.629 20.7717 13.021 23.823ZM23.667 22.0003C23.3 22.372 22.993 24.0859 22.985 25.808C22.967 29.3842 22.192 30.8586 19.874 31.7247C18.753 32.143 18.399 33.1361 18.734 34.9201C19.388 38.3897 20.777 39.3868 25.508 39.7777C29.055 40.0711 29.548 40.4418 30.01 43.1539C30.467 45.8314 30.89 46.1635 33.515 45.8974C38.591 45.3836 41.898 43.56 43.991 40.1219C48.039 33.4732 45.548 25.7705 38.364 22.7233C34.978 21.2865 24.86 20.789 23.667 22.0003ZM2.25 24.026C0.491998 24.747 0.687998 27.4154 2.5 27.4154C3.333 27.4154 4 26.5127 4 25.3846C4 24.2677 3.888 23.3904 3.75 23.4341C3.612 23.4777 2.938 23.7448 2.25 24.026ZM0.999997 31.4099C0.999997 32.7715 1.842 33.5026 3.75 33.7961L6.5 34.2185L3.75 34.3708C-0.117003 34.585 -0.117003 38.278 3.75 38.873L6.5 39.2954L3.677 39.4477C0.0939972 39.6406 0.336998 42.7751 4.005 43.6798L6.5 44.2951L3.75 45.013C1.842 45.5116 0.999997 46.3868 0.999997 47.8734C0.999997 49.9224 1.319 49.9854 8.25 49.303C12.238 48.9101 15.895 48.1993 16.377 47.7231C16.859 47.2459 16.963 45.6801 16.608 44.2434C16.149 42.3883 15.298 41.6308 13.672 41.6308C9.733 41.6308 7.664 39.335 8.209 35.5679C8.592 32.9208 8.307 32.1187 6.846 31.7308C5.831 31.4607 5 30.8362 5 30.3427C5 29.8503 4.1 29.4462 3 29.4462C1.69 29.4462 0.999997 30.1234 0.999997 31.4099ZM64.079 31.0535C64.127 32.2364 64.364 32.4771 64.683 31.6678C64.972 30.9347 64.936 30.0584 64.604 29.7213C64.272 29.3842 64.036 29.9833 64.079 31.0535ZM64.079 36.1304C64.127 37.3134 64.364 37.554 64.683 36.7447C64.972 36.0116 64.936 35.1354 64.604 34.7983C64.272 34.4611 64.036 35.0602 64.079 36.1304ZM63.697 41.0144C63.288 42.0715 63.189 43.1762 63.476 43.4686C64.389 44.3947 65.191 42.8767 64.809 40.9484C64.459 39.1817 64.405 39.1847 63.697 41.0144ZM62 45.5258C62 46.0863 59.732 49.0634 56.96 52.1431C53.221 56.297 50.382 58.3481 45.96 60.0895C41.822 61.7181 40 62.9803 40 64.218C40 65.7015 40.922 66 45.5 66C50.503 66 51.01 65.7939 51.116 63.7154C51.195 62.1669 51.373 61.9699 51.67 63.1031C52.189 65.0902 54.952 65.9675 60.75 65.9858L65 66V58.3846C65 52.9777 64.638 50.7652 63.75 50.754C62.824 50.7418 62.85 50.5134 63.848 49.8706C65.441 48.8451 65.04 45.5359 63.25 44.9308C62.563 44.6983 62 44.9663 62 45.5258ZM0.999997 58.3846V66L4.25 65.9888C6.038 65.9827 9.188 65.6944 11.25 65.3481C16.13 64.5287 16.31 61.9862 11.5 61.8115C9.575 61.7415 7.438 61.6247 6.75 61.5516C5.926 61.4643 5.5 59.6051 5.5 56.0919C5.5 51.2444 5.298 50.7662 3.25 50.7672C1.117 50.7692 0.999997 51.1642 0.999997 58.3846ZM21.052 51.9643C19.642 52.4934 19 53.6377 19 55.6197C19 57.2058 18.339 59.3909 17.532 60.4753C14.483 64.5673 15.512 66 21.5 66C26.734 66 27 65.8741 27 63.4016C27 61.973 27.408 61.0592 27.906 61.3719C28.404 61.6846 28.577 62.8543 28.289 63.9703C27.865 65.6182 28.26 66 30.383 66C33.486 66 33.815 63.9591 31 62.174C29.433 61.18 29 59.8062 29 55.8218C29 50.817 28.953 50.7408 26.052 50.9652C24.43 51.0901 22.18 51.5399 21.052 51.9643ZM23.569 62.0522C24.431 63.4687 21.828 65.2161 20.645 64.0149C19.684 63.0391 20.61 60.9231 22 60.9231C22.485 60.9231 23.191 61.4308 23.569 62.0522ZM46.5 63.9692C46.016 64.7643 45.441 64.8232 44.774 64.1459C44.224 63.5875 44.101 62.5944 44.5 61.9385C44.984 61.1434 45.559 61.0845 46.226 61.7618C46.776 62.3203 46.899 63.3133 46.5 63.9692ZM36.25 62.6553C33.142 63.2625 33.346 66 36.5 66C38.333 66 39 65.4588 39 63.9692C39 62.8523 38.888 62.0004 38.75 62.0766C38.612 62.1527 37.487 62.4127 36.25 62.6553Z" fill="black"/>
</g>
<defs>
<clipPath id="clip0_1_2">
<rect width="66" height="66" rx="33" fill="white"/>
</clipPath>
</defs>
</svg>
