<svg width="64" height="65" viewBox="0 0 64 65" fill="none" xmlns="http://www.w3.org/2000/svg">
<path fill-rule="evenodd" clip-rule="evenodd" d="M0 32V64H32H64V32V0H32H0V32Z" fill="#8C8AA0"/>
<path fill-rule="evenodd" clip-rule="evenodd" d="M0 1.433C0 2.221 0.9 3.151 2 3.5C3.1 3.849 4 4.554 4 5.067C4 5.58 4.62 6 5.378 6C6.135 6 7.32 6.681 8.011 7.513C8.702 8.345 9.769 8.932 10.383 8.817C12.947 8.337 15.961 10.17 15.677 12.037C15.304 14.477 14 15.833 14 13.781C14 11.91 8.603 9.193 3.618 8.555L0 8.092V36.046V64H32H64V32V0H60.031C57.042 0 56.195 0.345 56.6 1.399C57.306 3.239 55.136 4.536 53.72 3.12C52.912 2.312 52.275 2.82 51.355 5.007C50.508 7.022 49.389 8 47.932 8C46.259 8 45.886 8.455 46.29 10C47.067 12.974 46.254 12.509 40.952 6.95C38.264 4.131 34.672 1.479 32.824 0.95C31.003 0.427 22.873 0 14.757 0C2.615 0 0 0.254 0 1.433ZM35 9.893C35 10.384 34.261 11.069 33.359 11.416C31.986 11.943 31.924 11.796 32.981 10.523C34.421 8.788 35 8.607 35 9.893ZM35.789 15.395C35.08 16.162 34.114 16.556 33.643 16.27C33.172 15.984 33.397 15.363 34.143 14.89C36.253 13.553 37.218 13.849 35.789 15.395ZM12.6 19.889C10.679 22.012 11.674 23.508 13.833 21.741C14.848 20.91 14.721 21.464 13.45 23.417L11.551 26.334L10.931 23.917C10.566 22.494 10.864 20.851 11.656 19.921C12.395 19.053 13.036 17.703 13.079 16.921C13.14 15.827 13.278 15.801 13.682 16.808C13.97 17.527 13.483 18.914 12.6 19.889ZM40.43 32.114C39.557 33.526 37 33.139 37 31.594C37 30.682 37.7 30.37 38.989 30.707C40.083 30.993 40.731 31.626 40.43 32.114ZM21.349 55.532C20.556 57.599 20 57.356 20 54.941C20 53.809 20.43 53.148 20.956 53.473C21.482 53.798 21.659 54.725 21.349 55.532Z" fill="#5F5C79"/>
<path fill-rule="evenodd" clip-rule="evenodd" d="M24 1.12C20.471 2.521 17.078 6.998 17.036 10.309C17.012 12.172 16.611 12.878 15.845 12.405C15.138 11.967 14.962 12.13 15.392 12.825C15.777 13.448 15.575 14.925 14.943 16.107C14.043 17.788 14.088 18.464 15.147 19.222C16.192 19.968 16.118 20.067 14.823 19.654C13.901 19.36 12.667 19.696 12.082 20.401C10.671 22.102 11.946 23.289 13.658 21.869C15.679 20.191 15.351 22.506 13.273 24.584C11.637 26.221 11.513 26.185 10.929 23.906C10.58 22.546 10.857 20.848 11.566 20C12.255 19.175 12.973 17.646 13.16 16.601C13.44 15.035 12.8 14.648 9.5 14.391C7.3 14.219 4.263 13.847 2.75 13.564L0 13.05V38.525V64H32H64V32.5C64 15.175 63.844 0.999999 63.653 0.999999C62.708 0.999999 59 4.879 59 5.867C59 6.49 57.481 7 55.625 7C49.09 7 45.796 8.113 46.327 10.141C46.675 11.473 46.272 12 44.906 12C43.683 12 43 11.301 43 10.051C43 7.738 37.178 3.054 32.106 1.287C27.884 -0.185001 27.314 -0.196001 24 1.12ZM34.744 10.751C34.662 11.842 33.718 12.557 32.238 12.649C29.941 12.792 29.923 12.737 31.682 10.958C34.003 8.61 34.91 8.549 34.744 10.751ZM24.898 18.5C24.919 19.05 24.29 18.646 23.5 17.603C22.71 16.559 22.352 15.239 22.705 14.669C23.314 13.682 24.813 16.3 24.898 18.5ZM31 15C31 15.55 30.802 16 30.559 16C30.316 16 29.84 15.55 29.5 15C29.16 14.45 29.359 14 29.941 14C30.523 14 31 14.45 31 15ZM35.789 15.395C35.08 16.162 34.114 16.556 33.643 16.27C33.172 15.984 33.397 15.363 34.143 14.89C36.253 13.553 37.218 13.849 35.789 15.395ZM41.738 32.714C41.937 33.312 41.022 33.536 39.54 33.252C38.143 32.985 37 32.159 37 31.416C37 29.85 41.164 30.992 41.738 32.714ZM7 40.378C7 40.585 6.213 41.373 5.25 42.128C3.664 43.371 3.629 43.336 4.872 41.75C6.179 40.084 7 39.555 7 40.378ZM6 48.5C6 49.325 5.213 49.964 4.25 49.921C3.194 49.873 2.998 49.641 3.756 49.336C4.447 49.057 4.758 48.418 4.447 47.915C4.136 47.412 4.359 47 4.941 47C5.523 47 6 47.675 6 48.5ZM21.349 55.532C20.556 57.599 20 57.356 20 54.941C20 53.809 20.43 53.148 20.956 53.473C21.482 53.798 21.659 54.725 21.349 55.532Z" fill="#0D0B16"/>
<path fill-rule="evenodd" clip-rule="evenodd" d="M26.75 0.662001C27.438 0.940001 28.563 0.940001 29.25 0.662001C29.938 0.385001 29.375 0.158001 28 0.158001C26.625 0.158001 26.063 0.385001 26.75 0.662001ZM61.153 2.867C59.969 3.894 59 5.244 59 5.867C59 6.49 57.481 7 55.625 7C49.09 7 45.796 8.113 46.327 10.141C46.675 11.473 46.272 12 44.906 12C43.695 12 43 11.302 43 10.084C43 9.008 41.136 6.738 38.75 4.906C36.413 3.112 35.063 2.264 35.75 3.022C37.596 5.057 37.279 6.562 34.75 7.764C32.617 8.778 32.654 8.825 35.461 8.667C37.733 8.539 38.485 8.965 38.693 10.5C38.843 11.6 38.726 11.985 38.434 11.356C38.143 10.727 37.031 10.441 35.963 10.72C34.896 10.999 34.25 11.595 34.528 12.045C34.805 12.494 34.506 13.187 33.862 13.585C33.131 14.037 32.959 13.876 33.405 13.155C33.797 12.52 33.672 12 33.126 12C32.581 12 31.847 12.907 31.495 14.015C31.144 15.123 30.461 15.785 29.978 15.487C29.495 15.188 28.627 15.829 28.047 16.911C27.349 18.217 27.332 19.087 27.997 19.498C28.549 19.839 28.993 20.654 28.985 21.309C28.975 22.025 28.582 21.901 28 21C27.178 19.728 27.028 19.775 27.015 21.309C27.007 22.304 26.582 22.86 26.072 22.544C24.859 21.795 23.658 25.613 24.596 27.241C24.994 27.933 24.977 28.191 24.557 27.813C24.137 27.436 22.04 28.863 19.897 30.985C17.205 33.65 15.997 35.718 15.991 37.672C15.983 40.472 10.069 48 7.878 48C7.33 48 7.141 48.419 7.458 48.932C7.775 49.445 6.789 50.007 5.267 50.182C3.351 50.402 2.543 51.038 2.639 52.25C2.83 54.664 2.113 54.441 1.031 51.75C0.362 50.086 0.11 51.389 0.063 56.75L0 64H32H64V32.5C64 15.175 63.844 1 63.653 1C63.462 1 62.337 1.84 61.153 2.867ZM17.345 7.543C17.019 8.392 16.976 9.31 17.249 9.583C17.523 9.856 17.986 9.161 18.279 8.04C18.903 5.657 18.21 5.289 17.345 7.543ZM29.667 11.667C28.735 12.599 28.835 14 29.833 14C30.292 14 30.667 13.325 30.667 12.5C30.667 10.801 30.594 10.74 29.667 11.667ZM0 24.025C0 34.914 0.0190001 35 2.378 35C4.83 35 7.78 32.447 6.643 31.309C6.289 30.956 6 31.222 6 31.901C6 32.704 5.258 32.899 3.875 32.46C2.258 31.947 1.938 32.111 2.535 33.143C2.967 33.889 2.935 34.149 2.465 33.721C0.256 31.711 1.247 30 4.62 30C6.752 30 8.281 29.431 8.636 28.506C8.952 27.684 9.561 27.229 9.991 27.495C10.422 27.761 11.387 27.222 12.137 26.297C12.887 25.373 12.989 24.922 12.364 25.296C10.726 26.278 10.023 21.415 11.572 19.813C12.271 19.091 12.991 17.646 13.171 16.601C13.442 15.037 12.795 14.648 9.5 14.391C7.3 14.219 4.263 13.847 2.75 13.564L0 13.05V24.025ZM22.399 14.25C22.003 14.938 22.062 15.152 22.53 14.726C22.998 14.301 23.933 15.201 24.609 16.726C25.377 18.461 25.868 18.875 25.919 17.832C26.11 13.901 23.896 11.648 22.399 14.25ZM35.789 15.395C35.08 16.162 34.114 16.556 33.643 16.27C33.172 15.984 33.397 15.363 34.143 14.89C36.253 13.553 37.218 13.849 35.789 15.395ZM11.543 20.931C11.226 21.443 11.394 22.125 11.915 22.447C12.436 22.769 13.163 22.545 13.532 21.948C13.901 21.352 14.855 21.114 15.653 21.42C16.463 21.731 16.834 21.541 16.493 20.989C15.72 19.737 12.305 19.698 11.543 20.931ZM41.738 32.714C41.937 33.312 41.022 33.536 39.54 33.252C38.143 32.985 37 32.159 37 31.416C37 29.85 41.164 30.992 41.738 32.714ZM1.75 37.441C0.465 38.38 0 40.127 0 44.006V49.292L2.614 46.471C4.052 44.92 5.321 43.018 5.434 42.245C5.548 41.472 6.284 40.384 7.07 39.826C8.218 39.011 8.155 38.922 6.75 39.374C4.831 39.991 4.433 38.967 5.988 37.412C7.499 35.901 3.822 35.926 1.75 37.441ZM4.607 41.529C4.726 42.338 4.441 43 3.974 43C3.507 43 3.191 42.119 3.272 41.043C3.433 38.896 4.265 39.198 4.607 41.529ZM21.349 55.532C20.556 57.599 20 57.356 20 54.941C20 53.809 20.43 53.148 20.956 53.473C21.482 53.798 21.659 54.725 21.349 55.532Z" fill="#FFAE83"/>
<path fill-rule="evenodd" clip-rule="evenodd" d="M26.75 0.662001C27.438 0.940001 28.563 0.940001 29.25 0.662001C29.938 0.385001 29.375 0.158001 28 0.158001C26.625 0.158001 26.063 0.385001 26.75 0.662001ZM61.25 2.778C60.013 3.854 59 5.244 59 5.867C59 6.49 57.481 7 55.625 7C49.135 7 46.194 8.026 46.737 10.101C47.109 11.525 46.703 12 45.117 12C43.731 12 43 11.367 43 10.167C43 9.159 41.087 6.838 38.75 5.009C36.413 3.179 35.063 2.294 35.75 3.041C37.598 5.05 37.278 6.562 34.75 7.764C32.617 8.778 32.654 8.825 35.461 8.667C37.733 8.539 38.485 8.965 38.693 10.5C38.843 11.6 38.726 11.985 38.434 11.356C38.143 10.727 37.031 10.441 35.963 10.72C34.896 10.999 34.25 11.595 34.528 12.045C34.805 12.494 34.506 13.187 33.862 13.585C33.131 14.037 32.959 13.876 33.405 13.155C33.797 12.52 33.672 12 33.126 12C32.581 12 31.847 12.907 31.495 14.015C31.144 15.123 30.461 15.785 29.978 15.487C29.495 15.188 28.627 15.829 28.047 16.911C27.349 18.217 27.332 19.087 27.997 19.498C28.549 19.839 28.993 20.654 28.985 21.309C28.975 22.025 28.582 21.901 28 21C27.178 19.728 27.028 19.775 27.015 21.309C27.007 22.304 26.582 22.86 26.072 22.544C24.859 21.795 23.658 25.613 24.596 27.241C24.994 27.933 24.977 28.191 24.557 27.813C24.137 27.436 22.04 28.863 19.897 30.985C17.205 33.65 15.997 35.718 15.991 37.672C15.983 40.472 10.069 48 7.878 48C7.33 48 7.141 48.419 7.458 48.932C7.775 49.445 6.789 50.007 5.267 50.182C3.351 50.402 2.543 51.038 2.639 52.25C2.83 54.664 2.113 54.441 1.031 51.75C0.29 49.906 0.115 50.328 0.063 54.092C0.001 58.635 0.0440001 58.697 4.201 59.942C6.511 60.634 9.999 61.397 11.951 61.637C13.903 61.877 15.65 62.507 15.833 63.037C16.035 63.618 25.645 64 40.083 64H64V57C64 49.144 64.417 49.436 55.558 51.074C51.418 51.839 49.439 51.839 48.674 51.074C47.909 50.309 48.879 49.997 52.05 49.989C54.497 49.983 58.156 49.704 60.181 49.369L63.861 48.761L63.883 41.88L63.905 35H60.33C57.523 35 56.985 34.723 57.827 33.709C59.558 31.623 55.532 29.734 50.99 30.502C47.977 31.011 46.979 30.784 46.214 29.418C45.605 28.33 44.624 27.93 43.56 28.338C42.632 28.695 42.153 29.439 42.496 29.993C42.838 30.547 42.656 31 42.09 31C41.525 31 41.3 31.618 41.589 32.372C41.977 33.383 41.441 33.616 39.558 33.256C38.151 32.987 37 32.118 37 31.324C37 30.489 37.486 30.182 38.155 30.595C38.844 31.021 39.039 30.871 38.638 30.224C38.269 29.627 38.425 28.856 38.984 28.51C39.543 28.165 40 27.034 40 25.997C40 24.303 40.749 24.132 47.422 24.306C54.725 24.497 54.811 24.47 52.83 22.625C51.383 21.278 49.314 20.75 45.487 20.75C40.999 20.75 40.25 20.494 40.735 19.125C41.981 15.607 42.851 15.272 48.249 16.233C51.137 16.747 55.862 17.29 58.75 17.44L64 17.712V12.297C64 8.942 63.62 7.117 63 7.5C61.653 8.332 61.724 6.676 63.094 5.306C63.695 4.705 64.033 3.449 63.844 2.517C63.531 0.974001 63.296 0.998001 61.25 2.778ZM17.345 7.543C17.019 8.392 16.976 9.31 17.249 9.583C17.523 9.856 17.986 9.161 18.279 8.04C18.903 5.657 18.21 5.289 17.345 7.543ZM56.419 12.019C57.172 12.772 57.047 13.354 55.992 14.01C55.062 14.587 54.374 14.571 54.167 13.968C53.983 13.436 53.308 12.986 52.667 12.968C52.025 12.951 50.613 12.266 49.528 11.446C47.694 10.06 47.829 9.99 51.455 10.455C53.599 10.729 55.833 11.433 56.419 12.019ZM29.667 11.667C28.735 12.599 28.835 14 29.833 14C30.292 14 30.667 13.325 30.667 12.5C30.667 10.801 30.594 10.74 29.667 11.667ZM0 14.466C0 16.608 1.71 17.226 4.1 15.946C5.278 15.316 5.97 15.239 5.639 15.775C5.307 16.313 6.201 16.75 7.632 16.75C9.059 16.75 10.564 17.294 10.975 17.959C11.521 18.843 11.886 18.739 12.333 17.573C12.67 16.696 13.07 15.683 13.223 15.322C13.375 14.961 11.7 14.533 9.5 14.372C7.3 14.21 4.263 13.847 2.75 13.564C0.803 13.2 0 13.463 0 14.466ZM22.399 14.25C22.003 14.938 22.062 15.152 22.53 14.726C22.998 14.301 23.933 15.201 24.609 16.726C25.377 18.461 25.868 18.875 25.919 17.832C26.11 13.901 23.896 11.648 22.399 14.25ZM35.789 15.395C35.08 16.162 34.114 16.556 33.643 16.27C33.172 15.984 33.397 15.363 34.143 14.89C36.253 13.553 37.218 13.849 35.789 15.395ZM2.921 19.963C2.868 20.992 2.675 21.087 2.338 20.25C0.992 16.915 0 19.779 0 27C0 34.757 0.072 35 2.378 35C4.83 35 7.78 32.447 6.643 31.309C6.289 30.956 6 31.222 6 31.901C6 32.704 5.258 32.899 3.875 32.46C2.258 31.947 1.938 32.111 2.535 33.143C2.967 33.889 2.935 34.149 2.465 33.721C0.256 31.711 1.247 30 4.62 30C6.752 30 8.281 29.431 8.636 28.506C8.952 27.684 9.561 27.229 9.991 27.495C10.422 27.761 11.387 27.222 12.137 26.297C13.074 25.141 13.11 24.851 12.25 25.367C10.277 26.552 10.734 22.923 12.75 21.392C13.716 20.659 13.967 20.049 13.309 20.032C12.654 20.014 11.84 20.45 11.5 21C10.467 22.671 8.265 22.119 7.724 20.054C7.115 17.725 3.04 17.648 2.921 19.963ZM38.29 27C38.002 28.1 37.411 29 36.977 29C36.543 29 36.423 28.1 36.71 27C36.998 25.9 37.589 25 38.023 25C38.457 25 38.577 25.9 38.29 27ZM33.345 27.543C33.019 28.392 32.538 28.872 32.276 28.61C32.014 28.348 32.096 27.653 32.459 27.067C33.445 25.471 34.021 25.781 33.345 27.543ZM1.75 37.441C0.465 38.38 0 40.127 0 44.006V49.292L2.614 46.471C4.052 44.92 5.321 43.018 5.434 42.245C5.548 41.472 6.284 40.384 7.07 39.826C8.218 39.011 8.155 38.922 6.75 39.374C4.831 39.991 4.433 38.967 5.988 37.412C7.499 35.901 3.822 35.926 1.75 37.441ZM4.607 41.529C4.726 42.338 4.441 43 3.974 43C3.507 43 3.191 42.119 3.272 41.043C3.433 38.896 4.265 39.198 4.607 41.529ZM50 40C50.825 40.533 51.05 40.969 50.5 40.969C49.95 40.969 48.825 40.533 48 40C47.175 39.467 46.95 39.031 47.5 39.031C48.05 39.031 49.175 39.467 50 40ZM55.5 42C56.282 43.266 54.958 43.266 53 42C51.707 41.165 51.734 41.029 53.191 41.015C54.121 41.007 55.16 41.45 55.5 42ZM46.5 50C46.84 50.55 46.39 51 45.5 51C44.61 51 44.16 50.55 44.5 50C44.84 49.45 45.29 49 45.5 49C45.71 49 46.16 49.45 46.5 50ZM21.349 55.532C20.556 57.599 20 57.356 20 54.941C20 53.809 20.43 53.148 20.956 53.473C21.482 53.798 21.659 54.725 21.349 55.532ZM0 62C0 63.665 0.628 63.981 3.75 63.884C5.813 63.82 6.647 63.55 5.605 63.283C4.07 62.89 3.975 62.621 5.105 61.868C6.031 61.251 5.526 61.166 3.601 61.615C1.544 62.095 0.907 61.959 1.41 61.146C1.799 60.516 1.641 60 1.059 60C0.477 60 0 60.9 0 62ZM9 63C8.175 63.533 7.95 63.969 8.5 63.969C9.05 63.969 10.175 63.533 11 63C11.825 62.467 12.05 62.031 11.5 62.031C10.95 62.031 9.825 62.467 9 63Z" fill="#DD885F"/>
<path fill-rule="evenodd" clip-rule="evenodd" d="M26.75 0.662001C27.438 0.940001 28.563 0.940001 29.25 0.662001C29.938 0.385001 29.375 0.158001 28 0.158001C26.625 0.158001 26.063 0.385001 26.75 0.662001ZM61.25 2.778C60.013 3.854 59 5.244 59 5.867C59 6.518 57.19 7.042 54.75 7.1C52.413 7.155 49.375 7.56 48 8C45.426 8.824 45.944 9.074 51.027 9.457C53.308 9.629 59 12.136 59 12.969C59 13.368 57.987 14.225 56.75 14.873C54.516 16.044 54.518 16.049 57 15.54C58.375 15.258 60.513 15.021 61.75 15.014C63.652 15.002 64 14.459 64 11.5C64 9.056 63.548 8 62.5 8C60.521 8 60.582 6.333 62.603 5.202C63.484 4.709 64.047 3.521 63.853 2.563C63.526 0.950001 63.333 0.965001 61.25 2.778ZM35.75 2.977C37.592 5.074 37.281 6.561 34.75 7.764C32.617 8.778 32.654 8.825 35.461 8.667C37.733 8.539 38.485 8.965 38.693 10.5C38.843 11.6 38.726 11.985 38.434 11.356C38.143 10.727 37.031 10.441 35.963 10.72C34.896 10.999 34.25 11.595 34.528 12.045C34.805 12.494 34.506 13.187 33.862 13.585C33.131 14.037 32.959 13.876 33.405 13.155C33.797 12.52 33.672 12 33.126 12C32.581 12 31.847 12.907 31.495 14.015C31.144 15.123 30.461 15.785 29.978 15.487C29.495 15.188 28.627 15.829 28.047 16.911C27.349 18.217 27.332 19.087 27.997 19.498C28.549 19.839 28.993 20.654 28.985 21.309C28.975 22.025 28.582 21.901 28 21C27.178 19.728 27.028 19.775 27.015 21.309C27.007 22.304 26.582 22.86 26.072 22.544C24.859 21.795 23.658 25.613 24.596 27.241C24.994 27.933 24.977 28.191 24.557 27.813C24.137 27.436 22.04 28.863 19.897 30.985C17.205 33.65 15.997 35.718 15.991 37.672C15.983 40.472 10.069 48 7.878 48C7.33 48 7.141 48.419 7.458 48.932C7.775 49.445 6.789 50.007 5.267 50.182C3.351 50.402 2.543 51.038 2.639 52.25C2.83 54.664 2.113 54.441 1.031 51.75C0.275 49.87 0.116 50.203 0.063 53.775C-0.009 58.681 0.988999 59.343 10.759 60.875C13.873 61.364 16.589 62.267 16.794 62.882C17.35 64.551 41.948 64.424 42.152 62.75C42.236 62.063 42.409 61.05 42.537 60.5C42.665 59.95 42.821 58.675 42.885 57.666C42.985 56.063 43.472 56.202 46.75 58.771C52.33 63.145 54.404 64 59.434 64H64V57.542V51.084L54 51.693C47.188 52.108 44 51.961 44 51.233C44 49.325 45.19 47 46.166 47C46.69 47 46.812 47.495 46.438 48.1C45.966 48.865 46.411 48.851 47.9 48.054C49.078 47.423 50.441 47.155 50.93 47.457C51.419 47.759 52.588 47.712 53.527 47.351C55.015 46.78 54.93 46.527 52.867 45.383C50.06 43.827 51.255 43.639 55.757 44.93C57.757 45.504 59 45.504 59 44.93C59 44.419 58.256 44 57.346 44C56.437 44 53.238 42.839 50.238 41.42C47.238 40 43.145 38.597 41.142 38.301L37.5 37.763L41 40.95C42.925 42.703 43.908 43.836 43.183 43.468C42.459 43.101 41.327 43.538 40.667 44.441C39.571 45.939 39.262 45.893 37.135 43.911C35.42 42.313 35.133 41.536 36.048 40.971C36.735 40.546 37 39.443 36.64 38.504C36.07 37.019 36.583 36.863 40.744 37.259C43.36 37.508 46.971 38.198 48.769 38.792C50.59 39.393 51.782 39.457 51.46 38.936C51.142 38.421 50.26 38 49.5 38C48.74 38 47.793 37.474 47.395 36.83C46.918 36.058 47.205 35.865 48.238 36.261C50.917 37.289 51.052 35.829 48.466 33.795C47.11 32.728 46 30.988 46 29.927C46 28.867 45.65 28 45.222 28C43.819 28 41.355 31.566 41.812 32.937C42.077 33.73 41.805 33.997 41.147 33.591C39.194 32.384 32.817 34.08 33.418 35.646C33.844 36.757 33.547 36.828 31.977 35.988C29.682 34.759 29.272 32.507 31.5 33.362C33.297 34.051 33.329 33.817 31.879 30.634C30.912 28.511 31.118 27.786 33.379 25.347C34.821 23.792 36 23.078 36 23.76C36 24.442 35.498 25 34.883 25C34.259 25 33.997 25.882 34.29 27.001C34.578 28.102 34.437 28.77 33.976 28.485C33.515 28.2 32.885 28.378 32.575 28.879C32.265 29.38 32.663 30.04 33.459 30.346C34.44 30.722 35.308 29.79 36.154 27.451C37.457 23.846 38.485 23.136 39.338 25.25C39.615 25.938 39.878 24.153 39.921 21.285C39.982 17.268 40.429 15.841 41.869 15.07C42.896 14.52 43.909 14.227 44.119 14.418C44.328 14.608 46.706 15.027 49.401 15.348L54.302 15.93L52.024 13.808C50.546 12.431 48.562 11.73 46.373 11.812C43.544 11.919 42.984 11.581 42.9 9.72C42.807 7.642 42.755 7.66 42.083 10C41.386 12.429 41.332 12.397 40.145 8.871C39.474 6.875 37.929 4.412 36.712 3.397C35.496 2.383 35.063 2.194 35.75 2.977ZM17.345 7.543C17.019 8.392 16.976 9.31 17.249 9.583C17.523 9.856 17.986 9.161 18.279 8.04C18.903 5.657 18.21 5.289 17.345 7.543ZM29.667 11.667C28.735 12.599 28.835 14 29.833 14C30.292 14 30.667 13.325 30.667 12.5C30.667 10.801 30.594 10.74 29.667 11.667ZM0 14.025C0 14.561 1.155 15 2.566 15C3.977 15 5.934 15.429 6.914 15.954C7.977 16.523 9.868 16.558 11.598 16.04C14.954 15.036 14.856 14.961 9.5 14.456C7.3 14.248 4.263 13.847 2.75 13.564C1.237 13.281 0 13.489 0 14.025ZM22.399 14.25C22.003 14.938 22.062 15.152 22.53 14.726C22.998 14.301 23.933 15.201 24.609 16.726C25.377 18.461 25.868 18.875 25.919 17.832C26.11 13.901 23.896 11.648 22.399 14.25ZM35.789 15.395C35.08 16.162 34.114 16.556 33.643 16.27C33.172 15.984 33.397 15.363 34.143 14.89C36.253 13.553 37.218 13.849 35.789 15.395ZM38 17.393C38 17.609 37.302 18.054 36.448 18.382C35.558 18.723 35.157 18.555 35.507 17.989C36.094 17.038 38 16.583 38 17.393ZM3.581 19.562C2.711 20.432 2 20.661 2 20.071C2 19.482 1.55 19 1 19C0.45 19 0 19.9 0 21C0 23.083 3.264 27 5 27C5.55 27 6 27.45 6 28C6 28.55 4.889 29 3.531 29C1.748 29 1.223 28.584 1.638 27.5C1.955 26.675 1.716 26 1.107 26C0.462 26 0 27.877 0 30.5C0 34.572 0.226 35 2.378 35C4.83 35 7.78 32.447 6.643 31.309C6.289 30.956 6 31.222 6 31.901C6 32.704 5.258 32.899 3.875 32.46C2.258 31.947 1.938 32.111 2.535 33.143C2.967 33.889 2.935 34.149 2.465 33.721C0.256 31.711 1.247 30 4.62 30C6.752 30 8.281 29.431 8.636 28.506C8.952 27.684 9.561 27.229 9.991 27.495C10.422 27.761 11.387 27.195 12.137 26.239C13.393 24.636 13.352 24.617 11.606 25.992C9.832 27.389 9.759 27.326 10.457 24.992C10.867 23.621 11.918 21.938 12.792 21.25C15.445 19.165 13.015 19.853 9.904 22.068L7 24.136V21.627C7 18.406 5.589 17.554 3.581 19.562ZM38 20.469C38 21.398 37.418 21.714 36.416 21.329C35.141 20.84 35.092 20.557 36.166 19.876C37.942 18.75 38 18.769 38 20.469ZM41 21.941C41 22.459 41.445 23.157 41.989 23.493C42.555 23.843 42.723 23.442 42.382 22.552C41.717 20.82 41 20.503 41 21.941ZM29.662 29.25C29.385 29.938 29.158 29.375 29.158 28C29.158 26.625 29.385 26.063 29.662 26.75C29.94 27.438 29.94 28.563 29.662 29.25ZM1.75 37.441C-0.185 38.856 -0.618 43.5 1.087 44.554C1.87 45.038 1.87 45.53 1.087 46.313C0.489 46.911 0 47.826 0 48.346C0 49.731 5.191 43.903 5.434 42.245C5.548 41.472 6.284 40.384 7.07 39.826C8.218 39.011 8.155 38.922 6.75 39.374C4.831 39.991 4.433 38.967 5.988 37.412C7.499 35.901 3.822 35.926 1.75 37.441ZM4.607 41.529C4.726 42.338 4.441 43 3.974 43C3.507 43 3.191 42.119 3.272 41.043C3.433 38.896 4.265 39.198 4.607 41.529ZM61 39.941C61 40.523 59.987 41.052 58.75 41.116C57.107 41.201 56.963 41.354 58.219 41.683C60.467 42.274 63.685 40.542 62.128 39.579C61.508 39.196 61 39.359 61 39.941ZM55 48C53.059 49.254 59.581 49.254 62.5 48C64.071 47.325 63.643 47.129 60.5 47.086C58.3 47.055 55.825 47.467 55 48ZM21.349 55.532C20.556 57.599 20 57.356 20 54.941C20 53.809 20.43 53.148 20.956 53.473C21.482 53.798 21.659 54.725 21.349 55.532Z" fill="#B3694C"/>
<path fill-rule="evenodd" clip-rule="evenodd" d="M26.75 0.662001C27.438 0.940001 28.563 0.940001 29.25 0.662001C29.938 0.385001 29.375 0.158001 28 0.158001C26.625 0.158001 26.063 0.385001 26.75 0.662001ZM35.75 3.053C37.599 5.046 37.277 6.563 34.75 7.764C32.617 8.778 32.654 8.825 35.461 8.667C37.733 8.539 38.485 8.965 38.693 10.5C38.843 11.6 38.726 11.985 38.434 11.356C38.143 10.727 37.031 10.441 35.963 10.72C34.896 10.999 34.25 11.595 34.528 12.045C34.805 12.494 34.506 13.187 33.862 13.585C33.131 14.037 32.959 13.876 33.405 13.155C33.797 12.52 33.641 12 33.059 12C32.477 12 32 12.477 32 13.059C32 13.641 31.543 13.835 30.984 13.49C30.425 13.144 30.266 12.33 30.63 11.681C31.043 10.947 30.768 10.989 29.905 11.792C28.942 12.688 28.851 13.3 29.609 13.792C30.209 14.181 31.234 15.512 31.885 16.75C33.012 18.888 33.193 18.92 35.535 17.385C37.915 15.826 38.001 15.852 38.015 18.135C38.024 19.436 38.493 21.175 39.059 22C39.857 23.164 40.043 22.829 39.894 20.5C39.788 18.85 40.033 16.302 40.437 14.839C41.246 11.909 38.263 3.848 35.863 2.482C34.763 1.857 34.742 1.967 35.75 3.053ZM17.345 7.543C17.019 8.392 16.976 9.31 17.249 9.583C17.523 9.856 17.986 9.161 18.279 8.04C18.903 5.657 18.21 5.289 17.345 7.543ZM22.399 14.25C22.003 14.938 22.062 15.152 22.53 14.726C22.998 14.301 23.933 15.201 24.609 16.726C25.377 18.461 25.868 18.875 25.919 17.832C26.11 13.901 23.896 11.648 22.399 14.25ZM36.248 15.529C35.01 16.402 33.547 16.838 32.998 16.499C31.116 15.336 32.002 14.425 35.25 14.184C38.483 13.944 38.488 13.951 36.248 15.529ZM27.875 17C27.806 17.55 27.637 18.45 27.5 19C27.363 19.55 27.194 20.702 27.125 21.559C27.056 22.416 26.582 22.86 26.072 22.544C24.859 21.795 23.658 25.613 24.596 27.241C24.994 27.933 24.977 28.191 24.557 27.813C24.137 27.436 22.04 28.863 19.897 30.985C17.205 33.65 15.997 35.718 15.991 37.672C15.983 40.472 10.069 48 7.878 48C7.33 48 7.141 48.419 7.458 48.932C7.775 49.445 6.789 50.007 5.267 50.182C3.351 50.402 2.543 51.038 2.639 52.25C2.83 54.664 2.113 54.441 1.031 51.75C0.272001 49.862 0.117001 50.178 0.0630009 53.711C0.00200093 57.762 0.143001 57.959 3.75 58.858C9.837 60.377 14.59 61.055 13.303 60.222C12.644 59.796 12.422 58.935 12.809 58.309C13.642 56.961 16.317 58.579 17.259 61C17.58 61.825 17.878 59.913 17.921 56.75C17.997 51.231 18.105 51 20.624 51C23.198 51 23.239 51.106 22.784 56.592C22.511 59.877 21.739 62.552 20.91 63.077C19.758 63.806 19.807 63.972 21.18 63.985C22.135 63.993 23.048 63.028 23.294 61.75L23.728 59.5L23.864 61.75C23.994 63.907 24.374 64 33 64C42.503 64 42.378 64.072 42.041 58.849C41.812 55.302 43.312 54.582 45.616 57.132C48.469 60.289 56.493 64 60.467 64H64V57.375V50.75L60.75 51.49C55.667 52.648 44.125 53.012 43.52 52.033C43.22 51.547 43.508 49.979 44.16 48.548C45.085 46.517 45.073 45.677 44.106 44.723C43.126 43.757 42.583 43.882 41.524 45.316C40.41 46.824 39.855 46.926 38.24 45.918C35.258 44.055 33.542 40.901 35.015 39.991C35.724 39.552 35.939 38.382 35.54 37.125C34.933 35.213 35.248 34.998 38.683 34.985C41.226 34.974 42.043 34.68 41.132 34.103C39.085 32.806 34.475 34.398 34.639 36.346C34.828 38.596 33.686 38.423 31.405 35.857C30.357 34.678 28.234 32.933 26.687 31.979L23.873 30.245L26.652 28.059C29.265 26.004 29.468 25.982 30.067 27.687C30.623 29.269 30.804 29.186 31.485 27.044C32.094 25.127 31.807 24.284 30.176 23.201C28.565 22.131 28.22 21.149 28.669 18.907C28.988 17.308 28.969 16 28.625 16C28.281 16 27.944 16.45 27.875 17ZM3 21.092C3 22.243 3.894 24.321 4.986 25.71C6.079 27.099 6.727 28.632 6.427 29.118C6.127 29.603 6.373 30 6.972 30C7.572 30 8.321 29.328 8.636 28.506C8.952 27.684 9.561 27.229 9.991 27.495C10.422 27.761 11.387 27.195 12.137 26.239C13.37 24.665 13.334 24.63 11.75 25.872C10.263 27.039 10 27.034 10 25.845C10 25.075 10.736 23.395 11.635 22.111L13.269 19.777L10.643 21.498C9.199 22.444 8.265 23.62 8.568 24.109C8.87 24.599 8.81 25.498 8.434 26.107C7.45 27.699 6.034 25.149 6.015 21.75C6.005 19.979 5.466 19 4.5 19C3.645 19 3 19.899 3 21.092ZM35.07 21.75C35.109 22.163 35.529 23.4 36.005 24.5C36.75 26.226 36.848 26.123 36.716 23.75C36.632 22.238 36.212 21 35.782 21C35.352 21 35.032 21.337 35.07 21.75ZM0.0150009 30.75C0.00200093 34.563 0.245001 35 2.378 35C4.83 35 7.78 32.447 6.643 31.309C6.289 30.956 6 31.222 6 31.901C6 32.704 5.258 32.899 3.875 32.46C2.312 31.964 1.956 32.119 2.529 33.047C3.02 33.842 2.904 34.059 2.216 33.633C1.615 33.262 1.28 32.142 1.472 31.144C1.664 30.146 1.419 28.693 0.926001 27.915C0.316001 26.951 0.0260009 27.856 0.0150009 30.75ZM43.035 29.934C41.664 32.496 41.683 32.55 44 32.725C45.1 32.808 46 32.427 46 31.879C46 31.331 45.55 31.16 45 31.5C43.6 32.365 43.749 30.651 45.2 29.2C46.093 28.307 46.102 28 45.235 28C44.595 28 43.605 28.87 43.035 29.934ZM1.75 37.441C-0.0389991 38.749 -0.639999 41 0.800001 41C1.24 41 2.14 40.46 2.8 39.8C3.46 39.14 4.034 38.803 4.077 39.05C4.119 39.297 4.304 40.288 4.488 41.25C4.836 43.067 3.42 43.736 2.833 42.032C2.65 41.5 1.976 41.39 1.335 41.788C0.455001 42.336 0.469001 42.921 1.393 44.184C2.794 46.1 5 45.208 5.387 42.57C5.526 41.619 6.284 40.384 7.07 39.826C8.218 39.011 8.155 38.922 6.75 39.374C4.831 39.991 4.433 38.967 5.988 37.412C7.499 35.901 3.822 35.926 1.75 37.441ZM42.5 41.469C44.471 43.085 46.786 43.94 49.25 43.964C51.313 43.984 53 43.759 53 43.464C53 42.556 43.962 39 41.667 39.005C39.669 39.01 39.734 39.202 42.5 41.469ZM9.29926e-07 48.059C9.29926e-07 48.641 0.450001 48.84 1 48.5C1.55 48.16 2 47.684 2 47.441C2 47.198 1.55 47 1 47C0.450001 47 9.29926e-07 47.477 9.29926e-07 48.059ZM16.524 55.075C17.488 58.112 16.514 58.424 15.184 55.504C14.556 54.127 14.453 53 14.954 53C15.455 53 16.162 53.934 16.524 55.075Z" fill="#7D4844"/>
<path fill-rule="evenodd" clip-rule="evenodd" d="M36.165 6.88C35.16 7.515 35.369 7.863 37.014 8.293C38.941 8.797 39.129 9.347 38.622 12.977C38.263 15.539 38.415 16.862 39.023 16.486C40.417 15.624 40.232 9.693 38.75 7.71C37.949 6.639 37.02 6.34 36.165 6.88ZM35.571 11.571C33.427 13.715 33.598 14.285 36 13C37.1 12.411 38 11.495 38 10.965C38 9.606 37.383 9.76 35.571 11.571ZM29.667 11.667C28.735 12.599 28.835 14 29.833 14C30.292 14 30.667 13.325 30.667 12.5C30.667 10.801 30.594 10.74 29.667 11.667ZM27.638 17.5C27.322 18.325 27.499 19 28.031 19C28.564 19 29 18.325 29 17.5C29 16.675 28.823 16 28.607 16C28.391 16 27.955 16.675 27.638 17.5ZM10.872 21.75C9.629 23.336 9.664 23.371 11.25 22.128C12.916 20.821 13.445 20 12.622 20C12.415 20 11.627 20.788 10.872 21.75ZM27.116 21.309C27.052 22.304 26.592 22.866 26.093 22.558C25.595 22.249 25.409 23.01 25.68 24.249C26.076 26.057 25.963 26.205 25.102 25C23.886 23.298 23.773 24.563 24.886 27.401C25.544 29.078 25.782 28.94 26.905 26.23C27.605 24.541 27.964 22.335 27.705 21.329C27.254 19.586 27.227 19.585 27.116 21.309ZM0 29C0 29.55 0.477 30 1.059 30C1.641 30 1.84 29.55 1.5 29C1.16 28.45 0.684 28 0.441 28C0.198 28 0 28.45 0 29ZM18.923 31.923C17.079 33.767 15.997 35.89 15.991 37.673C15.983 40.543 10.046 48 7.77 48C7.163 48 6.936 48.27 7.266 48.599C7.596 48.929 6.53 50.504 4.898 52.099C3.266 53.695 2.37 55 2.907 55C3.443 55 4.158 54.553 4.495 54.007C4.834 53.46 6.179 54.245 7.495 55.757L9.881 58.5L9.375 53.75C8.859 48.907 10.301 47.079 11.348 51.25C11.659 52.487 12.61 54.4 13.462 55.5C14.931 57.396 14.959 57.353 14.006 54.685C13.453 53.137 13 51.53 13 51.114C13 49.738 22.77 49.819 23.625 51.202C24.69 52.926 25.041 58 24.095 58C23.683 58 23.547 59.367 23.792 61.037L24.238 64.074L32.869 63.787L41.5 63.5L41.708 59.75C41.87 56.822 41.541 55.985 40.208 55.93C38.796 55.872 38.846 55.711 40.5 55C41.847 54.421 42.01 54.113 41 54.055C40.02 53.999 39.881 53.715 40.6 53.235C41.719 52.488 44 48.645 44 47.507C44 47.163 43.55 47.16 43 47.5C42.45 47.84 42 47.609 42 46.988C42 46.351 41.288 46.569 40.371 47.486C39.475 48.382 38.148 48.887 37.422 48.608C36.522 48.263 36.304 48.642 36.738 49.801C37.313 51.335 37.195 51.354 35.534 50C34.521 49.175 33.537 48.612 33.346 48.75C33.156 48.888 32.166 49 31.146 49C29.564 49 29.332 48.304 29.558 44.25C29.733 41.11 29.312 38.928 28.314 37.813C27.483 36.885 27.107 35.535 27.476 34.813C27.846 34.091 27.44 34.374 26.574 35.441C25.708 36.509 25 36.846 25 36.191C25 35.536 24.339 35 23.531 35C22.572 35 22.284 35.577 22.701 36.664C23.131 37.783 22.957 38.091 22.17 37.605C21.461 37.167 21 37.519 21 38.5C21 39.481 20.539 39.833 19.83 39.395C19.007 38.887 18.889 39.24 19.431 40.586C20.564 43.399 21.02 49 20.115 49C19.685 49 19.286 48.438 19.227 47.75C19.169 47.063 18.814 43.986 18.438 40.914C17.428 32.662 20.656 28.415 25.023 32.25C25.806 32.938 25.602 32.487 24.568 31.25C23.535 30.012 22.5 29 22.268 29C22.036 29 20.531 30.315 18.923 31.923ZM0.079 32.75C0.127 33.806 0.359 34.002 0.664 33.244C0.943 32.553 1.652 32.285 2.24 32.648C2.872 33.039 3.017 32.837 2.595 32.155C1.517 30.41 -0.01 30.771 0.079 32.75ZM3.5 34C1.87 34.701 1.812 34.872 3.191 34.93C4.121 34.968 5.16 34.55 5.5 34C6.211 32.85 6.176 32.85 3.5 34ZM4.068 38.904C1.47 42.553 1.258 46.222 3.699 45.285C4.762 44.877 4.95 44.483 4.199 44.233C3.54 44.013 3 43.169 3 42.358C3 41.46 3.49 41.164 4.25 41.601C4.938 41.997 5.161 41.947 4.746 41.49C4.332 41.033 4.68 39.611 5.52 38.33C7.713 34.982 6.527 35.452 4.068 38.904ZM33.733 39.124C34.412 39.808 35.219 40.115 35.526 39.807C35.834 39.499 35.279 38.94 34.293 38.564C32.868 38.022 32.753 38.136 33.733 39.124ZM31 55.5C30.315 56.325 29.274 57 28.686 57C28.099 57 28.491 56.339 29.559 55.532C32.067 53.634 32.557 53.624 31 55.5ZM38.5 59.713C37.4 59.978 36.072 60.6 35.55 61.097C35.028 61.594 34.127 61.986 33.55 61.968C32.973 61.951 33.374 61.276 34.441 60.468C35.509 59.661 37.309 59.052 38.441 59.116C40.45 59.229 40.451 59.244 38.5 59.713Z" fill="#5C1805"/>
</svg>
