<svg width="64" height="64" viewBox="0 0 64 64" fill="none" xmlns="http://www.w3.org/2000/svg">
<g clip-path="url(#clip0_1_2)">
<path fill-rule="evenodd" clip-rule="evenodd" d="M0 31.5077V63.0154H32H64V31.5077V0H32H0V31.5077Z" fill="#8C8AA0"/>
<path fill-rule="evenodd" clip-rule="evenodd" d="M0 1.41095C0 2.18683 0.9 3.10252 2 3.44615C3.1 3.78978 4 4.48394 4 4.98905C4 5.49415 4.62 5.90769 5.378 5.90769C6.135 5.90769 7.32 6.57822 8.011 7.39742C8.702 8.21662 9.769 8.79459 10.383 8.68135C12.947 8.20874 15.961 10.0135 15.677 11.8518C15.304 14.2543 14 15.5894 14 13.569C14 11.7268 8.603 9.05157 3.618 8.42338L0 7.96751V35.4914V63.0154H32H64V31.5077V0H60.031C57.042 0 56.195 0.339692 56.6 1.37748C57.306 3.18917 55.136 4.46622 53.72 3.072C52.912 2.27643 52.275 2.77662 51.355 4.92997C50.508 6.91397 49.389 7.87692 47.932 7.87692C46.259 7.87692 45.886 8.32492 46.29 9.84615C47.067 12.7744 46.254 12.3166 40.952 6.84308C38.264 4.06745 34.672 1.45625 32.824 0.935385C31.003 0.420431 22.873 0 14.757 0C2.615 0 0 0.250092 0 1.41095ZM35 9.7408C35 10.2242 34.261 10.8987 33.359 11.2404C31.986 11.7593 31.924 11.6145 32.981 10.3611C34.421 8.6528 35 8.47458 35 9.7408ZM35.789 15.1582C35.08 15.9134 34.114 16.3013 33.643 16.0197C33.172 15.7381 33.397 15.1266 34.143 14.6609C36.253 13.3445 37.218 13.6359 35.789 15.1582ZM12.6 19.583C10.679 21.6734 11.674 23.1463 13.833 21.4065C14.848 20.5883 14.721 21.1338 13.45 23.0567L11.551 25.9289L10.931 23.549C10.566 22.1479 10.864 20.5302 11.656 19.6145C12.395 18.7599 13.036 17.4306 13.079 16.6607C13.14 15.5835 13.278 15.5579 13.682 16.5494C13.97 17.2574 13.483 18.623 12.6 19.583ZM40.43 31.6199C39.557 33.0102 37 32.6292 37 31.1079C37 30.21 37.7 29.9028 38.989 30.2346C40.083 30.5162 40.731 31.1394 40.43 31.6199ZM21.349 54.6777C20.556 56.7129 20 56.4736 20 54.0958C20 52.9812 20.43 52.3303 20.956 52.6503C21.482 52.9703 21.659 53.8831 21.349 54.6777Z" fill="#5F5C79"/>
<path fill-rule="evenodd" clip-rule="evenodd" d="M24 1.10277C20.471 2.48221 17.078 6.89034 17.036 10.1504C17.012 11.9847 16.611 12.6799 15.845 12.2142C15.138 11.7829 14.962 11.9434 15.392 12.6277C15.777 13.2411 15.575 14.6954 14.943 15.8592C14.043 17.5143 14.088 18.1799 15.147 18.9263C16.192 19.6608 16.118 19.7583 14.823 19.3516C13.901 19.0622 12.667 19.393 12.082 20.0871C10.671 21.762 11.946 22.9307 13.658 21.5326C15.679 19.8804 15.351 22.1598 13.273 24.2058C11.637 25.8176 11.513 25.7822 10.929 23.5382C10.58 22.1991 10.857 20.5273 11.566 19.6923C12.255 18.88 12.973 17.3745 13.16 16.3456C13.44 14.8037 12.8 14.4226 9.5 14.1696C7.3 14.0002 4.263 13.634 2.75 13.3553L0 12.8492V37.9323V63.0154H32H64V32C64 14.9415 63.844 0.984614 63.653 0.984614C62.708 0.984614 59 4.80394 59 5.77674C59 6.39015 57.481 6.89231 55.625 6.89231C49.09 6.89231 45.796 7.98818 46.327 9.98498C46.675 11.2965 46.272 11.8154 44.906 11.8154C43.683 11.8154 43 11.1271 43 9.89637C43 7.61895 37.178 3.00701 32.106 1.2672C27.884 -0.182156 27.314 -0.192986 24 1.10277ZM34.744 10.5856C34.662 11.6598 33.718 12.3638 32.238 12.4544C29.941 12.5952 29.923 12.541 31.682 10.7894C34.003 8.47754 34.91 8.41748 34.744 10.5856ZM24.898 18.2154C24.919 18.7569 24.29 18.3591 23.5 17.3322C22.71 16.3042 22.352 15.0046 22.705 14.4433C23.314 13.4715 24.813 16.0492 24.898 18.2154ZM31 14.7692C31 15.3108 30.802 15.7538 30.559 15.7538C30.316 15.7538 29.84 15.3108 29.5 14.7692C29.16 14.2277 29.359 13.7846 29.941 13.7846C30.523 13.7846 31 14.2277 31 14.7692ZM35.789 15.1582C35.08 15.9134 34.114 16.3013 33.643 16.0197C33.172 15.7381 33.397 15.1266 34.143 14.6609C36.253 13.3445 37.218 13.6359 35.789 15.1582ZM41.738 32.2107C41.937 32.7995 41.022 33.0201 39.54 32.7404C38.143 32.4775 37 31.6642 37 30.9327C37 29.3908 41.164 30.5152 41.738 32.2107ZM7 39.7568C7 39.9606 6.213 40.7365 5.25 41.4799C3.664 42.7038 3.629 42.6693 4.872 41.1077C6.179 39.4673 7 38.9465 7 39.7568ZM6 47.7538C6 48.5662 5.213 49.1953 4.25 49.153C3.194 49.1057 2.998 48.8773 3.756 48.577C4.447 48.3023 4.758 47.6731 4.447 47.1778C4.136 46.6826 4.359 46.2769 4.941 46.2769C5.523 46.2769 6 46.9415 6 47.7538ZM21.349 54.6777C20.556 56.7129 20 56.4736 20 54.0958C20 52.9812 20.43 52.3303 20.956 52.6503C21.482 52.9703 21.659 53.8831 21.349 54.6777Z" fill="#0D0B16"/>
<path fill-rule="evenodd" clip-rule="evenodd" d="M26.75 0.651817C27.438 0.92554 28.563 0.92554 29.25 0.651817C29.938 0.379079 29.375 0.155571 28 0.155571C26.625 0.155571 26.063 0.379079 26.75 0.651817ZM61.153 2.82289C59.969 3.83409 59 5.16332 59 5.77674C59 6.39015 57.481 6.89231 55.625 6.89231C49.09 6.89231 45.796 7.98819 46.327 9.98499C46.675 11.2965 46.272 11.8154 44.906 11.8154C43.695 11.8154 43 11.1281 43 9.92886C43 8.86942 41.136 6.63434 38.75 4.83052C36.413 3.06412 35.063 2.22917 35.75 2.97551C37.596 4.9792 37.279 6.46105 34.75 7.64455C32.617 8.64295 32.654 8.68923 35.461 8.53366C37.733 8.40763 38.485 8.82708 38.693 10.3385C38.843 11.4215 38.726 11.8006 38.434 11.1813C38.143 10.562 37.031 10.2804 35.963 10.5551C34.896 10.8298 34.25 11.4166 34.528 11.8597C34.805 12.3018 34.506 12.9841 33.862 13.376C33.131 13.821 32.959 13.6625 33.405 12.9526C33.797 12.3274 33.672 11.8154 33.126 11.8154C32.581 11.8154 31.847 12.7084 31.495 13.7994C31.144 14.8903 30.461 15.5422 29.978 15.2487C29.495 14.9543 28.627 15.5855 28.047 16.6508C27.349 17.9367 27.332 18.7934 27.997 19.198C28.549 19.5338 28.993 20.3362 28.985 20.9812C28.975 21.6862 28.582 21.5641 28 20.6769C27.178 19.4245 27.028 19.4708 27.015 20.9812C27.007 21.9609 26.582 22.5083 26.072 22.1972C24.859 21.4597 23.658 25.219 24.596 26.8219C24.994 27.5033 24.977 27.7573 24.557 27.3851C24.137 27.0139 22.04 28.419 19.897 30.5083C17.205 33.1323 15.997 35.1685 15.991 37.0924C15.983 39.8494 10.069 47.2615 7.878 47.2615C7.33 47.2615 7.141 47.6741 7.458 48.1792C7.775 48.6843 6.789 49.2377 5.267 49.41C3.351 49.6266 2.543 50.2528 2.639 51.4462C2.83 53.823 2.113 53.6034 1.031 50.9538C0.362 49.3154 0.11 50.5984 0.063 55.8769L0 63.0154H32H64V32C64 14.9415 63.844 0.984616 63.653 0.984616C63.462 0.984616 62.337 1.81169 61.153 2.82289ZM17.345 7.42695C17.019 8.26289 16.976 9.16677 17.249 9.43557C17.523 9.70437 17.986 9.02006 18.279 7.91631C18.903 5.56997 18.21 5.20763 17.345 7.42695ZM29.667 11.4875C28.735 12.4052 28.835 13.7846 29.833 13.7846C30.292 13.7846 30.667 13.12 30.667 12.3077C30.667 10.6348 30.594 10.5748 29.667 11.4875ZM0 23.6554C0 34.3769 0.0190001 34.4615 2.378 34.4615C4.83 34.4615 7.78 31.9478 6.643 30.8273C6.289 30.4798 6 30.7417 6 31.4102C6 32.2009 5.258 32.3929 3.875 31.9606C2.258 31.4555 1.938 31.617 2.535 32.6331C2.967 33.3676 2.935 33.6236 2.465 33.2022C0.256 31.2231 1.247 29.5385 4.62 29.5385C6.752 29.5385 8.281 28.9782 8.636 28.0674C8.952 27.2581 9.561 26.8101 9.991 27.072C10.422 27.3339 11.387 26.8032 12.137 25.8924C12.887 24.9826 12.989 24.5386 12.364 24.9068C10.726 25.8737 10.023 21.0855 11.572 19.5082C12.271 18.7973 12.991 17.3745 13.171 16.3456C13.442 14.8057 12.795 14.4226 9.5 14.1696C7.3 14.0002 4.263 13.634 2.75 13.3553L0 12.8492V23.6554ZM22.399 14.0308C22.003 14.7082 22.062 14.9189 22.53 14.4994C22.998 14.081 23.933 14.9671 24.609 16.4687C25.377 18.177 25.868 18.5846 25.919 17.5577C26.11 13.6871 23.896 11.4688 22.399 14.0308ZM35.789 15.1582C35.08 15.9134 34.114 16.3013 33.643 16.0197C33.172 15.7381 33.397 15.1266 34.143 14.6609C36.253 13.3445 37.218 13.6359 35.789 15.1582ZM11.543 20.609C11.226 21.1131 11.394 21.7846 11.915 22.1017C12.436 22.4187 13.163 22.1982 13.532 21.6103C13.901 21.0235 14.855 20.7892 15.653 21.0905C16.463 21.3967 16.834 21.2096 16.493 20.6661C15.72 19.4334 12.305 19.395 11.543 20.609ZM41.738 32.2107C41.937 32.7995 41.022 33.0201 39.54 32.7404C38.143 32.4775 37 31.6642 37 30.9327C37 29.3908 41.164 30.5152 41.738 32.2107ZM1.75 36.865C0.465 37.7895 0 39.5097 0 43.329V48.5337L2.614 45.7561C4.052 44.2289 5.321 42.3562 5.434 41.5951C5.548 40.834 6.284 39.7627 7.07 39.2133C8.218 38.4108 8.155 38.3232 6.75 38.7682C4.831 39.3758 4.433 38.3675 5.988 36.8364C7.499 35.3487 3.822 35.3733 1.75 36.865ZM4.607 40.8901C4.726 41.6866 4.441 42.3385 3.974 42.3385C3.507 42.3385 3.191 41.471 3.272 40.4116C3.433 38.2976 4.265 38.595 4.607 40.8901ZM21.349 54.6777C20.556 56.7129 20 56.4736 20 54.0958C20 52.9812 20.43 52.3303 20.956 52.6503C21.482 52.9703 21.659 53.8831 21.349 54.6777Z" fill="#FFAE83"/>
<path fill-rule="evenodd" clip-rule="evenodd" d="M26.75 0.651817C27.438 0.92554 28.563 0.92554 29.25 0.651817C29.938 0.379079 29.375 0.155571 28 0.155571C26.625 0.155571 26.063 0.379079 26.75 0.651817ZM61.25 2.73526C60.013 3.79471 59 5.16332 59 5.77674C59 6.39015 57.481 6.89231 55.625 6.89231C49.135 6.89231 46.194 7.90252 46.737 9.9456C47.109 11.3477 46.703 11.8154 45.117 11.8154C43.731 11.8154 43 11.1921 43 10.0106C43 9.01809 41.087 6.7328 38.75 4.93194C36.413 3.13009 35.063 2.25871 35.75 2.99422C37.598 4.97231 37.278 6.46105 34.75 7.64455C32.617 8.64295 32.654 8.68923 35.461 8.53366C37.733 8.40763 38.485 8.82708 38.693 10.3385C38.843 11.4215 38.726 11.8006 38.434 11.1813C38.143 10.562 37.031 10.2804 35.963 10.5551C34.896 10.8298 34.25 11.4166 34.528 11.8597C34.805 12.3018 34.506 12.9841 33.862 13.376C33.131 13.821 32.959 13.6625 33.405 12.9526C33.797 12.3274 33.672 11.8154 33.126 11.8154C32.581 11.8154 31.847 12.7084 31.495 13.7994C31.144 14.8903 30.461 15.5422 29.978 15.2487C29.495 14.9543 28.627 15.5855 28.047 16.6508C27.349 17.9367 27.332 18.7934 27.997 19.198C28.549 19.5338 28.993 20.3362 28.985 20.9812C28.975 21.6862 28.582 21.5641 28 20.6769C27.178 19.4245 27.028 19.4708 27.015 20.9812C27.007 21.9609 26.582 22.5083 26.072 22.1972C24.859 21.4597 23.658 25.219 24.596 26.8219C24.994 27.5033 24.977 27.7573 24.557 27.3851C24.137 27.0139 22.04 28.419 19.897 30.5083C17.205 33.1323 15.997 35.1685 15.991 37.0924C15.983 39.8494 10.069 47.2615 7.878 47.2615C7.33 47.2615 7.141 47.6741 7.458 48.1792C7.775 48.6843 6.789 49.2377 5.267 49.41C3.351 49.6266 2.543 50.2528 2.639 51.4462C2.83 53.823 2.113 53.6034 1.031 50.9538C0.29 49.1382 0.115 49.5537 0.063 53.2598C0.001 57.7329 0.0440001 57.794 4.201 59.0198C6.511 59.7012 9.999 60.4524 11.951 60.6887C13.903 60.925 15.65 61.5454 15.833 62.0672C16.035 62.6393 25.645 63.0154 40.083 63.0154H64V56.1231C64 48.3879 64.417 48.6754 55.558 50.2882C51.418 51.0415 49.439 51.0415 48.674 50.2882C47.909 49.535 48.879 49.2278 52.05 49.2199C54.497 49.214 58.156 48.9393 60.181 48.6095L63.861 48.0108L63.883 41.2357L63.905 34.4615H60.33C57.523 34.4615 56.985 34.1888 57.827 33.1904C59.558 31.1365 55.532 29.2766 50.99 30.0327C47.977 30.5339 46.979 30.3104 46.214 28.9654C45.605 27.8942 44.624 27.5003 43.56 27.902C42.632 28.2535 42.153 28.9861 42.496 29.5316C42.838 30.077 42.656 30.5231 42.09 30.5231C41.525 30.5231 41.3 31.1316 41.589 31.874C41.977 32.8694 41.441 33.0988 39.558 32.7444C38.151 32.4795 37 31.6239 37 30.8421C37 30.0199 37.486 29.7177 38.155 30.1243C38.844 30.5438 39.039 30.3961 38.638 29.759C38.269 29.1712 38.425 28.4121 38.984 28.0714C39.543 27.7317 40 26.6181 40 25.597C40 23.9291 40.749 23.7607 47.422 23.9321C54.725 24.1201 54.811 24.0935 52.83 22.2769C51.383 20.9506 49.314 20.4308 45.487 20.4308C40.999 20.4308 40.25 20.1787 40.735 18.8308C41.981 15.3669 42.851 15.037 48.249 15.9833C51.137 16.4894 55.862 17.024 58.75 17.1717L64 17.4395V12.1078C64 8.80443 63.62 7.00751 63 7.38462C61.653 8.20382 61.724 6.57329 63.094 5.22437C63.695 4.63262 64.033 3.39594 63.844 2.47828C63.531 0.959017 63.296 0.982648 61.25 2.73526ZM17.345 7.42695C17.019 8.26289 16.976 9.16677 17.249 9.43557C17.523 9.70437 17.986 9.02006 18.279 7.91631C18.903 5.56997 18.21 5.20763 17.345 7.42695ZM56.419 11.8341C57.172 12.5755 57.047 13.1486 55.992 13.7945C55.062 14.3626 54.374 14.3468 54.167 13.7531C53.983 13.2293 53.308 12.7862 52.667 12.7685C52.025 12.7518 50.613 12.0773 49.528 11.2699C47.694 9.90523 47.829 9.83631 51.455 10.2942C53.599 10.5639 55.833 11.2571 56.419 11.8341ZM29.667 11.4875C28.735 12.4052 28.835 13.7846 29.833 13.7846C30.292 13.7846 30.667 13.12 30.667 12.3077C30.667 10.6348 30.594 10.5748 29.667 11.4875ZM0 14.2434C0 16.3525 1.71 16.961 4.1 15.7007C5.278 15.0804 5.97 15.0046 5.639 15.5323C5.307 16.062 6.201 16.4923 7.632 16.4923C9.059 16.4923 10.564 17.0279 10.975 17.6827C11.521 18.5531 11.886 18.4507 12.333 17.3026C12.67 16.4391 13.07 15.4417 13.223 15.0863C13.375 14.7308 11.7 14.3094 9.5 14.1509C7.3 13.9914 4.263 13.634 2.75 13.3553C0.803 12.9969 0 13.2559 0 14.2434ZM22.399 14.0308C22.003 14.7082 22.062 14.9189 22.53 14.4994C22.998 14.081 23.933 14.9671 24.609 16.4687C25.377 18.177 25.868 18.5846 25.919 17.5577C26.11 13.6871 23.896 11.4688 22.399 14.0308ZM35.789 15.1582C35.08 15.9134 34.114 16.3013 33.643 16.0197C33.172 15.7381 33.397 15.1266 34.143 14.6609C36.253 13.3445 37.218 13.6359 35.789 15.1582ZM2.921 19.6559C2.868 20.669 2.675 20.7626 2.338 19.9385C0.992 16.6548 0 19.4747 0 26.5846C0 34.2223 0.072 34.4615 2.378 34.4615C4.83 34.4615 7.78 31.9478 6.643 30.8273C6.289 30.4798 6 30.7417 6 31.4102C6 32.2009 5.258 32.3929 3.875 31.9606C2.258 31.4555 1.938 31.617 2.535 32.6331C2.967 33.3676 2.935 33.6236 2.465 33.2022C0.256 31.2231 1.247 29.5385 4.62 29.5385C6.752 29.5385 8.281 28.9782 8.636 28.0674C8.952 27.2581 9.561 26.8101 9.991 27.072C10.422 27.3339 11.387 26.8032 12.137 25.8924C13.074 24.7542 13.11 24.4687 12.25 24.9767C10.277 26.1435 10.734 22.5703 12.75 21.0629C13.716 20.3412 13.967 19.7406 13.309 19.7238C12.654 19.7061 11.84 20.1354 11.5 20.6769C10.467 22.3222 8.265 21.7787 7.724 19.7455C7.115 17.4523 3.04 17.3765 2.921 19.6559ZM38.29 26.5846C38.002 27.6677 37.411 28.5538 36.977 28.5538C36.543 28.5538 36.423 27.6677 36.71 26.5846C36.998 25.5015 37.589 24.6154 38.023 24.6154C38.457 24.6154 38.577 25.5015 38.29 26.5846ZM33.345 27.1193C33.019 27.9552 32.538 28.4278 32.276 28.1698C32.014 27.9119 32.096 27.2276 32.459 26.6506C33.445 25.0791 34.021 25.3844 33.345 27.1193ZM1.75 36.865C0.465 37.7895 0 39.5097 0 43.329V48.5337L2.614 45.7561C4.052 44.2289 5.321 42.3562 5.434 41.5951C5.548 40.834 6.284 39.7627 7.07 39.2133C8.218 38.4108 8.155 38.3232 6.75 38.7682C4.831 39.3758 4.433 38.3675 5.988 36.8364C7.499 35.3487 3.822 35.3733 1.75 36.865ZM4.607 40.8901C4.726 41.6866 4.441 42.3385 3.974 42.3385C3.507 42.3385 3.191 41.471 3.272 40.4116C3.433 38.2976 4.265 38.595 4.607 40.8901ZM50 39.3846C50.825 39.9094 51.05 40.3387 50.5 40.3387C49.95 40.3387 48.825 39.9094 48 39.3846C47.175 38.8598 46.95 38.4305 47.5 38.4305C48.05 38.4305 49.175 38.8598 50 39.3846ZM55.5 41.3538C56.282 42.6004 54.958 42.6004 53 41.3538C51.707 40.5317 51.734 40.3978 53.191 40.384C54.121 40.3761 55.16 40.8123 55.5 41.3538ZM46.5 49.2308C46.84 49.7723 46.39 50.2154 45.5 50.2154C44.61 50.2154 44.16 49.7723 44.5 49.2308C44.84 48.6892 45.29 48.2462 45.5 48.2462C45.71 48.2462 46.16 48.6892 46.5 49.2308ZM21.349 54.6777C20.556 56.7129 20 56.4736 20 54.0958C20 52.9812 20.43 52.3303 20.956 52.6503C21.482 52.9703 21.659 53.8831 21.349 54.6777ZM0 61.0462C0 62.6855 0.628 62.9967 3.75 62.9012C5.813 62.8382 6.647 62.5723 5.605 62.3094C4.07 61.9225 3.975 61.6576 5.105 60.9162C6.031 60.3087 5.526 60.225 3.601 60.6671C1.544 61.1397 0.907 61.0058 1.41 60.2053C1.799 59.585 1.641 59.0769 1.059 59.0769C0.477 59.0769 0 59.9631 0 61.0462ZM9 62.0308C8.175 62.5556 7.95 62.9849 8.5 62.9849C9.05 62.9849 10.175 62.5556 11 62.0308C11.825 61.506 12.05 61.0767 11.5 61.0767C10.95 61.0767 9.825 61.506 9 62.0308Z" fill="#DD885F"/>
<path fill-rule="evenodd" clip-rule="evenodd" d="M26.75 0.651817C27.438 0.92554 28.563 0.92554 29.25 0.651817C29.938 0.379079 29.375 0.155571 28 0.155571C26.625 0.155571 26.063 0.379079 26.75 0.651817ZM61.25 2.73526C60.013 3.79471 59 5.16332 59 5.77674C59 6.41772 57.19 6.93366 54.75 6.99077C52.413 7.04492 49.375 7.44369 48 7.87692C45.426 8.68825 45.944 8.9344 51.027 9.31151C53.308 9.48086 59 11.9493 59 12.7695C59 13.1623 57.987 14.0062 56.75 14.6442C54.516 15.7972 54.518 15.8021 57 15.3009C58.375 15.0233 60.513 14.7899 61.75 14.783C63.652 14.7712 64 14.2366 64 11.3231C64 8.91668 63.548 7.87692 62.5 7.87692C60.521 7.87692 60.582 6.23557 62.603 5.12197C63.484 4.63655 64.047 3.46683 63.853 2.52357C63.526 0.935386 63.333 0.950156 61.25 2.73526ZM35.75 2.9312C37.592 4.99594 37.281 6.46006 34.75 7.64455C32.617 8.64295 32.654 8.68923 35.461 8.53366C37.733 8.40763 38.485 8.82708 38.693 10.3385C38.843 11.4215 38.726 11.8006 38.434 11.1813C38.143 10.562 37.031 10.2804 35.963 10.5551C34.896 10.8298 34.25 11.4166 34.528 11.8597C34.805 12.3018 34.506 12.9841 33.862 13.376C33.131 13.821 32.959 13.6625 33.405 12.9526C33.797 12.3274 33.672 11.8154 33.126 11.8154C32.581 11.8154 31.847 12.7084 31.495 13.7994C31.144 14.8903 30.461 15.5422 29.978 15.2487C29.495 14.9543 28.627 15.5855 28.047 16.6508C27.349 17.9367 27.332 18.7934 27.997 19.198C28.549 19.5338 28.993 20.3362 28.985 20.9812C28.975 21.6862 28.582 21.5641 28 20.6769C27.178 19.4245 27.028 19.4708 27.015 20.9812C27.007 21.9609 26.582 22.5083 26.072 22.1972C24.859 21.4597 23.658 25.219 24.596 26.8219C24.994 27.5033 24.977 27.7573 24.557 27.3851C24.137 27.0139 22.04 28.419 19.897 30.5083C17.205 33.1323 15.997 35.1685 15.991 37.0924C15.983 39.8494 10.069 47.2615 7.878 47.2615C7.33 47.2615 7.141 47.6741 7.458 48.1792C7.775 48.6843 6.789 49.2377 5.267 49.41C3.351 49.6266 2.543 50.2528 2.639 51.4462C2.83 53.823 2.113 53.6034 1.031 50.9538C0.275 49.1028 0.116 49.4306 0.063 52.9477C-0.009 57.7782 0.988998 58.43 10.759 59.9385C13.873 60.4199 16.589 61.309 16.794 61.9146C17.35 63.5579 41.948 63.4329 42.152 61.7846C42.236 61.1082 42.409 60.1108 42.537 59.5692C42.665 59.0277 42.821 57.7723 42.885 56.7788C42.985 55.2005 43.472 55.3374 46.75 57.8668C52.33 62.1735 54.404 63.0154 59.434 63.0154H64V56.6567V50.2981L54 50.8977C47.188 51.3063 44 51.1616 44 50.4448C44 48.5662 45.19 46.2769 46.166 46.2769C46.69 46.2769 46.812 46.7643 46.438 47.36C45.966 48.1132 46.411 48.0994 47.9 47.3147C49.078 46.6934 50.441 46.4295 50.93 46.7269C51.419 47.0242 52.588 46.978 53.527 46.6225C55.015 46.0603 54.93 45.8112 52.867 44.6848C50.06 43.1527 51.255 42.9676 55.757 44.2388C57.757 44.8039 59 44.8039 59 44.2388C59 43.7356 58.256 43.3231 57.346 43.3231C56.437 43.3231 53.238 42.1799 50.238 40.7828C47.238 39.3846 43.145 38.0032 41.142 37.7118L37.5 37.182L41 40.32C42.925 42.046 43.908 43.1616 43.183 42.7993C42.459 42.4379 41.327 42.8682 40.667 43.7573C39.571 45.2322 39.262 45.187 37.135 43.2354C35.42 41.662 35.133 40.897 36.048 40.3407C36.735 39.9222 37 38.8362 36.64 37.9116C36.07 36.4495 36.583 36.2959 40.744 36.6858C43.36 36.931 46.971 37.6103 48.769 38.1952C50.59 38.787 51.782 38.85 51.46 38.337C51.142 37.8299 50.26 37.4154 49.5 37.4154C48.74 37.4154 47.793 36.8975 47.395 36.2634C46.918 35.5033 47.205 35.3132 48.238 35.7031C50.917 36.7153 51.052 35.2778 48.466 33.2751C47.11 32.2245 46 30.5113 46 29.4666C46 28.4229 45.65 27.5692 45.222 27.5692C43.819 27.5692 41.355 31.0804 41.812 32.4303C42.077 33.2111 41.805 33.474 41.147 33.0742C39.194 31.8858 32.817 33.5557 33.418 35.0976C33.844 36.1915 33.547 36.2614 31.977 35.4343C29.682 34.2242 29.272 32.0069 31.5 32.8487C33.297 33.5271 33.329 33.2967 31.879 30.1627C30.912 28.0724 31.118 27.3585 33.379 24.957C34.821 23.426 36 22.723 36 23.3945C36 24.066 35.498 24.6154 34.883 24.6154C34.259 24.6154 33.997 25.4838 34.29 26.5856C34.578 27.6697 34.437 28.3274 33.976 28.0468C33.515 27.7662 32.885 27.9414 32.575 28.4347C32.265 28.928 32.663 29.5778 33.459 29.8791C34.44 30.2494 35.308 29.3317 36.154 27.0287C37.457 23.4791 38.485 22.7801 39.338 24.8615C39.615 25.539 39.878 23.7814 39.921 20.9575C39.982 17.0023 40.429 15.5973 41.869 14.8382C42.896 14.2966 43.909 14.0081 44.119 14.1962C44.328 14.3833 46.706 14.7958 49.401 15.1119L54.302 15.6849L52.024 13.5956C50.546 12.2398 48.562 11.5495 46.373 11.6303C43.544 11.7356 42.984 11.4028 42.9 9.57046C42.807 7.52443 42.755 7.54215 42.083 9.84615C41.386 12.2378 41.332 12.2063 40.145 8.73452C39.474 6.76923 37.929 4.34412 36.712 3.34474C35.496 2.34634 35.063 2.16025 35.75 2.9312ZM17.345 7.42695C17.019 8.26289 16.976 9.16677 17.249 9.43557C17.523 9.70437 17.986 9.02006 18.279 7.91631C18.903 5.56997 18.21 5.20763 17.345 7.42695ZM29.667 11.4875C28.735 12.4052 28.835 13.7846 29.833 13.7846C30.292 13.7846 30.667 13.12 30.667 12.3077C30.667 10.6348 30.594 10.5748 29.667 11.4875ZM0 13.8092C0 14.337 1.155 14.7692 2.566 14.7692C3.977 14.7692 5.934 15.1916 6.914 15.7086C7.977 16.2688 9.868 16.3033 11.598 15.7932C14.954 14.8047 14.856 14.7308 9.5 14.2336C7.3 14.0288 4.263 13.634 2.75 13.3553C1.237 13.0767 0 13.2815 0 13.8092ZM22.399 14.0308C22.003 14.7082 22.062 14.9189 22.53 14.4994C22.998 14.081 23.933 14.9671 24.609 16.4687C25.377 18.177 25.868 18.5846 25.919 17.5577C26.11 13.6871 23.896 11.4688 22.399 14.0308ZM35.789 15.1582C35.08 15.9134 34.114 16.3013 33.643 16.0197C33.172 15.7381 33.397 15.1266 34.143 14.6609C36.253 13.3445 37.218 13.6359 35.789 15.1582ZM38 17.1254C38 17.3381 37.302 17.7762 36.448 18.0992C35.558 18.435 35.157 18.2695 35.507 17.7122C36.094 16.7759 38 16.3279 38 17.1254ZM3.581 19.261C2.711 20.1177 2 20.3431 2 19.7622C2 19.1823 1.55 18.7077 1 18.7077C0.45 18.7077 0 19.5938 0 20.6769C0 22.7279 3.264 26.5846 5 26.5846C5.55 26.5846 6 27.0277 6 27.5692C6 28.1108 4.889 28.5538 3.531 28.5538C1.748 28.5538 1.223 28.1442 1.638 27.0769C1.955 26.2646 1.716 25.6 1.107 25.6C0.462 25.6 0 27.4481 0 30.0308C0 34.0401 0.226 34.4615 2.378 34.4615C4.83 34.4615 7.78 31.9478 6.643 30.8273C6.289 30.4798 6 30.7417 6 31.4102C6 32.2009 5.258 32.3929 3.875 31.9606C2.258 31.4555 1.938 31.617 2.535 32.6331C2.967 33.3676 2.935 33.6236 2.465 33.2022C0.256 31.2231 1.247 29.5385 4.62 29.5385C6.752 29.5385 8.281 28.9782 8.636 28.0674C8.952 27.2581 9.561 26.8101 9.991 27.072C10.422 27.3339 11.387 26.7766 12.137 25.8353C13.393 24.257 13.352 24.2383 11.606 25.5921C9.832 26.9676 9.759 26.9056 10.457 24.6075C10.867 23.2576 11.918 21.6005 12.792 20.9231C15.445 18.8702 13.015 19.5476 9.904 21.7285L7 23.7647V21.2943C7 18.1228 5.589 17.2839 3.581 19.261ZM38 20.1541C38 21.0688 37.418 21.3799 36.416 21.0009C35.141 20.5194 35.092 20.2407 36.166 19.5702C37.942 18.4615 38 18.4802 38 20.1541ZM41 21.6034C41 22.1135 41.445 22.8007 41.989 23.1316C42.555 23.4762 42.723 23.0814 42.382 22.205C41.717 20.4997 41 20.1876 41 21.6034ZM29.662 28.8C29.385 29.4774 29.158 28.9231 29.158 27.5692C29.158 26.2154 29.385 25.662 29.662 26.3385C29.94 27.0159 29.94 28.1236 29.662 28.8ZM1.75 36.865C-0.185 38.2582 -0.618 42.8308 1.087 43.8686C1.87 44.3451 1.87 44.8295 1.087 45.6005C0.489 46.1893 0 47.0902 0 47.6022C0 48.9659 5.191 43.2276 5.434 41.5951C5.548 40.834 6.284 39.7627 7.07 39.2133C8.218 38.4108 8.155 38.3232 6.75 38.7682C4.831 39.3758 4.433 38.3675 5.988 36.8364C7.499 35.3487 3.822 35.3733 1.75 36.865ZM4.607 40.8901C4.726 41.6866 4.441 42.3385 3.974 42.3385C3.507 42.3385 3.191 41.471 3.272 40.4116C3.433 38.2976 4.265 38.595 4.607 40.8901ZM61 39.3265C61 39.8996 59.987 40.4204 58.75 40.4834C57.107 40.5671 56.963 40.7178 58.219 41.0417C60.467 41.6236 63.685 39.9183 62.128 38.9701C61.508 38.593 61 38.7535 61 39.3265ZM55 47.2615C53.059 48.4962 59.581 48.4962 62.5 47.2615C64.071 46.5969 63.643 46.4039 60.5 46.3616C58.3 46.3311 55.825 46.7367 55 47.2615ZM21.349 54.6777C20.556 56.7129 20 56.4736 20 54.0958C20 52.9812 20.43 52.3303 20.956 52.6503C21.482 52.9703 21.659 53.8831 21.349 54.6777Z" fill="#B3694C"/>
<path fill-rule="evenodd" clip-rule="evenodd" d="M26.75 0.651817C27.438 0.92554 28.563 0.92554 29.25 0.651817C29.938 0.379079 29.375 0.155571 28 0.155571C26.625 0.155571 26.063 0.379079 26.75 0.651817ZM35.75 3.00603C37.599 4.96837 37.277 6.46203 34.75 7.64455C32.617 8.64295 32.654 8.68923 35.461 8.53366C37.733 8.40763 38.485 8.82708 38.693 10.3385C38.843 11.4215 38.726 11.8006 38.434 11.1813C38.143 10.562 37.031 10.2804 35.963 10.5551C34.896 10.8298 34.25 11.4166 34.528 11.8597C34.805 12.3018 34.506 12.9841 33.862 13.376C33.131 13.821 32.959 13.6625 33.405 12.9526C33.797 12.3274 33.641 11.8154 33.059 11.8154C32.477 11.8154 32 12.285 32 12.8581C32 13.4311 31.543 13.6222 30.984 13.2825C30.425 12.9418 30.266 12.1403 30.63 11.5013C31.043 10.7786 30.768 10.8199 29.905 11.6106C28.942 12.4928 28.851 13.0954 29.609 13.5798C30.209 13.9628 31.234 15.2734 31.885 16.4923C33.012 18.5974 33.193 18.6289 35.535 17.1175C37.915 15.5825 38.001 15.6081 38.015 17.856C38.024 19.137 38.493 20.8492 39.059 21.6615C39.857 22.8076 40.043 22.4778 39.894 20.1846C39.788 18.56 40.033 16.0512 40.437 14.6107C41.246 11.7258 38.263 3.7888 35.863 2.44382C34.763 1.82843 34.742 1.93674 35.75 3.00603ZM17.345 7.42695C17.019 8.26289 16.976 9.16677 17.249 9.43557C17.523 9.70437 17.986 9.02006 18.279 7.91631C18.903 5.56997 18.21 5.20763 17.345 7.42695ZM22.399 14.0308C22.003 14.7082 22.062 14.9189 22.53 14.4994C22.998 14.081 23.933 14.9671 24.609 16.4687C25.377 18.177 25.868 18.5846 25.919 17.5577C26.11 13.6871 23.896 11.4688 22.399 14.0308ZM36.248 15.2901C35.01 16.1497 33.547 16.579 32.998 16.2452C31.116 15.1001 32.002 14.2031 35.25 13.9658C38.483 13.7295 38.488 13.7364 36.248 15.2901ZM27.875 16.7385C27.806 17.28 27.637 18.1662 27.5 18.7077C27.363 19.2492 27.194 20.3835 27.125 21.2273C27.056 22.0711 26.582 22.5083 26.072 22.1972C24.859 21.4597 23.658 25.219 24.596 26.8219C24.994 27.5033 24.977 27.7573 24.557 27.3851C24.137 27.0139 22.04 28.419 19.897 30.5083C17.205 33.1323 15.997 35.1685 15.991 37.0924C15.983 39.8494 10.069 47.2615 7.878 47.2615C7.33 47.2615 7.141 47.6741 7.458 48.1792C7.775 48.6843 6.789 49.2377 5.267 49.41C3.351 49.6266 2.543 50.2528 2.639 51.4462C2.83 53.823 2.113 53.6034 1.031 50.9538C0.272001 49.0949 0.117001 49.406 0.0630009 52.8847C0.00200092 56.8734 0.143001 57.0673 3.75 57.9525C9.837 59.4481 14.59 60.1157 13.303 59.2955C12.644 58.8761 12.422 58.0283 12.809 57.4119C13.642 56.0847 16.317 57.6778 17.259 60.0615C17.58 60.8738 17.878 58.9913 17.921 55.8769C17.997 50.4428 18.105 50.2154 20.624 50.2154C23.198 50.2154 23.239 50.3198 22.784 55.7214C22.511 58.9558 21.739 61.5897 20.91 62.1066C19.758 62.8244 19.807 62.9878 21.18 63.0006C22.135 63.0085 23.048 62.0583 23.294 60.8L23.728 58.5846L23.864 60.8C23.994 62.9238 24.374 63.0154 33 63.0154C42.503 63.0154 42.378 63.0863 42.041 57.9436C41.812 54.4512 43.312 53.7423 45.616 56.253C48.469 59.3615 56.493 63.0154 60.467 63.0154H64V56.4923V49.9692L60.75 50.6978C55.667 51.838 44.125 52.1964 43.52 51.2325C43.22 50.754 43.508 49.2101 44.16 47.8011C45.085 45.8014 45.073 44.9743 44.106 44.035C43.126 43.0838 42.583 43.2069 41.524 44.6188C40.41 46.1036 39.855 46.2041 38.24 45.2116C35.258 43.3772 33.542 40.2718 35.015 39.3758C35.724 38.9435 35.939 37.7915 35.54 36.5538C34.933 34.6713 35.248 34.4596 38.683 34.4468C41.226 34.4359 42.043 34.1465 41.132 33.5783C39.085 32.3013 34.475 33.8688 34.639 35.7868C34.828 38.0022 33.686 37.8319 31.405 35.3054C30.357 34.1445 28.234 32.4263 26.687 31.487L23.873 29.7797L26.652 27.6273C29.265 25.6039 29.468 25.5823 30.067 27.261C30.623 28.8187 30.804 28.737 31.485 26.6279C32.094 24.7404 31.807 23.9104 30.176 22.8441C28.565 21.7905 28.22 20.8236 28.669 18.6161C28.988 17.0417 28.969 15.7538 28.625 15.7538C28.281 15.7538 27.944 16.1969 27.875 16.7385ZM3 20.7675C3 21.9008 3.894 23.9468 4.986 25.3145C6.079 26.6821 6.727 28.1915 6.427 28.67C6.127 29.1476 6.373 29.5385 6.972 29.5385C7.572 29.5385 8.321 28.8768 8.636 28.0674C8.952 27.2581 9.561 26.8101 9.991 27.072C10.422 27.3339 11.387 26.7766 12.137 25.8353C13.37 24.2855 13.334 24.2511 11.75 25.474C10.263 26.623 10 26.6181 10 25.4474C10 24.6892 10.736 23.0351 11.635 21.7708L13.269 19.4727L10.643 21.1673C9.199 22.0987 8.265 23.2566 8.568 23.7381C8.87 24.2206 8.81 25.1057 8.434 25.7054C7.45 27.2729 6.034 24.7621 6.015 21.4154C6.005 19.6716 5.466 18.7077 4.5 18.7077C3.645 18.7077 3 19.5929 3 20.7675ZM35.07 21.4154C35.109 21.822 35.529 23.04 36.005 24.1231C36.75 25.8225 36.848 25.7211 36.716 23.3846C36.632 21.8959 36.212 20.6769 35.782 20.6769C35.352 20.6769 35.032 21.0087 35.07 21.4154ZM0.0150009 30.2769C0.00200092 34.0313 0.245001 34.4615 2.378 34.4615C4.83 34.4615 7.78 31.9478 6.643 30.8273C6.289 30.4798 6 30.7417 6 31.4102C6 32.2009 5.258 32.3929 3.875 31.9606C2.312 31.4722 1.956 31.6249 2.529 32.5386C3.02 33.3214 2.904 33.535 2.216 33.1156C1.615 32.7503 1.28 31.6475 1.472 30.6649C1.664 29.6822 1.419 28.2516 0.926001 27.4855C0.316001 26.5364 0.0260009 27.4274 0.0150009 30.2769ZM43.035 29.4735C41.664 31.9961 41.683 32.0492 44 32.2215C45.1 32.3033 46 31.9281 46 31.3886C46 30.849 45.55 30.6806 45 31.0154C43.6 31.8671 43.749 30.1794 45.2 28.7508C46.093 27.8715 46.102 27.5692 45.235 27.5692C44.595 27.5692 43.605 28.4258 43.035 29.4735ZM1.75 36.865C-0.0389991 38.1529 -0.639999 40.3692 0.800001 40.3692C1.24 40.3692 2.14 39.8375 2.8 39.1877C3.46 38.5378 4.034 38.206 4.077 38.4492C4.119 38.6924 4.304 39.6682 4.488 40.6154C4.836 42.4044 3.42 43.0631 2.833 41.3854C2.65 40.8615 1.976 40.7532 1.335 41.1451C0.455001 41.6847 0.469001 42.2607 1.393 43.5042C2.794 45.3908 5 44.5125 5.387 41.9151C5.526 40.9787 6.284 39.7627 7.07 39.2133C8.218 38.4108 8.155 38.3232 6.75 38.7682C4.831 39.3758 4.433 38.3675 5.988 36.8364C7.499 35.3487 3.822 35.3733 1.75 36.865ZM42.5 40.831C44.471 42.4222 46.786 43.264 49.25 43.2876C51.313 43.3073 53 43.0858 53 42.7953C53 41.9013 43.962 38.4 41.667 38.4049C39.669 38.4098 39.734 38.5989 42.5 40.831ZM9.19681e-07 47.3196C9.19681e-07 47.8927 0.450001 48.0886 1 47.7538C1.55 47.4191 2 46.9504 2 46.7111C2 46.4719 1.55 46.2769 1 46.2769C0.450001 46.2769 9.19681e-07 46.7466 9.19681e-07 47.3196ZM16.524 54.2277C17.488 57.218 16.514 57.5252 15.184 54.6501C14.556 53.2943 14.453 52.1846 14.954 52.1846C15.455 52.1846 16.162 53.1042 16.524 54.2277Z" fill="#7D4844"/>
<path fill-rule="evenodd" clip-rule="evenodd" d="M36.165 6.77415C35.16 7.39939 35.369 7.74203 37.014 8.16542C38.941 8.66166 39.129 9.2032 38.622 12.7774C38.263 15.2999 38.415 16.6026 39.023 16.2324C40.417 15.3836 40.232 9.54388 38.75 7.59138C37.949 6.53686 37.02 6.24246 36.165 6.77415ZM35.571 11.393C33.427 13.504 33.598 14.0652 36 12.8C37.1 12.2201 38 11.3182 38 10.7963C38 9.45822 37.383 9.60985 35.571 11.393ZM29.667 11.4875C28.735 12.4052 28.835 13.7846 29.833 13.7846C30.292 13.7846 30.667 13.12 30.667 12.3077C30.667 10.6348 30.594 10.5748 29.667 11.4875ZM27.638 17.2308C27.322 18.0431 27.499 18.7077 28.031 18.7077C28.564 18.7077 29 18.0431 29 17.2308C29 16.4185 28.823 15.7538 28.607 15.7538C28.391 15.7538 27.955 16.4185 27.638 17.2308ZM10.872 21.4154C9.629 22.977 9.664 23.0114 11.25 21.7876C12.916 20.5007 13.445 19.6923 12.622 19.6923C12.415 19.6923 11.627 20.4682 10.872 21.4154ZM27.116 20.9812C27.052 21.9609 26.592 22.5142 26.093 22.211C25.595 21.9067 25.409 22.656 25.68 23.8759C26.076 25.6561 25.963 25.8018 25.102 24.6154C23.886 22.9396 23.773 24.1851 24.886 26.9794C25.544 28.6306 25.782 28.4948 26.905 25.8265C27.605 24.1634 27.964 21.9914 27.705 21.0009C27.254 19.2847 27.227 19.2837 27.116 20.9812ZM0 28.5538C0 29.0954 0.477 29.5385 1.059 29.5385C1.641 29.5385 1.84 29.0954 1.5 28.5538C1.16 28.0123 0.684 27.5692 0.441 27.5692C0.198 27.5692 0 28.0123 0 28.5538ZM18.923 31.4319C17.079 33.2475 15.997 35.3378 15.991 37.0934C15.983 39.9193 10.046 47.2615 7.77 47.2615C7.163 47.2615 6.936 47.5274 7.266 47.8513C7.596 48.1762 6.53 49.727 4.898 51.2975C3.266 52.8689 2.37 54.1538 2.907 54.1538C3.443 54.1538 4.158 53.7137 4.495 53.1761C4.834 52.6375 6.179 53.4105 7.495 54.8992L9.881 57.6L9.375 52.9231C8.859 48.1546 10.301 46.3547 11.348 50.4615C11.659 51.6795 12.61 53.5631 13.462 54.6462C14.931 56.513 14.959 56.4706 14.006 53.8437C13.453 52.3195 13 50.7372 13 50.3276C13 48.9728 22.77 49.0526 23.625 50.4143C24.69 52.1118 25.041 57.1077 24.095 57.1077C23.683 57.1077 23.547 58.4537 23.792 60.098L24.238 63.0882L32.869 62.8057L41.5 62.5231L41.708 58.8308C41.87 55.9478 41.541 55.1237 40.208 55.0695C38.796 55.0124 38.846 54.8539 40.5 54.1538C41.847 53.5838 42.01 53.2805 41 53.2234C40.02 53.1682 39.881 52.8886 40.6 52.416C41.719 51.6805 44 47.8966 44 46.7761C44 46.4374 43.55 46.4345 43 46.7692C42.45 47.104 42 46.8766 42 46.2651C42 45.6379 41.288 45.8526 40.371 46.7554C39.475 47.6377 38.148 48.1349 37.422 47.8602C36.522 47.5205 36.304 47.8937 36.738 49.0348C37.313 50.5452 37.195 50.5639 35.534 49.2308C34.521 48.4185 33.537 47.8641 33.346 48C33.156 48.1359 32.166 48.2462 31.146 48.2462C29.564 48.2462 29.332 47.5609 29.558 43.5692C29.733 40.4775 29.312 38.3291 28.314 37.2313C27.483 36.3175 27.107 34.9883 27.476 34.2774C27.846 33.5665 27.44 33.8452 26.574 34.8958C25.708 35.9473 25 36.2791 25 35.6342C25 34.9893 24.339 34.4615 23.531 34.4615C22.572 34.4615 22.284 35.0297 22.701 36.0999C23.131 37.2017 22.957 37.505 22.17 37.0265C21.461 36.5952 21 36.9418 21 37.9077C21 38.8736 20.539 39.2202 19.83 38.7889C19.007 38.2887 18.889 38.6363 19.431 39.9616C20.564 42.7313 21.02 48.2462 20.115 48.2462C19.685 48.2462 19.286 47.6928 19.227 47.0154C19.169 46.339 18.814 43.3093 18.438 40.2846C17.428 32.1595 20.656 27.9778 25.023 31.7538C25.806 32.4313 25.602 31.9872 24.568 30.7692C23.535 29.5503 22.5 28.5538 22.268 28.5538C22.036 28.5538 20.531 29.8486 18.923 31.4319ZM0.079 32.2462C0.127 33.2859 0.359 33.4789 0.664 32.7326C0.943 32.0522 1.652 31.7883 2.24 32.1457C2.872 32.5307 3.017 32.3318 2.595 31.6603C1.517 29.9422 -0.01 30.2976 0.079 32.2462ZM3.5 33.4769C1.87 34.1671 1.812 34.3355 3.191 34.3926C4.121 34.43 5.16 34.0185 5.5 33.4769C6.211 32.3446 6.176 32.3446 3.5 33.4769ZM4.068 38.3055C1.47 41.8983 1.258 45.5109 3.699 44.5883C4.762 44.1866 4.95 43.7986 4.199 43.5525C3.54 43.3359 3 42.5049 3 41.7063C3 40.8222 3.49 40.5307 4.25 40.961C4.938 41.3509 5.161 41.3017 4.746 40.8517C4.332 40.4017 4.68 39.0016 5.52 37.7403C7.713 34.4438 6.527 34.9066 4.068 38.3055ZM33.733 38.5221C34.412 39.1956 35.219 39.4978 35.526 39.1946C35.834 38.8913 35.279 38.3409 34.293 37.9707C32.868 37.437 32.753 37.5493 33.733 38.5221ZM31 54.6462C30.315 55.4585 29.274 56.1231 28.686 56.1231C28.099 56.1231 28.491 55.4722 29.559 54.6777C32.067 52.8089 32.557 52.799 31 54.6462ZM38.5 58.7943C37.4 59.0553 36.072 59.6677 35.55 60.157C35.028 60.6464 34.127 61.0324 33.55 61.0146C32.973 60.9979 33.374 60.3333 34.441 59.5377C35.509 58.7431 37.309 58.1435 38.441 58.2065C40.45 58.3178 40.451 58.3326 38.5 58.7943Z" fill="#5C1805"/>
</g>
<defs>
<clipPath id="clip0_1_2">
<rect width="64" height="64" rx="32" fill="white"/>
</clipPath>
</defs>
</svg>
