<svg width="250" height="250" viewBox="0 0 250 250" fill="none" xmlns="http://www.w3.org/2000/svg">
<g clip-path="url(#clip0_1_2)">
<path fill-rule="evenodd" clip-rule="evenodd" d="M99.941 1.496C56.381 10.181 19.832 42.711 5.429 85.616C1.175 98.289 0 106.793 0 124.904C0 142.875 0.753 148.957 4.539 161.586C17.742 205.616 55.706 239.961 100.684 248.567C109.596 250.272 138.794 250.506 147.566 248.943C197.665 240.014 239.023 199.198 248.579 149.25C250.272 140.403 250.499 111.166 248.943 102.434C239.995 52.228 199.331 11.003 149.316 1.433C139.824 -0.383003 109.168 -0.344002 99.941 1.496Z" fill="white"/>
<path fill-rule="evenodd" clip-rule="evenodd" d="M105.235 10.434C80.729 15.089 60.061 25.893 42.977 42.977C19.363 66.59 7.85101 96.455 9.27901 130.395C11.472 182.56 46.814 225.145 98.793 238.254C111.434 241.442 138.566 241.442 151.207 238.254C182.533 230.353 207.672 212.179 224.073 185.575C230.111 175.781 234.421 165.561 237.779 153.074C240.08 144.517 240.36 141.588 240.409 125.5C240.457 110.124 240.144 106.231 238.261 98.793C230.322 67.423 212.175 42.325 185.575 25.927C175.674 19.823 165.419 15.52 153.074 12.291C141.1 9.159 116.895 8.219 105.235 10.434ZM185 87.5V106H180H175V92.5V79H144.5C127.725 79 114.003 79.338 114.006 79.75C114.009 80.162 122.56 90.397 133.008 102.494C143.456 114.591 151.891 124.792 151.752 125.163C151.613 125.534 143.261 135.355 133.192 146.988C123.123 158.621 114.634 168.789 114.329 169.584C113.852 170.829 117.995 170.993 144.137 170.765L174.5 170.5L174.779 157.25L175.058 144H180.029H185V162.5V181H142.079H99.158L75.581 153.25C62.613 137.988 52.003 125.198 52.002 124.828C52.001 124.459 56.387 118.983 61.75 112.661C67.112 106.338 77.575 93.957 85 85.149L98.5 69.132L141.75 69.066L185 69V87.5ZM83.054 103.212C73.11 114.879 65.093 124.744 65.237 125.135C65.382 125.525 73.574 135.343 83.443 146.952C100.503 167.019 101.47 167.971 103.092 166.279C104.03 165.301 112.515 155.548 121.948 144.606L139.098 124.712L136.697 122.106C135.377 120.673 126.997 111.063 118.076 100.75C109.155 90.438 101.694 82 101.494 82C101.295 82 92.997 91.545 83.054 103.212Z" fill="#D6D6D6"/>
<path fill-rule="evenodd" clip-rule="evenodd" d="M106.785 10.551C84.258 14.058 62.602 24.829 45.589 40.987C-1.181 85.404 -3.22101 157.862 40.987 204.411C85.404 251.181 157.862 253.221 204.411 209.013C257.056 159.016 251.913 75.236 193.528 31.738C169.103 13.542 137.364 5.789 106.785 10.551ZM185 87V106H179.5H174V92.5V79H144C127.5 79 114 79.248 114 79.551C114 79.854 122.55 89.956 133 102C143.45 114.044 152 124.301 152 124.794C152 125.287 143.463 135.547 133.028 147.595C122.593 159.643 114.043 169.838 114.028 170.25C114.013 170.662 127.5 171 144 171H174V157.5V144H179.5H185V162.5V181L141.75 180.941L98.5 180.881L75.264 153.482C62.484 138.413 51.909 125.683 51.764 125.195C51.619 124.706 62.274 111.637 75.443 96.153L99.386 68H142.193H185V87ZM83.844 102.762C74.151 114.168 66.083 123.95 65.915 124.5C65.543 125.721 100.095 166.855 101.5 166.863C102.501 166.868 137.153 127.041 137.778 125.167C138.035 124.394 111.368 92.55 103.103 83.762C101.57 82.132 100.376 83.31 83.844 102.762Z" fill="#AEAEAE"/>
<path fill-rule="evenodd" clip-rule="evenodd" d="M110.635 10.135C85.275 13.391 61.723 25.032 43.377 43.377C-2.06599 88.821 -2.06599 161.179 43.377 206.623C88.821 252.066 161.179 252.066 206.623 206.623C252.066 161.179 252.066 88.821 206.623 43.377C181.144 17.899 145.717 5.62901 110.635 10.135ZM185 87V106H179.5H174V92.5V79H143.878C114.43 79 113.787 79.043 115.128 80.908C115.883 81.957 124.698 92.264 134.717 103.814L152.935 124.812L133.439 147.406L113.942 170H143.971H174V157V144H179.5H185V162.5V181L141.75 180.995L98.5 180.989L74.648 152.936C53.092 127.583 50.935 124.72 52.243 123.191C53.038 122.261 63.915 109.463 76.413 94.75L99.137 68H142.069H185V87ZM83.089 103.694C66.887 122.825 65.769 124.401 67 126.377C67.728 127.545 75.771 137.225 84.874 147.889L101.425 167.278L105.338 162.889C107.49 160.475 115.758 150.971 123.712 141.768L138.173 125.036L135.837 122.088C128.271 112.542 102.339 83.114 101.5 83.123C100.95 83.129 92.665 92.386 83.089 103.694Z" fill="#989898"/>
<path fill-rule="evenodd" clip-rule="evenodd" d="M116.5 9.62301C62.767 14.929 21.313 52.107 11.349 103.929C9.4 114.068 9.177 134.548 10.913 144C19.845 192.626 56.023 229.44 103.929 238.651C114.068 240.6 134.548 240.823 144 239.087C192.626 230.155 229.44 193.977 238.651 146.071C240.6 135.932 240.823 115.452 239.087 106C231.236 63.26 202.108 29.142 161.749 15.415C149.208 11.149 128.233 8.46401 116.5 9.62301ZM185 87V106H179.5H174V92.5V79H144.5C128.275 79 115 79.387 115 79.861C115 80.335 121.451 88.164 129.336 97.26C137.221 106.355 145.813 116.304 148.43 119.367L153.189 124.937L134.094 146.891C123.592 158.967 115 169.106 115 169.423C115 169.74 128.262 170 144.471 170H173.942L174.221 156.75L174.5 143.5L179.75 143.198L185 142.895V162.448V182H142.097H99.195L75.347 153.939C62.231 138.506 51.379 125.543 51.231 125.133C51.084 124.723 55.348 119.238 60.707 112.944C66.067 106.65 76.885 93.963 84.747 84.75L99.042 68H142.021H185V87ZM84.032 103.02C74.616 114.044 66.706 123.612 66.453 124.282C66.103 125.21 93.142 158.262 100.423 165.806C101.449 166.869 105.075 163.182 119.894 146.013L138.106 124.914L135.803 122.187C125.389 109.856 102.846 84.023 102.092 83.557C101.575 83.237 93.448 91.996 84.032 103.02Z" fill="#747474"/>
<path fill-rule="evenodd" clip-rule="evenodd" d="M104.178 11.507C57.271 20.005 19.697 57.847 11.467 104.881C9.58699 115.622 9.58799 134.377 11.469 145.164C19.718 192.467 57.513 230.244 104.881 238.533C115.622 240.413 134.377 240.412 145.164 238.531C192.467 230.282 230.244 192.487 238.533 145.119C240.413 134.378 240.412 115.623 238.531 104.836C230.282 57.533 192.487 19.756 145.119 11.467C134.898 9.67799 114.161 9.69799 104.178 11.507ZM186 87V106H180H174V93V80H144.407H114.814L118.804 84.75C120.998 87.362 129.597 97.352 137.914 106.949C146.23 116.546 152.914 124.73 152.767 125.137C152.62 125.543 144.625 134.971 135 146.088C125.375 157.205 116.912 167.133 116.193 168.151C114.931 169.938 115.884 170 144.443 170H174V156.45V142.9L179.75 143.2L185.5 143.5V162.5V181.5H142.057H98.615L74.776 153.53C61.665 138.147 51.064 125.073 51.219 124.478C51.374 123.883 62.075 110.946 75 95.731L98.5 68.066L142.25 68.033L186 68V87ZM84.957 102.25C75.996 112.838 68.017 122.263 67.226 123.196C65.928 124.727 67.531 126.948 83.627 145.927C97.415 162.183 101.729 166.681 102.618 165.73C103.25 165.054 111.461 155.582 120.863 144.681L137.958 124.863L119.87 103.931C109.922 92.419 101.662 83 101.516 83C101.37 83 93.918 91.662 84.957 102.25Z" fill="#535353"/>
<path fill-rule="evenodd" clip-rule="evenodd" d="M105.235 11.434C89.367 14.448 73.785 20.762 60.334 29.627C50.759 35.936 36.45 50.495 29.364 61.135C17.079 79.581 11.205 97.577 10.279 119.605C9.399 140.519 12.893 157.894 21.436 175.086C27.787 187.868 32.387 194.374 42.486 204.86C63.472 226.65 89.595 238.459 119.605 239.721C140.519 240.601 157.894 237.107 175.086 228.564C187.868 222.213 194.374 217.613 204.86 207.514C226.65 186.528 238.459 160.405 239.721 130.395C240.601 109.481 237.107 92.106 228.564 74.914C222.213 62.132 217.613 55.626 207.514 45.14C192.385 29.431 174.303 18.842 153.17 13.315C141.098 10.158 116.942 9.21 105.235 11.434ZM185.772 87.25L185.5 106.5L179.75 106.8L174 107.1V93.55V80H144.43H114.859L124.155 90.75C129.267 96.662 137.89 106.58 143.317 112.788C148.744 118.997 152.972 124.63 152.713 125.306C152.348 126.257 134.131 147.691 116.215 168.25C114.767 169.912 116.188 170 144.345 170H174V156.5V143H180H186V162.5V182L142.25 181.954L98.5 181.908L74.744 153.937C61.679 138.553 50.879 125.6 50.744 125.152C50.61 124.704 61.283 111.661 74.462 96.169L98.424 68H142.233H186.043L185.772 87.25ZM86.484 100.65C78.243 110.336 70.253 119.749 68.728 121.568L65.957 124.876L83.228 145.115C92.728 156.247 100.95 165.465 101.5 165.6C102.48 165.84 136.035 127.395 136.77 125.191C137.049 124.353 112.542 94.998 102.607 84.27C101.73 83.322 98.028 87.083 86.484 100.65Z" fill="#333333"/>
<path fill-rule="evenodd" clip-rule="evenodd" d="M109.5 11.127C85.7 14.1 61.759 26.068 43.914 43.914C-1.106 88.933 -1.106 161.067 43.914 206.086C88.933 251.106 161.067 251.106 206.086 206.086C251.106 161.067 251.106 88.933 206.086 43.914C180.505 18.332 145.889 6.58201 109.5 11.127ZM186 87.548V107.095L179.75 106.798L173.5 106.5L173.221 93.25L172.942 80H144.412C121.853 80 116.039 80.262 116.634 81.25C117.376 82.483 147.033 117.037 151.71 122.117L154.12 124.734L135.31 146.448C124.964 158.39 116.35 168.575 116.167 169.081C115.969 169.626 127.46 170 144.417 170H173V156.5V143H179.5H186V162.5V182H142.193H98.385L74.09 153.442C52.141 127.641 49.935 124.72 51.24 123.192C52.034 122.261 62.922 109.463 75.435 94.75L98.185 68H142.093H186V87.548ZM95.77 90.246C69.494 120.641 66.679 124.257 67.843 126.121C68.475 127.132 76.3 136.568 85.232 147.089L101.472 166.218L104.832 162.359C136.532 125.946 137.293 124.984 135.79 123.217C123.603 108.887 102.73 84.951 102.057 84.535C101.573 84.236 98.744 86.806 95.77 90.246Z" fill="#1E1E1E"/>
</g>
<defs>
<clipPath id="clip0_1_2">
<rect width="250" height="250" rx="125" fill="white"/>
</clipPath>
</defs>
</svg>
