<svg width="64" height="65" viewBox="0 0 64 65" fill="none" xmlns="http://www.w3.org/2000/svg">
<path fill-rule="evenodd" clip-rule="evenodd" d="M0 32V64H32H64V32V0H32H0V32Z" fill="#FAC229"/>
<path fill-rule="evenodd" clip-rule="evenodd" d="M0 32V64H32H64V32V0H32H0V32ZM45.985 18.75C46.016 21.269 44.43 19.915 44.228 17.25C44.069 15.144 44.248 14.851 44.995 16C45.531 16.825 45.976 18.063 45.985 18.75ZM51.063 25.641C52.449 29.388 50.761 30.125 46.089 27.814L41.768 25.676L45.134 24.464C49.347 22.947 50.123 23.101 51.063 25.641ZM41 25C41 25.55 40.55 26 40 26C39.45 26 39 25.55 39 25C39 24.45 39.45 24 40 24C40.55 24 41 24.45 41 25ZM43.62 42.809C42.755 43.673 41.748 44.081 41.381 43.715C40.422 42.756 43.036 39.904 44.209 40.629C44.794 40.991 44.555 41.874 43.62 42.809ZM49.5 41C49.16 41.55 48.346 41.993 47.691 41.985C46.975 41.975 47.099 41.582 48 41C49.921 39.758 50.267 39.758 49.5 41Z" fill="white"/>
<path fill-rule="evenodd" clip-rule="evenodd" d="M43 13.488C43 14.435 42.182 14.89 40.753 14.738C39.095 14.562 38.422 15.089 38.184 16.75C38.006 17.988 37.277 19 36.564 19C35.686 19 35.263 20.532 35.255 23.75C35.24 28.977 34.41 33.341 32.797 36.673C32.098 38.117 32.039 41.471 32.622 46.673C33.363 53.279 33.77 54.455 35.234 54.21C36.439 54.008 36.788 54.389 36.377 55.46C35.992 56.462 34.496 57 32.093 57C30.062 57 27.86 57.54 27.2 58.2C25.766 59.634 25.592 64 26.969 64C27.501 64 27.676 63.319 27.357 62.487C26.491 60.232 28.861 58 32.122 58C34.304 58 35 58.469 35 59.941C35 63.769 36.754 62.874 37.305 58.764C37.617 56.434 38.674 53.949 39.684 53.173C41.305 51.926 41.098 51.847 37.75 52.434L34 53.091L34.136 49.295C34.234 46.564 34.398 46.201 34.721 48C35.406 51.818 36.802 52.651 37.859 49.872C38.372 48.522 39.445 46.875 40.244 46.212C42.021 44.738 43.717 46.411 46.943 52.826C49.075 57.066 49.166 57.121 51.524 55.576C54.681 53.508 55 53.574 55 56.3C55 58.277 54.491 58.6 51.371 58.6C48.772 58.6 47.204 59.265 45.846 60.942C43.484 63.859 44.288 64.954 46.994 62.506C48.796 60.875 49 60.858 49 62.345C49 64.942 58.556 64.699 59.965 62.066C61.602 59.007 61.15 54.044 58.567 46.726C57.044 42.41 56.598 40.004 57.338 40.095C59.849 40.402 61.088 39.952 60.473 38.956C60.118 38.382 60.372 37.257 61.036 36.456C62.003 35.291 61.944 35 60.739 35C59.911 35 58.962 33.987 58.63 32.75C57.744 29.441 57.846 29 59.5 29C61.671 29 61.341 27.253 58.925 25.96C57.167 25.019 56.95 24.255 57.507 20.961C58.285 16.352 57.469 14.366 55.475 16.021C54.508 16.823 53.564 16.837 52.13 16.069C51.031 15.481 49.188 15 48.034 15C46.881 15 45.678 14.325 45.362 13.5C44.619 11.564 43 11.556 43 13.488ZM45.985 18.75C46.016 21.269 44.43 19.915 44.228 17.25C44.069 15.144 44.248 14.851 44.995 16C45.531 16.825 45.976 18.063 45.985 18.75ZM41 25.059C41 25.577 40.339 26 39.531 26C38.639 26 38.288 25.413 38.636 24.506C39.226 22.967 41 23.383 41 25.059ZM51.053 25.614C52.462 29.422 50.76 30.127 45.956 27.726C42.003 25.751 41.772 25.462 43.912 25.159C45.593 24.922 45.933 24.576 45.032 24.02C44.247 23.535 45.025 23.286 47.014 23.386C49.319 23.502 50.516 24.162 51.053 25.614ZM47.56 30.451C48.443 31.799 49.01 33.711 48.819 34.701C48.365 37.056 44.503 37.11 44.501 34.761C44.501 33.805 44.05 33.062 43.5 33.111C42.95 33.16 42.585 33.523 42.689 33.918C42.793 34.313 41.597 34.448 40.03 34.218C38.198 33.949 36.987 33.059 36.639 31.726C35.831 28.637 36.668 28 41.536 28C45.121 28 46.257 28.462 47.56 30.451ZM10.744 31.558C10.241 34.191 11.473 35.89 12.338 33.756C12.682 32.909 13.117 32.839 13.674 33.541C14.128 34.114 18.183 34.68 22.683 34.8L30.867 35.017L30.782 32.034C30.697 29.059 30.685 29.053 25.099 29.305C20.186 29.527 19.529 29.799 19.734 31.529C19.955 33.381 19.904 33.374 18.902 31.409C18.171 29.975 16.797 29.279 14.528 29.194C11.752 29.089 11.143 29.47 10.744 31.558ZM26.683 33.188C26.364 33.985 26.127 33.748 26.079 32.583C26.036 31.529 26.272 30.939 26.604 31.271C26.936 31.603 26.972 32.466 26.683 33.188ZM43.62 42.809C42.755 43.673 41.748 44.081 41.381 43.715C40.422 42.756 43.036 39.904 44.209 40.629C44.794 40.991 44.555 41.874 43.62 42.809ZM49.5 41C49.16 41.55 49.584 42 50.441 42C51.482 42 51.991 42.915 51.973 44.75L51.947 47.5L50.242 44.75C49.304 43.237 48.078 41.993 47.518 41.985C46.958 41.976 47.175 41.533 48 41C49.921 39.758 50.267 39.758 49.5 41ZM47.005 45.75C47.53 47.263 48.623 49.737 49.434 51.25C50.244 52.763 50.59 53.994 50.203 53.986C49.547 53.972 44 44.596 44 43.499C44 41.806 46.21 43.461 47.005 45.75Z" fill="#D2D2D2"/>
<path fill-rule="evenodd" clip-rule="evenodd" d="M44.479 14C44.837 15.375 45.379 17.288 45.682 18.25C45.985 19.212 45.731 20 45.117 20C44.502 20 44.053 19.663 44.118 19.25C44.51 16.769 43.745 15.167 41.945 14.696C40.422 14.298 39.652 14.785 38.97 16.579C38.464 17.911 37.308 19 36.402 19C35.102 19 35 19.296 35.919 20.403C36.813 21.48 36.784 21.926 35.792 22.327C34.781 22.734 34.82 23.07 35.974 23.871C36.988 24.576 37.654 24.56 38.112 23.819C38.792 22.718 41 23.519 41 24.866C41 25.277 39.987 26.062 38.75 26.609C37.513 27.157 37.099 27.469 37.832 27.303C38.564 27.136 40.053 27 41.141 27C42.228 27 42.84 26.55 42.5 26C42.16 25.449 42.919 24.968 44.191 24.93C46.367 24.863 46.385 24.811 44.5 24.022C43.015 23.4 43.507 23.235 46.414 23.383C49.28 23.529 50.518 24.107 51.039 25.541C51.43 26.619 51.523 27.888 51.247 28.362C50.97 28.836 51.273 29.551 51.919 29.95C52.762 30.471 52.604 31.075 51.36 32.088C49.824 33.338 49.701 33.3 50.281 31.75C50.642 30.788 50.501 30 49.969 30C49.436 30 49 31.527 49 33.393C49 35.604 48.433 37.003 47.373 37.41C45.222 38.236 42.981 36.287 43.654 34.177C44.003 33.083 43.891 32.908 43.333 33.673C42.42 34.924 35.289 34.018 35.75 32.709C35.888 32.319 35.663 32.099 35.25 32.22C34.837 32.342 34.624 32.983 34.777 33.645C34.929 34.307 34.611 35.123 34.07 35.457C33.53 35.791 33.341 36.725 33.651 37.532C33.96 38.339 33.705 39 33.084 39C32.338 39 32.447 39.766 33.403 41.25C34.2 42.487 35.153 45.147 35.52 47.16L36.189 50.82L38.982 47.694C41.328 45.069 42.02 44.772 43.309 45.841C44.611 46.922 44.766 46.821 44.334 45.17C44.055 44.101 44.337 42.91 44.961 42.524C45.678 42.081 46.885 43.687 48.234 46.88C49.906 50.838 50.656 51.7 51.685 50.846C52.672 50.027 53 50.129 53 51.255C53 52.737 50.278 55.652 49.603 54.893C49.411 54.677 48.511 53.038 47.601 51.25C46.692 49.462 45.726 48 45.454 48C45.182 48 45.878 49.8 47 52C49.334 56.574 49.97 56.796 52.559 53.935C54.326 51.982 54.467 51.969 55.144 53.685C55.537 54.683 55.891 56.422 55.93 57.549C55.99 59.312 55.477 59.558 52.25 59.306C50.188 59.146 49.015 59.257 49.644 59.555C50.273 59.852 50.558 60.974 50.277 62.048C49.827 63.77 50.296 64 54.262 64C58.308 64 58.881 63.702 59.993 61.017C61.43 57.547 60.732 52.528 57.921 46.123C55.497 40.599 55.516 40 58.122 40C59.812 40 60.012 39.719 59.101 38.622C58.199 37.535 58.437 37.091 60.229 36.516C61.983 35.954 62.133 35.688 60.889 35.348C60.003 35.105 58.766 33.782 58.139 32.406C56.638 29.112 56.666 29 59 29C61.583 29 61.523 28.614 58.461 25.552C56.414 23.505 56.124 22.638 56.961 21.072C58.688 17.846 58.266 15.697 56.021 16.284C53.429 16.962 46.135 14.781 44.841 12.942C44.09 11.875 43.996 12.15 44.479 14ZM52.655 22.543C53.585 24.967 52.287 25.405 51.046 23.086C50.272 21.639 50.257 21 50.996 21C51.583 21 52.329 21.694 52.655 22.543ZM11.079 32.25C11.122 34.038 11.385 34.938 11.662 34.25C11.94 33.563 12.831 33 13.642 33C14.454 33 14.895 33.362 14.621 33.804C14.348 34.246 15.672 34.651 17.562 34.705C20.796 34.796 20.993 34.615 20.882 31.651L20.763 28.5L20.088 31.5L19.412 34.5L18.687 31.75C17.89 28.725 16.533 28.169 15.638 30.5C15.322 31.325 14.544 32 13.909 32C13.078 32 13.103 31.581 14 30.5C15.04 29.247 14.896 29 13.122 29C11.378 29 11.014 29.579 11.079 32.25ZM22 31.714C22 33.78 22.514 34.613 23.85 34.714C26.375 34.904 26.28 29.675 23.75 29.189C22.413 28.933 22 29.528 22 31.714ZM27 30.441C27 31.234 27.498 32.19 28.107 32.566C28.878 33.043 28.803 33.51 27.857 34.11C26.79 34.786 26.861 34.973 28.191 34.985C30.393 35.005 31.037 33.859 30.335 31.174C29.705 28.762 27 28.168 27 30.441ZM41.263 36.25C42.682 37.328 42.718 37.753 41.527 39.341C39.596 41.916 36 40.674 36 37.433C36 34.703 38.491 34.143 41.263 36.25ZM49.667 39.456C49.667 40.257 49.249 40.654 48.738 40.338C48.228 40.023 46.467 40.757 44.826 41.97C43.185 43.183 41.589 43.922 41.279 43.612C40.439 42.772 43.083 39.933 44.113 40.57C44.601 40.871 45 40.673 45 40.129C45 39.584 46.013 38.944 47.25 38.706C48.487 38.467 49.538 38.211 49.583 38.136C49.629 38.061 49.667 38.655 49.667 39.456ZM52.235 42.452C53.276 43.938 53.177 48 52.099 48C51.603 48 50.286 46.455 49.172 44.568L47.147 41.135L49.324 41.27C50.521 41.344 51.831 41.876 52.235 42.452ZM37.143 52.89C36.319 53.413 36.176 53.991 36.78 54.364C37.326 54.702 38.329 54.308 39.009 53.489C40.359 51.863 39.3 51.524 37.143 52.89ZM45.98 61.524C45.284 62.362 44.909 63.242 45.145 63.479C45.382 63.715 46.125 63.03 46.796 61.955C48.248 59.63 47.764 59.375 45.98 61.524Z" fill="#BCBCBC"/>
<path fill-rule="evenodd" clip-rule="evenodd" d="M39 17.25C39 18.212 38.352 19 37.56 19C36.329 19 36.031 21.632 36.886 24.941C36.949 25.184 37.618 24.537 38.373 23.504C39.691 21.702 39.777 21.723 40.5 24C41.223 26.277 41.309 26.298 42.627 24.496C43.382 23.463 44 21.016 44 19.059C44 15.929 43.698 15.5 41.5 15.5C39.786 15.5 39 16.05 39 17.25ZM45.544 18.147C45.725 19.991 45.901 21.83 45.936 22.234C45.987 22.818 52.037 20.567 53.94 19.256C54.961 18.553 51.233 15.997 48.345 15.419C45.294 14.809 45.224 14.877 45.544 18.147ZM54.615 19.465C53.727 20.82 53 22.872 53 24.024C53 25.176 52.606 25.875 52.125 25.577C51.644 25.28 51.25 26.172 51.25 27.56C51.25 28.948 51.49 29.843 51.783 29.55C52.076 29.257 52.852 29.463 53.508 30.007C54.313 30.675 55.717 30.489 57.832 29.434L60.963 27.872L58.347 25.622C56.119 23.705 55.899 23.057 56.865 21.252C59.255 16.786 57.357 15.279 54.615 19.465ZM11.667 29.667C11.3 30.033 11 31.401 11 32.706C11 34.688 11.231 34.866 12.401 33.789C13.172 33.08 13.379 32.344 12.86 32.153C12.32 31.954 12.414 31.206 13.081 30.403C14.226 29.022 12.967 28.367 11.667 29.667ZM22.598 29.736C22.269 30.064 22.036 31.496 22.079 32.917C22.122 34.337 22.391 34.919 22.676 34.208C23.018 33.357 23.587 33.242 24.347 33.873C25.158 34.545 25.542 34.131 25.64 32.479C25.775 30.227 23.846 28.488 22.598 29.736ZM28.068 31.127C28.956 32.786 28.909 33.443 27.853 34.112C26.791 34.785 26.864 34.973 28.191 34.985C30.205 35.003 31.438 33.389 30.06 32.537C29.525 32.206 29.341 31.275 29.651 30.468C30.005 29.545 29.605 29 28.572 29C27.207 29 27.122 29.359 28.068 31.127ZM15.607 31.582C14.644 34.091 14.868 34.571 17 34.571C18.1 34.571 19 34.255 19 33.868C19 32.407 17.755 30 17 30C16.568 30 15.941 30.712 15.607 31.582ZM20.195 32.5C20.215 34.15 20.439 34.704 20.693 33.731C20.947 32.758 20.93 31.408 20.656 30.731C20.382 30.054 20.175 30.85 20.195 32.5ZM52.41 33.922C50.86 39.464 50.862 40.359 52.422 39.065C53.517 38.156 54.391 38.139 55.992 38.995C57.157 39.619 58.648 39.911 59.305 39.644C60 39.361 59.819 39.125 58.872 39.079C57.977 39.036 56.736 38.387 56.114 37.637C55.193 36.527 55.495 36.371 57.741 36.798C60.218 37.269 60.36 37.153 59.128 35.661C58.373 34.748 58.125 34 58.578 34C60.261 34 56.956 31.626 55.081 31.488C53.774 31.391 52.893 32.194 52.41 33.922ZM34.667 34.667C33.481 35.852 33.959 40.564 35.468 42.559C36.276 43.626 36.951 45.357 36.968 46.405C36.999 48.247 37.067 48.25 39 46.5C40.1 45.505 41 44.078 41 43.33C41 42.582 42.387 41.127 44.082 40.096C46.047 38.901 46.682 38.055 45.832 37.763C45.1 37.511 43.555 38.311 42.4 39.542C40.87 41.172 39.557 41.638 37.563 41.257C35.061 40.779 34.881 40.446 35.459 37.367C36.091 34 35.919 33.415 34.667 34.667ZM48.5 37C48.16 37.55 48.61 38 49.5 38C50.39 38 50.84 37.55 50.5 37C50.16 36.45 49.71 36 49.5 36C49.29 36 48.84 36.45 48.5 37ZM45.6 41.765C46.205 42.169 47.254 43.551 47.931 44.836C48.608 46.12 49.387 46.947 49.661 46.672C50.423 45.911 46.926 40.998 45.635 41.015C44.82 41.026 44.81 41.238 45.6 41.765ZM53.731 48.92C53.296 50.583 53.426 50.974 54.168 50.232C54.75 49.65 55.028 48.585 54.788 47.863C54.538 47.114 54.085 47.568 53.731 48.92Z" fill="#888888"/>
<path fill-rule="evenodd" clip-rule="evenodd" d="M39.288 18.724C39.568 20.19 39.238 21 38.361 21C37.613 21 37 21.436 37 21.969C37 23.137 40.202 22.081 41.235 20.573C41.703 19.89 42 20.045 42.055 21C42.113 22.01 42.421 21.847 43 20.5C44.495 17.02 44.123 16.012 41.426 16.235C39.329 16.409 38.933 16.87 39.288 18.724ZM46.667 16.667C45.473 17.86 45.965 22 47.3 22C49.362 22 50.813 20.002 50.268 17.916C49.771 16.016 47.949 15.384 46.667 16.667ZM54.842 19.75C53.389 21.482 52.955 28.289 54.217 29.55C54.577 29.91 55.81 29.546 56.957 28.743C58.846 27.419 58.892 27.156 57.445 25.955C56.292 24.998 56.02 23.706 56.469 21.314C57.177 17.54 56.911 17.284 54.842 19.75ZM11 31.802C11 33.339 11.443 33.767 12.584 33.329C13.455 32.995 13.792 32.442 13.334 32.099C12.875 31.757 12.162 31.069 11.75 30.572C11.338 30.074 11 30.628 11 31.802ZM16.71 32C16.998 33.1 17.589 34 18.023 34C18.457 34 18.577 33.1 18.29 32C18.002 30.9 17.411 30 16.977 30C16.543 30 16.423 30.9 16.71 32ZM20.158 32C20.158 33.375 20.385 33.938 20.662 33.25C20.94 32.563 20.94 31.438 20.662 30.75C20.385 30.063 20.158 30.625 20.158 32ZM22.015 31.75C22.007 33.022 22.543 33.891 23.25 33.75C24.698 33.46 25.969 31.941 25.969 30.5C25.969 29.95 25.526 30.175 24.985 31C24.109 32.333 23.891 32.333 23.015 31C22.216 29.782 22.028 29.923 22.015 31.75ZM28 30.941C28 31.459 28.375 32.114 28.833 32.397C29.292 32.68 29.667 32.257 29.667 31.456C29.667 30.655 29.292 30 28.833 30C28.375 30 28 30.423 28 30.941ZM55.636 33.506C55.288 34.413 55.639 35 56.531 35C58.149 35 58.517 33.437 57.105 32.565C56.612 32.26 55.952 32.684 55.636 33.506ZM27.813 34.683C28.534 34.972 29.397 34.936 29.729 34.604C30.061 34.272 29.471 34.036 28.417 34.079C27.252 34.127 27.015 34.364 27.813 34.683ZM53.079 35.583C53.127 36.748 53.364 36.985 53.683 36.188C53.972 35.466 53.936 34.603 53.604 34.271C53.272 33.939 53.036 34.529 53.079 35.583ZM34.345 36.543C34.019 37.392 33.976 38.31 34.249 38.583C34.523 38.856 34.986 38.161 35.279 37.04C35.903 34.657 35.21 34.289 34.345 36.543ZM38.705 43.438C37.767 44.375 37 45.886 37 46.794C37 48.181 37.338 48.106 39.118 46.326C40.283 45.161 41.05 43.651 40.823 42.97C40.526 42.077 39.935 42.208 38.705 43.438Z" fill="#727272"/>
<path fill-rule="evenodd" clip-rule="evenodd" d="M41.25 16.72C40.563 16.966 40 17.992 40 19C40 20.008 39.438 21.06 38.75 21.338C37.897 21.682 37.976 21.865 39 21.913C39.825 21.952 41.058 20.783 41.74 19.315C43.116 16.352 43.063 16.073 41.25 16.72ZM48.481 17.862C48.94 18.668 48.694 19.58 47.878 20.096C46.972 20.67 46.908 20.975 47.691 20.985C49.563 21.009 50.355 18.945 48.966 17.663C47.992 16.763 47.882 16.808 48.481 17.862ZM55.2 21.2C54.54 21.86 54 23.96 54 25.867C54 27.773 54.282 29.051 54.627 28.706C55.178 28.155 56.994 20 56.566 20C56.475 20 55.86 20.54 55.2 21.2ZM11.158 32C11.158 33.375 11.385 33.938 11.662 33.25C11.94 32.563 11.94 31.438 11.662 30.75C11.385 30.063 11.158 30.625 11.158 32ZM20.158 32C20.158 33.375 20.385 33.938 20.662 33.25C20.94 32.563 20.94 31.438 20.662 30.75C20.385 30.063 20.158 30.625 20.158 32ZM22.015 31.75C22.007 33.022 22.543 33.891 23.25 33.75C24.698 33.46 25.969 31.941 25.969 30.5C25.969 29.95 25.526 30.175 24.985 31C24.109 32.333 23.891 32.333 23.015 31C22.216 29.782 22.028 29.923 22.015 31.75ZM28.543 30.931C28.226 31.443 28.35 32.098 28.817 32.387C29.284 32.676 29.667 32.257 29.667 31.456C29.667 29.77 29.351 29.623 28.543 30.931Z" fill="#5B5B5B"/>
</svg>
