<svg width="64" height="64" viewBox="0 0 64 64" fill="none" xmlns="http://www.w3.org/2000/svg">
<g clip-path="url(#clip0_1_2)">
<path fill-rule="evenodd" clip-rule="evenodd" d="M0 31.5077V63.0154H32H64V31.5077V0H32H0V31.5077Z" fill="#FAC229"/>
<path fill-rule="evenodd" clip-rule="evenodd" d="M0 31.5077V63.0154H32H64V31.5077V0H32H0V31.5077ZM45.985 18.4615C46.016 20.9418 44.43 19.6086 44.228 16.9846C44.069 14.911 44.248 14.6225 44.995 15.7538C45.531 16.5662 45.976 17.7851 45.985 18.4615ZM51.063 25.2465C52.449 28.9359 50.761 29.6615 46.089 27.3861L41.768 25.281L45.134 24.0876C49.347 22.594 50.123 22.7456 51.063 25.2465ZM41 24.6154C41 25.1569 40.55 25.6 40 25.6C39.45 25.6 39 25.1569 39 24.6154C39 24.0738 39.45 23.6308 40 23.6308C40.55 23.6308 41 24.0738 41 24.6154ZM43.62 42.1504C42.755 43.0011 41.748 43.4028 41.381 43.0425C40.422 42.0982 43.036 39.2901 44.209 40.0039C44.794 40.3604 44.555 41.2298 43.62 42.1504ZM49.5 40.3692C49.16 40.9108 48.346 41.347 47.691 41.3391C46.975 41.3292 47.099 40.9423 48 40.3692C49.921 39.1463 50.267 39.1463 49.5 40.3692Z" fill="white"/>
<path fill-rule="evenodd" clip-rule="evenodd" d="M43 13.2805C43 14.2129 42.182 14.6609 40.753 14.5113C39.095 14.338 38.422 14.8569 38.184 16.4923C38.006 17.7113 37.277 18.7077 36.564 18.7077C35.686 18.7077 35.263 20.2161 35.255 23.3846C35.24 28.5312 34.41 32.8281 32.797 36.1088C32.098 37.5306 32.039 40.833 32.622 45.955C33.363 52.4593 33.77 53.6172 35.234 53.376C36.439 53.1771 36.788 53.5522 36.377 54.6068C35.992 55.5934 34.496 56.1231 32.093 56.1231C30.062 56.1231 27.86 56.6548 27.2 57.3046C25.766 58.7166 25.592 63.0154 26.969 63.0154C27.501 63.0154 27.676 62.3449 27.357 61.5257C26.491 59.3054 28.861 57.1077 32.122 57.1077C34.304 57.1077 35 57.5695 35 59.0188C35 62.7879 36.754 61.9067 37.305 57.8599C37.617 55.5658 38.674 53.119 39.684 52.355C41.305 51.1271 41.098 51.0494 37.75 51.6273L34 52.2742L34.136 48.5366C34.234 45.8476 34.398 45.4902 34.721 47.2615C35.406 51.0208 36.802 51.841 37.859 49.1047C38.372 47.7755 39.445 46.1538 40.244 45.501C42.021 44.0497 43.717 45.697 46.943 52.0133C49.075 56.1881 49.166 56.2422 51.524 54.721C54.681 52.6848 55 52.7498 55 55.4338C55 57.3804 54.491 57.6985 51.371 57.6985C48.772 57.6985 47.204 58.3532 45.846 60.0044C43.484 62.8766 44.288 63.9547 46.994 61.5444C48.796 59.9385 49 59.9217 49 61.3858C49 63.9429 58.556 63.7036 59.965 61.1111C61.602 58.0992 61.15 53.2126 58.567 46.0071C57.044 41.7575 56.598 39.3886 57.338 39.4782C59.849 39.7804 61.088 39.3374 60.473 38.3567C60.118 37.7915 60.372 36.6838 61.036 35.8951C62.003 34.7481 61.944 34.4615 60.739 34.4615C59.911 34.4615 58.962 33.4641 58.63 32.2462C57.744 28.9881 57.846 28.5538 59.5 28.5538C61.671 28.5538 61.341 26.8337 58.925 25.5606C57.167 24.6341 56.95 23.8818 57.507 20.6385C58.285 16.1004 57.469 14.145 55.475 15.7745C54.508 16.5642 53.564 16.578 52.13 15.8218C51.031 15.2428 49.188 14.7692 48.034 14.7692C46.881 14.7692 45.678 14.1046 45.362 13.2923C44.619 11.3861 43 11.3782 43 13.2805ZM45.985 18.4615C46.016 20.9418 44.43 19.6086 44.228 16.9846C44.069 14.911 44.248 14.6225 44.995 15.7538C45.531 16.5662 45.976 17.7851 45.985 18.4615ZM41 24.6735C41 25.1835 40.339 25.6 39.531 25.6C38.639 25.6 38.288 25.022 38.636 24.129C39.226 22.6137 41 23.0233 41 24.6735ZM51.053 25.2199C52.462 28.9694 50.76 29.6635 45.956 27.2994C42.003 25.3548 41.772 25.0703 43.912 24.7719C45.593 24.5386 45.933 24.1979 45.032 23.6505C44.247 23.1729 45.025 22.9278 47.014 23.0262C49.319 23.1404 50.516 23.7903 51.053 25.2199ZM47.56 29.9825C48.443 31.3098 49.01 33.1924 48.819 34.1671C48.365 36.4859 44.503 36.5391 44.501 34.2262C44.501 33.2849 44.05 32.5534 43.5 32.6016C42.95 32.6498 42.585 33.0073 42.689 33.3962C42.793 33.7851 41.597 33.918 40.03 33.6916C38.198 33.4267 36.987 32.5504 36.639 31.2379C35.831 28.1964 36.668 27.5692 41.536 27.5692C45.121 27.5692 46.257 28.0241 47.56 29.9825ZM10.744 31.0725C10.241 33.665 11.473 35.3378 12.338 33.2367C12.682 32.4027 13.117 32.3338 13.674 33.025C14.128 33.5892 18.183 34.1465 22.683 34.2646L30.867 34.4783L30.782 31.5412C30.697 28.6119 30.685 28.606 25.099 28.8542C20.186 29.0727 19.529 29.3406 19.734 31.0439C19.955 32.8674 19.904 32.8606 18.902 30.9258C18.171 29.5138 16.797 28.8286 14.528 28.7449C11.752 28.6415 11.143 29.0166 10.744 31.0725ZM26.683 32.6774C26.364 33.4622 26.127 33.2288 26.079 32.0817C26.036 31.0439 26.272 30.463 26.604 30.7899C26.936 31.1168 26.972 31.9665 26.683 32.6774ZM43.62 42.1504C42.755 43.0011 41.748 43.4028 41.381 43.0425C40.422 42.0982 43.036 39.2901 44.209 40.0039C44.794 40.3604 44.555 41.2298 43.62 42.1504ZM49.5 40.3692C49.16 40.9108 49.584 41.3538 50.441 41.3538C51.482 41.3538 51.991 42.2548 51.973 44.0615L51.947 46.7692L50.242 44.0615C49.304 42.5718 48.078 41.347 47.518 41.3391C46.958 41.3302 47.175 40.894 48 40.3692C49.921 39.1463 50.267 39.1463 49.5 40.3692ZM47.005 45.0462C47.53 46.5359 48.623 48.9718 49.434 50.4615C50.244 51.9513 50.59 53.1633 50.203 53.1554C49.547 53.1417 44 43.9099 44 42.8298C44 41.1628 46.21 42.7924 47.005 45.0462Z" fill="#D2D2D2"/>
<path fill-rule="evenodd" clip-rule="evenodd" d="M44.479 13.7846C44.837 15.1385 45.379 17.022 45.682 17.9692C45.985 18.9164 45.731 19.6923 45.117 19.6923C44.502 19.6923 44.053 19.3605 44.118 18.9538C44.51 16.511 43.745 14.9337 41.945 14.4699C40.422 14.078 39.652 14.5575 38.97 16.3239C38.464 17.6354 37.308 18.7077 36.402 18.7077C35.102 18.7077 35 18.9991 35.919 20.0891C36.813 21.1495 36.784 21.5887 35.792 21.9835C34.781 22.3842 34.82 22.7151 35.974 23.5038C36.988 24.1979 37.654 24.1822 38.112 23.4526C38.792 22.3685 41 23.1572 41 24.4834C41 24.8881 39.987 25.661 38.75 26.1996C37.513 26.7392 37.099 27.0464 37.832 26.883C38.564 26.7185 40.053 26.5846 41.141 26.5846C42.228 26.5846 42.84 26.1415 42.5 25.6C42.16 25.0575 42.919 24.5839 44.191 24.5465C46.367 24.4805 46.385 24.4293 44.5 23.6524C43.015 23.04 43.507 22.8775 46.414 23.0233C49.28 23.167 50.518 23.7361 51.039 25.1481C51.43 26.2095 51.523 27.459 51.247 27.9257C50.97 28.3924 51.273 29.0964 51.919 29.4892C52.762 30.0022 52.604 30.5969 51.36 31.5943C49.824 32.8251 49.701 32.7877 50.281 31.2615C50.642 30.3143 50.501 29.5385 49.969 29.5385C49.436 29.5385 49 31.042 49 32.8793C49 35.0562 48.433 36.4337 47.373 36.8345C45.222 37.6478 42.981 35.7287 43.654 33.6512C44.003 32.574 43.891 32.4017 43.333 33.155C42.42 34.3867 35.289 33.4946 35.75 32.2058C35.888 31.8218 35.663 31.6052 35.25 31.7243C34.837 31.8444 34.624 32.4756 34.777 33.1274C34.929 33.7792 34.611 34.5826 34.07 34.9115C33.53 35.2404 33.341 36.16 33.651 36.9546C33.96 37.7492 33.705 38.4 33.084 38.4C32.338 38.4 32.447 39.1542 33.403 40.6154C34.2 41.8334 35.153 44.4524 35.52 46.4345L36.189 50.0382L38.982 46.9602C41.328 44.3756 42.02 44.0832 43.309 45.1358C44.611 46.2001 44.766 46.1007 44.334 44.4751C44.055 43.4225 44.337 42.2498 44.961 41.8698C45.678 41.4336 46.885 43.0149 48.234 46.1588C49.906 50.0559 50.656 50.9046 51.685 50.0638C52.672 49.2574 53 49.3578 53 50.4665C53 51.9257 50.278 54.7958 49.603 54.0485C49.411 53.8358 48.511 52.222 47.601 50.4615C46.692 48.701 45.726 47.2615 45.454 47.2615C45.182 47.2615 45.878 49.0338 47 51.2C49.334 55.7036 49.97 55.9222 52.559 53.1052C54.326 51.1823 54.467 51.1695 55.144 52.8591C55.537 53.8417 55.891 55.554 55.93 56.6636C55.99 58.3995 55.477 58.6417 52.25 58.3936C50.188 58.2361 49.015 58.3454 49.644 58.6388C50.273 58.9312 50.558 60.0359 50.277 61.0934C49.827 62.7889 50.296 63.0154 54.262 63.0154C58.308 63.0154 58.881 62.722 59.993 60.0783C61.43 56.6617 60.732 51.7199 57.921 45.4134C55.497 39.9744 55.516 39.3846 58.122 39.3846C59.812 39.3846 60.012 39.1079 59.101 38.0278C58.199 36.9575 58.437 36.5204 60.229 35.9542C61.983 35.4009 62.133 35.139 60.889 34.8042C60.003 34.5649 58.766 33.2623 58.139 31.9074C56.638 28.6641 56.666 28.5538 59 28.5538C61.583 28.5538 61.523 28.1738 58.461 25.1589C56.414 23.1434 56.124 22.2897 56.961 20.7478C58.688 17.5714 58.266 15.4555 56.021 16.0335C53.429 16.701 46.135 14.5536 44.841 12.7429C44.09 11.6923 43.996 11.9631 44.479 13.7846ZM52.655 22.1962C53.585 24.5829 52.287 25.0142 51.046 22.7308C50.272 21.3061 50.257 20.6769 50.996 20.6769C51.583 20.6769 52.329 21.3602 52.655 22.1962ZM11.079 31.7538C11.122 33.5143 11.385 34.4005 11.662 33.7231C11.94 33.0466 12.831 32.4923 13.642 32.4923C14.454 32.4923 14.895 32.8487 14.621 33.2839C14.348 33.7191 15.672 34.1179 17.562 34.1711C20.796 34.2607 20.993 34.0825 20.882 31.1641L20.763 28.0615L20.088 31.0154L19.412 33.9692L18.687 31.2615C17.89 28.2831 16.533 27.7356 15.638 30.0308C15.322 30.8431 14.544 31.5077 13.909 31.5077C13.078 31.5077 13.103 31.0951 14 30.0308C15.04 28.797 14.896 28.5538 13.122 28.5538C11.378 28.5538 11.014 29.1239 11.079 31.7538ZM22 31.2261C22 33.2603 22.514 34.0805 23.85 34.1799C26.375 34.367 26.28 29.2185 23.75 28.7399C22.413 28.4879 22 29.0737 22 31.2261ZM27 29.9727C27 30.7535 27.498 31.6948 28.107 32.065C28.878 32.5346 28.803 32.9945 27.857 33.5852C26.79 34.2508 26.861 34.435 28.191 34.4468C30.393 34.4665 31.037 33.3381 30.335 30.6944C29.705 28.3195 27 27.7346 27 29.9727ZM41.263 35.6923C42.682 36.7537 42.718 37.1722 41.527 38.7358C39.596 41.2711 36 40.0482 36 36.8571C36 34.1691 38.491 33.6177 41.263 35.6923ZM49.667 38.849C49.667 39.6377 49.249 40.0286 48.738 39.7174C48.228 39.4073 46.467 40.13 44.826 41.3243C43.185 42.5186 41.589 43.2463 41.279 42.941C40.439 42.114 43.083 39.3186 44.113 39.9458C44.601 40.2422 45 40.0473 45 39.5116C45 38.975 46.013 38.3449 47.25 38.1105C48.487 37.8752 49.538 37.6231 49.583 37.5493C49.629 37.4754 49.667 38.0603 49.667 38.849ZM52.235 41.7989C53.276 43.262 53.177 47.2615 52.099 47.2615C51.603 47.2615 50.286 45.7403 49.172 43.8823L47.147 40.5022L49.324 40.6351C50.521 40.7079 51.831 41.2318 52.235 41.7989ZM37.143 52.0763C36.319 52.5913 36.176 53.1604 36.78 53.5276C37.326 53.8604 38.329 53.4725 39.009 52.6661C40.359 51.0651 39.3 50.7313 37.143 52.0763ZM45.98 60.5775C45.284 61.4026 44.909 62.269 45.145 62.5024C45.382 62.7348 46.125 62.0603 46.796 61.0018C48.248 58.7126 47.764 58.4615 45.98 60.5775Z" fill="#BCBCBC"/>
<path fill-rule="evenodd" clip-rule="evenodd" d="M39 16.9846C39 17.9318 38.352 18.7077 37.56 18.7077C36.329 18.7077 36.031 21.2992 36.886 24.5573C36.949 24.7966 37.618 24.1595 38.373 23.1424C39.691 21.3681 39.777 21.3888 40.5 23.6308C41.223 25.8727 41.309 25.8934 42.627 24.1191C43.382 23.102 44 20.6927 44 18.7658C44 15.6839 43.698 15.2615 41.5 15.2615C39.786 15.2615 39 15.8031 39 16.9846ZM45.544 17.8678C45.725 19.6834 45.901 21.4942 45.936 21.8919C45.987 22.467 52.037 20.2506 53.94 18.9598C54.961 18.2676 51.233 15.7509 48.345 15.1818C45.294 14.5812 45.224 14.6481 45.544 17.8678ZM54.615 19.1655C53.727 20.4997 53 22.5201 53 23.6544C53 24.7887 52.606 25.4769 52.125 25.1835C51.644 24.8911 51.25 25.7694 51.25 27.136C51.25 28.5026 51.49 29.3839 51.783 29.0954C52.076 28.8069 52.852 29.0097 53.508 29.5454C54.313 30.2031 55.717 30.0199 57.832 28.9812L60.963 27.4432L58.347 25.2278C56.119 23.3403 55.899 22.7023 56.865 20.925C59.255 16.5278 57.357 15.0439 54.615 19.1655ZM11.667 29.2106C11.3 29.571 11 30.9179 11 32.2028C11 34.1543 11.231 34.3296 12.401 33.2692C13.172 32.5711 13.379 31.8464 12.86 31.6583C12.32 31.4624 12.414 30.7259 13.081 29.9353C14.226 28.5755 12.967 27.9306 11.667 29.2106ZM22.598 29.2785C22.269 29.6015 22.036 31.0114 22.079 32.4106C22.122 33.8087 22.391 34.3818 22.676 33.6817C23.018 32.8438 23.587 32.7306 24.347 33.3519C25.158 34.0135 25.542 33.6059 25.64 31.9793C25.775 29.762 23.846 28.0497 22.598 29.2785ZM28.068 30.6481C28.956 32.2816 28.909 32.9285 27.853 33.5872C26.791 34.2498 26.864 34.435 28.191 34.4468C30.205 34.4645 31.438 32.8753 30.06 32.0364C29.525 31.7105 29.341 30.7938 29.651 29.9993C30.005 29.0905 29.605 28.5538 28.572 28.5538C27.207 28.5538 27.122 28.9073 28.068 30.6481ZM15.607 31.0961C14.644 33.5665 14.868 34.0391 17 34.0391C18.1 34.0391 19 33.728 19 33.347C19 31.9084 17.755 29.5385 17 29.5385C16.568 29.5385 15.941 30.2395 15.607 31.0961ZM20.195 32C20.215 33.6246 20.439 34.1701 20.693 33.2121C20.947 32.254 20.93 30.9248 20.656 30.2582C20.382 29.5916 20.175 30.3754 20.195 32ZM52.41 33.4001C50.86 38.8569 50.862 39.7381 52.422 38.464C53.517 37.569 54.391 37.5522 55.992 38.3951C57.157 39.0095 58.648 39.297 59.305 39.0341C60 38.7554 59.819 38.5231 58.872 38.4778C57.977 38.4354 56.736 37.7964 56.114 37.058C55.193 35.965 55.495 35.8114 57.741 36.2319C60.218 36.6956 60.36 36.5814 59.128 35.1124C58.373 34.2134 58.125 33.4769 58.578 33.4769C60.261 33.4769 56.956 31.1394 55.081 31.0036C53.774 30.9081 52.893 31.6987 52.41 33.4001ZM34.667 34.1337C33.481 35.3004 33.959 39.9399 35.468 41.9042C36.276 42.9548 36.951 44.6592 36.968 45.6911C36.999 47.5047 37.067 47.5077 39 45.7846C40.1 44.8049 41 43.3999 41 42.6634C41 41.9269 42.387 40.4943 44.082 39.4791C46.047 38.3025 46.682 37.4695 45.832 37.182C45.1 36.9339 43.555 37.7216 42.4 38.9337C40.87 40.5386 39.557 40.9974 37.563 40.6223C35.061 40.1516 34.881 39.8238 35.459 36.7921C36.091 33.4769 35.919 32.9009 34.667 34.1337ZM48.5 36.4308C48.16 36.9723 48.61 37.4154 49.5 37.4154C50.39 37.4154 50.84 36.9723 50.5 36.4308C50.16 35.8892 49.71 35.4462 49.5 35.4462C49.29 35.4462 48.84 35.8892 48.5 36.4308ZM45.6 41.1225C46.205 41.5202 47.254 42.881 47.931 44.1462C48.608 45.4105 49.387 46.2247 49.661 45.954C50.423 45.2047 46.926 40.3673 45.635 40.384C44.82 40.3948 44.81 40.6036 45.6 41.1225ZM53.731 48.1674C53.296 49.8048 53.426 50.1898 54.168 49.4592C54.75 48.8861 55.028 47.8375 54.788 47.1266C54.538 46.3892 54.085 46.8362 53.731 48.1674Z" fill="#888888"/>
<path fill-rule="evenodd" clip-rule="evenodd" d="M39.288 18.4359C39.568 19.8794 39.238 20.6769 38.361 20.6769C37.613 20.6769 37 21.1062 37 21.631C37 22.781 40.202 21.7413 41.235 20.2565C41.703 19.584 42 19.7366 42.055 20.6769C42.113 21.6714 42.421 21.5109 43 20.1846C44.495 16.7582 44.123 15.7657 41.426 15.9852C39.329 16.1566 38.933 16.6105 39.288 18.4359ZM46.667 16.4106C45.473 17.5852 45.965 21.6615 47.3 21.6615C49.362 21.6615 50.813 19.6943 50.268 17.6404C49.771 15.7696 47.949 15.1473 46.667 16.4106ZM54.842 19.4462C53.389 21.1515 52.955 27.8538 54.217 29.0954C54.577 29.4498 55.81 29.0914 56.957 28.3008C58.846 26.9972 58.892 26.7382 57.445 25.5557C56.292 24.6134 56.02 23.3413 56.469 20.9861C57.177 17.2702 56.911 17.0181 54.842 19.4462ZM11 31.3127C11 32.8261 11.443 33.2475 12.584 32.8162C13.455 32.4874 13.792 31.9429 13.334 31.6052C12.875 31.2684 12.162 30.591 11.75 30.1017C11.338 29.6113 11 30.1568 11 31.3127ZM16.71 31.5077C16.998 32.5908 17.589 33.4769 18.023 33.4769C18.457 33.4769 18.577 32.5908 18.29 31.5077C18.002 30.4246 17.411 29.5385 16.977 29.5385C16.543 29.5385 16.423 30.4246 16.71 31.5077ZM20.158 31.5077C20.158 32.8615 20.385 33.4159 20.662 32.7385C20.94 32.062 20.94 30.9543 20.662 30.2769C20.385 29.6005 20.158 30.1538 20.158 31.5077ZM22.015 31.2615C22.007 32.514 22.543 33.3696 23.25 33.2308C24.698 32.9452 25.969 31.4496 25.969 30.0308C25.969 29.4892 25.526 29.7108 24.985 30.5231C24.109 31.8356 23.891 31.8356 23.015 30.5231C22.216 29.3238 22.028 29.4626 22.015 31.2615ZM28 30.465C28 30.975 28.375 31.6199 28.833 31.8986C29.292 32.1772 29.667 31.7607 29.667 30.9721C29.667 30.1834 29.292 29.5385 28.833 29.5385C28.375 29.5385 28 29.955 28 30.465ZM55.636 32.9905C55.288 33.8836 55.639 34.4615 56.531 34.4615C58.149 34.4615 58.517 32.9226 57.105 32.064C56.612 31.7637 55.952 32.1812 55.636 32.9905ZM27.813 34.1494C28.534 34.434 29.397 34.3985 29.729 34.0716C30.061 33.7447 29.471 33.5124 28.417 33.5547C27.252 33.602 27.015 33.8353 27.813 34.1494ZM53.079 35.0356C53.127 36.1826 53.364 36.416 53.683 35.6313C53.972 34.9204 53.936 34.0706 53.604 33.7438C53.272 33.4169 53.036 33.9978 53.079 35.0356ZM34.345 35.9808C34.019 36.8167 33.976 37.7206 34.249 37.9894C34.523 38.2582 34.986 37.5739 35.279 36.4702C35.903 34.1238 35.21 33.7615 34.345 35.9808ZM38.705 42.7697C37.767 43.6923 37 45.1801 37 46.0741C37 47.4397 37.338 47.3659 39.118 45.6133C40.283 44.4662 41.05 42.9794 40.823 42.3089C40.526 41.4297 39.935 41.5586 38.705 42.7697Z" fill="#727272"/>
<path fill-rule="evenodd" clip-rule="evenodd" d="M41.25 16.4628C40.563 16.705 40 17.7152 40 18.7077C40 19.7002 39.438 20.736 38.75 21.0097C37.897 21.3484 37.976 21.5286 39 21.5759C39.825 21.6143 41.058 20.4633 41.74 19.0178C43.116 16.1004 43.063 15.8257 41.25 16.4628ZM48.481 17.5872C48.94 18.3808 48.694 19.2788 47.878 19.7868C46.972 20.352 46.908 20.6523 47.691 20.6622C49.563 20.6858 50.355 18.6535 48.966 17.3913C47.992 16.5051 47.882 16.5494 48.481 17.5872ZM55.2 20.8738C54.54 21.5237 54 23.5914 54 25.469C54 27.3457 54.282 28.6041 54.627 28.2644C55.178 27.7218 56.994 19.6923 56.566 19.6923C56.475 19.6923 55.86 20.224 55.2 20.8738ZM11.158 31.5077C11.158 32.8615 11.385 33.4159 11.662 32.7385C11.94 32.062 11.94 30.9543 11.662 30.2769C11.385 29.6005 11.158 30.1538 11.158 31.5077ZM20.158 31.5077C20.158 32.8615 20.385 33.4159 20.662 32.7385C20.94 32.062 20.94 30.9543 20.662 30.2769C20.385 29.6005 20.158 30.1538 20.158 31.5077ZM22.015 31.2615C22.007 32.514 22.543 33.3696 23.25 33.2308C24.698 32.9452 25.969 31.4496 25.969 30.0308C25.969 29.4892 25.526 29.7108 24.985 30.5231C24.109 31.8356 23.891 31.8356 23.015 30.5231C22.216 29.3238 22.028 29.4626 22.015 31.2615ZM28.543 30.4551C28.226 30.9593 28.35 31.6042 28.817 31.8887C29.284 32.1733 29.667 31.7607 29.667 30.9721C29.667 29.312 29.351 29.1673 28.543 30.4551Z" fill="#5B5B5B"/>
</g>
<defs>
<clipPath id="clip0_1_2">
<rect width="64" height="64" rx="32" fill="white"/>
</clipPath>
</defs>
</svg>
