<svg width="50" height="52" viewBox="0 0 50 52" fill="none" xmlns="http://www.w3.org/2000/svg">
<path fill-rule="evenodd" clip-rule="evenodd" d="M33.03 1.143C32.998 2.912 30.398 4.364 28.91 3.444C28.409 3.135 28 3.809 28 4.941C28 6.373 27.354 7 25.878 7C24.23 7 24.001 7.296 24.854 8.324C25.617 9.243 25.634 9.966 24.909 10.691C24.184 11.416 24.344 11.918 25.433 12.336C26.295 12.667 27 12.501 27 11.969C27 11.436 27.45 11 28 11C29.534 11 28.712 13.374 26.782 14.518C25.522 15.265 26.95 15.482 32.132 15.331C38.514 15.146 39.154 15.302 38.727 16.936C38.367 18.311 38.704 18.629 40.127 18.257C42.328 17.681 42.606 19.252 40.597 20.919C39.52 21.813 39.074 21.784 38.676 20.792C38.391 20.081 38.122 20.689 38.079 22.143C37.991 25.091 35.453 26.621 33.433 24.944C32.71 24.344 32.36 23.099 32.654 22.177C33.036 20.979 32.929 20.86 32.278 21.762C31.274 23.152 24.663 22.354 25.533 20.947C25.808 20.502 25.575 19.856 25.016 19.51C24.457 19.165 24 19.734 24 20.774C24 21.815 23.691 22.976 23.313 23.354C22.305 24.361 22.126 28.342 23.035 29.5C23.468 30.05 24.142 32.218 24.535 34.318L25.248 38.136L28.088 35.416C30.602 33.008 31.133 32.856 32.714 34.098C34.309 35.35 34.365 35.327 33.238 33.883C32.206 32.561 32.253 32.035 33.49 31.009C34.781 29.937 35.346 30.528 37.335 35.033C39.022 38.856 39.841 39.858 40.3 38.66C40.65 37.748 40.039 35.485 38.939 33.621C37.144 30.58 37.106 30.173 38.561 29.615C41.169 28.614 42 29.827 42 34.63C42 37.308 42.61 39.753 43.5 40.643C44.325 41.468 45 43.432 45 45.009C45 47.734 44.817 47.852 41.25 47.419C38.658 47.104 38.097 47.225 39.434 47.809C40.77 48.394 41.002 48.881 40.184 49.387C37.75 50.89 39.141 52 43.46 52C47.791 52 47.954 51.886 49.109 48.029C50.143 44.579 50.013 43.237 48.113 37.779C46.911 34.326 45.666 30.712 45.347 29.75C44.91 28.432 45.319 28 47.006 28C48.883 28 49.044 27.757 48 26.5C46.98 25.271 47.049 25 48.378 25C49.27 25 50 24.55 50 24C50 23.45 49.622 23 49.161 23C48.434 23 46 18.729 46 17.453C46 17.204 46.9 17 48 17C50.583 17 50.523 16.614 47.461 13.552C45.414 11.505 45.124 10.638 45.961 9.072C47.45 6.29 47.242 4 45.5 4C44.675 4 44 4.423 44 4.941C44 5.458 42.763 5.236 41.25 4.447C39.737 3.658 37.735 3.01 36.8 3.006C35.865 3.003 34.641 2.213 34.08 1.25C33.176 -0.302003 33.057 -0.314004 33.03 1.143ZM41.97 11.75C41.941 14.313 41.862 14.364 40.805 12.5C40.181 11.4 39.182 10.169 38.585 9.765C37.968 9.347 38.47 9.024 39.75 9.015C41.549 9.003 41.994 9.551 41.97 11.75ZM36.5 11C36.16 11.55 34.896 11.955 33.691 11.9C31.651 11.808 31.673 11.745 34 11C35.375 10.56 36.639 10.155 36.809 10.1C36.979 10.045 36.84 10.45 36.5 11ZM0.079001 20.25C0.122001 22.038 0.385 22.938 0.662 22.25C0.94 21.563 1.831 21 2.642 21C3.454 21 3.895 21.362 3.621 21.804C3.348 22.246 4.672 22.651 6.562 22.705C9.796 22.796 9.993 22.615 9.882 19.651L9.763 16.5L9.131 19.446L8.499 22.391L7.167 19.467C5.996 16.897 5.718 16.752 4.868 18.272C4.336 19.222 3.418 20 2.828 20C2.141 20 2.203 19.461 3 18.5C4.04 17.247 3.896 17 2.122 17C0.378 17 0.014001 17.579 0.079001 20.25ZM11 19.714C11 21.78 11.514 22.613 12.85 22.714C15.375 22.904 15.28 17.675 12.75 17.189C11.413 16.933 11 17.528 11 19.714ZM16 18.441C16 19.234 16.498 20.19 17.107 20.566C17.878 21.043 17.803 21.51 16.857 22.11C15.79 22.786 15.861 22.973 17.191 22.985C19.393 23.005 20.037 21.859 19.335 19.174C18.705 16.762 16 16.168 16 18.441ZM31.746 24.413C31.962 24.629 31.545 25.763 30.819 26.935C28.905 30.025 25.585 29.246 25.17 25.609C24.853 22.837 24.974 22.745 28.097 23.369C29.888 23.728 31.531 24.197 31.746 24.413ZM37.559 27.532C35.335 29.214 34 29.416 34 28.07C34 27.558 35.013 26.944 36.25 26.706C37.487 26.467 38.725 26.225 39 26.168C39.275 26.111 38.626 26.724 37.559 27.532ZM26 42.059C26 42.641 26.45 42.84 27 42.5C27.55 42.16 28 41.684 28 41.441C28 41.198 27.55 41 27 41C26.45 41 26 41.477 26 42.059ZM37.015 41.691C36.988 43.852 39.163 44.268 40.846 42.423C42.402 40.716 42.392 40.691 40.674 41.99C39.115 43.169 38.715 43.161 37.939 41.936C37.369 41.035 37.025 40.943 37.015 41.691ZM34.872 49.75C33.629 51.336 33.664 51.371 35.25 50.128C36.212 49.373 37 48.585 37 48.378C37 47.555 36.179 48.084 34.872 49.75Z" fill="black"/>
</svg>
