<svg width="64" height="64" viewBox="0 0 64 64" fill="none" xmlns="http://www.w3.org/2000/svg">
<g clip-path="url(#clip0_1_2)">
<path fill-rule="evenodd" clip-rule="evenodd" d="M0 32V64H32H64V32V0H32H0V32Z" fill="#6FE7DD"/>
<path fill-rule="evenodd" clip-rule="evenodd" d="M0 32V64H32H64V32V0H32H0V32ZM41.342 33.325C41.704 32.963 42.014 33.304 42.032 34.083C42.056 35.166 42.368 35.099 43.356 33.799C44.067 32.863 45.628 32.172 46.824 32.262C49.274 32.446 49.846 34 47.465 34C46.292 34 46.159 34.428 46.901 35.815C47.675 37.261 47.22 38.23 44.668 40.572C41.821 43.184 40.88 43.473 36.232 43.16C29.764 42.724 29.383 40.971 34.592 35.608C37.229 32.893 38.517 32.184 39.435 32.946C40.122 33.516 40.98 33.687 41.342 33.325Z" fill="#060C0C"/>
<path fill-rule="evenodd" clip-rule="evenodd" d="M0.044 13.25C0.084 25.346 0.203 26.195 1.406 23C4.406 15.036 5.149 13.823 9.721 9.429C14.432 4.901 18.615 2.51 24.5 0.983C26.387 0.493 22.401 0.167 13.75 0.102L0 0L0.044 13.25ZM41 1.406C48.589 4.265 49.665 4.926 54.369 9.631C59.074 14.335 59.735 15.411 62.594 23C63.797 26.195 63.916 25.346 63.956 13.25L64 0L50.75 0.044C38.654 0.084 37.805 0.203 41 1.406ZM38.273 18.976C38.341 19.264 38.052 20.512 37.631 21.75C36.673 24.564 35 24.689 35 21.947C35 20.052 34.46 19.91 27.965 20.1C24.095 20.213 20.651 20.756 20.31 21.307C19.923 21.933 20.218 21.989 21.095 21.456C21.868 20.987 20.742 22.469 18.593 24.75C16.445 27.03 14.198 28.807 13.6 28.698C12.917 28.573 12.389 31.378 12.179 36.25L11.845 44H17.988C21.367 44 25.056 43.505 26.186 42.9C27.38 42.262 27.984 42.218 27.626 42.795C26.751 44.211 29.398 45 35.023 45C37.695 45 40.156 45.444 40.492 45.986C40.827 46.529 43.184 44.977 45.729 42.538C48.275 40.099 50.738 38.338 51.204 38.626C51.669 38.913 51.926 38.553 51.775 37.824C51.624 37.096 52.096 36.624 52.824 36.775C53.553 36.926 53.864 36.588 53.515 36.025C53.167 35.461 53.244 34.438 53.686 33.75C54.127 33.063 54.54 30.475 54.602 28C54.664 25.525 54.942 22.258 55.221 20.741C55.576 18.805 55.395 18.243 54.613 18.857C54.001 19.339 51.7 19.558 49.5 19.343C41.594 18.573 38.153 18.46 38.273 18.976ZM41.342 33.325C41.704 32.963 42.014 33.304 42.032 34.083C42.056 35.166 42.368 35.099 43.356 33.799C44.067 32.863 45.628 32.172 46.824 32.262C49.274 32.446 49.846 34 47.465 34C46.292 34 46.159 34.428 46.901 35.815C47.675 37.261 47.22 38.23 44.668 40.572C41.821 43.184 40.88 43.473 36.232 43.16C29.764 42.724 29.383 40.971 34.592 35.608C37.229 32.893 38.517 32.184 39.435 32.946C40.122 33.516 40.98 33.687 41.342 33.325ZM0.044 50.75L0 64L13.25 63.956C25.346 63.916 26.195 63.797 23 62.594C15.411 59.735 14.335 59.074 9.631 54.369C4.926 49.665 4.265 48.589 1.406 41C0.203 37.805 0.084 38.654 0.044 50.75ZM63 39.373C63 42.673 58.439 50.573 54.156 54.689C49.559 59.108 45.353 61.498 39.5 63.017C37.613 63.507 41.599 63.833 50.25 63.898L64 64V51C64 43.85 63.775 38 63.5 38C63.225 38 63 38.618 63 39.373Z" fill="#73E1BC"/>
<path fill-rule="evenodd" clip-rule="evenodd" d="M0.044 13.25C0.084 25.346 0.203 26.195 1.406 23C4.406 15.036 5.149 13.823 9.721 9.429C14.432 4.901 18.615 2.51 24.5 0.983C26.387 0.493 22.401 0.167 13.75 0.102L0 0L0.044 13.25ZM41 1.406C48.589 4.265 49.665 4.926 54.369 9.631C59.074 14.335 59.735 15.411 62.594 23C63.797 26.195 63.916 25.346 63.956 13.25L64 0L50.75 0.044C38.654 0.084 37.805 0.203 41 1.406ZM38.272 18.972C38.34 19.262 38.052 20.512 37.631 21.75C36.673 24.564 35 24.689 35 21.947C35 20.052 34.46 19.91 27.965 20.1C24.095 20.213 20.651 20.756 20.31 21.307C19.923 21.933 20.218 21.989 21.095 21.456C21.868 20.987 20.742 22.469 18.593 24.75C16.445 27.03 14.198 28.807 13.6 28.698C12.917 28.573 12.389 31.378 12.179 36.25L11.845 44H17.988C21.367 44 25.056 43.505 26.186 42.9C27.38 42.262 27.984 42.218 27.626 42.795C26.758 44.201 29.388 45 34.882 45C37.477 45 40.125 45.525 40.767 46.167C41.657 47.057 42.094 46.918 42.606 45.583C43.145 44.181 43.465 44.098 44.215 45.166C44.967 46.237 45.074 46.211 44.755 45.035C44.351 43.548 49.743 38.292 51.203 38.75C51.641 38.887 51.887 38.437 51.75 37.75C51.612 37.062 52.096 36.624 52.824 36.775C53.553 36.926 53.864 36.588 53.515 36.025C53.167 35.461 53.244 34.438 53.686 33.75C54.127 33.063 54.54 30.475 54.602 28C54.664 25.525 54.942 22.258 55.221 20.741C55.633 18.495 55.473 18.192 54.363 19.113C53.462 19.862 53 22.501 53 26.907V33.568L47.719 38.784C42.491 43.947 42.373 44 36.219 44H30V40.615C30 38.108 30.648 36.805 32.5 35.592C34.365 34.37 35 33.08 35 30.512C35 25.406 40.025 20 44.77 20C46.73 20 48.104 19.771 47.824 19.49C47.131 18.798 38.116 18.309 38.272 18.972ZM49.813 19.683C50.534 19.972 51.397 19.936 51.729 19.604C52.061 19.272 51.471 19.036 50.417 19.079C49.252 19.127 49.015 19.364 49.813 19.683ZM0.044 50.75L0 64L13.25 63.956C25.346 63.916 26.195 63.797 23 62.594C15.411 59.735 14.335 59.074 9.631 54.369C4.926 49.665 4.265 48.589 1.406 41C0.203 37.805 0.084 38.654 0.044 50.75ZM63 39.373C63 42.673 58.439 50.573 54.156 54.689C49.559 59.108 45.353 61.498 39.5 63.017C37.613 63.507 41.599 63.833 50.25 63.898L64 64V51C64 43.85 63.775 38 63.5 38C63.225 38 63 38.618 63 39.373Z" fill="#001E0B"/>
<path fill-rule="evenodd" clip-rule="evenodd" d="M0.044 13.25C0.084 25.346 0.203 26.195 1.406 23C4.406 15.036 5.149 13.823 9.721 9.429C14.432 4.901 18.615 2.51 24.5 0.983C26.387 0.493 22.401 0.167 13.75 0.102L0 0L0.044 13.25ZM41 1.406C48.589 4.265 49.665 4.926 54.369 9.631C59.074 14.335 59.735 15.411 62.594 23C63.797 26.195 63.916 25.346 63.956 13.25L64 0L50.75 0.044C38.654 0.084 37.805 0.203 41 1.406ZM38.449 19.851C38.67 21.359 36.838 24 35.571 24C35.257 24 35 23.076 35 21.947C35 20.052 34.46 19.91 27.965 20.1C24.095 20.213 20.651 20.756 20.31 21.307C19.923 21.933 20.218 21.989 21.095 21.456C21.868 20.987 20.742 22.469 18.593 24.75C16.445 27.03 14.198 28.807 13.6 28.698C12.917 28.573 12.389 31.378 12.179 36.25L11.845 44H17.988C21.367 44 25.056 43.505 26.186 42.9C27.38 42.262 27.984 42.218 27.626 42.795C27.288 43.343 27.721 44.063 28.588 44.395C30.988 45.317 31.354 45.131 30.105 43.627C29.478 42.871 29.241 41.409 29.577 40.377C30.082 38.828 30 38.762 29.11 40C28.433 40.94 28.025 41.053 28.015 40.301C28.007 39.641 29.575 37.9 31.5 36.432C34.354 34.255 35 33.1 35 30.173C35 27.407 35.819 25.746 38.571 22.927C41.807 19.613 41.958 19.222 40.177 18.757C38.775 18.39 38.28 18.703 38.449 19.851ZM43 19.139C43 19.612 44.125 20 45.5 20C46.875 20 48 19.827 48 19.617C48 19.406 46.875 19.018 45.5 18.755C44.125 18.492 43 18.665 43 19.139ZM54.377 19.2C53.328 20.896 53.255 25.145 54.292 24.108C55.097 23.303 56.078 18 55.422 18C55.255 18 54.784 18.54 54.377 19.2ZM49.813 19.683C50.534 19.972 51.397 19.936 51.729 19.604C52.061 19.272 51.471 19.036 50.417 19.079C49.252 19.127 49.015 19.364 49.813 19.683ZM54.079 31.583C54.127 32.748 54.364 32.985 54.683 32.188C54.972 31.466 54.936 30.603 54.604 30.271C54.272 29.939 54.036 30.529 54.079 31.583ZM48.528 38.844C45.581 42.298 45.341 42.787 47.597 40.736C49.27 39.216 50.982 38.316 51.403 38.736C51.823 39.156 52.017 38.825 51.833 38C51.65 37.175 52.046 36.607 52.714 36.738C53.416 36.876 53.687 36.348 53.357 35.488C53.043 34.67 52.722 34.042 52.643 34.094C52.564 34.146 50.713 36.284 48.528 38.844ZM0.044 50.75L0 64L13.25 63.956C25.346 63.916 26.195 63.797 23 62.594C15.411 59.735 14.335 59.074 9.631 54.369C4.926 49.665 4.265 48.589 1.406 41C0.203 37.805 0.084 38.654 0.044 50.75ZM63 39.373C63 42.673 58.439 50.573 54.156 54.689C49.559 59.108 45.353 61.498 39.5 63.017C37.613 63.507 41.599 63.833 50.25 63.898L64 64V51C64 43.85 63.775 38 63.5 38C63.225 38 63 38.618 63 39.373ZM41.114 44.929C40.255 45.461 40.152 45.976 40.824 46.391C41.395 46.744 42.163 46.545 42.531 45.95C43.449 44.464 42.719 43.938 41.114 44.929Z" fill="#001506"/>
<path fill-rule="evenodd" clip-rule="evenodd" d="M0.044 13.25C0.084 25.346 0.203 26.195 1.406 23C4.406 15.036 5.149 13.823 9.721 9.429C14.432 4.901 18.615 2.51 24.5 0.983C26.387 0.493 22.401 0.167 13.75 0.102L0 0L0.044 13.25ZM41 1.406C48.589 4.265 49.665 4.926 54.369 9.631C59.074 14.335 59.735 15.411 62.594 23C63.797 26.195 63.916 25.346 63.956 13.25L64 0L50.75 0.044C38.654 0.084 37.805 0.203 41 1.406ZM20.31 21.307C19.923 21.933 20.218 21.989 21.095 21.456C21.868 20.987 20.742 22.469 18.593 24.75C16.445 27.03 14.198 28.807 13.6 28.698C12.917 28.573 12.389 31.378 12.179 36.25L11.845 44H18.031C24.203 44 24.228 43.988 29.608 38.521L35 33.043V26.469V19.894L27.965 20.1C24.095 20.213 20.651 20.756 20.31 21.307ZM0.044 50.75L0 64L13.25 63.956C25.346 63.916 26.195 63.797 23 62.594C15.411 59.735 14.335 59.074 9.631 54.369C4.926 49.665 4.265 48.589 1.406 41C0.203 37.805 0.084 38.654 0.044 50.75ZM63 39.373C63 42.673 58.439 50.573 54.156 54.689C49.559 59.108 45.353 61.498 39.5 63.017C37.613 63.507 41.599 63.833 50.25 63.898L64 64V51C64 43.85 63.775 38 63.5 38C63.225 38 63 38.618 63 39.373Z" fill="white"/>
<path fill-rule="evenodd" clip-rule="evenodd" d="M0.044 13.25C0.084 25.346 0.203 26.195 1.406 23C4.406 15.036 5.149 13.823 9.721 9.429C14.432 4.901 18.615 2.51 24.5 0.983C26.387 0.493 22.401 0.167 13.75 0.102L0 0L0.044 13.25ZM41 1.406C48.589 4.265 49.665 4.926 54.369 9.631C59.074 14.335 59.735 15.411 62.594 23C63.797 26.195 63.916 25.346 63.956 13.25L64 0L50.75 0.044C38.654 0.084 37.805 0.203 41 1.406ZM33.337 21.25C32.043 23.321 32.146 24.667 33.597 24.667C34.522 24.667 34.656 24.29 34.008 23.51C33.383 22.756 33.458 21.942 34.224 21.176C34.871 20.529 35.112 20 34.759 20C34.406 20 33.767 20.563 33.337 21.25ZM22.009 22.489C21.329 23.308 20.262 23.672 19.637 23.297C19.012 22.923 19.127 23.388 19.893 24.332C21.165 25.9 22.477 25.817 22.515 24.167C22.524 23.8 22.888 22.938 23.324 22.25C24.426 20.515 23.509 20.681 22.009 22.489ZM32 27.059C32 27.641 32.361 27.895 32.803 27.622C34.102 26.819 33.302 33.107 31.945 34.358C30.992 35.237 30.876 35.154 31.44 34C31.843 33.175 31.265 33.618 30.155 34.985C27.471 38.29 28.189 38.714 31.942 36.041C34.465 34.245 35 33.176 35 29.932C35 27.104 34.579 26 33.5 26C32.675 26 32 26.477 32 27.059ZM21.93 28.869C22.48 29.896 22.608 31.093 22.215 31.529C21.822 31.964 22.064 31.996 22.753 31.6C23.667 31.073 23.725 30.355 22.968 28.939C22.397 27.873 21.705 27 21.43 27C21.155 27 21.38 27.841 21.93 28.869ZM13.734 30.917C12.674 32.276 12.723 32.327 14.074 31.274C15.133 30.449 15.978 30.378 16.657 31.057C17.337 31.737 17.667 31.62 17.667 30.7C17.667 28.84 15.249 28.973 13.734 30.917ZM24.809 33.153C25.843 34.494 25.84 34.903 24.792 35.324C23.856 35.699 23.913 35.868 25 35.936C26.226 36.013 26.252 36.188 25.143 36.89C24.248 37.458 24.146 37.972 24.843 38.403C25.424 38.762 26.358 38.2 26.918 37.154C27.723 35.65 27.475 34.859 25.735 33.376C24.154 32.028 23.893 31.965 24.809 33.153ZM0.044 50.75L0 64L13.25 63.956C25.346 63.916 26.195 63.797 23 62.594C15.411 59.735 14.335 59.074 9.631 54.369C4.926 49.665 4.265 48.589 1.406 41C0.203 37.805 0.084 38.654 0.044 50.75ZM63 39.373C63 42.673 58.439 50.573 54.156 54.689C49.559 59.108 45.353 61.498 39.5 63.017C37.613 63.507 41.599 63.833 50.25 63.898L64 64V51C64 43.85 63.775 38 63.5 38C63.225 38 63 38.618 63 39.373ZM26.009 41.489C25.329 42.308 24.305 42.688 23.732 42.334C23.108 41.949 22.993 42.179 23.445 42.911C24.011 43.827 24.671 43.703 26.099 42.41C27.145 41.464 28 40.535 28 40.345C28 39.602 27.189 40.068 26.009 41.489Z" fill="#F9F9F9"/>
<path fill-rule="evenodd" clip-rule="evenodd" d="M0.044 13.25C0.084 25.346 0.203 26.195 1.406 23C4.406 15.036 5.149 13.823 9.721 9.429C14.432 4.901 18.615 2.51 24.5 0.983C26.387 0.493 22.401 0.167 13.75 0.102L0 0L0.044 13.25ZM41 1.406C48.589 4.265 49.665 4.926 54.369 9.631C59.074 14.335 59.735 15.411 62.594 23C63.797 26.195 63.916 25.346 63.956 13.25L64 0L50.75 0.044C38.654 0.084 37.805 0.203 41 1.406ZM0.044 50.75L0 64L13.25 63.956C25.346 63.916 26.195 63.797 23 62.594C15.411 59.735 14.335 59.074 9.631 54.369C4.926 49.665 4.265 48.589 1.406 41C0.203 37.805 0.084 38.654 0.044 50.75ZM63 39.373C63 42.673 58.439 50.573 54.156 54.689C49.559 59.108 45.353 61.498 39.5 63.017C37.613 63.507 41.599 63.833 50.25 63.898L64 64V51C64 43.85 63.775 38 63.5 38C63.225 38 63 38.618 63 39.373Z" fill="black"/>
</g>
<defs>
<clipPath id="clip0_1_2">
<rect width="64" height="64" rx="32" fill="white"/>
</clipPath>
</defs>
</svg>
