<svg width="250" height="250" viewBox="0 0 250 250" fill="none" xmlns="http://www.w3.org/2000/svg">
<g clip-path="url(#clip0_1_52)">
<path fill-rule="evenodd" clip-rule="evenodd" d="M0 125V250H125H250V125V0H125H0V125Z" fill="#DEF1FF"/>
<path fill-rule="evenodd" clip-rule="evenodd" d="M0 125V250H125H250V125V0H125H0V125ZM145.729 16.604C145.397 16.936 144.534 16.972 143.813 16.683C143.015 16.364 143.252 16.127 144.417 16.079C145.471 16.036 146.061 16.272 145.729 16.604ZM128.362 22.5C128.045 23.325 127.329 24 126.771 24C126.185 24 126.282 23.365 127 22.5C127.685 21.675 128.401 21 128.591 21C128.781 21 128.678 21.675 128.362 22.5ZM84.25 25.662C83.563 25.94 82.438 25.94 81.75 25.662C81.063 25.385 81.625 25.158 83 25.158C84.375 25.158 84.938 25.385 84.25 25.662ZM178.493 26.989C178.843 27.555 178.442 27.723 177.552 27.382C175.82 26.717 175.503 26 176.941 26C177.459 26 178.157 26.445 178.493 26.989ZM75 28C75 28.55 74.802 29 74.559 29C74.316 29 73.84 28.55 73.5 28C73.16 27.45 73.359 27 73.941 27C74.523 27 75 27.45 75 28ZM185.493 30.989C185.843 31.555 185.442 31.723 184.552 31.382C182.82 30.717 182.503 30 183.941 30C184.459 30 185.157 30.445 185.493 30.989ZM93.75 172.674C93.601 198.428 93.48 177.65 93.48 126.5C93.48 75.35 93.601 54.278 93.75 79.674C93.898 105.07 93.898 146.92 93.75 172.674ZM61.861 36.914C60.562 37.967 59.276 38.605 59.002 38.332C58.415 37.749 61.963 35 63.302 35C63.808 35 63.159 35.861 61.861 36.914ZM54.842 42.691C54.222 43.437 53.483 43.816 53.2 43.533C52.916 43.249 51.968 43.568 51.092 44.241C49.903 45.156 49.944 44.943 51.254 43.399C52.219 42.263 53.674 41.333 54.488 41.333C55.621 41.333 55.704 41.652 54.842 42.691ZM207.399 47.268C207.821 46.845 208.017 47.175 207.833 48C207.631 48.909 208.091 49.369 209 49.167C209.825 48.983 210.158 49.175 209.741 49.592C209.323 50.01 209.964 51.398 211.165 52.676C212.366 53.954 213.145 55 212.895 55C212.646 55 209.53 51.968 205.971 48.262C202.412 44.556 201.105 42.989 203.066 44.78C205.027 46.57 206.977 47.69 207.399 47.268ZM214.675 55.658C214.313 56.02 214.576 57.032 215.259 57.908C216.355 59.314 216.297 59.341 214.761 58.137C213.197 56.91 213.175 55 214.726 55C215.06 55 215.037 55.296 214.675 55.658ZM132.019 67.523C133.076 68.796 133.014 68.943 131.641 68.416C130.739 68.069 130 67.384 130 66.893C130 65.607 130.579 65.788 132.019 67.523ZM226.968 73.939C227.709 75.324 227.675 76.083 226.848 76.594C226.13 77.038 225.962 76.871 226.405 76.155C226.797 75.52 226.615 75 226 75C225.385 75 225.136 74.588 225.447 74.085C225.758 73.582 225.447 72.943 224.756 72.664C223.816 72.285 223.806 72.138 224.715 72.079C225.383 72.036 226.397 72.873 226.968 73.939ZM162.027 82.051C162.617 83.154 163.456 83.836 163.892 83.567C164.327 83.298 166.217 84.738 168.092 86.768C170.236 89.089 170.573 89.724 169 88.479C167.625 87.39 166.225 86.124 165.888 85.665C165.552 85.205 165.031 84.98 164.732 85.165C164.433 85.349 162.493 83.755 160.422 81.623C158.128 79.261 157.496 78.195 158.806 78.896C159.987 79.528 161.437 80.948 162.027 82.051ZM236.683 105.188C236.364 105.985 236.127 105.748 236.079 104.583C236.036 103.529 236.272 102.939 236.604 103.271C236.936 103.603 236.972 104.466 236.683 105.188ZM182.683 114.188C182.364 114.985 182.127 114.748 182.079 113.583C182.036 112.529 182.272 111.939 182.604 112.271C182.936 112.603 182.972 113.466 182.683 114.188ZM16.662 118.25C16.385 118.938 16.158 118.375 16.158 117C16.158 115.625 16.385 115.063 16.662 115.75C16.94 116.438 16.94 117.563 16.662 118.25ZM238.732 132.25C238.522 134.588 238.349 132.675 238.349 128C238.349 123.325 238.522 121.412 238.732 123.75C238.943 126.087 238.943 129.912 238.732 132.25ZM183.683 135.188C183.364 135.985 183.127 135.748 183.079 134.583C183.036 133.529 183.272 132.939 183.604 133.271C183.936 133.603 183.972 134.466 183.683 135.188ZM16.662 137.25C16.385 137.938 16.158 137.375 16.158 136C16.158 134.625 16.385 134.063 16.662 134.75C16.94 135.438 16.94 136.563 16.662 137.25ZM236.683 149.188C236.364 149.985 236.127 149.748 236.079 148.583C236.036 147.529 236.272 146.939 236.604 147.271C236.936 147.603 236.972 148.466 236.683 149.188ZM175.601 156.25C175.997 156.938 175.948 157.162 175.491 156.748C175.035 156.334 173.726 156.784 172.581 157.748C170.502 159.499 170.502 159.498 172.405 157.25C174.628 154.625 174.66 154.615 175.601 156.25ZM171 163.297C171 163.46 169.088 165.373 166.75 167.547L162.5 171.5L166.453 167.25C170.129 163.298 171 162.54 171 163.297ZM229.168 173.232C228.426 173.974 228.296 173.583 228.731 171.92C229.085 170.568 229.538 170.114 229.788 170.863C230.028 171.585 229.75 172.65 229.168 173.232ZM162 171.544C162 171.66 161.4 172.253 160.667 172.862C159.67 173.689 159.333 173.635 159.333 172.651C159.333 171.926 159.933 171.333 160.667 171.333C161.4 171.333 162 171.428 162 171.544ZM143.5 181C143.16 181.55 142.121 181.968 141.191 181.93C139.812 181.872 139.87 181.701 141.5 181C144.176 179.85 144.211 179.85 143.5 181ZM224.124 182.267C223.136 183.247 223.022 183.132 223.564 181.707C223.94 180.721 224.499 180.166 224.807 180.474C225.115 180.781 224.808 181.588 224.124 182.267ZM30.667 182.456C30.667 183.257 30.284 183.676 29.817 183.387C29.35 183.098 29.226 182.443 29.543 181.931C30.351 180.623 30.667 180.77 30.667 182.456ZM136 183C136 183.55 135.523 184 134.941 184C134.359 184 134.16 183.55 134.5 183C134.84 182.45 135.316 182 135.559 182C135.802 182 136 182.45 136 183ZM33.382 185.552C33.723 186.442 33.555 186.843 32.989 186.493C32.445 186.157 32 185.459 32 184.941C32 183.503 32.717 183.82 33.382 185.552ZM131.43 184.887C131.731 185.374 131.344 186.299 130.569 186.943C129.437 187.882 129.228 187.757 129.504 186.306C129.693 185.313 129.881 184.387 129.923 184.25C130.091 183.702 130.912 184.049 131.43 184.887ZM218.09 191.832C217.55 192.84 216.324 194.302 215.363 195.082C214.283 195.96 214.525 195.261 215.997 193.25C218.623 189.662 219.608 188.995 218.09 191.832ZM42.128 197.75C43.371 199.336 43.336 199.371 41.75 198.128C40.084 196.821 39.555 196 40.378 196C40.585 196 41.373 196.787 42.128 197.75ZM194.5 216C193.505 217.1 192.26 218 191.734 218C191.209 218 191.841 217.115 193.139 216.033C196.195 213.487 196.787 213.473 194.5 216ZM62.128 216.75C63.371 218.336 63.336 218.371 61.75 217.128C60.084 215.821 59.555 215 60.378 215C60.585 215 61.373 215.787 62.128 216.75ZM68.457 220.931C68.774 221.443 68.65 222.098 68.183 222.387C67.716 222.676 67.333 222.257 67.333 221.456C67.333 219.77 67.649 219.623 68.457 220.931ZM178.5 226C178.16 226.55 177.346 226.993 176.691 226.985C175.975 226.975 176.099 226.582 177 226C178.921 224.758 179.267 224.758 178.5 226ZM88 227C88 227.55 85.862 227.932 83.25 227.85L78.5 227.7L83 227C85.475 226.615 87.612 226.233 87.75 226.15C87.888 226.068 88 226.45 88 227ZM130.933 234.42C132.044 235.758 131.484 235.892 128.191 235.077C127.808 234.982 128.997 233 129.437 233C129.612 233 130.285 233.639 130.933 234.42ZM152.493 235.989C152.843 236.555 152.442 236.723 151.552 236.382C149.82 235.717 149.503 235 150.941 235C151.459 235 152.157 235.445 152.493 235.989ZM140 237.383C140 237.594 138.889 237.979 137.53 238.239C136.172 238.499 135.298 238.326 135.589 237.856C136.101 237.027 140 236.61 140 237.383Z" fill="#C1D6FF"/>
<path fill-rule="evenodd" clip-rule="evenodd" d="M0 125V250H125H250V125V0H125H0V125ZM135 16.393C135 16.609 134.302 17.054 133.448 17.382C132.558 17.723 132.157 17.555 132.507 16.989C133.094 16.038 135 15.583 135 16.393ZM145.269 16.656C144.592 16.93 143.242 16.947 142.269 16.693C141.296 16.439 141.85 16.215 143.5 16.195C145.15 16.175 145.946 16.382 145.269 16.656ZM150.25 17.662C149.563 17.94 148.438 17.94 147.75 17.662C147.063 17.385 147.625 17.158 149 17.158C150.375 17.158 150.938 17.385 150.25 17.662ZM154.729 18.604C154.397 18.936 153.534 18.972 152.813 18.683C152.015 18.364 152.252 18.127 153.417 18.079C154.471 18.036 155.061 18.272 154.729 18.604ZM158.729 19.604C158.397 19.936 157.534 19.972 156.813 19.683C156.015 19.364 156.252 19.127 157.417 19.079C158.471 19.036 159.061 19.272 158.729 19.604ZM128.293 22.989C128.007 24.083 127.352 24.718 126.838 24.4C126.286 24.059 126.383 23.244 127.074 22.411C128.651 20.51 128.909 20.632 128.293 22.989ZM169.5 23C169.84 23.55 169.641 24 169.059 24C168.477 24 168 23.55 168 23C168 22.45 168.198 22 168.441 22C168.684 22 169.16 22.45 169.5 23ZM176.524 26.116C179 27.28 181.29 28.661 181.614 29.184C182.107 29.983 172.344 25.528 171.083 24.38C170.035 23.424 172.41 24.182 176.524 26.116ZM84.25 25.662C83.563 25.94 82.438 25.94 81.75 25.662C81.063 25.385 81.625 25.158 83 25.158C84.375 25.158 84.938 25.385 84.25 25.662ZM74.204 29.439C70.741 31.305 67.253 33.375 66.454 34.038C65.654 34.702 65 34.955 65 34.6C65 34.246 67.013 32.679 69.474 31.119C71.935 29.558 73.622 27.921 73.224 27.481C72.826 27.041 73.216 26.936 74.091 27.248C74.966 27.56 76.316 27.413 77.091 26.923C77.866 26.432 78.95 26.034 79.5 26.038C80.05 26.042 77.667 27.572 74.204 29.439ZM91.175 28.491C91.446 28.221 91.667 28.675 91.667 29.5C91.667 31.417 91.665 31.416 89.405 28.767C88.238 27.399 88.117 27.009 89.092 27.759C89.968 28.432 90.905 28.762 91.175 28.491ZM187.5 32.625C189.15 34.029 189.6 34.721 188.5 34.162C185.511 32.644 182.359 30.063 183.5 30.068C184.05 30.07 185.85 31.221 187.5 32.625ZM93.752 127C93.632 177.875 93.415 207.8 93.27 193.5C92.594 127.179 92.573 32.304 93.235 33.345C93.639 33.98 93.872 76.125 93.752 127ZM192.675 34.658C192.313 35.02 192.576 36.032 193.259 36.908C194.355 38.314 194.297 38.341 192.761 37.137C191.197 35.91 191.175 34 192.726 34C193.06 34 193.037 34.296 192.675 34.658ZM64 35.312C64 35.484 62.674 36.604 61.053 37.803C58.858 39.426 57.924 39.665 57.393 38.741C57 38.058 57.014 37.8 57.423 38.167C57.832 38.533 59.029 37.971 60.083 36.917C61.733 35.267 64 34.338 64 35.312ZM197.675 38.658C197.313 39.02 197.576 40.032 198.259 40.908C199.355 42.314 199.297 42.341 197.761 41.137C196.197 39.91 196.175 38 197.726 38C198.06 38 198.037 38.296 197.675 38.658ZM56 41.443C56 41.504 52.742 44.692 48.76 48.527C44.777 52.362 43.315 53.486 45.51 51.024C47.704 48.563 49.95 46.207 50.5 45.79C51.05 45.372 51.093 45.024 50.595 45.015C50.097 45.007 50.437 44.175 51.349 43.167C52.589 41.796 56 40.533 56 41.443ZM51.872 43.75C50.629 45.336 50.664 45.371 52.25 44.128C53.212 43.373 54 42.585 54 42.378C54 41.555 53.179 42.084 51.872 43.75ZM207.399 47.268C207.821 46.845 208.017 47.175 207.833 48C207.65 48.825 208.063 49.387 208.75 49.25C209.438 49.112 209.887 49.346 209.75 49.769C209.398 50.852 213.598 56.033 214.367 55.466C214.715 55.21 214.779 55.296 214.509 55.658C214.238 56.02 214.55 57.032 215.2 57.908C216.893 60.186 213.354 56.588 205.945 48.5C202.419 44.65 201.131 42.97 203.083 44.768C205.034 46.565 206.977 47.69 207.399 47.268ZM41 57.544C41 57.66 40.4 58.253 39.667 58.862C38.67 59.689 38.333 59.635 38.333 58.651C38.333 57.926 38.933 57.333 39.667 57.333C40.4 57.333 41 57.428 41 57.544ZM220.307 64.923C222.976 69.47 221.7 68.658 218.463 63.75C216.921 61.413 216.299 60.028 217.08 60.673C217.861 61.318 219.313 63.231 220.307 64.923ZM36.408 63.5C35.507 64.875 34.611 66 34.416 66C33.711 66 35.382 62.481 36.427 61.765C38.147 60.588 38.144 60.85 36.408 63.5ZM133.598 68.736C133.005 69.328 130 67.782 130 66.885C130 66.389 130.88 66.532 131.955 67.204C133.03 67.875 133.769 68.564 133.598 68.736ZM228 75.503C228 75.711 227.48 76.203 226.845 76.595C226.13 77.038 225.962 76.87 226.405 76.155C226.797 75.52 226.615 75 226 75C225.385 75 225.16 74.55 225.5 74C225.84 73.45 225.657 73 225.094 73C224.531 73 223.555 71.987 222.926 70.75C222.12 69.166 222.702 69.481 224.89 71.812C226.601 73.633 228 75.294 228 75.503ZM30.5 73C29.647 74.65 28.724 76 28.449 76C28.174 76 28.647 74.65 29.5 73C30.353 71.35 31.276 70 31.551 70C31.826 70 31.353 71.35 30.5 73ZM26.618 80.662C25.772 82.223 25.062 83.184 25.04 82.797C24.972 81.608 27.299 76.965 27.741 77.407C27.969 77.636 27.464 79.1 26.618 80.662ZM166.275 85.203C169.699 88.561 171.154 90.227 169.509 88.904C167.863 87.582 166.183 86.05 165.774 85.5C165.336 84.911 165.024 84.891 165.015 85.451C165.007 85.975 163.174 84.502 160.941 82.179C158.709 79.856 156.389 78.259 155.787 78.632C155.128 79.039 154.976 78.848 155.406 78.152C156.462 76.443 159.066 78.132 166.275 85.203ZM162 82.378C162 82.585 162.787 83.373 163.75 84.128C165.336 85.371 165.371 85.336 164.128 83.75C162.821 82.084 162 81.555 162 82.378ZM24 87C24 87.55 23.523 88 22.941 88C22.359 88 22.16 87.55 22.5 87C22.84 86.45 23.316 86 23.559 86C23.802 86 24 86.45 24 87ZM233.914 94C233.878 94.989 233.567 94.819 233 93.5C231.819 90.751 231.819 89.172 233 91C233.533 91.825 233.945 93.175 233.914 94ZM174.5 94C174.84 94.55 174.641 95 174.059 95C173.477 95 173 94.55 173 94C173 93.45 173.198 93 173.441 93C173.684 93 174.16 93.45 174.5 94ZM177.5 99C178.353 100.65 178.826 102 178.551 102C178.276 102 177.353 100.65 176.5 99C175.647 97.35 175.174 96 175.449 96C175.724 96 176.647 97.35 177.5 99ZM234.683 98.188C234.364 98.985 234.127 98.748 234.079 97.583C234.036 96.529 234.272 95.939 234.604 96.271C234.936 96.603 234.972 97.466 234.683 98.188ZM19.683 100.188C19.364 100.985 19.127 100.748 19.079 99.583C19.036 98.529 19.272 97.939 19.604 98.271C19.936 98.603 19.972 99.466 19.683 100.188ZM236.93 105.917C237.031 109.411 236.363 108.143 235.656 103.5C235.232 100.712 235.322 100.106 235.953 101.5C236.452 102.6 236.891 104.587 236.93 105.917ZM18.662 105.25C18.385 105.938 18.158 105.375 18.158 104C18.158 102.625 18.385 102.063 18.662 102.75C18.94 103.438 18.94 104.563 18.662 105.25ZM180.417 104.643C181.335 107.037 180.619 107.221 179.204 104.955C178.532 103.88 178.389 103 178.885 103C179.38 103 180.07 103.739 180.417 104.643ZM17.662 111.25C17.385 111.938 17.158 111.375 17.158 110C17.158 108.625 17.385 108.063 17.662 108.75C17.94 109.438 17.94 110.563 17.662 111.25ZM182.83 113.5C182.806 115.108 182.644 115.01 182 113C180.905 109.581 180.905 106.952 182 109.5C182.473 110.6 182.846 112.4 182.83 113.5ZM237.693 113.731C237.439 114.704 237.215 114.15 237.195 112.5C237.175 110.85 237.382 110.054 237.656 110.731C237.93 111.408 237.947 112.758 237.693 113.731ZM16.741 132.211C16.546 135.67 16.384 133.1 16.382 126.5C16.38 119.9 16.54 117.07 16.738 120.211C16.936 123.352 16.937 128.752 16.741 132.211ZM183.662 119.25C183.385 119.938 183.158 119.375 183.158 118C183.158 116.625 183.385 116.063 183.662 116.75C183.94 117.438 183.94 118.563 183.662 119.25ZM238.732 132.25C238.522 134.588 238.349 132.675 238.349 128C238.349 123.325 238.522 121.412 238.732 123.75C238.943 126.087 238.943 129.912 238.732 132.25ZM184.683 127.188C184.364 127.985 184.127 127.748 184.079 126.583C184.036 125.529 184.272 124.939 184.604 125.271C184.936 125.603 184.972 126.466 184.683 127.188ZM183.693 136.731C183.439 137.704 183.215 137.15 183.195 135.5C183.175 133.85 183.382 133.054 183.656 133.731C183.93 134.408 183.947 135.758 183.693 136.731ZM237.693 141.731C237.439 142.704 237.215 142.15 237.195 140.5C237.175 138.85 237.382 138.054 237.656 138.731C237.93 139.408 237.947 140.758 237.693 141.731ZM181.909 143.909C181.233 146.166 180.495 147.829 180.27 147.604C180.045 147.379 180.415 145.348 181.091 143.091C181.767 140.834 182.505 139.171 182.73 139.396C182.955 139.621 182.585 141.652 181.909 143.909ZM17.693 144.731C17.439 145.704 17.215 145.15 17.195 143.5C17.175 141.85 17.382 141.054 17.656 141.731C17.93 142.408 17.947 143.758 17.693 144.731ZM235.98 152.083C234.335 158.942 233.738 157.751 235.238 150.601C235.903 147.432 236.613 145.339 236.816 145.948C237.019 146.558 236.643 149.319 235.98 152.083ZM18.662 150.25C18.385 150.938 18.158 150.375 18.158 149C18.158 147.625 18.385 147.063 18.662 147.75C18.94 148.438 18.94 149.563 18.662 150.25ZM19.683 154.188C19.364 154.985 19.127 154.748 19.079 153.583C19.036 152.529 19.272 151.939 19.604 152.271C19.936 152.603 19.972 153.466 19.683 154.188ZM176.583 155.75C176.354 155.979 175.951 156.017 175.688 155.833C175.425 155.65 174.15 156.4 172.855 157.5L170.5 159.5L172.254 157.417C173.219 156.271 174.681 155.333 175.504 155.333C176.327 155.333 176.813 155.521 176.583 155.75ZM173.929 159.75C171.243 163.323 163.403 171.227 160.5 173.29C158.822 174.482 158.047 174.737 158.741 173.869C159.424 173.015 159.762 172.095 159.491 171.825C159.221 171.554 159.769 171.333 160.709 171.333C161.649 171.333 165.137 168.353 168.459 164.71C174.358 158.243 176.572 156.235 173.929 159.75ZM233 162.5C232.34 164.499 231.635 165.968 231.433 165.766C231.23 165.564 231.576 163.734 232.2 161.7C232.824 159.666 233.53 158.196 233.767 158.434C234.005 158.672 233.66 160.501 233 162.5ZM23.843 166.5C23.84 167.05 23.219 166.15 22.464 164.5C21.708 162.85 21.104 160.825 21.121 160C21.138 159.175 21.759 160.075 22.5 162C23.241 163.925 23.846 165.95 23.843 166.5ZM230.395 169.75C230.041 171.262 229.13 173.162 228.37 173.97C227.348 175.057 227.42 174.34 228.646 171.22C230.542 166.392 231.336 165.724 230.395 169.75ZM26.929 173.5C26.929 174.05 26.286 173.375 25.5 172C24.714 170.625 24.071 169.05 24.071 168.5C24.071 167.95 24.714 168.625 25.5 170C26.286 171.375 26.929 172.95 26.929 173.5ZM153.441 177.667C152.438 178.4 151.236 179 150.769 179C150.303 179 150.482 178.4 151.167 177.667C151.852 176.933 153.054 176.333 153.838 176.333C154.875 176.333 154.766 176.698 153.441 177.667ZM226.124 178.267C225.136 179.247 225.022 179.132 225.564 177.707C225.94 176.721 226.499 176.166 226.807 176.474C227.115 176.781 226.808 177.588 226.124 178.267ZM148 180C147.175 180.533 146.05 180.969 145.5 180.969C144.95 180.969 145.175 180.533 146 180C146.825 179.467 147.95 179.031 148.5 179.031C149.05 179.031 148.825 179.467 148 180ZM143.917 181.383C143.688 181.594 141.925 182.04 140 182.374L136.5 182.982L140 181.624C143.096 180.423 145.095 180.3 143.917 181.383ZM223.579 182.774C221.857 184.423 221.835 184.402 223.1 182.295C223.829 181.083 224.64 180.306 224.903 180.569C225.166 180.832 224.57 181.824 223.579 182.774ZM31.447 183.085C31.125 183.606 30.436 183.769 29.915 183.447C29.394 183.125 29.231 182.436 29.553 181.915C29.875 181.394 30.564 181.231 31.085 181.553C31.606 181.875 31.769 182.564 31.447 183.085ZM134.547 184.234C133.482 184.83 131.51 186.484 130.166 187.909L127.721 190.5L129.03 188C129.749 186.625 130.361 185.275 130.389 185C130.418 184.725 130.957 184.618 131.587 184.763C132.217 184.908 133.307 184.335 134.009 183.489C134.711 182.643 135.555 182.221 135.884 182.551C136.214 182.88 135.612 183.638 134.547 184.234ZM34.129 186.25C35.216 188.29 35.172 188.372 33.664 187.128C32.749 186.373 32 185.36 32 184.878C32 183.35 32.889 183.923 34.129 186.25ZM218.951 190.359C217.86 192.207 216.086 194.517 215.008 195.493C213.929 196.469 213.331 197.727 213.678 198.288C214.029 198.856 213.819 199.006 213.206 198.627C212.497 198.189 213.564 195.991 216.195 192.473C220.868 186.225 221.822 185.493 218.951 190.359ZM42.355 197.486C44.96 200.504 46.396 202.705 45.546 202.379C44.696 202.053 44 201.358 44 200.834C44 200.31 43.48 200.203 42.845 200.595C42.211 200.988 41.952 200.886 42.271 200.37C42.59 199.854 41.535 197.923 39.926 196.08C37.173 192.927 36.578 192 37.309 192C37.479 192 39.75 194.469 42.355 197.486ZM209.59 201.907C208.058 203.505 206.849 205.08 206.902 205.407C206.956 205.733 206.662 206.021 206.25 206.046C205.838 206.072 203.925 207.529 202 209.284C200.075 211.039 201.412 209.444 204.971 205.738C208.53 202.032 211.652 199 211.908 199C212.164 199 211.121 200.308 209.59 201.907ZM54.547 210.177C57.86 213.678 57.994 213.961 55.373 211.927C52.669 209.828 49.385 206 50.289 206C50.457 206 52.373 207.88 54.547 210.177ZM195.5 215C193.919 216.65 192.165 218 191.601 218C190.672 218 196.907 212.136 197.937 212.041C198.177 212.018 197.081 213.35 195.5 215ZM73 223.737C73.275 224.031 72.478 223.739 71.229 223.089C69.98 222.439 68.448 222.223 67.825 222.608C67.162 223.018 66.965 222.865 67.352 222.24C67.715 221.652 66.485 220.227 64.619 219.073C62.752 217.92 60.675 216.313 60.002 215.503C58.954 214.239 71.619 222.263 73 223.737ZM90.872 223.746C90.118 224.706 88.97 226.056 88.321 226.746C87.045 228.104 79.419 228.487 78.643 227.232C78.382 226.809 79.858 226.624 81.924 226.821C84.847 227.1 86.325 226.613 88.59 224.621C92.01 221.615 92.78 221.32 90.872 223.746ZM184 222.401C184 223.137 176.755 227.089 176.28 226.613C176.022 226.355 177.541 225.232 179.656 224.116C183.927 221.863 184 221.834 184 222.401ZM173.789 228.395C173.08 229.162 172.114 229.556 171.643 229.27C171.172 228.984 171.397 228.363 172.143 227.89C174.253 226.553 175.218 226.849 173.789 228.395ZM128.29 230.001C128.578 231.102 128.405 231.751 127.907 231.442C127.408 231.134 127 230.234 127 229.441C127 227.371 127.679 227.666 128.29 230.001ZM165.5 231.536C163.85 232.292 161.825 232.896 161 232.879C160.175 232.862 161.075 232.241 163 231.5C167.566 229.742 169.362 229.768 165.5 231.536ZM135 236.857C135.275 237.111 134.6 236.978 133.5 236.563C132.4 236.147 130.825 235.66 130 235.48C129.175 235.3 128.361 235.119 128.191 235.077C128.021 235.034 128.157 234.555 128.493 234.011C129.008 233.178 132.827 234.848 135 236.857ZM155.729 234.604C155.397 234.936 154.534 234.972 153.813 234.683C153.015 234.364 153.252 234.127 154.417 234.079C155.471 234.036 156.061 234.272 155.729 234.604ZM152.411 235.856C152.702 236.326 151.828 236.499 150.47 236.239C149.111 235.979 148 235.594 148 235.383C148 234.61 151.899 235.027 152.411 235.856ZM146.269 236.656C145.592 236.93 144.242 236.947 143.269 236.693C142.296 236.439 142.85 236.215 144.5 236.195C146.15 236.175 146.946 236.382 146.269 236.656ZM140 237.383C140 237.594 138.889 237.979 137.53 238.239C136.172 238.499 135.298 238.326 135.589 237.856C136.101 237.027 140 236.61 140 237.383Z" fill="#88A4E3"/>
<path fill-rule="evenodd" clip-rule="evenodd" d="M0 125V250H125H250V125V0H125H0V125ZM158 19.442C168.936 22.802 168.028 22.502 171.5 23.908C176.795 26.052 183.272 29.6 187.757 32.813C189.533 34.086 191.509 34.803 192.148 34.409C192.825 33.99 193.041 34.125 192.666 34.732C192.312 35.305 192.648 36.293 193.414 36.928C194.179 37.564 195.001 37.727 195.239 37.292C195.477 36.856 195.516 37.113 195.325 37.861C195.1 38.742 195.53 39.011 196.541 38.623C197.4 38.293 197.877 38.39 197.599 38.839C197.031 39.759 206.064 47.638 207.242 47.25C207.659 47.112 207.888 47.562 207.75 48.25C207.613 48.937 208.063 49.387 208.75 49.25C209.438 49.112 209.888 49.346 209.75 49.769C209.349 51.005 213.663 56.004 214.451 55.216C214.844 54.822 215.018 54.95 214.836 55.5C214.469 56.613 223.65 70.908 225.776 72.534C226.52 73.102 227.278 74.677 227.461 76.034C227.644 77.39 229.02 81.425 230.519 85C234.964 95.606 236.871 103.741 238.137 117.5C239.163 128.657 239.102 132.07 237.706 141.574C236.812 147.665 234.687 156.89 232.985 162.074C229.441 172.871 229.79 172.041 226.219 178.159C218.971 190.579 216.91 193.772 215.055 195.45C213.951 196.45 213.334 197.77 213.684 198.384C214.034 198.998 213.973 199.187 213.549 198.805C212.775 198.108 207.5 203.677 207.5 205.191C207.5 205.636 207.139 205.974 206.699 205.942C206.258 205.911 202.823 208.611 199.065 211.942C195.307 215.274 191.969 218 191.647 218C191.326 218 188.011 219.966 184.281 222.368C180.552 224.77 176.488 227.051 175.25 227.435C174.012 227.82 173 228.581 173 229.126C173 229.672 172.599 229.87 172.109 229.567C171.618 229.264 169.256 229.862 166.859 230.895C164.461 231.929 160.16 233.354 157.3 234.063C154.44 234.772 152.254 235.611 152.443 235.926C152.632 236.242 150.319 236.603 147.303 236.728C144.287 236.853 140.28 237.381 138.398 237.9C136.517 238.42 135.205 238.478 135.482 238.029C135.918 237.323 132.565 235.925 129.5 235.536C128.95 235.466 128.628 234.82 128.785 234.099C128.942 233.379 128.617 232.244 128.064 231.577C127.477 230.87 127.006 222.428 126.933 211.319C126.829 195.561 127.087 191.733 128.424 189.147C129.313 187.428 130.144 185.679 130.27 185.26C130.397 184.842 130.894 184.631 131.375 184.792C131.856 184.952 133.094 184.32 134.125 183.387C135.156 182.454 136 181.965 136 182.301C136 182.636 137.806 182.274 140.014 181.495C142.222 180.716 144.359 180.059 144.764 180.034C146.989 179.9 152 177.704 152 176.863C152 176.324 152.369 176.11 152.821 176.389C154.185 177.232 160.169 173.083 159.395 171.83C158.94 171.093 159.139 170.968 159.959 171.475C160.801 171.995 163.54 169.852 168.113 165.093C174.624 158.319 177.623 153.469 172.75 157.595L170.5 159.5L172.384 157.274C173.42 156.049 174.635 155.274 175.083 155.552C176.094 156.176 178.17 152.503 177.298 151.631C176.951 151.284 177.148 151 177.736 151C179.299 151 183.049 137.808 183.702 130.012C184.271 123.233 182.071 109.852 179.673 105.5C179.067 104.4 178.525 103.275 178.469 103C178.111 101.234 174.484 95 173.815 95C173.367 95 173 94.397 173 93.661C173 92.924 171.2 90.656 169 88.62C166.8 86.585 165 85.253 165 85.661C165 86.069 163.174 84.502 160.941 82.179C158.709 79.856 156.389 78.259 155.787 78.632C155.079 79.069 154.981 78.84 155.51 77.985C156.109 77.015 155.868 76.836 154.612 77.319C153.668 77.681 153.142 77.579 153.442 77.093C154.063 76.089 153.221 75.686 143.5 72.329C139.65 70.999 137.862 70.125 139.526 70.386C150.399 72.091 165.054 81.331 172.507 91.179C186.626 109.837 188.721 131.896 178.371 152.926C171.682 166.519 156.83 178.465 141.729 182.398C134.725 184.223 132.685 185.313 130.078 188.629C128.138 191.095 128 192.545 128 210.5C128 228.611 128.124 229.888 130.131 232.44C133.372 236.56 135.891 237.083 145.217 235.573C180.243 229.904 210.345 207.538 226.07 175.5C246.823 133.221 239.2 83.91 206.719 50.32C190.48 33.527 171.852 23.097 149.823 18.463C138.747 16.133 134.375 16.471 130.923 19.923L128 22.846V42.388V61.93L131.104 65.465C132.811 67.409 133.823 68.993 133.354 68.985C131.901 68.959 130.569 67.624 128.789 64.412C127.354 61.821 127.059 58.205 126.956 41.929L126.834 22.534L130.068 19.135L133.302 15.737L141.401 16.284C145.855 16.585 153.325 18.006 158 19.442ZM87.3 26.706C89.06 27.644 90.95 28.281 91.5 28.122C92.05 27.963 92.18 28.153 91.79 28.543C91.399 28.934 91.737 30.524 92.54 32.077C93.789 34.493 93.999 48.166 93.996 126.7C93.993 217.766 93.976 218.527 91.923 221.895C90.785 223.762 89.243 225.899 88.498 226.645C86.26 228.883 80.717 228.196 74.691 224.932C71.576 223.245 68.56 222.154 67.989 222.507C67.418 222.86 67.074 222.724 67.225 222.205C67.376 221.687 65.025 219.4 62 217.124C58.975 214.849 53.526 210.076 49.892 206.518C46.257 202.961 42.923 200.376 42.481 200.775C42.04 201.174 41.952 201.019 42.286 200.432C42.62 199.845 41.905 198.255 40.696 196.899C37.552 193.368 32 185.115 32 183.971C32 183.437 31.437 183.113 30.75 183.25C30.063 183.388 29.6 182.974 29.723 182.331C29.846 181.688 28.182 177.397 26.026 172.796C15.364 150.044 13.047 119.307 20.238 96C21.34 92.425 22.323 89.05 22.422 88.5C23.054 84.971 34.371 63.892 37.286 60.814C38.269 59.776 38.762 58.424 38.382 57.809C37.977 57.154 38.141 56.969 38.777 57.362C39.374 57.731 40.508 57.113 41.296 55.988C42.084 54.863 44.566 51.982 46.812 49.586C49.058 47.189 50.691 45.025 50.442 44.775C50.192 44.525 50.89 43.504 51.994 42.506C53.097 41.507 54 41.001 54 41.38C54 41.76 54.913 41.582 56.028 40.985C57.143 40.388 57.749 39.403 57.373 38.795C56.962 38.129 57.149 37.974 57.845 38.405C58.48 38.797 59 38.632 59 38.038C59 37.443 60.235 36.404 61.744 35.729C66.485 33.606 73.912 28.248 73.191 27.471C72.811 27.061 73.175 26.941 74 27.203C74.825 27.465 76.85 27.094 78.5 26.379C82.481 24.653 83.521 24.692 87.3 26.706ZM80.5 26.74C77.456 27.479 65.893 34.436 60.105 39.011C57.269 41.253 54.562 42.847 54.088 42.554C53.614 42.262 52.613 42.805 51.863 43.761C50.601 45.371 50.648 45.389 52.493 44C53.589 43.175 51.418 45.875 47.669 50C28.523 71.067 18.546 94.574 17.287 121.583C16.414 140.297 20.576 160.332 28.649 176.287C29.982 178.921 30.761 181.578 30.381 182.192C29.994 182.819 30.139 183.032 30.714 182.677C31.276 182.329 33.795 185.141 36.312 188.925C45.366 202.542 59.637 215.534 74.357 223.561C80.384 226.849 81.642 227.192 84.761 226.4C86.765 225.892 89.22 224.272 90.404 222.677C92.491 219.867 92.501 219.447 92.801 128.677C93.011 64.888 92.773 36.372 92.009 33.746C90.538 28.688 85.389 25.554 80.5 26.74ZM162 82.378C162 82.585 162.787 83.373 163.75 84.128C165.336 85.371 165.371 85.336 164.128 83.75C162.821 82.084 162 81.555 162 82.378Z" fill="#537CF8"/>
<path fill-rule="evenodd" clip-rule="evenodd" d="M0 125V250H125H250V125V0H125H0V125ZM158 19.442C168.936 22.802 168.028 22.502 171.5 23.908C176.795 26.052 183.272 29.6 187.757 32.813C189.533 34.086 191.509 34.803 192.148 34.409C192.825 33.99 193.041 34.125 192.666 34.732C192.312 35.305 192.648 36.293 193.414 36.928C194.179 37.564 195.001 37.727 195.239 37.292C195.477 36.856 195.516 37.113 195.325 37.861C195.1 38.742 195.53 39.011 196.541 38.623C197.4 38.293 197.877 38.39 197.599 38.839C197.031 39.759 206.064 47.638 207.242 47.25C207.659 47.112 207.888 47.562 207.75 48.25C207.613 48.937 208.063 49.387 208.75 49.25C209.438 49.112 209.888 49.346 209.75 49.769C209.349 51.005 213.663 56.004 214.451 55.216C214.844 54.822 215.018 54.95 214.836 55.5C214.469 56.613 223.65 70.908 225.776 72.534C226.52 73.102 227.278 74.677 227.461 76.034C227.644 77.39 229.02 81.425 230.519 85C234.964 95.606 236.871 103.741 238.137 117.5C239.163 128.657 239.102 132.07 237.706 141.574C236.812 147.665 234.687 156.89 232.985 162.074C229.441 172.871 229.79 172.041 226.219 178.159C218.971 190.579 216.91 193.772 215.055 195.45C213.951 196.45 213.334 197.77 213.684 198.384C214.034 198.998 213.973 199.187 213.549 198.805C212.775 198.108 207.5 203.677 207.5 205.191C207.5 205.636 207.139 205.974 206.699 205.942C206.258 205.911 202.823 208.611 199.065 211.942C195.307 215.274 191.969 218 191.647 218C191.326 218 188.011 219.966 184.281 222.368C180.552 224.77 176.488 227.051 175.25 227.435C174.012 227.82 173 228.581 173 229.126C173 229.672 172.599 229.87 172.109 229.567C171.618 229.264 169.256 229.862 166.859 230.895C164.461 231.929 160.16 233.354 157.3 234.063C154.44 234.772 152.254 235.611 152.443 235.926C152.632 236.242 150.319 236.603 147.303 236.728C144.287 236.853 140.28 237.381 138.398 237.9C136.517 238.42 135.205 238.478 135.482 238.029C135.918 237.323 132.565 235.925 129.5 235.536C128.95 235.466 128.628 234.82 128.785 234.099C128.942 233.379 128.617 232.244 128.064 231.577C127.477 230.87 127.006 222.428 126.933 211.319C126.829 195.561 127.087 191.733 128.424 189.147C129.313 187.428 130.144 185.679 130.27 185.26C130.397 184.842 130.894 184.631 131.375 184.792C131.856 184.952 133.094 184.32 134.125 183.387C135.156 182.454 136 181.965 136 182.301C136 182.636 137.806 182.274 140.014 181.495C142.222 180.716 144.359 180.059 144.764 180.034C146.989 179.9 152 177.704 152 176.863C152 176.324 152.369 176.11 152.821 176.389C154.185 177.232 160.169 173.083 159.395 171.83C158.94 171.093 159.139 170.968 159.959 171.475C160.801 171.995 163.54 169.852 168.113 165.093C174.624 158.319 177.623 153.469 172.75 157.595L170.5 159.5L172.384 157.274C173.42 156.049 174.635 155.274 175.083 155.552C176.094 156.176 178.17 152.503 177.298 151.631C176.951 151.284 177.148 151 177.736 151C179.299 151 183.049 137.808 183.702 130.012C184.271 123.233 182.071 109.852 179.673 105.5C179.067 104.4 178.525 103.275 178.469 103C178.111 101.234 174.484 95 173.815 95C173.367 95 173 94.397 173 93.661C173 92.924 171.2 90.656 169 88.62C166.8 86.585 165 85.253 165 85.661C165 86.069 163.174 84.502 160.941 82.179C158.709 79.856 156.389 78.259 155.787 78.632C155.079 79.069 154.981 78.84 155.51 77.985C156.109 77.015 155.868 76.836 154.612 77.319C153.668 77.681 153.142 77.579 153.442 77.093C154.064 76.088 153.205 75.677 143.5 72.337C138.179 70.506 137.459 70.066 140.5 70.501C143.397 70.916 144.086 70.792 143 70.052C141.09 68.751 142.99 68.701 145 70C146.333 70.862 146.333 70.976 145 71.031C144.175 71.066 145.609 71.918 148.187 72.926C150.764 73.934 154.408 75.707 156.283 76.866C158.159 78.025 159.926 78.74 160.211 78.456C160.496 78.171 161.499 79.112 162.439 80.547C163.379 81.983 164.697 82.947 165.366 82.69C166.036 82.433 167.465 82.908 168.542 83.746C170.302 85.115 170.314 85.205 168.665 84.633C167.298 84.16 167.639 85.02 170.003 88.004C171.748 90.207 173.555 91.775 174.019 91.488C174.482 91.202 175.187 91.494 175.585 92.138C176.037 92.869 175.876 93.041 175.155 92.595C174.52 92.203 174 92.157 174 92.494C174 93.588 178.664 100.003 179.124 99.542C179.37 99.296 179.624 99.861 179.689 100.798C179.753 101.734 180.942 105.993 182.329 110.263C184.462 116.822 184.806 119.535 184.55 127.763C184.353 134.114 183.534 139.71 182.196 143.856C181.067 147.351 180.379 150.951 180.666 151.856C181.067 153.116 180.965 153.188 180.233 152.166C179.457 151.082 179.165 151.128 178.671 152.416C178.336 153.287 178.2 154.563 178.367 155.25C178.535 155.938 178.476 156.139 178.235 155.697C177.995 155.255 177.183 155.705 176.431 156.697C174.634 159.067 174.621 160.559 176.411 159.074C177.498 158.172 177.994 158.201 178.571 159.201C178.983 159.916 178.948 160.162 178.491 159.748C178.035 159.334 176.791 159.784 175.726 160.748C174.661 161.712 173.5 162.5 173.145 162.5C172.79 162.5 172.495 163.045 172.488 163.712C172.474 165.253 170.267 167.486 168.7 167.545C168.04 167.57 167.612 168.133 167.75 168.795C167.887 169.458 167.662 169.947 167.25 169.882C165.235 169.563 164.878 170.157 166.128 171.75C167.371 173.336 167.336 173.371 165.75 172.128C164.353 171.032 163.7 171.004 162.511 171.991C161.692 172.671 161.237 173.575 161.5 174C161.763 174.425 161.195 175.387 160.239 176.137C158.665 177.37 158.63 177.334 159.872 175.75C160.627 174.788 161.056 174 160.826 174C159.473 174 147.918 180.836 148.632 181.214C149.11 181.466 148.869 181.509 148.097 181.309C147.326 181.109 145.301 181.367 143.597 181.883C141.894 182.399 139.244 183.099 137.709 183.44C135.989 183.821 135.185 184.49 135.614 185.184C136.053 185.895 135.857 186.029 135.08 185.55C133.493 184.568 128.765 188.945 129.459 190.754C129.744 191.496 129.532 191.829 128.989 191.493C128.35 191.098 128 197.731 128 210.218C128 226.464 128.26 229.927 129.628 231.879C130.716 233.433 131.492 233.822 131.966 233.055C132.472 232.236 133.052 232.357 133.98 233.476C135.097 234.822 135.025 234.947 133.477 234.353C132.177 233.854 131.889 234.012 132.449 234.917C132.876 235.609 134.076 235.952 135.114 235.68C136.234 235.387 136.748 235.599 136.376 236.2C135.982 236.838 136.817 237.014 138.625 236.674C140.206 236.378 143.3 235.868 145.5 235.542C152.427 234.515 162.14 231.704 161.062 231.039C160.494 230.687 161.525 230.4 163.354 230.4C167.051 230.4 184.365 222.244 188.187 218.703C189.494 217.491 190.999 216.275 191.532 216C192.064 215.725 192.376 215.129 192.225 214.676C192.074 214.222 192.379 214.116 192.903 214.44C193.427 214.764 195.125 213.858 196.678 212.426C198.926 210.353 199.093 209.946 197.5 210.425C195.843 210.923 195.924 210.694 197.972 209.091C199.332 208.027 200.827 207.393 201.296 207.683C202.612 208.496 206.924 203.964 206.323 202.399C206.03 201.636 205.318 201.303 204.741 201.66C204.084 202.066 203.993 201.82 204.498 201.003C205.128 199.983 205.601 200.101 206.653 201.54C207.673 202.934 208.029 203.032 208.118 201.941C208.184 201.149 208.146 200.05 208.035 199.5C207.924 198.95 208.175 198.842 208.592 199.259C209.01 199.677 210.398 199.036 211.676 197.835C214.136 195.524 214.86 193.365 212.75 194.633C211.89 195.149 211.926 194.859 212.863 193.703C213.613 192.778 214.554 192.224 214.954 192.472C216.102 193.181 220.171 187.086 219.391 185.824C218.976 185.153 219.136 184.966 219.784 185.366C221.203 186.243 231.29 166.218 230.654 163.786C230.397 162.802 230.546 162.22 230.986 162.491C232.265 163.282 235.868 148.389 237.032 137.5C238.467 124.072 237.609 114.125 233.497 96.5C233.24 95.4 232.029 91.654 230.804 88.176C229.058 83.215 228.405 82.245 227.774 83.676C227.234 84.899 227.152 84.567 227.525 82.666C227.925 80.624 227.746 80.039 226.886 80.571C226.158 81.02 225.953 80.884 226.362 80.223C227.166 78.922 223.999 71.883 222.912 72.555C221.569 73.384 217.947 67.302 218.666 65.427C219.162 64.134 218.991 63.888 218.015 64.49C217.203 64.992 216.932 64.919 217.313 64.302C217.656 63.748 217.239 62.441 216.386 61.397C215.03 59.737 214.906 59.719 215.387 61.25C216.207 63.857 215.541 63.406 212.434 59.25C210.31 56.409 210.16 55.962 211.815 57.405C216.263 61.283 213.821 57.254 208.821 52.462C205.38 49.166 204.205 48.411 205.321 50.215C207.648 53.978 207.424 54.809 204.935 51.645C203.799 50.201 203.132 48.596 203.451 48.079C203.771 47.561 203.606 46.875 203.085 46.553C202.564 46.231 201.856 46.425 201.51 46.984C201.165 47.543 200.346 47.986 199.691 47.97C199.036 47.953 199.328 47.458 200.341 46.869C202.071 45.864 202.014 45.624 199.404 42.899C196.661 40.037 194.211 38.914 195.595 41.155C196.041 41.876 195.869 42.037 195.138 41.585C194.494 41.187 194.209 40.471 194.504 39.993C194.8 39.515 193.038 37.746 190.59 36.062C185.801 32.767 184.444 32.271 185.633 34.25C186.149 35.11 185.859 35.074 184.703 34.137C183.778 33.387 183.223 32.449 183.468 32.051C184.124 30.99 177.051 27.851 175.777 28.638C175.172 29.011 174.975 28.849 175.332 28.272C176.25 26.787 166.395 22.758 163.697 23.515C162.122 23.957 161.891 23.86 162.882 23.175C163.901 22.47 162.851 21.82 158.882 20.701C143.673 16.411 135.629 15.931 131.635 19.073C130.186 20.212 129 21.632 129 22.228C129 22.823 129.977 22.453 131.172 21.405C132.366 20.357 132.984 20.113 132.544 20.862C132.059 21.686 132.288 22.564 133.122 23.087C134.008 23.642 133.339 23.807 131.25 23.548L128 23.146V41.991C128 60.469 128.479 65.461 130.014 62.977C130.542 62.122 130.943 62.099 131.434 62.893C131.81 63.502 131.615 64 131 64C130.385 64 130.165 64.457 130.51 65.016C130.856 65.575 131.67 65.728 132.319 65.356C132.969 64.984 133.166 65.048 132.759 65.498C132.351 65.948 132.519 66.92 133.131 67.658C133.744 68.396 133.852 68.993 133.372 68.985C131.901 68.959 130.576 67.637 128.789 64.412C127.354 61.821 127.059 58.205 126.956 41.929L126.834 22.534L130.068 19.135L133.302 15.737L141.401 16.284C145.855 16.585 153.325 18.006 158 19.442ZM148.729 19.604C148.397 19.936 147.534 19.972 146.813 19.683C146.015 19.364 146.252 19.127 147.417 19.079C148.471 19.036 149.061 19.272 148.729 19.604ZM152.493 20.989C152.843 21.555 152.442 21.723 151.552 21.382C149.82 20.717 149.503 20 150.941 20C151.459 20 152.157 20.445 152.493 20.989ZM87.3 26.706C89.06 27.644 90.95 28.281 91.5 28.122C92.05 27.963 92.18 28.153 91.79 28.543C91.399 28.934 91.737 30.524 92.54 32.077C93.789 34.493 93.999 48.166 93.996 126.7C93.993 217.766 93.976 218.527 91.923 221.895C90.785 223.762 89.243 225.899 88.498 226.645C86.26 228.883 80.717 228.196 74.691 224.932C71.576 223.245 68.56 222.154 67.989 222.507C67.418 222.86 67.074 222.724 67.225 222.205C67.376 221.687 65.025 219.4 62 217.124C58.975 214.849 53.526 210.076 49.892 206.518C46.257 202.961 42.923 200.376 42.481 200.775C42.04 201.174 41.952 201.019 42.286 200.432C42.62 199.845 41.905 198.255 40.696 196.899C37.552 193.368 32 185.115 32 183.971C32 183.437 31.437 183.113 30.75 183.25C30.063 183.388 29.6 182.974 29.723 182.331C29.846 181.688 28.182 177.397 26.026 172.796C15.364 150.044 13.047 119.307 20.238 96C21.34 92.425 22.323 89.05 22.422 88.5C23.054 84.971 34.371 63.892 37.286 60.814C38.269 59.776 38.762 58.424 38.382 57.809C37.977 57.154 38.141 56.969 38.777 57.362C39.374 57.731 40.508 57.113 41.296 55.988C42.084 54.863 44.566 51.982 46.812 49.586C49.058 47.189 50.691 45.025 50.442 44.775C50.192 44.525 50.89 43.504 51.994 42.506C53.097 41.507 54 41.001 54 41.38C54 41.76 54.913 41.582 56.028 40.985C57.143 40.388 57.749 39.403 57.373 38.795C56.962 38.129 57.149 37.974 57.845 38.405C58.48 38.797 59 38.632 59 38.038C59 37.443 60.235 36.404 61.744 35.729C66.485 33.606 73.912 28.248 73.191 27.471C72.811 27.061 73.175 26.941 74 27.203C74.825 27.465 76.85 27.094 78.5 26.379C82.481 24.653 83.521 24.692 87.3 26.706ZM80 26.95C76.722 27.943 70.407 31.818 70.833 32.574C71.017 32.9 70.832 33.467 70.423 33.833C70.014 34.2 70.003 33.938 70.399 33.25C70.794 32.563 70.835 32 70.489 32C69.239 32 60.873 38.206 61.406 38.739C61.706 39.039 62.75 38.658 63.726 37.893C65.349 36.619 65.38 36.653 64.09 38.296C63.314 39.283 62.012 39.835 61.195 39.521C59.442 38.849 55.78 41.835 56.644 43.233C56.973 43.765 56.334 43.714 55.226 43.121C53.675 42.291 52.927 42.383 51.983 43.521C51.307 44.334 51.125 45 51.578 45C52.03 45 51.86 45.54 51.2 46.2C48.778 48.622 50.085 49.272 52.658 46.924L55.317 44.5L52.969 47.752C51.36 49.98 50.385 50.623 49.871 49.792C49.316 48.894 48.588 49.063 47.061 50.445C44.817 52.476 44.233 54.579 46.25 53.367C47.11 52.851 47.074 53.141 46.137 54.297C45.387 55.222 44.398 55.746 43.939 55.462C43.09 54.938 36.909 62.648 33.086 69C25.728 81.225 20.11 97.155 17.952 111.916C16.86 119.387 17.063 138.292 18.292 143.5C18.552 144.6 19.094 147.487 19.498 149.915C20.325 154.891 23.614 164.936 26.954 172.683C28.629 176.567 29.603 177.733 30.844 177.338C31.852 177.018 32.085 177.142 31.439 177.656C30.37 178.506 29.966 182.898 30.964 182.81C32.929 182.638 33.965 183.173 33.75 184.25C33.612 184.938 34.046 185.393 34.714 185.262C35.382 185.131 35.728 185.581 35.485 186.262C34.846 188.046 41.833 197.221 43.191 196.382C43.903 195.942 44.027 196.147 43.533 196.946C43.028 197.764 44.968 200.432 49.1 204.601C55.865 211.426 59.722 213.535 53.946 207.25L50.5 203.5L54.211 206.908C56.252 208.783 57.725 210.635 57.485 211.025C56.823 212.096 60.554 215.125 62.125 214.792C62.881 214.631 63.397 215.035 63.27 215.69C62.96 217.295 74.673 224.32 76.144 223.411C76.823 222.991 77.041 223.124 76.667 223.729C76.314 224.301 77.385 225.331 79.046 226.019C82.454 227.431 88.681 226.178 88.25 224.167C88.112 223.525 88.541 223.112 89.201 223.25C92.665 223.971 92.886 218.21 92.944 125.789L93 35.078L90.811 33.039C89.608 31.918 88.258 31 87.811 31C87.365 31 87 30.48 87 29.845C87 29.19 87.866 29.474 89 30.5C90.1 31.495 91 31.801 91 31.178C91 28.495 83.904 25.767 80 26.95ZM79 29.393C79 29.609 78.302 30.054 77.448 30.382C76.558 30.723 76.157 30.555 76.507 29.989C77.094 29.038 79 28.583 79 29.393ZM39.345 63.543C39.019 64.392 38.538 64.872 38.276 64.61C38.014 64.348 38.096 63.653 38.459 63.067C39.445 61.471 40.021 61.781 39.345 63.543ZM219.022 66.75C219.034 67.162 219.962 68.625 221.082 70L223.12 72.5L221.535 69.25C220.028 66.162 218.974 65.113 219.022 66.75ZM162 82.378C162 82.585 162.787 83.373 163.75 84.128C165.336 85.371 165.371 85.336 164.128 83.75C162.821 82.084 162 81.555 162 82.378ZM18.662 121.25C18.385 121.938 18.158 121.375 18.158 120C18.158 118.625 18.385 118.063 18.662 118.75C18.94 119.438 18.94 120.563 18.662 121.25ZM18.683 130.188C18.364 130.985 18.127 130.748 18.079 129.583C18.036 128.529 18.272 127.939 18.604 128.271C18.936 128.603 18.972 129.466 18.683 130.188ZM169.872 165.75C168.629 167.336 168.664 167.371 170.25 166.128C171.916 164.821 172.445 164 171.622 164C171.415 164 170.627 164.787 169.872 165.75ZM222 181.441C222 181.684 221.55 182.16 221 182.5C220.45 182.84 220 182.641 220 182.059C220 181.477 220.45 181 221 181C221.55 181 222 181.198 222 181.441ZM43.502 193.241C43.952 192.834 43.983 193.084 43.571 193.799C42.994 194.799 42.498 194.828 41.411 193.926C40.635 193.282 40 192.53 40 192.255C40 191.98 40.604 192.256 41.342 192.869C42.08 193.481 43.052 193.649 43.502 193.241ZM205 203.608C205 204.435 203.058 204.903 202.613 204.183C202.324 203.716 202.743 203.333 203.544 203.333C204.345 203.333 205 203.457 205 203.608ZM61.526 212.807C61.219 213.115 60.412 212.808 59.733 212.124C58.753 211.136 58.868 211.022 60.293 211.564C61.279 211.94 61.834 212.499 61.526 212.807ZM71 217.393C71 217.609 70.302 218.054 69.448 218.382C68.558 218.723 68.157 218.555 68.507 217.989C69.094 217.038 71 216.583 71 217.393ZM90.345 220.543C90.019 221.392 89.538 221.872 89.276 221.61C89.014 221.348 89.096 220.653 89.459 220.067C90.445 218.471 91.021 218.781 90.345 220.543ZM182.559 220.532C181.491 221.339 180.141 221.984 179.559 221.965C178.976 221.945 179.625 221.286 181 220.5C184.239 218.648 185.028 218.664 182.559 220.532ZM74.5 221C74.84 221.55 74.641 222 74.059 222C73.477 222 73 221.55 73 221C73 220.45 73.198 220 73.441 220C73.684 220 74.16 220.45 74.5 221ZM148.729 233.604C148.397 233.936 147.534 233.972 146.813 233.683C146.015 233.364 146.252 233.127 147.417 233.079C148.471 233.036 149.061 233.272 148.729 233.604Z" fill="#6481C5"/>
<path fill-rule="evenodd" clip-rule="evenodd" d="M0 125V250H125H250V125V0H125H0V125ZM158 19.442C168.936 22.802 168.028 22.502 171.5 23.908C176.795 26.052 183.272 29.6 187.757 32.813C189.533 34.086 191.509 34.803 192.148 34.409C192.825 33.99 193.041 34.125 192.666 34.732C192.312 35.305 192.648 36.293 193.414 36.928C194.179 37.564 195.001 37.727 195.239 37.292C195.477 36.856 195.516 37.113 195.325 37.861C195.1 38.742 195.53 39.011 196.541 38.623C197.4 38.293 197.877 38.39 197.599 38.839C197.031 39.759 206.064 47.638 207.242 47.25C207.659 47.112 207.888 47.562 207.75 48.25C207.613 48.937 208.063 49.387 208.75 49.25C209.438 49.112 209.888 49.346 209.75 49.769C209.336 51.044 213.673 55.988 214.528 55.216C214.964 54.822 215.016 55.031 214.644 55.681C214.272 56.33 214.425 57.144 214.984 57.49C215.543 57.835 216 58.597 216 59.181C216 59.852 215.446 59.785 214.5 59C213.675 58.315 213 58.09 213 58.5C213 58.91 212.352 58.707 211.559 58.049C210.767 57.392 210.328 56.31 210.583 55.645C210.838 54.981 209.376 52.876 207.336 50.969C204.016 47.865 203.803 47.786 205.313 50.215C207.649 53.974 207.427 54.813 204.935 51.645C203.799 50.201 203.132 48.596 203.451 48.079C203.771 47.561 203.606 46.875 203.085 46.553C202.564 46.231 201.856 46.425 201.51 46.984C201.165 47.543 200.373 48 199.75 48C199.127 48 199.44 47.399 200.444 46.664C202.156 45.413 202.057 45.177 198.885 42.918C197.023 41.593 195.275 40.619 195 40.754C194.725 40.889 194.5 40.584 194.5 40.075C194.5 38.756 187.035 33.86 186 34.5C185.525 34.793 184.544 34.193 183.818 33.166C182.152 30.805 176.51 27.849 175.466 28.79C175.034 29.18 174.983 28.97 175.354 28.322C176.157 26.921 172.559 25.536 170.854 26.59C170.077 27.07 169.963 26.869 170.51 25.985C171.109 25.015 170.868 24.836 169.612 25.319C168.593 25.71 168.144 25.576 168.507 24.989C169.123 23.991 167.181 23.547 163.5 23.845C162.046 23.962 161.863 23.771 162.828 23.145C164.411 22.12 149.995 18.282 141.048 17.347C136.012 16.821 134.745 17.045 132.091 18.935C130.391 20.146 129 21.625 129 22.223C129 22.821 129.977 22.453 131.172 21.405C132.366 20.357 132.984 20.113 132.544 20.862C132.059 21.686 132.288 22.564 133.122 23.087C134.008 23.642 133.339 23.807 131.25 23.548L128 23.146L128.014 41.323C128.027 59.434 128.57 65.313 130.014 62.978C130.542 62.123 130.943 62.099 131.434 62.893C131.81 63.502 131.615 64 131 64C130.385 64 130.165 64.457 130.51 65.016C130.856 65.575 131.627 65.731 132.224 65.362C132.878 64.957 133.021 65.157 132.583 65.866C131.659 67.36 138.53 70.356 141.248 69.645C143.556 69.042 146.192 69.88 145.501 70.998C144.841 72.066 149.786 73.237 151.296 72.37C151.958 71.99 152.161 72.053 151.747 72.509C151.059 73.267 158.452 78.437 160.286 78.481C160.719 78.492 161.456 79.12 161.925 79.878C162.393 80.636 163.288 80.94 163.913 80.554C164.564 80.152 164.932 80.398 164.775 81.13C164.624 81.834 164.95 82.441 165.5 82.481C166.05 82.52 167.4 83.137 168.5 83.852C170.261 84.996 170.277 85.081 168.635 84.563C167.28 84.135 167.672 85.002 170.074 87.737C171.891 89.807 173.855 91.5 174.438 91.5C175.02 91.5 175.517 92.175 175.54 93C175.613 95.56 178.239 99.97 179.301 99.314C179.855 98.971 180.009 99.177 179.642 99.771C179.275 100.364 179.508 102.022 180.161 103.453C181.032 105.365 181.575 105.717 182.204 104.778C182.718 104.011 182.816 104.699 182.449 106.5C182.058 108.42 182.165 109.04 182.745 108.222C183.369 107.343 183.69 107.967 183.773 110.222C183.84 112.025 184.188 118 184.547 123.5C185.045 131.144 184.821 134.951 183.596 139.659C182.714 143.046 182.262 146.646 182.591 147.659C183.029 149.009 182.934 149.145 182.233 148.166C181.457 147.082 181.165 147.128 180.671 148.416C180.336 149.287 180.316 150.787 180.626 151.75C181.101 153.227 181.02 153.266 180.11 152C179.193 150.726 179.01 150.802 178.897 152.5C178.823 153.6 178.838 155.07 178.929 155.766C179.02 156.462 178.567 156.912 177.922 156.766C177.278 156.62 176.523 157.125 176.245 157.889C175.952 158.696 176.185 159.004 176.801 158.623C177.385 158.262 178.151 158.436 178.505 159.008C178.859 159.581 178.778 159.938 178.324 159.802C177.086 159.431 171.946 163.104 172.485 163.976C172.998 164.806 170.098 167.755 168.5 168.029C167.95 168.123 167.612 168.605 167.75 169.1C167.887 169.595 167.662 169.947 167.25 169.882C165.235 169.563 164.878 170.157 166.128 171.75C167.323 173.274 167.306 173.349 165.997 172.333C164.835 171.43 164.055 171.487 162.556 172.583C161.49 173.362 160.984 174 161.431 174C161.879 174 161.707 174.648 161.049 175.441C160.392 176.233 159.138 176.606 158.263 176.271C157.122 175.833 156.904 176.035 157.49 176.985C158.015 177.833 157.921 178.069 157.229 177.642C156.636 177.275 154.978 177.508 153.547 178.161C151.614 179.041 151.273 179.577 152.222 180.239C153.035 180.807 152.636 180.886 151.125 180.458C149.511 180.001 148.969 180.14 149.433 180.891C149.845 181.558 149.398 181.935 148.308 181.84C144.617 181.52 142.884 182.003 143.595 183.155C144.051 183.892 143.868 184.037 143.09 183.555C141.282 182.438 134.802 183.871 135.627 185.205C136.037 185.868 135.851 186.026 135.163 185.601C133.761 184.734 128.648 189.621 129.505 191.008C129.842 191.554 129.641 192 129.059 192C128.351 192 128 198.254 128 210.865C128 228.436 128.142 229.911 130.073 232.365C131.212 233.814 132.675 234.964 133.323 234.921C134.149 234.866 134.127 234.692 133.25 234.338C132.563 234.06 132 233.366 132 232.794C132 232.163 132.585 232.241 133.489 232.991C134.308 233.671 134.736 234.619 134.44 235.097C133.583 236.483 145.772 235.482 154.26 233.47C159.501 232.227 161.61 231.335 160.76 230.721C159.872 230.08 160.011 229.975 161.229 230.366C163.537 231.107 168.742 228.831 168.412 227.225C168.268 226.524 168.379 226.411 168.658 226.975C168.938 227.539 169.831 228 170.642 228C171.503 228 171.821 227.519 171.405 226.845C170.98 226.159 171.128 225.961 171.771 226.358C173.133 227.201 178.118 225 177.417 223.865C177.13 223.402 177.495 223.253 178.227 223.534C178.959 223.814 180.444 223.336 181.529 222.47C183.437 220.947 183.42 220.918 181 221.572C178.145 222.344 178.441 221.823 181.871 220.036C183.399 219.24 184 219.191 183.562 219.9C183.188 220.505 183.177 221 183.537 221C184.75 221 190 217.576 190 216.784C190 216.353 190.702 216 191.559 216C192.483 216 192.827 215.53 192.405 214.845C192.012 214.211 192.098 213.943 192.596 214.25C193.094 214.558 194.851 213.676 196.5 212.291C198.668 210.471 198.945 209.946 197.5 210.399C195.864 210.912 195.953 210.672 197.985 209.082C199.352 208.012 200.66 207.327 200.893 207.56C201.126 207.792 201.925 207.477 202.67 206.859C203.672 206.028 203.738 205.389 202.923 204.408C202.058 203.365 202.269 203.167 203.911 203.483C205.281 203.747 206 203.368 206 202.384C206 201.503 205.522 201.177 204.845 201.595C204.114 202.048 203.963 201.869 204.435 201.106C205.004 200.185 205.509 200.177 206.589 201.074C207.899 202.161 208.438 201.66 208.094 199.676C208.015 199.222 208.351 199.099 208.842 199.402C209.946 200.084 213.569 196.236 212.669 195.336C211.794 194.461 214.001 191.883 215.063 192.539C216.173 193.225 218.266 189.24 217.472 187.955C217.131 187.402 217.222 187.074 217.676 187.225C218.129 187.376 218.572 187.09 218.66 186.59C218.749 186.089 219.536 185.279 220.41 184.79C221.285 184.301 222 183.446 222 182.891C222 182.336 221.55 182.16 221 182.5C220.45 182.84 220 182.593 220 181.952C220 181.291 220.697 181.054 221.611 181.404C222.781 181.853 223.058 181.595 222.623 180.459C222.293 179.6 222.445 179.157 222.961 179.476C224.2 180.242 226.305 176.238 225.613 174.434C225.312 173.65 225.611 173.13 226.286 173.262C226.958 173.394 227.467 172.519 227.426 171.3C227.385 170.082 227.796 169.374 228.346 169.714C228.939 170.081 229.074 169.637 228.681 168.612C228.241 167.464 228.402 167.131 229.169 167.604C229.949 168.086 230.135 167.623 229.751 166.155C229.386 164.759 229.566 164.232 230.263 164.663C230.951 165.088 231.102 164.708 230.681 163.612C230.319 162.668 230.423 162.143 230.912 162.446C232.078 163.166 234.399 153.454 233.434 151.893C233 151.191 233.113 150.952 233.704 151.317C235.332 152.323 237.002 139.31 236.978 125.807C236.956 112.978 235.112 101.899 230.874 89.135C229.32 84.454 228.506 83.131 227.799 84.135C227.136 85.077 227.03 84.623 227.459 82.666C227.93 80.52 227.767 80.013 226.79 80.577C226.081 80.986 225.82 80.966 226.21 80.534C227.178 79.461 224.775 75.041 221.065 71.07C219.379 69.265 218.007 67.274 218.015 66.644C218.024 66.015 218.467 66.175 219 67C219.593 67.918 219.975 68.034 219.985 67.3C219.993 66.64 219.357 65.74 218.571 65.3C217.785 64.86 217.11 64.05 217.071 63.5C217.032 62.95 216.662 62.493 216.25 62.485C214.82 62.455 213 60.876 213.032 59.691C213.049 59.036 213.679 59.311 214.431 60.303C215.438 61.631 215.915 61.763 216.241 60.803C216.485 60.084 218.403 62.19 220.519 65.5C222.629 68.8 224.979 71.965 225.742 72.534C226.505 73.102 227.278 74.677 227.461 76.034C227.644 77.39 229.02 81.425 230.519 85C234.964 95.606 236.871 103.741 238.137 117.5C239.163 128.657 239.102 132.07 237.706 141.574C236.812 147.665 234.687 156.89 232.985 162.074C229.441 172.871 229.79 172.041 226.219 178.159C218.971 190.579 216.91 193.772 215.055 195.45C213.951 196.45 213.334 197.77 213.684 198.384C214.034 198.998 213.973 199.187 213.549 198.805C212.775 198.108 207.5 203.677 207.5 205.191C207.5 205.636 207.139 205.974 206.699 205.942C206.258 205.911 202.823 208.611 199.065 211.942C195.307 215.274 191.969 218 191.647 218C191.326 218 188.011 219.966 184.281 222.368C180.552 224.77 176.488 227.051 175.25 227.435C174.012 227.82 173 228.581 173 229.126C173 229.672 172.599 229.87 172.109 229.567C171.618 229.264 169.256 229.862 166.859 230.895C164.461 231.929 160.16 233.354 157.3 234.063C154.44 234.772 152.254 235.611 152.443 235.926C152.632 236.242 150.319 236.603 147.303 236.728C144.287 236.853 140.28 237.381 138.398 237.9C136.517 238.42 135.205 238.478 135.482 238.029C135.918 237.323 132.565 235.925 129.5 235.536C128.95 235.466 128.628 234.82 128.785 234.099C128.942 233.379 128.617 232.244 128.064 231.577C127.477 230.87 127.006 222.428 126.933 211.319C126.829 195.561 127.087 191.733 128.424 189.147C129.313 187.428 130.144 185.679 130.27 185.26C130.397 184.842 130.894 184.631 131.375 184.792C131.856 184.952 133.094 184.32 134.125 183.387C135.156 182.454 136 181.965 136 182.301C136 182.636 137.806 182.274 140.014 181.495C142.222 180.716 144.359 180.059 144.764 180.034C146.989 179.9 152 177.704 152 176.863C152 176.324 152.369 176.11 152.821 176.389C154.185 177.232 160.169 173.083 159.395 171.83C158.94 171.093 159.139 170.968 159.959 171.475C160.801 171.995 163.54 169.852 168.113 165.093C174.624 158.319 177.623 153.469 172.75 157.595L170.5 159.5L172.384 157.274C173.42 156.049 174.635 155.274 175.083 155.552C176.094 156.176 178.17 152.503 177.298 151.631C176.951 151.284 177.148 151 177.736 151C179.299 151 183.049 137.808 183.702 130.012C184.271 123.233 182.071 109.852 179.673 105.5C179.067 104.4 178.525 103.275 178.469 103C178.111 101.234 174.484 95 173.815 95C173.367 95 173 94.397 173 93.661C173 92.924 171.2 90.656 169 88.62C166.8 86.585 165 85.253 165 85.661C165 86.069 163.174 84.502 160.941 82.179C158.709 79.856 156.389 78.259 155.787 78.632C155.079 79.069 154.981 78.84 155.51 77.985C156.109 77.015 155.868 76.836 154.612 77.319C153.668 77.681 153.142 77.579 153.442 77.093C154.086 76.052 153.505 75.797 140.669 71.479C135.263 69.66 130.763 68.021 130.669 67.836C130.576 67.651 129.73 66.11 128.789 64.412C127.354 61.821 127.059 58.205 126.956 41.929L126.834 22.534L130.068 19.135L133.302 15.737L141.401 16.284C145.855 16.585 153.325 18.006 158 19.442ZM148.729 19.604C148.397 19.936 147.534 19.972 146.813 19.683C146.015 19.364 146.252 19.127 147.417 19.079C148.471 19.036 149.061 19.272 148.729 19.604ZM152.493 20.989C152.843 21.555 152.442 21.723 151.552 21.382C149.82 20.717 149.503 20 150.941 20C151.459 20 152.157 20.445 152.493 20.989ZM87.3 26.706C89.06 27.644 90.95 28.281 91.5 28.122C92.05 27.963 92.18 28.153 91.79 28.543C91.399 28.934 91.737 30.524 92.54 32.077C93.789 34.493 93.999 48.166 93.996 126.7C93.993 217.766 93.976 218.527 91.923 221.895C90.785 223.762 89.243 225.899 88.498 226.645C86.26 228.883 80.717 228.196 74.691 224.932C71.576 223.245 68.56 222.154 67.989 222.507C67.418 222.86 67.074 222.724 67.225 222.205C67.376 221.687 65.025 219.4 62 217.124C58.975 214.849 53.526 210.076 49.892 206.518C46.257 202.961 42.923 200.376 42.481 200.775C42.04 201.174 41.952 201.019 42.286 200.432C42.62 199.845 41.905 198.255 40.696 196.899C37.552 193.368 32 185.115 32 183.971C32 183.437 31.437 183.113 30.75 183.25C30.063 183.388 29.6 182.974 29.723 182.331C29.846 181.688 28.182 177.397 26.026 172.796C15.364 150.044 13.047 119.307 20.238 96C21.34 92.425 22.323 89.05 22.422 88.5C23.054 84.971 34.371 63.892 37.286 60.814C38.269 59.776 38.762 58.424 38.382 57.809C37.977 57.154 38.141 56.969 38.777 57.362C39.374 57.731 40.508 57.113 41.296 55.988C42.084 54.863 44.566 51.982 46.812 49.586C49.058 47.189 50.691 45.025 50.442 44.775C50.192 44.525 50.89 43.504 51.994 42.506C53.097 41.507 54 41.001 54 41.38C54 41.76 54.913 41.582 56.028 40.985C57.143 40.388 57.749 39.403 57.373 38.795C56.962 38.129 57.149 37.974 57.845 38.405C58.48 38.797 59 38.632 59 38.038C59 37.443 60.235 36.404 61.744 35.729C66.485 33.606 73.912 28.248 73.191 27.471C72.811 27.061 73.175 26.941 74 27.203C74.825 27.465 76.85 27.094 78.5 26.379C82.481 24.653 83.521 24.692 87.3 26.706ZM74.75 29.566C72.138 30.926 70 32.281 70 32.578C70 32.875 70.52 32.797 71.155 32.405C71.876 31.959 72.037 32.131 71.585 32.862C71.187 33.506 70.423 33.762 69.887 33.43C68.653 32.667 65.838 34.93 66.563 36.102C66.86 36.583 66.479 36.737 65.715 36.444C64.388 35.935 54.528 43.234 54.474 44.765C54.427 46.092 50.741 51.075 50.204 50.537C49.915 50.249 50.535 48.997 51.582 47.756C53.349 45.662 53.291 45.672 50.774 47.895C49.282 49.213 48.306 50.686 48.605 51.17C48.904 51.654 48.573 51.926 47.87 51.775C47.166 51.624 46.57 52.04 46.545 52.7C46.52 53.36 45.847 54.485 45.048 55.2C43.779 56.336 43.779 56.256 45.048 54.558C45.847 53.49 45.991 52.921 45.368 53.294C43.099 54.653 36.509 64.197 36.817 65.678C36.991 66.516 36.696 66.93 36.162 66.6C35.628 66.27 34.022 67.992 32.595 70.428C29.748 75.286 29.4 76.489 31.155 75.405C31.876 74.959 32.037 75.131 31.585 75.862C31.187 76.506 30.49 76.803 30.036 76.522C28.942 75.846 27.811 78.885 28.651 80.245C29.023 80.847 28.839 81.018 28.227 80.64C26.916 79.83 25.579 83.51 26.59 85.146C27.018 85.838 26.875 86.041 26.235 85.645C24.911 84.827 22.557 91.475 23.583 93.135C24.008 93.823 23.879 94.043 23.27 93.667C21.931 92.84 19.719 101.452 20.528 104.343C20.952 105.861 20.853 106.1 20.193 105.148C18.956 103.364 17.663 113.391 18.449 118.665C18.871 121.491 18.774 121.974 18.081 120.5C17.398 119.048 17.121 120.641 17.07 126.309C17.03 130.787 17.39 133.877 17.914 133.553C18.426 133.236 18.613 134.348 18.339 136.087C17.646 140.483 19.914 153.171 21.245 152.348C21.88 151.956 22.015 152.167 21.58 152.87C20.521 154.585 21.942 160.154 23.236 159.354C23.879 158.957 24.018 159.163 23.582 159.868C22.548 161.54 25.908 171.175 27.237 170.353C27.845 169.978 28.02 170.158 27.642 170.771C26.653 172.371 29.074 176.998 30.911 177.015C32.11 177.027 32.186 177.23 31.22 177.843C30.228 178.472 30.396 179.234 31.97 181.235C33.087 182.654 34 184.334 34 184.967C34 185.6 34.445 185.843 34.989 185.507C35.532 185.171 35.767 185.482 35.511 186.198C35.255 186.914 36.423 189.075 38.107 191C39.791 192.925 40.819 193.825 40.392 193C39.751 191.76 39.882 191.715 41.15 192.741C41.994 193.424 43.052 193.649 43.502 193.241C43.952 192.834 43.992 193.07 43.591 193.766C43.19 194.463 42.385 194.738 41.801 194.377C41.185 193.996 40.952 194.304 41.245 195.111C41.523 195.875 42.369 196.35 43.125 196.167C43.881 195.983 44.166 196.167 43.759 196.575C42.72 197.614 44.998 200.119 46.268 199.334C46.868 198.963 47.01 199.174 46.603 199.833C46.215 200.461 46.483 201.662 47.199 202.503C49.61 205.335 63.784 217 64.813 217C65.374 217 66.04 217.563 66.292 218.25C66.658 219.25 67.015 219.25 68.075 218.25C68.804 217.563 69.846 217 70.391 217C70.936 217 70.533 217.621 69.495 218.38C67.725 219.674 67.869 219.892 71.804 221.9C74.112 223.077 76 223.774 76 223.449C76 223.123 76.742 223.599 77.649 224.506C78.556 225.413 80.131 225.937 81.149 225.671C82.167 225.405 83 225.572 83 226.042C83 226.511 84.364 226.421 86.03 225.84C92.293 223.656 92.022 228.191 91.99 126.19L91.961 33.317L89.48 31.989C88.116 31.259 87 30.218 87 29.676C87 29.134 87.81 29.322 88.799 30.095C89.788 30.868 89.538 30.488 88.243 29.25C85.171 26.314 80.8 26.416 74.75 29.566ZM79 29.393C79 29.609 78.302 30.054 77.448 30.382C76.558 30.723 76.157 30.555 76.507 29.989C77.094 29.038 79 28.583 79 29.393ZM64 38.5C63.315 39.325 62.274 40 61.686 40C61.099 40 61.491 39.339 62.559 38.532C65.067 36.634 65.557 36.624 64 38.5ZM51.872 43.75C50.629 45.336 50.664 45.371 52.25 44.128C53.212 43.373 54 42.585 54 42.378C54 41.555 53.179 42.084 51.872 43.75ZM39.345 63.543C39.019 64.392 38.538 64.872 38.276 64.61C38.014 64.348 38.096 63.653 38.459 63.067C39.445 61.471 40.021 61.781 39.345 63.543ZM221 70C221.589 71.1 222.295 72 222.57 72C222.845 72 222.589 71.1 222 70C221.411 68.9 220.705 68 220.43 68C220.155 68 220.411 68.9 221 70ZM162 82.378C162 82.585 162.787 83.373 163.75 84.128C165.336 85.371 165.371 85.336 164.128 83.75C162.821 82.084 162 81.555 162 82.378ZM18.683 130.188C18.364 130.985 18.127 130.748 18.079 129.583C18.036 128.529 18.272 127.939 18.604 128.271C18.936 128.603 18.972 129.466 18.683 130.188ZM169.872 165.75C168.629 167.336 168.664 167.371 170.25 166.128C171.916 164.821 172.445 164 171.622 164C171.415 164 170.627 164.787 169.872 165.75ZM55 207.5C56.866 209.425 58.167 211 57.892 211C57.617 211 55.866 209.425 54 207.5C52.134 205.575 50.833 204 51.108 204C51.383 204 53.134 205.575 55 207.5ZM61.526 212.807C61.219 213.115 60.412 212.808 59.733 212.124C58.753 211.136 58.868 211.022 60.293 211.564C61.279 211.94 61.834 212.499 61.526 212.807ZM90.345 220.543C90.019 221.392 89.538 221.872 89.276 221.61C89.014 221.348 89.096 220.653 89.459 220.067C90.445 218.471 91.021 218.781 90.345 220.543ZM74.5 221C74.84 221.55 74.641 222 74.059 222C73.477 222 73 221.55 73 221C73 220.45 73.198 220 73.441 220C73.684 220 74.16 220.45 74.5 221ZM148.729 233.604C148.397 233.936 147.534 233.972 146.813 233.683C146.015 233.364 146.252 233.127 147.417 233.079C148.471 233.036 149.061 233.272 148.729 233.604Z" fill="#4075FF"/>
<path fill-rule="evenodd" clip-rule="evenodd" d="M0 125V250H125H250V125V0H125H0V125ZM158 19.442C168.936 22.802 168.028 22.502 171.5 23.908C176.795 26.052 183.272 29.6 187.757 32.813C189.568 34.111 191.538 34.809 192.243 34.403C192.934 34.005 193.166 34.048 192.759 34.498C192.351 34.948 192.576 36.004 193.259 36.845C194.313 38.144 194.199 38.271 192.5 37.686C191.4 37.307 192.3 38.452 194.5 40.23C200.274 44.898 214.91 60.192 215.572 62.25C215.882 63.212 216.61 64 217.19 64C217.838 64 217.757 63.412 216.98 62.476C216.284 61.638 215.978 60.688 216.3 60.367C216.622 60.045 218.566 62.418 220.62 65.641C222.674 68.863 224.979 71.965 225.742 72.534C226.505 73.102 227.278 74.677 227.461 76.034C227.644 77.39 229.02 81.425 230.519 85C234.964 95.606 236.871 103.741 238.137 117.5C239.163 128.657 239.102 132.07 237.706 141.574C236.212 151.751 231.301 169.415 228.97 173C228.434 173.825 227.534 175.575 226.97 176.889C226.406 178.202 225.7 179.034 225.403 178.736C225.105 178.438 225.746 176.238 226.827 173.847C230.315 166.135 232.035 161.701 231.678 161.344C231.371 161.037 229.752 164.462 224.354 176.841C223.553 178.678 223.37 179.889 223.949 179.532C224.527 179.174 225 179.319 225 179.854C225 180.97 219.289 190.075 215.834 194.468C214.551 196.1 213.65 197.9 213.833 198.468C214.017 199.036 213.854 199.187 213.472 198.805C212.763 198.096 207.5 203.724 207.5 205.191C207.5 205.636 207.139 205.974 206.699 205.942C206.258 205.911 202.823 208.611 199.065 211.942C195.307 215.274 191.969 218 191.647 218C191.326 218 188.011 219.966 184.281 222.368C180.552 224.77 176.488 227.051 175.25 227.435C174.012 227.82 173 228.581 173 229.126C173 229.672 172.599 229.87 172.109 229.567C171.618 229.264 169.256 229.862 166.859 230.895C164.461 231.929 160.16 233.354 157.3 234.063C154.44 234.772 152.254 235.611 152.443 235.926C152.632 236.242 150.319 236.603 147.303 236.728C144.287 236.853 140.28 237.381 138.398 237.9C136.517 238.42 135.205 238.478 135.482 238.029C135.918 237.323 132.565 235.925 129.5 235.536C128.95 235.466 128.628 234.82 128.785 234.099C128.942 233.379 128.617 232.244 128.064 231.577C127.477 230.87 127.006 222.428 126.933 211.319C126.829 195.561 127.087 191.733 128.424 189.147C129.313 187.428 130.144 185.679 130.27 185.26C130.397 184.842 130.894 184.631 131.375 184.792C131.856 184.952 133.094 184.32 134.125 183.387C135.156 182.454 136 181.965 136 182.301C136 182.636 137.806 182.274 140.014 181.495C142.222 180.716 144.359 180.059 144.764 180.034C146.989 179.9 152 177.704 152 176.863C152 176.324 152.369 176.11 152.821 176.389C154.185 177.232 160.169 173.083 159.395 171.83C158.94 171.093 159.139 170.968 159.959 171.475C160.801 171.995 163.54 169.852 168.113 165.093C174.624 158.319 177.623 153.469 172.75 157.595L170.5 159.5L172.384 157.274C173.42 156.049 174.635 155.274 175.083 155.552C176.094 156.176 178.17 152.503 177.298 151.631C176.951 151.284 177.148 151 177.736 151C179.299 151 183.049 137.808 183.702 130.012C184.271 123.233 182.071 109.852 179.673 105.5C179.067 104.4 178.536 103.275 178.494 103C178.451 102.725 177.614 100.996 176.634 99.157C175.654 97.318 175.081 95.586 175.36 95.307C175.639 95.028 177.225 97.432 178.885 100.65C180.545 103.867 181.925 106.148 181.952 105.717C182.145 102.576 172.618 88.354 166.737 83.004C161.204 77.97 162.177 79.702 168.731 86.552C174.785 92.88 176.107 95 174 95C173.45 95 173 94.397 173 93.661C173 92.924 171.2 90.656 169 88.62C166.8 86.585 165 85.253 165 85.661C165 86.069 163.174 84.502 160.941 82.179C158.604 79.747 156.377 78.239 155.691 78.624C154.797 79.126 154.801 78.968 155.708 77.989C156.69 76.928 157.203 76.924 158.458 77.965C159.306 78.669 160 78.812 160 78.283C160 77.754 158.762 76.701 157.25 75.943C152.998 73.812 152.338 73.646 154.39 75.224C156.124 76.558 156.141 76.732 154.588 77.328C153.658 77.685 153.142 77.579 153.442 77.093C154.086 76.052 153.505 75.797 140.669 71.479C135.263 69.66 130.763 68.021 130.669 67.836C130.576 67.651 129.73 66.11 128.789 64.412C127.354 61.821 127.059 58.205 126.956 41.929L126.834 22.534L130.068 19.135L133.302 15.737L141.401 16.284C145.855 16.585 153.325 18.006 158 19.442ZM131.106 19.901L128 22.802L128.227 42.151L128.454 61.5L128.748 42.321L129.043 23.142L132.202 20.483C134.687 18.392 136.178 17.902 139.181 18.189C141.281 18.389 143 18.203 143 17.776C143 17.349 141.023 17 138.606 17C135.137 17 133.558 17.611 131.106 19.901ZM145.269 18.693C146.242 18.947 147.592 18.93 148.269 18.656C148.946 18.382 148.15 18.175 146.5 18.195C144.85 18.215 144.296 18.439 145.269 18.693ZM151 20C151.825 20.533 153.625 20.931 155 20.885L157.5 20.801L155 20C153.625 19.56 151.825 19.161 151 19.115C149.667 19.04 149.667 19.138 151 20ZM160 21.831C160.825 22.341 162.625 23.059 164 23.427C165.737 23.892 166.042 23.813 165 23.169C164.175 22.659 162.375 21.941 161 21.573C159.263 21.108 158.958 21.187 160 21.831ZM174.382 28.076C178.718 30.272 182.427 31.906 182.625 31.708C183.078 31.256 168.646 23.985 167.409 24.042C166.909 24.065 170.047 25.88 174.382 28.076ZM87.3 26.706C89.06 27.644 90.95 28.281 91.5 28.122C92.05 27.963 92.18 28.153 91.79 28.543C91.399 28.934 91.737 30.524 92.54 32.077C94.667 36.191 94.673 217.157 92.546 221C91.785 222.375 90.788 223.525 90.331 223.556C87.498 223.749 83 225.305 83 226.093C83 226.607 84.575 226.369 86.5 225.564C90.252 223.997 90.854 224.289 88.571 226.571C86.263 228.88 80.785 228.233 74.691 224.932C71.576 223.245 68.56 222.154 67.989 222.507C67.418 222.86 67.074 222.724 67.225 222.205C67.376 221.687 65.025 219.4 62 217.124C58.975 214.849 53.526 210.076 49.892 206.518C46.257 202.961 42.923 200.376 42.481 200.775C42.04 201.174 41.952 201.019 42.286 200.432C42.62 199.845 41.905 198.255 40.696 196.899C37.552 193.368 32 185.115 32 183.971C32 183.437 31.437 183.113 30.75 183.25C30.063 183.388 29.6 182.974 29.723 182.331C29.846 181.688 28.182 177.397 26.026 172.796C15.364 150.044 13.047 119.307 20.238 96C21.34 92.425 22.323 89.05 22.422 88.5C23.054 84.971 34.371 63.892 37.286 60.814C38.269 59.776 38.762 58.424 38.382 57.809C37.978 57.155 38.141 56.969 38.776 57.362C39.373 57.731 40.149 57.568 40.5 57C40.851 56.432 41.486 56.182 41.911 56.445C42.335 56.707 44.217 55.252 46.092 53.211L49.5 49.5L45.622 53C40.609 57.525 41.285 55.445 46.698 49.691C49.007 47.237 50.691 45.025 50.442 44.775C50.192 44.525 50.89 43.504 51.994 42.506C53.097 41.507 54 41.001 54 41.38C54 41.76 54.913 41.582 56.028 40.985C57.143 40.388 57.749 39.403 57.373 38.795C56.962 38.129 57.149 37.974 57.845 38.405C58.48 38.797 59 38.632 59 38.038C59 37.443 60.235 36.404 61.744 35.729C66.485 33.606 73.912 28.248 73.191 27.471C72.811 27.061 73.175 26.941 74 27.203C74.825 27.465 76.85 27.094 78.5 26.379C82.481 24.653 83.521 24.692 87.3 26.706ZM74.5 29.836C66.835 34.128 61.034 38.343 55 44.004L49.5 49.164L55.5 44.207C58.8 41.48 63.484 37.956 65.908 36.375C79.76 27.341 83.429 26.326 88.615 30.098L91.5 32.195L88.694 29.598C85.022 26.198 80.872 26.268 74.5 29.836ZM186.22 34.547C187.716 36.113 189.204 37.129 189.527 36.806C189.851 36.483 188.627 35.202 186.808 33.959L183.5 31.7L186.22 34.547ZM91.079 34.583C91.127 35.748 91.364 35.985 91.683 35.188C91.972 34.466 91.936 33.603 91.604 33.271C91.272 32.939 91.036 33.529 91.079 34.583ZM195.596 37.611C195.147 38.781 195.405 39.058 196.541 38.623C197.4 38.293 197.877 38.39 197.599 38.839C197.031 39.759 206.064 47.638 207.242 47.25C207.659 47.112 207.888 47.562 207.75 48.25C207.613 48.937 208.063 49.387 208.75 49.25C209.437 49.112 209.887 49.346 209.75 49.769C209.336 51.044 213.673 55.988 214.528 55.216C214.964 54.822 215.016 55.031 214.644 55.681C214.272 56.33 214.425 57.144 214.984 57.49C215.543 57.835 216 58.532 216 59.038C216 59.544 211.131 55.13 205.181 49.229C199.23 43.328 194.554 37.938 194.788 37.25C195.022 36.563 195.439 36 195.714 36C195.989 36 195.936 36.725 195.596 37.611ZM51.872 43.75C50.629 45.336 50.664 45.371 52.25 44.128C53.212 43.373 54 42.585 54 42.378C54 41.555 53.179 42.084 51.872 43.75ZM39.86 59.75C36.689 63.579 35.547 65.356 36.703 64.662C37.981 63.895 42.423 58 41.723 58C41.496 58 40.658 58.788 39.86 59.75ZM129 62.817C129 64.651 134.027 68.204 138.545 69.564C141.177 70.356 143.541 70.792 143.799 70.534C144.058 70.276 142.141 69.495 139.539 68.799C136.938 68.103 133.502 66.285 131.905 64.758C130.307 63.232 129 62.358 129 62.817ZM218.872 66.5C219.412 67.6 220.586 69.4 221.482 70.5L223.11 72.5L222.128 70.5C221.588 69.4 220.414 67.6 219.518 66.5L217.89 64.5L218.872 66.5ZM33.964 68.164C32.819 70.397 32.846 70.424 34.574 68.774C35.568 67.824 36.107 66.773 35.771 66.438C35.436 66.103 34.623 66.88 33.964 68.164ZM29.5 76C28.106 78.75 27.154 81 27.384 81C27.899 81 31.37 75.145 32.276 72.75C33.615 69.208 31.96 71.146 29.5 76ZM146.5 72C149.249 73.181 150.828 73.181 149 72C148.175 71.467 146.825 71.055 146 71.086C145.011 71.122 145.181 71.433 146.5 72ZM223 73.642C223 74.179 223.7 75.491 224.555 76.559C226.022 78.389 226.042 78.357 224.92 76C223.462 72.939 223 72.372 223 73.642ZM226.564 80.293C226.94 81.279 227.499 81.834 227.807 81.526C228.115 81.219 227.808 80.412 227.124 79.733C226.136 78.753 226.022 78.868 226.564 80.293ZM24.692 86.692C23.75 89.234 23.144 91.478 23.345 91.679C23.547 91.88 24.499 89.982 25.462 87.462C26.424 84.941 27.03 82.697 26.808 82.475C26.586 82.253 25.634 84.151 24.692 86.692ZM162 82.378C162 82.585 162.787 83.373 163.75 84.128C165.336 85.371 165.371 85.336 164.128 83.75C162.821 82.084 162 81.555 162 82.378ZM228.066 84C228.069 84.825 228.749 86.625 229.577 88L231.083 90.5L230.421 88C230.056 86.625 229.376 84.825 228.909 84C228.155 82.667 228.061 82.667 228.066 84ZM20.5 100C19.544 103.902 18.966 107.299 19.216 107.55C19.467 107.8 20.444 104.803 21.389 100.889C22.334 96.975 22.911 93.578 22.673 93.339C22.434 93.101 21.456 96.098 20.5 100ZM233.199 99.5C233.199 100.6 233.56 102.625 234 104C234.634 105.98 234.801 106.084 234.801 104.5C234.801 103.4 234.44 101.375 234 100C233.366 98.02 233.199 97.916 233.199 99.5ZM18.272 114C18.272 116.475 18.467 117.487 18.706 116.25C18.944 115.013 18.944 112.987 18.706 111.75C18.467 110.513 18.272 111.525 18.272 114ZM183.115 111C183.161 111.825 183.56 113.625 184 115L184.801 117.5L184.885 115C184.931 113.625 184.533 111.825 184 111C183.138 109.667 183.04 109.667 183.115 111ZM236.272 116C236.272 118.475 236.467 119.487 236.706 118.25C236.944 117.013 236.944 114.987 236.706 113.75C236.467 112.513 236.272 113.525 236.272 116ZM17.343 126.5C17.346 130.9 17.522 132.576 17.733 130.224C17.945 127.872 17.942 124.272 17.727 122.224C17.512 120.176 17.339 122.1 17.343 126.5ZM185.199 127.022C185.002 134.458 182.81 143.974 179.618 151.25C178.713 153.313 178.183 155 178.44 155C179.294 155 183.006 145.765 184.556 139.784C185.478 136.227 185.949 131.025 185.741 126.691L185.397 119.5L185.199 127.022ZM236.286 136.5C236.294 139.25 236.488 140.256 236.718 138.736C236.947 137.216 236.941 134.966 236.704 133.736C236.467 132.506 236.279 133.75 236.286 136.5ZM18.252 139.5C18.263 141.7 18.468 142.482 18.707 141.238C18.946 139.994 18.937 138.194 18.687 137.238C18.437 136.282 18.241 137.3 18.252 139.5ZM233.526 151.526C232.592 155.725 232.021 159.354 232.257 159.591C232.494 159.827 233.444 156.577 234.368 152.368C235.293 148.16 235.864 144.531 235.637 144.304C235.41 144.077 234.461 147.327 233.526 151.526ZM19.158 147C19.158 148.375 19.385 148.938 19.662 148.25C19.94 147.563 19.94 146.438 19.662 145.75C19.385 145.063 19.158 145.625 19.158 147ZM20.17 151C20.186 151.825 20.56 153.625 21 155C21.644 157.01 21.806 157.108 21.83 155.5C21.846 154.4 21.473 152.6 21 151.5C20.473 150.275 20.152 150.081 20.17 151ZM23.49 163C24.616 166.809 28.229 175.104 28.601 174.732C28.962 174.372 24.071 161.808 23.256 161C22.979 160.725 23.084 161.625 23.49 163ZM166.767 168.509C163.063 172.052 157.438 176.324 154.267 178.003C151.095 179.682 149.625 180.758 151 180.396C154.969 179.349 163.029 173.588 168.966 167.555C176.396 160.004 175.042 160.592 166.767 168.509ZM31 180C31.589 181.1 32.295 182 32.57 182C32.845 182 32.589 181.1 32 180C31.411 178.9 30.705 178 30.43 178C30.155 178 30.411 178.9 31 180ZM140.727 182.756C135.152 184.19 127.927 189.261 129.383 190.717C129.745 191.079 131.27 189.979 132.771 188.274C134.661 186.126 137.04 184.826 140.509 184.045C143.263 183.424 146.188 182.492 147.009 181.973C148.886 180.786 147.915 180.907 140.727 182.756ZM220.98 182.524C220.284 183.362 219.968 184.301 220.276 184.61C220.585 184.919 221.34 184.233 221.954 183.086C223.264 180.638 222.778 180.358 220.98 182.524ZM34.015 184.639C34.007 185.266 34.925 186.841 36.056 188.139C37.673 189.995 37.894 190.072 37.09 188.5C35.355 185.108 34.031 183.446 34.015 184.639ZM217.847 187.75C217.043 188.713 215.735 190.473 214.942 191.663C214.149 192.852 211.998 195.777 210.162 198.163C206.998 202.275 207.065 202.241 211.45 197.5C215.452 193.175 220.55 186 219.621 186C219.45 186 218.652 186.787 217.847 187.75ZM39.624 193.063C42.97 197.633 47.073 202.261 47.438 201.876C47.634 201.669 45.534 199.025 42.771 196C40.008 192.975 38.592 191.653 39.624 193.063ZM128.227 210.827L128 230.154L130.923 233.077C132.531 234.685 134.443 235.97 135.173 235.932C135.903 235.895 135.488 235.376 134.25 234.78C133.012 234.183 132 233.136 132 232.454C132 231.772 131.335 230.959 130.522 230.647C129.303 230.179 128.992 226.697 128.749 210.79L128.454 191.5L128.227 210.827ZM48 203.379C48 204.026 63.666 217 64.448 217C64.809 217 62.414 214.762 59.127 212.026C55.84 209.29 52.866 206.593 52.519 206.031C51.824 204.907 48 202.662 48 203.379ZM202.369 205.899C200.791 207.494 197.545 210.419 195.155 212.399C192.766 214.38 191.212 216 191.702 216C192.731 216 206.82 203.119 205.869 203.048C205.521 203.021 203.946 204.305 202.369 205.899ZM91.232 210C91.232 211.925 91.438 212.713 91.689 211.75C91.941 210.787 91.941 209.213 91.689 208.25C91.438 207.287 91.232 208.075 91.232 210ZM91.116 217.168C91.052 218.086 90.741 219.661 90.424 220.668C89.879 222.404 89.909 222.407 90.992 220.719C91.62 219.739 91.931 218.164 91.683 217.219C91.277 215.67 91.221 215.665 91.116 217.168ZM182.657 220.592C173.815 226.098 172.873 227.196 180.57 223.025C187.412 219.318 190.557 217.184 189.927 216.676C189.692 216.487 186.421 218.249 182.657 220.592ZM66 217.85C66 218.308 68.25 219.907 71 221.403C73.75 222.9 76 223.91 76 223.648C76 223.386 73.75 221.787 71 220.095C68.25 218.403 66 217.393 66 217.85ZM78 225C78.825 225.533 79.95 225.969 80.5 225.969C81.05 225.969 80.825 225.533 80 225C79.175 224.467 78.05 224.031 77.5 224.031C76.95 224.031 77.175 224.467 78 225ZM169.5 227.535C166.999 228.74 166.916 228.878 169 228.369C171.834 227.677 175.018 226.053 173.5 226.076C172.95 226.084 171.15 226.74 169.5 227.535ZM161.5 230.536C159.85 231.292 159.175 231.914 160 231.919C160.825 231.925 162.625 231.286 164 230.5C167.162 228.693 165.473 228.717 161.5 230.536ZM149.5 233.523C146.75 234.23 145.4 234.843 146.5 234.885C147.6 234.927 150.75 234.335 153.5 233.57C159.777 231.824 156.272 231.782 149.5 233.523ZM138.762 235.707C140.006 235.946 141.806 235.937 142.762 235.687C143.718 235.437 142.7 235.241 140.5 235.252C138.3 235.263 137.518 235.468 138.762 235.707Z" fill="#536EC9"/>
<path fill-rule="evenodd" clip-rule="evenodd" d="M0 125V250H125H250V125V0H125H0V125ZM158 19.442C168.936 22.802 168.028 22.502 171.5 23.908C176.795 26.052 183.272 29.6 187.757 32.813C189.533 34.086 191.509 34.803 192.148 34.409C192.815 33.996 193.041 34.125 192.678 34.712C191.793 36.144 195.602 39.364 197.091 38.443C197.792 38.01 198.051 38.108 197.702 38.673C197.063 39.706 205.934 47.681 207.242 47.25C207.659 47.112 207.888 47.562 207.75 48.25C207.613 48.937 208.063 49.387 208.75 49.25C209.438 49.112 209.888 49.338 209.75 49.751C209.613 50.164 211.569 53.201 214.097 56.501C216.625 59.8 219.961 64.525 221.511 67C223.06 69.475 224.958 71.965 225.728 72.534C226.498 73.102 227.278 74.677 227.461 76.034C227.644 77.39 229.02 81.425 230.519 85C234.964 95.606 236.871 103.741 238.137 117.5C239.163 128.657 239.102 132.07 237.706 141.574C236.812 147.665 234.687 156.89 232.985 162.074C229.444 172.861 229.795 172.027 226.219 178.179C219.648 189.488 217.35 192.865 212.266 198.689C209.294 202.094 206.893 205.131 206.931 205.439C206.969 205.748 206.752 205.974 206.449 205.942C206.146 205.911 202.823 208.611 199.065 211.942C195.307 215.274 191.969 218 191.647 218C191.326 218 188.011 219.966 184.281 222.368C180.552 224.77 176.488 227.051 175.25 227.435C174.012 227.82 173 228.581 173 229.126C173 229.672 172.599 229.87 172.109 229.567C171.618 229.264 169.256 229.862 166.859 230.895C164.461 231.929 160.16 233.354 157.3 234.063C154.44 234.772 152.254 235.611 152.443 235.926C152.632 236.242 150.319 236.603 147.303 236.728C144.287 236.853 140.28 237.381 138.398 237.9C136.517 238.42 135.205 238.478 135.482 238.029C135.918 237.323 132.565 235.925 129.5 235.536C128.95 235.466 128.628 234.82 128.785 234.099C128.942 233.379 128.617 232.244 128.064 231.577C127.477 230.87 127.006 222.428 126.933 211.319C126.829 195.561 127.087 191.733 128.424 189.147C129.313 187.428 130.144 185.679 130.27 185.26C130.397 184.842 130.894 184.631 131.375 184.792C131.856 184.952 133.094 184.32 134.125 183.387C135.156 182.454 136 181.965 136 182.301C136 182.636 137.806 182.274 140.014 181.495C142.222 180.716 144.359 180.059 144.764 180.034C146.989 179.9 152 177.704 152 176.863C152 176.324 152.369 176.11 152.821 176.389C154.185 177.232 160.169 173.083 159.395 171.83C158.94 171.093 159.139 170.968 159.959 171.475C160.801 171.995 163.54 169.852 168.113 165.093C174.624 158.319 177.623 153.469 172.75 157.595L170.5 159.5L172.384 157.274C173.42 156.049 174.635 155.274 175.083 155.552C176.094 156.176 178.17 152.503 177.298 151.631C176.951 151.284 177.148 151 177.736 151C179.299 151 183.049 137.808 183.702 130.012C184.271 123.233 182.071 109.852 179.673 105.5C179.067 104.4 178.525 103.275 178.469 103C178.111 101.234 174.484 95 173.815 95C173.367 95 173 94.434 173 93.742C173 93.051 170.413 90.013 167.252 86.992C164.09 83.972 162.397 82.625 163.49 84C164.583 85.375 163.278 84.34 160.59 81.7C157.743 78.903 155.118 77.125 154.3 77.438C153.528 77.735 153.142 77.579 153.442 77.093C154.086 76.052 153.505 75.797 140.669 71.479C135.263 69.66 130.763 68.021 130.669 67.836C130.576 67.651 129.73 66.11 128.789 64.412C127.354 61.821 127.059 58.205 126.956 41.929L126.834 22.534L130.068 19.135L133.302 15.737L141.401 16.284C145.855 16.585 153.325 18.006 158 19.442ZM87.3 26.706C89.06 27.644 90.95 28.281 91.5 28.122C92.05 27.963 92.18 28.153 91.79 28.543C91.399 28.934 91.737 30.524 92.54 32.077C93.789 34.493 93.999 48.166 93.996 126.7C93.993 217.766 93.976 218.527 91.923 221.895C90.785 223.762 89.243 225.899 88.498 226.645C86.26 228.883 80.717 228.196 74.691 224.932C71.576 223.245 68.56 222.154 67.989 222.507C67.418 222.86 67.074 222.724 67.225 222.205C67.376 221.687 65.025 219.4 62 217.124C58.975 214.849 53.526 210.076 49.892 206.518C46.257 202.961 42.923 200.376 42.481 200.775C42.04 201.174 41.952 201.019 42.286 200.432C42.62 199.845 41.905 198.255 40.696 196.899C37.626 193.452 32 185.127 32 184.03C32 183.528 31.48 182.797 30.845 182.405C30.082 181.932 29.965 182.134 30.5 183C31.039 183.873 30.919 184.068 30.138 183.585C29.494 183.187 29.195 182.494 29.472 182.045C29.75 181.596 28.206 177.448 26.041 172.829C15.363 150.043 13.043 119.321 20.238 96C21.34 92.425 22.323 89.05 22.422 88.5C23.054 84.971 34.371 63.892 37.286 60.814C38.269 59.776 38.762 58.424 38.382 57.809C37.977 57.154 38.141 56.969 38.777 57.362C39.374 57.731 40.576 57.013 41.447 55.767C42.319 54.52 45.612 50.801 48.766 47.501C51.92 44.202 53.375 42.402 52 43.501L49.5 45.5L51.384 43.274C52.42 42.049 53.65 41.284 54.118 41.573C54.586 41.862 56.565 40.501 58.517 38.549C60.47 36.597 62.456 35 62.933 35C64.614 35 73.872 28.205 73.191 27.471C72.811 27.061 73.175 26.941 74 27.203C74.825 27.465 76.85 27.094 78.5 26.379C82.481 24.653 83.521 24.692 87.3 26.706Z" fill="white"/>
</g>
<defs>
<clipPath id="clip0_1_52">
<rect width="250" height="250" rx="125" fill="white"/>
</clipPath>
</defs>
</svg>
