<svg width="64" height="64" viewBox="0 0 64 64" fill="none" xmlns="http://www.w3.org/2000/svg">
<path fill-rule="evenodd" clip-rule="evenodd" d="M16.821 1.395C10.471 3.105 5.672 6.996 2.852 12.723C0.722 17.049 0.5 18.821 0.5 31.5C0.5 50.468 2.766 56.153 12.376 61.294C16.119 63.296 17.93 63.5 32 63.5C46.214 63.5 47.854 63.311 51.763 61.223C61.131 56.219 64.52 47.013 63.811 28.493C63.468 19.538 62.945 16.518 61.061 12.626C58.223 6.764 52.656 2.521 45.9 1.072C39.232 -0.358004 22.647 -0.174004 16.821 1.395ZM39.652 13.535C39.999 14.44 38.506 17.543 36.014 21.095C33.689 24.409 31.948 27.269 32.144 27.451C32.34 27.632 35.87 28.167 39.989 28.64C45.564 29.28 47.555 29.904 47.78 31.082C47.964 32.045 43.94 36.342 37.476 42.082C31.643 47.262 26.45 51.65 25.936 51.833C25.422 52.016 24.722 51.438 24.38 50.548C23.992 49.538 25.346 46.668 27.986 42.905C30.311 39.591 32.052 36.744 31.856 36.579C31.66 36.414 28.125 35.879 24 35.389C17.852 34.66 16.5 34.183 16.5 32.744C16.5 31.142 36.465 12.176 38.281 12.053C38.711 12.024 39.328 12.691 39.652 13.535Z" fill="#FF0092"/>
<path fill-rule="evenodd" clip-rule="evenodd" d="M16.806 1.405C9.849 3.269 4.077 8.48 1.749 15C0.0219988 19.838 0.0859989 44.316 1.838 49.275C3.631 54.349 7.385 58.626 12.376 61.282C16.108 63.268 17.975 63.478 32 63.488C46.227 63.499 47.85 63.313 51.763 61.223C61.151 56.209 64.52 47.021 63.807 28.383C63.446 18.958 62.99 16.455 60.885 12.365C58.221 7.189 52.514 2.513 47.5 1.399C41.731 0.115999 21.603 0.120999 16.806 1.405ZM39.652 13.535C39.998 14.437 38.543 17.491 36.12 20.944C33.854 24.175 32 27.045 32 27.324C32 27.602 35.411 28.149 39.579 28.54C49.417 29.461 50.067 30.851 43.429 36.767C26.681 51.692 26.089 52.149 24.592 51.311C22.9 50.365 23.043 50.029 28.789 41.425L32.078 36.5L24.289 35.5C17.332 34.607 16.466 34.26 16.18 32.25C16.005 31.012 16.256 30 16.74 30C17.223 30 22.092 25.974 27.559 21.052C33.027 16.131 37.852 12.081 38.281 12.052C38.711 12.024 39.328 12.691 39.652 13.535Z" fill="#FF0095"/>
<path fill-rule="evenodd" clip-rule="evenodd" d="M16.806 1.405C11.805 2.745 9.908 3.908 6.124 7.958C1.852 12.53 0.72 16.759 0.358 29.5C-0.189 48.698 2.752 56.171 13 61.631C15.987 63.222 18.771 63.492 32 63.477C46.435 63.461 47.799 63.295 51.857 61.073C61.28 55.912 64.521 47.045 63.807 28.383C63.446 18.958 62.99 16.455 60.885 12.365C58.221 7.189 52.514 2.513 47.5 1.399C41.731 0.115999 21.603 0.120999 16.806 1.405ZM40 13.566C40 15.182 38.197 19.117 37.052 20C36.14 20.703 32 26.701 32 27.319C32 27.6 35.411 28.149 39.579 28.54C49.417 29.461 50.067 30.851 43.429 36.767C26.681 51.692 26.089 52.149 24.592 51.311C22.9 50.365 23.043 50.029 28.789 41.425L32.078 36.5L24.289 35.5C17.332 34.607 16.466 34.26 16.18 32.25C16.005 31.012 16.256 30 16.74 30C17.223 30 22.092 25.974 27.559 21.052C37.479 12.124 40 10.607 40 13.566Z" fill="#FF0099"/>
<path fill-rule="evenodd" clip-rule="evenodd" d="M17.5 1.355C11.945 2.945 8.954 4.73 5.739 8.372C1.849 12.778 0.845002 16.854 0.409002 30.009C-0.207998 48.63 2.806 56.2 13 61.631C15.987 63.222 18.771 63.492 32 63.477C46.435 63.461 47.799 63.295 51.857 61.073C61.27 55.917 64.535 47.01 63.79 28.527C63.407 19.051 62.967 16.762 60.658 12.255C57.835 6.744 52.853 2.64 47.5 1.417C42.198 0.205999 21.663 0.162999 17.5 1.355ZM40 13.566C40 15.182 38.197 19.117 37.052 20C35.861 20.918 31.777 27.11 32.141 27.446C32.338 27.627 35.643 28.09 39.485 28.475C43.327 28.859 46.815 29.386 47.235 29.645C48.892 30.669 47.83 32.939 44.25 36.028C42.188 37.807 38.241 41.341 35.479 43.882C26.8 51.864 26.252 52.24 24.613 51.323C22.898 50.363 23.032 50.046 28.789 41.425L32.078 36.5L24.289 35.5C17.332 34.607 16.466 34.26 16.18 32.25C16.005 31.012 16.256 30 16.74 30C17.223 30 22.092 25.974 27.559 21.052C37.479 12.124 40 10.607 40 13.566Z" fill="#FF00AA"/>
<path fill-rule="evenodd" clip-rule="evenodd" d="M17.5 1.424C4.874 4.82 0.222001 13.113 0.191001 32.276C0.164001 49.332 3.265 56.44 13 61.633C15.995 63.231 18.734 63.494 32 63.46C46.366 63.423 47.819 63.247 51.857 61.053C61.246 55.953 64.521 47.04 63.812 28.52C63.44 18.789 63.061 16.882 60.6 12.362C57.238 6.183 54.21 3.798 47.073 1.706C40.864 -0.114002 23.822 -0.277002 17.5 1.424ZM40 14.311C40 15.583 39.2 17.495 38.223 18.561C34.873 22.216 31.964 26.86 32.732 27.328C33.154 27.585 36.425 28.113 40 28.5C43.575 28.887 46.837 29.41 47.25 29.661C48.895 30.663 47.817 32.951 44.25 36.028C42.188 37.807 38.241 41.341 35.479 43.882C26.8 51.864 26.252 52.24 24.613 51.323C22.867 50.346 23.264 49.394 28.748 41.398C30.535 38.794 31.885 36.57 31.748 36.457C31.612 36.344 28.404 35.96 24.62 35.604C20.836 35.248 17.348 34.715 16.87 34.42C15.807 33.763 15.705 30.002 16.75 29.994C17.487 29.989 25.596 23.1 33.487 15.775C38.124 11.471 40 11.049 40 14.311Z" fill="#FF0086"/>
<path fill-rule="evenodd" clip-rule="evenodd" d="M17.5 1.418C4.787 4.858 0.141003 13.223 0.243003 32.493C0.330003 49.174 3.088 55.891 11.88 60.84C15.83 63.063 18.943 63.464 32 63.433C48.823 63.394 52.63 62.284 58.175 55.803C62.681 50.536 63.5 46.8 63.5 31.5C63.5 17.984 63.402 17.323 60.655 12.368C57.24 6.206 54.19 3.792 47.248 1.757C41.154 -0.0290012 23.588 -0.229001 17.5 1.418ZM40 14.311C40 15.583 39.2 17.495 38.223 18.561C34.852 22.239 31.966 26.861 32.742 27.34C33.17 27.605 36.366 28.084 39.846 28.405C43.325 28.725 46.583 29.242 47.086 29.553C48.19 30.236 48.316 34 47.234 34C46.812 34 44 36.263 40.984 39.03C25.571 53.167 26.415 52.551 24.298 51.205C22.918 50.328 23.496 49.056 28.748 41.398C30.535 38.794 31.878 36.545 31.734 36.401C31.59 36.257 28.531 35.965 24.936 35.752C21.341 35.539 17.86 35.032 17.2 34.624C15.897 33.819 15.526 30.004 16.75 29.994C17.487 29.989 25.596 23.1 33.487 15.775C38.124 11.471 40 11.049 40 14.311Z" fill="#FF0080"/>
<path fill-rule="evenodd" clip-rule="evenodd" d="M16.082 1.972C13.213 2.944 9.326 5.23 7.445 7.053C1.942 12.387 0.5 17.568 0.5 32C0.5 52.12 4.012 58.501 17.372 62.657C21.18 63.841 43.167 63.895 47.576 62.73C53.147 61.259 57.941 56.892 61.55 50C64.334 44.683 64.639 23.544 62.041 16.014C59.813 9.56 54.172 3.758 48.377 1.963C41.762 -0.0869987 22.147 -0.0809988 16.082 1.972ZM40 14.311C40 15.583 39.19 17.495 38.2 18.561C35.809 21.136 32.49 26.824 33.053 27.381C33.299 27.625 36.351 28.086 39.836 28.406C43.32 28.726 46.583 29.242 47.086 29.553C48.181 30.23 48.32 34 47.25 34.001C46.837 34.002 44.239 36.139 41.476 38.751C31.172 48.49 26.653 52.079 25.098 51.758C22.821 51.287 23.587 48.579 27.564 43.044C29.454 40.414 31 37.752 31 37.131C31 36.509 29.538 35.952 27.75 35.894C17.46 35.558 16 35.067 16 31.941C16 30.873 16.337 29.998 16.75 29.995C17.163 29.993 19.111 28.53 21.08 26.745C39.097 10.411 40 9.818 40 14.311Z" fill="#FF008C"/>
</svg>
