<svg width="65" height="65" viewBox="0 0 65 65" fill="none" xmlns="http://www.w3.org/2000/svg">
<path fill-rule="evenodd" clip-rule="evenodd" d="M1 32V64H33H65V32V0H33H1V32Z" fill="#B3DCD8"/>
<path fill-rule="evenodd" clip-rule="evenodd" d="M1 2.5C1 4.6 1.471 5 3.941 5C5.559 5 7.16 4.55 7.5 4C8.513 2.361 9.95 2.843 12.609 5.712C13.991 7.204 14.921 9.193 14.676 10.132C14.374 11.285 14.979 12.029 16.535 12.419C19.11 13.066 22 12.259 22 10.893C22 10.402 23.38 10 25.066 10C29.92 10 32.289 8.288 31.544 5.32C31.197 3.936 31.27 2.985 31.706 3.205C39.076 6.925 40.997 7.451 46.75 7.325C51.28 7.225 53 7.545 53 8.487C53 9.525 55.017 11 56.436 11C57.197 11 62 5.967 62 5.17C62 4.661 62.675 3.685 63.5 3C64.325 2.315 65 1.36 65 0.878C65 0.392 50.69 0 33 0H1V2.5ZM64.079 5.583C64.127 6.748 64.364 6.985 64.683 6.188C64.972 5.466 64.936 4.603 64.604 4.271C64.272 3.939 64.036 4.529 64.079 5.583ZM59.292 15.449C56.978 16.172 53.153 16.549 50.792 16.286C48.432 16.023 44.154 16.236 41.286 16.761C38.418 17.285 35.943 17.388 35.786 16.991C35.629 16.593 33.145 16.576 30.266 16.952C27.387 17.329 24.462 17.276 23.766 16.834C20.666 14.867 11 17.354 11 20.12C11 20.826 9.309 20.955 6 20.5L1 19.812V41.906V64H33H65V39C65 25.25 64.663 14.03 64.25 14.067C63.837 14.104 61.607 14.726 59.292 15.449Z" fill="#E5F1E7"/>
<path fill-rule="evenodd" clip-rule="evenodd" d="M59.292 15.449C56.978 16.172 53.153 16.549 50.792 16.286C48.432 16.023 44.154 16.236 41.286 16.761C38.418 17.285 35.943 17.388 35.786 16.991C35.629 16.593 33.145 16.576 30.266 16.952C27.387 17.329 24.462 17.276 23.766 16.834C20.666 14.867 11 17.354 11 20.12C11 20.826 9.309 20.955 6 20.5L1 19.812V41.906V64H33H65V39C65 25.25 64.663 14.03 64.25 14.067C63.837 14.104 61.607 14.726 59.292 15.449ZM50.416 23.641C50.943 25.014 50.796 25.076 49.523 24.019C47.788 22.579 47.607 22 48.893 22C49.384 22 50.069 22.739 50.416 23.641Z" fill="#5DC876"/>
<path fill-rule="evenodd" clip-rule="evenodd" d="M60.191 15.351C58.372 16.01 57.183 16.849 57.549 17.216C57.915 17.582 56.704 17.608 54.857 17.274C48.555 16.134 38.752 16.799 35.903 18.56C35.152 19.024 34.95 18.89 35.372 18.206C35.831 17.464 34.738 17.156 32.027 17.264C29.812 17.353 28 17.791 28 18.238C28 18.685 26.672 18.365 25.05 17.526C19.929 14.878 14.175 15.958 11.219 20.122C10.285 21.438 9.337 21.717 7.719 21.152C3.581 19.707 1.521 20.321 1.198 23.096C0.934 25.373 1.271 25.703 3.935 25.779C8.085 25.897 9 26.648 9 29.934C9 34.379 7.84 39.019 6.878 38.425C6.395 38.126 6 38.296 6 38.802C6 39.309 4.763 39.525 3.25 39.283C1.1 38.939 0.828 39.076 2 39.906C3.017 40.627 3.098 40.974 2.25 40.985C1.323 40.996 1 43.975 1 52.5C1 61.855 1.269 64 2.443 64C3.237 64 4.587 63 5.443 61.777L7 59.555V61.777V64H33H59L59.052 61.75L59.105 59.5L60.674 61.75C63.329 65.556 65 64.585 65 59.237C65 55.456 64.283 53.409 61.524 49.312C59.493 46.296 58.51 43.997 59.16 43.78C59.934 43.522 59.856 42.743 58.906 41.221C57.718 39.318 57.765 38.806 59.27 37.302C60.91 35.661 61 35.676 61 37.586C61 38.694 61.489 40.089 62.087 40.687C62.87 41.47 62.87 41.962 62.087 42.446C60.242 43.587 60.887 46 63.038 46C64.961 46 65.059 45.484 64.788 36.75L64.5 27.5L61.732 27.399C59.095 27.302 56.396 26 58.833 26C59.475 26 60 25.325 60 24.5C60 23.675 59.325 23 58.5 23C57.675 23 57 22.55 57 22C57 21.45 58.8 21 61 21C64.905 21 65 20.917 65 17.5C65 13.652 64.947 13.628 60.191 15.351ZM50.416 23.641C50.943 25.014 50.796 25.076 49.523 24.019C47.788 22.579 47.607 22 48.893 22C49.384 22 50.069 22.739 50.416 23.641ZM61.667 22.667C60.399 23.934 61.008 25 63 25C64.111 25 65 24.333 65 23.5C65 21.978 62.885 21.449 61.667 22.667Z" fill="#51A04D"/>
<path fill-rule="evenodd" clip-rule="evenodd" d="M61.25 15.247C59.462 15.82 58 16.61 58 17.002C58 17.928 52.37 17.703 51.406 16.739C50.305 15.639 45.515 15.845 42.315 17.131C39.011 18.459 35 18.864 35 17.87C35 17.2 28.892 17.807 28.123 18.554C27.916 18.756 26.116 18.237 24.123 17.401C19.584 15.497 15.036 16.269 12.049 19.448C10.113 21.508 9.128 21.787 5.389 21.329C1.159 20.811 1 20.889 1 23.479C1 25.191 1.454 26.011 2.25 25.737C2.938 25.501 4.713 25.65 6.195 26.068C7.944 26.562 9.087 26.42 9.451 25.664C9.76 25.024 9.767 25.771 9.468 27.324C9.169 28.877 8.86 33.152 8.781 36.824C8.703 40.496 8.463 42.487 8.249 41.25C7.795 38.617 8.133 38.709 4.1 40.115L0.901001 41.23L1.097 48.616C1.261 54.82 1.516 55.817 2.692 54.841C3.461 54.202 3.862 53.082 3.581 52.352C3.301 51.621 3.618 51.131 4.286 51.262C4.954 51.393 5.44 50.73 5.368 49.789C5.295 48.848 5.745 48.173 6.368 48.289C6.99 48.405 7.438 47.717 7.363 46.761C7.288 45.804 7.612 45.26 8.084 45.552C9.241 46.267 9.767 43.252 10.438 32.072C10.786 26.275 11.578 21.767 12.494 20.369C14.682 17.029 19.855 16.375 24.666 18.83C29.724 21.41 37.173 21.447 41.894 18.917C46.547 16.423 49.092 16.498 52.567 19.232C54.128 20.459 55.019 20.839 54.548 20.077C53.962 19.129 54.061 18.92 54.862 19.415C55.506 19.813 55.818 20.486 55.555 20.91C55.293 21.335 55.506 26.928 56.029 33.341C56.927 44.364 57.178 45.299 60.641 50.515C62.655 53.548 64.497 55.836 64.735 55.599C64.972 55.362 63.563 52.788 61.605 49.879C59.562 46.846 58.467 44.33 59.036 43.978C59.656 43.594 59.433 42.171 58.441 40.182C57.568 38.432 57.059 36.212 57.311 35.25C57.637 34 57.801 34.178 57.884 35.872C57.981 37.864 58.241 38.045 59.5 37C60.745 35.967 61 36.082 61 37.678C61 38.735 61.489 40.089 62.087 40.687C62.87 41.47 62.87 41.962 62.087 42.446C60.257 43.577 60.879 46 63 46C64.854 46 65 45.333 65 36.895V27.79L61 28.171C57.054 28.548 55.581 27.482 58.5 26.362C59.325 26.045 60 25.159 60 24.393C60 22.383 57.241 22.676 56.639 24.75C56.345 25.761 56.209 25.444 56.315 24C56.477 21.809 57.025 21.462 60.75 21.193C64.867 20.895 65 20.778 65 17.443C65 15.549 64.888 14.046 64.75 14.102C64.612 14.158 63.038 14.673 61.25 15.247ZM15 21C11.092 24.908 13.635 31 19.174 31C24.295 31 26.966 24.089 23.171 20.655C20.712 18.43 17.432 18.568 15 21ZM42.58 20.912C38.376 25.557 43.602 32.574 49.682 30.449C51.894 29.676 52.569 28.749 52.82 26.138C53.416 19.959 46.594 16.477 42.58 20.912ZM17.417 23.357C17.07 24.261 16.368 25 15.858 25C15.347 25 15.432 24.062 16.046 22.914C17.319 20.535 18.369 20.874 17.417 23.357ZM50.129 23.25C51.216 25.29 51.172 25.372 49.664 24.128C48.749 23.373 48 22.36 48 21.878C48 20.35 48.889 20.923 50.129 23.25ZM61.667 22.667C60.399 23.934 61.008 25 63 25C64.111 25 65 24.333 65 23.5C65 21.978 62.885 21.449 61.667 22.667ZM27.509 31.913C23.91 32.336 22.428 32.973 22.196 34.195C21.731 36.648 28.976 38.381 36.456 37.605C42.918 36.935 44.596 35.995 43.664 33.567C43.259 32.51 41.777 32 39.113 32C36.941 32 34.564 31.848 33.832 31.663C33.099 31.477 30.254 31.59 27.509 31.913ZM7.054 56.187C3.724 59.59 1 62.74 1 63.187C1 64.92 3.529 63.872 5.676 61.25L7.928 58.5L7.964 61.25C8.014 65.039 9.693 64.71 10.517 60.75C10.889 58.962 12.05 56.012 13.097 54.193C16.808 47.744 14.605 48.471 7.054 56.187ZM52.176 51C53.656 57.238 56.581 64 57.799 64C58.823 64 59.083 63.216 58.709 61.256L58.184 58.513L60.544 61.256C62.81 63.89 65 64.856 65 63.221C65 62.793 62.034 59.53 58.41 55.971C54.785 52.412 51.98 50.175 52.176 51Z" fill="#3D7238"/>
<path fill-rule="evenodd" clip-rule="evenodd" d="M30.01 17.978C26.065 18.94 29.285 20.144 34.893 19.804C37.599 19.639 39.579 19.127 39.293 18.665C39.008 18.204 37.925 18.048 36.887 18.319C35.849 18.591 35 18.48 35 18.073C35 17.187 33.38 17.156 30.01 17.978ZM54.77 19.471C55.986 21.084 57.191 21.428 60.65 21.149C63.544 20.916 65 20.33 65 19.399C65 17.793 65.158 17.836 58.37 17.611C53.369 17.446 53.278 17.493 54.77 19.471ZM15.073 21.635C12.463 24.953 12.466 26.466 15.087 29.087C16.619 30.619 17.881 31.003 19.837 30.532C24.728 29.354 26.299 25.299 23.443 21.223C21.333 18.209 17.623 18.392 15.073 21.635ZM42.939 21.061C40.281 23.719 40.778 26.762 44.296 29.379C46.876 31.299 47.3 31.342 49.796 29.946C53.33 27.969 53.786 24.465 50.908 21.402C48.141 18.456 45.65 18.35 42.939 21.061ZM1 23.49C1 25.194 1.454 26.011 2.25 25.737C2.938 25.501 4.719 25.652 6.209 26.072C8.417 26.696 9.034 26.469 9.55 24.843C10.376 22.24 9.868 21.838 5.04 21.28C1.21 20.838 1 20.953 1 23.49ZM17.768 23C16.506 25.02 15 25.673 15 24.2C15 23.161 17.167 21 18.208 21C18.653 21 18.455 21.9 17.768 23ZM49.8 22.2C50.46 22.86 51 23.76 51 24.2C51 25.673 49.494 25.02 48.232 23C46.865 20.81 47.888 20.288 49.8 22.2ZM61.667 22.667C60.399 23.934 61.008 25 63 25C64.111 25 65 24.333 65 23.5C65 21.978 62.885 21.449 61.667 22.667ZM57 24.969C57 26.308 57.48 26.753 58.5 26.362C59.325 26.045 60 25.159 60 24.393C60 23.627 59.325 23 58.5 23C57.675 23 57 23.885 57 24.969ZM57.477 29.037C57.125 29.607 57.141 31.876 57.514 34.08C58.07 37.374 58.441 37.879 59.595 36.921C60.719 35.989 61 36.14 61 37.678C61 38.735 61.489 40.089 62.087 40.687C62.87 41.47 62.87 41.962 62.087 42.446C60.257 43.577 60.879 46 63 46C64.852 46 65 45.333 65 37V28H61.559C59.666 28 57.83 28.467 57.477 29.037ZM30.768 32.725C32.565 32.947 35.265 32.943 36.768 32.715C38.271 32.486 36.8 32.304 33.5 32.31C30.2 32.315 28.971 32.502 30.768 32.725ZM22.531 33.95C21.427 35.736 25.865 37 33.243 37C40.801 37 45.774 35.214 42.997 33.498C42.176 32.99 41.934 33.084 42.346 33.75C42.773 34.441 41.696 34.71 39.25 34.522C35.803 34.258 35.742 34.295 38.5 34.986C40.542 35.497 38.785 35.737 33 35.737C27.215 35.737 25.458 35.497 27.5 34.986C30.258 34.295 30.197 34.258 26.75 34.522C24.687 34.68 23.251 34.403 23.559 33.905C23.866 33.407 23.893 33 23.618 33C23.343 33 22.854 33.427 22.531 33.95ZM3.75 40.162C1.14 41.116 1 41.493 1 47.583C1 51.112 1.178 54 1.396 54C2.601 54 8 43.914 8 41.662C8 38.755 7.798 38.684 3.75 40.162ZM58 42.441C58 43.298 58.45 44 59 44C59.55 44 60 43.577 60 43.059C60 42.541 59.55 41.84 59 41.5C58.45 41.16 58 41.584 58 42.441ZM7.31 56.75C1.651 62.879 -0.0159998 66.305 5 61.5L8 58.626L8.07 61.563C8.137 64.355 8.211 64.303 9.558 60.5C10.338 58.3 11.682 55.263 12.544 53.75C15.029 49.395 13.061 50.523 7.31 56.75ZM53.898 54.427C54.779 56.263 55.756 57.616 56.069 57.435C56.382 57.254 56.451 58.379 56.223 59.934C55.995 61.49 56.301 63.068 56.904 63.441C57.59 63.864 58 63.16 58 61.559C58 58.339 58.691 58.337 61.22 61.553C62.324 62.957 63.459 63.875 63.741 63.593C64.413 62.92 56.276 53.218 54.033 52.018C52.401 51.144 52.393 51.289 53.898 54.427Z" fill="#062E03"/>
<path fill-rule="evenodd" clip-rule="evenodd" d="M30.235 17.792C28.99 17.985 28.229 18.561 28.544 19.071C29.33 20.342 36.153 20.217 38 18.898C39.205 18.037 39.058 17.923 37.25 18.32C36.013 18.591 35 18.48 35 18.073C35 17.288 33.901 17.223 30.235 17.792ZM54.77 19.471C55.986 21.084 57.191 21.428 60.65 21.149C63.544 20.916 65 20.33 65 19.399C65 17.793 65.158 17.836 58.37 17.611C53.369 17.446 53.278 17.493 54.77 19.471ZM17 20.289C14.187 21.704 13.119 26.234 15.05 28.56C17.035 30.952 21.731 30.34 23.629 27.443C25.215 25.023 25.199 24.744 23.342 22.256C20.884 18.964 20.11 18.724 17 20.289ZM44.223 20.557C41.774 22.272 41.211 26.811 43.2 28.8C43.86 29.46 45.9 30 47.732 30C50.258 30 51.263 29.464 51.883 27.787C52.98 24.822 52.196 22.251 49.653 20.469C47.052 18.648 46.946 18.649 44.223 20.557ZM1 23.49C1 25.194 1.454 26.011 2.25 25.737C2.938 25.501 4.719 25.652 6.209 26.072C8.417 26.696 9.034 26.469 9.55 24.843C10.376 22.24 9.868 21.838 5.04 21.28C1.21 20.838 1 20.953 1 23.49ZM19 21.878C19 23.156 16.06 25.393 15.333 24.667C14.607 23.94 16.844 21 18.122 21C18.605 21 19 21.395 19 21.878ZM49.8 22.2C50.46 22.86 51 24.07 51 24.889C51 25.987 50.476 25.815 49 24.23C47.9 23.05 47 21.84 47 21.542C47 20.592 48.559 20.959 49.8 22.2ZM61.667 22.667C60.399 23.934 61.008 25 63 25C64.111 25 65 24.333 65 23.5C65 21.978 62.885 21.449 61.667 22.667ZM57 24.969C57 26.308 57.48 26.753 58.5 26.362C59.325 26.045 60 25.159 60 24.393C60 23.627 59.325 23 58.5 23C57.675 23 57 23.885 57 24.969ZM23 26.941C23 27.459 22.55 28.16 22 28.5C21.45 28.84 21 28.416 21 27.559C21 26.702 21.45 26 22 26C22.55 26 23 26.423 23 26.941ZM45.394 27.584C45.767 28.557 45.544 29.015 44.813 28.771C43.318 28.273 42.495 26 43.81 26C44.347 26 45.059 26.713 45.394 27.584ZM57.477 29.037C57.125 29.607 57.141 31.876 57.514 34.08C58.07 37.374 58.441 37.879 59.595 36.921C60.719 35.989 61 36.14 61 37.678C61 38.735 61.489 40.089 62.087 40.687C62.87 41.47 62.87 41.962 62.087 42.446C60.257 43.577 60.879 46 63 46C64.852 46 65 45.333 65 37V28H61.559C59.666 28 57.83 28.467 57.477 29.037ZM3.75 40.162C1.14 41.116 1 41.493 1 47.583C1 51.112 1.178 54 1.396 54C2.601 54 8 43.914 8 41.662C8 38.755 7.798 38.684 3.75 40.162ZM58 42.441C58 43.298 58.45 44 59 44C59.55 44 60 43.577 60 43.059C60 42.541 59.55 41.84 59 41.5C58.45 41.16 58 41.584 58 42.441ZM10.872 53.75C9.629 55.336 9.664 55.371 11.25 54.128C12.916 52.821 13.445 52 12.622 52C12.415 52 11.627 52.788 10.872 53.75ZM53 52.313C53 52.485 54.462 53.948 56.25 55.563L59.5 58.5L56.563 55.25C53.825 52.221 53 51.54 53 52.313Z" fill="#AAE346"/>
<path fill-rule="evenodd" clip-rule="evenodd" d="M17 20.289C14.187 21.704 13.119 26.234 15.05 28.56C17.035 30.952 21.731 30.34 23.629 27.443C25.215 25.023 25.199 24.744 23.342 22.256C20.884 18.964 20.11 18.724 17 20.289ZM44.223 20.557C41.774 22.272 41.211 26.811 43.2 28.8C43.86 29.46 45.9 30 47.732 30C50.258 30 51.263 29.464 51.883 27.787C52.98 24.822 52.196 22.251 49.653 20.469C47.052 18.648 46.946 18.649 44.223 20.557ZM19 21.878C19 23.156 16.06 25.393 15.333 24.667C14.607 23.94 16.844 21 18.122 21C18.605 21 19 21.395 19 21.878ZM49.8 22.2C50.46 22.86 51 24.07 51 24.889C51 25.987 50.476 25.815 49 24.23C47.9 23.05 47 21.84 47 21.542C47 20.592 48.559 20.959 49.8 22.2ZM23 26.941C23 27.459 22.55 28.16 22 28.5C21.45 28.84 21 28.416 21 27.559C21 26.702 21.45 26 22 26C22.55 26 23 26.423 23 26.941ZM45.394 27.584C45.767 28.557 45.544 29.015 44.813 28.771C43.318 28.273 42.495 26 43.81 26C44.347 26 45.059 26.713 45.394 27.584ZM10.872 53.75C9.629 55.336 9.664 55.371 11.25 54.128C12.916 52.821 13.445 52 12.622 52C12.415 52 11.627 52.788 10.872 53.75ZM53 52.313C53 52.485 54.462 53.948 56.25 55.563L59.5 58.5L56.563 55.25C53.825 52.221 53 51.54 53 52.313Z" fill="black"/>
</svg>
