<svg width="61" height="59" viewBox="0 0 61 59" fill="none" xmlns="http://www.w3.org/2000/svg">
<path fill-rule="evenodd" clip-rule="evenodd" d="M0.906 2.747C0.331 4.258 0.2 6.621 0.613 7.997C1.026 9.374 1.395 14.566 1.432 19.536C1.5 28.511 2.477 31.598 6.543 35.681C7.354 36.495 7.482 38.514 6.956 42.181C6.536 45.106 5.921 50.087 5.588 53.25L4.983 59H24.991H45V55.469C45 53.292 44.439 51.722 43.537 51.376C42.324 50.91 38 41.462 38 39.275C38 38.918 39.271 39.844 40.825 41.332C44.815 45.155 54.67 46.917 58.399 44.474C59.83 43.537 61 42.436 61 42.027C61 41.619 57.311 40.545 52.803 39.641C46.687 38.414 43.894 37.315 41.803 35.311C39.063 32.686 37.758 29.727 40.25 31.79C40.938 32.359 44.351 33.341 47.835 33.972C53.272 34.956 54.517 34.892 56.617 33.515C57.963 32.634 58.845 31.558 58.578 31.125C58.31 30.693 55.483 29.786 52.296 29.11C42.506 27.036 41.221 26.267 40.51 22.061C40.076 19.488 40.525 16.379 41.938 12.184C45.469 1.702 44.21 -0.330002 37 4.213C30.231 8.478 25.956 10.047 23.98 8.989C22.761 8.337 21.245 8.337 19.531 8.988C17.247 9.857 16.417 9.508 12.715 6.13C5.317 -0.621002 2.494 -1.43 0.906 2.747Z" fill="#D8BDAA"/>
<path fill-rule="evenodd" clip-rule="evenodd" d="M1.159 1.75C1.246 2.162 0.99 3.244 0.589 4.154C0.188 5.063 0.501 7.705 1.285 10.023C2.069 12.342 2.507 15.999 2.258 18.151C2.009 20.308 2.32 22.681 2.952 23.442C3.738 24.389 3.768 25.025 3.049 25.47C1.75 26.272 1.655 30 2.933 30C3.446 30 4.157 30.919 4.513 32.042C4.931 33.357 5.756 33.906 6.831 33.584C7.879 33.27 9.214 34.092 10.42 35.792L12.339 38.5L9.67 36.076C8.201 34.742 7 34.153 7 34.767C7 35.38 7.457 36.165 8.016 36.51C8.575 36.856 8.775 37.555 8.46 38.065C7.45 39.699 6.869 43.311 6.341 51.25C5.9 57.878 6.055 59 7.413 59C8.314 59 9 58.166 9 57.071C9 56.011 9.634 54.509 10.409 53.734C11.324 52.819 11.505 51.828 10.925 50.912C9.468 48.611 9.856 47.387 12.409 46.223C14.554 45.246 14.73 44.738 14.02 41.587C13.255 38.199 13.313 38.095 15.361 39.16C16.537 39.771 17.625 40.373 17.778 40.497C17.931 40.621 17.595 41.936 17.031 43.418C16.311 45.311 16.323 45.918 17.07 45.457C17.707 45.063 18.007 45.542 17.817 46.65C17.287 49.743 21.205 49.317 23.802 45.999L26.103 43.059L22.461 44.581C20.458 45.418 19.111 45.63 19.468 45.051C19.826 44.473 20.734 44 21.487 44C22.239 44 24.049 42.538 25.509 40.75C27.355 38.488 27.803 38.222 26.98 39.873C25.844 42.154 25.937 42.135 29.357 39.406C32.682 36.753 32.81 36.448 31.298 34.777C30.408 33.793 29.976 32.69 30.339 32.327C30.703 31.964 31 32.195 31 32.842C31 33.722 31.495 33.708 32.975 32.784C34.534 31.81 35.208 31.808 36.175 32.775C36.999 33.599 37.038 34 36.294 34C35.68 34 35.42 34.89 35.71 36C35.998 37.1 36.657 38 37.176 38C37.694 38 37.794 38.562 37.399 39.25C37.003 39.938 37.058 40.156 37.52 39.736C37.983 39.316 39.551 40.112 41.005 41.505C44.816 45.156 54.766 46.855 58.399 44.474C59.83 43.537 61 42.436 61 42.027C61 41.619 57.307 40.544 52.794 39.639C46.166 38.309 43.957 37.382 41.309 34.815C38.255 31.855 37.39 29.422 40.226 31.77C40.927 32.35 44.351 33.341 47.835 33.972C53.272 34.956 54.517 34.892 56.617 33.515C57.963 32.634 58.845 31.558 58.578 31.125C58.31 30.693 55.483 29.786 52.296 29.11C42.539 27.043 41.215 26.258 40.561 22.159C40.217 20.004 40.642 16.24 41.595 13C43.828 5.409 43.875 2.775 41.781 2.451C39.546 2.106 31 7.769 31 9.594C31 11.269 27.685 11.437 24.827 9.907C23.35 9.117 22.483 9.117 21.693 9.907C19.474 12.126 17.919 11.364 10.138 4.25C7.905 2.208 5.545 1 3.792 1C2.256 1 1.071 1.338 1.159 1.75ZM23.985 16.75C23.971 18.26 23.824 18.294 22.909 17C22.11 15.871 21.722 15.809 21.341 16.75C21.062 17.438 20.366 18 19.794 18C19.167 18 19.248 17.406 20 16.5C21.692 14.461 24.003 14.606 23.985 16.75ZM9.342 24.449C9.713 25.416 9.418 25.714 8.455 25.344C7.661 25.04 7.26 24.388 7.565 23.895C8.331 22.655 8.697 22.769 9.342 24.449ZM15.75 25.689C14.788 25.941 13.964 27.126 13.921 28.323C13.878 29.52 13.61 29.923 13.327 29.217C12.506 27.173 13.779 24.99 15.719 25.116C17.388 25.225 17.39 25.261 15.75 25.689ZM33.673 26.285C35.572 27.347 35.677 27.732 34.5 29.337C33.205 31.102 33.034 31.085 30.074 28.897C27.867 27.265 27.35 26.396 28.248 25.826C29.94 24.751 31.104 24.85 33.673 26.285ZM5.125 27C5.374 28.989 5.544 29.521 6.324 30.75C6.777 31.463 6.663 32 6.059 32C5.088 32 4.587 30.617 4.882 28.75C4.947 28.337 4.55 28 4 28C3.45 28 3 27.55 3 27C3 26.45 3.45 26 4 26C4.55 26 5.056 26.45 5.125 27ZM39 45.941C39 46.459 39.445 47.157 39.989 47.493C40.555 47.843 40.723 47.442 40.382 46.552C39.717 44.82 39 44.503 39 45.941ZM42.567 53.182C44.837 57.645 45 57.747 45 54.702C45 53.068 44.219 51.652 42.939 50.968C40.906 49.879 40.901 49.909 42.567 53.182ZM10.333 56.456C10.333 57.257 10.716 57.676 11.183 57.387C11.65 57.098 11.774 56.443 11.457 55.931C10.649 54.623 10.333 54.77 10.333 56.456ZM16.51 56.016C16.856 56.575 17.557 56.774 18.069 56.457C19.456 55.6 19.198 55 17.441 55C16.584 55 16.165 55.457 16.51 56.016ZM40 58C40 58.55 40.45 59 41 59C41.55 59 42 58.55 42 58C42 57.45 41.55 57 41 57C40.45 57 40 57.45 40 58Z" fill="#C7A187"/>
<path fill-rule="evenodd" clip-rule="evenodd" d="M1.159 1.75C1.246 2.162 0.95 3.347 0.501 4.382C0.013 5.507 0.151 7.011 0.842 8.119C1.479 9.139 2 10.681 2 11.545C2 12.48 2.469 12.828 3.155 12.405C3.904 11.941 4.036 12.133 3.53 12.951C1.924 15.55 1.821 20.964 3.348 22.491C5.26 24.403 5.762 24.383 7.821 22.313C9.396 20.731 9.52 20.762 9.82 22.813C10.192 25.361 13.132 25.751 15 23.5C15.997 22.299 15.988 22 14.956 22C14.247 22 14.003 21.663 14.415 21.252C14.827 20.84 15.802 21.376 16.582 22.443C18.148 24.585 18.531 28.446 17.088 27.554C16.586 27.244 16.295 27.78 16.442 28.745C16.613 29.875 17.428 30.396 18.731 30.208C20.833 29.904 22.61 32.505 20.986 33.509C20.476 33.824 18.696 33.377 17.029 32.515C14.41 31.161 14 31.147 14 32.417C14 33.225 14.916 35.438 16.036 37.336C17.155 39.233 18.002 41.172 17.917 41.643C17.566 43.598 18.069 45 19.122 45C19.933 45 19.921 44.61 19.081 43.598C18.121 42.44 18.491 42.223 21.209 42.348C23.9 42.472 24.442 42.163 24.183 40.65C24.009 39.632 24.281 39.055 24.787 39.368C25.293 39.681 26.193 38.871 26.787 37.568C27.72 35.521 27.577 35.123 25.74 34.642C23.654 34.097 23.649 34.045 25.483 32.019C26.511 30.883 27.611 30.301 27.926 30.726C28.744 31.829 31 32.158 31 31.174C31 30.72 29.875 29.292 28.5 28C27.125 26.708 26 25.103 26 24.433C26 23.142 23.821 22 21.359 22C20.547 22 20.16 22.45 20.5 23C20.84 23.55 20.668 24 20.118 24C18.092 24 18.036 22.123 20.044 21.486C22.524 20.699 32 21.863 32 22.955C32 23.377 30.875 23.508 29.5 23.245C27.745 22.909 27 23.208 27 24.245C27 25.314 27.76 25.582 29.75 25.212C31.263 24.932 32.788 24.26 33.141 23.719C33.493 23.178 34.071 23.649 34.425 24.765C34.889 26.226 35.69 26.662 37.285 26.323C39.377 25.878 39.4 25.934 37.69 27.33C36.404 28.381 36.219 29.017 37.052 29.532C37.696 29.93 38.666 29.636 39.206 28.878C39.979 27.794 40.075 27.858 39.654 29.177C38.878 31.61 40.703 32.68 47.835 33.972C53.272 34.956 54.517 34.892 56.617 33.515C57.963 32.634 58.845 31.558 58.578 31.125C58.31 30.693 55.483 29.786 52.296 29.11C49.108 28.435 45.305 27.422 43.845 26.859C39.489 25.181 38.862 19.62 42 10.5C44.458 3.356 44.458 3.353 42 2.71C40.9 2.423 40 2.622 40 3.153C40 3.684 39.55 3.84 39 3.5C38.45 3.16 38 3.359 38 3.941C38 4.523 37.437 4.887 36.75 4.75C36.033 4.607 35.533 5.45 35.577 6.729C35.636 8.433 35.352 8.707 34.371 7.893C32.878 6.654 31 7.523 31 9.452C31 11.293 28.224 12.191 26.081 11.043C24.883 10.402 23.884 10.485 23.006 11.297C21.989 12.238 21.86 12.228 22.412 11.25C23.343 9.602 21.416 9.639 19.865 11.299C18.883 12.35 17.882 11.887 14.615 8.871C12.394 6.82 10.153 5.405 9.634 5.726C9.116 6.047 8.993 5.82 9.362 5.223C10.238 3.806 6.196 1 3.277 1C2.025 1 1.071 1.338 1.159 1.75ZM6.794 9.042C7.95 10.892 7.892 10.95 6.042 9.794C3.791 8.389 2.435 5.846 4.322 6.57C4.994 6.828 6.106 7.94 6.794 9.042ZM37.387 13.794C36.789 14.182 36.086 15.163 35.825 15.974C35.475 17.063 35.212 16.92 34.822 15.426C34.422 13.899 34.805 13.365 36.384 13.246C37.534 13.159 37.985 13.406 37.387 13.794ZM16.839 15.232C18.245 14.692 18.261 14.805 16.973 16.184C15.28 17.996 13.333 17.589 13.333 15.424C13.333 14.477 13.682 14.282 14.289 14.889C14.814 15.414 15.962 15.568 16.839 15.232ZM24 16.5C24 17.325 23.523 18 22.941 18C22.359 18 22.16 17.55 22.5 17C23.568 15.272 21.784 15.914 20.418 17.75C19.22 19.361 19.128 19.321 19.271 17.25C19.383 15.618 20.053 15 21.713 15C23.079 15 24 15.604 24 16.5ZM29 16C29 16.55 28.523 17 27.941 17C27.359 17 27.16 16.55 27.5 16C27.84 15.45 28.316 15 28.559 15C28.802 15 29 15.45 29 16ZM32.168 19.232C31.426 19.974 31.296 19.583 31.731 17.92C32.085 16.568 32.538 16.114 32.788 16.863C33.028 17.585 32.75 18.65 32.168 19.232ZM5.991 26.511C4.962 27.75 5.111 28 6.878 28C8.045 28 9 27.577 9 27.059C9 25.327 7.24 25.006 5.991 26.511ZM2 28.448C2 28.798 2.459 29.628 3.02 30.292C7.7 35.836 8.82 37.483 8.386 38.184C7.451 39.697 6.858 43.488 6.341 51.25C5.9 57.878 6.055 59 7.413 59C8.314 59 9 58.166 9 57.071C9 56.011 9.634 54.509 10.409 53.734C11.324 52.819 11.505 51.828 10.925 50.912C9.472 48.618 9.854 47.387 12.376 46.238C16.016 44.58 14.669 40.88 7.877 33.873C4.645 30.539 2 28.097 2 28.448ZM36.611 33.572C35.852 35.549 37.026 37.737 40.739 41.269C44.824 45.156 54.64 46.937 58.399 44.474C59.83 43.537 61 42.436 61 42.027C61 41.619 57.307 40.544 52.794 39.639C46.324 38.341 43.934 37.359 41.496 34.996C37.949 31.559 37.44 31.41 36.611 33.572ZM10.333 56.456C10.333 57.257 10.716 57.676 11.183 57.387C11.65 57.098 11.774 56.443 11.457 55.931C10.649 54.623 10.333 54.77 10.333 56.456Z" fill="#EE7283"/>
<path fill-rule="evenodd" clip-rule="evenodd" d="M7.467 2.75C7.828 3.443 7.535 4.007 6.809 4.015C5.831 4.027 5.867 4.263 6.952 4.949C7.751 5.455 8.826 5.608 9.341 5.289C9.902 4.942 10.003 6.169 9.593 8.355C9.037 11.318 9.21 12 10.514 12C11.396 12 11.84 12.45 11.5 13C11.147 13.571 12.025 14 13.548 14C15.465 14 16.058 13.593 15.658 12.551C15.267 11.533 15.582 11.286 16.715 11.721C17.789 12.133 18.087 11.949 17.605 11.17C17.207 10.526 16.475 10 15.977 10C15.479 10 13.214 8.088 10.944 5.75C8.673 3.412 7.109 2.063 7.467 2.75ZM0.667 3.667C0.3 4.033 0 5.233 0 6.333C0 8.841 1.322 7.663 1.52 4.98C1.681 2.788 1.628 2.706 0.667 3.667ZM35.459 5.067C35.096 5.653 35.014 6.348 35.276 6.61C35.538 6.872 36.019 6.392 36.345 5.543C37.021 3.781 36.445 3.471 35.459 5.067ZM42.459 5.067C42.096 5.653 42.014 6.348 42.276 6.61C42.538 6.872 43.019 6.392 43.345 5.543C44.021 3.781 43.445 3.471 42.459 5.067ZM31.667 7.667C31.3 8.033 31 9.213 31 10.289C31 11.914 31.254 12.034 32.5 11C33.325 10.315 34 9.135 34 8.378C34 6.92 32.783 6.55 31.667 7.667ZM20.75 10.748C19.788 10.967 19 11.59 19 12.132C19 12.674 19.419 12.859 19.931 12.543C20.443 12.226 21.144 12.425 21.49 12.984C21.835 13.543 23.202 14 24.528 14C26.315 14 26.78 14.409 26.329 15.584C25.84 16.859 25.557 16.908 24.876 15.834C24.404 15.089 24.024 14.983 24.015 15.595C24.007 16.197 24.977 17.547 26.172 18.595C27.366 19.643 28.015 19.938 27.613 19.25C27.184 18.516 27.422 17.994 28.191 17.985C29.234 17.972 29.224 17.795 28.143 17.11C27.191 16.506 27.118 16.045 27.9 15.562C30.08 14.215 30.634 19.551 28.5 21.337C27.931 21.813 28.47 21.961 29.75 21.68C31.159 21.371 32 21.661 32 22.455C32 23.268 31.103 23.551 29.5 23.245C27.745 22.909 27 23.208 27 24.245C27 25.961 32.016 25.442 33.219 23.601C33.734 22.814 34.53 22.866 36.01 23.784C37.149 24.49 38.42 24.859 38.833 24.603C39.247 24.347 39.688 25.49 39.814 27.141C39.981 29.334 39.699 29.944 38.771 29.4C38.072 28.991 38.321 29.593 39.324 30.738C40.534 32.12 43.343 33.203 47.677 33.957C53.268 34.931 54.556 34.866 56.635 33.503C59.099 31.889 58.937 29.426 56.431 30.388C55.679 30.677 54.83 30.533 54.543 30.07C54.257 29.606 52.33 28.932 50.261 28.573C41.307 27.016 39.014 24.172 40.199 16.097C40.517 13.931 40.275 13.341 39.231 13.742C38.449 14.042 38.052 15.092 38.326 16.138C38.916 18.394 38.702 18.415 34.921 16.459C33.282 15.612 31.428 15.235 30.801 15.623C30.04 16.093 29.88 15.756 30.319 14.612C30.757 13.468 30.597 13.131 29.837 13.601C29.21 13.988 28.09 13.476 27.348 12.462C26.607 11.447 26 10.945 26 11.344C26 11.744 25.212 11.683 24.25 11.21C23.288 10.737 21.712 10.529 20.75 10.748ZM3.356 14.208C1.453 16.77 1.802 21.429 3.997 22.783C5.732 23.852 6.332 23.81 7.61 22.533C9.727 20.416 10.959 20.615 10.5 23C10.051 25.33 10.79 25.475 13.322 23.555C15.084 22.219 15.084 22.161 13.322 21.761C12.32 21.534 14.579 21.303 18.342 21.248C22.106 21.193 25.443 20.89 25.759 20.574C26.075 20.258 23.333 20 19.667 20C16 20 13 19.628 13 19.173C13 18.718 14.35 18.545 16 18.787C17.801 19.051 19 18.782 19 18.113C19 17.501 19.113 16.7 19.25 16.333C19.387 15.966 18.532 15.594 17.348 15.507C15.925 15.402 15.37 15.801 15.71 16.686C16.055 17.585 15.698 17.821 14.617 17.407C13.734 17.068 13.26 16.388 13.565 15.895C13.869 15.403 13.674 15 13.132 15C12.59 15 11.941 15.788 11.689 16.75C11.327 18.136 11.208 18.057 11.116 16.367C11.049 15.135 10.154 14.012 8.999 13.71C7.898 13.422 7.249 13.595 7.558 14.093C8.33 15.342 6.638 15.238 5.358 13.958C4.634 13.234 4.021 13.311 3.356 14.208ZM20.638 17.5C20.308 18.36 20.618 19 21.365 19C22.081 19 22.667 18.325 22.667 17.5C22.667 16.675 22.34 16 21.94 16C21.541 16 20.955 16.675 20.638 17.5ZM32.182 19.218C31.458 19.942 31.247 19.686 31.493 18.381C32.034 15.507 32.118 15.399 32.691 16.837C32.985 17.573 32.756 18.644 32.182 19.218ZM20.559 23.096C21.101 23.972 20.824 24.147 19.623 23.686C18.251 23.159 18.103 23.362 18.865 24.724C19.549 25.946 19.352 26.777 18.156 27.711C16.8 28.77 16.781 28.908 18.05 28.472C19.104 28.11 20.131 29.052 21.255 31.409L22.91 34.88L18.799 33.429C16.538 32.631 14.514 32.153 14.301 32.366C14.088 32.578 14.693 34.385 15.645 36.381C16.836 38.879 17.624 39.619 18.172 38.755C18.611 38.065 18.976 37.967 18.985 38.537C19.005 39.917 22.785 40.156 23.605 38.83C24.046 38.116 24.451 38.112 24.887 38.817C25.241 39.39 26.032 38.772 26.668 37.424C27.667 35.306 27.571 35 25.906 35C23.619 35 23.444 33.707 25.5 32C28.33 29.651 26.886 25.875 22.125 23.176C20.371 22.181 19.982 22.161 20.559 23.096ZM6.51 27.016C6.856 27.575 7.557 27.774 8.069 27.457C9.456 26.6 9.198 26 7.441 26C6.584 26 6.165 26.457 6.51 27.016ZM2 28.448C2 28.798 2.459 29.628 3.02 30.292C7.7 35.836 8.82 37.483 8.386 38.184C7.451 39.697 6.858 43.488 6.341 51.25C5.9 57.878 6.055 59 7.413 59C8.314 59 9 58.166 9 57.071C9 56.011 9.634 54.509 10.409 53.734C11.324 52.819 11.505 51.828 10.925 50.912C9.472 48.618 9.854 47.387 12.376 46.238C16.016 44.58 14.669 40.88 7.877 33.873C4.645 30.539 2 28.097 2 28.448ZM28.603 29.833C28.32 30.292 28.723 30.667 29.5 30.667C30.277 30.667 30.68 30.292 30.397 29.833C30.114 29.375 29.71 29 29.5 29C29.29 29 28.886 29.375 28.603 29.833ZM37.089 33.393C35.6 35.186 36.59 37.323 40.739 41.269C42.835 43.264 45.417 44.35 49.97 45.152C56.066 46.225 56.361 46.18 58.233 43.883C59.3 42.572 59.84 42.132 59.432 42.905C58.943 43.831 59.084 44.066 59.845 43.595C61.76 42.412 61.143 40.729 59 41.29C57.9 41.577 57 41.484 57 41.083C57 40.681 54.222 39.836 50.827 39.205C46.239 38.352 43.841 37.269 41.485 34.986C38.756 32.34 38.146 32.119 37.089 33.393ZM17.561 41.772C16.849 42.484 18.149 45 19.229 45C19.815 45 19.718 44.365 19.001 43.501C17.928 42.209 18.172 42.084 20.757 42.601C22.407 42.931 23.992 42.819 24.279 42.351C24.796 41.509 18.377 40.956 17.561 41.772ZM10.333 56.456C10.333 57.257 10.716 57.676 11.183 57.387C11.65 57.098 11.774 56.443 11.457 55.931C10.649 54.623 10.333 54.77 10.333 56.456Z" fill="#FE0000"/>
<path fill-rule="evenodd" clip-rule="evenodd" d="M7.467 2.75C7.828 3.443 7.535 4.007 6.809 4.015C5.831 4.027 5.867 4.263 6.952 4.949C7.751 5.455 8.826 5.608 9.341 5.289C9.902 4.942 10.003 6.169 9.593 8.355C9.037 11.318 9.21 12 10.514 12C11.396 12 11.84 12.45 11.5 13C11.147 13.571 12.025 14 13.548 14C15.465 14 16.058 13.593 15.658 12.551C15.267 11.533 15.582 11.286 16.715 11.721C17.789 12.133 18.087 11.949 17.605 11.17C17.207 10.526 16.475 10 15.977 10C15.479 10 13.214 8.088 10.944 5.75C8.673 3.412 7.109 2.063 7.467 2.75ZM0.667 3.667C0.3 4.033 0 5.233 0 6.333C0 8.841 1.322 7.663 1.52 4.98C1.681 2.788 1.628 2.706 0.667 3.667ZM35.459 5.067C35.096 5.653 35.014 6.348 35.276 6.61C35.538 6.872 36.019 6.392 36.345 5.543C37.021 3.781 36.445 3.471 35.459 5.067ZM42.459 5.067C42.096 5.653 42.014 6.348 42.276 6.61C42.538 6.872 43.019 6.392 43.345 5.543C44.021 3.781 43.445 3.471 42.459 5.067ZM31.667 7.667C31.3 8.033 31 9.213 31 10.289C31 11.914 31.254 12.034 32.5 11C33.325 10.315 34 9.135 34 8.378C34 6.92 32.783 6.55 31.667 7.667ZM20.75 10.748C19.788 10.967 19 11.59 19 12.132C19 12.674 19.419 12.859 19.931 12.543C20.443 12.226 21.144 12.425 21.49 12.984C21.835 13.543 23.216 14 24.559 14C25.902 14 27 14.375 27 14.833C27 16.225 29.877 15.764 30.446 14.281C30.775 13.422 30.544 13.164 29.837 13.601C29.21 13.988 28.09 13.476 27.348 12.462C26.607 11.447 26 10.945 26 11.344C26 11.744 25.212 11.683 24.25 11.21C23.288 10.737 21.712 10.529 20.75 10.748ZM3.356 14.208C1.453 16.77 1.802 21.429 3.997 22.783C5.732 23.852 6.332 23.81 7.61 22.533C9.727 20.416 10.959 20.615 10.5 23C10.051 25.33 10.79 25.475 13.322 23.555C15.084 22.219 15.084 22.161 13.322 21.761C12.32 21.534 14.579 21.303 18.342 21.248C22.106 21.193 25.443 20.89 25.759 20.574C26.075 20.258 23.333 20 19.667 20C16 20 13 19.628 13 19.173C13 18.718 14.35 18.545 16 18.787C17.801 19.051 19 18.782 19 18.113C19 17.501 19.113 16.7 19.25 16.333C19.387 15.966 18.532 15.594 17.348 15.507C15.925 15.402 15.37 15.801 15.71 16.686C16.055 17.585 15.698 17.821 14.617 17.407C13.734 17.068 13.26 16.388 13.565 15.895C13.869 15.403 13.674 15 13.132 15C12.59 15 11.941 15.788 11.689 16.75C11.327 18.136 11.208 18.057 11.116 16.367C11.049 15.135 10.154 14.012 8.999 13.71C7.898 13.422 7.249 13.595 7.558 14.093C8.33 15.342 6.638 15.238 5.358 13.958C4.634 13.234 4.021 13.311 3.356 14.208ZM39.104 13.914C38.337 14.4 37.985 15.519 38.323 16.399C39.071 18.348 38.276 18.373 35 16.5C31.972 14.769 31 14.662 31 16.059C31 16.641 31.493 16.813 32.096 16.441C32.78 16.018 33.048 16.466 32.808 17.632C32.596 18.659 31.658 19.438 30.722 19.363C29.787 19.288 29.244 19.587 29.517 20.027C29.79 20.468 29.447 21.098 28.756 21.426C28.065 21.754 28.512 21.834 29.75 21.605C31.12 21.351 32 21.683 32 22.455C32 23.268 31.103 23.551 29.5 23.245C27.745 22.909 27 23.208 27 24.245C27 25.961 32.016 25.442 33.219 23.601C33.734 22.814 34.53 22.866 36.01 23.784C37.149 24.49 38.42 24.859 38.833 24.603C39.247 24.347 39.688 25.49 39.814 27.141C39.981 29.334 39.699 29.944 38.771 29.4C38.072 28.991 38.321 29.593 39.324 30.738C40.534 32.12 43.343 33.203 47.677 33.957C53.268 34.931 54.556 34.866 56.635 33.503C59.099 31.889 58.937 29.426 56.431 30.388C55.679 30.677 54.83 30.533 54.543 30.07C54.257 29.606 52.33 28.932 50.261 28.573C41.274 27.01 39.013 24.179 40.214 15.993C40.456 14.347 40.619 13.007 40.577 13.015C40.535 13.024 39.872 13.428 39.104 13.914ZM20.638 17.5C20.308 18.36 20.618 19 21.365 19C22.081 19 22.667 18.325 22.667 17.5C22.667 16.675 22.34 16 21.94 16C21.541 16 20.955 16.675 20.638 17.5ZM20.559 23.096C21.101 23.972 20.824 24.147 19.623 23.686C18.251 23.159 18.103 23.362 18.865 24.724C19.549 25.946 19.352 26.777 18.156 27.711C16.8 28.77 16.781 28.908 18.05 28.472C19.104 28.11 20.131 29.052 21.255 31.409L22.91 34.88L18.799 33.429C16.538 32.631 14.514 32.153 14.301 32.366C14.088 32.578 14.693 34.385 15.645 36.381C16.836 38.879 17.624 39.619 18.172 38.755C18.611 38.065 18.976 37.967 18.985 38.537C19.005 39.917 22.785 40.156 23.605 38.83C24.046 38.116 24.451 38.112 24.887 38.817C25.241 39.39 26.032 38.772 26.668 37.424C27.667 35.306 27.571 35 25.906 35C23.619 35 23.444 33.707 25.5 32C28.33 29.651 26.886 25.875 22.125 23.176C20.371 22.181 19.982 22.161 20.559 23.096ZM6.51 27.016C6.856 27.575 7.557 27.774 8.069 27.457C9.456 26.6 9.198 26 7.441 26C6.584 26 6.165 26.457 6.51 27.016ZM2 28.448C2 28.798 2.459 29.628 3.02 30.292C7.7 35.836 8.82 37.483 8.386 38.184C7.451 39.697 6.858 43.488 6.341 51.25C5.9 57.878 6.055 59 7.413 59C8.314 59 9 58.166 9 57.071C9 56.011 9.634 54.509 10.409 53.734C11.324 52.819 11.505 51.828 10.925 50.912C9.472 48.618 9.854 47.387 12.376 46.238C16.016 44.58 14.669 40.88 7.877 33.873C4.645 30.539 2 28.097 2 28.448ZM28.603 29.833C28.32 30.292 28.723 30.667 29.5 30.667C30.277 30.667 30.68 30.292 30.397 29.833C30.114 29.375 29.71 29 29.5 29C29.29 29 28.886 29.375 28.603 29.833ZM37.089 33.393C35.6 35.186 36.59 37.323 40.739 41.269C42.835 43.264 45.417 44.35 49.97 45.152C56.066 46.225 56.361 46.18 58.233 43.883C59.3 42.572 59.84 42.132 59.432 42.905C58.943 43.831 59.084 44.066 59.845 43.595C61.76 42.412 61.143 40.729 59 41.29C57.9 41.577 57 41.484 57 41.083C57 40.681 54.222 39.836 50.827 39.205C46.239 38.352 43.841 37.269 41.485 34.986C38.756 32.34 38.146 32.119 37.089 33.393ZM17.561 41.772C16.849 42.484 18.149 45 19.229 45C19.815 45 19.718 44.365 19.001 43.501C17.928 42.209 18.172 42.084 20.757 42.601C22.407 42.931 23.992 42.819 24.279 42.351C24.796 41.509 18.377 40.956 17.561 41.772ZM10.333 56.456C10.333 57.257 10.716 57.676 11.183 57.387C11.65 57.098 11.774 56.443 11.457 55.931C10.649 54.623 10.333 54.77 10.333 56.456Z" fill="#B92844"/>
<path fill-rule="evenodd" clip-rule="evenodd" d="M0.158 6C0.158 7.375 0.385 7.938 0.662 7.25C0.94 6.563 0.94 5.438 0.662 4.75C0.385 4.063 0.158 4.625 0.158 6ZM31.603 7.833C31.32 8.292 31.723 8.667 32.5 8.667C33.277 8.667 33.68 8.292 33.397 7.833C33.114 7.375 32.71 7 32.5 7C32.29 7 31.886 7.375 31.603 7.833ZM23.671 12.416C23.248 13.516 23.639 14 24.95 14C25.987 14 27.661 14.259 28.668 14.576C30.212 15.061 30.186 14.952 28.5 13.886C27.4 13.19 26.325 12.745 26.112 12.896C25.898 13.047 25.398 12.645 25.001 12.002C24.491 11.176 24.1 11.298 23.671 12.416ZM13 13C11.718 13.828 11.754 13.972 13.25 13.985C14.212 13.993 15 13.55 15 13C15 11.78 14.887 11.78 13 13ZM2.753 14.75C2.552 15.163 2.266 16.962 2.118 18.75C1.894 21.459 2.195 22 3.925 22C5.626 22 6 21.375 6 18.531C6 15.707 5.691 15.181 4.336 15.701C3.217 16.131 2.909 15.957 3.395 15.17C3.793 14.526 3.893 14 3.618 14C3.343 14 2.954 14.337 2.753 14.75ZM12 16.393C12 19.005 18.379 20.06 19.322 17.603C19.665 16.709 19.017 16.045 17.52 15.759C15.851 15.44 15.331 15.699 15.703 16.667C16.055 17.586 15.705 17.824 14.617 17.407C13.734 17.068 13.26 16.388 13.565 15.895C13.869 15.403 13.641 15 13.059 15C12.477 15 12 15.627 12 16.393ZM20.638 17.5C20.308 18.36 20.618 19 21.365 19C22.081 19 22.667 18.325 22.667 17.5C22.667 16.675 22.34 16 21.94 16C21.541 16 20.955 16.675 20.638 17.5ZM37.111 18.204C38.3 19.173 38.494 20.135 37.853 21.869C37.165 23.728 37.285 24.105 38.427 23.666C39.221 23.362 40.089 23.65 40.356 24.306C40.731 25.227 40.86 25.227 40.921 24.309C40.964 23.654 40.57 22.852 40.044 22.527C39.518 22.202 39.328 21.31 39.621 20.545C39.933 19.732 39.188 18.683 37.828 18.022C35.853 17.061 35.745 17.089 37.111 18.204ZM10.25 20.689C11.213 20.941 12.787 20.941 13.75 20.689C14.712 20.438 13.925 20.232 12 20.232C10.075 20.232 9.287 20.438 10.25 20.689ZM20.25 20.689C21.212 20.941 22.788 20.941 23.75 20.689C24.712 20.438 23.925 20.232 22 20.232C20.075 20.232 19.288 20.438 20.25 20.689ZM18 23.378C18 23.585 18.788 24.373 19.75 25.128C21.336 26.371 21.371 26.336 20.128 24.75C18.821 23.084 18 22.555 18 23.378ZM40.359 28.476C38.924 31.571 40.022 32.618 45.5 33.372C47.7 33.674 48.712 33.682 47.75 33.388C46.788 33.094 46 32.018 46 30.998C46 29.195 43.547 25.992 42.179 26.008C41.805 26.012 40.987 27.123 40.359 28.476ZM21 28.826C21 30.022 21.337 30.947 21.75 30.882C23.755 30.565 25.054 31.103 24.49 32.016C24.144 32.575 23.443 32.774 22.931 32.457C22.419 32.141 22 32.359 22 32.941C22 34.414 23.536 34.264 24.865 32.663C25.714 31.64 25.389 30.775 23.488 28.988L21 26.651V28.826ZM2 28.448C2 28.798 2.459 29.628 3.02 30.292C7.7 35.836 8.82 37.483 8.386 38.184C7.451 39.697 6.858 43.488 6.341 51.25C5.9 57.878 6.055 59 7.413 59C8.314 59 9 58.166 9 57.071C9 56.011 9.634 54.509 10.409 53.734C11.324 52.819 11.505 51.828 10.925 50.912C9.472 48.618 9.854 47.387 12.376 46.238C16.016 44.58 14.669 40.88 7.877 33.873C4.645 30.539 2 28.097 2 28.448ZM47.813 28.683C48.534 28.972 49.397 28.936 49.729 28.604C50.061 28.272 49.471 28.036 48.417 28.079C47.252 28.127 47.015 28.364 47.813 28.683ZM57.325 30.658C57.687 31.02 57.424 32.032 56.741 32.908C55.645 34.314 55.703 34.341 57.239 33.137C58.803 31.91 58.825 30 57.274 30C56.94 30 56.963 30.296 57.325 30.658ZM37.089 33.393C34.717 36.251 41.322 43.622 47.036 44.492C48.941 44.782 49.938 44.753 49.25 44.426C48.563 44.1 48 42.732 48 41.385C48 39.954 47.273 38.682 46.25 38.324C45.288 37.987 43.109 36.406 41.408 34.812C38.74 32.312 38.148 32.117 37.089 33.393ZM16.595 33.847C16.274 34.366 16.721 35.063 17.588 35.395C19.953 36.303 21 36.13 21 34.833C21 34.192 20.704 33.963 20.342 34.325C19.98 34.687 19.12 34.515 18.431 33.943C17.663 33.305 16.952 33.268 16.595 33.847ZM51.75 34.662C52.438 34.94 53.563 34.94 54.25 34.662C54.938 34.385 54.375 34.158 53 34.158C51.625 34.158 51.063 34.385 51.75 34.662ZM23.5 36C23.16 36.55 23.359 37 23.941 37C24.523 37 25 36.55 25 36C25 35.45 24.802 35 24.559 35C24.316 35 23.84 35.45 23.5 36ZM49.813 39.683C50.534 39.972 51.397 39.936 51.729 39.604C52.061 39.272 51.471 39.036 50.417 39.079C49.252 39.127 49.015 39.364 49.813 39.683ZM17.736 41.598C16.89 42.444 18.012 45 19.229 45C19.868 45 19.831 44.502 19.131 43.658C18.519 42.92 18.313 42.02 18.675 41.658C19.037 41.296 19.108 41 18.833 41C18.558 41 18.064 41.269 17.736 41.598ZM59.333 42.456C59.333 43.257 59.708 43.68 60.167 43.397C60.625 43.114 61 42.459 61 41.941C61 41.423 60.625 41 60.167 41C59.708 41 59.333 41.655 59.333 42.456ZM20.813 42.683C21.534 42.972 22.397 42.936 22.729 42.604C23.061 42.272 22.471 42.036 21.417 42.079C20.252 42.127 20.015 42.364 20.813 42.683ZM53.269 45.693C54.242 45.947 55.592 45.93 56.269 45.656C56.946 45.382 56.15 45.175 54.5 45.195C52.85 45.215 52.296 45.439 53.269 45.693ZM10.333 56.456C10.333 57.257 10.716 57.676 11.183 57.387C11.65 57.098 11.774 56.443 11.457 55.931C10.649 54.623 10.333 54.77 10.333 56.456Z" fill="#9C0121"/>
<path fill-rule="evenodd" clip-rule="evenodd" d="M0.158 6C0.158 7.375 0.385 7.938 0.662 7.25C0.94 6.563 0.94 5.438 0.662 4.75C0.385 4.063 0.158 4.625 0.158 6ZM31.603 7.833C31.32 8.292 31.723 8.667 32.5 8.667C33.277 8.667 33.68 8.292 33.397 7.833C33.114 7.375 32.71 7 32.5 7C32.29 7 31.886 7.375 31.603 7.833ZM23.671 12.416C23.248 13.516 23.639 14 24.95 14C25.987 14 27.661 14.239 28.668 14.531C29.676 14.823 29.375 14.498 28 13.809C26.625 13.119 25.225 12.168 24.889 11.694C24.553 11.22 24.005 11.545 23.671 12.416ZM13 13C12.099 13.582 11.975 13.975 12.691 13.985C13.346 13.993 14.16 13.55 14.5 13C15.267 11.758 14.921 11.758 13 13ZM2.223 17.572C2.113 18.907 2.19 20 2.395 20C3.138 20 3.793 15.99 3.118 15.573C2.737 15.337 2.334 16.237 2.223 17.572ZM12 16.393C12 19.005 18.379 20.06 19.322 17.603C19.665 16.709 19.017 16.045 17.52 15.759C15.851 15.44 15.331 15.699 15.703 16.667C16.055 17.586 15.705 17.824 14.617 17.407C13.734 17.068 13.26 16.388 13.565 15.895C13.869 15.403 13.641 15 13.059 15C12.477 15 12 15.627 12 16.393ZM20.638 17.5C20.308 18.36 20.618 19 21.365 19C22.081 19 22.667 18.325 22.667 17.5C22.667 16.675 22.34 16 21.94 16C21.541 16 20.955 16.675 20.638 17.5ZM11.269 20.693C12.242 20.947 13.592 20.93 14.269 20.656C14.946 20.382 14.15 20.175 12.5 20.195C10.85 20.215 10.296 20.439 11.269 20.693ZM20.269 20.693C21.242 20.947 22.592 20.93 23.269 20.656C23.946 20.382 23.15 20.175 21.5 20.195C19.85 20.215 19.296 20.439 20.269 20.693ZM18 23.378C18 23.585 18.788 24.373 19.75 25.128C21.336 26.371 21.371 26.336 20.128 24.75C18.821 23.084 18 22.555 18 23.378ZM2 28.448C2 28.798 2.459 29.628 3.02 30.292C7.7 35.836 8.82 37.483 8.386 38.184C7.451 39.697 6.858 43.488 6.341 51.25C5.9 57.878 6.055 59 7.413 59C8.314 59 9 58.166 9 57.071C9 56.011 9.634 54.509 10.409 53.734C11.324 52.819 11.505 51.828 10.925 50.912C9.472 48.618 9.854 47.387 12.376 46.238C16.016 44.58 14.669 40.88 7.877 33.873C4.645 30.539 2 28.097 2 28.448ZM47.813 28.683C48.534 28.972 49.397 28.936 49.729 28.604C50.061 28.272 49.471 28.036 48.417 28.079C47.252 28.127 47.015 28.364 47.813 28.683ZM24.225 31.176C24.376 31.904 23.938 32.388 23.25 32.25C22.563 32.112 22 32.45 22 33C22 34.447 23.567 34.227 24.926 32.589C25.747 31.599 25.777 30.98 25.024 30.515C24.433 30.15 24.074 30.447 24.225 31.176ZM57.325 30.658C57.687 31.02 57.424 32.032 56.741 32.908C55.645 34.314 55.703 34.341 57.239 33.137C58.803 31.91 58.825 30 57.274 30C56.94 30 56.963 30.296 57.325 30.658ZM40.733 32.124C41.412 32.808 42.219 33.115 42.526 32.807C42.834 32.499 42.279 31.94 41.293 31.564C39.868 31.022 39.753 31.136 40.733 32.124ZM41 35.5C42.292 36.875 43.574 38 43.849 38C44.124 38 43.292 36.875 42 35.5C40.708 34.125 39.426 33 39.151 33C38.876 33 39.708 34.125 41 35.5ZM45.813 33.683C46.534 33.972 47.397 33.936 47.729 33.604C48.061 33.272 47.471 33.036 46.417 33.079C45.252 33.127 45.015 33.364 45.813 33.683ZM51.75 34.662C52.438 34.94 53.563 34.94 54.25 34.662C54.938 34.385 54.375 34.158 53 34.158C51.625 34.158 51.063 34.385 51.75 34.662ZM17.736 41.598C16.89 42.444 18.012 45 19.229 45C19.868 45 19.831 44.502 19.131 43.658C18.519 42.92 18.313 42.02 18.675 41.658C19.037 41.296 19.108 41 18.833 41C18.558 41 18.064 41.269 17.736 41.598ZM59.333 42.456C59.333 43.257 59.708 43.68 60.167 43.397C60.625 43.114 61 42.459 61 41.941C61 41.423 60.625 41 60.167 41C59.708 41 59.333 41.655 59.333 42.456ZM20.813 42.683C21.534 42.972 22.397 42.936 22.729 42.604C23.061 42.272 22.471 42.036 21.417 42.079C20.252 42.127 20.015 42.364 20.813 42.683ZM46.813 44.683C47.534 44.972 48.397 44.936 48.729 44.604C49.061 44.272 48.471 44.036 47.417 44.079C46.252 44.127 46.015 44.364 46.813 44.683ZM53.269 45.693C54.242 45.947 55.592 45.93 56.269 45.656C56.946 45.382 56.15 45.175 54.5 45.195C52.85 45.215 52.296 45.439 53.269 45.693ZM10.333 56.456C10.333 57.257 10.716 57.676 11.183 57.387C11.65 57.098 11.774 56.443 11.457 55.931C10.649 54.623 10.333 54.77 10.333 56.456Z" fill="#FEFEFE"/>
<path fill-rule="evenodd" clip-rule="evenodd" d="M23.671 12.416C23.248 13.516 23.639 14 24.95 14C25.987 14 27.661 14.239 28.668 14.531C29.676 14.823 29.375 14.498 28 13.809C26.625 13.119 25.225 12.168 24.889 11.694C24.553 11.22 24.005 11.545 23.671 12.416ZM13 13C12.099 13.582 11.975 13.975 12.691 13.985C13.346 13.993 14.16 13.55 14.5 13C15.267 11.758 14.921 11.758 13 13ZM12 16.5C12 17.325 12.375 18 12.833 18C13.292 18 13.667 17.325 13.667 16.5C13.667 15.675 13.292 15 12.833 15C12.375 15 12 15.675 12 16.5ZM15.429 17.15C15.429 18.259 16.143 19 17.214 19C18.196 19 19 18.377 19 17.617C19 16.856 18.196 16.023 17.214 15.766C15.975 15.442 15.429 15.866 15.429 17.15ZM2.345 17.543C2.019 18.392 1.976 19.31 2.249 19.583C2.523 19.856 2.986 19.161 3.279 18.04C3.903 15.657 3.21 15.289 2.345 17.543ZM21 17.5C21 18.325 21.375 19 21.833 19C22.292 19 22.667 18.325 22.667 17.5C22.667 16.675 22.292 16 21.833 16C21.375 16 21 16.675 21 17.5ZM11.269 20.693C12.242 20.947 13.592 20.93 14.269 20.656C14.946 20.382 14.15 20.175 12.5 20.195C10.85 20.215 10.296 20.439 11.269 20.693ZM20.269 20.693C21.242 20.947 22.592 20.93 23.269 20.656C23.946 20.382 23.15 20.175 21.5 20.195C19.85 20.215 19.296 20.439 20.269 20.693ZM18 23.378C18 23.585 18.788 24.373 19.75 25.128C21.336 26.371 21.371 26.336 20.128 24.75C18.821 23.084 18 22.555 18 23.378ZM47.813 28.683C48.534 28.972 49.397 28.936 49.729 28.604C50.061 28.272 49.471 28.036 48.417 28.079C47.252 28.127 47.015 28.364 47.813 28.683ZM24.225 31.176C24.376 31.904 23.938 32.388 23.25 32.25C22.563 32.112 22 32.45 22 33C22 34.447 23.567 34.227 24.926 32.589C25.747 31.599 25.777 30.98 25.024 30.515C24.433 30.15 24.074 30.447 24.225 31.176ZM57.325 30.658C57.687 31.02 57.424 32.032 56.741 32.908C55.645 34.314 55.703 34.341 57.239 33.137C58.803 31.91 58.825 30 57.274 30C56.94 30 56.963 30.296 57.325 30.658ZM40.733 32.124C41.412 32.808 42.219 33.115 42.526 32.807C42.834 32.499 42.279 31.94 41.293 31.564C39.868 31.022 39.753 31.136 40.733 32.124ZM41 35.5C42.292 36.875 43.574 38 43.849 38C44.124 38 43.292 36.875 42 35.5C40.708 34.125 39.426 33 39.151 33C38.876 33 39.708 34.125 41 35.5ZM45.813 33.683C46.534 33.972 47.397 33.936 47.729 33.604C48.061 33.272 47.471 33.036 46.417 33.079C45.252 33.127 45.015 33.364 45.813 33.683ZM51.75 34.662C52.438 34.94 53.563 34.94 54.25 34.662C54.938 34.385 54.375 34.158 53 34.158C51.625 34.158 51.063 34.385 51.75 34.662ZM59.333 42.456C59.333 43.257 59.708 43.68 60.167 43.397C60.625 43.114 61 42.459 61 41.941C61 41.423 60.625 41 60.167 41C59.708 41 59.333 41.655 59.333 42.456ZM20.813 42.683C21.534 42.972 22.397 42.936 22.729 42.604C23.061 42.272 22.471 42.036 21.417 42.079C20.252 42.127 20.015 42.364 20.813 42.683ZM46.813 44.683C47.534 44.972 48.397 44.936 48.729 44.604C49.061 44.272 48.471 44.036 47.417 44.079C46.252 44.127 46.015 44.364 46.813 44.683ZM53.269 45.693C54.242 45.947 55.592 45.93 56.269 45.656C56.946 45.382 56.15 45.175 54.5 45.195C52.85 45.215 52.296 45.439 53.269 45.693Z" fill="black"/>
</svg>
