<?xml version="1.0" encoding="UTF-8"?>
<svg version="1.1" xmlns="http://www.w3.org/2000/svg" width="64" height="64">
<path d="M0 0 C21.12 0 42.24 0 64 0 C64 21.12 64 42.24 64 64 C42.88 64 21.76 64 0 64 C0 42.88 0 21.76 0 0 Z " fill="#FBFBFB" transform="translate(0,0)"/>
<path d="M0 0 C0.82757813 0.00644531 1.65515625 0.01289063 2.5078125 0.01953125 C4.875 0.1875 4.875 0.1875 6.76171875 0.66796875 C10.77739783 1.65518745 14.9581607 1.64985484 19.07421875 1.90625 C21.875 2.1875 21.875 2.1875 22.875 3.1875 C23.01615161 5.85808851 22.91747107 8.51182238 22.875 11.1875 C21.885 11.5175 20.895 11.8475 19.875 12.1875 C19.875 12.8475 19.875 13.5075 19.875 14.1875 C18.44486572 14.0781311 18.44486572 14.0781311 16.98583984 13.96655273 C9.70434662 13.44242021 2.46576 13.10293292 -4.8359375 13.16015625 C-5.54993713 13.16566498 -6.26393677 13.17117371 -6.99957275 13.17684937 C-9.9178183 13.20437533 -12.83585229 13.24014426 -15.75390625 13.28344727 C-17.92709137 13.31344667 -20.10011326 13.33131273 -22.2734375 13.34765625 C-24.17875244 13.37291382 -24.17875244 13.37291382 -26.12255859 13.39868164 C-29.125 13.1875 -29.125 13.1875 -31.125 11.1875 C-31.35546875 9.05859375 -31.35546875 9.05859375 -31.3125 6.625 C-31.30605469 5.81933594 -31.29960937 5.01367188 -31.29296875 4.18359375 C-31.125 2.1875 -31.125 2.1875 -30.125 1.1875 C-28.77585606 1.1951624 -27.42694907 1.27192906 -26.08203125 1.37890625 C-25.25509766 1.43626953 -24.42816406 1.49363281 -23.57617188 1.55273438 C-21.8361814 1.68281508 -20.09657211 1.81811452 -18.35742188 1.95898438 C-11.78517021 2.40120084 -6.41274235 -0.11056452 0 0 Z " fill="#9F4B4C" transform="translate(36.125,24.8125)"/>
<path d="M0 0 C2.53608759 0.06571723 5.03426922 0.19259976 7.5625 0.375 C8.28888672 0.42390381 9.01527344 0.47280762 9.76367188 0.52319336 C14.53548254 0.85754108 19.26512122 1.30949684 24 2 C24.73080266 3.97746603 25.39421747 5.98072489 26 8 C25.67 8.66 25.34 9.32 25 10 C27.64 10 30.28 10 33 10 C33 10.33 33 10.66 33 11 C28.31860746 11.02465288 23.63725241 11.04283739 18.95581055 11.05493164 C17.36205386 11.05997157 15.76830181 11.0668035 14.17456055 11.07543945 C11.88849747 11.08751999 9.60249533 11.09323155 7.31640625 11.09765625 C6.59973282 11.10281754 5.88305939 11.10797882 5.14466858 11.11329651 C3.42936328 11.11349263 1.71418734 11.06192007 0 11 C-1 10 -1 10 -1.1328125 7.96875 C-1.13023437 7.1540625 -1.12765625 6.339375 -1.125 5.5 C-1.12757813 4.6853125 -1.13015625 3.870625 -1.1328125 3.03125 C-1 1 -1 1 0 0 Z " fill="#534949" transform="translate(6,26)"/>
<path d="M0 0 C4.62 0 9.24 0 14 0 C14 2.64 14 5.28 14 8 C13.01 8.33 12.02 8.66 11 9 C11 9.66 11 10.32 11 11 C10.04802734 10.9285376 9.09605469 10.8570752 8.11523438 10.78344727 C-2.10425622 10.05735901 -12.25801266 9.87709211 -22.5 9.9375 C-24.01692557 9.94253584 -25.5338528 9.94709499 -27.05078125 9.95117188 C-30.7005564 9.96198764 -34.35026679 9.97913154 -38 10 C-38 9.67 -38 9.34 -38 9 C-27.44 9 -16.88 9 -6 9 C-6 8.34 -6 7.68 -6 7 C-1.71 7 2.58 7 7 7 C7 7.99 7 8.98 7 10 C7.66 10 8.32 10 9 10 C9 9.34 9 8.68 9 8 C9.99 7.67 10.98 7.34 12 7 C12 5.35 12 3.7 12 2 C10.4221875 2.0309375 10.4221875 2.0309375 8.8125 2.0625 C5.67295096 2.01103198 3.03116604 1.73482813 0 1 C0 0.67 0 0.34 0 0 Z " fill="#897070" transform="translate(45,28)"/>
<path d="M0 0 C5.28 0 10.56 0 16 0 C15.67 1.32 15.34 2.64 15 4 C14.34 4 13.68 4 13 4 C13 4.66 13 5.32 13 6 C13.66 6.33 14.32 6.66 15 7 C10.0555171 8.36399528 5.09959475 8 0 8 C0 5.36 0 2.72 0 0 Z " fill="#232323" transform="translate(14,28)"/>
<path d="M0 0 C1.81242052 -0.02687279 3.62495233 -0.04633715 5.4375 -0.0625 C6.44683594 -0.07410156 7.45617188 -0.08570312 8.49609375 -0.09765625 C11 0 11 0 12 1 C12.04063832 2.66617115 12.042721 4.33388095 12 6 C10.68 6.33 9.36 6.66 8 7 C8 7.66 8 8.32 8 9 C7.34 9 6.68 9 6 9 C6 8.01 6 7.02 6 6 C4.7934375 6.2784375 4.7934375 6.2784375 3.5625 6.5625 C2.716875 6.706875 1.87125 6.85125 1 7 C0 6 0 6 -0.0625 2.9375 C-0.041875 1.968125 -0.02125 0.99875 0 0 Z " fill="#E12C2D" transform="translate(46,29)"/>
<path d="M0 0 C0.99 0 1.98 0 3 0 C3 2.64 3 5.28 3 8 C-1.29 8 -5.58 8 -10 8 C-10 6.02 -10 4.04 -10 2 C-2.25 1.875 -2.25 1.875 0 3 C0 2.01 0 1.02 0 0 Z " fill="#CD2B2C" transform="translate(41,28)"/>
<path d="M0 0 C5.28 0.33 10.56 0.66 16 1 C16 1.33 16 1.66 16 2 C13.36 2 10.72 2 8 2 C8 4.64 8 7.28 8 10 C7.34 10 6.68 10 6 10 C6 8.68 6 7.36 6 6 C5.34 6 4.68 6 4 6 C3.67 6.66 3.34 7.32 3 8 C3 6.02 3 4.04 3 2 C3.33 2.66 3.66 3.32 4 4 C4.66 4 5.32 4 6 4 C5.67 3.34 5.34 2.68 5 2 C2.47266765 1.34444881 2.47266765 1.34444881 0 1 C0 0.67 0 0.34 0 0 Z " fill="#5A5A5A" transform="translate(6,26)"/>
<path d="M0 0 C1.66611905 -0.042721 3.33382885 -0.04063832 5 0 C6 1 6 1 6.0625 3.5625 C6.041875 4.366875 6.02125 5.17125 6 6 C4.35 6.66 2.7 7.32 1 8 C0.67 5.36 0.34 2.72 0 0 Z " fill="#E62224" transform="translate(52,29)"/>
<path d="M0 0 C2.0625 0.4375 2.0625 0.4375 4 1 C4 1.66 4 2.32 4 3 C3.34 3 2.68 3 2 3 C2 3.66 2 4.32 2 5 C2.66 5 3.32 5 4 5 C4 6.32 4 7.64 4 9 C2.35 8.67 0.7 8.34 -1 8 C-1.04241723 5.66705225 -1.04092937 3.33297433 -1 1 C-0.67 0.67 -0.34 0.34 0 0 Z " fill="#181818" transform="translate(8,27)"/>
<path d="M0 0 C0.99 0.33 1.98 0.66 3 1 C3 3.31 3 5.62 3 8 C5.64 8.33 8.28 8.66 11 9 C11 9.33 11 9.66 11 10 C9.35425434 10.02688151 7.70838587 10.04634123 6.0625 10.0625 C5.14597656 10.07410156 4.22945312 10.08570313 3.28515625 10.09765625 C1 10 1 10 0 9 C-0.07179964 7.48071962 -0.08392007 5.95832518 -0.0625 4.4375 C-0.05347656 3.61121094 -0.04445313 2.78492188 -0.03515625 1.93359375 C-0.02355469 1.29550781 -0.01195312 0.65742188 0 0 Z " fill="#464646" transform="translate(5,27)"/>
<path d="M0 0 C0 0.33 0 0.66 0 1 C-2.97 1 -5.94 1 -9 1 C-9.33 2.98 -9.66 4.96 -10 7 C-10.33 5.68 -10.66 4.36 -11 3 C-12.65 3 -14.3 3 -16 3 C-16 2.67 -16 2.34 -16 2 C-10.60539047 -0.27141454 -5.73842251 -0.20413361 0 0 Z " fill="#968585" transform="translate(41,25)"/>
</svg>
