<svg width="32" height="66" viewBox="0 0 64 66" fill="none" xmlns="http://www.w3.org/2000/svg">
<path fill-rule="evenodd" clip-rule="evenodd" d="M18.31 2.946C12.524 5.573 5.896 11.936 2.961 17.683C0.809 21.896 0.5 23.817 0.5 33C0.5 42.183 0.809 44.104 2.961 48.317C5.896 54.064 12.524 60.427 18.31 63.054C24.228 65.741 39.772 65.741 45.69 63.054C51.476 60.427 58.104 54.064 61.039 48.317C63.191 44.104 63.5 42.183 63.5 33C63.5 23.817 63.191 21.896 61.039 17.683C58.104 11.936 51.476 5.573 45.69 2.946C39.772 0.259002 24.228 0.259002 18.31 2.946Z" fill="#FF00FF"/>
<path fill-rule="evenodd" clip-rule="evenodd" d="M17.207 3.584C11.612 6.372 5.319 12.807 2.352 18.775C0.903 21.689 0.5 24.787 0.5 33C0.5 42.183 0.809 44.104 2.961 48.317C5.896 54.064 12.524 60.427 18.31 63.054C24.228 65.741 39.772 65.741 45.69 63.054C51.476 60.427 58.104 54.064 61.039 48.317C63.191 44.104 63.5 42.183 63.5 33C63.5 24.787 63.097 21.689 61.648 18.775C58.681 12.807 52.388 6.372 46.793 3.584C39.215 -0.192001 24.785 -0.192001 17.207 3.584Z" fill="#C7B2F8"/>
<path fill-rule="evenodd" clip-rule="evenodd" d="M17.207 3.584C11.612 6.372 5.319 12.807 2.352 18.775C0.903 21.689 0.5 24.787 0.5 33C0.5 42.183 0.809 44.104 2.961 48.317C5.896 54.064 12.524 60.427 18.31 63.054C24.228 65.741 39.772 65.741 45.69 63.054C51.476 60.427 58.104 54.064 61.039 48.317C63.191 44.104 63.5 42.183 63.5 33C63.5 24.787 63.097 21.689 61.648 18.775C58.681 12.807 52.388 6.372 46.793 3.584C39.215 -0.192001 24.785 -0.192001 17.207 3.584ZM33.729 16.604C33.397 16.936 32.534 16.972 31.813 16.683C31.015 16.364 31.252 16.127 32.417 16.079C33.471 16.036 34.061 16.272 33.729 16.604ZM22 20.378C22 20.585 21.212 21.373 20.25 22.128C18.664 23.371 18.629 23.336 19.872 21.75C21.179 20.084 22 19.555 22 20.378ZM45.128 21.75C46.371 23.336 46.336 23.371 44.75 22.128C43.788 21.373 43 20.585 43 20.378C43 19.555 43.821 20.084 45.128 21.75ZM21 44.5C22.292 45.875 23.124 47 22.849 47C22.574 47 21.292 45.875 20 44.5C18.708 43.125 17.876 42 18.151 42C18.426 42 19.708 43.125 21 44.5ZM47 42.326C47 42.505 45.763 43.742 44.25 45.076L41.5 47.5L43.924 44.75C46.19 42.18 47 41.541 47 42.326ZM17 48.5C18.292 49.875 19.124 51 18.849 51C18.574 51 17.292 49.875 16 48.5C14.708 47.125 13.876 46 14.151 46C14.426 46 15.708 47.125 17 48.5ZM51 46.326C51 46.505 49.763 47.742 48.25 49.076L45.5 51.5L47.924 48.75C50.19 46.18 51 45.541 51 46.326ZM31.729 49.604C31.397 49.936 30.534 49.972 29.813 49.683C29.015 49.364 29.252 49.127 30.417 49.079C31.471 49.036 32.061 49.272 31.729 49.604ZM35.729 49.604C35.397 49.936 34.534 49.972 33.813 49.683C33.015 49.364 33.252 49.127 34.417 49.079C35.471 49.036 36.061 49.272 35.729 49.604Z" fill="#B69BF6"/>
<path fill-rule="evenodd" clip-rule="evenodd" d="M17.207 3.584C11.612 6.372 5.319 12.807 2.352 18.775C0.903 21.689 0.5 24.787 0.5 33C0.5 42.183 0.809 44.104 2.961 48.317C5.896 54.064 12.524 60.427 18.31 63.054C24.228 65.741 39.772 65.741 45.69 63.054C51.476 60.427 58.104 54.064 61.039 48.317C63.191 44.104 63.5 42.183 63.5 33C63.5 24.787 63.097 21.689 61.648 18.775C58.681 12.807 52.388 6.372 46.793 3.584C39.215 -0.192001 24.785 -0.192001 17.207 3.584ZM33.729 10.604C33.397 10.936 32.534 10.972 31.813 10.683C31.015 10.364 31.252 10.127 32.417 10.079C33.471 10.036 34.061 10.272 33.729 10.604ZM20 14.378C20 14.585 19.212 15.373 18.25 16.128C16.664 17.371 16.629 17.336 17.872 15.75C19.179 14.084 20 13.555 20 14.378ZM47.128 15.75C48.371 17.336 48.336 17.371 46.75 16.128C45.788 15.373 45 14.585 45 14.378C45 13.555 45.821 14.084 47.128 15.75ZM33.729 16.604C33.397 16.936 32.534 16.972 31.813 16.683C31.015 16.364 31.252 16.127 32.417 16.079C33.471 16.036 34.061 16.272 33.729 16.604ZM16 18.378C16 18.585 15.213 19.373 14.25 20.128C12.664 21.371 12.629 21.336 13.872 19.75C15.179 18.084 16 17.555 16 18.378ZM51.128 19.75C52.371 21.336 52.336 21.371 50.75 20.128C49.788 19.373 49 18.585 49 18.378C49 17.555 49.821 18.084 51.128 19.75ZM22 20.378C22 20.585 21.212 21.373 20.25 22.128C18.664 23.371 18.629 23.336 19.872 21.75C21.179 20.084 22 19.555 22 20.378ZM45.128 21.75C46.371 23.336 46.336 23.371 44.75 22.128C43.788 21.373 43 20.585 43 20.378C43 19.555 43.821 20.084 45.128 21.75ZM48 27.378C48 27.585 47.212 28.373 46.25 29.128C44.664 30.371 44.629 30.336 45.872 28.75C47.179 27.084 48 26.555 48 27.378ZM44.345 32.543C44.019 33.392 43.538 33.872 43.276 33.61C43.014 33.348 43.096 32.653 43.459 32.067C44.445 30.471 45.021 30.781 44.345 32.543ZM51.128 34.75C52.371 36.336 52.336 36.371 50.75 35.128C49.084 33.821 48.555 33 49.378 33C49.585 33 50.373 33.788 51.128 34.75ZM46.128 36.75C47.371 38.336 47.336 38.371 45.75 37.128C44.788 36.373 44 35.585 44 35.378C44 34.555 44.821 35.084 46.128 36.75ZM40.5 39.262L43.5 39.7L40.372 39.85C38.442 39.943 36.72 39.33 35.872 38.25C34.678 36.727 34.695 36.651 36 37.662C36.825 38.3 38.85 39.02 40.5 39.262ZM21 44.5C22.292 45.875 23.124 47 22.849 47C22.574 47 21.292 45.875 20 44.5C18.708 43.125 17.876 42 18.151 42C18.426 42 19.708 43.125 21 44.5ZM47 42.326C47 42.505 45.763 43.742 44.25 45.076L41.5 47.5L43.924 44.75C46.19 42.18 47 41.541 47 42.326ZM16.563 48.25L19.5 51.5L16.25 48.563C14.462 46.948 13 45.485 13 45.313C13 44.54 13.825 45.221 16.563 48.25ZM52 45.313C52 45.485 50.538 46.948 48.75 48.563L45.5 51.5L48.437 48.25C51.175 45.221 52 44.54 52 45.313ZM34.762 49.687C33.806 49.937 32.006 49.946 30.762 49.707C29.518 49.468 30.3 49.263 32.5 49.252C34.7 49.241 35.718 49.437 34.762 49.687Z" fill="#8080FF"/>
<path fill-rule="evenodd" clip-rule="evenodd" d="M22 1.614C16.359 3.74 13.066 5.841 9.041 9.882C1.807 17.146 0.5 20.684 0.5 33C0.5 42.217 0.804 44.096 2.991 48.377C5.715 53.711 12.357 60.117 17.94 62.793C22.972 65.206 41.028 65.206 46.06 62.793C51.643 60.117 58.285 53.711 61.009 48.377C63.196 44.096 63.5 42.217 63.5 33C63.5 20.705 62.19 17.143 55.02 9.944C48.046 2.94 45.052 1.748 33.5 1.373C28 1.194 22.825 1.303 22 1.614ZM34.269 10.656C33.592 10.93 32.242 10.947 31.269 10.693C30.296 10.439 30.85 10.215 32.5 10.195C34.15 10.175 34.946 10.382 34.269 10.656ZM27.729 11.604C27.397 11.936 26.534 11.972 25.813 11.683C25.015 11.364 25.252 11.127 26.417 11.079C27.471 11.036 28.061 11.272 27.729 11.604ZM39.729 11.604C39.397 11.936 38.534 11.972 37.813 11.683C37.015 11.364 37.252 11.127 38.417 11.079C39.471 11.036 40.061 11.272 39.729 11.604ZM20 14.378C20 14.585 19.212 15.373 18.25 16.128C16.664 17.371 16.629 17.336 17.872 15.75C19.179 14.084 20 13.555 20 14.378ZM47.128 15.75C48.371 17.336 48.336 17.371 46.75 16.128C45.788 15.373 45 14.585 45 14.378C45 13.555 45.821 14.084 47.128 15.75ZM33.729 16.604C33.397 16.936 32.534 16.972 31.813 16.683C31.015 16.364 31.252 16.127 32.417 16.079C33.471 16.036 34.061 16.272 33.729 16.604ZM16 18.378C16 18.585 15.213 19.373 14.25 20.128C12.664 21.371 12.629 21.336 13.872 19.75C15.179 18.084 16 17.555 16 18.378ZM41.493 18.989C41.843 19.555 41.442 19.723 40.552 19.382C38.82 18.717 38.503 18 39.941 18C40.459 18 41.157 18.445 41.493 18.989ZM51.128 19.75C52.371 21.336 52.336 21.371 50.75 20.128C49.788 19.373 49 18.585 49 18.378C49 17.555 49.821 18.084 51.128 19.75ZM22 20.378C22 20.585 21.212 21.373 20.25 22.128C18.664 23.371 18.629 23.336 19.872 21.75C21.179 20.084 22 19.555 22 20.378ZM45.128 21.75C46.371 23.336 46.336 23.371 44.75 22.128C43.788 21.373 43 20.585 43 20.378C43 19.555 43.821 20.084 45.128 21.75ZM10.683 28.188C10.364 28.985 10.127 28.748 10.079 27.583C10.036 26.529 10.272 25.939 10.604 26.271C10.936 26.603 10.972 27.466 10.683 28.188ZM48 27.378C48 27.585 47.212 28.373 46.25 29.128C44.664 30.371 44.629 30.336 45.872 28.75C47.179 27.084 48 26.555 48 27.378ZM53 29.378C53 29.585 52.212 30.373 51.25 31.128C49.664 32.371 49.629 32.336 50.872 30.75C52.179 29.084 53 28.555 53 29.378ZM40.345 32.543C40.019 33.392 39.538 33.872 39.276 33.61C39.014 33.348 39.096 32.653 39.459 32.067C40.445 30.471 41.021 30.781 40.345 32.543ZM44.345 32.543C44.019 33.392 43.538 33.872 43.276 33.61C43.014 33.348 43.096 32.653 43.459 32.067C44.445 30.471 45.021 30.781 44.345 32.543ZM51.128 34.75C52.371 36.336 52.336 36.371 50.75 35.128C49.084 33.821 48.555 33 49.378 33C49.585 33 50.373 33.788 51.128 34.75ZM42.128 36.75C43.371 38.336 43.336 38.371 41.75 37.128C40.788 36.373 40 35.585 40 35.378C40 34.555 40.821 35.084 42.128 36.75ZM46.128 36.75C47.371 38.336 47.336 38.371 45.75 37.128C44.788 36.373 44 35.585 44 35.378C44 34.555 44.821 35.084 46.128 36.75ZM10.683 39.188C10.364 39.985 10.127 39.748 10.079 38.583C10.036 37.529 10.272 36.939 10.604 37.271C10.936 37.603 10.972 38.466 10.683 39.188ZM40.5 39.262L43.5 39.7L40.372 39.85C38.442 39.943 36.72 39.33 35.872 38.25C34.678 36.727 34.695 36.651 36 37.662C36.825 38.3 38.85 39.02 40.5 39.262ZM21 44.5C22.292 45.875 23.124 47 22.849 47C22.574 47 21.292 45.875 20 44.5C18.708 43.125 17.876 42 18.151 42C18.426 42 19.708 43.125 21 44.5ZM47 42.326C47 42.505 45.763 43.742 44.25 45.076L41.5 47.5L43.924 44.75C46.19 42.18 47 41.541 47 42.326ZM17 48.5C18.866 50.425 20.167 52 19.892 52C19.617 52 17.866 50.425 16 48.5C14.134 46.575 12.833 45 13.108 45C13.383 45 15.134 46.575 17 48.5ZM52 45.304C52 45.471 50.313 47.158 48.25 49.054L44.5 52.5L47.946 48.75C51.154 45.26 52 44.54 52 45.304ZM34.762 49.687C33.806 49.937 32.006 49.946 30.762 49.707C29.518 49.468 30.3 49.263 32.5 49.252C34.7 49.241 35.718 49.437 34.762 49.687Z" fill="#936AF2"/>
<path fill-rule="evenodd" clip-rule="evenodd" d="M22 1.614C16.359 3.74 13.066 5.841 9.041 9.882C1.807 17.146 0.5 20.684 0.5 33C0.5 42.217 0.804 44.096 2.991 48.377C5.715 53.711 12.357 60.117 17.94 62.793C22.972 65.206 41.028 65.206 46.06 62.793C51.643 60.117 58.285 53.711 61.009 48.377C63.196 44.096 63.5 42.217 63.5 33C63.5 20.705 62.19 17.143 55.02 9.944C48.046 2.94 45.052 1.748 33.5 1.373C28 1.194 22.825 1.303 22 1.614ZM44.435 13.409C48.728 15.925 53 20.661 53 22.904C53 25.151 46.505 23.948 42.572 20.972C40.411 19.337 39.019 18 39.477 18C39.936 18 41.786 19.125 43.589 20.5C46.695 22.869 52 23.935 52 22.19C52 20.843 45.827 14.966 42.561 13.204C40.541 12.114 37.047 11.544 32.287 11.526C28.264 11.512 25.832 11.172 26.787 10.759C30.212 9.278 39.857 10.726 44.435 13.409ZM20.409 14.588C14.168 18.635 9.99 26.026 10.006 32.993C10.024 41.125 16.632 50.565 24.323 53.447C27.274 54.553 27.62 54.844 25.5 54.441C15.46 52.529 7.284 39.45 9.498 28.842C10.584 23.643 14.704 17.273 18.767 14.512C20.801 13.131 22.9 12 23.432 12C23.965 12 22.604 13.165 20.409 14.588ZM33.729 16.604C33.397 16.936 32.534 16.972 31.813 16.683C31.015 16.364 31.252 16.127 32.417 16.079C33.471 16.036 34.061 16.272 33.729 16.604ZM27.315 18.102C25.564 18.609 22.756 20.397 21.077 22.077C19.397 23.756 17.609 26.564 17.102 28.315C16.577 30.131 16.142 30.691 16.09 29.618C15.868 24.989 23.855 16.937 28.5 17.107C29.767 17.154 29.333 17.518 27.315 18.102ZM37.729 17.604C37.397 17.936 36.534 17.972 35.813 17.683C35.015 17.364 35.252 17.127 36.417 17.079C37.471 17.036 38.061 17.272 37.729 17.604ZM43.304 26.637C43.654 26.988 42.997 28.6 41.844 30.22L39.746 33.165L41.873 36.042C44.653 39.803 44.593 40 40.674 40C37.545 40 34.699 37.968 32.563 34.207C31.312 32.004 36.668 26 39.884 26C41.415 26 42.953 26.287 43.304 26.637ZM54 27.092C54 27.693 53.105 29.322 52.012 30.712L50.024 33.24L52.512 36.196C53.88 37.823 55 39.492 55 39.905C55 40.319 53.668 42.647 52.04 45.079C48.718 50.041 43.977 53.584 39.5 54.45C37.177 54.899 37.398 54.682 40.481 53.487C44.976 51.746 50.444 46.887 52.649 42.677C54.031 40.037 53.963 39.64 51.59 36.529L49.053 33.203L51.026 30.694C53.57 27.46 53.513 27 50.573 27C48.298 27 44 31.038 44 33.175C44 33.673 44.986 35.415 46.192 37.045L48.383 40.01L46.383 42.755C43.885 46.184 36.572 50 32.5 50C25.504 50 15.927 42.203 16.044 36.602C16.073 35.228 16.552 35.802 17.429 38.259C18.167 40.327 19.385 42.761 20.135 43.668C22.074 46.01 28.962 48.956 32.5 48.956C36.769 48.956 43.543 45.627 45.571 42.531C47.232 39.997 47.215 39.783 45.149 36.988C42.52 33.431 42.52 33.512 45.082 29.368C46.788 26.607 47.779 26 50.582 26C52.462 26 54 26.492 54 27.092ZM34.938 30.087L32.74 33.174L34.719 35.837C36.002 37.564 37.834 38.612 39.93 38.819L43.163 39.139L40.954 36.152L38.746 33.165L40.941 30.083L43.136 27H40.136C37.925 27 36.558 27.812 34.938 30.087ZM34.762 55.687C33.806 55.937 32.006 55.946 30.762 55.707C29.518 55.468 30.3 55.263 32.5 55.252C34.7 55.241 35.718 55.437 34.762 55.687Z" fill="#7540EF"/>
<path fill-rule="evenodd" clip-rule="evenodd" d="M25.648 11.967C16.831 14.794 9.986 23.995 10.006 32.993C10.031 44.395 20.896 55 32.552 55C40.121 55 49.069 49.513 52.649 42.677C54.031 40.037 53.963 39.64 51.59 36.529L49.053 33.203L51.026 30.694C53.57 27.46 53.513 27 50.573 27C48.298 27 44 31.038 44 33.175C44 33.673 44.967 35.389 46.149 36.988C48.206 39.77 48.225 40.007 46.595 42.495C42.922 48.101 34.571 51.087 28.039 49.13C20.148 46.766 15.769 40.967 15.769 32.881C15.769 18.755 31.878 11.663 43.683 20.592C46.72 22.889 52 23.903 52 22.19C52 20.829 45.803 14.949 42.649 13.318C39.056 11.46 29.579 10.707 25.648 11.967ZM34.938 30.087L32.74 33.174L34.719 35.837C36.002 37.564 37.834 38.612 39.93 38.819L43.163 39.139L40.954 36.152L38.746 33.165L40.941 30.083L43.136 27H40.136C37.925 27 36.558 27.812 34.938 30.087Z" fill="#0000FF"/>
<path fill-rule="evenodd" clip-rule="evenodd" d="M25.648 11.967C16.831 14.794 9.986 23.995 10.006 32.993C10.031 44.395 20.896 55 32.552 55C40.121 55 49.069 49.513 52.649 42.677C54.031 40.037 53.963 39.64 51.59 36.529L49.053 33.203L51.026 30.694C53.57 27.46 53.513 27 50.573 27C48.298 27 44 31.038 44 33.175C44 33.673 44.967 35.389 46.149 36.988C48.206 39.77 48.225 40.007 46.595 42.495C42.922 48.101 34.571 51.087 28.039 49.13C20.148 46.766 15.769 40.967 15.769 32.881C15.769 18.755 31.878 11.663 43.683 20.592C46.72 22.889 52 23.903 52 22.19C52 20.829 45.803 14.949 42.649 13.318C39.056 11.46 29.579 10.707 25.648 11.967ZM34.938 30.087L32.74 33.174L34.719 35.837C36.002 37.564 37.834 38.612 39.93 38.819L43.163 39.139L40.954 36.152L38.746 33.165L40.941 30.083L43.136 27H40.136C37.925 27 36.558 27.812 34.938 30.087Z" fill="white"/>
</svg>
