<svg width="63" height="62" viewBox="0 0 63 62" fill="none" xmlns="http://www.w3.org/2000/svg">
<path fill-rule="evenodd" clip-rule="evenodd" d="M20.703 1.383C7.915 6.144 0 17.457 0 30.973C0 42.663 6.006 52.918 16.141 58.532C21.028 61.238 22.337 61.5 31 61.5C39.663 61.5 40.972 61.238 45.859 58.532C67.397 46.602 67.404 15.246 45.871 3.526C41.482 1.138 39.09 0.558998 32.512 0.292998C27.317 0.0829981 23.165 0.466998 20.703 1.383Z" fill="#002020"/>
<path fill-rule="evenodd" clip-rule="evenodd" d="M40.059 3.389C39.311 4.788 38.286 5.677 37.782 5.365C37.278 5.054 36.62 5.739 36.319 6.888C36.018 8.037 35.421 8.76 34.991 8.494C34.561 8.229 33.952 8.684 33.636 9.506C33.321 10.328 32.486 10.993 31.781 10.985C30.786 10.973 30.799 10.78 31.842 10.119C32.821 9.498 32.481 9.134 30.583 8.771C28.548 8.382 28.214 8.553 29.048 9.558C29.878 10.558 29.624 10.714 27.901 10.264C26.244 9.831 25.891 10.015 26.498 10.997C27.035 11.865 26.919 12.068 26.156 11.597C24.92 10.833 20.636 13.303 21.573 14.24C21.881 14.548 21.316 14.732 20.317 14.65C19.286 14.565 18.619 15.073 18.775 15.824C18.926 16.553 18.601 16.871 18.052 16.532C16.351 15.481 9.651 14.918 6.66 15.575C2.365 16.518 0.0650027 22.459 0.308003 31.979C0.622003 44.297 6.266 53.364 17.278 59.241C20.805 61.124 23.063 61.495 31 61.497C39.665 61.5 40.971 61.239 45.859 58.532C64.071 48.445 67.553 23.846 52.869 9.012C50.322 6.439 47.622 4.316 46.869 4.294C44.194 4.217 42.493 3.482 41.96 2.173C41.593 1.272 40.984 1.661 40.059 3.389ZM9 31C9 31.55 8.802 32 8.559 32C8.316 32 7.84 31.55 7.5 31C7.16 30.45 7.359 30 7.941 30C8.523 30 9 30.45 9 31ZM55 31C55 31.55 54.55 32 54 32C53.45 32 53 31.55 53 31C53 30.45 53.45 30 54 30C54.55 30 55 30.45 55 31Z" fill="#040909"/>
<path fill-rule="evenodd" clip-rule="evenodd" d="M19.828 15.909C10.394 22.219 7 25.405 7 27.952C7 30.368 8.259 30.598 10 28.5C10.685 27.675 12.48 27 13.99 27C15.583 27 19.552 25.111 23.446 22.5C27.137 20.025 30.543 18 31.015 18C31.487 18 34.831 20.025 38.447 22.5C42.477 25.259 46.129 27 47.887 27C49.465 27 51.315 27.675 52 28.5C53.696 30.543 55 30.385 55 28.136C55 25.613 51.061 21.854 42.223 15.943C32.33 9.326 29.676 9.322 19.828 15.909ZM7 33.349C7 36.026 11.228 40.159 20.497 46.542C26.785 50.873 31.527 51.8 36.118 49.595C41.776 46.878 52.987 38.122 54.191 35.48C55.667 32.241 54.708 31.391 51.842 33.398C50.584 34.279 48.51 35 47.233 35C45.956 35 41.954 37.025 38.34 39.5C34.725 41.975 31.398 44 30.947 44C30.496 44 27.169 41.975 23.553 39.5C19.938 37.025 15.921 35 14.625 35C13.33 35 11.084 34.067 9.635 32.927L7 30.855V33.349Z" fill="#4DC05E"/>
<path fill-rule="evenodd" clip-rule="evenodd" d="M19.828 15.909C10.394 22.219 7 25.405 7 27.952C7 30.368 8.259 30.598 10 28.5C10.685 27.675 12.48 27 13.99 27C15.583 27 19.552 25.111 23.446 22.5C27.137 20.025 30.543 18 31.015 18C31.487 18 34.831 20.025 38.447 22.5C42.477 25.259 46.129 27 47.887 27C49.465 27 51.315 27.675 52 28.5C53.696 30.543 55 30.385 55 28.136C55 25.613 51.061 21.854 42.223 15.943C32.33 9.326 29.676 9.322 19.828 15.909ZM30 14.423C30 16.274 28.455 17.926 23.452 21.423C19.72 24.032 15.776 26 14.281 26C12.838 26 10.835 26.745 9.829 27.655C8.306 29.033 8 29.064 8 27.842C8 25.896 12.004 22.245 20.313 16.616C28.063 11.366 30 10.927 30 14.423ZM41.687 16.616C49.996 22.245 54 25.896 54 27.842C54 29.064 53.694 29.033 52.171 27.655C51.165 26.745 49.162 26 47.719 26C46.224 26 42.28 24.032 38.548 21.423C33.545 17.926 32 16.274 32 14.423C32 10.927 33.937 11.366 41.687 16.616ZM7 33.24C7 34.555 8.235 36.777 9.75 38.189C13.698 41.868 25.039 50 26.222 50C26.773 50 24.811 48.362 21.862 46.36C13.244 40.51 8 35.977 8 34.376C8 33.077 8.284 33.085 10.223 34.443C11.445 35.299 13.463 36 14.707 36C15.951 36 19.869 37.913 23.414 40.25C28.591 43.663 29.874 45.025 29.93 47.167C29.968 48.633 29.437 50.099 28.75 50.423C28.063 50.748 29.384 50.832 31.687 50.61C34.684 50.322 37.99 48.744 43.325 45.056C47.423 42.223 51.614 38.936 52.638 37.752C53.662 36.568 52.475 37.194 50 39.143C43.464 44.29 36.832 48.622 34.25 49.43C32.274 50.049 32.009 49.792 32.07 47.317C32.128 44.989 33.259 43.762 38.586 40.25C42.131 37.912 46.049 36 47.293 36C48.537 36 50.518 35.326 51.695 34.501C53.343 33.347 53.95 33.289 54.338 34.251C54.639 34.996 54.874 34.793 54.921 33.75C55.016 31.638 54.138 31.581 51.559 33.532C50.491 34.339 48.559 35 47.265 35C45.97 35 41.954 37.025 38.34 39.5C34.725 41.975 31.398 44 30.947 44C30.496 44 27.169 41.975 23.553 39.5C19.938 37.025 15.921 35 14.625 35C13.33 35 11.084 34.067 9.635 32.927L7 30.855V33.24Z" fill="#41A34E"/>
<path fill-rule="evenodd" clip-rule="evenodd" d="M30 14.433C30 16.933 29.481 18.03 28.09 18.471C27.04 18.805 25.607 19.769 24.905 20.614C24.101 21.583 24.992 21.347 27.315 19.977L31 17.802L34.685 19.977C37.008 21.347 37.899 21.583 37.095 20.614C36.393 19.769 34.96 18.805 33.91 18.471C32.519 18.03 32 16.933 32 14.433C32 12.545 31.55 11 31 11C30.45 11 30 12.545 30 14.433ZM41 15.364C41 15.639 42.35 16.825 44 18C45.65 19.175 47 19.911 47 19.636C47 19.361 45.65 18.175 44 17C42.35 15.825 41 15.089 41 15.364ZM15.872 18.75C14.629 20.336 14.664 20.371 16.25 19.128C17.916 17.821 18.445 17 17.622 17C17.415 17 16.627 17.788 15.872 18.75ZM11.872 21.75C10.629 23.336 10.664 23.371 12.25 22.128C13.916 20.821 14.445 20 13.622 20C13.415 20 12.627 20.788 11.872 21.75ZM48 20.378C48 20.585 48.788 21.373 49.75 22.128C51.336 23.371 51.371 23.336 50.128 21.75C48.821 20.084 48 19.555 48 20.378ZM41.5 24.412C43.435 26.075 45.565 26.939 47.5 26.845L50.5 26.7L47.531 26.263C45.899 26.022 43.199 24.927 41.531 23.83L38.5 21.835L41.5 24.412ZM18.45 24.923C17.927 25.431 16.15 26.038 14.5 26.273L11.5 26.7L14.628 26.85C16.352 26.933 18.314 26.327 19 25.5C20.363 23.858 19.97 23.446 18.45 24.923ZM53.767 27.249C54.306 29.342 54.212 29.395 52.423 28C50.644 26.613 50.603 26.631 51.872 28.25C52.627 29.212 53.64 30 54.122 30C55.281 30 55.257 26.277 54.093 25.558C53.595 25.249 53.448 26.01 53.767 27.249ZM7.116 27.75C6.977 30.443 8.243 30.653 10.128 28.25C11.356 26.683 11.326 26.636 9.834 27.803C8.421 28.907 8.096 28.831 7.7 27.303C7.331 25.881 7.207 25.976 7.116 27.75ZM7 33.394C7 34.763 7.408 36.134 7.907 36.442C8.405 36.751 8.552 35.99 8.233 34.751C7.713 32.734 7.829 32.645 9.351 33.893C10.284 34.658 11.218 35.108 11.426 34.893C11.634 34.677 10.723 33.691 9.402 32.703C7.028 30.928 7 30.936 7 33.394ZM51.559 33.532C50.491 34.339 50.127 35 50.75 35C51.373 35 52.19 34.502 52.566 33.893C53.043 33.122 53.51 33.197 54.11 34.143C54.779 35.2 54.973 35.113 54.985 33.75C55.003 31.638 54.135 31.583 51.559 33.532ZM13 35.387C13 35.599 14.326 35.968 15.947 36.206C17.568 36.443 18.667 36.27 18.388 35.819C17.893 35.017 13 34.625 13 35.387ZM43.612 35.819C43.333 36.27 44.432 36.443 46.053 36.206C47.674 35.968 49 35.599 49 35.387C49 34.625 44.107 35.017 43.612 35.819ZM50.924 38.75L48.5 41.5L51.25 39.076C53.82 36.81 54.459 36 53.674 36C53.495 36 52.258 37.237 50.924 38.75ZM20 37.378C20 37.585 20.788 38.373 21.75 39.128C23.336 40.371 23.371 40.336 22.128 38.75C20.821 37.084 20 36.555 20 37.378ZM38.5 39.588L35.5 42.165L38.75 40.015C40.538 38.832 42 37.669 42 37.432C42 36.683 41.577 36.944 38.5 39.588ZM10 38.378C10 38.585 10.787 39.373 11.75 40.128C13.336 41.371 13.371 41.336 12.128 39.75C10.821 38.084 10 37.555 10 38.378ZM14 41.378C14 41.585 14.787 42.373 15.75 43.128C17.336 44.371 17.371 44.336 16.128 42.75C14.821 41.084 14 40.555 14 41.378ZM45.872 42.75C44.629 44.336 44.664 44.371 46.25 43.128C47.212 42.373 48 41.585 48 41.378C48 40.555 47.179 41.084 45.872 42.75ZM28.25 43.305C30.267 44.936 30.598 49.592 28.75 50.338C28.063 50.615 29.075 50.842 31 50.842C32.925 50.842 33.938 50.615 33.25 50.338C31.402 49.592 31.733 44.936 33.75 43.305C35.329 42.028 35.281 41.996 33.25 42.98C31.626 43.767 30.374 43.767 28.75 42.98C26.719 41.996 26.671 42.028 28.25 43.305ZM18 44.524C18 45.231 25.998 50.338 26.415 49.896C26.621 49.678 24.812 48.28 22.395 46.788C19.978 45.297 18 44.278 18 44.524ZM36 49C35.099 49.582 34.975 49.975 35.691 49.985C36.346 49.993 37.16 49.55 37.5 49C38.267 47.758 37.921 47.758 36 49Z" fill="#34813E"/>
<path fill-rule="evenodd" clip-rule="evenodd" d="M30 14.14C30 15.924 29.245 17.891 28.25 18.695C26.671 19.972 26.719 20.004 28.75 19.02C30.374 18.233 31.626 18.233 33.25 19.02C35.281 20.004 35.329 19.972 33.75 18.695C32.755 17.891 32 15.924 32 14.14C32 12.413 31.55 11 31 11C30.45 11 30 12.413 30 14.14ZM15.5 26L12.5 26.763L15.191 26.882C16.671 26.947 18.16 26.55 18.5 26C18.84 25.45 18.979 25.053 18.809 25.118C18.639 25.183 17.15 25.58 15.5 26ZM43.853 26.253C44.357 26.757 45.834 27.002 47.135 26.797C49.136 26.482 48.996 26.342 46.219 25.881C44.231 25.552 43.298 25.698 43.853 26.253ZM7.116 27.75C6.993 30.142 8.408 30.767 9.595 28.845C10.02 28.159 9.872 27.961 9.23 28.358C8.637 28.724 7.945 28.231 7.692 27.262C7.342 25.921 7.204 26.038 7.116 27.75ZM54.116 27.309C54.043 28.45 53.538 28.857 52.75 28.412C51.758 27.852 51.754 27.981 52.733 29.037C54.266 30.69 55.334 29.765 54.704 27.328C54.254 25.585 54.227 25.584 54.116 27.309ZM7 31.893C7 32.384 7.739 33.069 8.641 33.416C10.014 33.943 10.076 33.796 9.019 32.523C7.579 30.788 7 30.607 7 31.893ZM54.079 33.583C54.127 34.748 54.364 34.985 54.683 34.188C54.972 33.466 54.936 32.603 54.604 32.271C54.272 31.939 54.036 32.529 54.079 33.583ZM29.849 47.214C30.048 49.296 30.566 51 31 51C31.434 51 31.952 49.296 32.151 47.214C32.425 44.343 32.147 43.429 31 43.429C29.853 43.429 29.575 44.343 29.849 47.214Z" fill="#286234"/>
<path fill-rule="evenodd" clip-rule="evenodd" d="M29.849 14.786C29.575 17.657 29.853 18.571 31 18.571C32.147 18.571 32.425 17.657 32.151 14.786C31.686 9.905 30.314 9.905 29.849 14.786ZM15.813 26.683C16.534 26.972 17.397 26.936 17.729 26.604C18.061 26.272 17.471 26.036 16.417 26.079C15.252 26.127 15.015 26.364 15.813 26.683ZM44.813 26.683C45.534 26.972 46.397 26.936 46.729 26.604C47.061 26.272 46.471 26.036 45.417 26.079C44.252 26.127 44.015 26.364 44.813 26.683ZM29.849 47.214C30.048 49.296 30.566 51 31 51C31.434 51 31.952 49.296 32.151 47.214C32.425 44.343 32.147 43.429 31 43.429C29.853 43.429 29.575 44.343 29.849 47.214Z" fill="#1F4B2B"/>
<path fill-rule="evenodd" clip-rule="evenodd" d="M29.849 14.786C29.559 17.824 29.824 18.571 31.189 18.571C32.457 18.571 32.619 18.246 31.827 17.291C31.243 16.587 30.98 14.884 31.244 13.506C31.507 12.128 31.382 11 30.966 11C30.55 11 30.048 12.704 29.849 14.786ZM29.849 47.214C30.048 49.296 30.669 51 31.23 51C31.818 51 32.008 49.792 31.679 48.146C31.365 46.576 31.528 44.872 32.04 44.36C32.615 43.785 32.306 43.429 31.23 43.429C29.817 43.429 29.556 44.144 29.849 47.214Z" fill="#16371D"/>
</svg>
