<svg width="250" height="250" viewBox="0 0 250 250" fill="none" xmlns="http://www.w3.org/2000/svg">
<path fill-rule="evenodd" clip-rule="evenodd" d="M0 125V250H125H250V125V0H125H0V125Z" fill="#001D00"/>
<path fill-rule="evenodd" clip-rule="evenodd" d="M0 125V250H125H250V125V0H125H0V125ZM188.269 49.656C187.592 49.93 186.242 49.947 185.269 49.693C184.296 49.439 184.85 49.215 186.5 49.195C188.15 49.175 188.946 49.382 188.269 49.656ZM192.5 50C192.16 50.55 191.346 50.993 190.691 50.985C189.975 50.975 190.099 50.582 191 50C192.921 48.758 193.267 48.758 192.5 50ZM178.903 51.081C177.181 52.171 175 52.266 175.001 51.25C175.001 50.837 176.195 50.431 177.654 50.346C179.552 50.236 179.907 50.445 178.903 51.081ZM198.93 57.75C198.868 60.151 198.757 60.246 198.055 58.5C197.612 57.4 197.446 56.163 197.684 55.75C198.531 54.286 198.999 55.037 198.93 57.75ZM195 63C194.175 63.533 192.132 63.976 190.46 63.985C187.607 63.999 178.651 66.023 174.75 67.536C173.752 67.922 173 67.755 173 67.146C173 65.561 185.929 62.315 193 62.125C195.603 62.055 196.116 62.279 195 63ZM157 65.059C157 65.641 156.55 65.84 156 65.5C155.45 65.16 155 65.385 155 66C155 66.615 154.502 66.81 153.893 66.434C153.122 65.957 153.197 65.49 154.143 64.89C155.981 63.726 157 63.786 157 65.059ZM172 66.607C172 66.823 171.325 67 170.5 67C169.675 67 169 66.564 169 66.031C169 65.499 169.675 65.322 170.5 65.638C171.325 65.955 172 66.391 172 66.607ZM198.631 70.52C198.292 71.404 197.539 71.833 196.959 71.474C196.234 71.026 196.276 70.372 197.094 69.387C198.547 67.636 199.475 68.32 198.631 70.52ZM163.29 73.019C160.601 74.555 157.806 76.529 157.078 77.406C156.351 78.282 155.135 79 154.378 79C153.62 79 152.98 79.338 152.955 79.75C152.871 81.131 143 91.398 143 90.104C143 88.341 155.065 75.922 156.135 76.583C156.611 76.877 157 76.695 157 76.177C157 74.837 166.214 69.014 167.286 69.677C167.776 69.98 165.978 71.484 163.29 73.019ZM176.591 73.743C175.897 74.436 174 73.027 174 71.819C174 71.155 174.574 71.231 175.524 72.02C176.362 72.716 176.842 73.491 176.591 73.743ZM169.749 126.685C169.585 136.483 169.451 128.75 169.45 109.5C169.45 90.25 169.584 82.233 169.748 91.685C169.912 101.138 169.913 116.888 169.749 126.685ZM127.667 91.66C127.667 92.545 127.15 92.615 125.833 91.911C124.825 91.371 124 90.817 124 90.679C124 90.541 124.825 90.429 125.833 90.429C126.842 90.429 127.667 90.983 127.667 91.66ZM141.749 155.183C141.589 166.907 141.458 157.6 141.458 134.5C141.457 111.4 141.588 101.807 141.749 113.183C141.909 124.558 141.909 143.458 141.749 155.183ZM135.234 100.667C135.271 101.125 136.021 102.064 136.901 102.752C138.366 103.9 138.366 103.959 136.898 103.452C134.669 102.683 133.376 104.773 118.635 132.968C112.27 145.142 112.091 145.369 111.03 142.579C110.433 141.008 110.141 139.526 110.381 139.286C110.621 139.046 111.117 139.794 111.484 140.948C112.021 142.642 113.02 141.26 116.66 133.78C119.141 128.683 121.695 124.179 122.335 123.772C122.976 123.364 123.159 123.024 122.741 123.015C121.982 123 125.672 115.889 131.312 106.5C132.963 103.75 134.319 100.938 134.324 100.25C134.334 98.912 135.121 99.273 135.234 100.667ZM93.162 114.675C92.647 115.596 91.456 116.463 90.516 116.601C88.969 116.828 88.983 116.674 90.653 114.985C92.974 112.64 94.4 112.463 93.162 114.675ZM83.5 127C81.88 130.132 80.993 130.885 81.437 128.75C81.958 126.25 83.235 124 84.133 124C84.638 124 84.353 125.35 83.5 127ZM140.055 156.875C140.124 173.528 139.915 187.419 139.59 187.743C139.266 188.068 139 174.233 139 157C139 139.767 139.209 125.876 139.465 126.132C139.721 126.388 139.986 140.222 140.055 156.875ZM110.962 155.5C110.97 156.57 109.585 154.762 107.899 151.5C107.213 150.172 107.552 150.339 108.911 152C110.035 153.375 110.959 154.95 110.962 155.5ZM106.968 153.75C106.951 154.162 106.276 155.374 105.468 156.441C103.971 158.421 103.513 157.433 104.607 154.582C105.218 152.99 107.027 152.353 106.968 153.75ZM75.729 154.604C75.397 154.936 74.534 154.972 73.813 154.683C73.015 154.364 73.252 154.127 74.417 154.079C75.471 154.036 76.061 154.272 75.729 154.604ZM100.786 163.309C95.834 169.766 86.71 179 85.281 179C84.577 179 84 179.477 84 180.059C84 180.641 83.517 180.819 82.927 180.455C82.267 180.047 82.749 179.179 84.177 178.204C85.454 177.33 86.831 176.14 87.235 175.558C87.639 174.976 87.976 174.856 87.985 175.291C88 176.092 99.353 162.925 101.329 159.815C101.918 158.888 102.76 158.352 103.2 158.624C103.64 158.895 102.553 161.004 100.786 163.309ZM59.5 162C58.505 163.1 57.24 164 56.69 164C56.14 164 56.505 163.1 57.5 162C58.495 160.9 59.76 160 60.31 160C60.86 160 60.495 160.9 59.5 162ZM53.5 169.765C52.95 170.169 52.345 171.4 52.155 172.5C51.738 174.919 51.358 175.399 50.718 174.317C49.937 172.996 51.822 168.999 53.218 169.015C54.006 169.025 54.115 169.314 53.5 169.765ZM108.948 173.183C108.446 174.933 107.522 176.845 106.895 177.433C106.043 178.231 106.038 177.949 106.878 176.316C107.495 175.114 108 173.202 108 172.066C108 170.93 108.419 170 108.93 170C109.5 170 109.507 171.233 108.948 173.183ZM160 172C159.411 173.1 158.5 174 157.975 174C157.449 174 157.79 173.1 158.732 172C159.674 170.9 160.585 170 160.757 170C160.93 170 160.589 170.9 160 172ZM112 177.5C112 178.325 111.823 179 111.607 179C111.391 179 110.955 178.325 110.638 177.5C110.322 176.675 110.499 176 111.031 176C111.564 176 112 176.675 112 177.5ZM81.457 182.069C81.141 182.581 80.346 182.964 79.691 182.921C78.839 182.865 78.857 182.698 79.756 182.336C80.447 182.057 80.715 181.348 80.352 180.76C79.958 180.123 80.164 179.983 80.862 180.415C81.506 180.813 81.774 181.557 81.457 182.069ZM49.683 184.188C49.364 184.985 49.127 184.748 49.079 183.583C49.036 182.529 49.272 181.939 49.604 182.271C49.936 182.603 49.972 183.466 49.683 184.188ZM78.382 183.552C78.723 184.442 78.555 184.843 77.989 184.493C77.445 184.157 77 183.459 77 182.941C77 181.503 77.717 181.82 78.382 183.552ZM103.447 185.085C103.125 185.606 102.436 185.769 101.915 185.447C101.394 185.125 101.231 184.436 101.553 183.915C101.875 183.394 102.564 183.231 103.085 183.553C103.606 183.875 103.769 184.564 103.447 185.085ZM115.848 189.317C115.873 189.766 117.605 191.493 119.697 193.154C124.634 197.074 124.779 197.236 122.6 196.4C120.428 195.567 114 189.324 114 188.048C114 187.562 113.746 186.339 113.436 185.332C113.126 184.324 113.532 184.625 114.337 186C115.143 187.375 115.823 188.868 115.848 189.317ZM72 186.929C65.431 189.587 61 190.41 61 188.972C61 188.32 61.563 187.994 62.25 188.249C62.938 188.503 65.3 187.91 67.5 186.93C69.7 185.95 72.625 185.139 74 185.129C75.914 185.114 75.445 185.536 72 186.929ZM59 189.895C59 190.387 57.212 190.96 55.026 191.169C51.056 191.548 50.721 190.622 54.5 189.713C57.838 188.91 59 188.957 59 189.895ZM75 190.441C75 190.684 74.55 191.16 74 191.5C73.45 191.84 73 191.641 73 191.059C73 190.477 73.45 190 74 190C74.55 190 75 190.198 75 190.441ZM139.683 193.188C139.364 193.985 139.127 193.748 139.079 192.583C139.036 191.529 139.272 190.939 139.604 191.271C139.936 191.603 139.972 192.466 139.683 193.188ZM51 195.2C51 196.815 50.704 197.104 49.887 196.287C49.275 195.675 49.077 194.685 49.446 194.087C50.481 192.413 51 192.785 51 195.2ZM70.571 194.85C70.571 196.088 70.017 196.556 68.899 196.263C67.979 196.023 66.923 196.315 66.554 196.913C66.184 197.511 65.359 198 64.719 198C64.08 198 65.119 196.897 67.028 195.549C68.938 194.201 70.516 193.076 70.536 193.049C70.555 193.022 70.571 193.833 70.571 194.85ZM54.25 200.662C53.563 200.94 52.438 200.94 51.75 200.662C51.063 200.385 51.625 200.158 53 200.158C54.375 200.158 54.938 200.385 54.25 200.662Z" fill="#ACF601"/>
<path fill-rule="evenodd" clip-rule="evenodd" d="M0 125V250H125H250V125V0H125H0V125ZM187.5 50C185.566 50.831 185.571 50.862 187.673 50.93C190.215 51.012 195.778 55.42 197.123 58.418C198.021 60.42 198.04 60.414 197.622 58.251C197.383 57.014 197.63 55.729 198.171 55.395C198.751 55.036 199.02 55.945 198.827 57.613C198.507 60.379 198.311 60.463 189.5 61.599C184.55 62.237 179.375 63.235 178 63.817C174.547 65.276 175.423 65.228 183.5 63.517C191.327 61.86 197.454 61.529 195 62.897C194.175 63.357 190.981 64.014 187.901 64.357C184.822 64.701 180.364 65.666 177.995 66.502C173.672 68.027 171.278 67.701 174.029 65.961C175.285 65.167 175.261 65.028 173.863 65.015C172.821 65.006 172.07 63.93 171.794 62.053C171.557 60.432 171.73 59.333 172.181 59.612C172.631 59.89 173 59.454 173 58.642C173 57.831 172.662 56.978 172.25 56.747C171.838 56.517 172.011 56.445 172.635 56.588C173.26 56.732 174.751 55.721 175.95 54.342C177.219 52.883 178.751 52.074 179.617 52.406C180.459 52.729 180.838 52.547 180.491 51.985C180.153 51.439 178.78 51.268 177.439 51.605C176.097 51.941 175 51.782 175 51.25C175 50.701 177.2 50.456 180.085 50.683C183.448 50.949 184.952 50.731 184.526 50.042C184.135 49.409 184.984 49.028 186.691 49.07C189.162 49.132 189.259 49.244 187.5 50ZM192.5 50C192.16 50.55 191.346 50.993 190.691 50.985C189.975 50.975 190.099 50.582 191 50C192.921 48.758 193.267 48.758 192.5 50ZM165.582 64C169.857 64 168.425 67.244 162.736 70.449C159.856 72.071 157.05 73.271 156.5 73.116C155.95 72.96 155.775 73.108 156.111 73.445C156.448 73.781 153.955 76.856 150.573 80.278C147.191 83.7 146.353 84.719 148.712 82.542C154.6 77.107 154.03 79.291 147.81 86C145.005 89.025 142.966 90.767 143.277 89.871C143.589 88.976 143.477 86.616 143.029 84.628C142.556 82.533 142.589 81.246 143.107 81.566C143.598 81.87 144 81.39 144 80.5C144 79.532 143.536 79.168 142.845 79.595C142.124 80.041 141.963 79.869 142.415 79.138C142.813 78.494 143.634 78.274 144.239 78.648C144.954 79.09 145.109 78.727 144.681 77.612C144.319 76.668 144.421 76.142 144.907 76.442C145.805 76.997 147.469 74.182 147.134 72.676C147.033 72.222 147.351 72.099 147.842 72.402C149.049 73.148 152.199 69.552 151.252 68.509C150.838 68.052 151.082 68.015 151.794 68.426C153.226 69.252 156.009 67.394 155.985 65.628C155.976 64.962 155.617 65.056 155.11 65.857C154.581 66.691 154.012 66.828 153.631 66.212C153.29 65.66 153.76 64.922 154.676 64.571C155.591 64.22 156.617 64.381 156.956 64.929C157.294 65.476 158.606 65.654 159.87 65.324C161.647 64.859 161.866 64.506 160.835 63.767C159.853 63.064 159.985 62.969 161.332 63.406C162.339 63.733 164.252 64 165.582 64ZM198.382 65.552C198.723 66.442 198.555 66.843 197.989 66.493C197.445 66.157 197 66.505 197 67.267C197 68.028 195.889 69.695 194.531 70.971C193.173 72.247 192.273 73.633 192.532 74.052C192.791 74.471 192.095 74.576 190.987 74.286C189.606 73.925 189.081 74.191 189.321 75.129C189.514 75.883 189.483 76.162 189.253 75.75C189.022 75.338 187.273 75 185.367 75C181.63 75 177.134 73.072 175.068 70.583C173.974 69.263 174.207 68.867 176.641 67.913C179.265 66.885 192.27 64.344 196.143 64.103C197.047 64.046 198.054 64.698 198.382 65.552ZM172 66.607C172 66.823 171.325 67 170.5 67C169.675 67 169 66.564 169 66.031C169 65.499 169.675 65.322 170.5 65.638C171.325 65.955 172 66.391 172 66.607ZM198.631 70.52C198.292 71.404 197.539 71.833 196.959 71.474C196.234 71.026 196.276 70.372 197.094 69.387C198.547 67.636 199.475 68.32 198.631 70.52ZM163.847 72.699C161.461 74.054 158.943 75.632 158.254 76.204C157.439 76.881 157 76.894 157 76.241C157 74.853 166.185 68.996 167.291 69.68C167.784 69.984 166.234 71.343 163.847 72.699ZM176.591 73.743C175.897 74.436 174 73.027 174 71.819C174 71.155 174.574 71.231 175.524 72.02C176.362 72.716 176.842 73.491 176.591 73.743ZM167.959 116.589C167.896 141.113 167.586 160.92 167.271 160.604C166.64 159.973 163.943 164.614 163.554 167C163.419 167.825 162.79 168.5 162.155 168.5C161.52 168.5 161.076 168.725 161.169 169C161.511 170.011 158.897 174 157.893 174C157.323 174 157.586 173.271 158.476 172.381C161.112 169.746 159.509 169.715 155.66 172.327C153.694 173.661 152.307 174.974 152.577 175.244C152.848 175.515 151.816 175.535 150.285 175.29C148.01 174.925 147.775 175.058 149 176.016C150.276 177.013 150.226 177.1 148.668 176.594C147.661 176.267 145.973 176 144.918 176C143.068 176 142.992 174.752 142.769 140.75L142.539 105.5L142 141L141.461 176.5L141.399 134.5C141.364 111.4 141.635 95.2 142 98.5L142.664 104.5L142.832 98.859C142.979 93.929 143.476 92.641 146.781 88.642C152.115 82.187 164.656 72 167.269 72C167.711 72 168.021 92.065 167.959 116.589ZM169.749 126.685C169.585 136.483 169.451 128.75 169.45 109.5C169.45 90.25 169.584 82.233 169.748 91.685C169.912 101.138 169.913 116.888 169.749 126.685ZM156.457 78.069C156.141 78.581 155.178 79 154.319 79C153.047 79 152.986 78.722 153.991 77.511C155.282 75.955 157.459 76.448 156.457 78.069ZM118 89.094C116.825 89.926 117.09 90.062 119.22 89.723C120.716 89.484 121.742 89.608 121.501 89.998C121.26 90.388 122.195 91.223 123.578 91.854C126.904 93.369 127.803 93.308 125.624 91.714C123.972 90.507 123.985 90.429 125.834 90.429C127.18 90.429 127.695 90.989 127.462 92.2C127.274 93.174 128.026 94.605 129.133 95.381C130.24 96.156 131.239 97.4 131.351 98.145C131.464 98.89 131.91 100.066 132.341 100.757C132.8 101.491 132.324 103.154 131.197 104.757C130.135 106.266 125.568 114.588 121.048 123.25C116.527 131.912 112.642 139 112.414 139C112.186 139 112 127.78 112 114.066V89.133L114.75 88.716C116.263 88.487 117.95 88.239 118.5 88.165C119.05 88.091 118.825 88.509 118 89.094ZM135.401 100.595C135.346 101.093 136.021 102.064 136.901 102.752C138.346 103.885 138.348 103.952 136.912 103.458C135.116 102.839 132.401 106.586 126.977 117.173C125.097 120.842 123.216 123.633 122.798 123.375C122.064 122.922 125.142 116.799 131.201 106.659C133.386 103.002 133.824 101.493 132.991 100.489C132.137 99.46 132.296 99.22 133.694 99.426C134.687 99.571 135.455 100.098 135.401 100.595ZM137.955 154.25L138 199H135.582C134.252 199 132.339 199.267 131.332 199.594C129.808 200.089 129.752 200.007 131 199.11C132.307 198.169 132.286 198.029 130.832 198.015C129.914 198.007 128.378 197.699 127.418 197.33C126.134 196.837 125.888 197.01 126.49 197.985C127.039 198.872 126.923 199.07 126.138 198.585C125.494 198.187 125.208 197.473 125.501 196.998C125.795 196.523 124.647 195.316 122.95 194.317C119.146 192.077 114.257 184.889 113.388 180.257C113.004 178.205 112.443 177.282 112.009 177.985C111.486 178.831 111.105 178.717 110.671 177.584C110.336 176.713 110.521 176 111.081 176C111.741 176 111.994 170.744 111.8 161.093C111.635 152.895 111.75 146.342 112.055 146.532C112.36 146.722 114.05 144.092 115.809 140.688C121.738 129.221 130.617 112.531 133.067 108.249L135.5 103.999L136.705 106.749C137.583 108.755 137.922 121.619 137.955 154.25ZM108.208 130.523C108.369 140.596 108.338 148.675 108.141 148.476C107.943 148.277 105.192 152.026 102.028 156.807C96.723 164.823 87.535 175.002 83.632 177.186C82.145 178.018 82 176.194 82 156.631C82 144.824 81.699 134.378 81.33 133.418C80.873 132.227 81.032 131.902 81.83 132.395C82.522 132.822 83 132.514 83 131.641C83 130.828 83.286 129.339 83.635 128.332C84.19 126.728 84.074 126.749 82.698 128.5C81.65 129.833 81.222 130 81.412 129C81.926 126.304 83.195 124 84.166 124C84.69 124 84.787 124.563 84.383 125.25C83.978 125.938 85.7 124.241 88.21 121.48C90.719 118.719 93.957 115.826 95.405 115.051C97.318 114.027 97.691 113.417 96.769 112.822C96.07 112.371 97.031 112.297 98.905 112.657C100.96 113.052 102.079 112.936 101.726 112.365C101.385 111.814 102.556 111.583 104.528 111.813L107.916 112.209L108.208 130.523ZM93.162 114.675C92.647 115.596 91.456 116.463 90.516 116.601C88.969 116.828 88.983 116.674 90.653 114.985C92.974 112.64 94.4 112.463 93.162 114.675ZM122.987 124.25C122.98 124.388 120.538 129.225 117.56 135C112.216 145.365 112.132 145.463 111.045 142.611C110.439 141.023 110.141 139.526 110.381 139.286C110.621 139.046 111.12 139.801 111.489 140.965C112.032 142.676 113.04 141.256 116.762 133.54C119.293 128.293 121.732 124 122.182 124C122.632 124 122.994 124.112 122.987 124.25ZM140.055 156.875C140.124 173.528 139.915 187.419 139.59 187.743C139.266 188.068 139 174.233 139 157C139 139.767 139.209 125.876 139.465 126.132C139.721 126.388 139.986 140.222 140.055 156.875ZM110.962 155.5C110.97 156.57 109.585 154.762 107.899 151.5C107.213 150.172 107.552 150.339 108.911 152C110.035 153.375 110.959 154.95 110.962 155.5ZM107.393 154.582C107.727 155.452 108 159.277 108 163.082C108 166.887 108.419 170 108.93 170C110.105 170 108.476 175.952 106.895 177.433C106.043 178.231 106.038 177.949 106.878 176.316C107.495 175.114 107.968 173.314 107.93 172.316C107.858 170.466 104.843 177.469 104.729 179.75C104.695 180.437 104.446 180.779 104.175 180.509C103.543 179.877 101 181.97 101 183.122C101 183.605 101.338 183.947 101.75 183.882C103.431 183.616 104.082 184.058 103.47 185.049C103.027 185.765 102.376 185.727 101.411 184.926C99.224 183.111 96.497 185.652 98.238 187.883C99.309 189.255 99.273 189.332 98 188.389C96.896 187.571 95.768 187.586 93.726 188.449C92.201 189.093 91.233 189.9 91.575 190.242C91.918 190.584 91.141 190.631 89.849 190.346C87.903 189.915 87.757 190.029 89 191.008C90.278 192.014 90.229 192.101 88.668 191.594C87.661 191.267 85.748 191 84.418 191C82.221 191 82 190.591 82 186.531C82 183.461 81.609 182.158 80.75 182.367C80.063 182.535 79.84 182.483 80.256 182.251C80.672 182.019 80.698 181.305 80.314 180.665C79.93 180.024 80.4 180.136 81.358 180.914C82.873 182.143 83.318 182.111 84.764 180.664C85.823 179.606 85.986 179 85.214 179C84.546 179 84 179.477 84 180.059C84 180.641 83.493 180.805 82.873 180.421C82.155 179.978 82.701 179.145 84.373 178.131C85.818 177.254 87 176.164 87 175.709C87 175.254 87.472 175.174 88.049 175.53C88.765 175.973 88.727 176.624 87.926 177.589C85.136 180.951 88.007 178.543 93.034 173.304C96.04 170.172 97.784 168.143 96.908 168.796C96.032 169.449 94.948 169.649 94.498 169.241C94.048 168.834 93.96 168.994 94.304 169.597C94.648 170.2 93.595 171.972 91.964 173.534C87.405 177.903 88.449 175.358 93.75 169.182C96.362 166.138 99.444 162.383 100.597 160.837C101.75 159.292 102.977 158.31 103.323 158.656C104.141 159.474 107.009 157.091 106.968 155.628C106.951 155.007 106.276 155.374 105.468 156.441C104.661 157.509 104 157.883 104 157.273C104 155.465 105.154 153 106 153C106.432 153 107.059 153.712 107.393 154.582ZM77.012 155.514C77.933 156.624 78.141 160.342 77.792 169.42C77.529 176.234 77.723 182.64 78.222 183.655C79.096 185.432 79.076 185.433 77.656 183.683C76.234 181.93 76.047 181.934 72.341 183.798C68.777 185.589 63.392 187.039 55.121 188.432L51.743 189.001L52.226 181.251C52.718 173.365 55.455 165.545 57.319 166.697C57.864 167.034 58.016 166.835 57.658 166.255C57.3 165.676 58.547 163.849 60.431 162.195C62.314 160.541 63.55 158.849 63.178 158.434C62.805 158.019 63.022 157.978 63.66 158.343C65.039 159.132 68.182 158.103 67.544 157.071C67.299 156.676 67.865 156.353 68.8 156.354C69.735 156.356 71.85 156.245 73.5 156.108C76.129 155.89 76.253 155.753 74.5 155C72.961 154.339 72.875 154.124 74.128 154.07C75.023 154.032 76.321 154.682 77.012 155.514ZM59.5 162C58.505 163.1 57.24 164 56.69 164C56.14 164 56.505 163.1 57.5 162C58.495 160.9 59.76 160 60.31 160C60.86 160 60.495 160.9 59.5 162ZM101.86 161.75C101.063 162.713 99.764 164.4 98.973 165.5C97.536 167.498 97.537 167.498 99.86 165.511C102.013 163.67 104.563 160 103.69 160C103.481 160 102.658 160.787 101.86 161.75ZM53.5 169.765C52.95 170.169 52.345 171.4 52.155 172.5C51.738 174.919 51.358 175.399 50.718 174.317C49.937 172.996 51.822 168.999 53.218 169.015C54.006 169.025 54.115 169.314 53.5 169.765ZM49.683 184.188C49.364 184.985 49.127 184.748 49.079 183.583C49.036 182.529 49.272 181.939 49.604 182.271C49.936 182.603 49.972 183.466 49.683 184.188ZM115.848 189.317C115.873 189.766 117.605 191.493 119.697 193.154C124.634 197.074 124.779 197.236 122.6 196.4C120.428 195.567 114 189.324 114 188.048C114 187.562 113.746 186.339 113.436 185.332C113.126 184.324 113.532 184.625 114.337 186C115.143 187.375 115.823 188.868 115.848 189.317ZM72 186.929C65.431 189.587 61 190.41 61 188.972C61 188.32 61.563 187.994 62.25 188.249C62.938 188.503 65.3 187.91 67.5 186.93C69.7 185.95 72.625 185.139 74 185.129C75.914 185.114 75.445 185.536 72 186.929ZM75.417 187.917C75.096 188.238 74.533 188.511 74.167 188.525C73.8 188.539 71.7 190.228 69.5 192.278C67.3 194.328 64.706 196.261 63.735 196.574C62.765 196.888 62.158 197.449 62.386 197.822C62.614 198.195 60.419 198.63 57.509 198.79L52.218 199.08L51.825 194.965C51.386 190.357 51.286 190.496 55.75 189.538C57.747 189.11 59 189.234 59 189.86C59 190.421 57.538 191.073 55.75 191.309C53.962 191.546 54.864 191.569 57.753 191.361C60.641 191.152 65.366 190.185 68.253 189.212C73.641 187.394 76.447 186.887 75.417 187.917ZM75 190.441C75 190.684 74.55 191.16 74 191.5C73.45 191.84 73 191.641 73 191.059C73 190.477 73.45 190 74 190C74.55 190 75 190.198 75 190.441ZM139.683 193.188C139.364 193.985 139.127 193.748 139.079 192.583C139.036 191.529 139.272 190.939 139.604 191.271C139.936 191.603 139.972 192.466 139.683 193.188ZM51 195.2C51 196.815 50.704 197.104 49.887 196.287C49.275 195.675 49.077 194.685 49.446 194.087C50.481 192.413 51 192.785 51 195.2ZM70.571 194.85C70.571 196.088 70.017 196.556 68.899 196.263C67.979 196.023 66.923 196.315 66.554 196.913C66.184 197.511 65.359 198 64.719 198C64.08 198 65.119 196.897 67.028 195.549C68.938 194.201 70.516 193.076 70.536 193.049C70.555 193.022 70.571 193.833 70.571 194.85ZM54.25 200.662C53.563 200.94 52.438 200.94 51.75 200.662C51.063 200.385 51.625 200.158 53 200.158C54.375 200.158 54.938 200.385 54.25 200.662Z" fill="#97C13B"/>
<path fill-rule="evenodd" clip-rule="evenodd" d="M0 125V250H125H250V125V0H125H0V125ZM188 49.972C185.815 51.425 188.543 51.313 191.316 49.836C193.206 48.829 193.334 48.873 192.271 50.164C191.256 51.395 191.564 52.041 194.042 53.873C195.693 55.093 197.518 55.798 198.098 55.439C198.769 55.025 199.034 55.829 198.827 57.644C198.542 60.131 197.983 60.579 194.5 61.108C191.086 61.627 190.939 61.739 193.5 61.873C195.829 61.995 196.165 62.247 195 63C193.778 63.79 193.901 63.972 195.667 63.985C199.667 64.013 198.907 67.206 193.801 71.821C192.867 72.666 192.328 73.721 192.603 74.167C192.879 74.613 192.406 74.709 191.552 74.382C190.495 73.976 189.995 74.378 189.985 75.643C189.973 77.07 189.77 77.185 189.107 76.14C188.526 75.221 186.774 74.896 183.718 75.14C181.228 75.338 179.4 75.162 179.654 74.75C179.909 74.338 179.529 73.948 178.809 73.885C178.089 73.821 176.825 73.709 176 73.635C175.175 73.561 174.437 72.6 174.359 71.5C174.282 70.4 173.896 68.713 173.502 67.75C173.042 66.624 173.24 66 174.06 66C174.76 66 175.044 65.711 174.691 65.357C174.337 65.004 173.368 65.279 172.537 65.969C171.706 66.659 170.321 66.954 169.461 66.623C168.6 66.293 168.147 66.429 168.454 66.926C168.761 67.423 168.447 68.019 167.756 68.252C166.794 68.576 166.852 69.1 168 70.49C169.272 72.03 169.5 77.79 169.5 108.403C169.5 146.838 169.037 159.116 167.62 158.256C167.136 157.962 166.948 158.343 167.201 159.102C167.454 159.861 167.047 161.096 166.296 161.847C165.31 162.833 165.228 163.569 166.001 164.501C166.808 165.473 166.638 165.754 165.309 165.645C164.341 165.565 163.537 166.025 163.524 166.667C163.511 167.308 163.09 168.208 162.59 168.667C162.047 169.164 162.025 168.894 162.536 168C163.007 167.175 161.616 168.052 159.446 169.948C157.276 171.845 155.624 173.791 155.775 174.273C155.926 174.756 155.083 174.844 153.9 174.468C152.55 174.04 151.983 174.163 152.376 174.8C152.76 175.421 152.169 175.595 150.845 175.249C149.226 174.826 148.892 175.017 149.508 176.012C150.112 176.99 149.868 177.163 148.582 176.67C147.622 176.301 145.523 176 143.918 176H141V134.441C141 111.584 141.338 93.087 141.75 93.338C142.162 93.589 143.379 92.603 144.453 91.147C146.299 88.647 146.302 88.583 144.516 90C142.788 91.371 142.685 91.34 143.324 89.639C143.851 88.236 143.65 87.92 142.511 88.357C140.782 89.021 140.443 87.463 142.094 86.442C142.696 86.07 143 84.782 142.771 83.58C142.541 82.378 142.979 80.809 143.744 80.094C144.509 79.38 144.885 78.143 144.579 77.345C144.273 76.548 144.421 76.142 144.907 76.442C145.694 76.929 146.807 75.248 147.026 73.24C147.07 72.833 148.221 71.916 149.583 71.203C150.945 70.489 151.788 69.465 151.455 68.928C151.123 68.39 151.447 68.074 152.176 68.225C152.904 68.376 153.5 67.825 153.5 67C153.5 64.798 156.054 63.476 157.104 65.134C157.706 66.084 157.974 66.129 157.985 65.281C157.994 64.557 158.675 64.322 159.664 64.701C160.773 65.127 161.09 64.955 160.614 64.185C160.107 63.364 160.782 63.206 162.95 63.64C164.781 64.006 166 63.836 166 63.213C166 62.643 166.787 62.293 167.75 62.434C168.713 62.575 169.5 63.285 169.5 64.012C169.5 64.739 170.118 65.539 170.874 65.791C171.917 66.139 172.146 65.381 171.827 62.64C171.595 60.656 171.877 58.834 172.453 58.592C173.082 58.328 172.902 57.706 172 57.034C170.738 56.094 170.817 55.963 172.5 56.208C173.883 56.41 174.458 55.963 174.363 54.761C174.288 53.804 174.559 53.227 174.966 53.479C175.372 53.73 176.559 53.298 177.603 52.518C179.413 51.165 179.396 51.126 177.25 51.666C176.012 51.978 175 51.793 175 51.256C175 50.718 176.575 50.404 178.5 50.556C180.425 50.709 182 50.513 182 50.121C182 49.729 183.688 49.311 185.75 49.192C188.531 49.031 189.112 49.233 188 49.972ZM185.269 62.693C186.242 62.947 187.592 62.93 188.269 62.656C188.946 62.382 188.15 62.175 186.5 62.195C184.85 62.215 184.296 62.439 185.269 62.693ZM180.813 63.683C181.534 63.972 182.397 63.936 182.729 63.604C183.061 63.272 182.471 63.036 181.417 63.079C180.252 63.127 180.015 63.364 180.813 63.683ZM176.813 64.683C177.534 64.972 178.397 64.936 178.729 64.604C179.061 64.272 178.471 64.036 177.417 64.079C176.252 64.127 176.015 64.364 176.813 64.683ZM187.25 64.689C188.213 64.941 189.787 64.941 190.75 64.689C191.713 64.438 190.925 64.232 189 64.232C187.075 64.232 186.287 64.438 187.25 64.689ZM181.813 65.683C182.534 65.972 183.397 65.936 183.729 65.604C184.061 65.272 183.471 65.036 182.417 65.079C181.252 65.127 181.015 65.364 181.813 65.683ZM198.631 70.52C198.292 71.404 197.539 71.833 196.959 71.474C196.234 71.026 196.276 70.372 197.094 69.387C198.547 67.636 199.475 68.32 198.631 70.52ZM159.794 72.494C157.543 74.023 156.179 75.724 156.267 76.889C156.399 78.643 156.683 78.589 159.955 76.2C166.5 71.419 166.341 70.669 159.75 75.232C158.238 76.279 157 76.692 157 76.15C157 75.607 158.575 74.19 160.5 73C162.425 71.81 164 70.649 164 70.418C164 69.712 163.59 69.915 159.794 72.494ZM148.462 82.249L143.5 87.499L148.25 83.041C153.898 77.741 154.583 78.709 149.251 84.458C145.734 88.249 145.798 88.221 150.283 84.011C152.912 81.541 154.596 79.365 154.026 79.175C153.455 78.985 153.242 78.418 153.553 77.915C154.818 75.867 153.164 77.276 148.462 82.249ZM118.403 89.158C117.912 89.951 118.366 90.137 119.845 89.751C121.069 89.431 121.752 89.593 121.422 90.126C121.089 90.666 122.291 90.905 124.254 90.688C126.58 90.432 127.667 90.726 127.667 91.612C127.667 92.327 127.292 92.68 126.833 92.397C124.426 90.909 126.553 93.164 130.343 96.116C132.732 97.977 134.727 99.878 134.777 100.341C134.826 100.804 135.684 101.817 136.683 102.594C138.159 103.74 138.191 103.898 136.851 103.434C135.944 103.12 134.862 103.414 134.447 104.086C133.949 104.892 134.107 105.052 134.913 104.554C135.69 104.074 136.334 104.56 136.681 105.888C136.982 107.037 137.514 107.8 137.864 107.584C138.214 107.367 138.379 128.297 138.231 154.095C138.071 181.847 137.585 201 137.04 201C136.533 201 135.817 200.514 135.45 199.919C135.078 199.318 133.683 199.114 132.307 199.459C130.715 199.859 130.062 199.709 130.475 199.04C130.829 198.468 130.678 198 130.141 198C129.603 198 128.378 197.699 127.418 197.33C126.134 196.837 125.888 197.01 126.49 197.985C127.051 198.892 126.924 199.071 126.088 198.554C125.416 198.139 125.094 197.572 125.372 197.295C125.886 196.781 117.503 190 116.354 190C116.008 190 117.474 191.389 119.612 193.087C124.612 197.057 124.777 197.236 122.705 196.44C117.695 194.518 112.378 186.786 113.698 183.345C114.127 182.226 113.956 181.909 113.181 182.388C112.429 182.853 112.228 182.569 112.609 181.578C112.931 180.738 112.442 179.299 111.523 178.38C110.36 177.217 110.194 176.498 110.979 176.013C111.755 175.533 112.012 170.753 111.803 160.657C111.636 152.594 111.893 145.998 112.372 145.998C112.852 145.999 112.795 145.438 112.245 144.75C111.695 144.063 110.948 142.375 110.586 141C109.949 138.583 109.979 138.591 111.495 141.25C113.149 144.148 114.31 144.973 113.4 142.601C113.105 141.832 114.027 138.907 115.449 136.101C116.87 133.296 117.81 131 117.536 131C117.262 131 115.926 133.137 114.566 135.75L112.093 140.5L112.047 114.816L112 89.133L114.75 88.716C116.263 88.487 117.864 88.232 118.309 88.15C118.754 88.067 118.796 88.521 118.403 89.158ZM133 102C132.411 103.1 132.155 104 132.43 104C132.705 104 133.411 103.1 134 102C134.589 100.9 134.845 100 134.57 100C134.295 100 133.589 100.9 133 102ZM130 107C129.411 108.1 129.155 109 129.43 109C129.705 109 130.411 108.1 131 107C131.589 105.9 131.845 105 131.57 105C131.295 105 130.589 105.9 130 107ZM131.535 108.587C130.603 110.009 130.012 111.346 130.223 111.556C130.433 111.766 131.394 110.602 132.359 108.969C134.514 105.321 133.871 105.022 131.535 108.587ZM108 130.095C108.464 147.171 108.364 148.636 106.615 150.385C104.9 152.1 104.877 152.352 106.365 153.184C107.664 153.912 108 155.731 108 162.05C108 166.422 108.419 170 108.93 170C110.105 170 108.476 175.952 106.895 177.433C106.043 178.231 106.038 177.949 106.878 176.316C107.495 175.114 107.982 173.539 107.961 172.816C107.924 171.591 105.078 177.345 104.68 179.448C104.581 179.97 103.261 181.473 101.747 182.789C100.233 184.106 99.29 185.661 99.652 186.246C100.019 186.84 99.839 187.019 99.243 186.65C98.127 185.96 92.017 188.973 92.006 190.219C92.003 190.614 91.251 190.65 90.336 190.299C89.12 189.832 88.895 190.021 89.5 191C90.113 191.992 89.874 192.166 88.582 191.67C87.622 191.301 85.748 191 84.418 191C82.221 191 82 190.591 82 186.531C82 183.461 81.609 182.158 80.75 182.367C80.063 182.535 79.84 182.483 80.256 182.251C80.672 182.019 80.698 181.305 80.314 180.665C79.93 180.024 80.4 180.136 81.358 180.914C82.873 182.143 83.318 182.111 84.764 180.664C86.053 179.376 86.115 179 85.039 179C84.044 179 84.196 178.469 85.575 177.128C87.467 175.288 89.585 175.245 88.457 177.069C87.271 178.989 88.713 177.868 92.836 173.667C95.418 171.037 96.499 169.333 95.589 169.333C94.763 169.333 94.277 169.639 94.508 170.014C94.74 170.388 93.595 171.972 91.964 173.534C88.499 176.854 87.964 175.789 91.25 172.11C92.487 170.725 91.119 171.541 88.21 173.923C85.3 176.304 82.738 178.071 82.515 177.848C81.757 177.09 81.496 131.998 82.25 131.999C82.662 132 83 131.298 83 130.441C83 129.584 82.59 129.136 82.088 129.446C81.586 129.756 81.293 129.445 81.437 128.755C82.048 125.816 83.269 124.163 85.199 123.658C86.688 123.269 87.07 122.626 86.577 121.34C86.202 120.362 86.219 119.886 86.616 120.283C87.013 120.68 88.162 120.259 89.169 119.347C91.241 117.472 91.653 115.513 89.75 116.588C89.063 116.976 89.494 116.328 90.708 115.147C93.313 112.614 94.161 112.417 93.349 114.533C92.844 115.849 93.136 115.895 95.409 114.86C97.349 113.975 97.715 113.424 96.778 112.796C96.009 112.28 96.595 112.194 98.25 112.578C99.763 112.929 101 112.831 101 112.358C101 111.886 102.462 111.543 104.25 111.595L107.5 111.689L108 130.095ZM125 116C123.878 118.2 123.184 120 123.459 120C123.734 120 124.878 118.2 126 116C127.122 113.8 127.816 112 127.541 112C127.266 112 126.122 113.8 125 116ZM126.5 118C125.106 120.75 124.191 123 124.466 123C124.741 123 126.106 120.75 127.5 118C128.894 115.25 129.809 113 129.534 113C129.259 113 127.894 115.25 126.5 118ZM121 123.393C121 123.609 121.698 124.054 122.552 124.382C123.442 124.723 123.843 124.555 123.493 123.989C122.906 123.038 121 122.583 121 123.393ZM118.954 127.086C118.34 128.233 118.026 129.36 118.257 129.59C118.487 129.82 119.189 128.882 119.816 127.504C121.194 124.48 120.523 124.154 118.954 127.086ZM118 134C115.788 138.4 114.203 142 114.478 142C114.753 142 116.788 138.4 119 134C121.212 129.6 122.797 126 122.522 126C122.247 126 120.212 129.6 118 134ZM140.055 156.875C140.124 173.528 139.915 187.419 139.59 187.743C139.266 188.068 139 174.233 139 157C139 139.767 139.209 125.876 139.465 126.132C139.721 126.388 139.986 140.222 140.055 156.875ZM110.962 155.5C110.97 156.57 109.585 154.762 107.899 151.5C107.213 150.172 107.552 150.339 108.911 152C110.035 153.375 110.959 154.95 110.962 155.5ZM79.143 154.786C78.374 155.042 78 158.922 78 166.642C78 175.494 78.286 177.973 79.25 177.485C79.938 177.137 79.637 177.552 78.582 178.409C76.929 179.751 76.827 180.349 77.848 182.733C78.836 185.042 78.817 185.227 77.73 183.851C76.595 182.414 76.108 182.377 73.963 183.565L71.5 184.929L74 185.044C76.47 185.157 76.465 185.171 73.637 186.2C71.53 186.967 71.129 187.462 72.119 188.074C73.165 188.72 72.8 189.632 70.482 192.164C68.842 193.957 68.191 194.903 69.036 194.267C70.276 193.333 70.571 193.456 70.571 194.906C70.571 196.091 70.004 196.552 68.899 196.263C67.979 196.023 66.923 196.315 66.554 196.913C66.184 197.511 65.373 198 64.75 198C64.127 198 64.491 197.318 65.559 196.484C67.362 195.075 67.307 195.05 64.781 196.13C63.286 196.769 62.23 197.564 62.434 197.896C62.638 198.228 61.421 198.601 59.729 198.723C58.037 198.846 56.191 199.409 55.627 199.973C55.062 200.538 53.902 201 53.05 201.001C51.831 201.001 51.528 199.884 51.63 195.765C51.744 191.163 52.046 190.448 54.13 189.864C56.483 189.204 56.484 189.199 54.25 189.1C52.147 189.007 52 188.556 52 182.2C52 178.46 51.597 174.972 51.104 174.45C50.024 173.304 51.493 169 52.965 169C54.414 169 63.773 159.123 63.075 158.331C62.759 157.973 63.026 157.981 63.669 158.349C64.313 158.717 65.442 158.416 66.178 157.679C66.915 156.942 68.139 156.546 68.898 156.799C69.657 157.052 70.004 156.816 69.669 156.274C69.303 155.681 70.101 155.488 71.679 155.789C73.351 156.109 74.064 155.912 73.651 155.244C73.242 154.583 74.345 154.236 76.645 154.301C78.648 154.358 79.772 154.576 79.143 154.786ZM101.578 158.25C100.099 160.588 99.711 161.565 100.715 160.423C101.719 159.281 103.063 158.521 103.702 158.734C104.342 158.947 105.37 158.082 105.987 156.811C107.088 154.547 107.076 154.54 105.43 156.5C103.767 158.48 103.755 158.478 104.281 156.25C105.021 153.117 104.651 153.39 101.578 158.25ZM59.5 162C58.505 163.1 57.24 164 56.69 164C56.14 164 56.505 163.1 57.5 162C58.495 160.9 59.76 160 60.31 160C60.86 160 60.495 160.9 59.5 162ZM101.86 161.75C98.689 165.579 97.547 167.356 98.703 166.662C99.981 165.895 104.423 160 103.723 160C103.496 160 102.658 160.787 101.86 161.75ZM95.924 165.75L93.5 168.5L96.25 166.076C97.763 164.742 99 163.505 99 163.326C99 162.541 98.19 163.18 95.924 165.75ZM52.257 172.237C52.125 173.996 52.29 174.156 53.029 172.987C54.185 171.159 54.256 170 53.213 170C52.78 170 52.35 171.007 52.257 172.237ZM160 172C159.411 173.1 158.5 174 157.975 174C157.449 174 157.79 173.1 158.732 172C159.674 170.9 160.585 170 160.757 170C160.93 170 160.589 170.9 160 172ZM84 180C84 180.55 83.802 181 83.559 181C83.316 181 82.84 180.55 82.5 180C82.16 179.45 82.359 179 82.941 179C83.523 179 84 179.45 84 180ZM49.683 184.188C49.364 184.985 49.127 184.748 49.079 183.583C49.036 182.529 49.272 181.939 49.604 182.271C49.936 182.603 49.972 183.466 49.683 184.188ZM103.447 185.085C103.125 185.606 102.436 185.769 101.915 185.447C101.394 185.125 101.231 184.436 101.553 183.915C101.875 183.394 102.564 183.231 103.085 183.553C103.606 183.875 103.769 184.564 103.447 185.085ZM64.117 186.867C61.984 187.465 61.902 187.674 63.334 188.862C64.213 189.592 65.51 189.957 66.216 189.673C66.965 189.373 66.666 189.091 65.5 188.998C63.88 188.868 64.07 188.577 66.5 187.464C69.612 186.039 68.271 185.703 64.117 186.867ZM76 187.608C76 188.435 74.058 188.903 73.613 188.183C73.324 187.716 73.743 187.333 74.544 187.333C75.345 187.333 76 187.457 76 187.608ZM58.357 189.5C59.182 190.325 60.596 191 61.5 191C62.96 191 62.976 190.833 61.643 189.5C60.818 188.675 59.404 188 58.5 188C57.04 188 57.024 188.167 58.357 189.5ZM75 190.441C75 190.684 74.55 191.16 74 191.5C73.45 191.84 73 191.641 73 191.059C73 190.477 73.45 190 74 190C74.55 190 75 190.198 75 190.441ZM53.25 191.689C54.212 191.941 55.788 191.941 56.75 191.689C57.712 191.438 56.925 191.232 55 191.232C53.075 191.232 52.288 191.438 53.25 191.689ZM139.683 193.188C139.364 193.985 139.127 193.748 139.079 192.583C139.036 191.529 139.272 190.939 139.604 191.271C139.936 191.603 139.972 192.466 139.683 193.188ZM51 195.2C51 196.815 50.704 197.104 49.887 196.287C49.275 195.675 49.077 194.685 49.446 194.087C50.481 192.413 51 192.785 51 195.2Z" fill="#84A62E"/>
<path fill-rule="evenodd" clip-rule="evenodd" d="M0 125V250H125H250V125V0H125H0V125ZM188.523 49.963C187.694 51.304 188.593 51.277 191.316 49.878C193.054 48.984 193.26 49.01 192.324 50.004C191.409 50.975 191.793 51.797 194.053 53.698C195.651 55.043 197.453 55.838 198.056 55.465C198.778 55.019 199.042 55.762 198.827 57.639C198.569 59.889 197.867 60.625 195.5 61.127C193.615 61.527 193.243 61.813 194.5 61.897C196.168 62.008 196.251 62.192 195 63C193.775 63.792 193.893 63.972 195.643 63.985C196.822 63.993 198.045 64.675 198.362 65.5C198.678 66.325 198.549 67 198.076 67C196.683 67 195.987 69.874 197.198 70.622C197.846 71.023 198.029 70.856 197.638 70.224C197.269 69.627 197.468 68.829 198.08 68.451C198.78 68.018 199.059 68.455 198.833 69.63C198.635 70.656 197.804 71.523 196.987 71.555C194.568 71.651 191.969 73.141 192.558 74.093C192.858 74.579 192.406 74.709 191.552 74.382C190.495 73.976 189.995 74.378 189.985 75.643C189.976 76.698 189.652 77.058 189.235 76.477C188.831 75.915 186.399 75.476 183.831 75.501C181.263 75.527 179.377 75.2 179.64 74.774C179.903 74.348 179.529 73.948 178.809 73.885C178.089 73.821 176.845 73.709 176.044 73.635C175.243 73.561 174.206 71.925 173.741 70C171.504 60.753 171.304 59.064 172.391 58.612C173.144 58.3 173.072 57.851 172.165 57.215C171.133 56.49 171.325 56.148 173.016 55.706C174.416 55.34 174.93 54.695 174.446 53.913C173.981 53.16 174.107 52.948 174.776 53.362C175.373 53.731 176.144 53.575 176.49 53.016C176.835 52.457 176.641 52 176.059 52C175.477 52 175 51.613 175 51.139C175 50.666 176.575 50.404 178.5 50.556C180.425 50.709 182 50.513 182 50.121C182 49.729 183.612 49.3 185.582 49.168C187.851 49.015 188.929 49.306 188.523 49.963ZM169.5 63.882C169.5 64.537 170.175 65.5 171 66.021C172.333 66.864 172.333 66.973 171 67C170.175 67.017 168.854 67.439 168.064 67.939C166.817 68.729 166.817 69.074 168.064 70.577C169.253 72.009 169.5 78.505 169.5 108.403C169.5 146.997 169.045 158.996 167.583 158.999C167.079 158.999 166.945 159.279 167.286 159.619C167.626 159.96 167.236 160.907 166.418 161.725C165.338 162.805 165.224 163.565 166.001 164.501C166.808 165.473 166.638 165.754 165.309 165.645C164.341 165.565 163.537 166.175 163.524 167C163.511 167.825 163.024 168.5 162.441 168.5C160.747 168.5 155.041 173.7 155.805 174.548C156.187 174.972 155.713 175.036 154.75 174.691C153.787 174.345 153 174.485 153 175C153 175.515 152.325 175.678 151.5 175.362C150.675 175.045 150 175.215 150 175.739C150 176.547 148.627 176.6 141.75 176.059C141.338 176.027 141 157.51 141 134.91V93.821L143.25 91.834C144.488 90.742 144.861 90.181 144.08 90.588C143.052 91.124 142.831 90.883 143.279 89.715C143.736 88.525 143.473 88.265 142.275 88.725C140.98 89.222 140.822 88.959 141.49 87.424C141.951 86.366 142.366 84.487 142.414 83.25C142.461 82.013 142.838 81 143.25 81C143.662 81 144 80.523 144 79.941C144 79.359 143.438 79.167 142.75 79.515C142.063 79.863 142.374 79.44 143.441 78.574C144.509 77.708 144.959 76.986 144.441 76.97C143.924 76.953 144.287 76.481 145.25 75.92C146.213 75.359 147 74.493 147 73.996C147 72.736 151.859 68 153.152 68C153.736 68 153.969 67.362 153.67 66.583C152.967 64.75 156.084 63.528 157.155 65.216C157.813 66.254 157.972 66.249 157.985 65.191C157.993 64.471 158.45 64.16 159 64.5C159.55 64.84 160 64.633 160 64.04C160 63.402 160.977 63.207 162.391 63.562C163.706 63.892 165.058 63.716 165.395 63.17C166.225 61.826 169.5 62.394 169.5 63.882ZM185.75 62.662C186.438 62.94 187.563 62.94 188.25 62.662C188.938 62.385 188.375 62.158 187 62.158C185.625 62.158 185.063 62.385 185.75 62.662ZM186.75 64.662C187.438 64.94 188.563 64.94 189.25 64.662C189.938 64.385 189.375 64.158 188 64.158C186.625 64.158 186.063 64.385 186.75 64.662ZM181.813 65.683C182.534 65.972 183.397 65.936 183.729 65.604C184.061 65.272 183.471 65.036 182.417 65.079C181.252 65.127 181.015 65.364 181.813 65.683ZM156.446 75.087C155.205 77.095 157.604 78.188 159.092 76.292C160.402 74.624 160.366 74.604 158.563 76C156.802 77.364 156.685 77.341 157.281 75.75C158.009 73.807 157.491 73.396 156.446 75.087ZM147.879 82.831L143.5 87.5L148.25 83.042C153.845 77.791 154.668 78.707 149.297 84.208C147.26 86.294 145.817 88 146.089 88C146.361 88 148.511 86.036 150.867 83.636C154.028 80.414 154.771 79.126 153.704 78.717C152.819 78.377 150.557 79.975 147.879 82.831ZM119 89.107C119 89.716 119.675 89.955 120.5 89.638C121.325 89.322 122 89.451 122 89.924C122 90.398 122.698 91.054 123.552 91.382C124.406 91.709 124.889 91.629 124.625 91.203C124.362 90.777 124.981 90.429 126 90.429C127.019 90.429 127.615 90.815 127.323 91.286C127.031 91.758 128.965 94.225 131.619 96.769C134.274 99.313 135.783 101.047 134.973 100.623C134.163 100.199 134.4 100.581 135.5 101.473C136.6 102.365 137.359 103.974 137.187 105.048C137.015 106.121 137.379 107 137.996 107C138.613 107 138.904 107.346 138.643 107.769C138.381 108.192 138.564 113.479 139.048 119.519C139.808 128.99 140.19 173.869 139.671 192.7C139.476 199.777 138.276 201.753 135.18 200.096C134.061 199.497 132.437 199.279 131.572 199.611C130.695 199.947 130 199.697 130 199.044C130 198.401 129.121 198.015 128.048 198.187C126.974 198.359 125.365 197.6 124.473 196.5C123.581 195.4 123.133 195.057 123.478 195.739C124.465 197.692 121.365 196.143 118.005 193.005C114.87 190.076 112.604 185.451 113.552 183.916C113.863 183.412 113.656 183 113.09 183C112.525 183 112.317 182.337 112.629 181.526C112.94 180.715 112.442 179.299 111.523 178.38C110.36 177.217 110.194 176.498 110.979 176.013C111.755 175.533 112.012 170.753 111.803 160.657C111.636 152.594 111.893 145.998 112.372 145.998C112.852 145.999 112.795 145.438 112.245 144.75C111.695 144.063 110.948 142.375 110.586 141C109.949 138.583 109.979 138.591 111.495 141.25C113.152 144.155 114.31 144.971 113.396 142.59C113.099 141.815 113.574 139.79 114.453 138.09C116.431 134.267 115.63 133.957 113.572 137.75C112.216 140.249 112.076 138.16 112.04 114.816L112 89.133L114.75 88.716C116.263 88.487 117.838 88.232 118.25 88.15C118.662 88.067 119 88.498 119 89.107ZM130 107C129.411 108.1 129.155 109 129.43 109C129.705 109 130.411 108.1 131 107C131.589 105.9 131.845 105 131.57 105C131.295 105 130.589 105.9 130 107ZM130.459 110.067C130.096 110.653 130.014 111.348 130.276 111.61C130.538 111.872 131.019 111.392 131.345 110.543C132.021 108.781 131.445 108.471 130.459 110.067ZM108.209 130.075C108.369 140.485 108.132 149.002 107.682 149.001C107.232 149 107.844 150.376 109.041 152.058C110.238 153.739 111.02 155.314 110.777 155.556C110.535 155.799 109.735 154.873 108.999 153.498C108.264 152.124 107.288 151 106.831 151C105.672 151 105.79 152.752 107 153.5C107.55 153.84 108 155.216 108 156.559C108 157.902 108.563 159.036 109.25 159.079C110.25 159.142 110.25 159.259 109.25 159.662C107.792 160.25 107.491 170 108.93 170C110.587 170 108.108 176.408 105.749 178.224C104.512 179.176 103.872 179.966 104.327 179.978C104.781 179.99 103.768 181.166 102.074 182.591C100.38 184.016 99.29 185.661 99.652 186.246C100.019 186.84 99.839 187.019 99.243 186.65C98.127 185.96 92.017 188.973 92.006 190.219C92.003 190.614 91.251 190.65 90.336 190.299C89.378 189.931 88.925 190.07 89.269 190.626C89.616 191.187 88.244 191.573 86.003 191.546L82.139 191.5L82.051 163.283C82.002 147.764 81.715 134.422 81.413 133.634C81.111 132.847 81.344 131.905 81.932 131.542C82.519 131.179 83 130.432 83 129.882C83 129.332 82.59 129.136 82.088 129.446C81.586 129.756 81.293 129.445 81.437 128.755C82.031 125.9 83.298 124 84.607 124C85.934 124 86.474 122.676 86.035 120.5C85.924 119.95 86.172 119.838 86.586 120.252C86.999 120.666 88.162 120.259 89.169 119.347C91.241 117.472 91.653 115.513 89.75 116.588C89.063 116.976 89.494 116.328 90.708 115.147C93.281 112.646 94.162 112.415 93.382 114.447C92.918 115.657 93.238 115.7 95.337 114.709C97.069 113.892 97.484 113.267 96.674 112.696C95.987 112.213 96.399 112.121 97.666 112.475C98.857 112.809 100.055 112.726 100.327 112.291C100.6 111.856 102.419 111.421 104.37 111.324L107.917 111.148L108.209 130.075ZM128 115C127.411 116.1 127.155 117 127.43 117C127.705 117 128.411 116.1 129 115C129.589 113.9 129.845 113 129.57 113C129.295 113 128.589 113.9 128 115ZM124 118C123.411 119.1 123.155 120 123.43 120C123.705 120 124.411 119.1 125 118C125.589 116.9 125.845 116 125.57 116C125.295 116 124.589 116.9 124 118ZM121 123.393C121 123.609 121.698 124.054 122.552 124.382C123.442 124.723 123.843 124.555 123.493 123.989C122.906 123.038 121 122.583 121 123.393ZM119.5 131C118.106 133.75 117.191 136 117.466 136C117.741 136 119.106 133.75 120.5 131C121.894 128.25 122.809 126 122.534 126C122.259 126 120.894 128.25 119.5 131ZM79.143 154.786C78.374 155.042 78 158.922 78 166.642C78 175.213 78.299 177.933 79.181 177.388C79.831 176.986 79.103 178.31 77.563 180.329C76.023 182.348 74.029 184.045 73.131 184.1C72.193 184.157 72.562 184.54 74 185C75.771 185.567 75.972 185.83 74.691 185.9C73.696 185.955 73.165 186.457 73.51 187.016C73.856 187.575 74.67 187.725 75.319 187.349C75.969 186.973 74.475 188.592 72 190.947C69.525 193.302 68.191 194.752 69.036 194.17C70.244 193.337 70.571 193.503 70.571 194.949C70.571 196.443 70.149 196.627 68.321 195.932C66.869 195.38 65.826 195.472 65.381 196.193C64.933 196.918 65.15 197.025 66 196.5C66.892 195.949 67.068 196.08 66.553 196.914C66.138 197.586 65.168 197.895 64.399 197.6C63.629 197.304 62.999 197.386 62.998 197.781C62.997 198.177 61.569 198.601 59.825 198.723C58.08 198.846 56.191 199.409 55.627 199.973C55.062 200.538 53.902 201 53.05 201.001C51.831 201.001 51.528 199.884 51.63 195.765C51.744 191.163 52.046 190.448 54.13 189.864C56.483 189.204 56.484 189.199 54.25 189.1C52.147 189.007 52 188.556 52 182.2C52 178.46 51.597 174.972 51.104 174.45C49.777 173.042 51.654 169 53.634 169C54.569 169 55.052 168.719 54.709 168.376C54.366 168.033 55.078 166.923 56.293 165.909C57.755 164.688 58.026 164.055 57.095 164.033C56.017 164.008 56.112 163.534 57.5 162C59.503 159.787 61.479 159.29 60.483 161.25C60.133 161.938 60.685 161.6 61.709 160.5C62.732 159.4 64.229 158.354 65.035 158.175C65.841 157.996 66.651 157.431 66.835 156.919C67.02 156.407 67.582 156.242 68.085 156.553C68.588 156.864 69 156.684 69 156.153C69 155.622 69.9 155.423 71 155.71C72.1 155.998 73 155.775 73 155.216C73 154.656 74.639 154.244 76.643 154.301C78.647 154.358 79.772 154.576 79.143 154.786ZM102.609 156.824C102.256 157.395 102.455 158.163 103.05 158.531C104.536 159.449 105.062 158.719 104.071 157.114C103.539 156.255 103.024 156.152 102.609 156.824ZM99.872 160.75C98.629 162.336 98.664 162.371 100.25 161.128C101.213 160.373 102 159.585 102 159.378C102 158.555 101.179 159.084 99.872 160.75ZM100 164C98.825 165.65 98.089 167 98.364 167C98.639 167 99.825 165.65 101 164C102.175 162.35 102.911 161 102.636 161C102.361 161 101.175 162.35 100 164ZM96.872 164.75C95.629 166.336 95.664 166.371 97.25 165.128C98.213 164.373 99 163.585 99 163.378C99 162.555 98.179 163.084 96.872 164.75ZM89.988 172.513C88.424 174.178 87.962 175.362 88.62 176.02C89.278 176.678 90.607 175.913 92.557 173.757L95.5 170.5L92.25 173.437C88.608 176.728 87.81 175.895 91.174 172.314C92.37 171.042 93.124 170 92.849 170C92.574 170 91.286 171.131 89.988 172.513ZM160 172C159.411 173.1 158.5 174 157.975 174C157.449 174 157.79 173.1 158.732 172C159.674 170.9 160.585 170 160.757 170C160.93 170 160.589 170.9 160 172ZM84.18 177.284C83.584 178.002 83.475 179.15 83.932 179.89C84.505 180.817 84.955 180.882 85.434 180.107C85.81 179.498 85.529 178.986 84.809 178.968C84.002 178.949 84.244 178.374 85.441 177.468C86.509 176.661 86.901 176 86.314 176C85.726 176 84.766 176.578 84.18 177.284ZM81.457 182.069C81.141 182.581 80.346 182.964 79.691 182.921C78.839 182.865 78.857 182.698 79.756 182.336C80.447 182.057 80.715 181.348 80.352 180.76C79.958 180.123 80.164 179.983 80.862 180.415C81.506 180.813 81.774 181.557 81.457 182.069ZM49.683 184.188C49.364 184.985 49.127 184.748 49.079 183.583C49.036 182.529 49.272 181.939 49.604 182.271C49.936 182.603 49.972 183.466 49.683 184.188ZM78.382 183.552C78.723 184.442 78.555 184.843 77.989 184.493C77.445 184.157 77 183.459 77 182.941C77 181.503 77.717 181.82 78.382 183.552ZM103.447 185.085C103.125 185.606 102.436 185.769 101.915 185.447C101.394 185.125 101.231 184.436 101.553 183.915C101.875 183.394 102.564 183.231 103.085 183.553C103.606 183.875 103.769 184.564 103.447 185.085ZM63.543 187.931C62.878 189.007 64.835 190.498 65.733 189.6C66.063 189.27 65.696 188.993 64.917 188.985C63.75 188.972 63.765 188.798 65 188C65.901 187.418 66.025 187.025 65.309 187.015C64.654 187.007 63.859 187.419 63.543 187.931ZM58.638 189.5C58.955 190.325 59.827 191 60.576 191C61.375 191 61.7 190.381 61.362 189.5C61.045 188.675 60.173 188 59.424 188C58.625 188 58.3 188.619 58.638 189.5ZM75 190.441C75 190.684 74.55 191.16 74 191.5C73.45 191.84 73 191.641 73 191.059C73 190.477 73.45 190 74 190C74.55 190 75 190.198 75 190.441ZM116.083 190.25C116.313 190.387 117.85 191.625 119.5 193L122.5 195.5L120.076 192.75C118.742 191.238 117.205 190 116.659 190C116.113 190 115.854 190.113 116.083 190.25ZM52.75 191.662C53.438 191.94 54.563 191.94 55.25 191.662C55.938 191.385 55.375 191.158 54 191.158C52.625 191.158 52.063 191.385 52.75 191.662ZM51 195.2C51 196.815 50.704 197.104 49.887 196.287C49.275 195.675 49.077 194.685 49.446 194.087C50.481 192.413 51 192.785 51 195.2Z" fill="#5F7C20"/>
<path fill-rule="evenodd" clip-rule="evenodd" d="M0 125V250H125H250V125V0H125H0V125ZM189 50.004C189 50.756 189.582 50.759 190.977 50.012C192.513 49.19 192.842 49.249 192.448 50.275C191.808 51.942 196.481 56.438 197.926 55.546C198.541 55.165 198.994 55.654 198.986 56.691C198.965 59.544 197.84 63.019 197.089 62.555C196.712 62.322 195.751 62.545 194.952 63.051C193.806 63.776 193.952 63.973 195.643 63.985C198.193 64.003 199.318 66.243 197.672 68.025C196.762 69.01 196.801 69.122 197.846 68.528C198.806 67.982 199.083 68.299 198.81 69.632C198.591 70.702 197.728 71.382 196.789 71.223C195.888 71.071 194.442 71.959 193.575 73.196C192.709 74.433 191.986 75.007 191.968 74.473C191.951 73.938 191.276 74.374 190.468 75.441C189.661 76.509 189 76.959 189 76.441C189 75.924 186.75 75.538 184 75.584C181.25 75.63 179 75.292 179 74.834C179 74.375 178.058 74 176.906 74C175.654 74 174.603 73.197 174.29 72C174.002 70.9 173.343 70 172.824 70C172.306 70 172.129 69.6 172.431 69.111C172.734 68.622 172.598 66.174 172.131 63.671C171.573 60.688 171.646 58.754 172.34 58.06C173.087 57.313 172.971 56.981 171.95 56.937C171.153 56.902 171.541 56.456 172.814 55.945C174.206 55.387 174.842 54.554 174.41 53.854C173.979 53.157 174.126 52.96 174.776 53.362C175.373 53.731 176.144 53.575 176.49 53.016C176.835 52.457 176.641 52 176.059 52C175.477 52 175 51.622 175 51.161C175 50.699 176.368 50.403 178.039 50.502C179.71 50.602 181.254 50.399 181.469 50.051C182.16 48.933 189 48.89 189 50.004ZM169.5 63.882C169.5 64.537 170.175 65.5 171 66.021C172.333 66.864 172.333 66.973 171 67C170.175 67.017 168.854 67.439 168.064 67.939C166.817 68.729 166.817 69.074 168.064 70.577C169.253 72.009 169.5 78.505 169.5 108.403C169.5 150.167 169.18 157.636 167.253 160.831C166.48 162.113 166.084 163.777 166.373 164.53C166.714 165.418 166.389 165.703 165.449 165.342C164.566 165.003 164 165.394 164 166.343C164 167.2 163.391 168.26 162.646 168.7C161.901 169.14 160.76 170.512 160.111 171.75C159.461 172.988 158.383 173.993 157.715 173.985C156.933 173.975 157.034 173.585 158 172.89C159.248 171.993 159.192 171.911 157.668 172.406C156.661 172.733 155.622 173 155.359 173C155.097 173 155.207 173.526 155.605 174.17C156.091 174.957 155.783 175.131 154.664 174.701C153.749 174.35 153 174.525 153 175.09C153 175.656 152.581 175.859 152.069 175.543C151.557 175.226 150.899 175.354 150.607 175.826C150.315 176.299 148.147 176.643 145.788 176.593L141.5 176.5L141.239 135.066C141.042 103.854 141.271 93.45 142.168 92.896C143.899 91.826 143.995 88.065 142.275 88.725C141.249 89.118 141.054 88.632 141.51 86.818C141.846 85.478 142.219 83.734 142.339 82.941C142.458 82.149 142.951 80.868 143.433 80.095C144.074 79.068 143.932 78.887 142.905 79.42C142.132 79.82 142.281 79.508 143.234 78.725C144.188 77.943 144.676 77.009 144.318 76.651C143.96 76.293 144.24 76 144.94 76C145.734 76 145.965 75.352 145.554 74.28C145.191 73.335 145.212 72.879 145.601 73.268C145.99 73.656 147.592 72.63 149.163 70.987C150.733 69.344 152.512 68 153.116 68C153.72 68 153.969 67.362 153.67 66.583C153.032 64.92 155.055 63.933 157.955 64.491C159.08 64.708 160 64.431 160 63.875C160 63.32 160.787 63.11 161.75 63.41C162.713 63.709 164.123 63.563 164.884 63.085C166.736 61.922 169.5 62.399 169.5 63.882ZM186.813 62.683C187.534 62.972 188.397 62.936 188.729 62.604C189.061 62.272 188.471 62.036 187.417 62.079C186.252 62.127 186.015 62.364 186.813 62.683ZM156.459 75.067C156.096 75.653 156.014 76.348 156.276 76.61C156.538 76.872 157.019 76.392 157.345 75.543C158.021 73.781 157.445 73.471 156.459 75.067ZM149.62 83.594C144.593 89.303 145.356 89.251 151 83.5C153.429 81.025 154.985 79.042 154.458 79.094C153.931 79.146 151.754 81.171 149.62 83.594ZM147.924 82.75L145.5 85.5L148.25 83.076C150.82 80.81 151.459 80 150.674 80C150.495 80 149.258 81.237 147.924 82.75ZM120 89.014C120.275 89.137 120.838 89.184 121.25 89.118C121.662 89.053 122 89.441 122 89.98C122 90.52 123.339 90.805 124.976 90.614C126.657 90.419 127.7 90.676 127.373 91.206C127.054 91.722 128.965 94.225 131.619 96.769C134.274 99.313 135.783 101.047 134.973 100.623C134.163 100.199 134.4 100.592 135.5 101.496C136.6 102.401 137.372 103.607 137.215 104.176C137.058 104.745 137.32 105.726 137.797 106.355C138.273 106.985 138.781 111.548 138.925 116.497C139.069 121.445 139.354 125.764 139.559 126.095C139.763 126.426 139.91 140.152 139.885 156.598C139.814 202.422 139.879 201.754 135.666 200.369C134.475 199.978 132.713 199.706 131.75 199.766C130.787 199.827 130 199.425 130 198.875C130 198.325 129.121 198.015 128.048 198.187C126.974 198.359 125.365 197.6 124.473 196.5C123.581 195.4 123.133 195.057 123.478 195.739C124.598 197.954 120.95 195.883 117.295 192.228C115.01 189.943 113.997 188.121 114.321 186.88C114.592 185.844 114.405 185.249 113.907 185.558C113.408 185.866 112.948 185.304 112.885 184.309C112.683 181.144 112.518 180.548 111.21 178.25C110.32 176.685 110.271 176 111.05 176C112.321 176 111.942 143.968 110.63 140.5C110.213 139.4 110.591 139.738 111.468 141.25C113.265 144.347 114.639 145.062 113.035 142.066C112.398 140.875 112 130.171 112 114.227V88.322L115.75 88.557C117.813 88.686 119.725 88.892 120 89.014ZM104.5 110C103.965 110.866 106.857 111.522 109.324 111.094C109.778 111.015 109.922 111.317 109.645 111.765C109.368 112.213 109.036 121.465 108.906 132.325C108.739 146.3 109.011 152.411 109.835 153.235C110.476 153.876 110.993 154.872 110.985 155.45C110.976 156.027 110.61 155.934 110.17 155.241C109.714 154.523 109.308 156.601 109.225 160.08C109.144 163.434 108.805 167.038 108.472 168.089C108.138 169.14 108.314 170 108.863 170C110.299 170 108.366 176.235 106.504 177.61C105.677 178.221 105 179.233 105 179.86C105 180.487 104.522 181 103.937 181C103.353 181 103.015 181.999 103.187 183.221C103.438 185 103.003 185.447 101 185.471C99.291 185.491 98.54 186.029 98.626 187.171C98.7 188.158 98.221 188.638 97.454 188.344C96.74 188.07 95.109 188.426 93.828 189.135C92.548 189.845 91.162 190.329 90.75 190.212C90.338 190.096 90 190.354 90 190.788C90 191.221 88.16 191.648 85.911 191.738L81.822 191.901L82.03 186.201C82.145 183.065 82.179 180.275 82.106 180C81.663 178.337 81.968 130.698 82.424 130.242C82.731 129.935 82.545 129.156 82.009 128.511C81.349 127.715 81.653 126.676 82.958 125.276C84.015 124.141 84.569 122.902 84.19 122.523C83.81 122.144 84.175 121.983 85 122.167C85.83 122.351 86.377 121.909 86.225 121.176C86.074 120.447 86.331 120.087 86.797 120.374C87.262 120.662 88.399 120.015 89.322 118.937C91.308 116.617 91.493 115.603 89.75 116.588C89.063 116.976 89.494 116.328 90.708 115.147C93.007 112.912 94.569 112.27 93.5 114C92.787 115.154 93.209 115.241 95.412 114.395C96.279 114.063 96.71 113.339 96.369 112.788C95.989 112.173 96.539 112.036 97.791 112.434C98.913 112.79 100.109 112.633 100.448 112.084C100.787 111.536 101.743 111.348 102.573 111.666C103.403 111.985 104.01 111.853 103.922 111.373C103.674 110.013 103.946 109 104.559 109C104.866 109 104.84 109.45 104.5 110ZM130.459 110.067C130.096 110.653 130.014 111.348 130.276 111.61C130.538 111.872 131.019 111.392 131.345 110.543C132.021 108.781 131.445 108.471 130.459 110.067ZM106 151.941C106 152.459 106.45 153.16 107 153.5C107.55 153.84 108 153.416 108 152.559C108 151.702 107.55 151 107 151C106.45 151 106 151.423 106 151.941ZM79.143 154.786C78.374 155.042 78 158.922 78 166.642C78 175.557 78.279 177.95 79.25 177.367C80.247 176.768 80.249 176.926 79.259 178.15C78.576 178.994 78.313 179.98 78.675 180.342C79.037 180.704 78.793 181 78.131 181C77.197 181 77.196 181.5 78.129 183.25C79.203 185.266 79.16 185.362 77.716 184.171C76.539 183.2 75.619 183.125 74.302 183.891C72.715 184.814 72.698 184.943 74.162 184.97C76.038 185.004 76.022 188.159 74.142 188.786C72.536 189.321 69.773 194.824 70.511 196.018C70.842 196.554 70.413 196.712 69.539 196.377C68.679 196.046 67.325 196.315 66.531 196.974C65.737 197.633 64.618 197.882 64.044 197.527C63.47 197.172 63 197.26 63 197.723C63 198.185 61.851 198.659 60.447 198.775C59.043 198.891 57.047 199.439 56.013 199.993C53.134 201.534 51 201.196 51 199.2C51 198.21 50.508 196.908 49.907 196.307C48.407 194.807 51.449 190.256 54.326 189.696C55.902 189.389 55.655 189.235 53.429 189.136L50.358 189L51.166 182.287C51.635 178.392 51.592 175.192 51.065 174.665C49.721 173.321 50.907 170.845 54.357 167.792C56.04 166.302 57.097 164.764 56.706 164.373C55.65 163.317 59.025 160 61.155 160C62.17 160 63 159.602 63 159.117C63 158.259 66.739 156.674 68.25 156.892C68.662 156.951 69 156.564 69 156.031C69 155.499 69.629 155.304 70.399 155.6C71.168 155.895 72.067 155.7 72.397 155.167C72.726 154.634 74.636 154.244 76.641 154.301C78.646 154.358 79.772 154.576 79.143 154.786ZM102.609 156.824C102.256 157.395 102.455 158.163 103.05 158.531C104.536 159.449 105.062 158.719 104.071 157.114C103.539 156.255 103.024 156.152 102.609 156.824ZM100.872 162.75C99.629 164.336 99.664 164.371 101.25 163.128C102.213 162.373 103 161.585 103 161.378C103 160.555 102.179 161.084 100.872 162.75ZM90.004 172.496C88.714 173.869 87.848 175.16 88.079 175.364C88.311 175.569 89.547 174.446 90.826 172.868C93.689 169.338 93.185 169.11 90.004 172.496ZM83.543 177.931C82.878 179.007 84.835 180.498 85.733 179.6C86.063 179.27 85.782 179 85.108 179C84.434 179 84.16 178.55 84.5 178C84.84 177.45 84.893 177 84.618 177C84.343 177 83.859 177.419 83.543 177.931ZM81.457 182.069C81.141 182.581 80.346 182.964 79.691 182.921C78.839 182.865 78.857 182.698 79.756 182.336C80.447 182.057 80.715 181.348 80.352 180.76C79.958 180.123 80.164 179.983 80.862 180.415C81.506 180.813 81.774 181.557 81.457 182.069ZM49.683 184.188C49.364 184.985 49.127 184.748 49.079 183.583C49.036 182.529 49.272 181.939 49.604 182.271C49.936 182.603 49.972 183.466 49.683 184.188ZM63.543 187.931C62.878 189.007 64.835 190.498 65.733 189.6C66.063 189.27 65.696 188.993 64.917 188.985C63.75 188.972 63.765 188.798 65 188C65.901 187.418 66.025 187.025 65.309 187.015C64.654 187.007 63.859 187.419 63.543 187.931ZM59 189.5C59 190.325 59.45 191 60 191C60.55 191 61 190.325 61 189.5C61 188.675 60.55 188 60 188C59.45 188 59 188.675 59 189.5ZM75 190.441C75 190.684 74.55 191.16 74 191.5C73.45 191.84 73 191.641 73 191.059C73 190.477 73.45 190 74 190C74.55 190 75 190.198 75 190.441ZM116.083 190.25C116.313 190.387 117.85 191.625 119.5 193L122.5 195.5L120.076 192.75C118.742 191.238 117.205 190 116.659 190C116.113 190 115.854 190.113 116.083 190.25Z" fill="#365400"/>
<path fill-rule="evenodd" clip-rule="evenodd" d="M0 125V250H125H250V125V0H125H0V125ZM192.314 50.301C191.625 51.416 196.925 56.164 198.069 55.457C198.581 55.141 199 55.997 199 57.359C199 60.442 198.017 63.129 197.097 62.56C196.716 62.325 195.751 62.545 194.952 63.051C193.857 63.744 194.154 63.973 196.162 63.985C198.84 64 199.265 65.185 197.567 67.905C196.943 68.904 197.051 69.086 197.942 68.536C198.807 68.001 199.074 68.339 198.81 69.632C198.591 70.702 197.728 71.382 196.789 71.223C195.888 71.071 194.442 71.959 193.575 73.196C192.709 74.433 191.986 75.007 191.968 74.473C191.951 73.938 191.276 74.374 190.468 75.441C189.661 76.509 189 76.959 189.001 76.441C189.002 75.924 186.752 75.569 184.001 75.653C181.25 75.738 179 75.4 179 74.903C179 74.407 178.058 74 176.906 74C175.654 74 174.603 73.197 174.29 72C174.002 70.9 173.482 70 173.133 70C172.785 70 172.405 68.987 172.288 67.75C172.171 66.513 171.878 64.036 171.637 62.248C171.396 60.459 171.652 58.715 172.206 58.373C172.83 57.987 172.697 57.423 171.857 56.89C170.8 56.221 170.887 56.027 172.25 56.015C173.213 56.007 174 55.325 174 54.5C174 53.675 174.787 52.964 175.75 52.921C176.795 52.874 176.997 52.639 176.25 52.338C175.563 52.06 175 51.394 175 50.858C175 50.321 175.376 50.114 175.836 50.398C176.295 50.683 177.983 50.553 179.586 50.11C183.278 49.089 192.972 49.235 192.314 50.301ZM169.5 63.882C169.5 64.537 170.175 65.5 171 66.021C172.303 66.845 172.287 66.971 170.872 66.985C168.621 67.006 166.453 69.651 168.208 70.236C169.233 70.577 169.5 78.302 169.5 107.583C169.5 151.184 169.229 157.736 167.301 160.831C166.502 162.113 166.084 163.777 166.373 164.53C166.714 165.418 166.389 165.703 165.449 165.342C164.566 165.003 164 165.394 164 166.343C164 167.2 163.391 168.26 162.646 168.7C161.901 169.14 160.76 170.512 160.111 171.75C159.461 172.988 158.383 173.993 157.715 173.985C156.952 173.975 157.058 173.609 158 173C158.918 172.407 159.034 172.025 158.3 172.015C157.64 172.007 156.729 172.662 156.276 173.472C155.823 174.281 154.563 175.082 153.476 175.251C152.389 175.42 151.05 175.826 150.5 176.153C149.95 176.48 147.7 176.692 145.5 176.624L141.5 176.5L141.239 135.116C141.051 105.397 141.297 93.347 142.111 92.366C142.939 91.369 142.947 90.641 142.143 89.672C141.406 88.785 141.343 87.292 141.951 85.172C142.451 83.427 142.612 82 142.308 82C142.004 82 142.373 81.239 143.128 80.308C144.204 78.981 144.215 78.788 143.176 79.413C142.08 80.073 142.078 79.848 143.167 78.105C143.89 76.947 144.871 76 145.348 76C145.824 76 145.917 75.226 145.554 74.28C145.191 73.335 145.203 72.87 145.58 73.247C146.385 74.052 153.618 67.061 153.25 65.833C153.112 65.375 153.337 64.943 153.75 64.872C154.162 64.802 155.4 64.588 156.5 64.396C157.6 64.205 160.037 63.812 161.917 63.524C163.796 63.236 165.514 62.82 165.735 62.599C166.581 61.753 169.5 62.747 169.5 63.882ZM146.872 86.75C145.629 88.336 145.664 88.371 147.25 87.128C148.213 86.373 149 85.585 149 85.378C149 84.555 148.179 85.084 146.872 86.75ZM119.75 89.299C120.438 89.819 121 89.91 121 89.5C121 89.09 121.563 89.199 122.25 89.741C122.938 90.283 124.492 90.64 125.704 90.534C126.916 90.428 127.693 90.687 127.432 91.11C126.824 92.093 132.115 97.047 133.113 96.43C133.525 96.176 134.187 96.494 134.585 97.138C135.037 97.869 134.876 98.041 134.155 97.595C132.343 96.476 132.805 98.12 134.75 99.714C135.895 100.652 135.981 100.924 135 100.5C134.175 100.143 134.4 100.592 135.5 101.496C136.6 102.401 137.372 103.607 137.215 104.176C137.058 104.745 137.339 105.726 137.84 106.355C138.341 106.985 138.836 111.529 138.942 116.453C139.047 121.378 139.313 125.697 139.532 126.052C139.921 126.682 140.02 180.601 139.654 192.5C139.552 195.8 139.131 199.033 138.716 199.684C137.882 200.997 131.316 200.363 129.294 198.775C128.63 198.254 127.615 198.12 127.037 198.477C126.459 198.835 125.752 198.518 125.467 197.774C125.181 197.03 123.988 196.349 122.814 196.261C120.554 196.091 118.789 194.151 119.64 192.773C119.92 192.321 119.778 192.015 119.324 192.094C116.181 192.64 113.828 189.349 112.627 182.727C112.372 181.324 111.661 179.236 111.047 178.088C110.223 176.548 110.224 176 111.05 176C112.324 176 111.94 143.953 110.624 140.5C109.998 138.856 110.097 138.89 111.181 140.688C112.29 142.527 112.453 138.498 112.205 115.418L111.909 87.961L115.205 88.158C117.017 88.266 119.063 88.779 119.75 89.299ZM104.5 110C104.144 110.576 105.073 110.999 106.691 110.998L109.5 110.997L108.99 130.748C108.607 145.588 108.793 151.051 109.74 152.715C111.143 155.181 111.462 157.278 110.11 155.143C109.589 154.322 109.225 157.183 109.188 162.393C109.153 167.127 109.097 171.9 109.063 173C109.028 174.1 108.178 175.822 107.174 176.826C105.117 178.883 103.654 181.766 103.533 184C103.488 184.847 102.701 185.372 101.726 185.206C100.777 185.045 100 185.409 100 186.015C100 186.622 99.474 186.793 98.83 186.395C98.051 185.913 97.867 186.211 98.279 187.285C98.702 188.387 98.464 188.732 97.527 188.372C96.773 188.083 95.109 188.426 93.828 189.135C92.548 189.845 91.162 190.329 90.75 190.212C90.338 190.096 90 190.382 90 190.848C90 191.782 84.413 192.201 81.933 191.454C80.81 191.115 80.447 189.954 80.651 187.356C80.808 185.361 81.172 183.495 81.46 183.207C81.747 182.919 81.473 182.07 80.85 181.319C79.957 180.243 80.058 180.085 81.33 180.573C82.801 181.138 82.808 180.922 81.404 178.109C80.558 176.413 80.107 174.636 80.401 174.16C80.695 173.684 80.983 164.09 81.04 152.84C81.097 141.591 81.535 131.752 82.014 130.977C82.518 130.162 82.495 129.097 81.961 128.453C81.363 127.733 81.716 126.608 82.958 125.276C84.015 124.141 84.569 122.868 84.19 122.446C83.81 122.024 84.012 121.972 84.639 122.33C85.277 122.694 87.006 121.37 88.57 119.319C90.106 117.305 90.719 116.026 89.931 116.476C89.144 116.926 89.494 116.328 90.708 115.147C93.007 112.912 94.569 112.27 93.5 114C92.787 115.154 93.209 115.241 95.412 114.395C96.279 114.063 96.756 113.415 96.473 112.956C96.189 112.497 96.754 112.1 97.728 112.074C101.742 111.966 102.939 111.601 103.426 110.333C103.707 109.6 104.203 109 104.528 109C104.852 109 104.84 109.45 104.5 110ZM106.543 151.931C106.226 152.443 106.425 153.144 106.984 153.49C107.543 153.835 108 153.416 108 152.559C108 150.802 107.4 150.544 106.543 151.931ZM79.279 166.239C79.157 172.761 78.88 178.413 78.663 178.799C78.446 179.184 78.335 180.711 78.415 182.19C78.525 184.212 78.256 184.627 77.333 183.861C76.497 183.168 75.529 183.177 74.302 183.891C72.715 184.814 72.698 184.943 74.162 184.97C76.136 185.006 75.98 187.767 73.93 189.065C72.846 189.751 72.817 189.973 73.809 189.985C74.529 189.993 74.835 190.457 74.49 191.016C74.144 191.575 73.465 191.788 72.981 191.488C71.858 190.794 69.709 194.72 70.506 196.009C70.843 196.555 70.421 196.715 69.539 196.377C68.679 196.046 67.399 196.254 66.696 196.837C65.993 197.42 63.997 198.148 62.261 198.454C60.524 198.76 57.925 199.458 56.486 200.005C52.641 201.467 51 201.226 51 199.2C51 198.21 50.508 196.908 49.907 196.307C49.116 195.516 49.318 194.445 50.636 192.433C51.655 190.877 52.017 189.506 51.457 189.319C50.838 189.113 50.692 186.412 51.074 182.243C51.414 178.534 51.347 175.108 50.924 174.628C49.811 173.364 50.94 170.821 53.727 168.316C55.064 167.115 56.247 165.54 56.357 164.816C56.467 164.092 56.89 162.966 57.298 162.314C58.085 161.054 68.49 155.692 70.808 155.352C71.564 155.241 72.397 154.937 72.657 154.676C72.918 154.415 74.565 154.242 76.316 154.292L79.5 154.382L79.279 166.239ZM103.079 157.583C103.127 158.748 103.364 158.985 103.683 158.188C103.972 157.466 103.936 156.603 103.604 156.271C103.272 155.939 103.036 156.529 103.079 157.583ZM90.004 172.496C88.714 173.869 87.848 175.16 88.079 175.364C88.311 175.569 89.547 174.446 90.826 172.868C93.689 169.338 93.185 169.11 90.004 172.496ZM49.683 184.188C49.364 184.985 49.127 184.748 49.079 183.583C49.036 182.529 49.272 181.939 49.604 182.271C49.936 182.603 49.972 183.466 49.683 184.188ZM59.667 188.667C59.3 189.033 59 189.798 59 190.367C59 190.993 59.466 190.934 60.183 190.217C60.834 189.566 61.134 188.801 60.85 188.517C60.566 188.232 60.033 188.3 59.667 188.667ZM53.813 189.683C54.534 189.972 55.397 189.936 55.729 189.604C56.061 189.272 55.471 189.036 54.417 189.079C53.252 189.127 53.015 189.364 53.813 189.683Z" fill="#1E3700"/>
<path fill-rule="evenodd" clip-rule="evenodd" d="M0 125V250H125H250V125V0H125H0V125ZM192.402 49.931C191.703 50.63 197.232 55.975 198.1 55.438C198.536 55.169 198.837 58.583 198.768 63.025C198.699 67.468 198.204 71.374 197.667 71.706C197.079 72.069 197.013 71.75 197.5 70.905C197.945 70.132 196.978 70.737 195.35 72.25C193.722 73.763 191.853 75 191.195 75C190.538 75 190 75.341 190 75.757C190 76.984 180.781 75.991 177.25 74.385C175.463 73.572 174 72.252 174 71.453C174 70.654 173.564 70 173.031 70C172.499 70 172.322 69.325 172.638 68.5C173.391 66.539 169.693 66.46 168.081 68.403C167.186 69.48 167.216 69.906 168.208 70.238C169.238 70.582 169.493 79.471 169.466 114.085C169.435 153.547 169.272 157.799 167.675 160.779C166.709 162.583 166.231 164.565 166.614 165.184C166.999 165.807 166.864 166.034 166.312 165.693C165.763 165.354 163.801 167.097 161.951 169.566C160.06 172.089 158.02 173.838 157.293 173.559C156.582 173.286 156 173.427 156 173.873C156 175.043 148.887 177 144.634 177H141V135.2C141 104.872 141.318 93.082 142.158 92.242C142.985 91.415 143.01 90.716 142.245 89.792C141.567 88.974 141.46 86.941 141.953 84.25C142.381 81.912 142.536 80 142.298 80C142.059 80 142.781 78.712 143.902 77.137C145.024 75.563 145.617 73.875 145.22 73.387C144.824 72.899 144.852 72.778 145.283 73.117C146.156 73.804 153.552 66.933 153.214 65.75C153.096 65.338 153.338 64.943 153.75 64.872C154.163 64.802 155.4 64.591 156.5 64.404C157.6 64.217 160.3 63.696 162.5 63.247C167.817 62.162 169.5 62.263 169.5 63.667C169.5 66.779 171.019 65.858 171.15 62.667C171.233 60.65 171.345 58.438 171.4 57.75C171.455 57.063 172.444 55.6 173.598 54.5C174.752 53.4 175.481 51.875 175.218 51.111C174.955 50.347 175.175 49.99 175.706 50.318C176.237 50.646 177.983 50.553 179.586 50.11C182.547 49.291 193.19 49.143 192.402 49.931ZM121.981 89.493C124.308 90.314 126.685 90.695 127.261 90.339C127.837 89.982 128.03 90.142 127.69 90.692C127.102 91.643 132.154 97.303 133.407 97.098C133.733 97.044 134.038 97.338 134.085 97.75C134.132 98.162 134.637 99.063 135.207 99.75C135.778 100.438 135.852 101.007 135.372 101.015C134.893 101.024 135.143 101.438 135.93 101.935C136.716 102.433 137.554 103.664 137.792 104.67C138.934 109.497 139.835 133.198 139.838 158.5C139.843 194.515 139.708 198.698 138.5 199.875C137.146 201.194 129.199 199.63 123.621 196.947C113.664 192.156 110.791 184.212 110.983 162C111.135 144.504 111.127 143.094 110.87 141C110.768 140.175 110.756 127.912 110.842 113.75L111 88H114.374C116.23 88 119.653 88.672 121.981 89.493ZM104.5 110C104.138 110.585 105.176 111 107 111C108.715 111 109.89 111.369 109.611 111.821C109.163 112.546 109.019 126.892 109.093 163.406C109.114 174.006 109.028 174.433 106.038 178.597C104.345 180.954 103.082 183.471 103.23 184.191C103.379 184.911 102.913 185.379 102.196 185.232C100.607 184.906 97.831 187.498 98.767 188.434C99.137 188.803 98.591 188.78 97.555 188.383C96.144 187.841 95.877 187.992 96.49 188.985C97.027 189.853 96.922 190.07 96.184 189.614C95.565 189.231 93.67 189.636 91.973 190.514C90.169 191.447 87.146 191.983 84.694 191.805L80.5 191.5L80.711 187.25C80.848 184.489 80.498 182.988 79.711 182.965C79.045 182.945 79.625 182.239 81 181.395C82.375 180.552 82.825 180.061 82 180.304C80.824 180.65 80.529 179.856 80.636 176.623C80.711 174.355 80.89 162.246 81.033 149.714C81.288 127.293 81.33 126.893 83.629 124.714C84.914 123.496 85.973 122.141 85.983 121.702C85.992 121.263 87.237 119.764 88.75 118.371C90.263 116.978 90.825 116.166 90 116.566C89.175 116.967 89.494 116.328 90.708 115.147C93.001 112.918 94.57 112.268 93.507 113.989C93.157 114.555 93.558 114.723 94.448 114.382C95.302 114.054 96 113.384 96 112.893C96 112.402 97.039 112 98.309 112C99.579 112 101.491 111.339 102.559 110.532C104.872 108.782 105.33 108.657 104.5 110ZM106.5 152C106.16 152.55 106.359 153 106.941 153C107.523 153 108 152.55 108 152C108 151.45 107.802 151 107.559 151C107.316 151 106.84 151.45 106.5 152ZM79.279 166.048C79.157 172.675 78.88 178.413 78.663 178.799C78.446 179.184 78.335 180.73 78.417 182.232C78.505 183.861 78.199 184.599 77.66 184.06C77.163 183.563 76.098 183.409 75.294 183.717C74.186 184.143 74.13 184.462 75.062 185.038C75.842 185.52 75.995 186.475 75.482 187.649C75.037 188.667 74.613 189.95 74.541 190.5C74.468 191.05 73.88 191.392 73.234 191.26C71.8 190.967 69.675 194.666 70.506 196.009C70.843 196.555 70.421 196.715 69.539 196.377C68.679 196.046 67.418 196.236 66.737 196.799C65.541 197.787 54.352 201 52.106 201C51.498 201 51 200.19 51 199.2C51 198.21 50.508 196.908 49.907 196.307C49.116 195.516 49.255 194.54 50.41 192.777C51.289 191.437 51.733 190.066 51.398 189.731C51.063 189.396 50.806 185.037 50.827 180.043C50.862 171.483 51.025 170.793 53.682 167.979C55.232 166.337 56.507 164.657 56.515 164.247C56.55 162.545 58.263 161.072 63.241 158.462C69.497 155.183 72.469 154.201 76.5 154.086L79.5 154L79.279 166.048ZM49.683 184.188C49.364 184.985 49.127 184.748 49.079 183.583C49.036 182.529 49.272 181.939 49.604 182.271C49.936 182.603 49.972 183.466 49.683 184.188Z" fill="black"/>
</svg>
