<svg width="64" height="64" viewBox="0 0 64 64" fill="none" xmlns="http://www.w3.org/2000/svg">
<path fill-rule="evenodd" clip-rule="evenodd" d="M0 32V64H32H64V32V0H32H0V32Z" fill="#BEACFE"/>
<path fill-rule="evenodd" clip-rule="evenodd" d="M0 32V64H32H64V32V0H32H0V32ZM47 28.5V45H30H13V48V51H31.937H50.873L51.277 47.75C51.674 44.55 51.682 44.558 51.84 48.25L52 52H32H12V48V44H29H46V28.5V13H32.47H18.94L19.22 25.75L19.5 38.5L30.5 39.052L41.5 39.605L29.75 39.802L18 40V26V12H32.5H47V28.5Z" fill="#9587C6"/>
<path fill-rule="evenodd" clip-rule="evenodd" d="M0 32V64H32H64V32V0H32H0V32ZM47 28.5V46H30H13V48.5V51H32H51V47.3C51 44.666 51.309 43.909 52.073 44.673C52.663 45.263 53 47.265 52.823 49.123L52.5 52.5H32H11.5L11.194 48.274L10.887 44.048L28.194 43.774L45.5 43.5V28.5V13.5L32.25 13.221L19 12.942V25.471V38H29.941C36.378 38 41.144 38.425 41.519 39.031C41.947 39.724 38.187 39.97 30.075 39.781C23.43 39.627 17.995 39.163 17.997 38.75C17.998 38.337 18 31.925 18 24.5V11H32.5H47V28.5Z" fill="#7A6FA1"/>
<path fill-rule="evenodd" clip-rule="evenodd" d="M0 32V64H32H64V32V0H32H0V32ZM47 28.5V46H29.93H12.861L13.18 48.25C13.499 50.491 13.576 50.5 32 50.5H50.5L50.815 47.231C51.248 42.735 53 44.201 53 49.059V53H32H11V48.5V44H28H45V28.47V12.94L32.25 13.22L19.5 13.5L19.219 25.75L18.938 38H30.469C37.49 38 42 38.391 42 39C42 39.613 37.167 40 29.5 40H17V26.167C17 18.558 17.3 12.033 17.667 11.667C18.033 11.3 24.783 11 32.667 11H47V28.5Z" fill="#675E88"/>
<path fill-rule="evenodd" clip-rule="evenodd" d="M0 32V64H32H64V32V0H32H0V32ZM47.5 28.5V45.5L30.184 45.774C12.922 46.047 12.868 46.055 13.184 48.274C13.498 50.484 13.635 50.5 32 50.5H50.5L50.813 47.25C51.285 42.363 53 43.344 53 48.5V53H32H11V48.5V44H28H45V28.5V13H32.5H20V25.5V38H31C37.667 38 42 38.394 42 39C42 39.613 37.167 40 29.5 40H17V25.474V10.948L32.25 11.224L47.5 11.5V28.5Z" fill="#4B4560"/>
<path fill-rule="evenodd" clip-rule="evenodd" d="M0 32V64H32H64V32V0H32H0V32ZM48 28.5V46H31C14.667 46 14 46.078 14 48C14 49.926 14.667 50 32 50H50V47C50 45 50.5 44 51.5 44C52.611 44 53 45.167 53 48.5V53H31.945H10.89L11.195 48.25L11.5 43.5L28.25 43.226L45 42.952V28.476V14H32.5H20V26V38H31C37.667 38 42 38.394 42 39C42 39.613 37.167 40 29.5 40H17V25.5V11H32.5H48V28.5Z" fill="#3A364A"/>
<path fill-rule="evenodd" clip-rule="evenodd" d="M0 32V64H32H64V32V0H32H0V32ZM48 28.5V46H31C14.667 46 14 46.078 14 48C14 49.926 14.667 50 32 50H50V47C50 45 50.5 44 51.5 44C52.611 44 53 45.167 53 48.5V53H32H11V48V43H28H45V28.5V14H32.5H20V26V38H31C40.111 38 42 38.258 42 39.5C42 40.753 39.944 41 29.5 41H17V26V11H32.5H48V28.5Z" fill="#212028"/>
<path fill-rule="evenodd" clip-rule="evenodd" d="M0 32V64H32H64V32V0H32H0V32ZM47.773 28.415L48.046 46H31.023C14.667 46 14 46.078 14 48C14 49.926 14.667 50 32 50H50V47C50 44.953 50.494 44 51.555 44C52.786 44 53.046 44.989 52.805 48.75C52.61 51.791 52.05 53.464 51.25 53.4C50.563 53.345 41.225 53.232 30.5 53.15L11 53V48V43H28H45V28.5V14H32.5H20V25.5V37H31C41.333 37 42 37.121 42 39C42 40.893 41.333 41 29.5 41H17V26.167C17 18.008 17.187 11.146 17.416 10.917C17.645 10.688 24.508 10.574 32.666 10.665L47.5 10.83L47.773 28.415Z" fill="#111111"/>
</svg>
