<svg width="33" height="66" viewBox="0 0 64 66" fill="none" xmlns="http://www.w3.org/2000/svg">
<path fill-rule="evenodd" clip-rule="evenodd" d="M18.31 2.946C12.519 5.575 5.893 11.94 2.968 17.683C1.016 21.514 0.442 24.377 0.163 31.666C-0.152 39.92 0.0839999 41.437 2.542 46.914C5.611 53.752 11.819 60.107 18.31 63.054C24.228 65.741 39.772 65.741 45.69 63.054C51.481 60.425 58.107 54.06 61.032 48.317C62.984 44.486 63.558 41.623 63.837 34.334C64.152 26.08 63.916 24.563 61.458 19.086C58.389 12.248 52.181 5.893 45.69 2.946C39.772 0.259002 24.228 0.259002 18.31 2.946Z" fill="#2AF7C4"/>
<path fill-rule="evenodd" clip-rule="evenodd" d="M18.31 2.946C12.519 5.575 5.893 11.94 2.968 17.683C1.016 21.514 0.442 24.377 0.163 31.666C-0.152 39.92 0.0839999 41.437 2.542 46.914C5.611 53.752 11.819 60.107 18.31 63.054C24.228 65.741 39.772 65.741 45.69 63.054C51.481 60.425 58.107 54.06 61.032 48.317C62.984 44.486 63.558 41.623 63.837 34.334C64.152 26.08 63.916 24.563 61.458 19.086C58.389 12.248 52.181 5.893 45.69 2.946C39.772 0.259002 24.228 0.259002 18.31 2.946ZM22 33C22 37 21.571 40 21 40C20.429 40 20 37 20 33C20 29 20.429 26 21 26C21.571 26 22 29 22 33ZM28.937 33.25C28.883 37.694 28.724 38.126 27.899 36.061C27.025 33.874 27.521 28 28.579 28C28.811 28 28.971 30.362 28.937 33.25ZM15 33C15 35.889 14.583 37 13.5 37C12.417 37 12 35.889 12 33C12 30.111 12.417 29 13.5 29C14.583 29 15 30.111 15 33Z" fill="#1CCDAE"/>
<path fill-rule="evenodd" clip-rule="evenodd" d="M18.31 2.946C12.519 5.575 5.893 11.94 2.968 17.683C1.016 21.514 0.442 24.377 0.163 31.666C-0.152 39.92 0.0839999 41.437 2.542 46.914C5.611 53.752 11.819 60.107 18.31 63.054C24.228 65.741 39.772 65.741 45.69 63.054C51.481 60.425 58.107 54.06 61.032 48.317C62.984 44.486 63.558 41.623 63.837 34.334C64.152 26.08 63.916 24.563 61.458 19.086C58.389 12.248 52.181 5.893 45.69 2.946C39.772 0.259002 24.228 0.259002 18.31 2.946ZM22.5 33C22.5 38.369 22.202 39.53 20.75 39.81C19.215 40.105 19 39.268 19 33C19 26.732 19.215 25.895 20.75 26.19C22.202 26.47 22.5 27.631 22.5 33ZM28.921 33.25C28.852 38.717 28.714 39.149 27.82 36.696C26.896 34.163 27.432 27 28.545 27C28.795 27 28.964 29.813 28.921 33.25ZM15 33C15 36.778 14.633 38 13.5 38C12.367 38 12 36.778 12 33C12 29.222 12.367 28 13.5 28C14.633 28 15 29.222 15 33Z" fill="#004B50"/>
<path fill-rule="evenodd" clip-rule="evenodd" d="M18.31 2.946C12.519 5.575 5.893 11.94 2.968 17.683C1.016 21.514 0.442 24.377 0.163 31.666C-0.152 39.92 0.0839999 41.437 2.542 46.914C5.611 53.752 11.819 60.107 18.31 63.054C24.228 65.741 39.772 65.741 45.69 63.054C51.481 60.425 58.107 54.06 61.032 48.317C62.984 44.486 63.558 41.623 63.837 34.334C64.152 26.08 63.916 24.563 61.458 19.086C58.389 12.248 52.181 5.893 45.69 2.946C39.772 0.259002 24.228 0.259002 18.31 2.946ZM49.128 23.75C50.371 25.336 50.336 25.371 48.75 24.128C47.084 22.821 46.555 22 47.378 22C47.585 22 48.373 22.788 49.128 23.75ZM31 24C31 24.55 30.523 25 29.941 25C29.359 25 29.16 24.55 29.5 24C29.84 23.45 30.316 23 30.559 23C30.802 23 31 23.45 31 24ZM22.393 26.582C23.178 28.629 23.178 37.371 22.393 39.418C22.059 40.288 21.159 41 20.393 41C19.329 41 19 39.268 19 33.667C19 29.633 19.3 26.033 19.667 25.667C20.762 24.572 21.749 24.903 22.393 26.582ZM34 26.441C34 26.684 33.55 27.16 33 27.5C32.45 27.84 32 27.641 32 27.059C32 26.477 32.45 26 33 26C33.55 26 34 26.198 34 26.441ZM28.977 33.25L28.954 39.5L27.374 36.294C26.014 33.537 25.982 32.663 27.141 30.044C27.882 28.37 28.603 27 28.744 27C28.885 27 28.99 29.813 28.977 33.25ZM16 33.07C16 37.755 15.829 38.115 13.75 37.82C12.01 37.572 11.427 36.742 11.18 34.155C10.752 29.694 11.52 28 13.969 28C15.743 28 16 28.641 16 33.07ZM33.5 39C33.84 39.55 33.641 40 33.059 40C32.477 40 32 39.55 32 39C32 38.45 32.198 38 32.441 38C32.684 38 33.16 38.45 33.5 39ZM31 42C31 42.55 30.802 43 30.559 43C30.316 43 29.84 42.55 29.5 42C29.16 41.45 29.359 41 29.941 41C30.523 41 31 41.45 31 42ZM50 41.378C50 41.585 49.212 42.373 48.25 43.128C46.664 44.371 46.629 44.336 47.872 42.75C49.179 41.084 50 40.555 50 41.378Z" fill="#69F863"/>
<path fill-rule="evenodd" clip-rule="evenodd" d="M18.31 2.946C12.519 5.575 5.893 11.94 2.968 17.683C1.016 21.514 0.442 24.377 0.163 31.666C-0.152 39.92 0.0839999 41.437 2.542 46.914C5.611 53.752 11.819 60.107 18.31 63.054C24.228 65.741 39.772 65.741 45.69 63.054C51.481 60.425 58.107 54.06 61.032 48.317C62.984 44.486 63.558 41.623 63.837 34.334C64.152 26.08 63.916 24.563 61.458 19.086C58.389 12.248 52.181 5.893 45.69 2.946C39.772 0.259002 24.228 0.259002 18.31 2.946ZM44 21.059C44 22.27 41.062 25.429 41.032 24.25C40.993 22.74 38 22.551 38 24.059C38 24.641 37.527 24.826 36.949 24.468C35.806 23.762 30.852 28.518 31.772 29.438C32.081 29.747 31.808 30 31.167 30C30.525 30 30 31.35 30 33C30 34.65 30.525 36 31.167 36C31.808 36 32.081 36.253 31.772 36.562C30.852 37.482 35.806 42.238 36.949 41.532C37.527 41.174 38 41.359 38 41.941C38 43.449 40.993 43.26 41.032 41.75C41.062 40.571 44 43.73 44 44.941C44 45.249 41.975 45.5 39.5 45.5C37.025 45.5 35 45.136 35 44.691C35 44.246 34.597 44.131 34.105 44.435C33.612 44.74 32.95 44.312 32.633 43.485C32.315 42.658 31.501 42.098 30.823 42.241C30.145 42.383 29.553 42.05 29.508 41.5C29.462 40.95 28.602 38.813 27.598 36.75C25.83 33.119 25.83 32.881 27.598 29.25C28.602 27.188 29.462 25.05 29.508 24.5C29.553 23.95 30.145 23.617 30.823 23.759C31.501 23.902 32.315 23.342 32.633 22.515C32.95 21.688 33.612 21.26 34.105 21.565C34.597 21.869 35 21.754 35 21.309C35 20.864 37.025 20.5 39.5 20.5C41.975 20.5 44 20.751 44 21.059ZM49.128 23.75C50.371 25.336 50.336 25.371 48.75 24.128C47.084 22.821 46.555 22 47.378 22C47.585 22 48.373 22.788 49.128 23.75ZM22.393 26.582C23.178 28.629 23.178 37.371 22.393 39.418C22.059 40.288 21.159 41 20.393 41C19.329 41 19 39.268 19 33.667C19 29.633 19.3 26.033 19.667 25.667C20.762 24.572 21.749 24.903 22.393 26.582ZM46.382 26.552C46.723 27.442 46.555 27.843 45.989 27.493C45.445 27.157 45 26.459 45 25.941C45 24.503 45.717 24.82 46.382 26.552ZM16 33.07C16 37.755 15.829 38.115 13.75 37.82C12.01 37.572 11.427 36.742 11.18 34.155C10.752 29.694 11.52 28 13.969 28C15.743 28 16 28.641 16 33.07ZM46.345 39.543C46.019 40.392 45.538 40.872 45.276 40.61C45.014 40.348 45.096 39.653 45.459 39.067C46.445 37.471 47.021 37.781 46.345 39.543ZM50 41.378C50 41.585 49.212 42.373 48.25 43.128C46.664 44.371 46.629 44.336 47.872 42.75C49.179 41.084 50 40.555 50 41.378Z" fill="#57B235"/>
<path fill-rule="evenodd" clip-rule="evenodd" d="M18.31 2.946C12.519 5.575 5.893 11.94 2.968 17.683C1.016 21.514 0.442 24.377 0.163 31.666C-0.152 39.92 0.0839999 41.437 2.542 46.914C5.611 53.752 11.819 60.107 18.31 63.054C24.228 65.741 39.772 65.741 45.69 63.054C51.481 60.425 58.107 54.06 61.032 48.317C62.984 44.486 63.558 41.623 63.837 34.334C64.152 26.08 63.916 24.563 61.458 19.086C58.389 12.248 52.181 5.893 45.69 2.946C39.772 0.259002 24.228 0.259002 18.31 2.946ZM47.334 22.299C48.8 23.26 50 24.503 50 25.062C50 25.621 49.015 25.16 47.811 24.039C45.358 21.753 42.517 21.298 43.291 23.316C43.662 24.284 42.774 24.576 39.931 24.421C36.371 24.227 32.068 26.599 31.191 29.24C31.056 29.646 30.684 30.659 30.366 31.49C30.047 32.32 30.047 33.68 30.366 34.51C30.684 35.341 31.056 36.354 31.191 36.76C32.068 39.401 36.371 41.773 39.931 41.579C42.774 41.424 43.662 41.716 43.291 42.684C43.013 43.408 43.311 44 43.952 44C44.593 44 44.864 44.411 44.554 44.912C43.639 46.393 34.712 45.563 32 43.746C30.625 42.824 28.662 40.015 27.637 37.502C25.809 33.018 25.811 32.848 27.745 28.38C28.829 25.875 30.965 23.007 32.491 22.006C35.981 19.717 43.623 19.868 47.334 22.299ZM22.393 26.582C23.178 28.629 23.178 37.371 22.393 39.418C22.059 40.288 21.159 41 20.393 41C19.329 41 19 39.268 19 33.667C19 29.633 19.3 26.033 19.667 25.667C20.762 24.572 21.749 24.903 22.393 26.582ZM47 27.118C47 27.668 46.55 27.84 46 27.5C45.45 27.16 45 26.432 45 25.882C45 25.332 45.45 25.16 46 25.5C46.55 25.84 47 26.568 47 27.118ZM16 33.07C16 37.755 15.829 38.115 13.75 37.82C12.01 37.572 11.427 36.742 11.18 34.155C10.752 29.694 11.52 28 13.969 28C15.743 28 16 28.641 16 33.07ZM52.807 31.526C52.499 31.834 51.94 31.279 51.564 30.293C51.022 28.868 51.136 28.753 52.124 29.733C52.808 30.412 53.115 31.219 52.807 31.526ZM52.124 36.267C51.136 37.247 51.022 37.132 51.564 35.707C51.94 34.721 52.499 34.166 52.807 34.474C53.115 34.781 52.808 35.588 52.124 36.267ZM46.183 40.217C45.466 40.934 45 40.993 45 40.367C45 39.798 45.3 39.033 45.667 38.667C46.033 38.3 46.566 38.233 46.85 38.517C47.134 38.801 46.834 39.566 46.183 40.217ZM49.02 42.476C48.324 43.314 47.281 44 46.703 44C46.124 44 46.516 43.158 47.575 42.129C49.805 39.962 50.89 40.222 49.02 42.476Z" fill="#A1FD11"/>
<path fill-rule="evenodd" clip-rule="evenodd" d="M18.31 2.946C12.519 5.575 5.893 11.94 2.968 17.683C1.016 21.514 0.442 24.377 0.163 31.666C-0.152 39.92 0.0839999 41.437 2.542 46.914C5.611 53.752 11.819 60.107 18.31 63.054C24.228 65.741 39.772 65.741 45.69 63.054C51.481 60.425 58.107 54.06 61.032 48.317C62.984 44.486 63.558 41.623 63.837 34.334C64.152 26.08 63.916 24.563 61.458 19.086C58.389 12.248 52.181 5.893 45.69 2.946C39.772 0.259002 24.228 0.259002 18.31 2.946ZM47.334 22.299C48.8 23.26 50 24.711 50 25.523C50 26.335 50.477 27 51.059 27C51.641 27 51.859 27.419 51.543 27.931C51.226 28.443 51.372 29.112 51.867 29.418C52.627 29.887 52.717 35.408 51.991 37C51.866 37.275 51.816 37.837 51.882 38.25C51.947 38.663 51.602 39 51.117 39C50.631 39 50.014 39.838 49.746 40.862C48.574 45.346 37.142 47.207 32 43.751C30.625 42.827 28.662 40.015 27.637 37.502C25.809 33.018 25.811 32.848 27.745 28.38C28.829 25.875 30.965 23.007 32.491 22.006C35.981 19.717 43.623 19.868 47.334 22.299ZM33.283 26.789C31.752 28.207 30.642 29.398 30.815 29.434C30.988 29.47 30.827 30.287 30.458 31.25C30.088 32.212 30.002 33.562 30.266 34.25C30.53 34.938 30.803 35.837 30.873 36.25C30.943 36.663 31.985 37.985 33.189 39.189C38.599 44.599 48.455 40.645 48.455 33.064C48.455 25.333 39.05 21.444 33.283 26.789ZM22.393 26.582C23.178 28.629 23.178 37.371 22.393 39.418C22.059 40.288 21.159 41 20.393 41C19.329 41 19 39.268 19 33.667C19 29.633 19.3 26.033 19.667 25.667C20.762 24.572 21.749 24.903 22.393 26.582ZM16 33.07C16 37.755 15.829 38.115 13.75 37.82C12.01 37.572 11.427 36.742 11.18 34.155C10.752 29.694 11.52 28 13.969 28C15.743 28 16 28.641 16 33.07Z" fill="#49750A"/>
<path fill-rule="evenodd" clip-rule="evenodd" d="M18.31 2.946C12.519 5.575 5.893 11.94 2.968 17.683C1.016 21.514 0.442 24.377 0.163 31.666C-0.152 39.92 0.0839999 41.437 2.542 46.914C5.611 53.752 11.819 60.107 18.31 63.054C24.228 65.741 39.772 65.741 45.69 63.054C51.481 60.425 58.107 54.06 61.032 48.317C62.984 44.486 63.558 41.623 63.837 34.334C64.152 26.08 63.916 24.563 61.458 19.086C58.389 12.248 52.181 5.893 45.69 2.946C39.772 0.259002 24.228 0.259002 18.31 2.946ZM46.58 21.886C49.844 23.876 53 29.339 53 33C53 34.209 52.249 36.781 51.33 38.717C46.442 49.018 31.547 48.235 27.432 37.46C25.829 33.265 25.829 32.737 27.424 28.56C30.412 20.737 39.502 17.57 46.58 21.886ZM36.357 24.97C30.955 27.204 29.452 34.088 33.37 38.644C38.376 44.464 48 40.751 48 33C48 27.133 41.675 22.771 36.357 24.97ZM22.5 33.07C22.5 39.325 22.229 40.525 20.75 40.81C19.211 41.106 19 40.256 19 33.74C19 29.666 19.309 26.024 19.688 25.646C21.564 23.77 22.5 26.241 22.5 33.07ZM16 33.07C16 37.755 15.829 38.115 13.75 37.82C12.01 37.572 11.427 36.742 11.18 34.155C10.752 29.694 11.52 28 13.969 28C15.743 28 16 28.641 16 33.07Z" fill="black"/>
</svg>
