<svg width="250" height="250" viewBox="0 0 250 250" fill="none" xmlns="http://www.w3.org/2000/svg">
<path fill-rule="evenodd" clip-rule="evenodd" d="M92.54 2.595C87.063 3.951 82.338 5.399 82.04 5.813C81.743 6.228 78.425 7.855 74.668 9.431C70.91 11.006 63.935 14.77 59.168 17.796C54.4 20.821 49.305 23.917 47.844 24.675C41.705 27.86 25.365 46.159 18.252 57.816C15.475 62.367 8.483 76.699 7.552 79.75C7.174 80.987 6.485 82 6.02 82C5.555 82 4.01 86.869 2.587 92.82C0.221003 102.716 2.80736e-06 105.471 0.00100281 125.07C0.00200281 144.586 0.229003 147.434 2.538 156.963C3.932 162.718 5.444 167.668 5.899 167.963C6.353 168.259 8.326 172.209 10.283 176.743C16.123 190.272 31.056 211.512 39.981 218.984C48.428 226.056 63.419 235.485 72.757 239.6C77.566 241.719 81.741 243.784 82.037 244.19C82.332 244.596 87.282 246.068 93.037 247.462C102.572 249.773 105.406 249.997 125 249.997C144.594 249.997 147.428 249.773 156.963 247.462C162.718 246.068 167.668 244.591 167.963 244.18C168.259 243.77 171.575 242.145 175.332 240.569C179.09 238.994 186.065 235.23 190.832 232.204C195.6 229.179 200.695 226.083 202.156 225.325C208.295 222.14 224.635 203.841 231.748 192.184C234.525 187.633 241.517 173.301 242.448 170.25C242.826 169.013 243.515 168 243.98 168C244.445 168 245.99 163.131 247.413 157.18C249.779 147.284 250 144.529 249.999 124.93C249.998 105.414 249.771 102.566 247.462 93.037C246.068 87.282 244.556 82.332 244.101 82.037C243.647 81.741 241.674 77.791 239.717 73.257C233.877 59.728 218.944 38.488 210.019 31.016C201.572 23.944 186.581 14.515 177.243 10.4C172.434 8.281 168.259 6.216 167.963 5.81C167.668 5.404 162.718 3.932 156.963 2.538C147.33 0.203999 144.755 0.00799913 124.5 0.0659991C104.605 0.123999 101.547 0.365999 92.54 2.595Z" fill="#616162"/>
<path fill-rule="evenodd" clip-rule="evenodd" d="M92.54 2.595C87.063 3.951 82.338 5.399 82.04 5.813C81.743 6.228 78.425 7.855 74.668 9.431C70.91 11.006 63.935 14.77 59.168 17.796C54.4 20.821 49.305 23.917 47.844 24.675C41.705 27.86 25.365 46.159 18.252 57.816C15.475 62.367 8.483 76.699 7.552 79.75C7.174 80.987 6.485 82 6.02 82C5.555 82 4.01 86.869 2.587 92.82C0.221003 102.716 2.80736e-06 105.471 0.00100281 125.07C0.00200281 144.586 0.229003 147.434 2.538 156.963C3.932 162.718 5.444 167.668 5.899 167.963C6.353 168.259 8.326 172.209 10.283 176.743C16.123 190.272 31.056 211.512 39.981 218.984C48.428 226.056 63.419 235.485 72.757 239.6C77.566 241.719 81.741 243.784 82.037 244.19C82.332 244.596 87.282 246.068 93.037 247.462C102.572 249.773 105.406 249.997 125 249.997C144.594 249.997 147.428 249.773 156.963 247.462C162.718 246.068 167.668 244.591 167.963 244.18C168.259 243.77 171.575 242.145 175.332 240.569C179.09 238.994 186.065 235.23 190.832 232.204C195.6 229.179 200.695 226.083 202.156 225.325C208.295 222.14 224.635 203.841 231.748 192.184C234.525 187.633 241.517 173.301 242.448 170.25C242.826 169.013 243.515 168 243.98 168C244.445 168 245.99 163.131 247.413 157.18C249.779 147.284 250 144.529 249.999 124.93C249.998 105.414 249.771 102.566 247.462 93.037C246.068 87.282 244.556 82.332 244.101 82.037C243.647 81.741 241.674 77.791 239.717 73.257C233.877 59.728 218.944 38.488 210.019 31.016C201.572 23.944 186.581 14.515 177.243 10.4C172.434 8.281 168.259 6.216 167.963 5.81C167.668 5.404 162.718 3.932 156.963 2.538C147.33 0.203999 144.755 0.00799913 124.5 0.0659991C104.605 0.123999 101.547 0.365999 92.54 2.595ZM61.729 95.604C61.397 95.936 60.534 95.972 59.813 95.683C59.015 95.364 59.252 95.127 60.417 95.079C61.471 95.036 62.061 95.272 61.729 95.604ZM155.299 110.743C150.789 110.928 143.139 110.929 138.299 110.745C133.46 110.562 137.15 110.41 146.5 110.409C155.85 110.408 159.81 110.558 155.299 110.743ZM95.741 135.211C95.546 138.67 95.384 136.1 95.382 129.5C95.38 122.9 95.54 120.07 95.738 123.211C95.936 126.352 95.937 131.752 95.741 135.211ZM159.812 143.748C151.733 143.915 138.233 143.916 129.812 143.748C121.39 143.581 128 143.444 144.5 143.443C161 143.443 167.89 143.58 159.812 143.748ZM69.75 158.728C67.688 158.944 64.313 158.944 62.25 158.728C60.188 158.513 61.875 158.336 66 158.336C70.125 158.336 71.813 158.513 69.75 158.728ZM119.762 158.687C118.806 158.937 117.006 158.946 115.762 158.707C114.518 158.468 115.3 158.263 117.5 158.252C119.7 158.241 120.718 158.437 119.762 158.687Z" fill="#252526"/>
<path fill-rule="evenodd" clip-rule="evenodd" d="M92.54 2.595C87.063 3.951 82.338 5.399 82.04 5.813C81.743 6.228 78.425 7.855 74.668 9.431C70.91 11.006 63.935 14.77 59.168 17.796C54.4 20.821 49.305 23.917 47.844 24.675C41.705 27.86 25.365 46.159 18.252 57.816C15.475 62.367 8.483 76.699 7.552 79.75C7.174 80.987 6.485 82 6.02 82C5.555 82 4.01 86.869 2.587 92.82C0.221003 102.716 2.80736e-06 105.471 0.00100281 125.07C0.00200281 144.586 0.229003 147.434 2.538 156.963C3.932 162.718 5.444 167.668 5.899 167.963C6.353 168.259 8.326 172.209 10.283 176.743C16.123 190.272 31.056 211.512 39.981 218.984C48.428 226.056 63.419 235.485 72.757 239.6C77.566 241.719 81.741 243.784 82.037 244.19C82.332 244.596 87.282 246.068 93.037 247.462C102.572 249.773 105.406 249.997 125 249.997C144.594 249.997 147.428 249.773 156.963 247.462C162.718 246.068 167.668 244.591 167.963 244.18C168.259 243.77 171.575 242.145 175.332 240.569C179.09 238.994 186.065 235.23 190.832 232.204C195.6 229.179 200.695 226.083 202.156 225.325C208.295 222.14 224.635 203.841 231.748 192.184C234.525 187.633 241.517 173.301 242.448 170.25C242.826 169.013 243.515 168 243.98 168C244.445 168 245.99 163.131 247.413 157.18C249.779 147.284 250 144.529 249.999 124.93C249.998 105.414 249.771 102.566 247.462 93.037C246.068 87.282 244.556 82.332 244.101 82.037C243.647 81.741 241.674 77.791 239.717 73.257C233.877 59.728 218.944 38.488 210.019 31.016C201.572 23.944 186.581 14.515 177.243 10.4C172.434 8.281 168.259 6.216 167.963 5.81C167.668 5.404 162.718 3.932 156.963 2.538C147.33 0.203999 144.755 0.00799913 124.5 0.0659991C104.605 0.123999 101.547 0.365999 92.54 2.595ZM61.729 95.604C61.397 95.936 60.534 95.972 59.813 95.683C59.015 95.364 59.252 95.127 60.417 95.079C61.471 95.036 62.061 95.272 61.729 95.604ZM165.729 95.604C165.397 95.936 164.534 95.972 163.813 95.683C163.015 95.364 163.252 95.127 164.417 95.079C165.471 95.036 166.061 95.272 165.729 95.604ZM174.5 99C174.84 99.55 174.641 100 174.059 100C173.477 100 173 99.55 173 99C173 98.45 173.198 98 173.441 98C173.684 98 174.16 98.45 174.5 99ZM179 103.5C179.718 104.365 179.815 105 179.229 105C178.671 105 177.955 104.325 177.638 103.5C177.322 102.675 177.219 102 177.409 102C177.599 102 178.315 102.675 179 103.5ZM182 109C182 109.55 181.802 110 181.559 110C181.316 110 180.84 109.55 180.5 109C180.16 108.45 180.359 108 180.941 108C181.523 108 182 108.45 182 109ZM155.299 110.743C150.789 110.928 143.139 110.929 138.299 110.745C133.46 110.562 137.15 110.41 146.5 110.409C155.85 110.408 159.81 110.558 155.299 110.743ZM183 124.059C183 134.771 182.82 135.998 181.25 135.985C179.904 135.973 179.809 135.773 180.839 135.12C181.866 134.47 182.1 131.576 181.839 122.729C181.653 116.381 181.838 111.397 182.25 111.653C182.662 111.909 183 117.491 183 124.059ZM167 119.359C167 122.938 167.533 126.198 168.25 127.002C169.305 128.185 169.24 128.208 167.83 127.146C166.624 126.237 166.068 123.984 165.83 119.036C165.648 115.268 165.838 112.394 166.25 112.651C166.662 112.908 167 115.926 167 119.359ZM72 117.607C72 117.823 68.737 117.924 64.75 117.832L57.5 117.664L63.5 117.071C69.13 116.515 72 116.696 72 117.607ZM95.741 135.211C95.546 138.67 95.384 136.1 95.382 129.5C95.38 122.9 95.54 120.07 95.738 123.211C95.936 126.352 95.937 131.752 95.741 135.211ZM111.723 137.25C111.502 139.037 111.32 137.575 111.32 134C111.32 130.425 111.502 128.963 111.723 130.75C111.945 132.537 111.945 135.463 111.723 137.25ZM175.128 131.75C176.371 133.336 176.336 133.371 174.75 132.128C173.084 130.821 172.555 130 173.378 130C173.585 130 174.373 130.787 175.128 131.75ZM159.812 143.748C151.733 143.915 138.233 143.916 129.812 143.748C121.39 143.581 128 143.444 144.5 143.443C161 143.443 167.89 143.58 159.812 143.748ZM188.5 147C188.84 147.55 188.641 148 188.059 148C187.477 148 187 147.55 187 147C187 146.45 187.198 146 187.441 146C187.684 146 188.16 146.45 188.5 147ZM191.5 149C191.84 149.55 191.641 150 191.059 150C190.477 150 190 149.55 190 149C190 148.45 190.198 148 190.441 148C190.684 148 191.16 148.45 191.5 149ZM101.033 152.5C102.39 154.35 102.369 154.397 100.75 153.128C99.787 152.373 99 151.285 99 150.711C99 150.137 99.127 149.854 99.283 150.083C99.439 150.313 100.226 151.4 101.033 152.5ZM194.5 151C194.84 151.55 194.641 152 194.059 152C193.477 152 193 151.55 193 151C193 150.45 193.198 150 193.441 150C193.684 150 194.16 150.45 194.5 151ZM197.5 153C197.84 153.55 197.641 154 197.059 154C196.477 154 196 153.55 196 153C196 152.45 196.198 152 196.441 152C196.684 152 197.16 152.45 197.5 153ZM200.5 155C200.84 155.55 200.641 156 200.059 156C199.477 156 199 155.55 199 155C199 154.45 199.198 154 199.441 154C199.684 154 200.16 154.45 200.5 155ZM204 158.118C204 158.668 203.55 158.84 203 158.5C202.45 158.16 202 157.432 202 156.882C202 156.332 202.45 156.16 203 156.5C203.55 156.84 204 157.568 204 158.118ZM69.75 158.728C67.688 158.944 64.313 158.944 62.25 158.728C60.188 158.513 61.875 158.336 66 158.336C70.125 158.336 71.813 158.513 69.75 158.728ZM119.762 158.687C118.806 158.937 117.006 158.946 115.762 158.707C114.518 158.468 115.3 158.263 117.5 158.252C119.7 158.241 120.718 158.437 119.762 158.687Z" fill="#EBECED"/>
<path fill-rule="evenodd" clip-rule="evenodd" d="M92.54 2.595C87.063 3.951 82.338 5.399 82.04 5.813C81.743 6.228 78.425 7.855 74.668 9.431C70.91 11.006 63.935 14.77 59.168 17.796C54.4 20.821 49.305 23.917 47.844 24.675C41.705 27.86 25.365 46.159 18.252 57.816C15.475 62.367 8.483 76.699 7.552 79.75C7.174 80.987 6.485 82 6.02 82C5.555 82 4.01 86.869 2.587 92.82C0.221003 102.716 2.80736e-06 105.471 0.00100281 125.07C0.00200281 144.586 0.229003 147.434 2.538 156.963C3.932 162.718 5.444 167.668 5.899 167.963C6.353 168.259 8.326 172.209 10.283 176.743C16.123 190.272 31.056 211.512 39.981 218.984C48.428 226.056 63.419 235.485 72.757 239.6C77.566 241.719 81.741 243.784 82.037 244.19C82.332 244.596 87.282 246.068 93.037 247.462C102.572 249.773 105.406 249.997 125 249.997C144.594 249.997 147.428 249.773 156.963 247.462C162.718 246.068 167.668 244.591 167.963 244.18C168.259 243.77 171.575 242.145 175.332 240.569C179.09 238.994 186.065 235.23 190.832 232.204C195.6 229.179 200.695 226.083 202.156 225.325C208.295 222.14 224.635 203.841 231.748 192.184C234.525 187.633 241.517 173.301 242.448 170.25C242.826 169.013 243.515 168 243.98 168C244.445 168 245.99 163.131 247.413 157.18C249.779 147.284 250 144.529 249.999 124.93C249.998 105.414 249.771 102.566 247.462 93.037C246.068 87.282 244.556 82.332 244.101 82.037C243.647 81.741 241.674 77.791 239.717 73.257C233.877 59.728 218.944 38.488 210.019 31.016C201.572 23.944 186.581 14.515 177.243 10.4C172.434 8.281 168.259 6.216 167.963 5.81C167.668 5.404 162.718 3.932 156.963 2.538C147.33 0.203999 144.755 0.00799913 124.5 0.0659991C104.605 0.123999 101.547 0.365999 92.54 2.595ZM61.729 95.604C61.397 95.936 60.534 95.972 59.813 95.683C59.015 95.364 59.252 95.127 60.417 95.079C61.471 95.036 62.061 95.272 61.729 95.604ZM165.729 95.604C165.397 95.936 164.534 95.972 163.813 95.683C163.015 95.364 163.252 95.127 164.417 95.079C165.471 95.036 166.061 95.272 165.729 95.604ZM72 106.615V116.23L69.25 114.454C67.737 113.478 64.962 111.646 63.083 110.384C61.204 109.121 59.404 108.252 59.083 108.452C58.762 108.651 58.652 106.156 58.839 102.907L59.178 97H65.589H72V106.615ZM90.748 97.716C88.328 98.083 88.073 98.457 88.636 100.817C88.988 102.292 89.686 104.022 90.186 104.661C91.149 105.888 89.361 107.695 88.267 106.6C87.937 106.27 88.218 106 88.892 106C89.566 106 89.829 105.532 89.475 104.959C89.121 104.387 87.857 104.158 86.666 104.45C85.475 104.742 85.104 104.709 85.843 104.376C87.701 103.539 79.227 98.01 77.112 98.679C75.714 99.121 75.699 99.046 77 98.11C77.825 97.516 81.875 97.091 86 97.165C90.125 97.239 92.261 97.487 90.748 97.716ZM174.5 99C174.84 99.55 174.641 100 174.059 100C173.477 100 173 99.55 173 99C173 98.45 173.198 98 173.441 98C173.684 98 174.16 98.45 174.5 99ZM179 103.5C179.718 104.365 179.815 105 179.229 105C178.671 105 177.955 104.325 177.638 103.5C177.322 102.675 177.219 102 177.409 102C177.599 102 178.315 102.675 179 103.5ZM182 109C182 109.55 181.802 110 181.559 110C181.316 110 180.84 109.55 180.5 109C180.16 108.45 180.359 108 180.941 108C181.523 108 182 108.45 182 109ZM155.299 110.743C150.789 110.928 143.139 110.929 138.299 110.745C133.46 110.562 137.15 110.41 146.5 110.409C155.85 110.408 159.81 110.558 155.299 110.743ZM183 124.059C183 134.771 182.82 135.998 181.25 135.985C179.904 135.973 179.809 135.773 180.839 135.12C181.866 134.47 182.1 131.576 181.839 122.729C181.653 116.381 181.838 111.397 182.25 111.653C182.662 111.909 183 117.491 183 124.059ZM167 119.359C167 122.938 167.533 126.198 168.25 127.002C169.305 128.185 169.24 128.208 167.83 127.146C166.624 126.237 166.068 123.984 165.83 119.036C165.648 115.268 165.838 112.394 166.25 112.651C166.662 112.908 167 115.926 167 119.359ZM72 117.607C72 117.823 68.737 117.924 64.75 117.832L57.5 117.664L63.5 117.071C69.13 116.515 72 116.696 72 117.607ZM95.741 135.211C95.546 138.67 95.384 136.1 95.382 129.5C95.38 122.9 95.54 120.07 95.738 123.211C95.936 126.352 95.937 131.752 95.741 135.211ZM72 138V157H65.5H59V138V119H65.5H72V138ZM111.723 137.25C111.502 139.037 111.32 137.575 111.32 134C111.32 130.425 111.502 128.963 111.723 130.75C111.945 132.537 111.945 135.463 111.723 137.25ZM175.128 131.75C176.371 133.336 176.336 133.371 174.75 132.128C173.084 130.821 172.555 130 173.378 130C173.585 130 174.373 130.787 175.128 131.75ZM159.812 143.748C151.733 143.915 138.233 143.916 129.812 143.748C121.39 143.581 128 143.444 144.5 143.443C161 143.443 167.89 143.58 159.812 143.748ZM188.5 147C188.84 147.55 188.641 148 188.059 148C187.477 148 187 147.55 187 147C187 146.45 187.198 146 187.441 146C187.684 146 188.16 146.45 188.5 147ZM191.5 149C191.84 149.55 191.641 150 191.059 150C190.477 150 190 149.55 190 149C190 148.45 190.198 148 190.441 148C190.684 148 191.16 148.45 191.5 149ZM101.033 152.5C102.39 154.35 102.369 154.397 100.75 153.128C99.787 152.373 99 151.285 99 150.711C99 150.137 99.127 149.854 99.283 150.083C99.439 150.313 100.226 151.4 101.033 152.5ZM194.5 151C194.84 151.55 194.641 152 194.059 152C193.477 152 193 151.55 193 151C193 150.45 193.198 150 193.441 150C193.684 150 194.16 150.45 194.5 151ZM197.5 153C197.84 153.55 197.641 154 197.059 154C196.477 154 196 153.55 196 153C196 152.45 196.198 152 196.441 152C196.684 152 197.16 152.45 197.5 153ZM200.5 155C200.84 155.55 200.641 156 200.059 156C199.477 156 199 155.55 199 155C199 154.45 199.198 154 199.441 154C199.684 154 200.16 154.45 200.5 155ZM204 158.118C204 158.668 203.55 158.84 203 158.5C202.45 158.16 202 157.432 202 156.882C202 156.332 202.45 156.16 203 156.5C203.55 156.84 204 157.568 204 158.118ZM69.75 158.728C67.688 158.944 64.313 158.944 62.25 158.728C60.188 158.513 61.875 158.336 66 158.336C70.125 158.336 71.813 158.513 69.75 158.728ZM119.762 158.687C118.806 158.937 117.006 158.946 115.762 158.707C114.518 158.468 115.3 158.263 117.5 158.252C119.7 158.241 120.718 158.437 119.762 158.687Z" fill="#D7D8DA"/>
<path fill-rule="evenodd" clip-rule="evenodd" d="M92.54 2.595C87.063 3.951 82.338 5.399 82.04 5.813C81.743 6.228 78.425 7.855 74.668 9.431C70.91 11.006 63.935 14.77 59.168 17.796C54.4 20.821 49.305 23.917 47.844 24.675C41.705 27.86 25.365 46.159 18.252 57.816C15.475 62.367 8.483 76.699 7.552 79.75C7.174 80.987 6.485 82 6.02 82C5.555 82 4.01 86.869 2.587 92.82C0.221003 102.716 2.80736e-06 105.471 0.00100281 125.07C0.00200281 144.586 0.229003 147.434 2.538 156.963C3.932 162.718 5.444 167.668 5.899 167.963C6.353 168.259 8.326 172.209 10.283 176.743C16.123 190.272 31.056 211.512 39.981 218.984C48.428 226.056 63.419 235.485 72.757 239.6C77.566 241.719 81.741 243.784 82.037 244.19C82.332 244.596 87.282 246.068 93.037 247.462C102.572 249.773 105.406 249.997 125 249.997C144.594 249.997 147.428 249.773 156.963 247.462C162.718 246.068 167.668 244.591 167.963 244.18C168.259 243.77 171.575 242.145 175.332 240.569C179.09 238.994 186.065 235.23 190.832 232.204C195.6 229.179 200.695 226.083 202.156 225.325C208.295 222.14 224.635 203.841 231.748 192.184C234.525 187.633 241.517 173.301 242.448 170.25C242.826 169.013 243.515 168 243.98 168C244.445 168 245.99 163.131 247.413 157.18C249.779 147.284 250 144.529 249.999 124.93C249.998 105.414 249.771 102.566 247.462 93.037C246.068 87.282 244.556 82.332 244.101 82.037C243.647 81.741 241.674 77.791 239.717 73.257C233.877 59.728 218.944 38.488 210.019 31.016C201.572 23.944 186.581 14.515 177.243 10.4C172.434 8.281 168.259 6.216 167.963 5.81C167.668 5.404 162.718 3.932 156.963 2.538C147.33 0.203999 144.755 0.00799913 124.5 0.0659991C104.605 0.123999 101.547 0.365999 92.54 2.595ZM71.75 96.552C72.715 96.849 73 104.016 73 127.969V159H66.039H59.077L58.789 137.999L58.5 116.998L64 116.881C67.025 116.816 69.95 116.828 70.5 116.907C71.05 116.986 70.375 116.149 69 115.047C66.565 113.096 65.363 112.613 63.676 112.906C63.222 112.985 63.136 112.588 63.485 112.025C64.064 111.088 62.718 110.552 60.676 110.906C60.222 110.985 60.136 110.588 60.485 110.025C60.833 109.461 60.529 109.001 59.809 109.002C58.825 109.004 58.582 107.288 58.829 102.083L59.158 95.161L64.829 95.663C67.948 95.94 71.063 96.339 71.75 96.552ZM121 97.056C136.125 97.19 147.335 97.48 145.91 97.701C143.435 98.084 143.336 98.343 143.684 103.551L144.047 109L140.274 109.206C138.198 109.319 142.35 109.689 149.5 110.028C157.494 110.408 149.346 110.618 128.339 110.573C106.165 110.526 94.235 110.149 94.339 109.5C94.428 108.95 93.705 108.634 92.734 108.797C91.71 108.97 91.08 108.55 91.234 107.797C91.388 107.045 90.758 106.625 89.734 106.797C88.71 106.97 88.08 106.55 88.234 105.797C88.388 105.045 87.758 104.625 86.734 104.797C85.71 104.97 85.08 104.55 85.234 103.797C85.388 103.045 84.758 102.625 83.734 102.797C82.71 102.97 82.08 102.55 82.234 101.797C82.388 101.045 81.758 100.625 80.734 100.797C79.71 100.97 79.08 100.55 79.234 99.797C79.398 98.996 78.736 98.632 77.5 98.845C76.4 99.035 75.834 98.851 76.241 98.437C76.649 98.023 76.574 97.193 76.075 96.592C75.424 95.808 77.757 95.685 84.334 96.156C89.375 96.517 105.875 96.922 121 97.056ZM165.729 95.604C165.397 95.936 164.534 95.972 163.813 95.683C163.015 95.364 163.252 95.127 164.417 95.079C165.471 95.036 166.061 95.272 165.729 95.604ZM174.5 99C174.84 99.55 174.641 100 174.059 100C173.477 100 173 99.55 173 99C173 98.45 173.198 98 173.441 98C173.684 98 174.16 98.45 174.5 99ZM179 103.5C179.718 104.365 179.815 105 179.229 105C178.671 105 177.955 104.325 177.638 103.5C177.322 102.675 177.219 102 177.409 102C177.599 102 178.315 102.675 179 103.5ZM182 109C182 109.55 181.802 110 181.559 110C181.316 110 180.84 109.55 180.5 109C180.16 108.45 180.359 108 180.941 108C181.523 108 182 108.45 182 109ZM183 124.059C183 134.771 182.82 135.998 181.25 135.985C179.904 135.973 179.809 135.773 180.839 135.12C181.866 134.47 182.1 131.576 181.839 122.729C181.653 116.381 181.838 111.397 182.25 111.653C182.662 111.909 183 117.491 183 124.059ZM167 119.359C167 122.938 167.533 126.198 168.25 127.002C169.305 128.185 169.24 128.208 167.83 127.146C166.624 126.237 166.068 123.984 165.83 119.036C165.648 115.268 165.838 112.394 166.25 112.651C166.662 112.908 167 115.926 167 119.359ZM97.397 119.167C97.114 119.625 97.835 120 99 120C100.165 120 100.84 120.45 100.5 121C100.16 121.55 100.835 122 102 122C103.165 122 103.84 122.45 103.5 123C103.159 123.552 103.879 124 105.108 124C106.332 124 107.036 124.297 106.673 124.66C106.31 125.023 106.91 125.949 108.006 126.717C109.64 127.861 110 129.254 110 134.434C110 138.74 110.463 141.139 111.452 141.96C112.508 142.837 121.297 143.197 143.702 143.281C173.659 143.394 173.94 143.413 154 143.98C142.725 144.3 136.2 144.668 139.5 144.797C142.8 144.925 145.05 145.361 144.5 145.765C143.129 146.772 142.922 149.867 143.966 153.75L144.839 157H128.001C118.74 157 110.378 157.301 109.418 157.67C108.28 158.106 107.908 157.957 108.35 157.242C108.738 156.615 108.057 155.835 106.765 155.425C105.519 155.03 104.438 154.885 104.363 155.103C104.287 155.321 103.387 154.579 102.363 153.453C101.338 152.327 100.95 152.102 101.5 152.953C102.374 154.305 102.277 154.325 100.737 153.117C99.767 152.356 99.092 151.006 99.237 150.117C99.382 149.227 99.026 148.583 98.446 148.685C97.867 148.786 97.346 147.225 97.289 145.215C97.232 143.206 96.694 141.398 96.093 141.198C95.389 140.963 95 136.831 95 129.583C95 120.401 95.268 118.333 96.456 118.333C97.257 118.333 97.68 118.708 97.397 119.167ZM111.723 137.25C111.502 139.037 111.32 137.575 111.32 134C111.32 130.425 111.502 128.963 111.723 130.75C111.945 132.537 111.945 135.463 111.723 137.25ZM175.128 131.75C176.371 133.336 176.336 133.371 174.75 132.128C173.084 130.821 172.555 130 173.378 130C173.585 130 174.373 130.787 175.128 131.75ZM188.5 147C188.84 147.55 188.641 148 188.059 148C187.477 148 187 147.55 187 147C187 146.45 187.198 146 187.441 146C187.684 146 188.16 146.45 188.5 147ZM191.5 149C191.84 149.55 191.641 150 191.059 150C190.477 150 190 149.55 190 149C190 148.45 190.198 148 190.441 148C190.684 148 191.16 148.45 191.5 149ZM194.5 151C194.84 151.55 194.641 152 194.059 152C193.477 152 193 151.55 193 151C193 150.45 193.198 150 193.441 150C193.684 150 194.16 150.45 194.5 151ZM197.5 153C197.84 153.55 197.641 154 197.059 154C196.477 154 196 153.55 196 153C196 152.45 196.198 152 196.441 152C196.684 152 197.16 152.45 197.5 153ZM200.5 155C200.84 155.55 200.641 156 200.059 156C199.477 156 199 155.55 199 155C199 154.45 199.198 154 199.441 154C199.684 154 200.16 154.45 200.5 155ZM204 158.118C204 158.668 203.55 158.84 203 158.5C202.45 158.16 202 157.432 202 156.882C202 156.332 202.45 156.16 203 156.5C203.55 156.84 204 157.568 204 158.118ZM119.762 158.687C118.806 158.937 117.006 158.946 115.762 158.707C114.518 158.468 115.3 158.263 117.5 158.252C119.7 158.241 120.718 158.437 119.762 158.687Z" fill="#A7A9AC"/>
<path fill-rule="evenodd" clip-rule="evenodd" d="M92.54 2.595C87.063 3.951 82.338 5.399 82.04 5.813C81.743 6.228 78.425 7.855 74.668 9.431C70.91 11.006 63.935 14.77 59.168 17.796C54.4 20.821 49.305 23.917 47.844 24.675C41.705 27.86 25.365 46.159 18.252 57.816C15.475 62.367 8.483 76.699 7.552 79.75C7.174 80.987 6.485 82 6.02 82C5.555 82 4.01 86.869 2.587 92.82C0.221003 102.716 2.80736e-06 105.471 0.00100281 125.07C0.00200281 144.586 0.229003 147.434 2.538 156.963C3.932 162.718 5.444 167.668 5.899 167.963C6.353 168.259 8.326 172.209 10.283 176.743C16.123 190.272 31.056 211.512 39.981 218.984C48.428 226.056 63.419 235.485 72.757 239.6C77.566 241.719 81.741 243.784 82.037 244.19C82.332 244.596 87.282 246.068 93.037 247.462C102.572 249.773 105.406 249.997 125 249.997C144.594 249.997 147.428 249.773 156.963 247.462C162.718 246.068 167.668 244.591 167.963 244.18C168.259 243.77 171.575 242.145 175.332 240.569C179.09 238.994 186.065 235.23 190.832 232.204C195.6 229.179 200.695 226.083 202.156 225.325C208.295 222.14 224.635 203.841 231.748 192.184C234.525 187.633 241.517 173.301 242.448 170.25C242.826 169.013 243.515 168 243.98 168C244.445 168 245.99 163.131 247.413 157.18C249.779 147.284 250 144.529 249.999 124.93C249.998 105.414 249.771 102.566 247.462 93.037C246.068 87.282 244.556 82.332 244.101 82.037C243.647 81.741 241.674 77.791 239.717 73.257C233.877 59.728 218.944 38.488 210.019 31.016C201.572 23.944 186.581 14.515 177.243 10.4C172.434 8.281 168.259 6.216 167.963 5.81C167.668 5.404 162.718 3.932 156.963 2.538C147.33 0.203999 144.755 0.00799913 124.5 0.0659991C104.605 0.123999 101.547 0.365999 92.54 2.595ZM68.25 95.986L73 96V127.5V159H66.107C60.59 159 59.086 158.667 58.573 157.33C58.221 156.411 57.982 146.961 58.044 136.33L58.155 117H63.661C67.143 117 69.035 116.605 68.808 115.925C68.611 115.334 68.143 114.996 67.768 115.175C67.393 115.354 66.406 114.6 65.575 113.5C64.744 112.4 64.049 111.924 64.032 112.441C64.014 112.959 63.339 112.509 62.532 111.441C61.724 110.374 61.049 109.87 61.032 110.321C61.014 110.773 60.325 110.468 59.5 109.643C58.567 108.71 58 106.255 58 103.153C58 96.44 58.76 94.701 61.388 95.406C62.55 95.718 65.638 95.979 68.25 95.986ZM164.215 96.269C163.192 96.728 163.832 96.835 165.8 96.534C167.829 96.224 168.865 96.409 168.491 97.015C168.156 97.557 168.696 98.069 169.691 98.152C170.686 98.236 172.175 98.37 173 98.449C173.825 98.528 174.405 99.081 174.29 99.678C174.174 100.274 175.039 101.603 176.212 102.631C177.585 103.835 178.036 103.966 177.48 103C176.745 101.724 176.86 101.698 178.249 102.823C179.146 103.551 179.636 104.785 179.337 105.565C179.037 106.346 179.539 107.269 180.454 107.621C181.367 107.971 181.884 108.861 181.601 109.597C181.319 110.333 181.518 111.202 182.044 111.527C182.57 111.852 183 117.491 183 124.059C183 136.302 182.375 138.018 179.286 134.25C178.357 133.117 178.085 133.029 178.513 134C178.876 134.825 178.195 134.375 177 133C175.805 131.625 175.125 131.175 175.489 132C175.854 132.825 175.218 132.438 174.076 131.139C172.934 129.841 171.986 129.166 171.968 129.639C171.951 130.113 171.276 129.626 170.468 128.559C169.661 127.491 169 126.984 169 127.431C169 127.879 168.297 127.662 167.439 126.949C166.256 125.968 165.931 123.994 166.099 118.82C166.221 115.062 166.099 111.766 165.828 111.495C165.558 111.225 149.287 110.89 129.672 110.752C110.056 110.613 94.006 110.162 94.004 109.75C94.002 109.338 93.298 109 92.441 109C91.584 109 91.16 108.55 91.5 108C91.84 107.45 91.165 107 90 107C88.835 107 88.16 106.55 88.5 106C88.84 105.45 88.165 105 87 105C85.835 105 85.16 104.55 85.5 104C85.84 103.45 85.165 103 84 103C82.835 103 82.16 102.55 82.5 102C82.84 101.45 82.165 101 81 101C79.835 101 79.16 100.55 79.5 100C79.84 99.45 79.191 99 78.059 99C76.927 99 76 98.812 76 98.582C76 98.352 75.77 97.564 75.489 96.832C75.069 95.735 82.995 95.5 120.454 95.5C145.466 95.5 165.158 95.846 164.215 96.269ZM181.378 124C181.378 130.325 181.541 132.912 181.739 129.75C181.937 126.587 181.937 121.412 181.739 118.25C181.541 115.087 181.378 117.675 181.378 124ZM98 119.167C98 119.625 98.675 120 99.5 120C100.325 120 101 120.45 101 121C101 121.55 101.675 122 102.5 122C103.325 122 104 122.45 104 123C104 123.55 104.675 124 105.5 124C106.325 124 107 124.46 107 125.021C107 125.583 108.161 126.572 109.581 127.219C112.044 128.341 112.149 128.715 111.881 135.447C111.678 140.525 111.936 142.43 112.8 142.25C113.46 142.113 114.001 142.338 114.002 142.75C114.003 143.163 129.504 143.469 148.449 143.43C170.94 143.385 182.683 143.704 182.284 144.35C181.924 144.933 182.356 145.077 183.336 144.701C184.436 144.279 185 144.575 185 145.575C185 146.461 185.725 146.966 186.75 146.794C187.76 146.624 188.388 147.049 188.234 147.797C188.08 148.55 188.71 148.97 189.734 148.797C190.758 148.625 191.388 149.045 191.234 149.797C191.08 150.55 191.71 150.97 192.734 150.797C193.758 150.625 194.388 151.045 194.234 151.797C194.08 152.55 194.71 152.97 195.734 152.797C196.758 152.625 197.388 153.045 197.234 153.797C197.085 154.528 197.691 154.965 198.621 154.797C199.529 154.634 200.383 155.194 200.517 156.041C200.733 157.402 196.425 157.612 163.631 157.835C143.209 157.973 123.256 158.279 119.291 158.514C115.325 158.748 111.824 158.524 111.509 158.014C111.194 157.504 110.275 157.341 109.468 157.651C108.661 157.96 108 157.746 108 157.174C108 156.603 107.013 155.821 105.806 155.438C104.599 155.055 102.912 153.991 102.056 153.074C100.931 151.868 100.777 151.835 101.5 152.953C102.372 154.301 102.275 154.324 100.75 153.128C99.787 152.373 99 150.884 99 149.819C99 148.595 98.569 148.148 97.83 148.605C97.061 149.08 96.864 148.798 97.255 147.779C97.582 146.927 97.261 145.39 96.542 144.363C95.667 143.114 95.18 138.501 95.068 130.415C94.926 120.1 95.128 118.333 96.451 118.333C97.303 118.333 98 118.708 98 119.167ZM204 158.118C204 158.668 203.55 158.84 203 158.5C202.45 158.16 202 157.432 202 156.882C202 156.332 202.45 156.16 203 156.5C203.55 156.84 204 157.568 204 158.118Z" fill="#858687"/>
<path fill-rule="evenodd" clip-rule="evenodd" d="M92.54 2.595C87.063 3.951 82.338 5.399 82.04 5.813C81.743 6.228 78.425 7.855 74.668 9.431C70.91 11.006 63.935 14.77 59.168 17.796C54.4 20.821 49.305 23.917 47.844 24.675C41.705 27.86 25.365 46.159 18.252 57.816C15.475 62.367 8.483 76.699 7.552 79.75C7.174 80.987 6.485 82 6.02 82C5.555 82 4.01 86.869 2.587 92.82C0.221003 102.716 2.80736e-06 105.471 0.00100281 125.07C0.00200281 144.586 0.229003 147.434 2.538 156.963C3.932 162.718 5.444 167.668 5.899 167.963C6.353 168.259 8.326 172.209 10.283 176.743C16.123 190.272 31.056 211.512 39.981 218.984C48.428 226.056 63.419 235.485 72.757 239.6C77.566 241.719 81.741 243.784 82.037 244.19C82.332 244.596 87.282 246.068 93.037 247.462C102.572 249.773 105.406 249.997 125 249.997C144.594 249.997 147.428 249.773 156.963 247.462C162.718 246.068 167.668 244.591 167.963 244.18C168.259 243.77 171.575 242.145 175.332 240.569C179.09 238.994 186.065 235.23 190.832 232.204C195.6 229.179 200.695 226.083 202.156 225.325C208.295 222.14 224.635 203.841 231.748 192.184C234.525 187.633 241.517 173.301 242.448 170.25C242.826 169.013 243.515 168 243.98 168C244.445 168 245.99 163.131 247.413 157.18C249.779 147.284 250 144.529 249.999 124.93C249.998 105.414 249.771 102.566 247.462 93.037C246.068 87.282 244.556 82.332 244.101 82.037C243.647 81.741 241.674 77.791 239.717 73.257C233.877 59.728 218.944 38.488 210.019 31.016C201.572 23.944 186.581 14.515 177.243 10.4C172.434 8.281 168.259 6.216 167.963 5.81C167.668 5.404 162.718 3.932 156.963 2.538C147.33 0.203999 144.755 0.00799913 124.5 0.0659991C104.605 0.123999 101.547 0.365999 92.54 2.595ZM68.764 95.986L74.028 96L73.764 127.25L73.5 158.5H66H58.5L58.23 137.75L57.959 117H63.48C66.516 117 69 116.55 69 116C69 115.45 68.325 115 67.5 115C66.675 115 66 114.55 66 114C66 113.45 65.325 113 64.5 113C63.675 113 63 112.55 63 112C63 111.45 62.518 111 61.929 111C59.357 111 58 107.973 58 102.238C58 95.663 58.524 94.636 61.475 95.428C62.589 95.728 65.869 95.979 68.764 95.986ZM170.452 97.56C171.853 98.479 173 98.919 173 98.538C173 98.158 174.463 99.314 176.25 101.109C178.037 102.904 179.388 104.738 179.25 105.186C179.113 105.634 179.477 106 180.059 106C180.641 106 180.84 106.45 180.5 107C180.16 107.55 180.407 108 181.048 108C181.689 108 181.96 108.661 181.651 109.468C181.341 110.275 181.518 111.202 182.044 111.527C182.57 111.852 183 117.491 183 124.059C183 134.007 182.75 136 181.5 136C180.675 136 180 135.523 180 134.941C180 134.359 179.578 134.143 179.061 134.462C178.545 134.781 177.717 134.317 177.222 133.431C176.726 132.546 175.911 131.805 175.41 131.786C174.91 131.768 172.588 130.436 170.25 128.828C166.065 125.948 166 125.814 166 120.034C166 110.137 169.495 111 129.393 111C106.464 111 94 110.648 94 110C94 109.45 93.325 109 92.5 109C91.675 109 91 108.55 91 108C91 107.45 90.325 107 89.5 107C88.675 107 88 106.55 88 106C88 105.45 87.325 105 86.5 105C85.675 105 85 104.55 85 104C85 103.45 84.325 103 83.5 103C82.675 103 82 102.55 82 102C82 101.45 81.325 101 80.5 101C79.675 101 79 100.55 79 100C79 99.45 78.325 99 77.5 99C76.675 99 76 98.812 76 98.582C76 98.352 75.77 97.564 75.489 96.832C75.068 95.733 83.1 95.534 121.441 95.695C162.947 95.87 168.175 96.069 170.452 97.56ZM98 119.167C98 119.625 98.675 120 99.5 120C100.325 120 101 120.45 101 121C101 121.55 101.675 122 102.5 122C103.325 122 104 122.45 104 123C104 123.55 104.675 124 105.5 124C106.325 124 107 124.374 107 124.831C107 125.288 108.153 126.279 109.562 127.033C111.946 128.309 112.107 128.848 111.891 134.817C111.721 139.506 112.04 141.443 113.079 142.024C113.861 142.461 129.912 142.953 148.75 143.118C167.588 143.282 183 143.799 183 144.267C183 144.735 183.403 144.869 183.895 144.565C184.388 144.26 185.059 144.712 185.388 145.569C185.717 146.426 186.442 146.845 187 146.5C187.558 146.155 188.283 146.574 188.612 147.431C188.941 148.288 189.616 148.738 190.112 148.431C190.608 148.124 191.283 148.574 191.612 149.431C191.941 150.288 192.616 150.738 193.112 150.431C193.608 150.124 194.283 150.574 194.612 151.431C194.941 152.288 195.616 152.738 196.112 152.431C196.608 152.124 197.283 152.574 197.612 153.431C197.941 154.288 198.585 154.757 199.043 154.473C199.502 154.19 200.323 154.755 200.868 155.729C201.413 156.703 202.217 157.354 202.655 157.175C203.092 156.996 203.573 157.221 203.724 157.675C203.875 158.129 182.736 158.437 156.749 158.36L109.5 158.219L104.668 155.478C102.011 153.971 99.569 152.009 99.241 151.119C98.914 150.228 98.388 149.275 98.073 149C96.282 147.437 95.211 140.755 95.066 130.241C94.926 120.084 95.129 118.333 96.451 118.333C97.303 118.333 98 118.708 98 119.167Z" fill="#424344"/>
<path fill-rule="evenodd" clip-rule="evenodd" d="M92.54 2.595C87.063 3.951 82.338 5.399 82.04 5.813C81.743 6.228 78.425 7.855 74.668 9.431C70.91 11.006 63.935 14.77 59.168 17.796C54.4 20.821 49.305 23.917 47.844 24.675C41.705 27.86 25.365 46.159 18.252 57.816C15.475 62.367 8.483 76.699 7.552 79.75C7.174 80.987 6.485 82 6.02 82C5.555 82 4.01 86.869 2.587 92.82C0.221003 102.716 2.80736e-06 105.471 0.00100281 125.07C0.00200281 144.586 0.229003 147.434 2.538 156.963C3.932 162.718 5.444 167.668 5.899 167.963C6.353 168.259 8.326 172.209 10.283 176.743C16.123 190.272 31.056 211.512 39.981 218.984C48.428 226.056 63.419 235.485 72.757 239.6C77.566 241.719 81.741 243.784 82.037 244.19C82.332 244.596 87.282 246.068 93.037 247.462C102.572 249.773 105.406 249.997 125 249.997C144.594 249.997 147.428 249.773 156.963 247.462C162.718 246.068 167.668 244.591 167.963 244.18C168.259 243.77 171.575 242.145 175.332 240.569C179.09 238.994 186.065 235.23 190.832 232.204C195.6 229.179 200.695 226.083 202.156 225.325C208.295 222.14 224.635 203.841 231.748 192.184C234.525 187.633 241.517 173.301 242.448 170.25C242.826 169.013 243.515 168 243.98 168C244.445 168 245.99 163.131 247.413 157.18C249.779 147.284 250 144.529 249.999 124.93C249.998 105.414 249.771 102.566 247.462 93.037C246.068 87.282 244.556 82.332 244.101 82.037C243.647 81.741 241.674 77.791 239.717 73.257C233.877 59.728 218.944 38.488 210.019 31.016C201.572 23.944 186.581 14.515 177.243 10.4C172.434 8.281 168.259 6.216 167.963 5.81C167.668 5.404 162.718 3.932 156.963 2.538C147.33 0.203999 144.755 0.00799913 124.5 0.0659991C104.605 0.123999 101.547 0.365999 92.54 2.595ZM169.342 96.726C175.095 98.788 180.427 104.276 181.928 109.679C183.527 115.439 183.344 136 181.694 136C180.975 136 177.15 133.719 173.194 130.932L166 125.864V119.632C166 116.118 165.477 112.877 164.8 112.2C163.913 111.313 154.637 111 129.267 111H94.933L84.467 103.978L74 96.955V127.978V159H66H58V138.05V117.1L63.676 116.8L69.352 116.5L63.676 112.74L58 108.98V101.99V95L111.25 94.995C159.277 94.991 164.975 95.16 169.342 96.726ZM104.587 123.125L112 128.25V135.018C112 140.267 112.355 141.922 113.582 142.393C114.452 142.727 130.295 143 148.788 143H182.413L193.207 150.137C199.143 154.062 204 157.678 204 158.174C204 158.699 184.282 158.955 156.67 158.787L109.34 158.5L104.511 155.5C96.959 150.809 95.567 147.192 95.173 131.25C94.935 121.651 95.166 118 96.009 118C96.649 118 100.509 120.306 104.587 123.125Z" fill="black"/>
</svg>
