<svg width="65" height="65" viewBox="0 0 65 65" fill="none" xmlns="http://www.w3.org/2000/svg">
<path fill-rule="evenodd" clip-rule="evenodd" d="M18.207 3.584C12.612 6.372 6.319 12.807 3.352 18.775C0.699999 24.11 0.699999 41.89 3.352 47.225C6.319 53.193 12.612 59.628 18.207 62.416C22.701 64.656 24.674 65 33 65C41.326 65 43.299 64.656 47.793 62.416C53.388 59.628 59.681 53.193 62.648 47.225C65.3 41.89 65.3 24.11 62.648 18.775C59.681 12.807 53.388 6.372 47.793 3.584C40.215 -0.191999 25.785 -0.191999 18.207 3.584Z" fill="#B4F8FD"/>
<path fill-rule="evenodd" clip-rule="evenodd" d="M18.207 3.584C12.612 6.372 6.319 12.807 3.352 18.775C0.699999 24.11 0.699999 41.89 3.352 47.225C6.319 53.193 12.612 59.628 18.207 62.416C22.701 64.656 24.674 65 33 65C41.326 65 43.299 64.656 47.793 62.416C53.388 59.628 59.681 53.193 62.648 47.225C65.3 41.89 65.3 24.11 62.648 18.775C59.681 12.807 53.388 6.372 47.793 3.584C40.215 -0.191999 25.785 -0.191999 18.207 3.584ZM41.25 13.706C40.013 13.944 37.987 13.944 36.75 13.706C35.513 13.467 36.525 13.272 39 13.272C41.475 13.272 42.487 13.467 41.25 13.706ZM32.75 23.689C31.788 23.941 30.212 23.941 29.25 23.689C28.288 23.438 29.075 23.232 31 23.232C32.925 23.232 33.712 23.438 32.75 23.689ZM33.75 27.689C32.788 27.941 31.212 27.941 30.25 27.689C29.288 27.438 30.075 27.232 32 27.232C33.925 27.232 34.712 27.438 33.75 27.689ZM30.729 33.604C30.397 33.936 29.534 33.972 28.813 33.683C28.015 33.364 28.252 33.127 29.417 33.079C30.471 33.036 31.061 33.272 30.729 33.604ZM30.25 44.662C29.563 44.94 28.438 44.94 27.75 44.662C27.063 44.385 27.625 44.158 29 44.158C30.375 44.158 30.938 44.385 30.25 44.662ZM30.729 52.604C30.397 52.936 29.534 52.972 28.813 52.683C28.015 52.364 28.252 52.127 29.417 52.079C30.471 52.036 31.061 52.272 30.729 52.604Z" fill="#00FFFF"/>
<path fill-rule="evenodd" clip-rule="evenodd" d="M18.222 4.047C11.236 7.538 6.755 12.183 3.378 19.435C0.0159988 26.655 0.0159988 39.345 3.378 46.565C6.755 53.817 11.236 58.462 18.222 61.953C23.612 64.647 25.326 65 33 65C40.674 65 42.388 64.647 47.778 61.953C54.764 58.462 59.245 53.817 62.622 46.565C64.52 42.489 64.982 39.823 64.99 32.91C64.999 25.325 64.643 23.605 61.953 18.222C58.462 11.236 53.817 6.755 46.565 3.378C42.489 1.48 39.823 1.018 32.91 1.01C25.325 1.001 23.605 1.357 18.222 4.047ZM41.25 13.706C40.013 13.944 37.987 13.944 36.75 13.706C35.513 13.467 36.525 13.272 39 13.272C41.475 13.272 42.487 13.467 41.25 13.706ZM32.75 23.689C31.788 23.941 30.212 23.941 29.25 23.689C28.288 23.438 29.075 23.232 31 23.232C32.925 23.232 33.712 23.438 32.75 23.689ZM33.75 27.689C32.788 27.941 31.212 27.941 30.25 27.689C29.288 27.438 30.075 27.232 32 27.232C33.925 27.232 34.712 27.438 33.75 27.689ZM30.729 33.604C30.397 33.936 29.534 33.972 28.813 33.683C28.015 33.364 28.252 33.127 29.417 33.079C30.471 33.036 31.061 33.272 30.729 33.604ZM30.25 44.662C29.563 44.94 28.438 44.94 27.75 44.662C27.063 44.385 27.625 44.158 29 44.158C30.375 44.158 30.938 44.385 30.25 44.662ZM30.729 52.604C30.397 52.936 29.534 52.972 28.813 52.683C28.015 52.364 28.252 52.127 29.417 52.079C30.471 52.036 31.061 52.272 30.729 52.604Z" fill="#85F5FC"/>
<path fill-rule="evenodd" clip-rule="evenodd" d="M18.222 4.047C11.236 7.538 6.755 12.183 3.378 19.435C0.0159988 26.655 0.0159988 39.345 3.378 46.565C6.755 53.817 11.236 58.462 18.222 61.953C23.612 64.647 25.326 65 33 65C40.674 65 42.388 64.647 47.778 61.953C54.764 58.462 59.245 53.817 62.622 46.565C64.52 42.489 64.982 39.823 64.99 32.91C64.999 25.325 64.643 23.605 61.953 18.222C58.462 11.236 53.817 6.755 46.565 3.378C42.489 1.48 39.823 1.018 32.91 1.01C25.325 1.001 23.605 1.357 18.222 4.047ZM41.25 13.706C40.013 13.944 37.987 13.944 36.75 13.706C35.513 13.467 36.525 13.272 39 13.272C41.475 13.272 42.487 13.467 41.25 13.706ZM33.762 17.687C32.806 17.937 31.006 17.946 29.762 17.707C28.518 17.468 29.3 17.263 31.5 17.252C33.7 17.241 34.718 17.437 33.762 17.687ZM45.729 17.604C45.397 17.936 44.534 17.972 43.813 17.683C43.015 17.364 43.252 17.127 44.417 17.079C45.471 17.036 46.061 17.272 45.729 17.604ZM34.371 23.791C34.64 24.226 33.316 24.402 31.43 24.182C29.543 23.961 28 23.605 28 23.391C28 22.638 33.887 23.008 34.371 23.791ZM33.762 27.687C32.806 27.937 31.006 27.946 29.762 27.707C28.518 27.468 29.3 27.263 31.5 27.252C33.7 27.241 34.718 27.437 33.762 27.687ZM45.729 27.604C45.397 27.936 44.534 27.972 43.813 27.683C43.015 27.364 43.252 27.127 44.417 27.079C45.471 27.036 46.061 27.272 45.729 27.604ZM30.729 33.604C30.397 33.936 29.534 33.972 28.813 33.683C28.015 33.364 28.252 33.127 29.417 33.079C30.471 33.036 31.061 33.272 30.729 33.604ZM23 41.326C23 41.505 21.762 42.742 20.25 44.076L17.5 46.5L19.924 43.75C22.19 41.18 23 40.541 23 41.326ZM30.25 44.662C29.563 44.94 28.438 44.94 27.75 44.662C27.063 44.385 27.625 44.158 29 44.158C30.375 44.158 30.938 44.385 30.25 44.662ZM31.269 52.656C30.592 52.93 29.242 52.947 28.269 52.693C27.296 52.439 27.85 52.215 29.5 52.195C31.15 52.175 31.946 52.382 31.269 52.656Z" fill="#6BF2FC"/>
<path fill-rule="evenodd" clip-rule="evenodd" d="M18.222 4.047C11.236 7.538 6.755 12.183 3.378 19.435C0.0159988 26.655 0.0159988 39.345 3.378 46.565C6.755 53.817 11.236 58.462 18.222 61.953C23.612 64.647 25.326 65 33 65C40.674 65 42.388 64.647 47.778 61.953C54.764 58.462 59.245 53.817 62.622 46.565C64.52 42.489 64.982 39.823 64.99 32.91C64.999 25.325 64.643 23.605 61.953 18.222C58.462 11.236 53.817 6.755 46.565 3.378C42.489 1.48 39.823 1.018 32.91 1.01C25.325 1.001 23.605 1.357 18.222 4.047ZM43.708 14.75C44.064 15.713 44.837 16.831 45.427 17.235C46.074 17.677 45.805 17.975 44.75 17.985C43.662 17.994 43 17.244 43 16C43 14.333 42.333 14 39 14C35.667 14 35 14.333 35 16C35 17.673 34.387 17.974 31.25 17.84C27.706 17.689 27.673 17.658 30.648 17.284C32.719 17.024 33.97 16.224 34.304 14.944C35.003 12.274 42.736 12.114 43.708 14.75ZM34.82 25.75C35.106 27.768 34.746 27.984 31.32 27.84C27.627 27.685 27.608 27.667 30.75 27.277C34.866 26.766 35.031 24.32 31 23.563C28.042 23.008 28.046 23.004 31.25 23.25C33.765 23.443 34.572 24.009 34.82 25.75ZM45.4 27.235C46.078 27.688 45.829 27.975 44.75 27.985C43.574 27.995 43.026 27.262 43.079 25.75C43.132 24.247 43.347 23.998 43.729 25C44.043 25.825 44.795 26.831 45.4 27.235ZM30.729 33.604C30.397 33.936 29.534 33.972 28.813 33.683C28.015 33.364 28.252 33.127 29.417 33.079C30.471 33.036 31.061 33.272 30.729 33.604ZM45.25 33.662C44.563 33.94 43.933 35.817 43.85 37.833C43.721 40.987 43.641 41.104 43.276 38.666C42.753 35.179 43.52 32.974 45.219 33.079C46.222 33.141 46.229 33.267 45.25 33.662ZM34.707 39.238C34.468 40.482 34.263 39.7 34.252 37.5C34.241 35.3 34.437 34.282 34.687 35.238C34.937 36.194 34.946 37.994 34.707 39.238ZM25.128 42.75C26.376 44.342 26.34 44.374 24.721 43.103C23.159 41.877 22.643 41.986 20.502 43.999C19.16 45.259 18.342 46.745 18.685 47.3C19.054 47.897 18.804 47.997 18.073 47.545C17.175 46.99 17.596 45.987 19.605 43.89C22.842 40.512 23.298 40.418 25.128 42.75ZM30.25 44.662C29.563 44.94 28.438 44.94 27.75 44.662C27.063 44.385 27.625 44.158 29 44.158C30.375 44.158 30.938 44.385 30.25 44.662ZM31.762 52.687C30.806 52.937 29.006 52.946 27.762 52.707C26.518 52.468 27.3 52.263 29.5 52.252C31.7 52.241 32.718 52.437 31.762 52.687Z" fill="#3DEFFB"/>
<path fill-rule="evenodd" clip-rule="evenodd" d="M18.222 4.047C11.236 7.538 6.755 12.183 3.378 19.435C0.0159988 26.655 0.0159988 39.345 3.378 46.565C6.755 53.817 11.236 58.462 18.222 61.953C23.612 64.647 25.326 65 33 65C40.674 65 42.388 64.647 47.778 61.953C54.764 58.462 59.245 53.817 62.622 46.565C64.52 42.489 64.982 39.823 64.99 32.91C64.999 25.325 64.643 23.605 61.953 18.222C58.462 11.236 53.817 6.755 46.565 3.378C42.489 1.48 39.823 1.018 32.91 1.01C25.325 1.001 23.605 1.357 18.222 4.047ZM44 14.893C44 15.934 44.675 17.045 45.5 17.362C47.061 17.961 47.673 24 46.173 24C45.718 24 45.545 22.65 45.787 21C46.121 18.724 45.837 18 44.613 18C43.667 18 43 17.174 43 16C43 14.333 42.333 14 39 14C35.667 14 35 14.333 35 16C35 17.619 34.333 18 31.5 18C28.458 18 28 18.319 28 20.437C28 22.455 28.558 22.927 31.25 23.187C33.741 23.427 34.575 24.025 34.82 25.75C35.1 27.723 34.699 28 31.57 28C28.457 28 28 28.311 28 30.427C28 31.897 28.69 33.034 29.75 33.311C31.067 33.655 30.943 33.797 29.25 33.884C27.323 33.983 27 33.497 27 30.5C27 27.167 27.167 27 30.5 27C32.944 27 34 26.548 34 25.5C34 24.447 32.937 24 30.437 24C27.019 24 26.886 23.867 27.187 20.75C27.462 17.892 27.892 17.462 30.75 17.187C33.19 16.951 34 16.391 34 14.937C34 13.279 34.721 13 39 13C43.239 13 44 13.288 44 14.893ZM45.647 27.3C47.474 28.379 47.369 32.921 45.5 33.638C44.501 34.022 43.999 35.598 43.998 38.357C43.995 46.971 38.12 52.995 29.718 52.998C25.301 53 20.1 51.033 18.078 48.596C16.816 47.074 17.001 46.537 19.726 43.812C22.666 40.873 22.893 40.812 25.12 42.372C28.067 44.436 29.869 44.429 32.171 42.345C34.251 40.463 34.631 35.421 32.75 34.662C32.003 34.361 32.205 34.126 33.25 34.079C35.809 33.963 35.63 40.37 33 43C30.581 45.419 28.212 45.537 25.151 43.393C22.999 41.886 22.71 41.923 20.501 44C17.62 46.705 18.13 48.359 22.478 50.423C32.83 55.335 43 49.212 43 38.067C43 35.319 43.502 33.745 44.5 33.362C45.325 33.045 46 31.709 46 30.393C46 28.933 45.415 28 44.5 28C43.588 28 43.031 27.118 43.079 25.75C43.132 24.251 43.347 24.001 43.726 25C44.038 25.825 44.902 26.86 45.647 27.3Z" fill="#00EAFA"/>
<path fill-rule="evenodd" clip-rule="evenodd" d="M35 16C35 17.619 34.333 18 31.5 18C28.458 18 28 18.319 28 20.437C28 22.455 28.558 22.927 31.25 23.187C33.741 23.427 34.575 24.025 34.82 25.75C35.1 27.723 34.699 28 31.57 28C28.446 28 28 28.307 28 30.455C28 32.468 28.629 33.027 31.5 33.566C34.682 34.163 35 34.53 35 37.611C35 41.335 32.134 45 29.223 45C28.245 45 26.413 44.277 25.151 43.393C22.999 41.886 22.71 41.923 20.501 44C17.62 46.705 18.13 48.359 22.478 50.423C32.83 55.335 43 49.212 43 38.067C43 35.319 43.502 33.745 44.5 33.362C45.325 33.045 46 31.709 46 30.393C46 28.933 45.415 28 44.5 28C43.675 28 43 27.148 43 26.107C43 25.066 43.675 23.955 44.5 23.638C45.325 23.322 46 21.924 46 20.531C46 18.948 45.438 18 44.5 18C43.667 18 43 17.111 43 16C43 14.333 42.333 14 39 14C35.667 14 35 14.333 35 16Z" fill="#00DBFF"/>
<path fill-rule="evenodd" clip-rule="evenodd" d="M35 16C35 17.619 34.333 18 31.5 18C28.458 18 28 18.319 28 20.437C28 22.455 28.558 22.927 31.25 23.187C33.741 23.427 34.575 24.025 34.82 25.75C35.1 27.723 34.699 28 31.57 28C28.446 28 28 28.307 28 30.455C28 32.468 28.629 33.027 31.5 33.566C34.682 34.163 35 34.53 35 37.611C35 41.335 32.134 45 29.223 45C28.245 45 26.413 44.277 25.151 43.393C22.999 41.886 22.71 41.923 20.501 44C17.62 46.705 18.13 48.359 22.478 50.423C32.83 55.335 43 49.212 43 38.067C43 35.319 43.502 33.745 44.5 33.362C45.325 33.045 46 31.709 46 30.393C46 28.933 45.415 28 44.5 28C43.675 28 43 27.148 43 26.107C43 25.066 43.675 23.955 44.5 23.638C45.325 23.322 46 21.924 46 20.531C46 18.948 45.438 18 44.5 18C43.667 18 43 17.111 43 16C43 14.333 42.333 14 39 14C35.667 14 35 14.333 35 16Z" fill="white"/>
</svg>
