<svg width="33" height="66" viewBox="0 0 66 66" fill="none" xmlns="http://www.w3.org/2000/svg">
<path fill-rule="evenodd" clip-rule="evenodd" d="M1 33V65H33H65V33V1H33H1V33Z" fill="white"/>
<path fill-rule="evenodd" clip-rule="evenodd" d="M2.2 2.20001C0.485997 3.91401 0.485997 62.086 2.2 63.8C3.914 65.514 62.086 65.514 63.8 63.8C65.514 62.086 65.514 3.91401 63.8 2.20001C62.086 0.486005 3.914 0.486005 2.2 2.20001Z" fill="#E0E0E0"/>
<path fill-rule="evenodd" clip-rule="evenodd" d="M2.2 2.20001C0.485997 3.91401 0.485997 62.086 2.2 63.8C3.914 65.514 62.086 65.514 63.8 63.8C65.514 62.086 65.514 3.91401 63.8 2.20001C62.086 0.486005 3.914 0.486005 2.2 2.20001ZM40 24.893C40 25.384 39.261 26.069 38.359 26.416C36.986 26.943 36.924 26.796 37.981 25.523C39.421 23.788 40 23.607 40 24.893ZM30.543 35.364C32.99 36.912 35.289 38.658 35.651 39.244C36.013 39.829 34.246 38.889 31.724 37.154C29.203 35.419 26.909 34 26.627 34C26.346 34 25.954 35.913 25.757 38.25C25.56 40.587 25.399 38.45 25.399 33.5C25.399 28.55 25.556 26.311 25.746 28.524C26.05 32.046 26.648 32.9 30.543 35.364ZM35 28.5C34.315 29.325 33.274 30 32.686 30C32.099 30 32.491 29.339 33.559 28.532C36.067 26.634 36.557 26.624 35 28.5ZM39.128 41.75C40.371 43.336 40.336 43.371 38.75 42.128C37.788 41.373 37 40.585 37 40.378C37 39.555 37.821 40.084 39.128 41.75Z" fill="#C5C5C5"/>
<path fill-rule="evenodd" clip-rule="evenodd" d="M2.571 2.571C1.215 3.927 1 8.1 1 33C1 57.9 1.215 62.073 2.571 63.429C3.927 64.785 8.1 65 33 65C57.9 65 62.073 64.785 63.429 63.429C64.785 62.073 65 57.9 65 33C65 8.1 64.785 3.927 63.429 2.571C62.073 1.215 57.9 1 33 1C8.1 1 3.927 1.215 2.571 2.571ZM33.215 37C36.908 39.475 39.945 41.872 39.965 42.327C39.984 42.782 37.059 41.099 33.465 38.586C26.566 33.764 26.369 33.8 25.699 40C25.49 41.925 25.316 39 25.31 33.5C25.304 26.986 25.509 25.069 25.9 28C26.463 32.221 26.916 32.779 33.215 37ZM39.988 24.75C39.972 25.701 32.955 30.289 32.386 29.719C32.153 29.486 33.658 28.131 35.731 26.708C40.07 23.729 40.004 23.759 39.988 24.75ZM52.412 52.098C50.156 54.59 42.124 59.457 41.423 58.756C41.155 58.488 42.241 57.729 43.837 57.068C45.432 56.407 48.228 54.328 50.05 52.448C53.563 48.824 55.656 48.513 52.412 52.098Z" fill="#919191"/>
<path fill-rule="evenodd" clip-rule="evenodd" d="M2.655 2.829C1.196 4.44 1 8.042 1 33.174C1 59.53 1.139 61.815 2.829 63.345C4.44 64.804 8.042 65 33.174 65C59.53 65 61.815 64.861 63.345 63.171C64.804 61.56 65 57.958 65 32.826C65 6.47 64.861 4.185 63.171 2.655C61.56 1.196 57.958 1 32.826 1C6.47 1 4.185 1.139 2.655 2.829ZM27 28.942C27 32.546 27.372 33.007 33.5 37C37.075 39.329 40 41.659 40 42.176C40 43.258 39.225 42.837 32.881 38.302C30.34 36.486 27.977 35 27.631 35C27.284 35 27 36.548 27 38.441C27 40.334 26.55 42.16 26 42.5C25.36 42.896 25 39.657 25 33.5C25 27.343 25.36 24.104 26 24.5C26.55 24.84 27 26.839 27 28.942ZM40 24.867C40 25.344 38.2 26.925 36 28.381C33.8 29.837 32 30.579 32 30.029C32 29.479 33.688 27.924 35.75 26.573C40.142 23.697 40 23.754 40 24.867ZM22.778 57.662C28.463 59.837 37.115 59.871 42.14 57.739C44.141 56.889 47.571 54.576 49.761 52.597C54.637 48.192 56.469 47.847 52.437 52.093C47.62 57.167 40.406 60.321 33.5 60.375C30.2 60.4 25.738 59.817 23.584 59.078C19.509 57.681 11.666 51.137 9.783 47.563C9.185 46.428 10.802 47.83 13.376 50.678C16.42 54.046 19.706 56.487 22.778 57.662Z" fill="#636363"/>
<path fill-rule="evenodd" clip-rule="evenodd" d="M2.655 2.829C1.196 4.44 1 8.042 1 33.174C1 59.53 1.139 61.815 2.829 63.345C4.44 64.804 8.042 65 33.174 65C59.53 65 61.815 64.861 63.345 63.171C64.804 61.56 65 57.958 65 32.826C65 6.47 64.861 4.185 63.171 2.655C61.56 1.196 57.958 1 32.826 1C6.47 1 4.185 1.139 2.655 2.829ZM16 12.345C16 12.535 14.988 13.547 13.75 14.595L11.5 16.5L13.405 14.25C15.195 12.136 16 11.545 16 12.345ZM9.345 21.543C9.019 22.392 8.538 22.872 8.276 22.61C8.014 22.348 8.096 21.653 8.459 21.067C9.445 19.471 10.021 19.781 9.345 21.543ZM27 28.353C27 32.639 27.111 32.78 34.095 37.425C37.998 40.02 40.933 42.4 40.618 42.715C40.303 43.031 37.222 41.43 33.773 39.158L27.5 35.028L27.193 39.014C26.588 46.847 25 42.853 25 33.5C25 27.833 25.404 24 26 24C26.55 24 27 25.959 27 28.353ZM41 24.452C41 25.384 31.835 31.168 31.263 30.596C30.561 29.894 30.411 30.034 35.482 26.654C39.258 24.137 41 23.442 41 24.452ZM9.275 44.63C17.641 60.475 38.077 63.99 50.735 51.762C52.514 50.043 54.221 48.888 54.528 49.195C54.836 49.502 52.969 51.618 50.381 53.896C41.637 61.592 30.095 62.898 19.891 57.344C10.58 52.276 5.91 44.099 6.151 33.282L6.302 26.5L6.962 34C7.325 38.125 8.365 42.909 9.275 44.63Z" fill="#3A3A3A"/>
<path fill-rule="evenodd" clip-rule="evenodd" d="M3 3C1.095 4.905 1 6.333 1 33C1 59.667 1.095 61.095 3 63C4.905 64.905 6.333 65 33 65C59.667 65 61.095 64.905 63 63C64.905 61.095 65 59.667 65 33C65 6.333 64.905 4.905 63 3C61.095 1.095 59.667 1 33 1C6.333 1 4.905 1.095 3 3ZM30.729 6.604C30.397 6.936 29.534 6.972 28.813 6.683C28.015 6.364 28.252 6.127 29.417 6.079C30.471 6.036 31.061 6.272 30.729 6.604ZM19.364 10.851C10.51 17.265 6.472 25.181 7.19 34.716C7.708 41.587 10.147 47.08 14.703 51.636C20.258 57.191 23.582 58.47 32.5 58.486C39.44 58.498 41.119 58.136 45.177 55.751C47.749 54.239 50.793 51.807 51.941 50.348C53.089 48.889 54.328 47.995 54.696 48.362C55.063 48.73 53.819 50.638 51.932 52.603C41.845 63.104 25.758 63.701 14.719 53.984C5.637 45.989 2.836 31.952 8.238 21.5C10.782 16.577 15.579 11.321 19.5 9.162C23.345 7.045 23.267 8.024 19.364 10.851ZM27.018 28.25C27.036 32.403 27.194 32.602 33.974 37C37.791 39.475 40.932 41.837 40.956 42.25C41.051 43.87 38.603 42.825 33.173 38.93L27.5 34.859L27.193 38.93C26.594 46.846 25 42.897 25 33.5C25 27.833 25.404 24 26 24C26.55 24 27.008 25.913 27.018 28.25ZM40.01 25.488C38.093 27.797 31.975 31.308 31.206 30.539C30.827 30.16 31.228 29.452 32.098 28.965C32.968 28.478 34.765 27.177 36.09 26.073C39.037 23.619 41.918 23.189 40.01 25.488Z" fill="#1F1F1F"/>
<path fill-rule="evenodd" clip-rule="evenodd" d="M4.693 1.7C3.699 1.958 2.462 3.285 1.943 4.649C0.660997 8.022 0.722997 58.142 2.014 61.537C2.682 63.293 3.535 64.009 4.514 63.633C5.331 63.319 6 63.478 6 63.985C6 65.013 54.765 65.397 59.711 64.408C61.587 64.033 63.19 62.879 63.851 61.428C65.319 58.206 65.319 7.794 63.851 4.572C63.196 3.135 61.589 1.968 59.761 1.602C56.295 0.908998 7.411 0.995998 4.693 1.7ZM42.5 8.187C44.7 9.214 45.6 9.778 44.5 9.44C43.4 9.102 40.012 8.354 36.971 7.778C18.581 4.29 2.521 22.999 8.487 40.96C14.413 58.804 36.536 64.707 49.781 51.979C54.474 47.47 54.567 47.43 55.382 49.552C55.709 50.406 55.579 50.858 55.093 50.558C54.607 50.257 53.959 50.665 53.652 51.464C53.346 52.263 50.592 54.578 47.533 56.609C42.714 59.809 41 60.365 34.695 60.769C25.365 61.368 18.994 58.839 12.595 51.998C-7.329 30.698 16.364 -4.011 42.5 8.187ZM27.01 28.25C27.019 32.417 27.157 32.588 34.01 36.957C41.409 41.674 42.53 43.104 38.572 42.777C37.237 42.666 36.296 42.33 36.482 42.029C36.668 41.729 34.61 40.021 31.91 38.234L27 34.985V38.992C27 41.197 26.55 43 26 43C25.404 43 25 39.167 25 33.5C25 27.833 25.404 24 26 24C26.55 24 27.004 25.913 27.01 28.25ZM40.998 24.75C40.996 25.522 32.799 31 31.645 31C29.939 31 31.369 29.017 34.75 26.695C38.502 24.119 41.002 23.34 40.998 24.75Z" fill="black"/>
</svg>
