<?xml version="1.0" encoding="UTF-8"?>
<svg version="1.1" xmlns="http://www.w3.org/2000/svg" width="64" height="64">
<path d="M0 0 C21.12 0 42.24 0 64 0 C64 21.12 64 42.24 64 64 C42.88 64 21.76 64 0 64 C0 42.88 0 21.76 0 0 Z " fill="#090909" transform="translate(0,0)"/>
<path d="M0 0 C0.66 0 1.32 0 2 0 C1.896875 1.299375 1.79375 2.59875 1.6875 3.9375 C2.05342655 7.91221941 2.89494867 8.90769897 5.9609375 11.6015625 C9.20428739 13.90679426 12.57148705 15.98294718 16 18 C15.34 18.33 14.68 18.66 14 19 C11.3984375 17.56640625 11.3984375 17.56640625 8.375 15.5625 C7.37210938 14.90378906 6.36921875 14.24507812 5.3359375 13.56640625 C4.56507812 13.04949219 3.79421875 12.53257813 3 12 C2.67 14.31 2.34 16.62 2 19 C1.34 19 0.68 19 0 19 C0 12.73 0 6.46 0 0 Z " fill="#BFBFBF" transform="translate(24,23)"/>
</svg>
