<svg width="66" height="66" viewBox="0 0 66 66" fill="none" xmlns="http://www.w3.org/2000/svg">
<path fill-rule="evenodd" clip-rule="evenodd" d="M2.2 2.20001C0.485997 3.91401 0.485997 62.086 2.2 63.8C3.914 65.514 62.086 65.514 63.8 63.8C65.514 62.086 65.514 3.91401 63.8 2.20001C62.086 0.486005 3.914 0.486005 2.2 2.20001ZM39.988 24.75C39.972 25.701 32.955 30.289 32.386 29.719C32.153 29.486 33.658 28.131 35.731 26.708C40.07 23.729 40.004 23.759 39.988 24.75ZM33.215 37C36.908 39.475 39.945 41.877 39.965 42.338C39.984 42.799 37.107 41.111 33.571 38.588C30.035 36.064 26.911 34 26.628 34C26.346 34 25.943 35.913 25.732 38.25C25.522 40.587 25.335 38.45 25.317 33.5C25.296 27.762 25.504 25.95 25.892 28.5C26.437 32.084 27.198 32.968 33.215 37ZM53.03 50.944C52.457 52.014 51.495 53.194 50.891 53.567C50.287 53.941 50.566 53.066 51.511 51.623C53.513 48.568 54.549 48.105 53.03 50.944ZM45.5 57C45.16 57.55 44.346 57.993 43.691 57.985C42.975 57.975 43.099 57.582 44 57C45.921 55.758 46.267 55.758 45.5 57Z" fill="black"/>
</svg>
