<svg width="27" height="32" viewBox="0 0 27 32" fill="none" xmlns="http://www.w3.org/2000/svg">
<path fill-rule="evenodd" clip-rule="evenodd" d="M1.71759 1.392C0.219852 2.551 0 4.59 0 17.36C0 25.412 0.343519 32 0.762611 32C1.18269 32 2.50769 31.299 3.70706 30.443C5.71222 29.013 5.88889 28.084 5.88889 18.975C5.88889 10.575 6.11365 9.151 7.36111 9.638C8.20617 9.969 8.83333 11.462 8.83333 13.142C8.83333 15.81 9.01687 15.97 10.9013 14.943C13.4787 13.537 16.1866 15.46 13.7712 16.981C12.5581 17.745 12.6179 18.184 14.1775 19.939C15.1845 21.073 16.6253 22 17.3791 22C19.0103 22 26.4814 17.781 26.4921 16.855C26.5029 15.984 5.41385 -0.00799989 4.3087 0.0320001C3.82876 0.0490001 2.66178 0.661 1.71759 1.392ZM8.83333 23.477C8.83333 27.327 9.0365 27.495 11.8426 25.965C14.3659 24.589 14.2354 23.561 11.287 21.592L8.83333 19.954V23.477Z" fill="#2B2E35"/>
<path fill-rule="evenodd" clip-rule="evenodd" d="M1.47222 1.59C-0.378852 3.028 -0.391611 3.173 1.24746 4.119C2.20343 4.671 2.71772 5.565 2.38991 6.105C2.06209 6.646 2.47628 8.15 3.31054 9.447C4.30674 10.996 4.94078 14.847 5.1567 20.653L5.4855 29.5L5.6867 19.281C5.85748 10.662 6.11954 9.153 7.36111 9.638C8.20617 9.969 8.83333 11.462 8.83333 13.142C8.83333 15.81 9.01687 15.97 10.9013 14.943C13.4787 13.537 16.1866 15.46 13.7712 16.981C12.5581 17.745 12.6179 18.184 14.1775 19.939C15.1845 21.073 16.6253 22 17.3791 22C19.0103 22 26.4814 17.781 26.4921 16.855C26.5029 15.984 5.41385 -0.00799989 4.3087 0.0320001C3.82876 0.0490001 2.55185 0.75 1.47222 1.59Z" fill="#222328"/>
<path fill-rule="evenodd" clip-rule="evenodd" d="M1.55859 1.51C-0.260093 2.913 -0.237519 3.022 2.2947 5.051C4.81907 7.074 4.91428 7.523 5.1145 18.323L5.32159 29.5L5.63861 19.295C5.90263 10.825 6.201 9.185 7.39448 9.652C8.20518 9.968 8.83333 11.492 8.83333 13.142C8.83333 15.81 9.01687 15.97 10.9013 14.943C13.4787 13.537 16.1866 15.46 13.7712 16.981C12.5581 17.745 12.6179 18.184 14.1775 19.939C15.1845 21.073 16.6253 22 17.3791 22C19.0103 22 26.4814 17.781 26.4921 16.855C26.5029 15.984 5.41385 -0.00799989 4.3087 0.0320001C3.82876 0.0490001 2.59111 0.715 1.55859 1.51Z" fill="#FFFF00"/>
<path fill-rule="evenodd" clip-rule="evenodd" d="M1.55859 1.51C-0.260093 2.913 -0.237519 3.022 2.2947 5.051C4.81907 7.074 4.91428 7.523 5.1145 18.323L5.32159 29.5L5.63861 19.295C5.90263 10.825 6.201 9.185 7.39448 9.652C8.18654 9.961 8.83333 11.34 8.83333 12.715C8.83333 14.867 9.16802 15.131 11.2272 14.605C13.6396 13.988 16.1513 16.015 13.9145 16.774C12.0732 17.4 12.5639 18.823 15.2326 20.605C17.5793 22.172 17.9326 22.134 22.103 19.88C24.5213 18.573 26.5 17.268 26.5 16.98C26.5 16.161 5.37459 -0.0039995 4.34993 0.0320005C3.84643 0.0490005 2.59111 0.715 1.55859 1.51Z" fill="#FFC700"/>
<path fill-rule="evenodd" clip-rule="evenodd" d="M1.54387 1.521C0.503501 2.323 -0.110907 3.22 0.177649 3.514C0.465223 3.808 1.26022 3.362 1.94333 2.524C2.62645 1.686 3.59419 1 4.09376 1C5.30785 1 24.537 15.87 24.537 16.809C24.537 17.214 23.0413 18.366 21.2137 19.369C18.4499 20.885 17.5116 20.986 15.6389 19.965C13.5808 18.842 13.5287 18.631 15.0363 17.508C17.1563 15.928 17.1131 15.304 14.7949 14.04C13.5081 13.338 12.1782 13.334 10.6236 14.028C8.44172 15.002 8.45743 15.023 10.9818 14.519C13.5965 13.997 16.1994 15.998 13.9145 16.774C12.0732 17.4 12.5639 18.823 15.2326 20.605C17.5793 22.172 17.9326 22.134 22.103 19.88C24.5213 18.573 26.5 17.268 26.5 16.98C26.5 16.161 5.37459 -0.0039995 4.34993 0.0320005C3.84643 0.0490005 2.58424 0.720001 1.54387 1.521ZM3.68056 6.043C4.47752 6.925 4.98004 11.269 5.1145 18.45L5.32159 29.5L5.63959 19.234C5.94483 9.384 6.03611 9.01 7.8862 10.019C10.9651 11.698 10.125 10.472 6.13426 7.462C4.11045 5.935 3.00628 5.297 3.68056 6.043Z" fill="#FCC91B"/>
<path fill-rule="evenodd" clip-rule="evenodd" d="M5.27448 18.5C5.27644 24.55 5.43839 26.896 5.6337 23.713C5.82902 20.531 5.82706 15.581 5.62978 12.713C5.4325 9.846 5.27252 12.45 5.27448 18.5Z" fill="#FF8080"/>
<path fill-rule="evenodd" clip-rule="evenodd" d="M5.27448 18.5C5.27644 24.55 5.43839 26.896 5.6337 23.713C5.82902 20.531 5.82706 15.581 5.62978 12.713C5.4325 9.846 5.27252 12.45 5.27448 18.5Z" fill="white"/>
</svg>
