<svg width="125" height="250" viewBox="0 0 250 250" fill="none" xmlns="http://www.w3.org/2000/svg">
<path fill-rule="evenodd" clip-rule="evenodd" d="M0 125V250H125H250V125V0H125H0V125Z" fill="#F2D9BB"/>
<path fill-rule="evenodd" clip-rule="evenodd" d="M0 125V250H125H250V125V0H125H0V125ZM57.179 45.383C66.216 49.1 90.282 66.09 88.271 67.333C87.846 67.595 85.924 66.256 83.999 64.357C76.427 56.886 59.863 46.735 51.617 44.511C48.554 43.685 47.504 43.115 49 43.09C50.375 43.066 54.056 44.099 57.179 45.383ZM201.269 43.656C200.592 43.93 199.242 43.947 198.269 43.693C197.296 43.439 197.85 43.215 199.5 43.195C201.15 43.175 201.946 43.382 201.269 43.656ZM191.347 46.458C184.386 49.623 170.23 59.136 166.026 63.473C164.146 65.413 162.005 67 161.269 67C158.042 67 179.397 51.21 188.5 46.865C191.8 45.29 194.95 44.027 195.5 44.058C196.05 44.09 194.181 45.17 191.347 46.458ZM55.851 56.098C57.583 56.702 59 57.602 59 58.098C59 58.594 59.58 59 60.289 59C62.247 59 73 67.2 73 68.692C73 69.411 72.854 70 72.676 70C72.497 70 69.064 67.541 65.047 64.535C61.029 61.529 56.225 58.569 54.371 57.957C52.517 57.346 51 56.43 51 55.922C51 54.723 52.01 54.759 55.851 56.098ZM198 55.892C198 56.382 196.929 57.052 195.621 57.38C194.312 57.709 189.882 60.388 185.776 63.334C175.992 70.353 176 70.349 176 68.752C176 68.001 178.88 65.271 182.4 62.687C190.836 56.492 198 53.372 198 55.892ZM140.2 63.399C149.007 65.633 161.138 70.797 162.409 72.853C162.714 73.346 160.159 72.264 156.732 70.448C149.682 66.713 137.451 63.208 128.407 62.331C118.078 61.329 101.161 65.385 90.263 71.476C87.787 72.86 86.265 73.386 86.88 72.645C88.634 70.531 100.75 65.312 109 63.117C119.256 60.388 128.666 60.473 140.2 63.399ZM77.269 73.656C76.592 73.93 75.242 73.947 74.269 73.693C73.296 73.439 73.85 73.215 75.5 73.195C77.15 73.175 77.946 73.382 77.269 73.656ZM176 73.861C176 74.335 174.875 74.508 173.5 74.245C172.125 73.982 171 73.594 171 73.383C171 73.173 172.125 73 173.5 73C174.875 73 176 73.388 176 73.861ZM71.729 80.604C71.397 80.936 70.534 80.972 69.813 80.683C69.015 80.364 69.252 80.127 70.417 80.079C71.471 80.036 72.061 80.272 71.729 80.604ZM179.25 80.662C178.563 80.94 177.438 80.94 176.75 80.662C176.063 80.385 176.625 80.158 178 80.158C179.375 80.158 179.938 80.385 179.25 80.662ZM67 82.378C67 82.585 66.213 83.373 65.25 84.128C63.664 85.371 63.629 85.336 64.872 83.75C66.179 82.084 67 81.555 67 82.378ZM59 91.5C56.571 93.975 54.359 96 54.084 96C53.809 96 55.571 93.975 58 91.5C60.429 89.025 62.641 87 62.916 87C63.191 87 61.429 89.025 59 91.5ZM195.238 95.333C196.299 96.342 196.99 97.343 196.775 97.559C196.559 97.774 193.934 95.378 190.941 92.234C186.251 87.307 188.498 88.928 195.238 95.333ZM154.729 111.604C154.397 111.936 153.534 111.972 152.813 111.683C152.015 111.364 152.252 111.127 153.417 111.079C154.471 111.036 155.061 111.272 154.729 111.604ZM105.5 120C105.16 120.55 103.896 120.955 102.691 120.9C100.651 120.808 100.673 120.745 103 120C104.375 119.56 105.639 119.155 105.809 119.1C105.979 119.045 105.84 119.45 105.5 120ZM146.644 120.794C145.623 121.011 144.351 120.751 143.818 120.218C143.192 119.592 143.849 119.452 145.674 119.825C147.767 120.251 148.019 120.503 146.644 120.794ZM83 123C83.825 123.533 84.05 123.969 83.5 123.969C82.95 123.969 81.825 123.533 81 123C80.175 122.467 79.95 122.031 80.5 122.031C81.05 122.031 82.175 122.467 83 123ZM165.362 124.108C163.086 125.213 159.261 127.707 156.862 129.65L152.5 133.184L156.723 129.23C160.779 125.432 166.401 122.016 168.5 122.073C169.05 122.088 167.638 123.004 165.362 124.108ZM89.567 127.109C89.941 127.713 89.066 127.434 87.623 126.489C86.18 125.543 85 124.581 85 124.35C85 123.626 88.854 125.955 89.567 127.109ZM94 130.5C95.292 131.875 96.124 133 95.849 133C95.574 133 94.292 131.875 93 130.5C91.708 129.125 90.876 128 91.151 128C91.426 128 92.708 129.125 94 130.5ZM152 133.378C152 133.585 151.213 134.373 150.25 135.128C148.664 136.371 148.629 136.336 149.872 134.75C151.179 133.084 152 132.555 152 133.378ZM57.25 139.662C56.563 139.94 55.438 139.94 54.75 139.662C54.063 139.385 54.625 139.158 56 139.158C57.375 139.158 57.938 139.385 57.25 139.662ZM69.25 139.662C68.563 139.94 67.438 139.94 66.75 139.662C66.063 139.385 66.625 139.158 68 139.158C69.375 139.158 69.938 139.385 69.25 139.662ZM119.75 139.689C118.787 139.941 117.213 139.941 116.25 139.689C115.287 139.438 116.075 139.232 118 139.232C119.925 139.232 120.713 139.438 119.75 139.689ZM133.25 139.662C132.563 139.94 131.438 139.94 130.75 139.662C130.063 139.385 130.625 139.158 132 139.158C133.375 139.158 133.938 139.385 133.25 139.662ZM182.25 139.662C181.563 139.94 180.438 139.94 179.75 139.662C179.063 139.385 179.625 139.158 181 139.158C182.375 139.158 182.938 139.385 182.25 139.662ZM194.25 139.662C193.563 139.94 192.438 139.94 191.75 139.662C191.063 139.385 191.625 139.158 193 139.158C194.375 139.158 194.938 139.385 194.25 139.662ZM51.729 140.604C51.397 140.936 50.534 140.972 49.813 140.683C49.015 140.364 49.252 140.127 50.417 140.079C51.471 140.036 52.061 140.272 51.729 140.604ZM112.729 140.604C112.397 140.936 111.534 140.972 110.813 140.683C110.015 140.364 110.252 140.127 111.417 140.079C112.471 140.036 113.061 140.272 112.729 140.604ZM137.729 140.604C137.397 140.936 136.534 140.972 135.813 140.683C135.015 140.364 135.252 140.127 136.417 140.079C137.471 140.036 138.061 140.272 137.729 140.604ZM201 141C202.828 142.181 201.249 142.181 198.5 141C197.181 140.433 197.011 140.122 198 140.086C198.825 140.055 200.175 140.467 201 141ZM47.917 141.319C46.327 142.538 40 145.84 40 145.452C40 144.783 46.294 141.008 47.417 141.004C47.921 141.002 48.146 141.144 47.917 141.319ZM122.25 142.662C121.563 142.94 120.438 142.94 119.75 142.662C119.063 142.385 119.625 142.158 121 142.158C122.375 142.158 122.938 142.385 122.25 142.662ZM128.729 142.604C128.397 142.936 127.534 142.972 126.813 142.683C126.015 142.364 126.252 142.127 127.417 142.079C128.471 142.036 129.061 142.272 128.729 142.604ZM207.139 144.059L209.5 146.119L206.5 144.362C202.552 142.05 202.493 142 203.723 142C204.303 142 205.841 142.927 207.139 144.059ZM214.129 189.521C213.056 192.845 212.155 194.501 212.1 193.25C211.987 190.706 209.844 190.278 208.049 192.441C207.392 193.233 206.22 193.638 205.446 193.341C204.672 193.044 201.327 194.84 198.012 197.332C182.199 209.218 161.329 214.888 130.241 215.743C105.095 216.434 86.436 213.911 69.471 207.525C61.749 204.619 57.707 202.346 50.255 196.723C46.858 194.159 44.326 192.943 43.069 193.272C41.901 193.577 40.901 193.184 40.555 192.283C40.159 191.25 39.212 190.981 37.491 191.413C35.679 191.868 34.966 191.624 34.875 190.519C34.721 188.649 34.533 187.965 33.569 185.783C33.152 184.839 33.005 183.489 33.242 182.783C33.479 182.077 34.232 183.188 34.914 185.25C35.757 187.798 36.753 189 38.019 189C39.043 189 40.183 189.486 40.55 190.081C40.918 190.676 42.211 190.913 43.425 190.608C45.023 190.207 47.773 191.545 53.404 195.465C66.339 204.468 81.057 208.953 104.5 211.034C116.759 212.123 144.768 211.862 151.572 210.595C152.632 210.397 155.525 209.92 158 209.533C172.38 207.288 185.899 202.385 193.853 196.529C202.027 190.512 203.851 189.632 205.431 190.943C206.389 191.738 207.068 191.623 207.99 190.512C208.68 189.681 210.019 189 210.964 189C212.111 189 213.128 187.584 214.019 184.75C214.753 182.412 215.513 181.184 215.706 182.021C215.9 182.858 215.19 186.233 214.129 189.521Z" fill="#F7AA42"/>
<path fill-rule="evenodd" clip-rule="evenodd" d="M0 125V250H125H250V125V0H125H0V125ZM57.179 45.383C63.249 47.88 76.475 56.426 84.233 62.864L88.966 66.792L86.518 68.396C85.172 69.278 83.788 70 83.444 70C83.099 70 79.146 67.257 74.659 63.905C64.921 56.631 56.153 52 52.117 52C50.063 52 48.399 52.926 46.589 55.077C44.194 57.923 44 58.879 44 67.827C44 81.572 47.621 98 50.651 98C51.474 98 54.399 95.537 57.151 92.526C59.902 89.515 62.457 87.131 62.827 87.229C63.197 87.326 65.188 86.774 67.25 86.002C71.149 84.542 71.841 83.241 69.8 81.2C68.867 80.267 69.225 80 71.411 80C74.083 80 74.19 79.826 73.566 76.5C72.822 72.532 74.04 72.072 79.887 74.111C82.692 75.088 83.518 74.914 86.787 72.66C96.067 66.259 112.878 61 124.06 61C136.121 61 156.357 67.421 162.737 73.272C164.73 75.101 165.397 75.198 168.853 74.162C175.451 72.185 176.319 72.488 175.566 76.5C174.955 79.758 175.086 80 177.463 80C179.796 80 179.908 80.184 178.758 82.131C177.863 83.647 177.82 84.378 178.611 84.668C179.223 84.891 181.355 85.906 183.35 86.924C185.345 87.941 186.69 88.262 186.339 87.637C185.691 86.484 191.527 91.631 195.538 95.75C196.743 96.987 198.223 98 198.826 98C201.701 98 205.53 76.158 204.759 64.149C204.335 57.537 203.953 56.357 201.583 54.317C200.101 53.043 197.626 52 196.083 52C192.59 52 185.154 55.971 176.421 62.5C165.378 70.756 165.695 70.617 162.816 68.446L160.315 66.56L164.908 62.717C177.012 52.59 194.061 43 199.961 43C203.809 43 207.801 47.726 209.055 53.766C211.3 64.58 208.647 83.78 203.493 94.014L200.16 100.632L202.561 109.566C206.605 124.619 209.418 143 207.677 143C207.17 143 207.257 143.605 207.87 144.343C208.483 145.082 206.851 144.634 204.242 143.348C198.258 140.398 188.874 138.642 183.442 139.456L179.259 140.084L178.158 135.713C177.553 133.31 176.101 130.127 174.932 128.641C173.228 126.474 173.046 125.649 174.016 124.481C174.986 123.312 174.892 122.896 173.538 122.376C171.244 121.496 165.266 123.608 160.909 126.838C147.552 136.738 144.906 139 146.677 139C148.942 139 149.557 142.572 147.432 143.388C146.644 143.69 146 143.515 146 143C146 142.485 145.325 142.322 144.5 142.638C143.675 142.955 143 142.689 143 142.048C143 141.407 142.55 141.16 142 141.5C141.45 141.84 140.483 141.798 139.851 141.408C139.219 141.017 136.895 140.535 134.688 140.336C132.48 140.137 130.057 139.462 129.302 138.836C128.276 137.984 126.617 137.99 122.715 138.86C119.847 139.499 115.7 140.129 113.5 140.261C111.3 140.392 109.221 140.881 108.881 141.348C108.54 141.814 107.078 142.264 105.631 142.348C104.185 142.431 103.001 142.823 103.001 143.219C103 143.614 102.325 143.678 101.5 143.362C99.143 142.457 99.627 139 102.11 139C104.145 139 102.367 137.445 88.6 127.191C84.881 124.421 79.442 122 76.937 122C74.877 122 73.085 124.195 74.704 124.735C75.317 124.939 74.361 127.873 72.428 131.715C70.594 135.36 69.324 138.715 69.606 139.171C69.887 139.627 69.218 140 68.118 140C67.018 140 65.84 139.55 65.5 139C64.724 137.745 59.722 137.688 58.45 138.92C57.927 139.426 55.475 139.988 53 140.17C50.525 140.351 48.275 140.745 48 141.045C47.725 141.344 45.877 142.529 43.892 143.677L40.285 145.765L40.692 139.132C41.133 131.954 43.745 118.606 46.866 107.58L48.826 100.66L45.407 93.951C42.908 89.049 41.587 84.584 40.5 77.371C37.845 59.762 38.82 51.027 44.017 45.829C47.436 42.41 49.76 42.332 57.179 45.383ZM55.851 56.098C57.583 56.702 59 57.602 59 58.098C59 58.594 59.58 59 60.289 59C62.247 59 73 67.2 73 68.692C73 69.411 72.854 70 72.676 70C72.497 70 69.064 67.541 65.047 64.535C61.029 61.529 56.225 58.569 54.371 57.957C52.517 57.346 51 56.43 51 55.922C51 54.723 52.01 54.759 55.851 56.098ZM198 55.892C198 56.382 196.929 57.052 195.621 57.38C194.312 57.709 189.882 60.388 185.776 63.334C175.992 70.353 176 70.349 176 68.752C176 68.001 178.88 65.271 182.4 62.687C190.836 56.492 198 53.372 198 55.892ZM67 82.378C67 82.585 66.213 83.373 65.25 84.128C63.664 85.371 63.629 85.336 64.872 83.75C66.179 82.084 67 81.555 67 82.378ZM90.949 110.051C87.734 113.266 89.812 117.53 95.815 120.034C98.583 121.189 100.294 121.285 99.654 120.25C99.398 119.838 100.918 119.566 103.03 119.646C106.787 119.788 106.849 119.734 105.866 117.148C104.578 113.759 102.208 111.159 98.802 109.398C95.118 107.493 93.361 107.639 90.949 110.051ZM149.11 109.396C147.003 110.563 142.019 117.405 142.005 119.148C142.002 119.504 143.757 119.729 145.905 119.648C148.053 119.567 149.602 119.838 149.346 120.25C148.586 121.479 150.975 121.106 154.46 119.452C158.347 117.607 160.46 113.729 159.032 111.061C157.302 107.828 153.185 107.137 149.11 109.396ZM154.729 111.604C154.397 111.936 153.534 111.972 152.813 111.683C152.015 111.364 152.252 111.127 153.417 111.079C154.471 111.036 155.061 111.272 154.729 111.604ZM122.25 142.662C121.563 142.94 120.438 142.94 119.75 142.662C119.063 142.385 119.625 142.158 121 142.158C122.375 142.158 122.938 142.385 122.25 142.662ZM128.729 142.604C128.397 142.936 127.534 142.972 126.813 142.683C126.015 142.364 126.252 142.127 127.417 142.079C128.471 142.036 129.061 142.272 128.729 142.604ZM214.129 189.521C213.056 192.845 212.155 194.501 212.1 193.25C211.987 190.706 209.844 190.278 208.049 192.441C207.392 193.233 206.22 193.638 205.446 193.341C204.672 193.044 201.327 194.84 198.012 197.332C182.199 209.218 161.329 214.888 130.241 215.743C105.095 216.434 86.436 213.911 69.471 207.525C61.749 204.619 57.707 202.346 50.255 196.723C46.858 194.159 44.326 192.943 43.069 193.272C41.901 193.577 40.901 193.184 40.555 192.283C40.159 191.25 39.212 190.981 37.491 191.413C35.679 191.868 34.966 191.624 34.875 190.519C34.721 188.649 34.533 187.965 33.569 185.783C33.152 184.839 33.005 183.489 33.242 182.783C33.479 182.077 34.232 183.188 34.914 185.25C35.757 187.798 36.753 189 38.019 189C39.043 189 40.183 189.486 40.55 190.081C40.918 190.676 42.211 190.913 43.425 190.608C45.023 190.207 47.773 191.545 53.404 195.465C66.339 204.468 81.057 208.953 104.5 211.034C116.759 212.123 144.768 211.862 151.572 210.595C152.632 210.397 155.525 209.92 158 209.533C172.38 207.288 185.899 202.385 193.853 196.529C202.027 190.512 203.851 189.632 205.431 190.943C206.389 191.738 207.068 191.623 207.99 190.512C208.68 189.681 210.019 189 210.964 189C212.111 189 213.128 187.584 214.019 184.75C214.753 182.412 215.513 181.184 215.706 182.021C215.9 182.858 215.19 186.233 214.129 189.521Z" fill="#C1B1A1"/>
<path fill-rule="evenodd" clip-rule="evenodd" d="M0 125V250H125H250V125V0H125H0V125ZM57.014 44.913C62.331 46.934 78.843 57.661 85.367 63.334L89.235 66.697L86.343 68.756L83.451 70.815L74.976 64.3C65.555 57.058 56.347 52 52.584 52C51.224 52 48.884 53.056 47.385 54.346C44.898 56.485 44.618 57.444 44.209 65.245C43.594 76.95 47.388 98 50.112 98C50.693 98 53.634 95.647 56.648 92.77C60.036 89.536 63.82 87 66.564 86.125C71.077 84.684 71.952 83.352 69.8 81.2C68.867 80.267 69.2 80 71.3 80C74.17 80 74.605 78.999 73.021 76.039C71.332 72.883 73.993 71.733 78.944 73.48C82.999 74.911 83.3 74.875 86.335 72.6C95.431 65.784 111.454 60.828 124.5 60.796C137.447 60.765 153.494 65.728 162.665 72.6C165.642 74.831 166.063 74.889 169.764 73.583C174.775 71.815 176.431 72.761 175.527 76.875C174.887 79.79 175.028 80 177.621 80C179.782 80 180.133 80.267 179.2 81.2C177.254 83.146 177.812 84.728 180.75 85.588C182.262 86.031 184.039 86.423 184.697 86.459C185.356 86.495 188.606 89.106 191.921 92.262C195.236 95.418 198.392 98 198.935 98C201.295 98 204.945 79.713 204.98 67.718C205.011 57.187 201.972 51.978 195.816 52.013C192.672 52.031 181.014 58.716 172.565 65.345L165.63 70.787L162.737 68.647L159.844 66.508L163.672 63.24C170.657 57.275 185.327 47.644 190.954 45.329C198.44 42.249 202.467 42.321 205.495 45.59C212.029 52.64 210.929 79.248 203.493 94.014L200.16 100.632L202.556 109.566C205.192 119.396 207.5 131.456 208.399 140.092L208.98 145.684L204.24 143.347C198.258 140.398 188.873 138.642 183.442 139.456L179.259 140.084L178.136 135.627C177.519 133.176 175.886 129.83 174.508 128.192C172.301 125.569 172.2 125.137 173.668 124.574C174.822 124.131 175.014 123.614 174.294 122.894C172.481 121.081 165.58 123.725 158.969 128.764C155.552 131.369 150.921 134.738 148.677 136.25C145.485 138.402 145.052 139 146.686 139C148.24 139 148.885 139.765 149.213 142C149.455 143.65 149.562 145 149.449 145C149.336 145 147.614 144.319 145.621 143.486C134.308 138.759 118.777 138.348 106.559 142.451C102.676 143.755 99.427 144.749 99.338 144.661C99.249 144.572 99.414 143.262 99.705 141.75C100.084 139.776 100.835 138.999 102.367 138.996C104.192 138.993 104.045 138.715 101.345 137.069C99.61 136.011 95.37 132.873 91.924 130.096C83.661 123.438 74 120.184 74 124.059C74 124.577 74.715 125 75.589 125C76.819 125 76.586 125.704 74.553 128.119C73.11 129.835 71.398 133.223 70.749 135.648L69.57 140.058L65.495 139.447C59.941 138.614 49.422 140.636 44.173 143.546L39.847 145.945L40.513 139.222C41.297 131.321 44.106 117.33 46.866 107.58L48.826 100.66L45.407 93.951C39.802 82.954 37.386 61.797 40.528 51.219C42.991 42.924 47.371 41.249 57.014 44.913ZM56.453 56.161C57.854 56.799 59 57.624 59 57.994C59 58.364 59.595 58.667 60.322 58.667C61.998 58.667 73 66.922 73 68.179C73 68.696 73.419 68.859 73.931 68.543C74.443 68.226 75.144 68.425 75.49 68.984C77.193 71.74 71.554 69.436 65.643 64.962C61.983 62.191 56.965 59.057 54.494 57.997C52.022 56.938 50 55.83 50 55.536C50 54.592 53.823 54.962 56.453 56.161ZM199 55.453C199 55.702 197.088 56.768 194.75 57.821C192.412 58.874 187.36 62.045 183.521 64.868C177.285 69.454 171.834 71.695 173.51 68.984C173.856 68.425 174.557 68.226 175.069 68.543C175.581 68.859 176 68.696 176 68.179C176 66.981 185.309 59.932 190.517 57.187C194.107 55.296 199 54.295 199 55.453ZM47.693 75.731C47.439 76.704 47.215 76.15 47.195 74.5C47.175 72.85 47.382 72.054 47.656 72.731C47.93 73.408 47.947 74.758 47.693 75.731ZM69.683 74.188C69.364 74.985 69.127 74.748 69.079 73.583C69.036 72.529 69.272 71.939 69.604 72.271C69.936 72.603 69.972 73.466 69.683 74.188ZM179.683 74.188C179.364 74.985 179.127 74.748 179.079 73.583C179.036 72.529 179.272 71.939 179.604 72.271C179.936 72.603 179.972 73.466 179.683 74.188ZM201.689 76.75C201.438 77.713 201.232 76.925 201.232 75C201.232 73.075 201.438 72.287 201.689 73.25C201.941 74.213 201.941 75.787 201.689 76.75ZM67 82.378C67 82.585 66.213 83.373 65.25 84.128C63.664 85.371 63.629 85.336 64.872 83.75C66.179 82.084 67 81.555 67 82.378ZM48.683 85.188C48.364 85.985 48.127 85.748 48.079 84.583C48.036 83.529 48.272 82.939 48.604 83.271C48.936 83.603 48.972 84.466 48.683 85.188ZM49.683 91.188C49.364 91.985 49.127 91.748 49.079 90.583C49.036 89.529 49.272 88.939 49.604 89.271C49.936 89.603 49.972 90.466 49.683 91.188ZM198.683 96.188C198.364 96.985 198.127 96.748 198.079 95.583C198.036 94.529 198.272 93.939 198.604 94.271C198.936 94.603 198.972 95.466 198.683 96.188ZM46.382 100.552C46.723 101.442 46.555 101.843 45.989 101.493C45.445 101.157 45 100.459 45 99.941C45 98.503 45.717 98.82 46.382 100.552ZM91 110C89.9 111.1 89 112.443 89 112.984C89 114.975 94.589 119.947 97.5 120.545C99.425 120.941 100.041 120.836 99.218 120.252C98.387 119.663 99.512 119.431 102.415 119.595C106.886 119.848 106.891 119.844 105.877 117.176C104.578 113.76 102.216 111.163 98.802 109.398C95.135 107.501 93.362 107.638 91 110ZM151 108.706C147.845 109.86 142 116.79 142 119.377C142 119.64 144.039 119.739 146.532 119.598C149.149 119.451 150.522 119.686 149.782 120.156C147.394 121.671 150.969 121.108 154.562 119.404C162.602 115.588 159.3 105.672 151 108.706ZM154.25 111.662C153.563 111.94 152.438 111.94 151.75 111.662C151.063 111.385 151.625 111.158 153 111.158C154.375 111.158 154.938 111.385 154.25 111.662ZM102.128 113.75C103.371 115.336 103.336 115.371 101.75 114.128C100.084 112.821 99.555 112 100.378 112C100.585 112 101.373 112.787 102.128 113.75ZM148 113.378C148 113.585 147.213 114.373 146.25 115.128C144.664 116.371 144.629 116.336 145.872 114.75C147.179 113.084 148 112.555 148 113.378ZM92.124 143.267C91.136 144.247 91.022 144.132 91.564 142.707C91.94 141.721 92.499 141.166 92.807 141.474C93.115 141.781 92.808 142.588 92.124 143.267ZM70.683 144.188C70.364 144.985 70.127 144.748 70.079 143.583C70.036 142.529 70.272 141.939 70.604 142.271C70.936 142.603 70.972 143.466 70.683 144.188ZM126.75 142.716C125.237 142.945 122.763 142.945 121.25 142.716C119.737 142.487 120.975 142.3 124 142.3C127.025 142.3 128.262 142.487 126.75 142.716ZM120.5 146C120.84 146.55 120.39 147 119.5 147C118.61 147 118.16 146.55 118.5 146C118.84 145.45 119.29 145 119.5 145C119.71 145 120.16 145.45 120.5 146ZM118.563 157.25L121.5 160.5L118.25 157.563C115.221 154.825 114.54 154 115.313 154C115.485 154 116.948 155.463 118.563 157.25ZM133 155.326C133 155.505 131.762 156.742 130.25 158.076L127.5 160.5L129.924 157.75C132.19 155.18 133 154.541 133 155.326ZM86.269 156.656C85.592 156.93 84.242 156.947 83.269 156.693C82.296 156.439 82.85 156.215 84.5 156.195C86.15 156.175 86.946 156.382 86.269 156.656ZM166.269 156.656C165.592 156.93 164.242 156.947 163.269 156.693C162.296 156.439 162.85 156.215 164.5 156.195C166.15 156.175 166.946 156.382 166.269 156.656ZM126.269 160.656C125.592 160.93 124.242 160.947 123.269 160.693C122.296 160.439 122.85 160.215 124.5 160.195C126.15 160.175 126.946 160.382 126.269 160.656ZM215.662 163.25C215.385 163.938 215.158 163.375 215.158 162C215.158 160.625 215.385 160.063 215.662 160.75C215.94 161.438 215.94 162.563 215.662 163.25ZM150.225 166.175C149.559 166.841 148.97 166.76 148.458 165.933C147.964 165.132 148.101 164.945 148.845 165.405C149.549 165.839 150.031 165.412 150.079 164.309C150.131 163.118 150.34 162.957 150.691 163.838C150.985 164.573 150.775 165.625 150.225 166.175ZM147 166.326C147 166.505 145.762 167.742 144.25 169.076L141.5 171.5L143.924 168.75C146.19 166.18 147 165.541 147 166.326ZM34.928 185.75C35.721 187.783 36.886 189 38.039 189C39.053 189 40.183 189.486 40.55 190.081C40.918 190.676 42.211 190.913 43.425 190.608C45.023 190.207 47.773 191.545 53.404 195.465C66.339 204.468 81.057 208.953 104.5 211.034C116.759 212.123 144.768 211.862 151.572 210.595C152.632 210.397 155.525 209.92 158 209.533C172.38 207.288 185.899 202.385 193.853 196.529C202.027 190.512 203.851 189.632 205.431 190.943C206.389 191.738 207.068 191.623 207.99 190.512C208.68 189.681 209.997 189 210.915 189C212.626 189 215.573 181.713 216.374 175.5C216.587 173.85 216.596 175.439 216.394 179.032C216.002 185.994 212.21 198.912 212.073 193.75C211.987 190.525 210.968 190.273 208.598 192.892C207.578 194.018 206.099 194.577 204.938 194.274C203.659 193.939 201.167 195.171 197.678 197.863C187.248 205.909 169.995 212.134 149.88 215.108C139.086 216.704 109.914 216.704 99.12 215.108C78.561 212.069 62.998 206.455 51.115 197.792C46.664 194.547 44.264 193.366 43.466 194.028C42.679 194.681 41.72 194.348 40.497 192.996C38.033 190.274 37.013 190.49 36.93 193.75C36.865 196.272 36.742 196.18 35.442 192.635C34.662 190.508 34.247 188.409 34.519 187.97C34.79 187.53 34.516 187.005 33.909 186.803C33.253 186.584 32.688 183.006 32.516 177.968C32.24 169.903 32.261 169.81 32.944 176C33.338 179.575 34.231 183.963 34.928 185.75ZM139.269 171.656C138.592 171.93 137.242 171.947 136.269 171.693C135.296 171.439 135.85 171.215 137.5 171.195C139.15 171.175 139.946 171.382 139.269 171.656Z" fill="#E06633"/>
<path fill-rule="evenodd" clip-rule="evenodd" d="M0 125V250H125H250V125V0H125H0V125ZM57.014 44.913C62.331 46.934 78.843 57.661 85.367 63.334L89.235 66.697L86.313 68.777L83.392 70.857L75.342 64.646C66.288 57.66 56.308 52 53.044 52C46.921 52 44 57.259 44 68.284C44 79.311 47.871 98 50.155 98C50.712 98 53.613 95.667 56.6 92.816C59.588 89.964 63.656 87.073 65.641 86.39C70.519 84.714 71.64 83.476 70.035 81.542C68.952 80.237 69.073 80 70.819 80C73.496 80 74.352 78.525 73.067 76.126C71.329 72.878 73.925 71.709 78.944 73.48C82.999 74.911 83.3 74.875 86.335 72.6C95.431 65.784 111.454 60.828 124.5 60.796C137.447 60.765 153.494 65.728 162.665 72.6C165.642 74.831 166.063 74.889 169.764 73.583C174.51 71.909 176.228 72.746 175.812 76.531C175.557 78.846 175.957 79.479 177.99 79.976C179.673 80.388 180.078 80.834 179.24 81.352C178.558 81.773 178 82.53 178 83.033C178 84.127 183.541 87.131 184.872 86.76C185.385 86.617 188.537 89.088 191.876 92.25C195.215 95.412 198.397 98 198.946 98C201.219 98 204.943 79.002 204.98 67.218C205.012 57.282 201.879 52 195.956 52C192.742 52 183.633 57.159 174.029 64.418L165.557 70.821L162.622 68.731L159.686 66.64L163.593 63.306C170.653 57.279 185.302 47.654 190.954 45.329C201.144 41.137 206.175 42.966 208.831 51.829C211.221 59.808 209.652 78.51 205.189 95.219C203.506 101.524 202 104.804 202 102.167C202 101.525 201.626 101 201.168 101C200.71 101 201.828 106.452 203.651 113.116C206.6 123.893 209 137.557 209 143.571V145.694L204.25 143.352C198.241 140.389 188.872 138.642 183.395 139.463C178.865 140.143 179.029 140.301 177.593 133.827C177.267 132.357 175.876 129.817 174.501 128.184C172.299 125.567 172.2 125.137 173.668 124.574C174.822 124.131 175.014 123.614 174.294 122.894C172.581 121.181 165.867 123.582 159.911 128.039C156.935 130.265 152.547 133.53 150.159 135.293C147.402 137.33 146.36 138.611 147.303 138.803C148.424 139.031 150.49 145 149.449 145C149.336 145 147.614 144.319 145.621 143.486C134.308 138.759 118.777 138.348 106.559 142.451C102.676 143.755 99.427 144.749 99.338 144.661C99.249 144.572 99.414 143.262 99.705 141.75C100.018 140.122 100.9 138.979 101.867 138.948C103.183 138.905 103.092 138.61 101.402 137.427C100.248 136.619 96.216 133.497 92.442 130.49C85.091 124.632 76.621 120.979 74.743 122.857C73.973 123.627 74.141 124.117 75.332 124.574C76.8 125.137 76.699 125.569 74.492 128.192C73.114 129.83 71.481 133.176 70.864 135.627L69.741 140.084L65.581 139.46C59.981 138.62 49.463 140.614 44.25 143.503L40 145.859L40.007 142.68C40.019 137.521 42.735 122.217 45.454 112C48.302 101.294 48.399 100.635 46.998 101.501C44.649 102.953 40.052 82.643 39.302 67.5C38.236 45.982 43.192 39.661 57.014 44.913ZM131.718 44.952C135.764 44.828 143 46.142 143 47C143 47.405 144.811 47.98 147.025 48.277C149.238 48.573 153.28 49.983 156.006 51.408C158.733 52.834 161.646 54 162.482 54C163.317 54 164 54.505 164 55.122C164 55.853 164.586 55.766 165.677 54.872C169.24 51.956 165.546 56.605 161.259 60.431L157.018 64.217L147.259 61.127C128.419 55.162 117.526 55.246 100.217 61.49C96.39 62.87 92.862 63.983 92.379 63.962C91.896 63.94 89.25 61.908 86.5 59.445C83.75 56.982 82.361 55.276 83.414 55.653C84.731 56.126 85.105 55.979 84.612 55.181C84.165 54.459 84.41 54.22 85.261 54.547C86.012 54.835 87.455 54.155 88.468 53.035C89.481 51.916 91.065 51 91.988 51C92.911 51 94.004 50.663 94.417 50.25C94.829 49.837 95.467 49.463 95.833 49.418C97.164 49.256 102.603 47.79 107.068 46.391C109.58 45.604 114.53 44.687 118.068 44.354C121.605 44.02 124.672 43.595 124.881 43.409C125.091 43.223 126.09 43.513 127.1 44.053C128.11 44.594 130.189 44.998 131.718 44.952ZM56.453 56.161C57.854 56.799 59 57.624 59 57.994C59 58.364 59.595 58.667 60.322 58.667C61.998 58.667 73 66.922 73 68.179C73 68.696 73.419 68.859 73.931 68.543C74.443 68.226 75.144 68.425 75.49 68.984C77.193 71.74 71.554 69.436 65.643 64.962C61.983 62.191 56.965 59.057 54.494 57.997C52.022 56.938 50 55.83 50 55.536C50 54.592 53.823 54.962 56.453 56.161ZM199 55.453C199 55.702 197.088 56.768 194.75 57.821C192.412 58.874 187.36 62.045 183.521 64.868C177.285 69.454 171.834 71.695 173.51 68.984C173.856 68.425 174.557 68.226 175.069 68.543C175.581 68.859 176 68.696 176 68.179C176 66.981 185.309 59.932 190.517 57.187C194.107 55.296 199 54.295 199 55.453ZM47.693 75.731C47.439 76.704 47.215 76.15 47.195 74.5C47.175 72.85 47.382 72.054 47.656 72.731C47.93 73.408 47.947 74.758 47.693 75.731ZM69.683 74.188C69.364 74.985 69.127 74.748 69.079 73.583C69.036 72.529 69.272 71.939 69.604 72.271C69.936 72.603 69.972 73.466 69.683 74.188ZM179.683 74.188C179.364 74.985 179.127 74.748 179.079 73.583C179.036 72.529 179.272 71.939 179.604 72.271C179.936 72.603 179.972 73.466 179.683 74.188ZM201.689 76.75C201.438 77.713 201.232 76.925 201.232 75C201.232 73.075 201.438 72.287 201.689 73.25C201.941 74.213 201.941 75.787 201.689 76.75ZM67 82.378C67 82.585 66.213 83.373 65.25 84.128C63.664 85.371 63.629 85.336 64.872 83.75C66.179 82.084 67 81.555 67 82.378ZM48.683 85.188C48.364 85.985 48.127 85.748 48.079 84.583C48.036 83.529 48.272 82.939 48.604 83.271C48.936 83.603 48.972 84.466 48.683 85.188ZM49.683 91.188C49.364 91.985 49.127 91.748 49.079 90.583C49.036 89.529 49.272 88.939 49.604 89.271C49.936 89.603 49.972 90.466 49.683 91.188ZM42.235 102.513C43.71 105.342 43.653 105.984 41.291 113.013C38.642 120.897 36.01 134.941 36.004 141.226C36.002 143.306 35.069 146.398 33.894 148.226C32.735 150.027 32.104 150.6 32.49 149.5C33.717 146.01 33.748 144.521 32.608 143.765C31.823 143.244 31.818 143.026 32.591 143.015C33.31 143.005 33.462 141.542 33.036 138.735C32.354 134.244 32.543 118.253 33.328 114C34.845 105.788 36.351 100.803 37.443 100.384C38.241 100.077 38.576 98.391 38.374 95.702L38.057 91.5L39.36 95.5C40.077 97.7 41.371 100.856 42.235 102.513ZM198.683 96.188C198.364 96.985 198.127 96.748 198.079 95.583C198.036 94.529 198.272 93.939 198.604 94.271C198.936 94.603 198.972 95.466 198.683 96.188ZM209.945 114C210.25 114.275 210.537 115.287 210.583 116.25C210.852 121.893 211.084 123.066 211.839 122.599C212.301 122.314 212.736 123.606 212.806 125.47C212.877 127.335 213.384 131.658 213.935 135.077C214.486 138.497 214.656 141.747 214.314 142.302C213.96 142.873 214.19 143 214.845 142.595C215.931 141.925 216.082 142.356 216.398 147C216.454 147.825 216.864 149.063 217.309 149.75C217.754 150.438 217.738 151 217.275 151C215.293 151 213.228 144.937 212.676 137.5C212.349 133.1 210.889 125 209.431 119.5C206.204 107.325 205.269 101.453 207.68 108.5C208.62 111.25 209.64 113.725 209.945 114ZM91.75 109.392C87.719 112.452 91.171 119.125 97.5 120.507C99.755 120.999 100.128 120.9 99 120.109C97.887 119.328 98.462 119.211 101.232 119.656C104.137 120.123 105.104 119.893 105.592 118.62C106.426 116.446 103.65 112.367 99.696 109.956C95.972 107.686 94.167 107.557 91.75 109.392ZM149.304 109.956C145.35 112.367 142.574 116.446 143.408 118.62C143.896 119.893 144.863 120.123 147.768 119.656C150.538 119.211 151.113 119.328 150 120.109C148.872 120.9 149.245 120.999 151.5 120.507C157.902 119.109 161.022 113.14 157.171 109.655C154.803 107.512 153.213 107.573 149.304 109.956ZM154.25 111.662C153.563 111.94 152.438 111.94 151.75 111.662C151.063 111.385 151.625 111.158 153 111.158C154.375 111.158 154.938 111.385 154.25 111.662ZM102.128 113.75C103.371 115.336 103.336 115.371 101.75 114.128C100.084 112.821 99.555 112 100.378 112C100.585 112 101.373 112.787 102.128 113.75ZM148 113.378C148 113.585 147.213 114.373 146.25 115.128C144.664 116.371 144.629 116.336 145.872 114.75C147.179 113.084 148 112.555 148 113.378ZM92.124 143.267C91.136 144.247 91.022 144.132 91.564 142.707C91.94 141.721 92.499 141.166 92.807 141.474C93.115 141.781 92.808 142.588 92.124 143.267ZM70.683 144.188C70.364 144.985 70.127 144.748 70.079 143.583C70.036 142.529 70.272 141.939 70.604 142.271C70.936 142.603 70.972 143.466 70.683 144.188ZM126.75 142.716C125.237 142.945 122.763 142.945 121.25 142.716C119.737 142.487 120.975 142.3 124 142.3C127.025 142.3 128.262 142.487 126.75 142.716ZM120.5 146C120.84 146.55 120.39 147 119.5 147C118.61 147 118.16 146.55 118.5 146C118.84 145.45 119.29 145 119.5 145C119.71 145 120.16 145.45 120.5 146ZM218.807 154.526C218.499 154.834 217.94 154.279 217.564 153.293C217.022 151.868 217.136 151.753 218.124 152.733C218.808 153.412 219.115 154.219 218.807 154.526ZM118.563 157.25L121.5 160.5L118.25 157.563C115.221 154.825 114.54 154 115.313 154C115.485 154 116.948 155.463 118.563 157.25ZM133 155.326C133 155.505 131.762 156.742 130.25 158.076L127.5 160.5L129.924 157.75C132.19 155.18 133 154.541 133 155.326ZM86.269 156.656C85.592 156.93 84.242 156.947 83.269 156.693C82.296 156.439 82.85 156.215 84.5 156.195C86.15 156.175 86.946 156.382 86.269 156.656ZM166.269 156.656C165.592 156.93 164.242 156.947 163.269 156.693C162.296 156.439 162.85 156.215 164.5 156.195C166.15 156.175 166.946 156.382 166.269 156.656ZM126.269 160.656C125.592 160.93 124.242 160.947 123.269 160.693C122.296 160.439 122.85 160.215 124.5 160.195C126.15 160.175 126.946 160.382 126.269 160.656ZM215.662 163.25C215.385 163.938 215.158 163.375 215.158 162C215.158 160.625 215.385 160.063 215.662 160.75C215.94 161.438 215.94 162.563 215.662 163.25ZM150.225 166.175C149.559 166.841 148.97 166.76 148.458 165.933C147.964 165.132 148.101 164.945 148.845 165.405C149.549 165.839 150.031 165.412 150.079 164.309C150.131 163.118 150.34 162.957 150.691 163.838C150.985 164.573 150.775 165.625 150.225 166.175ZM147 166.326C147 166.505 145.762 167.742 144.25 169.076L141.5 171.5L143.924 168.75C146.19 166.18 147 165.541 147 166.326ZM34.928 185.75C35.721 187.783 36.886 189 38.039 189C39.053 189 40.183 189.486 40.55 190.081C40.918 190.676 42.211 190.913 43.425 190.608C45.023 190.207 47.773 191.545 53.404 195.465C66.339 204.468 81.057 208.953 104.5 211.034C116.759 212.123 144.768 211.862 151.572 210.595C152.632 210.397 155.525 209.92 158 209.533C172.38 207.288 185.899 202.385 193.853 196.529C202.027 190.512 203.851 189.632 205.431 190.943C206.389 191.738 207.068 191.623 207.99 190.512C208.68 189.681 209.997 189 210.915 189C212.626 189 215.573 181.713 216.374 175.5C216.587 173.85 216.596 175.439 216.394 179.032C216.002 185.994 212.21 198.912 212.073 193.75C211.987 190.525 210.968 190.273 208.598 192.892C207.578 194.018 206.099 194.577 204.938 194.274C203.659 193.939 201.167 195.171 197.678 197.863C187.248 205.909 169.995 212.134 149.88 215.108C139.086 216.704 109.914 216.704 99.12 215.108C78.561 212.069 62.998 206.455 51.115 197.792C46.664 194.547 44.264 193.366 43.466 194.028C42.679 194.681 41.72 194.348 40.497 192.996C38.033 190.274 37.013 190.49 36.93 193.75C36.865 196.272 36.742 196.18 35.442 192.635C34.662 190.508 34.247 188.409 34.519 187.97C34.79 187.53 34.516 187.005 33.909 186.803C33.253 186.584 32.688 183.006 32.516 177.968C32.24 169.903 32.261 169.81 32.944 176C33.338 179.575 34.231 183.963 34.928 185.75ZM139.269 171.656C138.592 171.93 137.242 171.947 136.269 171.693C135.296 171.439 135.85 171.215 137.5 171.195C139.15 171.175 139.946 171.382 139.269 171.656ZM198.631 202.856C197.707 203.876 195.387 205.554 193.476 206.583C191.564 207.613 190 208.802 190 209.227C190 209.652 189.298 210 188.441 210C187.584 210 187.121 210.386 187.412 210.858C187.704 211.33 186.38 212.557 184.471 213.585C182.562 214.614 181 215.693 181 215.983C181 216.274 179.537 217.142 177.75 217.913C175.963 218.684 173.348 220.114 171.939 221.091C170.53 222.068 168.055 223.184 166.439 223.571C164.823 223.959 162.938 224.719 162.25 225.26C161.563 225.802 161 225.959 161 225.609C161 225.259 159.53 225.587 157.733 226.338C155.937 227.089 152.224 228.063 149.483 228.503C146.743 228.943 143.6 229.456 142.5 229.642C134.752 230.954 115.507 230.034 110 228.089C106.939 227.007 97.506 224.379 93.709 223.551C92.174 223.216 91.159 222.552 91.453 222.075C92.104 221.022 89.182 219.769 87.91 220.556C87.409 220.865 87 220.641 87 220.059C87 219.477 85.35 219 83.333 219C81.317 219 79.998 218.668 80.403 218.263C80.809 217.858 79.421 216.725 77.32 215.745C74.893 214.613 74.412 214.153 76 214.484C105.056 220.537 112.01 221.31 130 220.489C147.32 219.698 159.335 217.942 171.5 214.422C181.611 211.496 193.24 206.372 197 203.185C200.105 200.554 200.85 200.403 198.631 202.856Z" fill="#C02823"/>
<path fill-rule="evenodd" clip-rule="evenodd" d="M44.343 40.404C39.764 42.465 36.079 49.343 35.346 57.197C34.268 68.743 38.352 93.979 42.641 102.273C44.054 105.006 44.003 105.795 41.988 112.369C40.785 116.291 39.552 120.175 39.247 121C38.943 121.825 38.63 122.95 38.553 123.5C38.215 125.902 36.939 137.809 36.676 141.003C36.518 142.93 35.157 147.024 33.652 150.1C30.186 157.183 28.661 166.911 29.207 178.456C29.553 185.8 30.146 188.495 32.358 192.797C35.145 198.219 37.629 200.219 38.939 198.098C39.487 197.213 40.003 197.299 40.943 198.432C41.826 199.495 42.726 199.682 43.913 199.046C45.198 198.359 47.165 199.212 51.917 202.519C68.005 213.715 94.827 220.124 124.63 219.892C142.34 219.754 144.974 219.626 150 218.654C151.925 218.282 155.075 217.796 157 217.575C158.925 217.354 161.175 216.922 162 216.616C162.825 216.309 164.625 215.859 166 215.616C170.549 214.812 186.424 208.87 191 206.258C193.475 204.846 197.171 202.385 199.213 200.79C202.195 198.462 203.307 198.094 204.858 198.924C206.318 199.705 207.1 199.585 208.057 198.432C208.997 197.299 209.513 197.213 210.061 198.098C211.405 200.273 213.746 198.219 216.641 192.323C219.34 186.826 219.496 185.8 219.429 174C219.353 160.441 218.184 154.55 214.425 148.771C212.535 145.865 212 143.706 212 138.979C212 132.479 209.804 120.415 207.278 113.035C205.168 106.87 205.15 105.152 207.148 100.5C209.619 94.745 212.962 77.398 213.667 66.667C214.406 55.405 212.614 48.031 207.987 43.298C203.858 39.075 200.252 38.422 193.225 40.623C187.838 42.309 170.423 53.323 160.246 61.478L155.993 64.887L150.496 62.456C147.473 61.119 145 60.233 145 60.488C145 60.742 143.762 60.467 142.25 59.875C140.738 59.284 138.15 58.606 136.5 58.369C134.85 58.132 131.417 57.47 128.87 56.898C125.747 56.197 122.981 56.183 120.37 56.856C118.242 57.405 114.925 58.091 113 58.381C109.259 58.944 105.659 59.719 105.25 60.048C104.884 60.343 103.884 60.63 100.229 61.489C98.43 61.912 96.716 62.65 96.42 63.129C95.12 65.232 90.797 63.687 85.337 59.168C73.013 48.966 58.118 40.447 50.853 39.445C49.009 39.191 46.08 39.622 44.343 40.404ZM56.811 44.836C62.649 47.054 74.21 54.398 82.824 61.359L89.149 66.47L86.393 68.667L83.638 70.864L79.069 67.682C76.556 65.932 74.14 63.938 73.7 63.25C73.26 62.563 72.248 62 71.45 62C70.653 62 70 61.572 70 61.049C70 59.479 56.851 52.624 53.303 52.345C50.893 52.155 49.333 52.758 47.503 54.588C46.126 55.965 44.964 57.633 44.92 58.295C44.348 66.863 44.459 77.407 45.159 81C45.641 83.475 46.191 86.4 46.381 87.5C47.327 92.965 49.206 97.996 50.289 97.961C50.955 97.939 53.975 95.468 57 92.47C60.025 89.471 63.288 87.014 64.25 87.009C65.213 87.004 66 86.475 66 85.833C66 85.192 66.284 84.951 66.631 85.298C66.979 85.645 68.11 85.477 69.144 84.923C70.647 84.118 70.815 83.522 69.978 81.958C69.18 80.468 69.249 80 70.265 80C72.567 80 73.997 77.863 72.974 75.952C71.335 72.889 74.064 71.759 78.944 73.48C82.999 74.911 83.3 74.875 86.335 72.6C91.339 68.85 97.17 66.232 106.678 63.468C118.748 59.958 128.96 59.667 139.151 62.543C143.468 63.761 147 64.626 147 64.465C147 63.779 159.773 70.397 162.665 72.581C165.673 74.853 166.03 74.901 169.895 73.537C173.495 72.267 174.138 72.28 175.515 73.657C176.755 74.898 176.822 75.509 175.849 76.682C174.877 77.853 174.921 78.338 176.064 79.061C176.854 79.561 178.078 79.976 178.785 79.985C179.718 79.996 179.803 80.5 179.096 81.82C178.308 83.293 178.672 83.966 181 85.341C182.583 86.276 184.311 86.919 184.841 86.77C185.371 86.622 188.537 89.088 191.876 92.25C197.787 97.848 199.869 99.047 200.125 97C200.371 95.035 200.54 94.485 201.239 93.389C201.884 92.376 202.27 90.447 203.619 81.5C204.666 74.562 204.54 60.325 203.406 57.372C202.007 53.73 200.812 52.832 196.736 52.358C193.624 51.995 184.022 56.467 180.133 60.091C179.006 61.141 177.637 62 177.092 62C176.546 62 175.74 62.563 175.3 63.25C174.86 63.938 172.444 65.932 169.931 67.682L165.362 70.864L162.551 68.622L159.739 66.38L166.119 61.353C186.978 44.917 199.991 39.65 205.378 45.463C209.854 50.293 211.108 58.75 209.536 73.5C208.466 83.542 208.112 85.339 205.614 93.421C204.777 96.127 204.283 98.648 204.514 99.023C204.746 99.398 204.29 100.559 203.5 101.603C202.676 102.69 202.05 102.967 202.032 102.25C202.014 101.563 201.544 101 200.987 101C200.388 101 200.571 102.431 201.436 104.5C202.24 106.425 202.707 108 202.474 108C202.24 108 202.53 109.237 203.117 110.75C203.704 112.263 204.381 114.625 204.621 116C204.861 117.375 205.332 119.175 205.668 120C206.862 122.936 207.814 128.985 208.521 138.124L209.11 145.749L204.305 143.379C198.246 140.392 188.889 138.64 183.395 139.463C178.86 140.143 179.034 140.313 177.578 133.768C177.244 132.266 175.624 129.503 173.978 127.628C172.113 125.504 171.532 124.273 172.434 124.36C173.231 124.437 173.885 124.05 173.888 123.5C173.895 122.114 168.435 122.724 165.019 124.49C163.464 125.294 159.337 128.249 155.846 131.057C152.356 133.864 148.825 136.567 148 137.063C146.715 137.835 146.703 138.097 147.92 138.896C148.99 139.599 150.305 145 149.405 145C149.317 145 147.614 144.319 145.621 143.486C132.487 137.998 115.356 138.386 100.699 144.502C99.132 145.156 98.988 144.88 99.587 142.376C99.966 140.794 100.719 138.938 101.26 138.25C101.802 137.563 101.852 136.992 101.372 136.983C100.893 136.974 97.155 134.288 93.068 131.015C86.813 126.007 79.148 122 75.822 122C74.605 122 74.824 124.775 76.074 125.191C76.664 125.388 75.989 126.799 74.574 128.326C73.158 129.853 71.944 131.53 71.875 132.052C71.741 133.067 71.742 133.064 70.549 137.293C69.807 139.925 69.52 140.051 65.591 139.461C59.998 138.623 49.471 140.61 44.288 143.482C40.215 145.74 40.056 145.753 39.466 143.893C39.13 142.834 39.315 140.513 39.878 138.734C40.44 136.955 40.907 134.375 40.915 133C40.933 129.808 42.271 121.758 43.076 120C43.202 119.725 43.391 119.05 43.496 118.5C43.602 117.95 44.194 116.27 44.813 114.766C45.432 113.262 46.065 110.112 46.219 107.766C46.374 105.42 46.95 103.169 47.5 102.765C48.116 102.313 48.01 102.025 47.225 102.015C45.642 101.996 43.486 97.117 42.578 91.5C42.401 90.4 42.16 89.5 42.044 89.5C41.718 89.5 41.154 86.037 40.497 80C40.168 76.975 39.548 73.375 39.12 72C38.424 69.765 38.553 58.745 39.337 53.5C39.794 50.439 42.794 45.22 44.75 44.08C47.39 42.542 51.442 42.796 56.811 44.836ZM56.453 56.161C57.854 56.799 59 57.624 59 57.994C59 58.364 59.595 58.667 60.322 58.667C61.998 58.667 73 66.922 73 68.179C73 68.696 73.419 68.859 73.931 68.543C74.443 68.226 75.144 68.425 75.49 68.984C77.193 71.74 71.554 69.436 65.643 64.962C61.983 62.191 56.965 59.057 54.494 57.997C52.022 56.938 50 55.83 50 55.536C50 54.592 53.823 54.962 56.453 56.161ZM199 55.453C199 55.702 197.088 56.768 194.75 57.821C192.412 58.874 187.36 62.045 183.521 64.868C177.285 69.454 171.834 71.695 173.51 68.984C173.856 68.425 174.557 68.226 175.069 68.543C175.581 68.859 176 68.696 176 68.179C176 66.981 185.309 59.932 190.517 57.187C194.107 55.296 199 54.295 199 55.453ZM47.693 75.731C47.439 76.704 47.215 76.15 47.195 74.5C47.175 72.85 47.382 72.054 47.656 72.731C47.93 73.408 47.947 74.758 47.693 75.731ZM69.683 74.188C69.364 74.985 69.127 74.748 69.079 73.583C69.036 72.529 69.272 71.939 69.604 72.271C69.936 72.603 69.972 73.466 69.683 74.188ZM179.683 74.188C179.364 74.985 179.127 74.748 179.079 73.583C179.036 72.529 179.272 71.939 179.604 72.271C179.936 72.603 179.972 73.466 179.683 74.188ZM201.689 76.75C201.438 77.713 201.232 76.925 201.232 75C201.232 73.075 201.438 72.287 201.689 73.25C201.941 74.213 201.941 75.787 201.689 76.75ZM67 82.378C67 82.585 66.213 83.373 65.25 84.128C63.664 85.371 63.629 85.336 64.872 83.75C66.179 82.084 67 81.555 67 82.378ZM48.683 85.188C48.364 85.985 48.127 85.748 48.079 84.583C48.036 83.529 48.272 82.939 48.604 83.271C48.936 83.603 48.972 84.466 48.683 85.188ZM49.683 91.188C49.364 91.985 49.127 91.748 49.079 90.583C49.036 89.529 49.272 88.939 49.604 89.271C49.936 89.603 49.972 90.466 49.683 91.188ZM198.683 96.188C198.364 96.985 198.127 96.748 198.079 95.583C198.036 94.529 198.272 93.939 198.604 94.271C198.936 94.603 198.972 95.466 198.683 96.188ZM91.75 109.392C87.719 112.452 91.171 119.125 97.5 120.507C99.755 120.999 100.128 120.9 99 120.109C97.882 119.325 98.423 119.205 101.123 119.639C103.324 119.992 105.017 119.781 105.437 119.101C106.473 117.426 105.011 113.782 103.532 114.35C101.909 114.972 100.006 113.148 100.617 111.556C101.071 110.372 97.04 107.97 94.703 108.032C94.041 108.049 92.713 108.661 91.75 109.392ZM149.58 109.86C145.6 112.196 142.572 116.441 143.381 118.55C143.899 119.9 144.813 120.131 147.768 119.656C150.538 119.211 151.113 119.328 150 120.109C148.872 120.9 149.245 120.999 151.5 120.507C157.902 119.109 161.022 113.14 157.171 109.655C154.917 107.615 153.333 107.657 149.58 109.86ZM154.25 111.662C153.563 111.94 152.438 111.94 151.75 111.662C151.063 111.385 151.625 111.158 153 111.158C154.375 111.158 154.938 111.385 154.25 111.662ZM101.5 113C101.84 113.55 102.316 114 102.559 114C102.802 114 103 113.55 103 113C103 112.45 102.523 112 101.941 112C101.359 112 101.16 112.45 101.5 113ZM148 113.378C148 113.585 147.213 114.373 146.25 115.128C144.664 116.371 144.629 116.336 145.872 114.75C147.179 113.084 148 112.555 148 113.378ZM92.124 143.267C91.136 144.247 91.022 144.132 91.564 142.707C91.94 141.721 92.499 141.166 92.807 141.474C93.115 141.781 92.808 142.588 92.124 143.267ZM70.683 144.188C70.364 144.985 70.127 144.748 70.079 143.583C70.036 142.529 70.272 141.939 70.604 142.271C70.936 142.603 70.972 143.466 70.683 144.188ZM126.75 142.716C125.237 142.945 122.763 142.945 121.25 142.716C119.737 142.487 120.975 142.3 124 142.3C127.025 142.3 128.262 142.487 126.75 142.716ZM120.5 146C120.84 146.55 120.39 147 119.5 147C118.61 147 118.16 146.55 118.5 146C118.84 145.45 119.29 145 119.5 145C119.71 145 120.16 145.45 120.5 146ZM118.563 157.25L121.5 160.5L118.25 157.563C115.221 154.825 114.54 154 115.313 154C115.485 154 116.948 155.463 118.563 157.25ZM133 155.326C133 155.505 131.762 156.742 130.25 158.076L127.5 160.5L129.924 157.75C132.19 155.18 133 154.541 133 155.326ZM86.269 156.656C85.592 156.93 84.242 156.947 83.269 156.693C82.296 156.439 82.85 156.215 84.5 156.195C86.15 156.175 86.946 156.382 86.269 156.656ZM166.269 156.656C165.592 156.93 164.242 156.947 163.269 156.693C162.296 156.439 162.85 156.215 164.5 156.195C166.15 156.175 166.946 156.382 166.269 156.656ZM126.269 160.656C125.592 160.93 124.242 160.947 123.269 160.693C122.296 160.439 122.85 160.215 124.5 160.195C126.15 160.175 126.946 160.382 126.269 160.656ZM215.662 163.25C215.385 163.938 215.158 163.375 215.158 162C215.158 160.625 215.385 160.063 215.662 160.75C215.94 161.438 215.94 162.563 215.662 163.25ZM150.225 166.175C149.559 166.841 148.97 166.76 148.458 165.933C147.964 165.132 148.101 164.945 148.845 165.405C149.549 165.839 150.031 165.412 150.079 164.309C150.131 163.118 150.34 162.957 150.691 163.838C150.985 164.573 150.775 165.625 150.225 166.175ZM147 166.326C147 166.505 145.762 167.742 144.25 169.076L141.5 171.5L143.924 168.75C146.19 166.18 147 165.541 147 166.326ZM34.928 185.75C35.721 187.783 36.886 189 38.039 189C39.053 189 40.183 189.486 40.55 190.081C40.918 190.676 42.211 190.913 43.425 190.608C45.023 190.207 47.773 191.545 53.404 195.465C66.339 204.468 81.057 208.953 104.5 211.034C116.759 212.123 144.768 211.862 151.572 210.595C152.632 210.397 155.525 209.92 158 209.533C172.38 207.288 185.899 202.385 193.853 196.529C202.027 190.512 203.851 189.632 205.431 190.943C206.389 191.738 207.068 191.623 207.99 190.512C208.68 189.681 209.997 189 210.915 189C212.626 189 215.573 181.713 216.374 175.5C216.587 173.85 216.596 175.439 216.394 179.032C216.002 185.994 212.21 198.912 212.073 193.75C211.987 190.525 210.968 190.273 208.598 192.892C207.578 194.018 206.099 194.577 204.938 194.274C203.659 193.939 201.167 195.171 197.678 197.863C187.248 205.909 169.995 212.134 149.88 215.108C139.086 216.704 109.914 216.704 99.12 215.108C78.561 212.069 62.998 206.455 51.115 197.792C46.664 194.547 44.264 193.366 43.466 194.028C42.679 194.681 41.72 194.348 40.497 192.996C38.033 190.274 37.013 190.49 36.93 193.75C36.865 196.272 36.742 196.18 35.442 192.635C34.662 190.508 34.247 188.409 34.519 187.97C34.79 187.53 34.516 187.005 33.909 186.803C33.253 186.584 32.688 183.006 32.516 177.968C32.24 169.903 32.261 169.81 32.944 176C33.338 179.575 34.231 183.963 34.928 185.75ZM139.269 171.656C138.592 171.93 137.242 171.947 136.269 171.693C135.296 171.439 135.85 171.215 137.5 171.195C139.15 171.175 139.946 171.382 139.269 171.656Z" fill="white"/>
<path fill-rule="evenodd" clip-rule="evenodd" d="M44.343 40.404C39.764 42.465 36.079 49.343 35.346 57.197C34.268 68.743 38.352 93.979 42.641 102.273C44.054 105.006 44.003 105.795 41.988 112.369C40.785 116.291 39.552 120.175 39.247 121C38.943 121.825 38.63 122.95 38.553 123.5C38.215 125.902 36.939 137.809 36.676 141.003C36.518 142.93 35.157 147.024 33.652 150.1C30.186 157.183 28.661 166.911 29.207 178.456C29.553 185.8 30.146 188.495 32.358 192.797C35.145 198.219 37.629 200.219 38.939 198.098C39.487 197.213 40.003 197.299 40.943 198.432C41.826 199.495 42.726 199.682 43.913 199.046C45.198 198.359 47.165 199.212 51.917 202.519C68.005 213.715 94.827 220.124 124.63 219.892C142.34 219.754 144.974 219.626 150 218.654C151.925 218.282 155.075 217.796 157 217.575C158.925 217.354 161.175 216.922 162 216.616C162.825 216.309 164.625 215.859 166 215.616C170.549 214.812 186.424 208.87 191 206.258C193.475 204.846 197.171 202.385 199.213 200.79C202.195 198.462 203.307 198.094 204.858 198.924C206.318 199.705 207.1 199.585 208.057 198.432C208.997 197.299 209.513 197.213 210.061 198.098C211.405 200.273 213.746 198.219 216.641 192.323C219.34 186.826 219.496 185.8 219.429 174C219.353 160.441 218.184 154.55 214.425 148.771C212.535 145.865 212 143.706 212 138.979C212 132.479 209.804 120.415 207.278 113.035C205.168 106.87 205.15 105.152 207.148 100.5C209.619 94.745 212.962 77.398 213.667 66.667C214.406 55.405 212.614 48.031 207.987 43.298C203.858 39.075 200.252 38.422 193.225 40.623C187.838 42.309 170.423 53.323 160.246 61.478L155.993 64.887L150.496 62.456C147.473 61.119 145 60.233 145 60.488C145 60.742 143.762 60.467 142.25 59.875C140.738 59.284 138.15 58.606 136.5 58.369C134.85 58.132 131.417 57.47 128.87 56.898C125.747 56.197 122.981 56.183 120.37 56.856C118.242 57.405 114.925 58.091 113 58.381C109.259 58.944 105.659 59.719 105.25 60.048C104.884 60.343 103.884 60.63 100.229 61.489C98.43 61.912 96.716 62.65 96.42 63.129C95.12 65.232 90.797 63.687 85.337 59.168C73.013 48.966 58.118 40.447 50.853 39.445C49.009 39.191 46.08 39.622 44.343 40.404ZM56.811 44.836C62.649 47.054 74.21 54.398 82.824 61.359L89.149 66.47L86.393 68.667L83.638 70.864L79.069 67.682C76.556 65.932 74.14 63.938 73.7 63.25C73.26 62.563 72.248 62 71.45 62C70.653 62 70 61.572 70 61.049C70 59.479 56.851 52.624 53.303 52.345C50.893 52.155 49.333 52.758 47.503 54.588C46.126 55.965 44.964 57.633 44.92 58.295C44.348 66.863 44.459 77.407 45.159 81C45.641 83.475 46.191 86.4 46.381 87.5C47.268 92.624 49.175 98 50.106 98C50.672 98 50.886 97.212 50.582 96.25C49.034 91.353 47.97 83.252 47.363 71.749C46.759 60.28 46.873 58.798 48.5 56.999C49.496 55.9 51.158 55 52.195 55C54.988 55 61.409 58.53 69.192 64.344C75.884 69.344 76.008 69.515 73.297 70.005C71.085 70.404 70.429 71.129 70.163 73.472C69.977 75.101 68.943 77.052 67.865 77.807C66.787 78.562 66.039 79.991 66.202 80.982C66.366 81.973 65.643 83.733 64.595 84.892C62.913 86.753 62.884 87 64.345 87C65.255 87 66 86.475 66 85.833C66 85.192 66.284 84.951 66.631 85.298C66.979 85.645 68.11 85.477 69.144 84.923C70.647 84.118 70.815 83.522 69.978 81.958C69.18 80.468 69.249 80 70.265 80C72.567 80 73.997 77.863 72.974 75.952C71.335 72.889 74.064 71.759 78.944 73.48C82.999 74.911 83.3 74.875 86.335 72.6C91.339 68.85 97.17 66.232 106.678 63.468C118.748 59.958 128.96 59.667 139.151 62.543C143.468 63.761 147 64.626 147 64.465C147 63.779 159.773 70.397 162.665 72.581C165.673 74.853 166.03 74.901 169.895 73.537C173.495 72.267 174.138 72.28 175.515 73.657C176.755 74.898 176.822 75.509 175.849 76.682C174.877 77.853 174.921 78.338 176.064 79.061C176.854 79.561 178.078 79.976 178.785 79.985C179.718 79.996 179.803 80.5 179.096 81.82C178.305 83.299 178.686 83.974 181.13 85.418C184.536 87.429 185.978 86.883 183.893 84.371C183.127 83.448 182.634 81.902 182.798 80.936C182.961 79.97 182.213 78.562 181.135 77.807C180.057 77.052 179.023 75.101 178.837 73.472C178.571 71.129 177.915 70.404 175.703 70.005C172.992 69.515 173.116 69.344 179.808 64.344C187.709 58.442 194.019 55 196.937 55C198.046 55 199.707 56.149 200.626 57.553C202.059 59.739 202.206 61.854 201.65 72.303C201.293 79.011 200.396 87.537 199.657 91.25C198.918 94.963 198.693 98 199.157 98C199.621 98 200.056 97.55 200.125 97C200.371 95.035 200.54 94.485 201.239 93.389C201.884 92.376 202.27 90.447 203.619 81.5C204.666 74.562 204.54 60.325 203.406 57.372C202.007 53.73 200.812 52.832 196.736 52.358C193.624 51.995 184.022 56.467 180.133 60.091C179.006 61.141 177.637 62 177.092 62C176.546 62 175.74 62.563 175.3 63.25C174.86 63.938 172.444 65.932 169.931 67.682L165.362 70.864L162.551 68.622L159.739 66.38L166.119 61.353C186.978 44.917 199.991 39.65 205.378 45.463C209.854 50.293 211.108 58.75 209.536 73.5C208.466 83.542 208.112 85.339 205.614 93.421C204.777 96.127 204.283 98.648 204.514 99.023C204.746 99.398 204.29 100.559 203.5 101.603C202.676 102.69 202.05 102.967 202.032 102.25C202.014 101.563 201.544 101 200.987 101C200.388 101 200.571 102.431 201.436 104.5C202.24 106.425 202.707 108 202.474 108C202.24 108 202.53 109.237 203.117 110.75C203.704 112.263 204.381 114.625 204.621 116C204.861 117.375 205.332 119.175 205.668 120C206.874 122.966 207.815 128.999 208.539 138.395C209.016 144.593 209.791 147.432 212.145 151.602C214.573 155.905 215.325 158.777 216.1 166.707C217.17 177.656 216.628 183.909 213.957 191.413C212.495 195.521 212.132 195.971 212.073 193.75C211.987 190.525 210.968 190.273 208.598 192.892C207.578 194.018 206.099 194.577 204.938 194.274C203.659 193.939 201.167 195.171 197.678 197.863C187.248 205.909 169.995 212.134 149.88 215.108C139.086 216.704 109.914 216.704 99.12 215.108C78.561 212.069 62.998 206.455 51.115 197.792C46.664 194.547 44.264 193.366 43.466 194.028C42.679 194.681 41.72 194.348 40.497 192.996C38.033 190.274 37.014 190.49 36.927 193.75C36.814 198.007 33.062 186.723 32.355 180C31.436 171.26 33.482 157.93 36.683 151.8C38.205 148.885 39.544 144.925 39.658 143C40.083 135.857 42.133 122.06 43.076 120C43.202 119.725 43.391 119.05 43.496 118.5C43.602 117.95 44.194 116.27 44.813 114.766C45.432 113.262 46.065 110.112 46.219 107.766C46.374 105.42 46.95 103.169 47.5 102.765C48.116 102.313 48.01 102.025 47.225 102.015C45.642 101.996 43.486 97.117 42.578 91.5C42.401 90.4 42.16 89.5 42.044 89.5C41.718 89.5 41.154 86.037 40.497 80C40.168 76.975 39.548 73.375 39.12 72C38.424 69.765 38.553 58.745 39.337 53.5C39.794 50.439 42.794 45.22 44.75 44.08C47.39 42.542 51.442 42.796 56.811 44.836ZM91.75 109.392C87.713 112.457 91.193 119.164 97.5 120.476L100.5 121.099L97.057 119.174C93.275 117.059 91.696 114.19 93.246 112.25C95.541 109.378 100.272 111.034 103.55 115.858C105.001 117.994 106 118.801 106 117.838C106 115.95 101.492 110.862 98.316 109.166C95.529 107.678 93.935 107.733 91.75 109.392ZM149.798 109.638C146.517 111.369 142.985 115.678 143.04 117.885C143.065 118.902 143.63 118.486 144.565 116.763C146.053 114.021 150.647 111 153.328 111C155.408 111 157.135 113.484 156.395 115.412C156.044 116.328 154.124 117.981 152.128 119.086C148.583 121.048 148.569 121.08 151.5 120.473C157.879 119.152 161.028 113.145 157.171 109.655C155.018 107.706 153.466 107.702 149.798 109.638ZM75 123.417C75 124.196 75.483 124.994 76.074 125.191C76.664 125.388 75.989 126.799 74.574 128.326C73.158 129.853 71.966 131.417 71.923 131.802C71.881 132.186 71.586 133.4 71.266 134.5C70.025 138.778 70.878 146.067 73.028 149.546C80.106 160.997 96.94 156.37 99.61 142.239C99.949 140.445 100.658 138.711 101.185 138.386C101.712 138.06 100.817 136.828 99.196 135.647C97.575 134.466 93.803 131.597 90.813 129.272C86.116 125.619 78.682 122 75.874 122C75.393 122 75 122.638 75 123.417ZM167.748 123.415C164.036 124.751 159.495 127.797 153.31 133.099C151.556 134.603 149.306 136.321 148.31 136.917C146.645 137.913 146.633 138.08 148.157 138.998C149.068 139.546 149.626 140.784 149.396 141.748C149.166 142.711 150.002 145.287 151.254 147.47C158.559 160.211 174.351 158.355 177.924 144.337C179.58 137.841 178.008 131.917 173.282 126.845C171.859 125.318 171.38 124.256 172.154 124.345C173.897 124.546 174.519 122.569 172.803 122.282C172.086 122.162 169.812 122.671 167.748 123.415ZM92.393 138.582C93.462 141.367 93.052 142.902 90.936 144.034C89.404 144.854 88.502 144.832 87.436 143.947C85.958 142.72 85.484 138.85 86.667 137.667C87.94 136.394 91.789 137.009 92.393 138.582ZM162.628 139.656C163.115 141.594 162.813 142.664 161.509 143.617C159.114 145.368 156 143.681 156 140.631C156 137.737 156.741 137 159.648 137C161.318 137 162.147 137.738 162.628 139.656ZM115 145C112.702 147.298 112.565 148.283 114.12 151.316C116.52 155.996 121.306 160 124.5 160C127.694 160 132.48 155.996 134.88 151.316C136.435 148.283 136.298 147.298 134 145C132.356 143.356 130.667 143 124.5 143C118.333 143 116.644 143.356 115 145ZM130.917 145.365C129.939 146.22 118.042 146.74 118.559 145.905C118.866 145.407 121.866 145 125.226 145C128.585 145 131.146 145.164 130.917 145.365ZM143 161.015C141.667 161.891 141.667 162.113 143 163.018C144.266 163.877 144.044 164.439 141.569 166.625C139.164 168.751 137.946 169.122 134.77 168.696C131.521 168.26 131.089 168.403 132.074 169.589C132.741 170.393 135.047 171 137.435 171C140.794 171 142.201 170.399 144.525 167.974C146.119 166.31 148.003 165.171 148.712 165.443C150.81 166.248 150.214 162.185 148.066 161.035C145.688 159.762 144.913 159.759 143 161.015Z" fill="#6F6F6F"/>
<path fill-rule="evenodd" clip-rule="evenodd" d="M44.343 40.404C39.601 42.539 36.015 49.414 35.334 57.677C34.373 69.343 37.712 90.543 42.175 101.103C44.105 105.671 44.105 105.752 42.138 111.603C39.684 118.901 37.165 131.694 36.743 139C36.543 142.448 35.397 146.588 33.67 150.097C30.189 157.168 28.66 166.885 29.207 178.456C29.553 185.8 30.146 188.495 32.358 192.797C35.145 198.219 37.629 200.219 38.939 198.098C39.487 197.213 40.003 197.299 40.943 198.432C41.809 199.475 42.735 199.677 43.868 199.071C45.096 198.414 47.384 199.431 52.684 202.989C61.866 209.152 72.236 213.106 88.5 216.645C100.631 219.285 103.004 219.473 124 219.46C149.582 219.444 158.606 218.22 176 212.403C186.844 208.777 192.805 205.795 199.213 200.79C202.195 198.462 203.307 198.094 204.858 198.924C206.318 199.705 207.1 199.585 208.057 198.432C208.997 197.299 209.513 197.213 210.061 198.098C211.405 200.273 213.746 198.219 216.641 192.323C219.34 186.826 219.496 185.8 219.429 174C219.353 160.441 218.184 154.55 214.425 148.771C212.535 145.865 212 143.706 212 138.979C212 132.04 209.744 120.172 206.812 111.692L204.804 105.883L206.841 101.148C209.597 94.741 212.928 77.916 213.667 66.667C214.647 51.739 210.131 41.286 201.922 39.483C195.208 38.008 179.442 46.151 162.816 59.68C156.31 64.974 156.056 65.081 153.316 63.673C148.828 61.369 135.724 57.992 128.735 57.34C121.006 56.618 111.739 58.112 100.481 61.895L92.124 64.703L86.812 60.275C74.184 49.748 58.13 40.449 50.853 39.445C49.009 39.191 46.08 39.622 44.343 40.404ZM55.522 43.923C61.683 46.089 78.184 56.619 85 62.735L89.5 66.773L87 68.853C85.625 69.997 84.151 70.948 83.725 70.967C83.299 70.985 78.799 67.9 73.725 64.111C58.132 52.467 51.279 50.288 47.073 55.635C45.281 57.913 45 59.664 45 68.569C45 78.447 46.679 89.706 48.942 95C49.98 97.431 49.997 97.417 49.538 94.5C49.278 92.85 48.577 88.668 47.981 85.206C46.29 75.394 46.226 58.654 47.872 56.661C51.026 52.845 57.026 54.884 69 63.842C74.919 68.27 76.078 69.534 74.5 69.834C71.33 70.438 69.825 72.167 70.417 74.524C70.827 76.161 70.345 76.978 68.459 77.837C66.438 78.758 66.077 79.46 66.586 81.489C66.945 82.918 66.785 84 66.215 84C65.665 84 64.983 84.601 64.702 85.335C64.299 86.383 64.916 86.341 67.571 85.138C70.613 83.759 70.804 83.441 69.474 81.971C67.791 80.111 68.454 79 71.246 79C72.851 79 73.053 78.517 72.5 75.999C71.628 72.029 73.882 71.154 79.56 73.259C83.63 74.767 83.918 74.748 85.631 72.856C90.576 67.391 112.922 60 124.5 60C136.072 60 158.423 67.39 163.365 72.851C165.013 74.672 165.431 74.718 168.547 73.416C175.003 70.719 178.489 72.349 176.042 76.922C175.061 78.754 175.21 79 177.298 79C180.534 79 181.291 80.021 179.511 81.988C178.16 83.481 178.374 83.808 181.756 85.421L185.494 87.203L183.657 85.173C182.469 83.861 182.051 82.414 182.475 81.08C182.977 79.498 182.535 78.745 180.584 77.856C178.658 76.979 178.171 76.167 178.583 74.524C179.175 72.167 177.67 70.438 174.5 69.834C172.922 69.534 174.081 68.27 180 63.842C189.183 56.972 192.975 55 197.001 55C199.615 55 200.338 55.564 201.602 58.59C202.87 61.624 202.939 64.144 202.046 74.84C201.465 81.803 200.552 89.3 200.018 91.5C198.78 96.603 198.837 98.213 200.142 95C202.232 89.855 204 77.505 204 68.047C204 59.67 203.703 57.892 201.927 55.635C197.721 50.288 190.868 52.467 175.275 64.111C170.201 67.9 165.701 70.985 165.275 70.967C164.849 70.948 163.375 69.998 162 68.854L159.501 66.775L164.111 62.602C174.006 53.643 190.486 43.937 198.289 42.474C203.215 41.549 207.492 45.443 209.63 52.8C211.033 57.625 211.115 60.073 210.204 69.964C209.318 79.596 204.698 102.335 203.295 103.971C203.073 104.23 202.423 103.78 201.851 102.971C200.943 101.686 200.869 101.689 201.27 103C206.839 121.209 209 131.709 209 140.561C209 144.63 209.477 147.151 210.39 147.909C216.503 152.982 219.026 175.72 214.986 189.328C213.734 193.548 212.316 197 211.835 197C211.355 197 211.232 195.924 211.562 194.609C212.347 191.48 210.715 190.553 208.577 192.915C207.647 193.942 206.124 194.589 205.193 194.353C204.247 194.113 201.077 195.751 198.01 198.066C187.85 205.734 175.804 210.568 157.801 214.2C148.077 216.162 143.431 216.48 124.5 216.48C105.703 216.48 100.891 216.155 91.447 214.248C72.817 210.484 61.396 205.917 50.99 198.069C47.332 195.311 44.822 194.096 43.468 194.429C42.14 194.756 41.003 194.235 40.186 192.925C38.472 190.182 36.668 191.59 37.374 195.121C38.561 201.053 36.206 197.712 34.027 190.372C32.083 183.824 31.822 181.083 32.181 171C32.573 160.018 32.824 158.807 36.05 152.377C37.948 148.595 39.418 144.825 39.318 144C38.878 140.369 41.386 125.164 44.049 115.32C45.645 109.418 46.563 104.343 46.087 104.044C44.799 103.234 40.226 83.799 38.906 73.526C36.927 58.126 38.755 48.697 44.615 44.088C47.875 41.524 48.661 41.512 55.522 43.923ZM91.2 110.2C90.54 110.86 90 112.23 90 113.245C90 115.294 94.243 120 96.089 120C96.739 120 96.084 119.067 94.635 117.927C91.528 115.483 91.223 112.486 93.934 111.035C96.828 109.486 97.597 109.707 101.627 113.246C104.142 115.454 104.899 115.811 103.994 114.362C101.198 109.885 93.892 107.508 91.2 110.2ZM148.775 110.559C147.276 111.372 145.521 113.026 144.875 114.234C143.837 116.173 144.085 116.106 146.989 113.663C149.352 111.674 151.156 110.98 153.39 111.197C157.604 111.607 158.122 114.972 154.42 117.885C152.94 119.048 152.261 120 152.911 120C154.757 120 159 115.294 159 113.245C159 109.058 153.974 107.738 148.775 110.559ZM76.341 124.131C78.082 125.143 78.045 125.344 75.654 127.851C72.423 131.238 71 135.051 71.002 140.315C71.006 151.949 82.39 159.641 90.976 153.812C95.649 150.64 99 145.436 99 141.352C99 139.508 99.477 138 100.059 138C101.817 138 86.425 126.076 82.61 124.482C80.66 123.667 78.037 123.014 76.782 123.03C74.678 123.058 74.644 123.144 76.341 124.131ZM165.5 124.886C160.315 127.274 147.686 137.688 148.994 138.496C149.547 138.838 150 140.289 150 141.721C150 143.153 151.11 146.218 152.466 148.532C158.266 158.429 171.06 158.104 176.248 147.929C179.472 141.607 177.99 131.918 173.138 127.595C170.542 125.282 170.444 124.292 172.75 123.689C173.922 123.383 173.675 123.201 172 123.138C170.625 123.086 167.7 123.873 165.5 124.886ZM91.8 137.2C94.78 140.18 91.995 145.768 88.14 144.545C85.372 143.666 84.695 141.114 86.5 138.359C88.206 135.756 89.97 135.37 91.8 137.2ZM162.333 138.065C164.128 140.628 163.415 143.733 160.844 144.549C157.003 145.769 154.228 140.172 157.2 137.2C158.962 135.438 160.698 135.73 162.333 138.065ZM116.223 144.557C112.718 147.011 113.314 151.194 117.845 155.958C123.496 161.898 128.265 161.162 132.918 153.633C137.271 146.589 134.43 143 124.5 143C120.638 143 117.64 143.564 116.223 144.557ZM129.971 144.961C132.493 146.556 130.493 147.108 123.368 146.785C117.243 146.507 116.771 146.346 119 145.3C122.04 143.873 127.962 143.69 129.971 144.961ZM143.679 162.881C144.461 165.871 140.323 168.997 135.561 169.015C132.571 169.027 131.895 169.286 133 170C136.327 172.15 141.139 171.133 144.5 167.568C146.909 165.015 148.026 164.426 148.868 165.268C149.711 166.111 150 166.016 150 164.9C150 162.739 147.946 161 145.394 161C143.726 161 143.307 161.459 143.679 162.881Z" fill="black"/>
</svg>
