<svg width="64" height="64" viewBox="0 0 64 64" fill="none" xmlns="http://www.w3.org/2000/svg">
<path fill-rule="evenodd" clip-rule="evenodd" d="M0 32V64H32H64V32V0H32H0V32Z" fill="white"/>
<path fill-rule="evenodd" clip-rule="evenodd" d="M0 32V64H32H64V32V0H32H0V32ZM29 25.716V33.432L23.5 28C20.024 24.567 18 21.728 18 20.284C18 18.182 18.439 18 23.5 18H29V25.716ZM29 41V46H23.5H18V41V36H23.5H29V41ZM46 41C46 45.813 45.897 45.996 43.25 45.898C41.292 45.826 39.235 44.385 36.109 40.898L31.717 36H38.859H46V41Z" fill="#E4E4E4"/>
<path fill-rule="evenodd" clip-rule="evenodd" d="M0 32V64H32H64V32V0H32H0V32ZM29.678 26.033L29.857 34.296L23.928 28.429C19.798 24.342 18 21.795 17.999 20.031C17.999 17.601 18.227 17.505 23.749 17.635L29.5 17.771L29.678 26.033ZM29.5 41V46.227L23.749 46.364L17.999 46.5V41V35.5L23.749 35.636L29.5 35.773V41ZM46 41.077V46.654L43.106 46.229C41.162 45.944 38.753 44.114 35.764 40.652L31.316 35.5H38.658H46V41.077Z" fill="#DEDEDE"/>
<path fill-rule="evenodd" clip-rule="evenodd" d="M0 32V64H32H64V32V0H32H0V32ZM29.789 26L30.079 34.5L23.539 28.029C14.587 19.169 14.682 16.715 23.96 17.206L29.5 17.5L29.789 26ZM29.801 41.299L30.103 47.098L23.801 46.799L17.5 46.5L17.187 42.136C16.699 35.34 17.156 34.857 23.738 35.2L29.5 35.5L29.801 41.299ZM46.5 41C46.5 46.022 46.294 46.529 44.135 46.835C41.674 47.183 36.822 43.271 32.814 37.706L30.801 34.912L38.651 35.206L46.5 35.5V41Z" fill="#959595"/>
<path fill-rule="evenodd" clip-rule="evenodd" d="M0 32V64H32H64V32V0H32H0V32ZM30 25.583C30 30.304 29.618 34.017 29.151 33.833C26.877 32.941 17 20.978 17 19.116C17 17.178 17.548 17 23.5 17H30V25.583ZM47 41C47 46.863 46.938 47 44.279 47C42.309 47 39.964 45.423 35.779 41.281L30 35.563V41.281V47H23.5H17V41V35H32H47V41Z" fill="#888888"/>
<path fill-rule="evenodd" clip-rule="evenodd" d="M0 32V64H32H64V32V0H32H0V32ZM30 26V35H38.5H47V41C47 46.863 46.938 47 44.279 47C42.309 47 39.964 45.423 35.779 41.281L30 35.563V41.281V47H23.5H17V41V35H23.221H29.442L23.221 28.723C18.653 24.114 17 21.723 17 19.723C17 17.038 17.091 17 23.5 17H30V26Z" fill="#090909"/>
<path fill-rule="evenodd" clip-rule="evenodd" d="M0 32V64H32H64V32V0H32H0V32ZM30.631 26L30.761 34.5L38.881 34.79L47 35.081V41.04V47H43.637C40.895 47 39.417 46.084 35.637 42.043L31 37.086V42.043V47H24H17V41V35H23.221H29.442L23.221 28.723C18.602 24.063 17 21.733 17 19.677V16.909L23.75 17.204L30.5 17.5L30.631 26Z" fill="#050505"/>
<path fill-rule="evenodd" clip-rule="evenodd" d="M0 32V64H32H64V32V0H32H0V32ZM29.8 17.2C30.535 17.935 30.999 21.519 30.998 26.45L30.995 34.5L38.044 34.166C46.73 33.755 48 34.627 48 41C48 46.684 46.31 48.584 42.263 47.448C40.743 47.021 39.222 46.726 38.883 46.792C38.543 46.858 37.193 45.694 35.883 44.206L33.5 41.5L36.5 43.996L39.5 46.493L36.597 43.282C35 41.516 33.302 40.314 32.822 40.61C32.343 40.906 32.015 40.778 32.094 40.324C32.172 39.871 32.11 38.825 31.955 38C31.801 37.175 31.41 38.975 31.087 42L30.5 47.5L24.666 47.802C17.334 48.182 16 47.135 16 41C16 35.283 17.078 34.225 23.323 33.814L28.096 33.5L22.799 28.5L17.501 23.5L22.001 28.5L26.5 33.5L21.802 29.093C19.219 26.669 17.17 24.419 17.25 24.093C17.331 23.767 17.045 22.466 16.616 21.202C15.393 17.605 17.493 16 23.422 16C26.27 16 29.14 16.54 29.8 17.2Z" fill="black"/>
</svg>
