<svg width="64" height="64" viewBox="0 0 64 64" fill="none" xmlns="http://www.w3.org/2000/svg">
<path fill-rule="evenodd" clip-rule="evenodd" d="M0 32V64H32H64V32V0H32H0V32Z" fill="#ABABAD"/>
<path fill-rule="evenodd" clip-rule="evenodd" d="M0 32V64H32H64V32V0H32H0V32ZM22.25 13.662C21.563 13.94 20.438 13.94 19.75 13.662C19.063 13.385 19.625 13.158 21 13.158C22.375 13.158 22.938 13.385 22.25 13.662ZM44.25 13.662C43.563 13.94 42.438 13.94 41.75 13.662C41.063 13.385 41.625 13.158 43 13.158C44.375 13.158 44.938 13.385 44.25 13.662ZM13.662 22.25C13.385 22.938 13.158 22.375 13.158 21C13.158 19.625 13.385 19.063 13.662 19.75C13.94 20.438 13.94 21.563 13.662 22.25ZM50.662 22.25C50.385 22.938 50.158 22.375 50.158 21C50.158 19.625 50.385 19.063 50.662 19.75C50.94 20.438 50.94 21.563 50.662 22.25ZM13.662 44.25C13.385 44.938 13.158 44.375 13.158 43C13.158 41.625 13.385 41.063 13.662 41.75C13.94 42.438 13.94 43.563 13.662 44.25ZM50.662 44.25C50.385 44.938 50.158 44.375 50.158 43C50.158 41.625 50.385 41.063 50.662 41.75C50.94 42.438 50.94 43.563 50.662 44.25ZM22.25 50.662C21.563 50.94 20.438 50.94 19.75 50.662C19.063 50.385 19.625 50.158 21 50.158C22.375 50.158 22.938 50.385 22.25 50.662ZM44.25 50.662C43.563 50.94 42.438 50.94 41.75 50.662C41.063 50.385 41.625 50.158 43 50.158C44.375 50.158 44.938 50.385 44.25 50.662Z" fill="#878789"/>
<path fill-rule="evenodd" clip-rule="evenodd" d="M0 32V64H32H64V32V0H32H0V32ZM22.25 13.662C21.563 13.94 20.438 13.94 19.75 13.662C19.063 13.385 19.625 13.158 21 13.158C22.375 13.158 22.938 13.385 22.25 13.662ZM44.25 13.662C43.563 13.94 42.438 13.94 41.75 13.662C41.063 13.385 41.625 13.158 43 13.158C44.375 13.158 44.938 13.385 44.25 13.662ZM18 15.544C18 15.66 17.4 16.253 16.667 16.862C15.67 17.689 15.333 17.635 15.333 16.651C15.333 15.926 15.933 15.333 16.667 15.333C17.4 15.333 18 15.428 18 15.544ZM48.667 16.651C48.667 17.635 48.33 17.689 47.333 16.862C46.6 16.253 46 15.66 46 15.544C46 15.428 46.6 15.333 47.333 15.333C48.067 15.333 48.667 15.926 48.667 16.651ZM13.662 22.25C13.385 22.938 13.158 22.375 13.158 21C13.158 19.625 13.385 19.063 13.662 19.75C13.94 20.438 13.94 21.563 13.662 22.25ZM30.471 19.862C29.625 20.708 26.943 20.901 27.451 20.079C27.705 19.669 28.607 19.333 29.456 19.333C30.305 19.333 30.762 19.571 30.471 19.862ZM36.563 20.229C36.904 20.571 36.48 20.747 35.621 20.621C34.761 20.494 33.779 20.112 33.437 19.771C33.096 19.429 33.52 19.253 34.379 19.379C35.239 19.506 36.221 19.888 36.563 20.229ZM50.662 22.25C50.385 22.938 50.158 22.375 50.158 21C50.158 19.625 50.385 19.063 50.662 19.75C50.94 20.438 50.94 21.563 50.662 22.25ZM26 23.378C26 23.585 25.212 24.373 24.25 25.128C22.664 26.371 22.629 26.336 23.872 24.75C25.179 23.084 26 22.555 26 23.378ZM40.128 24.75C41.371 26.336 41.336 26.371 39.75 25.128C38.084 23.821 37.555 23 38.378 23C38.585 23 39.373 23.788 40.128 24.75ZM33 25C33 25.55 32.802 26 32.559 26C32.316 26 31.84 25.55 31.5 25C31.16 24.45 31.359 24 31.941 24C32.523 24 33 24.45 33 25ZM20.607 28.471C20.488 29.28 20.112 30.221 19.771 30.563C19.29 31.043 19.384 29.014 19.923 27.25C20.219 26.285 20.781 27.288 20.607 28.471ZM31 27.345C31 27.535 29.988 28.547 28.75 29.595L26.5 31.5L28.405 29.25C30.195 27.136 31 26.545 31 27.345ZM35.5 29C36.495 30.1 37.085 31 36.81 31C36.535 31 35.495 30.1 34.5 29C33.505 27.9 32.915 27 33.19 27C33.465 27 34.505 27.9 35.5 29ZM44.621 29.621C44.747 30.48 44.571 30.904 44.229 30.563C43.888 30.221 43.506 29.239 43.379 28.379C43.253 27.52 43.429 27.096 43.771 27.437C44.112 27.779 44.494 28.761 44.621 29.621ZM20.621 35.621C20.747 36.48 20.571 36.904 20.229 36.563C19.888 36.221 19.506 35.239 19.379 34.379C19.253 33.52 19.429 33.096 19.771 33.437C20.112 33.779 20.494 34.761 20.621 35.621ZM29.5 35C30.495 36.1 31.085 37 30.81 37C30.535 37 29.495 36.1 28.5 35C27.505 33.9 26.915 33 27.19 33C27.465 33 28.505 33.9 29.5 35ZM37 33.345C37 33.535 35.987 34.547 34.75 35.595L32.5 37.5L34.405 35.25C36.195 33.136 37 32.545 37 33.345ZM44.607 34.471C44.488 35.28 44.112 36.221 43.771 36.563C43.29 37.043 43.384 35.014 43.923 33.25C44.219 32.285 44.781 33.288 44.607 34.471ZM25.128 39.75C26.371 41.336 26.336 41.371 24.75 40.128C23.788 39.373 23 38.585 23 38.378C23 37.555 23.821 38.084 25.128 39.75ZM32.5 39C32.84 39.55 32.641 40 32.059 40C31.477 40 31 39.55 31 39C31 38.45 31.198 38 31.441 38C31.684 38 32.16 38.45 32.5 39ZM41 38.378C41 38.585 40.212 39.373 39.25 40.128C37.664 41.371 37.629 41.336 38.872 39.75C40.179 38.084 41 37.555 41 38.378ZM13.662 44.25C13.385 44.938 13.158 44.375 13.158 43C13.158 41.625 13.385 41.063 13.662 41.75C13.94 42.438 13.94 43.563 13.662 44.25ZM50.662 44.25C50.385 44.938 50.158 44.375 50.158 43C50.158 41.625 50.385 41.063 50.662 41.75C50.94 42.438 50.94 43.563 50.662 44.25ZM30.563 44.229C30.904 44.571 30.48 44.747 29.621 44.621C28.761 44.494 27.779 44.112 27.437 43.771C27.096 43.429 27.52 43.253 28.379 43.379C29.239 43.506 30.221 43.888 30.563 44.229ZM36.471 43.862C35.625 44.708 32.943 44.901 33.451 44.079C33.705 43.669 34.607 43.333 35.456 43.333C36.305 43.333 36.762 43.571 36.471 43.862ZM16.862 47.333C17.689 48.33 17.635 48.667 16.651 48.667C15.926 48.667 15.333 48.067 15.333 47.333C15.333 46.6 15.428 46 15.544 46C15.66 46 16.253 46.6 16.862 47.333ZM48.667 47.333C48.667 48.067 48.074 48.667 47.349 48.667C46.365 48.667 46.311 48.33 47.138 47.333C47.747 46.6 48.34 46 48.456 46C48.572 46 48.667 46.6 48.667 47.333ZM22.25 50.662C21.563 50.94 20.438 50.94 19.75 50.662C19.063 50.385 19.625 50.158 21 50.158C22.375 50.158 22.938 50.385 22.25 50.662ZM44.25 50.662C43.563 50.94 42.438 50.94 41.75 50.662C41.063 50.385 41.625 50.158 43 50.158C44.375 50.158 44.938 50.385 44.25 50.662Z" fill="#737476"/>
<path fill-rule="evenodd" clip-rule="evenodd" d="M0 32V64H32H64V32V0H32H0V32ZM23 14C23 14.55 22.1 15 21 15C19.9 15 19 14.55 19 14C19 13.45 19.9 13 21 13C22.1 13 23 13.45 23 14ZM45 14C45 14.55 44.1 15 43 15C41.9 15 41 14.55 41 14C41 13.45 41.9 13 43 13C44.1 13 45 13.45 45 14ZM17.02 16.476C16.324 17.314 15.248 17.964 14.628 17.921C13.925 17.872 13.974 17.651 14.756 17.336C15.447 17.057 15.715 16.348 15.352 15.76C14.961 15.128 15.163 14.983 15.845 15.405C16.48 15.797 17 15.566 17 14.892C17 14.218 17.289 13.956 17.643 14.309C17.996 14.663 17.716 15.638 17.02 16.476ZM27 15C27 15.55 26.55 16 26 16C25.45 16 25 15.55 25 15C25 14.45 25.45 14 26 14C26.55 14 27 14.45 27 15ZM39 15C39 15.55 38.55 16 38 16C37.45 16 37 15.55 37 15C37 14.45 37.45 14 38 14C38.55 14 39 14.45 39 15ZM48.24 15.352C48.872 14.961 49.017 15.163 48.595 15.845C48.203 16.48 48.434 17 49.108 17C49.782 17 50.044 17.289 49.691 17.643C48.851 18.483 45.977 16.084 46.079 14.628C46.128 13.925 46.349 13.974 46.664 14.756C46.943 15.447 47.652 15.715 48.24 15.352ZM30.601 19.596C30.278 20.438 29.673 20.974 29.257 20.788C28.456 20.43 20.129 28.63 20.098 29.809C20.087 30.189 19.049 30.591 17.79 30.702C15.645 30.89 15.658 30.849 18 30.051C19.375 29.583 20.121 29.155 19.658 29.1C19.195 29.045 20.995 26.87 23.658 24.266C26.321 21.662 28.837 19.637 29.25 19.766C29.663 19.895 30.036 18.988 30.079 17.75C30.122 16.512 30.39 16.077 30.673 16.783C30.957 17.489 30.924 18.755 30.601 19.596ZM34.9 19.658C35.019 18.656 43.415 27.13 43.691 28.531C43.796 29.064 44.921 29.816 46.191 30.202C48.437 30.884 48.432 30.897 46 30.678C44.625 30.554 43.522 30.013 43.549 29.476C43.608 28.299 35.173 20.035 34.191 20.308C33.811 20.414 33.409 19.375 33.298 18L33.097 15.5L33.949 18C34.417 19.375 34.845 20.121 34.9 19.658ZM15 21C15 22.1 14.55 23 14 23C13.45 23 13 22.1 13 21C13 19.9 13.45 19 14 19C14.55 19 15 19.9 15 21ZM51 21C51 22.1 50.55 23 50 23C49.45 23 49 22.1 49 21C49 19.9 49.45 19 50 19C50.55 19 51 19.9 51 21ZM33 25C33 25.55 32.55 26 32 26C31.45 26 31 25.55 31 25C31 24.45 31.45 24 32 24C32.55 24 33 24.45 33 25ZM16 26C16 26.55 15.55 27 15 27C14.45 27 14 26.55 14 26C14 25.45 14.45 25 15 25C15.55 25 16 25.45 16 26ZM50 26C50 26.55 49.55 27 49 27C48.45 27 48 26.55 48 26C48 25.45 48.45 25 49 25C49.55 25 50 25.45 50 26ZM31 27.345C31 27.535 29.988 28.547 28.75 29.595L26.5 31.5L28.405 29.25C30.195 27.136 31 26.545 31 27.345ZM35.5 29C36.495 30.1 37.085 31 36.81 31C36.535 31 35.495 30.1 34.5 29C33.505 27.9 32.915 27 33.19 27C33.465 27 34.505 27.9 35.5 29ZM26 32C26 32.55 25.55 33 25 33C24.45 33 24 32.55 24 32C24 31.45 24.45 31 25 31C25.55 31 26 31.45 26 32ZM40 32C40 32.55 39.55 33 39 33C38.45 33 38 32.55 38 32C38 31.45 38.45 31 39 31C39.55 31 40 31.45 40 32ZM20.308 34.191C20.035 35.173 28.299 43.608 29.476 43.549C30.013 43.522 30.554 44.625 30.678 46C30.897 48.432 30.884 48.437 30.202 46.191C29.816 44.921 29.064 43.796 28.531 43.691C27.13 43.415 18.656 35.019 19.658 34.9C20.121 34.845 19.375 34.417 18 33.949L15.5 33.097L18 33.298C19.375 33.409 20.414 33.811 20.308 34.191ZM29.5 35C30.495 36.1 31.085 37 30.81 37C30.535 37 29.495 36.1 28.5 35C27.505 33.9 26.915 33 27.19 33C27.465 33 28.505 33.9 29.5 35ZM37 33.345C37 33.535 35.987 34.547 34.75 35.595L32.5 37.5L34.405 35.25C36.195 33.136 37 32.545 37 33.345ZM46 34C44.625 34.44 43.879 34.845 44.342 34.9C45.344 35.019 36.87 43.415 35.469 43.691C34.936 43.796 34.184 44.921 33.798 46.191C33.116 48.437 33.103 48.432 33.322 46C33.446 44.625 33.987 43.522 34.524 43.549C35.061 43.576 37.36 41.664 39.633 39.299C41.906 36.935 43.567 35 43.324 35C43.081 35 43.16 34.55 43.5 34C43.84 33.45 45.104 33.045 46.309 33.1C48.349 33.192 48.327 33.255 46 34ZM16 38C16 38.55 15.55 39 15 39C14.45 39 14 38.55 14 38C14 37.45 14.45 37 15 37C15.55 37 16 37.45 16 38ZM50 38C50 38.55 49.55 39 49 39C48.45 39 48 38.55 48 38C48 37.45 48.45 37 49 37C49.55 37 50 37.45 50 38ZM33 39C33 39.55 32.55 40 32 40C31.45 40 31 39.55 31 39C31 38.45 31.45 38 32 38C32.55 38 33 38.45 33 39ZM15 43C15 44.1 14.55 45 14 45C13.45 45 13 44.1 13 43C13 41.9 13.45 41 14 41C14.55 41 15 41.9 15 43ZM51 43C51 44.1 50.55 45 50 45C49.45 45 49 44.1 49 43C49 41.9 49.45 41 50 41C50.55 41 51 41.9 51 43ZM17.02 47.524C17.716 48.362 17.996 49.337 17.643 49.691C17.289 50.044 17 49.782 17 49.108C17 48.434 16.48 48.203 15.845 48.595C15.163 49.017 14.961 48.872 15.352 48.24C15.715 47.652 15.447 46.943 14.756 46.664C13.974 46.349 13.925 46.128 14.628 46.079C15.248 46.036 16.324 46.686 17.02 47.524ZM49.244 46.664C48.553 46.943 48.285 47.652 48.648 48.24C49.039 48.872 48.837 49.017 48.155 48.595C47.52 48.203 47 48.434 47 49.108C47 49.782 46.711 50.044 46.357 49.691C45.517 48.851 47.916 45.977 49.372 46.079C50.075 46.128 50.026 46.349 49.244 46.664ZM27 49C27 49.55 26.55 50 26 50C25.45 50 25 49.55 25 49C25 48.45 25.45 48 26 48C26.55 48 27 48.45 27 49ZM39 49C39 49.55 38.55 50 38 50C37.45 50 37 49.55 37 49C37 48.45 37.45 48 38 48C38.55 48 39 48.45 39 49ZM23 50C23 50.55 22.1 51 21 51C19.9 51 19 50.55 19 50C19 49.45 19.9 49 21 49C22.1 49 23 49.45 23 50ZM45 50C45 50.55 44.1 51 43 51C41.9 51 41 50.55 41 50C41 49.45 41.9 49 43 49C44.1 49 45 49.45 45 50Z" fill="#4E4F52"/>
<path fill-rule="evenodd" clip-rule="evenodd" d="M0 32V64H32H64V32V0H32H0V32ZM25.216 14.043C27.26 14.611 29.623 15.766 30.466 16.609C31.845 17.987 32.157 17.986 33.545 16.598C34.395 15.748 36.924 14.559 39.166 13.955C47.263 11.775 52.225 16.737 50.045 24.834C49.441 27.076 48.252 29.605 47.402 30.455C46.009 31.848 46.009 32.152 47.402 33.545C48.252 34.395 49.441 36.924 50.045 39.166C52.225 47.263 47.263 52.225 39.166 50.045C36.924 49.441 34.395 48.252 33.545 47.402C32.152 46.009 31.848 46.009 30.455 47.402C27.911 49.946 21.214 51.331 17.965 49.985C14.057 48.367 12.563 44.336 13.955 39.166C14.559 36.924 15.748 34.395 16.598 33.545C17.991 32.152 17.991 31.848 16.598 30.455C12.2 26.057 12.627 16.458 17.321 14.189C20.147 12.823 20.78 12.811 25.216 14.043ZM16.655 16.829C14.735 18.95 14.544 22.393 16.098 26.851C16.702 28.583 17.305 30 17.438 30C17.754 30 30 17.754 30 17.438C30 17.305 28.583 16.702 26.851 16.098C22.235 14.489 18.532 14.754 16.655 16.829ZM37.037 16.11C35.682 16.651 34.443 17.224 34.283 17.383C34.013 17.653 46.03 30 46.562 30C47.206 30 49 23.383 49 21.006C49 15.882 43.374 13.58 37.037 16.11ZM24.92 24.92C21.664 28.176 19 31.362 19 32C19 32.638 21.664 35.824 24.92 39.08C28.176 42.336 31.362 45 32 45C33.512 45 45 33.512 45 32C45 30.488 33.512 19 32 19C31.362 19 28.176 21.664 24.92 24.92ZM33 25C33 25.55 32.55 26 32 26C31.45 26 31 25.55 31 25C31 24.45 31.45 24 32 24C32.55 24 33 24.45 33 25ZM31 27.345C31 27.535 29.988 28.547 28.75 29.595L26.5 31.5L28.405 29.25C30.195 27.136 31 26.545 31 27.345ZM35.5 29C36.495 30.1 37.085 31 36.81 31C36.535 31 35.495 30.1 34.5 29C33.505 27.9 32.915 27 33.19 27C33.465 27 34.505 27.9 35.5 29ZM26 32C26 32.55 25.55 33 25 33C24.45 33 24 32.55 24 32C24 31.45 24.45 31 25 31C25.55 31 26 31.45 26 32ZM40 32C40 32.55 39.55 33 39 33C38.45 33 38 32.55 38 32C38 31.45 38.45 31 39 31C39.55 31 40 31.45 40 32ZM29.5 35C30.495 36.1 31.085 37 30.81 37C30.535 37 29.495 36.1 28.5 35C27.505 33.9 26.915 33 27.19 33C27.465 33 28.505 33.9 29.5 35ZM37 33.345C37 33.535 35.987 34.547 34.75 35.595L32.5 37.5L34.405 35.25C36.195 33.136 37 32.545 37 33.345ZM16.098 37.149C12.833 46.514 17.486 51.167 26.851 47.902C28.583 47.298 30 46.695 30 46.562C30 46.246 17.754 34 17.438 34C17.305 34 16.702 35.417 16.098 37.149ZM39.75 40.292C36.587 43.592 34 46.407 34 46.548C34 46.689 35.417 47.298 37.149 47.902C46.514 51.167 51.167 46.514 47.902 37.149C47.298 35.417 46.511 34.066 46.152 34.146C45.793 34.226 42.913 36.992 39.75 40.292ZM33 39C33 39.55 32.55 40 32 40C31.45 40 31 39.55 31 39C31 38.45 31.45 38 32 38C32.55 38 33 38.45 33 39Z" fill="#393A3E"/>
<path fill-rule="evenodd" clip-rule="evenodd" d="M0 32V64H32H64V32V0H32H0V32ZM29.215 15.611C31.601 16.845 32.394 16.853 34.75 15.666C42.023 12.002 47.9 12.931 50.034 18.082C51.028 20.482 50.94 21.827 49.533 25.746C47.419 31.635 47.419 32.365 49.533 38.254C52.82 47.41 47.41 52.82 38.254 49.533C32.365 47.419 31.635 47.419 25.746 49.533C19.905 51.63 15.812 50.374 13.966 45.918C12.972 43.518 13.06 42.173 14.467 38.254C16.581 32.365 16.581 31.635 14.467 25.746C13.068 21.85 12.975 20.474 13.951 18.117C16.069 13.006 22.223 11.996 29.215 15.611ZM16.655 16.829C14.735 18.95 14.544 22.393 16.098 26.851C16.702 28.583 17.305 30 17.438 30C17.754 30 30 17.754 30 17.438C30 17.305 28.583 16.702 26.851 16.098C22.235 14.489 18.532 14.754 16.655 16.829ZM37.037 16.11C35.682 16.651 34.443 17.224 34.283 17.383C34.013 17.653 46.03 30 46.562 30C47.206 30 49 23.383 49 21.006C49 15.882 43.374 13.58 37.037 16.11ZM24.92 24.92C21.664 28.176 19 31.362 19 32C19 32.638 21.664 35.824 24.92 39.08C28.176 42.336 31.362 45 32 45C33.512 45 45 33.512 45 32C45 30.488 33.512 19 32 19C31.362 19 28.176 21.664 24.92 24.92ZM33 25.186C33 26.834 37.065 31 38.674 31C39.403 31 40 31.45 40 32C40 32.55 39.467 33 38.814 33C37.166 33 33 37.065 33 38.674C33 39.403 32.55 40 32 40C31.45 40 31 39.467 31 38.814C31 37.166 26.935 33 25.326 33C24.597 33 24 32.55 24 32C24 31.45 24.533 31 25.186 31C26.834 31 31 26.935 31 25.326C31 24.597 31.45 24 32 24C32.55 24 33 24.533 33 25.186ZM29.219 29.441L26.938 31.847L29.56 34.469L32.182 37.091L34.636 34.636L37.091 32.182L34.5 29.591C33.075 28.166 31.817 27.008 31.705 27.017C31.592 27.027 30.473 28.117 29.219 29.441ZM16.098 37.149C12.833 46.514 17.486 51.167 26.851 47.902C28.583 47.298 30 46.695 30 46.562C30 46.246 17.754 34 17.438 34C17.305 34 16.702 35.417 16.098 37.149ZM39.75 40.292C36.587 43.592 34 46.407 34 46.548C34 46.689 35.417 47.298 37.149 47.902C46.514 51.167 51.167 46.514 47.902 37.149C47.298 35.417 46.511 34.066 46.152 34.146C45.793 34.226 42.913 36.992 39.75 40.292Z" fill="#15161A"/>
<path fill-rule="evenodd" clip-rule="evenodd" d="M0 32V64H32H64V32V0H32H0V32ZM29.215 15.611C31.601 16.845 32.394 16.853 34.75 15.666C42.023 12.002 47.9 12.931 50.034 18.082C51.028 20.482 50.94 21.827 49.533 25.746C47.419 31.635 47.419 32.365 49.533 38.254C52.82 47.41 47.41 52.82 38.254 49.533C32.365 47.419 31.635 47.419 25.746 49.533C19.905 51.63 15.812 50.374 13.966 45.918C12.972 43.518 13.06 42.173 14.467 38.254C16.581 32.365 16.581 31.635 14.467 25.746C13.068 21.85 12.975 20.474 13.951 18.117C16.069 13.006 22.223 11.996 29.215 15.611ZM16.655 16.829C14.735 18.95 14.544 22.393 16.098 26.851C16.702 28.583 17.305 30 17.438 30C17.754 30 30 17.754 30 17.438C30 17.305 28.583 16.702 26.851 16.098C22.235 14.489 18.532 14.754 16.655 16.829ZM37.037 16.11C35.682 16.651 34.443 17.224 34.283 17.383C34.013 17.653 46.03 30 46.562 30C47.206 30 49 23.383 49 21.006C49 15.882 43.374 13.58 37.037 16.11ZM24.92 24.92C21.664 28.176 19 31.362 19 32C19 32.638 21.664 35.824 24.92 39.08C28.176 42.336 31.362 45 32 45C33.512 45 45 33.512 45 32C45 30.488 33.512 19 32 19C31.362 19 28.176 21.664 24.92 24.92ZM33 25.186C33 26.834 37.065 31 38.674 31C39.403 31 40 31.45 40 32C40 32.55 39.467 33 38.814 33C37.166 33 33 37.065 33 38.674C33 39.403 32.55 40 32 40C31.45 40 31 39.467 31 38.814C31 37.166 26.935 33 25.326 33C24.597 33 24 32.55 24 32C24 31.45 24.533 31 25.186 31C26.834 31 31 26.935 31 25.326C31 24.597 31.45 24 32 24C32.55 24 33 24.533 33 25.186ZM16.098 37.149C12.833 46.514 17.486 51.167 26.851 47.902C28.583 47.298 30 46.695 30 46.562C30 46.246 17.754 34 17.438 34C17.305 34 16.702 35.417 16.098 37.149ZM39.75 40.292C36.587 43.592 34 46.407 34 46.548C34 46.689 35.417 47.298 37.149 47.902C46.514 51.167 51.167 46.514 47.902 37.149C47.298 35.417 46.511 34.066 46.152 34.146C45.793 34.226 42.913 36.992 39.75 40.292Z" fill="white"/>
<path fill-rule="evenodd" clip-rule="evenodd" d="M22.924 23.75L20.5 26.5L23.25 24.076C25.82 21.81 26.459 21 25.674 21C25.495 21 24.258 22.238 22.924 23.75ZM40 23.5C41.292 24.875 42.574 26 42.849 26C43.124 26 42.292 24.875 41 23.5C39.708 22.125 38.426 21 38.151 21C37.876 21 38.708 22.125 40 23.5ZM23 40.5C24.292 41.875 25.574 43 25.849 43C26.124 43 25.292 41.875 24 40.5C22.708 39.125 21.426 38 21.151 38C20.876 38 21.708 39.125 23 40.5ZM39.924 40.75L37.5 43.5L40.25 41.076C42.82 38.81 43.459 38 42.674 38C42.495 38 41.258 39.237 39.924 40.75Z" fill="#DEDEDE"/>
</svg>
