<svg width="32" height="65" viewBox="0 0 64 65" fill="none" xmlns="http://www.w3.org/2000/svg">
<path fill-rule="evenodd" clip-rule="evenodd" d="M0 33V65H32H64V33V1H32H0V33Z" fill="#E2E5F4"/>
<path fill-rule="evenodd" clip-rule="evenodd" d="M0.086998 33V64.942H32.011H63.936L63.928 33L63.919 1.058H32.003H0.086998V33Z" fill="#A2B0E1"/>
<path fill-rule="evenodd" clip-rule="evenodd" d="M0.07 13.308C0.109 20.014 0.446 24.729 0.82 23.787C1.194 22.845 1.5 26.991 1.5 33C1.5 39.009 1.194 43.155 0.82 42.213C0.446 41.271 0.109 45.993 0.07 52.707L0 64.913H31.938H63.875L63.87 33.014L63.864 1.116H31.932H0L0.07 13.308ZM19.917 3.365C19.688 3.565 18.375 4.265 17 4.92C14.643 6.042 14.611 6.022 16.441 4.555C18.034 3.279 21.289 2.164 19.917 3.365ZM53.612 9.21C57.828 13.096 63 21.314 63 24.126C63 24.783 61.621 22.561 59.936 19.189C58.165 15.643 54.943 11.359 52.296 9.029C49.778 6.813 48.017 5 48.382 5C48.746 5 51.1 6.894 53.612 9.21ZM14 6.345C14 6.535 12.988 7.547 11.75 8.595L9.5 10.5L11.405 8.25C13.195 6.136 14 5.545 14 6.345ZM9 11.345C9 11.535 7.988 12.547 6.75 13.595L4.5 15.5L6.405 13.25C8.195 11.136 9 10.545 9 11.345ZM7.128 52.75C8.371 54.336 8.336 54.371 6.75 53.128C5.084 51.821 4.555 51 5.378 51C5.585 51 6.373 51.788 7.128 52.75ZM13.128 58.75C14.371 60.336 14.336 60.371 12.75 59.128C11.084 57.821 10.555 57 11.378 57C11.585 57 12.373 57.788 13.128 58.75Z" fill="#3489FE"/>
<path fill-rule="evenodd" clip-rule="evenodd" d="M0.07 13.308C0.109 20.014 0.446 24.729 0.82 23.787C1.194 22.845 1.5 26.991 1.5 33C1.5 39.009 1.194 43.155 0.82 42.213C0.446 41.271 0.109 45.993 0.07 52.707L0 64.913H31.938H63.875L63.87 33.014L63.864 1.116H31.932H0L0.07 13.308ZM19.917 3.365C19.688 3.565 18.375 4.265 17 4.92C14.643 6.042 14.611 6.022 16.441 4.555C18.034 3.279 21.289 2.164 19.917 3.365ZM53.612 9.21C57.828 13.096 63 21.314 63 24.126C63 24.783 61.621 22.561 59.936 19.189C58.165 15.643 54.943 11.359 52.296 9.029C49.778 6.813 48.017 5 48.382 5C48.746 5 51.1 6.894 53.612 9.21ZM14 6.345C14 6.535 12.988 7.547 11.75 8.595L9.5 10.5L11.405 8.25C13.195 6.136 14 5.545 14 6.345ZM9 11.345C9 11.535 7.988 12.547 6.75 13.595L4.5 15.5L6.405 13.25C8.195 11.136 9 10.545 9 11.345ZM22 30V40L24.75 40.116C26.723 40.199 26.935 40.352 25.5 40.655C24.4 40.888 22.52 41.286 21.323 41.54C20.126 41.794 18.941 42.789 18.689 43.751C18.438 44.713 18.18 39.763 18.116 32.75C18.006 20.628 18.099 20 20 20C21.867 20 22 20.667 22 30ZM33.778 22.25C34.383 23.488 36.095 26.525 37.582 29C39.069 31.475 39.717 32.973 39.021 32.328C37.308 30.741 35.004 31.766 35.639 33.833C36.079 35.266 35.993 35.255 35.026 33.75C33.367 31.171 32.002 31.62 31.985 34.75C31.973 36.838 31.745 37.145 31.038 36.028C30.219 34.732 30.051 34.732 29.633 36.028C29.372 36.838 28.933 38.175 28.658 39C28.383 39.825 28.122 35.888 28.079 30.25C28.001 20.148 28.034 20 30.339 20C31.773 20 33.105 20.871 33.778 22.25ZM45.921 24.75C45.878 27.363 45.615 28.938 45.338 28.25C44.54 26.274 43.179 26.791 42.706 29.25C42.467 30.488 42.211 28.913 42.136 25.75C42.015 20.621 42.216 20 44 20C45.73 20 45.989 20.64 45.921 24.75ZM7.128 52.75C8.371 54.336 8.336 54.371 6.75 53.128C5.084 51.821 4.555 51 5.378 51C5.585 51 6.373 51.788 7.128 52.75ZM13.128 58.75C14.371 60.336 14.336 60.371 12.75 59.128C11.084 57.821 10.555 57 11.378 57C11.585 57 12.373 57.788 13.128 58.75Z" fill="#667FDB"/>
<path fill-rule="evenodd" clip-rule="evenodd" d="M0.001 13.169L0.002 25.5L2.851 19.478C6.09 12.63 14.028 4.806 19.602 2.966C21.544 2.325 23.332 1.998 23.573 2.24C23.815 2.482 22.275 3.2 20.151 3.837C14.597 5.501 7.578 12.122 4.306 18.786C1.859 23.769 1.501 25.652 1.509 33.5C1.517 41.303 1.871 43.165 4.17 47.5C7.06 52.951 11.538 57.626 17 60.897C18.925 62.049 20.038 62.994 19.473 62.996C15.776 63.01 6.271 53.558 2.882 46.5L0.002 40.5L0.001 52.692L0 64.884H32H64L63.93 52.692C63.885 44.949 63.546 41.23 63 42.5C61.885 45.095 61.873 43.602 62.963 38C64.693 29.105 61.189 18.991 53.666 11.167C45.736 2.921 39.822 1.341 15.75 1.037L0 0.837999L0.001 13.169ZM45.5 3.882C52.805 7.389 58.043 12.689 61.431 20L63.98 25.5L63.99 13.25L64 0.999999L51.75 1.001L39.5 1.002L45.5 3.882ZM22 30V40L24.75 40.116C26.723 40.199 26.935 40.352 25.5 40.655C24.4 40.888 22.52 41.286 21.323 41.54C20.126 41.794 18.941 42.789 18.689 43.751C18.438 44.713 18.18 39.763 18.116 32.75C18.006 20.628 18.099 20 20 20C21.867 20 22 20.667 22 30ZM33.778 22.25C34.383 23.488 36.095 26.525 37.582 29C39.069 31.475 39.717 32.973 39.021 32.328C37.308 30.741 35.004 31.766 35.639 33.833C36.079 35.266 35.993 35.255 35.026 33.75C33.367 31.171 32.002 31.62 31.985 34.75C31.973 36.838 31.745 37.145 31.038 36.028C30.219 34.732 30.051 34.732 29.633 36.028C29.372 36.838 28.933 38.175 28.658 39C28.383 39.825 28.122 35.888 28.079 30.25C28.001 20.148 28.034 20 30.339 20C31.773 20 33.105 20.871 33.778 22.25ZM45.921 24.75C45.878 27.363 45.615 28.938 45.338 28.25C44.54 26.274 43.179 26.791 42.706 29.25C42.467 30.488 42.211 28.913 42.136 25.75C42.015 20.621 42.216 20 44 20C45.73 20 45.989 20.64 45.921 24.75ZM62 45.809C62 46.254 61.318 47.491 60.484 48.559C59.078 50.359 59.053 50.3 60.144 47.75C61.322 44.999 62 44.289 62 45.809ZM59 51.345C59 51.535 57.987 52.547 56.75 53.595L54.5 55.5L56.405 53.25C58.195 51.136 59 50.545 59 51.345ZM54 56.345C54 56.535 52.987 57.547 51.75 58.595L49.5 60.5L51.405 58.25C53.195 56.136 54 55.545 54 56.345ZM47.559 61.532C46.491 62.339 45.141 62.984 44.559 62.965C43.976 62.945 44.625 62.286 46 61.5C49.239 59.648 50.028 59.664 47.559 61.532Z" fill="#446BF4"/>
<path fill-rule="evenodd" clip-rule="evenodd" d="M0.001 13.25L0.002 25.5L2.882 19.5C5.979 13.049 13.111 5.333 14.935 6.46C15.556 6.844 15.928 6.596 15.775 5.901C15.624 5.215 17.525 3.856 20 2.881L24.5 1.109L12.25 1.054L0 1L0.001 13.25ZM45.5 3.882C52.805 7.389 58.043 12.689 61.431 20L63.98 25.5L63.99 13.25L64 1L51.75 1.001L39.5 1.002L45.5 3.882ZM26.332 7.912C21.487 9.138 14.348 13.678 11.602 17.277C8.435 21.43 6.944 25.291 6.143 31.418C5.784 34.167 4.938 36.45 4.225 36.593C3.524 36.734 3.411 36.621 3.975 36.342C5.505 35.583 5.212 33.295 3.5 32.638C2.31 32.182 2 32.95 2 36.353C2 45.666 7.255 54.669 15.886 60.143C18.364 61.714 19.954 63 19.418 63C15.764 63 6.243 53.5 2.882 46.5L0.002 40.5L0.001 52.678L0 64.855H32H64L63.921 52.678C63.842 40.5 63.842 40.5 62.315 44.817C61.428 47.326 58.483 51.513 55.28 54.817L49.772 60.5L54.879 54.677C60.64 48.108 63.635 40.198 62.55 34.416C61.778 30.301 59.304 29.871 58.716 33.75C58.306 36.457 58.297 36.452 58.15 33.432C57.889 28.092 55.161 20.625 52.134 16.966C46.374 10.003 34.512 5.841 26.332 7.912ZM12.543 10.931C11.86 12.036 13.437 13.23 14.361 12.306C15.311 11.355 15.134 10 14.059 10C13.541 10 12.859 10.419 12.543 10.931ZM49.469 11.05C48.519 12.588 49.82 13.58 51.104 12.296C51.822 11.578 51.839 11.019 51.156 10.597C50.596 10.251 49.837 10.455 49.469 11.05ZM10 14.559C10 15.416 10.45 15.84 11 15.5C11.55 15.16 12 14.459 12 13.941C12 13.423 11.55 13 11 13C10.45 13 10 13.702 10 14.559ZM52 14.5C52 15.417 52.484 16.005 53.075 15.808C53.666 15.611 54.15 15.022 54.15 14.5C54.15 13.978 53.666 13.389 53.075 13.192C52.484 12.995 52 13.583 52 14.5ZM7.469 17.05C6.519 18.588 7.82 19.58 9.104 18.296C9.822 17.578 9.839 17.019 9.156 16.597C8.596 16.251 7.837 16.455 7.469 17.05ZM54.553 16.915C54.231 17.436 54.394 18.125 54.915 18.447C55.436 18.769 56.125 18.606 56.447 18.085C56.769 17.564 56.606 16.875 56.085 16.553C55.564 16.231 54.875 16.394 54.553 16.915ZM56.639 19.694C55.513 20.82 55.954 22 57.5 22C58.325 22 59 21.577 59 21.059C59 19.798 57.438 18.895 56.639 19.694ZM5 21.5C5 22.325 5.45 23 6 23C6.55 23 7 22.325 7 21.5C7 20.675 6.55 20 6 20C5.45 20 5 20.675 5 21.5ZM22 30V40H24.5C26.5 40 27 40.5 27 42.5C27 44.784 26.623 45 22.65 45H18.299L17.65 35.846C16.562 20.522 16.623 20 19.5 20H22V30ZM36.931 27C39.218 30.85 41.321 34 41.605 34C41.889 34 41.811 30.85 41.431 27L40.742 20H43.371C45.976 20 46 20.068 46 27.5C46 31.625 45.663 34.904 45.25 34.788C44.276 34.512 39.685 37.015 38.867 38.269C38.519 38.802 37.102 37.573 35.719 35.537L33.204 31.835L32.514 35.918C32.011 38.894 31.345 40 30.057 40C28.604 40 28.176 38.797 27.652 33.25C26.475 20.787 26.607 20 29.886 20C32.396 20 33.313 20.911 36.931 27ZM57.192 24.075C57.389 24.666 57.977 25.15 58.5 25.15C59.023 25.15 59.611 24.666 59.808 24.075C60.005 23.484 59.417 23 58.5 23C57.583 23 56.995 23.484 57.192 24.075ZM2.873 26.38C1.668 29.024 2.249 32 3.969 32C4.536 32 5 31.325 5 30.5C5 29.675 4.55 29 4 29C3.45 29 3 28.55 3 28C3 27.45 3.675 27 4.5 27C6.196 27 6.512 25.435 5.004 24.503C4.457 24.164 3.497 25.009 2.873 26.38ZM58 28C58 28.55 58.675 29 59.5 29C60.325 29 61 28.55 61 28C61 27.45 60.325 27 59.5 27C58.675 27 58 27.45 58 28ZM47.559 61.532C46.491 62.339 45.141 62.984 44.559 62.965C43.976 62.945 44.625 62.286 46 61.5C49.239 59.648 50.028 59.664 47.559 61.532Z" fill="#254FE1"/>
<path fill-rule="evenodd" clip-rule="evenodd" d="M0.001 13.25L0.002 25.5L2.851 19.478C6.201 12.396 13.983 4.882 20.275 2.654C24.459 1.172 24.382 1.157 12.25 1.079L0 1L0.001 13.25ZM45.5 3.882C52.805 7.389 58.043 12.689 61.431 20L63.98 25.5L63.99 13.25L64 1L51.75 1.001L39.5 1.002L45.5 3.882ZM49 15.5C50.292 16.875 51.574 18 51.849 18C52.124 18 51.292 16.875 50 15.5C48.708 14.125 47.426 13 47.151 13C46.876 13 47.708 14.125 49 15.5ZM8.078 25.656C5.353 35.471 8.366 45.734 15.856 52.145C22.431 57.773 31.337 59.457 40.384 56.784C46.317 55.031 54.231 46.862 55.943 40.724C57.387 35.543 56.903 26.295 55.03 23.299C53.988 21.634 53.942 21.649 54.405 23.5C56.22 30.757 56.235 31.027 54.789 30.473C53.867 30.119 52.678 31.183 51.451 33.461C49.119 37.791 48.33 37.918 48.219 33.982C48.166 32.12 48.533 31.212 49.178 31.61C49.753 31.965 50.616 31.636 51.096 30.878C52.475 28.702 52.144 27.636 50.51 28.992C49.278 30.014 48.849 29.819 48.033 27.864C47.258 26.006 47.058 26.999 47.099 32.5C47.196 45.467 47.303 45.003 44.25 44.976C42.024 44.956 40.738 43.827 37.5 39.052L33.5 33.152L33 36.826C32.613 39.667 32.046 40.5 30.5 40.5C29.168 40.5 28.331 41.335 27.994 43C27.543 45.233 26.93 45.532 22.244 45.802L17 46.105L16.825 34.302C16.729 27.811 16.477 24.445 16.264 26.822C15.957 30.261 15.609 30.92 14.561 30.05C13.652 29.296 12.43 29.266 10.622 29.954C7.683 31.071 7.601 30.877 8.983 26.06C9.523 24.175 9.781 22.448 9.556 22.222C9.33 21.997 8.665 23.542 8.078 25.656ZM26 26.5C26 30.91 24.263 31.1 23.723 26.75C23.434 24.419 23.279 24.913 23.175 28.5C23.076 31.927 23.323 33.037 23.961 32.029C24.473 31.22 25.187 30.853 25.548 31.214C25.909 31.575 25.483 32.9 24.602 34.158C22.367 37.349 22.547 40 25 40C26.843 40 27 39.333 27 31.5C27 26.825 26.775 23 26.5 23C26.225 23 26 24.575 26 26.5ZM58 24C58 24.55 58.477 25 59.059 25C59.641 25 59.84 24.55 59.5 24C59.16 23.45 58.684 23 58.441 23C58.198 23 58 23.45 58 24ZM39.768 27.435C39.512 28.775 39.677 30.462 40.136 31.185C40.667 32.023 40.975 31.14 40.985 28.75C41.002 24.463 40.45 23.866 39.768 27.435ZM13 33C13 33.55 12.438 34.036 11.75 34.079C10.75 34.142 10.75 34.259 11.75 34.662C13.555 35.391 13.339 40 11.5 40C9.684 40 9.509 38.365 11.25 37.662C11.938 37.385 11.439 37.122 10.143 37.079C8.42 37.021 7.949 36.575 8.393 35.418C8.727 34.548 9 33.423 9 32.918C9 32.413 9.9 32 11 32C12.1 32 13 32.45 13 33ZM59.5 36C59.16 36.55 59.359 37 59.941 37C60.523 37 61 36.55 61 36C61 35.45 60.802 35 60.559 35C60.316 35 59.84 35.45 59.5 36ZM3.5 38C3.16 38.55 3.359 39 3.941 39C4.523 39 5 38.55 5 38C5 37.45 4.802 37 4.559 37C4.316 37 3.84 37.45 3.5 38ZM53 37.893C53 38.384 52.261 39.069 51.359 39.416C49.986 39.943 49.924 39.796 50.981 38.523C52.421 36.788 53 36.607 53 37.893ZM0.001 52.75L0 65L11.75 64.93C18.213 64.891 24.4 64.434 25.5 63.914C27.158 63.131 27.032 63.06 24.758 63.502C21.303 64.172 14.57 61.505 15.583 59.866C16.056 59.1 15.876 58.959 15.064 59.46C13.103 60.672 6.119 53.243 2.882 46.5L0.002 40.5L0.001 52.75ZM4 42C4 42.55 4.45 43 5 43C5.55 43 6 42.55 6 42C6 41.45 5.55 41 5 41C4.45 41 4 41.45 4 42ZM61.923 45.25C61.09 47.587 59.883 49.393 59.24 49.262C58.598 49.131 58.299 49.615 58.576 50.338C59.232 52.047 49.969 60.697 45.47 62.577C43.552 63.378 40.749 63.794 39.242 63.502C36.968 63.06 36.842 63.131 38.5 63.914C39.6 64.434 45.787 64.891 52.25 64.93L64 65V53C64 46.4 63.874 41 63.719 41C63.565 41 62.757 42.913 61.923 45.25ZM55 49.059C55 49.641 55.45 49.84 56 49.5C56.55 49.16 57 48.684 57 48.441C57 48.198 56.55 48 56 48C55.45 48 55 48.477 55 49.059ZM52 52C52 52.55 52.45 53 53 53C53.55 53 54 52.55 54 52C54 51.45 53.55 51 53 51C52.45 51 52 51.45 52 52ZM54.405 54.151C53.357 55.335 50.499 57.585 48.054 59.151C45.609 60.718 44.079 62 44.654 62C45.997 62 52.929 56.936 55.405 54.146C56.453 52.966 57.085 52 56.81 52C56.535 52 55.453 52.968 54.405 54.151ZM12.5 54C12.16 54.55 12.359 55 12.941 55C13.523 55 14 54.55 14 54C14 53.45 13.802 53 13.559 53C13.316 53 12.84 53.45 12.5 54ZM49 55C49 55.55 49.45 56 50 56C50.55 56 51 55.55 51 55C51 54.45 50.55 54 50 54C49.45 54 49 54.45 49 55ZM30.25 64.689C31.212 64.941 32.788 64.941 33.75 64.689C34.712 64.438 33.925 64.232 32 64.232C30.075 64.232 29.288 64.438 30.25 64.689Z" fill="#0B2B98"/>
<path fill-rule="evenodd" clip-rule="evenodd" d="M0.001 13.25L0.002 25.5L2.851 19.478C6.201 12.396 13.983 4.882 20.275 2.654C24.459 1.172 24.382 1.157 12.25 1.079L0 1L0.001 13.25ZM45.5 3.882C52.805 7.389 58.043 12.689 61.431 20L63.98 25.5L63.99 13.25L64 1L51.75 1.001L39.5 1.002L45.5 3.882ZM0.001 52.75L0 65L12.25 64.921C24.382 64.843 24.459 64.828 20.275 63.346C13.983 61.118 6.201 53.604 2.851 46.522L0.002 40.5L0.001 52.75ZM62.061 45.19C60.363 50.86 50.125 61.101 44 63.258L39.5 64.842L51.75 64.921L64 65V53C64 46.4 63.846 41 63.658 41C63.47 41 62.752 42.885 62.061 45.19Z" fill="white"/>
</svg>
