<svg width="33" height="64" viewBox="0 0 65 64" fill="none" xmlns="http://www.w3.org/2000/svg">
<path fill-rule="evenodd" clip-rule="evenodd" d="M23.703 0.631004C22.318 2.015 23.049 6.071 26.04 13.601C27.712 17.81 28.916 21.417 28.716 21.617C28.516 21.817 26.848 18.497 25.009 14.24C23.17 9.983 21.236 5.938 20.71 5.25C18.714 2.637 14.962 3.943 9.888 9.017C2.864 16.041 3.226 18.381 12 22.697C19.429 26.352 19.429 26.928 12 24C5.888 21.591 2.424 21.451 1.607 23.582C0.500997 26.465 0.950997 39.551 2.2 40.8C3.938 42.538 7.182 42.28 12.559 39.975C15.157 38.861 17.456 38.122 17.667 38.333C17.878 38.544 15.352 39.887 12.055 41.317C4.896 44.422 3.559 47.168 6.914 51.879C10.245 56.557 14.91 60 17.917 60C20.462 60 21.02 59.212 25.002 49.995C27.379 44.493 29.473 40.139 29.654 40.321C29.836 40.502 28.413 44.548 26.492 49.311C20.993 62.948 21.507 64 33.665 64C44.581 64 44.9 63.413 40.436 51.549C38.584 46.626 37.212 42.455 37.387 42.279C37.563 42.104 39.168 45.457 40.955 49.73C42.743 54.004 44.664 58.063 45.225 58.75C47.365 61.373 51.196 60.09 56.216 55.07C60.169 51.117 61.082 49.58 60.823 47.32C60.552 44.954 59.454 43.988 54 41.316C46.111 37.453 46.475 37.114 54.856 40.52C59.722 42.497 61.49 42.808 63.067 41.964C64.878 40.995 65.048 40.041 64.788 32.3C64.428 21.57 63.492 20.646 55.76 23.39C47.351 26.375 47.11 26.294 54 22.798C62.787 18.339 63.128 16.033 56.048 8.952C52.095 5 50.381 3.94 48.334 4.185C45.384 4.538 45.341 4.597 40.455 15C36.676 23.045 36.729 22.541 40.846 11.25C44.455 1.351 43.902 0.589004 32.847 0.214004C28.204 0.0570043 24.089 0.244004 23.703 0.631004ZM30.969 26.5C30.969 27.05 30.533 26.825 30 26C29.467 25.175 29.031 24.05 29.031 23.5C29.031 22.95 29.467 23.175 30 24C30.533 24.825 30.969 25.95 30.969 26.5ZM36.122 25.675C34.943 27.702 34.659 27.053 35.624 24.539C35.966 23.645 36.458 23.124 36.715 23.382C36.973 23.639 36.706 24.671 36.122 25.675ZM35.945 29.197C37.652 30.264 37.723 30.729 36.592 33.447C35.894 35.126 35.527 37.175 35.776 38C36.049 38.904 35.587 38.705 34.615 37.5L33 35.5L31.365 37.5C30.073 39.082 29.855 39.14 30.322 37.781C30.647 36.835 30.281 34.843 29.508 33.353C28.262 30.951 28.295 30.499 29.802 29.354C31.946 27.724 33.521 27.684 35.945 29.197ZM46 37C46.825 37.533 47.05 37.969 46.5 37.969C45.95 37.969 44.825 37.533 44 37C43.175 36.467 42.95 36.031 43.5 36.031C44.05 36.031 45.175 36.467 46 37Z" fill="#00934B"/>
<path fill-rule="evenodd" clip-rule="evenodd" d="M26.201 9.85399C25.165 10.512 25.324 11.749 26.988 15.969C28.135 18.879 28.891 21.443 28.667 21.666C28.444 21.889 27.25 19.581 26.015 16.536C24.779 13.491 23.536 11 23.252 11C21.461 11 15.869 15.599 13.729 18.833L11.192 22.668L14.671 23.926C16.584 24.617 17.953 25.38 17.714 25.62C17.474 25.86 16.015 25.576 14.472 24.989C10.818 23.6 10.031 24.842 10.031 32C10.031 39.269 10.988 40.782 14.558 39.156C16.043 38.479 17.44 38.106 17.661 38.328C17.883 38.55 16.7 39.296 15.032 39.987C13.364 40.677 12 41.472 12 41.753C12 44.488 20.518 53 23.256 53C23.541 53 25.02 50.07 26.542 46.488C28.065 42.907 29.464 40.131 29.653 40.32C29.842 40.509 28.842 43.506 27.43 46.98C25.38 52.025 25.129 53.466 26.182 54.133C27.99 55.28 39.745 55.222 40.461 54.063C40.779 53.548 40.142 50.762 39.044 47.873C36.363 40.818 37.149 40.477 39.985 47.464C41.221 50.509 42.464 53 42.748 53C43.032 53 44.757 52.077 46.582 50.95C49.551 49.114 54.786 42.378 53.864 41.579C53.664 41.406 52.15 40.501 50.5 39.568C48.85 38.636 48.4 38.187 49.5 38.572C54.899 40.458 55.483 39.939 55.758 33C56.101 24.358 55.505 23.558 50.139 25.451C47.818 26.27 46.14 26.583 46.409 26.147C46.679 25.71 48.688 24.763 50.875 24.041L54.849 22.73L52.291 18.864C50.135 15.605 44.546 11 42.748 11C42.464 11 41.221 13.491 39.985 16.536C38.75 19.581 37.556 21.889 37.333 21.666C37.109 21.443 37.865 18.879 39.012 15.969C40.676 11.749 40.835 10.512 39.799 9.85399C38.114 8.78599 27.886 8.78599 26.201 9.85399ZM30.969 26.5C30.969 27.05 30.533 26.825 30 26C29.467 25.175 29.031 24.05 29.031 23.5C29.031 22.95 29.467 23.175 30 24C30.533 24.825 30.969 25.95 30.969 26.5ZM36.122 25.675C34.943 27.702 34.659 27.053 35.624 24.539C35.966 23.645 36.458 23.124 36.715 23.382C36.973 23.639 36.706 24.671 36.122 25.675ZM35.945 29.197C37.652 30.264 37.723 30.729 36.592 33.447C35.894 35.126 35.527 37.175 35.776 38C36.049 38.904 35.587 38.705 34.615 37.5L33 35.5L31.365 37.5C30.073 39.082 29.855 39.14 30.322 37.781C30.647 36.835 30.281 34.843 29.508 33.353C28.262 30.951 28.295 30.499 29.802 29.354C31.946 27.724 33.521 27.684 35.945 29.197ZM46 37C46.825 37.533 47.05 37.969 46.5 37.969C45.95 37.969 44.825 37.533 44 37C43.175 36.467 42.95 36.031 43.5 36.031C44.05 36.031 45.175 36.467 46 37Z" fill="#00FF00"/>
<path fill-rule="evenodd" clip-rule="evenodd" d="M26.201 9.85399C25.165 10.512 25.324 11.749 26.988 15.969C29.726 22.916 28.924 23.588 26.02 16.78C24.782 13.876 23.619 11.336 23.437 11.136C22.608 10.226 15.894 15.436 14.05 18.418C12.923 20.243 12 21.972 12 22.259C12 22.547 13.856 23.526 16.125 24.433C18.393 25.341 20.038 26.296 19.778 26.555C19.519 26.814 17.598 26.312 15.508 25.439C10.763 23.457 10.031 24.334 10.031 32C10.031 39.71 10.65 40.388 15.977 38.508C21.811 36.45 22.316 37.332 16.561 39.53C14.052 40.488 12 41.495 12 41.768C12 44.467 20.522 53 23.218 53C23.483 53 24.95 50.058 26.479 46.462C28.007 42.866 29.424 40.09 29.627 40.294C29.83 40.497 28.842 43.506 27.43 46.98C25.38 52.025 25.129 53.466 26.182 54.133C27.982 55.275 39.743 55.225 40.455 54.073C40.77 53.563 40.105 50.804 38.977 47.943C37.85 45.081 37.109 42.557 37.333 42.334C37.556 42.111 38.75 44.419 39.985 47.464C41.221 50.509 42.464 53 42.748 53C43.032 53 44.757 52.077 46.582 50.95C49.564 49.106 54.774 42.392 53.864 41.563C53.664 41.381 51.124 40.218 48.22 38.98C41.46 36.097 42.061 35.265 48.943 37.977C51.804 39.105 54.563 39.77 55.073 39.455C56.227 38.742 56.274 26.98 55.13 25.176C54.442 24.09 53.606 24.138 50.492 25.439C48.402 26.312 46.481 26.814 46.222 26.555C45.962 26.296 47.607 25.341 49.875 24.433C52.144 23.526 54 22.547 54 22.259C54 21.972 53.077 20.243 51.95 18.418C50.106 15.436 43.392 10.226 42.563 11.136C42.381 11.336 41.218 13.876 39.98 16.78C37.076 23.588 36.274 22.916 39.012 15.969C40.676 11.749 40.835 10.512 39.799 9.85399C38.114 8.78599 27.886 8.78599 26.201 9.85399ZM30.969 26.5C30.969 27.05 30.533 26.825 30 26C29.467 25.175 29.031 24.05 29.031 23.5C29.031 22.95 29.467 23.175 30 24C30.533 24.825 30.969 25.95 30.969 26.5ZM36.122 25.675C34.943 27.702 34.659 27.053 35.624 24.539C35.966 23.645 36.458 23.124 36.715 23.382C36.973 23.639 36.706 24.671 36.122 25.675ZM35.945 29.197C37.652 30.264 37.723 30.729 36.592 33.447C35.894 35.126 35.527 37.175 35.776 38C36.049 38.904 35.587 38.705 34.615 37.5L33 35.5L31.365 37.5C30.073 39.082 29.855 39.14 30.322 37.781C30.647 36.835 30.281 34.843 29.508 33.353C28.262 30.951 28.295 30.499 29.802 29.354C31.946 27.724 33.521 27.684 35.945 29.197Z" fill="#69E109"/>
<path fill-rule="evenodd" clip-rule="evenodd" d="M26.201 9.85399C25.164 10.512 25.315 11.726 26.951 15.876C29.154 21.465 29.573 23.588 27.908 20.729C27.341 19.755 26.385 19.262 25.784 19.633C25.122 20.042 24.977 19.846 25.417 19.135C26.146 17.955 24.328 11 23.29 11C20.516 11 12 19.492 12 22.259C12 22.547 13.856 23.526 16.125 24.433C18.393 25.341 20.038 26.296 19.778 26.555C19.519 26.814 17.598 26.312 15.508 25.439C10.763 23.457 10.031 24.334 10.031 32C10.031 39.702 10.652 40.387 15.946 38.519C21.137 36.688 20.667 36.694 20.667 38.456C20.667 39.257 20.283 39.675 19.814 39.385C18.863 38.797 12 40.839 12 41.71C12 44.477 20.49 53 23.247 53C24.301 53 26.204 46.973 25.625 45.466C25.294 44.603 25.446 44.158 25.964 44.478C26.482 44.798 27.583 43.808 28.412 42.28C30.681 38.097 30.301 39.913 27.432 46.976C25.38 52.024 25.129 53.466 26.182 54.133C27.982 55.275 39.743 55.225 40.455 54.073C40.77 53.563 40.122 50.846 39.014 48.036C37.906 45.225 37 42.617 37 42.24C37 40.878 39.717 45.56 40.342 48C41.639 53.065 42.468 53.492 46.348 51.094C49.362 49.231 54 43.543 54 41.71C54 41.405 52.313 40.606 50.25 39.935C46.714 38.785 41.753 36 43.24 36C43.617 36 46.225 36.906 49.036 38.014C51.846 39.122 54.563 39.77 55.073 39.455C56.227 38.742 56.274 26.98 55.13 25.176C54.441 24.09 53.613 24.135 50.523 25.426C45.972 27.328 46.336 27.318 45.658 25.551C45.284 24.577 45.582 24.286 46.569 24.665C48 25.214 54 23.262 54 22.247C54 19.49 45.477 11 42.71 11C41.672 11 39.854 17.955 40.583 19.135C41.023 19.846 40.878 20.042 40.216 19.633C39.615 19.262 38.659 19.755 38.092 20.729C36.427 23.588 36.846 21.465 39.049 15.876C40.685 11.726 40.836 10.512 39.799 9.85399C38.114 8.78599 27.886 8.78599 26.201 9.85399ZM31.729 17.604C31.397 17.936 30.534 17.972 29.813 17.683C29.015 17.364 29.252 17.127 30.417 17.079C31.471 17.036 32.061 17.272 31.729 17.604ZM36.729 17.604C36.397 17.936 35.534 17.972 34.813 17.683C34.015 17.364 34.252 17.127 35.417 17.079C36.471 17.036 37.061 17.272 36.729 17.604ZM24 20.378C24 20.585 23.212 21.373 22.25 22.128C20.664 23.371 20.629 23.336 21.872 21.75C23.179 20.084 24 19.555 24 20.378ZM44.128 21.75C45.371 23.336 45.336 23.371 43.75 22.128C42.788 21.373 42 20.585 42 20.378C42 19.555 42.821 20.084 44.128 21.75ZM30.969 26.5C30.969 27.05 30.533 26.825 30 26C29.467 25.175 29.031 24.05 29.031 23.5C29.031 22.95 29.467 23.175 30 24C30.533 24.825 30.969 25.95 30.969 26.5ZM36.122 25.675C34.943 27.702 34.659 27.053 35.624 24.539C35.966 23.645 36.458 23.124 36.715 23.382C36.973 23.639 36.706 24.671 36.122 25.675ZM18.683 30.188C18.364 30.985 18.127 30.748 18.079 29.583C18.036 28.529 18.272 27.939 18.604 28.271C18.936 28.603 18.972 29.466 18.683 30.188ZM35.945 29.197C37.652 30.264 37.723 30.729 36.592 33.447C35.894 35.126 35.527 37.175 35.776 38C36.049 38.904 35.587 38.705 34.615 37.5L33 35.5L31.365 37.5C30.073 39.082 29.855 39.14 30.322 37.781C30.647 36.835 30.281 34.843 29.508 33.353C28.262 30.951 28.295 30.499 29.802 29.354C31.946 27.724 33.521 27.684 35.945 29.197ZM18.683 35.188C18.364 35.985 18.127 35.748 18.079 34.583C18.036 33.529 18.272 32.939 18.604 33.271C18.936 33.603 18.972 34.466 18.683 35.188ZM23.128 42.75C24.371 44.336 24.336 44.371 22.75 43.128C21.084 41.821 20.555 41 21.378 41C21.585 41 22.373 41.788 23.128 42.75ZM45 41.345C45 41.535 43.987 42.547 42.75 43.595L40.5 45.5L42.405 43.25C44.195 41.136 45 40.545 45 41.345Z" fill="#22D511"/>
<path fill-rule="evenodd" clip-rule="evenodd" d="M15.872 15.75C14.629 17.336 14.664 17.371 16.25 16.128C17.916 14.821 18.445 14 17.622 14C17.415 14 16.627 14.787 15.872 15.75ZM48 14.378C48 14.585 48.788 15.373 49.75 16.128C51.336 17.371 51.371 17.336 50.128 15.75C48.821 14.084 48 13.555 48 14.378ZM30.206 17.716C28.384 18.061 28.046 18.597 28.56 20.325C29.156 22.329 29.1 22.361 27.853 20.731C26.607 19.103 26.319 19.088 24.244 20.542C20.978 22.829 18.878 27.497 18.65 32.978C18.491 36.783 18.745 37.651 19.889 37.212C20.704 36.899 21.058 37.097 20.706 37.667C19.932 38.92 22.458 42.64 25.012 44.006C26.591 44.851 27.199 44.55 28.524 42.264C29.969 39.773 29.932 40.707 28.44 44.377C27.744 46.09 31.967 47.297 35.531 46.403C37.548 45.897 37.933 45.335 37.427 43.634C36.799 41.521 36.808 41.52 38.343 43.5C39.866 45.467 39.947 45.445 43.196 42.196C46.445 38.947 46.467 38.866 44.5 37.343C42.524 35.811 42.525 35.801 44.662 36.436C49.801 37.964 47.769 25.323 42.167 20.917C39.668 18.951 39.513 18.942 38.18 20.686C36.89 22.373 36.84 22.342 37.464 20.25C37.948 18.625 37.722 18 36.649 18C35.832 18 34.564 17.838 33.832 17.64C33.099 17.443 31.468 17.477 30.206 17.716ZM30.969 26.5C30.969 27.05 30.533 26.825 30 26C29.467 25.175 29.031 24.05 29.031 23.5C29.031 22.95 29.467 23.175 30 24C30.533 24.825 30.969 25.95 30.969 26.5ZM36.122 25.675C34.943 27.702 34.659 27.053 35.624 24.539C35.966 23.645 36.458 23.124 36.715 23.382C36.973 23.639 36.706 24.671 36.122 25.675ZM35.945 29.197C37.652 30.264 37.723 30.729 36.592 33.447C35.894 35.126 35.527 37.175 35.776 38C36.049 38.904 35.587 38.705 34.615 37.5L33 35.5L31.365 37.5C30.073 39.082 29.855 39.14 30.322 37.781C30.647 36.835 30.281 34.843 29.508 33.353C28.262 30.951 28.295 30.499 29.802 29.354C31.946 27.724 33.521 27.684 35.945 29.197ZM15 47.378C15 47.585 15.787 48.373 16.75 49.128C18.336 50.371 18.371 50.336 17.128 48.75C15.821 47.084 15 46.555 15 47.378Z" fill="#40BF00"/>
<path fill-rule="evenodd" clip-rule="evenodd" d="M30.206 17.716C28.384 18.061 28.046 18.597 28.56 20.325C29.189 22.44 29.166 22.446 27.723 20.553C26.277 18.657 26.162 18.684 23.214 21.632C21.55 23.296 19.748 26.254 19.209 28.205C18.139 32.08 18.68 37 20.176 37C20.694 37 20.885 37.377 20.601 37.837C19.914 38.948 22.614 42.723 25.012 44.006C26.591 44.851 27.199 44.55 28.524 42.264C29.969 39.773 29.932 40.707 28.44 44.377C27.744 46.09 31.967 47.297 35.531 46.403C37.548 45.897 37.933 45.335 37.427 43.634C36.799 41.521 36.808 41.52 38.343 43.5C39.866 45.467 39.947 45.445 43.196 42.196C46.445 38.947 46.467 38.866 44.5 37.343C42.524 35.811 42.525 35.801 44.662 36.436C49.801 37.964 47.769 25.323 42.167 20.917C39.668 18.951 39.513 18.942 38.18 20.686C36.89 22.373 36.84 22.342 37.464 20.25C37.948 18.625 37.722 18 36.649 18C35.832 18 34.564 17.838 33.832 17.64C33.099 17.443 31.468 17.477 30.206 17.716ZM30.969 26.5C30.969 27.05 30.533 26.825 30 26C29.467 25.175 29.031 24.05 29.031 23.5C29.031 22.95 29.467 23.175 30 24C30.533 24.825 30.969 25.95 30.969 26.5ZM36.122 25.675C34.943 27.702 34.659 27.053 35.624 24.539C35.966 23.645 36.458 23.124 36.715 23.382C36.973 23.639 36.706 24.671 36.122 25.675ZM35.945 29.197C37.652 30.264 37.723 30.729 36.592 33.447C35.894 35.126 35.527 37.175 35.776 38C36.049 38.904 35.587 38.705 34.615 37.5L33 35.5L31.365 37.5C30.073 39.082 29.855 39.14 30.322 37.781C30.647 36.835 30.281 34.843 29.508 33.353C28.262 30.951 28.295 30.499 29.802 29.354C31.946 27.724 33.521 27.684 35.945 29.197Z" fill="#FFFF00"/>
<path fill-rule="evenodd" clip-rule="evenodd" d="M30.206 17.716C28.384 18.061 28.046 18.597 28.56 20.325C29.189 22.44 29.166 22.446 27.723 20.553C26.281 18.662 26.146 18.7 22.923 21.923C19.7 25.146 19.662 25.281 21.553 26.723C23.453 28.171 23.449 28.192 21.372 27.575C19.659 27.066 19.15 27.436 18.761 29.471C18.495 30.862 18.495 33.138 18.761 34.529C19.15 36.564 19.659 36.934 21.372 36.425C23.34 35.841 23.367 35.895 21.731 37.147C20.107 38.39 20.091 38.685 21.532 40.743C22.396 41.976 23.962 43.444 25.012 44.006C26.591 44.851 27.199 44.55 28.524 42.264C29.969 39.773 29.932 40.707 28.44 44.377C27.744 46.09 31.967 47.297 35.531 46.403C37.548 45.897 37.933 45.335 37.427 43.634C36.799 41.521 36.808 41.52 38.343 43.5C39.866 45.467 39.947 45.445 43.196 42.196C46.445 38.947 46.467 38.866 44.5 37.343C42.52 35.808 42.521 35.799 44.634 36.427C46.335 36.933 46.897 36.548 47.403 34.531C47.752 33.139 47.752 30.861 47.403 29.469C46.897 27.452 46.335 27.067 44.634 27.573C42.552 28.191 42.548 28.17 44.447 26.723C46.338 25.281 46.3 25.146 43.077 21.923C39.854 18.7 39.719 18.662 38.277 20.553C36.842 22.436 36.815 22.426 37.464 20.25C37.948 18.625 37.722 18 36.649 18C35.832 18 34.564 17.838 33.832 17.64C33.099 17.443 31.468 17.477 30.206 17.716ZM33 28C33.515 28 34.654 26.762 35.532 25.25C37.046 22.639 37.031 23.411 35.492 27.242C35.037 28.374 35.332 29.19 36.333 29.574C37.18 29.899 37.642 30.77 37.358 31.509C37.059 32.289 38.031 33.498 39.671 34.387C41.227 35.23 42.05 35.931 41.5 35.945C40.95 35.958 39.84 35.552 39.034 35.042C36.846 33.658 34.778 35.716 36.021 38.039C36.559 39.045 36.982 40.236 36.96 40.684C36.938 41.133 36.249 40.263 35.428 38.75C33.7 35.565 32.518 35.294 31.062 37.75C30.172 39.253 30.059 39.147 30.263 37C30.464 34.879 30.124 34.542 28.019 34.779C25.681 35.042 25.647 34.979 27.422 33.681C28.458 32.923 29.014 31.832 28.659 31.256C28.303 30.681 28.731 29.934 29.609 29.596C30.541 29.239 30.956 28.361 30.604 27.492C29.071 23.704 29.013 22.741 30.468 25.25C31.346 26.762 32.485 28 33 28Z" fill="#80FF00"/>
<path fill-rule="evenodd" clip-rule="evenodd" d="M30.25 17.71C27.539 18.227 27.56 17.808 29.964 23.417C32.234 28.712 33.316 29.068 35.532 25.25C36.409 23.738 36.84 23.4 36.49 24.5C35.755 26.804 35.722 27.04 35.882 28.817C35.96 29.686 36.767 29.925 38.25 29.52C40.192 28.989 40.26 29.055 38.75 30.002C36.3 31.538 36.563 32.699 39.75 34.428C41.263 35.249 42.133 35.938 41.684 35.96C41.236 35.982 40.045 35.559 39.039 35.021C35.884 33.332 35.001 35.919 37.085 40.75C38.093 43.087 39.302 45 39.772 45C40.242 45 41.948 43.617 43.563 41.926C46.459 38.894 46.472 38.83 44.5 37.322C42.521 35.809 42.522 35.8 44.634 36.427C46.335 36.933 46.897 36.548 47.403 34.531C48.374 30.663 47.098 26.742 45.127 27.536C41.41 29.034 40.669 29.029 43.264 27.524C45.55 26.199 45.851 25.591 45.006 24.012C44.444 22.962 42.976 21.396 41.743 20.532C39.685 19.091 39.39 19.107 38.147 20.731C36.907 22.351 36.849 22.311 37.464 20.25C37.948 18.625 37.722 18 36.649 18C35.832 18 34.564 17.838 33.832 17.64C33.099 17.443 31.488 17.474 30.25 17.71ZM24.217 20.561C23.006 21.409 21.556 22.962 20.994 24.012C20.149 25.591 20.45 26.199 22.736 27.524C25.33 29.029 24.589 29.034 20.878 27.538C19.015 26.787 17.952 30.297 18.761 34.529C19.15 36.564 19.659 36.934 21.372 36.425C23.34 35.841 23.367 35.895 21.731 37.147C20.107 38.39 20.091 38.685 21.532 40.743C22.396 41.976 23.962 43.444 25.012 44.006C26.591 44.851 27.199 44.55 28.524 42.264C29.969 39.773 29.932 40.707 28.44 44.377C27.746 46.084 31.962 47.299 35.5 46.411C36.875 46.066 38 45.644 38 45.474C38 45.305 37.116 43.104 36.036 40.583C33.922 35.653 32.746 34.994 30.974 37.75C29.994 39.274 29.916 39.284 30.365 37.823C31.049 35.601 28.884 33.829 26.966 35.042C26.16 35.552 25.05 35.958 24.5 35.945C23.95 35.931 24.738 35.249 26.25 34.428C29.438 32.698 29.697 31.547 27.25 29.974C25.648 28.944 25.662 28.901 27.42 29.458C30.239 30.353 30.988 28.224 29.3 24.115C27.26 19.151 26.744 18.79 24.217 20.561Z" fill="#BEF000"/>
</svg>
