<svg width="66" height="65" viewBox="0 0 66 65" fill="none" xmlns="http://www.w3.org/2000/svg">
<path fill-rule="evenodd" clip-rule="evenodd" d="M18.207 3.584C12.612 6.372 6.319 12.807 3.352 18.775C0.700001 24.11 0.700001 41.89 3.352 47.225C6.319 53.193 12.612 59.628 18.207 62.416C22.701 64.656 24.674 65 33 65C41.326 65 43.299 64.656 47.793 62.416C53.388 59.628 59.681 53.193 62.648 47.225C65.3 41.89 65.3 24.11 62.648 18.775C59.681 12.807 53.388 6.372 47.793 3.584C40.215 -0.192001 25.785 -0.192001 18.207 3.584Z" fill="#FF00FF"/>
<path fill-rule="evenodd" clip-rule="evenodd" d="M18.207 3.584C12.612 6.372 6.319 12.807 3.352 18.775C0.700001 24.11 0.700001 41.89 3.352 47.225C6.319 53.193 12.612 59.628 18.207 62.416C22.701 64.656 24.674 65 33 65C41.301 65 43.305 64.652 47.739 62.443C53.928 59.359 59.354 53.584 62.587 46.64C66.002 39.306 66.002 26.694 62.587 19.36C59.354 12.416 53.928 6.641 47.739 3.557C43.305 1.348 41.301 1 33 1C24.674 1 22.701 1.344 18.207 3.584Z" fill="#CBC1EE"/>
<path fill-rule="evenodd" clip-rule="evenodd" d="M18.207 3.584C12.612 6.372 6.319 12.807 3.352 18.775C0.700001 24.11 0.700001 41.89 3.352 47.225C6.319 53.193 12.612 59.628 18.207 62.416C22.701 64.656 24.674 65 33 65C41.301 65 43.305 64.652 47.739 62.443C53.928 59.359 59.354 53.584 62.587 46.64C66.002 39.306 66.002 26.694 62.587 19.36C59.354 12.416 53.928 6.641 47.739 3.557C43.305 1.348 41.301 1 33 1C24.674 1 22.701 1.344 18.207 3.584ZM24.729 17.604C24.397 17.936 23.534 17.972 22.813 17.683C22.015 17.364 22.252 17.127 23.417 17.079C24.471 17.036 25.061 17.272 24.729 17.604ZM39.5 19C40.495 20.1 41.085 21 40.81 21C40.535 21 39.495 20.1 38.5 19C37.505 17.9 36.915 17 37.19 17C37.465 17 38.505 17.9 39.5 19ZM18 19.345C18 19.535 16.988 20.547 15.75 21.595L13.5 23.5L15.405 21.25C17.195 19.136 18 18.545 18 19.345ZM45.031 28.25C44.293 30.087 44.127 29.675 44.127 26C44.127 22.325 44.293 21.913 45.031 23.75C45.57 25.091 45.57 26.909 45.031 28.25ZM37.917 23.283C37.688 23.439 36.6 24.226 35.5 25.033C33.65 26.39 33.603 26.369 34.872 24.75C35.627 23.788 36.715 23 37.289 23C37.863 23 38.146 23.127 37.917 23.283ZM13.693 27.731C13.439 28.704 13.215 28.15 13.195 26.5C13.175 24.85 13.382 24.054 13.656 24.731C13.93 25.408 13.947 26.758 13.693 27.731ZM19.689 30.75C19.438 31.712 19.232 30.925 19.232 29C19.232 27.075 19.438 26.288 19.689 27.25C19.941 28.212 19.941 29.788 19.689 30.75ZM21.794 40.95C21.404 43.609 21.664 43.939 24.431 44.29C27.234 44.646 27.175 44.694 23.75 44.84C19.862 45.006 19.048 43.644 20.607 39.582C21.595 37.007 22.26 37.774 21.794 40.95ZM33.985 41.809C33.971 43.266 33.835 43.293 33 42C31.734 40.042 31.734 38.718 33 39.5C33.55 39.84 33.993 40.879 33.985 41.809ZM52.662 42.25C52.385 42.938 52.158 42.375 52.158 41C52.158 39.625 52.385 39.063 52.662 39.75C52.94 40.438 52.94 41.563 52.662 42.25ZM45.579 42.774C43.857 44.423 43.835 44.402 45.1 42.295C45.829 41.083 46.64 40.306 46.903 40.569C47.166 40.832 46.57 41.824 45.579 42.774ZM42.25 44.662C41.563 44.94 40.438 44.94 39.75 44.662C39.063 44.385 39.625 44.158 41 44.158C42.375 44.158 42.938 44.385 42.25 44.662ZM39.25 50.662C38.563 50.94 37.438 50.94 36.75 50.662C36.063 50.385 36.625 50.158 38 50.158C39.375 50.158 39.938 50.385 39.25 50.662ZM32 53C32 53.55 31.523 54 30.941 54C30.359 54 30.16 53.55 30.5 53C30.84 52.45 31.316 52 31.559 52C31.802 52 32 52.45 32 53Z" fill="#AA7FF2"/>
<path fill-rule="evenodd" clip-rule="evenodd" d="M35.004 15.25C35.001 16.641 34.127 17.001 30.75 17.006C16.229 17.025 10.062 24.44 16.972 33.572C18.607 35.732 19.957 37.917 19.972 38.426C19.987 38.935 18.425 37.137 16.5 34.429C14.226 31.231 13 28.367 13 26.253V23H7.519C2.512 23 1.984 23.215 1.413 25.491C0.275999 30.022 1.484 43.321 3.388 47.225C6.275 53.145 12.586 59.615 18.207 62.416C22.701 64.656 24.674 65 33 65C41.301 65 43.305 64.652 47.739 62.443C53.928 59.359 59.354 53.584 62.587 46.64C64.452 42.635 64.983 39.807 64.99 33.832C65.004 22.753 65.221 23 55.5 23C44.649 23 43.85 24.796 50.405 34.456C53.351 38.797 53.719 42.721 51.445 45.559C49.943 47.434 49.926 47.426 50.945 45.316C52.643 41.8 52.179 38.543 49.393 34.438C47.959 32.325 46.373 29.674 45.869 28.548C45.208 27.072 45.086 27.757 45.432 31C45.764 34.119 45.64 34.886 45.026 33.5C44.539 32.4 44.109 29.813 44.07 27.75C44.004 24.197 43.829 24.001 40.75 24.015C36.786 24.034 35.481 24.822 34.567 27.75C33.56 30.979 32 30.523 32 27C32 24.077 31.875 24 27.122 24C20.331 24 19.285 25.474 20.815 32.885C21.467 36.04 22 39.831 22 41.31C22 43.554 22.456 44.017 24.75 44.1L27.5 44.199L25 44.932C21.071 46.083 19.744 45.138 20.332 41.607C20.617 39.898 20.347 35.931 19.733 32.791C18.731 27.666 18.81 26.868 20.504 24.995C22.031 23.308 23.358 22.966 27.446 23.205C31.913 23.466 32.539 23.778 32.838 25.89L33.176 28.28L34.362 25.89C35.272 24.056 36.582 23.384 39.997 23C44.432 22.502 44.438 22.496 41.722 21.27C40.222 20.594 38.098 18.569 37.001 16.77C35.678 14.6 35.006 14.089 35.004 15.25ZM44.977 43.22C43.573 44.357 41.283 44.952 38.639 44.866L34.5 44.733L39 44.09C44.964 43.239 45.972 42.478 46.15 38.691L46.3 35.5L46.737 38.47C47.061 40.666 46.602 41.904 44.977 43.22ZM33.985 40.75C33.975 42.577 33.693 43.065 33.146 42.203C32.489 41.166 32.065 41.217 31.039 42.453C30.333 43.304 29.26 44 28.655 44C28.05 44 28.555 43.299 29.777 42.443C31 41.587 32 40.237 32 39.443C32 38.649 32.45 38 33 38C33.55 38 33.993 39.237 33.985 40.75ZM28 48.57C28 48.845 27.1 48.589 26 48C24.9 47.411 24 46.705 24 46.43C24 46.155 24.9 46.411 26 47C27.1 47.589 28 48.295 28 48.57ZM47.559 48.532C46.491 49.339 44.916 49.98 44.059 49.955C43.201 49.93 43.85 49.292 45.5 48.536C49.423 46.74 49.929 46.739 47.559 48.532ZM39.75 50.716C38.237 50.945 35.763 50.945 34.25 50.716C32.738 50.487 33.975 50.3 37 50.3C40.025 50.3 41.263 50.487 39.75 50.716ZM32 53C32 53.55 31.523 54 30.941 54C30.359 54 30.16 53.55 30.5 53C30.84 52.45 31.316 52 31.559 52C31.802 52 32 52.45 32 53Z" fill="#7755D6"/>
<path fill-rule="evenodd" clip-rule="evenodd" d="M35.004 15.25C35.001 16.641 34.127 17.001 30.75 17.006C16.229 17.025 10.062 24.44 16.972 33.572C18.607 35.732 19.957 38.138 19.972 38.917C19.987 39.696 20.252 40.081 20.561 39.772C20.87 39.464 20.558 36.482 19.869 33.146C18.721 27.586 18.774 26.908 20.504 24.995C22.031 23.308 23.358 22.966 27.446 23.205C31.913 23.466 32.539 23.778 32.838 25.89L33.176 28.28L34.362 25.89C35.272 24.056 36.582 23.384 39.997 23C44.432 22.502 44.438 22.496 41.722 21.27C40.222 20.594 38.098 18.569 37.001 16.77C35.678 14.6 35.006 14.089 35.004 15.25ZM45.063 27.94C45.029 28.732 45.55 32.044 46.223 35.3C47.402 41.011 47.363 41.288 45.112 43.11C41.893 45.717 35.564 45.644 33.697 42.978C32.501 41.27 32.1 41.175 31.11 42.367C29.363 44.473 21.116 46.341 19.497 44.998C18.729 44.36 14.887 44.036 10.145 44.208L2.095 44.5L3.674 47.752C6.325 53.216 12.747 59.695 18.207 62.416C22.701 64.656 24.674 65 33 65C41.301 65 43.305 64.652 47.739 62.443C53.459 59.592 58.875 54.125 61.95 48.097L63.988 44.104L58.744 43.802C54.232 43.542 53.232 43.831 51.582 45.871C48.932 49.148 44.005 51 37.938 51C33.654 51 32.727 51.328 32.29 53C31.624 55.546 30.315 55.567 29.514 53.044C29.172 51.968 27.533 49.943 25.87 48.544C24.207 47.145 23.245 46 23.732 46C25.031 46 27.48 48.158 29.319 50.923C30.708 53.012 31.019 53.115 31.572 51.673C32.051 50.426 33.454 50 37.087 50C42.809 50 49.652 47.519 51.029 44.945C52.66 41.898 52.125 38.464 49.393 34.438C47.959 32.325 46.413 29.674 45.956 28.548C45.477 27.365 45.1 27.108 45.063 27.94ZM37.813 43.683C38.534 43.972 39.397 43.936 39.729 43.604C40.061 43.272 39.471 43.036 38.417 43.079C37.252 43.127 37.015 43.364 37.813 43.683Z" fill="#4A31BE"/>
<path fill-rule="evenodd" clip-rule="evenodd" d="M35.004 15.25C35.001 16.641 34.127 17.001 30.75 17.006C16.229 17.025 10.062 24.44 16.972 33.572C18.607 35.732 19.957 38.138 19.972 38.917C19.987 39.696 20.252 40.081 20.561 39.772C20.87 39.464 20.558 36.482 19.869 33.146C18.721 27.586 18.774 26.908 20.504 24.995C22.031 23.308 23.358 22.966 27.446 23.205C31.913 23.466 32.539 23.778 32.838 25.89L33.176 28.28L34.362 25.89C35.272 24.056 36.582 23.384 39.997 23C44.432 22.502 44.438 22.496 41.722 21.27C40.222 20.594 38.098 18.569 37.001 16.77C35.678 14.6 35.006 14.089 35.004 15.25ZM45.063 27.94C45.029 28.732 45.55 32.044 46.223 35.3C47.402 41.011 47.363 41.288 45.112 43.11C41.893 45.717 35.564 45.644 33.697 42.978C32.459 41.21 32.126 41.144 31.04 42.452C30.358 43.274 28.205 44.246 26.256 44.612C22.865 45.248 22.808 45.327 24.917 46.456C26.129 47.104 27.972 48.934 29.014 50.521C30.617 52.965 31.007 53.146 31.56 51.703C32.052 50.421 33.419 50 37.087 50C42.809 50 49.652 47.519 51.029 44.945C52.66 41.898 52.125 38.464 49.393 34.438C47.959 32.325 46.413 29.674 45.956 28.548C45.477 27.365 45.1 27.108 45.063 27.94Z" fill="#0000FF"/>
<path fill-rule="evenodd" clip-rule="evenodd" d="M35.004 15.25C35.001 16.641 34.127 17.001 30.75 17.006C16.229 17.025 10.062 24.44 16.972 33.572C18.607 35.732 19.957 38.138 19.972 38.917C19.987 39.696 20.252 40.081 20.561 39.772C20.87 39.464 20.558 36.482 19.869 33.146C18.721 27.586 18.774 26.908 20.504 24.995C22.031 23.308 23.358 22.966 27.446 23.205C31.913 23.466 32.539 23.778 32.838 25.89L33.176 28.28L34.362 25.89C35.272 24.056 36.582 23.384 39.997 23C44.432 22.502 44.438 22.496 41.722 21.27C40.222 20.594 38.098 18.569 37.001 16.77C35.678 14.6 35.006 14.089 35.004 15.25ZM45.063 27.94C45.029 28.732 45.55 32.044 46.223 35.3C47.402 41.011 47.363 41.288 45.112 43.11C41.893 45.717 35.564 45.644 33.697 42.978C32.459 41.21 32.126 41.144 31.04 42.452C30.358 43.274 28.205 44.246 26.256 44.612C22.865 45.248 22.808 45.327 24.917 46.456C26.129 47.104 27.972 48.934 29.014 50.521C30.617 52.965 31.007 53.146 31.56 51.703C32.052 50.421 33.419 50 37.087 50C42.809 50 49.652 47.519 51.029 44.945C52.66 41.898 52.125 38.464 49.393 34.438C47.959 32.325 46.413 29.674 45.956 28.548C45.477 27.365 45.1 27.108 45.063 27.94Z" fill="#000080"/>
<path fill-rule="evenodd" clip-rule="evenodd" d="M35.004 15.25C35.001 16.641 34.127 17.001 30.75 17.006C16.229 17.025 10.062 24.44 16.972 33.572C18.607 35.732 19.957 38.138 19.972 38.917C19.987 39.696 20.252 40.081 20.561 39.772C20.87 39.464 20.558 36.482 19.869 33.146C18.721 27.586 18.774 26.908 20.504 24.995C22.031 23.308 23.358 22.966 27.446 23.205C31.913 23.466 32.539 23.778 32.838 25.89L33.176 28.28L34.362 25.89C35.272 24.056 36.582 23.384 39.997 23C44.432 22.502 44.438 22.496 41.722 21.27C40.222 20.594 38.098 18.569 37.001 16.77C35.678 14.6 35.006 14.089 35.004 15.25ZM45.063 27.94C45.029 28.732 45.55 32.044 46.223 35.3C47.402 41.011 47.363 41.288 45.112 43.11C41.893 45.717 35.564 45.644 33.697 42.978C32.459 41.21 32.126 41.144 31.04 42.452C30.358 43.274 28.205 44.246 26.256 44.612C22.865 45.248 22.808 45.327 24.917 46.456C26.129 47.104 27.972 48.934 29.014 50.521C30.617 52.965 31.007 53.146 31.56 51.703C32.052 50.421 33.419 50 37.087 50C42.809 50 49.652 47.519 51.029 44.945C52.66 41.898 52.125 38.464 49.393 34.438C47.959 32.325 46.413 29.674 45.956 28.548C45.477 27.365 45.1 27.108 45.063 27.94Z" fill="white"/>
</svg>
