<svg width="250" height="250" viewBox="0 0 250 250" fill="none" xmlns="http://www.w3.org/2000/svg">
<path fill-rule="evenodd" clip-rule="evenodd" d="M0 125V250H125H250V125V0H125H0V125Z" fill="#E3A7FF"/>
<path fill-rule="evenodd" clip-rule="evenodd" d="M0 125V250H125H250V125V0H125H0V125ZM202.758 125.25C203.002 181.713 202.919 184.996 201.258 184.921C200.212 184.874 200.006 184.638 200.75 184.338C201.73 183.942 202 171.12 202 124.943V66.052L186.999 65.736L171.998 65.419L187.249 65.46L202.5 65.5L202.758 125.25ZM171 66.345C171 66.535 169.988 67.547 168.75 68.595L166.5 70.5L168.405 68.25C170.195 66.136 171 65.545 171 66.345ZM156 80.378C156 80.585 155.213 81.373 154.25 82.128C152.664 83.371 152.629 83.336 153.872 81.75C155.179 80.084 156 79.555 156 80.378ZM152 84.297C152 84.46 150.088 86.373 147.75 88.547L143.5 92.5L147.453 88.25C151.129 84.298 152 83.54 152 84.297ZM179.921 90.25C179.878 91.487 179.609 91.919 179.324 91.208C178.903 90.16 178.494 90.157 177.153 91.191C176.006 92.076 176.083 91.782 177.405 90.233C179.778 87.452 180.019 87.453 179.921 90.25ZM172 95.279C172 95.432 168.963 98.47 165.25 102.029L158.5 108.5L164.971 101.75C170.982 95.48 172 94.543 172 95.279ZM131 104.313C131 104.485 129.699 105.872 128.11 107.395C126.013 109.404 125.01 109.825 124.455 108.927C124.003 108.196 124.103 107.946 124.7 108.315C125.255 108.658 126.753 107.827 128.029 106.469C130.207 104.151 131 103.575 131 104.313ZM154 112.281C154 112.436 151.188 115.249 147.75 118.531L141.5 124.5L147.469 118.25C153.013 112.444 154 111.542 154 112.281ZM104.5 119C106.648 121.2 108.181 123 107.906 123C107.631 123 105.648 121.2 103.5 119C101.352 116.8 99.819 115 100.094 115C100.369 115 102.352 116.8 104.5 119ZM146.637 130.696C146.254 131.08 149.216 134.792 153.22 138.946L160.5 146.5L152.8 139.074C146.126 132.639 144.36 130 146.726 130C147.06 130 147.02 130.313 146.637 130.696ZM133 132.304C133 132.471 131.313 134.158 129.25 136.054L125.5 139.5L128.946 135.75C132.154 132.26 133 131.54 133 132.304ZM144.349 134.833C145.764 136.397 145.787 136.667 144.504 136.667C143.677 136.667 143.221 136.446 143.491 136.175C143.762 135.905 143.481 135.08 142.869 134.342C141.186 132.314 142.449 132.733 144.349 134.833ZM108.417 134.866C108.712 135.343 107.951 136.58 106.726 137.616C104.506 139.495 104.505 139.495 106.252 137.419C107.216 136.274 107.703 135.037 107.336 134.669C106.968 134.301 106.94 134 107.274 134C107.609 134 108.123 134.39 108.417 134.866ZM112.4 137.837C112.684 138.298 111.029 140.436 108.722 142.587C106.415 144.739 105.612 145.262 106.938 143.75C108.264 142.238 108.975 141 108.519 141C108.063 141 108.505 140.1 109.5 139C111.55 136.735 111.685 136.681 112.4 137.837ZM109.872 139.75C108.629 141.336 108.664 141.371 110.25 140.128C111.213 139.373 112 138.585 112 138.378C112 137.555 111.179 138.084 109.872 139.75ZM143 140.5C144.292 141.875 145.124 143 144.849 143C144.574 143 143.292 141.875 142 140.5C140.708 139.125 139.876 138 140.151 138C140.426 138 141.708 139.125 143 140.5ZM148 139.314C147.725 139.656 150.186 142.651 153.469 145.968C156.751 149.286 159.214 152 158.942 152C158.669 152 155.35 148.879 151.565 145.065C147.107 140.573 145.355 138.229 146.592 138.411C147.641 138.565 148.275 138.971 148 139.314ZM114.131 142.342C113.519 143.08 113.238 143.98 113.509 144.342C113.779 144.704 113.704 144.779 113.342 144.509C112.462 143.852 109.9 146.03 110.47 146.951C110.716 147.349 109.024 149.436 106.71 151.587L102.503 155.5L105.947 151.75C107.842 149.688 108.991 148 108.5 148C108.009 148 109.134 146.425 111 144.5C114.321 141.074 116.337 139.684 114.131 142.342ZM141.5 146C144.209 148.75 146.2 151 145.925 151C145.65 151 143.209 148.75 140.5 146C137.791 143.25 135.8 141 136.075 141C136.35 141 138.791 143.25 141.5 146ZM147.104 145.667C147.07 146.125 150.745 150.325 155.271 155L163.5 163.5L154.917 155.188C150.196 150.616 146.333 146.229 146.333 145.438C146.333 144.647 146.521 144.188 146.75 144.417C146.979 144.646 147.139 145.208 147.104 145.667ZM167.381 149.88C171.679 154.223 172.846 155.963 171.849 156.54C171.107 156.969 170.85 156.936 171.277 156.467C171.704 155.997 169.468 153 166.308 149.806C163.148 146.613 160.788 144 161.063 144C161.338 144 164.181 146.646 167.381 149.88ZM115.165 148.324C113.964 149.602 113.201 150.868 113.47 151.137C113.738 151.405 111.834 153.622 109.239 156.062C106.643 158.503 105.837 159.037 107.447 157.25C109.057 155.463 109.974 154 109.484 154C108.995 154 110.352 152.2 112.5 150C116.62 145.781 118.903 144.345 115.165 148.324ZM140.381 151.88C144.679 156.223 145.846 157.963 144.849 158.54C144.107 158.969 143.85 158.936 144.277 158.467C144.704 157.997 142.468 155 139.308 151.806C136.148 148.613 133.788 146 134.063 146C134.338 146 137.181 148.646 140.381 151.88ZM86.157 150.333C83.799 152.842 80.119 153.766 82.129 151.344C82.733 150.617 83.575 150.237 84 150.5C84.425 150.763 85.329 150.308 86.009 149.489C86.689 148.67 87.493 148 87.797 148C88.1 148 87.362 149.05 86.157 150.333ZM173.667 164.517C173.667 165.284 173.262 165.662 172.767 165.356C172.272 165.05 172.136 164.531 172.464 164.203C172.792 163.874 169.56 159.982 165.281 155.553L157.5 147.5L165.583 155.311C170.029 159.607 173.667 163.75 173.667 164.517ZM110.872 152.75C109.629 154.336 109.664 154.371 111.25 153.128C112.916 151.821 113.445 151 112.622 151C112.415 151 111.627 151.787 110.872 152.75ZM87.653 153.831C86.741 154.838 86.213 155.88 86.479 156.146C86.746 156.412 85.065 158.401 82.745 160.565C80.425 162.729 79.612 163.262 80.938 161.75C82.264 160.238 82.957 159 82.478 159C81.999 159 83.134 157.425 85 155.5C88.493 151.896 90.608 150.566 87.653 153.831ZM158.128 154.75C159.371 156.336 159.336 156.371 157.75 155.128C156.084 153.821 155.555 153 156.378 153C156.585 153 157.373 153.787 158.128 154.75ZM157 163.708C157 164.459 156.102 163.665 151.958 159.25L147.5 154.5L152.25 158.958C154.863 161.41 157 163.548 157 163.708ZM83.872 157.75C82.629 159.336 82.664 159.371 84.25 158.128C85.916 156.821 86.445 156 85.622 156C85.415 156 84.627 156.787 83.872 157.75ZM88.165 160.324C86.964 161.602 86.323 162.99 86.741 163.408C87.158 163.825 86.825 164.017 86 163.833C85.175 163.65 84.593 164.003 84.706 164.617C84.819 165.232 83.839 166.742 82.529 167.973C78.106 172.128 80.3 167.289 85.02 162.48C89.512 157.903 92.118 156.117 88.165 160.324ZM168.5 165C172.32 168.85 175.221 172 174.946 172C174.671 172 171.32 168.85 167.5 165C163.68 161.15 160.779 158 161.054 158C161.329 158 164.68 161.15 168.5 165ZM183.5 168C188.979 173.5 193.237 178 192.962 178C192.687 178 187.979 173.5 182.5 168C177.021 162.5 172.763 158 173.038 158C173.313 158 178.021 162.5 183.5 168ZM179.662 161.25C179.385 161.938 179.158 161.375 179.158 160C179.158 158.625 179.385 158.063 179.662 158.75C179.94 159.438 179.94 160.563 179.662 161.25ZM165.025 168.75L172.5 176.5L164.75 169.025C157.552 162.082 156.544 161 157.275 161C157.426 161 160.914 164.488 165.025 168.75ZM90.179 165.316C88.411 167.139 87.31 168.977 87.732 169.399C88.155 169.821 87.825 170.017 87 169.833C86.175 169.65 85.589 169.992 85.698 170.593C85.806 171.194 83.789 173.669 81.215 176.093C78.64 178.517 77.543 179.342 78.776 177.926C80.009 176.51 80.677 175.01 80.259 174.592C79.842 174.175 79.95 173.983 80.5 174.167C81.05 174.35 81.626 174.05 81.781 173.5C82.093 172.391 92.15 162 92.912 162C93.176 162 91.946 163.492 90.179 165.316ZM155.5 169C159.32 172.85 162.221 176 161.946 176C161.671 176 158.32 172.85 154.5 169C150.68 165.15 147.779 162 148.054 162C148.329 162 151.68 165.15 155.5 169ZM81.872 166.75C80.629 168.336 80.664 168.371 82.25 167.128C83.213 166.373 84 165.585 84 165.378C84 164.555 83.179 165.084 81.872 166.75ZM162.5 169C163.495 170.1 164.085 171 163.81 171C163.535 171 162.495 170.1 161.5 169C160.505 167.9 159.915 167 160.19 167C160.465 167 161.505 167.9 162.5 169ZM182 173.5C185.543 177.075 188.217 180 187.942 180C187.667 180 184.543 177.075 181 173.5C177.457 169.925 174.783 167 175.058 167C175.333 167 178.457 169.925 182 173.5ZM89.683 172.813C87.635 174.91 86.204 176.871 86.504 177.17C86.803 177.47 86.399 178.254 85.604 178.913C84.446 179.875 84.206 179.802 84.391 178.542C84.607 177.073 91.811 169 92.906 169C93.181 169 91.73 170.716 89.683 172.813ZM48.725 181.232C48.502 183.029 48.315 181.8 48.31 178.5C48.304 175.2 48.486 173.729 48.715 175.232C48.943 176.735 48.947 179.435 48.725 181.232ZM167.5 178C170.209 180.75 172.2 183 171.925 183C171.65 183 169.209 180.75 166.5 178C163.791 175.25 161.8 173 162.075 173C162.35 173 164.791 175.25 167.5 178ZM180 178.5C182.987 181.525 185.207 184 184.932 184C184.657 184 181.987 181.525 179 178.5C176.013 175.475 173.793 173 174.068 173C174.343 173 177.013 175.475 180 178.5ZM189.5 178C192.209 180.75 194.2 183 193.925 183C193.65 183 191.209 180.75 188.5 178C185.791 175.25 183.8 173 184.075 173C184.35 173 186.791 175.25 189.5 178ZM174.453 179.076C174.201 179.484 175.38 180.984 177.074 182.409C178.768 183.834 179.757 185 179.273 185C178.789 185 176.938 183.5 175.162 181.667C173.053 179.491 172.449 178.333 173.421 178.333C174.241 178.333 174.706 178.667 174.453 179.076ZM56 179.326C56 179.505 54.763 180.742 53.25 182.076L50.5 184.5L52.924 181.75C55.19 179.18 56 178.541 56 179.326ZM83 181.378C83 181.585 82.213 182.373 81.25 183.128C79.664 184.371 79.629 184.336 80.872 182.75C82.179 181.084 83 180.555 83 181.378Z" fill="#9600FF"/>
<path fill-rule="evenodd" clip-rule="evenodd" d="M0 125V250H125H250V125V0H125H0V125ZM202.758 125.25C203.002 181.713 202.919 184.996 201.258 184.921C200.212 184.874 200.006 184.638 200.75 184.338C201.73 183.942 202 171.12 202 124.943V66.052L186.999 65.736L171.998 65.419L187.249 65.46L202.5 65.5L202.758 125.25ZM171 66.345C171 66.535 169.988 67.547 168.75 68.595L166.5 70.5L168.405 68.25C170.195 66.136 171 65.545 171 66.345ZM156 80.378C156 80.585 155.213 81.373 154.25 82.128C152.664 83.371 152.629 83.336 153.872 81.75C155.179 80.084 156 79.555 156 80.378ZM152 84.297C152 84.46 150.088 86.373 147.75 88.547L143.5 92.5L147.453 88.25C151.129 84.298 152 83.54 152 84.297ZM200.75 134.191C200.998 180.509 200.663 185.724 197.775 180.563C196.564 178.399 183.229 165.627 181.664 165.132C181.024 164.93 183.412 167.742 186.971 171.382C190.53 175.022 193.222 178 192.952 178C192.683 178 187.971 173.394 182.481 167.764C176.992 162.134 174.412 159.301 176.75 161.467C180.856 165.272 181 165.323 180.994 162.953C180.991 161.604 181.139 148.575 181.324 134C181.626 110.133 181.873 106.854 183.805 101C185.093 97.099 186.802 93.971 188.08 93.176C189.251 92.448 189.911 92.336 189.546 92.926C189.181 93.517 189.31 94 189.833 94C190.355 94 191.076 92.834 191.433 91.409C191.825 89.848 192.6 89.016 193.381 89.316C194.104 89.593 195.475 88.467 196.475 86.773C200.109 80.621 200.486 84.796 200.75 134.191ZM179.921 90.25C179.878 91.487 179.609 91.919 179.324 91.208C178.903 90.16 178.494 90.157 177.153 91.191C176.006 92.076 176.083 91.782 177.405 90.233C179.778 87.452 180.019 87.453 179.921 90.25ZM172 95.279C172 95.432 168.963 98.47 165.25 102.029L158.5 108.5L164.971 101.75C170.982 95.48 172 94.543 172 95.279ZM188.729 96.604C188.328 97.005 188 98.023 188 98.867C188 99.992 188.296 100.104 189.113 99.287C189.724 98.676 190.053 97.657 189.842 97.025C189.631 96.392 189.13 96.203 188.729 96.604ZM131 104.313C131 104.485 129.699 105.872 128.11 107.395C126.013 109.404 125.01 109.825 124.455 108.927C124.003 108.196 124.103 107.946 124.7 108.315C125.255 108.658 126.753 107.827 128.029 106.469C130.207 104.151 131 103.575 131 104.313ZM154 112.281C154 112.436 151.188 115.249 147.75 118.531L141.5 124.5L147.469 118.25C153.013 112.444 154 111.542 154 112.281ZM104.5 119C106.648 121.2 108.181 123 107.906 123C107.631 123 105.648 121.2 103.5 119C101.352 116.8 99.819 115 100.094 115C100.369 115 102.352 116.8 104.5 119ZM146.637 130.696C146.254 131.08 149.216 134.792 153.22 138.946L160.5 146.5L152.8 139.074C146.126 132.639 144.36 130 146.726 130C147.06 130 147.02 130.313 146.637 130.696ZM133 132.304C133 132.471 131.313 134.158 129.25 136.054L125.5 139.5L128.946 135.75C132.154 132.26 133 131.54 133 132.304ZM144.349 134.833C145.764 136.397 145.787 136.667 144.504 136.667C143.677 136.667 143.221 136.446 143.491 136.175C143.762 135.905 143.481 135.08 142.869 134.342C141.186 132.314 142.449 132.733 144.349 134.833ZM108.417 134.866C108.712 135.343 107.951 136.58 106.726 137.616C104.506 139.495 104.505 139.495 106.252 137.419C107.216 136.274 107.703 135.037 107.336 134.669C106.968 134.301 106.94 134 107.274 134C107.609 134 108.123 134.39 108.417 134.866ZM112.4 137.837C112.684 138.298 111.029 140.436 108.722 142.587C106.415 144.739 105.612 145.262 106.938 143.75C108.264 142.238 108.975 141 108.519 141C108.063 141 108.505 140.1 109.5 139C111.55 136.735 111.685 136.681 112.4 137.837ZM109.872 139.75C108.629 141.336 108.664 141.371 110.25 140.128C111.213 139.373 112 138.585 112 138.378C112 137.555 111.179 138.084 109.872 139.75ZM143 140.5C144.292 141.875 145.124 143 144.849 143C144.574 143 143.292 141.875 142 140.5C140.708 139.125 139.876 138 140.151 138C140.426 138 141.708 139.125 143 140.5ZM148 139.314C147.725 139.656 150.186 142.651 153.469 145.968C156.751 149.286 159.214 152 158.942 152C158.669 152 155.35 148.879 151.565 145.065C147.107 140.573 145.355 138.229 146.592 138.411C147.641 138.565 148.275 138.971 148 139.314ZM114.131 142.342C113.519 143.08 113.238 143.98 113.509 144.342C113.779 144.704 113.704 144.779 113.342 144.509C112.462 143.852 109.9 146.03 110.47 146.951C110.716 147.349 109.024 149.436 106.71 151.587L102.503 155.5L105.947 151.75C107.842 149.688 108.991 148 108.5 148C108.009 148 109.134 146.425 111 144.5C114.321 141.074 116.337 139.684 114.131 142.342ZM141.5 146C144.209 148.75 146.2 151 145.925 151C145.65 151 143.209 148.75 140.5 146C137.791 143.25 135.8 141 136.075 141C136.35 141 138.791 143.25 141.5 146ZM147.104 145.667C147.07 146.125 150.745 150.325 155.271 155L163.5 163.5L154.917 155.188C150.196 150.616 146.333 146.229 146.333 145.438C146.333 144.647 146.521 144.188 146.75 144.417C146.979 144.646 147.139 145.208 147.104 145.667ZM167.381 149.88C171.679 154.223 172.846 155.963 171.849 156.54C171.107 156.969 170.85 156.936 171.277 156.467C171.704 155.997 169.468 153 166.308 149.806C163.148 146.613 160.788 144 161.063 144C161.338 144 164.181 146.646 167.381 149.88ZM115.165 148.324C113.964 149.602 113.201 150.868 113.47 151.137C113.738 151.405 111.834 153.622 109.239 156.062C106.643 158.503 105.837 159.037 107.447 157.25C109.057 155.463 109.974 154 109.484 154C108.995 154 110.352 152.2 112.5 150C116.62 145.781 118.903 144.345 115.165 148.324ZM140.381 151.88C144.679 156.223 145.846 157.963 144.849 158.54C144.107 158.969 143.85 158.936 144.277 158.467C144.704 157.997 142.468 155 139.308 151.806C136.148 148.613 133.788 146 134.063 146C134.338 146 137.181 148.646 140.381 151.88ZM86.157 150.333C83.799 152.842 80.119 153.766 82.129 151.344C82.733 150.617 83.575 150.237 84 150.5C84.425 150.763 85.329 150.308 86.009 149.489C86.689 148.67 87.493 148 87.797 148C88.1 148 87.362 149.05 86.157 150.333ZM173.667 164.517C173.667 165.284 173.262 165.662 172.767 165.356C172.272 165.05 172.136 164.531 172.464 164.203C172.792 163.874 169.56 159.982 165.281 155.553L157.5 147.5L165.583 155.311C170.029 159.607 173.667 163.75 173.667 164.517ZM110.872 152.75C109.629 154.336 109.664 154.371 111.25 153.128C112.916 151.821 113.445 151 112.622 151C112.415 151 111.627 151.787 110.872 152.75ZM87.653 153.831C86.741 154.838 86.213 155.88 86.479 156.146C86.746 156.412 85.065 158.401 82.745 160.565C80.425 162.729 79.612 163.262 80.938 161.75C82.264 160.238 82.957 159 82.478 159C81.999 159 83.134 157.425 85 155.5C88.493 151.896 90.608 150.566 87.653 153.831ZM158.128 154.75C159.371 156.336 159.336 156.371 157.75 155.128C156.084 153.821 155.555 153 156.378 153C156.585 153 157.373 153.787 158.128 154.75ZM157 163.708C157 164.459 156.102 163.665 151.958 159.25L147.5 154.5L152.25 158.958C154.863 161.41 157 163.548 157 163.708ZM83.872 157.75C82.629 159.336 82.664 159.371 84.25 158.128C85.916 156.821 86.445 156 85.622 156C85.415 156 84.627 156.787 83.872 157.75ZM88.165 160.324C86.964 161.602 86.323 162.99 86.741 163.408C87.158 163.825 86.825 164.017 86 163.833C85.175 163.65 84.593 164.003 84.706 164.617C84.819 165.232 83.839 166.742 82.529 167.973C78.106 172.128 80.3 167.289 85.02 162.48C89.512 157.903 92.118 156.117 88.165 160.324ZM168.5 165C172.32 168.85 175.221 172 174.946 172C174.671 172 171.32 168.85 167.5 165C163.68 161.15 160.779 158 161.054 158C161.329 158 164.68 161.15 168.5 165ZM179.662 161.25C179.385 161.938 179.158 161.375 179.158 160C179.158 158.625 179.385 158.063 179.662 158.75C179.94 159.438 179.94 160.563 179.662 161.25ZM165.025 168.75L172.5 176.5L164.75 169.025C157.552 162.082 156.544 161 157.275 161C157.426 161 160.914 164.488 165.025 168.75ZM90.179 165.316C88.411 167.139 87.31 168.977 87.732 169.399C88.155 169.821 87.825 170.017 87 169.833C86.175 169.65 85.589 169.992 85.698 170.593C85.806 171.194 83.789 173.669 81.215 176.093C78.64 178.517 77.543 179.342 78.776 177.926C80.009 176.51 80.677 175.01 80.259 174.592C79.842 174.175 79.95 173.983 80.5 174.167C81.05 174.35 81.626 174.05 81.781 173.5C82.093 172.391 92.15 162 92.912 162C93.176 162 91.946 163.492 90.179 165.316ZM155.5 169C159.32 172.85 162.221 176 161.946 176C161.671 176 158.32 172.85 154.5 169C150.68 165.15 147.779 162 148.054 162C148.329 162 151.68 165.15 155.5 169ZM81.872 166.75C80.629 168.336 80.664 168.371 82.25 167.128C83.213 166.373 84 165.585 84 165.378C84 164.555 83.179 165.084 81.872 166.75ZM162.5 169C163.495 170.1 164.085 171 163.81 171C163.535 171 162.495 170.1 161.5 169C160.505 167.9 159.915 167 160.19 167C160.465 167 161.505 167.9 162.5 169ZM182 173.5C185.543 177.075 188.217 180 187.942 180C187.667 180 184.543 177.075 181 173.5C177.457 169.925 174.783 167 175.058 167C175.333 167 178.457 169.925 182 173.5ZM89.683 172.813C87.635 174.91 86.204 176.871 86.504 177.17C86.803 177.47 86.399 178.254 85.604 178.913C84.446 179.875 84.206 179.802 84.391 178.542C84.607 177.073 91.811 169 92.906 169C93.181 169 91.73 170.716 89.683 172.813ZM48.725 181.232C48.502 183.029 48.315 181.8 48.31 178.5C48.304 175.2 48.486 173.729 48.715 175.232C48.943 176.735 48.947 179.435 48.725 181.232ZM167.5 178C170.209 180.75 172.2 183 171.925 183C171.65 183 169.209 180.75 166.5 178C163.791 175.25 161.8 173 162.075 173C162.35 173 164.791 175.25 167.5 178ZM180 178.5C182.987 181.525 185.207 184 184.932 184C184.657 184 181.987 181.525 179 178.5C176.013 175.475 173.793 173 174.068 173C174.343 173 177.013 175.475 180 178.5ZM189.5 178C192.209 180.75 194.2 183 193.925 183C193.65 183 191.209 180.75 188.5 178C185.791 175.25 183.8 173 184.075 173C184.35 173 186.791 175.25 189.5 178ZM174.453 179.076C174.201 179.484 175.38 180.984 177.074 182.409C178.768 183.834 179.757 185 179.273 185C178.789 185 176.938 183.5 175.162 181.667C173.053 179.491 172.449 178.333 173.421 178.333C174.241 178.333 174.706 178.667 174.453 179.076ZM56 179.326C56 179.505 54.763 180.742 53.25 182.076L50.5 184.5L52.924 181.75C55.19 179.18 56 178.541 56 179.326ZM83 181.378C83 181.585 82.213 182.373 81.25 183.128C79.664 184.371 79.629 184.336 80.872 182.75C82.179 181.084 83 180.555 83 181.378Z" fill="#8220CF"/>
<path fill-rule="evenodd" clip-rule="evenodd" d="M0 125V250H125H250V125V0H125H0V125ZM202.758 125.25C203.024 186.913 202.904 188.88 199.232 183C198.545 181.9 197.376 181 196.634 181C195.094 181 163.31 148.548 161.864 145.5C161.343 144.4 164.921 147.7 169.816 152.833C178.613 162.058 178.723 162.134 179.289 159.305C179.867 156.416 179.598 93.157 178.993 89.56C178.723 87.955 177.897 88.471 174.195 92.56C171.735 95.277 169.372 97.5 168.945 97.5C168.517 97.5 167.792 97.91 167.333 98.41C166.84 98.95 167.112 98.993 168 98.518C168.825 98.076 167.291 100.005 164.59 102.804C161.89 105.603 159.359 107.805 158.966 107.697C158.573 107.589 154.707 111.135 150.376 115.577C146.044 120.02 143.849 122.045 145.499 120.077L148.497 116.5L144.29 120.413C141.976 122.564 140.323 124.713 140.616 125.187C140.909 125.662 140.685 125.926 140.119 125.775C139.553 125.624 136.108 128.65 132.465 132.5C128.822 136.35 126.168 138.825 126.568 138C127.139 136.819 127.02 136.752 126.011 137.686C125.018 138.603 124.42 138.563 123.364 137.507C122.614 136.757 122 135.885 122 135.569C122 134.779 113.907 127.53 112.852 127.375C112.383 127.306 111.72 127.194 111.378 127.125C111.035 127.056 111.268 126.382 111.895 125.627C112.522 124.871 112.725 123.448 112.347 122.463C111.833 121.122 112.017 120.857 113.08 121.41C113.861 121.816 113.656 121.462 112.625 120.622C110.403 118.815 111.119 116 113.8 116C114.824 116 116.273 114.859 117.019 113.465C117.809 111.988 118.95 111.151 119.753 111.459C120.722 111.83 120.957 111.441 120.547 110.147C120.067 108.636 120.458 108.342 122.731 108.505C124.506 108.632 126.543 107.769 128.405 106.102C130.002 104.671 130.988 104.063 130.596 104.75C130.203 105.438 130.373 106 130.972 106C131.572 106 132.335 105.291 132.668 104.423C133.001 103.556 134.344 102.439 135.654 101.941C136.964 101.443 138.467 99.903 138.993 98.518C139.52 97.133 140.621 96 141.44 96C142.918 96 145.339 92.672 144.483 91.817C144.238 91.571 145.777 89.671 147.903 87.594C150.666 84.897 151.99 84.174 152.539 85.064C153.019 85.839 152.9 86.056 152.224 85.638C151.627 85.269 150.829 85.468 150.451 86.08C150.018 86.78 150.455 87.058 151.632 86.828C152.771 86.606 153.511 85.601 153.529 84.253C153.545 83.037 154.173 81.47 154.926 80.771C155.983 79.789 156.133 79.784 155.588 80.75C155.2 81.438 155.359 82 155.941 82C156.523 82 157.056 81.55 157.125 81C157.194 80.45 157.306 79.55 157.375 79C157.508 77.938 159.162 77.777 160 78.744C160.275 79.061 159.868 78.954 159.095 78.506C158.122 77.941 157.922 78.065 158.446 78.912C159.274 80.253 160.5 79.509 160.5 77.667C160.5 77.025 161.175 76.5 162 76.5C163.778 76.5 167 72.793 167 70.747C167 68.969 170.416 65.749 171.331 66.664C171.699 67.032 172 66.797 172 66.141C172 65.257 175.953 65.019 187.25 65.224L202.5 65.5L202.758 125.25ZM169 68.5C168.14 69.536 168.102 70 168.878 70C169.495 70 170 69.523 170 68.941C170 68.359 170.52 68.203 171.155 68.595C171.87 69.038 172.038 68.87 171.595 68.155C170.68 66.673 170.496 66.697 169 68.5ZM147.457 89.048C146.437 90.174 145.502 91.788 145.377 92.634C145.188 93.924 145.464 93.89 147.082 92.426C148.144 91.465 148.788 90.455 148.515 90.181C148.241 89.908 148.519 89.08 149.131 88.342C150.911 86.197 149.497 86.793 147.457 89.048ZM161.946 103.75L158.5 107.5L162.25 104.054C164.313 102.158 166 100.471 166 100.304C166 99.54 165.154 100.26 161.946 103.75ZM127.655 107.829C125.708 109.98 125.551 111 127.167 111C127.808 111 128.032 110.699 127.664 110.331C127.297 109.963 127.741 108.838 128.653 107.831C129.564 106.824 130.085 106 129.81 106C129.535 106 128.565 106.823 127.655 107.829ZM122.613 110.183C122.902 110.65 123.557 110.774 124.069 110.457C125.377 109.649 125.23 109.333 123.544 109.333C122.743 109.333 122.324 109.716 122.613 110.183ZM104.5 119C106.648 121.2 108.181 123 107.906 123C107.631 123 105.648 121.2 103.5 119C101.352 116.8 99.819 115 100.094 115C100.369 115 102.352 116.8 104.5 119ZM111 121.118C111 121.668 110.55 121.84 110 121.5C109.45 121.16 109 120.432 109 119.882C109 119.332 109.45 119.16 110 119.5C110.55 119.84 111 120.568 111 121.118ZM146.753 130.58C145.999 131.335 154.049 138.586 155.241 138.225C155.74 138.074 155.887 138.373 155.568 138.891C155.248 139.408 156.193 141.331 157.667 143.165C159.141 144.999 156.916 143.158 152.723 139.074C146.112 132.635 144.371 130 146.726 130C147.06 130 147.072 130.261 146.753 130.58ZM154.379 146.037C157.062 149.042 158.981 150.6 158.643 149.5C158.305 148.4 163.867 153.575 171.002 161C178.138 168.425 183.981 174.067 183.988 173.538C183.995 173.008 186.25 174.791 189 177.5C191.75 180.209 193.948 183.117 193.884 183.962C193.796 185.124 193.656 185.072 193.311 183.75C193.059 182.787 192.41 182 191.868 182C191.326 182 191.203 182.52 191.595 183.155C192.028 183.854 191.871 184.038 191.198 183.622C190.587 183.245 190.341 182.275 190.651 181.468C191.146 180.177 190.037 179.547 187.817 179.859C187.442 179.912 181.865 174.362 175.425 167.525C168.984 160.689 163.238 155.186 162.654 155.298C162.071 155.409 161.572 154.6 161.547 153.5C161.518 152.257 160.863 151.548 159.816 151.628C158.889 151.698 154.672 148.211 150.443 143.878C146.214 139.545 143.089 136 143.499 136C143.909 136 143.67 135.213 142.967 134.25C141.332 132.012 148.042 138.942 154.379 146.037ZM108.417 134.866C108.712 135.343 107.951 136.58 106.726 137.616C104.506 139.495 104.505 139.495 106.252 137.419C107.216 136.274 107.703 135.037 107.336 134.669C106.968 134.301 106.94 134 107.274 134C107.609 134 108.123 134.39 108.417 134.866ZM112.4 137.837C112.684 138.298 111.029 140.436 108.722 142.587C106.415 144.739 105.612 145.262 106.938 143.75C108.264 142.238 108.975 141 108.519 141C108.063 141 108.505 140.1 109.5 139C111.55 136.735 111.685 136.681 112.4 137.837ZM109.872 139.75C108.629 141.336 108.664 141.371 110.25 140.128C111.213 139.373 112 138.585 112 138.378C112 137.555 111.179 138.084 109.872 139.75ZM155.964 153.628C155.984 153.148 156.695 153.332 157.546 154.038C158.396 154.743 158.876 155.881 158.613 156.566C158.35 157.251 159.081 158.642 160.237 159.656C162.29 161.457 162.324 161.453 161.681 159.5C161.319 158.4 166.409 163.125 172.992 170C179.574 176.875 184.947 182.95 184.931 183.5C184.915 184.05 181.082 180.45 176.414 175.5C171.746 170.55 167.46 166.624 166.889 166.775C166.318 166.926 166.099 166.649 166.402 166.158C166.705 165.668 166.063 164.462 164.976 163.479C163.889 162.495 163 162.085 163 162.568C163 164.053 149.111 149.858 144.344 143.5C140.156 137.915 140.402 138.089 147.886 146C152.309 150.675 155.944 154.107 155.964 153.628ZM114.131 142.342C113.519 143.08 113.238 143.98 113.509 144.342C113.779 144.704 113.704 144.779 113.342 144.509C112.462 143.852 109.9 146.03 110.47 146.951C110.716 147.349 109.026 149.436 106.715 151.587C104.199 153.93 103.614 154.274 105.256 152.445C106.765 150.765 108 148.987 108 148.493C108 147.999 109.438 146.111 111.196 144.298C114.361 141.032 116.278 139.755 114.131 142.342ZM156.85 161.284C157.37 161.165 161.78 165.254 166.648 170.37C177.479 181.752 180.247 185 179.116 185C178.637 185 175.224 181.624 171.531 177.498C167.838 173.372 164.468 170.211 164.042 170.474C162.987 171.126 159.916 167.605 159.561 165.338C159.402 164.327 158.597 163.618 157.771 163.763C156.944 163.908 153.481 160.983 150.073 157.263C146.666 153.543 142.741 149.261 141.35 147.746C139.96 146.231 138.3 145.291 137.661 145.656C137.023 146.022 136.822 145.964 137.215 145.529C137.608 145.093 137.47 143.784 136.907 142.619C136.345 141.453 140.389 145.225 145.894 151C151.399 156.775 156.329 161.403 156.85 161.284ZM115.165 148.324C113.964 149.602 113.201 150.868 113.47 151.137C113.738 151.405 111.834 153.622 109.239 156.062C106.643 158.503 105.837 159.037 107.447 157.25C109.057 155.463 109.974 154 109.484 154C108.995 154 110.352 152.2 112.5 150C116.62 145.781 118.903 144.345 115.165 148.324ZM151.376 162.167C151.994 161.983 152.162 162.172 151.748 162.586C150.78 163.553 153.978 167.132 155.158 166.402C155.649 166.099 155.926 166.447 155.775 167.176C155.624 167.904 156.046 168.393 156.714 168.262C157.465 168.115 157.685 168.658 157.29 169.686C156.812 170.932 157.063 171.19 158.294 170.717C159.197 170.371 160.245 170.587 160.622 171.198C161.063 171.911 160.849 172.025 160.025 171.515C159.166 170.985 158.901 171.182 159.224 172.111C159.49 172.875 160.379 173.384 161.201 173.241C162.745 172.974 173.614 183.719 172.711 184.622C172.431 184.902 170.077 182.859 167.48 180.082C164.882 177.305 162.403 175.251 161.97 175.518C161.177 176.009 141.463 155.489 136.493 149C135.019 147.075 137.511 149.325 142.032 154C146.553 158.675 150.757 162.35 151.376 162.167ZM86.157 150.333C83.799 152.842 80.119 153.766 82.129 151.344C82.733 150.617 83.575 150.237 84 150.5C84.425 150.763 85.329 150.308 86.009 149.489C86.689 148.67 87.493 148 87.797 148C88.1 148 87.362 149.05 86.157 150.333ZM110.872 152.75C109.629 154.336 109.664 154.371 111.25 153.128C112.916 151.821 113.445 151 112.622 151C112.415 151 111.627 151.787 110.872 152.75ZM87.653 153.831C86.741 154.838 86.213 155.88 86.479 156.146C86.746 156.412 85.065 158.401 82.745 160.565C80.425 162.729 79.612 163.262 80.938 161.75C82.264 160.238 82.957 159 82.478 159C81.999 159 83.134 157.425 85 155.5C88.493 151.896 90.608 150.566 87.653 153.831ZM83.872 157.75C82.629 159.336 82.664 159.371 84.25 158.128C85.916 156.821 86.445 156 85.622 156C85.415 156 84.627 156.787 83.872 157.75ZM88.165 160.324C86.964 161.602 86.323 162.99 86.741 163.408C87.158 163.825 86.825 164.017 86 163.833C85.175 163.65 84.593 164.003 84.706 164.617C84.819 165.232 83.839 166.742 82.529 167.973C78.106 172.128 80.3 167.289 85.02 162.48C89.512 157.903 92.118 156.117 88.165 160.324ZM67.117 160.927C66.032 161.598 66.135 161.988 67.63 162.87C69.321 163.869 69.269 163.943 67.083 163.65C64.045 163.243 63.452 160.467 66.356 160.248C67.877 160.134 68.092 160.325 67.117 160.927ZM90.179 165.316C88.411 167.139 87.31 168.977 87.732 169.399C88.155 169.821 87.825 170.017 87 169.833C86.175 169.65 85.589 169.992 85.698 170.593C85.806 171.194 83.789 173.669 81.215 176.093C78.64 178.517 77.543 179.342 78.776 177.926C80.009 176.51 80.677 175.01 80.259 174.592C79.842 174.175 79.95 173.983 80.5 174.167C81.05 174.35 81.626 174.05 81.781 173.5C82.093 172.391 92.15 162 92.912 162C93.176 162 91.946 163.492 90.179 165.316ZM81.872 166.75C80.629 168.336 80.664 168.371 82.25 167.128C83.213 166.373 84 165.585 84 165.378C84 164.555 83.179 165.084 81.872 166.75ZM61.908 169.312C60.5 170.665 59.047 171.291 58.408 170.821C57.807 170.379 56.922 170.351 56.441 170.759C55.96 171.166 56.186 170.692 56.943 169.704C57.701 168.717 58.909 168.135 59.628 168.411C60.347 168.687 61.202 168.482 61.527 167.956C61.852 167.43 62.613 167 63.217 167C63.822 167 63.233 168.041 61.908 169.312ZM161 167.378C161 167.585 161.685 168.324 162.523 169.019C163.796 170.076 163.943 170.014 163.416 168.641C162.878 167.24 161 166.257 161 167.378ZM90.437 172.24C88.822 174.023 87.16 175.636 86.744 175.826C86.328 176.016 86.21 176.531 86.483 176.972C86.755 177.413 86.344 178.299 85.569 178.943C82.408 181.567 84.737 176.853 88.514 172.986C93.18 168.207 94.587 167.661 90.437 172.24ZM48.725 181.232C48.502 183.029 48.315 181.8 48.31 178.5C48.304 175.2 48.486 173.729 48.715 175.232C48.943 176.735 48.947 179.435 48.725 181.232ZM184.86 175.694C186.135 178.125 188 179.622 188 178.214C188 177.717 187.035 176.453 185.854 175.405C183.724 173.513 183.717 173.515 184.86 175.694ZM56 179.326C56 179.505 54.763 180.742 53.25 182.076L50.5 184.5L52.924 181.75C55.19 179.18 56 178.541 56 179.326ZM83 181.378C83 181.585 82.213 182.373 81.25 183.128C79.664 184.371 79.629 184.336 80.872 182.75C82.179 181.084 83 180.555 83 181.378Z" fill="#685B89"/>
<path fill-rule="evenodd" clip-rule="evenodd" d="M0 125V250H125H250V125V0H125H0V125ZM202.758 125.25C202.929 164.898 202.677 185 202.008 185C200.531 185 199.23 183.829 179.5 164.745C169.6 155.169 157.684 143.687 153.02 139.231C148.355 134.774 144.788 130.879 145.092 130.575C145.871 129.795 152.43 135.611 166.249 149.334C172.803 155.842 178.466 160.868 178.833 160.501C179.494 159.842 179.656 93.186 179.005 89.675C178.75 88.299 176.231 90.391 168.771 98.175C163.329 103.854 159.212 107.825 159.622 107C160.033 106.175 155.922 110.112 150.487 115.75C145.051 121.388 140.114 126 139.516 126C138.917 126 135.811 128.925 132.614 132.5C129.416 136.075 126.415 139 125.944 139C125.474 139 122.067 135.962 118.375 132.25C114.682 128.537 111.999 126.079 112.412 126.787C113.558 128.749 101.098 116.798 99.576 114.475C98.368 112.632 98.458 112.454 100.558 112.546C101.829 112.602 103.534 113.198 104.346 113.872C105.347 114.703 106.03 114.76 106.47 114.049C106.826 113.472 107.822 113 108.681 113C110.027 113 110.053 113.244 108.872 114.75C107.625 116.341 107.661 116.374 109.273 115.109C110.363 114.253 110.818 113.003 110.455 111.859C109.997 110.414 110.382 109.997 112.183 109.985C113.891 109.973 114.138 109.74 113.122 109.096C111.304 107.945 112.746 105.7 114.935 106.273C117.683 106.991 116.765 103.404 113.438 100.421C111.822 98.972 111.237 98.172 112.138 98.643C114.098 99.668 123 107.812 123 108.58C123 108.876 122.48 108.797 121.845 108.405C121.165 107.984 120.961 108.128 121.349 108.756C123.082 111.56 127.974 107.869 143.894 91.746C150.277 85.281 156.002 79.993 156.616 79.996C157.23 79.998 160.898 76.613 164.767 72.473L171.802 64.947L187.151 65.223L202.5 65.5L202.758 125.25ZM108.128 93.75C109.371 95.336 109.336 95.371 107.75 94.128C106.084 92.821 105.555 92 106.378 92C106.585 92 107.373 92.787 108.128 93.75ZM101.449 114.168C101.026 114.901 101.021 115.193 101.439 114.817C101.857 114.442 103.504 115.47 105.099 117.102C106.695 118.734 108 119.688 108 119.222C108 118.756 106.699 117.128 105.11 115.605C102.898 113.486 102.039 113.149 101.449 114.168ZM88 148.26C78.375 157.742 70.162 165.361 69.75 165.191C69.338 165.021 69 165.407 69 166.048C69 166.689 68.33 166.957 67.512 166.643C66.694 166.329 66.131 166.411 66.262 166.826C66.708 168.241 51.507 183.999 49.695 183.999C48.01 184 47.936 183.092 48.579 170.25C49.343 154.974 49.992 151.738 50.015 163.083C50.026 168.241 50.326 170.043 51 169C51.808 167.749 51.991 167.833 52.101 169.5C52.213 171.206 52.299 171.241 52.692 169.738C52.945 168.769 53.567 168.233 54.076 168.547C54.584 168.861 55.007 167.854 55.015 166.309C55.027 164.216 55.264 163.869 55.947 164.949C56.678 166.104 57.234 165.749 58.682 163.206C59.682 161.449 61.054 160.01 61.731 160.006C62.408 160.003 63.244 158.875 63.589 157.5C63.934 156.125 64.585 155 65.035 155C65.485 155 66.059 154.213 66.311 153.25C66.631 152.023 66.803 152.222 66.884 153.917C67.074 157.88 68.089 155.589 68.686 149.852C69.524 141.783 70 142.681 70 152.333C70 159.696 70.247 161 71.638 161C72.54 161 76.735 157.512 80.961 153.25C91.128 142.996 104.009 130.998 104.838 131.01C105.202 131.015 97.625 138.778 88 148.26ZM169.5 159.275C176.65 166.169 185.15 174.253 188.389 177.239C191.855 180.435 194.078 183.251 193.793 184.084C193.475 185.015 188.375 180.655 178.905 171.354C170.982 163.574 159.438 152.286 153.25 146.269C147.063 140.252 142 134.754 142 134.05C142 133.346 145.262 135.914 149.25 139.755C153.238 143.597 162.35 152.381 169.5 159.275ZM109 134.88C109 135.363 107.067 137.343 104.704 139.279C102.342 141.215 95.436 147.682 89.358 153.65C71.177 171.501 57.805 184 56.887 184C56.089 184 61.781 178.405 91.475 149.999C97.512 144.225 103.587 138.316 104.975 136.869C107.638 134.093 109 133.42 109 134.88ZM113 137.843C113 138.306 108.612 142.692 103.25 147.59C97.888 152.488 88.762 161.221 82.971 166.998C77.181 172.774 70.431 179.022 67.971 180.882C65.512 182.741 71.6 176.403 81.5 166.795C91.4 157.188 102.2 146.571 105.5 143.202C111.298 137.282 113 136.066 113 137.843ZM147.5 145.015C170.895 167.456 187.285 184.048 186.667 184.666C186.276 185.058 181.69 181.051 176.477 175.761C171.265 170.472 167 166.391 167 166.692C167 166.994 160.475 160.722 152.5 152.754C139.208 139.474 135.902 135.691 139.25 137.591C139.938 137.982 143.65 141.322 147.5 145.015ZM146.406 150.899C170.384 174.138 180.193 184.14 179.596 184.737C178.95 185.383 176.362 182.957 152.261 159.103C144.979 151.896 138.54 146 137.952 146C137.363 146 137.16 145.55 137.5 145C137.84 144.45 137.416 144 136.559 144C135.702 144 135 143.812 135 143.582C135 143.352 134.699 142.378 134.33 141.418C133.241 138.58 135.637 140.461 146.406 150.899ZM114.817 142.921C114.158 143.977 108.925 149.265 103.189 154.671C97.452 160.077 88.323 168.887 82.901 174.25C77.478 179.613 72.493 184 71.822 184C71.152 184 77.555 177.308 86.051 169.129C94.548 160.95 104.404 151.275 107.953 147.629C114.295 141.114 117.182 139.134 114.817 142.921ZM112.368 152.751C87.72 176.728 79.959 184 79.02 184C78.445 184 82.183 179.838 87.325 174.75C108.022 154.275 119.171 143.837 119.738 144.404C120.066 144.733 116.75 148.489 112.368 152.751ZM141.7 153.576C146.815 158.843 151 162.917 151 162.629C151 162.341 156.04 167.017 162.2 173.019C168.36 179.022 173.138 184.195 172.818 184.515C171.996 185.337 164.868 178.872 147.173 161.257C138.743 152.866 131.43 146 130.923 146C130.415 146 130 145.55 130 145C130 142.451 133.11 144.73 141.7 153.576ZM57 170.941C57 171.459 57.445 172.157 57.989 172.493C58.555 172.843 58.723 172.442 58.382 171.552C57.717 169.82 57 169.503 57 170.941Z" fill="#ADBFFF"/>
<path fill-rule="evenodd" clip-rule="evenodd" d="M0 125V250H125H250V125V0H125H0V125ZM87.523 73.25L95.5 81.5L87.478 73.75L79.456 66H64.228H49L49.099 109.75C49.183 146.614 50.047 174.79 50.915 169C51.079 167.911 51.376 168.048 52 169.5C52.767 171.285 52.867 171.306 52.93 169.691C52.968 168.696 53.45 168.16 54 168.5C54.575 168.855 55.007 167.924 55.015 166.309C55.027 164.216 55.264 163.869 55.947 164.949C56.678 166.104 57.234 165.749 58.682 163.206C59.682 161.449 61.054 160.01 61.731 160.006C62.408 160.003 63.244 158.875 63.589 157.5C63.934 156.125 64.585 155 65.035 155C65.485 155 66.059 154.213 66.311 153.25C66.631 152.023 66.803 152.222 66.884 153.917C67.074 157.88 68.089 155.589 68.686 149.852C69.524 141.783 70 142.681 70 152.333C70 159.624 70.255 161 71.606 161C72.489 161 78.901 155.262 85.856 148.25C98.507 135.493 103.624 131.012 105.5 131.044C106.05 131.054 103.609 133.635 100.075 136.781C96.541 139.926 88.502 147.782 82.211 154.238C75.919 160.694 70.362 165.723 69.861 165.414C69.36 165.105 69.015 165.222 69.094 165.676C69.453 167.745 68.868 168.138 67.308 166.872C66.377 166.118 65.917 166.002 66.284 166.616C66.652 167.23 66.074 168.528 65 169.5C63.926 170.472 63.331 171.727 63.678 172.288C64.025 172.85 63.829 173.013 63.243 172.65C62.657 172.288 59.607 174.918 56.466 178.496C53.325 182.073 50.136 185 49.378 185C48.223 185 48 175.404 48 125.667C48 93.033 48.3 66.033 48.667 65.667C49.033 65.3 56.131 65 64.44 65H79.547L87.523 73.25ZM202.758 125.25C202.929 164.898 202.677 185 202.008 185C200.531 185 199.23 183.829 179.5 164.745C169.6 155.169 157.684 143.687 153.02 139.231C148.355 134.774 144.788 130.879 145.092 130.575C145.871 129.795 152.43 135.611 166.249 149.334C172.803 155.842 178.466 160.868 178.833 160.501C179.494 159.842 179.656 93.186 179.005 89.675C178.75 88.299 176.231 90.391 168.771 98.175C163.329 103.854 159.212 107.825 159.622 107C160.033 106.175 155.922 110.112 150.487 115.75C145.051 121.388 140.114 126 139.516 126C138.917 126 135.811 128.925 132.614 132.5C129.416 136.075 126.415 139 125.944 139C125.474 139 122.067 135.963 118.375 132.25C114.682 128.537 112.026 126.175 112.471 127C113.559 129.013 102.336 118.178 100.011 114.971C98.193 112.461 98.197 112.443 100.524 112.544C101.814 112.601 103.534 113.198 104.346 113.872C105.347 114.703 106.03 114.76 106.47 114.049C106.826 113.472 107.822 113 108.681 113C110.027 113 110.053 113.244 108.872 114.75C107.625 116.341 107.661 116.374 109.273 115.109C110.363 114.253 110.818 113.003 110.455 111.859C109.997 110.414 110.382 109.997 112.183 109.985C113.891 109.973 114.138 109.74 113.122 109.096C111.304 107.945 112.746 105.7 114.935 106.273C117.646 106.982 116.783 103.405 113.58 100.653C111.432 98.808 111.099 98.069 112.142 97.465C112.889 97.033 113.206 97.008 112.847 97.409C112.171 98.165 120.639 106.5 122.083 106.5C122.532 106.5 123.452 107.052 124.127 107.727C125.095 108.695 124.867 108.86 123.041 108.508C121.77 108.263 121.028 108.362 121.394 108.727C122.837 110.17 124.944 109.689 127.065 107.431C128.289 106.128 129.745 105.342 130.3 105.685C130.855 106.028 131.032 105.861 130.693 105.313C130.355 104.765 131.635 102.807 133.539 100.962C135.443 99.117 137 97.99 137 98.457C137 98.924 142.233 93.95 148.629 87.403C155.025 80.856 159.473 76.625 158.514 78C157.554 79.375 160.084 77.006 164.135 72.736L171.5 64.971L187 65.236L202.5 65.5L202.758 125.25ZM106.034 90.629C109.04 93.724 110.752 95.862 109.839 95.379C108.276 94.552 99.404 85 100.199 85C100.402 85 103.028 87.533 106.034 90.629ZM86 101.5C88.987 104.525 91.207 107 90.932 107C90.657 107 87.987 104.525 85 101.5C82.013 98.475 79.793 96 80.068 96C80.343 96 83.013 98.475 86 101.5ZM134.405 101.25L132.5 103.5L134.75 101.595C135.988 100.547 137 99.535 137 99.345C137 98.545 136.195 99.136 134.405 101.25ZM95 106.378C95 106.585 94.213 107.373 93.25 108.128C91.664 109.371 91.629 109.336 92.872 107.75C94.179 106.084 95 105.555 95 106.378ZM101.449 114.168C101.026 114.901 101.021 115.193 101.439 114.817C101.857 114.442 103.504 115.47 105.099 117.102C106.695 118.734 108 119.688 108 119.222C108 118.756 106.699 117.128 105.11 115.605C102.898 113.486 102.039 113.149 101.449 114.168ZM110 133.828C110 134.284 106.791 137.546 102.868 141.078C98.946 144.61 90.314 153.02 83.685 159.767C76.377 167.206 71.273 171.673 70.717 171.117C70.161 170.561 70.627 169.373 71.9 168.1C73.055 166.945 74 166.246 74 166.546C74 167.009 95.989 145.779 105.5 136.134C108.529 133.063 110 132.309 110 133.828ZM149.364 139.87C153.289 143.649 162.35 152.384 169.5 159.282C176.65 166.18 185.313 174.407 188.75 177.564C192.188 180.721 195 183.686 195 184.152C195 186.578 191.519 183.837 179.884 172.25C172.842 165.238 161.775 154.458 155.29 148.295C144.499 138.039 139.99 133 141.605 133C141.947 133 145.439 136.092 149.364 139.87ZM113 137.876C113 138.357 108.903 142.52 103.896 147.126C98.889 151.732 89.776 160.458 83.646 166.518C70.576 179.438 63.902 185.243 63.086 184.4C62.764 184.066 64.936 181.703 67.913 179.147C70.891 176.591 79.014 168.762 85.965 161.75C92.916 154.738 98.95 149 99.373 149C100.74 149 102.927 146.263 102.202 145.459C101.816 145.03 102.028 144.982 102.673 145.351C103.362 145.746 105.374 144.159 107.544 141.512C111.05 137.233 113 135.934 113 137.876ZM146.954 144.361C151.104 148.409 161.025 158.135 169 165.974C176.975 173.814 184.512 180.903 185.75 181.729C186.988 182.554 188 183.628 188 184.115C188 186.654 184.432 184.067 176.243 175.591C171.243 170.415 167.005 166.318 166.826 166.485C166.647 166.652 159.797 160.086 151.605 151.894C143.413 143.702 137.317 137 138.059 137C138.801 137 142.804 140.312 146.954 144.361ZM115.405 142.24C114.357 143.472 109.851 148.084 105.391 152.49C78.332 179.22 72.216 185 70.986 185C70.232 185 76.79 178.063 85.558 169.584C94.326 161.105 104.621 150.98 108.436 147.084C112.251 143.188 115.808 140 116.341 140C116.874 140 116.453 141.008 115.405 142.24ZM145.459 149.848C175.435 179.247 181.069 185 179.885 185C178.549 185 175.103 181.771 152.265 159.124C144.985 151.906 138.546 146 137.956 146C137.365 146 137.16 145.55 137.5 145C137.84 144.45 137.416 144 136.559 144C135.702 144 135 143.812 135 143.582C135 143.352 134.727 142.452 134.393 141.582C133.16 138.369 135.657 140.234 145.459 149.848ZM108.432 156.642C83.271 181.238 78.942 185.275 78.354 184.687C78.027 184.36 82.876 179.103 89.13 173.006C95.383 166.908 104.537 157.887 109.47 152.959C114.404 148.032 119.098 144 119.902 144C120.706 144 115.544 149.689 108.432 156.642ZM141.7 153.576C146.815 158.843 151 162.905 151 162.604C151 162.303 156.044 166.974 162.21 172.985C168.375 178.996 173.153 184.18 172.828 184.506C172.006 185.327 164.616 178.725 150.487 164.552C143.88 157.923 136.57 150.925 134.242 149C131.914 147.075 130.008 145.162 130.005 144.75C129.99 142.454 133.395 145.025 141.7 153.576ZM57 170.941C57 171.459 57.445 172.157 57.989 172.493C58.555 172.843 58.723 172.442 58.382 171.552C57.717 169.82 57 169.503 57 170.941ZM70 172C70 172.55 69.55 173 69 173C68.45 173 68 172.55 68 172C68 171.45 68.45 171 69 171C69.55 171 70 171.45 70 172ZM68.5 174C68.84 174.55 68.482 175 67.704 175C66.926 175 64.22 177.345 61.69 180.212C59.16 183.078 56.758 185.092 56.353 184.687C55.626 183.959 65.756 173 67.157 173C67.556 173 68.16 173.45 68.5 174Z" fill="#49A7FF"/>
<path fill-rule="evenodd" clip-rule="evenodd" d="M0 125V250H125H250V125V0H125H0V125ZM88.022 73.74C92.685 78.548 94.3 80.46 91.611 77.99C88.921 75.521 85.452 72.215 83.901 70.644L81.081 67.788L81.54 72.644C81.87 76.124 81.737 76.933 81.07 75.5C80.559 74.4 80.109 74.063 80.07 74.75C80.032 75.438 78.902 76 77.559 76C74.955 76 73.224 77.575 75.13 78.21C76.823 78.774 74.166 82.603 71.117 83.992L68.627 85.127L71.563 87.562C73.179 88.902 73.733 89.733 72.796 89.409C71.31 88.896 71.047 89.762 70.744 96.161L70.397 103.5L70.199 95.963C70.016 89.025 69.828 88.413 67.841 88.263C64.483 88.01 62.163 89.738 61.816 92.75C61.594 94.682 60.856 95.592 59.336 95.808C57.791 96.028 56.89 97.174 56.189 99.808C55.573 102.122 55.131 102.753 55.004 101.5C54.829 99.784 54.687 99.855 54 102C53.232 104.398 53.195 104.409 53.1 102.25C52.983 99.619 51.033 99.17 50.93 101.75C50.87 103.246 50.735 103.21 50 101.5C48.939 99.032 48.892 150.013 49.944 162C50.355 166.675 50.792 169.825 50.915 169C51.079 167.911 51.376 168.048 52 169.5C52.767 171.285 52.867 171.306 52.93 169.691C52.968 168.696 53.45 168.16 54 168.5C54.575 168.855 55.007 167.924 55.015 166.309C55.027 164.216 55.264 163.869 55.947 164.949C56.678 166.104 57.234 165.749 58.682 163.206C59.682 161.449 61.054 160.01 61.731 160.006C62.408 160.003 63.244 158.875 63.589 157.5C63.934 156.125 64.585 155 65.035 155C65.485 155 66.059 154.213 66.311 153.25C66.631 152.023 66.803 152.222 66.884 153.917C67.074 157.88 68.089 155.589 68.686 149.852C69.524 141.783 70 142.681 70 152.333C70 159.624 70.255 161 71.606 161C72.489 161 78.901 155.262 85.856 148.25C98.507 135.493 103.624 131.012 105.5 131.044C106.05 131.054 103.609 133.635 100.075 136.781C96.541 139.926 88.502 147.782 82.211 154.238C75.919 160.694 70.362 165.723 69.861 165.414C69.36 165.105 69.015 165.222 69.094 165.676C69.453 167.745 68.868 168.138 67.308 166.872C66.377 166.118 65.917 166.002 66.284 166.616C66.652 167.23 66.074 168.528 65 169.5C63.926 170.472 63.331 171.727 63.678 172.288C64.025 172.85 63.829 173.013 63.243 172.65C62.657 172.288 59.607 174.918 56.466 178.496C53.325 182.073 50.136 185 49.378 185C48.223 185 48 175.404 48 125.667C48 93.033 48.3 66.033 48.667 65.667C49.033 65.3 56.131 65 64.439 65H79.544L88.022 73.74ZM202.758 125.25C202.929 164.898 202.677 185 202.008 185C200.531 185 199.23 183.829 179.5 164.745C169.6 155.169 157.684 143.687 153.02 139.231C148.355 134.774 144.788 130.879 145.092 130.575C145.871 129.795 152.43 135.611 166.249 149.334C172.803 155.842 178.466 160.868 178.833 160.501C179.494 159.842 179.656 93.186 179.005 89.675C178.75 88.299 176.231 90.391 168.771 98.175C163.329 103.854 159.212 107.825 159.622 107C160.033 106.175 155.922 110.112 150.487 115.75C145.051 121.388 140.114 126 139.516 126C138.917 126 135.811 128.925 132.614 132.5C129.416 136.075 126.415 139 125.944 139C125.474 139 122.067 135.963 118.375 132.25C114.682 128.537 112.026 126.175 112.471 127C113.559 129.013 102.336 118.178 100.011 114.971C98.193 112.461 98.197 112.443 100.524 112.544C101.814 112.601 103.534 113.198 104.346 113.872C105.347 114.703 106.03 114.76 106.47 114.049C106.826 113.472 107.822 113 108.681 113C110.027 113 110.053 113.244 108.872 114.75C107.625 116.341 107.661 116.374 109.273 115.109C110.363 114.253 110.818 113.003 110.455 111.859C109.997 110.414 110.382 109.997 112.183 109.985C113.891 109.973 114.138 109.74 113.122 109.096C111.304 107.945 112.746 105.7 114.935 106.273C117.646 106.982 116.783 103.405 113.58 100.653C111.432 98.808 111.099 98.069 112.142 97.465C112.889 97.033 113.206 97.008 112.847 97.409C112.171 98.165 120.639 106.5 122.083 106.5C122.532 106.5 123.452 107.052 124.127 107.727C125.095 108.695 124.867 108.86 123.041 108.508C121.77 108.263 121.028 108.362 121.394 108.727C122.837 110.17 124.944 109.689 127.065 107.431C128.289 106.128 129.745 105.342 130.3 105.685C130.855 106.028 131.032 105.861 130.693 105.313C130.355 104.765 131.635 102.807 133.539 100.962C135.443 99.117 137 97.99 137 98.457C137 98.924 142.233 93.95 148.629 87.403C155.025 80.856 159.473 76.625 158.514 78C157.554 79.375 160.084 77.006 164.135 72.736L171.5 64.971L187 65.236L202.5 65.5L202.758 125.25ZM83.807 73.526C83.499 73.834 82.94 73.279 82.564 72.293C82.022 70.868 82.136 70.753 83.124 71.733C83.808 72.412 84.115 73.219 83.807 73.526ZM106.034 90.629C109.04 93.724 110.752 95.862 109.839 95.379C108.276 94.552 99.404 85 100.199 85C100.402 85 103.028 87.533 106.034 90.629ZM84.025 99.75L91.5 107.5L83.75 100.025C79.487 95.914 76 92.426 76 92.275C76 91.544 77.082 92.552 84.025 99.75ZM134.405 101.25L132.5 103.5L134.75 101.595C135.988 100.547 137 99.535 137 99.345C137 98.545 136.195 99.136 134.405 101.25ZM95 106.378C95 106.585 94.213 107.373 93.25 108.128C91.664 109.371 91.629 109.336 92.872 107.75C94.179 106.084 95 105.555 95 106.378ZM101.449 114.168C101.026 114.901 101.021 115.193 101.439 114.817C101.857 114.442 103.504 115.47 105.099 117.102C106.695 118.734 108 119.688 108 119.222C108 118.756 106.699 117.128 105.11 115.605C102.898 113.486 102.039 113.149 101.449 114.168ZM110 133.828C110 134.284 106.791 137.546 102.868 141.078C98.946 144.61 90.314 153.02 83.685 159.767C76.377 167.206 71.273 171.673 70.717 171.117C70.161 170.561 70.627 169.373 71.9 168.1C73.055 166.945 74 166.246 74 166.546C74 167.009 95.989 145.779 105.5 136.134C108.529 133.063 110 132.309 110 133.828ZM149.364 139.87C153.289 143.649 162.35 152.384 169.5 159.282C176.65 166.18 185.313 174.407 188.75 177.564C192.188 180.721 195 183.686 195 184.152C195 186.578 191.519 183.837 179.884 172.25C172.842 165.238 161.775 154.458 155.29 148.295C144.499 138.039 139.99 133 141.605 133C141.947 133 145.439 136.092 149.364 139.87ZM113 137.876C113 138.357 108.903 142.52 103.896 147.126C98.889 151.732 89.776 160.458 83.646 166.518C70.576 179.438 63.902 185.243 63.086 184.4C62.764 184.066 64.936 181.703 67.913 179.147C70.891 176.591 79.014 168.762 85.965 161.75C92.916 154.738 98.95 149 99.373 149C100.74 149 102.927 146.263 102.202 145.459C101.816 145.03 102.028 144.982 102.673 145.351C103.362 145.746 105.374 144.159 107.544 141.512C111.05 137.233 113 135.934 113 137.876ZM146.954 144.361C151.104 148.409 161.025 158.135 169 165.974C176.975 173.814 184.512 180.903 185.75 181.729C186.988 182.554 188 183.628 188 184.115C188 186.654 184.432 184.067 176.243 175.591C171.243 170.415 167.005 166.318 166.826 166.485C166.647 166.652 159.797 160.086 151.605 151.894C143.413 143.702 137.317 137 138.059 137C138.801 137 142.804 140.312 146.954 144.361ZM115.405 142.24C114.357 143.472 109.851 148.084 105.391 152.49C78.332 179.22 72.216 185 70.986 185C70.232 185 76.79 178.063 85.558 169.584C94.326 161.105 104.621 150.98 108.436 147.084C112.251 143.188 115.808 140 116.341 140C116.874 140 116.453 141.008 115.405 142.24ZM145.459 149.848C175.435 179.247 181.069 185 179.885 185C178.549 185 175.103 181.771 152.265 159.124C144.985 151.906 138.546 146 137.956 146C137.365 146 137.16 145.55 137.5 145C137.84 144.45 137.416 144 136.559 144C135.702 144 135 143.812 135 143.582C135 143.352 134.727 142.452 134.393 141.582C133.16 138.369 135.657 140.234 145.459 149.848ZM108.432 156.642C83.271 181.238 78.942 185.275 78.354 184.687C78.027 184.36 82.876 179.103 89.13 173.006C95.383 166.908 104.537 157.887 109.47 152.959C114.404 148.032 119.098 144 119.902 144C120.706 144 115.544 149.689 108.432 156.642ZM141.7 153.576C146.815 158.843 151 162.905 151 162.604C151 162.303 156.044 166.974 162.21 172.985C168.375 178.996 173.153 184.18 172.828 184.506C172.006 185.327 164.616 178.725 150.487 164.552C143.88 157.923 136.57 150.925 134.242 149C131.914 147.075 130.008 145.162 130.005 144.75C129.99 142.454 133.395 145.025 141.7 153.576ZM57 170.941C57 171.459 57.445 172.157 57.989 172.493C58.555 172.843 58.723 172.442 58.382 171.552C57.717 169.82 57 169.503 57 170.941ZM70 172C70 172.55 69.55 173 69 173C68.45 173 68 172.55 68 172C68 171.45 68.45 171 69 171C69.55 171 70 171.45 70 172ZM68.5 174C68.84 174.55 68.482 175 67.704 175C66.926 175 64.22 177.345 61.69 180.212C59.16 183.078 56.758 185.092 56.353 184.687C55.626 183.959 65.756 173 67.157 173C67.556 173 68.16 173.45 68.5 174Z" fill="#6376FF"/>
<path fill-rule="evenodd" clip-rule="evenodd" d="M0 125V250H125H250V125V0H125H0V125ZM102.161 87.047L125.141 109.093L136.821 98.054C143.244 91.983 153.675 82.072 160 76.029L171.5 65.042L187 65.271L202.5 65.5L202.758 125.25C202.987 178.244 202.843 185 201.491 185C200.652 185 191.311 176.553 180.733 166.229C170.155 155.905 157.787 143.902 153.25 139.556C145.594 132.222 143.851 130 145.754 130C146.168 130 153.706 136.921 162.504 145.381C174.79 157.194 178.647 160.383 179.134 159.131C180.126 156.577 180.119 92.664 179.126 91.135C178.288 89.845 166.335 100.575 134.192 131.475C130.173 135.339 126.434 138.659 125.884 138.853C124.829 139.225 122.949 137.507 92.143 108.025C81.497 97.836 72.385 89.35 71.893 89.167C71.379 88.975 71 104.152 71 124.917C71 144.762 71.346 161 71.77 161C72.193 161 76.806 156.693 82.02 151.428C94.181 139.149 104.905 129.571 105.654 130.321C106.168 130.834 93.705 143.229 60.194 175.53C55.076 180.463 50.238 184.645 49.444 184.823C48.198 185.102 48 177.005 48 125.74C48 93.066 48.3 66.033 48.667 65.667C49.033 65.3 56.049 65 64.257 65H79.18L102.161 87.047ZM110 133.625C110 134.677 58.668 184.193 56.914 184.833C53.938 185.919 57.913 181.565 73.701 166.449C83.437 157.127 95.249 145.8 99.951 141.278C107.891 133.642 110 132.036 110 133.625ZM168.911 158.474C183.26 172.21 195 183.798 195 184.224C195 186.479 191.576 183.741 178.684 171.175C170.883 163.571 159.213 152.251 152.75 146.018C142.282 135.923 139.086 132.133 141.911 133.167C142.413 133.35 154.563 144.738 168.911 158.474ZM113 137.775C113 138.2 104.338 146.878 93.75 157.059C67.887 181.927 64.07 185.403 63.381 184.714C63.057 184.391 69.702 177.422 78.146 169.228C112.358 136.032 113 135.453 113 137.775ZM151.161 148.392C170.431 166.903 188 184.169 188 184.594C188 186.771 181.961 181.481 161 160.943C147.525 147.739 137.248 137.064 138.161 137.218C139.075 137.373 144.925 142.401 151.161 148.392ZM117 140.855C117 142.191 72.248 185 70.852 185C70.167 185 71.054 183.508 72.821 181.684C74.589 179.861 75.69 177.988 75.268 177.524C74.845 177.059 74.95 176.933 75.5 177.243C76.05 177.553 85.275 169.319 96 158.946C106.725 148.572 115.838 140.065 116.25 140.042C116.662 140.019 117 140.385 117 140.855ZM158.5 162.489C171.15 174.821 180.825 184.919 180 184.927C179.175 184.935 173.55 180.178 167.5 174.354C135.556 143.607 132.032 139.913 134.75 140.033C135.162 140.051 145.85 150.156 158.5 162.489ZM117.946 147.59C107.211 158.774 78.84 185.172 78.225 184.549C77.303 183.616 118.004 144.1 119.946 144.043C120.814 144.017 120.015 145.435 117.946 147.59ZM141.295 152.865C146.358 157.741 155.675 166.702 162 172.78C168.325 178.857 173.167 184.163 172.761 184.57C172.355 184.978 169.43 182.906 166.261 179.966C157.142 171.506 130 144.908 130 144.432C130 142.711 133.344 145.208 141.295 152.865Z" fill="#EAEAEA"/>
</svg>
