<svg width="64" height="65" viewBox="0 0 64 65" fill="none" xmlns="http://www.w3.org/2000/svg">
<path fill-rule="evenodd" clip-rule="evenodd" d="M0 32V64H32H64V32V0H32H0V32Z" fill="#F9E8FF"/>
<path fill-rule="evenodd" clip-rule="evenodd" d="M0 30.196V60.392L3.75 56.947L7.5 53.503L3.75 57.543C1.687 59.766 0 62.128 0 62.792C0 64.489 3.946 64.305 4.609 62.577C4.909 61.795 5.882 60.875 6.771 60.534C8.099 60.025 8.058 60.279 6.539 61.957L4.69 64H34.345H64V32V0H32H0V30.196ZM17.075 17.275C16.951 18.471 15.58 18.239 15.15 16.95C14.93 16.29 15.29 15.93 15.95 16.15C16.61 16.37 17.116 16.876 17.075 17.275ZM48 16.771C48 17.196 45.75 20.629 43 24.401C40.25 28.173 38.013 30.864 38.028 30.38C38.043 29.896 39.381 27.749 41 25.609C43.819 21.884 44.174 19.272 41.681 20.593C41.031 20.938 41.85 20.061 43.5 18.646C46.578 16.005 48 15.413 48 16.771ZM32.985 19.809C32.971 21.266 32.835 21.293 32 20C30.734 18.042 30.734 16.718 32 17.5C32.55 17.84 32.993 18.879 32.985 19.809ZM44.98 18.524C44.284 19.362 43.968 20.301 44.276 20.61C44.585 20.919 45.34 20.233 45.954 19.086C47.264 16.638 46.778 16.358 44.98 18.524ZM21.128 19.75C22.342 21.298 22.317 21.357 20.908 20.259C20.032 19.576 18.948 19.351 18.498 19.759C18.048 20.166 18.003 19.938 18.399 19.25C19.328 17.634 19.492 17.664 21.128 19.75ZM30.683 22.188C30.364 22.985 30.127 22.748 30.079 21.583C30.036 20.529 30.272 19.939 30.604 20.271C30.936 20.603 30.972 21.466 30.683 22.188ZM39 22.378C39 22.585 38.212 23.373 37.25 24.128C35.664 25.371 35.629 25.336 36.872 23.75C38.179 22.084 39 21.555 39 22.378ZM29.526 25.807C29.219 26.115 28.412 25.808 27.733 25.124C26.753 24.136 26.868 24.022 28.293 24.564C29.279 24.94 29.834 25.499 29.526 25.807ZM34.5 25C34.84 25.55 34.641 26 34.059 26C33.477 26 33 25.55 33 25C33 24.45 33.198 24 33.441 24C33.684 24 34.16 24.45 34.5 25ZM25.382 30.552C25.723 31.442 25.555 31.843 24.989 31.493C24.445 31.157 24 30.459 24 29.941C24 28.503 24.717 28.82 25.382 30.552ZM20 32C17.871 32.682 17.796 32.827 19.5 32.979C20.673 33.084 20.97 33.371 20.217 33.673C19.511 33.957 18.174 33.897 17.245 33.541C15.794 32.984 15.763 32.762 17.028 31.962C17.838 31.45 19.4 31.069 20.5 31.115C22.148 31.184 22.06 31.34 20 32ZM45 31.969C45 32.501 45.749 32.65 46.664 32.299C47.783 31.869 48.091 32.043 47.605 32.83C47.207 33.474 45.982 34 44.882 34C43.782 34 43.139 33.584 43.453 33.076C43.767 32.567 43.231 31.945 42.262 31.692C40.921 31.342 41.038 31.204 42.75 31.116C43.987 31.052 45 31.436 45 31.969ZM39.743 36.237C39.875 37.996 39.71 38.156 38.971 36.987C37.815 35.159 37.744 34 38.787 34C39.22 34 39.65 35.007 39.743 36.237ZM29 38.709C28.175 39.013 26.739 39.923 25.808 40.733C24.877 41.543 23.527 41.97 22.808 41.682C21.906 41.32 22.005 41.133 23.128 41.079C24.023 41.036 25.315 40.325 26 39.5C26.685 38.675 27.977 38.036 28.872 38.079C30.233 38.145 30.254 38.248 29 38.709ZM35.595 40.155C36.017 40.837 35.872 41.039 35.24 40.648C34.652 40.285 33.943 40.553 33.664 41.244C33.359 42.002 33.127 41.806 33.079 40.75C32.99 38.771 34.517 38.41 35.595 40.155ZM43.128 40.75C44.371 42.336 44.336 42.371 42.75 41.128C41.788 40.373 41 39.585 41 39.378C41 38.555 41.821 39.084 43.128 40.75ZM21 41.297C21 41.46 19.087 43.373 16.75 45.547L12.5 49.5L16.453 45.25C20.129 41.298 21 40.54 21 41.297ZM39.128 42.75C40.371 44.336 40.336 44.371 38.75 43.128C37.084 41.821 36.555 41 37.378 41C37.585 41 38.373 41.788 39.128 42.75ZM32.076 44.453C32.584 44.139 33 44.557 33 45.382C33 46.207 32.597 47.131 32.105 47.435C31.079 48.069 29.944 45.635 30.116 43.168C30.217 41.711 30.29 41.723 30.692 43.262C30.945 44.231 31.567 44.767 32.076 44.453ZM47.085 47.447C47.588 47.136 48 47.396 48 48.024C48 49.508 45.698 48.748 45.388 47.163C45.257 46.496 45.38 46.414 45.66 46.981C45.941 47.548 46.582 47.758 47.085 47.447ZM15.836 51.667C13.497 54.05 11.361 56 11.089 56C10.817 56 12.27 54.284 14.317 52.187C16.365 50.09 17.807 48.14 17.52 47.854C17.234 47.567 17.695 47.333 18.545 47.333C19.521 47.333 18.524 48.928 15.836 51.667Z" fill="#9E6CFF"/>
<path fill-rule="evenodd" clip-rule="evenodd" d="M0 29.5C0 45.725 0.271 59 0.601 59C1.517 59 25 36.837 25 35.972C25 35.557 22.862 34.826 20.25 34.349C14.64 33.324 14.233 31.74 19.365 30.906C21.377 30.579 23.209 30.125 23.436 29.897C23.664 29.669 21.859 26.821 19.425 23.567C12.624 14.476 13.458 13.714 22.781 20.498C29.532 25.41 29.164 25.509 30.225 18.5C30.653 15.667 32.443 16.015 32.793 19C33.001 20.77 32.82 21.106 32.173 20.151C31.512 19.175 31.073 19.796 30.585 22.401C30.213 24.38 29.706 26 29.457 26C29.208 26 26.822 24.432 24.154 22.515C21.486 20.598 19.02 19.314 18.673 19.66C18.326 20.007 19.537 22.363 21.362 24.895C25.886 31.17 26.355 32.071 24.802 31.493C24.086 31.227 22.15 31.406 20.5 31.891L17.5 32.773L21.75 33.514C26.531 34.348 27.113 35.885 23.811 38.961C22.109 40.547 21.971 41 23.189 41C24.05 41 25.315 40.325 26 39.5C28.056 37.022 29.738 37.791 30.439 41.528C31.165 45.397 33 45.335 33 41.441C33 40.098 33.337 39.005 33.75 39.011C34.163 39.016 36.728 40.787 39.452 42.945C42.176 45.103 44.786 46.633 45.252 46.344C46.019 45.87 42.531 40.512 39.286 37.179C37.57 35.416 37.66 34.028 39.5 33.875C42.285 33.643 42.831 33.502 43.488 32.845C43.848 32.485 42.761 31.887 41.072 31.516C37.389 30.707 37.363 30.538 40.321 26.594C43.73 22.049 44.129 21.198 43.135 20.584C42.642 20.279 40.548 21.373 38.482 23.015C33.983 26.59 32.977 26.726 33.07 23.75C33.127 21.946 33.275 21.834 33.82 23.186C34.401 24.626 35.366 24.224 40.424 20.436C47.428 15.191 50.172 14.534 47.462 18.75C46.49 20.262 44.342 23.23 42.689 25.343C39.368 29.59 39.988 30.955 45.25 30.985C49.915 31.011 48.612 33.786 43.58 34.54L39.16 35.203L43.74 41.102C48.083 46.693 52 48.819 52 45.583C52 44.804 52.337 44.017 52.75 43.833C53.162 43.65 55.863 38.897 58.75 33.271L64 23.042V11.521V0H32H0V29.5ZM16.656 18.545C16.96 19.339 17.612 19.74 18.105 19.435C19.345 18.669 19.231 18.303 17.551 17.658C16.584 17.287 16.286 17.582 16.656 18.545ZM44.98 18.524C44.284 19.362 43.968 20.301 44.276 20.61C44.585 20.919 45.34 20.233 45.954 19.086C47.264 16.638 46.778 16.358 44.98 18.524ZM21.817 45.721C18.265 49.449 12.953 55.098 10.013 58.273L4.667 64.045L23.571 63.773C41.291 63.517 42.497 63.38 42.843 61.583C43.045 60.528 44.511 58.278 46.101 56.583C47.69 54.887 48.993 53.076 48.995 52.559C48.998 52.041 48.292 52.491 47.426 53.559C46.56 54.626 46.168 54.887 46.554 54.138C46.943 53.385 46.646 52.399 45.891 51.932C44.944 51.347 45.288 51.137 47.013 51.246C48.381 51.333 49.794 51.832 50.154 52.355C50.513 52.879 50.738 52.113 50.654 50.654C50.513 48.22 49 46.708 49 49C49 50.951 46.878 49.938 40.546 44.961L34.134 39.923L33.447 44.505C32.6 50.15 30.797 49.918 29.793 44.033C29.388 41.663 28.881 39.548 28.666 39.332C28.451 39.117 25.369 41.992 21.817 45.721ZM10.69 51.191C0.257999 60.933 -1.868 64 1.81 64C3.701 64 17.686 49.391 17.25 47.871C17.113 47.392 17.396 47.113 17.88 47.25C19.341 47.665 23.95 42.195 22.581 41.67C21.92 41.416 16.569 45.701 10.69 51.191Z" fill="#8454FE"/>
<path fill-rule="evenodd" clip-rule="evenodd" d="M0 29.559C0 52.94 0.261 58.961 1.25 58.367C3.227 57.179 25 36.624 25 35.945C25 35.61 22.863 34.922 20.25 34.418C14.521 33.311 14.366 31.788 19.87 30.699L23.921 29.898L19.46 23.839C12.564 14.47 13.748 13.381 23.048 20.537C29.478 25.485 29.158 25.572 30.211 18.583C30.793 14.724 32.854 15.846 33.536 20.393L34.213 24.906L40.785 19.931C48.925 13.768 50.767 14.677 45.288 22.153C39.265 30.372 39.257 30.395 42.601 29.615C44.725 29.12 45.099 29.211 44 29.954C42.712 30.826 42.747 30.972 44.25 30.985C45.212 30.993 46.001 30.663 46.001 30.25C46.002 29.837 47.127 28.193 48.501 26.594C51.194 23.463 51.647 22.482 49.9 23.562C49.177 24.008 49.214 23.468 50.008 21.986C50.963 20.201 51.395 20.019 52.076 21.115C52.656 22.048 52.866 21.52 52.719 19.5C52.557 17.284 52.892 16.587 54 16.833C54.825 17.017 55.18 16.847 54.789 16.456C54.398 16.065 55.255 13.665 56.694 11.122C60.848 3.783 61.987 1.552 61.994 0.75C61.997 0.337 48.05 0 31 0H0V29.559ZM16.513 18.095C16.966 18.868 18.541 21.075 20.015 23C24.723 29.15 26.399 32.089 24.876 31.522C24.119 31.24 22.15 31.406 20.5 31.891L17.5 32.773L21.75 33.514C24.153 33.933 26 34.812 26 35.537C26 36.242 23.202 39.447 19.781 42.659C2.657 58.743 0 61.429 0 62.664C0 65.897 4.139 63.431 10.56 56.371C14.377 52.175 17.388 48.35 17.25 47.871C17.113 47.392 17.396 47.113 17.88 47.25C19.309 47.656 23.971 42.169 22.655 41.63C22.02 41.371 22.232 41.122 23.128 41.079C24.023 41.036 25.315 40.325 26 39.5C28.056 37.022 29.738 37.791 30.439 41.528C31.165 45.397 33 45.335 33 41.441C33 38.255 33.855 38.362 38.038 42.068C39.942 43.756 41.029 44.911 40.452 44.634C39.876 44.358 38.751 44.595 37.952 45.16C36.736 46.021 36.765 46.105 38.128 45.672C39.024 45.389 40.327 45.684 41.025 46.328C42.002 47.231 42.131 47.213 41.588 46.25C40.75 44.766 42.598 44.541 43.51 46.016C43.856 46.575 44.557 46.774 45.069 46.457C45.581 46.141 46 46.434 46 47.108C46 47.782 46.279 48.054 46.621 47.713C46.962 47.371 45.837 45.319 44.121 43.152C41.047 39.271 40.141 37.351 41.895 38.435C42.388 38.74 43.063 38.279 43.395 37.412C44.283 35.099 44.209 34.993 41.75 35.07C39.689 35.135 39.662 35.204 41.427 35.895C43.278 36.62 43.281 36.678 41.507 37.359C40.396 37.785 39.335 37.556 38.845 36.784C37.633 34.873 37.826 34.015 39.5 33.875C42.285 33.643 42.831 33.502 43.488 32.845C43.848 32.485 42.761 31.887 41.072 31.516C39.382 31.145 38 30.58 38 30.261C38 29.943 39.716 27.391 41.813 24.591C46.175 18.768 48.092 15.437 45.2 18.707C44.127 19.922 43.037 20.703 42.778 20.445C42.519 20.186 40.601 21.33 38.516 22.987C33.982 26.591 33.005 26.725 32.985 23.75C32.956 19.471 31.308 18.545 30.585 22.401C30.213 24.38 29.686 26 29.412 26C29.138 26 26.571 24.283 23.707 22.185C16.613 16.988 15.491 16.35 16.513 18.095ZM16.632 51.381L4.792 64H16.744H28.696L30.476 60.054C31.454 57.883 31.996 55.431 31.679 54.605C31.304 53.628 31.567 53.28 32.431 53.612C33.162 53.892 34.92 52.639 36.338 50.827C38.528 48.029 38.688 47.405 37.403 46.686C36.31 46.074 36.182 45.486 36.941 44.571C37.708 43.647 37.451 42.813 35.996 41.497C34.054 39.739 34 39.755 33.986 42.095C33.964 46.056 32.854 49 31.383 49C30.565 49 29.959 47.877 29.9 46.25C29.845 44.737 29.502 42.434 29.136 41.131C28.527 38.958 27.489 39.808 16.632 51.381ZM36 49C35.411 50.1 34.705 51 34.43 51C34.155 51 34.411 50.1 35 49C35.589 47.9 36.295 47 36.57 47C36.845 47 36.589 47.9 36 49Z" fill="#7041FF"/>
<path fill-rule="evenodd" clip-rule="evenodd" d="M0 29.5C0 45.725 0.23 59 0.512 59C1.73 59 21.42 39.747 21.624 38.356C21.909 36.412 23 35.252 23 36.892C23 37.566 23.45 37.84 24 37.5C26.129 36.184 24.799 35.231 19.931 34.585C13.804 33.773 13.785 31.902 19.891 30.695C23.392 30.003 23.922 29.611 22.95 28.44C22.303 27.66 21.305 27.312 20.732 27.666C20.141 28.031 19.989 27.827 20.38 27.194C20.759 26.58 19.704 24.193 18.035 21.889C12.669 14.481 14.515 13.971 23.015 20.511L28.878 25.023L29.705 20.839C30.853 15.035 32.703 14.838 33.542 20.43C33.917 22.932 34.596 24.75 35.051 24.469C35.505 24.188 35.707 23.077 35.5 21.999C35.292 20.922 35.433 20.085 35.811 20.139C37.672 20.404 39.063 19.91 38.594 19.151C38.305 18.685 38.854 17.447 39.813 16.401C40.773 15.356 41.38 13.614 41.163 12.532C40.827 10.853 40.998 10.753 42.324 11.854C43.674 12.975 43.84 12.778 43.582 10.362C43.419 8.831 44.12 6.211 45.139 4.539C46.158 2.868 46.994 1.163 46.996 0.75C46.998 0.337 36.425 0 23.5 0H0V29.5ZM34.683 18.188C34.364 18.985 34.127 18.748 34.079 17.583C34.036 16.529 34.272 15.939 34.604 16.271C34.936 16.603 34.972 17.466 34.683 18.188ZM37.345 17.543C37.019 18.392 36.538 18.872 36.276 18.61C36.014 18.348 36.096 17.653 36.459 17.067C37.445 15.471 38.021 15.781 37.345 17.543ZM41.721 17.714C41.992 18.421 42.336 19 42.485 19C42.633 19 43.235 18.421 43.822 17.714C44.626 16.746 44.437 16.429 43.058 16.429C41.977 16.429 41.429 16.955 41.721 17.714ZM16.513 18.095C16.966 18.868 18.541 21.075 20.015 23C24.723 29.15 26.399 32.089 24.876 31.522C24.119 31.24 22.15 31.406 20.5 31.891L17.5 32.773L21.75 33.514C24.087 33.922 25.993 34.761 25.985 35.378C25.956 37.512 24.24 39.266 22.957 38.474C22.19 38 21.941 38.095 22.324 38.715C22.672 39.278 17.791 44.562 11.478 50.456C0.313 60.88 -1.914 64 1.81 64C3.759 64 17.681 49.366 17.225 47.797C17.074 47.277 17.392 47.124 17.931 47.458C18.471 47.791 19.659 46.924 20.571 45.532C21.483 44.139 22.686 43 23.242 43C23.799 43 22.378 45.036 20.084 47.525C17.79 50.014 16.165 52.458 16.473 52.956C16.781 53.454 16.609 54.124 16.091 54.444C15.573 54.764 15.328 56.439 15.546 58.166C15.916 61.084 15.842 61.171 14.504 59.403C12.913 57.301 12.532 55.593 13.833 56.397C14.292 56.68 14.667 56.255 14.667 55.452C14.667 54.246 14.346 54.282 12.825 55.658C11.066 57.25 11.062 57.414 12.742 59.334C13.97 60.738 14.048 61.074 13 60.45C10.413 58.909 9.228 59.128 6.932 61.573L4.703 63.945L10.079 63.709C14.672 63.507 15.642 63.111 16.74 60.986C17.446 59.619 17.852 57.772 17.641 56.882C17.402 55.878 17.862 55.31 18.854 55.382C19.733 55.447 20.483 54.825 20.521 54C20.56 53.175 21.166 52.624 21.87 52.775C22.573 52.926 22.876 52.608 22.542 52.068C21.626 50.585 18.804 52.048 19.431 53.681C19.734 54.469 19.536 54.831 18.989 54.493C17.426 53.527 17.838 51 19.559 51C20.438 51 20.822 50.52 20.438 49.9C19.988 49.172 20.516 49.206 22 50C23.233 50.66 23.967 50.756 23.632 50.213C23.296 49.671 23.665 48.693 24.452 48.04C25.238 47.388 25.606 46.138 25.271 45.263C24.833 44.122 25.035 43.904 25.985 44.49C26.866 45.035 27.07 44.923 26.595 44.155C26.203 43.52 26.19 42.502 26.566 41.893C27.043 41.122 27.51 41.197 28.11 42.143C28.727 43.118 28.974 42.817 28.985 41.076L29 38.651L26.735 40.78C25.125 42.291 24.039 42.636 22.985 41.969C21.705 41.16 21.725 41.029 23.128 41.015C24.023 41.007 25.315 40.325 26 39.5C28.056 37.022 29.738 37.791 30.439 41.528C31.165 45.397 33 45.335 33 41.441C33 40.098 33.337 39.005 33.75 39.011C34.163 39.016 36.728 40.787 39.452 42.945C42.176 45.103 44.763 46.646 45.202 46.375C45.641 46.104 46 46.434 46 47.108C46 47.782 46.279 48.054 46.621 47.713C47.169 47.164 42.714 40.784 39.264 37.179C37.57 35.407 37.668 34.028 39.5 33.875C42.285 33.643 42.831 33.502 43.488 32.845C43.848 32.485 42.761 31.887 41.072 31.516C39.382 31.145 38 30.58 38 30.261C38 29.943 39.716 27.391 41.813 24.591C46.158 18.791 48.039 15.529 45.326 18.5C43.451 20.554 39.304 21.936 40.416 20.136C40.755 19.587 40.564 18.849 39.992 18.495C39.419 18.141 39.074 18.303 39.225 18.855C39.376 19.407 38.6 20.59 37.5 21.485C35.568 23.055 35.585 23.072 38 21.995C40.441 20.905 40.434 20.939 37.694 23.44C34.24 26.592 33.005 26.673 32.985 23.75C32.956 19.471 31.308 18.545 30.585 22.401C30.213 24.38 29.686 26 29.412 26C29.138 26 26.571 24.283 23.707 22.185C16.613 16.988 15.491 16.35 16.513 18.095ZM41 28C40.411 29.1 40.155 30 40.43 30C40.705 30 41.411 29.1 42 28C42.589 26.9 42.845 26 42.57 26C42.295 26 41.589 26.9 41 28ZM34.079 41.583C34.127 42.748 34.364 42.985 34.683 42.188C34.972 41.466 34.936 40.603 34.604 40.271C34.272 39.939 34.036 40.529 34.079 41.583ZM29.158 46C29.158 47.375 29.385 47.938 29.662 47.25C29.94 46.563 29.94 45.438 29.662 44.75C29.385 44.063 29.158 44.625 29.158 46ZM23.789 47.399C23.08 48.169 22.342 48.649 22.15 48.466C21.557 47.902 23.06 46 24.098 46C24.638 46 24.499 46.63 23.789 47.399Z" fill="#4E32E7"/>
<path fill-rule="evenodd" clip-rule="evenodd" d="M0 13.5C0 21.833 0.383 27 1 27C1.55 27 2 26.161 2 25.135C2 24.109 2.9 22.126 4 20.727C5.1 19.329 6 17.351 6 16.333C6 15.314 6.887 13.927 7.972 13.25C9.128 12.527 9.705 11.394 9.365 10.509C9.036 9.65 9.335 9 10.06 9C10.76 9 11.047 8.713 10.696 8.363C10.346 8.012 10.946 6.48 12.03 4.959C15.18 0.534 14.638 0 7 0H0V13.5ZM13 16.786C13 17.219 14.838 19.581 17.085 22.036C19.333 24.491 20.821 25.825 20.394 25C18.935 22.186 22.37 25.626 24.299 28.911C25.51 30.974 25.674 31.817 24.799 31.492C24.085 31.227 22.15 31.406 20.5 31.891L17.5 32.773L21.75 33.514C24.087 33.922 26 34.611 26 35.046C26 36.806 24.72 39 23.693 39C22.962 39 22.997 38.603 23.8 37.8C25.26 36.34 25.356 35 24 35C23.45 35 23 35.591 23 36.313C23 37.035 21.655 38.915 20.01 40.49C18.366 42.065 17.245 43.579 17.52 43.853C18.173 44.507 13.94 49 12.671 49C12.131 49 12.531 47.987 13.559 46.75C14.587 45.512 12.407 47.412 8.714 50.971C5.021 54.53 2 57.661 2 57.929C2 58.197 4.137 56.412 6.75 53.963C10.376 50.562 10.14 50.934 5.75 55.533C2.587 58.847 0 62.094 0 62.749C0 63.46 1.309 63.871 3.25 63.771C5.744 63.642 7.43 62.546 10.5 59.059C12.7 56.56 13.712 55.129 12.75 55.88C9.643 58.304 10.893 55.496 14.461 52.038C16.365 50.193 17.643 48.192 17.301 47.592C16.959 46.991 17.048 46.834 17.498 47.241C17.948 47.649 19.032 47.438 19.908 46.772C20.784 46.106 20.409 46.784 19.076 48.28C15.364 52.444 17.499 51.513 21.438 47.25L24.903 43.5L22.702 41.79C20.578 40.14 20.573 40.099 22.57 40.609C23.784 40.92 25.178 40.49 25.942 39.57C28.054 37.025 29.732 37.756 30.439 41.528C31.165 45.397 33 45.335 33 41.441C33 40.098 33.337 39.005 33.75 39.011C34.163 39.016 36.728 40.787 39.452 42.945C42.176 45.103 44.763 46.646 45.202 46.375C45.641 46.104 46 46.434 46 47.108C46 47.782 46.279 48.054 46.621 47.713C47.169 47.164 42.714 40.784 39.264 37.179C37.57 35.407 37.668 34.028 39.5 33.875C42.285 33.643 42.831 33.502 43.488 32.845C43.848 32.485 42.761 31.887 41.072 31.516C39.382 31.145 38 30.58 38 30.261C38 29.943 39.716 27.391 41.813 24.591C46.124 18.836 48.075 15.472 45.326 18.535C44.322 19.654 42.375 20.566 41 20.562C39.609 20.559 38.5 21.134 38.5 21.858C38.5 23.175 35.301 26 33.809 26C33.364 26 32.993 24.988 32.985 23.75C32.956 19.471 31.308 18.545 30.585 22.401C30.213 24.38 29.718 26 29.484 26C28.48 26 20.075 19.592 20.509 19.158C20.772 18.894 21.893 19.498 23 20.5C24.107 21.502 25.197 22.136 25.423 21.911C25.648 21.685 23.99 20.176 21.738 18.557C19.486 16.938 17.958 16.124 18.343 16.746C18.784 17.46 18.296 17.823 17.022 17.727C15.91 17.643 15 17.22 15 16.787C15 16.354 14.55 16 14 16C13.45 16 13 16.354 13 16.786ZM42.872 17.75C41.629 19.336 41.664 19.371 43.25 18.128C44.212 17.373 45 16.585 45 16.378C45 15.555 44.179 16.084 42.872 17.75ZM18.847 18.792C20.304 17.653 20.346 17.697 19.201 19.161C18.328 20.279 18.246 21.034 18.951 21.47C19.528 21.826 19.99 22.654 19.978 23.309C19.966 23.964 19.076 23.375 18 22C16.924 20.625 16.07 19.05 16.101 18.5C16.132 17.95 16.391 18.081 16.676 18.792C17.1 19.847 17.497 19.847 18.847 18.792ZM27.5 24C27.84 24.55 28.316 25 28.559 25C28.802 25 29 24.55 29 24C29 23.45 28.523 23 27.941 23C27.359 23 27.16 23.45 27.5 24ZM34 24.059C34 24.641 34.45 24.84 35 24.5C35.55 24.16 36 23.684 36 23.441C36 23.198 35.55 23 35 23C34.45 23 34 23.477 34 24.059ZM41 28C40.411 29.1 40.155 30 40.43 30C40.705 30 41.411 29.1 42 28C42.589 26.9 42.845 26 42.57 26C42.295 26 41.589 26.9 41 28ZM21.638 28.5C21.955 29.325 22.671 30 23.229 30C23.815 30 23.718 29.365 23 28.5C22.315 27.675 21.599 27 21.409 27C21.219 27 21.322 27.675 21.638 28.5ZM17.75 30.662C18.438 30.94 19.563 30.94 20.25 30.662C20.938 30.385 20.375 30.158 19 30.158C17.625 30.158 17.063 30.385 17.75 30.662ZM27.5 40C27.16 40.55 27.359 41 27.941 41C28.523 41 29 40.55 29 40C29 39.45 28.802 39 28.559 39C28.316 39 27.84 39.45 27.5 40ZM34.079 41.583C34.127 42.748 34.364 42.985 34.683 42.188C34.972 41.466 34.936 40.603 34.604 40.271C34.272 39.939 34.036 40.529 34.079 41.583ZM21 41.378C21 41.585 20.212 42.373 19.25 43.128C17.664 44.371 17.629 44.336 18.872 42.75C20.179 41.084 21 40.555 21 41.378ZM22.98 44.524C22.284 45.362 21.509 45.842 21.257 45.591C20.564 44.897 21.973 43 23.181 43C23.845 43 23.769 43.574 22.98 44.524ZM29.079 45.583C29.127 46.748 29.364 46.985 29.683 46.188C29.972 45.466 29.936 44.603 29.604 44.271C29.272 43.939 29.036 44.529 29.079 45.583ZM8.51 59.99C6.935 61.634 5.449 62.782 5.208 62.541C4.791 62.124 10.018 57.098 10.937 57.032C11.177 57.014 10.085 58.345 8.51 59.99Z" fill="#583BB9"/>
<path fill-rule="evenodd" clip-rule="evenodd" d="M0 13.5C0 21.833 0.383 27 1 27C1.55 27 2 26.161 2 25.135C2 24.109 2.9 22.126 4 20.727C5.1 19.329 6 17.351 6 16.333C6 15.314 6.887 13.927 7.972 13.25C9.128 12.527 9.705 11.394 9.365 10.509C9.036 9.65 9.335 9 10.06 9C10.76 9 11.047 8.713 10.696 8.363C10.346 8.012 10.946 6.48 12.03 4.959C15.18 0.534 14.638 0 7 0H0V13.5ZM13 16.734C13 17.26 13.9 18.505 15 19.5C16.1 20.495 17 20.96 17 20.533C17 20.105 17.675 20.315 18.5 21C20.616 22.756 20.378 24.541 18.25 22.872C16.666 21.63 16.63 21.665 17.863 23.239C18.613 24.195 19.591 24.753 20.037 24.477C20.482 24.202 21.708 25.219 22.76 26.738C25.887 31.254 26.215 32.018 24.802 31.493C24.086 31.227 22.15 31.406 20.5 31.891L17.5 32.773L21.75 33.514C24.087 33.922 25.993 34.761 25.985 35.378C25.956 37.512 24.24 39.266 22.957 38.474C22.21 38.012 21.941 38.095 22.301 38.677C23.12 40.004 13.698 49.188 11.911 48.804C11.135 48.637 10.588 48.989 10.696 49.588C10.804 50.186 8.441 53.095 5.446 56.053C-0.207 61.636 -1.288 64 1.81 64C3.701 64 17.686 49.391 17.25 47.871C17.113 47.392 17.396 47.113 17.88 47.25C19.309 47.656 23.971 42.169 22.655 41.63C22.02 41.371 22.232 41.122 23.128 41.079C24.023 41.036 25.315 40.325 26 39.5C28.056 37.022 29.738 37.791 30.439 41.528C31.165 45.397 33 45.335 33 41.441C33 40.098 33.337 39.005 33.75 39.011C34.163 39.016 36.728 40.787 39.452 42.945C42.176 45.103 44.763 46.646 45.202 46.375C45.641 46.104 46 46.434 46 47.108C46 47.782 46.279 48.054 46.621 47.713C47.169 47.164 42.714 40.784 39.264 37.179C37.57 35.407 37.668 34.028 39.5 33.875C42.285 33.643 42.831 33.502 43.488 32.845C43.848 32.485 42.761 31.887 41.072 31.516C39.382 31.145 38 30.58 38 30.261C38 29.943 39.716 27.391 41.813 24.591C46.175 18.768 48.092 15.437 45.2 18.707C44.127 19.922 43.037 20.703 42.778 20.445C42.519 20.186 40.601 21.33 38.516 22.987C33.982 26.591 33.005 26.725 32.985 23.75C32.956 19.471 31.308 18.545 30.585 22.401C30.213 24.38 29.706 26 29.457 26C28.139 26 19.077 18.685 19.516 17.975C19.8 17.515 19.506 16.813 18.862 16.415C18.077 15.93 17.961 16.128 18.51 17.015C19.099 17.969 18.876 18.166 17.715 17.721C16.528 17.265 16.243 17.55 16.635 18.801C17.001 19.968 16.515 19.761 15.084 18.139C13.938 16.841 13 16.209 13 16.734Z" fill="#352ECC"/>
<path fill-rule="evenodd" clip-rule="evenodd" d="M16.513 18.095C16.966 18.868 18.541 21.075 20.015 23C24.723 29.15 26.399 32.089 24.876 31.522C24.119 31.24 22.15 31.406 20.5 31.891L17.5 32.773L21.75 33.514C24.153 33.933 26 34.812 26 35.537C26 36.242 23.202 39.447 19.781 42.659C2.657 58.743 0 61.429 0 62.664C0 65.897 4.139 63.431 10.56 56.371C14.377 52.175 17.388 48.35 17.25 47.871C17.113 47.392 17.396 47.113 17.88 47.25C19.309 47.656 23.971 42.169 22.655 41.63C22.02 41.371 22.232 41.122 23.128 41.079C24.023 41.036 25.315 40.325 26 39.5C28.056 37.022 29.738 37.791 30.439 41.528C31.165 45.397 33 45.335 33 41.441C33 40.098 33.337 39.005 33.75 39.011C34.163 39.016 36.728 40.787 39.452 42.945C42.176 45.103 44.763 46.646 45.202 46.375C45.641 46.104 46 46.434 46 47.108C46 47.782 46.279 48.054 46.621 47.713C47.169 47.164 42.714 40.784 39.264 37.179C37.57 35.407 37.668 34.028 39.5 33.875C42.285 33.643 42.831 33.502 43.488 32.845C43.848 32.485 42.761 31.887 41.072 31.516C39.382 31.145 38 30.58 38 30.261C38 29.943 39.716 27.391 41.813 24.591C46.175 18.768 48.092 15.437 45.2 18.707C44.127 19.922 43.037 20.703 42.778 20.445C42.519 20.186 40.601 21.33 38.516 22.987C33.982 26.591 33.005 26.725 32.985 23.75C32.956 19.471 31.308 18.545 30.585 22.401C30.213 24.38 29.686 26 29.412 26C29.138 26 26.571 24.283 23.707 22.185C16.613 16.988 15.491 16.35 16.513 18.095Z" fill="white"/>
</svg>
