<svg width="65" height="65" viewBox="0 0 65 65" fill="none" xmlns="http://www.w3.org/2000/svg">
<path fill-rule="evenodd" clip-rule="evenodd" d="M18.207 3.584C12.612 6.372 6.319 12.807 3.352 18.775C0.7 24.11 0.7 41.89 3.352 47.225C6.319 53.193 12.612 59.628 18.207 62.416C22.701 64.656 24.674 65 33 65C41.326 65 43.299 64.656 47.793 62.416C53.388 59.628 59.681 53.193 62.648 47.225C65.3 41.89 65.3 24.11 62.648 18.775C59.681 12.807 53.388 6.372 47.793 3.584C40.215 -0.192001 25.785 -0.192001 18.207 3.584Z" fill="#0000FF"/>
<path fill-rule="evenodd" clip-rule="evenodd" d="M21.5 2.182C16.949 3.873 10.354 8.669 7.58 12.306C2.67 18.744 1.045 23.892 1.022 33.09C1.003 40.701 1.35 42.381 4.068 47.821C7.257 54.201 12.6 59.573 18.855 62.686C24.062 65.277 41.938 65.277 47.145 62.686C53.4 59.573 58.743 54.201 61.932 47.821C64.649 42.383 65 40.687 65 33C65 25.313 64.649 23.617 61.932 18.179C58.738 11.787 53.377 6.404 47.145 3.33C42.792 1.184 26.188 0.440003 21.5 2.182Z" fill="#D3E2FF"/>
<path fill-rule="evenodd" clip-rule="evenodd" d="M21.5 2.182C16.949 3.873 10.354 8.669 7.58 12.306C2.67 18.744 1.045 23.892 1.022 33.09C1.003 40.701 1.35 42.381 4.068 47.821C7.257 54.201 12.6 59.573 18.855 62.686C24.062 65.277 41.938 65.277 47.145 62.686C53.4 59.573 58.743 54.201 61.932 47.821C64.649 42.383 65 40.687 65 33C65 25.313 64.649 23.617 61.932 18.179C58.738 11.787 53.377 6.404 47.145 3.33C42.792 1.184 26.188 0.440003 21.5 2.182ZM29.128 25.75C30.371 27.336 30.336 27.371 28.75 26.128C27.084 24.821 26.555 24 27.378 24C27.585 24 28.373 24.788 29.128 25.75ZM39 24.378C39 24.585 38.212 25.373 37.25 26.128C35.664 27.371 35.629 27.336 36.872 25.75C38.179 24.084 39 23.555 39 24.378ZM29.711 36.863C31.198 38.597 30.296 40.011 24.25 45.426L20 49.233V43.095C20 37.493 20.222 36.856 22.539 35.8C24.19 35.048 24.874 34.114 24.496 33.128C24.068 32.013 24.521 32.12 26.207 33.532C27.468 34.588 29.045 36.087 29.711 36.863ZM41.527 32.956C41.202 33.482 42.076 34.659 43.468 35.571C45.719 37.046 46 37.906 46 43.331V49.432L40.507 44.007L35.013 38.581L38.203 35.291C41.365 32.028 42.665 31.115 41.527 32.956Z" fill="#A9C6FF"/>
<path fill-rule="evenodd" clip-rule="evenodd" d="M21.5 2.182C16.949 3.873 10.354 8.669 7.58 12.306C2.67 18.744 1.045 23.892 1.022 33.09C1.003 40.701 1.35 42.381 4.068 47.821C7.257 54.201 12.6 59.573 18.855 62.686C24.062 65.277 41.938 65.277 47.145 62.686C53.4 59.573 58.743 54.201 61.932 47.821C64.649 42.383 65 40.687 65 33C65 25.313 64.649 23.617 61.932 18.179C58.738 11.787 53.377 6.404 47.145 3.33C42.792 1.184 26.188 0.440003 21.5 2.182ZM50.725 25.232C50.502 27.029 50.315 25.8 50.31 22.5C50.304 19.2 50.486 17.729 50.715 19.232C50.943 20.735 50.947 23.435 50.725 25.232ZM29 25.5C30.292 26.875 31.124 28 30.849 28C30.574 28 29.292 26.875 28 25.5C26.708 24.125 25.876 23 26.151 23C26.426 23 27.708 24.125 29 25.5ZM40 23.345C40 23.535 38.987 24.547 37.75 25.595L35.5 27.5L37.405 25.25C39.195 23.136 40 22.545 40 23.345ZM30.015 37.438C30.024 38.022 30.467 37.825 31 37C31.705 35.909 31.974 35.857 31.985 36.81C32.002 38.267 22.203 49 20.855 49C20.385 49 20 46.31 20 43.023C20 37.757 20.296 36.852 22.491 35.414C23.862 34.516 24.697 33.319 24.349 32.755C24 32.191 25.129 32.775 26.857 34.053C28.586 35.331 30.007 36.854 30.015 37.438ZM42.19 32.861C41.203 33.487 41.511 34.105 43.44 35.369C45.714 36.859 46 37.714 46 43.023C46 46.31 45.612 49 45.137 49C44.662 49 42.135 46.713 39.52 43.918L34.767 38.836L38.079 35.418C39.902 33.538 41.867 32.007 42.446 32.015C43.026 32.024 42.911 32.404 42.19 32.861Z" fill="#77A6FF"/>
<path fill-rule="evenodd" clip-rule="evenodd" d="M21.5 2.182C16.949 3.873 10.354 8.669 7.58 12.306C2.67 18.744 1.045 23.892 1.022 33.09C1.003 40.701 1.35 42.381 4.068 47.821C7.257 54.201 12.6 59.573 18.855 62.686C24.062 65.277 41.938 65.277 47.145 62.686C53.4 59.573 58.743 54.201 61.932 47.821C64.649 42.383 65 40.687 65 33C65 25.313 64.649 23.617 61.932 18.179C58.738 11.787 53.377 6.404 47.145 3.33C42.792 1.184 26.188 0.440003 21.5 2.182ZM20.567 19.109C20.941 19.713 20.043 19.419 18.572 18.455L15.897 16.702L16.198 23.022L16.5 29.341L20.543 30.685C22.766 31.424 26.006 33.326 27.743 34.913C29.688 36.689 31.082 37.356 31.372 36.648C31.677 35.903 31.87 35.969 31.921 36.838C32.042 38.885 21.492 49.422 20.152 48.594C18.606 47.639 18.68 38.784 20.25 36.815C20.938 35.954 22.355 34.8 23.399 34.251C25.073 33.372 24.836 33.105 21.399 31.996C19.255 31.305 16.938 30.293 16.25 29.747C14.966 28.728 14.452 17.881 15.631 16.702C16.374 15.96 19.59 17.528 20.567 19.109ZM51 22.937C51 29.066 50.252 30.326 46 31.367C44.227 31.802 44.444 31.546 46.75 30.487C49.895 29.043 50 28.798 50 22.938C50 16.153 50.472 16.192 42.161 22.283C39.224 24.434 36.204 27.614 35.45 29.347C34.696 31.081 34.061 31.813 34.039 30.973C34.018 30.132 34.72 28.418 35.599 27.162C37.693 24.173 49.059 15.919 50.152 16.594C50.618 16.882 51 19.736 51 22.937ZM29.5 26.084C30.6 27.349 29.363 26.627 26.75 24.48C24.137 22.333 22 20.416 22 20.22C22 19.504 27.556 23.848 29.5 26.084ZM42.75 32.75C42.612 33.163 43.513 34.513 44.75 35.75C46.538 37.538 47 39.13 47 43.5C47 47.461 46.621 49 45.645 49C43.642 49 33.988 38.416 34.07 36.31C34.137 34.583 34.173 34.582 34.847 36.288C35.477 37.883 35.868 37.748 38.464 35.038C41.193 32.189 43.314 31.057 42.75 32.75Z" fill="#4485FF"/>
<path fill-rule="evenodd" clip-rule="evenodd" d="M21.5 2.182C16.949 3.873 10.354 8.669 7.58 12.306C2.67 18.744 1.045 23.892 1.022 33.09C1.003 40.701 1.35 42.381 4.068 47.821C7.257 54.201 12.6 59.573 18.855 62.686C24.062 65.277 41.938 65.277 47.145 62.686C53.4 59.573 58.743 54.201 61.932 47.821C64.649 42.383 65 40.687 65 33C65 25.313 64.649 23.617 61.932 18.179C58.738 11.787 53.377 6.404 47.145 3.33C42.792 1.184 26.188 0.440003 21.5 2.182ZM23.735 20.705C27.581 23.449 30.768 26.575 31.383 28.205C32.709 31.717 33.292 31.714 34.623 28.188C35.618 25.552 47.742 16 50.092 16C50.688 16 50.97 18.88 50.794 23.17L50.5 30.34L46.23 31.76L41.959 33.18L44.48 35.163C46.662 36.879 47 37.932 47 43.014C47 46.241 46.507 49.187 45.904 49.559C44.502 50.426 35.098 41.222 34.35 38.25C34.038 37.013 33.431 36 33 36C32.569 36 31.962 37.013 31.65 38.25C30.902 41.222 21.498 50.426 20.096 49.559C19.493 49.187 19 46.23 19 42.988C19 37.939 19.343 36.836 21.392 35.297L23.783 33.5L19.642 31.5L15.5 29.5L15.204 22.75C15.008 18.271 15.284 16 16.025 16C16.639 16 20.109 18.117 23.735 20.705ZM16.199 23.04L16.5 29.341L20.543 30.685C22.766 31.424 26.011 33.331 27.754 34.923C30.71 37.622 30.965 37.687 31.536 35.886C33.166 30.752 28.994 25.031 19.013 18.711L15.898 16.739L16.199 23.04ZM43.17 21.527C36.333 26.509 33.5 31.16 34.61 35.582L35.254 38.147L38.377 35.188C40.095 33.561 43.244 31.617 45.376 30.869C49.975 29.253 50.205 28.797 49.807 22.088L49.5 16.914L43.17 21.527Z" fill="#0080FF"/>
<path fill-rule="evenodd" clip-rule="evenodd" d="M18.222 4.047C11.236 7.538 6.755 12.183 3.378 19.435C0.0160002 26.655 0.0160002 39.345 3.378 46.565C6.755 53.817 11.236 58.462 18.222 61.953C23.612 64.647 25.326 65 33 65C40.674 65 42.388 64.647 47.778 61.953C54.764 58.462 59.245 53.817 62.622 46.565C64.52 42.489 64.982 39.823 64.99 32.91C64.999 25.325 64.643 23.605 61.953 18.222C58.462 11.236 53.817 6.755 46.565 3.378C42.489 1.48 39.823 1.018 32.91 1.01C25.325 1.001 23.605 1.357 18.222 4.047ZM23.735 20.705C27.581 23.449 30.768 26.575 31.383 28.205C32.709 31.717 33.292 31.714 34.623 28.188C35.618 25.552 47.742 16 50.092 16C50.688 16 50.97 18.88 50.794 23.17L50.5 30.34L46.23 31.76L41.959 33.18L44.48 35.163C46.662 36.879 47 37.932 47 43.014C47 46.241 46.507 49.187 45.904 49.559C44.502 50.426 35.098 41.222 34.35 38.25C34.038 37.013 33.431 36 33 36C32.569 36 31.962 37.013 31.65 38.25C30.902 41.222 21.498 50.426 20.096 49.559C19.493 49.187 19 46.23 19 42.988C19 37.939 19.343 36.836 21.392 35.297L23.783 33.5L19.642 31.5L15.5 29.5L15.204 22.75C15.008 18.271 15.284 16 16.025 16C16.639 16 20.109 18.117 23.735 20.705ZM16.199 23.04L16.5 29.341L20.543 30.685C22.766 31.424 26.011 33.331 27.754 34.923C30.71 37.622 30.965 37.687 31.536 35.886C33.166 30.752 28.994 25.031 19.013 18.711L15.898 16.739L16.199 23.04ZM43.17 21.527C36.333 26.509 33.5 31.16 34.61 35.582L35.254 38.147L38.377 35.188C40.095 33.561 43.244 31.617 45.376 30.869C49.975 29.253 50.205 28.797 49.807 22.088L49.5 16.914L43.17 21.527Z" fill="#2470FF"/>
<path fill-rule="evenodd" clip-rule="evenodd" d="M16.199 23.04L16.5 29.341L20.543 30.685C22.766 31.424 26.011 33.331 27.754 34.923C30.71 37.622 30.965 37.687 31.536 35.886C33.166 30.752 28.994 25.031 19.013 18.711L15.898 16.739L16.199 23.04ZM43.17 21.527C36.333 26.509 33.5 31.16 34.61 35.582L35.254 38.147L38.377 35.188C40.095 33.561 43.244 31.617 45.376 30.869C49.975 29.253 50.205 28.797 49.807 22.088L49.5 16.914L43.17 21.527Z" fill="white"/>
</svg>
