<svg width="32" height="64" viewBox="0 0 64 64" fill="none" xmlns="http://www.w3.org/2000/svg">
<path fill-rule="evenodd" clip-rule="evenodd" d="M0 32V64H32H64V32V0H32H0V32Z" fill="#FFFEFF"/>
<path fill-rule="evenodd" clip-rule="evenodd" d="M0 32V64H32H64V32V0H32H0V32ZM33.45 4.87C32.928 5.348 30.7 6.001 28.5 6.321C24.645 6.882 24.591 6.852 27 5.487C29.73 3.94 35.018 3.434 33.45 4.87ZM27.851 13.75C26.972 18.441 27.372 29.174 28.493 30.989C28.813 31.507 27.716 31.83 26.038 31.713L23.004 31.5L23.002 23.315C23 14.159 24.021 10.393 26.693 9.7C27.687 9.443 28.554 9.18 28.621 9.116C28.687 9.052 28.341 11.137 27.851 13.75ZM33 14C34.293 14.835 34.266 14.971 32.809 14.985C31.879 14.993 30.84 14.55 30.5 14C29.718 12.734 31.042 12.734 33 14ZM35.722 28.611C35.455 28.879 33.945 28.758 32.368 28.342L29.5 27.588L32.5 27.012C35.208 26.492 36.968 27.365 35.722 28.611ZM41 26.378C41 26.585 40.315 27.324 39.477 28.019C38.204 29.076 38.057 29.014 38.584 27.641C39.122 26.24 41 25.257 41 26.378ZM35.75 30.324C37.106 30.334 37.566 46.92 36.375 52.875C35.834 55.579 35.329 55.998 32.625 55.986C27.525 55.964 25 54.928 25 52.858C25 51.541 25.922 50.766 27.977 50.355C33.278 49.294 33.11 41.339 27.694 36.953C25.586 35.246 26.077 33 28.559 33C29.352 33 30 32.07 30 30.933C30 29.241 30.409 28.997 32.25 29.59C33.487 29.988 35.063 30.319 35.75 30.324ZM32.441 31.445C33.509 32.3 34.821 33 35.358 33C36.628 33 36.061 32.538 33 31.08C30.643 29.958 30.611 29.978 32.441 31.445ZM40.781 42.168C40.569 51.365 40.167 54.447 39.136 54.79C38.035 55.155 37.891 53.922 38.389 48.371C38.728 44.592 39.114 38.913 39.247 35.75C39.38 32.587 39.842 30 40.275 30C40.708 30 40.935 35.476 40.781 42.168ZM24.607 34.582C24.273 35.452 24 37.964 24 40.165C24 42.919 23.61 44.039 22.75 43.756C20.088 42.882 21.312 33 24.082 33C24.705 33 24.941 33.712 24.607 34.582ZM39 57.441C39 57.684 38.55 58.16 38 58.5C37.45 58.84 37 58.641 37 58.059C37 57.477 37.45 57 38 57C38.55 57 39 57.198 39 57.441Z" fill="#B6C7B5"/>
<path fill-rule="evenodd" clip-rule="evenodd" d="M0 31.917V64H32H64V52V40L58.25 39.784C55.087 39.665 50.7 39.544 48.5 39.516C46.3 39.488 44.419 39.248 44.32 38.983C44.221 38.717 43.634 37.167 43.015 35.538C42.16 33.292 42.184 32.024 43.113 30.288C44.085 28.473 44.076 27.51 43.07 25.631C42.373 24.329 41.993 22.416 42.225 21.381C42.457 20.347 42.067 18.315 41.358 16.867C40.65 15.419 40.253 13.281 40.477 12.117C40.702 10.953 40.434 10 39.884 10C39.333 10 39.141 9.581 39.457 9.069C39.774 8.557 39.568 7.851 39 7.5C38.432 7.149 38.21 6.47 38.506 5.991C39.04 5.126 33.096 5.404 27.681 6.496C25.275 6.981 25.055 6.855 26.181 5.637C26.906 4.852 27.837 4.414 28.25 4.664C28.663 4.914 29 4.719 29 4.232C29 3.745 30.463 3.474 32.25 3.629L35.5 3.912L32.5 3.133C29.128 2.258 26.511 3.209 24.814 5.926C23.777 7.586 23.357 7.629 20.367 6.38C18.543 5.618 13.664 5 9.469 5C2.26 5 1.89 4.89 2.187 2.843C2.359 1.657 1.938 0.494 1.25 0.26C0.267 -0.076 0 6.689 0 31.917ZM9.75 1.706C10.988 1.944 13.012 1.944 14.25 1.706C15.488 1.467 14.475 1.272 12 1.272C9.525 1.272 8.512 1.467 9.75 1.706ZM18 2C18.825 2.533 19.95 2.969 20.5 2.969C21.05 2.969 20.825 2.533 20 2C19.175 1.467 18.05 1.031 17.5 1.031C16.95 1.031 17.175 1.467 18 2ZM27.832 13.868C27.169 17.421 27.301 28.5 28.007 28.5C28.087 28.5 28.303 29.279 28.485 30.232C28.754 31.633 28.215 31.896 25.659 31.613L22.5 31.263L22.669 24.382C22.923 14.005 23.298 11.602 24.848 10.417C27.848 8.122 28.718 9.128 27.832 13.868ZM33.872 14.654C33.312 15.329 32.212 15.635 31.427 15.334C29.106 14.443 29.799 13.006 32.445 13.225C34.253 13.374 34.625 13.747 33.872 14.654ZM38 14C38 14.55 37.55 15 37 15C36.45 15 36 14.55 36 14C36 13.45 36.45 13 37 13C37.55 13 38 13.45 38 14ZM42.846 27.463C43.061 28.566 42.771 28.977 42.08 28.549C41.468 28.171 41.277 27.33 41.656 26.681C42.034 26.031 41.398 26.329 40.241 27.342C38.19 29.139 38.152 29.136 38.66 27.194C39.293 24.772 42.36 24.969 42.846 27.463ZM35.722 28.611C35.455 28.879 33.945 28.758 32.368 28.342L29.5 27.588L32.5 27.012C35.208 26.492 36.968 27.365 35.722 28.611ZM35.461 30.365C37.653 30.673 38.728 32.462 37.705 34.101C37.011 35.211 37.011 37.78 37.703 42.117L38.721 48.5L38.676 41.453C38.651 37.578 38.996 33.815 39.443 33.091C39.936 32.295 39.712 31.432 38.878 30.904C37.788 30.213 37.866 30.027 39.25 30.015C40.82 30.002 41 31.229 41 41.929C41 50.522 40.628 54.229 39.67 55.188C38.938 55.919 38.525 57.076 38.753 57.759C38.981 58.442 38.688 59 38.102 59C37.412 59 37.257 57.331 37.66 54.25C38.273 49.57 37.352 48.578 36.5 53C36.259 54.249 35.798 55.536 35.474 55.86C34.386 56.947 28 56.855 28 55.752C28 55.155 27.704 54.963 27.342 55.325C26.473 56.194 24 54.1 24 52.494C24 51.368 26.792 49.903 29.5 49.609C31.186 49.425 32.032 44.674 30.961 41.405C30.403 39.702 28.849 37.722 27.508 37.004C26.166 36.286 25.347 35.247 25.689 34.695C26.04 34.127 25.808 34.001 25.155 34.405C24.52 34.797 24 37.116 24 39.559C24 42.936 23.622 44 22.424 44C21.196 44 20.903 43.06 21.1 39.75C21.425 34.283 22.475 33 26.622 33C29.37 33 30 32.614 30 30.933C30 29.253 30.422 28.993 32.25 29.548C33.487 29.923 34.932 30.291 35.461 30.365ZM32.441 31.445C33.509 32.3 34.821 33 35.358 33C36.628 33 36.061 32.538 33 31.08C30.643 29.958 30.611 29.978 32.441 31.445ZM6 34C6 34.55 5.213 34.993 4.25 34.985C2.754 34.972 2.718 34.828 4 34C5.887 32.78 6 32.78 6 34Z" fill="#6F886A"/>
<path fill-rule="evenodd" clip-rule="evenodd" d="M0 31.917V64H32H64V58.5V53H53.523H43.046L43.131 47L43.215 41H53.774C59.582 41 64.125 40.792 63.87 40.537C63.616 40.282 58.963 39.88 53.531 39.643C44.15 39.234 43.638 39.097 43.305 36.917C42.787 33.524 42.184 33.417 41.391 36.579C40.967 38.267 41.101 39.534 41.726 39.742C42.43 39.977 42.459 41.45 41.816 44.295C41.292 46.608 41.109 49.74 41.408 51.256C41.805 53.268 41.445 54.329 40.076 55.185C39.044 55.829 38.406 56.893 38.657 57.549C38.909 58.205 38.445 58.999 37.626 59.313C36.505 59.743 36.269 59.343 36.67 57.692C37.851 52.83 38.213 49.54 37.493 50.218C37.073 50.613 36.623 51.963 36.493 53.218C36.362 54.473 36.198 55.768 36.128 56.096C35.919 57.073 28 56.772 28 55.787C28 55.289 27.543 55.165 26.984 55.51C26.425 55.856 26.223 56.552 26.536 57.058C26.848 57.563 26.368 57.695 25.468 57.349C24.159 56.847 24.099 56.553 25.166 55.876C26.165 55.243 26.186 55.027 25.25 55.015C24.563 55.007 24 53.827 24 52.393C24 50.507 24.408 49.942 25.474 50.351C26.285 50.663 27.4 50.149 27.955 49.208C28.764 47.838 29.137 47.763 29.841 48.831C30.468 49.783 30.901 49.245 31.362 46.938C31.764 44.929 31.535 43.144 30.754 42.203C30.064 41.372 29.613 40.537 29.75 40.346C30.809 38.88 29.733 37.971 28.308 39.128C27.377 39.883 26.931 39.974 27.317 39.331C27.703 38.687 27.361 37.504 26.557 36.7C25.753 35.896 25.411 34.847 25.798 34.369C26.184 33.89 26.051 33.875 25.5 34.335C24.95 34.794 24.438 36.369 24.361 37.835C24.285 39.301 24.173 41.235 24.111 42.133C24.05 43.032 23.174 43.983 22.165 44.247C20.688 44.633 20.418 44.265 20.781 42.363C21.144 40.465 20.805 40 19.058 40C17.861 40 17.148 39.57 17.473 39.044C17.798 38.518 18.725 38.341 19.532 38.651C20.339 38.96 21 38.926 21 38.575C21 38.223 19.988 37.529 18.75 37.031C17.026 36.338 16.909 36.112 18.25 36.063C19.212 36.029 20 35.586 20 35.079C20 34.573 21.35 33.862 23 33.5C26.306 32.774 27.138 31.039 24.069 31.27C23.007 31.35 22.359 31.772 22.628 32.208C22.898 32.643 22.641 33 22.059 33C21.477 33 21 32.298 21 31.441C21 30.517 20.53 30.173 19.845 30.595C19.13 31.038 18.962 30.87 19.405 30.155C19.797 29.52 19.679 29 19.142 29C18.606 29 17.94 29.562 17.662 30.25C17.299 31.151 17.136 31.168 17.079 30.309C17.036 29.654 17.45 28.84 18 28.5C18.55 28.16 19 27.384 19 26.774C19 26.165 18.707 25.96 18.349 26.318C17.991 26.676 17.151 26.221 16.482 25.306C15.376 23.794 12.402 23.249 4.191 23.055C2.921 23.025 2.141 22.581 2.457 22.069C2.774 21.557 2.575 20.856 2.016 20.51C1.457 20.165 1 17.434 1 14.441C1 10.18 1.338 9 2.559 9C3.416 9 3.871 8.6 3.569 8.112C3.259 7.61 6.607 7.386 11.26 7.598C15.792 7.805 19.95 7.986 20.5 8.002C21.05 8.018 20.825 8.467 20 9C19.175 9.533 19.007 9.976 19.628 9.985C20.248 9.993 21.358 9.212 22.095 8.25C22.831 7.287 23.035 6.839 22.547 7.254C22.059 7.668 20.536 7.271 19.163 6.371C17.161 5.06 15.196 4.859 9.262 5.361L1.859 5.986L2.179 3.33C2.359 1.842 1.95 0.49 1.25 0.254C0.267 -0.0769995 0 6.692 0 31.917ZM9.75 1.706C10.988 1.944 13.012 1.944 14.25 1.706C15.488 1.467 14.475 1.272 12 1.272C9.525 1.272 8.512 1.467 9.75 1.706ZM18 2C18.825 2.533 19.95 2.969 20.5 2.969C21.05 2.969 20.825 2.533 20 2C19.175 1.467 18.05 1.031 17.5 1.031C16.95 1.031 17.175 1.467 18 2ZM27.309 3.516C26.421 4.165 25.996 5.184 26.364 5.779C26.732 6.375 26.575 7.144 26.016 7.49C25.457 7.835 24.988 7.529 24.973 6.809C24.959 6.089 24.18 6.738 23.242 8.25C22.304 9.763 21.191 11 20.768 11C20.346 11 20 11.477 20 12.059C20 12.641 20.498 12.81 21.107 12.434C21.822 11.992 22.026 12.414 21.682 13.625C21.389 14.656 20.854 16.966 20.493 18.759C20.1 20.714 19.408 21.752 18.764 21.354C18.128 20.961 17.982 21.161 18.405 21.845C19.474 23.575 20.991 23.236 21.07 21.25C21.131 19.743 21.269 19.777 22.064 21.5C22.741 22.966 22.865 22.375 22.529 19.288C22.276 16.971 22.511 14.802 23.051 14.468C23.591 14.135 23.772 13.439 23.453 12.923C22.766 11.813 25.817 8.483 26.706 9.372C27.041 9.708 27.88 9.515 28.569 8.943C29.449 8.213 30.044 8.261 30.565 9.106C31.02 9.841 30.887 10.048 30.224 9.638C28.714 8.705 27.534 10.934 28.845 12.245C30.269 13.669 33.088 11.392 32.334 9.427C32.032 8.642 32.244 8 32.805 8C33.918 8 33.869 9.819 32.706 11.681C32.3 12.33 32.425 13.144 32.984 13.49C33.543 13.835 34.045 13.529 34.1 12.809C34.155 12.089 34.56 12.625 35 14C35.559 15.745 35.831 15.958 35.9 14.706C35.955 13.72 36.563 12.985 37.25 13.075C39.726 13.396 40.667 12.975 40.667 11.544C40.667 10.743 40.292 10.32 39.833 10.603C39.144 11.029 38.558 8.27 38.833 5.895C38.898 5.34 34.248 5.499 29.608 6.21C28.567 6.37 27.496 5.875 27.228 5.111C26.931 4.263 27.181 3.994 27.87 4.42C28.492 4.804 29 4.719 29 4.232C29 3.745 30.35 3.545 32 3.787C33.65 4.029 35 4.002 35 3.727C35 2.594 28.803 2.424 27.309 3.516ZM37.729 10.604C37.397 10.936 36.534 10.972 35.813 10.683C35.015 10.364 35.252 10.127 36.417 10.079C37.471 10.036 38.061 10.272 37.729 10.604ZM27.513 16.162C27.032 18.135 27.458 27.971 28.058 28.75C28.712 29.6 28.409 31.612 27.533 32.235C26.932 32.662 27.231 32.976 28.25 32.985C29.338 32.994 30 32.244 30 31C30 29.9 30.477 29 31.059 29C31.641 29 31.854 29.427 31.531 29.95C31.208 30.472 31.827 31.372 32.906 31.95C35.911 33.558 36.835 33.129 34 31.442C31.774 30.118 31.729 29.985 33.596 30.227C36.403 30.592 39 28.29 39 25.437C39 24.161 39.351 22.901 39.78 22.636C41.068 21.84 40.454 26.749 39.054 28.435C37.943 29.774 38.071 30 39.937 30C41.416 30 41.876 30.403 41.367 31.25C40.883 32.056 41.235 31.998 42.356 31.088C44.276 29.53 44.174 25.353 42.226 25.75C40.765 26.048 40.68 24.971 41.912 21.732C43.139 18.504 42.071 17.113 38.135 16.813C36.327 16.676 34.614 16.184 34.328 15.722C34.042 15.259 33.175 15.695 32.402 16.69C31.069 18.405 31.03 18.395 31.657 16.5C32.021 15.4 31.951 14.834 31.501 15.241C31.052 15.649 30.099 15.497 29.383 14.903C28.391 14.08 27.947 14.378 27.513 16.162ZM38.813 15.683C39.534 15.972 40.397 15.936 40.729 15.604C41.061 15.272 40.471 15.036 39.417 15.079C38.252 15.127 38.015 15.364 38.813 15.683ZM17 23.874C17 24.419 17.877 25.144 18.949 25.484C20.128 25.858 20.678 26.675 20.342 27.551C20.002 28.438 20.397 29 21.361 29C22.574 29 22.744 28.483 22.103 26.75C21.645 25.512 20.872 24.493 20.385 24.485C19.898 24.476 18.938 24.112 18.25 23.676C17.557 23.235 17 23.324 17 23.874ZM36.728 27.065C35.417 29.164 34.563 29.316 31.5 28C29.741 27.244 29.838 27.132 32.309 27.07C33.854 27.032 34.898 26.643 34.628 26.208C34.359 25.772 34.993 25.351 36.037 25.272C37.672 25.149 37.768 25.399 36.728 27.065ZM43 27.559C43 28.416 42.543 28.835 41.984 28.49C41.425 28.144 41.226 27.443 41.543 26.931C42.4 25.544 43 25.802 43 27.559ZM37 31.031C37 31.564 37.454 32 38.008 32C38.63 32 38.57 32.716 37.851 33.867C36.991 35.244 36.956 37.414 37.717 42.117L38.749 48.5L38.696 42C38.667 38.425 38.962 34.541 39.351 33.368C39.841 31.894 39.588 31.056 38.53 30.65C37.688 30.327 37 30.499 37 31.031ZM6 34C6 34.55 5.213 34.993 4.25 34.985C2.754 34.972 2.718 34.828 4 34C5.887 32.78 6 32.78 6 34ZM6.397 37.167C6.114 37.625 5.459 38 4.941 38C4.423 38 4 37.625 4 37.167C4 36.708 4.655 36.333 5.456 36.333C6.257 36.333 6.68 36.708 6.397 37.167ZM15.25 36.662C14.563 36.94 13.438 36.94 12.75 36.662C12.063 36.385 12.625 36.158 14 36.158C15.375 36.158 15.938 36.385 15.25 36.662ZM12.75 43.728C10.688 43.944 7.313 43.944 5.25 43.728C3.188 43.513 4.875 43.336 9 43.336C13.125 43.336 14.813 43.513 12.75 43.728ZM46 45.131C46 46.18 52.645 46.124 59.5 45.018C63.88 44.311 63.353 44.214 55.25 44.237C50.163 44.251 46 44.654 46 45.131ZM20.5 50C19.4 50.473 14.45 50.807 9.5 50.743L0.5 50.627L9 50C22.649 48.993 22.844 48.993 20.5 50ZM22 55.214C22 55.646 17.163 55.915 11.25 55.811L0.5 55.622L9.5 55.061C21.604 54.306 22 54.311 22 55.214Z" fill="#546B51"/>
<path fill-rule="evenodd" clip-rule="evenodd" d="M0.216 32.167C0.335 49.95 0.574 58.988 0.747 52.25C1.102 38.436 0.141 39.629 10.644 39.959C14.023 40.065 17.075 39.687 17.426 39.119C17.777 38.552 18.798 38.369 19.696 38.714C20.787 39.132 21.088 38.952 20.605 38.17C20.207 37.526 19.121 36.964 18.191 36.921C16.811 36.857 16.776 36.737 18 36.271C19.938 35.534 20.966 33.956 20.985 31.691C20.994 30.532 20.551 30.136 19.75 30.588C18.75 31.152 18.75 31.024 19.75 29.947C20.438 29.206 21 28.171 21 27.647C21 27.123 20.1 27.732 19 29C16.637 31.724 16.358 30.909 18.523 27.606C19.886 25.525 19.886 25.15 18.523 24.019C17.481 23.154 17 23.109 17 23.878C17 24.495 17.477 25 18.059 25C18.641 25 18.823 25.477 18.463 26.06C18.047 26.733 17.344 26.485 16.537 25.382C15.372 23.789 12.561 23.256 4.25 23.055C3.013 23.025 2.071 22.663 2.159 22.25C2.246 21.838 1.963 20.688 1.531 19.695C0.81 18.041 1.237 5.356 2.123 2.125C2.33 1.369 1.938 0.544001 1.25 0.292001C0.264 -0.0699991 0.0460002 6.65 0.216 32.167ZM9.75 1.706C10.988 1.944 13.012 1.944 14.25 1.706C15.488 1.467 14.475 1.272 12 1.272C9.525 1.272 8.512 1.467 9.75 1.706ZM18 2C18.825 2.533 19.95 2.969 20.5 2.969C21.05 2.969 20.825 2.533 20 2C19.175 1.467 18.05 1.031 17.5 1.031C16.95 1.031 17.175 1.467 18 2ZM27.509 3.255C26.499 3.82 26.137 4.856 26.524 6.074C26.86 7.133 26.692 8 26.151 8C25.609 8 24.983 7.449 24.759 6.776C24.534 6.102 24.089 6.552 23.769 7.775C23.449 8.998 23.665 10.293 24.248 10.654C24.872 11.039 25.015 10.833 24.595 10.155C24.177 9.477 24.505 9 25.391 9C26.221 9 27.306 9.724 27.801 10.609C28.624 12.079 28.757 12.074 29.34 10.558C29.714 9.581 29.569 9.148 28.989 9.507C28.445 9.843 28 9.641 28 9.059C28 7.657 29.698 7.703 30.579 9.128C31.056 9.9 31.565 9.742 32.188 8.628C32.689 7.733 33.865 7.007 34.8 7.015C36.135 7.027 36.209 7.215 35.143 7.89C34.186 8.497 34.554 8.75 36.393 8.75C39.7 8.75 39.715 7.721 36.435 5.965C34.351 4.85 33.72 4.835 33.072 5.884C32.062 7.517 27.807 6.957 27.199 5.111C26.921 4.268 27.185 3.996 27.87 4.42C28.492 4.804 29 4.719 29 4.232C29 3.745 30.35 3.545 32 3.787C33.65 4.029 35 4.002 35 3.727C35 2.75 29.079 2.377 27.509 3.255ZM9.768 5.725C11.565 5.947 14.265 5.943 15.768 5.715C17.271 5.486 15.8 5.304 12.5 5.31C9.2 5.315 7.971 5.502 9.768 5.725ZM35 13.059C35 13.641 35.45 13.84 36 13.5C36.55 13.16 37 12.684 37 12.441C37 12.198 36.55 12 36 12C35.45 12 35 12.477 35 13.059ZM38 12.969C38 13.501 38.675 13.678 39.5 13.362C40.325 13.045 41 12.609 41 12.393C41 12.177 40.325 12 39.5 12C38.675 12 38 12.436 38 12.969ZM27.546 15.854C27.205 16.931 27.034 19.43 27.167 21.406L27.409 25H32.844C36.808 25 38.668 24.526 39.714 23.25C40.503 22.288 40.82 22.132 40.42 22.905C39.975 23.761 40.094 24.06 40.725 23.67C42.096 22.823 43.063 19 41.906 19C41.408 19 41 19.45 41 20C41 21.235 30.329 21.341 29.57 20.113C29.269 19.626 29.692 18.671 30.511 17.991C31.33 17.311 32 16.285 32 15.711C32 15.137 31.704 14.963 31.342 15.325C30.98 15.687 30.118 15.513 29.426 14.939C28.502 14.171 28.003 14.414 27.546 15.854ZM38.813 15.683C39.534 15.972 40.397 15.936 40.729 15.604C41.061 15.272 40.471 15.036 39.417 15.079C38.252 15.127 38.015 15.364 38.813 15.683ZM22.158 21C22.158 22.375 22.385 22.938 22.662 22.25C22.94 21.563 22.94 20.438 22.662 19.75C22.385 19.063 22.158 19.625 22.158 21ZM40.149 25.843C40.41 27.798 39.841 28.321 38.89 27C37.974 25.726 37.894 25.759 38.362 27.218C38.665 28.163 38.482 29.202 37.956 29.527C37.43 29.852 36.993 29.304 36.985 28.309C36.973 26.964 36.756 26.836 36.14 27.808C35.567 28.711 34.41 28.879 32.405 28.352L29.5 27.588L32.5 26.912L35.5 26.237L31.917 26.118C27.924 25.986 26.562 26.767 27.924 28.408C29.322 30.092 29.295 31.197 27.835 32.123C26.812 32.772 26.908 32.973 28.25 32.985C29.338 32.994 30 32.244 30 31C30 29.9 30.477 29 31.059 29C31.641 29 31.854 29.427 31.531 29.95C31.208 30.472 31.827 31.372 32.906 31.95C35.9 33.552 36.845 33.131 34 31.463L31.5 29.996L34 30.273C38.017 30.719 39.146 31.794 37.822 33.914C36.998 35.233 36.965 37.493 37.703 42.117L38.721 48.5L38.676 41.453C38.651 37.578 38.996 33.815 39.443 33.091C39.936 32.295 39.712 31.432 38.878 30.904C37.861 30.259 38.105 30.027 39.809 30.015C41.392 30.005 41.882 30.393 41.367 31.25C40.883 32.056 41.235 31.998 42.356 31.088C44.491 29.355 44.126 25.771 41.781 25.434C40.836 25.297 40.101 25.482 40.149 25.843ZM43 27.559C43 28.416 42.543 28.835 41.984 28.49C41.425 28.144 41.226 27.443 41.543 26.931C42.4 25.544 43 25.802 43 27.559ZM22.333 32.563C22.333 33.202 23.158 33.51 24.167 33.246C26.547 32.624 26.547 31.083 24.167 31.262C23.158 31.338 22.333 31.924 22.333 32.563ZM6 34C6 34.55 5.213 34.993 4.25 34.985C2.754 34.972 2.718 34.828 4 34C5.887 32.78 6 32.78 6 34ZM24.847 34.75C24.764 35.163 24.607 36.625 24.5 38C24.393 39.375 24.236 41.235 24.153 42.133C24.069 43.032 23.098 44.003 21.996 44.291C20.662 44.64 20.196 45.346 20.601 46.402C20.936 47.274 21.612 47.74 22.105 47.435C22.597 47.131 23 47.343 23 47.906C23 48.469 23.89 49.406 24.977 49.988C26.591 50.851 26.847 50.766 26.371 49.523C25.966 48.468 26.408 48 27.81 48C28.923 48 30.06 48.563 30.338 49.25C30.615 49.938 30.934 49.487 31.046 48.25C31.158 47.013 31.335 45.438 31.44 44.75C31.544 44.063 31.382 43.05 31.08 42.5C30.504 41.452 30.332 40.783 30.125 38.8C30.028 37.867 29.733 37.867 28.8 38.8C27.014 40.586 26.066 40.256 26.5 38C26.712 36.9 26.434 36 25.884 36C25.333 36 25.16 35.55 25.5 35C25.84 34.45 25.866 34 25.559 34C25.252 34 24.931 34.337 24.847 34.75ZM42.168 37.001L42.5 40.5L53.453 40.786C66.995 41.139 67.057 40.233 53.531 39.643C44.15 39.234 43.638 39.097 43.305 36.917C42.73 33.151 41.809 33.219 42.168 37.001ZM6.397 37.167C6.114 37.625 5.459 38 4.941 38C4.423 38 4 37.625 4 37.167C4 36.708 4.655 36.333 5.456 36.333C6.257 36.333 6.68 36.708 6.397 37.167ZM15.25 36.662C14.563 36.94 13.438 36.94 12.75 36.662C12.063 36.385 12.625 36.158 14 36.158C15.375 36.158 15.938 36.385 15.25 36.662ZM46 45.131C46 46.18 52.645 46.124 59.5 45.018C63.88 44.311 63.353 44.214 55.25 44.237C50.163 44.251 46 44.654 46 45.131ZM18 48C18 48.55 18.477 49 19.059 49C19.641 49 19.84 48.55 19.5 48C19.16 47.45 18.684 47 18.441 47C18.198 47 18 47.45 18 48ZM36.7 51.341C36.417 52.078 36.587 53.316 37.077 54.091C37.727 55.116 37.974 54.751 37.985 52.75C38.001 49.764 37.511 49.226 36.7 51.341ZM22.602 55.836C21.833 57.08 23.497 62.533 24.572 62.29C25.962 61.975 26.324 58 24.963 58C24.315 58 24.045 57.325 24.362 56.5C24.963 54.934 23.5 54.382 22.602 55.836ZM26.609 55.824C26.256 56.395 26.455 57.163 27.05 57.531C28.536 58.449 29.062 57.719 28.071 56.114C27.539 55.255 27.024 55.152 26.609 55.824ZM35.323 59.601C34.504 61.735 36.364 62.747 40.099 62.199C43.728 61.666 42.55 59.75 38.593 59.75C37.187 59.75 36.28 59.356 36.577 58.875C36.875 58.394 36.852 58 36.528 58C36.203 58 35.661 58.72 35.323 59.601Z" fill="#000400"/>
<path fill-rule="evenodd" clip-rule="evenodd" d="M0.216 32.167C0.335 49.95 0.574 58.988 0.747 52.25C1.102 38.436 0.141 39.629 10.644 39.959C14.023 40.065 17.075 39.687 17.426 39.119C17.777 38.552 18.798 38.369 19.696 38.714C20.787 39.132 21.088 38.952 20.605 38.17C20.207 37.526 19.121 36.964 18.191 36.921C16.811 36.857 16.776 36.737 18 36.271C19.938 35.534 20.966 33.956 20.985 31.691C20.994 30.532 20.551 30.136 19.75 30.588C18.75 31.152 18.75 31.024 19.75 29.947C20.438 29.206 21 28.171 21 27.647C21 27.123 20.1 27.732 19 29C16.637 31.724 16.358 30.909 18.523 27.606C19.886 25.525 19.886 25.15 18.523 24.019C17.481 23.154 17 23.109 17 23.878C17 24.495 17.477 25 18.059 25C18.641 25 18.823 25.477 18.463 26.06C18.047 26.733 17.344 26.485 16.537 25.382C15.372 23.789 12.561 23.256 4.25 23.055C3.013 23.025 2.071 22.663 2.159 22.25C2.246 21.838 1.963 20.688 1.531 19.695C0.81 18.041 1.237 5.356 2.123 2.125C2.33 1.369 1.938 0.544001 1.25 0.292001C0.264 -0.0699991 0.0460002 6.65 0.216 32.167ZM9.75 1.706C10.988 1.944 13.012 1.944 14.25 1.706C15.488 1.467 14.475 1.272 12 1.272C9.525 1.272 8.512 1.467 9.75 1.706ZM18 2C18.825 2.533 19.95 2.969 20.5 2.969C21.05 2.969 20.825 2.533 20 2C19.175 1.467 18.05 1.031 17.5 1.031C16.95 1.031 17.175 1.467 18 2ZM27.212 3.6C25.8 4.643 25.73 5.096 26.809 6.183C27.89 7.27 27.991 7.166 27.389 5.586C26.88 4.25 27.014 3.89 27.83 4.395C28.474 4.793 29 4.719 29 4.232C29 3.745 30.35 3.545 32 3.787C33.65 4.029 35 4.002 35 3.727C35 2.548 28.773 2.446 27.212 3.6ZM9.768 5.725C11.565 5.947 14.265 5.943 15.768 5.715C17.271 5.486 15.8 5.304 12.5 5.31C9.2 5.315 7.971 5.502 9.768 5.725ZM33.813 5.683C34.534 5.972 35.397 5.936 35.729 5.604C36.061 5.272 35.471 5.036 34.417 5.079C33.252 5.127 33.015 5.364 33.813 5.683ZM35.143 7.89C34.186 8.497 34.554 8.75 36.393 8.75C37.827 8.75 39 8.356 39 7.875C39 6.763 36.909 6.771 35.143 7.89ZM29.49 9.016C29.144 9.575 28.448 9.777 27.942 9.464C27.437 9.152 27.31 9.644 27.66 10.558C28.248 12.088 28.37 12.09 29.21 10.588C29.712 9.692 30.545 9.219 31.061 9.538C31.578 9.857 32 9.641 32 9.059C32 7.71 30.315 7.681 29.49 9.016ZM35 13.059C35 13.641 35.45 13.84 36 13.5C36.55 13.16 37 12.684 37 12.441C37 12.198 36.55 12 36 12C35.45 12 35 12.477 35 13.059ZM38 12.969C38 13.501 38.675 13.678 39.5 13.362C40.325 13.045 41 12.609 41 12.393C41 12.177 40.325 12 39.5 12C38.675 12 38 12.436 38 12.969ZM27.546 15.854C27.205 16.931 27.034 19.43 27.167 21.406L27.409 25H32.844C36.808 25 38.668 24.526 39.714 23.25C40.503 22.288 40.82 22.132 40.42 22.905C39.975 23.761 40.094 24.06 40.725 23.67C42.096 22.823 43.063 19 41.906 19C41.408 19 41 19.45 41 20C41 21.235 30.329 21.341 29.57 20.113C29.269 19.626 29.692 18.671 30.511 17.991C31.33 17.311 32 16.285 32 15.711C32 15.137 31.704 14.963 31.342 15.325C30.98 15.687 30.118 15.513 29.426 14.939C28.502 14.171 28.003 14.414 27.546 15.854ZM38.813 15.683C39.534 15.972 40.397 15.936 40.729 15.604C41.061 15.272 40.471 15.036 39.417 15.079C38.252 15.127 38.015 15.364 38.813 15.683ZM22.158 21C22.158 22.375 22.385 22.938 22.662 22.25C22.94 21.563 22.94 20.438 22.662 19.75C22.385 19.063 22.158 19.625 22.158 21ZM40.149 25.843C40.41 27.798 39.841 28.321 38.89 27C37.974 25.726 37.894 25.759 38.362 27.218C38.665 28.163 38.482 29.202 37.956 29.527C37.43 29.852 36.993 29.304 36.985 28.309C36.973 26.964 36.756 26.836 36.14 27.808C35.567 28.711 34.41 28.879 32.405 28.352L29.5 27.588L32.5 26.912L35.5 26.237L31.917 26.118C27.924 25.986 26.562 26.767 27.924 28.408C29.322 30.092 29.295 31.197 27.835 32.123C26.812 32.772 26.908 32.973 28.25 32.985C29.338 32.994 30 32.244 30 31C30 29.9 30.477 29 31.059 29C31.641 29 31.854 29.427 31.531 29.95C31.208 30.472 31.827 31.372 32.906 31.95C35.9 33.552 36.845 33.131 34 31.463L31.5 29.996L34 30.273C38.017 30.719 39.146 31.794 37.822 33.914C36.998 35.233 36.965 37.493 37.703 42.117L38.721 48.5L38.676 41.453C38.651 37.578 38.996 33.815 39.443 33.091C39.936 32.295 39.712 31.432 38.878 30.904C37.861 30.259 38.105 30.027 39.809 30.015C41.392 30.005 41.882 30.393 41.367 31.25C40.883 32.056 41.235 31.998 42.356 31.088C44.491 29.355 44.126 25.771 41.781 25.434C40.836 25.297 40.101 25.482 40.149 25.843ZM43 27.559C43 28.416 42.543 28.835 41.984 28.49C41.425 28.144 41.226 27.443 41.543 26.931C42.4 25.544 43 25.802 43 27.559ZM22.333 32.563C22.333 33.202 23.158 33.51 24.167 33.246C26.547 32.624 26.547 31.083 24.167 31.262C23.158 31.338 22.333 31.924 22.333 32.563ZM6 34C6 34.55 5.213 34.993 4.25 34.985C2.754 34.972 2.718 34.828 4 34C5.887 32.78 6 32.78 6 34ZM24.847 34.75C24.764 35.163 24.607 36.625 24.5 38C24.393 39.375 24.236 41.235 24.153 42.133C24.069 43.032 23.098 44.003 21.996 44.291C20.662 44.64 20.196 45.346 20.601 46.402C20.936 47.274 21.612 47.74 22.105 47.435C22.597 47.131 23 47.343 23 47.906C23 48.469 23.89 49.406 24.977 49.988C26.591 50.851 26.847 50.766 26.371 49.523C25.966 48.468 26.408 48 27.81 48C28.923 48 30.06 48.563 30.338 49.25C30.615 49.938 30.934 49.487 31.046 48.25C31.158 47.013 31.335 45.438 31.44 44.75C31.544 44.063 31.382 43.05 31.08 42.5C30.504 41.452 30.332 40.783 30.125 38.8C30.028 37.867 29.733 37.867 28.8 38.8C27.014 40.586 26.066 40.256 26.5 38C26.712 36.9 26.434 36 25.884 36C25.333 36 25.16 35.55 25.5 35C25.84 34.45 25.866 34 25.559 34C25.252 34 24.931 34.337 24.847 34.75ZM42.168 37.001L42.5 40.5L53.453 40.786C66.995 41.139 67.057 40.233 53.531 39.643C44.15 39.234 43.638 39.097 43.305 36.917C42.73 33.151 41.809 33.219 42.168 37.001ZM6.397 37.167C6.114 37.625 5.459 38 4.941 38C4.423 38 4 37.625 4 37.167C4 36.708 4.655 36.333 5.456 36.333C6.257 36.333 6.68 36.708 6.397 37.167ZM15.25 36.662C14.563 36.94 13.438 36.94 12.75 36.662C12.063 36.385 12.625 36.158 14 36.158C15.375 36.158 15.938 36.385 15.25 36.662ZM46 45.131C46 46.18 52.645 46.124 59.5 45.018C63.88 44.311 63.353 44.214 55.25 44.237C50.163 44.251 46 44.654 46 45.131ZM36.7 51.341C36.417 52.078 36.587 53.316 37.077 54.091C37.727 55.116 37.974 54.751 37.985 52.75C38.001 49.764 37.511 49.226 36.7 51.341ZM26.609 55.824C26.256 56.395 26.455 57.163 27.05 57.531C28.536 58.449 29.062 57.719 28.071 56.114C27.539 55.255 27.024 55.152 26.609 55.824Z" fill="#ABA460"/>
<path fill-rule="evenodd" clip-rule="evenodd" d="M0 3.117C0 5.13 0.354 6.033 0.916 5.45C2.399 3.913 2.603 0.744 1.25 0.27C0.415 -0.0219996 0 0.924001 0 3.117ZM0.217 24.289C0.032 37.725 0.207 39.887 1.389 38.789C2.397 37.854 2.466 37.294 1.639 36.75C0.829 36.216 0.933 35.716 2 35.015C2.955 34.389 3.056 34.025 2.28 34.015C1.401 34.004 0.972 30.435 0.747 21.25L0.435 8.5L0.217 24.289ZM27.613 10.183C27.902 10.65 28.557 10.774 29.069 10.457C30.377 9.649 30.23 9.333 28.544 9.333C27.743 9.333 27.324 9.716 27.613 10.183ZM28.872 17.75C27.629 19.336 27.664 19.371 29.25 18.128C30.916 16.821 31.445 16 30.622 16C30.415 16 29.627 16.788 28.872 17.75ZM22.158 21C22.158 22.375 22.385 22.938 22.662 22.25C22.94 21.563 22.94 20.438 22.662 19.75C22.385 19.063 22.158 19.625 22.158 21ZM29.015 22.75C29.024 23.749 29.351 24.071 29.777 23.5C30.187 22.95 30.931 22.163 31.428 21.75C31.926 21.337 31.583 21 30.667 21C29.74 21 29.007 21.777 29.015 22.75ZM36.25 22.22C35.013 22.817 34 23.591 34 23.94C34 24.289 35.013 24.624 36.25 24.685C37.487 24.746 37.869 24.557 37.099 24.264C36.081 23.878 36.355 23.368 38.099 22.402C40.962 20.815 39.468 20.668 36.25 22.22ZM40.035 25.5C40.464 27.625 39.927 28.433 39.029 27.013C38.287 25.84 38.124 25.992 38.255 27.734C38.378 29.367 39.004 29.895 40.656 29.758C42.481 29.607 42.671 29.309 41.695 28.133C41.038 27.341 40.65 26.499 40.833 26.263C41.017 26.027 40.867 25.533 40.5 25.167C40.133 24.8 39.924 24.95 40.035 25.5ZM27.543 26.931C27.226 27.443 27.432 28.149 28 28.5C28.568 28.851 28.774 29.557 28.457 30.069C28.141 30.581 28.359 31 28.941 31C29.523 31 30 30.55 30 30C30 29.45 30.477 29 31.059 29C31.641 29 31.854 29.427 31.531 29.95C31.208 30.472 31.827 31.372 32.906 31.95C35.911 33.558 36.835 33.129 34 31.442L31.5 29.955L33.975 30.228C35.792 30.428 36.538 29.968 36.779 28.5C37.015 27.064 36.854 26.869 36.209 27.808C35.591 28.707 34.402 28.877 32.405 28.352L29.5 27.588L32.5 26.912C35.457 26.246 35.448 26.235 31.809 26.118C29.779 26.053 27.859 26.419 27.543 26.931ZM23.065 32.421C22.097 33.588 22.255 33.746 23.943 33.305C25.074 33.009 26 32.369 26 31.883C26 30.535 24.386 30.83 23.065 32.421ZM38.164 31.75C38.254 32.163 37.989 33.702 37.575 35.172C37.161 36.641 37.265 40.241 37.806 43.172L38.79 48.5L38.716 42C38.676 38.425 38.978 34.487 39.389 33.25C39.851 31.856 39.729 31 39.067 31C38.48 31 38.074 31.337 38.164 31.75ZM27.813 32.683C28.534 32.972 29.397 32.936 29.729 32.604C30.061 32.272 29.471 32.036 28.417 32.079C27.252 32.127 27.015 32.364 27.813 32.683ZM24.733 36.124C25.412 36.808 26.219 37.115 26.526 36.807C26.834 36.499 26.279 35.94 25.293 35.564C23.868 35.022 23.753 35.136 24.733 36.124ZM28.556 38.91C28.247 39.41 28.268 40.535 28.604 41.41C28.939 42.284 28.828 43.057 28.357 43.128C27.886 43.198 26.458 43.363 25.183 43.494C22.571 43.764 20.388 45.504 21.669 46.295C23.64 47.514 27.779 45.644 29.479 42.767C30.594 40.878 30.784 40.015 29.974 40.516C29.024 41.103 28.837 40.867 29.299 39.664C29.98 37.89 29.492 37.395 28.556 38.91ZM47.762 39.707C49.006 39.946 50.806 39.937 51.762 39.687C52.718 39.437 51.7 39.241 49.5 39.252C47.3 39.263 46.518 39.468 47.762 39.707ZM25 41C25 41.55 25.45 42 26 42C26.55 42 27 41.55 27 41C27 40.45 26.55 40 26 40C25.45 40 25 40.45 25 41ZM29.015 46.75C29.024 47.749 29.351 48.071 29.777 47.5C30.187 46.95 30.931 46.163 31.428 45.75C31.926 45.337 31.583 45 30.667 45C29.74 45 29.007 45.777 29.015 46.75ZM26.543 55.931C26.226 56.443 26.425 57.144 26.984 57.49C27.543 57.835 28 57.416 28 56.559C28 54.802 27.4 54.544 26.543 55.931Z" fill="#DED5D0"/>
<path fill-rule="evenodd" clip-rule="evenodd" d="M0 3.117C0 5.13 0.354 6.033 0.916 5.45C2.399 3.913 2.603 0.744 1.25 0.27C0.415 -0.0219996 0 0.924001 0 3.117ZM0.217 24.289C0.032 37.725 0.207 39.887 1.389 38.789C2.397 37.854 2.466 37.294 1.639 36.75C0.829 36.216 0.933 35.716 2 35.015C2.955 34.389 3.056 34.025 2.28 34.015C1.401 34.004 0.972 30.435 0.747 21.25L0.435 8.5L0.217 24.289ZM28.872 17.75C27.629 19.336 27.664 19.371 29.25 18.128C30.916 16.821 31.445 16 30.622 16C30.415 16 29.627 16.788 28.872 17.75ZM29.015 22.75C29.024 23.749 29.351 24.071 29.777 23.5C30.187 22.95 30.931 22.163 31.428 21.75C31.926 21.337 31.583 21 30.667 21C29.74 21 29.007 21.777 29.015 22.75ZM36.25 22.22C35.013 22.817 34 23.591 34 23.94C34 24.289 35.013 24.624 36.25 24.685C37.487 24.746 37.869 24.557 37.099 24.264C36.081 23.878 36.355 23.368 38.099 22.402C40.962 20.815 39.468 20.668 36.25 22.22ZM25 41.059C25 41.641 25.45 41.84 26 41.5C26.55 41.16 27 40.684 27 40.441C27 40.198 26.55 40 26 40C25.45 40 25 40.477 25 41.059ZM26.613 43.437C24.638 44.309 24.117 44.954 24.964 45.478C25.699 45.932 27.064 45.381 28.323 44.121C30.729 41.716 30.615 41.67 26.613 43.437ZM29.015 46.75C29.024 47.749 29.351 48.071 29.777 47.5C30.187 46.95 30.931 46.163 31.428 45.75C31.926 45.337 31.583 45 30.667 45C29.74 45 29.007 45.777 29.015 46.75Z" fill="#C2B662"/>
</svg>
