<svg width="250" height="250" viewBox="0 0 250 250" fill="none" xmlns="http://www.w3.org/2000/svg">
<path fill-rule="evenodd" clip-rule="evenodd" d="M0 125V250H125H250V125V0H125H0V125Z" fill="#F9D1D6"/>
<path fill-rule="evenodd" clip-rule="evenodd" d="M0 125V250H125H250V125V0H125H0V125ZM120.25 24.662C119.563 24.94 118.438 24.94 117.75 24.662C117.063 24.385 117.625 24.158 119 24.158C120.375 24.158 120.938 24.385 120.25 24.662ZM132.25 24.662C131.563 24.94 130.438 24.94 129.75 24.662C129.063 24.385 129.625 24.158 131 24.158C132.375 24.158 132.938 24.385 132.25 24.662ZM126.25 50.662C125.563 50.94 124.438 50.94 123.75 50.662C123.063 50.385 123.625 50.158 125 50.158C126.375 50.158 126.938 50.385 126.25 50.662ZM118.25 51.662C117.563 51.94 116.438 51.94 115.75 51.662C115.063 51.385 115.625 51.158 117 51.158C118.375 51.158 118.938 51.385 118.25 51.662ZM134.25 51.662C133.563 51.94 132.438 51.94 131.75 51.662C131.063 51.385 131.625 51.158 133 51.158C134.375 51.158 134.938 51.385 134.25 51.662ZM186.128 53.75C187.371 55.336 187.336 55.371 185.75 54.128C184.787 53.373 184 52.585 184 52.378C184 51.555 184.821 52.084 186.128 53.75ZM89 66.378C89 66.585 88.213 67.373 87.25 68.128C85.664 69.371 85.629 69.336 86.872 67.75C88.179 66.084 89 65.555 89 66.378ZM163.5 68C164.495 69.1 165.085 70 164.81 70C164.535 70 163.495 69.1 162.5 68C161.505 66.9 160.915 66 161.19 66C161.465 66 162.505 66.9 163.5 68ZM126 72C126 72.55 125.55 73 125 73C124.45 73 124 72.55 124 72C124 71.45 124.45 71 125 71C125.55 71 126 71.45 126 72ZM123.662 77.25C123.385 77.938 123.158 77.375 123.158 76C123.158 74.625 123.385 74.063 123.662 74.75C123.94 75.438 123.94 76.563 123.662 77.25ZM126.683 76.188C126.364 76.985 126.127 76.748 126.079 75.583C126.036 74.529 126.272 73.939 126.604 74.271C126.936 74.603 126.972 75.466 126.683 76.188ZM76.683 89.188C76.364 89.985 76.127 89.748 76.079 88.583C76.036 87.529 76.272 86.939 76.604 87.271C76.936 87.603 76.972 88.466 76.683 89.188ZM173.683 89.188C173.364 89.985 173.127 89.748 173.079 88.583C173.036 87.529 173.272 86.939 173.604 87.271C173.936 87.603 173.972 88.466 173.683 89.188ZM201.718 96.736C201.488 98.256 201.294 97.25 201.286 94.5C201.279 91.75 201.467 90.506 201.704 91.736C201.941 92.966 201.947 95.216 201.718 96.736ZM48.748 142.25C48.584 151.738 48.45 143.975 48.45 125C48.45 106.025 48.584 98.262 48.748 107.75C48.913 117.237 48.913 132.762 48.748 142.25ZM100.503 102.831C99.882 103.451 96 101.896 96 101.027C96 100.566 97.092 100.704 98.427 101.334C99.762 101.964 100.696 102.637 100.503 102.831ZM153.559 101.532C152.491 102.339 150.916 102.993 150.059 102.985C149.088 102.976 149.442 102.448 151 101.583C154.342 99.729 155.986 99.696 153.559 101.532ZM116.128 110.75C117.371 112.336 117.336 112.371 115.75 111.128C114.084 109.821 113.555 109 114.378 109C114.585 109 115.373 109.787 116.128 110.75ZM136 109.378C136 109.585 135.213 110.373 134.25 111.128C132.664 112.371 132.629 112.336 133.872 110.75C135.179 109.084 136 108.555 136 109.378ZM125 128C125.473 128 126.056 126.987 126.294 125.75C126.668 123.809 126.744 123.775 126.849 125.5C126.915 126.6 126.526 128.175 125.985 129C125.109 130.333 124.891 130.333 124.015 129C123.474 128.175 123.085 126.6 123.151 125.5C123.256 123.775 123.332 123.809 123.706 125.75C123.944 126.987 124.527 128 125 128ZM201.718 157.736C201.488 159.256 201.294 158.25 201.286 155.5C201.279 152.75 201.467 151.506 201.704 152.736C201.941 153.966 201.947 156.216 201.718 157.736ZM65.128 196.75C66.371 198.336 66.336 198.371 64.75 197.128C63.084 195.821 62.555 195 63.378 195C63.585 195 64.373 195.787 65.128 196.75ZM187 195.378C187 195.585 186.213 196.373 185.25 197.128C183.664 198.371 183.629 198.336 184.872 196.75C186.179 195.084 187 194.555 187 195.378ZM149.75 205.749C136.137 205.906 113.862 205.906 100.25 205.749C86.637 205.592 97.775 205.463 125 205.463C152.225 205.463 163.363 205.592 149.75 205.749ZM119.25 225.662C118.563 225.94 117.438 225.94 116.75 225.662C116.063 225.385 116.625 225.158 118 225.158C119.375 225.158 119.938 225.385 119.25 225.662ZM133.729 225.604C133.397 225.936 132.534 225.972 131.813 225.683C131.015 225.364 131.252 225.127 132.417 225.079C133.471 225.036 134.061 225.272 133.729 225.604Z" fill="#F6B0B8"/>
<path fill-rule="evenodd" clip-rule="evenodd" d="M0 125V250H125H250V125V0H125H0V125ZM129.25 24.732C126.912 24.943 123.087 24.943 120.75 24.732C118.412 24.522 120.325 24.349 125 24.349C129.675 24.349 131.588 24.522 129.25 24.732ZM112.729 25.604C112.397 25.936 111.534 25.972 110.813 25.683C110.015 25.364 110.252 25.127 111.417 25.079C112.471 25.036 113.061 25.272 112.729 25.604ZM139.729 25.604C139.397 25.936 138.534 25.972 137.813 25.683C137.015 25.364 137.252 25.127 138.417 25.079C139.471 25.036 140.061 25.272 139.729 25.604ZM101 28.5C96.434 30.258 94.638 30.232 98.5 28.464C100.15 27.708 102.175 27.104 103 27.121C103.825 27.138 102.925 27.759 101 28.5ZM153 29.169C154.042 29.813 153.737 29.892 152 29.427C150.625 29.059 148.825 28.341 148 27.831C146.958 27.187 147.263 27.108 149 27.573C150.375 27.941 152.175 28.659 153 29.169ZM160.559 32.555C162.389 34.022 162.357 34.042 160 32.92C156.939 31.462 156.372 31 157.642 31C158.179 31 159.491 31.7 160.559 32.555ZM91 32.393C91 32.609 90.302 33.054 89.448 33.382C88.558 33.723 88.157 33.555 88.507 32.989C89.094 32.038 91 31.583 91 32.393ZM82 37.378C82 37.585 81.213 38.373 80.25 39.128C78.664 40.371 78.629 40.336 79.872 38.75C81.179 37.084 82 36.555 82 37.378ZM170.128 38.75C171.371 40.336 171.336 40.371 169.75 39.128C168.787 38.373 168 37.585 168 37.378C168 36.555 168.821 37.084 170.128 38.75ZM78 40.326C78 40.505 76.763 41.742 75.25 43.076L72.5 45.5L74.924 42.75C77.19 40.18 78 39.541 78 40.326ZM175 42.5C176.292 43.875 177.124 45 176.849 45C176.574 45 175.292 43.875 174 42.5C172.708 41.125 171.876 40 172.151 40C172.426 40 173.708 41.125 175 42.5ZM70 48.313C70 48.485 68.537 49.948 66.75 51.563L63.5 54.5L66.437 51.25C69.175 48.221 70 47.54 70 48.313ZM187.26 55.5C189.712 59.065 188.66 58.106 183.419 52C180.853 49.011 180.503 48.34 182.376 50C183.927 51.375 186.124 53.85 187.26 55.5ZM127.75 50.716C126.237 50.945 123.763 50.945 122.25 50.716C120.737 50.487 121.975 50.3 125 50.3C128.025 50.3 129.262 50.487 127.75 50.716ZM118.269 51.656C117.592 51.93 116.242 51.947 115.269 51.693C114.296 51.439 114.85 51.215 116.5 51.195C118.15 51.175 118.946 51.382 118.269 51.656ZM135.269 51.656C134.592 51.93 133.242 51.947 132.269 51.693C131.296 51.439 131.85 51.215 133.5 51.195C135.15 51.175 135.946 51.382 135.269 51.656ZM112.729 52.604C112.397 52.936 111.534 52.972 110.813 52.683C110.015 52.364 110.252 52.127 111.417 52.079C112.471 52.036 113.061 52.272 112.729 52.604ZM139.729 52.604C139.397 52.936 138.534 52.972 137.813 52.683C137.015 52.364 137.252 52.127 138.417 52.079C139.471 52.036 140.061 52.272 139.729 52.604ZM148.493 55.989C148.843 56.555 148.442 56.723 147.552 56.382C145.82 55.717 145.503 55 146.941 55C147.459 55 148.157 55.445 148.493 55.989ZM157.817 62.435C158.796 63.56 157.827 63.165 155.5 61.49C149.934 57.483 148.902 56.375 152.817 58.608C154.641 59.649 156.891 61.371 157.817 62.435ZM59 63C58.411 64.1 57.705 65 57.43 65C57.155 65 57.411 64.1 58 63C58.589 61.9 59.295 61 59.57 61C59.845 61 59.589 61.9 59 63ZM94 61.378C94 61.585 93.213 62.373 92.25 63.128C90.664 64.371 90.629 64.336 91.872 62.75C93.179 61.084 94 60.555 94 61.378ZM89 66.345C89 66.535 87.987 67.547 86.75 68.595L84.5 70.5L86.405 68.25C88.195 66.136 89 65.545 89 66.345ZM164 68.5C165.292 69.875 166.124 71 165.849 71C165.574 71 164.292 69.875 163 68.5C161.708 67.125 160.876 66 161.151 66C161.426 66 162.708 67.125 164 68.5ZM54.122 72.675C52.943 74.702 52.659 74.053 53.624 71.539C53.966 70.645 54.458 70.124 54.715 70.382C54.973 70.639 54.706 71.671 54.122 72.675ZM196.969 73.5C196.969 74.05 196.533 73.825 196 73C195.467 72.175 195.031 71.05 195.031 70.5C195.031 69.95 195.467 70.175 196 71C196.533 71.825 196.969 72.95 196.969 73.5ZM83.408 73.5C82.507 74.875 81.57 76 81.326 76C80.836 76 81.779 74.188 83.278 72.25C85 70.024 85.094 70.927 83.408 73.5ZM126.516 74.072C126.887 75.761 126.922 77.411 126.595 77.738C126.268 78.066 126 77.358 126 76.167C126 74.975 125.55 74 125 74C124.45 74 123.993 75.013 123.985 76.25C123.976 77.487 123.497 79.175 122.919 80C122.063 81.223 121.959 81.131 122.36 79.5C122.63 78.4 123.145 76.037 123.505 74.25C124.328 70.158 125.639 70.081 126.516 74.072ZM168 74C168.589 75.1 168.845 76 168.57 76C168.295 76 167.589 75.1 167 74C166.411 72.9 166.155 72 166.43 72C166.705 72 167.411 72.9 168 74ZM174.375 90C174.811 92.403 174.735 92.873 174.135 91.5C173.653 90.4 172.974 87.925 172.625 86C172.189 83.597 172.265 83.127 172.865 84.5C173.347 85.6 174.026 88.075 174.375 90ZM76.818 88.818C76.224 91.158 75.543 92.876 75.304 92.637C75.064 92.398 75.378 90.311 76 88C76.622 85.689 77.304 83.971 77.515 84.181C77.725 84.392 77.412 86.479 76.818 88.818ZM132.128 87.75C133.371 89.336 133.336 89.371 131.75 88.128C130.787 87.373 130 86.585 130 86.378C130 85.555 130.821 86.084 132.128 87.75ZM49.683 89.188C49.364 89.985 49.127 89.748 49.079 88.583C49.036 87.529 49.272 86.939 49.604 87.271C49.936 87.603 49.972 88.466 49.683 89.188ZM201.859 125C201.859 143.975 201.554 160.271 201.18 161.213C200.806 162.155 200.5 145.859 200.5 125C200.5 104.141 200.806 87.845 201.18 88.787C201.554 89.729 201.859 106.025 201.859 125ZM118 89.326C118 89.505 116.763 90.742 115.25 92.076L112.5 94.5L114.924 91.75C117.19 89.18 118 88.541 118 89.326ZM48.748 142.25C48.584 151.738 48.45 143.975 48.45 125C48.45 106.025 48.584 98.262 48.748 107.75C48.913 117.237 48.913 132.762 48.748 142.25ZM139.128 94.75C140.371 96.336 140.336 96.371 138.75 95.128C137.787 94.373 137 93.585 137 93.378C137 92.555 137.821 93.084 139.128 94.75ZM148 98.5C149.925 99.241 150.825 99.862 150 99.879C149.175 99.896 147.15 99.292 145.5 98.536C141.638 96.768 143.434 96.742 148 98.5ZM175.749 177.75C175.593 192.463 175.466 180.425 175.466 151C175.466 121.575 175.593 109.537 175.749 124.25C175.905 138.963 175.905 163.037 175.749 177.75ZM74.749 177.68C74.593 192.431 74.466 180.65 74.466 151.5C74.465 122.35 74.593 110.281 74.749 124.68C74.905 139.078 74.905 162.928 74.749 177.68ZM98.5 101C98.84 101.55 100.104 102.036 101.309 102.079C102.514 102.122 102.918 102.391 102.207 102.677C100.427 103.391 96 102.182 96 100.981C96 99.702 97.706 99.715 98.5 101ZM153.559 101.532C152.491 102.339 150.466 102.948 149.059 102.884C146.995 102.79 146.887 102.675 148.5 102.287C149.6 102.022 150.928 101.4 151.45 100.903C151.972 100.406 153.097 100.014 153.95 100.032C155.181 100.057 155.1 100.366 153.559 101.532ZM110.139 106.059L112.5 108.119L109.5 106.362C105.552 104.05 105.493 104 106.723 104C107.303 104 108.841 104.927 110.139 106.059ZM143.917 104.303C143.688 104.469 142.15 105.396 140.5 106.362L137.5 108.119L139.861 106.059C141.159 104.927 142.697 104 143.277 104C143.858 104 144.146 104.136 143.917 104.303ZM119.176 114.25C122.243 118.553 120.818 117.48 116.52 112.25C114.373 109.638 113.651 108.4 114.916 109.5C116.181 110.6 118.098 112.737 119.176 114.25ZM137 108.326C137 108.505 135.762 109.742 134.25 111.076L131.5 113.5L133.924 110.75C136.19 108.18 137 107.541 137 108.326ZM130.222 116.935C129.296 118.55 128.356 119.689 128.133 119.467C127.695 119.028 130.77 114 131.477 114C131.713 114 131.149 115.321 130.222 116.935ZM122.969 121.5C122.969 122.05 122.533 121.825 122 121C121.467 120.175 121.031 119.05 121.031 118.5C121.031 117.95 121.467 118.175 122 119C122.533 119.825 122.969 120.95 122.969 121.5ZM127.032 125.357C126.561 127.448 125.886 129.447 125.533 129.8C124.527 130.806 123.018 127.764 123.151 125C123.265 122.656 123.299 122.64 123.706 124.75C124.326 127.973 125.645 127.524 126.382 123.84C126.73 122.102 127.211 120.878 127.452 121.118C127.692 121.359 127.504 123.267 127.032 125.357ZM49.683 162.188C49.364 162.985 49.127 162.748 49.079 161.583C49.036 160.529 49.272 159.939 49.604 160.271C49.936 160.603 49.972 161.466 49.683 162.188ZM54.969 179.5C54.969 180.05 54.533 179.825 54 179C53.467 178.175 53.031 177.05 53.031 176.5C53.031 175.95 53.467 176.175 54 177C54.533 177.825 54.969 178.95 54.969 179.5ZM196.122 178.675C194.943 180.702 194.659 180.053 195.624 177.539C195.966 176.645 196.458 176.124 196.715 176.382C196.973 176.639 196.706 177.671 196.122 178.675ZM59 187C59.589 188.1 59.845 189 59.57 189C59.295 189 58.589 188.1 58 187C57.411 185.9 57.155 185 57.43 185C57.705 185 58.411 185.9 59 187ZM66.581 198C69.147 200.989 69.497 201.66 67.624 200C66.073 198.625 63.876 196.15 62.74 194.5C60.288 190.935 61.34 191.894 66.581 198ZM187.176 194.75C186.098 196.262 184.181 198.4 182.916 199.5C181.651 200.6 182.373 199.363 184.52 196.75C188.818 191.52 190.243 190.447 187.176 194.75ZM174.764 207.793C169.477 212.258 167.156 213.602 171.5 209.683L175.5 206.075L125.095 206.038L74.69 206L76.588 208.25C78.263 210.236 78.134 210.206 75.493 208C73.847 206.625 72.321 205.396 72.101 205.268C71.882 205.14 95.626 205.036 124.866 205.036H178.029L174.764 207.793ZM81.128 211.75C82.371 213.336 82.336 213.371 80.75 212.128C79.084 210.821 78.555 210 79.378 210C79.585 210 80.373 210.787 81.128 211.75ZM164 215.474C164 216.081 158.359 219.014 157.3 218.958C156.86 218.935 158.075 218.054 160 217C163.941 214.842 164 214.82 164 215.474ZM92.917 218.635C94.289 219.836 91.034 218.721 89.441 217.445C87.611 215.978 87.643 215.958 90 217.08C91.375 217.735 92.688 218.435 92.917 218.635ZM99 221C99.825 221.533 100.05 221.969 99.5 221.969C98.95 221.969 97.825 221.533 97 221C96.175 220.467 95.95 220.031 96.5 220.031C97.05 220.031 98.175 220.467 99 221ZM153 221C152.175 221.533 151.05 221.969 150.5 221.969C149.95 221.969 150.175 221.533 151 221C151.825 220.467 152.95 220.031 153.5 220.031C154.05 220.031 153.825 220.467 153 221ZM140.729 224.604C140.397 224.936 139.534 224.972 138.813 224.683C138.015 224.364 138.252 224.127 139.417 224.079C140.471 224.036 141.061 224.272 140.729 224.604ZM129.75 225.735C127.138 225.941 122.862 225.941 120.25 225.735C117.638 225.529 119.775 225.36 125 225.36C130.225 225.36 132.363 225.529 129.75 225.735Z" fill="#F3949E"/>
<path fill-rule="evenodd" clip-rule="evenodd" d="M0 125V250H125H250V125V0H125H0V125ZM129.25 24.732C126.912 24.943 123.087 24.943 120.75 24.732C118.412 24.522 120.325 24.349 125 24.349C129.675 24.349 131.588 24.522 129.25 24.732ZM113.25 25.662C112.563 25.94 111.438 25.94 110.75 25.662C110.063 25.385 110.625 25.158 112 25.158C113.375 25.158 113.938 25.385 113.25 25.662ZM139.25 25.662C138.563 25.94 137.438 25.94 136.75 25.662C136.063 25.385 136.625 25.158 138 25.158C139.375 25.158 139.938 25.385 139.25 25.662ZM102.5 28.378C98.65 29.637 93.092 31.898 90.149 33.402C87.206 34.906 85.06 35.712 85.38 35.194C86.767 32.949 103.307 26.158 107.5 26.112C108.6 26.099 106.35 27.119 102.5 28.378ZM152.217 28.703C154.343 29.554 155.902 30.432 155.68 30.653C155.459 30.875 153.977 30.539 152.389 29.907C150.8 29.276 147.475 28.143 145 27.39L140.5 26.022L144.425 26.589C146.584 26.901 150.09 27.852 152.217 28.703ZM161.632 33.082C163.484 34.226 165 35.363 165 35.607C165 36.065 160.65 33.856 158 32.052C155.166 30.122 158.265 31.001 161.632 33.082ZM81.5 38.254C68.789 47.534 58.555 61.19 52.846 76.488C51.817 79.245 51.23 80.15 51.542 78.5C52.386 74.033 57.296 63.918 61.823 57.322C66.886 49.946 81.435 35.906 83.885 36.032C84.223 36.049 83.15 37.049 81.5 38.254ZM178.386 46.02C182.849 50.313 187.319 55.327 188.321 57.162L190.142 60.5L187.889 57.5C184.955 53.593 172.348 40.996 168.5 38.127C166.327 36.506 166.158 36.21 167.886 37.053C169.198 37.692 173.923 41.728 178.386 46.02ZM136.296 51.395C139.484 52.145 142.409 53.11 142.796 53.539C143.183 53.968 142.624 54.002 141.554 53.616C135.791 51.533 124.741 50.682 117.696 51.777C113.678 52.402 109.516 53.229 108.446 53.616C107.376 54.002 106.824 53.961 107.22 53.523C108.491 52.118 118.315 50.172 124.5 50.101C127.8 50.062 133.108 50.645 136.296 51.395ZM100.441 57.575C97.174 59.541 93.635 61.904 92.578 62.825C91.487 63.776 90.999 63.916 91.449 63.15C92.39 61.548 103.854 54 105.346 54C105.916 54 103.709 55.609 100.441 57.575ZM148.79 55.925C150.83 56.984 153.875 59.121 155.555 60.675C157.235 62.229 157.91 62.971 157.055 62.325C156.2 61.679 152.826 59.541 149.559 57.575C143.172 53.732 142.729 52.78 148.79 55.925ZM194.502 68.25C196.374 72.237 198.157 76.85 198.465 78.5C198.773 80.15 198.184 79.25 197.157 76.5C196.13 73.75 194.092 69.138 192.628 66.25C191.164 63.362 190.221 61 190.532 61C190.844 61 192.63 64.263 194.502 68.25ZM87.278 68.25C86.14 69.487 83.811 72.726 82.104 75.446C79.069 80.281 77.881 81.027 80.132 76.684C81.577 73.898 87.94 66 88.741 66C89.075 66 88.417 67.013 87.278 68.25ZM164 68.5C165.292 69.875 166.124 71 165.849 71C165.574 71 164.292 69.875 163 68.5C161.708 67.125 160.876 66 161.151 66C161.426 66 162.708 67.125 164 68.5ZM126.917 76.05C128.403 82.977 130.388 86.478 135.84 91.788C138.403 94.284 139.549 95.82 138.387 95.201C133.524 92.612 126.082 81.507 126.022 76.75C125.989 74.147 124.006 74.629 123.965 77.25C123.945 78.487 123.239 80.625 122.395 82C121.319 83.755 121.05 83.905 121.495 82.502C121.843 81.403 122.586 78.366 123.147 75.752C123.707 73.139 124.541 71 125 71C125.459 71 126.322 73.272 126.917 76.05ZM170.084 77.165C173.057 82.993 171.995 82.736 168.697 76.83C167.159 74.075 166.379 72.116 166.964 72.478C167.55 72.84 168.954 74.949 170.084 77.165ZM50.662 85.25C50.385 85.938 50.158 85.375 50.158 84C50.158 82.625 50.385 82.063 50.662 82.75C50.94 83.438 50.94 84.563 50.662 85.25ZM199.683 84.188C199.364 84.985 199.127 84.748 199.079 83.583C199.036 82.529 199.272 81.939 199.604 82.271C199.936 82.603 199.972 83.466 199.683 84.188ZM76.87 88.603C76.199 91.268 75.477 92.931 75.266 92.299C74.795 90.884 76.945 82.611 77.611 83.277C77.874 83.541 77.541 85.937 76.87 88.603ZM174.427 89.5C174.843 92.231 174.755 92.865 174.148 91.5C172.784 88.429 171.717 82.191 172.865 84C173.389 84.825 174.092 87.3 174.427 89.5ZM119.056 87.921C115.034 93.569 105.342 100.013 101 99.926C100.175 99.909 101.975 98.946 104.999 97.785C108.774 96.336 112.066 94.022 115.499 90.404C121.259 84.333 121.959 83.845 119.056 87.921ZM49.5 125.059C49.5 145.991 49.207 162.079 48.85 160.809C47.474 155.926 47.965 87 49.375 87C49.444 87 49.5 104.127 49.5 125.059ZM201.859 125C201.859 143.975 201.554 160.271 201.18 161.213C200.806 162.155 200.5 145.859 200.5 125C200.5 104.141 200.806 87.845 201.18 88.787C201.554 89.729 201.859 106.025 201.859 125ZM125.008 205H175L175.241 149.75L175.483 94.5L175.75 149.75C175.938 188.674 176.338 205 177.103 205C178.406 205 170.595 211.659 167.604 213.098C166.17 213.788 166.351 213.447 168.172 212.028C176.654 205.42 181.336 206.067 125 206.067C68.645 206.067 73.385 205.41 81.828 212.047C83.297 213.203 83.825 213.82 83 213.419C77.958 210.968 65.017 198.372 61.654 192.644L59.809 189.5L62.126 192.5C63.401 194.15 66.584 197.75 69.2 200.5L73.957 205.5L74.22 150L74.483 94.5L74.75 149.75L75.017 205H125.008ZM153.298 101.75C152.374 102.438 150.466 103.004 149.059 103.009C145.585 103.022 136.903 108.14 133.484 112.191C130.265 116.004 127.061 122.588 127.007 125.5C126.96 127.995 125.339 130.673 124.427 129.761C124.053 129.386 123.409 127.374 122.998 125.29C122.587 123.205 121.938 120.6 121.556 119.5C121.096 118.175 121.379 118.343 122.395 120C123.239 121.375 123.945 123.287 123.965 124.25C124.008 126.398 126 126.61 126 124.467C126 121.397 130.926 113.324 135.161 109.453C139.008 105.936 142.962 103.737 149.5 101.479C151.111 100.922 150.587 100.514 146.799 99.378C144.214 98.603 141.861 97.584 141.571 97.115C141.281 96.646 144.179 97.216 148.011 98.381C154.025 100.21 154.749 100.671 153.298 101.75ZM99.764 100.897C100.719 101.391 103.525 102.625 106 103.64C110.717 105.575 118.363 111.919 120.217 115.437C120.815 116.572 119.099 115.188 116.402 112.363C111.416 107.138 104.662 103 101.122 103C98.473 103 96 101.982 96 100.893C96 99.751 97.549 99.753 99.764 100.897ZM50.683 167.188C50.364 167.985 50.127 167.748 50.079 166.583C50.036 165.529 50.272 164.939 50.604 165.271C50.936 165.603 50.972 166.466 50.683 167.188ZM199.683 167.188C199.364 167.985 199.127 167.748 199.079 166.583C199.036 165.529 199.272 164.939 199.604 165.271C199.936 165.603 199.972 166.466 199.683 167.188ZM57.372 183.75C58.836 186.637 59.779 189 59.468 189C58.578 189 52.157 174.836 51.535 171.5C51.227 169.85 51.816 170.75 52.843 173.5C53.87 176.25 55.908 180.863 57.372 183.75ZM196.94 176.431C194.074 184.09 193.56 183.1 196.316 175.232C197.517 171.804 198.629 169.387 198.787 169.862C198.945 170.336 198.114 173.293 196.94 176.431ZM192.5 186C191.647 187.65 190.724 189 190.449 189C190.174 189 190.647 187.65 191.5 186C192.353 184.35 193.276 183 193.551 183C193.826 183 193.353 184.35 192.5 186ZM188.336 193.008C187.359 194.663 184.54 197.925 182.072 200.258L177.584 204.5L181.662 199.914C183.904 197.391 186.525 194.129 187.485 192.664C189.872 189.02 190.534 189.288 188.336 193.008ZM92.541 218.792C92.058 219.275 85 215.122 85 214.354C85 214.089 86.795 214.881 88.989 216.114C91.183 217.347 92.781 218.552 92.541 218.792ZM165 214.515C165 215.254 158.691 218.998 157.5 218.965C156.95 218.95 158.3 217.829 160.5 216.474C164.809 213.82 165 213.737 165 214.515ZM103.5 222.148C108.165 223.6 108.61 223.885 105.5 223.426C103.3 223.101 99.7 221.967 97.5 220.905C95.3 219.843 94.4 219.268 95.5 219.627C96.6 219.986 100.2 221.12 103.5 222.148ZM152.5 221.055C150.3 222.096 147.825 222.935 147 222.919C146.175 222.904 147.525 222.062 150 221.049C155.902 218.634 157.608 218.637 152.5 221.055ZM144.729 223.604C144.397 223.936 143.534 223.972 142.813 223.683C142.015 223.364 142.252 223.127 143.417 223.079C144.471 223.036 145.061 223.272 144.729 223.604ZM113.25 224.662C112.563 224.94 111.438 224.94 110.75 224.662C110.063 224.385 110.625 224.158 112 224.158C113.375 224.158 113.938 224.385 113.25 224.662ZM140.269 224.656C139.592 224.93 138.242 224.947 137.269 224.693C136.296 224.439 136.85 224.215 138.5 224.195C140.15 224.175 140.946 224.382 140.269 224.656ZM129.75 225.735C127.138 225.941 122.862 225.941 120.25 225.735C117.638 225.529 119.775 225.36 125 225.36C130.225 225.36 132.363 225.529 129.75 225.735Z" fill="#ED5E6E"/>
<path fill-rule="evenodd" clip-rule="evenodd" d="M0 125V250H125H250V125V0H125H0V125ZM139.441 25.518C155.512 28.32 168.675 35.669 181.125 48.788C190.168 58.317 196.023 69.021 199.489 82.36C201.924 91.733 202 93.02 202 125C202 156.786 201.911 158.316 199.543 167.43C195.756 182.006 190.04 192.288 179.997 202.59C165.586 217.373 150.189 224.402 129.5 225.644C106.453 227.028 86.166 219.138 69.883 202.458C59.86 192.191 54.016 181.573 50.405 167.068C48.142 157.974 48.024 155.891 48.024 125C48.024 94.099 48.141 92.029 50.408 82.922C54.181 67.763 60.934 56.109 72.133 45.426C90.629 27.783 113.551 21.003 139.441 25.518ZM114.5 25.646C80.504 31.122 54.815 56.967 50.037 90.5C48.712 99.797 48.721 149.849 50.049 159.396C52.142 174.446 58.98 189.194 68.873 200L73.909 205.5L73.955 149.96C74.004 89.754 74.086 88.71 79.624 77.733C86.198 64.702 98.64 54.902 113.5 51.048C118.541 49.741 131.152 49.738 136.808 51.043C154.64 55.155 171.067 71.88 174.874 89.799C175.628 93.346 176.015 113.355 176.045 150.299L176.091 205.5L181.128 200C190.91 189.318 197.578 175.17 199.908 160.153C201.324 151.028 201.324 98.972 199.908 89.847C195.288 60.067 174.263 36.014 145.829 27.98C138.589 25.934 120.895 24.616 114.5 25.646ZM113.389 52.422C95.675 56.468 81.974 69.807 76.964 87.886C75.122 94.536 75 98.38 75 149.987V205H125H175V149.987C175 98.562 174.873 94.517 173.055 87.955C170.837 79.952 166.646 72.197 161.611 66.777C156.949 61.759 146.783 55.315 140.574 53.442C133.256 51.235 120.657 50.762 113.389 52.422ZM126.981 76.406C128.302 82.771 132.626 89.715 137.658 93.553C139.636 95.061 144.419 97.299 148.289 98.526C154.575 100.519 155.101 100.876 153.228 101.878C152.075 102.495 150.089 103.004 148.816 103.009C145.362 103.023 136.641 108.399 133.098 112.697C130.097 116.338 127.786 121.475 126.55 127.25C126.227 128.762 125.529 130 125 130C124.471 130 123.789 128.762 123.484 127.25C122.236 121.052 120.568 117.279 117.279 113.216C113.399 108.424 104.812 103.032 101 102.994C98.502 102.969 95.139 101.441 96.029 100.735C96.288 100.529 98.525 99.791 101 99.094C112.434 95.875 119.999 88.378 122.649 77.641C123.55 73.988 124.641 71 125.073 71C125.505 71 126.363 73.433 126.981 76.406ZM124.575 77.5C121.252 87.273 112.209 96.976 104.18 99.384C100.452 100.502 99.907 100.922 101.5 101.446C106.06 102.948 111.709 106.214 114.883 109.184C118.992 113.03 124 120.726 124 123.196C124 124.188 124.45 125 125 125C125.55 125 126 124.188 126 123.196C126 120.493 131.111 112.997 135.876 108.713C139.718 105.258 143.025 103.356 148.5 101.45C150.362 100.801 150.327 100.704 147.994 100.028C138.287 97.22 128.685 87.901 126.185 78.861C125.39 75.985 125.157 75.789 124.575 77.5ZM76 206.758C76 207.718 87.16 215.175 92.677 217.902C110.762 226.839 139.238 226.839 157.323 217.902C162.84 215.175 174 207.718 174 206.758C174 206.341 151.95 206 125 206C98.05 206 76 206.341 76 206.758Z" fill="#EA4659"/>
<path fill-rule="evenodd" clip-rule="evenodd" d="M0 125V250H125H250V125V0H125H0V125ZM139.441 25.518C155.512 28.32 168.675 35.669 181.125 48.788C190.168 58.317 196.023 69.021 199.489 82.36C201.924 91.733 202 93.02 202 125C202 156.786 201.911 158.316 199.543 167.43C195.756 182.006 190.04 192.288 179.997 202.59C165.586 217.373 150.189 224.402 129.5 225.644C106.453 227.028 86.166 219.138 69.883 202.458C59.86 192.191 54.016 181.573 50.405 167.068C48.142 157.974 48.024 155.891 48.024 125C48.024 94.099 48.141 92.029 50.408 82.922C54.181 67.763 60.934 56.109 72.133 45.426C90.629 27.783 113.551 21.003 139.441 25.518ZM114.539 26.048C89.132 30.023 68.849 44.604 57.458 67.083C56.098 69.767 53.838 75.961 52.437 80.847L49.888 89.731L50.23 127.615C50.571 165.442 50.575 165.511 53.147 172.519C56.052 180.434 58.911 186.307 62.262 191.245C65.981 196.725 72.174 204 73.12 204C73.616 204 74 179.855 74 148.71C74 88.73 74.132 87.039 79.618 76.96C83.367 70.072 90.2 62.7 97.112 58.084C124.997 39.463 164.056 53.565 174.036 85.855C175.889 91.851 176 95.375 176 148.105C176 182.93 176.36 204 176.955 204C178.593 204 187.833 191.847 191.501 184.866C196.167 175.986 198.95 166.645 200.054 156.146C201.23 144.977 201.23 105.023 200.054 93.854C197.219 66.918 182.428 45.298 158.636 33.317C145.926 26.916 127.941 23.952 114.539 26.048ZM113.389 52.422C95.675 56.468 81.974 69.807 76.964 87.886C75.122 94.536 75 98.38 75 149.987V205H125H175V149.987C175 98.562 174.873 94.517 173.055 87.955C170.837 79.952 166.646 72.197 161.611 66.777C156.949 61.759 146.783 55.315 140.574 53.442C133.256 51.235 120.657 50.762 113.389 52.422ZM126.981 76.406C128.302 82.771 132.626 89.715 137.658 93.553C139.636 95.061 144.419 97.299 148.289 98.526C154.575 100.519 155.101 100.876 153.228 101.878C152.075 102.495 150.089 103.004 148.816 103.009C145.362 103.023 136.641 108.399 133.098 112.697C130.097 116.338 127.786 121.475 126.55 127.25C126.227 128.762 125.529 130 125 130C124.471 130 123.789 128.762 123.484 127.25C122.236 121.052 120.568 117.279 117.279 113.216C113.399 108.424 104.812 103.032 101 102.994C98.502 102.969 95.139 101.441 96.029 100.735C96.288 100.529 98.525 99.791 101 99.094C112.434 95.875 119.999 88.378 122.649 77.641C123.55 73.988 124.641 71 125.073 71C125.505 71 126.363 73.433 126.981 76.406ZM122.112 83.424C117.876 92.029 108.154 99.971 101.8 100.017C100.311 100.027 102.033 101.266 106.682 103.528C115.664 107.898 120.547 113.214 124.11 122.5L125.261 125.5L126.205 122.071C127.451 117.548 132.248 110.676 136.334 107.559C138.138 106.183 142.029 103.991 144.981 102.689L150.349 100.32L146.995 99.649C139.215 98.093 129.437 88.866 126.493 80.301L125.324 76.9L122.112 83.424ZM79.5 209.541C84.501 213.656 97.144 219.768 105.557 222.137C116.698 225.275 133.302 225.275 144.443 222.137C152.856 219.768 165.499 213.656 170.5 209.541L173.5 207.072H125H76.5L79.5 209.541Z" fill="#E62238"/>
<path fill-rule="evenodd" clip-rule="evenodd" d="M0 125V250H125H250V125V0H125H0V125ZM139.441 25.518C155.512 28.32 168.675 35.669 181.125 48.788C190.168 58.317 196.023 69.021 199.489 82.36C201.924 91.733 202 93.02 202 125C202 156.786 201.911 158.316 199.543 167.43C195.756 182.006 190.04 192.288 179.997 202.59C165.586 217.373 150.189 224.402 129.5 225.644C106.453 227.028 86.166 219.138 69.883 202.458C59.86 192.191 54.016 181.573 50.405 167.068C48.142 157.974 48.024 155.891 48.024 125C48.024 94.099 48.141 92.029 50.408 82.922C54.181 67.763 60.934 56.109 72.133 45.426C90.629 27.783 113.551 21.003 139.441 25.518ZM107.46 27.986C80.625 34.054 59.412 55.002 52.383 82.376C50.154 91.056 50.04 93.128 50.04 125C50.04 156.872 50.154 158.944 52.383 167.624C55.201 178.599 61.753 191.32 68.214 198.362L72.928 203.5L72.964 149.91C72.997 100.289 73.143 95.76 74.932 88.765C81.868 61.648 108.007 44.906 134.967 50.313C154.549 54.241 169.498 68.389 174.985 88.188C176.89 95.062 177.001 98.416 177.011 149.48L177.022 203.5L180.816 199.5C189.069 190.799 194.564 180.234 197.98 166.5C199.764 159.325 199.971 155.062 199.985 125.167C199.999 94.962 199.809 91.067 197.966 83.667C195.617 74.23 192.092 65.774 187.749 59.152C183.624 52.862 172.416 41.881 165.802 37.65C149.228 27.048 127.517 23.452 107.46 27.986ZM139 28.436C156.51 31.378 173.063 41.328 183.46 55.158C190.01 63.872 194.416 73.018 196.631 82.5C198.266 89.497 198.5 94.826 198.5 125C198.5 155.174 198.266 160.503 196.631 167.5C194.406 177.023 190.007 186.131 183.363 194.972L178.5 201.442L177.977 145.471C177.457 89.8 177.442 89.471 175.141 84C163.579 56.504 138.24 42.834 111.915 49.889C94.967 54.43 82.724 65.592 75.126 83.426L72.538 89.5L72.019 145.418L71.5 201.336L67.33 195.918C60.996 187.688 55.447 176.393 53.369 167.5C51.734 160.503 51.5 155.176 51.5 125C51.5 81.574 52.328 77.148 63.84 59C67.845 52.687 78.825 41.643 83.397 39.329C85.104 38.465 87.175 37.221 88 36.563C90.996 34.174 103.037 29.801 110.183 28.506C119.97 26.733 128.739 26.712 139 28.436ZM113.389 52.422C95.675 56.468 81.974 69.807 76.964 87.886C75.122 94.536 75 98.38 75 149.987V205H125H175V149.987C175 98.562 174.873 94.517 173.055 87.955C170.837 79.952 166.646 72.197 161.611 66.777C156.949 61.759 146.783 55.315 140.574 53.442C133.256 51.235 120.657 50.762 113.389 52.422ZM126.981 76.406C128.302 82.771 132.626 89.715 137.658 93.553C139.636 95.061 144.419 97.299 148.289 98.526C154.575 100.519 155.101 100.876 153.228 101.878C152.075 102.495 150.089 103.004 148.816 103.009C145.362 103.023 136.641 108.399 133.098 112.697C130.097 116.338 127.786 121.475 126.55 127.25C126.227 128.762 125.529 130 125 130C124.471 130 123.789 128.762 123.484 127.25C122.236 121.052 120.568 117.279 117.279 113.216C113.399 108.424 104.812 103.032 101 102.994C98.502 102.969 95.139 101.441 96.029 100.735C96.288 100.529 98.525 99.791 101 99.094C112.434 95.875 119.999 88.378 122.649 77.641C123.55 73.988 124.641 71 125.073 71C125.505 71 126.363 73.433 126.981 76.406ZM122.603 83.379C119.365 89.998 111.612 97.294 105.725 99.263L101.5 100.676L106.176 102.749C112.702 105.642 119.468 112.214 122.679 118.777C125.278 124.088 125.432 124.218 126.11 121.683C127.964 114.749 135.935 106.243 143.867 102.734L148.48 100.694L144.743 99.401C137.448 96.875 128.957 88.47 126.51 81.351L125.307 77.852L122.603 83.379ZM127.434 85.508C129.924 90.132 139.089 98.733 142.414 99.568C144.947 100.203 144.82 100.375 139.072 104.111C133.23 107.907 126 115.945 126 118.644C126 119.39 125.55 120 125 120C124.45 120 124 119.39 124 118.644C124 115.961 116.786 107.917 111.022 104.172L105.142 100.351L108.448 99.155C112.353 97.743 121.381 89.02 123.207 84.894C123.912 83.302 124.726 82 125.017 82C125.307 82 126.395 83.579 127.434 85.508ZM81.475 210.532C85.818 213.62 98.006 220 99.562 220C101.297 220 98.424 217.969 95.236 216.943C90.945 215.561 81.071 209.867 81.028 208.75C81.013 208.338 100.8 208 125 208C149.2 208 168.987 208.338 168.972 208.75C168.935 209.727 159.231 215.533 156 216.512C153.533 217.26 148.963 220 150.184 220C151.965 220 164.138 213.757 168.497 210.609L173.494 207H125H76.506L81.475 210.532ZM101.103 220.372C102.315 221.713 117.382 224 125 224C132.618 224 147.685 221.713 148.897 220.372C149.228 220.005 148.375 219.999 147 220.359C145.625 220.719 140.113 221.543 134.75 222.19C125.408 223.318 111.168 222.497 103 220.359C101.625 219.999 100.772 220.005 101.103 220.372Z" fill="#E30B22"/>
<path fill-rule="evenodd" clip-rule="evenodd" d="M0 125V250H125H250V125V0H125H0V125ZM139.441 25.518C155.512 28.32 168.675 35.669 181.125 48.788C190.168 58.317 196.023 69.021 199.489 82.36C201.924 91.733 202 93.02 202 125C202 156.786 201.911 158.316 199.543 167.43C195.756 182.006 190.04 192.288 179.997 202.59C165.586 217.373 150.189 224.402 129.5 225.644C106.453 227.028 86.166 219.138 69.883 202.458C59.86 192.191 54.016 181.573 50.405 167.068C48.142 157.974 48.024 155.891 48.024 125C48.024 94.099 48.141 92.029 50.408 82.922C54.181 67.763 60.934 56.109 72.133 45.426C90.629 27.783 113.551 21.003 139.441 25.518ZM113.389 52.422C95.675 56.468 81.974 69.807 76.964 87.886C75.122 94.536 75 98.38 75 149.987V205H125H175V149.987C175 98.562 174.873 94.517 173.055 87.955C170.837 79.952 166.646 72.197 161.611 66.777C156.949 61.759 146.783 55.315 140.574 53.442C133.256 51.235 120.657 50.762 113.389 52.422ZM126.981 76.406C128.302 82.771 132.626 89.715 137.658 93.553C139.636 95.061 144.419 97.299 148.289 98.526C154.575 100.519 155.101 100.876 153.228 101.878C152.075 102.495 150.089 103.004 148.816 103.009C145.362 103.023 136.641 108.399 133.098 112.697C130.097 116.338 127.786 121.475 126.55 127.25C126.227 128.762 125.529 130 125 130C124.471 130 123.789 128.762 123.484 127.25C122.236 121.052 120.568 117.279 117.279 113.216C113.399 108.424 104.812 103.032 101 102.994C98.502 102.969 95.139 101.441 96.029 100.735C96.288 100.529 98.525 99.791 101 99.094C112.434 95.875 119.999 88.378 122.649 77.641C123.55 73.988 124.641 71 125.073 71C125.505 71 126.363 73.433 126.981 76.406Z" fill="white"/>
</svg>
