<svg width="65" height="64" viewBox="0 0 65 64" fill="none" xmlns="http://www.w3.org/2000/svg">
<path fill-rule="evenodd" clip-rule="evenodd" d="M0 32V64H32H64V32V0H32H0V32Z" fill="#FFF8A6"/>
<path fill-rule="evenodd" clip-rule="evenodd" d="M0 32V64H32H64V32V0H32H0V32ZM13 7.378C13 7.585 12.213 8.373 11.25 9.128C9.664 10.371 9.629 10.336 10.872 8.75C12.179 7.084 13 6.555 13 7.378ZM47.801 31V33.5L47 31C46.56 29.625 46.199 27.375 46.199 26V23.5L47 26C47.44 27.375 47.801 29.625 47.801 31ZM30.007 36C30.664 36 30.7 39.343 30.069 41.764C30.031 41.909 28.196 40.835 25.992 39.376C22.935 37.353 22.239 36.417 23.059 35.429C23.856 34.469 23.59 33.59 22.03 32.03C20.874 30.874 20.232 29.433 20.605 28.83C21.024 28.152 22.789 29.314 25.217 31.866C27.38 34.14 29.536 36 30.007 36Z" fill="#8B8110"/>
<path fill-rule="evenodd" clip-rule="evenodd" d="M0.0870018 32.012V63.94L32.102 63.928L64.116 63.915L63.788 52.208C63.608 45.768 63.09 39.6 62.636 38.5C62.012 36.987 62.063 36.856 62.846 37.963C63.575 38.993 63.895 33.596 63.929 19.743L63.976 0.0599976L32.031 0.0719976L0.0870018 0.0849976V32.012ZM13 7.378C13 7.585 12.365 8.282 11.589 8.926C10.509 9.823 10.004 9.815 9.435 8.894C8.98 8.159 9.113 7.952 9.776 8.362C10.373 8.731 11.144 8.575 11.49 8.016C12.108 7.016 13 6.639 13 7.378ZM22.608 11.34C24.677 13.119 25.012 13.874 24.01 14.494C23.153 15.024 22.931 14.92 23.377 14.198C24.362 12.606 19.409 9.617 17.258 10.506C16.079 10.994 15.909 11.386 16.741 11.697C17.678 12.047 17.617 12.526 16.491 13.652C14.631 15.511 14.63 16.133 16.481 18.559C17.766 20.244 18.1 20.302 19.008 19C19.584 18.175 19.832 16.282 19.561 14.794C19.187 12.743 19.412 12.221 20.491 12.635C23.374 13.741 18.74 24.043 15.385 23.985C14.898 23.976 15.175 23.533 16 23C17 22.354 17.083 22.026 16.25 22.015C15.563 22.007 14.951 21.212 14.89 20.25C14.83 19.288 14.365 20.525 13.857 23C12.46 29.802 13.651 36.076 16.834 38.687C19.364 40.763 19.389 40.867 17.319 40.729C16.12 40.65 15.207 40.341 15.292 40.042C15.376 39.744 14.656 38.321 13.692 36.88C12.246 34.718 11.989 32.419 12.22 23.732C12.374 17.942 12.772 13.37 13.104 13.571C13.436 13.773 14.214 12.826 14.832 11.469C16.252 8.354 19.083 8.307 22.608 11.34ZM50.578 18.667C50.444 19.584 49.545 20.45 48.58 20.591C46.914 20.836 46.913 20.754 48.569 18.924C50.694 16.575 50.889 16.551 50.578 18.667ZM43.397 22.833C43.68 23.292 43.277 23.667 42.5 23.667C41.723 23.667 41.32 23.292 41.603 22.833C41.886 22.375 42.29 22 42.5 22C42.71 22 43.114 22.375 43.397 22.833ZM47.801 31V33.5L47 31C46.56 29.625 46.199 27.375 46.199 26V23.5L47 26C47.44 27.375 47.801 29.625 47.801 31ZM34.372 25.793C34.641 26.228 33.43 26.642 31.681 26.71C28.712 26.827 28.667 26.781 31 26.018C32.375 25.568 33.586 25.155 33.691 25.1C33.796 25.045 34.102 25.357 34.372 25.793ZM29.971 36C30.987 36 30.534 43.828 29.462 44.796C29.032 45.183 28.965 44.71 29.311 43.745C29.775 42.452 28.893 41.296 25.963 39.357C22.928 37.349 22.239 36.417 23.059 35.429C23.856 34.469 23.59 33.59 22.03 32.03C20.874 30.874 20.232 29.433 20.605 28.83C21.024 28.152 22.789 29.314 25.217 31.866C27.38 34.14 29.519 36 29.971 36ZM44.493 30.989C44.843 31.555 44.442 31.723 43.552 31.382C41.82 30.717 41.503 30 42.941 30C43.459 30 44.157 30.445 44.493 30.989ZM35 38.059C35 38.641 35.52 38.797 36.155 38.405C36.87 37.962 37.038 38.13 36.595 38.845C36.127 39.603 36.761 40 38.441 40C39.848 40 41 40.45 41 41C41 41.55 41.477 42 42.059 42C42.641 42 42.797 41.48 42.405 40.845C41.952 40.114 42.131 39.963 42.894 40.435C43.829 41.012 43.825 41.506 42.874 42.652C41.8 43.946 41.543 43.936 40.775 42.563C40.294 41.703 39.05 41 38.009 41C36.969 41 35.857 40.578 35.538 40.061C35.219 39.545 34.067 39.294 32.979 39.504C31.025 39.88 30.37 38.963 31.667 37.667C32.715 36.619 35 36.888 35 38.059ZM44.683 39.188C44.364 39.985 44.127 39.748 44.079 38.583C44.036 37.529 44.272 36.939 44.604 37.271C44.936 37.603 44.972 38.466 44.683 39.188ZM27.823 42.667C27.645 43.584 26.825 44.557 26 44.83C24.772 45.235 24.725 45.052 25.741 43.821C26.424 42.993 26.687 42.02 26.325 41.658C25.963 41.296 26.225 41 26.907 41C27.589 41 28.001 41.75 27.823 42.667ZM37.578 42.608C38.36 42.308 39 42.451 39 42.924C39 44.068 36.438 45 33.296 45C31.284 45 30.987 44.721 31.869 43.658C32.481 42.92 32.649 41.959 32.241 41.523C31.834 41.086 32.548 41.275 33.828 41.942C35.109 42.608 36.796 42.908 37.578 42.608ZM19.342 47.551C18.886 48.74 19.301 49.007 21.124 48.697C22.431 48.474 22.932 48.485 22.238 48.721C21.544 48.958 21.185 49.491 21.441 49.905C21.698 50.32 20.916 50.548 19.704 50.413C18.492 50.277 17.093 50.129 16.595 50.083C16.097 50.038 16.505 49.1 17.5 48C19.675 45.596 20.135 45.484 19.342 47.551ZM32.25 51.706C31.012 51.944 28.988 51.944 27.75 51.706C26.512 51.467 27.525 51.272 30 51.272C32.475 51.272 33.487 51.467 32.25 51.706Z" fill="#FFE176"/>
<path fill-rule="evenodd" clip-rule="evenodd" d="M0 11.441C0 17.99 0.428 23.146 1 23.5C1.55 23.84 2 24.568 2 25.118C2 25.668 1.643 25.897 1.206 25.627C0.769 25.357 0.412 28.366 0.412 32.314C0.412 36.262 0.693 38.369 1.036 36.996C1.636 34.601 1.692 34.636 2.433 37.854C2.857 39.699 4.063 43.149 5.112 45.52C7.405 50.705 16.599 59.368 18.879 58.493C19.737 58.164 20.108 58.226 19.703 58.63C18.279 60.054 25.303 62 31.865 61.999C37.099 61.999 39.786 61.39 44.588 59.118C55.876 53.778 61.662 45.147 60.451 35.456C59.982 31.702 60.117 30 60.885 30C61.498 30 62 28.677 62 27.059C62 25.441 62.45 23.84 63 23.5C63.572 23.146 64 17.99 64 11.441V0H52C44.667 0 40 0.389 40 1C40 1.55 39.212 1.993 38.25 1.985C37.03 1.974 36.871 1.734 37.726 1.191C38.4 0.762 35.823 0.412 32 0.412C28.177 0.412 25.6 0.762 26.274 1.191C27.138 1.74 27.001 1.974 25.809 1.985C24.879 1.993 23.84 1.55 23.5 1C23.146 0.428 17.99 0 11.441 0H0V11.441ZM22.5 2C22.84 2.55 22.641 3 22.059 3C21.477 3 21 2.55 21 2C21 1.45 21.198 1 21.441 1C21.684 1 22.16 1.45 22.5 2ZM43 2C43 2.55 42.523 3 41.941 3C41.359 3 41.16 2.55 41.5 2C41.84 1.45 42.316 1 42.559 1C42.802 1 43 1.45 43 2ZM30.25 3.662C29.563 3.94 28.438 3.94 27.75 3.662C27.063 3.385 27.625 3.158 29 3.158C30.375 3.158 30.938 3.385 30.25 3.662ZM48.51 5.016C48.856 5.575 49.557 5.774 50.069 5.457C50.581 5.141 51 5.385 51 6C51 6.615 51.461 6.833 52.025 6.485C52.588 6.136 52.926 6.447 52.775 7.176C52.623 7.909 53.17 8.351 54 8.167C54.825 7.983 55.162 8.172 54.748 8.586C54.334 8.999 54.777 10.274 55.732 11.419C56.879 12.793 56.455 12.624 54.484 10.92C52.843 9.501 50.202 7.363 48.615 6.17C47.028 4.976 46.214 4 46.806 4C47.398 4 48.165 4.457 48.51 5.016ZM11.269 10.115C8.646 12.745 5.466 16.832 4.202 19.198C2.937 21.564 2.202 22.375 2.567 21C2.932 19.625 3.291 18.103 3.365 17.617C3.439 17.131 4.934 15.13 6.688 13.17C8.441 11.21 9.609 9.176 9.283 8.649C8.957 8.122 9.196 8.003 9.813 8.384C10.43 8.766 11.461 8.235 12.104 7.205C12.747 6.176 13.895 5.333 14.656 5.333C15.416 5.333 13.892 7.485 11.269 10.115ZM38.5 8.043C40.7 9.137 41.689 9.806 40.698 9.528C39.602 9.221 39.15 9.433 39.543 10.07C39.901 10.648 41.604 10.868 43.345 10.561C45.913 10.109 46.128 10.192 44.5 11.01C42.81 11.859 42.996 11.964 45.697 11.689C47.456 11.509 48.667 11.73 48.388 12.181C47.594 13.465 43.997 13.126 37.758 11.178C33.312 9.79 32.284 9.116 33.208 8.192C34.804 6.596 32.777 6.65 31.053 8.25C30.151 9.087 29.925 9.111 30.368 8.321C30.77 7.605 30.142 6.972 28.765 6.708C27.475 6.46 28.222 6.225 30.5 6.162C32.7 6.102 36.3 6.948 38.5 8.043ZM16.038 8.454C15.004 9.7 15.276 9.781 17.935 9.019C20.141 8.386 20.841 8.448 20.355 9.234C19.929 9.925 20.237 10.123 21.177 9.762C22.004 9.445 23.316 9.587 24.091 10.077C25.258 10.816 25.264 10.972 24.128 10.985C23.06 10.997 23.015 11.313 23.926 12.411C24.823 13.491 24.815 13.996 23.894 14.565C23.148 15.026 22.952 14.887 23.377 14.198C24.362 12.606 19.409 9.617 17.258 10.506C16.079 10.994 15.909 11.386 16.741 11.697C17.678 12.047 17.617 12.526 16.491 13.652C14.631 15.511 14.63 16.133 16.481 18.559C17.766 20.244 18.1 20.302 19.008 19C19.584 18.175 19.832 16.282 19.561 14.794C19.187 12.743 19.412 12.221 20.491 12.635C23.374 13.741 18.74 24.043 15.385 23.985C14.898 23.976 15.175 23.533 16 23C17 22.354 17.083 22.026 16.25 22.015C15.563 22.007 14.951 21.212 14.89 20.25C14.83 19.288 14.365 20.525 13.857 23C12.471 29.753 13.655 36.052 16.834 38.83C18.314 40.124 18.776 40.937 17.872 40.658C16.976 40.382 15.739 40.661 15.122 41.278C14.293 42.107 14 42.087 14 41.2C14 40.54 14.463 40 15.03 40C15.596 40 15.08 38.675 13.882 37.055C11.904 34.379 11.753 33.256 12.23 24.805C12.518 19.687 12.555 16.738 12.311 18.25C11.848 21.116 10 22.116 10 19.5C10 18.675 9.464 18.112 8.809 18.25C5.85 18.871 7.29 14.987 11.436 11.166C15.863 7.085 18.429 5.573 16.038 8.454ZM55.196 16.75C54.906 18.262 54.476 18.923 54.24 18.217C53.815 16.945 54.576 14 55.33 14C55.546 14 55.486 15.238 55.196 16.75ZM59.903 17.431C59.64 17.694 58.829 16.917 58.1 15.705C56.835 13.598 56.857 13.577 58.579 15.226C59.57 16.176 60.166 17.168 59.903 17.431ZM35.842 18.242C36.83 19.23 37.256 19.203 37.933 18.109C38.55 17.11 38.968 17.576 39.458 19.81C39.895 21.8 40.604 22.706 41.466 22.375C42.198 22.094 43.048 22.269 43.355 22.765C43.661 23.261 43.369 23.706 42.706 23.753C42.043 23.801 40.535 24.066 39.355 24.342C36.759 24.95 33 21.768 33 18.961C33 16.713 34.048 16.448 35.842 18.242ZM50.882 17.75C50.564 19.761 51.14 20.347 52.11 19C53 17.762 53.082 17.828 52.577 19.377C52.241 20.409 52.311 21.78 52.733 22.424C53.155 23.068 52.811 22.857 51.969 21.956C51.126 21.056 49.625 20.438 48.632 20.583C46.914 20.836 46.911 20.756 48.569 18.924C50.427 16.87 51.072 16.543 50.882 17.75ZM62.183 22.217C61.466 22.934 61 22.993 61 22.367C61 21.032 62.183 19.849 62.85 20.517C63.134 20.801 62.834 21.566 62.183 22.217ZM54.634 24.864C55.889 24.555 61 27.176 61 28.129C61 28.574 60.298 28.668 59.44 28.339C58.393 27.937 57.694 28.454 57.313 29.91C56.775 31.967 56.648 31.991 54.867 30.379C52.679 28.399 51.854 28.904 51.648 32.35C51.567 33.714 50.762 35.291 49.859 35.855C48.511 36.698 48.31 36.532 48.73 34.925C49.121 33.431 48.857 33.118 47.609 33.596C46.381 34.068 46.138 33.805 46.624 32.536C47.052 31.422 46.801 30.916 45.886 31.043C45.124 31.15 43.825 31.177 43 31.103C41.667 30.984 41.667 30.858 43 29.966C44.296 29.099 44.228 28.745 42.5 27.366C41.343 26.443 41.124 25.957 41.98 26.212C42.794 26.455 44.242 25.719 45.197 24.577L46.933 22.5L47.046 25C47.15 27.314 47.351 27.077 48.561 23.215C48.875 22.214 49.495 22.278 51.366 23.504C52.687 24.369 54.157 24.982 54.634 24.864ZM25.339 25.486C27.024 26.591 28.426 26.738 30.79 26.06C32.766 25.493 34.196 25.508 34.561 26.098C34.884 26.622 34.778 26.985 34.324 26.906C33.871 26.828 32.418 26.816 31.095 26.882C28.732 26.998 28.723 27.036 30.551 29.057C31.799 30.436 33.146 30.929 34.638 30.555C36.276 30.144 37.031 30.523 37.497 31.989C37.844 33.085 37.842 34.447 37.49 35.016C37.139 35.584 37.391 35.926 38.051 35.775C40.317 35.256 40.081 37.746 37.791 38.514C35.554 39.264 35.565 39.292 38.25 39.708C39.763 39.941 41 40.553 41 41.066C41 41.58 41.477 42 42.059 42C42.641 42 42.797 41.48 42.405 40.845C41.952 40.114 42.131 39.963 42.894 40.435C43.829 41.012 43.825 41.506 42.874 42.652C41.8 43.946 41.543 43.936 40.775 42.563C40.294 41.703 39.05 41 38.009 41C36.969 41 35.835 40.543 35.49 39.984C35.144 39.425 34.373 39.269 33.776 39.638C33.065 40.078 32.983 39.825 33.537 38.905C34.231 37.754 34.107 37.724 32.85 38.741C32.006 39.424 30.996 39.663 30.605 39.272C30.214 38.881 30.181 39.307 30.531 40.22C30.881 41.132 30.646 42.693 30.008 43.689C29.004 45.258 28.92 45.271 29.381 43.782C29.673 42.837 29.533 41.83 29.07 41.543C28.607 41.257 27.993 41.917 27.707 43.011C27.049 45.531 25.447 45.545 23.312 43.051C22.394 41.979 21.204 41.374 20.667 41.706C20.13 42.038 19.99 41.826 20.355 41.235C20.72 40.644 20.308 39.451 19.44 38.583C17.614 36.757 16 31.708 16 27.823C16 25.656 16.535 25.052 18.75 24.716C20.262 24.487 21.853 24.232 22.285 24.15C22.717 24.067 24.091 24.669 25.339 25.486ZM63.195 27.5C63.215 29.15 63.439 29.704 63.693 28.731C63.947 27.758 63.93 26.408 63.656 25.731C63.382 25.054 63.175 25.85 63.195 27.5ZM38.393 28.582C39.332 31.028 39.128 31.351 37.5 30C35.838 28.62 35.51 27 36.893 27C37.384 27 38.059 27.712 38.393 28.582ZM63.195 36.5C63.215 38.15 63.439 38.704 63.693 37.731C63.947 36.758 63.93 35.408 63.656 34.731C63.382 34.054 63.175 34.85 63.195 36.5ZM57 37.118C57 37.668 56.55 37.84 56 37.5C55.45 37.16 55 36.432 55 35.882C55 35.332 55.45 35.16 56 35.5C56.55 35.84 57 36.568 57 37.118ZM31.507 36.989C31.157 37.555 31.558 37.723 32.448 37.382C34.18 36.717 34.497 36 33.059 36C32.541 36 31.843 36.445 31.507 36.989ZM44.683 39.188C44.364 39.985 44.127 39.748 44.079 38.583C44.036 37.529 44.272 36.939 44.604 37.271C44.936 37.603 44.972 38.466 44.683 39.188ZM12.761 40.25C12.813 40.938 13.135 42.625 13.478 44L14.1 46.5L12.428 44.25C11.508 43.013 9.911 42 8.878 42C7.845 42 7 41.502 7 40.893C7 40.284 7.603 40.018 8.341 40.3C9.078 40.583 10.316 40.413 11.091 39.923C11.866 39.432 12.537 39.024 12.583 39.015C12.629 39.007 12.709 39.563 12.761 40.25ZM24.695 40.943C24.991 42.074 25.591 43 26.028 43C27.204 43 26.505 39.668 25.241 39.247C24.592 39.031 24.373 39.711 24.695 40.943ZM0.683 40.65C0.307 41.026 0 46.433 0 52.667V64H12C20.107 64 24 63.641 24 62.893C24 62.284 23.325 62.045 22.5 62.362C21.675 62.678 21 62.453 21 61.862C21 61.27 20.302 61.054 19.448 61.382C18.46 61.761 18.147 61.571 18.587 60.859C18.992 60.204 18.741 59.92 17.98 60.173C17.266 60.411 15.09 59.148 13.144 57.366C11.199 55.583 9.176 54.391 8.649 54.717C8.122 55.043 7.993 54.82 8.362 54.223C8.731 53.626 8.129 52.503 7.023 51.729C5.917 50.954 5.299 50.034 5.649 49.684C6 49.334 5.549 48.764 4.649 48.419C3.748 48.073 3.232 47.434 3.501 46.999C4.196 45.875 1.51 39.823 0.683 40.65ZM61.412 42.757C60.972 44.266 60.586 45.91 60.556 46.412C60.525 46.913 59.274 48.636 57.776 50.24C56.278 51.844 55.153 53.683 55.276 54.328C55.399 54.973 55.011 55.412 54.413 55.304C53.816 55.197 51.929 56.385 50.221 57.945C48.513 59.506 46.864 60.531 46.558 60.224C46.251 59.918 46 60.142 46 60.722C46 61.303 45.438 61.757 44.75 61.731C41.527 61.612 39.936 62.087 40.5 63C40.854 63.572 46.01 64 52.559 64H64V52.559C64 41.275 62.977 37.399 61.412 42.757ZM37.578 42.608C38.36 42.308 39 42.451 39 42.924C39 44.068 36.438 45 33.296 45C31.284 45 30.987 44.721 31.869 43.658C32.481 42.92 32.649 41.959 32.241 41.523C31.834 41.086 32.548 41.275 33.828 41.942C35.109 42.608 36.796 42.908 37.578 42.608ZM19.342 47.551C18.886 48.74 19.301 49.007 21.124 48.697C22.431 48.474 22.932 48.485 22.238 48.721C21.544 48.958 21.185 49.491 21.441 49.905C21.698 50.32 20.916 50.548 19.704 50.413C18.492 50.277 17.093 50.129 16.595 50.083C16.097 50.038 16.505 49.1 17.5 48C19.675 45.596 20.135 45.484 19.342 47.551ZM38.099 51.814C37.263 53.376 37.377 53.931 38.63 54.411C39.723 54.831 40.054 54.584 39.687 53.625C39.237 52.453 39.622 52.463 42.075 53.687C45.841 55.566 45.962 57.482 42.25 56.458C40.737 56.041 38.746 55.671 37.823 55.636C36.901 55.6 36.336 55.265 36.568 54.89C37.242 53.8 34.191 53 29.359 53C26.629 53 25.123 52.61 25.5 52C25.84 51.45 27.865 51 30 51C32.135 51 34.16 51.45 34.5 52C34.84 52.55 35.616 53 36.226 53C36.835 53 37.06 52.727 36.727 52.393C36.393 52.06 36.656 51.205 37.31 50.494C38.953 48.709 39.38 49.422 38.099 51.814ZM25.75 63.662C26.438 63.94 27.563 63.94 28.25 63.662C28.938 63.385 28.375 63.158 27 63.158C25.625 63.158 25.063 63.385 25.75 63.662ZM35.269 63.693C36.242 63.947 37.592 63.93 38.269 63.656C38.946 63.382 38.15 63.175 36.5 63.195C34.85 63.215 34.296 63.439 35.269 63.693Z" fill="#F5AD37"/>
<path fill-rule="evenodd" clip-rule="evenodd" d="M19.5 1C19.16 1.55 19.22 2.563 19.633 3.25C20.22 4.227 20.042 4.223 18.819 3.233C16.961 1.728 14 2.609 14 4.666C14 5.545 14.493 5.834 15.25 5.398C15.938 5.002 15.409 5.875 14.076 7.339C12.742 8.802 11.21 10 10.671 10C10.131 10 10.435 9.177 11.345 8.171C14.655 4.513 12.894 4.842 8.94 8.621C4.07 13.275 1.901 16.636 4.384 15.683C6.397 14.91 6.404 14.834 4.04 19.571C1.942 23.777 1.375 23.773 2.975 19.565C4.264 16.174 2.663 16.249 1.113 19.652C0.269999 21.501 0.221999 22.622 0.951999 23.352C2.174 24.574 2.372 26.348 1.206 25.627C0.768999 25.357 0.411999 28.366 0.411999 32.314C0.411999 36.262 0.692999 38.369 1.036 36.996C1.636 34.601 1.692 34.636 2.433 37.854C2.857 39.699 4.063 43.149 5.112 45.52C7.405 50.705 16.599 59.368 18.879 58.493C19.737 58.164 20.108 58.226 19.703 58.63C18.279 60.054 25.303 62 31.865 61.999C37.099 61.999 39.786 61.39 44.588 59.118C55.876 53.778 61.662 45.147 60.451 35.456C59.982 31.702 60.117 30 60.885 30C61.498 30 62 28.677 62 27.059C62 25.441 62.45 23.84 63 23.5C63.55 23.16 64 22.403 64 21.819C64 21.148 63.446 21.215 62.5 22C61.554 22.785 61 22.852 61 22.181C61 21.597 61.408 20.866 61.906 20.558C62.959 19.907 62.153 16 60.967 16C60.527 16 60.015 16.454 59.83 17.01C59.645 17.565 58.86 17.003 58.086 15.76C56.797 13.69 56.819 13.616 58.339 14.872C61.055 17.117 60.466 13.786 57.686 11.174C54.688 8.358 53.12 8.351 55.595 11.166C56.643 12.357 54.985 11.345 51.912 8.916C48.838 6.487 46.465 4.323 46.638 4.107C46.81 3.892 47.638 4.284 48.476 4.98C49.725 6.017 50 5.977 50 4.758C50 2.848 40.781 -0.842999 40.219 0.842001C40.007 1.479 39.083 1.993 38.167 1.985C36.986 1.974 36.858 1.742 37.726 1.191C38.4 0.762001 35.823 0.412001 32 0.412001C28.177 0.412001 25.6 0.762001 26.274 1.191C27.138 1.74 27.001 1.974 25.809 1.985C24.879 1.993 23.84 1.55 23.5 1C22.703 -0.289999 20.297 -0.289999 19.5 1ZM22.5 2C22.84 2.55 22.641 3 22.059 3C21.477 3 21 2.55 21 2C21 1.45 21.198 1 21.441 1C21.684 1 22.16 1.45 22.5 2ZM43 2C43 2.55 42.523 3 41.941 3C41.359 3 41.16 2.55 41.5 2C41.84 1.45 42.316 1 42.559 1C42.802 1 43 1.45 43 2ZM30.25 3.662C29.563 3.94 28.438 3.94 27.75 3.662C27.063 3.385 27.625 3.158 29 3.158C30.375 3.158 30.938 3.385 30.25 3.662ZM51 5.806C51 6.328 51.675 7.315 52.5 8C53.325 8.685 54 8.933 54 8.551C54 8.169 53.325 7.182 52.5 6.357C51.675 5.532 51 5.284 51 5.806ZM38.5 8.043C40.7 9.137 41.689 9.806 40.698 9.528C39.602 9.221 39.15 9.433 39.543 10.07C39.901 10.648 41.604 10.868 43.345 10.561C45.913 10.109 46.128 10.192 44.5 11.01C42.81 11.859 42.996 11.964 45.697 11.689C47.456 11.509 48.667 11.73 48.388 12.181C47.594 13.465 43.997 13.126 37.758 11.178C33.312 9.79 32.284 9.116 33.208 8.192C34.804 6.596 32.777 6.65 31.053 8.25C30.151 9.087 29.925 9.111 30.368 8.321C30.77 7.605 30.142 6.972 28.765 6.708C27.475 6.46 28.222 6.225 30.5 6.162C32.7 6.102 36.3 6.948 38.5 8.043ZM16.038 8.454C15.004 9.7 15.276 9.781 17.935 9.019C20.141 8.386 20.841 8.448 20.355 9.234C19.929 9.925 20.237 10.123 21.177 9.762C22.004 9.445 23.316 9.587 24.091 10.077C25.258 10.816 25.264 10.972 24.128 10.985C23.06 10.997 23.015 11.313 23.926 12.411C24.823 13.491 24.815 13.996 23.894 14.565C23.148 15.026 22.952 14.887 23.377 14.198C24.362 12.606 19.409 9.617 17.258 10.506C16.079 10.994 15.909 11.386 16.741 11.697C17.678 12.047 17.617 12.526 16.491 13.652C14.631 15.511 14.63 16.133 16.481 18.559C17.766 20.244 18.1 20.302 19.008 19C19.584 18.175 19.832 16.282 19.561 14.794C19.187 12.743 19.412 12.221 20.491 12.635C23.374 13.741 18.74 24.043 15.385 23.985C14.898 23.976 15.175 23.533 16 23C17 22.354 17.083 22.026 16.25 22.015C15.563 22.007 14.951 21.212 14.89 20.25C14.83 19.288 14.365 20.525 13.857 23C12.471 29.753 13.655 36.052 16.834 38.83C18.314 40.124 18.776 40.937 17.872 40.658C16.976 40.382 15.739 40.661 15.122 41.278C14.293 42.107 14 42.087 14 41.2C14 40.54 14.463 40 15.03 40C15.596 40 15.08 38.675 13.882 37.055C11.904 34.379 11.753 33.256 12.23 24.805C12.518 19.687 12.555 16.738 12.311 18.25C11.843 21.152 10 22.102 10 19.441C10 18.584 9.549 18.161 8.998 18.501C8.447 18.842 7.534 17.905 6.97 16.42C6.154 14.274 6.289 13.338 7.632 11.854C10.012 9.224 10.732 10.504 8.411 13.237C7.36 14.474 8.627 13.577 11.228 11.243C15.881 7.067 18.403 5.605 16.038 8.454ZM55.196 16.75C54.906 18.262 54.476 18.923 54.24 18.217C53.815 16.945 54.576 14 55.33 14C55.546 14 55.486 15.238 55.196 16.75ZM35.842 18.242C36.83 19.23 37.256 19.203 37.933 18.109C38.55 17.11 38.968 17.576 39.458 19.81C39.895 21.8 40.604 22.706 41.466 22.375C42.198 22.094 43.048 22.269 43.355 22.765C43.661 23.261 43.369 23.706 42.706 23.753C42.043 23.801 40.535 24.066 39.355 24.342C36.759 24.95 33 21.768 33 18.961C33 16.713 34.048 16.448 35.842 18.242ZM50.882 17.75C50.564 19.761 51.14 20.347 52.11 19C53 17.762 53.082 17.828 52.577 19.377C52.241 20.409 52.311 21.78 52.733 22.424C53.155 23.068 52.811 22.857 51.969 21.956C51.126 21.056 49.625 20.438 48.632 20.583C46.914 20.836 46.911 20.756 48.569 18.924C50.427 16.87 51.072 16.543 50.882 17.75ZM54.634 24.864C55.889 24.555 61 27.176 61 28.129C61 28.574 60.298 28.668 59.44 28.339C58.393 27.937 57.694 28.454 57.313 29.91C56.775 31.967 56.648 31.991 54.867 30.379C52.679 28.399 51.854 28.904 51.648 32.35C51.567 33.714 50.762 35.291 49.859 35.855C48.511 36.698 48.31 36.532 48.73 34.925C49.121 33.431 48.857 33.118 47.609 33.596C46.381 34.068 46.138 33.805 46.624 32.536C47.052 31.422 46.801 30.916 45.886 31.043C45.124 31.15 43.825 31.177 43 31.103C41.667 30.984 41.667 30.858 43 29.966C44.296 29.099 44.228 28.745 42.5 27.366C41.343 26.443 41.124 25.957 41.98 26.212C42.794 26.455 44.242 25.719 45.197 24.577L46.933 22.5L47.046 25C47.15 27.314 47.351 27.077 48.561 23.215C48.875 22.214 49.495 22.278 51.366 23.504C52.687 24.369 54.157 24.982 54.634 24.864ZM25.339 25.486C27.024 26.591 28.426 26.738 30.79 26.06C32.766 25.493 34.196 25.508 34.561 26.098C34.884 26.622 34.778 26.985 34.324 26.906C33.871 26.828 32.418 26.816 31.095 26.882C28.732 26.998 28.723 27.036 30.551 29.057C31.799 30.436 33.146 30.929 34.638 30.555C36.276 30.144 37.031 30.523 37.497 31.989C37.844 33.085 37.842 34.447 37.49 35.016C37.139 35.584 37.391 35.926 38.051 35.775C40.317 35.256 40.081 37.746 37.791 38.514C35.554 39.264 35.565 39.292 38.25 39.708C39.763 39.941 41 40.553 41 41.066C41 41.58 41.477 42 42.059 42C42.641 42 42.797 41.48 42.405 40.845C41.952 40.114 42.131 39.963 42.894 40.435C43.829 41.012 43.825 41.506 42.874 42.652C41.8 43.946 41.543 43.936 40.775 42.563C40.294 41.703 39.05 41 38.009 41C36.969 41 35.835 40.543 35.49 39.984C35.144 39.425 34.373 39.269 33.776 39.638C33.065 40.078 32.983 39.825 33.537 38.905C34.231 37.754 34.107 37.724 32.85 38.741C32.006 39.424 30.996 39.663 30.605 39.272C30.214 38.881 30.181 39.307 30.531 40.22C30.881 41.132 30.646 42.693 30.008 43.689C29.004 45.258 28.92 45.271 29.381 43.782C29.673 42.837 29.533 41.83 29.07 41.543C28.607 41.257 27.993 41.917 27.707 43.011C27.049 45.531 25.447 45.545 23.312 43.051C22.394 41.979 21.204 41.374 20.667 41.706C20.13 42.038 19.99 41.826 20.355 41.235C20.72 40.644 20.308 39.451 19.44 38.583C17.614 36.757 16 31.708 16 27.823C16 25.656 16.535 25.052 18.75 24.716C20.262 24.487 21.853 24.232 22.285 24.15C22.717 24.067 24.091 24.669 25.339 25.486ZM63.195 27.5C63.215 29.15 63.439 29.704 63.693 28.731C63.947 27.758 63.93 26.408 63.656 25.731C63.382 25.054 63.175 25.85 63.195 27.5ZM38.393 28.582C39.332 31.028 39.128 31.351 37.5 30C35.838 28.62 35.51 27 36.893 27C37.384 27 38.059 27.712 38.393 28.582ZM63.195 36.5C63.215 38.15 63.439 38.704 63.693 37.731C63.947 36.758 63.93 35.408 63.656 34.731C63.382 34.054 63.175 34.85 63.195 36.5ZM57 37.118C57 37.668 56.55 37.84 56 37.5C55.45 37.16 55 36.432 55 35.882C55 35.332 55.45 35.16 56 35.5C56.55 35.84 57 36.568 57 37.118ZM31.507 36.989C31.157 37.555 31.558 37.723 32.448 37.382C34.18 36.717 34.497 36 33.059 36C32.541 36 31.843 36.445 31.507 36.989ZM44.683 39.188C44.364 39.985 44.127 39.748 44.079 38.583C44.036 37.529 44.272 36.939 44.604 37.271C44.936 37.603 44.972 38.466 44.683 39.188ZM12.761 40.25C12.813 40.938 13.135 42.625 13.478 44L14.1 46.5L12.428 44.25C11.508 43.013 9.911 42 8.878 42C7.845 42 7 41.502 7 40.893C7 40.284 7.603 40.018 8.341 40.3C9.078 40.583 10.316 40.413 11.091 39.923C11.866 39.432 12.537 39.024 12.583 39.015C12.629 39.007 12.709 39.563 12.761 40.25ZM24.695 40.943C24.991 42.074 25.591 43 26.028 43C27.204 43 26.505 39.668 25.241 39.247C24.592 39.031 24.373 39.711 24.695 40.943ZM0.623999 40.799C-0.127001 42.014 1.912 47 3.161 47C4.264 47 4.237 46.793 2.637 42.988C1.888 41.206 0.981999 40.22 0.623999 40.799ZM61.747 41.684C61.461 42.683 60.903 44.288 60.506 45.25C59.337 48.091 61.567 47.246 62.887 44.348C63.617 42.746 63.734 41.334 63.182 40.782C62.63 40.23 62.062 40.587 61.747 41.684ZM37.578 42.608C38.36 42.308 39 42.451 39 42.924C39 44.068 36.438 45 33.296 45C31.284 45 30.987 44.721 31.869 43.658C32.481 42.92 32.649 41.959 32.241 41.523C31.834 41.086 32.548 41.275 33.828 41.942C35.109 42.608 36.796 42.908 37.578 42.608ZM19.342 47.551C18.886 48.74 19.301 49.007 21.124 48.697C22.431 48.474 22.932 48.485 22.238 48.721C21.544 48.958 21.185 49.491 21.441 49.905C21.698 50.32 20.916 50.548 19.704 50.413C18.492 50.277 17.093 50.129 16.595 50.083C16.097 50.038 16.505 49.1 17.5 48C19.675 45.596 20.135 45.484 19.342 47.551ZM3.5 49C3.84 49.55 4.568 50 5.118 50C5.668 50 5.84 49.55 5.5 49C5.16 48.45 4.432 48 3.882 48C3.332 48 3.16 48.45 3.5 49ZM53.75 54.183C50.587 57.502 48 60.419 48 60.665C48 60.911 49.35 60.316 51 59.341C52.65 58.366 54 57.043 54 56.399C54 55.756 55.164 54.467 56.587 53.535C58.009 52.603 58.916 51.583 58.602 51.269C58.288 50.955 58.812 50.105 59.766 49.381C60.719 48.656 61.05 48.083 60.5 48.106C59.95 48.129 56.913 50.864 53.75 54.183ZM38.099 51.814C37.263 53.376 37.377 53.931 38.63 54.411C39.723 54.831 40.054 54.584 39.687 53.625C39.237 52.453 39.622 52.463 42.075 53.687C45.841 55.566 45.962 57.482 42.25 56.458C40.737 56.041 38.746 55.671 37.823 55.636C36.901 55.6 36.336 55.265 36.568 54.89C37.242 53.8 34.191 53 29.359 53C26.629 53 25.123 52.61 25.5 52C25.84 51.45 27.865 51 30 51C32.135 51 34.16 51.45 34.5 52C34.84 52.55 35.616 53 36.226 53C36.835 53 37.06 52.727 36.727 52.393C36.393 52.06 36.656 51.205 37.31 50.494C38.953 48.709 39.38 49.422 38.099 51.814ZM7.26 53.54C8.767 54.938 10 56.416 10 56.825C10 57.234 11.407 58.4 13.127 59.416C14.847 60.432 16.085 60.849 15.877 60.344C15.302 58.94 6.397 51 5.398 51C4.916 51 5.753 52.143 7.26 53.54ZM17 61.167C17 61.808 17.279 62.055 17.619 61.714C17.96 61.374 18.892 61.749 19.69 62.548C21.394 64.251 24 64.474 24 62.917C24 62.321 23.442 62.019 22.759 62.247C22.076 62.475 20.919 62.062 20.188 61.33C18.546 59.688 17 59.609 17 61.167ZM41.566 61.898C40.361 62.37 40.045 62.91 40.726 63.331C42.04 64.143 45 63.147 45 61.893C45 60.852 44.234 60.853 41.566 61.898ZM25.75 63.662C26.438 63.94 27.563 63.94 28.25 63.662C28.938 63.385 28.375 63.158 27 63.158C25.625 63.158 25.063 63.385 25.75 63.662ZM35.269 63.693C36.242 63.947 37.592 63.93 38.269 63.656C38.946 63.382 38.15 63.175 36.5 63.195C34.85 63.215 34.296 63.439 35.269 63.693Z" fill="#CEB64A"/>
<path fill-rule="evenodd" clip-rule="evenodd" d="M40.5 1C40.84 1.55 41.316 2 41.559 2C41.802 2 42 1.55 42 1C42 0.45 41.523 0 40.941 0C40.359 0 40.16 0.45 40.5 1ZM19 2.059C19 2.641 19.45 2.84 20 2.5C20.55 2.16 21 1.684 21 1.441C21 1.198 20.55 1 20 1C19.45 1 19 1.477 19 2.059ZM43 1.474C43 1.98 48.525 5 49.45 5C51.272 5 49.5 3.021 46.851 2.098C43.295 0.858 43 0.811 43 1.474ZM15.029 2.961C14.22 3.473 13.818 4.151 14.136 4.469C14.924 5.257 18 4.002 18 2.893C18 1.753 16.899 1.778 15.029 2.961ZM21.25 3.491C19.462 4.268 18 5.177 18 5.511C18 5.845 18.515 5.8 19.144 5.411C19.773 5.022 22.136 4.126 24.394 3.419C26.652 2.712 27.6 2.121 26.5 2.106C25.4 2.091 23.038 2.714 21.25 3.491ZM37.765 2.978C40.111 3.486 42.586 4.214 43.265 4.597C44.193 5.12 44.219 4.988 43.371 4.068C42.75 3.394 40.275 2.665 37.871 2.449L33.5 2.055L37.765 2.978ZM11.02 6.476C10.231 7.426 10.155 8 10.819 8C12.027 8 13.436 6.103 12.743 5.409C12.491 5.158 11.716 5.638 11.02 6.476ZM51 5.806C51 6.328 51.675 7.315 52.5 8C53.325 8.685 54 8.933 54 8.551C54 8.169 53.325 7.182 52.5 6.357C51.675 5.532 51 5.284 51 5.806ZM5.548 12.126C4.101 13.845 3.166 15.499 3.469 15.803C4.024 16.357 6.16 14.002 8.052 10.75C9.635 8.029 8.444 8.683 5.548 12.126ZM18 10.177C16.54 10.791 16.016 11.422 16.741 11.694C17.678 12.047 17.617 12.526 16.491 13.652C14.515 15.627 14.609 16.609 17 19C19.449 21.449 20.225 21.483 22.784 19.25C25.217 17.127 26.709 11.793 24.782 12.107C22.832 12.424 19.939 10.907 20.565 9.895C21.222 8.831 21.196 8.834 18 10.177ZM55 9.671C55 10.231 55.859 11.467 56.909 12.417C57.958 13.367 59.363 15.462 60.03 17.072C61.397 20.373 63.092 21.069 62.29 18C62.002 16.9 61.369 16 60.883 16C60.398 16 60 15.403 60 14.674C60 13.945 58.875 12.292 57.5 11C56.125 9.708 55 9.11 55 9.671ZM21.557 14.711C21.251 15.51 21 17.027 21 18.082C21 19.137 20.652 20 20.227 20C19.802 20 19.455 18.253 19.455 16.119C19.455 13.3 19.819 12.377 20.785 12.748C21.516 13.028 21.864 13.912 21.557 14.711ZM50.43 14.006C49.291 14.444 47.626 15.922 46.729 17.291C45.206 19.615 45.219 19.888 46.922 21.43C48.629 22.974 48.781 22.946 49.294 20.983C49.773 19.151 49.631 19.049 48.171 20.176C46.972 21.102 47.037 20.836 48.405 19.233C50.419 16.872 51.595 16.228 50.42 18.13C50.019 18.778 50.239 19.087 50.936 18.855C51.604 18.632 52.078 18.062 51.99 17.587C51.901 17.112 52.426 16.355 53.156 15.903C55.176 14.655 52.885 13.061 50.43 14.006ZM35.5 16C35.84 16.55 36.316 17 36.559 17C36.802 17 37 16.55 37 16C37 15.45 36.523 15 35.941 15C35.359 15 35.16 15.45 35.5 16ZM1.15 20C-0.214999 23.915 1.216 23.915 2.694 20C3.317 18.35 3.459 17 3.011 17C2.563 17 1.725 18.35 1.15 20ZM13.901 22.136C13.552 24.819 13.764 25.644 14.708 25.282C15.412 25.011 15.71 24.339 15.369 23.788C14.985 23.167 15.558 23.042 16.875 23.46C18.136 23.86 19 23.701 19 23.067C19 22.48 18.663 22.053 18.25 22.118C16.226 22.438 15.112 21.841 14.76 20.25C14.548 19.288 14.161 20.136 13.901 22.136ZM27.689 22.026C26.642 25.94 26.776 26.094 31.019 25.844L35.039 25.607L32.769 23.432C31.521 22.236 30.201 21.427 29.835 21.635C29.47 21.843 28.986 21.459 28.761 20.782C28.535 20.105 28.053 20.665 27.689 22.026ZM60 22.441C60 23.234 60.408 24.134 60.907 24.442C61.405 24.751 61.578 24.102 61.29 23.001C60.679 20.666 60 20.371 60 22.441ZM2.624 23.539C2.281 24.432 2.052 26.364 2.115 27.832C2.201 29.83 2.426 29.496 3.01 26.5C3.838 22.249 3.655 20.85 2.624 23.539ZM42.2 23.2C40.586 24.814 40.686 26 42.438 26C43.259 26 43.811 25.143 43.725 24C43.642 22.9 43.535 22 43.487 22C43.439 22 42.86 22.54 42.2 23.2ZM11.158 29C11.158 30.375 11.385 30.938 11.662 30.25C11.94 29.563 11.94 28.438 11.662 27.75C11.385 27.063 11.158 27.625 11.158 29ZM32.813 27.683C33.534 27.972 34.397 27.936 34.729 27.604C35.061 27.272 34.471 27.036 33.417 27.079C32.252 27.127 32.015 27.364 32.813 27.683ZM41.567 28.313C41.844 29.035 41.151 30.458 40.027 31.476C38.143 33.18 38.103 33.508 39.515 35.663C41.121 38.114 41.041 38.171 35.759 38.375C33.125 38.477 32.18 39.155 30.706 42C29.71 43.925 29.129 44.712 29.416 43.75C30.051 41.619 28.447 41.394 27.638 43.5C27.322 44.325 26.631 45 26.103 45C25.575 45 24.468 44.325 23.643 43.5C22.818 42.675 21.838 42 21.465 42C20.685 42 17.024 37.597 15.392 34.698C14.345 32.837 14.257 32.873 13.782 35.358C13.497 36.851 13.831 38.445 14.555 39.046C15.476 39.81 15.577 40.987 14.92 43.279C14.419 45.025 14.251 47.216 14.547 48.147C14.842 49.078 15.25 50.664 15.452 51.67C15.655 52.677 16.495 54.784 17.32 56.353L18.819 59.206L20.068 56.874C22.349 52.611 24.121 51.651 30.776 51.071C36.956 50.533 37.446 50.304 39.224 47.115C41.376 43.253 40.959 41 38.09 41C37.006 41 35.88 40.615 35.589 40.144C34.803 38.872 40.268 40.125 41.685 41.542C42.356 42.213 42.589 43.113 42.202 43.541C41.816 43.97 42.084 43.983 42.799 43.571C43.809 42.988 43.834 42.504 42.907 41.388C41.949 40.234 42.018 40.07 43.257 40.545C44.105 40.87 45.138 40.586 45.553 39.914C46.037 39.132 45.893 38.948 45.155 39.405C43.743 40.277 43.682 38.966 44.977 35.559C45.771 33.473 45.608 32.772 44.112 31.838C43.009 31.149 42.463 29.947 42.751 28.843C43.016 27.83 42.745 27 42.148 27C41.551 27 41.29 27.591 41.567 28.313ZM58.213 31.998C58.624 34.801 58.539 34.893 56.898 33.408C54.561 31.292 51.953 32.715 53.062 35.5C53.738 37.196 53.87 37.234 53.93 35.75C54.016 33.604 55.337 33.496 57 35.5C59.062 37.985 59.903 37.216 59.735 33C59.647 30.8 59.17 29 58.674 29C58.178 29 57.971 30.349 58.213 31.998ZM52.5 31C52.84 31.55 53.316 32 53.559 32C53.802 32 54 31.55 54 31C54 30.45 53.523 30 52.941 30C52.359 30 52.16 30.45 52.5 31ZM18.503 40.005C19.659 41.875 17.314 41.004 15.405 38.854C13.513 36.724 13.515 36.717 15.694 37.86C16.901 38.493 18.165 39.458 18.503 40.005ZM25 40.941C25 41.459 25.445 42.157 25.989 42.493C26.555 42.843 26.723 42.442 26.382 41.552C25.717 39.82 25 39.503 25 40.941ZM1.15 44C1.725 45.65 2.563 47 3.011 47C3.459 47 3.317 45.65 2.694 44C2.071 42.35 1.234 41 0.833001 41C0.432001 41 0.575001 42.35 1.15 44ZM37.578 42.608C38.36 42.308 39 42.451 39 42.924C39 44.068 36.438 45 33.296 45C31.284 45 30.987 44.721 31.869 43.658C32.481 42.92 32.649 41.959 32.241 41.523C31.834 41.086 32.548 41.275 33.828 41.942C35.109 42.608 36.796 42.908 37.578 42.608ZM61.306 44C60.683 45.65 60.541 47 60.989 47C61.437 47 62.275 45.65 62.85 44C63.425 42.35 63.568 41 63.167 41C62.766 41 61.929 42.35 61.306 44ZM19.342 47.551C18.886 48.74 19.301 49.007 21.124 48.697C22.431 48.474 22.932 48.485 22.238 48.721C21.544 48.958 21.185 49.491 21.441 49.905C21.698 50.32 20.916 50.548 19.704 50.413C18.492 50.277 17.093 50.129 16.595 50.083C16.097 50.038 16.505 49.1 17.5 48C19.675 45.596 20.135 45.484 19.342 47.551ZM3.5 49C3.84 49.55 4.568 50 5.118 50C5.668 50 5.84 49.55 5.5 49C5.16 48.45 4.432 48 3.882 48C3.332 48 3.16 48.45 3.5 49ZM58.5 49C58.16 49.55 58.332 50 58.882 50C59.432 50 60.16 49.55 60.5 49C60.84 48.45 60.668 48 60.118 48C59.568 48 58.84 48.45 58.5 49ZM6.02 52.524C6.716 53.362 7.491 53.842 7.743 53.591C8.436 52.897 7.027 51 5.819 51C5.155 51 5.231 51.574 6.02 52.524ZM56 52.5C55.306 53.337 55.197 54 55.755 54C56.305 54 57.315 53.325 58 52.5C58.694 51.663 58.803 51 58.245 51C57.695 51 56.685 51.675 56 52.5ZM9.563 56.303C10.092 57.681 16 61.541 16 60.509C16 59.724 10.719 55.073 9.781 55.032C9.386 55.014 9.288 55.586 9.563 56.303ZM50.25 57.944C47.039 60.623 47.47 61.426 51 59.341C52.65 58.366 54 57.216 54 56.784C54 55.519 52.66 55.933 50.25 57.944ZM19 61.834C19 62.814 21.327 64 23.248 64C24.386 64 23.324 62.511 22.167 62.485C21.8 62.476 20.938 62.112 20.25 61.676C19.563 61.239 19 61.31 19 61.834ZM42.75 61.689C41.788 61.941 41 62.522 41 62.98C41 63.438 41.9 63.577 43 63.29C44.1 63.002 45 62.369 45 61.883C45 61.398 44.888 61.052 44.75 61.116C44.612 61.18 43.712 61.438 42.75 61.689Z" fill="#D09A2D"/>
<path fill-rule="evenodd" clip-rule="evenodd" d="M16.645 13.498C14.624 15.518 14.605 16.101 16.481 18.559C17.763 20.239 18.097 20.298 18.966 19C20.189 17.171 20.252 14.946 19.13 13.176C18.452 12.107 17.974 12.169 16.645 13.498ZM47.035 16.934C45.192 20.379 45.927 21.417 48.5 19C49.875 17.708 51 16.28 51 15.826C51 14.209 48.053 15.033 47.035 16.934ZM27.5 23C26.514 24.596 27.918 26 30.5 26C33.049 26 34.638 24.512 33.102 23.563C32.59 23.246 31.943 23.553 31.664 24.244C31.359 25.002 31.127 24.806 31.079 23.75C30.994 21.871 28.519 21.352 27.5 23ZM41.583 23.866C41.152 24.563 41.07 25.403 41.4 25.733C42.295 26.628 43.271 25.312 42.787 23.862C42.449 22.846 42.213 22.846 41.583 23.866ZM39.338 32.562C38.978 33.499 39.216 35.116 39.865 36.155C40.817 37.681 40.751 38.158 39.523 38.63C38.685 38.951 37.302 38.946 36.448 38.618C35.594 38.291 35.139 38.416 35.436 38.896C36.164 40.075 41.67 40.822 43.103 39.937C43.735 39.546 44.308 37.488 44.376 35.363C44.482 32.071 44.167 31.453 42.246 31.18C40.833 30.979 39.747 31.495 39.338 32.562ZM15.136 43.322C15.003 45.574 15.17 49.01 15.507 50.958C16.215 55.052 18.968 59.198 19.694 57.263C21.253 53.108 23.758 51.679 30.509 51.093C36.773 50.55 37.493 50.248 39.1 47.5C41.501 43.393 41.406 42.895 38.435 44.025C33.41 45.935 26.372 45.177 20.711 42.114L15.378 39.229L15.136 43.322ZM19.342 47.551C18.855 48.82 19.269 48.972 21.624 48.385C24.103 47.767 24.33 47.875 23.265 49.168C22.586 49.993 21.011 50.555 19.765 50.417C18.519 50.279 17.093 50.129 16.595 50.083C16.097 50.038 16.505 49.1 17.5 48C19.675 45.596 20.135 45.484 19.342 47.551Z" fill="#645600"/>
<path fill-rule="evenodd" clip-rule="evenodd" d="M16.52 14.938C15.844 17.066 16.522 19 17.942 19C19.413 19 19.832 15.105 18.481 13.984C17.483 13.156 17.012 13.385 16.52 14.938ZM47.345 17.543C47.019 18.392 46.976 19.31 47.249 19.583C47.523 19.856 47.986 19.161 48.279 18.04C48.903 15.657 48.21 15.289 47.345 17.543ZM27.736 22.598C26.762 23.571 28.099 26 29.607 26C30.373 26 31 25.1 31 24C31 22.117 29.052 21.281 27.736 22.598ZM41 25C41 25.55 41.45 26 42 26C42.55 26 43 25.55 43 25C43 24.45 42.55 24 42 24C41.45 24 41 24.45 41 25ZM43.38 32.265C43.844 33.705 43.481 33.945 41.409 33.569C39.676 33.255 39.049 33.488 39.434 34.304C39.745 34.962 40.278 36.294 40.62 37.264C41.19 38.884 41.395 38.851 43.12 36.861C45.293 34.357 45.345 34.023 43.89 32C42.982 30.737 42.901 30.779 43.38 32.265ZM15.604 42.349C15.287 43.532 15.021 45.582 15.014 46.906L15 49.311L17.539 46.406C19.859 43.75 20.165 43.652 21.1 45.271C21.663 46.245 22.545 46.781 23.061 46.462C24.766 45.408 24.046 44.396 20.091 42.284L16.182 40.198L15.604 42.349ZM38.706 44.627C37.399 45.934 29.487 46.796 27.678 45.828C26.661 45.283 25.56 45.107 25.231 45.436C24.108 46.558 26.721 48.126 29.863 48.215C37.885 48.443 28.619 50.942 18.75 51.212C17.237 51.253 16 51.747 16 52.31C16 52.873 16.271 53.062 16.603 52.731C16.934 52.399 18.31 52.548 19.66 53.061C21.01 53.574 21.869 53.596 21.568 53.111C20.817 51.894 24.522 51.03 30.559 51.014C36.065 50.999 38.432 49.733 39.466 46.25C40.136 43.997 39.881 43.452 38.706 44.627ZM38 47.441C38 47.684 37.55 48.16 37 48.5C36.45 48.84 36 48.641 36 48.059C36 47.477 36.45 47 37 47C37.55 47 38 47.198 38 47.441ZM17.638 55.5C17.955 56.325 18.671 57 19.229 57C19.815 57 19.718 56.365 19 55.5C18.315 54.675 17.599 54 17.409 54C17.219 54 17.322 54.675 17.638 55.5Z" fill="#3A2F00"/>
</svg>
