<svg width="64" height="64" viewBox="0 0 64 64" fill="none" xmlns="http://www.w3.org/2000/svg">
<g clip-path="url(#clip0_1_81)">
<path fill-rule="evenodd" clip-rule="evenodd" d="M21.4614 1.59409C15.3245 3.46071 6.87607 10.9425 3.29558 17.682C0.931582 22.131 0.536381 24.1125 0.536381 31.5169C0.536381 38.9214 0.931582 40.9029 3.29558 45.3519C6.79477 51.9379 15.062 59.3221 21.2803 61.4154C32.4818 65.1853 45.5769 62.3539 53.7496 54.3943C60.9528 47.3792 63.2344 41.883 63.2468 31.5169C63.2561 24.1003 62.867 22.1391 60.4989 17.682C52.9427 3.4597 36.9711 -3.1233 21.4614 1.59409Z" fill="#85DAFB"/>
<path fill-rule="evenodd" clip-rule="evenodd" d="M21.4614 1.59409C15.3245 3.46071 6.87607 10.9425 3.29558 17.682C0.931582 22.131 0.536381 24.1125 0.536381 31.5169C0.536381 38.9214 0.931582 40.9029 3.29558 45.3519C6.79477 51.9379 15.062 59.3221 21.2803 61.4154C32.4818 65.1853 45.5769 62.3539 53.7496 54.3943C60.9528 47.3792 63.2344 41.883 63.2468 31.5169C63.2561 24.1003 62.867 22.1391 60.4989 17.682C52.9427 3.4597 36.9711 -3.1233 21.4614 1.59409ZM39.4082 13.5736C43.6463 15.3233 48.8158 21.1174 50.4182 25.914C52.0165 30.6975 50.9914 37.4991 48.014 41.8637C46.7461 43.7222 45.3804 45.1282 44.978 44.9879C44.5766 44.8476 42.7858 44.7338 41.0002 44.7338C37.992 44.7338 37.8695 44.6026 39.332 42.9546C46.5948 34.7724 45.2775 22.0608 36.7416 17.9412C31.8684 15.5897 26.5558 16.3674 22.9126 19.9665C20.1637 22.682 20.1771 22.3007 22.2673 38.1833C22.9044 43.0176 20.6577 45.8979 17.6597 44.0902C10.5595 39.81 10.8734 23.6031 18.1815 17.0741C23.2903 12.5102 32.9655 10.9149 39.4082 13.5736Z" fill="#363737"/>
<path fill-rule="evenodd" clip-rule="evenodd" d="M21.4614 1.59409C15.3245 3.46071 6.87607 10.9425 3.29558 17.682C0.931582 22.131 0.536381 24.1125 0.536381 31.5169C0.536381 38.9214 0.931582 40.9029 3.29558 45.3519C6.91518 52.1657 15.128 59.3831 21.7218 61.5476C28.4856 63.7671 38.9512 63.1834 45.3588 60.23C51.3547 57.4666 57.7665 51.148 60.8395 44.9737C62.7745 41.086 63.2386 38.4945 63.2468 31.5169C63.2561 24.1003 62.867 22.1391 60.4989 17.682C52.9427 3.4597 36.9711 -3.1233 21.4614 1.59409ZM28.1871 7.28952C27.6869 8.08965 28.0039 8.26654 29.1556 7.82937C30.0973 7.47253 30.8681 7.624 30.8681 8.16488C30.8681 9.52825 28.0616 9.40522 27.1847 8.00323C26.6948 7.22039 26.1647 7.38915 25.5164 8.53291C24.9936 9.45504 24.1322 9.94406 23.6011 9.61975C22.0676 8.68339 22.4752 7.30681 24.4358 6.8005C27.8001 5.93225 28.9425 6.0817 28.1871 7.28952ZM36.7003 7.58029C36.7003 8.39464 36.3062 8.82064 35.8256 8.52682C35.345 8.233 35.2174 7.56707 35.5436 7.04653C36.3752 5.71672 36.7003 5.86617 36.7003 7.58029ZM40.6452 8.13336C40.2953 8.69254 39.4575 9.14293 38.7834 9.13479C38.0466 9.12462 38.1742 8.72507 39.1015 8.13336C41.0785 6.87065 41.4346 6.87065 40.6452 8.13336ZM44.7619 8.13336C44.4119 8.69254 43.5743 9.14293 42.9001 9.13479C42.1632 9.12462 42.2908 8.72507 43.2181 8.13336C45.1952 6.87065 45.5512 6.87065 44.7619 8.13336ZM23.1493 11.1834C25.3507 13.5858 27.2248 13.8685 26.3696 11.6683C25.8746 10.3924 26.138 10.3152 27.868 11.2302C29.0228 11.8402 31.2128 12.2316 32.734 12.0984C35.7546 11.8341 42.5429 14.3656 43.6782 16.1794C44.0693 16.8046 44.8925 17.01 45.5069 16.6348C46.1482 16.2434 46.3293 16.4223 45.9331 17.0567C45.5533 17.6637 46.0607 18.7638 47.06 19.5018C48.0603 20.2389 49.0288 21.5281 49.2131 22.3669C49.3972 23.2056 49.9787 24.0454 50.5057 24.2324C51.0326 24.4206 51.2137 24.9736 50.908 25.4627C50.6024 25.9507 50.9431 27.2845 51.6646 28.4252C53.0467 30.6131 58.0732 31.3198 59.0076 29.4582C59.2948 28.8848 59.4131 28.9997 59.2711 29.7124C59.1281 30.4251 57.3589 31.1479 55.3397 31.3177C51.9568 31.6024 51.5801 31.9694 50.5602 35.9731C48.824 42.7858 46.1913 45.4475 41.7032 44.93C38.3439 44.5427 38.1165 44.3322 39.4401 42.8376C46.5938 34.7591 45.2137 22.0303 36.7416 17.9412C31.8684 15.5897 26.5558 16.3674 22.9126 19.9665C20.1637 22.682 20.1771 22.3007 22.2673 38.1833C23.1647 44.9971 18.624 46.9084 14.8953 41.2862C12.8843 38.2555 11.1708 27.4096 12.4532 25.8317C12.9482 25.2207 13.0501 24.4206 12.6775 24.0525C12.305 23.6845 12.5674 23.3836 13.261 23.3836C13.9547 23.3836 14.2366 22.926 13.8868 22.3669C13.5368 21.8076 13.6315 21.3502 14.0968 21.3502C14.5619 21.3502 15.3996 20.3213 15.9585 19.0627C16.5173 17.804 18.0158 16.3238 19.2899 15.7716C20.564 15.2196 21.6056 14.3921 21.6056 13.9325C21.6056 13.4729 22.0687 13.3795 22.6348 13.7251C23.2007 14.0708 23.6638 13.8685 23.6638 13.2767C23.6638 12.685 22.9415 12.2001 22.0594 12.2001C21.1774 12.2001 20.7411 11.7426 21.0909 11.1834C21.8958 9.89629 20.5331 9.89629 18.518 11.1834C17.4889 11.8402 17.4034 12.1736 18.2607 12.1848C18.9688 12.1929 19.5472 12.5813 19.5472 13.047C19.5472 13.5136 18.8525 13.8949 18.0034 13.8949C17.1544 13.8949 16.4597 13.4862 16.4597 12.987C16.4597 12.4888 15.9965 12.3628 15.4305 12.7084C14.8645 13.0541 14.4013 13.0957 14.4013 12.8009C14.4013 12.2479 19.5874 9.26289 20.6741 9.19071C21.0107 9.16834 22.1253 10.0651 23.1493 11.1834ZM14.4013 10.5174C14.4013 10.7107 13.3598 11.7395 12.0857 12.805C11.8503 13.002 11.5309 12.6873 11.7307 12.4542C13.5729 10.305 14.4013 9.70413 14.4013 10.5174ZM46.5568 10.9088C45.8456 11.1559 45.5873 11.89 45.9825 12.5406C46.3777 13.1923 45.8013 13.0541 44.7022 12.2336C43.603 11.4131 42.5687 10.67 42.4031 10.5815C42.2384 10.4931 43.3962 10.4301 44.976 10.4412C46.5568 10.4524 47.2679 10.6629 46.5568 10.9088ZM50.4429 15.734C49.7266 16.5861 48.6625 17.2835 48.0789 17.2835C47.4943 17.2835 47.8566 16.3654 48.8847 15.244C51.0131 12.9209 52.4312 13.3662 50.4429 15.734ZM13.7653 15.8113C14.1163 16.7162 13.9434 17.1239 13.3609 16.768C12.801 16.4264 12.3431 15.7168 12.3431 15.1901C12.3431 13.7281 13.0809 14.0504 13.7653 15.8113ZM41.1598 30.5003C41.1598 31.0595 40.956 31.5169 40.7059 31.5169C40.4558 31.5169 39.966 31.0595 39.616 30.5003C39.2661 29.9411 39.4709 29.4836 40.0699 29.4836C40.6689 29.4836 41.1598 29.9411 41.1598 30.5003ZM10.0397 31.1988C9.05585 31.4529 7.20334 31.4621 5.92306 31.2191C4.64277 30.9761 5.44758 30.7676 7.71176 30.7565C9.97592 30.7453 11.0236 30.9446 10.0397 31.1988Z" fill="#1B1C1C"/>
<path fill-rule="evenodd" clip-rule="evenodd" d="M21.4614 1.59409C15.3245 3.46071 6.87607 10.9425 3.29558 17.682C0.931582 22.131 0.536381 24.1125 0.536381 31.5169C0.536381 38.9214 0.931582 40.9029 3.29558 45.3519C6.91518 52.1657 15.128 59.3831 21.7218 61.5476C28.4856 63.7671 38.9512 63.1834 45.3588 60.23C51.3547 57.4666 57.7665 51.148 60.8395 44.9737C62.7745 41.086 63.2386 38.4945 63.2468 31.5169C63.2561 24.1003 62.867 22.1391 60.4989 17.682C52.9427 3.4597 36.9711 -3.1233 21.4614 1.59409ZM35.7391 4.67665C34.9364 5.46966 27.8289 5.46966 27.0262 4.67665C26.6866 4.34115 28.6471 4.06665 31.3827 4.06665C34.1182 4.06665 36.0787 4.34115 35.7391 4.67665ZM29.6671 6.69375C31.6163 7.29664 30.6242 9.42759 28.2395 9.75903C26.2965 10.0295 26.2934 9.99591 28.1593 8.63154C30.0056 7.28139 29.9954 7.23157 27.902 7.38712C26.703 7.47659 25.7222 8.12218 25.7222 8.82267C25.7222 11.6378 34.0472 13.5055 35.5919 11.0359C36.0932 10.2338 35.4818 10.0305 33.6252 10.3812C32.1432 10.6609 31.1748 10.4981 31.4743 10.0203C31.7738 9.54146 32.9171 9.15004 34.0163 9.15004C35.1155 9.15004 35.8986 8.64882 35.7566 8.03576C35.6156 7.42271 36.5028 6.53616 37.7295 6.06646C40.8335 4.87592 41.7187 7.58131 39.0778 10.1901C36.6551 12.5834 36.4575 13.656 38.5868 12.8488C39.4359 12.5274 40.1306 12.7633 40.1306 13.3734C40.1306 14.1409 40.5732 14.1195 41.5684 13.3042C42.3588 12.6555 42.7848 11.2901 42.5142 10.2694C42.2126 9.12971 42.7066 8.15472 43.7955 7.74194C45.2425 7.19395 45.3423 7.33832 44.343 8.52784C43.3952 9.65533 43.3982 10.1566 44.3533 10.7401C45.2435 11.283 45.0418 11.8981 43.6308 12.9412C41.768 14.3188 41.8966 14.5872 46.3056 18.5472C48.8528 20.8358 50.3636 22.3781 49.6618 21.9755C48.8035 21.4834 48.5863 21.7568 48.9979 22.8162C49.3345 23.6814 50.0734 24.1053 50.6405 23.7587C51.2796 23.3683 51.4083 23.9508 50.978 25.2898C50.5664 26.5719 50.7301 27.4502 51.3826 27.4502C51.9867 27.4502 52.4806 28.1365 52.4806 28.9752C52.4806 30.7321 58.1565 31.1519 59.0076 29.4582C59.2948 28.8848 59.4131 28.9997 59.2711 29.7124C59.1281 30.4251 57.3589 31.1479 55.3397 31.3177C51.9568 31.6024 51.5801 31.9694 50.5602 35.9731C48.824 42.7858 46.1913 45.4475 41.7032 44.93C38.3439 44.5427 38.1165 44.3322 39.4401 42.8376C46.5938 34.7591 45.2137 22.0303 36.7416 17.9412C31.8684 15.5897 26.5558 16.3674 22.9126 19.9665C20.1637 22.682 20.1771 22.3007 22.2673 38.1833C23.1627 44.9829 18.6251 46.9095 14.9088 41.3075C12.9492 38.3541 10.929 26.0828 12.3235 25.605C12.837 25.4291 13.0027 24.633 12.6929 23.8349C12.3832 23.0368 12.8267 22.1198 13.6788 21.7965C15.4377 21.1295 15.3842 18.8644 13.5677 17.0699C12.8937 16.404 12.3431 15.3924 12.3431 14.8201C12.3431 14.2486 13.0799 14.8201 13.9794 16.0889C15.2772 17.9199 15.9163 18.1507 17.0669 17.2073C18.7146 15.8571 19.0759 12.7562 17.4724 13.7352C16.8971 14.087 16.7304 14.9146 17.1029 15.5744C17.4744 16.2353 16.9033 15.9466 15.8329 14.9339C13.9249 13.1283 13.9259 13.0642 15.8844 11.6297C18.2803 9.87493 19.6419 9.74785 19.2899 11.3105C19.1489 11.9398 19.7273 12.6606 20.5764 12.9128C21.9482 13.3204 21.9482 13.2514 20.5764 12.2926C19.5298 11.5616 19.4474 11.2099 20.3191 11.1987C22.892 11.1681 23.1451 11.3461 22.9219 13.0297C22.7973 13.9711 22.9425 14.1958 23.246 13.5279C23.5486 12.8609 24.4666 12.5681 25.2859 12.8792C26.3305 13.2747 26.5847 12.9534 26.138 11.8045C25.7881 10.9038 25.0615 10.1668 24.5223 10.1668C23.9829 10.1668 23.7812 9.78547 24.0724 9.31983C24.3637 8.85317 23.9284 8.47191 23.104 8.47191C22.2796 8.47191 21.6056 8.85317 21.6056 9.31983C21.6056 10.734 19.8066 10.2663 19.1952 8.69355C18.7928 7.65857 19.117 7.40745 20.283 7.84971C21.3226 8.24317 21.6869 8.06931 21.2588 7.38407C20.8182 6.68053 21.3997 6.46906 22.891 6.79134C24.7836 7.20106 24.9246 7.08516 23.6638 6.15694C22.4535 5.26735 22.787 5.15653 25.2077 5.64555C26.9058 5.98919 28.9127 6.46093 29.6671 6.69375ZM33.9556 7.11669C33.9556 7.67585 33.7518 8.13336 33.5018 8.13336C33.2517 8.13336 32.7617 7.67585 32.4118 7.11669C32.0619 6.55751 32.2668 6.1 32.8657 6.1C33.4647 6.1 33.9556 6.55751 33.9556 7.11669ZM36.3567 8.84504C36.3567 9.57196 37.002 10.1668 37.7903 10.1668C38.5776 10.1668 38.9615 9.74785 38.6414 9.23646C38.3214 8.72507 38.6414 8.08557 39.3526 7.81514C40.0637 7.5447 39.6808 7.36882 38.5014 7.42372C37.322 7.47862 36.3567 8.11811 36.3567 8.84504ZM47.8052 10.2368C47.4799 10.7574 47.588 11.1997 48.0459 11.22C48.504 11.2403 50.2679 12.3983 51.9661 13.7952C53.6642 15.1912 54.2899 16.0584 53.3575 15.7229C52.3448 15.3579 50.8617 15.9598 49.6782 17.2154C48.6008 18.3576 46.7853 18.3614 45.7031 17.2236L45.4226 16.9286C43.4147 14.818 43.3324 14.389 44.7166 13.2544C45.578 12.5478 46.0288 11.5637 45.719 11.0685C44.9286 9.80478 46.2428 7.97476 47.4223 8.69559C47.9585 9.02295 48.1314 9.71634 47.8052 10.2368ZM14.4013 10.5174C14.4013 10.7107 13.3598 11.7395 12.0857 12.805C11.8503 13.002 11.5309 12.6873 11.7307 12.4542C13.5729 10.305 14.4013 9.70413 14.4013 10.5174ZM45.4062 13.5705C44.5241 14.6207 44.7773 15.3944 46.4857 16.8748C47.7135 17.9382 48.4113 18.2879 48.0377 17.6525C47.6631 17.0171 48.0686 15.914 48.9383 15.2013C50.2031 14.1643 50.2525 13.7373 49.1842 13.0683C47.3379 11.9103 46.7337 11.9907 45.4062 13.5705ZM47.7095 14.7356C47.3842 15.5714 46.6556 15.972 46.0874 15.6252C45.4535 15.2379 45.5945 14.6595 46.4528 14.1216C48.3269 12.9493 48.3907 12.9799 47.7095 14.7356ZM8.54744 30.7859C11.6998 31.1753 11.6772 31.1978 7.96905 31.3543C4.37416 31.5058 4.11892 31.3248 4.24963 28.7211C4.36592 26.4152 4.46678 26.3157 4.82802 28.1528C5.14604 29.7714 6.16285 30.4921 8.54744 30.7859ZM41.1598 30.5003C41.1598 31.0595 40.956 31.5169 40.7059 31.5169C40.4558 31.5169 39.966 31.0595 39.616 30.5003C39.2661 29.9411 39.4709 29.4836 40.0699 29.4836C40.6689 29.4836 41.1598 29.9411 41.1598 30.5003Z" fill="white"/>
<path fill-rule="evenodd" clip-rule="evenodd" d="M19.5472 3.12622C13.9269 5.63233 6.78653 12.2763 3.78547 17.7918C0.419055 23.9772 0.571372 38.2921 4.07569 45.0693C7.87128 52.4097 18.7228 61.0006 24.198 61.0006C25.1037 61.0006 25.6173 61.3626 25.3404 61.8048C25.0646 62.2461 28.395 62.5673 32.7412 62.5185C42.1982 62.4108 48.0192 60.0856 54.257 53.9225C58.5446 49.6881 63.2736 41.275 62.2701 39.6708C61.9613 39.1776 62.1713 38.4923 62.7353 38.1478C63.9776 37.3893 63.6575 25.418 62.3946 25.4169C61.9048 25.4169 61.7453 24.5018 62.0416 23.3836C62.337 22.2652 62.2753 21.3502 61.9027 21.3502C61.5301 21.3502 60.1027 19.2589 58.7298 16.704C55.5188 10.7249 48.506 4.65225 42.4627 2.61788C35.7072 0.34357 25.2673 0.575372 19.5472 3.12622ZM41.1392 3.74435C48.2693 6.01867 55.6464 12.6566 58.6948 19.5415C67.2565 38.8766 53.1383 60.4506 31.9683 60.3804C8.10695 60.3012 -5.94327 34.5151 7.37727 15.2501C11.5279 9.24866 15.6148 6.07865 22.0265 3.88873C28.6698 1.62052 34.3477 1.5768 41.1392 3.74435ZM30.6108 3.72301C31.3189 4.00565 32.4766 4.00565 33.1837 3.72301C33.8918 3.44139 33.3124 3.21061 31.8973 3.21061C30.4822 3.21061 29.9037 3.44139 30.6108 3.72301ZM24.1785 5.08333C24.7177 5.94547 24.3678 6.13457 23.0175 5.71163C20.8996 5.04774 14.4013 8.44142 14.4013 10.2115C14.4013 10.8123 13.9907 11.0523 13.4885 10.7462C12.3554 10.0539 10.049 12.6454 10.9794 13.5644C11.352 13.9325 11.1101 14.2334 10.4411 14.2334C8.56288 14.2334 5.08119 20.5846 5.77485 22.7451C6.21534 24.1145 6.0198 24.4297 5.08737 23.8603C4.11892 23.2687 3.95528 23.6916 4.44825 25.5124C4.81258 26.8575 5.11722 28.531 5.12442 29.2294C5.13266 29.9391 6.40574 30.5003 8.00712 30.5003C10.4504 30.5003 10.9104 30.9487 11.1091 33.5209C11.6453 40.4749 16.5112 47.0213 23.3726 50.0195C28.7593 52.3731 29.2873 53.5169 23.9757 51.3239C21.8824 50.4597 19.5431 49.991 18.7764 50.2818C17.9881 50.5807 17.668 50.354 18.0385 49.7612C18.8299 48.4965 16.7118 45.7504 14.9468 45.7504C14.2542 45.7504 13.2662 46.6807 12.7527 47.8184C11.8932 49.7216 11.5979 49.5488 9.03527 45.6447C7.50386 43.3125 5.94364 39.2936 5.56696 36.7153C5.19029 34.136 4.4781 31.3391 3.98307 30.5003C2.30552 27.6546 4.31138 38.0227 6.34399 42.7004C11.8377 55.3438 26.2369 61.7794 40.3622 57.9038C45.7633 56.4225 52.425 51.0962 55.9798 45.4159C58.5528 41.3045 59.0561 39.3545 59.3267 32.4411C59.5479 26.7701 59.305 24.512 58.525 24.9878C57.7726 25.4474 57.647 24.9208 58.1411 23.3836C58.6917 21.6694 58.5466 21.2963 57.5617 21.8982C56.6272 22.4686 56.4378 22.2114 56.905 21.0086C57.2663 20.0783 57.0862 19.3168 56.5047 19.3168C55.9222 19.3168 55.7256 18.8704 56.0674 18.3255C56.8042 17.1462 48.4854 7.93917 47.3234 8.64882C46.8819 8.91824 46.2408 8.41702 45.8981 7.53454C45.5554 6.65307 44.7012 6.12034 43.9983 6.35113C43.2963 6.58293 42.0675 6.12542 41.2678 5.33546C40.2386 4.31878 38.733 4.11036 36.1128 4.62379C31.4023 5.54591 31.0533 5.5449 26.88 4.61972C24.27 4.04123 23.598 4.15611 24.1785 5.08333ZM40.0226 9.3493C39.476 10.3578 38.5817 11.1834 38.0362 11.1834C37.4898 11.1834 37.0431 11.6896 37.0431 12.3088C37.0431 12.928 37.7378 13.171 38.5868 12.8488C39.4359 12.5274 40.1306 12.7633 40.1306 13.3734C40.1306 14.141 40.5732 14.1195 41.5684 13.3042C42.3588 12.6555 42.7848 11.2901 42.5142 10.2694C42.2126 9.1297 42.7066 8.15471 43.7955 7.74194C45.2425 7.19394 45.3423 7.33832 44.343 8.52783C43.3952 9.65532 43.3982 10.1565 44.3533 10.7401C45.2435 11.283 45.0418 11.8981 43.6308 12.9412C41.768 14.3188 41.8966 14.5872 46.3056 18.5472C48.8528 20.8358 50.3636 22.3781 49.6618 21.9755C48.8035 21.4834 48.5863 21.7568 48.9979 22.8162C49.3345 23.6814 50.0734 24.1053 50.6405 23.7587C51.2796 23.3683 51.4083 23.9508 50.978 25.2899C50.5664 26.5719 50.7301 27.4502 51.3826 27.4502C51.9867 27.4502 52.4806 28.1365 52.4806 28.9752C52.4806 30.0061 53.5252 30.5003 55.7081 30.5003C57.414 30.5003 58.7265 32.0075 58.4921 33.6971L58.2985 35.0926C55.5898 54.6118 33.1971 64.1696 16.1818 53.0675C14.0473 51.6756 12.5396 50.3012 12.8309 50.0134C13.1211 49.7257 14.1729 50.1954 15.1671 51.0565C17.6134 53.1753 23.6638 56.149 23.6638 55.232C23.6638 54.8264 24.2196 55.0429 24.8988 55.7139C25.5782 56.3849 27.8937 56.9339 30.0448 56.9339C33.0561 56.9339 33.972 56.5242 34.0276 55.1547C34.0893 53.648 34.2242 53.6866 34.9117 55.4089C35.6208 57.186 35.8163 57.0254 36.4647 54.138C36.8722 52.3202 37.5895 50.8339 38.0579 50.8339C38.5262 50.8339 38.6805 51.697 38.4006 52.7524C37.6061 55.7566 39.6459 56.148 43.9231 53.8137C50.1949 50.3895 51.1942 49.1278 49.1945 47.1514C47.6559 45.6315 47.7187 45.1455 50.0034 40.9009C51.3661 38.3684 52.4477 35.1079 52.4086 33.653C52.355 31.7142 51.8425 32.4391 50.4872 36.3706C47.941 43.7536 46.1893 45.4475 41.6476 44.9239C38.3399 44.5427 38.1165 44.3312 39.4401 42.8376C46.5938 34.7591 45.2137 22.0303 36.7416 17.9412C31.8684 15.5897 26.5558 16.3674 22.9126 19.9665C20.1637 22.682 20.1771 22.3007 22.2673 38.1833C23.1627 44.9829 18.6251 46.9095 14.9088 41.3075C12.9492 38.3541 10.929 26.0828 12.3235 25.605C12.837 25.4291 13.0027 24.633 12.6929 23.8349C12.3832 23.0368 12.8267 22.1198 13.6788 21.7965C15.4377 21.1295 15.3842 18.8644 13.5677 17.0699C12.8937 16.404 12.3431 15.3924 12.3431 14.8201C12.3431 14.2486 13.0799 14.8201 13.9794 16.0889C15.2772 17.9199 15.9163 18.1507 17.0669 17.2073C18.7146 15.8571 19.0759 12.7562 17.4724 13.7352C16.8971 14.087 16.7304 14.9146 17.1029 15.5744C17.4744 16.2353 16.9033 15.9466 15.8329 14.9339C13.9249 13.1283 13.9259 13.0642 15.8844 11.6297C18.2803 9.87492 19.6419 9.74784 19.2899 11.3105C19.1489 11.9398 19.7273 12.6606 20.5764 12.9128C21.9482 13.3204 21.9482 13.2514 20.5764 12.2926C19.5298 11.5615 19.4474 11.2099 20.3191 11.1987C22.892 11.1681 23.1451 11.3461 22.9219 13.0297C22.7973 13.9711 22.9425 14.1958 23.246 13.5279C23.5486 12.861 24.4666 12.5681 25.2859 12.8792C26.3305 13.2747 26.5847 12.9534 26.138 11.8045C25.7881 10.9038 25.0615 10.1668 24.5223 10.1668C23.9829 10.1668 23.7812 9.78546 24.0724 9.31982C24.3637 8.85317 23.9284 8.47191 23.104 8.47191C22.2796 8.47191 21.6056 8.85317 21.6056 9.31982C21.6056 10.734 19.8066 10.2663 19.1952 8.69355C18.7928 7.65856 19.117 7.40745 20.283 7.8497C21.196 8.19537 21.6807 8.05813 21.3585 7.54369C21.0354 7.02518 22.9116 6.60835 25.5637 6.60835C28.9909 6.60835 30.3535 7.01501 30.3535 8.03677C30.3535 8.82165 29.4272 9.5933 28.2951 9.7509C26.3057 10.0284 26.3017 9.99083 28.1593 8.63153C30.0056 7.28138 29.9954 7.23156 27.902 7.38711C26.703 7.47658 25.7222 8.12218 25.7222 8.82266C25.7222 11.6378 34.0472 13.5055 35.5919 11.0359C36.0932 10.2338 35.4818 10.0305 33.6252 10.3812C32.1432 10.6608 31.1748 10.4981 31.4743 10.0203C31.7738 9.54145 32.945 9.15004 34.0771 9.15004C35.2091 9.15004 35.8472 8.68847 35.4942 8.12523C35.1412 7.56097 35.9244 6.70391 37.2345 6.21895C40.0987 5.16059 41.4624 6.69171 40.0226 9.3493ZM33.9556 7.11668C33.9556 7.67585 33.7518 8.13336 33.5018 8.13336C33.2517 8.13336 32.7617 7.67585 32.4118 7.11668C32.0619 6.55751 32.2668 6.1 32.8657 6.1C33.4647 6.1 33.9556 6.55751 33.9556 7.11668ZM36.3567 8.84503C36.3567 9.57196 37.002 10.1668 37.7903 10.1668C38.5776 10.1668 38.9615 9.74784 38.6414 9.23646C38.3214 8.72507 38.6414 8.08558 39.3526 7.81514C40.0637 7.54471 39.6808 7.36882 38.5014 7.42372C37.322 7.47862 36.3567 8.1181 36.3567 8.84503ZM47.7434 10.3365C47.4521 10.8022 47.588 11.1997 48.0459 11.22C48.504 11.2403 50.2679 12.3983 51.9661 13.7952C53.6642 15.1912 54.2899 16.0584 53.3575 15.7229C52.3448 15.3579 50.8617 15.9598 49.6782 17.2154C48.6008 18.3576 46.7853 18.3614 45.7031 17.2236L45.4226 16.9286C43.4507 14.8556 43.3509 14.3737 44.6662 13.295C45.5009 12.6108 45.9598 11.4752 45.686 10.7706C45.4123 10.065 45.8826 9.48859 46.7307 9.48859C47.5787 9.48859 48.0346 9.86985 47.7434 10.3365ZM45.4062 13.5705C44.5241 14.6207 44.7773 15.3944 46.4857 16.8748C47.7135 17.9382 48.4113 18.2879 48.0377 17.6525C47.6631 17.0171 48.0686 15.914 48.9383 15.2013C50.2031 14.1643 50.2525 13.7372 49.1842 13.0683C47.3379 11.9103 46.7337 11.9907 45.4062 13.5705ZM47.7095 14.7356C47.3842 15.5714 46.6555 15.972 46.0874 15.6252C45.4535 15.2379 45.5945 14.6595 46.4528 14.1215C48.3269 12.9493 48.3907 12.9799 47.7095 14.7356ZM41.1598 30.5003C41.1598 31.0595 40.956 31.517 40.7059 31.517C40.4558 31.517 39.966 31.0595 39.616 30.5003C39.2661 29.9411 39.4709 29.4836 40.0699 29.4836C40.6689 29.4836 41.1598 29.9411 41.1598 30.5003ZM47.3348 46.5475C47.3348 47.4117 41.8904 50.8339 40.5156 50.8339C40.0524 50.8339 41.2822 49.7125 43.2469 48.3419C47.3513 45.479 47.3348 45.4871 47.3348 46.5475ZM34.0987 52.7584C32.8214 53.5575 28.8098 53.1651 28.8098 52.2399C28.8098 52.0264 30.3144 51.8577 32.1545 51.8658C34.4291 51.877 35.0507 52.1626 34.0987 52.7584Z" fill="#C3C3C3"/>
<path fill-rule="evenodd" clip-rule="evenodd" d="M24.693 5.17279C24.693 5.80212 23.9984 6.05426 23.1493 5.73197C22.3002 5.4107 21.6056 5.61709 21.6056 6.19151C21.6056 6.76695 21.1425 6.95402 20.5764 6.60834C20.0104 6.26267 19.5472 6.54125 19.5472 7.22648C19.5472 7.91173 19.2456 8.17403 18.8773 7.81006C18.5088 7.44609 17.5475 7.94223 16.7427 8.91214C15.7743 10.0773 15.5087 10.1586 15.9585 9.15004C16.3321 8.31128 15.7372 8.71897 14.635 10.0549C13.5327 11.3918 11.5249 13.3754 10.1714 14.4642C8.81914 15.5531 8.40644 16.1407 9.25551 15.7716C10.2765 15.3274 10.1941 15.5897 9.01468 16.5463C8.03285 17.3415 7.53062 18.291 7.89906 18.655C8.26751 19.019 8.00198 19.3168 7.30832 19.3168C6.61465 19.3168 6.33267 19.7744 6.68258 20.3335C7.0325 20.8926 6.80093 21.3502 6.16799 21.3502C5.53505 21.3502 5.3354 21.8585 5.72442 22.4808C6.11345 23.102 5.95187 23.9041 5.36422 24.262C4.77759 24.6208 4.54088 26.1702 4.83831 27.7074C5.27571 29.9665 5.93335 30.5003 8.2778 30.5003C10.4627 30.5003 11.2902 31.0646 11.636 32.7878C11.8892 34.0455 11.9417 32.9017 11.7533 30.2461C11.565 27.5906 11.8377 25.4169 12.3595 25.4169C12.8813 25.4169 13.0429 24.7347 12.7186 23.9C12.3904 23.0572 12.8165 22.1239 13.6788 21.7965C15.4377 21.1295 15.3842 18.8644 13.5677 17.07C12.8937 16.404 12.3431 15.3924 12.3431 14.8201C12.3431 14.2486 13.0799 14.8201 13.9794 16.0889C15.2772 17.9199 15.9163 18.1507 17.0669 17.2073C18.7146 15.8571 19.0759 12.7562 17.4724 13.7352C16.8971 14.087 16.7304 14.9146 17.1029 15.5744C17.4744 16.2353 16.9033 15.9466 15.8329 14.9339C13.9249 13.1283 13.9259 13.0642 15.8844 11.6297C18.2803 9.87493 19.6419 9.74785 19.2899 11.3105C19.1479 11.9398 19.7273 12.6606 20.5764 12.9128C21.9482 13.3204 21.9482 13.2514 20.5764 12.2926C19.5298 11.5616 19.4474 11.2099 20.3191 11.1987C22.5945 11.1712 23.1545 11.5982 22.9219 13.1862C22.7963 14.0464 22.9415 14.1989 23.246 13.5279C23.5486 12.861 24.4666 12.5681 25.2859 12.8792C26.3305 13.2747 26.5847 12.9534 26.138 11.8045C25.7881 10.9038 25.0615 10.1668 24.5223 10.1668C23.9829 10.1668 23.8728 9.63805 24.2762 8.99246C24.7147 8.29197 24.5603 8.09371 23.8944 8.5014C23.28 8.87656 22.5009 8.74134 22.1623 8.20148C21.4223 7.01807 28.1932 5.60387 29.8265 6.60123C31.4887 7.61486 30.5737 9.43472 28.2395 9.75903C26.2965 10.0295 26.2934 9.99591 28.1593 8.63154C30.0056 7.28139 29.9954 7.23157 27.902 7.38712C26.703 7.47659 25.7222 8.12218 25.7222 8.82267C25.7222 11.6378 34.0472 13.5055 35.5919 11.0359C36.0932 10.2338 35.4818 10.0305 33.6252 10.3812C32.1432 10.6609 31.1748 10.4981 31.4743 10.0203C31.7738 9.54146 32.945 9.15004 34.0771 9.15004C35.2091 9.15004 35.8472 8.68847 35.4942 8.12523C35.1412 7.56097 35.8873 6.7212 37.1532 6.25861C40.4929 5.0386 37.9107 3.96295 34.18 5.02029C32.4437 5.51135 30.8722 5.79196 30.688 5.64149C29.3738 4.57194 24.693 4.20594 24.693 5.17279ZM40.5114 6.63173C40.8428 7.4837 40.1985 9.08294 39.0778 10.1901C36.6551 12.5834 36.4575 13.656 38.5868 12.8488C39.4359 12.5274 40.1306 12.7633 40.1306 13.3734C40.1306 14.141 40.5732 14.1195 41.5684 13.3042C42.3588 12.6555 42.7684 11.2271 42.4771 10.1291C42.1735 8.98127 42.4627 8.13336 43.1585 8.13336C43.8243 8.13336 44.1022 8.55935 43.7769 9.07989C43.4507 9.60044 43.7255 10.3568 44.3862 10.7604C45.2291 11.2739 45.0027 11.9266 43.6308 12.9412C41.768 14.3188 41.8966 14.5872 46.3056 18.5472C48.8528 20.8358 50.3636 22.3781 49.6618 21.9755C48.8035 21.4834 48.5863 21.7568 48.9979 22.8162C49.3345 23.6814 50.0734 24.1053 50.6405 23.7587C51.2796 23.3683 51.4083 23.9508 50.978 25.2899C50.5664 26.5719 50.7301 27.4502 51.3826 27.4502C51.9867 27.4502 52.4806 28.0867 52.4806 28.8644C52.4806 29.7022 53.8423 30.4342 55.8255 30.6629C58.8481 31.0106 59.1909 30.7768 59.3864 28.2321C59.5048 26.6836 59.1075 25.4169 58.5043 25.4169C57.9003 25.4169 57.6728 24.7306 57.999 23.8919C58.3243 23.0531 58.0927 22.3669 57.4845 22.3669C56.8752 22.3669 56.6437 21.6806 56.9699 20.8419C57.2951 20.003 57.0862 19.3168 56.5047 19.3168C55.9222 19.3168 55.7184 18.8827 56.0508 18.3509C56.3833 17.8202 55.7462 16.9052 54.6357 16.3177C51.9476 14.8964 51.8446 14.9177 49.5074 17.3963C47.1876 19.8556 46.9931 17.5987 49.2891 14.8658C50.3585 13.5929 51.0964 13.4933 52.846 14.387C54.608 15.2868 54.4505 14.879 52.0659 12.3678C50.4223 10.6374 48.683 9.4642 48.1993 9.75903C47.7156 10.0539 47.0436 9.58315 46.705 8.71185C46.3664 7.84056 45.6758 7.38102 45.1684 7.69111C44.662 8.00018 44.2473 7.74195 44.2473 7.11669C44.2473 6.49143 43.7841 6.26267 43.2181 6.60834C42.652 6.95402 42.1889 6.75169 42.1889 6.15999C42.1889 5.56828 41.6764 5.08333 41.0497 5.08333C40.4229 5.08333 40.181 5.77976 40.5114 6.63173ZM33.9556 7.11669C33.9556 7.67585 33.7518 8.13336 33.5018 8.13336C33.2517 8.13336 32.7617 7.67585 32.4118 7.11669C32.0619 6.55751 32.2668 6.10001 32.8657 6.10001C33.4647 6.10001 33.9556 6.55751 33.9556 7.11669ZM36.3567 8.84504C36.3567 9.57196 37.002 10.1668 37.7903 10.1668C38.5776 10.1668 38.9615 9.74785 38.6414 9.23646C38.3214 8.72507 38.6414 8.08558 39.3526 7.81514C40.0637 7.5447 39.6808 7.36883 38.5014 7.42372C37.322 7.47862 36.3567 8.11811 36.3567 8.84504ZM21.6056 9.15004C21.6056 9.70921 21.1425 10.1668 20.5764 10.1668C20.0104 10.1668 19.5472 9.70921 19.5472 9.15004C19.5472 8.59087 20.0104 8.13336 20.5764 8.13336C21.1425 8.13336 21.6056 8.59087 21.6056 9.15004ZM48.2549 14.3412C47.1403 15.4423 46.5578 16.8951 46.9591 17.5742C47.3605 18.2534 46.6793 17.9331 45.4453 16.8646C43.5093 15.1871 43.3962 14.6991 44.6188 13.3062C45.399 12.4176 45.8116 11.0746 45.5368 10.3203C45.1725 9.31983 45.7468 9.40828 47.658 10.6445C50.2649 12.3323 50.2679 12.3526 48.2549 14.3412ZM45.3526 13.6346C44.4243 14.7397 44.4542 15.244 45.4833 15.8307C46.2192 16.2495 46.4795 16.2211 46.0648 15.7676C45.649 15.3142 46.1121 14.3402 47.0939 13.6041C48.0748 12.867 48.3568 12.2499 47.7177 12.2326C47.0795 12.2143 46.0154 12.8457 45.3526 13.6346ZM26.0608 17.7003C21.4955 19.7296 20.1997 22.618 21.0468 28.8696C22.8581 42.2358 22.8591 42.2683 21.093 43.7161C18.8442 45.5583 16.5225 44.1746 14.1461 39.5741C13.1561 37.6587 12.3451 36.7244 12.3451 37.4971C12.3389 42.492 21.2824 49.9737 28.9034 51.3493C38.3676 53.0573 51.6058 43.9621 51.4062 35.8887C51.3815 34.8821 50.7311 35.8043 49.9602 37.9383C47.835 43.8249 45.9382 45.4191 41.6476 44.9239C38.3399 44.5427 38.1165 44.3312 39.4401 42.8376C44.0641 37.615 45.2528 31.1347 42.8095 24.4561C40.427 17.9412 32.6104 14.7886 26.0608 17.7003ZM38.7031 20.6823C40.8211 22.4828 41.5272 24.0352 41.5899 27.0364C41.6363 29.2213 42.0809 31.3004 42.578 31.6572C43.075 32.0141 43.1378 32.856 42.718 33.527C42.1941 34.3646 41.5684 34.0018 40.7224 32.369C39.8631 30.7118 39.8198 29.7652 40.5814 29.2446C41.3069 28.7496 41.2421 28.4924 40.3879 28.4821C39.6808 28.474 39.1015 27.8661 39.1015 27.132C39.1015 25.3721 34.1172 20.7158 30.8681 19.4398C28.4455 18.4883 28.5175 18.4252 32.0969 18.3642C34.6698 18.3215 36.8064 19.0708 38.7031 20.6823ZM40.4723 45.8196C42.6912 45.8877 42.6901 45.8948 40.3437 47.0101C38.4243 47.9241 37.6575 47.7899 36.2269 46.2893C34.5669 44.5457 34.5731 44.4806 36.3557 45.0977C37.392 45.4567 39.2445 45.7809 40.4723 45.8196ZM13.9927 46.5974C13.7015 47.064 14.1163 47.4452 14.916 47.4452C15.7157 47.4452 16.1303 47.064 15.8391 46.5974C15.5478 46.1317 15.132 45.7504 14.916 45.7504C14.6998 45.7504 14.284 46.1317 13.9927 46.5974ZM45.5368 48.6775C42.262 50.292 41.4181 52.9505 44.0157 53.469C44.7372 53.6134 44.8534 53.4986 44.2731 53.2149C42.51 52.3508 43.0967 50.5706 44.9172 51.2608C45.9454 51.6502 47.3637 51.1124 48.5091 49.8974C51.0367 47.2166 49.6515 46.6472 45.5368 48.6775ZM17.5228 51.5771C16.1808 53.0675 16.2055 53.1814 17.7472 52.5968C18.7012 52.2349 19.7592 52.3843 20.0999 52.9282C20.4405 53.4721 21.1497 53.6541 21.6766 53.3318C22.2035 53.0106 22.6348 53.1824 22.6348 53.7151C22.6348 54.2478 23.3808 54.9656 24.2927 55.3113C25.4969 55.7678 25.7819 55.5055 25.3342 54.3505C24.9792 53.4376 25.149 53.0258 25.7336 53.3827C26.2934 53.7242 26.7514 54.6627 26.7514 55.4689C26.7514 57.6375 28.3476 57.2491 28.5165 55.0399C28.6184 53.7009 27.5501 52.7859 24.8763 51.9237C22.7943 51.2517 20.6278 50.5217 20.0618 50.3012C19.4957 50.0805 18.3534 50.6549 17.5228 51.5771ZM38.6311 52.797C38.3048 53.3176 38.4325 53.9835 38.9131 54.2774C39.3937 54.5712 39.7879 54.1452 39.7879 53.3308C39.7879 51.6167 39.4627 51.4673 38.6311 52.797ZM29.8389 53.7232C29.8389 54.3312 30.7652 55.3184 31.8973 55.9172C33.5975 56.8159 33.9587 56.6899 33.971 55.1903C33.9844 53.647 34.1367 53.6032 34.9847 54.9005C35.837 56.204 35.9851 56.1673 35.9985 54.6463C36.0067 53.6684 35.3193 52.8672 34.4702 52.8672C33.6211 52.8672 32.9264 53.3807 32.9264 54.008C32.9264 54.7969 32.4489 54.7582 31.3827 53.8839C30.3699 53.0543 29.8389 52.9984 29.8389 53.7232Z" fill="#9F9F9F"/>
<path fill-rule="evenodd" clip-rule="evenodd" d="M24.9391 5.24701C24.4059 5.77365 22.9754 6.27792 21.7589 6.36841C20.5424 6.45889 19.5472 6.91945 19.5472 7.39322C19.5472 7.86597 19.1324 8.00017 18.6261 7.6911C18.1187 7.38102 17.4138 7.87716 17.0576 8.79318C16.7026 9.7082 16.1674 10.2165 15.8679 9.9217C15.1362 9.19782 9.57146 14.5374 10.0428 15.5114C10.2476 15.9344 9.69394 16.5545 8.81194 16.889C7.92995 17.2235 7.46476 17.9057 7.77865 18.4069C8.09152 18.9071 7.95567 19.3168 7.47711 19.3168C6.99752 19.3168 6.5313 20.3 6.4397 21.5017C6.34811 22.7033 5.85514 24.0992 5.34363 24.6045C4.83317 25.1088 4.62322 26.5973 4.87742 27.9118C5.23558 29.7591 6.1433 30.3935 8.87883 30.7087C12.2854 31.1022 12.3934 31.0106 11.7842 28.2667C11.4044 26.5596 11.5825 25.4169 12.2288 25.4169C12.8227 25.4169 13.0429 24.7347 12.7186 23.9C12.3904 23.0572 12.8165 22.1239 13.6789 21.7965C15.4377 21.1295 15.3842 18.8644 13.5677 17.0699C12.8937 16.404 12.3431 15.3924 12.3431 14.8201C12.3431 14.2486 13.0799 14.8201 13.9794 16.0889C15.2772 17.9199 15.9163 18.1507 17.0669 17.2073C18.7146 15.8571 19.0759 12.7562 17.4724 13.7352C16.8971 14.087 16.7304 14.9146 17.1029 15.5744C17.4744 16.2353 16.9033 15.9466 15.8329 14.9339C13.9249 13.1283 13.9259 13.0642 15.8844 11.6297C18.2803 9.87493 19.6419 9.74785 19.2899 11.3105C19.1479 11.9398 19.7273 12.6606 20.5764 12.9128C21.9482 13.3204 21.9482 13.2514 20.5764 12.2926C19.5298 11.5616 19.4474 11.2099 20.3191 11.1987C22.892 11.1681 23.1451 11.3461 22.9219 13.0297C22.7943 13.9904 22.9455 14.1816 23.2677 13.4648C23.5816 12.7623 24.2629 12.4461 24.7805 12.7623C25.2982 13.0784 25.7222 12.623 25.7222 11.7517C25.7222 10.8804 25.2313 10.1668 24.6324 10.1668C24.0333 10.1668 23.8728 9.63804 24.2762 8.99246C24.7147 8.29196 24.5603 8.09371 23.8945 8.5014C23.2801 8.87656 22.501 8.74133 22.1623 8.20148C21.4223 7.01807 28.1932 5.60387 29.8265 6.60122C31.4887 7.61485 30.5737 9.43471 28.2395 9.75903C26.2965 10.0295 26.2934 9.99591 28.1593 8.63154C30.0056 7.28138 29.9954 7.23157 27.902 7.38712C26.703 7.47659 25.7222 8.12218 25.7222 8.82267C25.7222 11.6378 34.0472 13.5055 35.5919 11.0359C36.0932 10.2338 35.4818 10.0305 33.6252 10.3812C32.1432 10.6609 31.1748 10.4981 31.4743 10.0203C31.7738 9.54146 32.945 9.15004 34.0771 9.15004C35.2091 9.15004 35.8472 8.68847 35.4942 8.12523C35.1412 7.56097 35.8873 6.7212 37.1532 6.25861C40.3848 5.07825 37.9745 3.94872 34.3591 4.95014C32.7227 5.40358 30.1507 5.4412 28.6451 5.03351C27.1383 4.6248 25.4711 4.72139 24.9391 5.24701ZM39.297 6.73238C38.5559 7.52742 37.5907 7.95951 37.1532 7.69213C36.7148 7.42474 36.3567 7.87208 36.3567 8.68643C36.3567 9.5008 37.002 10.1668 37.7903 10.1668C38.5776 10.1668 38.9667 9.75699 38.6538 9.25679C38.3399 8.75556 38.7865 8.0805 39.6459 7.75414C40.9179 7.27224 41.0054 7.53454 40.1183 9.17342C39.5193 10.2786 38.5549 11.1834 37.9756 11.1834C37.3961 11.1834 37.213 11.648 37.568 12.2164C37.9241 12.7847 38.6455 12.987 39.1725 12.6647C39.6994 12.3435 40.1306 12.621 40.1306 13.2808C40.1306 14.1938 40.4754 14.1999 41.5684 13.3042C42.3588 12.6555 42.7684 11.2271 42.4771 10.1291C42.1848 9.02601 42.4627 8.13336 43.0977 8.13336C43.7307 8.13336 44.1927 8.477 44.1259 8.89587C43.8336 10.7218 44.3409 11.5962 45.051 10.491C45.615 9.6167 46.5176 9.81495 48.3804 11.221C49.0854 11.7533 48.6328 12.8756 47.7557 12.7704C43.6298 12.2753 41.1701 13.6336 42.9691 15.4108C43.672 16.1051 44.2473 16.282 44.2473 15.8042C44.2473 15.3264 45.2899 15.8012 46.5629 16.8605C47.836 17.9199 48.5307 18.3714 48.1046 17.863C46.919 16.4488 50.3647 13.2635 52.3201 13.966C53.7486 14.4794 53.7074 14.2212 52.0638 12.3729C50.9852 11.159 49.5681 10.1668 48.9136 10.1668C48.2589 10.1668 46.709 9.23341 45.471 8.09371C44.2318 6.95402 43.2181 6.32368 43.2181 6.69273C43.2181 7.06279 42.6397 6.8981 41.9317 6.32672C41.0311 5.59878 40.2408 5.72079 39.297 6.73238ZM33.9556 7.11669C33.9556 7.67585 33.7518 8.13336 33.5018 8.13336C33.2517 8.13336 32.7618 7.67585 32.4118 7.11669C32.062 6.55751 32.2668 6.1 32.8657 6.1C33.4647 6.1 33.9556 6.55751 33.9556 7.11669ZM21.6056 9.15004C21.6056 9.70921 21.1425 10.1668 20.5764 10.1668C20.0104 10.1668 19.5472 9.70921 19.5472 9.15004C19.5472 8.59087 20.0104 8.13336 20.5764 8.13336C21.1425 8.13336 21.6056 8.59087 21.6056 9.15004ZM47.6126 14.9858C47.2514 15.914 46.7122 16.0055 45.8332 15.2847C45.1396 14.7163 44.1937 14.5903 43.7307 15.0051C43.2676 15.4189 43.1595 15.2847 43.4919 14.7052C44.3965 13.1283 48.2322 13.3896 47.6126 14.9858ZM49.4199 17.4899C47.5839 19.4368 47.5139 19.8435 48.8868 20.6019C49.7554 21.0828 50.1969 21.9043 49.8686 22.4288C49.5403 22.9545 49.7821 23.3836 50.4069 23.3836C51.0306 23.3836 51.471 23.9559 51.3846 24.6544C50.977 27.9596 52.7636 30.3102 55.9633 30.6793C58.7257 30.9984 59.2516 30.726 59.2083 29.0006C59.1795 27.8681 58.7853 26.3705 58.3304 25.6711C57.8766 24.9726 57.7912 23.9427 58.1411 23.3836C58.491 22.8243 58.3366 22.3669 57.7984 22.3669C57.2611 22.3669 56.5016 21.1133 56.1126 19.5812C54.9198 14.8871 52.5671 14.1521 49.4199 17.4899ZM20.777 27.9585C20.7977 29.6361 21.0282 30.1994 21.2895 29.2101C21.551 28.2208 21.5335 26.8484 21.2516 26.16C20.9696 25.4718 20.7565 26.281 20.777 27.9585ZM21.6375 32.0253C21.6375 32.5844 22.0862 33.7282 22.6348 34.567C23.1832 35.4057 23.6319 35.6345 23.6319 35.0754C23.6319 34.5162 23.1832 33.3724 22.6348 32.5336C22.0862 31.6949 21.6375 31.4662 21.6375 32.0253ZM25.8416 34.447C25.6389 38.5635 35.8194 46.4957 37.6174 43.6216C37.9343 43.1153 37.0997 42.7004 35.7618 42.7004C33.0633 42.7004 27.2382 37.2927 26.4539 34.0587C26.0309 32.312 25.9445 32.3669 25.8416 34.447ZM38.0723 35.0011C38.0723 35.7981 37.2613 36.6603 36.2712 36.9165C34.9158 37.2663 35.0435 37.4106 36.7858 37.4991C38.4552 37.5845 39.1015 37.0497 39.1015 35.5837C39.1015 34.4653 38.8698 33.5503 38.5868 33.5503C38.3038 33.5503 38.0723 34.203 38.0723 35.0011ZM34.2129 39.3342C35.2029 39.5904 36.8249 39.5904 37.815 39.3342C38.805 39.079 37.9951 38.8695 36.0139 38.8695C34.0328 38.8695 33.2228 39.079 34.2129 39.3342ZM22.2704 42.1727C21.9298 43.0491 20.6741 44.1227 19.4793 44.5599C17.4179 45.3133 17.4004 45.4272 19.1397 46.823C20.2697 47.729 20.6752 47.8051 20.1987 47.0213C19.7737 46.3229 19.9002 45.7504 20.4796 45.7504C21.658 45.7504 24.0941 41.7702 23.3603 41.0442C23.101 40.789 22.61 41.2964 22.2704 42.1727Z" fill="#7B7B7B"/>
<path fill-rule="evenodd" clip-rule="evenodd" d="M19.7737 7.70432C11.8037 11.6267 5.21807 20.6415 5.16147 27.7044C5.14192 30.1099 5.55153 30.5003 8.09152 30.5003C10.6943 30.5003 11.1173 30.0581 11.6565 26.7762C11.9931 24.7276 13.7612 21.217 15.5859 18.9732C17.4117 16.7294 18.4069 15.1983 17.7986 15.5694C17.1904 15.9405 16.0789 15.5134 15.3286 14.6207C14.1729 13.2453 14.2686 12.7765 15.9544 11.5595C17.0494 10.7686 18.5129 10.3375 19.2076 10.6008C19.9455 10.8804 20.2501 10.5093 19.9394 9.7082C19.4124 8.35398 23.068 6.73848 28.8098 5.78687C31.0667 5.41273 30.9967 5.34359 28.2395 5.2216C26.5116 5.14535 22.7016 6.26267 19.7737 7.70432ZM33.7106 5.80212C34.9909 6.0451 36.8435 6.03595 37.8274 5.78178C38.8112 5.52762 37.7636 5.32835 35.4994 5.33953C33.2352 5.35071 32.4303 5.55913 33.7106 5.80212ZM40.6215 7.08009C40.9591 7.61791 40.3601 8.92332 39.2908 9.97965C37.3847 11.8626 37.4136 11.9235 40.7687 13.1222C45.2126 14.7102 50.2052 20.7219 51.612 26.1794C52.6124 30.0631 53.0384 30.5003 55.8255 30.5003C58.8028 30.5003 58.9016 30.3579 58.3304 26.8789C57.6141 22.5224 54.4772 16.0065 52.8573 15.5144C52.2152 15.3193 50.9955 15.8459 50.1454 16.6846C48.7726 18.0419 48.4164 18.0094 46.9365 16.3939C46.0206 15.3944 45.6202 14.2324 46.0463 13.8125C46.4723 13.3916 46.3571 13.1395 45.7911 13.2524C43.2191 13.7648 42.1889 13.0277 42.1889 10.6751C42.1889 7.39119 43.0133 7.4715 48.3269 11.2739C50.7403 13.0012 52.3757 13.8715 51.9599 13.2076C51.0809 11.8025 42.2055 6.1 40.8973 6.1C40.4085 6.1 40.285 6.54125 40.6215 7.08009ZM27.2382 10.2115C26.9037 10.7462 27.584 11.1834 28.749 11.1834C31.2344 11.1834 31.4845 10.6181 29.3573 9.8119C28.5267 9.49673 27.5727 9.67668 27.2382 10.2115ZM23.3119 11.6399C22.9291 12.6251 23.2337 12.926 24.231 12.5478C25.8591 11.9306 26.2832 10.1668 24.8031 10.1668C24.2979 10.1668 23.6269 10.8296 23.3119 11.6399ZM32.6692 10.8398C33.3772 11.1224 34.535 11.1224 35.2421 10.8398C35.9501 10.5582 35.3707 10.3274 33.9556 10.3274C32.5404 10.3274 31.9621 10.5582 32.6692 10.8398ZM15.4305 17.5325C15.4305 18.0998 14.7481 17.9891 13.8868 17.2835C13.0377 16.5871 12.3431 15.5602 12.3431 15.001C12.3431 14.4337 13.0253 14.5446 13.8868 15.2501C14.7358 15.9466 15.4305 16.9734 15.4305 17.5325Z" fill="black"/>
</g>
<defs>
<clipPath id="clip0_1_81">
<rect width="64" height="64" rx="32" fill="white"/>
</clipPath>
</defs>
</svg>
