<svg width="202" height="226" viewBox="0 0 202 226" fill="none" xmlns="http://www.w3.org/2000/svg">
<path fill-rule="evenodd" clip-rule="evenodd" d="M95.124 1.584C93.268 2.422 91.098 3.759 90.303 4.554C89.508 5.349 88.214 6 87.429 6C86.643 6 85.16 6.83999 84.134 7.86599C83.107 8.89299 80.191 10.525 77.654 11.494C75.116 12.463 73.233 13.568 73.469 13.949C73.704 14.33 71.671 15.442 68.951 16.421C66.231 17.399 64.228 18.559 64.5 19C64.772 19.441 62.746 20.61 59.998 21.598C57.249 22.586 55 23.78 55 24.25C55 24.72 53.65 25.575 52 26.15C50.35 26.725 49 27.588 49 28.066C49 28.545 48.383 28.7 47.629 28.411C46.875 28.122 46.007 28.541 45.699 29.342C45.392 30.143 43.534 31.329 41.57 31.977C39.607 32.625 38 33.533 38 33.995C38 34.457 35.975 35.608 33.5 36.553C31.025 37.498 29 38.661 29 39.136C29 39.611 28.41 40 27.689 40C26.967 40 25.495 40.822 24.417 41.826C23.339 42.831 21.904 43.468 21.228 43.243C20.553 43.018 20 43.284 20 43.834C20 44.384 17.975 45.608 15.5 46.553C13.025 47.498 11 48.626 11 49.058C11 49.491 9.393 50.375 7.43 51.023C5.466 51.671 3.618 52.831 3.323 53.601C3.028 54.37 2.159 55 1.393 55C0.218 55 0 64.091 0 113C0 164.417 0.174 171 1.531 171C2.374 171 3.313 171.653 3.62 172.452C3.926 173.25 5.712 174.41 7.588 175.029C9.465 175.648 11 176.618 11 177.185C11 177.751 11.675 177.955 12.5 177.638C13.325 177.322 14 177.522 14 178.083C14 178.645 15.35 179.575 17 180.15C18.65 180.725 20 181.501 20 181.874C20 182.247 22.021 183.44 24.491 184.526C26.96 185.612 28.985 186.77 28.991 187.099C28.996 187.429 31.025 188.534 33.5 189.554C35.975 190.575 38 191.794 38 192.264C38 192.734 38.45 192.84 39 192.5C39.55 192.16 40 192.359 40 192.941C40 193.523 40.59 194 41.311 194C42.033 194 43.495 194.804 44.561 195.787C45.628 196.77 48.075 198.189 50 198.941C51.925 199.693 53.95 200.823 54.5 201.451C55.05 202.079 57.075 203.204 59 203.951C60.925 204.698 62.977 205.884 63.561 206.587C64.144 207.29 66.619 208.635 69.061 209.576C71.502 210.517 73.95 211.828 74.5 212.489C75.05 213.151 77.244 214.322 79.376 215.093C81.508 215.863 83.46 217.035 83.714 217.698C83.969 218.361 85.712 219.41 87.588 220.029C89.465 220.648 91 221.618 91 222.185C91 222.751 91.638 222.969 92.417 222.67C93.197 222.371 94.073 222.748 94.365 223.508C95.277 225.886 101.45 226.376 106.45 224.466C108.952 223.51 111 222.374 111 221.942C111 221.509 112.572 220.636 114.492 220.003C116.413 219.369 118.326 218.279 118.742 217.58C119.159 216.882 121.628 215.508 124.23 214.527C126.831 213.546 128.767 212.432 128.531 212.051C128.296 211.67 130.329 210.558 133.049 209.579C135.769 208.601 137.772 207.441 137.5 207C137.228 206.559 139.254 205.39 142.002 204.402C144.751 203.414 147 202.22 147 201.75C147 201.28 148.35 200.425 150 199.85C151.65 199.275 153 198.412 153 197.934C153 197.455 153.617 197.3 154.371 197.589C155.125 197.878 155.993 197.459 156.301 196.658C156.608 195.857 158.466 194.671 160.43 194.023C162.393 193.375 164 192.467 164 192.005C164 191.543 166.025 190.392 168.5 189.447C170.975 188.502 173 187.339 173 186.864C173 186.389 173.59 186 174.311 186C175.033 186 176.505 185.178 177.583 184.174C178.661 183.169 180.096 182.532 180.772 182.757C181.447 182.982 182 182.716 182 182.166C182 181.616 184.025 180.392 186.5 179.447C188.975 178.502 191 177.374 191 176.942C191 176.509 192.607 175.625 194.57 174.977C196.534 174.329 198.382 173.169 198.677 172.399C198.972 171.63 199.841 171 200.607 171C201.782 171 202 161.909 202 113C202 61.583 201.826 55 200.469 55C199.626 55 198.687 54.347 198.38 53.548C198.074 52.75 196.288 51.59 194.412 50.971C192.535 50.352 191 49.382 191 48.815C191 48.249 190.325 48.045 189.5 48.362C188.675 48.678 188 48.478 188 47.917C188 47.355 186.65 46.425 185 45.85C183.35 45.275 182 44.499 182 44.126C182 43.753 179.979 42.56 177.509 41.474C175.04 40.388 173.015 39.23 173.009 38.901C173.004 38.571 170.975 37.466 168.5 36.446C166.025 35.425 164 34.206 164 33.736C164 33.266 163.55 33.16 163 33.5C162.45 33.84 162 33.641 162 33.059C162 32.477 161.41 32 160.689 32C159.967 32 158.505 31.196 157.439 30.213C156.372 29.23 153.925 27.811 152 27.059C150.075 26.307 148.05 25.177 147.5 24.549C146.95 23.921 144.925 22.796 143 22.049C141.075 21.302 139.023 20.116 138.439 19.413C137.856 18.71 135.381 17.365 132.939 16.424C130.498 15.483 128.05 14.194 127.5 13.56C126.95 12.926 124.925 11.787 123 11.03C121.075 10.272 118.695 8.831 117.711 7.826C116.727 6.822 115.297 6 114.532 6C113.768 6 112.414 5.271 111.524 4.381C110.633 3.49 109.633 3.033 109.301 3.365C108.969 3.697 108.187 3.271 107.564 2.418C105.957 0.220996 99.153 -0.235005 95.124 1.584Z" fill="white"/>
<path fill-rule="evenodd" clip-rule="evenodd" d="M95.124 1.584C93.268 2.422 91.098 3.759 90.303 4.554C89.508 5.349 88.214 6 87.429 6C86.643 6 85.16 6.83999 84.134 7.86599C83.107 8.89299 80.191 10.525 77.654 11.494C75.116 12.463 73.233 13.568 73.469 13.949C73.704 14.33 71.671 15.442 68.951 16.421C66.231 17.399 64.228 18.559 64.5 19C64.772 19.441 62.746 20.61 59.998 21.598C57.249 22.586 55 23.78 55 24.25C55 24.72 53.65 25.575 52 26.15C50.35 26.725 49 27.588 49 28.066C49 28.545 48.383 28.7 47.629 28.411C46.875 28.122 46.007 28.541 45.699 29.342C45.392 30.143 43.534 31.329 41.57 31.977C39.607 32.625 38 33.533 38 33.995C38 34.457 35.975 35.608 33.5 36.553C31.025 37.498 29 38.661 29 39.136C29 39.611 28.41 40 27.689 40C26.967 40 25.495 40.822 24.417 41.826C23.339 42.831 21.904 43.468 21.228 43.243C20.553 43.018 20 43.284 20 43.834C20 44.384 17.975 45.608 15.5 46.553C13.025 47.498 11 48.626 11 49.058C11 49.491 9.393 50.375 7.43 51.023C5.466 51.671 3.618 52.831 3.323 53.601C3.028 54.37 2.159 55 1.393 55C0.218 55 0 64.091 0 113C0 164.417 0.174 171 1.531 171C2.374 171 3.313 171.653 3.62 172.452C3.926 173.25 5.712 174.41 7.588 175.029C9.465 175.648 11 176.618 11 177.185C11 177.751 11.675 177.955 12.5 177.638C13.325 177.322 14 177.522 14 178.083C14 178.645 15.35 179.575 17 180.15C18.65 180.725 20 181.501 20 181.874C20 182.247 22.021 183.44 24.491 184.526C26.96 185.612 28.985 186.77 28.991 187.099C28.996 187.429 31.025 188.534 33.5 189.554C35.975 190.575 38 191.794 38 192.264C38 192.734 38.45 192.84 39 192.5C39.55 192.16 40 192.359 40 192.941C40 193.523 40.59 194 41.311 194C42.033 194 43.495 194.804 44.561 195.787C45.628 196.77 48.075 198.189 50 198.941C51.925 199.693 53.95 200.823 54.5 201.451C55.05 202.079 57.075 203.204 59 203.951C60.925 204.698 62.977 205.884 63.561 206.587C64.144 207.29 66.619 208.635 69.061 209.576C71.502 210.517 73.95 211.828 74.5 212.489C75.05 213.151 77.244 214.322 79.376 215.093C81.508 215.863 83.46 217.035 83.714 217.698C83.969 218.361 85.712 219.41 87.588 220.029C89.465 220.648 91 221.618 91 222.185C91 222.751 91.638 222.969 92.417 222.67C93.197 222.371 94.073 222.748 94.365 223.508C95.277 225.886 101.45 226.376 106.45 224.466C108.952 223.51 111 222.374 111 221.942C111 221.509 112.572 220.636 114.492 220.003C116.413 219.369 118.326 218.279 118.742 217.58C119.159 216.882 121.628 215.508 124.23 214.527C126.831 213.546 128.767 212.432 128.531 212.051C128.296 211.67 130.329 210.558 133.049 209.579C135.769 208.601 137.772 207.441 137.5 207C137.228 206.559 139.254 205.39 142.002 204.402C144.751 203.414 147 202.22 147 201.75C147 201.28 148.35 200.425 150 199.85C151.65 199.275 153 198.412 153 197.934C153 197.455 153.617 197.3 154.371 197.589C155.125 197.878 155.993 197.459 156.301 196.658C156.608 195.857 158.466 194.671 160.43 194.023C162.393 193.375 164 192.467 164 192.005C164 191.543 166.025 190.392 168.5 189.447C170.975 188.502 173 187.339 173 186.864C173 186.389 173.59 186 174.311 186C175.033 186 176.505 185.178 177.583 184.174C178.661 183.169 180.096 182.532 180.772 182.757C181.447 182.982 182 182.716 182 182.166C182 181.616 184.025 180.392 186.5 179.447C188.975 178.502 191 177.374 191 176.942C191 176.509 192.607 175.625 194.57 174.977C196.534 174.329 198.382 173.169 198.677 172.399C198.972 171.63 199.841 171 200.607 171C201.782 171 202 161.909 202 113C202 61.583 201.826 55 200.469 55C199.626 55 198.687 54.347 198.38 53.548C198.074 52.75 196.288 51.59 194.412 50.971C192.535 50.352 191 49.382 191 48.815C191 48.249 190.325 48.045 189.5 48.362C188.675 48.678 188 48.478 188 47.917C188 47.355 186.65 46.425 185 45.85C183.35 45.275 182 44.499 182 44.126C182 43.753 179.979 42.56 177.509 41.474C175.04 40.388 173.015 39.23 173.009 38.901C173.004 38.571 170.975 37.466 168.5 36.446C166.025 35.425 164 34.206 164 33.736C164 33.266 163.55 33.16 163 33.5C162.45 33.84 162 33.641 162 33.059C162 32.477 161.41 32 160.689 32C159.967 32 158.505 31.196 157.439 30.213C156.372 29.23 153.925 27.811 152 27.059C150.075 26.307 148.05 25.177 147.5 24.549C146.95 23.921 144.925 22.796 143 22.049C141.075 21.302 139.023 20.116 138.439 19.413C137.856 18.71 135.381 17.365 132.939 16.424C130.498 15.483 128.05 14.194 127.5 13.56C126.95 12.926 124.925 11.787 123 11.03C121.075 10.272 118.695 8.831 117.711 7.826C116.727 6.822 115.297 6 114.532 6C113.768 6 112.414 5.271 111.524 4.381C110.633 3.49 109.633 3.033 109.301 3.365C108.969 3.697 108.187 3.271 107.564 2.418C105.957 0.220996 99.153 -0.235005 95.124 1.584ZM148.786 85.75L148.5 95.5L100.75 95.76L53 96.019V86.01V76H101.036H149.072L148.786 85.75ZM148.788 113.25L148.5 122.5L100.75 122.76L53 123.019V113.51V104H101.038H149.075L148.788 113.25ZM94 141V151H73.5H53V141V131H73.5H94V141ZM149 141V151H128H107V141V131H128H149V141Z" fill="#E8E8E8"/>
<path fill-rule="evenodd" clip-rule="evenodd" d="M95.124 1.584C93.268 2.422 91.098 3.759 90.303 4.554C89.508 5.349 88.214 6 87.429 6C86.643 6 85.16 6.83999 84.134 7.86599C83.107 8.89299 80.191 10.525 77.654 11.494C75.116 12.463 73.233 13.568 73.469 13.949C73.704 14.33 71.671 15.442 68.951 16.421C66.231 17.399 64.228 18.559 64.5 19C64.772 19.441 62.746 20.61 59.998 21.598C57.249 22.586 55 23.78 55 24.25C55 24.72 53.65 25.575 52 26.15C50.35 26.725 49 27.588 49 28.066C49 28.545 48.383 28.7 47.629 28.411C46.875 28.122 46.007 28.541 45.699 29.342C45.392 30.143 43.534 31.329 41.57 31.977C39.607 32.625 38 33.533 38 33.995C38 34.457 35.975 35.608 33.5 36.553C31.025 37.498 29 38.661 29 39.136C29 39.611 28.41 40 27.689 40C26.967 40 25.495 40.822 24.417 41.826C23.339 42.831 21.904 43.468 21.228 43.243C20.553 43.018 20 43.284 20 43.834C20 44.384 17.975 45.608 15.5 46.553C13.025 47.498 11 48.626 11 49.058C11 49.491 9.393 50.375 7.43 51.023C5.466 51.671 3.618 52.831 3.323 53.601C3.028 54.37 2.159 55 1.393 55C0.218 55 0 64.091 0 113C0 164.417 0.174 171 1.531 171C2.374 171 3.313 171.653 3.62 172.452C3.926 173.25 5.712 174.41 7.588 175.029C9.465 175.648 11 176.618 11 177.185C11 177.751 11.675 177.955 12.5 177.638C13.325 177.322 14 177.522 14 178.083C14 178.645 15.35 179.575 17 180.15C18.65 180.725 20 181.501 20 181.874C20 182.247 22.021 183.44 24.491 184.526C26.96 185.612 28.985 186.77 28.991 187.099C28.996 187.429 31.025 188.534 33.5 189.554C35.975 190.575 38 191.794 38 192.264C38 192.734 38.45 192.84 39 192.5C39.55 192.16 40 192.359 40 192.941C40 193.523 40.59 194 41.311 194C42.033 194 43.495 194.804 44.561 195.787C45.628 196.77 48.075 198.189 50 198.941C51.925 199.693 53.95 200.823 54.5 201.451C55.05 202.079 57.075 203.204 59 203.951C60.925 204.698 62.977 205.884 63.561 206.587C64.144 207.29 66.619 208.635 69.061 209.576C71.502 210.517 73.95 211.828 74.5 212.489C75.05 213.151 77.244 214.322 79.376 215.093C81.508 215.863 83.46 217.035 83.714 217.698C83.969 218.361 85.712 219.41 87.588 220.029C89.465 220.648 91 221.618 91 222.185C91 222.751 91.638 222.969 92.417 222.67C93.197 222.371 94.073 222.748 94.365 223.508C95.277 225.886 101.45 226.376 106.45 224.466C108.952 223.51 111 222.374 111 221.942C111 221.509 112.572 220.636 114.492 220.003C116.413 219.369 118.326 218.279 118.742 217.58C119.159 216.882 121.628 215.508 124.23 214.527C126.831 213.546 128.767 212.432 128.531 212.051C128.296 211.67 130.329 210.558 133.049 209.579C135.769 208.601 137.772 207.441 137.5 207C137.228 206.559 139.254 205.39 142.002 204.402C144.751 203.414 147 202.22 147 201.75C147 201.28 148.35 200.425 150 199.85C151.65 199.275 153 198.412 153 197.934C153 197.455 153.617 197.3 154.371 197.589C155.125 197.878 155.993 197.459 156.301 196.658C156.608 195.857 158.466 194.671 160.43 194.023C162.393 193.375 164 192.467 164 192.005C164 191.543 166.025 190.392 168.5 189.447C170.975 188.502 173 187.339 173 186.864C173 186.389 173.59 186 174.311 186C175.033 186 176.505 185.178 177.583 184.174C178.661 183.169 180.096 182.532 180.772 182.757C181.447 182.982 182 182.716 182 182.166C182 181.616 184.025 180.392 186.5 179.447C188.975 178.502 191 177.374 191 176.942C191 176.509 192.607 175.625 194.57 174.977C196.534 174.329 198.382 173.169 198.677 172.399C198.972 171.63 199.841 171 200.607 171C201.782 171 202 161.909 202 113C202 61.583 201.826 55 200.469 55C199.626 55 198.687 54.347 198.38 53.548C198.074 52.75 196.288 51.59 194.412 50.971C192.535 50.352 191 49.382 191 48.815C191 48.249 190.325 48.045 189.5 48.362C188.675 48.678 188 48.478 188 47.917C188 47.355 186.65 46.425 185 45.85C183.35 45.275 182 44.499 182 44.126C182 43.753 179.979 42.56 177.509 41.474C175.04 40.388 173.015 39.23 173.009 38.901C173.004 38.571 170.975 37.466 168.5 36.446C166.025 35.425 164 34.206 164 33.736C164 33.266 163.55 33.16 163 33.5C162.45 33.84 162 33.641 162 33.059C162 32.477 161.41 32 160.689 32C159.967 32 158.505 31.196 157.439 30.213C156.372 29.23 153.925 27.811 152 27.059C150.075 26.307 148.05 25.177 147.5 24.549C146.95 23.921 144.925 22.796 143 22.049C141.075 21.302 139.023 20.116 138.439 19.413C137.856 18.71 135.381 17.365 132.939 16.424C130.498 15.483 128.05 14.194 127.5 13.56C126.95 12.926 124.925 11.787 123 11.03C121.075 10.272 118.695 8.831 117.711 7.826C116.727 6.822 115.297 6 114.532 6C113.768 6 112.414 5.271 111.524 4.381C110.633 3.49 109.633 3.033 109.301 3.365C108.969 3.697 108.187 3.271 107.564 2.418C105.957 0.220996 99.153 -0.235005 95.124 1.584ZM149 86V96H101H53V86V76H101H149V86ZM148.785 113.25L148.5 123.5L100.75 123.76L53 124.019V113.51V103H101.035H149.07L148.785 113.25ZM95 141V151H74H53V141V131H74H95V141ZM149 141V151H127.5H106V141V131H127.5H149V141Z" fill="#D2D2D2"/>
<path fill-rule="evenodd" clip-rule="evenodd" d="M95.124 1.584C93.268 2.422 91.098 3.759 90.303 4.554C89.508 5.349 88.214 6 87.429 6C86.643 6 85.16 6.83999 84.134 7.86599C83.107 8.89299 80.191 10.525 77.654 11.494C75.116 12.463 73.233 13.568 73.469 13.949C73.704 14.33 71.671 15.442 68.951 16.421C66.231 17.399 64.228 18.559 64.5 19C64.772 19.441 62.746 20.61 59.998 21.598C57.249 22.586 55 23.78 55 24.25C55 24.72 53.65 25.575 52 26.15C50.35 26.725 49 27.588 49 28.066C49 28.545 48.383 28.7 47.629 28.411C46.875 28.122 46.007 28.541 45.699 29.342C45.392 30.143 43.534 31.329 41.57 31.977C39.607 32.625 38 33.533 38 33.995C38 34.457 35.975 35.608 33.5 36.553C31.025 37.498 29 38.661 29 39.136C29 39.611 28.41 40 27.689 40C26.967 40 25.495 40.822 24.417 41.826C23.339 42.831 21.904 43.468 21.228 43.243C20.553 43.018 20 43.284 20 43.834C20 44.384 17.975 45.608 15.5 46.553C13.025 47.498 11 48.626 11 49.058C11 49.491 9.393 50.375 7.43 51.023C5.466 51.671 3.618 52.831 3.323 53.601C3.028 54.37 2.159 55 1.393 55C0.218 55 0 64.091 0 113C0 164.417 0.174 171 1.531 171C2.374 171 3.313 171.653 3.62 172.452C3.926 173.25 5.712 174.41 7.588 175.029C9.465 175.648 11 176.618 11 177.185C11 177.751 11.675 177.955 12.5 177.638C13.325 177.322 14 177.522 14 178.083C14 178.645 15.35 179.575 17 180.15C18.65 180.725 20 181.501 20 181.874C20 182.247 22.021 183.44 24.491 184.526C26.96 185.612 28.985 186.77 28.991 187.099C28.996 187.429 31.025 188.534 33.5 189.554C35.975 190.575 38 191.794 38 192.264C38 192.734 38.45 192.84 39 192.5C39.55 192.16 40 192.359 40 192.941C40 193.523 40.59 194 41.311 194C42.033 194 43.495 194.804 44.561 195.787C45.628 196.77 48.075 198.189 50 198.941C51.925 199.693 53.95 200.823 54.5 201.451C55.05 202.079 57.075 203.204 59 203.951C60.925 204.698 62.977 205.884 63.561 206.587C64.144 207.29 66.619 208.635 69.061 209.576C71.502 210.517 73.95 211.828 74.5 212.489C75.05 213.151 77.244 214.322 79.376 215.093C81.508 215.863 83.46 217.035 83.714 217.698C83.969 218.361 85.712 219.41 87.588 220.029C89.465 220.648 91 221.618 91 222.185C91 222.751 91.638 222.969 92.417 222.67C93.197 222.371 94.073 222.748 94.365 223.508C95.277 225.886 101.45 226.376 106.45 224.466C108.952 223.51 111 222.374 111 221.942C111 221.509 112.572 220.636 114.492 220.003C116.413 219.369 118.326 218.279 118.742 217.58C119.159 216.882 121.628 215.508 124.23 214.527C126.831 213.546 128.767 212.432 128.531 212.051C128.296 211.67 130.329 210.558 133.049 209.579C135.769 208.601 137.772 207.441 137.5 207C137.228 206.559 139.254 205.39 142.002 204.402C144.751 203.414 147 202.22 147 201.75C147 201.28 148.35 200.425 150 199.85C151.65 199.275 153 198.412 153 197.934C153 197.455 153.617 197.3 154.371 197.589C155.125 197.878 155.993 197.459 156.301 196.658C156.608 195.857 158.466 194.671 160.43 194.023C162.393 193.375 164 192.467 164 192.005C164 191.543 166.025 190.392 168.5 189.447C170.975 188.502 173 187.339 173 186.864C173 186.389 173.59 186 174.311 186C175.033 186 176.505 185.178 177.583 184.174C178.661 183.169 180.096 182.532 180.772 182.757C181.447 182.982 182 182.716 182 182.166C182 181.616 184.025 180.392 186.5 179.447C188.975 178.502 191 177.374 191 176.942C191 176.509 192.607 175.625 194.57 174.977C196.534 174.329 198.382 173.169 198.677 172.399C198.972 171.63 199.841 171 200.607 171C201.782 171 202 161.909 202 113C202 61.583 201.826 55 200.469 55C199.626 55 198.687 54.347 198.38 53.548C198.074 52.75 196.288 51.59 194.412 50.971C192.535 50.352 191 49.382 191 48.815C191 48.249 190.325 48.045 189.5 48.362C188.675 48.678 188 48.478 188 47.917C188 47.355 186.65 46.425 185 45.85C183.35 45.275 182 44.499 182 44.126C182 43.753 179.979 42.56 177.509 41.474C175.04 40.388 173.015 39.23 173.009 38.901C173.004 38.571 170.975 37.466 168.5 36.446C166.025 35.425 164 34.206 164 33.736C164 33.266 163.55 33.16 163 33.5C162.45 33.84 162 33.641 162 33.059C162 32.477 161.41 32 160.689 32C159.967 32 158.505 31.196 157.439 30.213C156.372 29.23 153.925 27.811 152 27.059C150.075 26.307 148.05 25.177 147.5 24.549C146.95 23.921 144.925 22.796 143 22.049C141.075 21.302 139.023 20.116 138.439 19.413C137.856 18.71 135.381 17.365 132.939 16.424C130.498 15.483 128.05 14.194 127.5 13.56C126.95 12.926 124.925 11.787 123 11.03C121.075 10.272 118.695 8.831 117.711 7.826C116.727 6.822 115.297 6 114.532 6C113.768 6 112.414 5.271 111.524 4.381C110.633 3.49 109.633 3.033 109.301 3.365C108.969 3.697 108.187 3.271 107.564 2.418C105.957 0.220996 99.153 -0.235005 95.124 1.584ZM149 86V96H100.5H52V86V76H100.5H149V86ZM149 113.51V124.019L100.75 123.76L52.5 123.5L52.215 113.25L51.93 103H100.465H149V113.51ZM95 141V151H73.5H52V141V131H73.5H95V141ZM149 141V151H127.5H106V141V131H127.5H149V141Z" fill="#A1A1A1"/>
<path fill-rule="evenodd" clip-rule="evenodd" d="M95.124 1.584C93.268 2.422 91.098 3.759 90.303 4.554C89.508 5.349 88.214 6 87.429 6C86.643 6 85.16 6.83999 84.134 7.86599C83.107 8.89299 80.191 10.525 77.654 11.494C75.116 12.463 73.233 13.568 73.469 13.949C73.704 14.33 71.671 15.442 68.951 16.421C66.231 17.399 64.228 18.559 64.5 19C64.772 19.441 62.746 20.61 59.998 21.598C57.249 22.586 55 23.78 55 24.25C55 24.72 53.65 25.575 52 26.15C50.35 26.725 49 27.588 49 28.066C49 28.545 48.383 28.7 47.629 28.411C46.875 28.122 46.007 28.541 45.699 29.342C45.392 30.143 43.534 31.329 41.57 31.977C39.607 32.625 38 33.533 38 33.995C38 34.457 35.975 35.608 33.5 36.553C31.025 37.498 29 38.661 29 39.136C29 39.611 28.41 40 27.689 40C26.967 40 25.495 40.822 24.417 41.826C23.339 42.831 21.904 43.468 21.228 43.243C20.553 43.018 20 43.284 20 43.834C20 44.384 17.975 45.608 15.5 46.553C13.025 47.498 11 48.626 11 49.058C11 49.491 9.393 50.375 7.43 51.023C5.466 51.671 3.618 52.831 3.323 53.601C3.028 54.37 2.159 55 1.393 55C0.218 55 0 64.091 0 113C0 164.417 0.174 171 1.531 171C2.374 171 3.313 171.653 3.62 172.452C3.926 173.25 5.712 174.41 7.588 175.029C9.465 175.648 11 176.618 11 177.185C11 177.751 11.675 177.955 12.5 177.638C13.325 177.322 14 177.522 14 178.083C14 178.645 15.35 179.575 17 180.15C18.65 180.725 20 181.501 20 181.874C20 182.247 22.021 183.44 24.491 184.526C26.96 185.612 28.985 186.77 28.991 187.099C28.996 187.429 31.025 188.534 33.5 189.554C35.975 190.575 38 191.794 38 192.264C38 192.734 38.45 192.84 39 192.5C39.55 192.16 40 192.359 40 192.941C40 193.523 40.59 194 41.311 194C42.033 194 43.495 194.804 44.561 195.787C45.628 196.77 48.075 198.189 50 198.941C51.925 199.693 53.95 200.823 54.5 201.451C55.05 202.079 57.075 203.204 59 203.951C60.925 204.698 62.977 205.884 63.561 206.587C64.144 207.29 66.619 208.635 69.061 209.576C71.502 210.517 73.95 211.828 74.5 212.489C75.05 213.151 77.244 214.322 79.376 215.093C81.508 215.863 83.46 217.035 83.714 217.698C83.969 218.361 85.712 219.41 87.588 220.029C89.465 220.648 91 221.618 91 222.185C91 222.751 91.638 222.969 92.417 222.67C93.197 222.371 94.073 222.748 94.365 223.508C95.277 225.886 101.45 226.376 106.45 224.466C108.952 223.51 111 222.374 111 221.942C111 221.509 112.572 220.636 114.492 220.003C116.413 219.369 118.326 218.279 118.742 217.58C119.159 216.882 121.628 215.508 124.23 214.527C126.831 213.546 128.767 212.432 128.531 212.051C128.296 211.67 130.329 210.558 133.049 209.579C135.769 208.601 137.772 207.441 137.5 207C137.228 206.559 139.254 205.39 142.002 204.402C144.751 203.414 147 202.22 147 201.75C147 201.28 148.35 200.425 150 199.85C151.65 199.275 153 198.412 153 197.934C153 197.455 153.617 197.3 154.371 197.589C155.125 197.878 155.993 197.459 156.301 196.658C156.608 195.857 158.466 194.671 160.43 194.023C162.393 193.375 164 192.467 164 192.005C164 191.543 166.025 190.392 168.5 189.447C170.975 188.502 173 187.339 173 186.864C173 186.389 173.59 186 174.311 186C175.033 186 176.505 185.178 177.583 184.174C178.661 183.169 180.096 182.532 180.772 182.757C181.447 182.982 182 182.716 182 182.166C182 181.616 184.025 180.392 186.5 179.447C188.975 178.502 191 177.374 191 176.942C191 176.509 192.607 175.625 194.57 174.977C196.534 174.329 198.382 173.169 198.677 172.399C198.972 171.63 199.841 171 200.607 171C201.782 171 202 161.909 202 113C202 61.583 201.826 55 200.469 55C199.626 55 198.687 54.347 198.38 53.548C198.074 52.75 196.288 51.59 194.412 50.971C192.535 50.352 191 49.382 191 48.815C191 48.249 190.325 48.045 189.5 48.362C188.675 48.678 188 48.478 188 47.917C188 47.355 186.65 46.425 185 45.85C183.35 45.275 182 44.499 182 44.126C182 43.753 179.979 42.56 177.509 41.474C175.04 40.388 173.015 39.23 173.009 38.901C173.004 38.571 170.975 37.466 168.5 36.446C166.025 35.425 164 34.206 164 33.736C164 33.266 163.55 33.16 163 33.5C162.45 33.84 162 33.641 162 33.059C162 32.477 161.41 32 160.689 32C159.967 32 158.505 31.196 157.439 30.213C156.372 29.23 153.925 27.811 152 27.059C150.075 26.307 148.05 25.177 147.5 24.549C146.95 23.921 144.925 22.796 143 22.049C141.075 21.302 139.023 20.116 138.439 19.413C137.856 18.71 135.381 17.365 132.939 16.424C130.498 15.483 128.05 14.194 127.5 13.56C126.95 12.926 124.925 11.787 123 11.03C121.075 10.272 118.695 8.831 117.711 7.826C116.727 6.822 115.297 6 114.532 6C113.768 6 112.414 5.271 111.524 4.381C110.633 3.49 109.633 3.033 109.301 3.365C108.969 3.697 108.187 3.271 107.564 2.418C105.957 0.220996 99.153 -0.235005 95.124 1.584ZM149.5 86V96.5L100.75 96.76L52 97.019V86V74.981L100.75 75.24L149.5 75.5V86ZM150 113.5V124H101H52V113.5V103H101H150V113.5ZM95.5 141V151.5L73.75 151.77L52 152.039V141V129.961L73.75 130.23L95.5 130.5V141ZM149.5 141V151.5L127.75 151.77L106 152.039V141V129.961L127.75 130.23L149.5 130.5V141Z" fill="#555555"/>
<path fill-rule="evenodd" clip-rule="evenodd" d="M95.124 1.584C93.268 2.422 91.098 3.759 90.303 4.554C89.508 5.349 88.214 6 87.429 6C86.643 6 85.16 6.83999 84.134 7.86599C83.107 8.89299 80.191 10.525 77.654 11.494C75.116 12.463 73.233 13.568 73.469 13.949C73.704 14.33 71.671 15.442 68.951 16.421C66.231 17.399 64.228 18.559 64.5 19C64.772 19.441 62.746 20.61 59.998 21.598C57.249 22.586 55 23.78 55 24.25C55 24.72 53.65 25.575 52 26.15C50.35 26.725 49 27.588 49 28.066C49 28.545 48.383 28.7 47.629 28.411C46.875 28.122 46.007 28.541 45.699 29.342C45.392 30.143 43.534 31.329 41.57 31.977C39.607 32.625 38 33.533 38 33.995C38 34.457 35.975 35.608 33.5 36.553C31.025 37.498 29 38.661 29 39.136C29 39.611 28.41 40 27.689 40C26.967 40 25.495 40.822 24.417 41.826C23.339 42.831 21.904 43.468 21.228 43.243C20.553 43.018 20 43.284 20 43.834C20 44.384 17.975 45.608 15.5 46.553C13.025 47.498 11 48.626 11 49.058C11 49.491 9.393 50.375 7.43 51.023C5.466 51.671 3.618 52.831 3.323 53.601C3.028 54.37 2.159 55 1.393 55C0.218 55 0 64.091 0 113C0 164.417 0.174 171 1.531 171C2.374 171 3.313 171.653 3.62 172.452C3.926 173.25 5.712 174.41 7.588 175.029C9.465 175.648 11 176.618 11 177.185C11 177.751 11.675 177.955 12.5 177.638C13.325 177.322 14 177.522 14 178.083C14 178.645 15.35 179.575 17 180.15C18.65 180.725 20 181.501 20 181.874C20 182.247 22.021 183.44 24.491 184.526C26.96 185.612 28.985 186.77 28.991 187.099C28.996 187.429 31.025 188.534 33.5 189.554C35.975 190.575 38 191.794 38 192.264C38 192.734 38.45 192.84 39 192.5C39.55 192.16 40 192.359 40 192.941C40 193.523 40.59 194 41.311 194C42.033 194 43.495 194.804 44.561 195.787C45.628 196.77 48.075 198.189 50 198.941C51.925 199.693 53.95 200.823 54.5 201.451C55.05 202.079 57.075 203.204 59 203.951C60.925 204.698 62.977 205.884 63.561 206.587C64.144 207.29 66.619 208.635 69.061 209.576C71.502 210.517 73.95 211.828 74.5 212.489C75.05 213.151 77.244 214.322 79.376 215.093C81.508 215.863 83.46 217.035 83.714 217.698C83.969 218.361 85.712 219.41 87.588 220.029C89.465 220.648 91 221.618 91 222.185C91 222.751 91.638 222.969 92.417 222.67C93.197 222.371 94.073 222.748 94.365 223.508C95.277 225.886 101.45 226.376 106.45 224.466C108.952 223.51 111 222.374 111 221.942C111 221.509 112.572 220.636 114.492 220.003C116.413 219.369 118.326 218.279 118.742 217.58C119.159 216.882 121.628 215.508 124.23 214.527C126.831 213.546 128.767 212.432 128.531 212.051C128.296 211.67 130.329 210.558 133.049 209.579C135.769 208.601 137.772 207.441 137.5 207C137.228 206.559 139.254 205.39 142.002 204.402C144.751 203.414 147 202.22 147 201.75C147 201.28 148.35 200.425 150 199.85C151.65 199.275 153 198.412 153 197.934C153 197.455 153.617 197.3 154.371 197.589C155.125 197.878 155.993 197.459 156.301 196.658C156.608 195.857 158.466 194.671 160.43 194.023C162.393 193.375 164 192.467 164 192.005C164 191.543 166.025 190.392 168.5 189.447C170.975 188.502 173 187.339 173 186.864C173 186.389 173.59 186 174.311 186C175.033 186 176.505 185.178 177.583 184.174C178.661 183.169 180.096 182.532 180.772 182.757C181.447 182.982 182 182.716 182 182.166C182 181.616 184.025 180.392 186.5 179.447C188.975 178.502 191 177.374 191 176.942C191 176.509 192.607 175.625 194.57 174.977C196.534 174.329 198.382 173.169 198.677 172.399C198.972 171.63 199.841 171 200.607 171C201.782 171 202 161.909 202 113C202 61.583 201.826 55 200.469 55C199.626 55 198.687 54.347 198.38 53.548C198.074 52.75 196.288 51.59 194.412 50.971C192.535 50.352 191 49.382 191 48.815C191 48.249 190.325 48.045 189.5 48.362C188.675 48.678 188 48.478 188 47.917C188 47.355 186.65 46.425 185 45.85C183.35 45.275 182 44.499 182 44.126C182 43.753 179.979 42.56 177.509 41.474C175.04 40.388 173.015 39.23 173.009 38.901C173.004 38.571 170.975 37.466 168.5 36.446C166.025 35.425 164 34.206 164 33.736C164 33.266 163.55 33.16 163 33.5C162.45 33.84 162 33.641 162 33.059C162 32.477 161.41 32 160.689 32C159.967 32 158.505 31.196 157.439 30.213C156.372 29.23 153.925 27.811 152 27.059C150.075 26.307 148.05 25.177 147.5 24.549C146.95 23.921 144.925 22.796 143 22.049C141.075 21.302 139.023 20.116 138.439 19.413C137.856 18.71 135.381 17.365 132.939 16.424C130.498 15.483 128.05 14.194 127.5 13.56C126.95 12.926 124.925 11.787 123 11.03C121.075 10.272 118.695 8.831 117.711 7.826C116.727 6.822 115.297 6 114.532 6C113.768 6 112.414 5.271 111.524 4.381C110.633 3.49 109.633 3.033 109.301 3.365C108.969 3.697 108.187 3.271 107.564 2.418C105.957 0.220996 99.153 -0.235005 95.124 1.584ZM150 86.009V97.019L100.75 96.759L51.5 96.5L51.21 87.075C51.051 81.891 51.149 77.054 51.429 76.325C51.841 75.25 61.185 75 100.969 75H150V86.009ZM149.784 113.259L150.068 124.019L100.784 123.759L51.5 123.5L51.212 113.583C51.001 106.324 51.269 103.445 52.212 102.842C52.92 102.39 75.1 102.128 101.5 102.26L149.5 102.5L149.784 113.259ZM96 141.019V152.038L73.75 151.769L51.5 151.5L51.21 142.075C51.051 136.891 51.149 132.054 51.429 131.325C51.83 130.28 56.601 130 73.969 130H96V141.019ZM150 141V152H128H106V141V130H128H150V141Z" fill="#3F3F3F"/>
<path fill-rule="evenodd" clip-rule="evenodd" d="M95.124 1.584C93.268 2.422 91.098 3.759 90.303 4.554C89.508 5.349 88.214 6 87.429 6C86.643 6 85.16 6.83999 84.134 7.86599C83.107 8.89299 80.191 10.525 77.654 11.494C75.116 12.463 73.233 13.568 73.469 13.949C73.704 14.33 71.671 15.442 68.951 16.421C66.231 17.399 64.228 18.559 64.5 19C64.772 19.441 62.746 20.61 59.998 21.598C57.249 22.586 55 23.78 55 24.25C55 24.72 53.65 25.575 52 26.15C50.35 26.725 49 27.588 49 28.066C49 28.545 48.383 28.7 47.629 28.411C46.875 28.122 46.007 28.541 45.699 29.342C45.392 30.143 43.534 31.329 41.57 31.977C39.607 32.625 38 33.533 38 33.995C38 34.457 35.975 35.608 33.5 36.553C31.025 37.498 29 38.661 29 39.136C29 39.611 28.41 40 27.689 40C26.967 40 25.495 40.822 24.417 41.826C23.339 42.831 21.904 43.468 21.228 43.243C20.553 43.018 20 43.284 20 43.834C20 44.384 17.975 45.608 15.5 46.553C13.025 47.498 11 48.626 11 49.058C11 49.491 9.393 50.375 7.43 51.023C5.466 51.671 3.618 52.831 3.323 53.601C3.028 54.37 2.159 55 1.393 55C0.218 55 0 64.091 0 113C0 164.417 0.174 171 1.531 171C2.374 171 3.313 171.653 3.62 172.452C3.926 173.25 5.712 174.41 7.588 175.029C9.465 175.648 11 176.618 11 177.185C11 177.751 11.675 177.955 12.5 177.638C13.325 177.322 14 177.522 14 178.083C14 178.645 15.35 179.575 17 180.15C18.65 180.725 20 181.501 20 181.874C20 182.247 22.021 183.44 24.491 184.526C26.96 185.612 28.985 186.77 28.991 187.099C28.996 187.429 31.025 188.534 33.5 189.554C35.975 190.575 38 191.794 38 192.264C38 192.734 38.45 192.84 39 192.5C39.55 192.16 40 192.359 40 192.941C40 193.523 40.59 194 41.311 194C42.033 194 43.495 194.804 44.561 195.787C45.628 196.77 48.075 198.189 50 198.941C51.925 199.693 53.95 200.823 54.5 201.451C55.05 202.079 57.075 203.204 59 203.951C60.925 204.698 62.977 205.884 63.561 206.587C64.144 207.29 66.619 208.635 69.061 209.576C71.502 210.517 73.95 211.828 74.5 212.489C75.05 213.151 77.244 214.322 79.376 215.093C81.508 215.863 83.46 217.035 83.714 217.698C83.969 218.361 85.712 219.41 87.588 220.029C89.465 220.648 91 221.618 91 222.185C91 222.751 91.638 222.969 92.417 222.67C93.197 222.371 94.073 222.748 94.365 223.508C95.277 225.886 101.45 226.376 106.45 224.466C108.952 223.51 111 222.374 111 221.942C111 221.509 112.572 220.636 114.492 220.003C116.413 219.369 118.326 218.279 118.742 217.58C119.159 216.882 121.628 215.508 124.23 214.527C126.831 213.546 128.767 212.432 128.531 212.051C128.296 211.67 130.329 210.558 133.049 209.579C135.769 208.601 137.772 207.441 137.5 207C137.228 206.559 139.254 205.39 142.002 204.402C144.751 203.414 147 202.22 147 201.75C147 201.28 148.35 200.425 150 199.85C151.65 199.275 153 198.412 153 197.934C153 197.455 153.617 197.3 154.371 197.589C155.125 197.878 155.993 197.459 156.301 196.658C156.608 195.857 158.466 194.671 160.43 194.023C162.393 193.375 164 192.467 164 192.005C164 191.543 166.025 190.392 168.5 189.447C170.975 188.502 173 187.339 173 186.864C173 186.389 173.59 186 174.311 186C175.033 186 176.505 185.178 177.583 184.174C178.661 183.169 180.096 182.532 180.772 182.757C181.447 182.982 182 182.716 182 182.166C182 181.616 184.025 180.392 186.5 179.447C188.975 178.502 191 177.374 191 176.942C191 176.509 192.607 175.625 194.57 174.977C196.534 174.329 198.382 173.169 198.677 172.399C198.972 171.63 199.841 171 200.607 171C201.782 171 202 161.909 202 113C202 61.583 201.826 55 200.469 55C199.626 55 198.687 54.347 198.38 53.548C198.074 52.75 196.288 51.59 194.412 50.971C192.535 50.352 191 49.382 191 48.815C191 48.249 190.325 48.045 189.5 48.362C188.675 48.678 188 48.478 188 47.917C188 47.355 186.65 46.425 185 45.85C183.35 45.275 182 44.499 182 44.126C182 43.753 179.979 42.56 177.509 41.474C175.04 40.388 173.015 39.23 173.009 38.901C173.004 38.571 170.975 37.466 168.5 36.446C166.025 35.425 164 34.206 164 33.736C164 33.266 163.55 33.16 163 33.5C162.45 33.84 162 33.641 162 33.059C162 32.477 161.41 32 160.689 32C159.967 32 158.505 31.196 157.439 30.213C156.372 29.23 153.925 27.811 152 27.059C150.075 26.307 148.05 25.177 147.5 24.549C146.95 23.921 144.925 22.796 143 22.049C141.075 21.302 139.023 20.116 138.439 19.413C137.856 18.71 135.381 17.365 132.939 16.424C130.498 15.483 128.05 14.194 127.5 13.56C126.95 12.926 124.925 11.787 123 11.03C121.075 10.272 118.695 8.831 117.711 7.826C116.727 6.822 115.297 6 114.532 6C113.768 6 112.414 5.271 111.524 4.381C110.633 3.49 109.633 3.033 109.301 3.365C108.969 3.697 108.187 3.271 107.564 2.418C105.957 0.220996 99.153 -0.235005 95.124 1.584ZM150 86.009V97.019L100.75 96.759L51.5 96.5L51.21 87.075C51.051 81.891 51.149 77.054 51.429 76.325C51.841 75.25 61.185 75 100.969 75H150V86.009ZM149.783 113.25L149.5 124.5H100.5H51.5L51.212 114.571C51.053 109.11 51.151 104.048 51.43 103.321C51.841 102.251 61.263 102 101.001 102H150.066L149.783 113.25ZM96 141V152H73.5H51V141.667C51 135.983 51.3 131.033 51.667 130.667C52.033 130.3 62.158 130 74.167 130H96V141ZM150 141.019V152.038L127.75 151.769L105.5 151.5L105.21 142.075C105.051 136.891 105.149 132.054 105.429 131.325C105.83 130.28 110.601 130 127.969 130H150V141.019Z" fill="#272727"/>
<path fill-rule="evenodd" clip-rule="evenodd" d="M95.124 1.584C93.268 2.422 91.098 3.759 90.303 4.554C89.508 5.349 88.214 6 87.429 6C86.643 6 85.16 6.83999 84.134 7.86599C83.107 8.89299 80.191 10.525 77.654 11.494C75.116 12.463 73.233 13.568 73.469 13.949C73.704 14.33 71.671 15.442 68.951 16.421C66.231 17.399 64.228 18.559 64.5 19C64.772 19.441 62.746 20.61 59.998 21.598C57.249 22.586 55 23.78 55 24.25C55 24.72 53.65 25.575 52 26.15C50.35 26.725 49 27.588 49 28.066C49 28.545 48.383 28.7 47.629 28.411C46.875 28.122 46.007 28.541 45.699 29.342C45.392 30.143 43.534 31.329 41.57 31.977C39.607 32.625 38 33.533 38 33.995C38 34.457 35.975 35.608 33.5 36.553C31.025 37.498 29 38.661 29 39.136C29 39.611 28.41 40 27.689 40C26.967 40 25.495 40.822 24.417 41.826C23.339 42.831 21.904 43.468 21.228 43.243C20.553 43.018 20 43.284 20 43.834C20 44.384 17.975 45.608 15.5 46.553C13.025 47.498 11 48.626 11 49.058C11 49.491 9.393 50.375 7.43 51.023C5.466 51.671 3.618 52.831 3.323 53.601C3.028 54.37 2.159 55 1.393 55C0.218 55 0 64.091 0 113C0 164.417 0.174 171 1.531 171C2.374 171 3.313 171.653 3.62 172.452C3.926 173.25 5.712 174.41 7.588 175.029C9.465 175.648 11 176.618 11 177.185C11 177.751 11.675 177.955 12.5 177.638C13.325 177.322 14 177.522 14 178.083C14 178.645 15.35 179.575 17 180.15C18.65 180.725 20 181.501 20 181.874C20 182.247 22.021 183.44 24.491 184.526C26.96 185.612 28.985 186.77 28.991 187.099C28.996 187.429 31.025 188.534 33.5 189.554C35.975 190.575 38 191.794 38 192.264C38 192.734 38.45 192.84 39 192.5C39.55 192.16 40 192.359 40 192.941C40 193.523 40.59 194 41.311 194C42.033 194 43.495 194.804 44.561 195.787C45.628 196.77 48.075 198.189 50 198.941C51.925 199.693 53.95 200.823 54.5 201.451C55.05 202.079 57.075 203.204 59 203.951C60.925 204.698 62.977 205.884 63.561 206.587C64.144 207.29 66.619 208.635 69.061 209.576C71.502 210.517 73.95 211.828 74.5 212.489C75.05 213.151 77.244 214.322 79.376 215.093C81.508 215.863 83.46 217.035 83.714 217.698C83.969 218.361 85.712 219.41 87.588 220.029C89.465 220.648 91 221.618 91 222.185C91 222.751 91.638 222.969 92.417 222.67C93.197 222.371 94.073 222.748 94.365 223.508C95.277 225.886 101.45 226.376 106.45 224.466C108.952 223.51 111 222.374 111 221.942C111 221.509 112.572 220.636 114.492 220.003C116.413 219.369 118.326 218.279 118.742 217.58C119.159 216.882 121.628 215.508 124.23 214.527C126.831 213.546 128.767 212.432 128.531 212.051C128.296 211.67 130.329 210.558 133.049 209.579C135.769 208.601 137.772 207.441 137.5 207C137.228 206.559 139.254 205.39 142.002 204.402C144.751 203.414 147 202.22 147 201.75C147 201.28 148.35 200.425 150 199.85C151.65 199.275 153 198.412 153 197.934C153 197.455 153.617 197.3 154.371 197.589C155.125 197.878 155.993 197.459 156.301 196.658C156.608 195.857 158.466 194.671 160.43 194.023C162.393 193.375 164 192.467 164 192.005C164 191.543 166.025 190.392 168.5 189.447C170.975 188.502 173 187.339 173 186.864C173 186.389 173.59 186 174.311 186C175.033 186 176.505 185.178 177.583 184.174C178.661 183.169 180.096 182.532 180.772 182.757C181.447 182.982 182 182.716 182 182.166C182 181.616 184.025 180.392 186.5 179.447C188.975 178.502 191 177.374 191 176.942C191 176.509 192.607 175.625 194.57 174.977C196.534 174.329 198.382 173.169 198.677 172.399C198.972 171.63 199.841 171 200.607 171C201.782 171 202 161.909 202 113C202 61.583 201.826 55 200.469 55C199.626 55 198.687 54.347 198.38 53.548C198.074 52.75 196.288 51.59 194.412 50.971C192.535 50.352 191 49.382 191 48.815C191 48.249 190.325 48.045 189.5 48.362C188.675 48.678 188 48.478 188 47.917C188 47.355 186.65 46.425 185 45.85C183.35 45.275 182 44.499 182 44.126C182 43.753 179.979 42.56 177.509 41.474C175.04 40.388 173.015 39.23 173.009 38.901C173.004 38.571 170.975 37.466 168.5 36.446C166.025 35.425 164 34.206 164 33.736C164 33.266 163.55 33.16 163 33.5C162.45 33.84 162 33.641 162 33.059C162 32.477 161.41 32 160.689 32C159.967 32 158.505 31.196 157.439 30.213C156.372 29.23 153.925 27.811 152 27.059C150.075 26.307 148.05 25.177 147.5 24.549C146.95 23.921 144.925 22.796 143 22.049C141.075 21.302 139.023 20.116 138.439 19.413C137.856 18.71 135.381 17.365 132.939 16.424C130.498 15.483 128.05 14.194 127.5 13.56C126.95 12.926 124.925 11.787 123 11.03C121.075 10.272 118.695 8.831 117.711 7.826C116.727 6.822 115.297 6 114.532 6C113.768 6 112.414 5.271 111.524 4.381C110.633 3.49 109.633 3.033 109.301 3.365C108.969 3.697 108.187 3.271 107.564 2.418C105.957 0.220996 99.153 -0.235005 95.124 1.584ZM150 85.5V97H100.5H51V86.167C51 80.208 51.3 75.033 51.667 74.667C52.033 74.3 74.308 74 101.167 74H150V85.5ZM150 113.5V125H100.5H51V113.5V102H100.5H150V113.5ZM96 140.5V152H73.5H51V141.167C51 135.208 51.3 130.033 51.667 129.667C52.033 129.3 62.158 129 74.167 129H96V140.5ZM150 140.5V152H127.5H105V141.167C105 135.208 105.3 130.033 105.667 129.667C106.033 129.3 116.158 129 128.167 129H150V140.5Z" fill="black"/>
</svg>
