<svg width="200" height="226" viewBox="0 0 200 226" fill="none" xmlns="http://www.w3.org/2000/svg">
<path fill-rule="evenodd" clip-rule="evenodd" d="M72 15.667C56.875 24.211 34.487 36.829 22.25 43.707L0 56.212V112.971V169.73L15.75 178.52C24.413 183.355 33.975 188.759 37 190.529C40.025 192.299 44.75 195.001 47.5 196.534C50.25 198.066 63.199 205.312 76.276 212.634L100.051 225.947L127.776 210.373C143.024 201.807 165.512 189.171 177.75 182.293L200 169.788V112.986V56.184L193.75 52.729C187.898 49.494 173.355 41.324 156 31.521C133.652 18.897 99.831 0.0090009 99.677 0.0660009C99.58 0.102001 87.125 7.123 72 15.667ZM148 86V96H99.5H51V86V76H99.5H148V86ZM148 113.51V124.019L99.75 123.76L51.5 123.5L51.209 114.579C51.048 109.673 51.147 105.06 51.427 104.329C51.842 103.249 60.941 103 99.969 103H148V113.51ZM94 141V151H72.5H51V141V131H72.5H94V141ZM148 141V151H126.5H105V141V131H126.5H148V141Z" fill="black"/>
</svg>
