<?xml version="1.0" encoding="UTF-8"?>
<svg version="1.1" xmlns="http://www.w3.org/2000/svg" width="250" height="250">
<path d="M0 0 C0 0.66 0 1.32 0 2 C1.134375 2.28875 2.26875 2.5775 3.4375 2.875 C5.2009375 3.431875 5.2009375 3.431875 7 4 C7.495 4.99 7.495 4.99 8 6 C9.85240164 6.83047008 9.85240164 6.83047008 12 7.5 C14.1875 8.21875 14.1875 8.21875 16 9 C16.495 9.99 16.495 9.99 17 11 C18.64034193 11.72904086 20.31301918 12.38655243 22 13 C26.88888889 14.77777778 26.88888889 14.77777778 28 17 C29.85240164 17.83047008 29.85240164 17.83047008 32 18.5 C34.1875 19.21875 34.1875 19.21875 36 20 C36.33 20.66 36.66 21.32 37 22 C38.88263881 22.90343684 38.88263881 22.90343684 41.0625 23.625 C41.79597656 23.88539062 42.52945313 24.14578125 43.28515625 24.4140625 C43.85105469 24.60742188 44.41695312 24.80078125 45 25 C45 25.66 45 26.32 45 27 C45.94875 27.309375 46.8975 27.61875 47.875 27.9375 C51 29 51 29 53 30 C53 30.66 53 31.32 53 32 C53.556875 32.12375 54.11375 32.2475 54.6875 32.375 C57.22114364 33.05976855 59.57921032 33.99133763 62 35 C62 35.66 62 36.32 62 37 C63.11375 37.185625 63.11375 37.185625 64.25 37.375 C66.80141485 37.95486701 68.7267573 38.73708739 71 40 C71 40.66 71 41.32 71 42 C71.928125 42.309375 72.85625 42.61875 73.8125 42.9375 C75.875 43.625 77.9375 44.3125 80 45 C80 45.66 80 46.32 80 47 C81.134375 47.28875 82.26875 47.5775 83.4375 47.875 C84.613125 48.24625 85.78875 48.6175 87 49 C87.33 49.66 87.66 50.32 88 51 C88.99 51.33 89.98 51.66 91 52 C91 90.28 91 128.56 91 168 C90.01 168 89.02 168 88 168 C87.67 168.99 87.34 169.98 87 171 C83.4375 172.1875 83.4375 172.1875 80 173 C80 173.66 80 174.32 80 175 C77.03 175.99 74.06 176.98 71 178 C71 178.66 71 179.32 71 180 C68.02588876 181.23921302 65.14737182 182.30058404 62 183 C62 183.66 62 184.32 62 185 C59.03 185.99 56.06 186.98 53 188 C53 188.66 53 189.32 53 190 C51.865625 190.45375 50.73125 190.9075 49.5625 191.375 C45.95278308 192.57095806 45.95278308 192.57095806 45 195 C42.37383124 196.17486497 39.72955415 197.09014862 37 198 C36.67 198.66 36.34 199.32 36 200 C34.00390625 201 34.00390625 201 31.5625 202 C28.77093027 203.14709767 27.15381334 203.84618666 25 206 C22.66666667 207 20.33333333 208 18 209 C17.34 209.66 16.68 210.32 16 211 C13.07658794 212.3492671 11.24792684 213 8 213 C7.67 213.99 7.34 214.98 7 216 C3.4375 217.1875 3.4375 217.1875 0 218 C0 218.66 0 219.32 0 220 C-5.62405151 222.99151676 -9.77523718 223.53030213 -16 222 C-17.35275536 221.37368126 -18.69300549 220.71692927 -20 220 C-20 219.34 -20 218.68 -20 218 C-21.134375 217.71125 -22.26875 217.4225 -23.4375 217.125 C-25.2009375 216.568125 -25.2009375 216.568125 -27 216 C-27.33 215.34 -27.66 214.68 -28 214 C-29.85240164 213.16952992 -29.85240164 213.16952992 -32 212.5 C-34.1875 211.78125 -34.1875 211.78125 -36 211 C-36.33 210.34 -36.66 209.68 -37 209 C-38.64034193 208.27095914 -40.31301918 207.61344757 -42 207 C-46.88888889 205.22222222 -46.88888889 205.22222222 -48 203 C-49.85240164 202.16952992 -49.85240164 202.16952992 -52 201.5 C-54.1875 200.78125 -54.1875 200.78125 -56 200 C-56.33 199.34 -56.66 198.68 -57 198 C-58.88263881 197.09656316 -58.88263881 197.09656316 -61.0625 196.375 C-61.79597656 196.11460937 -62.52945313 195.85421875 -63.28515625 195.5859375 C-63.85105469 195.39257812 -64.41695312 195.19921875 -65 195 C-65 194.34 -65 193.68 -65 193 C-65.94875 192.690625 -66.8975 192.38125 -67.875 192.0625 C-71 191 -71 191 -73 190 C-73 189.34 -73 188.68 -73 188 C-73.556875 187.87625 -74.11375 187.7525 -74.6875 187.625 C-77.22114364 186.94023145 -79.57921032 186.00866237 -82 185 C-82 184.34 -82 183.68 -82 183 C-83.11375 182.814375 -83.11375 182.814375 -84.25 182.625 C-86.80141485 182.04513299 -88.7267573 181.26291261 -91 180 C-91 179.34 -91 178.68 -91 178 C-91.928125 177.690625 -92.85625 177.38125 -93.8125 177.0625 C-95.875 176.375 -97.9375 175.6875 -100 175 C-100 174.34 -100 173.68 -100 173 C-101.134375 172.71125 -102.26875 172.4225 -103.4375 172.125 C-105.2009375 171.568125 -105.2009375 171.568125 -107 171 C-107.33 170.34 -107.66 169.68 -108 169 C-108.99 168.67 -109.98 168.34 -111 168 C-111 129.72 -111 91.44 -111 52 C-110.01 52 -109.02 52 -108 52 C-107.67 51.01 -107.34 50.02 -107 49 C-103.4375 47.8125 -103.4375 47.8125 -100 47 C-100 46.34 -100 45.68 -100 45 C-97.03 44.01 -94.06 43.02 -91 42 C-91 41.34 -91 40.68 -91 40 C-88.02588876 38.76078698 -85.14737182 37.69941596 -82 37 C-82 36.34 -82 35.68 -82 35 C-79.03 34.01 -76.06 33.02 -73 32 C-73 31.34 -73 30.68 -73 30 C-71.865625 29.54625 -70.73125 29.0925 -69.5625 28.625 C-65.95278308 27.42904194 -65.95278308 27.42904194 -65 25 C-62.37383124 23.82513503 -59.72955415 22.90985138 -57 22 C-56.67 21.34 -56.34 20.68 -56 20 C-54.00390625 19 -54.00390625 19 -51.5625 18 C-48.77093027 16.85290233 -47.15381334 16.15381334 -45 14 C-42.66666667 13 -40.33333333 12 -38 11 C-37.34 10.34 -36.68 9.68 -36 9 C-33.07658794 7.6507329 -31.24792684 7 -28 7 C-27.67 6.01 -27.34 5.02 -27 4 C-23.4375 2.8125 -23.4375 2.8125 -20 2 C-20 1.34 -20 0.68 -20 0 C-13.05741898 -3.69286225 -6.99471026 -3.83682753 0 0 Z " fill="#000000" transform="translate(135,15)"/>
<path d="M0 0 C32.67 0 65.34 0 99 0 C99 7.26 99 14.52 99 22 C66.33 22 33.66 22 0 22 C0 14.74 0 7.48 0 0 Z " fill="#F2F2F2" transform="translate(75,87)"/>
<path d="M0 0 C32.34 0 64.68 0 98 0 C98 6.93 98 13.86 98 21 C65.66 21 33.32 21 0 21 C0 14.07 0 7.14 0 0 Z " fill="#FAFAFA" transform="translate(76,115)"/>
<path d="M0 0 C14.85 0 29.7 0 45 0 C45 7.26 45 14.52 45 22 C30.15 22 15.3 22 0 22 C0 14.74 0 7.48 0 0 Z " fill="#EFEFEF" transform="translate(75,142)"/>
<path d="M0 0 C14.52 0 29.04 0 44 0 C44 7.26 44 14.52 44 22 C29.48 22 14.96 22 0 22 C0 14.74 0 7.48 0 0 Z " fill="#F4F4F4" transform="translate(130,142)"/>
</svg>
