<svg width="64" height="64" viewBox="0 0 64 64" fill="none" xmlns="http://www.w3.org/2000/svg">
<g clip-path="url(#clip0_1_2)">
<path fill-rule="evenodd" clip-rule="evenodd" d="M0 32V64H32H64V32V0H32H0V32Z" fill="#FEC0C0"/>
<path fill-rule="evenodd" clip-rule="evenodd" d="M0 32V64H32H64V32V0H32H0V32ZM15.729 10.604C15.397 10.936 14.534 10.972 13.813 10.683C13.015 10.364 13.252 10.127 14.417 10.079C15.471 10.036 16.061 10.272 15.729 10.604ZM50.729 10.604C50.397 10.936 49.534 10.972 48.813 10.683C48.015 10.364 48.252 10.127 49.417 10.079C50.471 10.036 51.061 10.272 50.729 10.604ZM43 14.393C43 14.609 42.302 15.054 41.448 15.382C40.558 15.723 40.157 15.555 40.507 14.989C41.094 14.038 43 13.583 43 14.393ZM50 49.345C50 49.535 48.987 50.547 47.75 51.595L45.5 53.5L47.405 51.25C49.195 49.136 50 48.545 50 49.345ZM29 56C29 56.55 28.212 56.993 27.25 56.985C25.754 56.972 25.718 56.828 27 56C28.887 54.78 29 54.78 29 56ZM35 56.607C35 56.823 34.325 57 33.5 57C32.675 57 32 56.564 32 56.031C32 55.499 32.675 55.322 33.5 55.638C34.325 55.955 35 56.391 35 56.607Z" fill="#F84647"/>
<path fill-rule="evenodd" clip-rule="evenodd" d="M0 32V64H32H64V32V0H32H0V32ZM19.481 11.561C20.789 12.55 22.486 12.839 24.481 12.412C28.238 11.608 27.578 12.339 23.216 13.811C21.409 14.421 20.157 14.556 20.432 14.111C21.032 13.14 17.475 11.241 14 10.678C11.806 10.322 11.867 10.26 14.5 10.168C16.15 10.111 18.391 10.737 19.481 11.561ZM51.269 10.656C50.592 10.93 49.242 10.947 48.269 10.693C47.296 10.439 47.85 10.215 49.5 10.195C51.15 10.175 51.946 10.382 51.269 10.656ZM10.399 12.163C10.004 12.802 9.349 14.715 8.943 16.413C8.35 18.891 8.185 19.043 8.102 17.184C8.001 14.902 9.574 11 10.594 11C10.882 11 10.795 11.523 10.399 12.163ZM33.269 11.656C32.592 11.93 31.242 11.947 30.269 11.693C29.296 11.439 29.85 11.215 31.5 11.195C33.15 11.175 33.946 11.382 33.269 11.656ZM46.397 11.833C46.68 12.292 46.277 12.667 45.5 12.667C44.723 12.667 44.32 12.292 44.603 11.833C44.886 11.375 45.29 11 45.5 11C45.71 11 46.114 11.375 46.397 11.833ZM54.921 13.309C54.865 14.161 54.698 14.143 54.336 13.244C54.057 12.553 53.348 12.285 52.76 12.648C52.123 13.042 51.983 12.836 52.415 12.138C53.265 10.761 55.035 11.588 54.921 13.309ZM38 12.393C38 12.609 37.302 13.054 36.448 13.382C35.558 13.723 35.157 13.555 35.507 12.989C36.094 12.038 38 11.583 38 12.393ZM43 13.893C43 14.384 42.261 15.069 41.359 15.416C39.986 15.943 39.924 15.796 40.981 14.523C42.421 12.788 43 12.607 43 13.893ZM55.683 17.188C55.364 17.985 55.127 17.748 55.079 16.583C55.036 15.529 55.272 14.939 55.604 15.271C55.936 15.603 55.972 16.466 55.683 17.188ZM9.662 23.25C9.385 23.938 9.158 23.375 9.158 22C9.158 20.625 9.385 20.063 9.662 20.75C9.94 21.438 9.94 22.563 9.662 23.25ZM54.683 22.188C54.364 22.985 54.127 22.748 54.079 21.583C54.036 20.529 54.272 19.939 54.604 20.271C54.936 20.603 54.972 21.466 54.683 22.188ZM53.807 25.526C53.499 25.834 52.94 25.279 52.564 24.293C52.022 22.868 52.136 22.753 53.124 23.733C53.808 24.412 54.115 25.219 53.807 25.526ZM10.718 36.736C10.488 38.256 10.294 37.25 10.286 34.5C10.279 31.75 10.467 30.506 10.704 31.736C10.941 32.966 10.947 35.216 10.718 36.736ZM52.683 35.188C52.364 35.985 52.127 35.748 52.079 34.583C52.036 33.529 52.272 32.939 52.604 33.271C52.936 33.603 52.972 34.466 52.683 35.188ZM9.683 42.188C9.364 42.985 9.127 42.748 9.079 41.583C9.036 40.529 9.272 39.939 9.604 40.271C9.936 40.603 9.972 41.466 9.683 42.188ZM52.683 44.188C52.364 44.985 52.127 44.748 52.079 43.583C52.036 42.529 52.272 41.939 52.604 42.271C52.936 42.603 52.972 43.466 52.683 44.188ZM11.29 46.001C11.578 47.102 11.405 47.751 10.907 47.442C10.408 47.134 10 46.234 10 45.441C10 43.371 10.679 43.666 11.29 46.001ZM16.491 51.252C16.948 50.838 17.026 51.015 16.666 51.645C16.269 52.339 17.487 53.403 19.756 54.344C21.815 55.198 22.915 55.92 22.2 55.948C20.138 56.03 15.676 53.417 13.498 50.852L11.5 48.5L13.581 50.252C14.726 51.216 16.035 51.666 16.491 51.252ZM48.416 51.093C47.375 52.244 45.617 53.643 44.511 54.202C43.405 54.762 44.075 53.838 46 52.15C50.084 48.569 51.104 48.123 48.416 51.093ZM29 56C29 56.55 27.762 56.955 26.25 56.9L23.5 56.801L26 56C27.375 55.56 28.613 55.155 28.75 55.1C28.887 55.045 29 55.45 29 56ZM37 56.617C37 56.827 35.875 57 34.5 57C33.125 57 32 56.612 32 56.139C32 55.665 33.125 55.492 34.5 55.755C35.875 56.018 37 56.406 37 56.617Z" fill="#FB0001"/>
<path fill-rule="evenodd" clip-rule="evenodd" d="M9.929 13.133C9.194 14.505 9.068 16.736 9.574 19.383C10.007 21.647 10.422 28.569 10.496 34.764C10.609 44.299 10.936 46.447 12.624 48.764C15.252 52.371 22.755 56.204 26.25 55.724C27.762 55.516 29 55.718 29 56.173C29 56.628 29.675 57 30.5 57C31.325 57 32.002 56.663 32.004 56.25C32.006 55.837 34.22 55.468 36.923 55.429C40.91 55.372 42.693 54.711 46.369 51.929C51.671 47.917 52.062 46.669 52.239 33.174C52.311 27.64 52.708 23.32 53.121 23.575C54.452 24.397 55.264 15.362 54.061 13.114C52.456 10.114 47.312 10.304 43.594 13.501C40.564 16.108 39.48 16.65 40.456 15.072C41.195 13.875 37.381 12.646 35.854 13.59C35.13 14.037 34.96 13.873 35.405 13.155C36.46 11.446 29.156 11.681 23.937 13.522C21.564 14.36 19.925 14.742 20.295 14.371C21.468 13.199 17.628 11.065 14.285 11.032C12.006 11.009 10.738 11.621 9.929 13.133ZM32 49C32 49.55 31.55 50 31 50C30.45 50 30 49.55 30 49C30 48.45 30.45 48 31 48C31.55 48 32 48.45 32 49Z" fill="white"/>
<path fill-rule="evenodd" clip-rule="evenodd" d="M10.984 13.519C9.97 14.741 9.974 16.5 11.005 22.527C11.762 26.956 12.028 32.787 11.655 36.797C10.847 45.5 12.75 49.477 19.348 52.875C23.005 54.758 25.311 55.208 30.48 55.049C41.17 54.718 42.832 54.537 42.345 53.75C42.091 53.337 42.324 53 42.864 53C43.405 53 45.169 51.888 46.784 50.528C48.4 49.168 49.927 48.26 50.176 48.509C50.425 48.759 50.717 44.584 50.825 39.231C50.933 33.879 51.784 26.436 52.718 22.691C53.957 17.724 54.129 15.425 53.356 14.191C51.761 11.647 48.083 11.562 44.795 13.994C41.991 16.067 41.689 16.093 37.911 14.581C33.21 12.7 30.073 12.598 24.869 14.157C21.59 15.14 20.729 15.064 19.174 13.657C16.884 11.585 12.649 11.513 10.984 13.519ZM17.521 15.392C19.145 16.579 19.227 17.022 18.08 18.404C17.099 19.586 16.387 19.736 15.451 18.959C14.496 18.167 14.047 18.356 13.7 19.697C13.428 20.744 13.183 20.207 13.116 18.417C12.944 13.857 14.222 12.979 17.521 15.392ZM50.985 18.309C50.974 20.612 50.717 21.101 50.061 20.064C49.346 18.934 48.845 18.884 47.709 19.827C46.57 20.772 45.997 20.701 44.99 19.488C44.289 18.643 43.892 17.813 44.107 17.644C46.793 15.54 49.49 14.185 50.163 14.601C50.623 14.885 50.993 16.554 50.985 18.309ZM49.683 24.188C49.364 24.985 49.127 24.748 49.079 23.583C49.036 22.529 49.272 21.939 49.604 22.271C49.936 22.603 49.972 23.466 49.683 24.188ZM24.64 24.46C25.786 25.263 27.291 27.288 27.984 28.96C29.799 33.343 33.491 33.154 35.402 28.58C37.381 23.844 40.523 22.259 43.176 24.659C46.32 27.504 46.996 29.418 47.565 37.07C48.19 45.484 47.048 47.915 41.025 50.987C32.684 55.242 18.318 52.332 15.197 45.754C13.083 41.296 15.108 29.541 18.623 25.872C21.809 22.546 21.882 22.529 24.64 24.46ZM21 30C21 30.55 21.9 31 23 31C24.1 31 25 30.55 25 30C25 29.45 24.1 29 23 29C21.9 29 21 29.45 21 30ZM37.577 29.875C37.28 30.356 38.145 30.75 39.5 30.75C40.855 30.75 41.72 30.356 41.423 29.875C41.125 29.394 40.26 29 39.5 29C38.74 29 37.875 29.394 37.577 29.875ZM20.067 33.874C18.391 37.007 18.779 39 21.067 39C22.731 39 23.012 38.561 22.505 36.75C21.895 34.571 21.938 34.579 23.869 36.985C26.379 40.112 27.622 39.07 25.833 35.338C24.177 31.883 21.497 31.202 20.067 33.874ZM37.2 33.2C36.54 33.86 36.01 35.547 36.022 36.95L36.044 39.5L38.085 37C40.057 34.584 40.104 34.576 39.495 36.75C38.988 38.561 39.269 39 40.933 39C43.206 39 43.611 37.01 41.965 33.934C40.785 31.73 38.952 31.448 37.2 33.2ZM29.496 40.007C28.736 41.236 31.488 42.434 32.968 41.52C33.554 41.158 33.774 40.443 33.457 39.931C32.694 38.696 30.277 38.742 29.496 40.007ZM25 44.84C25 45.83 30.68 51 31.768 51C32.469 51 33.555 49.875 34.182 48.5C34.808 47.125 35.999 46 36.827 46C37.656 46 38.014 45.68 37.623 45.289C36.927 44.594 25 44.169 25 44.84ZM32 49C32 49.55 31.55 50 31 50C30.45 50 30 49.55 30 49C30 48.45 30.45 48 31 48C31.55 48 32 48.45 32 49Z" fill="#B4B4B4"/>
<path fill-rule="evenodd" clip-rule="evenodd" d="M10.911 14.295C10.153 15.959 10.248 18.246 11.254 22.603C12.206 26.72 12.415 30.805 11.919 35.558C11.068 43.719 12.201 47.309 16.869 51.236C22.139 55.671 35.414 56.308 43.368 52.508C49.338 49.656 51.057 46.005 50.904 36.5C50.824 31.52 51.424 26.284 52.494 22.63C53.811 18.129 53.959 16.205 53.127 14.38C51.758 11.376 48.214 11.258 44.605 14.096C42.058 16.099 41.761 16.122 37.949 14.596C33.197 12.695 29.762 12.637 24.9 14.375C21.718 15.512 21.037 15.449 19.039 13.831C15.869 11.263 12.197 11.473 10.911 14.295ZM17.836 15.597C19.979 17.099 20.01 17.272 18.35 18.486C17.379 19.196 16.042 19.57 15.379 19.315C14.717 19.061 13.963 19.674 13.703 20.677C13.444 21.679 13.18 20.587 13.116 18.25C12.988 13.559 14.063 12.955 17.836 15.597ZM50.9 17.25C50.845 19.038 50.402 21.625 49.914 23C49.133 25.2 49.082 25.11 49.489 22.25C49.933 19.118 48.654 17.685 47.703 20.25C47.366 21.159 46.73 21.01 45.37 19.702C43.547 17.95 43.563 17.856 46 15.975C49.667 13.144 51.015 13.495 50.9 17.25ZM27.123 27.505C30.247 32.104 32.94 32.613 34.702 28.937C36.697 24.774 39.837 22.408 41.758 23.619C45.791 26.163 47.461 30.006 47.846 37.628C48.207 44.773 48.083 45.304 45.391 48.114C38.619 55.182 24.717 55.371 17.426 48.495L13.865 45.137L14.552 37.818C14.962 33.454 16.014 29.217 17.158 27.321C20.505 21.773 23.265 21.824 27.123 27.505ZM21 29.786C21 30.218 21.9 30.571 23 30.571C24.1 30.571 25 30.218 25 29.786C25 29.354 24.1 29 23 29C21.9 29 21 29.354 21 29.786ZM38 29.787C38 30.22 38.91 30.643 40.022 30.727C41.134 30.81 41.782 30.456 41.463 29.939C40.76 28.803 38 28.681 38 29.787ZM20.557 34.223C18.599 37.017 18.563 39 20.469 39C21.316 39 21.71 38.408 21.4 37.601C20.468 35.171 22.794 34.868 24.432 37.206L26 39.445V36.923C26 34.496 24.406 32 22.857 32C22.448 32 21.413 33 20.557 34.223ZM36.816 34.504C35.414 37.58 36.523 39.034 38.358 36.526C39.285 35.257 39.913 35.05 40.406 35.849C40.798 36.482 40.84 37.45 40.5 38C40.16 38.55 40.584 39 41.441 39C43.234 39 43.468 36.742 41.965 33.934C40.531 31.256 38.178 31.516 36.816 34.504ZM29.543 39.931C28.803 41.128 30.684 42.313 32.016 41.49C33.135 40.799 32.4 39 31 39C30.515 39 29.859 39.419 29.543 39.931ZM27.858 44.711L25.215 45.112L28.108 48.279L31 51.446L33.944 48.223C36.461 45.467 36.617 45 35.025 45C34.001 45 32.564 44.845 31.832 44.655C31.099 44.465 29.311 44.49 27.858 44.711ZM32 49C32 49.55 31.55 50 31 50C30.45 50 30 49.55 30 49C30 48.45 30.45 48 31 48C31.55 48 32 48.45 32 49Z" fill="#949494"/>
<path fill-rule="evenodd" clip-rule="evenodd" d="M11.051 14.365C10.496 15.827 10.554 18.406 11.205 21.115C11.784 23.527 12.179 30.137 12.084 35.805L11.91 46.11L15.266 49.466C17.197 51.397 20.505 53.331 23.06 54.022C29.012 55.632 38.605 54.752 43.759 52.123C49.504 49.192 51.092 45.76 50.595 37.348C50.334 32.932 50.814 28.15 51.979 23.561C52.996 19.56 53.445 15.667 53.023 14.518C51.983 11.684 48.542 11.478 44.954 14.032C42.228 15.974 41.576 16.067 38.79 14.913C34.983 13.336 27.09 13.346 24.126 14.932C22.313 15.903 21.502 15.753 19.337 14.05C15.766 11.242 12.187 11.378 11.051 14.365ZM18.353 15.838C19.91 17.558 19.888 17.792 18.008 19.493C16.872 20.521 16 20.808 16 20.155C16 19.52 15.514 19 14.921 19C14.238 19 14.076 20.195 14.481 22.25C14.957 24.667 14.854 25.116 14.076 24C13.501 23.175 13.024 20.587 13.015 18.25C13.003 14.78 13.339 14 14.845 14C15.86 14 17.438 14.827 18.353 15.838ZM51 16.875C51 21.031 49.881 26 48.945 26C48.502 26 48.551 24.567 49.053 22.816C50.052 19.331 49.424 17.696 47.982 20.029C47.2 21.294 46.822 21.245 45.286 19.685C43.57 17.942 43.592 17.795 45.861 15.935C49.254 13.154 51 13.473 51 16.875ZM24.61 23.765C25.221 24.169 26.47 25.962 27.386 27.75C28.586 30.092 29.742 31 31.526 31C32.887 31 34 30.585 34 30.077C34 28.256 39.215 23 41.021 23C44.19 23 47.213 28.579 47.983 35.85C48.895 44.461 47.8 47.453 42.646 50.441C34.22 55.324 24.102 54.663 17.417 48.793L13.86 45.67L14.552 38.085C15.624 26.34 19.71 20.523 24.61 23.765ZM21.632 29.786C21.365 30.218 21.981 30.571 23 30.571C24.019 30.571 24.635 30.218 24.368 29.786C24.1 29.354 23.485 29 23 29C22.515 29 21.9 29.354 21.632 29.786ZM38.813 29.683C39.534 29.972 40.397 29.936 40.729 29.604C41.061 29.272 40.471 29.036 39.417 29.079C38.252 29.127 38.015 29.364 38.813 29.683ZM20.557 34.223C18.785 36.753 18.523 39 20 39C20.55 39 21 38.352 21 37.559C21 35.191 23.033 34.668 24.535 36.65C26.209 38.86 26.527 36.853 24.965 33.934C23.617 31.417 22.469 31.492 20.557 34.223ZM37.727 33.75C35.2 36.542 35.463 38.796 38.043 36.461C40.039 34.655 40.099 34.663 40.66 36.806C40.975 38.013 41.631 39 42.117 39C43.584 39 43.111 36.359 41.227 34.032C39.486 31.882 39.421 31.877 37.727 33.75ZM30.813 40.683C31.534 40.972 32.397 40.936 32.729 40.604C33.061 40.272 32.471 40.036 31.417 40.079C30.252 40.127 30.015 40.364 30.813 40.683ZM29.143 44.886C28.258 45.45 28.035 46.535 28.502 48.007C29.062 49.772 29.413 49.963 30.109 48.882C30.772 47.854 31.196 47.802 31.763 48.676C32.299 49.502 33.152 49.151 34.623 47.499C36.357 45.552 36.441 45.156 35.11 45.206C34.224 45.24 32.825 44.987 32 44.644C31.175 44.301 29.889 44.41 29.143 44.886Z" fill="#525252"/>
<path fill-rule="evenodd" clip-rule="evenodd" d="M11.985 13.518C11.07 14.62 10.956 16.467 11.569 20.268C12.034 23.145 12.433 30.017 12.457 35.538C12.506 47.041 13.591 49.629 19.55 52.457C21.585 53.422 26.006 54.367 29.375 54.555L35.5 54.898L29.981 54.106C17.943 52.376 13.342 48.112 13.748 39.064C14.079 31.708 15.446 27.904 18.978 24.521C21.753 21.862 22.039 21.795 24.302 23.278C25.617 24.14 27.267 26.23 27.968 27.923C28.886 30.139 29.908 31 31.621 31C33.121 31 34 30.417 34 29.423C34 28.556 35.362 26.484 37.027 24.819C39.834 22.012 40.216 21.899 42.277 23.261C46.281 25.907 47.906 30.047 48.212 38.384C48.498 46.161 48.478 46.231 45.191 48.979C43.371 50.5 40.446 52.206 38.691 52.77C36.608 53.44 36.195 53.815 37.5 53.85C40.55 53.932 46.084 50.823 48.357 47.75C50.041 45.473 50.349 43.715 50.151 37.517C50.007 32.993 50.523 27.978 51.456 24.836C53.469 18.058 53.455 13.388 51.418 12.607C48.935 11.654 48.349 11.835 45.123 14.55C42.234 16.981 41.954 17.028 39.096 15.55C35.677 13.781 28.403 13.516 24.459 15.016C22.316 15.83 21.141 15.632 18.525 14.016C14.618 11.601 13.638 11.526 11.985 13.518ZM18.546 15.41C20.436 16.792 20.437 16.86 18.585 18.906C17.142 20.501 16.379 20.729 15.349 19.875C14.25 18.963 14.117 19.333 14.626 21.878C14.996 23.728 14.838 25 14.239 25C13.062 25 11.58 16.488 12.498 15.003C13.384 13.569 16.296 13.765 18.546 15.41ZM51.529 15.047C52.363 16.396 50.08 26 48.925 26C48.444 26 48.302 24.538 48.609 22.75C49.02 20.363 48.897 19.888 48.145 20.96C47.265 22.216 46.831 22.157 45.046 20.541L42.969 18.662L45.159 16.331C47.462 13.88 50.437 13.28 51.529 15.047ZM20.667 33.667C20.3 34.033 20.029 35.271 20.063 36.417C20.12 38.279 20.234 38.235 21.135 36L22.143 33.5L24.072 35.861C26.175 38.435 26.602 37.992 24.965 34.934C23.93 33.001 21.924 32.409 20.667 33.667ZM37.067 34.874C35.358 38.067 35.876 38.719 37.963 36.003L39.882 33.506L40.931 36.003L41.98 38.5L41.74 36.01C41.44 32.899 38.506 32.186 37.067 34.874ZM30.813 40.683C31.534 40.972 32.397 40.936 32.729 40.604C33.061 40.272 32.471 40.036 31.417 40.079C30.252 40.127 30.015 40.364 30.813 40.683ZM29.687 45.267C28.512 46.145 28.316 46.932 29.003 48C29.713 49.102 29.973 49.15 29.985 48.183C29.995 47.322 30.694 47.085 32 47.5C34.269 48.22 34.671 46.801 32.668 45.139C31.688 44.326 30.899 44.36 29.687 45.267Z" fill="black"/>
</g>
<defs>
<clipPath id="clip0_1_2">
<rect width="64" height="64" rx="32" fill="white"/>
</clipPath>
</defs>
</svg>
