<svg width="64" height="65" viewBox="0 0 64 65" fill="none" xmlns="http://www.w3.org/2000/svg">
<path fill-rule="evenodd" clip-rule="evenodd" d="M17.207 4.054C5.94 9.684 0 19.813 0 33.395C0 42.03 2.058 47.906 7.322 54.303C13.201 61.446 19.444 64.27 30.5 64.787C38.488 65.16 40.141 64.923 45.199 62.681C57.219 57.354 64 46.648 64 33C64 19.773 57.219 8.803 45.737 3.458C41.474 1.473 38.902 1.018 31.91 1.01C24.321 1.001 22.607 1.356 17.207 4.054Z" fill="#C693E4"/>
<path fill-rule="evenodd" clip-rule="evenodd" d="M17.207 4.054C5.94 9.684 0 19.813 0 33.395C0 42.03 2.058 47.906 7.322 54.303C13.201 61.446 19.444 64.27 30.5 64.787C38.488 65.16 40.141 64.923 45.199 62.681C57.219 57.354 64 46.648 64 33C64 19.773 57.219 8.803 45.737 3.458C41.474 1.473 38.902 1.018 31.91 1.01C24.321 1.001 22.607 1.356 17.207 4.054ZM26.4 21.399C26.105 22.168 26.344 23.095 26.932 23.458C27.519 23.821 28 24.541 28 25.059C28 25.577 27.172 25.212 26.161 24.25C24.902 23.053 24.625 22.105 25.283 21.25C26.556 19.596 27.066 19.664 26.4 21.399ZM33.279 21.714C33.008 22.421 32.432 23 32 23C31.568 23 30.992 22.421 30.721 21.714C30.433 20.965 30.966 20.429 32 20.429C33.034 20.429 33.567 20.965 33.279 21.714ZM39.062 24.883C38.439 26.048 37.463 27 36.893 27C36.323 27 36.564 26.293 37.429 25.429C39.262 23.595 39.364 22.84 38.004 21.196C37.456 20.534 37.724 20.617 38.601 21.38C39.875 22.488 39.967 23.192 39.062 24.883ZM22.345 24.543C22.019 25.392 21.538 25.872 21.276 25.61C21.014 25.348 21.096 24.653 21.459 24.067C22.445 22.471 23.021 22.781 22.345 24.543ZM42.807 25.526C42.499 25.834 41.94 25.279 41.564 24.293C41.022 22.868 41.136 22.753 42.124 23.733C42.808 24.412 43.115 25.219 42.807 25.526ZM21.447 29.085C21.125 29.606 20.436 29.769 19.915 29.447C19.394 29.125 19.231 28.436 19.553 27.915C19.875 27.394 20.564 27.231 21.085 27.553C21.606 27.875 21.769 28.564 21.447 29.085ZM44.595 28.155C45.021 28.844 44.871 29.039 44.224 28.638C43.627 28.269 42.856 28.425 42.51 28.984C42.165 29.543 41.441 30 40.902 30C39.828 30 42.07 27.1 43.191 27.038C43.571 27.017 44.203 27.52 44.595 28.155ZM22 33.607C22 33.823 21.325 34 20.5 34C19.675 34 19 33.564 19 33.031C19 32.499 19.675 32.322 20.5 32.638C21.325 32.955 22 33.391 22 33.607ZM26 33C26 33.55 25.523 34 24.941 34C24.359 34 24.16 33.55 24.5 33C24.84 32.45 25.316 32 25.559 32C25.802 32 26 32.45 26 33ZM45 32.827C45 33.282 43.65 33.455 42 33.213C40 32.92 39 33.2 39 34.053C39 34.757 38.73 35.063 38.4 34.733C38.07 34.403 38.096 33.653 38.459 33.067C39.229 31.82 45 31.608 45 32.827ZM30 37.118C30 37.668 29.55 37.84 29 37.5C28.45 37.16 28 36.432 28 35.882C28 35.332 28.45 35.16 29 35.5C29.55 35.84 30 36.568 30 37.118ZM22.507 37.636C21.184 38.959 20.645 39.027 19.686 37.989C18.782 37.012 18.781 36.864 19.681 37.37C20.33 37.734 21.144 37.575 21.49 37.016C21.835 36.457 22.574 36 23.13 36C23.687 36 23.407 36.736 22.507 37.636ZM44.447 38.085C44.125 38.606 43.436 38.769 42.915 38.447C42.394 38.125 42.231 37.436 42.553 36.915C42.875 36.394 43.564 36.231 44.085 36.553C44.606 36.875 44.769 37.564 44.447 38.085ZM39.062 41.117C39.987 42.844 39.857 43.534 38.355 44.867C37.343 45.765 37.074 45.847 37.757 45.05C39.376 43.161 39.325 42.468 37.429 40.571C36.564 39.707 36.323 39 36.893 39C37.463 39 38.439 39.952 39.062 41.117ZM22.382 41.552C22.723 42.442 22.555 42.843 21.989 42.493C21.445 42.157 21 41.459 21 40.941C21 39.503 21.717 39.82 22.382 41.552ZM27.056 42.432C26.381 43.246 26.178 44.495 26.606 45.206C27.225 46.235 27.051 46.23 25.759 45.183C24.261 43.969 24.266 43.728 25.817 42.1C27.806 40.012 28.836 40.288 27.056 42.432ZM42.124 42.267C41.136 43.247 41.022 43.132 41.564 41.707C41.94 40.721 42.499 40.166 42.807 40.474C43.115 40.781 42.808 41.588 42.124 42.267ZM33.279 44.286C33.567 45.035 33.034 45.571 32 45.571C30.966 45.571 30.433 45.035 30.721 44.286C30.992 43.579 31.568 43 32 43C32.432 43 33.008 43.579 33.279 44.286Z" fill="#FF00FF"/>
<path fill-rule="evenodd" clip-rule="evenodd" d="M22.503 1.83C22.135 2.199 21.533 2.551 21.167 2.613C19.163 2.953 14 5.551 14 6.219C14 6.649 13.433 7 12.739 7C12.045 7 10.358 8.397 8.989 10.105C7.62 11.812 5.825 13.909 5 14.765C0.722 19.201 -1.483 37.932 1.582 43.805C2.355 45.287 2.99 47.137 2.994 47.916C2.997 48.695 3.663 50.045 4.474 50.916C5.285 51.787 7.355 54.186 9.075 56.247C10.794 58.307 12.606 59.743 13.101 59.438C13.595 59.132 14 59.249 14 59.697C14 60.472 18.796 62.955 22 63.839C24.981 64.661 40.438 64.883 41.457 64.119C42.03 63.688 44.075 62.716 46 61.96C47.925 61.203 50.015 60.115 50.645 59.542C51.275 58.969 53.188 57.38 54.895 56.011C56.603 54.642 58 52.992 58 52.344C58 51.697 58.448 51.017 58.995 50.833C59.543 50.65 60.845 48.161 61.89 45.302C65.307 35.952 63.772 20.346 58.866 14.55C53.557 8.279 46.877 3.228 43 2.556C42.725 2.508 42.05 2.183 41.5 1.834C40.161 0.983 23.353 0.98 22.503 1.83ZM26.4 21.399C26.105 22.168 26.344 23.095 26.932 23.458C27.519 23.821 28 24.541 28 25.059C28 25.577 27.172 25.212 26.161 24.25C24.902 23.053 24.625 22.105 25.283 21.25C26.556 19.596 27.066 19.664 26.4 21.399ZM33.279 21.714C33.008 22.421 32.432 23 32 23C31.568 23 30.992 22.421 30.721 21.714C30.433 20.965 30.966 20.429 32 20.429C33.034 20.429 33.567 20.965 33.279 21.714ZM39.062 24.883C38.439 26.048 37.463 27 36.893 27C36.323 27 36.564 26.293 37.429 25.429C39.262 23.595 39.364 22.84 38.004 21.196C37.456 20.534 37.724 20.617 38.601 21.38C39.875 22.488 39.967 23.192 39.062 24.883ZM22.345 24.543C22.019 25.392 21.538 25.872 21.276 25.61C21.014 25.348 21.096 24.653 21.459 24.067C22.445 22.471 23.021 22.781 22.345 24.543ZM42.807 25.526C42.499 25.834 41.94 25.279 41.564 24.293C41.022 22.868 41.136 22.753 42.124 23.733C42.808 24.412 43.115 25.219 42.807 25.526ZM21.447 29.085C21.125 29.606 20.436 29.769 19.915 29.447C19.394 29.125 19.231 28.436 19.553 27.915C19.875 27.394 20.564 27.231 21.085 27.553C21.606 27.875 21.769 28.564 21.447 29.085ZM44.595 28.155C45.021 28.844 44.871 29.039 44.224 28.638C43.627 28.269 42.856 28.425 42.51 28.984C42.165 29.543 41.441 30 40.902 30C39.828 30 42.07 27.1 43.191 27.038C43.571 27.017 44.203 27.52 44.595 28.155ZM22 33.607C22 33.823 21.325 34 20.5 34C19.675 34 19 33.564 19 33.031C19 32.499 19.675 32.322 20.5 32.638C21.325 32.955 22 33.391 22 33.607ZM26 33C26 33.55 25.523 34 24.941 34C24.359 34 24.16 33.55 24.5 33C24.84 32.45 25.316 32 25.559 32C25.802 32 26 32.45 26 33ZM45 32.827C45 33.282 43.65 33.455 42 33.213C40 32.92 39 33.2 39 34.053C39 34.757 38.73 35.063 38.4 34.733C38.07 34.403 38.096 33.653 38.459 33.067C39.229 31.82 45 31.608 45 32.827ZM30 37.118C30 37.668 29.55 37.84 29 37.5C28.45 37.16 28 36.432 28 35.882C28 35.332 28.45 35.16 29 35.5C29.55 35.84 30 36.568 30 37.118ZM22.507 37.636C21.184 38.959 20.645 39.027 19.686 37.989C18.782 37.012 18.781 36.864 19.681 37.37C20.33 37.734 21.144 37.575 21.49 37.016C21.835 36.457 22.574 36 23.13 36C23.687 36 23.407 36.736 22.507 37.636ZM44.447 38.085C44.125 38.606 43.436 38.769 42.915 38.447C42.394 38.125 42.231 37.436 42.553 36.915C42.875 36.394 43.564 36.231 44.085 36.553C44.606 36.875 44.769 37.564 44.447 38.085ZM39.062 41.117C39.987 42.844 39.857 43.534 38.355 44.867C37.343 45.765 37.074 45.847 37.757 45.05C39.376 43.161 39.325 42.468 37.429 40.571C36.564 39.707 36.323 39 36.893 39C37.463 39 38.439 39.952 39.062 41.117ZM22.382 41.552C22.723 42.442 22.555 42.843 21.989 42.493C21.445 42.157 21 41.459 21 40.941C21 39.503 21.717 39.82 22.382 41.552ZM27.056 42.432C26.381 43.246 26.178 44.495 26.606 45.206C27.225 46.235 27.051 46.23 25.759 45.183C24.261 43.969 24.266 43.728 25.817 42.1C27.806 40.012 28.836 40.288 27.056 42.432ZM42.124 42.267C41.136 43.247 41.022 43.132 41.564 41.707C41.94 40.721 42.499 40.166 42.807 40.474C43.115 40.781 42.808 41.588 42.124 42.267ZM33.279 44.286C33.567 45.035 33.034 45.571 32 45.571C30.966 45.571 30.433 45.035 30.721 44.286C30.992 43.579 31.568 43 32 43C32.432 43 33.008 43.579 33.279 44.286Z" fill="#BF40FF"/>
<path fill-rule="evenodd" clip-rule="evenodd" d="M22.583 1.75C22.171 2.162 21.533 2.54 21.167 2.589C19.362 2.829 13.845 5.789 13.712 6.588C13.628 7.09 13.017 7.376 12.355 7.223C11.693 7.071 10.822 7.478 10.421 8.128C9.927 8.927 10.146 9.054 11.095 8.522C11.868 8.089 11.038 9.119 9.25 10.811C7.462 12.503 6 14.363 6 14.944C6 15.525 5.451 15.887 4.781 15.75C4.105 15.611 3.102 17.283 2.531 19.5C1.964 21.7 1.093 24.132 0.594998 24.905C-0.0290016 25.875 0.0479984 26.088 0.844998 25.595C1.48 25.203 2 25.359 2 25.941C2 26.523 1.663 27 1.25 27C0.127998 27.001 0.515998 41.118 1.717 44C2.29 45.375 2.932 47.4 3.143 48.5C3.354 49.6 4.084 50.5 4.764 50.5C5.444 50.5 5.997 50.841 5.993 51.258C5.989 51.675 7.248 53.25 8.791 54.758C11.18 57.093 11.218 57.203 9.048 55.504C6.724 53.682 6.751 53.786 9.365 56.678C11.211 58.721 12.811 59.641 13.865 59.265C14.764 58.944 15.169 59.046 14.765 59.492C14.008 60.328 18.149 62.907 21.254 63.533C22.218 63.728 23.525 64.207 24.158 64.598C24.918 65.068 25.034 64.865 24.5 64C23.91 63.046 24.072 62.933 25.095 63.583C27.102 64.857 37.229 64.851 38.942 63.574C40.028 62.765 40.198 62.809 39.633 63.75C38.644 65.396 38.901 65.349 43.764 63C46.041 61.9 48.402 61 49.011 61C49.62 61 49.84 60.55 49.5 60C49.16 59.45 49.584 59 50.441 59C51.298 59 52 58.523 52 57.941C52 57.359 52.52 57.203 53.155 57.595C53.816 58.004 54.04 57.873 53.678 57.288C53.331 56.727 54.014 55.42 55.195 54.384C56.377 53.348 56.972 53.132 56.517 53.905C55.953 54.864 56.065 55.078 56.872 54.579C57.522 54.178 57.929 53.096 57.777 52.175C57.624 51.254 58.063 50.613 58.75 50.75C59.438 50.888 60 50.881 60 50.736C60 50.591 60.862 48.112 61.916 45.228C62.971 42.345 63.351 40.283 62.762 40.647C62.066 41.077 61.989 40.826 62.542 39.931C63.775 37.936 63.779 27.754 62.547 26.058C61.785 25.008 61.817 24.806 62.666 25.315C63.36 25.731 63.056 23.888 61.916 20.772C60.862 17.888 60 15.383 60 15.205C60 15.027 59.55 15.16 59 15.5C58.45 15.84 58 15.416 58 14.559C58 13.702 57.523 13 56.941 13C56.359 13 56.203 12.48 56.595 11.845C57.01 11.175 56.872 10.961 56.268 11.334C54.972 12.135 52.744 9.617 53.759 8.498C54.166 8.048 53.938 8.003 53.25 8.399C52.563 8.794 52 8.641 52 8.059C52 7.477 51.662 7.113 51.25 7.25C50.837 7.388 50.418 7.09 50.318 6.588C50.158 5.786 44.619 2.826 42.833 2.589C42.467 2.54 41.829 2.162 41.417 1.75C40.186 0.519 38.822 0.901 39.633 2.25C40.202 3.197 40.034 3.235 38.942 2.407C37.232 1.11 27.108 1.109 25.095 2.405C24.125 3.029 23.912 2.952 24.405 2.155C25.193 0.879 23.771 0.563 22.583 1.75ZM32.55 20C33.363 20 33.702 20.612 33.37 21.479C32.785 23.002 30.498 23.065 28.183 21.621C26.145 20.349 25.57 21.713 27.381 23.524C29.456 25.598 29.418 25.907 27.11 25.733C26.07 25.655 25.43 25.043 25.687 24.373C25.965 23.65 25.433 23.26 24.382 23.414C23.406 23.558 22.434 24.198 22.221 24.837C22.008 25.477 21.308 25.998 20.667 25.995C19.332 25.99 24.797 20.613 27.027 19.737C27.837 19.419 29.099 19.348 29.832 19.579C30.564 19.811 31.788 20 32.55 20ZM37 21C37.596 20.035 38.643 20.502 41.149 22.85C42.992 24.577 43.986 25.993 43.357 25.995C42.728 25.998 41.925 25.247 41.572 24.327C41.006 22.851 40.752 22.91 39.408 24.827C38.571 26.022 37.137 27 36.221 27C34.905 27 35.022 26.673 36.777 25.443C39.417 23.595 39.7 21.792 37.286 22.206C36.194 22.393 35.49 21.775 35.344 20.5C35.136 18.689 35.166 18.679 35.659 20.395C36.065 21.811 36.404 21.964 37 21ZM21.325 27.658C22.052 28.386 20.211 31 18.971 31C18.54 31 18.423 30.1 18.71 29C19.245 26.955 20.155 26.488 21.325 27.658ZM45.255 28.866C45.821 31.032 45.39 37.943 44.642 38.691C44.362 38.971 43.624 38.886 43.001 38.501C42.203 38.007 42.343 37.278 43.478 36.024C44.956 34.391 44.955 34.197 43.461 33.624C40.736 32.578 39 32.922 39 34.508C39 35.748 38.656 35.802 37.071 34.812C34.922 33.47 32.805 29.529 33.734 28.6C34.951 27.382 35.799 28.054 35.326 29.862C34.752 32.057 37.411 33.429 39.728 32.132C40.584 31.653 42.09 31.472 43.074 31.73C44.496 32.101 44.748 31.752 44.298 30.033C43.897 28.5 43.421 28.179 42.666 28.934C42.08 29.52 40.929 30 40.109 30C38.992 30 39.105 29.632 40.559 28.532C43.198 26.536 44.673 26.641 45.255 28.866ZM21.5 33C21.84 33.55 21.416 34 20.559 34C18.809 34 18.744 34.17 19.624 36.461C20.197 37.955 20.391 37.956 22.024 36.478C23.05 35.55 24.052 35.276 24.395 35.83C24.721 36.358 24.316 37.048 23.494 37.364C21.981 37.945 21.448 41.115 22.66 42.327C23.023 42.69 23.936 42.109 24.688 41.036C26.197 38.88 29.194 39.331 28.33 41.583C28.031 42.362 27.336 43 26.786 43C26.236 43 26.086 42.212 26.452 41.25C26.932 39.989 26.814 39.802 26.026 40.583C24.338 42.257 25.94 45 28.607 45C29.923 45 31 44.553 31 44.006C31 42.894 33.792 43.116 35.837 44.392C36.58 44.855 37.594 44.806 38.12 44.28C39.399 43.001 38.218 40.217 36.165 39.673C34.636 39.268 34.639 39.222 36.193 39.116C37.125 39.052 38.571 39.978 39.408 41.173C40.752 43.09 41.006 43.149 41.572 41.673C41.925 40.753 42.728 40.002 43.357 40.005C44.782 40.01 39.135 45.368 36.75 46.273C35.507 46.745 34.996 46.439 34.985 45.219C34.975 44.154 34.69 43.918 34.235 44.599C33.554 45.616 32.146 45.941 27.817 46.08C25.763 46.146 19.847 41.056 20.587 39.859C20.879 39.387 20.694 39 20.176 39C18.975 39 17.968 35.246 18.675 33.404C19.305 31.764 20.62 31.576 21.5 33ZM26 33C26 33.55 25.523 34 24.941 34C24.359 34 24.16 33.55 24.5 33C24.84 32.45 25.316 32 25.559 32C25.802 32 26 32.45 26 33ZM30 37.118C30 37.668 29.55 37.84 29 37.5C28.45 37.16 28 36.432 28 35.882C28 35.332 28.45 35.16 29 35.5C29.55 35.84 30 36.568 30 37.118Z" fill="#9224DB"/>
<path fill-rule="evenodd" clip-rule="evenodd" d="M22.507 1.989C22.157 2.555 22.558 2.723 23.448 2.382C25.18 1.717 25.497 1 24.059 1C23.541 1 22.843 1.445 22.507 1.989ZM39 1.393C39 1.609 39.698 2.054 40.552 2.382C41.442 2.723 41.843 2.555 41.493 1.989C40.906 1.038 39 0.583 39 1.393ZM24.5 5.34C11.04 9.795 3.593 19.754 3.672 33.194C3.765 49.239 15.747 61 32 61C57.287 61 69.718 32.19 52.604 13.247C46.132 6.083 33.226 2.452 24.5 5.34ZM10.507 7.989C10.157 8.555 10.558 8.723 11.448 8.382C13.18 7.717 13.497 7 12.059 7C11.541 7 10.843 7.445 10.507 7.989ZM3.028 17.426C1.542 21.335 1.836 21.95 3.618 18.662C4.464 17.1 4.909 15.576 4.606 15.273C4.304 14.97 3.593 15.939 3.028 17.426ZM59.071 15.5C59.071 16.05 59.714 17.625 60.5 19C61.286 20.375 61.929 21.05 61.929 20.5C61.929 19.95 61.286 18.375 60.5 17C59.714 15.625 59.071 14.95 59.071 15.5ZM34 20.669C34 22.853 31.726 23.346 30.348 21.462C29.607 20.447 29 20.064 29 20.609C29 21.154 29.54 22.14 30.2 22.8C31.076 23.676 31.089 24 30.25 24C29.617 24 28.641 23.212 28.08 22.25C27.519 21.288 27.047 21.036 27.03 21.691C26.984 23.504 29.064 24.412 33.747 24.626C38.038 24.821 40.306 23.425 38.006 22.004C37.319 21.579 36.924 20.757 37.128 20.177C37.333 19.597 39.072 20.411 40.994 21.985C42.915 23.558 44.116 25.218 43.662 25.671C43.208 26.125 42.298 25.76 41.64 24.86C40.566 23.392 40.324 23.473 39.3 25.645C38.191 27.995 38.266 28.059 41.828 27.784L45.5 27.5V33C45.5 37.754 45.24 38.5 43.583 38.5C42.529 38.5 41.458 37.875 41.204 37.111C40.895 36.185 41.169 35.986 42.025 36.515C42.867 37.036 43.063 36.911 42.595 36.155C42.161 35.452 42.558 35 43.608 35C46.191 35 44.464 33.776 41.407 33.44C39.505 33.232 39.056 33.456 39.827 34.227C40.508 34.908 40.573 35.928 40.005 36.992C39.509 37.918 39.36 39.66 39.674 40.862C40.21 42.911 40.326 42.936 41.541 41.275C42.253 40.3 43.208 39.875 43.662 40.329C44.562 41.228 38.137 46.947 36.537 46.67C34.482 46.315 33.318 42.244 33.247 35.17C33.178 28.362 32.674 25.993 31.536 27.13C31.281 27.385 30.986 30.482 30.88 34.013C30.725 39.177 30.278 40.764 28.594 42.13C26.043 44.198 27.298 45.92 30.086 44.178C32.228 42.841 34 43.363 34 45.332C34 46.077 32.543 46.531 30.232 46.506C25.977 46.461 19.578 42.543 20.373 40.469C20.649 39.752 20.327 38.956 19.658 38.699C18.99 38.443 18.332 36.779 18.197 35.002C17.973 32.061 18.163 31.824 20.314 32.364C22.321 32.868 22.822 32.47 23.635 29.729C24.161 27.953 24.419 25.68 24.209 24.678C23.838 22.916 23.782 22.916 22.495 24.677C21.763 25.678 20.792 26.125 20.338 25.671C19.884 25.218 21.036 23.603 22.897 22.084C25.35 20.082 27.344 19.34 30.141 19.388C32.463 19.429 34 19.939 34 20.669ZM37.399 23.85C36.666 24.815 35.002 22.61 35.015 20.691C35.029 18.59 35.083 18.602 36.347 21C37.072 22.375 37.545 23.658 37.399 23.85ZM25 23.941C25 24.459 25.445 25.157 25.989 25.493C26.555 25.843 26.723 25.442 26.382 24.552C25.717 22.82 25 22.503 25 23.941ZM22.5 29.014C22.5 29.831 21.523 30.639 20.33 30.809C18.29 31.1 18.107 30.627 18.923 27.177C19.18 26.093 22.5 27.798 22.5 29.014ZM27.459 29.067C26.433 30.727 27.354 30.957 28.789 29.399C29.499 28.63 29.638 28 29.098 28C28.559 28 27.821 28.48 27.459 29.067ZM42.565 29.895C42.26 30.388 42.661 31.04 43.455 31.344C44.418 31.714 44.713 31.416 44.342 30.449C43.697 28.769 43.331 28.655 42.565 29.895ZM19.656 35.545C19.96 36.339 20.612 36.74 21.105 36.435C22.345 35.669 22.231 35.303 20.551 34.658C19.584 34.287 19.286 34.582 19.656 35.545ZM34.733 37.124C35.412 37.808 36.219 38.115 36.526 37.807C36.834 37.499 36.279 36.94 35.293 36.564C33.868 36.022 33.753 36.136 34.733 37.124ZM23.143 37.907C22.233 38.472 22.033 39.528 22.535 41.109L23.283 43.467L24.17 41.069C25.289 38.044 24.892 36.821 23.143 37.907ZM0 40.941C0 41.459 0.445 42.157 0.989 42.493C1.555 42.843 1.723 42.442 1.382 41.552C0.717 39.82 0 39.503 0 40.941ZM25.459 41.067C25.096 41.653 25.014 42.348 25.276 42.61C25.538 42.872 26.019 42.392 26.345 41.543C27.021 39.781 26.445 39.471 25.459 41.067ZM36.134 40.896C35.227 41.471 35.063 42.291 35.648 43.336C36.296 44.493 36.921 44.637 38.014 43.879C39.141 43.097 39.196 42.725 38.244 42.338C37.553 42.058 37.242 41.418 37.553 40.915C38.252 39.784 37.897 39.779 36.134 40.896ZM60.162 47.543C58.487 51.22 58.807 52.005 60.618 48.662C61.464 47.1 61.969 45.636 61.741 45.407C61.512 45.179 60.802 46.14 60.162 47.543ZM3.015 48.191C3.007 49.121 3.45 50.16 4 50.5C5.266 51.282 5.266 49.958 4 48C3.165 46.707 3.029 46.734 3.015 48.191ZM56.564 53.707C56.022 55.132 56.136 55.247 57.124 54.267C57.808 53.588 58.115 52.781 57.807 52.474C57.499 52.166 56.94 52.721 56.564 53.707ZM9.427 56.743C11.037 58.523 12.575 59.759 12.844 59.49C13.113 59.22 13.146 58.888 12.917 58.75C12.688 58.612 11.15 57.377 9.5 56.004L6.5 53.507L9.427 56.743ZM17 61.43C17 61.705 17.9 62.411 19 63C20.1 63.589 21 63.845 21 63.57C21 63.295 20.1 62.589 19 62C17.9 61.411 17 61.155 17 61.43ZM40 64C39.099 64.582 38.975 64.975 39.691 64.985C40.346 64.993 41.16 64.55 41.5 64C42.267 62.758 41.921 62.758 40 64Z" fill="#8000FF"/>
<path fill-rule="evenodd" clip-rule="evenodd" d="M22.507 1.989C22.157 2.555 22.558 2.723 23.448 2.382C25.18 1.717 25.497 1 24.059 1C23.541 1 22.843 1.445 22.507 1.989ZM39 1.393C39 1.609 39.698 2.054 40.552 2.382C41.442 2.723 41.843 2.555 41.493 1.989C40.906 1.038 39 0.583 39 1.393ZM24.5 5.34C11.04 9.795 3.593 19.754 3.672 33.194C3.765 49.239 15.747 61 32 61C57.287 61 69.718 32.19 52.604 13.247C46.132 6.083 33.226 2.452 24.5 5.34ZM10.507 7.989C10.157 8.555 10.558 8.723 11.448 8.382C13.18 7.717 13.497 7 12.059 7C11.541 7 10.843 7.445 10.507 7.989ZM3.028 17.426C1.542 21.335 1.836 21.95 3.618 18.662C4.464 17.1 4.909 15.576 4.606 15.273C4.304 14.97 3.593 15.939 3.028 17.426ZM42.096 18.445C53.312 25.868 51.854 43.019 39.498 49.001C28.019 54.558 14.104 45.854 14.022 33.066C13.976 25.897 19.71 18.206 26.791 15.937C30.961 14.601 38.041 15.761 42.096 18.445ZM59.071 15.5C59.071 16.05 59.714 17.625 60.5 19C61.286 20.375 61.929 21.05 61.929 20.5C61.929 19.95 61.286 18.375 60.5 17C59.714 15.625 59.071 14.95 59.071 15.5ZM36.116 20.128C36.052 21.023 36.675 22.315 37.5 23C38.536 23.86 39 23.898 39 23.122C39 22.505 38.583 22 38.073 22C37.564 22 36.941 21.212 36.689 20.25C36.303 18.774 36.214 18.754 36.116 20.128ZM29 20.878C29 21.886 31.892 24.483 32.357 23.893C32.528 23.677 31.842 22.712 30.833 21.75C29.825 20.788 29 20.395 29 20.878ZM25 23.941C25 24.459 25.445 25.157 25.989 25.493C26.555 25.843 26.723 25.442 26.382 24.552C25.717 22.82 25 22.503 25 23.941ZM30.889 32.25C30.721 40.212 31.064 42.425 32.598 43.3C33.369 43.74 34.036 44.865 34.079 45.8C34.13 46.895 34.341 47.043 34.673 46.216C34.957 45.51 34.664 44.3 34.021 43.526C33.379 42.752 32.923 39.505 33.009 36.309C33.23 28.013 33.12 27 32 27C31.45 27 30.95 29.362 30.889 32.25ZM27.459 29.067C26.433 30.727 27.354 30.957 28.789 29.399C29.499 28.63 29.638 28 29.098 28C28.559 28 27.821 28.48 27.459 29.067ZM34.733 37.124C35.412 37.808 36.219 38.115 36.526 37.807C36.834 37.499 36.279 36.94 35.293 36.564C33.868 36.022 33.753 36.136 34.733 37.124ZM25.459 41.067C25.096 41.653 25.014 42.348 25.276 42.61C25.538 42.872 26.019 42.392 26.345 41.543C27.021 39.781 26.445 39.471 25.459 41.067ZM60.162 47.543C58.487 51.22 58.807 52.005 60.618 48.662C61.464 47.1 61.969 45.636 61.741 45.407C61.512 45.179 60.802 46.14 60.162 47.543ZM3.015 48.191C3.007 49.121 3.45 50.16 4 50.5C5.266 51.282 5.266 49.958 4 48C3.165 46.707 3.029 46.734 3.015 48.191ZM56.564 53.707C56.022 55.132 56.136 55.247 57.124 54.267C57.808 53.588 58.115 52.781 57.807 52.474C57.499 52.166 56.94 52.721 56.564 53.707ZM9.427 56.743C11.037 58.523 12.575 59.759 12.844 59.49C13.113 59.22 13.146 58.888 12.917 58.75C12.688 58.612 11.15 57.377 9.5 56.004L6.5 53.507L9.427 56.743Z" fill="#210136"/>
<path fill-rule="evenodd" clip-rule="evenodd" d="M22.507 1.989C22.157 2.555 22.558 2.723 23.448 2.382C25.18 1.717 25.497 1 24.059 1C23.541 1 22.843 1.445 22.507 1.989ZM39 1.393C39 1.609 39.698 2.054 40.552 2.382C41.442 2.723 41.843 2.555 41.493 1.989C40.906 1.038 39 0.583 39 1.393ZM10.507 7.989C10.157 8.555 10.558 8.723 11.448 8.382C13.18 7.717 13.497 7 12.059 7C11.541 7 10.843 7.445 10.507 7.989ZM3.028 17.426C1.542 21.335 1.836 21.95 3.618 18.662C4.464 17.1 4.909 15.576 4.606 15.273C4.304 14.97 3.593 15.939 3.028 17.426ZM59.071 15.5C59.071 16.05 59.714 17.625 60.5 19C61.286 20.375 61.929 21.05 61.929 20.5C61.929 19.95 61.286 18.375 60.5 17C59.714 15.625 59.071 14.95 59.071 15.5ZM36.116 20.128C36.052 21.023 36.675 22.315 37.5 23C38.536 23.86 39 23.898 39 23.122C39 22.505 38.583 22 38.073 22C37.564 22 36.941 21.212 36.689 20.25C36.303 18.774 36.214 18.754 36.116 20.128ZM29 20.878C29 21.886 31.892 24.483 32.357 23.893C32.528 23.677 31.842 22.712 30.833 21.75C29.825 20.788 29 20.395 29 20.878ZM25 23.941C25 24.459 25.445 25.157 25.989 25.493C26.555 25.843 26.723 25.442 26.382 24.552C25.717 22.82 25 22.503 25 23.941ZM30.889 32.25C30.721 40.212 31.064 42.425 32.598 43.3C33.369 43.74 34.036 44.865 34.079 45.8C34.13 46.895 34.341 47.043 34.673 46.216C34.957 45.51 34.664 44.3 34.021 43.526C33.379 42.752 32.923 39.505 33.009 36.309C33.23 28.013 33.12 27 32 27C31.45 27 30.95 29.362 30.889 32.25ZM27.459 29.067C26.433 30.727 27.354 30.957 28.789 29.399C29.499 28.63 29.638 28 29.098 28C28.559 28 27.821 28.48 27.459 29.067ZM34.733 37.124C35.412 37.808 36.219 38.115 36.526 37.807C36.834 37.499 36.279 36.94 35.293 36.564C33.868 36.022 33.753 36.136 34.733 37.124ZM25.459 41.067C25.096 41.653 25.014 42.348 25.276 42.61C25.538 42.872 26.019 42.392 26.345 41.543C27.021 39.781 26.445 39.471 25.459 41.067ZM60.162 47.543C58.487 51.22 58.807 52.005 60.618 48.662C61.464 47.1 61.969 45.636 61.741 45.407C61.512 45.179 60.802 46.14 60.162 47.543ZM3.015 48.191C3.007 49.121 3.45 50.16 4 50.5C5.266 51.282 5.266 49.958 4 48C3.165 46.707 3.029 46.734 3.015 48.191ZM56.564 53.707C56.022 55.132 56.136 55.247 57.124 54.267C57.808 53.588 58.115 52.781 57.807 52.474C57.499 52.166 56.94 52.721 56.564 53.707ZM9.427 56.743C11.037 58.523 12.575 59.759 12.844 59.49C13.113 59.22 13.146 58.888 12.917 58.75C12.688 58.612 11.15 57.377 9.5 56.004L6.5 53.507L9.427 56.743Z" fill="#8080FF"/>
<path fill-rule="evenodd" clip-rule="evenodd" d="M3.459 16.067C3.096 16.653 3.014 17.348 3.276 17.61C3.538 17.872 4.019 17.392 4.345 16.543C5.021 14.781 4.445 14.471 3.459 16.067ZM3 48.941C3 49.459 3.445 50.157 3.989 50.493C4.555 50.843 4.723 50.442 4.382 49.552C3.717 47.82 3 47.503 3 48.941ZM7 54.313C7 54.485 8.462 55.948 10.25 57.563L13.5 60.5L10.563 57.25C7.825 54.221 7 53.54 7 54.313Z" fill="white"/>
</svg>
