<svg width="64" height="64" viewBox="0 0 64 64" fill="none" xmlns="http://www.w3.org/2000/svg">
<g clip-path="url(#clip0_1_32)">
<path fill-rule="evenodd" clip-rule="evenodd" d="M0 31.5077V63.0154H32H64V31.5077V0H32H0V31.5077Z" fill="#8DB4FF"/>
<path fill-rule="evenodd" clip-rule="evenodd" d="M0 31.5077V63.0154H5.5H11V59.651C11 57.7211 12.444 53.6074 14.384 50.0047C17.47 44.2791 17.649 43.4983 16.416 41.1806C14.017 36.673 13.736 31.3364 15.703 27.6391C18.145 23.0508 21.504 20.8414 28.46 19.2492C33.356 18.1287 34.55 18.1248 35.664 19.2217C36.399 19.9444 37 21.0107 37 21.5916C37 22.1716 37.45 22.6462 38 22.6462C38.55 22.6462 39 21.9815 39 21.1692C39 19.2305 41.339 19.2985 45.3 21.3514L48.5 23.0095L45.256 23.6869C43.472 24.0591 41.412 24.8546 40.678 25.4543C39.679 26.2705 38.367 26.0549 35.46 24.5957C27.764 20.7321 21.122 23.3177 19.602 30.7692C18.903 34.1967 20.195 37.5621 24.679 43.9916C28.591 49.601 28.763 52.3717 25.635 59.3231L23.973 63.0154H43.987H64V31.5077V0H32H0V31.5077ZM52.266 49.411C54.985 53.5414 56.782 59.6204 55.62 60.7636C55.279 61.0993 55 60.4091 55 59.2305C55 56.3072 51.186 48.5268 49.427 47.8622C48.642 47.5658 48 46.8667 48 46.3074C48 44.226 49.634 45.4154 52.266 49.411ZM21.748 56.8783C21.263 62.3951 21.458 63.8769 22.531 62.8204C23.62 61.7482 24.226 52.4386 23.246 51.842C22.641 51.4737 22.048 53.4676 21.748 56.8783Z" fill="#464D53"/>
<path fill-rule="evenodd" clip-rule="evenodd" d="M0 31.5077V63.0154H5.405H10.81L10.253 58.9263C9.812 55.6938 9.973 55.0055 11.018 55.6416C11.987 56.2314 12.163 55.9911 11.677 54.7456C11.066 53.1771 13.364 47.2615 14.585 47.2615C14.878 47.2615 14.797 47.7735 14.405 48.3988C13.972 49.087 14.129 49.2682 14.802 48.8586C15.413 48.4874 15.631 47.4604 15.286 46.5762C14.942 45.6921 15.074 45.2214 15.58 45.5286C16.086 45.8368 16.5 45.0235 16.5 43.7218C16.5 42.4192 16.136 41.3538 15.691 41.3538C15.246 41.3538 15.16 40.9108 15.5 40.3692C15.84 39.8277 15.611 39.3846 14.992 39.3846C14.298 39.3846 14.124 38.5802 14.54 37.2923C14.959 35.9906 14.834 35.4314 14.207 35.8124C13.604 36.1797 13.2 35.0434 13.2 32.9846C13.2 31.0922 13.563 29.7649 14.007 30.0347C14.45 30.3045 14.595 29.7039 14.328 28.6996C14.043 27.6234 14.8 25.8846 16.172 24.4657C17.452 23.1414 18.05 22.7682 17.5 23.6367C16.95 24.5051 17.7 23.9242 19.166 22.3449C20.632 20.7655 22.319 19.7701 22.916 20.1334C23.512 20.4958 24 20.3156 24 19.7317C24 19.075 25.011 18.9204 26.649 19.325C28.366 19.7494 29.073 19.6214 28.659 18.9617C27.859 17.6876 33.059 16.8517 35.622 17.8432C36.978 18.368 37.083 18.6073 36 18.7077C34.97 18.8032 35.127 19.0956 36.5 19.6411C37.6 20.0783 39.132 20.1029 39.904 19.6943C40.726 19.2601 42.777 19.8065 44.857 21.0146L48.406 23.0764L45.209 23.7204C43.451 24.0748 41.412 24.8546 40.678 25.4543C39.679 26.2705 38.367 26.0549 35.46 24.5957C27.764 20.7321 21.122 23.3177 19.602 30.7692C18.903 34.1967 20.195 37.5621 24.679 43.9916C28.591 49.601 28.763 52.3717 25.635 59.3231L23.973 63.0154H38.987C53.493 63.0154 54 62.9465 54 60.9812C54 59.8626 54.524 57.9801 55.164 56.7966C56.252 54.785 56.208 54.7417 54.476 56.1231C52.799 57.4612 52.687 57.4385 53.281 55.8769C53.652 54.9031 53.469 54.1538 52.862 54.1538C52.27 54.1538 52.036 53.5138 52.341 52.7311C52.646 51.9473 51.803 50.2873 50.465 49.0388C47.641 46.402 47.373 45.2923 49.559 45.2923C50.416 45.2923 50.821 45.7649 50.458 46.3429C50.096 46.9209 50.713 47.6298 51.83 47.9173C53.174 48.2629 53.658 48.962 53.261 49.982C52.865 50.9982 53.058 51.2807 53.83 50.8111C54.474 50.4192 55.056 50.5689 55.125 51.1419C55.354 53.053 55.526 53.6546 56.128 54.6462C56.834 55.809 56.555 58.8741 55.522 61.2923C54.883 62.7889 55.392 63.0154 59.393 63.0154H64V31.5077V0H32H0V31.5077ZM47.362 32.9846C47.678 33.7969 47.501 34.4615 46.969 34.4615C46.436 34.4615 46 33.7969 46 32.9846C46 32.1723 46.177 31.5077 46.393 31.5077C46.609 31.5077 47.045 32.1723 47.362 32.9846ZM51.969 34.9538C51.969 35.4954 51.533 35.2738 51 34.4615C50.467 33.6492 50.031 32.5415 50.031 32C50.031 31.4585 50.467 31.68 51 32.4923C51.533 33.3046 51.969 34.4123 51.969 34.9538ZM32.729 33.087C32.397 33.4139 31.534 33.4494 30.813 33.1648C30.015 32.8507 30.252 32.6174 31.417 32.5701C32.471 32.5278 33.061 32.7601 32.729 33.087ZM52.683 38.5851C52.364 39.3698 52.127 39.1365 52.079 37.9894C52.036 36.9516 52.272 36.3707 52.604 36.6976C52.936 37.0245 52.972 37.8742 52.683 38.5851ZM22 54.4236C22 56.3781 22.377 58.2055 22.838 58.4862C23.851 59.1025 23.739 52.5844 22.719 51.5801C22.324 51.1902 22 52.4702 22 54.4236ZM21 61.5385C21 62.3508 21.436 63.0154 21.969 63.0154C22.501 63.0154 22.678 62.3508 22.362 61.5385C22.045 60.7262 21.609 60.0615 21.393 60.0615C21.177 60.0615 21 60.7262 21 61.5385Z" fill="#E9F7FA"/>
<path fill-rule="evenodd" clip-rule="evenodd" d="M32.5 16.2708L29.5 17.603L33.5 17.4169C35.7 17.3145 37.421 16.7985 37.325 16.2708C37.058 14.8086 35.793 14.8076 32.5 16.2708ZM25.5 18.7077C25.84 19.2492 26.793 19.6923 27.618 19.6923C28.443 19.6923 28.84 19.2492 28.5 18.7077C28.16 18.1662 27.207 17.7231 26.382 17.7231C25.557 17.7231 25.16 18.1662 25.5 18.7077ZM36.165 18.5866C35.141 19.2256 35.29 19.5367 36.805 19.9276C37.89 20.2073 39.343 20.0921 40.033 19.6726C41.295 18.9046 47.468 21.952 47.535 23.3758C47.555 23.7873 48.136 25.1244 48.827 26.3493C49.517 27.5742 50.176 29.8565 50.291 31.423C50.406 32.9886 50.837 34.0647 51.25 33.8156C52.584 33.0063 52.049 29.2746 50.001 25.1087C47.27 19.5545 40.06 16.1556 36.165 18.5866ZM22.5 19.6923C22.84 20.2338 23.316 20.6769 23.559 20.6769C23.802 20.6769 24 20.2338 24 19.6923C24 19.1508 23.523 18.7077 22.941 18.7077C22.359 18.7077 22.16 19.1508 22.5 19.6923ZM17.625 21.7403C16.171 22.8667 15.282 24.2688 15.651 24.8556C16.07 25.5232 17.158 24.9649 18.558 23.363C19.788 21.955 21.138 21.1062 21.557 21.4784C21.977 21.8496 21.997 21.6005 21.601 20.9231C20.678 19.3428 20.737 19.331 17.625 21.7403ZM19 22.0337C19 22.2375 18.212 23.0134 17.25 23.7568C15.664 24.9807 15.629 24.9462 16.872 23.3846C18.179 21.7442 19 21.2234 19 22.0337ZM13 28.4958C13 29.0058 13.445 29.693 13.989 30.0239C14.555 30.3685 14.723 29.9737 14.382 29.0974C13.717 27.392 13 27.0799 13 28.4958ZM28.534 29.4843C28.175 30.0554 28.246 30.53 28.691 30.5378C29.136 30.5467 28.825 30.9829 28 31.5077C26.91 32.2009 26.858 32.4667 27.809 32.4775C28.529 32.4854 28.838 32.9383 28.496 33.4838C27.59 34.9273 30.93 35.9089 32.267 34.5925C33.111 33.7615 32.974 33.4769 31.731 33.4769C30.62 33.4769 30.266 32.9561 30.671 31.9173C31.163 30.654 31.452 30.6068 32.193 31.6711C32.866 32.637 33.024 32.4667 32.792 31.0262C32.446 28.8758 29.57 27.8341 28.534 29.4843ZM45.043 29.9796C44.181 31.0016 44.138 31.9065 44.891 33.1796C45.876 34.8475 45.948 34.8357 46.088 32.9846C46.17 31.9015 46.172 30.6501 46.094 30.2041C46.015 29.757 46.392 29.6606 46.932 29.9894C47.471 30.3173 47.677 31.1916 47.388 31.9321C47.1 32.6725 47.344 33.5705 47.932 33.9279C49.102 34.6398 49.352 32.5711 48.393 30.1115C47.638 28.1748 46.599 28.1334 45.043 29.9796ZM12.015 33.2308C12.026 35.201 12.273 35.5604 12.923 34.5511C13.413 33.7881 13.583 32.5691 13.3 31.8434C12.489 29.761 11.999 30.2907 12.015 33.2308ZM19.079 33.0663C19.127 34.2134 19.364 34.4468 19.683 33.662C19.972 32.9511 19.936 32.1014 19.604 31.7745C19.272 31.4476 19.036 32.0286 19.079 33.0663ZM37.05 34.8948C36.001 36.1393 36.05 36.5115 37.329 36.995C39.723 37.8988 42.5 37.0599 42.5 35.4324C42.5 33.4228 38.614 33.0388 37.05 34.8948ZM51.667 35.1183C51.3 35.4786 51 37.1623 51 38.8598C51 40.5563 50.441 42.495 49.758 43.1675C48.77 44.1403 48.787 44.5538 49.844 45.1968C50.574 45.6418 51.109 46.398 51.033 46.8795C50.957 47.36 51.706 47.9163 52.697 48.1142C54.413 48.4578 54.411 48.3771 52.652 46.4532C51.479 45.1702 51.114 43.9591 51.652 43.139C52.325 42.112 53.055 34.4615 52.479 34.4615C52.399 34.4615 52.033 34.7569 51.667 35.1183ZM13.667 36.1029C13.3 36.4633 13 37.2165 13 37.7767C13 38.3931 13.466 38.335 14.183 37.629C14.834 36.9881 15.134 36.2348 14.85 35.9552C14.566 35.6756 14.033 35.7415 13.667 36.1029ZM14.015 40.1231C14.052 41.8737 15.762 43.5141 16.434 42.4438C16.81 41.8442 16.615 41.3538 16 41.3538C15.385 41.3538 15.16 40.9108 15.5 40.3692C15.84 39.8277 15.641 39.3846 15.059 39.3846C14.477 39.3846 14.007 39.7164 14.015 40.1231ZM13.553 47.1778C13.231 47.6908 13.394 48.3692 13.915 48.6863C14.436 49.0033 15.125 48.8428 15.447 48.3298C15.769 47.8169 15.606 47.1385 15.085 46.8214C14.564 46.5044 13.875 46.6649 13.553 47.1778ZM49.651 50.2016C51.29 52.9329 51.515 53.0156 53.206 51.5082C54.2 50.623 54.76 49.6512 54.452 49.347C54.143 49.0437 53.49 49.4346 52.999 50.2164C52.242 51.4235 52.013 51.394 51.476 50.0175C51.129 49.1274 50.183 48.1477 49.374 47.8425C48.19 47.3954 48.244 47.8562 49.651 50.2016ZM11.446 50.301C11.077 50.8898 11.302 51.8873 11.946 52.5164C12.841 53.3898 12.946 53.2145 12.389 51.777C11.841 50.3601 11.989 50.0923 12.985 50.6978C13.866 51.2345 14.07 51.1242 13.595 50.368C12.709 48.9541 12.299 48.9423 11.446 50.301ZM22 54.4236C22 56.3781 22.377 58.2055 22.838 58.4862C23.851 59.1025 23.739 52.5844 22.719 51.5801C22.324 51.1902 22 52.4702 22 54.4236ZM28.079 52.7586C28.127 53.9057 28.364 54.1391 28.683 53.3543C28.972 52.6434 28.936 51.7937 28.604 51.4668C28.272 51.1399 28.036 51.7209 28.079 52.7586ZM54.675 51.8479C54.313 52.2043 54.469 53.0314 55.021 53.6862C55.715 54.5103 55.558 55.2586 54.512 56.1132C53.681 56.7926 53.016 58.0697 53.035 58.9509C53.06 60.0773 53.464 59.8558 54.393 58.2055C55.228 56.7227 55.969 56.2619 56.404 56.9541C56.783 57.5577 56.622 58.9174 56.046 59.9769C54.652 62.5408 54.723 63.0154 56.5 63.0154C57.548 63.0154 58 61.9756 58 59.5692C58 57.6738 57.564 56.1231 57.031 56.1231C56.499 56.1231 56.322 55.4585 56.638 54.6462C56.955 53.8338 56.689 53.1692 56.048 53.1692C55.407 53.1692 55.16 52.7262 55.5 52.1846C56.197 51.075 55.676 50.8623 54.675 51.8479ZM10 54.0377C10 54.5792 10.45 55.296 11 55.6308C11.55 55.9655 12 55.7962 12 55.2546C12 54.7131 11.55 53.9963 11 53.6615C10.45 53.3268 10 53.4961 10 54.0377ZM52 55.1966C52 55.7696 52.45 55.9655 53 55.6308C53.55 55.296 54 54.8273 54 54.5881C54 54.3488 53.55 54.1538 53 54.1538C52.45 54.1538 52 54.6235 52 55.1966ZM9 59.4048C9 61.3908 9.439 63.0154 9.975 63.0154C10.535 63.0154 10.687 61.6537 10.331 59.8154C9.464 55.3285 9 55.1857 9 59.4048ZM21 61.5385C21 62.3508 21.436 63.0154 21.969 63.0154C22.501 63.0154 22.678 62.3508 22.362 61.5385C22.045 60.7262 21.609 60.0615 21.393 60.0615C21.177 60.0615 21 60.7262 21 61.5385Z" fill="#6C7376"/>
<path fill-rule="evenodd" clip-rule="evenodd" d="M35 15.1562C35 15.3689 35.698 15.807 36.552 16.13C37.442 16.4657 37.843 16.3003 37.493 15.743C36.906 14.8066 35 14.3586 35 15.1562ZM38 18.7077C36.172 19.8705 37.751 19.8705 40.5 18.7077C41.819 18.1494 41.989 17.8432 41 17.8078C40.175 17.7772 38.825 18.1829 38 18.7077ZM16.651 22.4817C15.236 24.0217 15.213 24.2875 16.496 24.2875C17.323 24.2875 17.779 24.0699 17.509 23.8031C17.238 23.5372 17.519 22.7249 18.131 21.9983C19.814 20.0015 18.551 20.414 16.651 22.4817ZM47.781 23.1897C47.031 23.9291 49.075 27.5692 50.241 27.5692C51.375 27.5692 51.16 26.1918 49.723 24.256C49.02 23.3098 48.146 22.8303 47.781 23.1897ZM28.534 29.4843C28.175 30.0554 28.246 30.53 28.691 30.5378C29.136 30.5467 28.825 30.9829 28 31.5077C26.798 32.2727 26.968 32.4647 28.857 32.4775C30.634 32.4884 31.059 32.0945 30.584 30.8766C30.034 29.4656 30.169 29.4341 31.64 30.6304C33.094 31.8119 33.257 31.7972 32.83 30.5231C32.227 28.7262 29.434 28.0507 28.534 29.4843ZM46.722 29.6586C47.339 30.2661 47.623 31.3285 47.354 32.0207C47.084 32.7119 47.268 33.5232 47.761 33.8235C48.255 34.1248 48.548 33.3942 48.413 32.2009C48.277 31.0075 48.129 29.699 48.083 29.2923C48.038 28.8857 47.46 28.5538 46.8 28.5538C45.913 28.5538 45.893 28.8423 46.722 29.6586ZM50.881 31.2921C50.552 33.2495 50.698 34.1681 51.253 33.6217C51.757 33.1254 52.002 31.6711 51.797 30.3902C51.482 28.4199 51.342 28.5578 50.881 31.2921ZM12.015 33.2308C12.026 35.201 12.273 35.5604 12.923 34.5511C13.413 33.7881 13.583 32.5691 13.3 31.8434C12.489 29.761 11.999 30.2907 12.015 33.2308ZM44 31.5077C44 32.0492 44.45 32.4923 45 32.4923C45.55 32.4923 46 32.0492 46 31.5077C46 30.9662 45.55 30.5231 45 30.5231C44.45 30.5231 44 30.9662 44 31.5077ZM19.079 33.0663C19.127 34.2134 19.364 34.4468 19.683 33.662C19.972 32.9511 19.936 32.1014 19.604 31.7745C19.272 31.4476 19.036 32.0286 19.079 33.0663ZM28.631 34.6703C29.317 35.7632 31.763 35.6352 32.496 34.4684C32.85 33.9042 32.058 33.5754 30.627 33.6926C29.261 33.8038 28.363 34.2439 28.631 34.6703ZM37.05 34.8948C36.001 36.1393 36.05 36.5115 37.329 36.995C39.723 37.8988 42.5 37.0599 42.5 35.4324C42.5 33.4228 38.614 33.0388 37.05 34.8948ZM51.356 35.9532C51.036 36.7734 51.029 38.402 51.339 39.5717C51.7 40.9305 51.29 42.1583 50.202 42.9716C49.239 43.6923 49.017 44.2585 49.691 44.2762C51.493 44.3234 52.434 42.2498 52.469 38.1548C52.503 34.1445 52.253 33.6512 51.356 35.9532ZM51.733 47.3836C52.412 48.0571 53.219 48.3594 53.526 48.0561C53.834 47.7529 53.279 47.2025 52.293 46.8322C50.868 46.2986 50.753 46.4108 51.733 47.3836ZM49 49.2308C49.589 50.3138 50.295 51.2 50.57 51.2C50.845 51.2 50.589 50.3138 50 49.2308C49.411 48.1477 48.705 47.2615 48.43 47.2615C48.155 47.2615 48.411 48.1477 49 49.2308ZM28.079 52.7586C28.127 53.9057 28.364 54.1391 28.683 53.3543C28.972 52.6434 28.936 51.7937 28.604 51.4668C28.272 51.1399 28.036 51.7209 28.079 52.7586ZM9.079 57.6817C9.127 58.8288 9.364 59.0622 9.683 58.2774C9.972 57.5665 9.936 56.7168 9.604 56.3899C9.272 56.063 9.036 56.6439 9.079 57.6817ZM56.5 57.1077C56.84 57.6492 57.316 58.0923 57.559 58.0923C57.802 58.0923 58 57.6492 58 57.1077C58 56.5662 57.523 56.1231 56.941 56.1231C56.359 56.1231 56.16 56.5662 56.5 57.1077Z" fill="#D39334"/>
<path fill-rule="evenodd" clip-rule="evenodd" d="M35 15.1562C35 15.3689 35.698 15.807 36.552 16.13C37.442 16.4657 37.843 16.3003 37.493 15.743C36.906 14.8066 35 14.3586 35 15.1562ZM38 18.7077C36.172 19.8705 37.751 19.8705 40.5 18.7077C41.819 18.1494 41.989 17.8432 41 17.8078C40.175 17.7772 38.825 18.1829 38 18.7077ZM16.651 22.4817C15.236 24.0217 15.213 24.2875 16.496 24.2875C17.323 24.2875 17.779 24.0699 17.509 23.8031C17.238 23.5372 17.519 22.7249 18.131 21.9983C19.814 20.0015 18.551 20.414 16.651 22.4817ZM47.781 23.1897C47.031 23.9291 49.075 27.5692 50.241 27.5692C51.375 27.5692 51.16 26.1918 49.723 24.256C49.02 23.3098 48.146 22.8303 47.781 23.1897ZM28.534 29.4843C28.175 30.0554 28.246 30.53 28.691 30.5378C29.136 30.5467 28.825 30.9829 28 31.5077C26.798 32.2727 26.968 32.4647 28.857 32.4775C30.634 32.4884 31.059 32.0945 30.584 30.8766C30.034 29.4656 30.169 29.4341 31.64 30.6304C33.094 31.8119 33.257 31.7972 32.83 30.5231C32.227 28.7262 29.434 28.0507 28.534 29.4843ZM46.722 29.6586C47.339 30.2661 47.623 31.3285 47.354 32.0207C47.084 32.7119 47.268 33.5232 47.761 33.8235C48.255 34.1248 48.548 33.3942 48.413 32.2009C48.277 31.0075 48.129 29.699 48.083 29.2923C48.038 28.8857 47.46 28.5538 46.8 28.5538C45.913 28.5538 45.893 28.8423 46.722 29.6586ZM50.881 31.2921C50.552 33.2495 50.698 34.1681 51.253 33.6217C51.757 33.1254 52.002 31.6711 51.797 30.3902C51.482 28.4199 51.342 28.5578 50.881 31.2921ZM12.015 33.2308C12.026 35.201 12.273 35.5604 12.923 34.5511C13.413 33.7881 13.583 32.5691 13.3 31.8434C12.489 29.761 11.999 30.2907 12.015 33.2308ZM44 31.5077C44 32.0492 44.45 32.4923 45 32.4923C45.55 32.4923 46 32.0492 46 31.5077C46 30.9662 45.55 30.5231 45 30.5231C44.45 30.5231 44 30.9662 44 31.5077ZM19.079 33.0663C19.127 34.2134 19.364 34.4468 19.683 33.662C19.972 32.9511 19.936 32.1014 19.604 31.7745C19.272 31.4476 19.036 32.0286 19.079 33.0663ZM28.631 34.6703C29.317 35.7632 31.763 35.6352 32.496 34.4684C32.85 33.9042 32.058 33.5754 30.627 33.6926C29.261 33.8038 28.363 34.2439 28.631 34.6703ZM37.074 34.8662C36.22 35.8794 36.205 36.4386 37.018 36.9339C37.631 37.3071 38.403 37.3465 38.733 37.0215C39.063 36.6966 38.782 36.4308 38.108 36.4308C37.434 36.4308 37.16 35.9877 37.5 35.4462C37.84 34.9046 39.04 34.4615 40.166 34.4615C41.704 34.4615 42.048 34.8908 41.548 36.1846C41.04 37.4981 41.16 37.6359 42.054 36.7626C42.698 36.1334 42.923 35.136 42.554 34.5472C41.605 33.0358 38.463 33.218 37.074 34.8662ZM51.356 35.9532C51.036 36.7734 51.029 38.402 51.339 39.5717C51.7 40.9305 51.29 42.1583 50.202 42.9716C49.239 43.6923 49.017 44.2585 49.691 44.2762C51.493 44.3234 52.434 42.2498 52.469 38.1548C52.503 34.1445 52.253 33.6512 51.356 35.9532ZM51.733 47.3836C52.412 48.0571 53.219 48.3594 53.526 48.0561C53.834 47.7529 53.279 47.2025 52.293 46.8322C50.868 46.2986 50.753 46.4108 51.733 47.3836ZM49 49.2308C49.589 50.3138 50.295 51.2 50.57 51.2C50.845 51.2 50.589 50.3138 50 49.2308C49.411 48.1477 48.705 47.2615 48.43 47.2615C48.155 47.2615 48.411 48.1477 49 49.2308ZM28.079 52.7586C28.127 53.9057 28.364 54.1391 28.683 53.3543C28.972 52.6434 28.936 51.7937 28.604 51.4668C28.272 51.1399 28.036 51.7209 28.079 52.7586ZM9.079 57.6817C9.127 58.8288 9.364 59.0622 9.683 58.2774C9.972 57.5665 9.936 56.7168 9.604 56.3899C9.272 56.063 9.036 56.6439 9.079 57.6817ZM56.5 57.1077C56.84 57.6492 57.316 58.0923 57.559 58.0923C57.802 58.0923 58 57.6492 58 57.1077C58 56.5662 57.523 56.1231 56.941 56.1231C56.359 56.1231 56.16 56.5662 56.5 57.1077Z" fill="#CCCCCC"/>
<path fill-rule="evenodd" clip-rule="evenodd" d="M38 18.7077C37.099 19.2807 36.975 19.6677 37.691 19.6775C38.346 19.6854 39.16 19.2492 39.5 18.7077C40.267 17.4848 39.921 17.4848 38 18.7077ZM16.543 22.5782C16.226 23.0823 16.35 23.7273 16.817 24.0118C17.284 24.2964 17.667 23.8838 17.667 23.0951C17.667 21.4351 17.351 21.2903 16.543 22.5782ZM49 25.5419C49 26.0519 49.445 26.7392 49.989 27.07C50.555 27.4146 50.723 27.0198 50.382 26.1435C49.717 24.4382 49 24.126 49 25.5419ZM29.5 29.3071C28.122 30.3035 27.779 32.4923 29 32.4923C29.55 32.4923 30 31.7735 30 30.8953C30 29.5148 30.238 29.4814 31.75 30.6491C33.336 31.873 33.371 31.8385 32.128 30.2769C30.547 28.2929 30.783 28.3796 29.5 29.3071ZM47.27 31.5756C47.097 33.8373 47.568 34.0362 48.349 32.0315C48.659 31.2369 48.576 30.3813 48.164 30.1302C47.752 29.8801 47.35 30.53 47.27 31.5756ZM30 34.431C30 34.9548 30.675 35.1291 31.5 34.818C32.325 34.5058 33 34.0766 33 33.8639C33 33.6512 32.325 33.4769 31.5 33.4769C30.675 33.4769 30 33.9062 30 34.431ZM50 43.3812C50 43.9542 50.45 44.1502 51 43.8154C51.55 43.4806 52 43.0119 52 42.7727C52 42.5334 51.55 42.3385 51 42.3385C50.45 42.3385 50 42.8081 50 43.3812ZM51.733 47.3836C52.412 48.0571 53.219 48.3594 53.526 48.0561C53.834 47.7529 53.279 47.2025 52.293 46.8322C50.868 46.2986 50.753 46.4108 51.733 47.3836Z" fill="#A8A8A8"/>
<path fill-rule="evenodd" clip-rule="evenodd" d="M28.638 31.0154C28.322 31.8277 28.499 32.4923 29.031 32.4923C29.564 32.4923 30 31.8277 30 31.0154C30 30.2031 29.823 29.5385 29.607 29.5385C29.391 29.5385 28.955 30.2031 28.638 31.0154Z" fill="#191919"/>
</g>
<defs>
<clipPath id="clip0_1_32">
<rect width="64" height="64" rx="32" fill="white"/>
</clipPath>
</defs>
</svg>
