<svg width="64" height="64" viewBox="0 0 64 64" fill="none" xmlns="http://www.w3.org/2000/svg">
<path fill-rule="evenodd" clip-rule="evenodd" d="M0 32V64H32H64V32V0H32H0V32Z" fill="#FFFEFF"/>
<path fill-rule="evenodd" clip-rule="evenodd" d="M0 32V64H32H64V32V0H32H0V32ZM47.75 14.894L55 19.089V25.959V32.828L50.043 35.878L45.086 38.928L44.793 31.81L44.5 24.692L38.928 21.596L33.356 18.5L33.105 12.187L32.853 5.875L36.677 8.286C38.78 9.613 43.763 12.586 47.75 14.894ZM26.046 15.123L31.122 18.247L25.811 21.432L20.5 24.617L20.212 32.077L19.924 39.537L15.065 42.268C12.392 43.771 9.934 45 9.603 45C9.271 45 9 39.2 9 32.112V19.224L14.75 15.698C17.913 13.758 20.606 12.132 20.735 12.085C20.864 12.038 23.254 13.405 26.046 15.123ZM53.472 45.955C53.742 46.392 49.134 49.55 43.232 52.974L32.5 59.199L27 56.195L21.5 53.19L21.2 47L20.9 40.809L26.723 44.011L32.547 47.213L38.348 43.718L44.149 40.224L48.565 42.692C50.994 44.05 53.202 45.518 53.472 45.955Z" fill="#ACA6B0"/>
<path fill-rule="evenodd" clip-rule="evenodd" d="M0 32V64H32H64V32V0H32H0V32ZM36.193 7.965C37.354 9.046 38.685 9.695 39.151 9.406C39.618 9.118 40 9.315 40 9.843C40 10.372 41.237 11.316 42.75 11.942C46.885 13.653 51.321 16.178 52.813 17.671C53.545 18.402 54.561 19 55.071 19C55.582 19 56 22.078 56 25.839C56 31.919 55.75 32.809 53.75 33.85C46.358 37.697 43.453 40.634 46.5 41.179C47.05 41.277 48.095 41.952 48.821 42.679C49.548 43.405 50.786 44 51.571 44C52.357 44 53 44.477 53 45.059C53 45.641 53.563 45.789 54.25 45.387C54.938 44.985 54.679 45.593 53.676 46.738C52.673 47.883 50.761 49.094 49.426 49.429C48.092 49.764 47 50.445 47 50.941C47 51.438 45.425 52.365 43.5 53C41.575 53.635 40 54.57 40 55.078C40 55.585 39.375 56 38.611 56C37.847 56 36.198 56.829 34.947 57.842C32.852 59.538 32.429 59.562 29.586 58.151C27.889 57.308 25.905 56.03 25.179 55.309C24.452 54.589 23.214 54 22.429 54C21.32 54 21.003 52.374 21.015 46.75C21.024 42.763 21.37 40.034 21.786 40.687C22.201 41.341 23.657 42.376 25.02 42.989C26.384 43.602 28.792 44.806 30.371 45.665C31.951 46.523 33.526 46.828 33.871 46.342C34.217 45.857 35.815 44.793 37.423 43.98C44.76 40.265 44.184 41.451 44.221 30C44.235 25.721 43.879 24.428 42.619 24.177C41.729 23.999 41 23.485 41 23.035C41 22.585 39.272 21.526 37.16 20.681L33.32 19.144L33.107 12.572C32.99 8.957 33.162 6 33.489 6C33.816 6 35.033 6.884 36.193 7.965ZM24.096 13.672C25.968 14.591 27.725 15.642 28 16.007C28.275 16.372 29.344 17.132 30.376 17.696C32.101 18.638 32.042 18.773 29.626 19.379C28.182 19.742 27 20.48 27 21.019C27 21.559 26.394 22 25.653 22C24.912 22 23.337 22.84 22.153 23.867C20.323 25.454 20 26.81 20 32.899C20 38.812 19.694 40.174 18.25 40.702C17.288 41.053 15.427 42.164 14.115 43.17C9.336 46.837 9 46.084 9 31.719V18.438L11.75 17.237C13.813 16.336 18.86 13.39 20.596 12.073C20.649 12.033 22.224 12.752 24.096 13.672Z" fill="#11021F"/>
<path fill-rule="evenodd" clip-rule="evenodd" d="M32 11C32 14.556 31.569 17 30.941 17C30.359 17 30.157 16.555 30.493 16.011C30.847 15.439 30.433 15.28 29.509 15.635C28.632 15.972 28.046 16.328 28.207 16.426C28.368 16.525 29.625 17.306 31 18.163L33.5 19.721V12.363C33.5 8.316 33.163 5.004 32.75 5.002C32.337 5.001 32 7.7 32 11ZM35 6.637C35 7.122 35.86 8.056 36.911 8.712C38.459 9.679 38.932 9.62 39.4 8.401C39.74 7.513 39.554 7.158 38.945 7.534C38.377 7.885 37.257 7.628 36.456 6.964C35.655 6.299 35 6.152 35 6.637ZM40 9.885C40 10.782 43.005 12.328 43.598 11.736C43.769 11.564 43.03 10.875 41.955 10.204C40.88 9.532 40 9.389 40 9.885ZM18.559 12.532C17.491 13.339 17.064 14 17.609 14C18.154 14 19.14 13.46 19.8 12.8C20.733 11.867 21.267 11.867 22.2 12.8C22.86 13.46 23.846 14 24.391 14C24.936 14 24.509 13.339 23.441 12.532C22.374 11.724 21.275 11.064 21 11.064C20.725 11.064 19.626 11.724 18.559 12.532ZM46.226 13.574C47.176 14.568 48.227 15.107 48.562 14.771C48.897 14.436 48.12 13.623 46.836 12.964C44.603 11.819 44.576 11.846 46.226 13.574ZM12.5 16.068C10.85 17.125 10.013 17.992 10.639 17.995C11.266 17.998 12.841 17.115 14.139 16.033C17.112 13.556 16.397 13.572 12.5 16.068ZM52 16.885C52 17.782 55.005 19.328 55.598 18.736C55.769 18.564 55.03 17.875 53.955 17.204C52.88 16.532 52 16.389 52 16.885ZM8.218 32.191C8.02 44.605 8.722 48.876 10.49 46.016C10.835 45.457 10.655 45 10.088 45C9.449 45 8.94 39.973 8.747 31.75L8.437 18.5L8.218 32.191ZM28.25 19.662C27.563 19.94 27 20.654 27 21.25C27 21.846 27.296 22.037 27.658 21.675C28.02 21.313 29.032 21.576 29.908 22.259C31.296 23.341 31.334 23.288 30.208 21.847C29.153 20.497 29.153 20.1 30.208 19.676C30.919 19.391 31.05 19.158 30.5 19.158C29.95 19.158 28.938 19.385 28.25 19.662ZM36 21.049C39.329 23.308 41 24.026 41 23.196C41 22.715 39.854 21.799 38.453 21.161C35.323 19.735 33.973 19.673 36 21.049ZM23.029 22.961C22.22 23.473 21.771 24.104 22.031 24.364C22.29 24.624 23.376 24.198 24.443 23.418C26.576 21.858 25.383 21.472 23.029 22.961ZM42 24.393C42 24.609 42.698 25.054 43.552 25.382C44.442 25.723 44.843 25.555 44.493 24.989C43.906 24.038 42 23.583 42 24.393ZM19.866 32.75C19.679 43.604 19.987 53.321 20.536 53.869C20.791 54.125 21 47.733 21 39.667C21 31.6 20.775 25 20.5 25C20.225 25 19.94 28.487 19.866 32.75ZM51.861 35.056C50.005 36.673 49.928 36.894 51.5 36.09C54.892 34.355 56.554 33.031 55.361 33.015C54.734 33.007 53.159 33.925 51.861 35.056ZM45.965 38.542C44.924 39.797 44.928 40.31 45.99 41.292C47.033 42.258 47.173 42.154 46.689 40.776C46.316 39.716 46.741 38.669 47.792 38.057C48.731 37.509 48.993 37.047 48.372 37.03C47.752 37.014 46.669 37.694 45.965 38.542ZM22 40.771C22 41.329 22.712 42.059 23.582 42.393C25.757 43.228 26 43.171 26 41.833C26 41.192 25.704 40.963 25.342 41.325C24.98 41.687 24.08 41.481 23.342 40.869C22.498 40.169 22 40.132 22 40.771ZM14.872 42.75C13.603 44.369 13.65 44.39 15.5 43.033C16.6 42.226 17.688 41.439 17.917 41.283C18.146 41.127 17.863 41 17.289 41C16.715 41 15.627 41.788 14.872 42.75ZM38.531 41.865C38.824 42.157 38.036 42.966 36.781 43.663C35.527 44.359 35.013 44.945 35.639 44.965C36.266 44.984 37.797 44.175 39.043 43.167C40.844 41.708 40.969 41.333 39.653 41.333C38.744 41.333 38.239 41.572 38.531 41.865ZM48 42.06C48 43.393 51.32 44.08 52.417 42.974C53.198 42.186 52.967 42.085 51.586 42.611C50.397 43.064 49.907 42.96 50.292 42.337C50.633 41.785 50.257 41.333 49.456 41.333C48.655 41.333 48 41.66 48 42.06ZM28.226 44.579C29.176 45.57 30.168 46.166 30.431 45.903C30.694 45.64 29.917 44.829 28.705 44.1C26.598 42.835 26.577 42.857 28.226 44.579ZM53.586 45.628C53.728 46.249 53.316 47.293 52.672 47.95C51.773 48.865 51.839 49.068 52.955 48.821C53.755 48.645 54.43 49.025 54.455 49.667C54.48 50.308 54.804 51.137 55.175 51.508C56.064 52.397 55.664 49.852 54.663 48.25C54.223 47.545 54.344 47 54.941 47C55.523 47 56 46.523 56 45.941C56 45.359 55.588 45.136 55.085 45.447C54.582 45.758 53.981 45.672 53.749 45.256C53.517 44.84 53.444 45.008 53.586 45.628ZM32.5 46C32.16 46.55 32.359 47 32.941 47C33.523 47 34 46.55 34 46C34 45.45 33.802 45 33.559 45C33.316 45 32.84 45.45 32.5 46ZM48.25 49.662C47.563 49.94 47 50.634 47 51.206C47 51.847 47.558 51.782 48.456 51.036C49.257 50.372 50.452 50.161 51.111 50.568C51.869 51.037 52.047 50.885 51.595 50.155C50.84 48.933 50.267 48.848 48.25 49.662ZM41.029 53.961C40.22 54.473 39.803 55.136 40.102 55.435C40.401 55.735 41.513 55.323 42.573 54.521C44.681 52.926 43.4 52.461 41.029 53.961ZM23.557 55.418C24.624 56.198 25.71 56.624 25.969 56.364C26.52 55.814 23.941 54.038 22.559 54.015C22.041 54.007 22.491 54.638 23.557 55.418ZM34.861 58.056C33.005 59.673 32.928 59.894 34.5 59.09C37.892 57.355 39.554 56.031 38.361 56.015C37.734 56.007 36.159 56.925 34.861 58.056ZM28.628 58.792C28.359 59.228 29.017 59.651 30.091 59.732C31.165 59.813 31.782 59.456 31.463 58.939C30.754 57.793 29.293 57.717 28.628 58.792Z" fill="#DEDBE4"/>
<path fill-rule="evenodd" clip-rule="evenodd" d="M32 11C32 14.556 31.569 17 30.941 17C30.359 17 30.203 16.48 30.595 15.845C31.038 15.13 30.87 14.962 30.155 15.405C28.56 16.39 28.636 16.539 31.75 18.515C33.263 19.474 34.039 19.763 33.475 19.155C32.868 18.501 32.674 15.389 32.998 11.525C33.299 7.936 33.198 5 32.773 5C32.348 5 32 7.7 32 11ZM36.243 7.512C37.699 9.101 38.193 9.191 39.243 8.06C40.255 6.97 40.248 6.849 39.206 7.439C38.495 7.842 37.145 7.596 36.206 6.891C34.67 5.737 34.674 5.799 36.243 7.512ZM19.632 11.786C19.365 12.218 19.981 12.571 21 12.571C22.019 12.571 22.635 12.218 22.368 11.786C21.743 10.775 20.257 10.775 19.632 11.786ZM45 12.43C45 12.705 45.9 13.411 47 14C48.1 14.589 49 14.845 49 14.57C49 14.295 48.1 13.589 47 13C45.9 12.411 45 12.155 45 12.43ZM11 17C10.099 17.582 9.975 17.975 10.691 17.985C11.346 17.993 12.16 17.55 12.5 17C13.267 15.758 12.921 15.758 11 17ZM53.226 17.579C54.176 18.57 55.168 19.166 55.431 18.903C55.694 18.64 54.917 17.829 53.705 17.1C51.598 15.835 51.577 15.857 53.226 17.579ZM8.219 32.191C8.017 44.822 8.719 48.881 10.585 45.862C11.031 45.141 10.876 44.959 10.183 45.387C9.374 45.887 8.97 42.195 8.748 32.291L8.439 18.5L8.219 32.191ZM27.905 20.75C27.169 21.712 26.96 22.166 27.441 21.759C27.922 21.351 29.032 21.576 29.908 22.259C31.296 23.341 31.334 23.288 30.208 21.847C29.153 20.497 29.153 20.1 30.208 19.676C30.975 19.368 31.042 19.126 30.372 19.079C29.752 19.036 28.642 19.788 27.905 20.75ZM36 21.049C39.469 23.403 41.444 24.088 39 22.089C37.625 20.965 36.05 20.041 35.5 20.038C34.95 20.034 35.175 20.489 36 21.049ZM22.872 23.75C21.603 25.369 21.65 25.39 23.5 24.033C24.6 23.226 25.688 22.439 25.917 22.283C26.146 22.127 25.863 22 25.289 22C24.715 22 23.627 22.788 22.872 23.75ZM42 24.393C42 24.609 42.698 25.054 43.552 25.382C44.442 25.723 44.843 25.555 44.493 24.989C43.906 24.038 42 23.583 42 24.393ZM19.991 32.705C19.721 37.217 19.859 40.549 20.297 40.108C20.735 39.667 20.956 35.975 20.788 31.903L20.482 24.5L19.991 32.705ZM52 35.089C50.339 36.448 50.172 36.787 51.5 36.101C54.762 34.415 56.57 33.03 55.5 33.038C54.95 33.041 53.375 33.965 52 35.089ZM45.667 38.667C44.735 39.599 44.835 41 45.833 41C46.292 41 46.667 40.325 46.667 39.5C46.667 37.801 46.594 37.74 45.667 38.667ZM22.872 41.25C24.445 43.255 26 43.545 26 41.833C26 41.192 25.704 40.963 25.342 41.325C24.98 41.687 23.968 41.424 23.092 40.741C21.683 39.643 21.658 39.702 22.872 41.25ZM14.872 42.75C13.603 44.369 13.65 44.39 15.5 43.033C16.6 42.226 17.688 41.439 17.917 41.283C18.146 41.127 17.863 41 17.289 41C16.715 41 15.627 41.788 14.872 42.75ZM38.613 42.183C38.902 42.65 39.557 42.774 40.069 42.457C41.377 41.649 41.23 41.333 39.544 41.333C38.743 41.333 38.324 41.716 38.613 42.183ZM48.613 42.183C48.902 42.65 49.557 42.774 50.069 42.457C51.377 41.649 51.23 41.333 49.544 41.333C48.743 41.333 48.324 41.716 48.613 42.183ZM36 44C35.099 44.582 34.975 44.975 35.691 44.985C36.346 44.993 37.16 44.55 37.5 44C38.267 42.758 37.921 42.758 36 44ZM52.539 47.938C52.153 48.561 52.413 48.929 53.13 48.775C53.834 48.624 54.43 49.025 54.455 49.667C54.48 50.308 54.804 51.137 55.175 51.508C55.546 51.88 55.744 51.462 55.615 50.582C55.263 48.187 53.383 46.571 52.539 47.938ZM47.872 50.75C46.636 52.326 46.669 52.367 48.206 51.164C49.145 50.429 50.452 50.161 51.111 50.568C51.869 51.037 52.047 50.885 51.595 50.155C50.595 48.535 49.468 48.715 47.872 50.75ZM41.441 54.555C39.577 56.049 39.589 56.067 41.75 55.02C42.987 54.42 44 53.72 44 53.465C44 52.7 43.481 52.921 41.441 54.555ZM22.083 54.283C22.313 54.439 23.4 55.226 24.5 56.033C26.35 57.39 26.397 57.369 25.128 55.75C24.373 54.788 23.285 54 22.711 54C22.137 54 21.854 54.127 22.083 54.283ZM35 58.089C33.339 59.448 33.172 59.787 34.5 59.101C37.762 57.415 39.57 56.03 38.5 56.038C37.95 56.041 36.375 56.965 35 58.089ZM28.601 58.836C28.347 59.248 29.007 59.65 30.069 59.73C32.366 59.903 32.568 59.432 30.532 58.651C29.725 58.341 28.856 58.424 28.601 58.836Z" fill="#C0BAC6"/>
<path fill-rule="evenodd" clip-rule="evenodd" d="M19.632 11.786C19.365 12.218 19.981 12.571 21 12.571C22.019 12.571 22.635 12.218 22.368 11.786C21.743 10.775 20.257 10.775 19.632 11.786ZM45 12.43C45 12.705 45.9 13.411 47 14C48.1 14.589 49 14.845 49 14.57C49 14.295 48.1 13.589 47 13C45.9 12.411 45 12.155 45 12.43ZM31 17.378C31 17.585 31.788 18.373 32.75 19.128C34.336 20.371 34.371 20.336 33.128 18.75C31.821 17.084 31 16.555 31 17.378ZM8.219 32.191C8.017 44.822 8.719 48.881 10.585 45.862C11.031 45.141 10.876 44.959 10.183 45.387C9.374 45.887 8.97 42.195 8.748 32.291L8.439 18.5L8.219 32.191ZM27.399 21.25C27.003 21.938 27.048 22.166 27.498 21.759C27.948 21.351 29.032 21.576 29.908 22.259C31.317 23.357 31.342 23.298 30.128 21.75C28.492 19.664 28.328 19.634 27.399 21.25ZM37 21.43C37 21.705 37.9 22.411 39 23C40.1 23.589 41 23.845 41 23.57C41 23.295 40.1 22.589 39 22C37.9 21.411 37 21.155 37 21.43ZM19.991 32.705C19.721 37.217 19.859 40.549 20.297 40.108C20.735 39.667 20.956 35.975 20.788 31.903L20.482 24.5L19.991 32.705ZM51.441 35.555C49.577 37.049 49.589 37.067 51.75 36.02C52.987 35.42 54 34.72 54 34.465C54 33.7 53.481 33.921 51.441 35.555ZM45.543 38.931C45.226 39.443 45.35 40.098 45.817 40.387C46.284 40.676 46.667 40.257 46.667 39.456C46.667 37.77 46.351 37.623 45.543 38.931ZM38.613 42.183C38.902 42.65 39.557 42.774 40.069 42.457C41.377 41.649 41.23 41.333 39.544 41.333C38.743 41.333 38.324 41.716 38.613 42.183ZM48.613 42.183C48.902 42.65 49.557 42.774 50.069 42.457C51.377 41.649 51.23 41.333 49.544 41.333C48.743 41.333 48.324 41.716 48.613 42.183ZM52.539 47.938C52.153 48.561 52.413 48.929 53.13 48.775C53.834 48.624 54.43 49.025 54.455 49.667C54.48 50.308 54.804 51.137 55.175 51.508C55.546 51.88 55.744 51.462 55.615 50.582C55.263 48.187 53.383 46.571 52.539 47.938ZM41.441 54.555C39.577 56.049 39.589 56.067 41.75 55.02C42.987 54.42 44 53.72 44 53.465C44 52.7 43.481 52.921 41.441 54.555ZM34.441 58.555C32.577 60.049 32.589 60.067 34.75 59.02C35.987 58.42 37 57.72 37 57.465C37 56.7 36.481 56.921 34.441 58.555ZM28.601 58.836C28.347 59.248 29.007 59.65 30.069 59.73C32.366 59.903 32.568 59.432 30.532 58.651C29.725 58.341 28.856 58.424 28.601 58.836Z" fill="#655F6B"/>
<path fill-rule="evenodd" clip-rule="evenodd" d="M8.219 32.191C8.017 44.822 8.719 48.881 10.585 45.862C11.031 45.141 10.876 44.959 10.183 45.387C9.374 45.887 8.97 42.195 8.748 32.291L8.439 18.5L8.219 32.191ZM19.991 32.705C19.721 37.217 19.859 40.549 20.297 40.108C20.735 39.667 20.956 35.975 20.788 31.903L20.482 24.5L19.991 32.705ZM54.379 49.379C54.506 50.239 54.888 51.221 55.229 51.563C55.571 51.904 55.747 51.48 55.621 50.621C55.494 49.761 55.112 48.779 54.771 48.437C54.429 48.096 54.253 48.52 54.379 49.379Z" fill="#342E3C"/>
<path fill-rule="evenodd" clip-rule="evenodd" d="M20.079 29.583C20.127 30.748 20.364 30.985 20.683 30.188C20.972 29.466 20.936 28.603 20.604 28.271C20.272 27.939 20.036 28.529 20.079 29.583ZM54.379 49.379C54.506 50.239 54.888 51.221 55.229 51.563C55.571 51.904 55.747 51.48 55.621 50.621C55.494 49.761 55.112 48.779 54.771 48.437C54.429 48.096 54.253 48.52 54.379 49.379Z" fill="#1F1927"/>
</svg>
