<svg width="64" height="65" viewBox="0 0 64 65" fill="none" xmlns="http://www.w3.org/2000/svg">
<path fill-rule="evenodd" clip-rule="evenodd" d="M17.207 3.584C11.612 6.372 5.319 12.807 2.352 18.775C-0.300001 24.11 -0.300001 41.89 2.352 47.225C5.319 53.193 11.612 59.628 17.207 62.416C21.701 64.656 23.674 65 32 65C40.326 65 42.299 64.656 46.793 62.416C52.388 59.628 58.681 53.193 61.648 47.225C64.3 41.89 64.3 24.11 61.648 18.775C58.681 12.807 52.388 6.372 46.793 3.584C39.215 -0.192001 24.785 -0.192001 17.207 3.584Z" fill="#FBFBFB"/>
<path fill-rule="evenodd" clip-rule="evenodd" d="M24.057 3.651C25.649 7.838 28.337 12 29.449 12C30.009 12 25.412 17.07 19.234 23.266C13.055 29.462 8 34.986 8 35.542C8 36.118 6.28 36.389 4 36.171C0.176001 35.807 4.9037e-07 35.916 0.0100005 38.645C0.0230005 42.459 3.985 50.775 7.931 55.269C9.688 57.269 13.869 60.277 17.222 61.953C22.627 64.654 24.315 65 32.094 65H40.868L40.421 62.535C39.857 59.429 36.111 53 34.865 53C34.35 53 35.069 51.321 36.464 49.268C37.859 47.215 39 44.144 39 42.442C39 38.63 35.432 35 31.686 35C28.766 35 25 38.098 25 40.5C25 42.36 24.605 42.364 21.077 40.54C19.524 39.737 17.881 39.399 17.425 39.79C15.411 41.516 25.166 30.17 28.196 27.263L31.569 24.025L40.013 32.513C44.656 37.181 49.184 41 50.073 41C51.607 41 53.833 39.014 55.416 36.235C55.869 35.44 53.785 32.463 49.818 28.237C46.343 24.534 44.437 22.292 45.582 23.255C49.254 26.343 64 28.094 64 25.442C64 22.729 57.582 11.841 54.269 8.931C47.706 3.169 41.606 1.021 31.775 1.01L23.05 1L24.057 3.651Z" fill="#EBEBEB"/>
<path fill-rule="evenodd" clip-rule="evenodd" d="M20.234 23.266C14.055 29.462 9 35.008 9 35.591C9 36.174 10.138 37.72 11.528 39.027L14.057 41.402L23.028 32.472L32 23.542L40.972 32.472L49.943 41.402L52.472 39.027C53.862 37.72 55 36.16 55 35.559C55 34.51 32.994 12 31.968 12C31.693 12 26.412 17.07 20.234 23.266ZM27.455 37.455C24.069 40.84 24.305 44.732 28.202 49.803L31.404 53.969L33.797 51.734C36.758 48.97 39 44.776 39 42.004C39 39.303 34.7 35 32 35C30.85 35 28.805 36.105 27.455 37.455Z" fill="#B2B2B2"/>
<path fill-rule="evenodd" clip-rule="evenodd" d="M19.733 23.766C13.83 29.688 9 35.009 9 35.592C9 36.175 10.138 37.72 11.528 39.027L14.057 41.402L23.028 32.472L31.999 23.543L40.27 31.771C44.82 36.297 49.25 40 50.116 40C51.788 40 55 36.977 55 35.404C55 33.838 33.577 13 31.967 13C31.141 13 25.636 17.845 19.733 23.766ZM26.557 38.223C25.701 39.445 25 41.402 25 42.572C25 44.878 30.417 53 31.955 53C33.344 53 37.745 46.899 38.479 43.957C40.047 37.669 30.246 32.955 26.557 38.223Z" fill="#8A8A8A"/>
<path fill-rule="evenodd" clip-rule="evenodd" d="M19.866 23.911C10.191 33.199 8.659 35.086 9.567 36.594C12.418 41.33 13.558 40.898 22.99 31.51L32 22.542L40.972 31.472L49.943 40.402L52.503 37.998L55.062 35.593L43.797 24.297C37.602 18.083 32.24 13 31.882 13C31.525 13 26.118 17.91 19.866 23.911ZM28.4 36.765C26.354 38.132 24.885 42.062 25.588 44.288C26.444 46.995 30.921 53 32.083 53C33.681 53 38 45.533 38 42.768C38 37.934 32.138 34.269 28.4 36.765Z" fill="#585858"/>
<path fill-rule="evenodd" clip-rule="evenodd" d="M20.207 24.293L8.938 35.593L11.497 37.998L14.057 40.402L23.028 31.472L32 22.542L40.985 31.485C47.664 38.133 50.261 40.139 51.101 39.299C51.94 38.46 49.826 35.019 42.865 25.898C37.714 19.149 33.044 13.484 32.488 13.309C31.931 13.135 26.405 18.077 20.207 24.293ZM28.223 37.557C25.164 39.699 25.332 44.428 28.636 49.196C30.086 51.288 31.6 53 32 53C33.117 53 38 45.588 38 43.892C38 42.553 32.126 36 30.925 36C30.661 36 29.445 36.701 28.223 37.557Z" fill="#383838"/>
<path fill-rule="evenodd" clip-rule="evenodd" d="M18.706 25.793L8.941 35.595L11.499 37.999L14.057 40.402L23.007 31.493L31.957 22.585L34.783 25.292C36.338 26.782 37.947 28 38.36 28C39.146 28 30.259 16.687 29.125 16.245C28.766 16.105 24.077 20.402 18.706 25.793ZM27.2 38.2C24.985 40.415 25.804 45.749 28.887 49.2C31.432 52.048 31.974 52.266 33.453 51.039C34.377 50.273 35.753 48.444 36.513 46.974C37.823 44.441 37.702 44.115 34.155 40.652C30.126 36.717 29.059 36.341 27.2 38.2Z" fill="#252525"/>
<path fill-rule="evenodd" clip-rule="evenodd" d="M16.218 28.28C12.798 31.731 10 35.034 10 35.622C10 36.209 10.914 37.518 12.032 38.529C14.029 40.336 14.16 40.274 19.606 34.934C26.843 27.837 27.229 27.009 24.589 24.253L22.436 22.007L16.218 28.28ZM26.444 40.367C25.662 43.484 27.334 48.087 30.187 50.669C32.131 52.429 32.247 52.413 34.095 50.131C35.143 48.837 36 47.472 36 47.097C36 46.723 34.001 44.454 31.557 42.056L27.114 37.696L26.444 40.367Z" fill="#010101"/>
</svg>
