<svg width="65" height="64" viewBox="0 0 65 64" fill="none" xmlns="http://www.w3.org/2000/svg">
<path fill-rule="evenodd" clip-rule="evenodd" d="M18.261 2.557C12.072 5.641 6.646 11.416 3.413 18.36C-0.00200057 25.694 -0.00200057 38.306 3.413 45.64C6.646 52.584 12.072 58.359 18.261 61.443C22.703 63.656 24.677 63.997 32.946 63.978C40.166 63.961 43.524 63.491 46.69 62.054C52.476 59.427 59.104 53.064 62.039 47.317C64.191 43.104 64.5 41.183 64.5 32C64.5 23.787 64.097 20.689 62.648 17.775C59.681 11.807 53.388 5.372 47.793 2.584C43.299 0.344 41.326 0 33 0C24.699 0 22.695 0.348 18.261 2.557Z" fill="#272828"/>
<path fill-rule="evenodd" clip-rule="evenodd" d="M18.261 2.557C12.072 5.641 6.646 11.416 3.413 18.36C-0.00200057 25.694 -0.00200057 38.306 3.413 45.64C6.646 52.584 12.072 58.359 18.261 61.443C22.703 63.656 24.677 63.997 32.946 63.978C40.166 63.961 43.524 63.491 46.69 62.054C52.476 59.427 59.104 53.064 62.039 47.317C64.191 43.104 64.5 41.183 64.5 32C64.5 23.787 64.097 20.689 62.648 17.775C59.681 11.807 53.388 5.372 47.793 2.584C43.299 0.344 41.326 0 33 0C24.699 0 22.695 0.348 18.261 2.557ZM22.683 17.188C22.364 17.985 22.127 17.748 22.079 16.583C22.036 15.529 22.272 14.939 22.604 15.271C22.936 15.603 22.972 16.466 22.683 17.188ZM44 16.559C44 17.416 43.543 17.835 42.984 17.49C42.425 17.144 42.226 16.443 42.543 15.931C43.4 14.544 44 14.802 44 16.559ZM27 17C27 17.55 26.523 18 25.941 18C25.359 18 25.16 17.55 25.5 17C25.84 16.45 26.316 16 26.559 16C26.802 16 27 16.45 27 17ZM35.762 16.687C34.806 16.937 33.006 16.946 31.762 16.707C30.518 16.468 31.3 16.263 33.5 16.252C35.7 16.241 36.718 16.437 35.762 16.687ZM40.5 17C40.84 17.55 40.641 18 40.059 18C39.477 18 39 17.55 39 17C39 16.45 39.198 16 39.441 16C39.684 16 40.16 16.45 40.5 17ZM49.124 18.267C48.136 19.247 48.022 19.132 48.564 17.707C48.94 16.721 49.499 16.166 49.807 16.474C50.115 16.781 49.808 17.588 49.124 18.267ZM51.128 22.75C52.371 24.336 52.336 24.371 50.75 23.128C49.084 21.821 48.555 21 49.378 21C49.585 21 50.373 21.788 51.128 22.75ZM9.382 23.552C9.723 24.442 9.555 24.843 8.989 24.493C8.445 24.157 8 23.459 8 22.941C8 21.503 8.717 21.82 9.382 23.552ZM57.124 25.267C56.136 26.247 56.022 26.132 56.564 24.707C56.94 23.721 57.499 23.166 57.807 23.474C58.115 23.781 57.808 24.588 57.124 25.267ZM11.834 27.876C12.901 28.553 12.841 28.847 11.532 29.349C10.632 29.695 10.147 29.571 10.454 29.074C10.761 28.577 10.447 27.943 9.756 27.664C9.065 27.386 8.95 27.129 9.5 27.094C10.05 27.059 11.1 27.411 11.834 27.876ZM24.5 35C24.84 35.55 24.641 36 24.059 36C23.477 36 23 35.55 23 35C23 34.45 23.198 34 23.441 34C23.684 34 24.16 34.45 24.5 35ZM43 35C43 35.55 42.523 36 41.941 36C41.359 36 41.16 35.55 41.5 35C41.84 34.45 42.316 34 42.559 34C42.802 34 43 34.45 43 35ZM31 38C31 38.55 30.523 39 29.941 39C29.359 39 29.16 38.55 29.5 38C29.84 37.45 30.316 37 30.559 37C30.802 37 31 37.45 31 38ZM36.5 38C36.84 38.55 36.641 39 36.059 39C35.477 39 35 38.55 35 38C35 37.45 35.198 37 35.441 37C35.684 37 36.16 37.45 36.5 38ZM31.893 41.75C32.822 43.39 32.983 43.374 34.458 41.5C35.948 39.608 35.969 39.648 34.856 42.25C33.724 44.896 32 45.995 32 44.071C32 43.561 31.293 42.436 30.429 41.571C29.564 40.707 29.317 40 29.879 40C30.441 40 31.347 40.788 31.893 41.75ZM14.541 47.067C15.617 48.808 14.392 49.177 13.02 47.524C12.231 46.574 12.155 46 12.819 46C13.403 46 14.179 46.48 14.541 47.067ZM52.25 47.833C51.288 48.842 50.323 49.528 50.107 49.357C49.517 48.892 52.114 46 53.122 46C53.605 46 53.212 46.825 52.25 47.833ZM25.5 52C25.84 52.55 25.668 53 25.118 53C24.568 53 23.84 52.55 23.5 52C23.16 51.45 23.332 51 23.882 51C24.432 51 25.16 51.45 25.5 52ZM42.5 52C42.16 52.55 41.432 53 40.882 53C40.332 53 40.16 52.55 40.5 52C40.84 51.45 41.568 51 42.118 51C42.668 51 42.84 51.45 42.5 52Z" fill="#0C0E0E"/>
<path fill-rule="evenodd" clip-rule="evenodd" d="M18.637 2.445C12.054 5.67 7.504 10.305 3.961 17.393C1.365 22.588 1.001 24.38 1.01 31.91C1.018 38.858 1.477 41.482 3.413 45.64C6.646 52.584 12.072 58.359 18.261 61.443C22.695 63.652 24.699 64 33 64C41.326 64 43.299 63.656 47.793 61.416C53.403 58.62 59.707 52.165 62.627 46.225C63.877 43.683 64.575 39.578 64.824 33.297C65.147 25.166 64.901 23.464 62.71 18.677C59.424 11.501 54.03 5.692 47.739 2.557C43.291 0.340996 41.334 0.00399645 33.054 0.0309965C25.057 0.0569965 22.708 0.450996 18.637 2.445ZM19.813 13.63C23.729 15.925 25.411 16.261 33 16.261C40.589 16.261 42.271 15.925 46.187 13.63C51.99 10.229 55.316 10.203 56.839 13.547C58.308 16.769 58.332 23.028 56.89 26.685C56.28 28.233 55.851 32.44 55.937 36.033C56.243 48.832 49.734 53.275 31.5 52.714C14.951 52.205 9.821 48.202 10.081 36C10.157 32.425 9.72 27.928 9.109 26.007C6.677 18.346 8.688 11 13.219 11C14.377 11 17.344 12.184 19.813 13.63ZM10.035 13.934C8.705 16.42 8.708 22.103 10.043 25.613L11.086 28.356L13.703 24.678C15.142 22.655 16.698 21 17.16 21C19.021 21 17.832 18.359 15.25 16.758C13.738 15.82 13.002 15.041 13.615 15.027C14.228 15.012 15.912 15.929 17.355 17.065C19.814 18.999 22 18.979 22 17.023C22 15.689 15.512 12 13.167 12C12.014 12 10.605 12.87 10.035 13.934ZM47.25 14.115C45.462 15.26 44 16.576 44 17.039C44 18.98 46.195 18.992 48.645 17.065C52.246 14.232 53.755 14.446 50.418 17.317L47.725 19.634L50.192 22.101C51.549 23.458 53.152 25.449 53.754 26.526C55.321 29.324 56.27 27.792 56.78 21.642C57.544 12.425 54.117 9.717 47.25 14.115ZM24.685 17.957C16.218 20.678 10.46 29.476 11.212 38.546C12.049 48.64 16.845 51.489 33 51.489C45.556 51.489 48.922 50.457 52.912 45.385C57.784 39.192 54.315 26.177 46.311 20.617C42.794 18.174 40.951 17.655 34.811 17.38C30.79 17.2 26.233 17.46 24.685 17.957ZM27 31.594C27 32.432 26.55 32.84 26 32.5C24.251 31.419 22.773 33.022 24.074 34.589C25.713 36.564 23.57 36.427 21.571 34.429C19.598 32.455 19.598 31.545 21.569 29.573C23.412 27.731 27 29.066 27 31.594ZM44.429 29.571C45.293 30.436 46 31.529 46 32C46 32.471 45.293 33.564 44.429 34.429C42.43 36.427 40.287 36.564 41.926 34.589C43.227 33.022 41.749 31.419 40 32.5C39.45 32.84 39 32.439 39 31.609C39 30.449 41.233 28.277 42.679 28.03C42.777 28.014 43.564 28.707 44.429 29.571ZM36.653 38.537C36.977 39.383 36.513 40.881 35.621 41.866C33.571 44.131 33.539 45.391 35.552 44.618C36.442 44.277 36.843 44.445 36.493 45.011C36.157 45.555 34.585 46 33 46C31.415 46 29.843 45.555 29.507 45.011C29.157 44.445 29.558 44.277 30.448 44.618C32.461 45.391 32.429 44.131 30.379 41.866C28.077 39.322 29.328 37 33 37C34.833 37 36.3 37.617 36.653 38.537ZM30.57 38.887C30.269 39.374 30.692 40.329 31.511 41.009C32.693 41.99 33.307 41.99 34.489 41.009C35.308 40.329 35.731 39.374 35.43 38.887C34.72 37.738 31.28 37.738 30.57 38.887Z" fill="#E7E6E6"/>
<path fill-rule="evenodd" clip-rule="evenodd" d="M9.712 11.431C8.175 12.968 8.443 21.276 10.179 25.928L11.086 28.356L13.703 24.678C15.142 22.655 16.698 21 17.16 21C19.021 21 17.832 18.359 15.25 16.758C13.738 15.82 13.002 15.041 13.615 15.027C14.228 15.012 15.912 15.929 17.355 17.065C20.085 19.212 22.532 18.828 21.6 16.399C20.989 14.807 22.559 14.478 23.5 16C23.84 16.55 24.654 16.988 25.309 16.974C27.491 16.928 15.63 10 13.368 10C12.144 10 10.499 10.644 9.712 11.431ZM51.75 10.662C52.438 10.94 53.563 10.94 54.25 10.662C54.938 10.385 54.375 10.158 53 10.158C51.625 10.158 51.063 10.385 51.75 10.662ZM18.143 12.574C19.816 13.439 20.948 14.385 20.658 14.676C20.367 14.966 19.1 14.483 17.842 13.602C15.163 11.725 10.506 11.392 11.595 13.155C12.059 13.905 11.867 14.036 11.047 13.529C10.11 12.95 9.954 13.361 10.441 15.125C11.009 17.186 10.946 17.262 9.969 15.698C9.124 14.347 9.143 13.533 10.043 12.448C11.602 10.57 14.35 10.612 18.143 12.574ZM45.062 13.229C42.242 15.038 40.268 15.415 34.062 15.329L26.5 15.225L34 15.921C38.125 16.304 41.928 16.254 42.45 15.809C43.939 14.541 44.991 14.86 44.4 16.399C43.468 18.828 45.915 19.212 48.645 17.065C52.246 14.232 53.755 14.446 50.418 17.317L47.725 19.634L50.112 22.142C54.587 26.842 56.061 29.092 55.456 30.297C55.124 30.959 55.56 30.626 56.426 29.559C57.292 28.491 57.968 26.916 57.93 26.059C57.88 24.946 57.616 25.072 57.01 26.5C56.211 28.38 56.574 20.244 57.493 15.654C57.697 14.638 57.616 13.162 57.313 12.374C56.862 11.197 56.504 11.259 55.308 12.721C54.507 13.699 54.137 13.938 54.485 13.25C54.886 12.458 54.394 12 53.141 12C52.053 12 50.564 11.78 49.832 11.512C49.099 11.244 46.953 12.016 45.062 13.229ZM48.441 13.468C47.374 14.276 46.05 14.936 45.5 14.936C44.95 14.936 45.374 14.276 46.441 13.468C47.509 12.661 48.832 12 49.382 12C49.932 12 49.509 12.661 48.441 13.468ZM56.122 15.675C54.943 17.702 54.659 17.053 55.624 14.539C55.966 13.645 56.458 13.124 56.715 13.382C56.973 13.639 56.706 14.671 56.122 15.675ZM58.272 20C58.272 22.475 58.467 23.488 58.706 22.25C58.944 21.012 58.944 18.988 58.706 17.75C58.467 16.512 58.272 17.525 58.272 20ZM7.232 20C7.232 21.925 7.438 22.712 7.689 21.75C7.941 20.788 7.941 19.212 7.689 18.25C7.438 17.288 7.232 18.075 7.232 20ZM24.685 17.957C20.004 19.461 15.331 23.685 12.984 28.534C10.059 34.576 10.527 42.803 14.007 46.508C15.295 47.878 15.814 49 15.16 49C14.506 49 13.079 47.538 11.989 45.75C10.899 43.962 10.006 42.962 10.004 43.527C9.998 45.173 12.923 48.888 15.172 50.092C16.796 50.961 17.072 50.926 16.457 49.93C15.876 48.99 16.169 48.864 17.586 49.446C22.448 51.441 28.175 52.151 36.033 51.731C49.58 51.008 55 46.963 55 37.577C55 30.762 51.731 24.382 46.311 20.617C42.794 18.174 40.951 17.655 34.811 17.38C30.79 17.2 26.233 17.46 24.685 17.957ZM8.079 25.583C8.127 26.748 8.364 26.985 8.683 26.188C8.972 25.466 8.936 24.603 8.604 24.271C8.272 23.939 8.036 24.529 8.079 25.583ZM9.031 28.5C9.031 29.05 9.467 30.175 10 31C10.533 31.825 10.969 32.05 10.969 31.5C10.969 30.95 10.533 29.825 10 29C9.467 28.175 9.031 27.95 9.031 28.5ZM27 31.594C27 32.432 26.55 32.84 26 32.5C24.251 31.419 22.773 33.022 24.074 34.589C25.713 36.564 23.57 36.427 21.571 34.429C19.598 32.455 19.598 31.545 21.569 29.573C23.412 27.731 27 29.066 27 31.594ZM44.429 29.571C45.293 30.436 46 31.529 46 32C46 33.205 43.069 36 41.806 36C41.103 36 41.123 35.556 41.869 34.658C42.986 33.312 42.445 32 40.774 32C40.284 32 40.203 32.52 40.595 33.155C41.038 33.87 40.87 34.038 40.155 33.595C38.449 32.541 38.752 30.244 40.75 29.08C41.712 28.519 42.58 28.047 42.679 28.03C42.777 28.014 43.564 28.707 44.429 29.571ZM56.3 37C56.3 40.025 56.487 41.263 56.716 39.75C56.945 38.237 56.945 35.763 56.716 34.25C56.487 32.737 56.3 33.975 56.3 37ZM9.286 37.5C9.294 40.25 9.488 41.256 9.718 39.736C9.947 38.216 9.941 35.966 9.704 34.736C9.467 33.506 9.279 34.75 9.286 37.5ZM36.653 38.537C36.977 39.383 36.513 40.881 35.621 41.866C33.571 44.131 33.539 45.391 35.552 44.618C36.442 44.277 36.843 44.445 36.493 45.011C36.157 45.555 34.585 46 33 46C31.415 46 29.843 45.555 29.507 45.011C29.157 44.445 29.558 44.277 30.448 44.618C32.461 45.391 32.429 44.131 30.379 41.866C28.077 39.322 29.328 37 33 37C34.833 37 36.3 37.617 36.653 38.537ZM30.57 38.887C30.269 39.374 30.692 40.329 31.511 41.009C32.693 41.99 33.307 41.99 34.489 41.009C35.308 40.329 35.731 39.374 35.43 38.887C34.72 37.738 31.28 37.738 30.57 38.887ZM53.224 46.792L50.947 50.5L53.474 47.694C54.863 46.151 56 44.464 56 43.944C56 42.474 55.663 42.82 53.224 46.792ZM19 51.954C19.825 52.513 21.363 52.976 22.417 52.985C24.975 53.005 24.177 52.433 20.5 51.61C18.309 51.12 17.905 51.213 19 51.954ZM44 52C41.94 52.66 41.852 52.816 43.5 52.885C44.6 52.931 46.175 52.533 47 52C48.752 50.868 47.536 50.868 44 52ZM28.75 53.732C31.087 53.943 34.912 53.943 37.25 53.732C39.587 53.522 37.675 53.349 33 53.349C28.325 53.349 26.412 53.522 28.75 53.732Z" fill="#B0AEAE"/>
<path fill-rule="evenodd" clip-rule="evenodd" d="M10.074 11.411C9.337 12.299 9.266 13.046 9.882 13.427C10.421 13.76 11.144 13.575 11.49 13.016C11.835 12.457 11.754 11.955 11.309 11.9C10.864 11.845 11.625 11.44 13 11C15.247 10.28 15.285 10.189 13.372 10.1C12.202 10.045 10.718 10.635 10.074 11.411ZM52.813 10.683C53.534 10.972 54.397 10.936 54.729 10.604C55.061 10.272 54.471 10.036 53.417 10.079C52.252 10.127 52.015 10.364 52.813 10.683ZM15.222 11.842C14.286 12.435 14.577 12.942 16.305 13.729C18.132 14.561 18.667 14.509 18.667 13.498C18.667 12.748 18.029 12.436 17.169 12.765C16.196 13.139 15.925 12.93 16.395 12.17C17.241 10.802 16.977 10.728 15.222 11.842ZM49.612 12.181C50.074 12.929 49.797 13.136 48.831 12.765C47.956 12.43 47.333 12.753 47.333 13.541C47.333 14.589 47.8 14.65 49.417 13.811C52.285 12.322 52.284 12.323 50.491 11.635C49.44 11.232 49.14 11.418 49.612 12.181ZM54.564 13.104C54.88 13.615 55.575 13.763 56.109 13.433C56.695 13.07 56.857 13.955 56.517 15.666C55.981 18.366 56.003 18.387 56.998 16.105C57.573 14.787 57.795 13.462 57.493 13.159C56.522 12.189 53.969 12.141 54.564 13.104ZM20.094 13.676C20.172 14.129 20.184 15.32 20.118 16.323C20.007 18.03 19.833 18.014 17.365 16.073C14.597 13.895 12 13.348 12 14.941C12 15.459 12.45 16.16 13 16.5C14.309 17.309 14.28 21.608 12.95 24.094C12.372 25.173 11.472 25.792 10.95 25.469C9.9 24.82 9.635 26.301 10.624 27.291C10.967 27.634 12.077 26.922 13.091 25.707C14.104 24.493 14.948 23.907 14.967 24.405C14.985 24.903 15.851 24.54 16.892 23.598C18.023 22.574 18.577 21.1 18.271 19.928C17.881 18.438 18.145 18.118 19.374 18.59C20.262 18.931 20.712 19.657 20.374 20.205C20.016 20.782 20.62 20.738 21.814 20.1C24.8 18.502 26 18.743 26 20.941C26 22.687 27.698 24.726 28.423 23.85C28.582 23.658 29.001 21.989 29.353 20.142C30.038 16.55 29.87 16.509 22.885 18.572C21.656 18.935 21.336 18.447 21.546 16.529C21.698 15.143 21.402 13.748 20.887 13.43C20.372 13.112 20.015 13.222 20.094 13.676ZM44.696 13.75C44.464 14.162 44.363 15.519 44.471 16.765C44.624 18.522 44.257 18.914 42.834 18.515C41.825 18.232 40.1 17.745 39 17.433C37.41 16.981 37.003 17.34 37.015 19.183C37.024 20.457 37.474 22.175 38.015 23C38.891 24.333 39.109 24.333 39.985 23C40.526 22.175 40.976 20.938 40.985 20.25C41.004 18.708 41.535 18.69 44.316 20.135C45.517 20.76 46.178 20.925 45.784 20.503C45.39 20.08 46.136 18.894 47.442 17.867C50.811 15.217 51.495 15.555 49.051 18.662L46.957 21.325L49.213 23.912C50.455 25.336 51.841 26.95 52.294 27.5C52.748 28.05 52.8 27.6 52.412 26.5C51.762 24.662 51.882 24.682 53.891 26.75C56.642 29.58 57.455 29.635 55.785 26.878C52.603 21.624 52.029 20.395 52.015 18.809C52.007 17.879 52.45 16.84 53 16.5C53.55 16.16 54 15.459 54 14.941C54 13.348 51.403 13.895 48.635 16.073C46.167 18.014 45.993 18.03 45.882 16.323C45.816 15.32 45.816 14.162 45.882 13.75C45.947 13.338 45.802 13 45.559 13C45.316 13 44.928 13.338 44.696 13.75ZM8.5 20.006C8.5 23.199 8.831 25.292 9.235 24.656C10.201 23.136 10.213 15.249 9.25 14.658C8.838 14.405 8.5 16.812 8.5 20.006ZM16.559 16.468C17.626 17.276 18.05 17.936 17.5 17.936C16.95 17.936 15.626 17.276 14.559 16.468C13.491 15.661 13.068 15 13.618 15C14.168 15 15.491 15.661 16.559 16.468ZM30.25 15.716C31.762 15.945 34.237 15.945 35.75 15.716C37.263 15.487 36.025 15.3 33 15.3C29.975 15.3 28.738 15.487 30.25 15.716ZM31 19.935C31 23.455 32.792 28.541 33.709 27.624C34.068 27.265 34.65 24.728 35.002 21.986C35.609 17.253 35.524 17 33.321 17C31.42 17 31 17.531 31 19.935ZM16.98 22.524C16.284 23.362 15.509 23.842 15.257 23.591C14.564 22.897 15.973 21 17.181 21C17.845 21 17.769 21.574 16.98 22.524ZM51.02 22.524C52.952 24.853 51.574 25.291 49.506 23.006C48.507 21.903 48.155 21 48.723 21C49.29 21 50.324 21.686 51.02 22.524ZM56.015 22.583C56.024 23.637 56.487 25.175 57.046 26C57.787 27.095 57.88 26.691 57.39 24.5C56.567 20.823 55.995 20.025 56.015 22.583ZM12.954 28.086C12.34 29.233 12.026 30.36 12.257 30.59C12.487 30.82 13.189 29.882 13.816 28.504C15.194 25.48 14.523 25.154 12.954 28.086ZM25.25 29.08C27.729 30.524 27.425 32.978 24.75 33.116C23.038 33.204 22.921 33.342 24.262 33.692C25.29 33.96 25.731 34.641 25.32 35.326C24.927 35.982 25.363 35.894 26.308 35.128C29.05 32.903 27.819 27.936 24.55 28.03C23.973 28.047 24.288 28.519 25.25 29.08ZM39.2 29.2C37.642 30.758 37.666 33.482 39.25 34.777C40.124 35.492 40.888 35.379 41.789 34.4C43.054 33.027 42.314 32.477 39.75 32.882C38.247 33.119 39.048 30.071 40.75 29.08C41.712 28.519 42.027 28.047 41.45 28.03C40.873 28.014 39.86 28.54 39.2 29.2ZM44.211 29.399C44.92 30.169 45.658 30.649 45.85 30.466C46.443 29.902 44.94 28 43.902 28C43.362 28 43.501 28.63 44.211 29.399ZM10.391 31.5C10.678 32.6 11.045 36.268 11.206 39.651C11.368 43.034 11.777 45.632 12.116 45.425C12.849 44.976 15.863 48.136 15.845 49.333C15.839 49.792 16.168 50.467 16.577 50.833C16.986 51.2 16.95 50.861 16.496 50.08C15.855 48.975 16.097 48.834 17.586 49.446C22.448 51.441 28.175 52.151 36.033 51.731C44.489 51.28 49.337 49.709 51.936 46.577C52.646 45.722 53.62 45.265 54.102 45.563C54.583 45.86 54.681 45.332 54.319 44.388C53.954 43.438 54.071 42.927 54.58 43.243C55.121 43.579 55.302 41.278 55.019 37.657C54.558 31.754 54.525 31.69 54.22 36.11C53.637 44.554 47.436 48 32.819 48C18.98 48 12.013 44.18 11.985 36.576C11.976 34.334 11.497 31.825 10.919 31C10.065 29.78 9.967 29.874 10.391 31.5ZM20 33.902C20 34.94 21.902 36.443 22.466 35.85C22.649 35.658 22.169 34.92 21.399 34.211C20.63 33.501 20 33.362 20 33.902ZM44.211 34.601C43.501 35.37 43.362 36 43.902 36C44.94 36 46.443 34.098 45.85 33.534C45.658 33.351 44.92 33.831 44.211 34.601ZM56.272 37C56.272 39.475 56.467 40.487 56.706 39.25C56.944 38.013 56.944 35.987 56.706 34.75C56.467 33.513 56.272 34.525 56.272 37ZM9.232 37C9.232 38.925 9.438 39.712 9.689 38.75C9.941 37.788 9.941 36.212 9.689 35.25C9.438 34.288 9.232 35.075 9.232 37ZM31.75 36.662C32.438 36.94 33.563 36.94 34.25 36.662C34.938 36.385 34.375 36.158 33 36.158C31.625 36.158 31.063 36.385 31.75 36.662ZM30.57 38.887C30.269 39.374 30.692 40.329 31.511 41.009C32.693 41.99 33.307 41.99 34.489 41.009C35.308 40.329 35.731 39.374 35.43 38.887C34.72 37.738 31.28 37.738 30.57 38.887ZM35.543 42.197C33.856 45.052 33.843 45.274 35.397 44.678C36.409 44.29 36.855 44.425 36.493 45.011C36.157 45.555 34.446 45.993 32.691 45.985C30.729 45.975 29.981 45.664 30.75 45.176C31.723 44.558 31.651 43.952 30.426 42.441C29.56 41.373 29.117 41.031 29.442 41.681C29.767 42.33 29.553 43.158 28.968 43.52C27.187 44.621 29.944 47 33 47C36.091 47 39.454 43.996 37.208 43.24C36.205 42.903 36.181 42.487 37.101 41.379C37.752 40.594 38.085 39.751 37.84 39.507C37.595 39.262 36.561 40.473 35.543 42.197ZM21.813 52.683C22.534 52.972 23.397 52.936 23.729 52.604C24.061 52.272 23.471 52.036 22.417 52.079C21.252 52.127 21.015 52.364 21.813 52.683ZM42.813 52.683C43.534 52.972 44.397 52.936 44.729 52.604C45.061 52.272 44.471 52.036 43.417 52.079C42.252 52.127 42.015 52.364 42.813 52.683ZM30.25 53.716C31.762 53.945 34.237 53.945 35.75 53.716C37.263 53.487 36.025 53.3 33 53.3C29.975 53.3 28.738 53.487 30.25 53.716Z" fill="#908F8F"/>
<path fill-rule="evenodd" clip-rule="evenodd" d="M8.564 15.293C8.94 16.279 9.499 16.834 9.807 16.526C10.115 16.219 9.808 15.412 9.124 14.733C8.136 13.753 8.022 13.868 8.564 15.293ZM44.333 15.456C44.333 16.257 44.716 16.676 45.183 16.387C45.65 16.098 45.774 15.443 45.457 14.931C44.649 13.623 44.333 13.77 44.333 15.456ZM52.51 15.015C53.109 15.985 52.868 16.164 51.612 15.681C50.663 15.317 50.15 15.434 50.464 15.942C50.777 16.448 50.578 17.143 50.022 17.487C48.071 18.692 46.921 21.833 48.152 22.594C48.905 23.059 49.037 22.868 48.529 22.047C47.956 21.119 48.312 20.964 49.875 21.46C51.633 22.018 52 21.726 52 19.767C52 18.465 52.489 16.911 53.087 16.313C53.87 15.53 53.827 15.011 52.933 14.458C52.075 13.929 51.944 14.101 52.51 15.015ZM14.384 16.442C13.375 19.07 14.464 21.519 16.482 21.161C18.118 20.871 18.204 21.049 17.083 22.4C16.363 23.268 15.405 23.751 14.956 23.473C14.506 23.195 13.88 23.385 13.564 23.896C12.759 25.2 15.491 24.668 17.296 23.169C18.165 22.448 18.566 21.055 18.25 19.85C17.765 17.995 17.937 17.896 19.854 18.922C22.856 20.529 22.536 19.581 19.377 17.511C17.934 16.566 17.097 16.348 17.516 17.026C18.014 17.832 17.797 18.084 16.889 17.755C16.125 17.477 15.613 16.744 15.75 16.125C16.113 14.494 15.036 14.743 14.384 16.442ZM30.75 15.706C31.988 15.944 34.013 15.944 35.25 15.706C36.487 15.467 35.475 15.272 33 15.272C30.525 15.272 29.512 15.467 30.75 15.706ZM45.441 18.555C43.577 20.049 43.589 20.067 45.75 19.02C46.987 18.42 48 17.72 48 17.465C48 16.7 47.481 16.921 45.441 18.555ZM56 23.941C56 24.459 56.445 25.157 56.989 25.493C57.555 25.843 57.723 25.442 57.382 24.552C56.717 22.82 56 22.503 56 23.941ZM50.613 25.183C50.902 25.65 51.557 25.774 52.069 25.457C53.377 24.649 53.23 24.333 51.544 24.333C50.743 24.333 50.324 24.716 50.613 25.183ZM54 27.393C54 27.609 54.698 28.054 55.552 28.382C56.442 28.723 56.843 28.555 56.493 27.989C55.906 27.038 54 26.583 54 27.393ZM25.25 29.08C27.729 30.524 27.425 32.978 24.75 33.116C23.038 33.204 22.921 33.342 24.262 33.692C25.29 33.96 25.731 34.641 25.32 35.326C24.927 35.982 25.363 35.894 26.308 35.128C29.05 32.903 27.819 27.936 24.55 28.03C23.973 28.047 24.288 28.519 25.25 29.08ZM10.031 30.5C10.031 31.05 10.467 32.175 11 33C11.533 33.825 11.969 34.05 11.969 33.5C11.969 32.95 11.533 31.825 11 31C10.467 30.175 10.031 29.95 10.031 30.5ZM38 31.642C38 32.179 38.7 33.491 39.555 34.559C41.022 36.389 41.042 36.357 39.92 34C38.462 30.939 38 30.372 38 31.642ZM56.158 37C56.158 38.375 56.385 38.938 56.662 38.25C56.94 37.563 56.94 36.438 56.662 35.75C56.385 35.063 56.158 35.625 56.158 37ZM30.57 38.887C30.269 39.374 30.692 40.329 31.511 41.009C32.693 41.99 33.307 41.99 34.489 41.009C35.308 40.329 35.731 39.374 35.43 38.887C34.72 37.738 31.28 37.738 30.57 38.887ZM54 41.941C54 42.459 54.445 43.157 54.989 43.493C55.555 43.843 55.723 43.442 55.382 42.552C54.717 40.82 54 40.503 54 41.941ZM29.333 44.456C29.333 45.257 29.716 45.676 30.183 45.387C30.65 45.098 30.774 44.443 30.457 43.931C29.649 42.623 29.333 42.77 29.333 44.456ZM35.543 43.931C35.226 44.443 35.35 45.098 35.817 45.387C36.284 45.676 36.667 45.257 36.667 44.456C36.667 42.77 36.351 42.623 35.543 43.931ZM11.603 44.833C11.32 45.292 11.723 45.667 12.5 45.667C13.277 45.667 13.68 45.292 13.397 44.833C13.114 44.375 12.71 44 12.5 44C12.29 44 11.886 44.375 11.603 44.833ZM19.507 50.989C19.157 51.555 19.558 51.723 20.448 51.382C22.18 50.717 22.497 50 21.059 50C20.541 50 19.843 50.445 19.507 50.989ZM44 50.393C44 50.609 44.698 51.054 45.552 51.382C46.442 51.723 46.843 51.555 46.493 50.989C45.906 50.038 44 49.583 44 50.393ZM25.75 51.662C26.438 51.94 27.563 51.94 28.25 51.662C28.938 51.385 28.375 51.158 27 51.158C25.625 51.158 25.063 51.385 25.75 51.662ZM37.75 51.662C38.438 51.94 39.563 51.94 40.25 51.662C40.938 51.385 40.375 51.158 39 51.158C37.625 51.158 37.063 51.385 37.75 51.662Z" fill="#B8798A"/>
<path fill-rule="evenodd" clip-rule="evenodd" d="M8.564 15.293C8.94 16.279 9.499 16.834 9.807 16.526C10.115 16.219 9.808 15.412 9.124 14.733C8.136 13.753 8.022 13.868 8.564 15.293ZM44.333 15.456C44.333 16.257 44.716 16.676 45.183 16.387C45.65 16.098 45.774 15.443 45.457 14.931C44.649 13.623 44.333 13.77 44.333 15.456ZM30.75 15.706C31.988 15.944 34.013 15.944 35.25 15.706C36.487 15.467 35.475 15.272 33 15.272C30.525 15.272 29.512 15.467 30.75 15.706ZM17.333 17.586C17.333 18.364 17.543 18.791 17.798 18.535C18.054 18.28 19.104 18.52 20.131 19.07C22.779 20.487 22.453 19.527 19.667 17.701C17.71 16.419 17.333 16.401 17.333 17.586ZM45.441 18.555C43.577 20.049 43.589 20.067 45.75 19.02C46.987 18.42 48 17.72 48 17.465C48 16.7 47.481 16.921 45.441 18.555ZM17.334 20.732C17.95 21.729 15.153 24.857 14.263 24.167C14.027 23.983 13.646 24.021 13.417 24.25C13.187 24.479 13.673 24.667 14.496 24.667C16.781 24.667 19.434 21.386 17.911 20.445C17.179 19.993 16.949 20.108 17.334 20.732ZM47.543 20.931C47.226 21.443 47.35 22.098 47.817 22.387C48.284 22.676 48.667 22.257 48.667 21.456C48.667 19.77 48.351 19.623 47.543 20.931ZM56 23.941C56 24.459 56.445 25.157 56.989 25.493C57.555 25.843 57.723 25.442 57.382 24.552C56.717 22.82 56 22.503 56 23.941ZM50.613 25.183C50.902 25.65 51.557 25.774 52.069 25.457C53.377 24.649 53.23 24.333 51.544 24.333C50.743 24.333 50.324 24.716 50.613 25.183ZM54 27.393C54 27.609 54.698 28.054 55.552 28.382C56.442 28.723 56.843 28.555 56.493 27.989C55.906 27.038 54 26.583 54 27.393ZM25.25 29.08C27.729 30.524 27.425 32.978 24.75 33.116C23.038 33.204 22.921 33.342 24.262 33.692C25.29 33.96 25.731 34.641 25.32 35.326C24.927 35.982 25.363 35.894 26.308 35.128C29.05 32.903 27.819 27.936 24.55 28.03C23.973 28.047 24.288 28.519 25.25 29.08ZM10.031 30.5C10.031 31.05 10.467 32.175 11 33C11.533 33.825 11.969 34.05 11.969 33.5C11.969 32.95 11.533 31.825 11 31C10.467 30.175 10.031 29.95 10.031 30.5ZM38 31.642C38 32.179 38.7 33.491 39.555 34.559C41.022 36.389 41.042 36.357 39.92 34C38.462 30.939 38 30.372 38 31.642ZM56.158 37C56.158 38.375 56.385 38.938 56.662 38.25C56.94 37.563 56.94 36.438 56.662 35.75C56.385 35.063 56.158 35.625 56.158 37ZM54 41.941C54 42.459 54.445 43.157 54.989 43.493C55.555 43.843 55.723 43.442 55.382 42.552C54.717 40.82 54 40.503 54 41.941ZM29.333 44.456C29.333 45.257 29.716 45.676 30.183 45.387C30.65 45.098 30.774 44.443 30.457 43.931C29.649 42.623 29.333 42.77 29.333 44.456ZM35.543 43.931C35.226 44.443 35.35 45.098 35.817 45.387C36.284 45.676 36.667 45.257 36.667 44.456C36.667 42.77 36.351 42.623 35.543 43.931ZM11.603 44.833C11.32 45.292 11.723 45.667 12.5 45.667C13.277 45.667 13.68 45.292 13.397 44.833C13.114 44.375 12.71 44 12.5 44C12.29 44 11.886 44.375 11.603 44.833ZM19.507 50.989C19.157 51.555 19.558 51.723 20.448 51.382C22.18 50.717 22.497 50 21.059 50C20.541 50 19.843 50.445 19.507 50.989ZM44 50.393C44 50.609 44.698 51.054 45.552 51.382C46.442 51.723 46.843 51.555 46.493 50.989C45.906 50.038 44 49.583 44 50.393ZM25.75 51.662C26.438 51.94 27.563 51.94 28.25 51.662C28.938 51.385 28.375 51.158 27 51.158C25.625 51.158 25.063 51.385 25.75 51.662ZM37.75 51.662C38.438 51.94 39.563 51.94 40.25 51.662C40.938 51.385 40.375 51.158 39 51.158C37.625 51.158 37.063 51.385 37.75 51.662Z" fill="white"/>
<path fill-rule="evenodd" clip-rule="evenodd" d="M8.564 15.293C8.94 16.279 9.499 16.834 9.807 16.526C10.115 16.219 9.808 15.412 9.124 14.733C8.136 13.753 8.022 13.868 8.564 15.293ZM44.333 15.456C44.333 16.257 44.716 16.676 45.183 16.387C45.65 16.098 45.774 15.443 45.457 14.931C44.649 13.623 44.333 13.77 44.333 15.456ZM30.75 15.706C31.988 15.944 34.013 15.944 35.25 15.706C36.487 15.467 35.475 15.272 33 15.272C30.525 15.272 29.512 15.467 30.75 15.706ZM17.333 17.586C17.333 18.364 17.543 18.791 17.798 18.535C18.054 18.28 19.104 18.52 20.131 19.07C22.779 20.487 22.453 19.527 19.667 17.701C17.71 16.419 17.333 16.401 17.333 17.586ZM45.441 18.555C43.577 20.049 43.589 20.067 45.75 19.02C46.987 18.42 48 17.72 48 17.465C48 16.7 47.481 16.921 45.441 18.555ZM17.334 20.732C17.95 21.729 15.153 24.857 14.263 24.167C14.027 23.983 13.646 24.021 13.417 24.25C13.187 24.479 13.673 24.667 14.496 24.667C16.781 24.667 19.434 21.386 17.911 20.445C17.179 19.993 16.949 20.108 17.334 20.732ZM47.543 20.931C47.226 21.443 47.35 22.098 47.817 22.387C48.284 22.676 48.667 22.257 48.667 21.456C48.667 19.77 48.351 19.623 47.543 20.931ZM56 23.941C56 24.459 56.445 25.157 56.989 25.493C57.555 25.843 57.723 25.442 57.382 24.552C56.717 22.82 56 22.503 56 23.941ZM50.613 25.183C50.902 25.65 51.557 25.774 52.069 25.457C53.377 24.649 53.23 24.333 51.544 24.333C50.743 24.333 50.324 24.716 50.613 25.183ZM54 27.393C54 27.609 54.698 28.054 55.552 28.382C56.442 28.723 56.843 28.555 56.493 27.989C55.906 27.038 54 26.583 54 27.393ZM25.519 29.39C27.19 30.612 27.267 31.118 26.155 33.559C25.026 36.038 25.057 36.198 26.445 35.046C29.032 32.898 27.756 28 24.609 28C24.064 28 24.473 28.626 25.519 29.39ZM10.031 30.5C10.031 31.05 10.467 32.175 11 33C11.533 33.825 11.969 34.05 11.969 33.5C11.969 32.95 11.533 31.825 11 31C10.467 30.175 10.031 29.95 10.031 30.5ZM38 31.642C38 32.179 38.7 33.491 39.555 34.559C41.022 36.389 41.042 36.357 39.92 34C38.462 30.939 38 30.372 38 31.642ZM56.158 37C56.158 38.375 56.385 38.938 56.662 38.25C56.94 37.563 56.94 36.438 56.662 35.75C56.385 35.063 56.158 35.625 56.158 37ZM54 41.941C54 42.459 54.445 43.157 54.989 43.493C55.555 43.843 55.723 43.442 55.382 42.552C54.717 40.82 54 40.503 54 41.941ZM29.333 44.456C29.333 45.257 29.716 45.676 30.183 45.387C30.65 45.098 30.774 44.443 30.457 43.931C29.649 42.623 29.333 42.77 29.333 44.456ZM35.543 43.931C35.226 44.443 35.35 45.098 35.817 45.387C36.284 45.676 36.667 45.257 36.667 44.456C36.667 42.77 36.351 42.623 35.543 43.931ZM11.603 44.833C11.32 45.292 11.723 45.667 12.5 45.667C13.277 45.667 13.68 45.292 13.397 44.833C13.114 44.375 12.71 44 12.5 44C12.29 44 11.886 44.375 11.603 44.833ZM19.507 50.989C19.157 51.555 19.558 51.723 20.448 51.382C22.18 50.717 22.497 50 21.059 50C20.541 50 19.843 50.445 19.507 50.989ZM44 50.393C44 50.609 44.698 51.054 45.552 51.382C46.442 51.723 46.843 51.555 46.493 50.989C45.906 50.038 44 49.583 44 50.393ZM25.75 51.662C26.438 51.94 27.563 51.94 28.25 51.662C28.938 51.385 28.375 51.158 27 51.158C25.625 51.158 25.063 51.385 25.75 51.662ZM37.75 51.662C38.438 51.94 39.563 51.94 40.25 51.662C40.938 51.385 40.375 51.158 39 51.158C37.625 51.158 37.063 51.385 37.75 51.662Z" fill="#525252"/>
</svg>
