<svg width="64" height="65" viewBox="0 0 64 65" fill="none" xmlns="http://www.w3.org/2000/svg">
<path fill-rule="evenodd" clip-rule="evenodd" d="M0 32V64H32H64V32V0H32H0V32Z" fill="#E3E3E3"/>
<path fill-rule="evenodd" clip-rule="evenodd" d="M0 32V64H21.559C35.677 64 42.905 63.655 42.5 63C42.16 62.45 42.385 62 43 62C43.615 62 43.84 61.55 43.5 61C43.16 60.45 43.356 60 43.935 60C45.047 60 44.929 57.279 43.734 55.366C43.305 54.68 44.18 53.754 45.945 53.023C49.429 51.58 49.006 49 45.286 49C43.514 49 42.948 49.422 43.342 50.449C44.035 52.256 41.398 51.466 38.5 49C34.957 45.985 34.144 45.822 34.739 48.249C35.246 50.316 35.11 50.275 33.073 47.75C31.853 46.237 30.282 45 29.582 45C28.883 45 27.495 44.1 26.5 43C25.116 41.471 25.021 40.996 26.095 40.985C27.238 40.972 27.22 40.789 26 40C25.175 39.467 22.813 39.024 20.75 39.015C16.817 38.999 15.883 37.304 17.985 34C18.711 32.86 18.408 32.369 16.725 31.956C14.242 31.346 13.133 28.217 15.176 27.584C15.904 27.359 20.738 26.188 25.917 24.983L35.335 22.792L36.917 24.845C37.788 25.974 39.837 27.397 41.47 28.008C43.982 28.946 44.657 28.839 45.842 27.309C47.108 25.675 47.187 25.81 46.654 28.711C46.331 30.477 46.508 32.196 47.049 32.53C47.59 32.865 47.774 33.557 47.457 34.069C46.909 34.956 48.752 35.38 52 35.114C52.958 35.036 52.687 35.579 51.25 36.618C48.346 38.716 48.409 40.81 51.5 45C52.875 46.864 54 48.803 54 49.31C54 50.335 62.908 64 63.577 64C63.81 64 64 49.6 64 32V0H32H0V32ZM24 14C24 14.55 23.802 15 23.559 15C23.316 15 22.84 14.55 22.5 14C22.16 13.45 22.359 13 22.941 13C23.523 13 24 13.45 24 14ZM54.8 26.2C56.52 27.92 56.279 31.525 54.336 33.128C52.854 34.351 52.775 34.282 53.612 32.5C54.958 29.632 54.714 27.063 52.991 25.973C52.171 25.455 51.973 25.024 52.55 25.015C53.127 25.007 54.14 25.54 54.8 26.2ZM32.459 29.067C31.842 30.065 34.594 32.898 36.25 32.968C37.425 33.018 37.128 30.528 35.8 29.2C34.318 27.718 33.317 27.678 32.459 29.067Z" fill="#C1C1C1"/>
<path fill-rule="evenodd" clip-rule="evenodd" d="M0 32.096V64.191L11.998 63.846C18.598 63.655 23.998 63.107 23.998 62.628C23.999 62.148 24.624 62.273 25.388 62.907C26.953 64.206 38 64.152 38 62.846C38 62.381 38.9 62 40 62C42.109 62 42.691 60.545 41 59.5C40.45 59.16 40 58.432 40 57.882C40 57.332 40.45 57.16 41 57.5C41.55 57.84 42 57.224 42 56.132C42 54.266 37.291 51.001 34.596 50.999C33.993 50.999 31.731 49.424 29.568 47.499C27.406 45.575 25.221 44 24.712 44C24.204 44 22.099 42.662 20.034 41.027C17.969 39.391 15.992 38.341 15.64 38.693C15.288 39.045 15 38.835 15 38.226C15 37.616 15.45 36.84 16 36.5C17.246 35.73 17.242 34.915 15.985 33C15.109 31.667 14.891 31.667 14.015 33C13.179 34.273 13.028 34.226 13.015 32.684C12.987 29.325 14.922 27.237 18.723 26.527C20.8 26.139 23.043 25.373 23.706 24.824C24.37 24.276 25.382 24.118 25.956 24.473C26.53 24.828 27.562 24.765 28.25 24.334C28.938 23.903 30.614 23.398 31.975 23.211C33.336 23.024 34.989 22.424 35.648 21.877C36.51 21.162 36.937 21.516 37.173 23.141C37.36 24.431 38.92 26.226 40.815 27.329C44.122 29.255 44.133 29.255 45.622 27.13C46.711 25.575 48.168 25 51.022 25C58.063 25 58.507 30.871 51.888 36.441C48.661 39.156 48.633 39.25 50.284 41.852C51.208 43.308 52.679 46.023 53.552 47.885C55.396 51.816 62.985 64 63.59 64C63.815 64 64 49.6 64 32V0H32H0V32.096ZM34.743 9.25C35.286 9.938 35.965 12.525 36.253 15C36.541 17.475 36.564 18.938 36.305 18.25C36.046 17.563 35.435 17 34.948 17C34.461 17 34.322 17.675 34.638 18.5C34.955 19.325 34.736 20 34.152 20C33.568 20 32.821 18.313 32.492 16.25C31.756 11.644 30.559 9.412 29.019 9.775C28.377 9.926 28.136 9.588 28.485 9.025C29.37 7.593 33.553 7.744 34.743 9.25ZM24 13.5C24 14.325 23.55 15 23 15C22.45 15 22 14.325 22 13.5C22 12.675 22.45 12 23 12C23.55 12 24 12.675 24 13.5ZM26.456 20.928C27.121 22.005 23.167 23.501 22.204 22.537C21.848 22.182 22.22 21.473 23.029 20.961C24.903 19.776 25.738 19.768 26.456 20.928ZM47.584 29.641C47.057 31.014 47.204 31.076 48.477 30.019C50.212 28.579 50.393 28 49.107 28C48.616 28 47.931 28.739 47.584 29.641ZM32.92 30.404C34.486 32.291 37.348 32.549 36.755 30.75C36.529 30.063 35.275 29.344 33.97 29.154C31.897 28.852 31.764 29.01 32.92 30.404Z" fill="#A2A2A2"/>
<path fill-rule="evenodd" clip-rule="evenodd" d="M0 32V64H9H18V60.559C18 58.666 18.45 56.84 19 56.5C19.55 56.16 20 56.411 20 57.058C20 57.772 20.98 58.046 22.5 57.755C24.805 57.315 25.505 58.024 25.079 60.368C24.992 60.846 26.175 60.922 27.709 60.537C31.041 59.701 31.955 58.889 30.25 58.28C29.562 58.034 29 57.351 29 56.762C29 56.172 29.838 56.448 30.862 57.375C31.886 58.302 34.123 59.237 35.834 59.454C37.544 59.67 39.463 60.168 40.098 60.561C41.365 61.343 41.123 60.89 37 54.749C34.659 51.262 32 49.783 32 51.969C32 52.501 31.312 52.673 30.47 52.35C29.57 52.005 29.164 51.058 29.484 50.049C30.117 48.057 27.858 45.866 23.322 44.073C21.575 43.382 19.395 41.989 18.478 40.976C17.562 39.963 16.179 39.378 15.406 39.674C13.538 40.391 13.578 37.596 15.458 36.035C16.603 35.085 16.656 34.544 15.708 33.517C14.72 32.446 14.376 32.508 13.82 33.854C13.316 35.075 13.126 34.854 13.086 33C12.999 29.041 14.348 27.852 21.6 25.502C25.34 24.291 28.585 22.744 28.811 22.066C29.1 21.201 28.332 21.294 26.238 22.377C22.887 24.11 22 23.696 22 20.4C22 18.535 22.526 18.149 24.966 18.218C26.597 18.264 27.695 18.684 27.407 19.151C27.118 19.618 27.636 20 28.558 20C29.741 20 30.08 19.412 29.71 18C29.213 16.097 30.365 15.163 31.253 16.75C31.483 17.163 31.521 16.901 31.336 16.168C31.151 15.436 31 13.778 31 12.485C31 10.675 30.366 10.048 28.25 9.764C25.688 9.421 25.755 9.341 29.242 8.588C31.301 8.144 33.615 8.022 34.386 8.318C35.695 8.82 37.725 19.574 37.123 22.824C36.48 26.299 43.057 29.159 45.868 26.626C48.873 23.919 52.623 23.623 54.913 25.913C57.884 28.884 57.546 30.452 52.839 35.559L48.678 40.073L50.671 42.787C51.767 44.279 53.811 47.792 55.212 50.592C56.613 53.393 59.163 57.623 60.88 59.992L64 64.3V32.15V0H32H0V32ZM24.554 13.087C24.923 13.685 24.706 14.694 24.071 15.329C23.199 16.201 22.699 16.131 22.024 15.039C21.071 13.497 21.552 12 23 12C23.485 12 24.184 12.489 24.554 13.087ZM30.459 21.067C29.445 22.707 30.641 23.307 33.494 22.591C34.917 22.234 35.812 21.505 35.482 20.971C34.677 19.669 31.283 19.734 30.459 21.067ZM34.262 30.69C35.192 31.62 36.288 32.046 36.697 31.636C37.107 31.226 36.78 30.473 35.971 29.961C33.536 28.421 32.455 28.883 34.262 30.69ZM39 54.941C39 55.459 39.445 56.157 39.989 56.493C40.555 56.843 40.723 56.442 40.382 55.552C39.717 53.82 39 53.503 39 54.941Z" fill="#888888"/>
<path fill-rule="evenodd" clip-rule="evenodd" d="M0 32.039V64.078L8.743 63.789L17.486 63.5L18.331 58.176C18.986 54.051 18.853 52.475 17.74 51.176C15.869 48.992 15.052 46.752 13.546 39.672C12.229 33.478 12.52 29.438 14.369 28.235C14.991 27.831 17.075 27.015 19 26.422C20.925 25.83 22.381 24.797 22.235 24.128C22.089 23.458 21.928 21.693 21.875 20.205C21.689 14.882 20.849 11.976 19.669 12.565C19.026 12.886 19.374 12.44 20.441 11.574C22.615 9.812 24.447 9.468 23.5 11C23.16 11.55 23.359 12 23.941 12C24.523 12 25 13.097 25 14.438C25 16.259 25.506 16.838 27 16.725C29.765 16.517 29.765 12.013 27 11.29C23.892 10.477 24.625 9.338 28.966 8.237C31.794 7.519 33.363 7.556 34.432 8.365C36.038 9.581 38.054 20.076 37.263 23.103C36.914 24.436 37.736 25.383 40.303 26.608C43.695 28.225 43.92 28.208 46.546 26.143C49.782 23.597 51.777 23.455 54.777 25.557C58.031 27.836 57.518 30.482 52.839 35.559L48.678 40.073L50.72 42.835C51.843 44.355 53.917 47.826 55.327 50.549C56.738 53.272 59.265 57.525 60.942 60L63.991 64.5L63.996 32.25L64 0H32H0V32.039ZM30.459 21.067C29.5 22.619 30.148 22.891 33.342 22.278C35.389 21.884 35.809 21.494 34.842 20.881C33.003 19.716 31.248 19.79 30.459 21.067ZM27.02 22.476C26.231 23.426 26.155 24 26.819 24C28.027 24 29.436 22.103 28.743 21.409C28.491 21.158 27.716 21.638 27.02 22.476ZM35 31C35 31.55 35.477 32 36.059 32C36.641 32 36.84 31.55 36.5 31C36.16 30.45 35.684 30 35.441 30C35.198 30 35 30.45 35 31ZM14 35C14 35.55 14.45 36 15 36C15.55 36 16 35.55 16 35C16 34.45 15.55 34 15 34C14.45 34 14 34.45 14 35ZM15.638 40.501C14.065 44.599 22.831 54.528 28.618 55.204C32.657 55.675 33.071 54.358 29.331 52.936C25.2 51.365 22.383 47 25.5 47C27.898 47 27.232 45.275 24.577 44.609C23.244 44.274 20.817 42.876 19.184 41.501C16.751 39.454 16.109 39.273 15.638 40.501ZM35 57C36.958 58.266 38.282 58.266 37.5 57C37.16 56.45 36.121 56.007 35.191 56.015C33.734 56.029 33.707 56.165 35 57Z" fill="#6C6C6C"/>
<path fill-rule="evenodd" clip-rule="evenodd" d="M0 32V64H8.273H16.545L17.602 59.447C18.363 56.167 18.345 54.28 17.54 52.697C15.473 48.634 13.154 41.533 12.477 37.193C11.457 30.655 13.141 27.645 18.643 26.173C22.03 25.267 22.952 24.637 22.221 23.726C21.68 23.052 21.006 20.925 20.723 19C20.44 17.075 19.902 14.556 19.528 13.403C18.791 11.134 20.097 10.356 28.799 7.878C32.665 6.777 33.291 6.848 35.004 8.577C36.755 10.344 37.151 12.568 37.958 25.152C37.981 25.511 39.426 26.302 41.169 26.909C43.905 27.863 44.594 27.74 46.208 26.007C49.86 22.087 57 24.537 57 29.711C57 30.841 55.204 33.561 53.009 35.756L49.018 39.747L51.308 43.123C52.567 44.981 54.852 48.975 56.386 52C57.92 55.025 60.259 58.85 61.583 60.5L63.99 63.5L63.995 31.75L64 0H32H0V32ZM30.401 21.16C29.539 22.555 30.158 22.762 33 22.031C35.488 21.39 35.489 21.384 33.251 20.787C32.014 20.458 30.731 20.625 30.401 21.16ZM16.015 41.809C16.044 44.976 19.889 48.364 22.373 47.41C24.824 46.47 24.386 45.608 20 42.736C16.615 40.52 16.002 40.377 16.015 41.809Z" fill="#383838"/>
<path fill-rule="evenodd" clip-rule="evenodd" d="M0 32V64H8.364H16.728L17.369 59.326C17.868 55.686 17.546 53.693 15.915 50.324C13.121 44.553 11.314 33.841 12.55 30.373C13.581 27.481 15.034 26.426 19.186 25.557L21.872 24.994L20.055 18.442C18.239 11.892 18.239 11.89 20.369 10.57C23.383 8.703 31.836 6.813 34.042 7.513C36.369 8.252 37.139 10.65 37.533 18.387C37.818 23.975 38.105 24.655 40.864 26.308C43.811 28.073 43.933 28.067 45.942 26.058C47.074 24.926 49.155 24 50.566 24C57.946 24 59.206 29.552 53.308 36.081C50.251 39.464 49.817 40.454 50.782 41.834C51.424 42.75 53.767 46.875 55.99 51C64.455 66.713 63.952 67.924 63.978 31.75L64 0H32H0V32ZM17.527 43.122C18.339 45.722 19.951 47.148 21.202 46.375C22.533 45.553 22.061 44.59 19.36 42.622L16.784 40.744L17.527 43.122Z" fill="#202020"/>
<path fill-rule="evenodd" clip-rule="evenodd" d="M0 32V64H8.395H16.79L17.246 59.75C17.545 56.956 17.079 54.089 15.885 51.38C11.988 42.542 10.889 32.031 13.476 28.338C14.287 27.18 16.492 25.943 18.376 25.589L21.801 24.947L19.908 18.723C18.867 15.301 18.012 12.169 18.008 11.763C17.995 10.572 24.733 8.104 29.852 7.425C35.989 6.611 36.723 7.555 37.714 17.536C38.45 24.951 38.673 25.516 41.22 26.41C43.331 27.151 44.355 26.988 45.798 25.682C48.107 23.594 54.327 23.484 56.003 25.503C58.313 28.288 57.422 31.983 53.461 36.04L49.672 39.92L52.28 43.71C53.715 45.794 55.328 48.625 55.865 50C56.402 51.375 58.441 54.975 60.395 58L63.949 63.5L63.974 31.75L64 0H32H0V32ZM19 44C19 44.55 19.477 45 20.059 45C20.641 45 20.84 44.55 20.5 44C20.16 43.45 19.684 43 19.441 43C19.198 43 19 43.45 19 44Z" fill="#090909"/>
</svg>
