<svg width="64" height="64" viewBox="0 0 64 64" fill="none" xmlns="http://www.w3.org/2000/svg">
<path fill-rule="evenodd" clip-rule="evenodd" d="M0 32V64H32H64V32V0H32H0V32Z" fill="#00B2F5"/>
<path fill-rule="evenodd" clip-rule="evenodd" d="M0 32V64H32H64V32V0H32H0V32ZM32.612 30.25C29.814 37.037 28.296 39.629 27.552 38.886C26.744 38.078 32.672 25 33.847 25C34.358 25 33.803 27.362 32.612 30.25ZM23.139 35.914C24.438 36.967 25.149 38.18 24.72 38.611C24.291 39.042 22.726 38.18 21.242 36.697C18.162 33.617 19.582 33.03 23.139 35.914Z" fill="white"/>
<path fill-rule="evenodd" clip-rule="evenodd" d="M0 32V64H32H64V32V0H32H0V32ZM22.6 25.765C24.797 27.232 26.174 31.173 25.422 33.843C25.011 35.304 24.751 36.991 24.844 37.591C25.149 39.545 15.545 39.26 13.744 37.262C9.281 32.31 12.019 24.985 18.323 25.015C20.07 25.024 21.995 25.361 22.6 25.765ZM38.069 32.53C39.656 36.364 40.236 38.487 39.356 37.25C37.18 34.19 31.704 34.156 29.58 37.19C26.731 41.257 26.936 38.33 29.973 31.559C31.634 27.859 33.485 24.995 34.087 25.196C34.69 25.397 36.481 28.697 38.069 32.53ZM47.608 30.75L51.5 36.5L52.082 30.5L52.664 24.5L52.832 31.75C52.924 35.737 52.655 39 52.234 39C51.812 39 49.987 36.525 48.178 33.5C46.368 30.475 44.486 28 43.994 28C43.502 28 42.937 30.587 42.739 33.75C42.391 39.295 42.371 39.241 42.189 32.25C42.085 28.262 42.386 25 42.858 25C43.331 25 45.468 27.587 47.608 30.75ZM14.625 27.517C10.792 31.351 13.874 38 19.484 38C22.247 38 22.269 37.955 20.5 36C18.533 33.827 19.084 33.439 21.955 34.976C23.422 35.761 23.891 35.526 24.348 33.776C24.661 32.579 24.37 30.452 23.702 29.05C22.208 25.917 17.09 25.053 14.625 27.517ZM32.761 29.62C31.209 33.486 31.213 33.501 33.693 33.825C37.154 34.277 37.463 33.625 35.783 29.412L34.318 25.739L32.761 29.62Z" fill="#D8D8D8"/>
<path fill-rule="evenodd" clip-rule="evenodd" d="M0 32V64H32H64V32V0H32H0V32ZM21.374 24.952C24.919 26.3 26.309 29.456 25.559 34.457L24.925 38.685L20.049 38.858C16.746 38.975 14.662 38.519 13.588 37.445C9.848 33.706 10.764 26.834 15.242 25.034C18.211 23.841 18.444 23.838 21.374 24.952ZM38.042 31.593C41.355 38.977 41.361 39 40.067 39C39.554 39 38.849 38.1 38.5 37C37.582 34.106 31.651 34.233 29.58 37.19C26.744 41.238 26.93 38.343 29.935 31.644C31.575 27.99 33.404 25 34 25C34.596 25 36.415 27.967 38.042 31.593ZM47.242 29.982C49.034 32.722 50.814 34.972 51.198 34.982C51.581 34.992 52.061 32.638 52.263 29.75C52.58 25.208 52.655 25.478 52.815 31.75C52.917 35.737 52.589 39 52.086 39C51.583 39 49.67 36.638 47.836 33.75L44.5 28.5L44.198 33.75C43.751 41.518 42 40.124 42 32C42 28.036 42.43 25 42.992 25C43.538 25 45.451 27.242 47.242 29.982ZM14.655 27.829C12.168 30.577 12.559 34.665 15.492 36.587C18.618 38.635 21.892 37.779 19.938 35.425C18.814 34.071 18.99 33.959 21.325 34.546C23.773 35.16 24 34.966 24 32.263C24 26.85 18.082 24.042 14.655 27.829ZM32.647 30C31.173 33.45 31.188 33.505 33.667 33.825C37.064 34.264 37.265 33.854 35.586 29.901L34.142 26.5L32.647 30Z" fill="#ABABAB"/>
<path fill-rule="evenodd" clip-rule="evenodd" d="M0 32V64H32H64V32V0H32H0V32ZM23.485 26.167C26.016 28.157 26.191 28.736 25.651 33.302C25.327 36.035 24.865 38.468 24.625 38.708C24.385 38.949 22.081 39.225 19.506 39.323C15.668 39.468 14.479 39.074 12.912 37.139C10.25 33.853 10.475 29.434 13.455 26.455C16.484 23.425 19.875 23.327 23.485 26.167ZM48 30.278L51.5 35.5L51.801 29.722C52.221 21.641 54 23.53 54 32.059C54 40.713 52.559 41.111 47.854 33.759L44.5 28.517L44.198 33.759C43.924 38.502 43.673 39 41.555 39C40.267 39 38.955 38.325 38.638 37.5C37.79 35.29 30.391 35.478 29.125 37.742C28.589 38.7 27.881 39.214 27.552 38.886C26.584 37.918 32.793 25 34.225 25C34.946 25 36.615 27.72 37.936 31.045C39.256 34.37 40.711 37.321 41.168 37.604C41.626 37.887 42 34.956 42 31.09C42 22.739 42.868 22.622 48 30.278ZM15 28C10.787 32.213 13.694 37.652 19.872 37.118C21.003 37.021 21.016 36.725 19.948 35.437C18.811 34.068 18.982 33.957 21.325 34.546C23.787 35.163 24 34.974 24 32.165C24 30.145 23.249 28.587 21.777 27.557C18.84 25.499 17.407 25.593 15 28ZM32.15 31C31.142 33.891 31.211 34 34.052 34C37.405 34 37.409 33.993 35.839 30.547C34.325 27.223 33.428 27.333 32.15 31Z" fill="#8C8C8C"/>
<path fill-rule="evenodd" clip-rule="evenodd" d="M0 32V64H32H64V32V0H32H0V32ZM23.925 26.145C25.883 27.969 26.157 29.017 25.758 33.167C25.5 35.849 25.095 38.238 24.857 38.476C24.619 38.714 22.561 39.206 20.283 39.571C16.689 40.145 15.803 39.893 13.571 37.662C10.013 34.104 10.041 28.899 13.635 26.073C17.025 23.406 21.015 23.434 23.925 26.145ZM47.291 29.18L50.5 34.36L51 29.656C51.777 22.341 53.464 23.605 53.794 31.75C54.161 40.822 52.615 41.319 47.527 33.763L44 28.527V33.763C44 38.7 43.855 39 41.469 39C40.076 39 38.678 38.325 38.362 37.5C37.518 35.301 30.386 35.487 29.125 37.742C28.589 38.7 27.881 39.214 27.552 38.886C26.564 37.898 32.808 25 34.274 25C35.021 25 37.022 28.038 38.72 31.75L41.808 38.5L41.904 31.25C41.961 26.953 42.424 24 43.041 24C43.614 24 45.527 26.331 47.291 29.18ZM16.338 26.999C11.396 28.991 13.244 37 18.645 37C20.852 37 21.055 36.771 19.99 35.488C18.925 34.205 19.095 34.016 21.115 34.238C24.307 34.589 24.876 30.876 22.061 28.061C19.791 25.791 19.477 25.733 16.338 26.999ZM32.607 29.582C31.497 32.474 31.978 34 34 34C36.162 34 36.285 33.665 35.37 30.25C34.666 27.624 33.469 27.335 32.607 29.582Z" fill="#545454"/>
<path fill-rule="evenodd" clip-rule="evenodd" d="M0 32V64H32H64V32V0H32H0V32ZM24.058 25.846C25.782 27.242 26.306 28.643 26.212 31.596C25.943 39.956 26.211 39.556 20.718 39.795C15.285 40.031 12.524 38.471 10.91 34.25C9.901 31.612 11.324 27.082 13.736 25.25C16.147 23.42 21.439 23.725 24.058 25.846ZM37.988 30.139L40.892 36.279L41.196 30.389C41.582 22.906 43.276 22.672 47.736 29.489L51 34.477V29.239C51 25.249 51.358 24 52.5 24C53.708 24 54 25.556 54 32C54 41.773 52.713 42.351 47.854 34.759L44.5 29.517L44.198 34.759C43.923 39.528 43.681 40 41.515 40C40.013 40 38.901 39.262 38.5 38C37.576 35.088 31.484 35.246 28.841 38.25L26.861 40.5L27.402 37.938C28.304 33.673 32.903 24 34.03 24C34.61 24 36.391 26.763 37.988 30.139ZM15.2 28.2C14.54 28.86 14 30.57 14 32C14 35.059 15.657 37 18.267 37C19.68 37 19.98 36.513 19.5 35C18.831 32.893 20.397 32.216 21.566 34.107C22.622 35.815 24.069 32.876 23.342 30.5C22.275 27.01 17.686 25.714 15.2 28.2ZM32.607 30.582C31.727 32.876 31.798 33 34 33C36.202 33 36.273 32.876 35.393 30.582C34.617 28.558 33.383 28.558 32.607 30.582Z" fill="#1B1B1B"/>
<path fill-rule="evenodd" clip-rule="evenodd" d="M0 32V64H32H64V32V0H32H0V32ZM24.75 26.593C27.165 29.296 27.633 32.948 25.965 36.066C25.395 37.13 25.283 37.999 25.715 37.997C26.147 37.995 27.791 34.845 29.369 30.997C33.025 22.084 34.783 21.839 38.307 29.75L40.868 35.5L40.934 29.75C40.991 24.811 41.265 24 42.882 24C44.024 24 45.984 25.867 47.87 28.75L50.976 33.5L50.988 28.75C50.997 25.2 51.379 24 52.5 24C53.708 24 54 25.556 54 32C54 41.487 52.615 42.406 48.264 35.809L45.5 31.617L45 35.559C44.571 38.939 44.118 39.544 41.817 39.81C39.927 40.028 38.809 39.511 38.032 38.06C36.551 35.293 31.469 35.255 30 38C29.092 39.696 27.906 40 22.187 40C14.174 40 11.36 38.437 10.428 33.467C8.8 24.788 18.834 19.972 24.75 26.593ZM15.2 28.2C12.463 30.937 14.924 37 18.771 37C20.038 37 20.133 36.733 19.2 35.8C17.251 33.851 17.82 32.733 20.5 33.245C22.543 33.635 23 33.328 23 31.561C23 28.824 21.2 27 18.5 27C17.345 27 15.86 27.54 15.2 28.2ZM32.638 31.5C32.249 32.515 32.689 33 34 33C35.311 33 35.751 32.515 35.362 31.5C35.045 30.675 34.432 30 34 30C33.568 30 32.955 30.675 32.638 31.5Z" fill="black"/>
</svg>
