<?xml version="1.0" encoding="UTF-8"?>
<svg version="1.1" xmlns="http://www.w3.org/2000/svg" width="250" height="250">
<path d="M0 0 C82.5 0 165 0 250 0 C250 82.5 250 165 250 250 C167.5 250 85 250 0 250 C0 167.5 0 85 0 0 Z " fill="#FEFEFE" transform="translate(0,0)"/>
<path d="M0 0 C12.4333107 10.38761058 23.91144943 22.03487463 33.82421875 34.84765625 C35.44850819 36.8852786 37.07994618 38.91705821 38.71166992 40.94873047 C41.08898532 43.90989319 43.45641387 46.87888566 45.82421875 49.84765625 C49.04435117 49.14942342 49.04435117 49.14942342 50.2890625 46.21484375 C53.9405252 37.55593751 56.6459879 28.99622581 58.82421875 19.84765625 C63.44931751 21.1651918 66.83440645 22.99879732 70.69921875 25.84765625 C71.66601562 26.54890625 72.6328125 27.25015625 73.62890625 27.97265625 C74.71558594 28.90078125 74.71558594 28.90078125 75.82421875 29.84765625 C75.82421875 30.50765625 75.82421875 31.16765625 75.82421875 31.84765625 C76.48421875 31.84765625 77.14421875 31.84765625 77.82421875 31.84765625 C85.56588378 41.00494003 88.46486616 50.39802244 88.1640625 62.26171875 C87.72503146 66.89425312 86.62497033 70.57087125 84.82421875 74.84765625 C85.76523438 74.945625 86.70625 75.04359375 87.67578125 75.14453125 C88.92101562 75.2940625 90.16625 75.44359375 91.44921875 75.59765625 C92.67898437 75.736875 93.90875 75.87609375 95.17578125 76.01953125 C99.40985256 76.98058384 101.67755784 77.82742368 104.82421875 80.84765625 C105.84490001 84.00574622 106.03081064 87.1087504 106.19921875 90.41015625 C106.29626099 91.75400391 106.29626099 91.75400391 106.39526367 93.125 C106.56986685 95.69859017 106.70322008 98.27106554 106.82421875 100.84765625 C106.89511719 102.04261719 106.96601563 103.23757812 107.0390625 104.46875 C107.25940915 110.96456917 107.25940915 110.96456917 105.75390625 114.01953125 C102.97512677 116.65205917 100.36460108 116.91364114 96.63671875 117.59765625 C95.36441406 117.84 94.09210938 118.08234375 92.78125 118.33203125 C91.80542969 118.5021875 90.82960937 118.67234375 89.82421875 118.84765625 C90.33082031 119.75644531 90.33082031 119.75644531 90.84765625 120.68359375 C96.05879811 130.47331111 98.38233795 140.71622806 96.82421875 151.84765625 C95.35289006 155.3441598 93.26440897 157.9660495 90.82421875 160.84765625 C89.68726563 162.29591797 89.68726563 162.29591797 88.52734375 163.7734375 C80.98126962 173.28001128 80.98126962 173.28001128 76.44921875 174.47265625 C73.82421875 173.84765625 73.82421875 173.84765625 72.6784668 172.41894531 C69.2594603 166.70397947 66.09135223 160.87700027 63.01171875 154.97265625 C62.50962891 154.02390625 62.00753906 153.07515625 61.49023438 152.09765625 C61.01650391 151.19273437 60.54277344 150.2878125 60.0546875 149.35546875 C59.41116333 148.12787842 59.41116333 148.12787842 58.75463867 146.87548828 C57.82421875 144.84765625 57.82421875 144.84765625 57.82421875 142.84765625 C57.16421875 142.84765625 56.50421875 142.84765625 55.82421875 142.84765625 C55.55198486 143.57710449 55.27975098 144.30655273 54.99926758 145.05810547 C53.86935546 147.74050228 52.58474036 150.02899632 51.0234375 152.48046875 C50.46495117 153.35968994 49.90646484 154.23891113 49.33105469 155.14477539 C48.73067383 156.07797607 48.13029297 157.01117676 47.51171875 157.97265625 C46.88942383 158.94388428 46.26712891 159.9151123 45.62597656 160.91577148 C40.01254669 169.63334006 34.27927638 178.2619439 28.30859375 186.73925781 C27.34406664 188.10926704 26.38538195 189.4834149 25.43359375 190.86230469 C16.81035511 203.29625393 16.81035511 203.29625393 10.55859375 205.40234375 C-0.08610343 207.13590872 -10.98589904 206.46281667 -21.17578125 202.84765625 C-22.17578125 201.84765625 -22.17578125 201.84765625 -22.44140625 199.21875 C-22.1268749 195.22697714 -20.78519616 192.37152862 -18.92578125 188.91015625 C-18.57515625 188.23339844 -18.22453125 187.55664062 -17.86328125 186.859375 C-16.64568116 184.51591181 -15.41048026 182.18215197 -14.17578125 179.84765625 C-13.20062917 177.98239443 -12.22672625 176.11647916 -11.25390625 174.25 C-9.71075396 171.28990851 -8.16670514 168.33032344 -6.61816406 165.37304688 C-2.36651213 157.24814814 1.75671966 149.06585328 5.82421875 140.84765625 C6.17742187 140.20940918 6.530625 139.57116211 6.89453125 138.91357422 C7.25289063 138.25115723 7.61125 137.58874023 7.98046875 136.90625 C8.30853516 136.32029053 8.63660156 135.73433105 8.97460938 135.13061523 C9.80325918 132.90397607 10.1051654 131.05400877 10.37731934 128.70497131 C10.52479614 127.43205734 10.67227295 126.15914337 10.82421875 124.84765625 C9.18716728 124.86097992 9.18716728 124.86097992 7.51704407 124.87457275 C-2.76792522 124.95565854 -13.05282967 125.01562168 -23.33804607 125.05490494 C-28.62580881 125.07577985 -33.91331351 125.10409603 -39.20092773 125.14941406 C-44.30377044 125.19287481 -49.40636494 125.21679408 -54.50937843 125.22716522 C-56.45625529 125.23455615 -58.40311856 125.24898891 -60.34988976 125.27057648 C-63.07690157 125.29961346 -65.80288777 125.30361213 -68.5300293 125.30175781 C-69.73736221 125.32332947 -69.73736221 125.32332947 -70.96908569 125.34533691 C-74.75258181 125.31749853 -76.93342292 125.00256628 -80.15364075 122.9442749 C-86.51936212 116.34409546 -84.29987284 101.8720448 -84.36328125 93.16015625 C-84.37625244 92.19174805 -84.38922363 91.22333984 -84.40258789 90.22558594 C-84.40379639 89.31325195 -84.40500488 88.40091797 -84.40625 87.4609375 C-84.41035889 86.64407471 -84.41446777 85.82721191 -84.41870117 84.9855957 C-84.17578125 82.84765625 -84.17578125 82.84765625 -82.17578125 79.84765625 C-79.76511597 79.3081958 -77.57054625 78.97979079 -75.125 78.75390625 C-74.38174973 78.67628052 -73.63849945 78.59865479 -72.87272644 78.51867676 C-61.93970957 77.44172999 -50.95594629 76.93249098 -39.98828125 76.34765625 C-24.01328171 75.48887434 -8.09805379 74.41649036 7.82421875 72.84765625 C6.9508899 68.37561024 4.41227315 65.72842928 1.44921875 62.41015625 C0.3458766 61.15015761 -0.75697783 59.88973175 -1.859375 58.62890625 C-2.41737793 57.9946875 -2.97538086 57.36046875 -3.55029297 56.70703125 C-5.9412808 53.97201123 -8.27711795 51.19198099 -10.61328125 48.41015625 C-15.10961879 43.07874968 -19.66645214 37.80170634 -24.24072266 32.53710938 C-29.91781661 26.00139535 -35.54937198 19.42700691 -41.17578125 12.84765625 C-39.60100952 9.69811279 -36.43576703 9.20117272 -33.2890625 8.02734375 C-32.59443405 7.76382111 -31.8998056 7.50029846 -31.18412781 7.22879028 C-29.71012921 6.67219073 -28.23472405 6.11930424 -26.75805664 5.56982422 C-24.51022174 4.73084529 -22.26974984 3.87409095 -20.02929688 3.015625 C-18.59546508 2.47676438 -17.1612321 1.93896982 -15.7265625 1.40234375 C-15.06070633 1.14613251 -14.39485016 0.88992126 -13.70881653 0.62594604 C-9.0297987 -1.09140637 -4.59881364 -2.43563739 0 0 Z " fill="#FBFBFB" transform="translate(113.17578125,19.15234375)"/>
<path d="M0 0 C2.40403778 0.96563861 3.7507848 1.62210505 5.1953125 3.8125 C9.27334838 13.40787855 11.46324288 23.54638193 10 34 C8.52867131 37.49650355 6.44019022 40.11839325 4 43 C2.86304688 44.44826172 2.86304688 44.44826172 1.703125 45.92578125 C-5.84294913 55.43235503 -5.84294913 55.43235503 -10.375 56.625 C-13 56 -13 56 -14.14575195 54.57128906 C-17.56475845 48.85632322 -20.73286652 43.02934402 -23.8125 37.125 C-24.31458984 36.17625 -24.81667969 35.2275 -25.33398438 34.25 C-25.80771484 33.34507812 -26.28144531 32.44015625 -26.76953125 31.5078125 C-27.19854736 30.68941895 -27.62756348 29.87102539 -28.06958008 29.02783203 C-29 27 -29 27 -29 25 C-29.66 25 -30.32 25 -31 25 C-31.40835083 26.09417236 -31.40835083 26.09417236 -31.82495117 27.21044922 C-32.95486329 29.89284603 -34.23947839 32.18134007 -35.80078125 34.6328125 C-36.35926758 35.51203369 -36.91775391 36.39125488 -37.49316406 37.29711914 C-38.09354492 38.23031982 -38.69392578 39.16352051 -39.3125 40.125 C-39.93479492 41.09622803 -40.55708984 42.06745605 -41.19824219 43.06811523 C-46.81167206 51.78568381 -52.54494237 60.41428765 -58.515625 68.89160156 C-59.48015211 70.26161079 -60.4388368 71.63575865 -61.390625 73.01464844 C-70.01386364 85.44859768 -70.01386364 85.44859768 -76.265625 87.5546875 C-86.91032218 89.28825247 -97.81011779 88.61516042 -108 85 C-109 84 -109 84 -109.265625 81.37109375 C-108.95109365 77.37932089 -107.60941491 74.52387237 -105.75 71.0625 C-105.2240625 70.04736328 -105.2240625 70.04736328 -104.6875 69.01171875 C-103.46989991 66.66825556 -102.23469901 64.33449572 -101 62 C-100.02484792 60.13473818 -99.050945 58.26882291 -98.078125 56.40234375 C-96.53191237 53.43646275 -94.98484962 50.47105938 -93.43359375 47.5078125 C-90.49072664 41.88283865 -87.58076201 36.24474387 -84.75 30.5625 C-84.43981934 29.94044678 -84.12963867 29.31839355 -83.81005859 28.67749023 C-82.12688296 25.29208248 -80.4617699 21.89825122 -78.8046875 18.5 C-78.44020508 17.75806396 -78.07572266 17.01612793 -77.70019531 16.25170898 C-76.99903492 14.82407383 -76.30282454 13.39399368 -75.61230469 11.96118164 C-73.22519626 7.11259813 -73.22519626 7.11259813 -71 6 C-68.31916341 7.04483302 -65.74662698 8.15749286 -63.140625 9.3671875 C-62.35862732 9.72136749 -61.57662964 10.07554749 -60.77093506 10.44046021 C-58.26049965 11.57788109 -55.75483777 12.72530923 -53.25 13.875 C-49.96720865 15.38061729 -46.68022559 16.87651741 -43.390625 18.3671875 C-42.64041077 18.71514374 -41.89019653 19.06309998 -41.11724854 19.42160034 C-37.1093554 21.23782358 -33.45608112 22.74132814 -29 23 C-26.5593064 21.52458698 -24.68490178 20.15895892 -22.5625 18.3125 C-21.34254796 17.30196254 -20.12249196 16.29155059 -18.90234375 15.28125 C-18.27054199 14.74757812 -17.63874023 14.21390625 -16.98779297 13.6640625 C-13.58532027 10.81571395 -10.09903406 8.07267435 -6.625 5.3125 C-4.41512753 3.54357781 -2.2076552 1.77168968 0 0 Z " fill="#040404" transform="translate(200,137)"/>
<path d="M0 0 C1.49466797 0.01353516 1.49466797 0.01353516 3.01953125 0.02734375 C4.09267578 0.04474609 4.09267578 0.04474609 5.1875 0.0625 C6.47248221 5.81903201 6.73352503 11.61505234 7.11743164 17.48803711 C7.2475701 19.46312188 7.38639817 21.43762793 7.52539062 23.41210938 C8.09373909 31.93733633 8.6146032 40.51804102 8.1875 49.0625 C3.29992788 53.95007212 -17.55379895 51.27062374 -24.62890625 51.30078125 C-25.8579987 51.30689454 -25.8579987 51.30689454 -27.11192131 51.31313133 C-31.42951053 51.33377416 -35.74706981 51.34818143 -40.06469727 51.35766602 C-44.50991995 51.3688326 -48.95465612 51.40340965 -53.39970493 51.44283772 C-56.838953 51.46894859 -60.27808211 51.47735168 -63.71742058 51.48094749 C-65.35727252 51.48580859 -66.99711932 51.49740902 -68.63687325 51.51598549 C-70.92181361 51.54031492 -73.20544852 51.53942697 -75.49047852 51.5324707 C-76.78728043 51.53833694 -78.08408234 51.54420319 -79.42018127 51.55024719 C-83.37722925 50.98130329 -85.00860989 49.85407247 -87.8125 47.0625 C-91.51666697 39.65416606 -89.9404035 27.5631569 -90 19.375 C-90.01297119 18.4065918 -90.02594238 17.43818359 -90.03930664 16.44042969 C-90.04051514 15.5280957 -90.04172363 14.61576172 -90.04296875 13.67578125 C-90.04707764 12.85891846 -90.05118652 12.04205566 -90.05541992 11.20043945 C-89.8125 9.0625 -89.8125 9.0625 -87.8125 6.0625 C-85.41332338 5.52383384 -83.23114087 5.1973531 -80.796875 4.97265625 C-80.05548279 4.89523697 -79.31409058 4.81781769 -78.55023193 4.73805237 C-67.41621782 3.64123461 -56.2312108 3.10851548 -45.0625 2.5 C-40.58842649 2.25072928 -36.11451729 1.99859315 -31.640625 1.74609375 C-30.58344772 1.68710403 -29.52627045 1.62811432 -28.4370575 1.56733704 C-22.03303141 1.20546455 -15.64438762 0.76111489 -9.25146484 0.23901367 C-6.16324445 0.01551184 -3.09548603 -0.03729501 0 0 Z " fill="#020202" transform="translate(118.8125,92.9375)"/>
<path d="M0 0 C11.44912903 9.56536008 22.44084838 20.23298838 31.6171875 32.015625 C33.39121746 34.29203512 35.20373106 36.50475516 37.0625 38.7109375 C38.19147463 40.06895357 39.32038125 41.42702619 40.44921875 42.78515625 C40.99553955 43.42469238 41.54186035 44.06422852 42.10473633 44.72314453 C45.81505925 49.24710842 45.81505925 49.24710842 45.85400391 51.80053711 C44.27086505 54.94767303 41.52798384 56.21718626 38.55859375 57.88671875 C37.92818176 58.25364838 37.29776978 58.620578 36.64825439 58.99862671 C35.31336035 59.77259812 33.97492938 60.54049652 32.63330078 61.30273438 C30.58923718 62.46412313 28.55565633 63.64224913 26.5234375 64.82421875 C25.2232344 65.57522058 23.92247047 66.32525246 22.62109375 67.07421875 C22.01569763 67.42320221 21.41030151 67.77218567 20.78656006 68.13174438 C17.54247394 69.9718944 14.32505577 71.5585245 10.82421875 72.84765625 C4.36673301 65.97496838 -1.93259194 59.06221346 -7.84765625 51.7109375 C-10.48985879 48.46138304 -13.19682834 45.27437625 -15.92578125 42.09765625 C-16.4254541 41.51556396 -16.92512695 40.93347168 -17.43994141 40.33374023 C-20.15415663 37.17862634 -22.88185821 34.03575821 -25.62109375 30.90234375 C-31.03636194 24.70154394 -36.38520623 18.55446128 -41.17578125 11.84765625 C-33.93092658 8.24256111 -26.44342044 5.34788874 -18.86328125 2.53515625 C-17.90856934 2.17357422 -16.95385742 1.81199219 -15.97021484 1.43945312 C-4.91511267 -2.60315662 -4.91511267 -2.60315662 0 0 Z " fill="#030303" transform="translate(113.17578125,19.15234375)"/>
<path d="M0 0 C4.62509876 1.31753555 8.0101877 3.15114107 11.875 6 C13.32519531 7.051875 13.32519531 7.051875 14.8046875 8.125 C15.89136719 9.053125 15.89136719 9.053125 17 10 C17 10.66 17 11.32 17 12 C17.66 12 18.32 12 19 12 C26.74166503 21.15728378 29.64064741 30.55036619 29.33984375 42.4140625 C28.90081271 47.04659687 27.80075158 50.723215 26 55 C27.41152344 55.14695312 27.41152344 55.14695312 28.8515625 55.296875 C30.09679687 55.44640625 31.34203125 55.5959375 32.625 55.75 C33.85476562 55.88921875 35.08453125 56.0284375 36.3515625 56.171875 C40.58563381 57.13292759 42.85333909 57.97976743 46 61 C47.02068126 64.15808997 47.20659189 67.26109415 47.375 70.5625 C47.43969482 71.45839844 47.50438965 72.35429688 47.57104492 73.27734375 C47.7456481 75.85093392 47.87900133 78.42340929 48 81 C48.10634766 82.79244141 48.10634766 82.79244141 48.21484375 84.62109375 C48.47400963 92.26130392 48.47400963 92.26130392 45 96 C39.84559201 97.50860722 34.33136508 97.09482665 29 97 C27.59354738 88.50666474 26.70640804 80.16950579 26.42993164 71.57080078 C26.34177108 69.37253097 26.18870105 67.19190799 26 65 C25.93627197 64.14849365 25.87254395 63.2969873 25.80688477 62.41967773 C25.34964758 58.82624099 24.98733768 56.03014576 22.42333984 53.35498047 C20.32651132 51.90847722 18.20374058 50.72532138 15.9375 49.5625 C14.31228589 48.65374793 12.68862775 47.74220848 11.06640625 46.828125 C10.23254395 46.36986328 9.39868164 45.91160156 8.53955078 45.43945312 C4.36915131 43.07561201 0.37879956 40.44559859 -3.625 37.8125 C-5.05455402 36.88130547 -6.48422876 35.95029622 -7.9140625 35.01953125 C-8.93242187 34.35308594 -9.95078125 33.68664062 -11 33 C-10.14740208 29.31695512 -8.75719331 26.13287746 -7.1875 22.6875 C-3.91291604 15.31820392 -1.8659882 7.83715042 0 0 Z " fill="#060606" transform="translate(172,39)"/>
<path d="M0 0 C0.33 0 0.66 0 1 0 C1.55353075 11.52164009 1.55353075 11.52164009 -2 17 C-2.66 16.67 -3.32 16.34 -4 16 C-3.67 14.35 -3.34 12.7 -3 11 C-6.96 11 -10.92 11 -15 11 C-15 10.67 -15 10.34 -15 10 C-10.38 9.67 -5.76 9.34 -1 9 C-0.67 6.03 -0.34 3.06 0 0 Z " fill="#BBBBBB" transform="translate(127,133)"/>
<path d="M0 0 C2.70165032 2.70165032 2 4.29811832 2 8 C2.66 8.66 3.32 9.32 4 10 C3.01 10.33 2.02 10.66 1 11 C-1.30441554 7.54337669 -1.25860135 6.05142119 -1 2 C-0.67 1.34 -0.34 0.68 0 0 Z " fill="#E3E3E3" transform="translate(90,213)"/>
</svg>
