<svg width="250" height="250" viewBox="0 0 250 250" fill="none" xmlns="http://www.w3.org/2000/svg">
<g clip-path="url(#clip0_1_2)">
<mask id="mask0_1_2" style="mask-type:luminance" maskUnits="userSpaceOnUse" x="0" y="0" width="250" height="250">
<path d="M218 0H32C14.3269 0 0 14.3269 0 32V218C0 235.673 14.3269 250 32 250H218C235.673 250 250 235.673 250 218V32C250 14.3269 235.673 0 218 0Z" fill="white"/>
</mask>
<g mask="url(#mask0_1_2)">
<path fill-rule="evenodd" clip-rule="evenodd" d="M0 125V250H125H250V125V0H125H0V125Z" fill="white"/>
<path fill-rule="evenodd" clip-rule="evenodd" d="M88.362 24.177C73.74 29.64 72.237 30.422 72.362 32.507C72.438 33.773 72.796 34.625 73.158 34.402C73.519 34.179 78.244 39.267 83.658 45.709C89.071 52.151 94.304 58.243 95.286 59.247C96.269 60.251 96.798 61.518 96.462 62.061C96.126 62.605 96.341 62.926 96.938 62.775C98.172 62.463 123.253 91.08 122.451 91.883C122.164 92.169 116.208 92.729 109.215 93.127C102.222 93.524 82.1 94.805 64.5 95.972L32.5 98.094L30.104 100.773C27.732 103.424 27.715 103.603 28.402 117.976C29.372 138.247 29.764 139.955 34.009 142.449C37.297 144.381 39.329 144.517 69 144.791C86.325 144.951 106.35 144.674 113.5 144.175C120.65 143.676 126.6 143.345 126.722 143.439C127.169 143.785 98.709 199.518 97.783 200.112C97.258 200.448 96.98 200.958 97.165 201.244C97.751 202.154 90.693 215.928 89.894 215.434C89.473 215.174 89.55 216.43 90.064 218.224C90.579 220.019 91 221.558 91 221.646C91 221.733 92.463 222.321 94.25 222.951C99.321 224.741 119.928 225.509 124.287 224.07C129.161 222.462 135.333 215.407 146.5 198.682C151.45 191.268 155.907 185.451 156.405 185.756C156.902 186.06 157.033 185.862 156.696 185.317C155.899 184.028 168.364 164.697 169.353 165.687C169.767 166.101 169.809 165.665 169.446 164.72C169.067 163.732 169.257 163 169.893 163C170.502 163 171 163.367 171 163.815C171 164.802 184.869 191.127 186.061 192.402C186.524 192.898 188.163 193.371 189.701 193.453C192.065 193.579 193.781 192.122 200.776 184.051C205.413 178.7 209.531 172.917 210.14 170.9C212.074 164.495 208.563 147.652 203.253 137.856C203.061 137.502 206.045 136.897 209.883 136.512C220.917 135.404 221.249 134.446 219.072 110.015C217.996 97.937 217.135 96.666 209.286 95.568C197.898 93.976 198.037 94.032 199.043 91.387C202.469 82.376 201.941 70.108 197.744 61.178C194.807 54.93 185.788 45.558 178.737 41.425C175.444 39.495 172.671 38.048 172.575 38.208C172.478 38.369 170.79 43.45 168.823 49.5C164.591 62.514 161.139 70.204 159.877 69.424C159.377 69.115 159.269 68.373 159.638 67.776C160.009 67.177 159.85 66.975 159.283 67.325C158.169 68.014 145.324 52.27 145.775 50.767C145.926 50.264 145.611 50.122 145.075 50.454C143.896 51.182 141.772 47.561 142.785 46.548C143.178 46.155 143.01 45.983 142.411 46.167C140.988 46.602 121.837 26.496 122.779 25.554C123.176 25.158 123.05 24.98 122.5 25.159C121.02 25.641 116.89 22.456 117.756 21.5C118.165 21.049 118.022 20.951 117.438 21.283C116.853 21.615 115.053 21.015 113.438 19.95C111.822 18.885 109.15 18.044 107.5 18.081C105.85 18.118 97.238 20.862 88.362 24.177ZM162.334 74.268C161.966 74.864 162.173 75.011 162.819 74.612C163.787 74.014 195.238 92.959 196.401 94.84C196.631 95.212 197.596 104.717 198.546 115.962L200.273 136.408L196.887 139.271C195.024 140.846 190.35 144.579 186.5 147.567C182.65 150.556 177.309 154.739 174.631 156.864L169.762 160.726L163.949 158.157C160.752 156.744 158.326 155.282 158.558 154.907C158.789 154.532 158.371 154.288 157.628 154.363C156.885 154.438 149.997 151.812 142.32 148.527L128.362 142.554L127.043 126.027C124.366 92.462 124.384 92.933 125.795 93.475C126.515 93.751 126.868 93.595 126.58 93.129C126.01 92.208 139.703 83.667 141.749 83.667C142.437 83.667 142.784 83.451 142.52 83.187C142.256 82.923 146.194 80.15 151.27 77.025C157.629 73.11 160.885 71.636 161.739 72.285C162.42 72.803 162.688 73.695 162.334 74.268Z" fill="#E2E2E2"/>
<path fill-rule="evenodd" clip-rule="evenodd" d="M88.75 24.269C79.537 27.664 72 30.718 72 31.056C72 31.394 83.521 45.116 97.601 61.55C119.032 86.563 122.901 91.543 121.351 92.12C120.333 92.499 99.925 94.028 76 95.517C32.734 98.211 32.488 98.238 30.25 100.668C27.625 103.519 27.422 107.727 29.028 126C30.278 140.216 30.409 140.631 34.321 142.718C37.004 144.148 41.402 144.471 62.5 144.786C76.25 144.992 96.275 144.724 107 144.192C117.725 143.659 126.638 143.349 126.807 143.503C126.976 143.656 118.736 160.534 108.496 181.009C98.255 201.484 90.123 218.878 90.424 219.663C91.442 222.316 98.163 224.148 108.904 224.699C122.632 225.404 126.67 224.318 131.744 218.553C136.555 213.088 145.374 200.38 159.013 179.261C164.781 170.33 169.725 163.026 170 163.029C170.275 163.033 173.425 168.714 177 175.654C184.57 190.35 186.425 193 189.138 193C192.49 193 194.533 191.353 201.413 183.105C210.424 172.301 211.258 170.072 209.949 160.292C208.723 151.132 206.464 143.563 203.836 139.813L201.953 137.126L209.12 136.42C219.886 135.359 220.451 134.507 219.615 120.608C218.439 101.073 218.048 99.074 215.107 97.57C213.673 96.836 210.475 95.934 208 95.565C205.525 95.195 202.334 94.672 200.908 94.402L198.316 93.911L199.72 88.705C200.58 85.518 200.98 80.399 200.752 75.5C200.249 64.676 197.034 57.754 188.737 49.634C182.743 43.767 173.739 37.928 172.538 39.129C172.225 39.441 171.297 42.28 170.474 45.437C169.652 48.594 167.184 55.556 164.99 60.907C162.795 66.258 161 70.912 161 71.25C161 71.587 168.988 76.912 178.75 83.083C188.512 89.254 196.629 94.401 196.787 94.521C197.152 94.8 199.985 129.425 199.993 133.717C199.999 136.661 198.736 137.95 185.028 148.978L170.055 161.023L149.278 151.882C137.85 146.854 128.434 142.686 128.354 142.62C128.274 142.554 127.473 133.05 126.575 121.5C125.677 109.95 124.702 98.885 124.41 96.911L123.878 93.321L141.939 82.536C151.873 76.605 160 71.498 160 71.188C160 69.66 139.319 44.595 129.108 33.747C120.741 24.858 111.567 17.986 108.151 18.048C106.693 18.075 97.963 20.874 88.75 24.269Z" fill="#C4C4C4"/>
<path fill-rule="evenodd" clip-rule="evenodd" d="M89.5 24.131C80.7 27.425 73.17 30.446 72.766 30.844C72.363 31.242 83.726 45.184 98.016 61.828C112.307 78.471 124 92.293 124 92.544C124 92.795 122.313 92.987 120.25 92.972C111.326 92.904 34.287 98.235 32.23 99.062C28.179 100.692 27.699 104.05 28.956 122C30.502 144.076 29.553 143.091 50.435 144.307C68.496 145.36 125.504 143.896 127.06 142.34C127.967 141.433 126.416 115.871 124.393 98.371L123.8 93.243L141.65 82.52C151.467 76.623 159.667 71.639 159.871 71.445C160.754 70.604 137.79 42.996 127.339 32.334C118.826 23.649 110.927 17.954 107.554 18.071C106.424 18.11 98.3 20.837 89.5 24.131ZM170.082 46.93C168.822 51.291 166.263 58.374 164.395 62.669C162.528 66.965 161 70.769 161 71.123C161 71.477 168.73 76.657 178.178 82.634C187.626 88.61 195.771 93.779 196.278 94.121C197.059 94.646 198.865 112.112 200.159 131.649L200.5 136.799L185.208 149.028L169.915 161.257L163.208 158.218C148.807 151.693 128.778 143 128.145 143C127.779 143 118.958 160.06 108.544 180.912C87.823 222.4 88.287 220.86 95.858 222.99C97.861 223.554 104.096 224.304 109.714 224.657C121.33 225.388 126.742 224.022 131.206 219.232C134.83 215.345 148.889 195.006 159.888 177.738C165.051 169.632 169.581 163 169.953 163C170.326 163 173.705 168.963 177.463 176.25C181.22 183.537 184.973 190.287 185.802 191.25C189.563 195.615 194.805 192.015 205.602 177.653C209.697 172.205 209.999 171.378 209.983 165.651C209.959 157.395 207.609 146.784 204.619 141.434L202.173 137.058L205.337 136.573C207.076 136.306 210.661 135.812 213.303 135.475C220.224 134.591 220.577 133.368 219.122 115.264C217.716 97.778 217.078 96.711 207.341 95.567C197.658 94.43 197.989 94.722 199.588 88.714C201.459 81.687 201.357 72.418 199.343 66.428C197.438 60.762 192.366 52.483 188.886 49.357C185.096 45.953 174.781 39 173.521 39C172.889 39 171.342 42.568 170.082 46.93Z" fill="#A2A2A2"/>
<path fill-rule="evenodd" clip-rule="evenodd" d="M89.277 24.318C80.354 27.718 73.044 30.95 73.031 31.5C73.019 32.05 84.517 45.922 98.582 62.327C118.149 85.151 124.547 92.005 125.827 91.516C128.368 90.547 159.926 71.572 159.95 71C160.003 69.697 136.849 42.38 128.222 33.569C118.103 23.233 111.061 17.952 107.554 18.068C106.424 18.106 98.2 20.918 89.277 24.318ZM170.519 45.75C168.647 52.857 163.313 66.836 161.857 68.45C161.386 68.973 161 69.899 161 70.508C161 71.117 169.112 76.734 179.026 82.989C191.201 90.67 197.195 95.034 197.49 96.431C197.73 97.569 198.414 105.925 199.01 115C199.606 124.075 200.309 132.629 200.573 134.009C200.997 136.226 199.463 137.793 187.358 147.509C179.826 153.554 172.727 159.092 171.582 159.816C169.724 160.99 167.297 160.157 149.038 152.078C137.784 147.098 128.253 143.356 127.858 143.762C127.463 144.168 118.78 160.993 108.563 181.15C96.902 204.157 90.219 218.406 90.611 219.428C91.552 221.882 93.744 222.707 102.865 224.041C112.681 225.476 122.342 224.909 126.731 222.639C128.458 221.746 131.855 218.424 134.279 215.258C139.236 208.781 156.158 183.653 164.37 170.573L169.782 161.953L172.269 166.226C173.637 168.577 176.436 173.851 178.49 177.947C188.179 197.271 189.288 197.438 202.415 181.541C206.417 176.696 209.234 172.271 209.617 170.229C211.022 162.738 207.656 145.702 203.524 139.396C202.248 137.448 202.259 137.115 203.619 136.593C204.469 136.267 206.589 135.997 208.332 135.994C214.252 135.984 218.935 134.107 219.594 131.48C219.93 130.143 219.668 122.625 219.012 114.774C217.562 97.413 217.446 97.238 206.371 95.715C202.042 95.119 198.38 94.557 198.232 94.465C198.085 94.373 198.701 91.426 199.6 87.916C203.107 74.227 199.232 60.327 189.077 50.172C184.672 45.767 174.923 39.041 172.898 39.009C172.568 39.004 171.497 42.038 170.519 45.75ZM71 96.044C49.275 97.586 31.399 98.881 31.276 98.924C31.152 98.966 30.326 100.404 29.439 102.119C27.999 104.902 27.954 106.972 29.02 121.369C29.678 130.241 30.63 138.283 31.137 139.24C31.644 140.196 33.438 141.692 35.122 142.563C37.81 143.953 43.56 144.108 82.044 143.824C110.126 143.616 126.269 143.133 126.922 142.479C127.616 141.784 127.313 133.945 125.974 117.979C124.891 105.065 124.004 94.162 124.003 93.75C123.998 92.574 113.471 93.03 71 96.044Z" fill="#8F8F8F"/>
<path fill-rule="evenodd" clip-rule="evenodd" d="M89.87 24.31C80.724 27.715 73.239 30.95 73.237 31.5C73.233 32.51 123.831 92 124.694 92C126.075 92 159 71.569 159 70.712C159 68.929 139.884 45.932 129.14 34.788C118.83 24.095 111.088 17.946 108.079 18.06C107.21 18.093 99.017 20.906 89.87 24.31ZM170.207 47.258C168.946 51.791 166.37 59.074 164.484 63.443C162.597 67.812 161.154 71.462 161.277 71.554C161.399 71.647 169.528 76.807 179.341 83.023C193.235 91.823 197.372 94.017 198.039 92.938C198.509 92.176 199.427 88.398 200.077 84.542C202.212 71.887 198.987 61.21 190.157 51.699C186.14 47.373 174.864 38.985 173.095 39.008C172.768 39.012 171.468 42.724 170.207 47.258ZM94 94.612C31.552 98.927 32.749 98.806 30.559 100.997C28.751 102.805 28.537 104.102 28.769 111.845C29.194 126.029 30.627 138.846 31.97 140.463C34.5 143.512 40.569 143.989 76 143.923C108.605 143.863 126.282 143.192 127.263 141.978C127.476 141.715 126.863 132.05 125.9 120.5C124.938 108.95 124.117 98.037 124.075 96.25L124 93L118.75 93.133C115.862 93.206 104.725 93.872 94 94.612ZM198.007 97.652C198.01 99.218 198.673 108.596 199.479 118.492C200.633 132.662 200.685 136.729 199.722 137.638C195.988 141.163 170.574 161 169.793 161C169.283 161 161.583 157.793 152.683 153.874C143.782 149.955 134.582 145.919 132.238 144.904L127.975 143.06L109.488 180.025C99.319 200.355 91 217.82 91 218.834C91 221.476 94.744 222.833 105.545 224.107C115.973 225.337 121.78 224.798 126.815 222.135C131.038 219.901 140.952 206.576 157 181.563C163.875 170.848 169.725 162.069 170 162.055C170.275 162.04 174.001 168.746 178.28 176.956C183.009 186.029 186.788 192.115 187.915 192.473C191.031 193.462 194.592 191.056 200.17 184.195C208.164 174.362 209.989 171.044 209.995 166.338C210.003 159.507 207.185 146.835 204.506 141.658C203.128 138.994 202 136.632 202 136.408C202 136.183 203.287 136 204.86 136C206.434 136 209.841 135.709 212.433 135.354C219.885 134.333 220.411 132.854 219.035 116.793C218.409 109.482 217.679 102.458 217.413 101.184C216.807 98.288 212.55 96.453 204.25 95.512L198 94.804L198.007 97.652Z" fill="#4F4F4F"/>
<path fill-rule="evenodd" clip-rule="evenodd" d="M90.313 24.356C81.41 27.735 73.845 30.789 73.503 31.143C73.04 31.621 114.904 81.603 123.506 90.842C124.536 91.948 127.709 90.396 141.627 81.975C150.907 76.361 158.673 71.609 158.885 71.415C160.125 70.282 138.775 44.582 126.029 31.866C117.611 23.466 109.845 17.764 107.29 18.106C106.855 18.164 99.216 20.976 90.313 24.356ZM172.567 40.211C172.347 40.92 171.186 44.875 169.988 49C168.79 53.125 166.298 59.781 164.45 63.792L161.092 71.083L166.296 74.405C189.35 89.118 197.09 94 197.363 94C197.643 94 199.351 86.763 200.621 80.192C201.41 76.111 198.924 65.668 195.734 59.669C192.442 53.475 183.965 45.106 177.038 41.211C174.019 39.513 172.864 39.255 172.567 40.211ZM74.534 96.167C39.095 98.628 32.27 99.347 30.65 100.791C28.865 102.382 28.777 103.531 29.364 117.5C30.188 137.102 30.638 139.518 33.876 141.717C36.235 143.32 39.776 143.531 69 143.804C99.541 144.09 125.183 143.151 126.64 141.693C126.995 141.338 126.464 130.237 125.46 117.024L123.635 93L120.068 93.126C118.105 93.196 97.615 94.564 74.534 96.167ZM198 96.812C198 100.696 201.188 135.506 201.58 135.906C201.799 136.129 205.468 135.904 209.734 135.406C220.297 134.172 220.407 133.915 218.568 114.693C217.8 106.659 216.889 99.629 216.543 99.07C215.791 97.852 210.431 96.407 203.25 95.486C198.442 94.869 198 94.981 198 96.812ZM185.692 149.202C177.548 155.78 171.023 161.699 171.192 162.354C171.362 163.009 174.796 169.928 178.825 177.729C186.292 192.186 188.051 194.113 191.902 192.052C194.152 190.848 203.922 179.586 207.798 173.729C210.366 169.849 210.375 169.765 209.202 160.478C207.922 150.344 204.975 141.163 202.229 138.757C200.645 137.368 199.259 138.243 185.692 149.202ZM109.478 180.07C99.315 200.354 91 217.58 91 218.352C91 221.052 94.082 222.256 104.449 223.606C115.636 225.064 123.271 224.363 127.681 221.473C131.366 219.059 137.391 210.937 152.514 188C167.207 165.716 169.426 162.092 168.778 161.445C168.567 161.234 159.296 157.041 148.175 152.126L127.956 143.192L109.478 180.07Z" fill="#252525"/>
<path fill-rule="evenodd" clip-rule="evenodd" d="M89.142 24.998C80.695 28.234 73.62 31.046 73.42 31.247C72.813 31.854 106.264 70.519 107.163 70.25C107.624 70.112 107.888 70.36 107.75 70.8C107.613 71.24 109.525 74.008 112 76.952C117.865 83.927 124.172 91.408 124.556 91.846C124.723 92.037 126.804 90.874 129.18 89.262C131.556 87.65 139.013 83.063 145.75 79.07C152.488 75.076 158.207 71.475 158.459 71.066C158.711 70.658 154.587 64.964 149.294 58.412C128.402 32.554 115.29 20.114 108.236 19.459C105.501 19.206 100.385 20.69 89.142 24.998ZM172.518 41.25C172.287 41.938 171.585 44.525 170.958 47C170.33 49.475 168.012 55.917 165.807 61.315C163.602 66.714 161.955 71.274 162.149 71.449C163.772 72.918 196.143 93 196.888 93C198.557 93 200.253 82.688 199.86 74.932C199.222 62.34 191.933 50.987 179.374 43.022C174.087 39.669 173.131 39.422 172.518 41.25ZM120.917 93.365C120.688 93.565 114.763 94.019 107.751 94.373C100.738 94.727 86.338 95.662 75.751 96.451C65.163 97.24 50.955 98.202 44.177 98.589C28.05 99.509 28.454 98.983 29.448 117.786C30.431 136.36 30.94 138.866 34.226 141.32C36.755 143.208 38.715 143.384 61.226 143.749C85.644 144.145 125.409 142.925 126.59 141.743C127.185 141.149 124.606 104.978 123.382 96.75C122.88 93.374 122.111 92.319 120.917 93.365ZM198.354 100.25C198.675 103.138 199.472 112.407 200.125 120.85L201.312 136.2L207.906 135.539C216.652 134.662 218.265 134.132 217.584 132.358C217.27 131.539 217.458 131.165 218.011 131.507C220.251 132.891 217.841 101.427 215.53 99.107C214.336 97.908 203.212 95.147 199.135 95.037C198.078 95.008 197.901 96.186 198.354 100.25ZM200.595 139.155C201.043 139.878 200.869 140.037 200.131 139.581C199.423 139.143 193.388 143.3 184.977 150.018C177.29 156.159 171 161.396 171 161.655C171 163.252 186.505 191.257 187.628 191.688C190.749 192.885 194.143 190.621 200.27 183.253C209.224 172.487 210.353 170.028 209.52 163.111C208.003 150.514 203.687 138 200.859 138C200.322 138 200.203 138.52 200.595 139.155ZM109.441 181.118C99.231 201.533 91.105 218.83 91.383 219.556C92.173 221.615 98.576 223.061 109.732 223.699C123.472 224.486 127.157 223.107 133.841 214.678C138.652 208.611 167.519 165.416 168.539 162.758C168.901 161.816 166.075 160.13 159.28 157.236C153.901 154.945 144.83 151.029 139.122 148.535C133.413 146.041 128.577 144 128.374 144C128.171 144 119.651 160.703 109.441 181.118Z" fill="black"/>
</g>
</g>
<defs>
<clipPath id="clip0_1_2">
<rect width="250" height="250" rx="125" fill="white"/>
</clipPath>
</defs>
</svg>
