<svg width="65" height="64" viewBox="0 0 65 64" fill="none" xmlns="http://www.w3.org/2000/svg">
<path fill-rule="evenodd" clip-rule="evenodd" d="M1 32V64H33H65V32V0H33H1V32Z" fill="#FCFEFB"/>
<path fill-rule="evenodd" clip-rule="evenodd" d="M28.5 2.515C26.85 3.282 24.363 3.93 22.973 3.955C19.571 4.016 16.422 6.371 13.452 11.075C12.097 13.222 8.767 16.671 6.051 18.739C3.336 20.808 1.088 23.116 1.057 23.869C1.02 24.766 2.183 24.335 4.433 22.619C6.322 21.178 8.471 20 9.211 20C11.751 20 14.973 16.943 14.792 14.704C14.491 10.976 17.786 7.121 21.847 6.451C23.856 6.12 26.734 5.38 28.242 4.806C29.923 4.167 33.926 4.039 38.58 4.475C45.892 5.161 46.225 5.305 47.512 8.344C48.771 11.318 48.72 11.517 46.636 11.796C43.671 12.193 41.361 15.798 43.065 17.368C44.014 18.242 44.142 18.069 43.624 16.609C43.074 15.055 43.209 14.929 44.381 15.902C45.166 16.553 46.909 16.81 48.254 16.472C50.313 15.956 50.907 16.362 52.02 19.048C53.393 22.363 52.648 24.951 50.074 25.809C49.172 26.109 48.99 25.606 49.462 24.118C49.938 22.621 49.707 22 48.674 22C47.871 22 46.928 21.256 46.579 20.347C45.993 18.818 45.853 18.816 44.722 20.328C43.802 21.558 43.129 21.697 42 20.887C40.735 19.98 40.774 19.899 42.25 20.374C44.554 21.115 44.509 19.343 42.192 18.103C39.657 16.746 28.283 17.311 26.759 18.869C25.735 19.915 26.248 20.041 29.5 19.54L33.5 18.925L29.5 20.447C27.3 21.285 25.399 21.977 25.276 21.985C25.152 21.993 24.339 20.622 23.468 18.938C22.315 16.709 21.291 15.961 19.702 16.188C16.764 16.608 16.173 19.971 18.913 20.688C20.061 20.988 21 21.657 21 22.176C21 22.694 21.478 22.822 22.063 22.461C23.662 21.473 27 24.984 27 27.655C27 28.945 27.506 30 28.125 30C28.832 30 29.035 28.926 28.671 27.107L28.093 24.214L33.046 25.798C36.575 26.926 38 27.902 38 29.191C38 30.348 38.739 31 40.05 31C41.177 31 43.398 31.672 44.986 32.493C48.798 34.464 51 33.512 51 29.893C51 28.302 51.388 27 51.861 27C53.431 27 51.744 32.451 49.231 35.5C45.53 39.991 42.232 41.381 35.719 41.199C28.626 41 27.462 40.394 17.744 31.833C7.287 22.621 5.45 23.175 15.5 32.51C23.917 40.328 27.873 42.781 33.551 43.702C35.448 44.01 37 44.621 37 45.059C37 47.39 40.482 49 45.522 49C48.481 49 53.214 49.496 56.04 50.102L61.179 51.204L58.339 54.203C56.778 55.852 54.487 57.595 53.25 58.076C49.812 59.412 50.437 61.092 53.921 59.878C55.528 59.318 58.414 56.841 60.336 54.375C63.46 50.365 63.901 49.024 64.509 41.695C65.59 28.646 64.576 26.359 63.015 38.329L61.604 49.157L59.052 48.526C57.648 48.178 52.815 47.638 48.31 47.325C38.702 46.657 37.003 45.046 43.323 42.597C45.673 41.686 48.951 39.227 50.818 36.975C55.332 31.53 56.044 22.992 52.609 15.5C51.348 12.75 49.739 9.032 49.032 7.237C47.735 3.946 47.244 3.701 39.5 2.489C37.3 2.145 34.6 1.696 33.5 1.492C32.4 1.287 30.15 1.748 28.5 2.515ZM48.963 30.5C48.987 31.919 48.471 31.483 47.188 29C46.194 27.075 45.583 25.102 45.832 24.615C46.454 23.398 48.921 28.036 48.963 30.5ZM5.493 30.003C5.488 32.751 5.826 35 6.243 35C6.659 35 7.034 34.438 7.077 33.75C7.119 33.063 7.329 31.6 7.544 30.5C7.759 29.4 7.694 27.712 7.4 26.75C6.397 23.468 5.5 24.997 5.493 30.003ZM2.75 42.08C1.787 42.641 1 44.077 1 45.272V47.445L2.557 45.223C3.413 44 4.763 43 5.557 43C6.351 43 7 42.55 7 42C7 40.728 5.008 40.765 2.75 42.08ZM28 44.809C28 45.254 28.638 46.491 29.418 47.557C31.279 50.102 32.525 48.813 30.829 46.097C29.513 43.99 28 43.301 28 44.809ZM14 53C14 53.55 14.83 54 15.845 54C16.86 54 18.465 54.856 19.411 55.902C21.277 57.964 23.334 58.066 25.21 56.19C25.865 55.535 27.21 55 28.2 55C29.19 55 30 54.55 30 54C30 52.457 26.396 52.818 25 54.5C23.666 56.107 21 56.547 21 55.161C21 54.289 16.621 52 14.953 52C14.429 52 14 52.45 14 53Z" fill="#D5D7D4"/>
<path fill-rule="evenodd" clip-rule="evenodd" d="M27.5 3.002C26.4 3.478 23.833 4.14 21.796 4.471C19.198 4.893 17.405 6.015 15.796 8.223C14.533 9.955 10.624 14.213 7.11 17.686C0.303 24.412 -0.0499997 26.138 6.484 20.752C8.651 18.966 10.077 18.066 9.653 18.752C8.32 20.91 10.55 20.108 12.93 17.574C14.184 16.24 14.961 14.745 14.657 14.253C13.594 12.534 17.877 7.066 20.719 6.512C22.249 6.215 25.45 5.345 27.833 4.58C31.244 3.484 33.66 3.41 39.191 4.231C45.829 5.216 46.293 5.457 47.608 8.605C49.4 12.894 49.427 12.804 46.5 12.245C44.453 11.853 44 12.161 44 13.942C44 15.349 43.586 15.862 42.83 15.395C42.085 14.934 41.857 15.185 42.202 16.086C42.638 17.222 41.29 17.515 35.344 17.578C30.944 17.625 27.448 18.152 26.722 18.879C25.759 19.843 26.374 19.963 29.624 19.443C31.893 19.081 33.987 19.171 34.279 19.642C34.57 20.114 33.389 20.527 31.655 20.56C29.92 20.592 27.743 20.966 26.818 21.391C25.551 21.971 24.741 21.4 23.542 19.081C21.804 15.72 18.612 14.963 17.574 17.667C16.771 19.76 17.842 20.864 21.021 21.221C23.952 21.551 27 24.96 27 27.908C27 29.058 27.506 30 28.125 30C28.837 30 29.034 28.919 28.662 27.059L28.074 24.118L32.697 25.509C37.236 26.875 39.351 28.623 38.375 30.202C38.104 30.641 39.169 31 40.741 31C42.313 31 44.088 31.488 44.685 32.085C45.281 32.681 46.834 33.019 48.135 32.835C49.979 32.574 50.491 31.895 50.461 29.75C50.439 28.237 50.962 27 51.622 27C52.283 27 52.672 27.787 52.488 28.75C52.304 29.712 52.119 31.054 52.077 31.732C51.96 33.612 45.527 39.849 42.529 40.989C35.055 43.83 29.092 41.682 17.439 31.949C12.728 28.014 8.654 25.012 8.387 25.279C7.657 26.009 24.779 40.965 27.55 42.019C28.875 42.523 31.542 43.041 33.479 43.172C35.485 43.307 37 43.942 37 44.648C37 47.16 41.378 49 47.356 49C50.608 49 55.023 49.526 57.167 50.168L61.066 51.336L57.837 54.668C56.061 56.501 54.047 58 53.363 58C52.678 58 51.84 58.45 51.5 59C50.008 61.414 54.931 59.696 57.948 56.75C63.372 51.453 63.855 50.123 64.397 39L64.907 28.5L63.392 38.478C62.559 43.966 61.792 48.54 61.689 48.642C61.221 49.103 41.059 47.155 40.089 46.555C38.243 45.414 38.886 43 41.035 43C43.637 43 47.809 40.309 51 36.573C52.781 34.487 53.704 31.899 54.208 27.573C54.811 22.403 54.563 20.683 52.542 16C51.236 12.975 49.641 9.077 48.999 7.338C47.932 4.452 47.284 4.081 41.583 3.088C34.298 1.819 30.286 1.795 27.5 3.002ZM14 14.378C14 14.585 13.213 15.373 12.25 16.128C10.664 17.371 10.629 17.336 11.872 15.75C13.179 14.084 14 13.555 14 14.378ZM52.109 18.968C53.049 22.108 53.032 23.256 52.026 24.468C50.455 26.362 48.6 26.484 49.305 24.647C50.041 22.729 46.005 19.374 44.972 21.045C44.499 21.811 43.488 22.001 42.351 21.538C40.567 20.813 40.566 20.76 42.324 20.104C43.327 19.729 44.115 19.102 44.074 18.711C43.848 16.541 44.247 16.095 46.75 15.716C48.263 15.487 49.819 15.232 50.21 15.15C50.6 15.067 51.455 16.786 52.109 18.968ZM38.5 20C38.16 20.55 37.432 21 36.882 21C36.332 21 36.16 20.55 36.5 20C36.84 19.45 37.568 19 38.118 19C38.668 19 38.84 19.45 38.5 20ZM47.793 25.25C47.863 25.938 48.215 27.738 48.576 29.25C48.986 30.964 48.824 32 48.148 32C47.551 32 47.29 31.409 47.567 30.687C47.844 29.965 47.144 28.535 46.012 27.511C44.442 26.09 44.255 25.455 45.226 24.839C47.013 23.705 47.647 23.806 47.793 25.25ZM5.494 29.959C5.487 35.168 6.825 35.595 7.114 30.477C7.346 26.376 7.128 24.999 6.25 25.003C5.838 25.005 5.497 27.235 5.494 29.959ZM44.5 29C45.282 30.266 43.958 30.266 42 29C40.707 28.165 40.734 28.029 42.191 28.015C43.121 28.007 44.16 28.45 44.5 29ZM2.655 42.829C1.745 43.835 1 45.285 1 46.051C1 46.888 1.622 46.557 2.557 45.223C3.413 44 4.763 43 5.557 43C6.351 43 7 42.55 7 42C7 40.37 4.437 40.859 2.655 42.829ZM28 44.929C28 46.348 31.154 49.187 31.869 48.411C32.216 48.034 31.938 47.525 31.25 47.28C30.563 47.034 30 46.196 30 45.417C30 44.638 29.55 44 29 44C28.45 44 28 44.418 28 44.929ZM14.5 53C14.16 53.55 14.776 54 15.87 54C16.963 54 18.532 54.675 19.357 55.5C21.064 57.207 24.577 57.493 25.5 56C25.84 55.45 26.991 55 28.059 55C29.127 55 30 54.55 30 54C30 52.457 26.396 52.818 25 54.5C23.353 56.484 22.316 56.394 19.273 54C16.421 51.757 15.401 51.543 14.5 53Z" fill="#C1C3C0"/>
<path fill-rule="evenodd" clip-rule="evenodd" d="M28 2.918C27.175 3.389 24.57 4.093 22.212 4.482C18.524 5.09 17.371 5.937 13.976 10.533C11.804 13.473 8.007 17.566 5.538 19.63C0.387001 23.936 0.235001 25.583 5.349 21.683C7.221 20.255 9.035 19.369 9.381 19.714C10.316 20.649 15.131 15.784 14.611 14.429C13.795 12.302 17.818 7.078 20.719 6.498C22.249 6.192 25.461 5.284 27.857 4.479C31.431 3.279 33.452 3.221 39.106 4.155C46.449 5.367 47.463 6.013 48.497 10.132C49.098 12.526 48.932 12.71 46.577 12.26C44.464 11.856 44 12.148 44 13.883C44 15.048 43.523 16 42.941 16C42.359 16 42.119 16.383 42.409 16.852C42.698 17.321 40.362 17.726 37.218 17.753C28.193 17.829 27 17.95 27 18.784C27 19.215 29.7 19.483 33 19.379C36.84 19.258 38.775 19.555 38.375 20.203C38.012 20.789 36.103 20.952 33.841 20.591C31.576 20.228 29.034 20.447 27.796 21.109C26.026 22.056 25.435 21.93 24.363 20.377C21.149 15.719 18.742 14.623 17.7 17.341C16.93 19.345 18.284 20.916 21.044 21.225C23.955 21.551 27 24.968 27 27.908C27 29.058 27.486 30 28.079 30C28.759 30 28.915 28.887 28.5 27C27.71 23.402 28.307 23.32 34.667 26.153C37.325 27.337 40.439 28.215 41.586 28.103C42.733 27.991 44.308 28.671 45.086 29.614C46.378 31.179 46.312 31.227 44.322 30.167C43.125 29.529 41.325 29.323 40.322 29.71C38.868 30.27 39.207 30.589 42 31.286C49.036 33.043 50.504 32.777 50.461 29.75C50.436 28.07 50.954 27 51.79 27C53.945 27 52.242 33.014 49.145 36.339C45.393 40.367 41.779 42 36.615 42C30.107 42 27.813 40.826 17.908 32.422C13.009 28.265 9 25.311 9 25.858C9 27.368 24.058 40.048 27.718 41.619C29.488 42.378 32.27 43 33.9 43C36.014 43 37.053 43.59 37.518 45.057C38.374 47.754 41.828 48.983 48.815 49.076C51.942 49.118 55.979 49.688 57.787 50.344L61.075 51.535L57.787 54.636C55.979 56.341 53.6 58.232 52.5 58.838C50.528 59.924 50.53 59.94 52.613 59.97C53.875 59.988 56.552 58.048 59.258 55.155L63.79 50.31L64.517 40.611C64.917 35.276 65.038 30.704 64.785 30.451C64.532 30.198 63.756 34.449 63.062 39.897L61.8 49.803L58.656 48.901C56.928 48.406 53.035 47.955 50.007 47.9C42.96 47.773 39.589 46.818 39.208 44.841C39.004 43.783 39.9 43.07 41.946 42.661C43.619 42.326 46.964 40.231 49.379 38.005C53.584 34.129 53.789 33.672 54.222 27.229C54.592 21.73 54.261 19.586 52.411 15.5C51.166 12.75 49.641 9.111 49.02 7.413C48 4.621 47.29 4.215 41.581 3.163C34.191 1.801 30.084 1.727 28 2.918ZM14 14.326C14 14.505 12.762 15.742 11.25 17.076L8.5 19.5L10.924 16.75C13.19 14.18 14 13.541 14 14.326ZM52.109 18.968C53.049 22.108 53.032 23.256 52.026 24.468C50.455 26.362 48.6 26.484 49.305 24.647C50.026 22.768 46.006 19.372 44.996 21.006C44.551 21.727 43.387 21.94 42.11 21.535C40.934 21.162 40.217 20.458 40.518 19.972C40.818 19.485 41.743 19.348 42.573 19.666C43.403 19.985 44.01 19.853 43.922 19.373C43.497 17.045 44.23 16.098 46.75 15.716C48.263 15.487 49.819 15.232 50.21 15.15C50.6 15.067 51.455 16.786 52.109 18.968ZM47.591 24.853C47.301 25.322 47.675 26.54 48.421 27.561C49.828 29.485 49.495 32 47.834 32C47.31 32 47.127 31.603 47.427 31.118C47.727 30.632 47.094 29.117 46.019 27.751C44.945 26.385 44.351 24.983 44.699 24.634C45.654 23.68 48.197 23.872 47.591 24.853ZM6.175 28.168C6.079 30.186 5.709 32.661 5.353 33.668C4.859 35.066 4.993 35.236 5.917 34.386C6.644 33.717 6.972 31.517 6.739 28.886C6.371 24.746 6.34 24.705 6.175 28.168ZM2.552 42.942C-0.287999 46.08 1.234 46.755 4.376 43.75C6.24 41.967 6.734 41 5.781 41C4.972 41 3.519 41.874 2.552 42.942ZM29.5 47C30.495 48.1 31.469 49 31.663 49C31.858 49 31.455 48.1 30.768 47C30.081 45.9 29.107 45 28.604 45C28.102 45 28.505 45.9 29.5 47ZM17.25 54.162C18.762 54.715 20 55.579 20 56.083C20 57.573 24.648 57.129 25.991 55.511C26.671 54.692 27.626 54.269 28.113 54.57C28.601 54.871 29 54.641 29 54.059C29 52.609 28.28 52.722 24.945 54.692C22.255 56.281 21.967 56.281 20.212 54.692C19.184 53.761 17.478 53.036 16.421 53.079C15 53.137 15.216 53.419 17.25 54.162Z" fill="#A6A8A5"/>
<path fill-rule="evenodd" clip-rule="evenodd" d="M28 3.025C26.625 3.502 23.595 4.382 21.267 4.98C17.818 5.867 16.439 6.977 13.818 10.98C12.05 13.682 8.427 17.551 5.768 19.579C3.109 21.607 1.152 23.486 1.42 23.754C1.688 24.022 3.666 22.849 5.814 21.147C7.962 19.446 9.997 18.331 10.336 18.669C11.286 19.62 14.151 16.835 13.627 15.47C12.932 13.66 16.675 8.082 19.248 7.094C27.973 3.744 32.663 3.04 39.044 4.125C46.171 5.338 47.555 6.221 48.525 10.18C49.102 12.534 48.929 12.794 47.103 12.317C45.665 11.941 44.812 12.347 44.335 13.637C43.956 14.661 43.163 15.867 42.573 16.316C41.951 16.789 42.34 16.933 43.5 16.658C50.65 14.969 50.666 14.971 51.848 17.566C52.482 18.957 53 20.903 53 21.892C53 23.891 49.46 27.588 48.768 26.311C48.526 25.865 48.529 26.175 48.775 27C49.66 29.97 49.476 31.293 48.111 31.772C47.342 32.042 47.001 31.807 47.347 31.247C47.691 30.691 47.065 29.081 45.955 27.67C44.043 25.24 44.031 25.056 45.718 24.187C46.698 23.683 48.175 23.5 49 23.78C49.825 24.061 49.376 23.366 48.003 22.236C46.484 20.986 45.26 20.58 44.878 21.198C44.125 22.416 40 21.29 40 19.865C40 19.314 41.011 19.139 42.25 19.474C44.34 20.04 44.324 19.98 42.027 18.637C40.308 17.632 37.867 17.353 34.027 17.722C26.419 18.454 25.761 19.547 33.081 19.291C37.111 19.151 38.852 19.431 38.408 20.149C38.01 20.793 36.202 20.968 33.841 20.591C31.625 20.236 29.037 20.445 27.864 21.073C26.088 22.023 25.412 21.72 23.075 18.921C20.411 15.73 18 15.541 18 18.524C18 20.049 21.813 22.52 22.739 21.594C23.051 21.282 24.363 22.458 25.653 24.208C27.274 26.404 28 26.864 28 25.694C28 23.85 31.459 23.316 32.5 25C32.84 25.55 33.974 26 35.02 26C36.065 26 37.478 26.596 38.158 27.324C38.838 28.052 40.345 28.465 41.508 28.243C42.67 28.021 44.135 28.457 44.762 29.213C45.699 30.342 45.242 30.541 42.201 30.326L38.5 30.066L42 31.113C43.925 31.689 46.625 32.237 48 32.33C50.105 32.473 50.494 32.069 50.463 29.775C50.442 28.277 51.004 26.829 51.713 26.557C54.095 25.642 53.103 31.545 50.25 35.252C46.739 39.815 42.182 42 36.178 42C30.058 42 25.852 39.797 17.074 31.996C13.171 28.527 9.731 25.936 9.429 26.238C9.127 26.54 10.764 28.297 13.065 30.143C15.367 31.989 19.134 35.166 21.436 37.203C26.148 41.372 29.722 43 34.159 43C36.384 43 37.331 43.551 37.73 45.077C38.452 47.837 41.821 48.99 49.315 49.045C52.717 49.07 56.712 49.632 58.194 50.295L60.889 51.5L58.582 54.146C57.313 55.601 54.975 57.496 53.387 58.356C51.35 59.459 51.022 59.932 52.272 59.96C54.845 60.018 62.781 52.326 63.392 49.182C63.679 47.707 64.14 42.9 64.418 38.5C64.958 29.933 63.876 33.23 62.56 44.163L61.878 49.825L58.696 48.913C56.945 48.411 52.952 48 49.822 48C43.285 48 39 46.673 39 44.65C39 43.877 40.425 42.965 42.182 42.614C44.096 42.231 47.048 40.221 49.585 37.573C53.358 33.635 53.853 32.55 54.257 27.334C54.615 22.713 54.234 20.461 52.421 16.5C51.163 13.75 49.834 10.281 49.468 8.791C48.558 5.082 47.422 4.354 40.566 3.092C33.725 1.833 31.472 1.821 28 3.025ZM13 15.378C13 15.585 12.213 16.373 11.25 17.128C9.664 18.371 9.629 18.336 10.872 16.75C12.179 15.084 13 14.555 13 15.378ZM6.286 29.5C6.294 32.25 6.488 33.256 6.718 31.736C6.947 30.216 6.941 27.966 6.704 26.736C6.467 25.506 6.279 26.75 6.286 29.5ZM27 29.059C27 29.641 27.45 29.84 28 29.5C28.55 29.16 29 28.684 29 28.441C29 28.198 28.55 28 28 28C27.45 28 27 28.477 27 29.059ZM2.861 42.914C1.562 43.967 0.725 45.051 1 45.324C1.275 45.597 2.85 44.738 4.5 43.415C6.15 42.092 6.987 41.008 6.361 41.005C5.734 41.002 4.159 41.861 2.861 42.914ZM29 45.941C29 46.459 29.445 47.157 29.989 47.493C30.555 47.843 30.723 47.442 30.382 46.552C29.717 44.82 29 44.503 29 45.941ZM18.5 55C23.197 57.395 24.363 57.472 26 55.5C26.86 54.464 26.898 54 26.122 54C25.505 54 25 54.45 25 55C25 56.472 21.793 56.158 19.559 54.468C18.491 53.661 16.934 53 16.097 53C15.261 53 16.342 53.9 18.5 55Z" fill="#858784"/>
<path fill-rule="evenodd" clip-rule="evenodd" d="M26.5 3.547C24.3 4.26 21.332 5.094 19.905 5.401C18.189 5.771 16.084 7.807 13.695 11.405C11.706 14.399 8.005 18.276 5.47 20.021C2.934 21.765 1.105 23.438 1.405 23.739C1.706 24.039 4.437 22.161 7.476 19.565C12.443 15.321 14.962 14.4 11.75 18.002C10.684 19.197 10.761 19.205 12.273 18.061C13.247 17.322 13.812 15.982 13.526 15.082C12.844 12.934 18.579 6 21.038 6C22.079 6 25.001 5.297 27.531 4.438C31.43 3.114 33.25 3.056 39.46 4.058C45.661 5.058 46.959 5.614 47.894 7.667C49.552 11.305 49.243 12.668 46.781 12.579C45.365 12.529 44.424 13.186 44.18 14.397C43.844 16.061 44.242 16.222 47.41 15.708C50.794 15.159 51.116 15.341 52.461 18.561C53.251 20.452 54.162 22 54.484 22C54.807 22 54.572 20.988 53.962 19.75C52.755 17.3 51.068 13.501 48.704 7.912C47.254 4.483 46.875 4.272 40.151 3.162C32.025 1.82 31.816 1.826 26.5 3.547ZM47 13.441C47 13.684 46.55 14.16 46 14.5C45.45 14.84 45 14.641 45 14.059C45 13.477 45.45 13 46 13C46.55 13 47 13.198 47 13.441ZM18.667 16.667C17.374 17.96 18.024 19.943 20.107 21.057C23.263 22.746 24.916 20.669 22.521 18.024C20.581 15.88 19.747 15.586 18.667 16.667ZM21.5 18C21.84 18.55 21.668 19 21.118 19C20.568 19 19.84 18.55 19.5 18C19.16 17.45 19.332 17 19.882 17C20.432 17 21.16 17.45 21.5 18ZM33.5 17.81C26.312 18.256 25.949 19.54 33.081 19.291C36.697 19.165 38.832 19.462 38.475 20.041C38.149 20.569 35.771 21.045 33.191 21.1C30.611 21.155 27.445 21.496 26.155 21.858L23.809 22.517L26.074 24.509C28.047 26.243 28.257 26.274 27.701 24.75C26.89 22.526 26.868 22.524 34.192 25.5C37.576 26.875 41.392 28 42.672 28C46.275 28 45.419 29.982 41.75 30.136C39.104 30.247 38.965 30.348 41 30.678C42.375 30.901 44.482 31.574 45.683 32.174C50.25 34.458 52.682 30.679 49.334 26.5L47.731 24.5L48.477 26.5C49.798 30.044 49.544 31.416 47.5 31.765C46.137 31.999 45.898 31.833 46.751 31.244C47.707 30.585 47.509 29.85 45.918 28.143C44.216 26.316 44.062 25.63 45.077 24.407C45.761 23.583 47.011 23.174 47.854 23.498C49.002 23.938 48.918 23.566 47.518 22.019C46.262 20.633 45.419 20.322 44.954 21.075C44.04 22.554 40.793 21.882 40.196 20.091C39.869 19.108 40.238 18.878 41.415 19.329C42.344 19.686 42.863 19.587 42.568 19.109C41.783 17.839 39.139 17.46 33.5 17.81ZM51.935 25.121C51.138 26.611 51.127 27.039 51.9 26.562C52.617 26.119 52.99 27.034 52.971 29.191C52.914 35.575 44.661 42 36.518 42C30.01 42 25.912 39.965 17.169 32.391L9.5 25.748L17 32.931C25.18 40.764 29.058 43 34.468 43C37.298 43 38 43.386 38 44.941C38 47.731 39.063 48.106 49.5 49C54.655 49.442 59.347 50.096 59.927 50.455C61.482 51.416 57.082 56.932 53.5 58.513C51.345 59.464 51.03 59.86 52.382 59.918C54.247 59.999 63 52.108 63 50.346C63 49.841 62.212 49.345 61.25 49.243C60.288 49.141 55.433 48.681 50.463 48.22C45.493 47.759 40.88 47.044 40.213 46.632C38.033 45.285 38.937 43.263 41.991 42.652C43.735 42.303 46.862 40.092 49.491 37.348C53.562 33.099 54 32.174 54 27.821C54 22.482 53.616 21.98 51.935 25.121ZM63.467 38.467C63.077 42.11 62.974 45.307 63.238 45.571C63.502 45.836 64.025 43.059 64.4 39.4C64.775 35.741 64.878 32.544 64.629 32.295C64.38 32.046 63.857 34.823 63.467 38.467ZM2.861 42.914C1.562 43.967 0.732 45.061 1.015 45.345C1.298 45.63 2.583 44.769 3.87 43.431C6.669 40.523 6.143 40.253 2.861 42.914ZM19 54.378C19 54.585 19.788 55.373 20.75 56.128C22.336 57.371 22.371 57.336 21.128 55.75C19.821 54.084 19 53.555 19 54.378Z" fill="#5C5E5B"/>
<path fill-rule="evenodd" clip-rule="evenodd" d="M31.75 2.662C32.438 2.94 33.563 2.94 34.25 2.662C34.938 2.385 34.375 2.158 33 2.158C31.625 2.158 31.063 2.385 31.75 2.662ZM38.813 3.683C39.534 3.972 40.397 3.936 40.729 3.604C41.061 3.272 40.471 3.036 39.417 3.079C38.252 3.127 38.015 3.364 38.813 3.683ZM43.813 4.683C44.534 4.972 45.397 4.936 45.729 4.604C46.061 4.272 45.471 4.036 44.417 4.079C43.252 4.127 43.015 4.364 43.813 4.683ZM15.278 9.25C13.779 11.188 12.836 13 13.326 13C13.57 13 14.507 11.875 15.408 10.5C17.094 7.927 17 7.024 15.278 9.25ZM44.015 13.781C43.994 15.559 46.897 16.503 48.243 15.157C49.055 14.345 49.774 14.376 50.926 15.274C52.314 16.355 52.338 16.294 51.128 14.75C49.525 12.706 47.383 12.466 46.659 14.25C46.278 15.191 45.89 15.129 45.091 14C44.339 12.937 44.026 12.873 44.015 13.781ZM9.924 16.75L7.5 19.5L10.25 17.076C11.762 15.742 13 14.505 13 14.326C13 13.541 12.19 14.18 9.924 16.75ZM11.872 17.75C10.629 19.336 10.664 19.371 12.25 18.128C13.916 16.821 14.445 16 13.622 16C13.415 16 12.627 16.788 11.872 17.75ZM32 18.395C32 19.138 36.01 19.793 36.427 19.118C36.663 18.737 35.763 18.334 34.428 18.223C33.093 18.113 32 18.19 32 18.395ZM40 18.393C40 18.609 40.698 19.054 41.552 19.382C42.442 19.723 42.843 19.555 42.493 18.989C41.906 18.038 40 17.583 40 18.393ZM4.872 20.75C3.629 22.336 3.664 22.371 5.25 21.128C6.213 20.373 7 19.585 7 19.378C7 18.555 6.179 19.084 4.872 20.75ZM18 19.393C18 19.609 18.698 20.054 19.552 20.382C20.442 20.723 20.843 20.555 20.493 19.989C19.906 19.038 18 18.583 18 19.393ZM33.75 20.8C30.587 20.965 28 21.418 28 21.806C28 22.194 29.462 23.128 31.25 23.88C33.038 24.633 35.807 25.868 37.404 26.625C40.832 28.249 42.358 28.388 41.5 27C41.16 26.45 41.528 26 42.319 26C43.109 26 44.332 25.305 45.038 24.454C45.743 23.604 46.947 23.149 47.712 23.443C48.478 23.737 48.829 23.532 48.493 22.989C48.157 22.445 46.424 22 44.641 22C42.858 22 40.972 21.663 40.45 21.25C39.928 20.837 36.913 20.635 33.75 20.8ZM24.733 23.124C25.412 23.808 26.219 24.115 26.526 23.807C26.834 23.499 26.279 22.94 25.293 22.564C23.868 22.022 23.753 22.136 24.733 23.124ZM48 25.941C48 26.459 48.445 27.157 48.989 27.493C49.555 27.843 49.723 27.442 49.382 26.552C48.717 24.82 48 24.503 48 25.941ZM52.881 28.219C53.342 30.996 53.482 31.136 53.797 29.135C54.002 27.834 53.757 26.357 53.253 25.853C52.698 25.298 52.552 26.231 52.881 28.219ZM17 32.905C20.575 36.278 24.4 39.509 25.5 40.086C27.274 41.016 27.257 40.929 25.347 39.317C24.163 38.318 20.338 35.086 16.847 32.136L10.5 26.772L17 32.905ZM43.816 27.865C44.541 28.325 45.256 29.555 45.407 30.6C45.579 31.793 46.577 32.575 48.091 32.702C50.168 32.875 50.225 32.807 48.5 32.202C47.4 31.816 46.455 30.938 46.4 30.25C46.17 27.38 45.918 27.001 44.25 27.015C42.928 27.027 42.822 27.235 43.816 27.865ZM50.405 35.25L48.5 37.5L50.75 35.595C51.987 34.547 53 33.535 53 33.345C53 32.545 52.195 33.136 50.405 35.25ZM46.441 39.555C44.577 41.049 44.589 41.067 46.75 40.02C47.987 39.42 49 38.72 49 38.465C49 37.7 48.481 37.921 46.441 39.555ZM63.158 42C63.158 43.375 63.385 43.938 63.662 43.25C63.94 42.563 63.94 41.438 63.662 40.75C63.385 40.063 63.158 40.625 63.158 42ZM2.507 42.989C2.157 43.555 2.558 43.723 3.448 43.382C5.18 42.717 5.497 42 4.059 42C3.541 42 2.843 42.445 2.507 42.989ZM33.768 42.725C35.565 42.947 38.265 42.943 39.768 42.715C41.271 42.486 39.8 42.304 36.5 42.31C33.2 42.315 31.971 42.502 33.768 42.725ZM39.813 47.683C40.534 47.972 41.397 47.936 41.729 47.604C42.061 47.272 41.471 47.036 40.417 47.079C39.252 47.127 39.015 47.364 39.813 47.683ZM46.75 48.723C48.538 48.945 51.462 48.945 53.25 48.723C55.038 48.502 53.575 48.32 50 48.32C46.425 48.32 44.962 48.502 46.75 48.723ZM60.964 51.164C59.819 53.397 59.846 53.424 61.574 51.774C62.568 50.824 63.107 49.773 62.771 49.438C62.436 49.103 61.623 49.88 60.964 51.164ZM56.924 56.75L54.5 59.5L57.25 57.076C59.82 54.81 60.459 54 59.674 54C59.495 54 58.258 55.237 56.924 56.75Z" fill="#2D2F2C"/>
<path fill-rule="evenodd" clip-rule="evenodd" d="M47 14C47 14.55 47.477 15 48.059 15C48.641 15 48.84 14.55 48.5 14C48.16 13.45 47.684 13 47.441 13C47.198 13 47 13.45 47 14ZM33.58 20.918L27.659 21.5L32.293 23.802C35.77 25.529 37.811 25.938 40.464 25.441C44.589 24.667 45.058 23.304 41.507 22.412C40.136 22.068 39.262 21.385 39.566 20.893C39.87 20.402 39.979 20.076 39.809 20.168C39.639 20.261 36.836 20.598 33.58 20.918ZM43.083 27.283C43.313 27.439 44.4 28.226 45.5 29.033C47.35 30.39 47.397 30.369 46.128 28.75C45.373 27.788 44.285 27 43.711 27C43.137 27 42.854 27.127 43.083 27.283ZM21.5 37C22.495 38.1 23.535 39 23.81 39C24.085 39 23.495 38.1 22.5 37C21.505 35.9 20.465 35 20.19 35C19.915 35 20.505 35.9 21.5 37Z" fill="#010000"/>
</svg>
