<svg width="64" height="64" viewBox="0 0 64 64" fill="none" xmlns="http://www.w3.org/2000/svg">
<g clip-path="url(#clip0_1_12)">
<path fill-rule="evenodd" clip-rule="evenodd" d="M18.31 2.85673C12.524 5.40412 5.896 11.5743 2.961 17.1472C0.809 21.2325 0.5 23.0953 0.5 32C0.5 40.9047 0.809 42.7675 2.961 46.8528C5.896 52.4257 12.524 58.5959 18.31 61.1433C24.228 63.7488 39.772 63.7488 45.69 61.1433C51.476 58.5959 58.104 52.4257 61.039 46.8528C63.191 42.7675 63.5 40.9047 63.5 32C63.5 23.0953 63.191 21.2325 61.039 17.1472C58.104 11.5743 51.476 5.40412 45.69 2.85673C39.772 0.251152 24.228 0.251152 18.31 2.85673Z" fill="#D8D7DA"/>
<path fill-rule="evenodd" clip-rule="evenodd" d="M18.31 2.85673C12.524 5.40412 5.896 11.5743 2.961 17.1472C0.809 21.2325 0.5 23.0953 0.5 32C0.5 40.9047 0.809 42.7675 2.961 46.8528C5.896 52.4257 12.524 58.5959 18.31 61.1433C24.228 63.7488 39.772 63.7488 45.69 61.1433C51.476 58.5959 58.104 52.4257 61.039 46.8528C63.191 42.7675 63.5 40.9047 63.5 32C63.5 23.0953 63.191 21.2325 61.039 17.1472C58.104 11.5743 51.476 5.40412 45.69 2.85673C39.772 0.251152 24.228 0.251152 18.31 2.85673ZM30.728 26.9091C30.513 28.9096 30.336 27.2727 30.336 23.2727C30.336 19.2727 30.513 17.6368 30.728 19.6364C30.944 21.6368 30.944 24.9096 30.728 26.9091ZM43 25.5467C43 25.7309 41.987 26.7122 40.75 27.7285L38.5 29.5758L40.405 27.3939C42.195 25.344 43 24.7709 43 25.5467ZM31.729 31.616C31.397 31.9379 30.534 31.9728 29.813 31.6926C29.015 31.3833 29.252 31.1535 30.417 31.1069C31.471 31.0652 32.061 31.2941 31.729 31.616ZM25.25 32.7011C23.462 32.9164 20.538 32.9164 18.75 32.7011C16.962 32.4868 18.425 32.3103 22 32.3103C25.575 32.3103 27.038 32.4868 25.25 32.7011Z" fill="#B6B5BB"/>
<path fill-rule="evenodd" clip-rule="evenodd" d="M18.31 2.85673C12.524 5.40412 5.896 11.5743 2.961 17.1472C0.809 21.2325 0.5 23.0953 0.5 32C0.5 40.9047 0.809 42.7675 2.961 46.8528C5.896 52.4257 12.524 58.5959 18.31 61.1433C24.228 63.7488 39.772 63.7488 45.69 61.1433C51.476 58.5959 58.104 52.4257 61.039 46.8528C63.191 42.7675 63.5 40.9047 63.5 32C63.5 23.0953 63.191 21.2325 61.039 17.1472C58.104 11.5743 51.476 5.40412 45.69 2.85673C39.772 0.251152 24.228 0.251152 18.31 2.85673ZM30.728 26.9091C30.513 28.9096 30.336 27.2727 30.336 23.2727C30.336 19.2727 30.513 17.6368 30.728 19.6364C30.944 21.6368 30.944 24.9096 30.728 26.9091ZM44 24.5585C44 24.7321 42.763 25.9316 41.25 27.2252L38.5 29.5758L40.924 26.9091C43.19 24.417 44 23.7973 44 24.5585ZM33 31.4114C33 32.3316 30.007 32.7952 29.473 31.9573C29.148 31.4473 29.809 31.0303 30.941 31.0303C32.073 31.0303 33 31.2019 33 31.4114ZM25.25 32.7011C23.462 32.9164 20.538 32.9164 18.75 32.7011C16.962 32.4868 18.425 32.3103 22 32.3103C25.575 32.3103 27.038 32.4868 25.25 32.7011ZM23.5 40.7273C27.32 44.4606 30.221 47.5151 29.946 47.5151C29.671 47.5151 26.32 44.4606 22.5 40.7273C18.68 36.9939 15.779 33.9394 16.054 33.9394C16.329 33.9394 19.68 36.9939 23.5 40.7273Z" fill="#85838D"/>
<path fill-rule="evenodd" clip-rule="evenodd" d="M18.31 2.85673C12.524 5.40412 5.896 11.5743 2.961 17.1472C0.809 21.2325 0.5 23.0953 0.5 32C0.5 40.9047 0.809 42.7675 2.961 46.8528C5.896 52.4257 12.524 58.5959 18.31 61.1433C24.228 63.7488 39.772 63.7488 45.69 61.1433C51.476 58.5959 58.104 52.4257 61.039 46.8528C63.191 42.7675 63.5 40.9047 63.5 32C63.5 23.0953 63.191 21.2325 61.039 17.1472C58.104 11.5743 51.476 5.40412 45.69 2.85673C39.772 0.251152 24.228 0.251152 18.31 2.85673ZM30.728 26.9091C30.513 28.9096 30.336 27.2727 30.336 23.2727C30.336 19.2727 30.513 17.6368 30.728 19.6364C30.944 21.6368 30.944 24.9096 30.728 26.9091ZM44 24.5459C44 24.7127 42.538 26.1314 40.75 27.6975L37.5 30.5455L40.437 27.3939C43.175 24.4567 44 23.7964 44 24.5459ZM32.622 31.7227C31.077 32.1076 32.041 33.4555 38.068 39.3396C42.096 43.2718 45.191 46.6162 44.946 46.7724C44.701 46.9285 40.929 43.4502 36.565 39.0439C28.966 31.3697 28.754 31.0352 31.565 31.1428C33.494 31.2165 33.857 31.4153 32.622 31.7227ZM22.077 32.7224L15.654 33.0705L23.077 40.5353L30.5 48L22.75 40.7515C18.487 36.7651 15 33.1646 15 32.7515C15 32.3384 18.038 32.0844 21.75 32.1872L28.5 32.3733L22.077 32.7224Z" fill="#6C6B76"/>
<path fill-rule="evenodd" clip-rule="evenodd" d="M18.31 2.85673C12.524 5.40412 5.896 11.5743 2.961 17.1472C0.809 21.2325 0.5 23.0953 0.5 32C0.5 40.9047 0.809 42.7675 2.961 46.8528C5.896 52.4257 12.524 58.5959 18.31 61.1433C24.228 63.7488 39.772 63.7488 45.69 61.1433C51.476 58.5959 58.104 52.4257 61.039 46.8528C63.191 42.7675 63.5 40.9047 63.5 32C63.5 23.0953 63.191 21.2325 61.039 17.1472C58.104 11.5743 51.476 5.40412 45.69 2.85673C39.772 0.251152 24.228 0.251152 18.31 2.85673ZM38.25 16.2356L31 16.5702L30.807 23.5578L30.615 30.5455L30.256 24.3442C29.743 15.4793 29.739 15.4831 38.219 15.7081L45.5 15.9001L38.25 16.2356ZM41.513 26.9411L37.626 30.5455L41.063 26.592C42.953 24.4179 44.703 22.7956 44.95 22.9876C45.197 23.1806 43.651 24.959 41.513 26.9411ZM32.74 31.8419C31.277 32.4034 32.164 33.6562 37.99 39.263C41.845 42.9731 45 46.2895 45 46.6327C45 46.976 41.513 43.9021 37.25 39.8022L29.5 32.3472L22.616 32.7467L15.731 33.1471L23.116 40.5731L30.5 48L22.75 40.7515C18.487 36.7651 15 33.185 15 32.7961C15 32.1823 19.421 31.7789 31.5 31.2882C33.562 31.2048 33.949 31.3775 32.74 31.8419ZM40.25 48.2162C38.462 48.4315 35.538 48.4315 33.75 48.2162C31.962 48.0019 33.425 47.8255 37 47.8255C40.575 47.8255 42.038 48.0019 40.25 48.2162Z" fill="#5D5B68"/>
<path fill-rule="evenodd" clip-rule="evenodd" d="M18.31 2.85673C12.524 5.40412 5.896 11.5743 2.961 17.1472C0.809 21.2325 0.5 23.0953 0.5 32C0.5 40.9047 0.809 42.7675 2.961 46.8528C5.896 52.4257 12.524 58.5959 18.31 61.1433C24.228 63.7488 39.772 63.7488 45.69 61.1433C51.476 58.5959 58.104 52.4257 61.039 46.8528C63.191 42.7675 63.5 40.9047 63.5 32C63.5 23.0953 63.191 21.2325 61.039 17.1472C58.104 11.5743 51.476 5.40412 45.69 2.85673C39.772 0.251152 24.228 0.251152 18.31 2.85673ZM46.595 17.2364C46.735 17.9161 46.621 18.0257 46.342 17.4788C46.062 16.9319 42.531 16.4848 38.496 16.4848H31.158L30.829 23.8478L30.5 31.2097L33.906 30.6715C37.813 30.0538 42.63 26.0596 44.583 21.8182C45.319 20.2182 45.939 19.5714 45.961 20.3811C46.076 24.6943 37.532 32 32.374 32C31.107 32 32.792 34.1886 37.898 39.1728C42.044 43.2204 44.948 46.8121 44.564 47.4153C44.177 48.0223 40.995 48.4848 37.213 48.4848H30.544L22.772 40.992C18.497 36.8718 15 33.1627 15 32.7496C15 32.3375 17.835 32 21.3 32C24.867 32 28.121 31.4948 28.8 30.8364C29.492 30.1653 30 26.9508 30 23.2407C30 19.7023 30.317 16.5004 30.705 16.1241C31.983 14.8858 46.316 15.8885 46.595 17.2364ZM22.077 32.7224L15.654 33.0705L23.052 40.2928L30.45 47.5151H37.225C40.951 47.5151 44 47.1981 44 46.8111C44 45.8938 29.713 31.9418 29.025 32.1872C28.736 32.2899 25.61 32.5304 22.077 32.7224Z" fill="#221F31"/>
<path fill-rule="evenodd" clip-rule="evenodd" d="M18.31 2.85673C12.524 5.40412 5.896 11.5743 2.961 17.1472C0.809 21.2325 0.5 23.0953 0.5 32C0.5 40.9047 0.809 42.7675 2.961 46.8528C5.896 52.4257 12.524 58.5959 18.31 61.1433C21.476 62.5367 24.834 62.9925 32.054 63.009C40.284 63.0274 42.307 62.6919 46.659 60.5896C52.444 57.7939 57.953 52.416 61.235 46.3612C63.172 42.7869 63.499 40.7088 63.495 32C63.489 19.648 62.435 17.0473 54.149 8.92897C47.649 2.56097 43.316 1.01236 32 1.01236C24.798 1.01236 21.487 1.45842 18.31 2.85673ZM46.623 16.9299C48.335 21.2558 41 30.497 34.918 31.6761C33.313 31.9874 32 32.5275 32 32.8766C32 33.2257 34.925 36.3219 38.5 39.7576C42.075 43.1932 45 46.5629 45 47.2446C45 48.1455 42.872 48.4848 37.225 48.4848H29.45L22.085 41.2955C13.006 32.4315 13.058 31.0303 22.469 31.0303H29V23.9195C29 20.0078 29.3 16.5168 29.667 16.1619C30.033 15.8061 33.872 15.5152 38.198 15.5152C44.168 15.5152 46.198 15.8565 46.623 16.9299ZM30.829 23.8478L30.5 31.2097L33.906 30.6715C39.125 29.8473 46 22.3505 46 17.4856C46 16.8873 43.014 16.4848 38.579 16.4848H31.158L30.829 23.8478ZM22.077 32.7224L15.654 33.0705L23.052 40.2928L30.45 47.5152H37.225C40.951 47.5152 44 47.1981 44 46.8111C44 45.8938 29.713 31.9418 29.025 32.1872C28.736 32.2899 25.61 32.5304 22.077 32.7224Z" fill="#050116"/>
<path fill-rule="evenodd" clip-rule="evenodd" d="M30.829 23.8478L30.5 31.2097L33.906 30.6715C39.125 29.8473 46 22.3505 46 17.4856C46 16.8873 43.014 16.4848 38.579 16.4848H31.158L30.829 23.8478ZM22.077 32.7224L15.654 33.0705L23.052 40.2928L30.45 47.5152H37.225C40.951 47.5152 44 47.1981 44 46.8112C44 45.8938 29.713 31.9418 29.025 32.1872C28.736 32.2899 25.61 32.5304 22.077 32.7224Z" fill="white"/>
</g>
<defs>
<clipPath id="clip0_1_12">
<rect width="64" height="64" rx="32" fill="white"/>
</clipPath>
</defs>
</svg>
