<svg width="64" height="64" viewBox="0 0 64 64" fill="none" xmlns="http://www.w3.org/2000/svg">
<path fill-rule="evenodd" clip-rule="evenodd" d="M0 32V64H32H64V32V0H32H0V32Z" fill="#1F232F"/>
<path fill-rule="evenodd" clip-rule="evenodd" d="M26.823 11.763C25.351 11.959 23.608 12.767 22.951 13.559C22.178 14.49 19.832 15 16.319 15C12.949 15 11.117 15.38 11.5 16C11.84 16.55 13.554 17 15.309 17C18.261 17 18.493 17.243 18.409 20.25C18.338 22.779 17.838 23.571 16.159 23.82C13.051 24.28 13.497 25.986 16.75 26.079L19.5 26.158L16.526 27.237C13.837 28.213 13.741 28.39 15.526 29.088C17.48 29.851 17.479 29.86 15.5 29.945C13.831 30.016 13.749 30.194 15 31.015C16.333 31.891 16.333 32.109 15 32.985C13.749 33.806 13.831 33.984 15.5 34.055C17.479 34.14 17.48 34.149 15.526 34.912C13.741 35.61 13.837 35.787 16.526 36.763L19.5 37.842L16.75 37.921C13.789 38.006 12.842 39.99 15.75 40.015C17.09 40.027 17.188 40.229 16.166 40.876C15.073 41.569 15.093 41.822 16.277 42.276C17.072 42.581 17.968 43.769 18.268 44.915C18.74 46.722 18.366 47 15.465 47C13.624 47 11.84 47.45 11.5 48C11.118 48.618 12.88 49 16.112 49C19.382 49 21.97 49.568 23.017 50.516C24.828 52.154 33.494 53.116 38.76 52.263C42.365 51.679 51 44.69 51 42.356C51 41.545 51.419 41.141 51.931 41.457C54.126 42.814 55.877 34.362 54.719 28C53.991 23.997 52.869 21.963 51.765 22.645C51.202 22.993 50.941 22.678 51.185 21.945C51.784 20.149 42.502 12.024 39.717 11.907C38.497 11.855 35.7 11.722 33.5 11.611C31.3 11.499 28.295 11.568 26.823 11.763ZM15.813 22.683C16.534 22.972 17.397 22.936 17.729 22.604C18.061 22.272 17.471 22.036 16.417 22.079C15.252 22.127 15.015 22.364 15.813 22.683Z" fill="#FFFFA3"/>
<path fill-rule="evenodd" clip-rule="evenodd" d="M26.823 11.763C25.351 11.959 23.608 12.767 22.951 13.559C22.178 14.49 19.832 15 16.319 15C12.949 15 11.117 15.38 11.5 16C11.84 16.55 13.554 17 15.309 17C18.261 17 18.493 17.243 18.409 20.25C18.338 22.779 17.838 23.571 16.159 23.82C13.051 24.28 13.497 25.986 16.75 26.079L19.5 26.158L16.526 27.237C13.837 28.213 13.741 28.39 15.526 29.088C17.48 29.851 17.479 29.86 15.5 29.945C13.831 30.016 13.749 30.194 15 31.015C16.333 31.891 16.333 32.109 15 32.985C13.749 33.806 13.831 33.984 15.5 34.055C17.479 34.14 17.48 34.149 15.526 34.912C13.741 35.61 13.837 35.787 16.526 36.763L19.5 37.842L16.75 37.921C13.789 38.006 12.842 39.99 15.75 40.015C17.09 40.027 17.188 40.229 16.166 40.876C15.073 41.569 15.093 41.822 16.277 42.276C17.072 42.581 17.968 43.769 18.268 44.915C18.74 46.722 18.366 47 15.465 47C13.624 47 11.84 47.45 11.5 48C11.118 48.618 12.88 49 16.112 49C19.382 49 21.97 49.568 23.017 50.516C24.828 52.154 33.494 53.116 38.76 52.263C42.365 51.679 51 44.69 51 42.356C51 41.545 51.419 41.141 51.931 41.457C54.126 42.814 55.877 34.362 54.719 28C53.991 23.997 52.869 21.963 51.765 22.645C51.202 22.993 50.941 22.678 51.185 21.945C51.784 20.149 42.502 12.024 39.717 11.907C38.497 11.855 35.7 11.722 33.5 11.611C31.3 11.499 28.295 11.568 26.823 11.763ZM43.096 17.677C44.968 18.799 46.376 20.264 46.225 20.933C46.074 21.602 46.392 21.875 46.933 21.542C48.61 20.505 51 26.65 51 32C51 37.35 48.61 43.495 46.933 42.458C46.392 42.125 46.074 42.447 46.225 43.176C46.376 43.904 45.938 44.388 45.25 44.25C44.563 44.113 44.113 44.504 44.25 45.12C44.568 46.542 38.527 48.824 34.183 48.924C31.306 48.99 30.95 48.734 31.5 47C32.053 45.258 31.68 45 28.606 45C24.411 45 21.445 42.263 19.998 37.054C18.766 32.619 18.766 31.381 19.998 26.946C21.348 22.087 24.449 19 27.98 19C32.102 19 32.875 17.027 28.809 16.882L25.5 16.763L28.5 16.044C33.49 14.848 39.499 15.52 43.096 17.677ZM24.729 16.604C24.397 16.936 23.534 16.972 22.813 16.683C22.015 16.364 22.252 16.127 23.417 16.079C24.471 16.036 25.061 16.272 24.729 16.604ZM15.813 22.683C16.534 22.972 17.397 22.936 17.729 22.604C18.061 22.272 17.471 22.036 16.417 22.079C15.252 22.127 15.015 22.364 15.813 22.683ZM30.206 27.465C27.947 30.337 28.101 34.349 30.576 37.084C34.352 41.257 42 37.853 42 32C42 25.732 33.991 22.653 30.206 27.465ZM28.25 47.706C27.012 47.944 24.988 47.944 23.75 47.706C22.512 47.467 23.525 47.272 26 47.272C28.475 47.272 29.488 47.467 28.25 47.706Z" fill="#EADF6B"/>
<path fill-rule="evenodd" clip-rule="evenodd" d="M26.823 11.763C25.351 11.959 23.608 12.767 22.951 13.559C22.171 14.498 19.813 15 16.178 15C12.026 15 10.889 15.289 11.732 16.132C12.574 16.974 14.809 16.974 20.473 16.132C35.445 13.905 42.141 15.005 47.267 20.532C54.373 28.195 52.493 41.283 43.532 46.534C38.661 49.389 31.535 49.771 20.022 47.797C14.555 46.86 12.74 46.86 11.803 47.797C10.866 48.734 11.786 49 15.971 49C19.367 49 21.958 49.557 23.017 50.516C24.828 52.154 33.494 53.116 38.76 52.263C42.365 51.679 51 44.69 51 42.356C51 41.545 51.419 41.141 51.931 41.457C54.126 42.814 55.877 34.362 54.719 28C53.991 23.997 52.869 21.963 51.765 22.645C51.202 22.993 50.941 22.678 51.185 21.945C51.784 20.149 42.502 12.024 39.717 11.907C38.497 11.855 35.7 11.722 33.5 11.611C31.3 11.499 28.295 11.568 26.823 11.763ZM18.401 18.397C18.106 19.165 18.008 20.628 18.183 21.647C18.402 22.93 17.808 23.598 16.25 23.82C13.228 24.249 13.37 26 16.427 26C17.994 26 19.897 24.735 21.797 22.431C23.415 20.468 25.459 18.756 26.34 18.626C30.274 18.049 28.852 17 24.135 17C20.608 17 18.765 17.449 18.401 18.397ZM15.813 22.683C16.534 22.972 17.397 22.936 17.729 22.604C18.061 22.272 17.471 22.036 16.417 22.079C15.252 22.127 15.015 22.364 15.813 22.683ZM33 25.741C27.119 28.028 28 36.958 34.261 38.529C36.3 39.041 37.479 38.612 39.45 36.641C42.657 33.434 42.686 30.595 39.545 27.455C37.084 24.993 35.793 24.655 33 25.741ZM16.526 27.237C13.837 28.213 13.741 28.39 15.526 29.088C17.48 29.851 17.479 29.86 15.5 29.945C13.831 30.016 13.749 30.194 15 31.015C16.333 31.891 16.333 32.109 15 32.985C13.749 33.806 13.831 33.984 15.5 34.055C17.458 34.139 17.459 34.157 15.551 34.903C13.805 35.586 13.909 35.773 16.551 36.694L19.5 37.722V31.861C19.5 28.637 19.5 26.036 19.5 26.079C19.5 26.122 18.161 26.644 16.526 27.237ZM14 39C14 39.55 14.787 40.007 15.75 40.015C17.246 40.028 17.282 40.172 16 41C14.961 41.671 14.892 41.974 15.775 41.985C16.476 41.993 17.477 43.125 18 44.5C18.818 46.652 19.573 47 23.416 47C25.872 47 28.207 46.474 28.605 45.83C29.097 45.033 28.773 44.873 27.589 45.328C26.343 45.805 24.83 44.859 22.261 41.998C18.896 38.249 14 36.473 14 39Z" fill="#C8B356"/>
<path fill-rule="evenodd" clip-rule="evenodd" d="M26.823 11.763C25.351 11.959 23.608 12.767 22.951 13.559C21.925 14.795 22.997 15 30.476 15C40.66 15 44.975 16.598 48.4 21.638C49.652 23.481 50.889 24.777 51.148 24.518C51.407 24.26 51.619 27.626 51.619 32C51.619 36.374 51.407 39.74 51.148 39.482C50.889 39.223 49.652 40.519 48.4 42.362C44.966 47.416 40.666 49 30.385 49C22.518 49 21.734 49.163 23.084 50.512C24.721 52.149 33.446 53.124 38.76 52.263C42.365 51.679 51 44.69 51 42.356C51 41.545 51.419 41.141 51.931 41.457C54.126 42.814 55.877 34.362 54.719 28C53.991 23.997 52.869 21.963 51.765 22.645C51.202 22.993 50.941 22.678 51.185 21.945C51.784 20.149 42.502 12.024 39.717 11.907C38.497 11.855 35.7 11.722 33.5 11.611C31.3 11.499 28.295 11.568 26.823 11.763ZM11.5 16C12.286 17.272 17.032 17.272 19 16C20.083 15.3 19.165 15.026 15.691 15.015C12.736 15.006 11.12 15.386 11.5 16ZM18.401 18.397C18.106 19.165 18.008 20.628 18.183 21.647C18.402 22.93 17.808 23.598 16.25 23.82C13.491 24.211 13.248 26 15.953 26C17.028 26 19.903 23.975 22.343 21.5L26.78 17H22.858C20.424 17 18.734 17.53 18.401 18.397ZM15.813 22.683C16.534 22.972 17.397 22.936 17.729 22.604C18.061 22.272 17.471 22.036 16.417 22.079C15.252 22.127 15.015 22.364 15.813 22.683ZM33.242 26.101C29.996 27.309 28.371 31.324 29.831 34.529C32.105 39.52 38.374 39.59 40.805 34.651C43.28 29.62 38.451 24.161 33.242 26.101ZM16.526 27.237C13.837 28.213 13.741 28.39 15.526 29.088C17.48 29.851 17.479 29.86 15.5 29.945C13.831 30.016 13.749 30.194 15 31.015C16.333 31.891 16.333 32.109 15 32.985C13.749 33.806 13.831 33.984 15.5 34.055C17.458 34.139 17.459 34.157 15.551 34.903C13.805 35.586 13.909 35.773 16.551 36.694L19.5 37.722V31.861C19.5 28.637 19.5 26.036 19.5 26.079C19.5 26.122 18.161 26.644 16.526 27.237ZM14 39C14 39.55 14.787 40.007 15.75 40.015C17.246 40.028 17.282 40.172 16 41C14.961 41.671 14.892 41.974 15.775 41.985C16.476 41.993 17.477 43.125 18 44.5C18.79 46.579 19.61 47 22.865 47H26.78L22.343 42.5C18.27 38.369 14 36.577 14 39ZM11.5 48C11.12 48.614 12.736 48.994 15.691 48.985C19.165 48.974 20.083 48.7 19 48C17.032 46.728 12.286 46.728 11.5 48Z" fill="#AB9945"/>
<path fill-rule="evenodd" clip-rule="evenodd" d="M26.823 11.763C25.351 11.959 23.608 12.767 22.951 13.559C21.924 14.796 23.082 15.001 31.128 15.004C41.645 15.008 45.534 16.541 48.846 21.987C49.851 23.64 50.912 24.755 51.202 24.464C51.493 24.174 51.702 27.536 51.667 31.936C51.632 36.336 51.394 39.727 51.138 39.472C50.883 39.216 49.851 40.36 48.846 42.013C45.525 47.474 41.653 48.992 31.036 48.996C22.588 49 21.734 49.163 23.084 50.512C24.721 52.149 33.446 53.124 38.76 52.263C42.365 51.679 51 44.69 51 42.356C51 41.545 51.419 41.141 51.931 41.457C54.126 42.814 55.877 34.362 54.719 28C53.991 23.997 52.869 21.963 51.765 22.645C51.202 22.993 50.941 22.678 51.185 21.945C51.784 20.149 42.502 12.024 39.717 11.907C38.497 11.855 35.7 11.722 33.5 11.611C31.3 11.499 28.295 11.568 26.823 11.763ZM11.5 16C12.281 17.264 15.044 17.264 17 16C18.113 15.28 17.519 15.027 14.691 15.015C12.403 15.006 11.129 15.399 11.5 16ZM18.401 18.397C18.106 19.165 18.008 20.628 18.183 21.647C18.402 22.93 17.808 23.598 16.25 23.82C13.928 24.149 13.025 26.055 15.25 25.93C17.718 25.791 19.724 24.44 22.939 20.75L26.207 17H22.572C20.383 17 18.724 17.556 18.401 18.397ZM15.813 22.683C16.534 22.972 17.397 22.936 17.729 22.604C18.061 22.272 17.471 22.036 16.417 22.079C15.252 22.127 15.015 22.364 15.813 22.683ZM30.557 28.223C29.701 29.445 29 31.145 29 32C29 37.008 35.913 39.944 39.429 36.429C41.45 34.408 41.45 29.592 39.429 27.571C37.096 25.239 32.405 25.583 30.557 28.223ZM15.105 27.914C13.984 28.624 14.082 28.893 15.605 29.283C17.384 29.738 17.378 29.776 15.5 29.899C13.828 30.009 13.746 30.192 15 31.015C16.333 31.891 16.333 32.109 15 32.985C13.749 33.806 13.831 33.984 15.5 34.055C17.439 34.138 17.442 34.163 15.573 34.895C13.785 35.596 13.773 35.699 15.405 36.325C18.589 37.547 19 37.052 19 32C19 26.935 18.116 26.007 15.105 27.914ZM14 39C14 39.55 14.787 40.007 15.75 40.015C17.246 40.028 17.282 40.172 16 41C14.961 41.671 14.892 41.974 15.775 41.985C16.476 41.993 17.477 43.125 18 44.5C18.773 46.533 19.629 47 22.579 47H26.207L22.939 43.25C21.142 41.188 18.958 39.194 18.086 38.82C15.71 37.802 14 37.877 14 39ZM11.5 48C11.138 48.585 12.176 49 14 49C15.824 49 16.862 48.585 16.5 48C16.16 47.45 15.035 47 14 47C12.965 47 11.84 47.45 11.5 48Z" fill="#95811E"/>
<path fill-rule="evenodd" clip-rule="evenodd" d="M26.823 11.763C25.351 11.959 23.551 12.839 22.823 13.72C21.624 15.171 22.203 15.268 29.007 14.756C38.422 14.047 43.218 15.577 48.073 20.834C51.541 24.59 51.684 25.037 51.684 32.117C51.684 39.218 51.551 39.63 48.076 43.283C43.195 48.412 38.348 49.937 29.007 49.284C22.088 48.8 21.621 48.887 23.048 50.392C24.719 52.154 33.197 53.164 38.76 52.263C42.365 51.679 51 44.69 51 42.356C51 41.545 51.419 41.141 51.931 41.457C54.126 42.814 55.877 34.362 54.719 28C53.991 23.997 52.869 21.963 51.765 22.645C51.202 22.993 50.941 22.678 51.185 21.945C51.784 20.149 42.502 12.024 39.717 11.907C38.497 11.855 35.7 11.722 33.5 11.611C31.3 11.499 28.295 11.568 26.823 11.763ZM11.5 16C11.84 16.55 12.766 17 13.559 17C14.352 17 15 16.55 15 16C15 15.45 14.073 15 12.941 15C11.809 15 11.16 15.45 11.5 16ZM18.401 18.397C18.106 19.165 18.008 20.628 18.183 21.647C18.402 22.93 17.808 23.598 16.25 23.82C15.012 23.995 14 24.606 14 25.177C14 25.772 14.745 25.907 15.75 25.494C16.712 25.097 18.175 24.576 19 24.335C19.825 24.094 21.517 22.345 22.759 20.448L25.018 17H21.978C20.297 17 18.697 17.625 18.401 18.397ZM15.813 22.683C16.534 22.972 17.397 22.936 17.729 22.604C18.061 22.272 17.471 22.036 16.417 22.079C15.252 22.127 15.015 22.364 15.813 22.683ZM31.524 27.358C29.043 29.173 29.043 34.827 31.524 36.642C35.791 39.761 41 37.209 41 32C41 26.791 35.791 24.239 31.524 27.358ZM15.105 27.914C13.984 28.624 14.082 28.893 15.605 29.283C17.384 29.738 17.378 29.776 15.5 29.899C13.828 30.009 13.746 30.192 15 31.015C16.333 31.891 16.333 32.109 15 32.985C13.749 33.806 13.831 33.984 15.5 34.055C17.439 34.138 17.442 34.163 15.573 34.895C13.785 35.596 13.773 35.699 15.405 36.325C18.384 37.468 18.615 37.157 18.615 32C18.615 27.033 17.869 26.164 15.105 27.914ZM14 38.893C14 39.502 14.787 40.007 15.75 40.015C17.246 40.028 17.282 40.172 16 41C14.961 41.671 14.892 41.974 15.775 41.985C16.476 41.993 17.477 43.125 18 44.5C18.726 46.408 19.668 47 21.984 47H25.018L22.759 43.552C21.517 41.655 19.825 39.906 19 39.665C18.175 39.424 16.712 38.903 15.75 38.506C14.703 38.076 14 38.231 14 38.893ZM11.5 48C11.16 48.55 11.809 49 12.941 49C14.073 49 15 48.55 15 48C15 47.45 14.352 47 13.559 47C12.766 47 11.84 47.45 11.5 48Z" fill="#856012"/>
<path fill-rule="evenodd" clip-rule="evenodd" d="M26.823 11.763C25.351 11.959 23.569 12.814 22.864 13.664C21.718 15.045 22.393 15.134 29.196 14.496C38.8 13.596 42.525 14.773 47.764 20.364C51.709 24.572 51.789 24.805 51.789 32C51.789 39.207 51.715 39.422 47.725 43.678C42.688 49.052 38.204 50.413 28.58 49.488C22.09 48.865 21.629 48.942 23.048 50.416C24.72 52.153 33.249 53.156 38.76 52.263C42.365 51.679 51 44.69 51 42.356C51 41.545 51.419 41.141 51.931 41.457C54.126 42.814 55.877 34.362 54.719 28C53.991 23.997 52.869 21.963 51.765 22.645C51.202 22.993 50.941 22.678 51.185 21.945C51.784 20.149 42.502 12.024 39.717 11.907C38.497 11.855 35.7 11.722 33.5 11.611C31.3 11.499 28.295 11.568 26.823 11.763ZM11.5 16C11.84 16.55 12.316 17 12.559 17C12.802 17 13 16.55 13 16C13 15.45 12.523 15 11.941 15C11.359 15 11.16 15.45 11.5 16ZM18.362 18.5C18.045 19.325 18.025 20.624 18.318 21.387C18.696 22.371 18.219 22.653 16.675 22.359C14.86 22.012 14.913 22.123 16.997 23.031C19.183 23.983 19.767 23.776 21.687 21.367C22.894 19.854 23.656 18.253 23.381 17.808C22.529 16.429 18.968 16.92 18.362 18.5ZM14 25.059C14 25.641 14.45 25.84 15 25.5C15.55 25.16 16 24.684 16 24.441C16 24.198 15.55 24 15 24C14.45 24 14 24.477 14 25.059ZM31.655 27.829C29.469 30.244 29.552 34.284 31.829 36.345C34.111 38.411 35.932 38.436 38.777 36.443C40.918 34.944 42.11 29.196 40.011 30.493C39.456 30.836 39.271 30.458 39.589 29.629C39.922 28.761 39.327 27.71 38.143 27.077C35.27 25.539 33.547 25.738 31.655 27.829ZM15.105 27.914C13.984 28.624 14.082 28.893 15.605 29.283C17.384 29.738 17.378 29.776 15.5 29.899C13.828 30.009 13.746 30.192 15 31.015C16.333 31.891 16.333 32.109 15 32.985C13.749 33.806 13.831 33.984 15.5 34.055C17.439 34.138 17.442 34.163 15.573 34.895C13.785 35.596 13.773 35.699 15.405 36.325C18.32 37.444 18.5 37.192 18.5 32C18.5 27.046 17.802 26.206 15.105 27.914ZM14 39C14 39.55 14.477 40 15.059 40C15.641 40 15.84 39.55 15.5 39C15.16 38.45 14.684 38 14.441 38C14.198 38 14 38.45 14 39ZM16 41C14.961 41.671 14.892 41.974 15.775 41.985C16.476 41.993 17.477 43.125 18 44.5C18.888 46.836 21.806 47.861 23.304 46.363C24.168 45.498 20.162 39.996 18.682 40.015C18.032 40.024 16.825 40.467 16 41ZM11.5 48C11.16 48.55 11.359 49 11.941 49C12.523 49 13 48.55 13 48C13 47.45 12.802 47 12.559 47C12.316 47 11.84 47.45 11.5 48Z" fill="#574000"/>
</svg>
