<svg width="65" height="66" viewBox="0 0 65 66" fill="none" xmlns="http://www.w3.org/2000/svg">
<path fill-rule="evenodd" clip-rule="evenodd" d="M18.336 3.424C11.748 6.491 5.491 12.748 2.424 19.336C0.475998 23.52 0.017998 26.13 0.00999802 33.09C0.000998025 40.688 0.354998 42.39 3.068 47.821C6.413 54.513 11.776 59.734 18.603 62.943C24.816 65.864 39.184 65.864 45.397 62.943C52.224 59.734 57.587 54.513 60.932 47.821C63.645 42.39 63.999 40.688 63.99 33.09C63.982 26.13 63.524 23.52 61.576 19.336C58.509 12.748 52.252 6.491 45.664 3.424C38.293 -0.00800157 25.707 -0.00800157 18.336 3.424Z" fill="#FF00FF"/>
<path fill-rule="evenodd" clip-rule="evenodd" d="M18.336 3.424C11.748 6.491 5.491 12.748 2.424 19.336C0.475998 23.52 0.017998 26.13 0.00999802 33.09C0.000998025 40.688 0.354998 42.39 3.068 47.821C6.413 54.513 11.776 59.734 18.603 62.943C24.816 65.864 39.184 65.864 45.397 62.943C52.388 59.657 57.635 54.488 61.079 47.492C64.085 41.385 64.221 40.603 63.831 31.679C63.456 23.109 63.119 21.79 59.96 16.547C53.43 5.705 45.041 1.05 32 1.032C25.105 1.022 22.525 1.474 18.336 3.424Z" fill="#1F41B8"/>
<path fill-rule="evenodd" clip-rule="evenodd" d="M18.336 3.424C11.748 6.491 5.491 12.748 2.424 19.336C-0.678997 26.001 -0.783997 29.018 2.114 28.26C3.858 27.804 4.119 28.051 3.605 29.67C2.797 32.216 4.506 41.157 6.675 45.727C10.977 54.793 21.27 60.974 32.09 60.99C46.735 61.012 58.145 50.855 60.405 35.785C60.966 32.045 61.43 31.228 62.713 31.72C64.108 32.255 64.236 31.639 63.688 27.014C62.527 17.207 55.006 7.626 44.852 3.019C38.256 0.0260026 25.206 0.225003 18.336 3.424ZM40.565 47.692C39.748 49.819 35.224 49.282 34.491 46.971C33.222 42.975 35.155 31.875 37.883 27.488L40.5 23.278L40.783 34.831C40.939 41.185 40.841 46.972 40.565 47.692ZM30 40.5C30 41.325 29.564 42 29.031 42C28.499 42 28.322 41.325 28.638 40.5C28.955 39.675 29.391 39 29.607 39C29.823 39 30 39.675 30 40.5Z" fill="#FFFF00"/>
<path fill-rule="evenodd" clip-rule="evenodd" d="M18.336 3.424C11.748 6.491 5.491 12.748 2.424 19.336C-0.678997 26.001 -0.783997 29.018 2.114 28.26C3.858 27.804 4.119 28.051 3.605 29.67C2.797 32.216 4.506 41.157 6.675 45.727C10.977 54.793 21.27 60.974 32.09 60.99C46.735 61.012 58.145 50.855 60.405 35.785C60.966 32.045 61.43 31.228 62.713 31.72C65.541 32.805 63.607 22.604 59.779 16.248C53.537 5.882 44.381 0.993001 31.239 1.01C25.179 1.017 22.38 1.541 18.336 3.424ZM40.565 47.692C39.748 49.819 35.224 49.282 34.491 46.971C33.222 42.975 35.155 31.875 37.883 27.488L40.5 23.278L40.783 34.831C40.939 41.185 40.841 46.972 40.565 47.692ZM30 40.5C30 41.325 29.564 42 29.031 42C28.499 42 28.322 41.325 28.638 40.5C28.955 39.675 29.391 39 29.607 39C29.823 39 30 39.675 30 40.5Z" fill="#FFAA80"/>
<path fill-rule="evenodd" clip-rule="evenodd" d="M18.018 3.678C11.135 7.108 5.468 12.799 2.424 19.336C-0.816998 26.298 -0.794998 28.875 2.5 28.245C4.362 27.889 5 28.194 5 29.442C5 30.446 4.541 30.834 3.855 30.41C3.04 29.907 2.914 30.539 3.416 32.601C3.804 34.196 4.261 36.625 4.432 38C4.602 39.375 4.856 40.612 4.996 40.75C5.326 41.075 5.718 42.66 5.875 44.311C5.944 45.033 7.012 46.712 8.25 48.042C9.487 49.373 10.39 50.799 10.256 51.212C10.122 51.624 11.247 52.748 12.756 53.708C14.265 54.668 15.725 55.739 16 56.087C16.86 57.177 23 60.085 23 59.403C23 59.047 23.563 59.213 24.25 59.772C24.938 60.331 28.425 60.789 32 60.789C35.575 60.789 39.063 60.331 39.75 59.772C40.438 59.213 41 59.047 41 59.403C41 60.436 47.415 56.874 48.311 55.343C48.758 54.581 49.485 54.182 49.928 54.455C50.371 54.729 51.538 54.063 52.521 52.976C53.505 51.889 53.954 51 53.519 51C53.083 51 53.914 49.814 55.364 48.364C57.707 46.02 58.494 44.131 58.118 41.75C58.053 41.337 58.486 41 59.079 41C59.759 41 59.915 39.887 59.5 38C59.085 36.113 59.241 35 59.921 35C60.514 35 61 34.114 61 33.031C61 31.608 61.46 31.239 62.659 31.699C64.122 32.261 64.244 31.705 63.688 27.014C62.913 20.468 58.062 12.045 52.538 7.651C50.359 5.918 48.925 5.066 49.351 5.757C49.826 6.527 49.5 7.255 48.509 7.635C47.102 8.175 47.191 8.583 49.196 10.771C51.209 12.968 50.955 12.896 47.177 10.199C39.976 5.056 31.153 4.111 21.5 7.447C20.17 7.907 20.337 7.625 22 6.605C23.375 5.761 24.147 5.055 23.715 5.035C23.283 5.016 23.411 4.1 24 3C25.41 0.365003 24.449 0.474003 18.018 3.678ZM16 10.378C16 10.585 15.213 11.373 14.25 12.128C12.664 13.371 12.629 13.336 13.872 11.75C15.179 10.084 16 9.555 16 10.378ZM12 14.378C12 14.585 11.213 15.373 10.25 16.128C8.664 17.371 8.629 17.336 9.872 15.75C11.179 14.084 12 13.555 12 14.378ZM54.5 16C55.495 17.1 56.085 18 55.81 18C55.535 18 54.495 17.1 53.5 16C52.505 14.9 51.915 14 52.19 14C52.465 14 53.505 14.9 54.5 16ZM38.729 16.604C38.397 16.936 37.534 16.972 36.813 16.683C36.015 16.364 36.252 16.127 37.417 16.079C38.471 16.036 39.061 16.272 38.729 16.604ZM25.345 19.543C25.019 20.392 24.538 20.872 24.276 20.61C24.014 20.348 24.096 19.653 24.459 19.067C25.445 17.471 26.021 17.781 25.345 19.543ZM40.962 47.566C40.133 49.12 39.137 49.527 36.954 49.206L34.049 48.78L34.512 40.444C34.907 33.346 35.424 31.401 37.988 27.358C39.645 24.746 41.098 21.684 41.218 20.554C41.338 19.424 41.578 24.575 41.751 32C41.95 40.531 41.659 46.261 40.962 47.566ZM21.128 23.75C22.385 25.353 22.346 25.379 20.669 24.06C19.119 22.842 18.504 22.828 16.669 23.971C14.692 25.202 14.622 25.174 15.872 23.661C17.639 21.523 19.405 21.553 21.128 23.75ZM25.382 24.552C25.723 25.442 25.555 25.843 24.989 25.493C24.445 25.157 24 24.459 24 23.941C24 22.503 24.717 22.82 25.382 24.552ZM59.662 30.25C59.385 30.938 59.158 30.375 59.158 29C59.158 27.625 59.385 27.063 59.662 27.75C59.94 28.438 59.94 29.563 59.662 30.25ZM18.869 30.866C18.283 31.067 17.07 30.499 16.174 29.603C14.668 28.097 14.749 28.069 17.24 29.237C18.722 29.931 19.455 30.665 18.869 30.866ZM30.365 42.219C29.506 43.608 28.054 42.024 28.683 40.384C29.148 39.172 29.452 39.114 30.073 40.118C30.51 40.826 30.642 41.771 30.365 42.219Z" fill="#EE610A"/>
<path fill-rule="evenodd" clip-rule="evenodd" d="M26.025 6.022C24.113 6.472 22.131 6.581 21.62 6.265C21.091 5.938 21.033 6.244 21.485 6.975C22.014 7.832 21.816 8.104 20.889 7.792C20.125 7.535 18.931 8.039 18.236 8.912C17.366 10.004 17.054 10.08 17.236 9.154C17.381 8.414 16.477 7.412 15.226 6.927C13.321 6.19 12.295 6.705 8.891 10.109C4.667 14.333 0.0270032 22.955 0.0100032 26.611C0.00200316 28.326 0.470003 28.633 2.5 28.245C4.362 27.889 5 28.194 5 29.442C5 30.446 4.541 30.834 3.855 30.41C3.04 29.907 2.914 30.539 3.416 32.601C3.804 34.196 4.261 36.625 4.432 38C4.602 39.375 4.856 40.612 4.996 40.75C5.326 41.075 5.718 42.66 5.875 44.311C5.944 45.033 7.012 46.712 8.25 48.042C9.488 49.373 10.39 50.799 10.256 51.212C10.122 51.624 11.247 52.748 12.756 53.708C14.265 54.668 15.725 55.739 16 56.087C16.86 57.177 23 60.085 23 59.403C23 59.047 23.562 59.213 24.25 59.772C25.874 61.093 38.126 61.093 39.75 59.772C40.438 59.213 41 59.047 41 59.403C41 60.436 47.415 56.874 48.311 55.343C48.758 54.581 49.485 54.182 49.928 54.455C50.371 54.729 51.538 54.063 52.521 52.976C53.505 51.889 53.954 51 53.519 51C53.083 51 53.914 49.814 55.364 48.364C57.707 46.02 58.494 44.131 58.118 41.75C58.053 41.337 58.486 41 59.079 41C59.759 41 59.915 39.887 59.5 38C59.085 36.113 59.241 35 59.921 35C60.514 35 61 34.114 61 33.031C61 31.608 61.46 31.239 62.659 31.699C64.12 32.26 64.244 31.707 63.694 27.066C63.096 22.019 59.759 14.902 56.428 11.571C55.564 10.707 53.484 10 51.806 10C49.073 10 48.898 10.175 50.128 11.674C50.882 12.595 49.565 11.953 47.199 10.246C44.834 8.54 40.649 6.662 37.9 6.072C32.279 4.867 30.961 4.861 26.025 6.022ZM16 10.378C16 10.585 15.213 11.373 14.25 12.128C12.664 13.371 12.629 13.336 13.872 11.75C15.179 10.084 16 9.555 16 10.378ZM12 14.378C12 14.585 11.213 15.373 10.25 16.128C8.664 17.371 8.629 17.336 9.872 15.75C11.179 14.084 12 13.555 12 14.378ZM54.5 16C55.495 17.1 56.085 18 55.81 18C55.535 18 54.495 17.1 53.5 16C52.505 14.9 51.915 14 52.19 14C52.465 14 53.505 14.9 54.5 16ZM38.729 16.604C38.397 16.936 37.534 16.972 36.813 16.683C36.015 16.364 36.252 16.127 37.417 16.079C38.471 16.036 39.061 16.272 38.729 16.604ZM30.369 22C30.364 25.203 30.115 25.5 27.432 25.5C25.125 25.5 24.43 25.005 24.171 23.177C23.633 19.383 24.722 17.835 27.682 18.183C30.033 18.46 30.374 18.943 30.369 22ZM40.962 47.566C40.133 49.12 39.137 49.527 36.954 49.206L34.049 48.78L34.512 40.444C34.907 33.346 35.424 31.401 37.988 27.358C39.645 24.746 41.098 21.684 41.218 20.554C41.338 19.424 41.578 24.575 41.751 32C41.95 40.531 41.659 46.261 40.962 47.566ZM20.8 23.2C23.826 26.226 20.628 32.509 17.166 30.34C15.069 29.026 14.47 25.343 16.046 23.445C17.506 21.686 19.199 21.599 20.8 23.2ZM30.743 28.486C31.159 28.945 30.944 29.001 30.265 28.611C29.497 28.169 28.316 29.076 27.138 31.013L25.245 34.126L24.795 31.057C24.547 29.369 24.47 27.863 24.624 27.709C25.238 27.096 30.033 27.705 30.743 28.486ZM59.662 30.25C59.385 30.938 59.158 30.375 59.158 29C59.158 27.625 59.385 27.063 59.662 27.75C59.94 28.438 59.94 29.563 59.662 30.25ZM30.365 42.219C29.506 43.608 28.054 42.024 28.683 40.384C29.148 39.172 29.452 39.114 30.073 40.118C30.51 40.826 30.642 41.771 30.365 42.219Z" fill="#FF0000"/>
<path fill-rule="evenodd" clip-rule="evenodd" d="M26.025 6.022C24.113 6.472 22.131 6.581 21.62 6.265C21.091 5.938 21.033 6.244 21.485 6.975C22.014 7.832 21.816 8.104 20.889 7.792C20.125 7.535 18.931 8.039 18.236 8.912C17.366 10.004 17.054 10.08 17.236 9.154C17.381 8.414 16.477 7.412 15.226 6.927C13.333 6.194 12.319 6.681 9.155 9.845C5.002 13.998 0 23.129 0 26.558C0 28.328 0.456 28.635 2.5 28.245C4.362 27.889 5 28.194 5 29.442C5 30.446 4.541 30.834 3.855 30.41C3.04 29.907 2.914 30.539 3.416 32.601C3.804 34.196 4.261 36.625 4.432 38C4.602 39.375 4.856 40.612 4.996 40.75C5.326 41.075 5.718 42.66 5.875 44.311C5.944 45.033 7.012 46.712 8.25 48.042C9.488 49.373 10.39 50.799 10.256 51.212C10.122 51.624 11.247 52.748 12.756 53.708C14.265 54.668 15.725 55.739 16 56.087C16.86 57.177 23 60.085 23 59.403C23 59.047 23.562 59.213 24.25 59.772C25.874 61.093 38.126 61.093 39.75 59.772C40.438 59.213 41 59.047 41 59.403C41 60.436 47.415 56.874 48.311 55.343C48.758 54.581 49.485 54.182 49.928 54.455C50.371 54.729 51.538 54.063 52.521 52.976C53.505 51.889 53.954 51 53.519 51C53.083 51 53.914 49.814 55.364 48.364C57.707 46.02 58.494 44.131 58.118 41.75C58.053 41.337 58.486 41 59.079 41C59.759 41 59.915 39.887 59.5 38C59.085 36.113 59.241 35 59.921 35C60.514 35 61 34.114 61 33.031C61 31.608 61.46 31.239 62.659 31.699C64.116 32.259 64.245 31.713 63.713 27.222C62.651 18.256 56.934 10 51.789 10C49.072 10 48.898 10.175 50.128 11.674C50.882 12.595 49.565 11.953 47.199 10.246C44.834 8.54 40.649 6.662 37.9 6.072C32.279 4.867 30.961 4.861 26.025 6.022ZM16 10.378C16 10.585 15.213 11.373 14.25 12.128C12.664 13.371 12.629 13.336 13.872 11.75C15.179 10.084 16 9.555 16 10.378ZM12 14.378C12 14.585 11.213 15.373 10.25 16.128C8.664 17.371 8.629 17.336 9.872 15.75C11.179 14.084 12 13.555 12 14.378ZM54.5 16C55.495 17.1 56.085 18 55.81 18C55.535 18 54.495 17.1 53.5 16C52.505 14.9 51.915 14 52.19 14C52.465 14 53.505 14.9 54.5 16ZM38.729 16.604C38.397 16.936 37.534 16.972 36.813 16.683C36.015 16.364 36.252 16.127 37.417 16.079C38.471 16.036 39.061 16.272 38.729 16.604ZM30.369 22C30.364 25.203 30.115 25.5 27.432 25.5C25.125 25.5 24.43 25.005 24.171 23.177C23.633 19.383 24.722 17.835 27.682 18.183C30.033 18.46 30.374 18.943 30.369 22ZM40.962 47.566C40.133 49.12 39.137 49.527 36.954 49.206L34.049 48.78L34.512 40.444C34.907 33.346 35.424 31.401 37.988 27.358C39.645 24.746 41.098 21.684 41.218 20.554C41.338 19.424 41.578 24.575 41.751 32C41.95 40.531 41.659 46.261 40.962 47.566ZM20.8 23.2C23.826 26.226 20.628 32.509 17.166 30.34C15.069 29.026 14.47 25.343 16.046 23.445C17.506 21.686 19.199 21.599 20.8 23.2ZM30.743 28.486C31.159 28.945 30.944 29.001 30.265 28.611C29.497 28.169 28.316 29.076 27.138 31.013L25.245 34.126L24.795 31.057C24.547 29.369 24.47 27.863 24.624 27.709C25.238 27.096 30.033 27.705 30.743 28.486ZM59.662 30.25C59.385 30.938 59.158 30.375 59.158 29C59.158 27.625 59.385 27.063 59.662 27.75C59.94 28.438 59.94 29.563 59.662 30.25ZM30.365 42.219C29.506 43.608 28.054 42.024 28.683 40.384C29.148 39.172 29.452 39.114 30.073 40.118C30.51 40.826 30.642 41.771 30.365 42.219Z" fill="white"/>
<path fill-rule="evenodd" clip-rule="evenodd" d="M9.156 9.844C5.002 13.998 0 23.129 0 26.558C0 28.328 0.456 28.635 2.5 28.245C3.875 27.982 5 27.129 5 26.35C5 23.347 10.105 15.066 14.025 11.711C16.282 9.779 17.762 7.998 17.314 7.753C13.977 5.931 12.757 6.243 9.156 9.844ZM52.187 13.75C56.904 18.674 58.895 22.801 59.917 29.776C60.379 32.924 60.811 34.502 60.878 33.281C60.968 31.647 61.437 31.23 62.659 31.699C64.116 32.259 64.245 31.713 63.713 27.222C62.642 18.184 56.938 10 51.708 10H48.594L52.187 13.75ZM35.453 17.923C35.819 18.515 35.641 19 35.059 19C34.373 19 34.053 22.608 34.15 29.25C34.247 35.829 34.515 38.067 34.9 35.5C35.23 33.3 36.771 29.378 38.324 26.786C41.847 20.905 41.615 17.627 37.644 17.173C35.795 16.962 35.022 17.226 35.453 17.923ZM30.158 22C30.158 23.375 30.385 23.938 30.662 23.25C30.94 22.563 30.94 21.438 30.662 20.75C30.385 20.063 30.158 20.625 30.158 22ZM27.095 27.82C28.536 28.435 28.52 28.777 26.925 31.389L25.16 34.277L24.73 31.389C24.493 29.8 24.232 31.223 24.15 34.55C24.001 40.542 25.034 43 27.7 43C28.415 43 28.947 42.663 28.882 42.25C28.816 41.837 28.823 40.825 28.897 40C29.016 38.667 29.138 38.667 30 40C30.685 41.06 30.974 39.725 30.985 35.45C31 29.311 29.888 26.942 27.05 27.07C25.688 27.132 25.693 27.223 27.095 27.82ZM3.158 32C3.158 33.375 3.385 33.938 3.662 33.25C3.94 32.563 3.94 31.438 3.662 30.75C3.385 30.063 3.158 30.625 3.158 32ZM59.079 39.583C59.127 40.748 59.364 40.985 59.683 40.188C59.972 39.466 59.936 38.603 59.604 38.271C59.272 37.939 59.036 38.529 59.079 39.583ZM6 44.941C6 45.459 6.445 46.157 6.989 46.493C7.555 46.843 7.723 46.442 7.382 45.552C6.717 43.82 6 43.503 6 44.941ZM56.564 45.707C56.022 47.132 56.136 47.247 57.124 46.267C57.808 45.588 58.115 44.781 57.807 44.474C57.499 44.166 56.94 44.721 56.564 45.707ZM36.813 49.683C37.534 49.972 38.397 49.936 38.729 49.604C39.061 49.272 38.471 49.036 37.417 49.079C36.252 49.127 36.015 49.364 36.813 49.683ZM10 51.378C10 51.585 10.787 52.373 11.75 53.128C13.336 54.371 13.371 54.336 12.128 52.75C10.821 51.084 10 50.555 10 51.378ZM51.405 53.25L49.5 55.5L51.75 53.595C53.864 51.805 54.455 51 53.655 51C53.465 51 52.453 52.013 51.405 53.25Z" fill="#808080"/>
</svg>
