<svg width="251" height="251" viewBox="0 0 251 251" fill="none" xmlns="http://www.w3.org/2000/svg">
<path fill-rule="evenodd" clip-rule="evenodd" d="M110.065 0.667729C108.689 0.885633 103.962 1.75525 99.559 2.60088C50.9121 11.9428 10.6372 52.5959 1.43678 101.644C0.144018 108.538 -0.103128 114.498 0.26609 129.907C0.674332 146.996 1.05356 150.558 3.30089 158.43C15.9184 202.63 49.076 235.847 92.0545 247.342C100.961 249.724 103.044 249.885 125.074 249.885C147.104 249.885 149.187 249.724 158.094 247.342C201.072 235.847 234.23 202.63 246.847 158.43C249.095 150.558 249.474 146.996 249.882 129.907C250.251 114.498 250.004 108.538 248.711 101.644C241.412 62.7295 214.942 29.0083 178.005 11.5669C161.491 3.76837 143.322 -0.0809426 124.073 0.13996C117.745 0.212928 111.441 0.449824 110.065 0.667729Z" fill="#66CCFF"/>
<path fill-rule="evenodd" clip-rule="evenodd" d="M110.065 0.667729C108.689 0.885633 103.962 1.75525 99.559 2.60088C50.9121 11.9428 10.6372 52.5959 1.43678 101.644C0.144018 108.538 -0.103128 114.498 0.26609 129.907C0.674333 146.997 1.05356 150.558 3.30089 158.43C15.9184 202.63 49.076 235.847 92.0545 247.342C100.961 249.724 103.044 249.885 125.074 249.885C147.104 249.885 149.187 249.724 158.094 247.342C201.073 235.847 234.258 202.6 246.842 158.43C249.06 150.645 249.47 146.89 249.887 130.53C250.416 109.83 249.554 101.653 245.451 88.4612C229.045 35.7053 179.296 -0.494761 124.074 0.13996C117.745 0.212928 111.441 0.449824 110.065 0.667729Z" fill="#55FFFF"/>
<path fill-rule="evenodd" clip-rule="evenodd" d="M105.062 1.48937C89.8712 4.08823 78.1923 8.01051 66.1782 14.5486C37.4802 30.1668 16.6168 54.3662 6.13958 84.1881C0.839436 99.2744 -0.262217 107.848 0.266096 129.907C0.674338 146.996 1.05356 150.558 3.3009 158.43C15.9184 202.63 49.076 235.847 92.0545 247.342C100.961 249.724 103.044 249.885 125.074 249.885C147.04 249.885 149.206 249.719 157.988 247.369C201.331 235.77 234.895 201.891 247.207 157.315C250.336 145.979 251.137 114.185 248.615 101.323C239.32 53.9094 201.948 14.8635 155.092 3.60944C139.399 -0.159903 119.604 -0.999534 105.062 1.48937Z" fill="#00FFFF"/>
<path fill-rule="evenodd" clip-rule="evenodd" d="M107.585 1.04957C104.295 1.56435 97.856 2.92175 93.2772 4.06825C51.8807 14.4277 17.0671 47.834 4.59365 89.1649C0.43719 102.94 -0.250217 109.447 0.263087 130.211C0.7904 151.535 2.33131 159.241 9.32546 175.523C24.6676 211.237 57.2929 239.035 94.2588 247.888C106.419 250.8 143.729 250.8 155.889 247.888C182.77 241.45 208.925 223.903 226.651 200.412C233.306 191.593 243.668 170.097 246.889 158.43C249.523 148.888 249.648 147.416 249.644 125.945C249.641 105.5 249.429 102.682 247.311 94.9583C240.865 71.4587 230.071 52.9898 212.774 35.8603C195.833 19.0847 174.729 7.88857 149.589 2.34101C141.254 0.501815 116.051 -0.272845 107.585 1.04957Z" fill="#43E9D1"/>
<path fill-rule="evenodd" clip-rule="evenodd" d="M47.5281 26.6593C34.3953 36.1622 18.1577 56.6252 10.5962 73.2019C1.92307 92.2126 -0.363281 104.831 0.26309 130.211C0.790403 151.535 2.33132 159.241 9.32546 175.523C24.6676 211.237 57.2929 239.035 94.2588 247.888C106.419 250.8 143.729 250.8 155.889 247.888C175.662 243.152 195.016 232.593 210.776 217.939C216.013 213.069 216.219 212.697 214.814 210.609C214.001 209.398 206.78 200.779 198.768 191.454C190.756 182.129 184.367 174.332 184.571 174.129C184.775 173.925 188.235 173.345 192.259 172.84C197.994 172.12 200.121 171.378 202.099 169.405C204.576 166.932 204.626 166.576 204.89 149.664C205.087 137.154 204.809 131.758 203.877 129.943C201.685 125.679 196.701 123.949 186.611 123.949C172.12 123.949 168.223 126.988 168.027 138.439C167.971 141.738 167.626 146.589 167.261 149.22V149.22C167.007 151.057 164.693 151.72 163.503 150.297L156.593 142.024C151.09 135.436 146.282 130.023 145.909 129.994C145.537 129.966 145.027 130.73 144.775 131.692C144.524 132.655 144.265 128.796 144.201 123.119C144.089 113.111 143.996 112.708 141.161 109.875C138.283 107.001 138.043 106.95 126.402 106.773C115.177 106.602 114.954 106.56 122.072 105.954C126.2 105.602 128.451 105.203 127.075 105.067C125.282 104.89 122.125 101.937 115.929 94.6415C108.193 85.5345 107.509 84.41 109.425 83.9632C110.603 83.6883 106.613 83.2145 100.56 82.9116C94.506 82.6078 106.135 82.2699 126.402 82.162L159.117 81.9863C161.765 81.972 164.302 80.9143 166.175 79.0423V79.0423C169.087 76.1336 169.1 76.0666 169.1 63.972C169.1 51.8773 169.087 51.8103 166.175 48.9016V48.9016C164.303 47.0307 161.764 45.9799 159.117 45.9799H123.761C86.4152 45.9799 84.1438 46.0828 81.9165 47.884C80.2725 49.2144 79.0588 49.5193 77.8911 48.8956C76.9716 48.4038 71.4263 42.3744 65.5678 35.4955C59.7103 28.6175 54.3802 23.0009 53.7238 23.0149C53.0684 23.0279 50.2797 24.6682 47.5281 26.6593ZM77.777 67.2505C77.5669 69.5705 77.3978 67.4204 77.4008 62.4726C77.4038 57.5248 77.5759 55.6266 77.782 58.2545C77.9892 60.8823 77.9862 64.9305 77.777 67.2505ZM131.828 143.665C129.765 143.881 126.388 143.881 124.324 143.665C122.26 143.45 123.948 143.273 128.076 143.273C132.203 143.273 133.892 143.45 131.828 143.665ZM156.343 167.663C153.454 167.865 148.725 167.865 145.836 167.663C142.948 167.462 145.311 167.297 151.09 167.297C156.868 167.297 159.231 167.462 156.343 167.663Z" fill="#18FC8A"/>
<path fill-rule="evenodd" clip-rule="evenodd" d="M80.9709 48.9016C78.1703 51.6993 78.0462 52.2061 78.0462 60.8493C78.0462 70.62 77.0156 74.1545 73.6836 75.8127C72.5059 76.3995 67.1618 77.0112 61.8076 77.1722C52.6892 77.447 51.8977 77.6419 49.3002 80.2378V80.2378C47.5249 82.0118 46.5275 84.4187 46.5275 86.9284V101.564V116.418C46.5275 118.768 47.5529 121.001 49.3352 122.533V122.533C51.9757 124.802 52.8773 124.945 64.5382 124.945C76.1951 124.945 77.1016 124.801 79.7412 122.535V122.535C81.5298 121 82.5894 118.783 82.6606 116.427L83.0492 103.568C83.5195 88.0144 83.6876 86.8719 85.8268 84.7368C88.0972 82.4708 88.2252 82.4618 126.189 81.964L160.573 81.5128C162.926 81.4819 165.152 80.4429 166.687 78.6595V78.6595C168.948 76.0317 169.1 75.0981 169.1 63.839C169.1 51.8912 169.083 51.8073 166.175 48.9016V48.9016C164.303 47.0307 161.764 45.9798 159.117 45.9798H123.573H88.0298C85.3826 45.9798 82.8437 47.0307 80.9709 48.9016V48.9016ZM111.816 108.033C108.346 110.052 107.063 114.451 107.063 124.33C107.063 134.726 107.805 137.689 111.193 140.842C113.225 142.733 114.64 142.937 125.707 142.937C137.223 142.937 138.141 142.79 140.777 140.527C143.537 138.158 143.591 137.903 143.916 125.538L144.136 117.207C144.208 114.496 143.161 111.874 141.242 109.957V109.957V109.957C139.318 108.034 136.707 106.957 133.987 106.963L125.902 106.983C119.118 107 112.779 107.472 111.816 108.033ZM174.117 125.697C168.762 128.38 168.131 130.632 168.115 147.129C168.101 161.202 167.999 161.935 165.686 164.622V164.622C164.152 166.405 161.925 167.444 159.573 167.475L125.074 167.926L90.5753 168.378C88.2228 168.408 85.9966 169.447 84.462 171.231V171.231C82.2007 173.859 82.0486 174.792 82.0486 186.051C82.0486 197.999 82.0656 198.083 84.9733 200.989V200.989C86.8461 202.86 89.385 203.911 92.0321 203.911H127.576H163.119C165.766 203.911 168.305 202.86 170.178 200.989V200.989C173.02 198.15 173.103 197.783 173.103 188.105C173.103 174.004 173.5 173.6 188.071 172.852C198.473 172.318 199.397 172.1 201.919 169.584V169.584C203.652 167.854 204.643 165.517 204.681 163.069L204.89 149.664C205.087 137.154 204.809 131.758 203.877 129.943C201.686 125.679 196.701 123.949 186.611 123.949C180.034 123.949 176.665 124.42 174.117 125.697Z" fill="#20B175"/>
<path fill-rule="evenodd" clip-rule="evenodd" d="M81.8345 48.8786C78.6366 51.7323 78.5795 51.9412 78.0662 62.4606C77.5709 72.6351 77.4118 73.2599 74.7382 75.5559C72.2037 77.7319 71.021 77.9658 62.558 77.9658C53.9339 77.9658 52.9393 78.1727 50.1066 80.5537V80.5537C48.1548 82.1943 47.0278 84.6137 47.0278 87.1635V101.455V115.747C47.0278 118.297 48.1548 120.717 50.1066 122.357V122.357C53.0224 124.808 53.7838 124.945 64.5382 124.945C75.2926 124.945 76.054 124.808 78.9698 122.357V122.357C80.9216 120.717 82.0486 118.297 82.0486 115.747V104.815C82.0486 89.016 82.9201 85.1726 86.9965 82.9936C88.2142 82.3419 102.187 81.964 125.058 81.964C164.988 81.964 165.902 81.8341 167.992 75.8477C168.601 74.0995 169.1 68.6439 169.1 63.7241C169.1 53.6525 167.512 48.9435 163.502 47.1183C161.772 46.3307 149.296 45.9798 123.042 45.9798H89.4357C86.632 45.9798 83.9263 47.0117 81.8345 48.8786V48.8786ZM110.989 109.875C108.085 112.776 108.064 112.882 108.064 124.646C108.064 141.858 109.672 143.359 127.487 142.78C137.472 142.455 138.19 142.289 140.813 139.666C143.535 136.944 143.585 136.679 143.585 124.84V117.167C143.585 114.38 142.396 111.725 140.317 109.87V109.87C137.106 107.004 136.849 106.953 125.481 106.953C114.031 106.953 113.884 106.982 110.989 109.875ZM172.179 127.533V127.533C170.227 129.174 169.1 131.593 169.1 134.143V145.075C169.1 160.874 168.229 164.718 164.152 166.897C162.935 167.548 148.962 167.926 126.091 167.926C86.161 167.926 85.2465 168.056 83.1572 174.043C81.7244 178.151 81.7244 193.686 83.1572 197.794C85.2575 203.812 85.9799 203.911 128.011 203.911H161.687C164.508 203.911 167.23 202.873 169.334 200.995V200.995C172.53 198.142 172.608 197.874 172.886 188.75C173.043 183.619 173.387 178.418 173.651 177.19C174.449 173.49 179.006 171.925 188.986 171.925C197.185 171.925 198.231 171.7 201.042 169.337V169.337C202.994 167.696 204.121 165.277 204.121 162.727V148.435V134.143C204.121 131.593 202.994 129.174 201.042 127.533V127.533C198.126 125.082 197.365 124.945 186.611 124.945C175.856 124.945 175.095 125.082 172.179 127.533Z" fill="#15422E"/>
<path fill-rule="evenodd" clip-rule="evenodd" d="M81.5033 49.4333C79.2549 51.6783 79.0468 52.6579 79.0468 60.9773C79.0468 70.622 77.683 75.0201 74.0989 76.9363C73.0402 77.503 68.3385 77.9658 63.6507 77.9658C48.1085 77.9658 47.0278 79.4921 47.0278 101.455C47.0278 117.643 47.9173 121.923 51.5755 123.325C53.6828 124.133 75.3936 124.133 77.5009 123.325C81.071 121.956 82.0486 117.577 82.0486 102.955C82.0486 87.0058 82.9631 83.8862 88.1712 82.072C90.2705 81.3413 103.563 80.9645 127.27 80.9645H159.716C161.939 80.9645 164.071 80.0818 165.643 78.5106V78.5106C167.981 76.1766 168.1 75.4709 168.1 63.9719C168.1 52.473 167.981 51.7673 165.643 49.4333V49.4333C164.071 47.8621 161.939 46.9794 159.716 46.9794H123.573H87.4302C85.2074 46.9794 83.0755 47.8621 81.5033 49.4333V49.4333ZM110.572 111.125C107.966 114.22 107.909 114.577 108.232 125.708C108.554 136.789 108.645 137.187 111.372 139.528C113.999 141.783 114.934 141.936 125.881 141.906C142.238 141.862 143.085 140.978 143.085 123.966C143.085 113.507 142.942 112.717 140.628 110.407C138.284 108.064 137.608 107.953 125.708 107.953H117.393C114.763 107.953 112.267 109.114 110.572 111.125V111.125ZM174.579 126.341C169.905 128.376 169.1 131.412 169.1 147.032C169.1 162.878 168.179 166.007 162.978 167.818C160.878 168.549 147.585 168.926 123.878 168.926H91.4325C89.2097 168.926 87.0779 169.809 85.5056 171.38V171.38C83.1682 173.714 83.0492 174.419 83.0492 185.918C83.0492 197.417 83.1682 198.123 85.5056 200.457V200.457C87.0779 202.028 89.2097 202.911 91.4325 202.911H127.576H163.719C165.941 202.911 168.073 202.028 169.646 200.457V200.457C171.93 198.176 172.102 197.295 172.102 187.887C172.102 178.036 172.179 177.691 175.027 174.846C177.827 172.049 178.335 171.925 186.987 171.925C203.102 171.925 204.121 170.528 204.121 148.435C204.121 130.871 203.309 127.903 197.998 126.053C193.633 124.532 178.301 124.721 174.579 126.341Z" fill="#121312"/>
</svg>
