<?xml version="1.0" encoding="UTF-8"?>
<svg version="1.1" xmlns="http://www.w3.org/2000/svg" width="64" height="64">
<path d="M0 0 C21.12 0 42.24 0 64 0 C64 21.12 64 42.24 64 64 C42.88 64 21.76 64 0 64 C0 42.88 0 21.76 0 0 Z " fill="#1AE5A1" transform="translate(0,0)"/>
<path d="M0 0 C0.6875 2.25 0.6875 2.25 1 5 C0.01971384 6.34789347 -0.97971135 7.68212715 -2 9 C-1.61966872 12.38840597 -0.3099683 13.96246639 2.0625 16.3125 C4.39644774 18.95651326 4.98007963 19.89858722 5.6875 23.5 C4.80367229 27.9994865 3.37286924 30.95533957 0 34 C-7.38061279 38.50062542 -15.21711284 42.41823272 -24 42 C-24.6875 39.75 -24.6875 39.75 -25 37 C-24.01971384 35.65210653 -23.02028865 34.31787285 -22 33 C-22 28.81859641 -25.40996142 25.97854437 -28 23 C-29.57455739 19.85088521 -29.34799118 17.47991184 -29 14 C-25.58878444 9.0819505 -22.26293911 6.64326593 -16.875 4.1875 C-16.25496094 3.88908203 -15.63492187 3.59066406 -14.99609375 3.28320312 C-9.68073081 0.75126142 -5.8958729 -0.11124288 0 0 Z " fill="#F2FDF9" transform="translate(44,11)"/>
<path d="M0 0 C3.2904312 1.42482846 5.3387635 3.31427016 7.8828125 5.8359375 C8.77742188 6.69703125 9.67203125 7.558125 10.59375 8.4453125 C12.5078125 11.0859375 12.5078125 11.0859375 12.59375 13.578125 C11.16892154 16.8685562 9.27947984 18.9168885 6.7578125 21.4609375 C5.89671875 22.35554688 5.035625 23.25015625 4.1484375 24.171875 C1.5078125 26.0859375 1.5078125 26.0859375 -0.984375 26.171875 C-4.2748062 24.74704654 -6.3231385 22.85760484 -8.8671875 20.3359375 C-9.76179688 19.47484375 -10.65640625 18.61375 -11.578125 17.7265625 C-13.4921875 15.0859375 -13.4921875 15.0859375 -13.578125 12.59375 C-12.15329654 9.3033188 -10.26385484 7.2549865 -7.7421875 4.7109375 C-6.88109375 3.81632812 -6.02 2.92171875 -5.1328125 2 C-2.4921875 0.0859375 -2.4921875 0.0859375 0 0 Z " fill="#2EE6A9" transform="translate(32.4921875,18.9140625)"/>
<path d="M0 0 C2.475 0.495 2.475 0.495 5 1 C4.67 2.32 4.34 3.64 4 5 C2.68 4.67 1.36 4.34 0 4 C0 2.68 0 1.36 0 0 Z " fill="#DFFBF2" transform="translate(30,36)"/>
<path d="M0 0 C2.475 0.495 2.475 0.495 5 1 C4.67 2.32 4.34 3.64 4 5 C2.68 4.67 1.36 4.34 0 4 C0 2.68 0 1.36 0 0 Z " fill="#DFFBF2" transform="translate(36,30)"/>
<path d="M0 0 C1.32 0 2.64 0 4 0 C3.67 1.65 3.34 3.3 3 5 C1.68 4.34 0.36 3.68 -1 3 C-0.67 2.01 -0.34 1.02 0 0 Z " fill="#E5FBF4" transform="translate(24,30)"/>
<path d="M0 0 C2.475 0.495 2.475 0.495 5 1 C4.67 1.99 4.34 2.98 4 4 C2.68 4 1.36 4 0 4 C0 2.68 0 1.36 0 0 Z " fill="#EFFDF8" transform="translate(30,24)"/>
</svg>
