<svg width="64" height="64" viewBox="0 0 64 64" fill="none" xmlns="http://www.w3.org/2000/svg">
<path fill-rule="evenodd" clip-rule="evenodd" d="M0 32V64H32H64V32V0H32H0V32Z" fill="#EAFCF6"/>
<path fill-rule="evenodd" clip-rule="evenodd" d="M0 32V64H32H64V32V0H32H0V32ZM40 24.5C42.987 27.525 45.207 30 44.932 30C44.657 30 41.987 27.525 39 24.5C36.013 21.475 33.793 19 34.068 19C34.343 19 37.013 21.475 40 24.5ZM24 25.345C24 25.535 22.988 26.547 21.75 27.595L19.5 29.5L21.405 27.25C23.195 25.136 24 24.545 24 25.345ZM15.662 30.25C15.385 30.938 15.158 30.375 15.158 29C15.158 27.625 15.385 27.063 15.662 27.75C15.94 28.438 15.94 29.563 15.662 30.25ZM48.662 36.25C48.385 36.938 48.158 36.375 48.158 35C48.158 33.625 48.385 33.063 48.662 33.75C48.94 34.438 48.94 35.563 48.662 36.25ZM25 39.5C27.987 42.525 30.207 45 29.932 45C29.657 45 26.987 42.525 24 39.5C21.013 36.475 18.793 34 19.068 34C19.343 34 22.013 36.475 25 39.5Z" fill="#D3FAED"/>
<path fill-rule="evenodd" clip-rule="evenodd" d="M0 32V64H32H64V32V0H32H0V32ZM40 24.5C42.987 27.525 45.207 30 44.932 30C44.657 30 41.987 27.525 39 24.5C36.013 21.475 33.793 19 34.068 19C34.343 19 37.013 21.475 40 24.5ZM44 25.5C45.292 26.875 46.124 28 45.849 28C45.574 28 44.292 26.875 43 25.5C41.708 24.125 40.876 23 41.151 23C41.426 23 42.708 24.125 44 25.5ZM24 25.345C24 25.535 22.988 26.547 21.75 27.595L19.5 29.5L21.405 27.25C23.195 25.136 24 24.545 24 25.345ZM15.693 30.731C15.439 31.704 15.215 31.15 15.195 29.5C15.175 27.85 15.382 27.054 15.656 27.731C15.93 28.408 15.947 29.758 15.693 30.731ZM40.807 32.526C40.499 32.834 39.94 32.279 39.564 31.293C39.022 29.868 39.136 29.753 40.124 30.733C40.808 31.412 41.115 32.219 40.807 32.526ZM48.693 35.731C48.439 36.704 48.215 36.15 48.195 34.5C48.175 32.85 48.382 32.054 48.656 32.731C48.93 33.408 48.947 34.758 48.693 35.731ZM25 39.5C27.987 42.525 30.207 45 29.932 45C29.657 45 26.987 42.525 24 39.5C21.013 36.475 18.793 34 19.068 34C19.343 34 22.013 36.475 25 39.5ZM45 34.284C45 34.44 42.413 37.028 39.25 40.034L33.5 45.5L38.966 39.75C44.044 34.408 45 33.542 45 34.284ZM21 38.5C22.292 39.875 23.124 41 22.849 41C22.574 41 21.292 39.875 20 38.5C18.708 37.125 17.876 36 18.151 36C18.426 36 19.708 37.125 21 38.5ZM32.526 40.807C32.219 41.115 31.412 40.808 30.733 40.124C29.753 39.136 29.868 39.022 31.293 39.564C32.279 39.94 32.834 40.499 32.526 40.807Z" fill="#ACF5DD"/>
<path fill-rule="evenodd" clip-rule="evenodd" d="M0 32V64H32H64V32V0H32H0V32ZM42.729 11.604C42.397 11.936 41.534 11.972 40.813 11.683C40.015 11.364 40.252 11.127 41.417 11.079C42.471 11.036 43.061 11.272 42.729 11.604ZM37.729 12.604C37.397 12.936 36.534 12.972 35.813 12.683C35.015 12.364 35.252 12.127 36.417 12.079C37.471 12.036 38.061 12.272 37.729 12.604ZM43.6 16.622C42.724 17.384 42.456 17.466 43.004 16.804C43.552 16.142 44.052 14.678 44.116 13.55C44.221 11.702 44.279 11.684 44.712 13.368C44.976 14.396 44.476 15.86 43.6 16.622ZM40.034 24.75L45.5 30.5L39.523 25C36.236 21.975 33.348 19.387 33.107 19.25C32.865 19.113 33.095 19 33.617 19C34.14 19 37.028 21.587 40.034 24.75ZM44.563 26.25L47.5 29.5L44.25 26.563C41.221 23.825 40.54 23 41.313 23C41.485 23 42.948 24.462 44.563 26.25ZM33.512 27.757C31.799 29.326 31.737 29.33 32.891 27.794C33.596 26.855 33.842 25.505 33.439 24.794C32.849 23.752 32.97 23.745 34.06 24.757C35.191 25.807 35.101 26.301 33.512 27.757ZM24 25.345C24 25.535 22.988 26.547 21.75 27.595L19.5 29.5L21.405 27.25C23.195 25.136 24 24.545 24 25.345ZM15.689 30.75C15.438 31.712 15.232 30.925 15.232 29C15.232 27.075 15.438 26.288 15.689 27.25C15.941 28.212 15.941 29.788 15.689 30.75ZM40.807 32.526C40.499 32.834 39.94 32.279 39.564 31.293C39.022 29.868 39.136 29.753 40.124 30.733C40.808 31.412 41.115 32.219 40.807 32.526ZM27.721 33.707C26.345 35.084 25.771 35.169 24.757 34.148C23.746 33.129 23.822 33.004 25.149 33.509C26.056 33.854 27.095 33.656 27.458 33.068C27.821 32.481 28.413 32 28.773 32C29.134 32 28.66 32.768 27.721 33.707ZM48.689 36.75C48.438 37.712 48.232 36.925 48.232 35C48.232 33.075 48.438 32.288 48.689 33.25C48.941 34.212 48.941 35.788 48.689 36.75ZM25 39.523L30.5 45.5L24.75 40.034C21.587 37.028 19 34.14 19 33.617C19 33.095 19.113 32.865 19.25 33.107C19.387 33.348 21.975 36.236 25 39.523ZM38.526 34.807C38.219 35.115 37.412 34.808 36.733 34.124C35.753 33.136 35.868 33.022 37.293 33.564C38.279 33.94 38.834 34.499 38.526 34.807ZM45 34.284C45 34.44 42.413 37.028 39.25 40.034L33.5 45.5L38.966 39.75C44.044 34.408 45 33.542 45 34.284ZM20.563 38.25L23.5 41.5L20.25 38.563C18.462 36.948 17 35.485 17 35.313C17 34.54 17.825 35.221 20.563 38.25ZM34.807 38.526C34.499 38.834 33.94 38.279 33.564 37.293C33.022 35.868 33.136 35.753 34.124 36.733C34.808 37.412 35.115 38.219 34.807 38.526ZM32.526 40.807C32.219 41.115 31.412 40.808 30.733 40.124C29.753 39.136 29.868 39.022 31.293 39.564C32.279 39.94 32.834 40.499 32.526 40.807ZM21.23 47.25C20.672 47.938 19.994 49.4 19.724 50.5C19.242 52.459 19.23 52.458 19.116 50.45C19.052 49.322 19.54 47.86 20.2 47.2C21.781 45.619 22.525 45.655 21.23 47.25ZM28.729 51.604C28.397 51.936 27.534 51.972 26.813 51.683C26.015 51.364 26.252 51.127 27.417 51.079C28.471 51.036 29.061 51.272 28.729 51.604ZM23.729 52.604C23.397 52.936 22.534 52.972 21.813 52.683C21.015 52.364 21.252 52.127 22.417 52.079C23.471 52.036 24.061 52.272 23.729 52.604Z" fill="#84F1CC"/>
<path fill-rule="evenodd" clip-rule="evenodd" d="M0 32V64H32H64V32V0H32H0V32ZM44.659 12.555C45.238 14.063 42.021 21.355 41.158 20.492C40.922 20.256 41.465 18.939 42.365 17.566C44.734 13.95 44.4 12.193 41.25 11.716L38.5 11.3L41.281 11.15C42.981 11.058 44.295 11.605 44.659 12.555ZM34 13.552C28.448 15.301 27.556 15.27 31.5 13.464C33.15 12.708 35.4 12.1 36.5 12.112C37.6 12.124 36.475 12.772 34 13.552ZM18.842 22C16.603 25.029 15.28 26.058 16.593 23.75C17.524 22.114 20.206 19 20.685 19C20.891 19 20.062 20.35 18.842 22ZM31 19.281C31 19.436 28.3 22.234 25 25.5C21.7 28.766 19 31.047 19 30.57C19 30.094 21.587 27.302 24.75 24.367C30.257 19.255 31 18.651 31 19.281ZM40.348 24.926C43.457 28.185 45.998 31.447 45.996 32.176C45.994 32.904 45.163 32.15 44.15 30.5C43.137 28.85 40.223 25.587 37.676 23.25C35.129 20.913 33.416 19 33.87 19C34.324 19 37.239 21.667 40.348 24.926ZM48.875 34.811L48.75 38.5L48.055 34.234C47.598 31.423 46.276 28.849 44.181 26.686C42.431 24.882 41 23.061 41 22.642C41 22.222 42.8 23.958 45 26.5C48.214 30.214 48.975 31.846 48.875 34.811ZM34.042 24.55C35.104 25.831 35.04 26.389 33.671 27.757C32.454 28.975 31.719 29.119 30.9 28.3C30.082 27.482 30.279 27.228 31.643 27.343C32.697 27.432 33.5 26.851 33.5 26C33.5 25.175 32.717 24.562 31.761 24.637C30.804 24.712 30.268 24.375 30.57 23.887C31.381 22.574 32.594 22.805 34.042 24.55ZM19.819 37.314C21.569 39.118 23 40.939 23 41.358C23 41.778 21.2 40.042 19 37.5C15.786 33.786 15.025 32.154 15.125 29.189L15.25 25.5L15.945 29.766C16.402 32.577 17.724 35.151 19.819 37.314ZM41 32.654C41 34.516 38.153 35.553 36.789 34.189C36.02 33.42 36.325 33.272 37.856 33.673C40.298 34.311 40.79 32.286 38.75 29.998C37.687 28.806 37.761 28.794 39.25 29.921C40.212 30.649 41 31.879 41 32.654ZM24.639 31.75C24.563 32.712 25.175 33.5 26 33.5C26.851 33.5 27.432 32.697 27.343 31.643C27.228 30.279 27.482 30.082 28.3 30.9C29.119 31.719 28.962 32.467 27.707 33.721C26.134 35.294 25.873 35.301 24.382 33.81C23.492 32.92 23.068 31.699 23.441 31.096C24.41 29.528 24.798 29.74 24.639 31.75ZM30.225 44.941C29.885 45.488 19 34.812 19 33.931C19 33.581 21.587 35.815 24.75 38.897C27.913 41.979 30.376 44.699 30.225 44.941ZM40.462 39.075C37.733 41.867 34.646 44.618 33.601 45.19C32.557 45.762 34.582 43.494 38.101 40.15C45.892 32.747 47.257 32.126 40.462 39.075ZM34.664 39.433C33.866 41.511 31.565 41.423 29.921 39.25C28.794 37.761 28.806 37.687 29.998 38.75C32.286 40.79 34.311 40.298 33.673 37.856C33.272 36.325 33.42 36.02 34.189 36.789C34.781 37.381 34.995 38.571 34.664 39.433ZM47.09 40.832C46.55 41.84 45.324 43.302 44.363 44.082C43.283 44.96 43.525 44.261 44.997 42.25C47.623 38.662 48.608 37.995 47.09 40.832ZM21.635 46.434C19.266 50.05 19.6 51.807 22.75 52.284L25.5 52.7L22.719 52.85C19.041 53.048 18.273 50.765 20.578 46.485C21.587 44.612 22.605 43.272 22.842 43.508C23.078 43.744 22.535 45.061 21.635 46.434ZM32.5 50.536C30.85 51.292 28.6 51.896 27.5 51.878C26.4 51.861 27.3 51.253 29.5 50.528C34.739 48.801 36.279 48.806 32.5 50.536Z" fill="#67EDC1"/>
<path fill-rule="evenodd" clip-rule="evenodd" d="M0 32V64H32H64V32V0H32H0V32ZM44.703 12.668C45.055 13.586 44.591 15.648 43.672 17.249C41.296 21.389 41.55 22.759 45.5 27.132C48.321 30.254 49 31.815 49 35.174C49 38.796 48.422 39.896 44.594 43.564C39.949 48.015 31.902 51.641 24.38 52.672C20.786 53.164 19.921 52.957 19.348 51.465C18.949 50.424 19.362 48.434 20.328 46.751C22.704 42.611 22.45 41.241 18.5 36.868C10.511 28.025 16.409 18.172 32.836 12.919C40.1 10.596 43.877 10.516 44.703 12.668ZM32.836 13.919C17.058 18.965 11.682 28.215 19.5 36.868C23.297 41.071 23.815 43.541 21.532 46.559C20.724 47.626 20.049 49.349 20.032 50.386C20.004 52.04 20.537 52.198 24.36 51.674C31.8 50.654 39.989 47.011 44.115 42.885C49.43 37.57 49.549 32.72 44.5 27.132C40.703 22.929 40.185 20.459 42.468 17.441C46.579 12.006 42.957 10.682 32.836 13.919ZM40.348 24.926C43.457 28.185 46 31.362 46 31.986C46 33.42 36.226 43.811 33.524 45.249C32.411 45.842 34.104 43.943 37.286 41.03C46.192 32.878 46.206 32.776 39.381 25.88C36.181 22.646 32.888 20 32.063 20C30.061 20 20 30.009 20 32C20 32.863 22.464 36.002 25.475 38.976C28.487 41.95 30.726 44.608 30.451 44.883C30.176 45.158 27.487 42.95 24.475 39.976C20.824 36.37 19 33.758 19 32.136C19 29.139 29.468 19.037 32.598 19.015C33.868 19.006 36.924 21.337 40.348 24.926ZM33.418 23.607C35.464 24.392 35.467 27.884 33.422 28.668C32.555 29.001 31.131 28.56 30.258 27.687C28.951 26.379 28.898 25.828 29.958 24.55C31.432 22.774 31.325 22.804 33.418 23.607ZM30.446 25.087C29.416 26.755 31.733 28.667 33.113 27.287C34.267 26.133 33.545 24 32 24C31.515 24 30.816 24.489 30.446 25.087ZM27.989 30.487C29.613 32.444 28.565 35 26.138 35C23.773 35 22.559 32.237 24.105 30.373C25.565 28.615 26.457 28.641 27.989 30.487ZM39.418 29.607C40.288 29.941 41 31.08 41 32.138C41 34.418 38.322 35.722 36.789 34.189C36.02 33.42 36.325 33.272 37.856 33.673C39.37 34.069 40 33.776 40 32.676C40 30.493 37.952 29.466 36.904 31.122C36.423 31.88 36.024 32.013 36.015 31.417C36.002 30.443 36.939 29 37.585 29C37.723 29 38.548 29.273 39.418 29.607ZM24.446 31.087C23.416 32.755 25.733 34.667 27.113 33.287C28.267 32.133 27.545 30 26 30C25.515 30 24.816 30.489 24.446 31.087ZM34.668 39.422C34.335 40.29 33.197 41 32.138 41C29.852 41 28.476 38.12 30.026 36.583C30.814 35.802 30.933 35.986 30.455 37.242C30.023 38.378 30.365 39.203 31.439 39.615C33.858 40.543 34.612 39.221 33.1 36.705C31.85 34.622 31.873 34.593 33.525 36.172C34.498 37.103 35.005 38.544 34.668 39.422Z" fill="#45EAB3"/>
<path fill-rule="evenodd" clip-rule="evenodd" d="M0 32V64H32H64V32V0H32H0V32ZM45.386 12.564C45.716 13.424 45.002 15.838 43.799 17.928L41.612 21.728L45.252 25.982C51.278 33.022 51.037 37.84 44.339 44.193C37.782 50.414 20.161 55.469 18.661 51.56C18.291 50.594 18.954 48.239 20.212 46.052L22.411 42.232L19.138 38.505C13.002 31.516 12.78 27.599 18.17 21.459C24.772 13.94 43.558 7.8 45.386 12.564ZM32.836 13.919C17.058 18.965 11.682 28.215 19.5 36.868C23.297 41.071 23.815 43.541 21.532 46.559C20.724 47.626 20.049 49.349 20.032 50.386C20.004 52.04 20.537 52.198 24.36 51.674C31.8 50.654 39.989 47.011 44.115 42.885C49.43 37.57 49.549 32.72 44.5 27.132C40.703 22.929 40.185 20.459 42.468 17.441C46.579 12.006 42.957 10.682 32.836 13.919ZM40.348 24.926C43.457 28.185 46 31.41 46 32.092C46 32.775 43.139 36.194 39.643 39.69C32.238 47.096 31.956 47.095 24.25 39.644C17.317 32.941 17.374 31.213 24.75 24.367C27.913 21.432 31.444 19.023 32.598 19.015C33.868 19.006 36.924 21.337 40.348 24.926ZM25.216 25.281C22.347 28.186 20 31.239 20 32.066C20 34.01 30.099 44 32.066 44C34.01 44 44 33.901 44 31.934C44 29.99 33.901 20 31.934 20C31.108 20 28.085 22.377 25.216 25.281ZM34.5 26C34.5 27.833 33.898 28.585 32.246 28.82C29.788 29.169 28.393 27.025 29.389 24.43C29.75 23.488 30.893 22.988 32.246 23.18C33.898 23.415 34.5 24.167 34.5 26ZM30.446 25.087C29.416 26.755 31.733 28.667 33.113 27.287C34.267 26.133 33.545 24 32 24C31.515 24 30.816 24.489 30.446 25.087ZM28.5 32C28.5 33.833 27.898 34.585 26.246 34.82C23.788 35.169 22.393 33.025 23.389 30.43C23.75 29.488 24.893 28.988 26.246 29.18C27.898 29.415 28.5 30.167 28.5 32ZM40.5 32.014C40.5 33.786 39.891 34.587 38.377 34.803C35.836 35.166 34.442 32.378 36.141 30.33C37.934 28.17 40.5 29.161 40.5 32.014ZM24.446 31.087C23.416 32.755 25.733 34.667 27.113 33.287C28.267 32.133 27.545 30 26 30C25.515 30 24.816 30.489 24.446 31.087ZM36.624 31.538C36.284 32.423 36.681 33.324 37.56 33.661C39.517 34.412 40.409 33.509 39.655 31.543C38.896 29.565 37.382 29.562 36.624 31.538ZM34.5 38.014C34.5 39.832 33.894 40.586 32.246 40.82C29.525 41.206 28.231 38.632 30.046 36.444C31.92 34.187 34.5 35.096 34.5 38.014ZM30.533 36.947C29.653 38.37 30.775 40 32.632 40C33.508 40 34.01 39.297 33.823 38.333C33.434 36.324 31.437 35.484 30.533 36.947Z" fill="#19E5A1"/>
<path fill-rule="evenodd" clip-rule="evenodd" d="M32.836 13.919C17.058 18.965 11.682 28.215 19.5 36.868C23.297 41.071 23.815 43.541 21.532 46.559C20.724 47.626 20.049 49.349 20.032 50.386C20.004 52.04 20.537 52.198 24.36 51.674C31.8 50.654 39.989 47.011 44.115 42.885C49.43 37.57 49.549 32.72 44.5 27.132C40.703 22.929 40.185 20.459 42.468 17.441C46.579 12.006 42.957 10.682 32.836 13.919ZM40.348 24.926C43.457 28.185 46 31.41 46 32.092C46 32.775 43.139 36.194 39.643 39.69C32.238 47.096 31.956 47.095 24.25 39.644C17.317 32.941 17.374 31.213 24.75 24.367C27.913 21.432 31.444 19.023 32.598 19.015C33.868 19.006 36.924 21.337 40.348 24.926ZM30.446 25.087C29.416 26.755 31.733 28.667 33.113 27.287C34.267 26.133 33.545 24 32 24C31.515 24 30.816 24.489 30.446 25.087ZM24.446 31.087C23.416 32.755 25.733 34.667 27.113 33.287C28.267 32.133 27.545 30 26 30C25.515 30 24.816 30.489 24.446 31.087ZM36.624 31.538C36.284 32.423 36.681 33.324 37.56 33.661C39.517 34.412 40.409 33.509 39.655 31.543C38.896 29.565 37.382 29.562 36.624 31.538ZM30.533 36.947C29.653 38.37 30.775 40 32.632 40C33.508 40 34.01 39.297 33.823 38.333C33.434 36.324 31.437 35.484 30.533 36.947Z" fill="white"/>
</svg>
