<svg width="64" height="64" viewBox="0 0 64 64" fill="none" xmlns="http://www.w3.org/2000/svg">
<g clip-path="url(#clip0_1_12)">
<path fill-rule="evenodd" clip-rule="evenodd" d="M0 32V64H32H64V32V0H32H0V32Z" fill="#E2E0E8"/>
<path fill-rule="evenodd" clip-rule="evenodd" d="M0 32V64H32H64V32V0H32H0V32ZM34 12.326C34 12.505 32.763 13.742 31.25 15.076L28.5 17.5L30.924 14.75C33.19 12.18 34 11.541 34 12.326ZM50 31.5C51.292 32.875 52.124 34 51.849 34C51.574 34 50.292 32.875 49 31.5C47.708 30.125 46.876 29 47.151 29C47.426 29 48.708 30.125 50 31.5ZM15 32.5C16.292 33.875 17.124 35 16.849 35C16.574 35 15.292 33.875 14 32.5C12.708 31.125 11.876 30 12.151 30C12.426 30 13.708 31.125 15 32.5ZM35 47.326C35 47.505 33.763 48.742 32.25 50.076L29.5 52.5L31.924 49.75C34.19 47.18 35 46.541 35 47.326Z" fill="#CBC8D6"/>
<path fill-rule="evenodd" clip-rule="evenodd" d="M0 32V64H32H64V32V0H32H0V32ZM29.807 12.526C29.499 12.834 28.94 12.279 28.564 11.293C28.022 9.868 28.136 9.753 29.124 10.733C29.808 11.412 30.115 12.219 29.807 12.526ZM34 12.326C34 12.505 32.763 13.742 31.25 15.076L28.5 17.5L30.924 14.75C33.19 12.18 34 11.541 34 12.326ZM53.5 29C53.16 29.55 52.346 29.993 51.691 29.985C50.975 29.975 51.099 29.582 52 29C53.921 27.758 54.267 27.758 53.5 29ZM50 31.5C51.292 32.875 52.124 34 51.849 34C51.574 34 50.292 32.875 49 31.5C47.708 30.125 46.876 29 47.151 29C47.426 29 48.708 30.125 50 31.5ZM15 32.5C16.292 33.875 17.124 35 16.849 35C16.574 35 15.292 33.875 14 32.5C12.708 31.125 11.876 30 12.151 30C12.426 30 13.708 31.125 15 32.5ZM13 34.393C13 34.609 12.302 35.054 11.448 35.382C10.558 35.723 10.157 35.555 10.507 34.989C11.094 34.038 13 33.583 13 34.393ZM35 47.326C35 47.505 33.763 48.742 32.25 50.076L29.5 52.5L31.924 49.75C34.19 47.18 35 46.541 35 47.326ZM35.382 52.552C35.723 53.442 35.555 53.843 34.989 53.493C34.445 53.157 34 52.459 34 51.941C34 50.503 34.717 50.82 35.382 52.552Z" fill="#A59FB7"/>
<path fill-rule="evenodd" clip-rule="evenodd" d="M0 32V64H32H64V32V0H32H0V32ZM28.097 8.383C27.212 9.45 27.298 9.9 28.474 10.352C29.314 10.674 30 11.397 30 11.959C30 12.521 29.116 12.224 28.036 11.299C26.57 10.043 26.347 9.286 27.159 8.309C27.756 7.589 28.47 7 28.745 7C29.02 7 28.728 7.622 28.097 8.383ZM32.323 14.184C30.84 15.733 29.225 17 28.736 17C28.247 17 29.254 15.816 30.974 14.368L34.101 11.737L31.801 9.118L29.5 6.5L32.261 8.934L35.021 11.368L32.323 14.184ZM40.244 9.664C39.553 9.943 39.285 10.652 39.648 11.24C40.042 11.877 39.836 12.017 39.138 11.585C37.761 10.735 38.588 8.965 40.309 9.079C41.161 9.135 41.143 9.302 40.244 9.664ZM18.25 11.662C16.406 12.406 16.731 14.783 18.75 15.311C20.067 15.655 19.943 15.797 18.25 15.884C16.693 15.964 16 15.436 16 14.167C16 12.062 16.858 10.965 18.417 11.079C19.021 11.123 18.948 11.381 18.25 11.662ZM23.683 16.188C23.364 16.985 23.127 16.748 23.079 15.583C23.036 14.529 23.272 13.939 23.604 14.271C23.936 14.603 23.972 15.466 23.683 16.188ZM42.729 16.604C42.397 16.936 41.534 16.972 40.813 16.683C40.015 16.364 40.252 16.127 41.417 16.079C42.471 16.036 43.061 16.272 42.729 16.604ZM52.597 17.775C52.736 18.476 52.621 18.589 52.342 18.025C51.526 16.38 49.187 16.844 48.689 18.75C48.355 20.028 48.201 19.875 48.116 18.18C48.024 16.342 48.45 15.927 50.172 16.18C51.366 16.356 52.457 17.074 52.597 17.775ZM22.296 20.104C21.536 20.864 21.004 20.815 20.458 19.933C19.964 19.132 20.101 18.945 20.845 19.405C21.48 19.797 22 19.566 22 18.892C22 18.218 22.308 17.974 22.683 18.35C23.059 18.726 22.885 19.515 22.296 20.104ZM44.5 21C44.16 21.55 44.434 22 45.108 22C45.782 22 46.063 22.27 45.733 22.6C44.835 23.498 42.878 22.007 43.543 20.931C43.859 20.419 44.343 20 44.618 20C44.893 20 44.84 20.45 44.5 21ZM16.683 23.188C16.364 23.985 16.127 23.748 16.079 22.583C16.036 21.529 16.272 20.939 16.604 21.271C16.936 21.603 16.972 22.466 16.683 23.188ZM11.24 24.352C11.877 23.958 12.017 24.164 11.585 24.862C10.735 26.239 8.965 25.412 9.079 23.691C9.135 22.839 9.302 22.857 9.664 23.756C9.943 24.447 10.652 24.715 11.24 24.352ZM49.729 23.604C49.397 23.936 48.534 23.972 47.813 23.683C47.015 23.364 47.252 23.127 48.417 23.079C49.471 23.036 50.061 23.272 49.729 23.604ZM17.124 27.267C16.136 28.247 16.022 28.132 16.564 26.707C16.94 25.721 17.499 25.166 17.807 25.474C18.115 25.781 17.808 26.588 17.124 27.267ZM56.128 27.75C57.35 29.309 57.322 29.361 55.867 28.224C54.519 27.172 54.131 27.216 53.648 28.474C53.326 29.314 52.603 30 52.041 30C51.479 30 51.79 29.1 52.732 28C54.789 25.598 54.459 25.622 56.128 27.75ZM54.882 31.801L57.5 29.5L55.066 32.261L52.632 35.021L49.816 32.323C48.267 30.84 47 29.225 47 28.736C47 28.247 48.184 29.254 49.632 30.974L52.263 34.101L54.882 31.801ZM17 35.264C17 35.753 15.816 34.746 14.368 33.026L11.737 29.899L9.118 32.199L6.5 34.5L8.934 31.739L11.368 28.979L14.184 31.677C15.733 33.16 17 34.775 17 35.264ZM11.268 36C9.211 38.402 9.541 38.378 7.872 36.25C6.65 34.691 6.678 34.639 8.133 35.776C9.481 36.828 9.869 36.784 10.352 35.526C10.674 34.686 11.397 34 11.959 34C12.521 34 12.21 34.9 11.268 36ZM54.921 40.309C54.865 41.161 54.698 41.143 54.336 40.244C54.057 39.553 53.348 39.285 52.76 39.648C52.123 40.042 51.983 39.836 52.415 39.138C53.265 37.761 55.035 38.588 54.921 40.309ZM16.729 40.604C16.397 40.936 15.534 40.972 14.813 40.683C14.015 40.364 14.252 40.127 15.417 40.079C16.471 40.036 17.061 40.272 16.729 40.604ZM47.683 42.188C47.364 42.985 47.127 42.748 47.079 41.583C47.036 40.529 47.272 39.939 47.604 40.271C47.936 40.603 47.972 41.466 47.683 42.188ZM20.457 41.931C20.774 42.443 20.506 43.187 19.862 43.585C19.164 44.017 18.958 43.877 19.352 43.24C19.715 42.652 19.447 41.943 18.756 41.664C17.857 41.302 17.839 41.135 18.691 41.079C19.346 41.036 20.141 41.419 20.457 41.931ZM43.595 44.155C44.038 44.87 43.87 45.038 43.155 44.595C42.52 44.203 42 44.434 42 45.108C42 45.782 41.73 46.063 41.4 45.733C40.828 45.161 41.698 43 42.5 43C42.71 43 43.203 43.52 43.595 44.155ZM16 46.07C16 47.625 15.461 48.06 13.828 47.82C12.634 47.644 11.543 46.926 11.403 46.225C11.264 45.524 11.379 45.411 11.658 45.975C12.441 47.553 15 47.189 15 45.5C15 44.675 15.225 44 15.5 44C15.775 44 16 44.931 16 46.07ZM23.729 47.604C23.397 47.936 22.534 47.972 21.813 47.683C21.015 47.364 21.252 47.127 22.417 47.079C23.471 47.036 24.061 47.272 23.729 47.604ZM33.026 49.632L29.899 52.263L32.199 54.882L34.5 57.5L31.739 55.066L28.979 52.632L31.677 49.816C33.16 48.267 34.775 47 35.264 47C35.753 47 34.746 48.184 33.026 49.632ZM40.683 49.188C40.364 49.985 40.127 49.748 40.079 48.583C40.036 47.529 40.272 46.939 40.604 47.271C40.936 47.603 40.972 48.466 40.683 49.188ZM47.82 50.172C47.644 51.366 46.926 52.457 46.225 52.597C45.524 52.736 45.411 52.621 45.975 52.342C47.62 51.526 47.156 49.187 45.25 48.689C43.972 48.355 44.125 48.201 45.82 48.116C47.658 48.024 48.073 48.45 47.82 50.172ZM36.841 55.691C36.244 56.411 35.53 57 35.255 57C34.98 57 35.272 56.378 35.903 55.617C36.788 54.55 36.702 54.1 35.526 53.648C34.686 53.326 34 52.603 34 52.041C34 51.479 34.884 51.776 35.964 52.701C37.43 53.957 37.653 54.714 36.841 55.691ZM25.457 54.069C25.141 54.581 24.346 54.964 23.691 54.921C22.839 54.865 22.857 54.698 23.756 54.336C24.447 54.057 24.715 53.348 24.352 52.76C23.958 52.123 24.164 51.983 24.862 52.415C25.506 52.813 25.774 53.557 25.457 54.069Z" fill="#7D7598"/>
<path fill-rule="evenodd" clip-rule="evenodd" d="M0 32V64H32H64V32V0H32H0V32ZM32.816 14.639C29.558 17.897 26.206 17.353 28.071 13.868C29.021 12.092 28.927 11.539 27.541 10.763C25.966 9.882 25.971 9.689 27.618 7.87C29.356 5.949 29.427 5.965 32.42 8.958L35.458 11.997L32.816 14.639ZM28.228 8.172C27.35 9.05 27.455 9.612 28.661 10.494C29.953 11.439 30.034 12.068 29.091 13.829C27.563 16.685 29.086 16.602 31.831 13.68L34.011 11.359L31.699 9.187C29.946 7.54 29.105 7.295 28.228 8.172ZM43.44 10.618C43.802 12.058 43.904 13.429 43.669 13.665C43.433 13.9 42.957 12.963 42.61 11.582C42.211 9.993 41.473 9.265 40.6 9.6C39.842 9.891 39.435 10.949 39.698 11.952C39.96 12.954 39.798 14.006 39.337 14.289C38.877 14.572 38.453 13.518 38.396 11.947C38.301 9.346 38.937 8.695 42.142 8.116C42.494 8.052 43.079 9.178 43.44 10.618ZM18.25 11.662C16.406 12.406 16.731 14.783 18.75 15.311C20.067 15.655 19.943 15.797 18.25 15.884C16.693 15.964 16 15.436 16 14.167C16 12.062 16.858 10.965 18.417 11.079C19.021 11.123 18.948 11.381 18.25 11.662ZM22.729 12.604C22.397 12.936 21.534 12.972 20.813 12.683C20.015 12.364 20.252 12.127 21.417 12.079C22.471 12.036 23.061 12.272 22.729 12.604ZM23.516 17.928C22.816 21.113 21.637 21.84 20.405 19.845C19.96 19.126 20.13 18.963 20.857 19.412C21.615 19.88 22.241 19.046 22.644 17.032C22.985 15.326 23.472 14.139 23.727 14.394C23.982 14.649 23.887 16.239 23.516 17.928ZM41.527 16.12C43.629 15.54 44.914 15.486 44.401 15.999C42.748 17.652 36.762 17.652 36.283 16C35.937 14.808 36.041 14.774 36.786 15.835C37.518 16.878 38.558 16.94 41.527 16.12ZM52.597 17.775C52.736 18.476 52.621 18.589 52.342 18.025C51.526 16.38 49.187 16.844 48.689 18.75C48.355 20.028 48.201 19.875 48.116 18.18C48.024 16.342 48.45 15.927 50.172 16.18C51.366 16.356 52.457 17.074 52.597 17.775ZM17.214 23.905C17.411 26.228 17.032 27.418 16 27.717C14.808 28.063 14.774 27.959 15.835 27.214C16.878 26.482 16.94 25.442 16.12 22.473C15.54 20.371 15.486 19.086 15.999 19.599C16.51 20.11 17.057 22.048 17.214 23.905ZM13.729 20.604C13.397 20.936 12.534 20.972 11.813 20.683C11.015 20.364 11.252 20.127 12.417 20.079C13.471 20.036 14.061 20.272 13.729 20.604ZM44.523 20.962C44.196 21.491 45.407 22.39 47.214 22.959L50.5 23.993L47.073 23.486C45.188 23.207 43.455 22.789 43.223 22.556C42.737 22.07 43.867 20 44.618 20C44.893 20 44.85 20.433 44.523 20.962ZM51.683 22.188C51.364 22.985 51.127 22.748 51.079 21.583C51.036 20.529 51.272 19.939 51.604 20.271C51.936 20.603 51.972 21.466 51.683 22.188ZM9.882 21.75C9.539 23.922 10.194 24.762 11.887 24.319C12.925 24.048 14.006 24.202 14.289 24.663C14.572 25.123 13.498 25.548 11.902 25.606C10.306 25.665 9 25.364 9 24.938C9 24.512 8.727 23.452 8.393 22.582C8.059 21.712 8.284 21 8.893 21C9.502 21 9.947 21.337 9.882 21.75ZM55.042 32.42L52.003 35.458L49.361 32.816C46.103 29.558 46.647 26.206 50.132 28.071C51.908 29.021 52.461 28.927 53.237 27.541C54.118 25.966 54.311 25.971 56.13 27.618C58.051 29.356 58.035 29.427 55.042 32.42ZM53.418 28.699C52.595 30.004 52.015 30.079 50.207 29.111C47.32 27.566 47.383 29.071 50.32 31.831L52.641 34.011L54.854 31.656C56.648 29.746 56.816 29.093 55.745 28.203C54.758 27.384 54.168 27.509 53.418 28.699ZM14.952 31.449C17.888 34.574 17.137 37.679 13.868 35.929C12.092 34.979 11.539 35.073 10.763 36.459C9.881 38.036 9.692 38.032 7.889 36.399C5.991 34.682 6.004 34.605 8.666 31.826C11.956 28.393 12.075 28.386 14.952 31.449ZM9.187 32.301C7.54 34.054 7.295 34.895 8.172 35.772C9.05 36.65 9.612 36.545 10.494 35.339C11.439 34.047 12.068 33.966 13.829 34.909C16.685 36.437 16.602 34.914 13.68 32.169L11.359 29.989L9.187 32.301ZM48.165 36.877C47.134 37.53 47.06 38.556 47.837 41.373C48.391 43.38 48.488 44.802 48.052 44.532C46.998 43.881 45.859 38.037 46.563 36.897C46.868 36.404 47.654 36.007 48.309 36.015C49.12 36.026 49.074 36.3 48.165 36.877ZM55 39.062C55 39.488 55.273 40.548 55.607 41.418C55.941 42.288 55.716 43 55.107 43C54.498 43 54.053 42.663 54.118 42.25C54.461 40.078 53.806 39.238 52.113 39.681C51.075 39.952 49.994 39.798 49.711 39.337C49.428 38.877 50.502 38.452 52.098 38.394C53.694 38.335 55 38.636 55 39.062ZM20.86 41.527C21.139 41.806 20.768 42.588 20.037 43.267C19.033 44.198 18.874 44.203 19.389 43.288C19.828 42.508 18.901 41.707 16.786 41.041L13.5 40.007L16.927 40.514C18.812 40.793 20.582 41.249 20.86 41.527ZM12.683 43.188C12.364 43.985 12.127 43.748 12.079 42.583C12.036 41.529 12.272 40.939 12.604 41.271C12.936 41.603 12.972 42.466 12.683 43.188ZM43.595 44.155C44.04 44.874 43.87 45.037 43.143 44.588C42.385 44.12 41.759 44.954 41.356 46.968C41.015 48.674 40.528 49.861 40.273 49.606C39.526 48.859 41.076 43 42.02 43C42.494 43 43.203 43.52 43.595 44.155ZM52.729 43.604C52.397 43.936 51.534 43.972 50.813 43.683C50.015 43.364 50.252 43.127 51.417 43.079C52.471 43.036 53.061 43.272 52.729 43.604ZM16 46.07C16 47.625 15.461 48.06 13.828 47.82C12.634 47.644 11.543 46.926 11.403 46.225C11.264 45.524 11.379 45.411 11.658 45.975C12.441 47.553 15 47.189 15 45.5C15 44.675 15.225 44 15.5 44C15.775 44 16 44.931 16 46.07ZM27.743 48C28.069 49.194 27.961 49.228 27.214 48.165C26.482 47.122 25.442 47.06 22.473 47.88C20.382 48.457 19.082 48.539 19.585 48.062C21.927 45.84 27.144 45.801 27.743 48ZM36.298 47.631C36.645 47.979 36.46 49.141 35.886 50.213C35.079 51.721 35.216 52.437 36.487 53.367C38 54.473 37.981 54.707 36.246 56.277C34.451 57.902 34.22 57.839 31.499 54.999L28.639 52.013L30.994 49.507C33.324 47.027 35.074 46.408 36.298 47.631ZM32.169 50.32L29.989 52.641L32.301 54.813C34.054 56.46 34.895 56.705 35.772 55.828C36.65 54.95 36.545 54.388 35.339 53.506C34.047 52.561 33.966 51.932 34.909 50.171C36.437 47.315 34.914 47.398 32.169 50.32ZM47.82 50.172C47.644 51.366 46.926 52.457 46.225 52.597C45.524 52.736 45.411 52.621 45.975 52.342C47.62 51.526 47.156 49.187 45.25 48.689C43.972 48.355 44.125 48.201 45.82 48.116C47.658 48.024 48.073 48.45 47.82 50.172ZM25.606 52.002C25.665 53.651 25.364 55 24.938 55C24.512 55 23.452 55.273 22.582 55.607C21.712 55.941 21 55.716 21 55.107C21 54.498 21.337 54.053 21.75 54.118C23.776 54.438 25.051 53.892 24.47 52.952C23.9 52.029 24.474 48.996 25.219 49.002C25.373 49.004 25.548 50.354 25.606 52.002ZM20.683 52.188C20.364 52.985 20.127 52.748 20.079 51.583C20.036 50.529 20.272 49.939 20.604 50.271C20.936 50.603 20.972 51.466 20.683 52.188ZM43.729 51.604C43.397 51.936 42.534 51.972 41.813 51.683C41.015 51.364 41.252 51.127 42.417 51.079C43.471 51.036 44.061 51.272 43.729 51.604Z" fill="#6C638A"/>
<path fill-rule="evenodd" clip-rule="evenodd" d="M0 32V64H32H64V32V0H32H0V32ZM32.816 14.639C29.558 17.897 26.206 17.353 28.071 13.868C29.021 12.092 28.927 11.539 27.541 10.763C25.966 9.882 25.971 9.689 27.618 7.87C29.356 5.949 29.427 5.965 32.42 8.958L35.458 11.997L32.816 14.639ZM28.228 8.172C27.35 9.05 27.455 9.612 28.661 10.494C29.953 11.439 30.034 12.068 29.091 13.829C27.563 16.685 29.086 16.602 31.831 13.68L34.011 11.359L31.699 9.187C29.946 7.54 29.105 7.295 28.228 8.172ZM43.808 11.725C45.142 16.074 44.767 16.612 39.75 17.533C36.659 18.102 36 17.934 36 16.58C36 15.676 36.708 14.665 37.574 14.333C38.64 13.924 38.963 12.988 38.574 11.438C38.033 9.283 38.516 8.827 42.082 8.116C42.402 8.052 43.179 9.676 43.808 11.725ZM40.356 9.682C39.727 9.91 39.441 10.969 39.72 12.036C40.036 13.246 39.62 14.209 38.613 14.595C35.633 15.739 36.897 17.181 40.25 16.463C42.038 16.08 43.635 15.646 43.8 15.5C44.594 14.794 41.353 9.321 40.356 9.682ZM24.138 12.585C25.304 13.306 22.799 21 21.397 21C20.65 21 19.756 19.875 19.411 18.5C19.066 17.125 18.157 16 17.392 16C16.558 16 16 14.953 16 13.389C16 10.914 16.195 10.814 19.742 11.479C21.801 11.866 23.779 12.363 24.138 12.585ZM17 13.5C17 14.325 17.675 15 18.5 15C19.325 15 20 15.873 20 16.941C20 20.314 21.888 20.209 22.789 16.786C23.54 13.932 23.38 13.415 21.577 12.85C18.122 11.768 17 11.927 17 13.5ZM52.521 19.742C51.554 24.892 51.518 24.919 47.006 23.774C42.886 22.728 41.74 20.697 44.641 19.584C45.992 19.066 46.066 19.215 45.06 20.427C44.038 21.659 44.383 22.044 47.169 22.777C50.073 23.541 50.583 23.387 51.15 21.577C52.232 18.122 52.073 17 50.5 17C49.675 17 49 17.675 49 18.5C49 19.325 48.592 20 48.094 20C47.595 20 47.423 19.1 47.71 18C48.057 16.674 49.074 16 50.728 16C53.068 16 53.179 16.232 52.521 19.742ZM16.35 19.758C16.608 20.174 17.134 22.199 17.521 24.258C18.1 27.347 17.936 28 16.58 28C15.676 28 14.665 27.292 14.333 26.426C13.917 25.342 12.992 25.036 11.364 25.445C10.064 25.771 9 25.616 9 25.101C9 24.585 8.727 23.452 8.393 22.582C8.059 21.712 8.284 21 8.893 21C9.502 21 9.947 21.337 9.882 21.75C9.531 23.969 10.157 24.877 11.645 24.306C12.649 23.921 13.813 24.391 14.634 25.515C16.435 27.978 17.153 27.016 16.384 23.171C15.833 20.416 15.427 20.086 13.127 20.527C10.893 20.955 10.799 20.889 12.5 20.086C15.049 18.881 15.77 18.82 16.35 19.758ZM55.042 32.42L52.003 35.458L49.361 32.816C46.103 29.558 46.647 26.206 50.132 28.071C51.908 29.021 52.461 28.927 53.237 27.541C54.118 25.966 54.311 25.971 56.13 27.618C58.051 29.356 58.035 29.427 55.042 32.42ZM53.418 28.699C52.595 30.004 52.015 30.079 50.207 29.111C47.32 27.566 47.383 29.071 50.32 31.831L52.641 34.011L54.854 31.656C56.648 29.746 56.816 29.093 55.745 28.203C54.758 27.384 54.168 27.509 53.418 28.699ZM14.952 31.449C17.888 34.574 17.137 37.679 13.868 35.929C12.092 34.979 11.539 35.073 10.763 36.459C9.881 38.036 9.692 38.032 7.889 36.399C5.991 34.682 6.004 34.605 8.666 31.826C11.956 28.393 12.075 28.386 14.952 31.449ZM9.187 32.301C7.54 34.054 7.295 34.895 8.172 35.772C9.05 36.65 9.612 36.545 10.494 35.339C11.439 34.047 12.068 33.966 13.829 34.909C16.685 36.437 16.602 34.914 13.68 32.169L11.359 29.989L9.187 32.301ZM49.667 37.574C50.083 38.658 51.008 38.964 52.636 38.555C53.936 38.229 55 38.384 55 38.899C55 39.415 55.273 40.548 55.607 41.418C55.941 42.288 55.716 43 55.107 43C54.498 43 54.053 42.663 54.118 42.25C54.469 40.031 53.843 39.123 52.355 39.694C51.351 40.079 50.187 39.609 49.366 38.485C47.565 36.022 46.847 36.984 47.616 40.829C48.167 43.586 48.571 43.913 50.873 43.465L53.5 42.954L51.08 44.007C48.126 45.294 47.354 44.582 46.467 39.75C45.898 36.659 46.066 36 47.42 36C48.324 36 49.335 36.708 49.667 37.574ZM21 42.515C21 43.214 20.261 44.069 19.359 44.416C18.008 44.934 17.934 44.785 18.94 43.573C19.962 42.341 19.617 41.956 16.831 41.223C13.927 40.459 13.417 40.613 12.85 42.423C11.768 45.878 11.927 47 13.5 47C14.325 47 15 46.325 15 45.5C15 44.675 15.408 44 15.906 44C16.405 44 16.577 44.9 16.29 46C15.943 47.326 14.926 48 13.272 48C10.932 48 10.821 47.768 11.479 44.258C11.866 42.199 12.363 40.221 12.585 39.862C13.278 38.741 21 41.175 21 42.515ZM44.589 45.5C44.934 46.875 45.843 48 46.608 48C47.442 48 48 49.047 48 50.611C48 53.086 47.805 53.186 44.258 52.521C39.108 51.554 39.081 51.518 40.226 47.006C41.37 42.5 43.64 41.717 44.589 45.5ZM41.211 47.214C40.46 50.068 40.62 50.585 42.423 51.15C45.878 52.232 47 52.073 47 50.5C47 49.675 46.325 49 45.5 49C44.675 49 44 48.127 44 47.059C44 43.686 42.112 43.791 41.211 47.214ZM28 47.531C28 48.374 27.292 49.335 26.426 49.667C25.342 50.083 25.036 51.008 25.445 52.636C25.771 53.936 25.616 55 25.101 55C24.585 55 23.452 55.273 22.582 55.607C21.712 55.941 21 55.716 21 55.107C21 54.498 21.337 54.053 21.75 54.118C23.969 54.469 24.877 53.843 24.306 52.355C23.921 51.351 24.391 50.187 25.515 49.366C27.978 47.565 27.016 46.847 23.171 47.616C20.414 48.167 20.087 48.571 20.535 50.873L21.046 53.5L19.993 51.08C18.847 48.449 19.418 47.454 22.5 46.713C26.388 45.778 28 46.018 28 47.531ZM36.298 47.631C36.645 47.979 36.46 49.141 35.886 50.213C35.079 51.721 35.216 52.437 36.487 53.367C38 54.473 37.981 54.707 36.246 56.277C34.451 57.902 34.22 57.839 31.499 54.999L28.639 52.013L30.994 49.507C33.324 47.027 35.074 46.408 36.298 47.631ZM32.169 50.32L29.989 52.641L32.301 54.813C34.054 56.46 34.895 56.705 35.772 55.828C36.65 54.95 36.545 54.388 35.339 53.506C34.047 52.561 33.966 51.932 34.909 50.171C36.437 47.315 34.914 47.398 32.169 50.32Z" fill="#534876"/>
<path fill-rule="evenodd" clip-rule="evenodd" d="M0 32V64H32H64V32V0H32H0V32ZM32.5 9L35.374 12L32.487 15.014C29.952 17.66 29.42 17.849 28.136 16.564C26.939 15.368 26.905 14.819 27.949 13.562C29.002 12.293 28.943 11.915 27.613 11.405C25.704 10.672 25.527 8.873 27.2 7.2C28.895 5.505 29.276 5.635 32.5 9ZM28.228 8.172C27.35 9.05 27.455 9.612 28.661 10.494C29.953 11.439 30.034 12.068 29.091 13.829C27.563 16.685 29.086 16.602 31.831 13.68L34.011 11.359L31.699 9.187C29.946 7.54 29.105 7.295 28.228 8.172ZM43.902 11.149C45.574 15.946 45.321 16.501 40.923 17.675C37.508 18.586 36.751 18.515 36.261 17.237C35.938 16.395 36.428 15.16 37.355 14.482C38.398 13.72 38.783 12.599 38.372 11.526C37.711 9.804 39.353 8.046 41.652 8.015C42.286 8.007 43.298 9.417 43.902 11.149ZM40.356 9.682C39.727 9.91 39.441 10.969 39.72 12.036C40.036 13.246 39.62 14.209 38.613 14.595C35.633 15.739 36.897 17.181 40.25 16.463C42.038 16.08 43.635 15.646 43.8 15.5C44.594 14.794 41.353 9.321 40.356 9.682ZM24.144 12.744C24.593 13.193 24.49 15.262 23.916 17.341C22.744 21.585 19.739 22.156 19.18 18.24C18.969 16.758 18.172 16 16.823 16C15.376 16 14.962 15.542 15.393 14.418C15.727 13.548 16 12.364 16 11.787C16 10.609 22.808 11.408 24.144 12.744ZM17 13.5C17 14.325 17.675 15 18.5 15C19.325 15 20 15.873 20 16.941C20 20.314 21.888 20.209 22.789 16.786C23.54 13.932 23.38 13.415 21.577 12.85C18.122 11.768 17 11.927 17 13.5ZM52.87 16.578C53.489 17.128 51.978 23.895 51.117 24.427C50.675 24.701 48.64 24.463 46.595 23.899C42.408 22.743 41.876 19.735 45.76 19.18C47.226 18.971 48 18.17 48 16.863C48 15.253 48.437 14.999 50.25 15.557C51.487 15.937 52.667 16.397 52.87 16.578ZM49 18.5C49 19.325 48.127 20 47.059 20C43.686 20 43.791 21.888 47.214 22.789C50.068 23.54 50.585 23.38 51.15 21.577C52.232 18.122 52.073 17 50.5 17C49.675 17 49 17.675 49 18.5ZM17.675 23.077C18.586 26.492 18.515 27.249 17.237 27.739C16.395 28.062 15.16 27.572 14.482 26.645C13.72 25.602 12.599 25.217 11.526 25.628C9.799 26.291 8.046 24.645 8.015 22.333C8 21.159 12.175 19.226 15.043 19.079C16.032 19.028 16.978 20.466 17.675 23.077ZM12.191 20.85C10.921 21.207 9.909 21.837 9.941 22.25C9.973 22.663 10 23.436 10 23.969C10 24.501 10.74 24.653 11.645 24.306C12.649 23.921 13.813 24.391 14.634 25.515C15.374 26.526 16.212 27.121 16.497 26.837C17.184 26.15 15.926 19.972 15.125 20.1C14.781 20.155 13.461 20.492 12.191 20.85ZM57.049 27.559C58.144 28.879 57.859 29.602 55.194 32.268L52.045 35.417L49.008 32.508C46.343 29.954 46.151 29.42 47.436 28.136C48.632 26.939 49.181 26.905 50.438 27.949C51.707 29.002 52.085 28.943 52.595 27.613C53.38 25.568 55.377 25.545 57.049 27.559ZM53.418 28.699C52.595 30.004 52.015 30.079 50.207 29.111C47.32 27.566 47.383 29.071 50.32 31.831L52.641 34.011L54.854 31.656C56.648 29.746 56.816 29.093 55.745 28.203C54.758 27.384 54.168 27.509 53.418 28.699ZM15.352 31.845C17.759 34.358 17.898 34.84 16.539 35.968C15.315 36.983 14.695 36.992 13.512 36.01C12.307 35.01 11.906 35.081 11.405 36.387C10.624 38.423 8.625 38.458 6.97 36.464C5.903 35.179 6.159 34.444 8.535 31.964C10.096 30.334 11.656 29 12 29C12.344 29 13.853 30.28 15.352 31.845ZM9.187 32.301C7.54 34.054 7.295 34.895 8.172 35.772C9.05 36.65 9.612 36.545 10.494 35.339C11.439 34.047 12.068 33.966 13.829 34.909C16.685 36.437 16.602 34.914 13.68 32.169L11.359 29.989L9.187 32.301ZM49.65 37.53C50.036 38.537 50.922 38.842 52.243 38.423C54.233 37.791 55.953 39.276 55.985 41.652C55.999 42.746 51 45 48.557 45C47.359 45 44.906 37.427 45.811 36.522C46.869 35.464 49.08 36.045 49.65 37.53ZM47.37 39.25C47.701 40.487 47.979 42.071 47.986 42.769C47.999 43.919 51.843 43.647 54.206 42.33C55.722 41.485 53.78 39.245 51.948 39.724C50.755 40.036 49.789 39.614 49.405 38.613C48.456 36.139 46.685 36.693 47.37 39.25ZM18.807 40.506C21.727 41.348 21.329 44.379 18.24 44.82C16.758 45.031 16 45.828 16 47.177C16 48.624 15.542 49.038 14.418 48.607C13.548 48.273 12.423 48 11.918 48C10.709 48 10.749 44.789 12.001 41.498C12.694 39.675 13.539 39.016 14.751 39.354C15.713 39.622 17.538 40.14 18.807 40.506ZM12.986 41.32C12.979 41.969 12.701 43.513 12.37 44.75C11.926 46.404 12.195 47 13.383 47C14.273 47 15 46.325 15 45.5C15 44.675 15.873 44 16.941 44C18.009 44 19.16 43.55 19.5 43C19.84 42.45 19.976 42 19.802 42C19.629 42 18.027 41.581 16.243 41.07C13.893 40.396 12.996 40.465 12.986 41.32ZM44.82 45.76C45.029 47.226 45.83 48 47.137 48C48.747 48 49.001 48.437 48.443 50.25C47.493 53.34 47.53 53.322 43.582 52.581C39.171 51.754 38.836 51.178 40.101 46.595C41.257 42.408 44.265 41.876 44.82 45.76ZM41.211 47.214C40.46 50.068 40.62 50.585 42.423 51.15C45.878 52.232 47 52.073 47 50.5C47 49.675 46.325 49 45.5 49C44.675 49 44 48.127 44 47.059C44 43.686 42.112 43.791 41.211 47.214ZM28 47.59C28 48.4 27.312 49.327 26.47 49.65C25.463 50.036 25.158 50.922 25.577 52.243C26.209 54.233 24.724 55.953 22.348 55.985C21.247 55.999 19 50.994 19 48.527C19 47.352 25.835 45.049 27.25 45.748C27.663 45.951 28 46.781 28 47.59ZM36.051 50.438C34.998 51.707 35.057 52.085 36.387 52.595C38.432 53.38 38.455 55.377 36.441 57.049C35.121 58.144 34.398 57.859 31.732 55.194L28.583 52.045L31.492 49.008C34.046 46.343 34.58 46.151 35.864 47.436C37.061 48.632 37.095 49.181 36.051 50.438ZM22.248 47.706C20.37 48.068 20.103 48.584 20.637 50.82C21.526 54.545 21.87 54.987 23.422 54.392C24.192 54.096 24.562 53.04 24.276 51.948C23.964 50.755 24.386 49.789 25.387 49.405C26.274 49.065 27 48.384 27 47.893C27 46.979 26.19 46.947 22.248 47.706ZM32.169 50.32L29.989 52.641L32.301 54.813C34.054 56.46 34.895 56.705 35.772 55.828C36.65 54.95 36.545 54.388 35.339 53.506C34.047 52.561 33.966 51.932 34.909 50.171C36.437 47.315 34.914 47.398 32.169 50.32Z" fill="#32255C"/>
<path fill-rule="evenodd" clip-rule="evenodd" d="M28.228 8.172C27.35 9.05 27.455 9.612 28.661 10.494C29.953 11.439 30.034 12.068 29.091 13.829C27.563 16.685 29.086 16.602 31.831 13.68L34.011 11.359L31.699 9.187C29.946 7.54 29.105 7.295 28.228 8.172ZM40.356 9.682C39.727 9.91 39.441 10.969 39.72 12.036C40.036 13.246 39.62 14.209 38.613 14.595C35.633 15.739 36.897 17.181 40.25 16.463C42.038 16.08 43.635 15.646 43.8 15.5C44.594 14.794 41.353 9.321 40.356 9.682ZM17 13.5C17 14.325 17.675 15 18.5 15C19.325 15 20 15.873 20 16.941C20 20.314 21.888 20.209 22.789 16.786C23.54 13.932 23.38 13.415 21.577 12.85C18.122 11.768 17 11.927 17 13.5ZM49 18.5C49 19.325 48.127 20 47.059 20C43.686 20 43.791 21.888 47.214 22.789C50.068 23.54 50.585 23.38 51.15 21.577C52.232 18.122 52.073 17 50.5 17C49.675 17 49 17.675 49 18.5ZM12.191 20.85C10.921 21.207 9.909 21.837 9.941 22.25C9.973 22.663 10 23.436 10 23.969C10 24.501 10.74 24.653 11.645 24.306C12.649 23.921 13.813 24.391 14.634 25.515C15.374 26.526 16.212 27.121 16.497 26.837C17.184 26.15 15.926 19.972 15.125 20.1C14.781 20.155 13.461 20.492 12.191 20.85ZM53.418 28.699C52.595 30.004 52.015 30.079 50.207 29.111C47.32 27.566 47.383 29.071 50.32 31.831L52.641 34.011L54.854 31.656C56.648 29.746 56.816 29.093 55.745 28.203C54.758 27.384 54.168 27.509 53.418 28.699ZM9.187 32.301C7.54 34.054 7.295 34.895 8.172 35.772C9.05 36.65 9.612 36.545 10.494 35.339C11.439 34.047 12.068 33.966 13.829 34.909C16.685 36.437 16.602 34.914 13.68 32.169L11.359 29.989L9.187 32.301ZM47.37 39.25C47.701 40.487 47.979 42.071 47.986 42.769C47.999 43.919 51.843 43.647 54.206 42.33C55.722 41.485 53.78 39.245 51.948 39.724C50.755 40.036 49.789 39.614 49.405 38.613C48.456 36.139 46.685 36.693 47.37 39.25ZM12.986 41.32C12.979 41.969 12.701 43.513 12.37 44.75C11.926 46.404 12.195 47 13.383 47C14.273 47 15 46.325 15 45.5C15 44.675 15.873 44 16.941 44C18.009 44 19.16 43.55 19.5 43C19.84 42.45 19.976 42 19.802 42C19.629 42 18.027 41.581 16.243 41.07C13.893 40.396 12.996 40.465 12.986 41.32ZM41.211 47.214C40.46 50.068 40.62 50.585 42.423 51.15C45.878 52.232 47 52.073 47 50.5C47 49.675 46.325 49 45.5 49C44.675 49 44 48.127 44 47.059C44 43.686 42.112 43.791 41.211 47.214ZM22.248 47.706C20.37 48.068 20.103 48.584 20.637 50.82C21.526 54.545 21.87 54.987 23.422 54.392C24.192 54.096 24.562 53.04 24.276 51.948C23.964 50.755 24.386 49.789 25.387 49.405C26.274 49.065 27 48.384 27 47.893C27 46.979 26.19 46.947 22.248 47.706ZM32.169 50.32L29.989 52.641L32.301 54.813C34.054 56.46 34.895 56.705 35.772 55.828C36.65 54.95 36.545 54.388 35.339 53.506C34.047 52.561 33.966 51.932 34.909 50.171C36.437 47.315 34.914 47.398 32.169 50.32Z" fill="white"/>
</g>
<defs>
<clipPath id="clip0_1_12">
<rect width="64" height="64" rx="32" fill="white"/>
</clipPath>
</defs>
</svg>
