<svg width="57" height="65" viewBox="0 0 57 65" fill="none" xmlns="http://www.w3.org/2000/svg">
<path fill-rule="evenodd" clip-rule="evenodd" d="M13.713 7.568L0.926001 15.106L1.213 24.263L1.5 33.419L6.732 36.46C9.61 38.132 11.973 39.746 11.982 40.046C11.992 40.346 9.638 41.94 6.75 43.588C3.863 45.236 1.5 47.235 1.5 48.03C1.5 49.743 25.598 63.965 28.5 63.965C29.6 63.965 36.125 60.706 43 56.723L55.5 49.481L55.786 40.318L56.073 31.156L50.536 27.844C47.491 26.023 45.008 24.3 45.018 24.016C45.027 23.732 47.353 22.15 50.186 20.5C53.02 18.85 55.514 16.968 55.73 16.317C56.202 14.893 31.354 0.0289993 28.5 0.0289993C27.4 0.0289993 20.746 3.422 13.713 7.568ZM38.706 23.409C39.612 24.229 38.49 25.285 34.18 27.665L28.448 30.83L22.603 27.517C16.029 23.791 15.751 24.776 24.948 19.227L28.395 17.147L32.948 19.732C35.451 21.154 38.043 22.809 38.706 23.409ZM38.706 39.409C39.612 40.229 38.49 41.285 34.18 43.665L28.448 46.83L22.603 43.517C16.029 39.791 15.751 40.776 24.948 35.227L28.395 33.147L32.948 35.732C35.451 37.154 38.043 38.809 38.706 39.409Z" fill="#8080FF"/>
<path fill-rule="evenodd" clip-rule="evenodd" d="M13.713 7.568L0.926001 15.106L1.213 24.263L1.5 33.419L6.732 36.46C9.61 38.132 11.973 39.746 11.982 40.046C11.992 40.346 9.638 41.94 6.75 43.588C3.863 45.236 1.5 47.235 1.5 48.03C1.5 49.743 25.598 63.965 28.5 63.965C29.6 63.965 36.125 60.706 43 56.723L55.5 49.481L55.786 40.318L56.073 31.156L50.536 27.844C44.64 24.318 43.96 23.321 46.75 22.292C49.908 21.127 56 16.995 56 16.019C56 14.637 30.877 0.0289993 28.5 0.0289993C27.4 0.0289993 20.746 3.422 13.713 7.568ZM39.971 24C39.974 24.275 37.325 25.956 34.085 27.735L28.194 30.971L22.524 27.556C16.155 23.721 15.875 24.698 24.896 19.26L28.292 17.213L34.129 20.356C37.34 22.085 39.969 23.725 39.971 24ZM38.706 39.409C39.612 40.229 38.49 41.285 34.18 43.665L28.448 46.83L22.603 43.517C16.029 39.791 15.751 40.776 24.948 35.227L28.395 33.147L32.948 35.732C35.451 37.154 38.043 38.809 38.706 39.409Z" fill="#B8BECC"/>
<path fill-rule="evenodd" clip-rule="evenodd" d="M28 8C28 12.4 28.311 16 28.692 16C29.688 16 43.217 7.879 42.827 7.515C41.396 6.181 30.234 0.00499968 29.25 0.00299968C28.354 0.000999676 28 2.265 28 8ZM7.699 11.091C2.821 14.018 1.178 15.501 1.889 16.336C2.435 16.976 5.804 19.061 9.377 20.97L15.873 24.439L20.187 22.077C22.559 20.777 24.931 19.324 25.458 18.849C26.041 18.323 24.292 15.833 20.992 12.492C18.009 9.471 15.328 7.002 15.034 7.005C14.74 7.008 11.44 8.847 7.699 11.091ZM39.43 39.887C39.73 40.371 38.645 41.319 37.02 41.992C31.734 44.181 31.609 45.179 35.736 52.292L39.522 58.819L47.43 54.159C51.779 51.597 55.489 49.043 55.674 48.484C55.859 47.925 53.421 46.044 50.255 44.304C43.578 40.633 38.648 38.622 39.43 39.887ZM21.227 51.892C17.777 53.993 14.716 55.951 14.425 56.241C13.821 56.846 26.258 64 27.912 64C28.605 64 29 61.096 29 56C29 51.6 28.663 48.016 28.25 48.035C27.837 48.055 24.677 49.79 21.227 51.892Z" fill="#767C86"/>
<path fill-rule="evenodd" clip-rule="evenodd" d="M28 8C28 12.4 28.311 16 28.692 16C29.688 16 43.217 7.879 42.827 7.515C41.396 6.181 30.234 0.00499968 29.25 0.00299968C28.354 0.000999676 28 2.265 28 8ZM1.641 14.771C1.379 15.195 3.03 16.564 5.309 17.812L9.452 20.082L6.539 17.041C3.55 13.921 2.475 13.423 1.641 14.771ZM45.174 46.251C46.89 49.138 48.303 52.019 48.314 52.654C48.325 53.292 50.047 52.674 52.167 51.271C54.275 49.876 56 48.575 56 48.38C56 48.185 52.862 46.445 49.026 44.513L42.053 41.001L45.174 46.251ZM21.227 51.892C17.777 53.993 14.716 55.951 14.425 56.241C13.821 56.846 26.258 64 27.912 64C28.605 64 29 61.096 29 56C29 51.6 28.663 48.016 28.25 48.035C27.837 48.055 24.677 49.79 21.227 51.892Z" fill="#494F5B"/>
<path fill-rule="evenodd" clip-rule="evenodd" d="M28 8C28 12.4 28.311 16 28.692 16C29.688 16 43.217 7.879 42.827 7.515C41.396 6.181 30.234 0.00499968 29.25 0.00299968C28.354 0.000999676 28 2.265 28 8ZM21.227 51.892C17.777 53.993 14.716 55.951 14.425 56.241C13.821 56.846 26.258 64 27.912 64C28.605 64 29 61.096 29 56C29 51.6 28.663 48.016 28.25 48.035C27.837 48.055 24.677 49.79 21.227 51.892Z" fill="#00FFFF"/>
<path fill-rule="evenodd" clip-rule="evenodd" d="M28 8C28 12.4 28.311 16 28.692 16C29.691 16 43.216 7.879 42.827 7.512C41.618 6.374 29.956 0 29.082 0C28.396 0 28 2.93 28 8ZM21.227 51.892C17.777 53.993 14.716 55.951 14.425 56.241C13.821 56.846 26.258 64 27.912 64C28.605 64 29 61.096 29 56C29 51.6 28.663 48.016 28.25 48.035C27.837 48.055 24.677 49.79 21.227 51.892Z" fill="#11FA98"/>
<path fill-rule="evenodd" clip-rule="evenodd" d="M28.15 7.75C28.067 12.287 28.337 16.001 28.75 16.001C29.163 16.002 29.373 13.415 29.217 10.251C28.724 0.217 28.305 -0.767 28.15 7.75ZM32.441 13.555C30.577 15.049 30.589 15.067 32.75 14.02C33.987 13.42 35 12.72 35 12.465C35 11.7 34.481 11.921 32.441 13.555ZM25.441 49.555C23.57 51.054 23.58 51.072 25.708 50.043C27.874 48.995 27.922 49.121 28.256 56.737L28.598 64.5L28.799 56.25C28.909 51.712 28.636 48 28.191 48C27.746 48 26.509 48.7 25.441 49.555Z" fill="#66DDB0"/>
</svg>
