<?xml version="1.0" encoding="UTF-8"?>
<svg version="1.1" xmlns="http://www.w3.org/2000/svg" width="55" height="64">
<path d="M0 0 C3.95065858 1.88359916 7.68511895 4.06400101 11.4375 6.3125 C12.45521484 6.89451172 13.47292969 7.47652344 14.52148438 8.07617188 C15.48248047 8.64529297 16.44347656 9.21441406 17.43359375 9.80078125 C18.31072021 10.31809814 19.18784668 10.83541504 20.09155273 11.3684082 C20.72134033 11.9068335 21.35112793 12.44525879 22 13 C22 14.32 22 15.64 22 17 C20.3203125 18.484375 20.3203125 18.484375 18.125 19.75 C17.40570313 20.17796875 16.68640625 20.6059375 15.9453125 21.046875 C14 22 14 22 12 22 C12 22.66 12 23.32 12 24 C12.70125 24.2475 13.4025 24.495 14.125 24.75 C17.57857544 26.25155454 20.12353935 27.52554131 23 30 C23.97344601 32.9656849 24.00241052 35.7720897 23.9375 38.875 C23.92203125 39.69347412 23.9065625 40.51194824 23.890625 41.35522461 C23.68276128 44.82746163 23.48365712 47.27386944 21.53515625 50.19921875 C19.12214936 51.81560917 16.67102079 52.85331498 14 54 C12.68467229 54.77119525 11.38069482 55.56193439 10.0859375 56.3671875 C8.68270175 57.22462981 7.27905356 58.0813975 5.875 58.9375 C5.20662109 59.35265869 4.53824219 59.76781738 3.84960938 60.19555664 C0.6265306 62.05597169 -1.51157843 62.9778784 -5.27734375 63.1484375 C-10.80276799 61.44384702 -15.4947893 58.64926744 -20.4375 55.6875 C-21.45521484 55.10548828 -22.47292969 54.52347656 -23.52148438 53.92382812 C-24.48248047 53.35470703 -25.44347656 52.78558594 -26.43359375 52.19921875 C-27.31072021 51.68190186 -28.18784668 51.16458496 -29.09155273 50.6315918 C-29.72134033 50.0931665 -30.35112793 49.55474121 -31 49 C-31 47.68 -31 46.36 -31 45 C-29.3203125 43.515625 -29.3203125 43.515625 -27.125 42.25 C-26.40570312 41.82203125 -25.68640625 41.3940625 -24.9453125 40.953125 C-23 40 -23 40 -21 40 C-21 39.34 -21 38.68 -21 38 C-21.70125 37.7525 -22.4025 37.505 -23.125 37.25 C-26.57035333 35.75202029 -29.12103278 34.45547542 -32 32 C-34.00139616 26.56240395 -33.76135307 19.4744053 -32 14 C-28.73932491 10.45356934 -25.21841351 8.7022812 -20.81347656 6.83105469 C-17.90261745 5.49710687 -15.30445358 3.68084068 -12.625 1.9375 C-8.18139076 -0.92268229 -5.00961652 -1.73242375 0 0 Z M-12.99609375 20.3515625 C-15.09440596 21.84994682 -15.09440596 21.84994682 -16 24 C-12.14690769 26.62252356 -8.51201478 28.75673531 -4 30 C0.25538984 28.77100654 3.50394774 26.68397713 7 24 C-0.07406212 16.67663173 -4.04544111 14.31158011 -12.99609375 20.3515625 Z M-12.99609375 36.3515625 C-15.09440596 37.84994682 -15.09440596 37.84994682 -16 40 C-12.14690769 42.62252356 -8.51201478 44.75673531 -4 46 C0.25538984 44.77100654 3.50394774 42.68397713 7 40 C-0.07406212 32.67663173 -4.04544111 30.31158011 -12.99609375 36.3515625 Z " fill="#ACBBC5" transform="translate(32,1)"/>
<path d="M0 0 C0.74765625 0.46664062 1.4953125 0.93328125 2.265625 1.4140625 C4.88877018 3.02259492 7.00640243 4.24834197 10 5 C13.21081416 3.84927869 15.67129738 2.34927984 18.45703125 0.390625 C21 -1 21 -1 23.4609375 -0.92578125 C26.55976223 0.20409792 29.06399952 1.7412045 31.8125 3.5625 C32.78832031 4.20316406 33.76414063 4.84382813 34.76953125 5.50390625 C35.87361328 6.24447266 35.87361328 6.24447266 37 7 C32.77860223 11.48270223 27.97750022 14.24335328 22.6875 17.3125 C21.76259766 17.87517578 20.83769531 18.43785156 19.88476562 19.01757812 C16.00737923 21.26905267 13.05582198 22.9235604 8.546875 23.25 C3.17024186 21.35515132 -1.5587419 18.61094581 -6.4375 15.6875 C-7.96407227 14.81448242 -7.96407227 14.81448242 -9.52148438 13.92382812 C-10.96297852 13.07014648 -10.96297852 13.07014648 -12.43359375 12.19921875 C-13.31072021 11.68190186 -14.18784668 11.16458496 -15.09155273 10.6315918 C-15.72134033 10.0931665 -16.35112793 9.55474121 -17 9 C-17 7.68 -17 6.36 -17 5 C-11.92020181 0.45168975 -6.67456182 -2.26458347 0 0 Z " fill="#BBC3CF" transform="translate(18,41)"/>
<path d="M0 0 C4.24876806 0.94176738 7.89928106 2.84061697 11.75 4.8125 C12.42804687 5.15603516 13.10609375 5.49957031 13.8046875 5.85351562 C14.48273437 6.19705078 15.16078125 6.54058594 15.859375 6.89453125 C16.88236694 7.40463745 16.88236694 7.40463745 17.92602539 7.92504883 C19.34122202 8.65855215 20.73377732 9.43702976 22.10327148 10.25268555 C24.06239738 11.37691849 25.84151816 12.33217133 28 13 C31.02960022 12.17523276 31.02960022 12.17523276 33.5625 10.1875 C38.6888022 7.02146192 38.6888022 7.02146192 42.625 6.75 C43.73875 7.1625 44.8525 7.575 46 8 C46.80050781 8.27328125 47.60101563 8.5465625 48.42578125 8.828125 C51.46943453 10.24818096 53.01694611 11.25897885 55 14 C56.13290779 19.58061986 55.50737811 25.37499326 55 31 C54.31035156 30.61328125 53.62070312 30.2265625 52.91015625 29.828125 C47.73262756 26.95882241 42.58668838 24.22182926 37.109375 21.96875 C35 21 35 21 33.015625 19.65625 C30.92397936 18.28413046 29.47586544 17.41340981 27 17 C24.18382111 18.21757034 21.83829681 19.7749894 19.3046875 21.5 C17 23 17 23 14 23.75 C9.0539839 22.51349598 3.64436942 19.64436942 0 16 C-0.07319621 13.30345146 -0.09242537 10.63308542 -0.0625 7.9375 C-0.05798828 7.17888672 -0.05347656 6.42027344 -0.04882812 5.63867188 C-0.0370068 3.75908129 -0.01907078 1.87953101 0 0 Z " fill="#C3C9D5" transform="translate(0,17)"/>
<path d="M0 0 C2.75846623 0.61219026 5.12282015 1.43760988 7.64453125 2.70703125 C8.66063477 3.2165332 8.66063477 3.2165332 9.69726562 3.73632812 C10.39529297 4.09146484 11.09332031 4.44660156 11.8125 4.8125 C12.49892578 5.15603516 13.18535156 5.49957031 13.89257812 5.85351562 C18.34691899 8.09964966 22.6879659 10.49169258 27 13 C27 14.32 27 15.64 27 17 C23.24248564 20.23770012 18.80293396 22.54926651 14 23.75 C9.0539839 22.51349598 3.64436942 19.64436942 0 16 C-0.07319621 13.30345146 -0.09242537 10.63308542 -0.0625 7.9375 C-0.05798828 7.17888672 -0.05347656 6.42027344 -0.04882812 5.63867188 C-0.0370068 3.75908129 -0.01907078 1.87953101 0 0 Z " fill="#B9BFCD" transform="translate(0,17)"/>
<path d="M0 0 C1.36209706 15.1007797 1.36209706 15.1007797 -1.79296875 19.5 C-5.31189392 21.95204836 -7.59137671 23.09178529 -11.9375 22.80859375 C-15.27764516 21.92669318 -17.88160842 20.65322444 -20.875 18.9375 C-21.84179688 18.38964844 -22.80859375 17.84179688 -23.8046875 17.27734375 C-24.52914063 16.85582031 -25.25359375 16.43429688 -26 16 C-24.74321144 12.22963433 -23.56408184 11.84891339 -20.1953125 9.86328125 C-19.21949219 9.28642578 -18.24367188 8.70957031 -17.23828125 8.11523438 C-16.21089844 7.52033203 -15.18351563 6.92542969 -14.125 6.3125 C-12.59552734 5.40274414 -12.59552734 5.40274414 -11.03515625 4.47460938 C-3.39459716 0 -3.39459716 0 0 0 Z " fill="#A7ACB6" transform="translate(26,1)"/>
<path d="M0 0 C2.89453125 1.62890625 2.89453125 1.62890625 5.8125 3.5625 C7.27623047 4.52349609 7.27623047 4.52349609 8.76953125 5.50390625 C9.50558594 5.99761719 10.24164063 6.49132813 11 7 C7.93801809 10.3511279 4.7479145 12.50666993 0.8125 14.75 C-0.78658203 15.67039062 -0.78658203 15.67039062 -2.41796875 16.609375 C-5 18 -5 18 -6 18 C-6.33 12.06 -6.66 6.12 -7 0 C-4.22640195 -1.38679903 -2.96440687 -0.84999398 0 0 Z " fill="#767C86" transform="translate(44,41)"/>
<path d="M0 0 C0 5.61 0 11.22 0 17 C-4.46931186 16.10613763 -6.94488562 15.12759489 -10.8125 12.9375 C-11.78832031 12.38964844 -12.76414062 11.84179688 -13.76953125 11.27734375 C-14.50558594 10.85582031 -15.24164063 10.43429688 -16 10 C-14.65140392 5.95421176 -12.78002983 5.4029667 -9.125 3.3125 C-8.05507812 2.68988281 -6.98515625 2.06726563 -5.8828125 1.42578125 C-3 0 -3 0 0 0 Z " fill="#7A808A" transform="translate(16,7)"/>
<path d="M0 0 C0 5.61 0 11.22 0 17 C-2.31 18.32 -4.62 19.64 -7 21 C-7.33 15.06 -7.66 9.12 -8 3 C-3 0 -3 0 0 0 Z " fill="#A1A6AF" transform="translate(38,42)"/>
<path d="M0 0 C4.25932463 1.41977488 6.83013646 2.3025032 10.375 4.625 C11.06335937 5.07101563 11.75171875 5.51703125 12.4609375 5.9765625 C13.22277344 6.48316406 13.22277344 6.48316406 14 7 C4.57142857 15 4.57142857 15 0 15 C0 10.05 0 5.1 0 0 Z " fill="#13F898" transform="translate(28,0)"/>
<path d="M0 0 C0 4.95 0 9.9 0 15 C-5.09641312 13.30119563 -8.51562998 11.69062201 -13 9 C-11.56356879 5.34646845 -9.94164969 4.06021834 -6.5 2.25 C-5.7059375 1.82203125 -4.911875 1.3940625 -4.09375 0.953125 C-2 0 -2 0 0 0 Z " fill="#13F898" transform="translate(27,49)"/>
<path d="M0 0 C0.13487595 2.77245014 0.23400807 5.53837088 0.3125 8.3125 C0.35439453 9.09818359 0.39628906 9.88386719 0.43945312 10.69335938 C0.48647449 12.90336375 0.48367587 14.84148911 0 17 C-2.51953125 19.04296875 -2.51953125 19.04296875 -5 20 C-5.24798276 17.04213336 -5.47411854 14.08538702 -5.6875 11.125 C-5.76033203 10.28324219 -5.83316406 9.44148437 -5.90820312 8.57421875 C-5.96298828 7.76855469 -6.01777344 6.96289062 -6.07421875 6.1328125 C-6.13182373 5.38918457 -6.18942871 4.64555664 -6.2487793 3.87939453 C-6.16668213 3.25919434 -6.08458496 2.63899414 -6 2 C-3 0 -3 0 0 0 Z " fill="#90959F" transform="translate(21,4)"/>
<path d="M0 0 C0.99 0 1.98 0 3 0 C3 5.61 3 11.22 3 17 C1.68 17.33 0.36 17.66 -1 18 C-1.22119939 15.37549914 -1.42746669 12.75129514 -1.625 10.125 C-1.68945312 9.37863281 -1.75390625 8.63226563 -1.8203125 7.86328125 C-1.96087365 5.9129953 -1.98759849 3.95530533 -2 2 C-1.34 1.34 -0.68 0.68 0 0 Z " fill="#A3C2BF" transform="translate(28,46)"/>
<path d="M0 0 C4.31392226 0.4793247 6.16569547 1.7457985 9 5 C7.87926138 5.83905565 6.75325453 6.67107831 5.625 7.5 C4.99851562 7.9640625 4.37203125 8.428125 3.7265625 8.90625 C2 10 2 10 0 10 C0 6.7 0 3.4 0 0 Z " fill="#565C67" transform="translate(46,44)"/>
<path d="M0 0 C0 3.3 0 6.6 0 10 C-4.455 8.02 -4.455 8.02 -9 6 C-8 3 -8 3 -5.625 1.3125 C-3 0 -3 0 0 0 Z " fill="#646A75" transform="translate(9,11)"/>
<path d="M0 0 C0.99 0 1.98 0 3 0 C3 5.61 3 11.22 3 17 C2.01 17.33 1.02 17.66 0 18 C-0.19384179 15.18780295 -0.38036603 12.37545804 -0.5625 9.5625 C-0.61857422 8.76005859 -0.67464844 7.95761719 -0.73242188 7.13085938 C-0.8616295 5.08937889 -0.9351273 3.04453631 -1 1 C-0.67 0.67 -0.34 0.34 0 0 Z " fill="#8C919B" transform="translate(35,42)"/>
<path d="M0 0 C2.475 0.495 2.475 0.495 5 1 C4.01 1.495 4.01 1.495 3 2 C3 5.63 3 9.26 3 13 C2.01 13.33 1.02 13.66 0 14 C0 9.38 0 4.76 0 0 Z " fill="#666C77" transform="translate(43,42)"/>
<path d="M0 0 C0.99 0 1.98 0 3 0 C3 3.3 3 6.6 3 10 C2.01 9.34 1.02 8.68 0 8 C-0.40843923 5.28796348 -0.13336867 2.7562858 0 0 Z " fill="#6B717C" transform="translate(6,11)"/>
<path d="M0 0 C2.475 0.99 2.475 0.99 5 2 C3.68799596 3.35432675 2.35368596 4.68733482 1 6 C0.67 6 0.34 6 0 6 C0 4.02 0 2.04 0 0 Z " fill="#464C58" transform="translate(50,46)"/>
</svg>
