<svg width="57" height="64" viewBox="0 0 57 64" fill="none" xmlns="http://www.w3.org/2000/svg">
<path fill-rule="evenodd" clip-rule="evenodd" d="M14.283 7.862C7.014 12.063 1.052 15.73 1.033 16.011C1.015 16.291 4.608 18.684 9.018 21.326C13.428 23.969 16.831 26.464 16.58 26.87C16.329 27.277 12.702 28.682 8.521 29.993L0.917999 32.378L6.209 35.475C9.119 37.178 13.263 39.657 15.417 40.983L19.334 43.395L14.427 47.712C11.729 50.087 8.953 51.812 8.26 51.546C4.942 50.273 7.918 52.317 17.633 57.984C25.36 62.492 28.727 63.956 29.952 63.344C30.88 62.88 37.116 59.35 43.811 55.5L55.983 48.5L55.991 41.75C55.996 38.038 55.855 35 55.678 35C54.561 35 45.332 38.419 44.567 39.116C44.035 39.601 40.915 38.447 37.317 36.435C33.842 34.492 31 33.123 31 33.393C31 33.664 33.25 35.148 35.999 36.692C38.748 38.237 40.998 39.753 40.999 40.063C41 40.679 29.567 47.285 28.5 47.285C27.427 47.285 15.999 40.676 16.011 40.063C16.017 39.753 18.717 37.948 22.011 36.052C25.305 34.155 28 32.327 28 31.989C28 31.651 25.3 29.856 22 28C18.7 26.144 16 24.349 16 24.011C16 23.673 19.013 21.845 22.695 19.948C26.377 18.052 30.262 15.736 31.328 14.801C32.395 13.867 34.461 12.686 35.921 12.177L38.575 11.252L37.579 15.544L36.583 19.836L33.792 18.392C29.201 16.018 30.635 17.599 35.75 20.551C38.362 22.059 40.692 23.456 40.927 23.657C41.162 23.857 40.487 24.713 39.427 25.559C36.89 27.584 40.927 25.465 49.886 20.07L56.271 16.224L53.886 14.694C47.797 10.788 28.81 0.0119966 28.192 0.111997C27.812 0.172997 21.552 3.66 14.283 7.862ZM28 3.622C28 5.85 27.772 6.056 26.488 4.99C25.337 4.035 25.247 3.407 26.11 2.367C27.707 0.442997 28 0.636997 28 3.622ZM46 26.333C46 26.605 48.362 28.262 51.25 30.014C54.138 31.767 55.825 32.55 55 31.754C53.134 29.956 46 25.658 46 26.333ZM8.441 43.555C6.577 45.049 6.589 45.067 8.75 44.02C9.988 43.42 11 42.72 11 42.465C11 41.7 10.481 41.921 8.441 43.555ZM2.097 47.383C1.222 48.437 1.261 48.886 2.26 49.27C3.056 49.575 3.571 49.032 3.571 47.886C3.571 45.632 3.555 45.626 2.097 47.383ZM30.944 58.895C31.697 60.302 31.577 61.106 30.479 62.017C29.227 63.056 29 62.765 29 60.122C29 56.533 29.508 56.212 30.944 58.895Z" fill="black"/>
</svg>
