<svg width="64" height="64" viewBox="0 0 64 64" fill="none" xmlns="http://www.w3.org/2000/svg">
<g clip-path="url(#clip0_1_32)">
<path fill-rule="evenodd" clip-rule="evenodd" d="M0 32V64H32H64V32V0H32H0V32Z" fill="#EAF0E6"/>
<path fill-rule="evenodd" clip-rule="evenodd" d="M0 32V64H32H64V32V0H32H0V32ZM7.739 32.462C7.557 33.816 7.126 35.208 6.78 35.554C6.433 35.9 6.307 35.355 6.499 34.342C6.69 33.329 6.881 31.938 6.923 31.25C6.966 30.563 7.24 30 7.534 30C7.828 30 7.92 31.108 7.739 32.462ZM10.362 37.5C10.045 38.325 9.384 39 8.893 39C8.402 39 8 38.325 8 37.5C8 36.675 8.661 36 9.469 36C10.363 36 10.712 36.586 10.362 37.5ZM10.662 50.25C10.385 50.938 10.158 50.375 10.158 49C10.158 47.625 10.385 47.063 10.662 47.75C10.94 48.438 10.94 49.563 10.662 50.25ZM31.442 49.907C31.751 50.405 31.102 50.578 30.001 50.29C27.666 49.679 27.371 49 29.441 49C30.234 49 31.134 49.408 31.442 49.907ZM53.345 52.543C53.019 53.392 52.538 53.872 52.276 53.61C52.014 53.348 52.096 52.653 52.459 52.067C53.445 50.471 54.021 50.781 53.345 52.543Z" fill="#D4DFCF"/>
<path fill-rule="evenodd" clip-rule="evenodd" d="M0 32V64H32H64V32V0H32H0V32ZM43.269 7.656C42.592 7.93 41.242 7.947 40.269 7.693C39.296 7.439 39.85 7.215 41.5 7.195C43.15 7.175 43.946 7.382 43.269 7.656ZM19.41 12.901C20.78 14.415 20.863 14.956 19.815 15.561C19.092 15.979 18.838 15.948 19.252 15.491C19.666 15.035 19.259 13.838 18.347 12.831C17.436 11.824 16.915 11 17.19 11C17.465 11 18.464 11.855 19.41 12.901ZM41.269 23.656C40.592 23.93 39.242 23.947 38.269 23.693C37.296 23.439 37.85 23.215 39.5 23.195C41.15 23.175 41.946 23.382 41.269 23.656ZM7.739 32.462C7.557 33.816 7.126 35.208 6.78 35.554C6.433 35.9 6.307 35.355 6.499 34.342C6.69 33.329 6.881 31.938 6.923 31.25C6.966 30.563 7.24 30 7.534 30C7.828 30 7.92 31.108 7.739 32.462ZM11.82 38.765C12.226 41.612 9.407 42.836 7.299 40.727C5.982 39.41 5.956 38.948 7.126 37.612C9.012 35.459 11.433 36.053 11.82 38.765ZM54.729 38.604C54.397 38.936 53.534 38.972 52.813 38.683C52.015 38.364 52.252 38.127 53.417 38.079C54.471 38.036 55.061 38.272 54.729 38.604ZM7.733 40.124C8.412 40.808 9.219 41.115 9.526 40.807C9.834 40.499 9.279 39.94 8.293 39.564C6.868 39.022 6.753 39.136 7.733 40.124ZM32.5 45C32.16 45.55 31.346 45.993 30.691 45.985C29.975 45.975 30.099 45.582 31 45C32.921 43.758 33.267 43.758 32.5 45ZM10.662 50.25C10.385 50.938 10.158 50.375 10.158 49C10.158 47.625 10.385 47.063 10.662 47.75C10.94 48.438 10.94 49.563 10.662 50.25ZM31.442 49.907C31.751 50.405 31.102 50.578 30.001 50.29C27.666 49.679 27.371 49 29.441 49C30.234 49 31.134 49.408 31.442 49.907ZM53.345 52.543C53.019 53.392 52.538 53.872 52.276 53.61C52.014 53.348 52.096 52.653 52.459 52.067C53.445 50.471 54.021 50.781 53.345 52.543ZM32.683 54.188C32.364 54.985 32.127 54.748 32.079 53.583C32.036 52.529 32.272 51.939 32.604 52.271C32.936 52.603 32.972 53.466 32.683 54.188Z" fill="#BBC6B6"/>
<path fill-rule="evenodd" clip-rule="evenodd" d="M0 32V64H32H64V32V0H32H0V32ZM43.269 7.656C42.592 7.93 41.242 7.947 40.269 7.693C39.296 7.439 39.85 7.215 41.5 7.195C43.15 7.175 43.946 7.382 43.269 7.656ZM19.153 9.718L16.806 10.165L18.978 12.477C20.581 14.183 20.828 14.988 19.921 15.549C19.189 16.001 18.947 15.895 19.322 15.288C19.669 14.727 19.063 13.462 17.976 12.479C15.259 10.019 15.5 8.975 18.75 9.136C21.249 9.26 21.285 9.313 19.153 9.718ZM53.5 14C54.495 15.1 55.085 16 54.81 16C54.535 16 53.495 15.1 52.5 14C51.505 12.9 50.915 12 51.19 12C51.465 12 52.505 12.9 53.5 14ZM29.526 16.807C29.219 17.115 28.412 16.808 27.733 16.124C26.753 15.136 26.868 15.022 28.293 15.564C29.279 15.94 29.834 16.499 29.526 16.807ZM33.218 21.182C32.592 21.808 32.452 21.151 32.825 19.326C33.251 17.233 33.503 16.981 33.794 18.356C34.011 19.377 33.751 20.649 33.218 21.182ZM41.75 23.689C40.788 23.941 39.212 23.941 38.25 23.689C37.288 23.438 38.075 23.232 40 23.232C41.925 23.232 42.712 23.438 41.75 23.689ZM7.739 32.462C7.557 33.816 7.126 35.208 6.78 35.554C6.433 35.9 6.307 35.355 6.499 34.342C6.69 33.329 6.881 31.938 6.923 31.25C6.966 30.563 7.24 30 7.534 30C7.828 30 7.92 31.108 7.739 32.462ZM39.382 32.552C39.723 33.442 39.555 33.843 38.989 33.493C38.445 33.157 38 32.459 38 31.941C38 30.503 38.717 30.82 39.382 32.552ZM12 38.701C12 40.317 11.324 41.364 10.069 41.692C8.822 42.018 8.324 42.782 8.664 43.849C9.115 45.269 9.038 45.29 8.113 44C7.302 42.869 7.448 42.193 8.71 41.25C9.63 40.563 9.878 40 9.263 40C8.647 40 7.376 40.767 6.439 41.703C4.835 43.308 4.779 43.273 5.469 41.096C7.288 35.367 12 33.638 12 38.701ZM28.5 36C28.84 36.55 28.641 37 28.059 37C27.477 37 27 36.55 27 36C27 35.45 27.198 35 27.441 35C27.684 35 28.16 35.45 28.5 36ZM61 38.799C61 39.239 59.313 39.438 57.25 39.242C50.819 38.63 50.295 38.237 55.75 38.116C58.638 38.052 61 38.36 61 38.799ZM57 41.5C56.315 42.325 55.274 43 54.686 43C54.099 43 54.491 42.339 55.559 41.532C58.067 39.634 58.557 39.624 57 41.5ZM44.259 43.119C43.749 45.067 44.038 45.206 47.826 44.845C50.093 44.629 51.567 44.833 51.101 45.299C50.635 45.765 48.735 46 46.877 45.823C44.257 45.572 43.428 44.995 43.18 43.25C43.005 42.013 43.3 41 43.837 41C44.374 41 44.563 41.954 44.259 43.119ZM29 42.441C29 42.684 28.55 43.16 28 43.5C27.45 43.84 27 43.641 27 43.059C27 42.477 27.45 42 28 42C28.55 42 29 42.198 29 42.441ZM20.124 46.267C19.136 47.247 19.022 47.132 19.564 45.707C19.94 44.721 20.499 44.166 20.807 44.474C21.115 44.781 20.808 45.588 20.124 46.267ZM32.5 45C32.16 45.55 31.346 45.993 30.691 45.985C29.975 45.975 30.099 45.582 31 45C32.921 43.758 33.267 43.758 32.5 45ZM14.457 45.931C14.774 46.443 14.65 47.098 14.183 47.387C13.716 47.676 13.333 47.257 13.333 46.456C13.333 44.77 13.649 44.623 14.457 45.931ZM10.662 50.25C10.385 50.938 10.158 50.375 10.158 49C10.158 47.625 10.385 47.063 10.662 47.75C10.94 48.438 10.94 49.563 10.662 50.25ZM31.96 50.452C32.623 51.251 32.955 52.713 32.699 53.702C32.337 55.095 32.206 54.986 32.116 53.218C32.047 51.854 31.094 50.571 29.75 50.031C28.227 49.419 28.026 49.106 29.128 49.063C30.023 49.029 31.297 49.653 31.96 50.452ZM53.395 51.272C53.786 50.881 53.801 51.354 53.429 52.324C53.057 53.293 52.681 53.954 52.593 53.793C52.506 53.632 51.774 52.6 50.967 51.5C49.645 49.698 49.657 49.623 51.092 50.741C51.968 51.424 53.004 51.663 53.395 51.272Z" fill="#95B087"/>
<path fill-rule="evenodd" clip-rule="evenodd" d="M0 32V64H32H64V32V0H32H0V32ZM45 7.979C45.825 8.5 46.5 9.468 46.5 10.13C46.5 10.792 47.125 11.542 47.889 11.796C48.653 12.051 49.011 11.826 48.683 11.296C48.356 10.767 48.723 10.333 49.5 10.333C50.277 10.333 50.622 10.802 50.269 11.374C48.937 13.53 49.133 17 50.588 17C51.59 17 51.899 16.227 51.586 14.5C51.033 11.451 51.186 11.426 53.595 14.172C54.643 15.366 54.98 16.041 54.345 15.672C53.518 15.19 53.343 16.142 53.73 19.022C54.12 21.928 53.815 23.547 52.632 24.854C51.732 25.848 51.334 27.035 51.748 27.491C52.162 27.948 51.957 28.009 51.294 27.628C50.63 27.248 50.341 26.275 50.651 25.468C50.996 24.567 50.616 24 49.666 24C47.198 24 46.525 26.18 48.538 27.652C49.553 28.393 49.873 29 49.25 29C48.627 29 47.904 28.653 47.641 28.229C46.903 27.034 40.132 27.646 38.427 29.061C36.283 30.84 37.005 34.5 39.5 34.5C40.6 34.5 42.054 35.175 42.731 36C43.803 37.306 44.085 37.312 44.915 36.048C45.439 35.249 45.6 34.124 45.273 33.548C44.945 32.971 45.855 33.572 47.295 34.883C48.734 36.193 49.819 37.742 49.706 38.323C49.593 38.905 50.4 39.573 51.5 39.806C52.6 40.04 53.872 40.742 54.326 41.366C54.931 42.197 55.288 42.166 55.659 41.25C55.938 40.563 56.634 40 57.206 40C59.725 40 55.646 42.823 52.616 43.176C49.911 43.492 49.382 43.256 49.738 41.894C50.223 40.04 48.468 38.433 47.561 39.901C47.205 40.477 45.641 40.464 43.479 39.867C41.551 39.334 39.558 39.155 39.051 39.468C38.544 39.782 36.996 38.905 35.61 37.519C33.007 34.916 31 34.255 31 36C31 36.55 31.62 37 32.378 37C33.135 37 34.315 37.675 35 38.5C36.02 39.729 35.951 40 34.622 40C33.73 40 33 40.45 33 41C33 41.55 33.627 42 34.393 42C35.159 42 36.072 42.744 36.421 43.653C36.999 45.16 37.172 45.147 38.376 43.501C39.102 42.507 40.215 42.015 40.848 42.406C42.126 43.196 42.429 45.068 41.25 44.882C38.674 44.475 37.798 45.052 38.926 46.411C39.823 47.491 39.815 47.996 38.894 48.565C38.163 49.017 37.952 48.887 38.355 48.235C38.72 47.644 37.829 46.224 36.375 45.08C33.444 42.775 31.869 42.41 32.25 44.125C32.388 44.744 31.825 45.453 31 45.701C29.811 46.059 29.777 45.958 30.834 45.215C31.909 44.46 31.842 44.154 30.494 43.636C28.097 42.716 26.656 43.88 28.074 45.589C28.718 46.365 29.717 47 30.294 47C31.627 47 35 50.02 35 51.214C35 51.711 34.55 51.84 34 51.5C33.45 51.16 32.955 51.921 32.9 53.191L32.801 55.5L32.127 53.093C31.757 51.769 30.564 50.338 29.477 49.913C28.093 49.372 27.965 49.119 29.05 49.07C29.902 49.032 31.196 49.563 31.925 50.25C32.993 51.257 33.164 51.218 32.807 50.046C32.563 49.246 30.952 48.226 29.227 47.779C27.501 47.332 25.394 45.974 24.545 44.761C22.555 41.92 22.579 39.859 24.571 42.495C25.772 44.083 26.249 44.215 26.915 43.138C27.439 42.29 28.542 42.037 29.875 42.46C31.425 42.952 32 42.71 32 41.567C32 39.711 31.92 39.7 28.398 41.039C26.429 41.787 25.469 41.759 24.96 40.936C24.441 40.095 23.711 40.085 22.193 40.897C19.367 42.409 18 42.28 18 40.5C18 39.675 17.52 39 16.933 39C16.346 39 16.085 39.787 16.353 40.75C16.622 41.712 17.125 43.625 17.472 45C18.079 47.404 18.044 47.426 16.552 45.559C15.698 44.491 15 42.777 15 41.75C15 40.514 14.577 40.141 13.75 40.646C13.063 41.067 13.738 39.934 15.25 38.129C16.763 36.324 18 34.244 18 33.507C18 32.77 18.563 31.93 19.25 31.641C20.145 31.265 20.003 30.802 18.75 30.008C17.788 29.399 17 27.771 17 26.391C17 24.96 17.433 24.15 18.008 24.505C19.291 25.298 21.396 23.1 21.845 20.5C22.299 17.87 23 17.205 23 19.405C23 20.95 23.167 20.976 24.5 19.643C26.428 17.715 26.396 17 24.383 17C23.283 17 22.927 16.388 23.267 15.086C23.619 13.742 23.133 12.993 21.634 12.57C19.621 12.002 19.604 11.907 21.325 10.892C22.329 10.301 23.416 10.083 23.742 10.408C24.067 10.734 23.696 11.007 22.917 11.015C21.75 11.028 21.765 11.202 23 12C24.958 13.266 26.282 13.266 25.5 12C24.494 10.372 25.642 10.86 27.128 12.692C27.882 13.623 27.988 14.077 27.363 13.703C26.738 13.328 25.695 13.663 25.045 14.446C24.066 15.625 24.366 15.856 26.787 15.787C30.579 15.679 31.977 16.606 32.1 19.309C32.193 21.36 32.254 21.34 33.051 19L33.903 16.5L33.702 19C33.589 20.395 32.874 21.5 32.083 21.5C31.304 21.5 30.458 22.125 30.204 22.889C29.895 23.815 30.169 24.014 31.025 23.485C31.873 22.96 32.063 23.088 31.585 23.862C31.187 24.506 30.44 24.772 29.924 24.453C28.951 23.852 28.583 24.6 27.564 29.25C27.215 30.845 27.39 32 27.981 32C28.541 32 29 31.311 29 30.469C29 29.626 29.672 28.679 30.494 28.364C31.316 28.048 31.759 27.419 31.478 26.964C31.197 26.51 31.494 25.813 32.138 25.415C32.828 24.988 33.042 25.123 32.66 25.741C32.303 26.318 32.707 27.057 33.558 27.384C34.408 27.71 34.861 27.583 34.563 27.102C33.905 26.037 37.352 25.032 41.727 25.014C45.615 24.997 48.77 21.199 47.211 18.412C46.689 17.479 46.48 15.88 46.747 14.858C47.057 13.673 46.704 13 45.772 13C44.968 13 43.453 12.033 42.405 10.85L40.5 8.701L43.5 9.381C45.688 9.877 46.094 9.786 45 9.046C42.948 7.657 39 7.736 39 9.167C39 9.808 38.73 10.063 38.4 9.733C36.273 7.606 42.002 6.084 45 7.979ZM19.153 9.718L16.806 10.165L18.978 12.477C20.581 14.183 20.828 14.988 19.921 15.549C19.189 16.001 18.947 15.895 19.322 15.288C19.669 14.727 19.063 13.462 17.976 12.479C15.259 10.019 15.5 8.975 18.75 9.136C21.249 9.26 21.285 9.313 19.153 9.718ZM27.5 18C27.16 18.55 27.584 19 28.441 19C29.298 19 30 18.55 30 18C30 17.45 29.577 17 29.059 17C28.541 17 27.84 17.45 27.5 18ZM55.683 19.188C55.364 19.985 55.127 19.748 55.079 18.583C55.036 17.529 55.272 16.939 55.604 17.271C55.936 17.603 55.972 18.466 55.683 19.188ZM22.637 22.496C23.322 24.28 28.158 24.027 28.775 22.174C29.252 20.744 27.364 20.602 26.498 22.003C26.086 22.671 25.239 22.663 23.962 21.98C22.408 21.148 22.157 21.246 22.637 22.496ZM42.762 23.687C41.806 23.937 40.006 23.946 38.762 23.707C37.518 23.468 38.3 23.263 40.5 23.252C42.7 23.241 43.718 23.437 42.762 23.687ZM20.667 25.667C19.149 27.185 20.147 29 22.5 29C25.23 29 25.664 28.064 23.8 26.2C22.441 24.841 21.631 24.703 20.667 25.667ZM14.397 26.833C14.68 27.292 14.277 27.667 13.5 27.667C12.723 27.667 12.32 27.292 12.603 26.833C12.886 26.375 13.29 26 13.5 26C13.71 26 14.114 26.375 14.397 26.833ZM11 27.393C11 27.609 10.302 28.054 9.448 28.382C8.558 28.723 8.157 28.555 8.507 27.989C9.094 27.038 11 26.583 11 27.393ZM16.115 30.25C16.378 33.108 15.752 35.588 14.418 36.964C13.496 37.917 13 38.018 13 37.253C13 36.607 12.042 35.186 10.872 34.095C9.634 32.942 8.993 31.461 9.34 30.556C10.061 28.678 15.946 28.412 16.115 30.25ZM32.25 29.662C31.563 29.94 31 30.835 31 31.653C31 33.774 35.394 32.95 35.813 30.75C36.139 29.042 34.8 28.633 32.25 29.662ZM7.759 32.25C7.355 35.184 6.176 37.004 4.691 36.985C3.98 36.976 4.104 36.587 5 36.021C6.451 35.104 6.606 34.731 6.875 31.5C6.944 30.675 7.24 30 7.534 30C7.828 30 7.929 31.012 7.759 32.25ZM39.382 32.552C39.723 33.442 39.555 33.843 38.989 33.493C38.445 33.157 38 32.459 38 31.941C38 30.503 38.717 30.82 39.382 32.552ZM23.482 35.03C23.093 35.659 23.223 36.623 23.772 37.172C25.228 38.628 29.5 37.754 29.5 36C29.5 34.186 24.501 33.38 23.482 35.03ZM11.82 37.832C11.996 39.028 11.261 41.124 10.186 42.491L8.232 44.975L6.984 41.962C5.904 39.354 5.979 38.681 7.545 36.95C9.726 34.54 11.386 34.883 11.82 37.832ZM26 35.441C26 35.684 25.55 36.16 25 36.5C24.45 36.84 24 36.641 24 36.059C24 35.477 24.45 35 25 35C25.55 35 26 35.198 26 35.441ZM29 36C29 36.55 28.55 37 28 37C27.45 37 27 36.55 27 36C27 35.45 27.45 35 28 35C28.55 35 29 35.45 29 36ZM46 35.378C46 35.585 46.788 36.373 47.75 37.128C49.336 38.371 49.371 38.336 48.128 36.75C46.821 35.084 46 34.555 46 35.378ZM61 38.941C61 39.459 60.48 40.203 59.845 40.595C59.151 41.025 58.962 40.871 59.37 40.21C59.817 39.487 58.418 38.983 55.275 38.736L50.5 38.36L55.75 38.18C58.638 38.081 61 38.423 61 38.941ZM45.25 41.662C44.563 41.94 44 42.851 44 43.688C44 44.859 44.917 45.123 47.974 44.831C50.16 44.623 51.567 44.833 51.101 45.299C50.635 45.765 48.783 46 46.985 45.823C44.676 45.595 43.473 44.839 42.89 43.25C42.187 41.335 42.395 41.012 44.282 41.079C45.502 41.122 45.938 41.385 45.25 41.662ZM13.757 47.793C12.904 48.821 12.979 49.396 14.064 50.152C15.309 51.019 15.307 51.1 14.055 50.761C13.26 50.546 12.285 49.159 11.889 47.678C11.471 46.115 11.553 45.224 12.085 45.552C12.588 45.863 13.007 45.529 13.015 44.809C13.027 43.84 13.272 43.881 13.958 44.966C14.553 45.907 14.481 46.921 13.757 47.793ZM21.886 46.185C22.326 45.473 23.028 45.815 23.858 47.145C24.922 48.847 24.916 49.062 23.824 48.37C22.531 47.55 22.015 47.381 20.031 47.125C19.499 47.056 19.373 46.212 19.752 45.25C20.388 43.635 20.47 43.647 20.822 45.395C21.055 46.557 21.467 46.862 21.886 46.185ZM56.442 44.907C56.751 45.405 56.102 45.578 55.001 45.29C52.666 44.679 52.371 44 54.441 44C55.234 44 56.134 44.408 56.442 44.907ZM36.37 48.25C37.397 52.083 37.053 52.626 35.494 49.636C33.752 46.296 33.702 46 34.883 46C35.369 46 36.038 47.013 36.37 48.25ZM10.662 50.25C10.385 50.938 10.158 50.375 10.158 49C10.158 47.625 10.385 47.063 10.662 47.75C10.94 48.438 10.94 49.563 10.662 50.25ZM19.298 49.333C19.579 50.067 19.22 50.667 18.5 50.667C17.78 50.667 17.421 50.067 17.702 49.333C17.984 48.6 18.343 48 18.5 48C18.657 48 19.016 48.6 19.298 49.333ZM22.683 51.188C22.364 51.985 22.127 51.748 22.079 50.583C22.036 49.529 22.272 48.939 22.604 49.271C22.936 49.603 22.972 50.466 22.683 51.188ZM53.395 51.272C53.786 50.881 53.801 51.354 53.429 52.324C53.057 53.293 52.681 53.954 52.593 53.793C52.506 53.632 51.774 52.6 50.967 51.5C49.645 49.698 49.657 49.623 51.092 50.741C51.968 51.424 53.004 51.663 53.395 51.272ZM49.729 52.604C49.397 52.936 48.534 52.972 47.813 52.683C47.015 52.364 47.252 52.127 48.417 52.079C49.471 52.036 50.061 52.272 49.729 52.604Z" fill="#85987C"/>
<path fill-rule="evenodd" clip-rule="evenodd" d="M0 32V64H32H64V32V0H32H0V32ZM45.559 8.555C47.434 10.057 47.426 10.074 45.316 9.055C42.413 7.653 39 7.713 39 9.167C39 9.808 38.73 10.063 38.4 9.733C37.305 8.638 39.084 7 41.368 7C42.605 7 44.491 7.7 45.559 8.555ZM19.235 9.708C17.99 9.947 17.218 10.544 17.521 11.033C17.837 11.546 19.174 11.504 20.67 10.935C22.632 10.189 23.85 10.327 25.635 11.496C28.324 13.258 28.457 13.599 26.845 14.595C26.082 15.068 25.965 14.866 26.5 14C27.035 13.134 26.918 12.932 26.155 13.405C24.1 14.674 24.926 15.667 28.039 15.667C30.142 15.667 30.681 15.386 29.789 14.757C28.779 14.045 28.809 13.931 29.924 14.232C32.263 14.863 32.292 19.781 29.976 23.033C28.82 24.657 28.148 26.43 28.483 26.973C28.818 27.515 28.606 28.868 28.011 29.979C27.282 31.342 27.266 32 27.965 32C28.534 32 29 31.334 29 30.52C29 28.505 36.155 25 40.269 25C45.597 25 47.227 23.201 46.648 17.962C46.376 15.508 46.119 13.332 46.077 13.128C46.035 12.923 45.372 13.276 44.605 13.913C43.497 14.832 43.24 14.703 43.355 13.285C43.468 11.9 42.843 11.55 40.567 11.722L37.634 11.944L39.907 10.353C41.677 9.113 42.701 8.998 44.534 9.834C45.829 10.424 47.826 10.726 48.971 10.506C50.139 10.281 50.792 10.528 50.458 11.069C50.13 11.599 49.373 11.731 48.776 11.362C48.107 10.948 47.981 11.16 48.447 11.914C48.862 12.586 49.815 12.901 50.564 12.614C52.673 11.805 56 16.816 56 20.802C56 22.744 55.699 24.032 55.331 23.664C54.355 22.688 50.933 26.083 51.678 27.288C52.043 27.878 51.815 28.004 51.138 27.585C50.494 27.187 50.207 26.474 50.5 26C51.296 24.713 48.979 23.621 47.849 24.751C47.212 25.388 47.381 26.238 48.331 27.188C49.61 28.467 49.15 28.594 44.606 28.217C38.996 27.752 36.499 29.265 37.203 32.702C37.472 34.014 38.33 34.418 40.377 34.198C42.146 34.007 42.942 34.285 42.532 34.948C42.175 35.527 42.557 36 43.382 36C45.361 36 46.356 34.309 44.756 33.664C44.065 33.386 43.984 33.122 44.576 33.079C45.167 33.036 46.742 34.234 48.076 35.743L50.5 38.486L48 36.493L45.5 34.5L47.237 36.565C48.729 38.337 49.825 38.568 54.987 38.195C60.725 37.78 62.768 38.789 59.845 40.595C59.13 41.038 58.962 40.87 59.405 40.155C59.908 39.339 58.704 39.023 55.309 39.079C52.664 39.122 51.175 39.415 52 39.729C52.825 40.043 53.872 40.795 54.326 41.4C54.914 42.183 55.299 42.14 55.659 41.25C55.938 40.562 56.676 40 57.298 40C57.986 40 57.856 40.569 56.964 41.456C55.315 43.096 48.489 43.862 47.285 42.543C46.853 42.069 47.288 41.964 48.25 42.309C49.358 42.707 50 42.446 50 41.599C50 40.647 48.284 40.223 44.047 40.127C39.198 40.017 37.596 39.53 35.401 37.496C32.708 35 31 34.327 31 35.763C31 36.182 31.988 36.97 33.194 37.513C34.401 38.056 35.737 39.827 36.161 41.45C37.045 44.825 36.502 45.902 34.783 44.183C34.133 43.532 33.128 43.015 32.55 43.033C31.973 43.052 32.489 43.892 33.698 44.901C36.271 47.05 37.657 51.476 36.065 52.46C35.461 52.833 35.272 53.67 35.644 54.319C36.033 54.998 35.934 55.146 35.41 54.667C34.91 54.208 34.444 53.421 34.375 52.917C34.066 50.651 33.746 50.67 33 53C32.22 55.436 32.197 55.441 32.1 53.218C32.041 51.875 31.074 50.525 29.75 49.94L27.5 48.944L29.751 49.379C31.053 49.63 31.749 49.402 31.4 48.839C31.069 48.303 29.304 48.065 27.478 48.311C25.653 48.557 23.641 48.251 23.009 47.629C22.145 46.781 22.002 47.246 22.435 49.5L23.012 52.5L21.923 49.75C21.324 48.237 20.421 47 19.917 47C18.71 47 18.76 47.682 20.164 50.316C21.175 52.214 21.13 52.337 19.822 51.259C18.994 50.576 17.996 50.337 17.605 50.728C17.214 51.119 17.22 50.591 17.617 49.555C18.159 48.144 18.008 47.877 17.015 48.49C16.224 48.98 15.932 48.919 16.291 48.338C16.621 47.805 16.26 45.598 15.489 43.434C14.718 41.27 14.033 40.175 13.965 41C13.875 42.096 13.702 42.151 13.323 41.206C13.037 40.494 13.973 38.828 15.402 37.503C16.831 36.179 18 34.147 18 32.989C18 31.586 18.418 31.123 19.25 31.602C19.938 31.998 19.528 31.237 18.339 29.911C15.53 26.775 14.912 22.797 17.181 22.453C18.265 22.288 18.671 22.694 18.324 23.599C17.653 25.348 18.756 25.418 20.321 23.726C21.891 22.03 22.248 20.125 21.533 17.274C21.179 15.865 20.489 15.198 19.816 15.614C19.182 16.006 18.966 15.863 19.322 15.288C19.669 14.727 19.063 13.462 17.976 12.479C15.259 10.019 15.5 8.975 18.75 9.136C21.13 9.254 21.195 9.331 19.235 9.708ZM23 12C23.825 12.533 24.95 12.969 25.5 12.969C26.05 12.969 25.825 12.533 25 12C24.175 11.467 23.05 11.031 22.5 11.031C21.95 11.031 22.175 11.467 23 12ZM21.105 14.929C22.349 16.611 23.052 18.692 22.758 19.818C22.153 22.13 23.537 24.82 24.696 23.584C25.138 23.112 24.915 22.518 24.2 22.263C23.174 21.898 23.231 21.296 24.473 19.4C25.868 17.272 25.873 17 24.523 17C23.159 17 22.816 16.371 23.085 14.362C23.183 13.635 20.893 12.038 19.72 12.015C19.291 12.007 19.914 13.318 21.105 14.929ZM52.319 14.639C52.77 15.317 53.519 17.138 53.983 18.686C54.668 20.968 54.844 21.096 54.914 19.361C54.961 18.184 54.212 16.363 53.25 15.314C52.288 14.264 51.869 13.961 52.319 14.639ZM49.5 16C49.84 16.55 50.568 17 51.118 17C51.668 17 51.84 16.55 51.5 16C51.16 15.45 50.432 15 49.882 15C49.332 15 49.16 15.45 49.5 16ZM45.414 18.986C44.767 19.633 44.429 19.295 44.429 18C44.429 16.705 44.767 16.367 45.414 17.014C46.062 17.662 46.062 18.338 45.414 18.986ZM27.5 18C27.16 18.55 27.61 19 28.5 19C29.39 19 29.84 18.55 29.5 18C29.16 17.45 28.71 17 28.5 17C28.29 17 27.84 17.45 27.5 18ZM31.565 23.689C30.154 25.766 29.01 27.022 29.022 26.482C29.034 25.942 29.924 24.375 31 23C32.076 21.625 33.018 19.6 33.094 18.5C33.207 16.868 33.315 16.814 33.681 18.207C33.928 19.146 32.976 21.613 31.565 23.689ZM27 22C27 22.55 27.477 23 28.059 23C28.641 23 28.84 22.55 28.5 22C28.16 21.45 27.684 21 27.441 21C27.198 21 27 21.45 27 22ZM42.762 23.687C41.806 23.937 40.006 23.946 38.762 23.707C37.518 23.468 38.3 23.263 40.5 23.252C42.7 23.241 43.718 23.437 42.762 23.687ZM35.917 24.365C35.688 24.565 34.375 25.265 33 25.92C30.643 27.042 30.611 27.022 32.441 25.555C34.034 24.279 37.289 23.164 35.917 24.365ZM20.5 26C19.577 27.494 20.861 29 23.059 29C25.271 29 25.549 27.949 23.8 26.2C22.338 24.738 21.318 24.676 20.5 26ZM13.434 28.048C11.709 28.675 11.771 28.791 14 29.126C16.051 29.435 16.464 30.011 16.3 32.339C16.19 33.899 15.606 35.769 15.003 36.496C13.502 38.305 9.273 34.085 8.826 30.33C8.563 28.124 8.981 27.476 11 26.957C14.075 26.167 16.105 27.077 13.434 28.048ZM32.131 30.342C31.519 31.08 31.265 31.931 31.567 32.233C32.562 33.229 36 31.795 36 30.383C36 28.617 33.585 28.591 32.131 30.342ZM40.104 29.914C39.337 30.4 38.985 31.519 39.323 32.399C39.661 33.28 39.501 34 38.969 34C37.875 34 37.644 30.689 38.667 29.667C39.033 29.3 39.821 29.007 40.417 29.015C41.013 29.024 40.872 29.428 40.104 29.914ZM7.948 31.75C7.619 34.979 7.99 35.779 9.75 35.639C12.278 35.438 12.537 39.502 10.186 42.491L8.232 44.975L7.002 42.005C6.326 40.372 6.026 38.376 6.335 37.569C6.732 36.534 6.398 36.262 5.199 36.645C3.756 37.107 3.726 37.029 5 36.131C6.451 35.107 6.606 34.725 6.875 31.5C6.944 30.675 7.253 30 7.563 30C7.872 30 8.046 30.788 7.948 31.75ZM23.482 35.03C23.093 35.659 23.223 36.623 23.772 37.172C25.228 38.628 29.5 37.754 29.5 36C29.5 34.186 24.501 33.38 23.482 35.03ZM26 36C26 36.55 25.55 37 25 37C24.45 37 24 36.55 24 36C24 35.45 24.45 35 25 35C25.55 35 26 35.45 26 36ZM29 36C29 36.55 28.55 37 28 37C27.45 37 27 36.55 27 36C27 35.45 27.45 35 28 35C28.55 35 29 35.45 29 36ZM6 42.358C6 43.628 5.538 43.061 4.08 40C2.958 37.643 2.978 37.611 4.445 39.441C5.3 40.509 6 41.821 6 42.358ZM16.616 41.75C16.976 43.263 17.629 45.175 18.068 46C18.737 47.258 18.985 47.189 19.608 45.573C20.34 43.671 20.359 43.671 21.105 45.573C21.837 47.444 21.864 47.441 22 45.5C22.136 43.568 22.166 43.566 22.891 45.415C23.304 46.468 24.445 47.448 25.427 47.592C27.013 47.825 26.977 47.604 25.106 45.613C23.948 44.38 23 42.838 23 42.186C23 41.533 22.523 41 21.941 41C21.359 41 21.131 41.403 21.435 41.895C21.74 42.388 21.302 43.054 20.462 43.376C19.451 43.764 18.618 43.125 17.993 41.481C16.724 38.144 15.801 38.324 16.616 41.75ZM24.015 40.445C23.993 41.848 29.179 47 30.615 47C31.297 47 32.788 48.186 33.927 49.635C35.305 51.386 36 51.757 36 50.741C36 48.374 30.23 42.698 28.499 43.362C27.675 43.678 27 43.453 27 42.86C27 42.211 27.992 42.032 29.5 42.411C31.345 42.874 32 42.64 32 41.519C32 39.715 31.911 39.703 28.398 41.039C26.339 41.822 25.465 41.76 24.848 40.789C24.399 40.08 24.024 39.925 24.015 40.445ZM33 41C33 41.55 33.45 42 34 42C34.55 42 35 41.55 35 41C35 40.45 34.55 40 34 40C33.45 40 33 40.45 33 41ZM45.25 41.665C44.563 41.941 44 42.862 44 43.712C44 45.008 44.957 45.15 49.916 44.589C53.17 44.221 56.047 44.275 56.31 44.71C56.573 45.144 53.901 45.625 50.372 45.778C44.502 46.032 43.878 45.862 43.041 43.778C42.276 41.872 42.116 41.806 42.063 43.372C42.008 45.004 41.782 45.068 40.308 43.872C39.158 42.94 38.857 42.901 39.367 43.75C39.812 44.49 39.584 45.029 38.809 45.07C38.089 45.109 38.331 45.468 39.347 45.867C41.118 46.564 41.12 46.654 39.405 48.047C38.421 48.846 37.935 48.969 38.324 48.319C38.714 47.67 38.636 46.893 38.15 46.593C37.665 46.293 37.466 45.024 37.708 43.774C38.075 41.878 38.841 41.472 42.324 41.331C44.621 41.239 45.938 41.389 45.25 41.665ZM13.972 47.534C12.843 48.894 12.858 49.312 14.064 50.152C15.309 51.019 15.307 51.1 14.055 50.761C13.26 50.546 12.285 49.159 11.889 47.678C11.471 46.115 11.553 45.224 12.085 45.552C12.588 45.863 13 45.551 13 44.859C13 43.905 13.281 43.881 14.158 44.758C15.034 45.634 14.989 46.308 13.972 47.534ZM10.662 50.25C10.385 50.938 10.158 50.375 10.158 49C10.158 47.625 10.385 47.063 10.662 47.75C10.94 48.438 10.94 49.563 10.662 50.25ZM48.917 47.261C48.688 47.404 47.532 48.333 46.349 49.326C44.738 50.678 44.01 50.825 43.445 49.911C42.962 49.129 43.108 48.949 43.853 49.409C44.503 49.811 45.278 49.438 45.614 48.563C45.944 47.704 46.916 47 47.774 47C48.631 47 49.146 47.117 48.917 47.261ZM53.395 51.272C53.786 50.881 53.801 51.354 53.429 52.324C53.057 53.293 52.681 53.954 52.593 53.793C52.506 53.632 51.774 52.6 50.967 51.5C49.645 49.698 49.657 49.623 51.092 50.741C51.968 51.424 53.004 51.663 53.395 51.272ZM49.729 52.604C49.397 52.936 48.534 52.972 47.813 52.683C47.015 52.364 47.252 52.127 48.417 52.079C49.471 52.036 50.061 52.272 49.729 52.604Z" fill="#7C8977"/>
<path fill-rule="evenodd" clip-rule="evenodd" d="M0 32V64H32H64V32V0H32H0V32ZM45.559 8.555C47.434 10.057 47.426 10.074 45.316 9.055C44.114 8.475 42.539 8.018 41.816 8.039C41.092 8.061 41.956 8.711 43.735 9.485C45.514 10.258 47.889 10.714 49.012 10.498C50.151 10.278 50.79 10.531 50.458 11.069C50.13 11.599 49.373 11.731 48.776 11.362C48.107 10.948 47.981 11.16 48.447 11.914C48.862 12.586 49.815 12.901 50.564 12.614C53.805 11.37 57.665 21.193 55.235 24.5C54.141 25.989 51.961 26.212 50.484 24.987C49.537 24.201 48.974 24.234 48.435 25.106C47.992 25.822 48.113 26.048 48.732 25.666C49.305 25.312 50.338 25.702 51.028 26.534C52.085 27.808 51.998 27.937 50.477 27.353C49.173 26.853 48.889 27.011 49.453 27.924C50.057 28.901 49.075 29.079 45.129 28.709C41.695 28.386 40.237 28.575 40.676 29.285C41.072 29.926 40.72 30.106 39.777 29.745C38.625 29.302 38.356 29.644 38.73 31.075C39.095 32.471 40.116 33 42.442 33C44.689 33 46.379 33.825 48.076 35.75L50.5 38.5L47.936 36.25C45.202 33.852 43 33.32 43 35.059C43 35.641 43.478 35.822 44.063 35.461C44.648 35.1 46.044 35.635 47.165 36.65C48.776 38.107 50.446 38.424 55.102 38.156C61.305 37.798 62.554 38.798 59.006 41.283C57.91 42.051 57.334 43 57.726 43.393C58.118 43.785 57.553 43.773 56.47 43.366C54.659 42.685 54.621 42.777 56 44.505C56.879 45.606 56.981 46.072 56.247 45.631C55.558 45.217 52.86 45.198 50.251 45.59C46.545 46.145 45.944 46.472 47.504 47.08C48.602 47.509 48.938 47.891 48.25 47.93C47.563 47.968 47 48.477 47 49.059C47 49.641 47.562 49.78 48.25 49.367C49.181 48.808 49.168 49.026 48.197 50.224C47.097 51.582 47.175 51.906 48.697 52.3C50.403 52.743 50.404 52.774 48.719 52.884C47.739 52.948 46.679 52.328 46.364 51.506C46.048 50.684 45.419 50.241 44.964 50.522C44.51 50.803 43.813 50.506 43.415 49.862C42.979 49.157 43.123 48.958 43.776 49.362C44.373 49.731 45.144 49.575 45.49 49.016C45.838 48.454 45.199 48 44.059 48C42.927 48 42 47.523 42 46.941C42 46.359 42.45 46.16 43 46.5C43.55 46.84 44 46.641 44 46.059C44 45.477 45.548 45 47.441 45C51.167 45 52.948 43.578 50.431 42.612C49.574 42.283 49.153 41.561 49.496 41.007C50.181 39.899 48.721 39.612 47.682 40.651C47.324 41.009 47.812 41.934 48.766 42.706C50.331 43.974 50.288 44.008 48.316 43.055C45.343 41.619 44 41.73 44 43.412C44 44.911 42.376 44.991 40.15 43.601C39.063 42.923 39.014 43.158 39.9 44.814C41.289 47.409 41.277 47.68 39.75 48.265C38.905 48.59 38.426 47.503 38.271 44.912C38.081 41.719 38.317 41.184 39.685 41.71C40.786 42.132 41.089 41.954 40.605 41.17C40.207 40.526 39.371 40 38.746 40C38.121 40 36.236 38.762 34.558 37.25C31.816 34.778 31.72 34.753 33.615 37C35.836 39.634 38.388 46.022 37.198 45.968C36.814 45.951 35.724 45.347 34.777 44.627C33.829 43.907 31.691 43.399 30.027 43.498C28.362 43.597 27 43.273 27 42.776C27 42.28 27.971 42.015 29.157 42.187C30.343 42.359 31.522 41.89 31.775 41.145C32.123 40.124 31.653 39.984 29.868 40.577C28.566 41.01 26.725 41.379 25.777 41.396C24.241 41.425 24.275 41.664 26.096 43.603C27.408 44.998 28.919 45.606 30.319 45.302C32.145 44.904 32.256 45.019 31 46.008C29.677 47.049 29.683 47.131 31.053 46.701C32.079 46.379 33.074 47.269 33.982 49.321C34.738 51.03 35.53 51.909 35.742 51.275C35.953 50.641 35.371 48.97 34.448 47.561C32.66 44.833 33.908 43.98 36 46.5C36.685 47.325 36.996 48 36.692 48C36.388 48 36.518 49.321 36.981 50.935C37.686 53.391 37.566 53.771 36.247 53.265C35.362 52.925 34.933 53.082 35.267 53.622C35.594 54.152 34.993 54.65 33.931 54.73C32.627 54.828 32 54.236 32 52.906C32 51.822 30.987 50.487 29.75 49.94L27.5 48.944L29.751 49.379C31.053 49.63 31.749 49.402 31.4 48.839C31.069 48.303 29.304 48.065 27.478 48.311C25.653 48.557 23.729 48.329 23.204 47.804C22.597 47.197 22.387 47.879 22.628 49.674L23.009 52.5L21.695 49.726C20.972 48.201 20.086 47.248 19.725 47.608C19.365 47.968 19.496 49.059 20.017 50.032C20.699 51.307 20.564 51.953 19.533 52.349C18.534 52.732 18.289 52.411 18.721 51.285C19.13 50.218 18.948 49.914 18.181 50.388C17.401 50.87 17.238 50.544 17.681 49.388C18.109 48.273 17.954 47.91 17.239 48.352C16.634 48.726 15.813 48.506 15.415 47.862C14.963 47.131 15.124 46.959 15.845 47.405C16.48 47.797 17 47.668 17 47.118C17 46.568 16.55 45.84 16 45.5C15.45 45.16 14.993 43.671 14.985 42.191C14.973 40.086 14.758 39.827 14 41C13.149 42.316 13.029 42.307 13.015 40.924C13.007 40.058 14.079 38.335 15.399 37.095C18.635 34.055 19.209 30.499 16.813 28.33C15.767 27.384 15.044 25.686 15.206 24.555C15.438 22.936 16.243 22.493 19 22.469C20.925 22.452 23.063 22.845 23.75 23.342C24.544 23.915 25 23.835 25 23.122C25 22.505 24.534 22 23.965 22C23.251 22 23.251 21.399 23.965 20.066C25.296 17.579 25.272 17.318 23.656 16.698C22.706 16.334 22.441 16.854 22.75 18.474C22.991 19.734 22.626 21.113 21.94 21.537C21.112 22.049 20.943 21.901 21.44 21.098C22.529 19.335 21.178 14.772 19.816 15.614C19.182 16.006 18.966 15.863 19.322 15.288C19.669 14.727 19.063 13.462 17.976 12.479C15.268 10.027 15.498 8.997 18.75 9.015C20.811 9.027 21.136 9.261 20.048 9.949C19.249 10.455 18.124 10.601 17.548 10.274C16.971 9.947 16.828 10.042 17.229 10.486C17.631 10.929 19.38 11.404 21.118 11.541C23.251 11.709 23.826 11.504 22.889 10.91C22.125 10.426 21.962 10.024 22.527 10.015C24.073 9.992 28.097 13.033 27.596 13.845C27.355 14.235 28.585 15.336 30.329 16.291L33.5 18.029L31.139 16.014C29.841 14.906 29.13 14 29.56 14C32.507 14 35.305 20.076 33.011 21.493C32.432 21.851 32.264 21.359 32.606 20.302C33.062 18.89 32.972 18.805 32.187 19.909C31.636 20.684 31.424 21.94 31.715 22.7C32.03 23.52 31.688 23.964 30.873 23.791C30.02 23.61 29.62 24.201 29.817 25.35C30.03 26.597 29.735 26.954 28.912 26.446C28.14 25.968 27.948 26.108 28.392 26.825C28.777 27.448 28.597 28.98 27.991 30.229C26.935 32.406 26.954 32.42 28.445 30.559C29.3 29.491 30 28.254 30 27.809C30 27.364 30.563 27.113 31.25 27.25C31.938 27.388 32.369 26.882 32.209 26.127C32.02 25.237 32.478 24.969 33.511 25.366C34.387 25.702 34.843 25.555 34.524 25.039C33.82 23.9 39.454 22.735 43.523 23.179C46.129 23.463 46.48 23.185 46.532 20.797C46.572 18.968 46.242 18.384 45.51 18.992C44.809 19.573 44.407 19.293 44.367 18.195C44.262 15.334 43.566 13.566 42 12.179C40.9 11.206 40.874 11.046 41.905 11.58C42.851 12.071 43.067 11.917 42.565 11.106C41.99 10.174 41.498 10.172 40.387 11.094C39.597 11.749 38.663 11.996 38.309 11.643C37.956 11.289 38.304 10.993 39.083 10.985C40.276 10.972 40.282 10.832 39.122 10.096C38.364 9.616 38.053 8.723 38.431 8.112C39.424 6.505 43.301 6.746 45.559 8.555ZM19 12.471C19 13.486 21.92 14.938 22.4 14.162C22.718 13.648 22.083 12.993 20.989 12.707C19.895 12.421 19 12.315 19 12.471ZM25.27 14.069C25.097 16.366 25.568 16.568 26.349 14.532C26.659 13.725 26.576 12.856 26.164 12.601C25.752 12.347 25.35 13.007 25.27 14.069ZM44.635 13.781C44.358 14.229 44.49 15.174 44.927 15.882C45.548 16.886 45.852 16.828 46.317 15.616C46.946 13.976 45.494 12.392 44.635 13.781ZM51 13.378C51 13.585 51.788 14.373 52.75 15.128C54.336 16.371 54.371 16.336 53.128 14.75C51.821 13.084 51 12.555 51 13.378ZM50 16C50 16.55 50.477 17 51.059 17C51.641 17 51.84 16.55 51.5 16C51.16 15.45 50.684 15 50.441 15C50.198 15 50 15.45 50 16ZM27 22C27 22.55 27.477 23 28.059 23C28.641 23 28.84 22.55 28.5 22C28.16 21.45 27.684 21 27.441 21C27.198 21 27 21.45 27 22ZM18 24C18 24.55 18.45 25 19 25C19.55 25 20 24.55 20 24C20 23.45 19.55 23 19 23C18.45 23 18 23.45 18 24ZM38.269 24.693C39.242 24.947 40.592 24.93 41.269 24.656C41.946 24.382 41.15 24.175 39.5 24.195C37.85 24.215 37.296 24.439 38.269 24.693ZM20.446 26.087C19.474 27.66 21.575 29.377 23.545 28.621C24.909 28.098 24.993 27.697 23.99 26.488C22.527 24.725 21.369 24.594 20.446 26.087ZM16.978 32.027C16.99 32.868 16.281 34.581 15.403 35.836C13.924 37.947 13.712 37.989 12.553 36.404C11.471 34.924 11.362 35.11 11.754 37.777C12.299 41.49 8.753 46.406 7.634 43.489C7.293 42.6 6.513 42.183 5.9 42.562C5.118 43.045 5.191 43.506 6.143 44.11C7.051 44.685 7.106 44.974 6.309 44.985C5.654 44.993 4.757 44.438 4.316 43.75C3.058 41.791 3.275 38 4.645 38C5.325 38 6.157 37.555 6.493 37.011C6.851 36.432 6.359 36.264 5.302 36.606C3.874 37.068 3.796 36.979 4.926 36.177C5.71 35.62 6.508 34.142 6.699 32.893C6.889 31.644 7.326 30.369 7.67 30.061C8.014 29.752 8.059 30.463 7.77 31.639C7.141 34.202 8.388 36.8 9.434 35.107C9.81 34.498 9.673 34 9.129 34C8.504 34 8.458 32.889 9.006 30.981C9.646 28.747 9.563 28.135 8.686 28.627C7.883 29.078 7.823 28.955 8.5 28.244C11.362 25.24 16.915 27.718 16.978 32.027ZM32.585 30.315C31.007 31.468 31.033 31.577 32.918 31.719C35.111 31.884 36.594 30.485 35.164 29.601C34.686 29.306 33.525 29.627 32.585 30.315ZM23.535 34.943C22.585 36.48 23.825 38 26.028 38C27.314 38 27.749 37.511 27.362 36.5C26.723 34.835 28.536 34.4 29.342 36.025C29.621 36.589 29.737 36.476 29.598 35.775C29.282 34.18 24.419 33.512 23.535 34.943ZM26 36C26 36.55 25.55 37 25 37C24.45 37 24 36.55 24 36C24 35.45 24.45 35 25 35C25.55 35 26 35.45 26 36ZM4.624 40.539C3.659 43.053 3.943 43.702 5.122 41.675C5.706 40.671 5.973 39.639 5.715 39.382C5.458 39.124 4.966 39.645 4.624 40.539ZM52.25 39.689C53.212 39.941 54 40.619 54 41.196C54 41.855 54.541 41.796 55.456 41.036C56.257 40.372 57.351 40.099 57.887 40.43C58.423 40.762 59.144 40.575 59.49 40.016C59.885 39.376 58.337 39.043 55.309 39.116C52.664 39.18 51.288 39.438 52.25 39.689ZM17.006 41.75C17.003 42.987 17.436 44 17.969 44C18.501 44 18.66 44.788 18.321 45.75C17.863 47.053 18.006 47.224 18.882 46.421C19.78 45.597 19.697 44.649 18.535 42.421C17.153 39.77 17.012 39.708 17.006 41.75ZM33 41C33 41.55 33.45 42 34 42C34.55 42 35 41.55 35 41C35 40.45 34.55 40 34 40C33.45 40 33 40.45 33 41ZM42.75 40.662C43.438 40.94 44.563 40.94 45.25 40.662C45.938 40.385 45.375 40.158 44 40.158C42.625 40.158 42.063 40.385 42.75 40.662ZM21.4 43.4C21.044 44.327 21.034 45.367 21.376 45.71C21.719 46.053 22.032 45.696 22.07 44.917C22.112 44.068 22.441 44.268 22.891 45.415C23.304 46.468 24.445 47.448 25.427 47.592C26.953 47.816 26.87 47.466 24.856 45.177C23.56 43.705 22.398 42.323 22.274 42.107C22.149 41.891 21.756 42.473 21.4 43.4ZM11.683 45.188C11.364 45.985 11.127 45.748 11.079 44.583C11.036 43.529 11.272 42.939 11.604 43.271C11.936 43.603 11.972 44.466 11.683 45.188ZM14.101 47.812C13.289 49.329 13.328 49.965 14.258 50.34C15.162 50.706 15.176 50.864 14.309 50.921C12.49 51.042 11.741 49.167 12.461 46.299C12.91 44.511 13.432 44.032 14.148 44.748C14.864 45.464 14.85 46.412 14.101 47.812ZM10.662 50.25C10.385 50.938 10.158 50.375 10.158 49C10.158 47.625 10.385 47.063 10.662 47.75C10.94 48.438 10.94 49.563 10.662 50.25ZM32.707 51.989C32.993 53.083 33.648 53.718 34.162 53.4C34.714 53.059 34.617 52.244 33.926 51.411C32.349 49.51 32.091 49.632 32.707 51.989ZM53.395 51.272C53.786 50.881 53.801 51.354 53.429 52.324C53.057 53.293 52.681 53.954 52.593 53.793C52.506 53.632 51.774 52.6 50.967 51.5C49.645 49.698 49.657 49.623 51.092 50.741C51.968 51.424 53.004 51.663 53.395 51.272Z" fill="#687561"/>
<path fill-rule="evenodd" clip-rule="evenodd" d="M0 32V64H32H64V32V0H32H0V32ZM46.438 8.95C48.053 10.015 49.853 10.615 50.438 10.283C51.022 9.951 51.217 9.997 50.872 10.385C50.526 10.772 51.539 12.385 53.122 13.968C55.972 16.818 57.007 22.006 55.235 24.558C53.542 26.996 49.311 29 45.859 29C41.188 29 39 29.831 39 31.607C39 32.518 40.15 33 42.326 33C44.58 33 46.408 33.805 48 35.5C49.935 37.56 51.287 38 55.674 38C58.603 38 61 38.342 61 38.76C61 39.178 59.902 40.705 58.559 42.153C57.217 43.601 56.352 45.019 56.638 45.305C57.504 46.171 50.608 44.396 48.292 43.156C45.37 41.593 44 41.702 44 43.5C44 44.561 45.098 45.01 47.75 45.033L51.5 45.067L49.306 46.898L47.112 48.73L49.806 50.039C51.288 50.76 52.821 51.276 53.214 51.187C53.607 51.097 53.697 51.627 53.414 52.364C52.766 54.051 48.42 53.347 45 51C43.625 50.056 41.213 49.048 39.641 48.76C36.814 48.242 36.789 48.28 37.41 52.163C37.974 55.692 37.859 55.998 36.269 55.181C35.296 54.68 33.938 54.472 33.25 54.718C32.52 54.98 32 54.343 32 53.188C32 51.875 30.65 50.541 27.986 49.223C23.702 47.104 23.114 47.351 22.778 51.411C22.458 55.275 19.427 54.64 17.1 50.222C16.44 48.969 15.465 48.213 14.934 48.541C14.402 48.869 14.226 49.557 14.543 50.069C14.859 50.581 14.673 51 14.129 51C13.584 51 12.963 52.013 12.748 53.25C12.381 55.359 12.28 55.315 11.123 52.539C10.444 50.911 10.148 48.548 10.464 47.289C10.815 45.89 10.588 45 9.879 45C9.242 45 8.072 44.213 7.279 43.25C5.905 41.583 5.863 41.583 6.387 43.25C7.022 45.27 5.942 45.542 4.2 43.8C2.26 41.86 2.818 38.145 5.385 35.913C6.71 34.761 7.578 33.096 7.337 32.169C6.732 29.838 9.028 27.206 12 26.823C13.478 26.632 14.723 25.683 15.045 24.502C15.383 23.26 16.707 22.312 18.545 21.996C22.702 21.28 22.899 18.093 19.057 13.717C17.375 11.803 16 9.958 16 9.618C16 8.481 20.03 8.984 23.282 10.527C34.144 15.68 35.834 18.099 32 23C29.322 26.424 29.512 27.366 32.489 25.415C33.858 24.518 37.34 23.495 40.226 23.142C44.256 22.649 45.557 22.067 45.833 20.632C46.081 19.342 45.805 19.003 44.942 19.536C44.144 20.029 43.943 19.901 44.386 19.184C45.301 17.705 42.574 12.515 39.897 10.641C35.092 7.275 41.416 5.64 46.438 8.95ZM28.425 43.879C28.724 44.363 29.988 45.016 31.234 45.33C33.42 45.88 33.432 45.849 31.559 44.45C29.409 42.844 27.58 42.511 28.425 43.879Z" fill="white"/>
</g>
<defs>
<clipPath id="clip0_1_32">
<rect width="64" height="64" rx="32" fill="white"/>
</clipPath>
</defs>
</svg>
