<svg width="52" height="53" viewBox="0 0 52 53" fill="none" xmlns="http://www.w3.org/2000/svg">
<path fill-rule="evenodd" clip-rule="evenodd" d="M21.75 0.706C20.238 0.941 19.001 1.665 19.001 2.316C19.002 3.119 21.337 3.5 26.251 3.5C32.412 3.5 34.224 3.926 38.328 6.338C43.239 9.225 49 16.705 49 20.196C49 21.188 49.675 22 50.5 22C52.567 22 52.391 20.705 49.564 15.127C44.386 4.908 32.934 -1.029 21.75 0.706ZM16 25.5C16 28.833 16.389 30 17.5 30C18.325 30 19 29.255 19 28.345C19 26.805 19.127 26.805 20.829 28.345C23.521 30.781 24 30.427 24 26C24 23.111 23.583 22 22.5 22C21.675 22 21 22.52 21 23.155C21 23.846 20.265 23.645 19.171 22.655C16.436 20.18 16 20.571 16 25.5ZM32.513 24.622C30.427 29.617 30.492 29.757 34.929 29.818L38.857 29.873L37.213 25.436C36.309 22.996 35.222 21 34.798 21C34.374 21 33.346 22.63 32.513 24.622ZM3.986 23.75C3.979 24.712 3.701 26.512 3.37 27.75C2.841 29.721 3.142 30 5.8 30C9.167 30 9.805 29.03 9.19 24.84C8.865 22.63 8.244 22 6.387 22C4.786 22 3.996 22.576 3.986 23.75ZM45 26C45 28.889 45.417 30 46.5 30C47.583 30 48 28.889 48 26C48 23.111 47.583 22 46.5 22C45.417 22 45 23.111 45 26ZM0.559 34.25C4.192 46.027 13.601 53 25.86 53C30.924 53 32.933 52.618 33.331 51.579C33.776 50.421 32.894 50.259 28.575 50.704C22.501 51.331 15.065 49.237 10.856 45.713C7.372 42.797 3 36.2 3 33.86C3 32.837 2.295 32 1.433 32C0.268001 32 0.0440005 32.578 0.559 34.25Z" fill="#3C2D2D"/>
<path fill-rule="evenodd" clip-rule="evenodd" d="M21.75 0.706C20.238 0.941 19.001 1.665 19.001 2.316C19.002 3.119 21.337 3.5 26.251 3.5C32.412 3.5 34.224 3.926 38.328 6.338C43.239 9.225 49 16.705 49 20.196C49 21.188 49.675 22 50.5 22C52.586 22 52.387 20.634 49.514 15.239C46.719 9.988 39.616 3 37.074 3C36.153 3 34.972 2.603 34.45 2.117C33.26 1.01 25.41 0.138 21.75 0.706ZM16 25.5C16 28.833 16.389 30 17.5 30C18.325 30 19 29.255 19 28.345C19 26.805 19.127 26.805 20.829 28.345C23.521 30.781 24 30.427 24 26C24 23.111 23.583 22 22.5 22C21.675 22 21 22.52 21 23.155C21 23.846 20.265 23.645 19.171 22.655C16.436 20.18 16 20.571 16 25.5ZM32.513 24.622C30.427 29.617 30.492 29.757 34.929 29.818L38.857 29.873L37.213 25.436C36.309 22.996 35.222 21 34.798 21C34.374 21 33.346 22.63 32.513 24.622ZM3.986 23.75C3.979 24.712 3.701 26.512 3.37 27.75C2.841 29.721 3.142 30 5.8 30C9.167 30 9.805 29.03 9.19 24.84C8.865 22.63 8.244 22 6.387 22C4.786 22 3.996 22.576 3.986 23.75ZM45 26C45 28.889 45.417 30 46.5 30C47.583 30 48 28.889 48 26C48 23.111 47.583 22 46.5 22C45.417 22 45 23.111 45 26ZM0.559 34.25C2.771 41.42 7.669 47.292 14.197 50.6C18.228 52.643 20.398 53.065 26.018 52.901C35.26 52.631 36.257 50.441 27.134 50.449C18.902 50.455 17.153 50.036 12.572 46.956C8.518 44.23 3 36.662 3 33.829C3 32.823 2.295 32 1.433 32C0.268001 32 0.0440005 32.578 0.559 34.25Z" fill="#3B2727"/>
<path fill-rule="evenodd" clip-rule="evenodd" d="M21.75 0.706C20.238 0.941 19.001 1.665 19.001 2.316C19.002 3.119 21.337 3.5 26.251 3.5C32.412 3.5 34.224 3.926 38.328 6.338C43.239 9.225 49 16.705 49 20.196C49 21.188 49.675 22 50.5 22C52.586 22 52.387 20.634 49.514 15.239C46.719 9.988 39.616 3 37.074 3C36.153 3 34.972 2.603 34.45 2.117C33.26 1.01 25.41 0.138 21.75 0.706ZM16 25.5C16 28.833 16.389 30 17.5 30C18.325 30 19 29.255 19 28.345C19 26.805 19.127 26.805 20.829 28.345C23.521 30.781 24 30.427 24 26C24 23.111 23.583 22 22.5 22C21.675 22 21 22.52 21 23.155C21 23.846 20.265 23.645 19.171 22.655C16.436 20.18 16 20.571 16 25.5ZM32.513 24.622C30.427 29.617 30.492 29.757 34.929 29.818L38.857 29.873L37.213 25.436C36.309 22.996 35.222 21 34.798 21C34.374 21 33.346 22.63 32.513 24.622ZM3.986 23.75C3.979 24.712 3.701 26.512 3.37 27.75C2.841 29.721 3.142 30 5.8 30C9.167 30 9.805 29.03 9.19 24.84C8.865 22.63 8.244 22 6.387 22C4.786 22 3.996 22.576 3.986 23.75ZM45 26C45 28.889 45.417 30 46.5 30C47.583 30 48 28.889 48 26C48 23.111 47.583 22 46.5 22C45.417 22 45 23.111 45 26ZM0.559 34.25C2.646 41.013 8.323 47.658 14.81 50.929C18.168 52.622 20.643 53.058 26.011 52.901C35.259 52.631 36.261 50.441 27.134 50.449C18.902 50.455 17.153 50.036 12.572 46.956C8.518 44.23 3 36.662 3 33.829C3 32.823 2.295 32 1.433 32C0.268001 32 0.0440005 32.578 0.559 34.25Z" fill="#404040"/>
<path fill-rule="evenodd" clip-rule="evenodd" d="M22.074 0.866C17.115 2.274 19.096 3.5 26.33 3.5C32.744 3.5 34.269 3.878 38.56 6.531C43.805 9.774 47.801 14.787 48.697 19.25C49.214 21.819 52 23.257 52 20.954C52 16.458 40.811 3 37.074 3C36.153 3 34.972 2.603 34.45 2.117C33.106 0.868 24.966 0.0450003 22.074 0.866ZM16 25.5C16 28.833 16.389 30 17.5 30C18.325 30 19 29.255 19 28.345C19 26.805 19.127 26.805 20.829 28.345C23.521 30.781 24 30.427 24 26C24 23.111 23.583 22 22.5 22C21.675 22 21 22.52 21 23.155C21 23.846 20.265 23.645 19.171 22.655C16.436 20.18 16 20.571 16 25.5ZM32.513 24.622C30.427 29.617 30.492 29.757 34.929 29.818L38.857 29.873L37.213 25.436C36.309 22.996 35.222 21 34.798 21C34.374 21 33.346 22.63 32.513 24.622ZM3.986 23.75C3.979 24.712 3.701 26.512 3.37 27.75C2.841 29.721 3.142 30 5.8 30C9.167 30 9.805 29.03 9.19 24.84C8.865 22.63 8.244 22 6.387 22C4.786 22 3.996 22.576 3.986 23.75ZM45 26C45 28.889 45.417 30 46.5 30C47.583 30 48 28.889 48 26C48 23.111 47.583 22 46.5 22C45.417 22 45 23.111 45 26ZM0 32.417C0 32.646 0.841 34.784 1.869 37.167C6.263 47.358 15.548 53.25 26.645 52.891C35.318 52.61 35.732 50.51 27.123 50.467C18.838 50.426 17.114 50.01 12.572 46.956C8.518 44.23 3 36.662 3 33.829C3 32.823 2.325 32 1.5 32C0.675 32 0 32.188 0 32.417Z" fill="#3B3B3B"/>
<path fill-rule="evenodd" clip-rule="evenodd" d="M23.029 0.946999C22.22 1.467 21.944 2.253 22.416 2.696C22.888 3.138 23.475 2.938 23.72 2.25C24.272 0.705999 28 0.580999 28 2.107C28 2.716 28.675 2.955 29.5 2.638C30.325 2.322 31 2.442 31 2.906C31 3.37 32.419 4.034 34.154 4.381C40.432 5.636 49.866 15.961 49.11 20.75C49.001 21.438 49.607 22 50.456 22C52.587 22 52.4 20.66 49.514 15.239C46.719 9.988 39.616 3 37.074 3C36.153 3 34.972 2.603 34.45 2.117C32.973 0.743999 24.671 -0.106001 23.029 0.946999ZM19.583 1.866C19.152 2.563 19.07 3.403 19.4 3.733C20.295 4.628 21.271 3.312 20.787 1.862C20.449 0.845999 20.213 0.846 19.583 1.866ZM16 25.5C16 28.833 16.389 30 17.5 30C18.325 30 19 29.255 19 28.345C19 26.805 19.127 26.805 20.829 28.345C23.521 30.781 24 30.427 24 26C24 23.111 23.583 22 22.5 22C21.675 22 21 22.52 21 23.155C21 23.846 20.265 23.645 19.171 22.655C16.436 20.18 16 20.571 16 25.5ZM32.513 24.622C30.427 29.617 30.492 29.757 34.929 29.818L38.857 29.873L37.213 25.436C36.309 22.996 35.222 21 34.798 21C34.374 21 33.346 22.63 32.513 24.622ZM3.986 23.75C3.979 24.712 3.701 26.512 3.37 27.75C2.841 29.721 3.142 30 5.8 30C9.167 30 9.805 29.03 9.19 24.84C8.865 22.63 8.244 22 6.387 22C4.786 22 3.996 22.576 3.986 23.75ZM45 26C45 28.889 45.417 30 46.5 30C47.583 30 48 28.889 48 26C48 23.111 47.583 22 46.5 22C45.417 22 45 23.111 45 26ZM0.506 33.75C0.903 34.712 1.453 36.288 1.73 37.25C2.007 38.212 2.631 39 3.117 39C3.602 39 3.929 39.337 3.841 39.75C3.465 41.525 5.275 43.832 6.635 43.31C7.839 42.848 7.734 42.4 6.052 40.834C4.923 39.782 4 38.265 4 37.461C4 36.657 3.592 36 3.094 36C2.595 36 2.423 35.1 2.71 34C3.084 32.571 2.741 32 1.51 32C0.26 32 -0.0160003 32.482 0.506 33.75ZM9.68 46.393C9.258 47.492 10.014 48.473 12.127 49.566C16.127 51.634 16.359 51.137 13.02 47.65C10.756 45.286 10.186 45.072 9.68 46.393ZM17 50.487C17 51.932 19.16 53 22.082 53C25.191 53 24.279 51.421 20.5 50.261C17.745 49.416 17 49.464 17 50.487ZM29.837 51.101C29.154 51.523 28.237 51.646 27.798 51.375C27.359 51.104 27 51.366 27 51.957C27 53.368 32.82 52.911 33.379 51.456C33.87 50.174 31.69 49.956 29.837 51.101Z" fill="#333333"/>
<path fill-rule="evenodd" clip-rule="evenodd" d="M24.75 0.662001C25.438 0.940001 26.563 0.940001 27.25 0.662001C27.938 0.385001 27.375 0.158001 26 0.158001C24.625 0.158001 24.063 0.385001 24.75 0.662001ZM51 20.059C51 20.641 50.55 20.84 50 20.5C49.45 20.16 49 20.359 49 20.941C49 21.523 49.675 22 50.5 22C51.325 22 52 21.325 52 20.5C52 19.675 51.775 19 51.5 19C51.225 19 51 19.477 51 20.059ZM16 25.5C16 28.833 16.389 30 17.5 30C18.325 30 19 29.255 19 28.345C19 26.805 19.127 26.805 20.829 28.345C23.521 30.781 24 30.427 24 26C24 23.111 23.583 22 22.5 22C21.675 22 21 22.52 21 23.155C21 23.846 20.265 23.645 19.171 22.655C16.436 20.18 16 20.571 16 25.5ZM32.513 24.622C30.427 29.617 30.492 29.757 34.929 29.818L38.857 29.873L37.213 25.436C36.309 22.996 35.222 21 34.798 21C34.374 21 33.346 22.63 32.513 24.622ZM3.986 23.75C3.979 24.712 3.701 26.512 3.37 27.75C2.841 29.721 3.142 30 5.8 30C9.167 30 9.805 29.03 9.19 24.84C8.865 22.63 8.244 22 6.387 22C4.786 22 3.996 22.576 3.986 23.75ZM45 26C45 28.889 45.417 30 46.5 30C47.583 30 48 28.889 48 26C48 23.111 47.583 22 46.5 22C45.417 22 45 23.111 45 26ZM0 32.969C0 33.501 0.675 33.678 1.5 33.362C2.325 33.045 3 32.609 3 32.393C3 32.177 2.325 32 1.5 32C0.675 32 0 32.436 0 32.969Z" fill="#2A2A2A"/>
<path fill-rule="evenodd" clip-rule="evenodd" d="M24.75 0.662001C25.438 0.940001 26.563 0.940001 27.25 0.662001C27.938 0.385001 27.375 0.158001 26 0.158001C24.625 0.158001 24.063 0.385001 24.75 0.662001ZM51.079 20.583C51.127 21.748 51.364 21.985 51.683 21.188C51.972 20.466 51.936 19.603 51.604 19.271C51.272 18.939 51.036 19.529 51.079 20.583ZM16 25.5C16 28.833 16.389 30 17.5 30C18.325 30 19 29.255 19 28.345C19 26.805 19.127 26.805 20.829 28.345C23.521 30.781 24 30.427 24 26C24 23.111 23.583 22 22.5 22C21.675 22 21 22.52 21 23.155C21 23.846 20.265 23.645 19.171 22.655C16.436 20.18 16 20.571 16 25.5ZM32.513 24.622C30.427 29.617 30.492 29.757 34.929 29.818L38.857 29.873L37.213 25.436C36.309 22.996 35.222 21 34.798 21C34.374 21 33.346 22.63 32.513 24.622ZM3.986 23.75C3.979 24.712 3.701 26.512 3.37 27.75C2.841 29.721 3.142 30 5.8 30C9.167 30 9.805 29.03 9.19 24.84C8.865 22.63 8.244 22 6.387 22C4.786 22 3.996 22.576 3.986 23.75ZM45 26C45 28.889 45.417 30 46.5 30C47.583 30 48 28.889 48 26C48 23.111 47.583 22 46.5 22C45.417 22 45 23.111 45 26Z" fill="#242424"/>
<path fill-rule="evenodd" clip-rule="evenodd" d="M24.75 0.662001C25.438 0.940001 26.563 0.940001 27.25 0.662001C27.938 0.385001 27.375 0.158001 26 0.158001C24.625 0.158001 24.063 0.385001 24.75 0.662001ZM16 25.5C16 28.833 16.389 30 17.5 30C18.325 30 19 29.255 19 28.345C19 26.805 19.127 26.805 20.829 28.345C23.521 30.781 24 30.427 24 26C24 23.111 23.583 22 22.5 22C21.675 22 21 22.52 21 23.155C21 23.846 20.265 23.645 19.171 22.655C16.436 20.18 16 20.571 16 25.5ZM32.513 24.622C30.427 29.617 30.492 29.757 34.929 29.818L38.857 29.873L37.213 25.436C36.309 22.996 35.222 21 34.798 21C34.374 21 33.346 22.63 32.513 24.622ZM3.986 23.75C3.979 24.712 3.701 26.512 3.37 27.75C2.841 29.721 3.142 30 5.8 30C9.167 30 9.805 29.03 9.19 24.84C8.865 22.63 8.244 22 6.387 22C4.786 22 3.996 22.576 3.986 23.75ZM45 26C45 28.889 45.417 30 46.5 30C47.583 30 48 28.889 48 26C48 23.111 47.583 22 46.5 22C45.417 22 45 23.111 45 26Z" fill="black"/>
</svg>
