<svg width="52" height="52" viewBox="0 0 52 52" fill="none" xmlns="http://www.w3.org/2000/svg">
<g clip-path="url(#clip0_1_42)">
<path fill-rule="evenodd" clip-rule="evenodd" d="M21.75 0.692676C20.238 0.923242 19.001 1.63358 19.001 2.2723C19.002 3.06015 21.337 3.43396 26.251 3.43396C32.412 3.43396 34.224 3.85192 38.328 6.21841C43.239 9.05094 49 16.3898 49 19.8149C49 20.7882 49.675 21.5849 50.5 21.5849C52.567 21.5849 52.391 20.3143 49.564 14.8416C44.386 4.81539 32.934 -1.00959 21.75 0.692676ZM16 25.0189C16 28.289 16.389 29.434 17.5 29.434C18.325 29.434 19 28.703 19 27.8102C19 26.2992 19.127 26.2992 20.829 27.8102C23.521 30.2002 24 29.8529 24 25.5094C24 22.6749 23.583 21.5849 22.5 21.5849C21.675 21.5849 21 22.0951 21 22.7181C21 23.3961 20.265 23.1989 19.171 22.2275C16.436 19.7992 16 20.1829 16 25.0189ZM32.513 24.1574C30.427 29.0582 30.492 29.1955 34.929 29.2554L38.857 29.3094L37.213 24.9561C36.309 22.5621 35.222 20.6038 34.798 20.6038C34.374 20.6038 33.346 22.203 32.513 24.1574ZM3.986 23.3019C3.979 24.2457 3.701 26.0118 3.37 27.2264C2.841 29.1602 3.142 29.434 5.8 29.434C9.167 29.434 9.805 28.4823 9.19 24.3713C8.865 22.203 8.244 21.5849 6.387 21.5849C4.786 21.5849 3.996 22.15 3.986 23.3019ZM45 25.5094C45 28.3439 45.417 29.434 46.5 29.434C47.583 29.434 48 28.3439 48 25.5094C48 22.6749 47.583 21.5849 46.5 21.5849C45.417 21.5849 45 22.6749 45 25.5094ZM0.558998 33.6038C4.192 45.1586 13.601 52 25.86 52C30.924 52 32.933 51.6252 33.331 50.6058C33.776 49.4697 32.894 49.3107 28.575 49.7473C22.501 50.3625 15.065 48.308 10.856 44.8505C7.372 41.9895 3 35.517 3 33.2211C3 32.2174 2.295 31.3962 1.433 31.3962C0.267999 31.3962 0.0439987 31.9633 0.558998 33.6038Z" fill="#3C2D2D"/>
<path fill-rule="evenodd" clip-rule="evenodd" d="M21.75 0.692681C20.238 0.923247 19.001 1.63359 19.001 2.2723C19.002 3.06015 21.337 3.43396 26.251 3.43396C32.412 3.43396 34.224 3.85193 38.328 6.21842C43.239 9.05095 49 16.3898 49 19.8149C49 20.7882 49.675 21.5849 50.5 21.5849C52.586 21.5849 52.387 20.2447 49.514 14.9515C46.719 9.79955 39.616 2.9434 37.074 2.9434C36.153 2.9434 34.972 2.55389 34.45 2.07706C33.26 0.990945 25.41 0.135398 21.75 0.692681ZM16 25.0189C16 28.289 16.389 29.434 17.5 29.434C18.325 29.434 19 28.703 19 27.8102C19 26.2992 19.127 26.2992 20.829 27.8102C23.521 30.2002 24 29.8529 24 25.5094C24 22.6749 23.583 21.5849 22.5 21.5849C21.675 21.5849 21 22.0951 21 22.7181C21 23.3961 20.265 23.1989 19.171 22.2275C16.436 19.7992 16 20.1829 16 25.0189ZM32.513 24.1574C30.427 29.0582 30.492 29.1955 34.929 29.2554L38.857 29.3094L37.213 24.9561C36.309 22.5621 35.222 20.6038 34.798 20.6038C34.374 20.6038 33.346 22.203 32.513 24.1574ZM3.986 23.3019C3.979 24.2457 3.701 26.0118 3.37 27.2264C2.841 29.1602 3.142 29.434 5.8 29.434C9.167 29.434 9.805 28.4823 9.19 24.3713C8.865 22.203 8.244 21.5849 6.387 21.5849C4.786 21.5849 3.996 22.15 3.986 23.3019ZM45 25.5094C45 28.3439 45.417 29.434 46.5 29.434C47.583 29.434 48 28.3439 48 25.5094C48 22.6749 47.583 21.5849 46.5 21.5849C45.417 21.5849 45 22.6749 45 25.5094ZM0.558998 33.6038C2.771 40.6385 7.669 46.3997 14.197 49.6453C18.228 51.6497 20.398 52.0638 26.018 51.9029C35.26 51.638 36.257 49.4893 27.134 49.4971C18.902 49.503 17.153 49.0919 12.572 46.07C8.518 43.3955 3 35.9703 3 33.1907C3 32.2037 2.295 31.3962 1.433 31.3962C0.267999 31.3962 0.0439987 31.9633 0.558998 33.6038Z" fill="#3B2727"/>
<path fill-rule="evenodd" clip-rule="evenodd" d="M21.75 0.692681C20.238 0.923247 19.001 1.63359 19.001 2.2723C19.002 3.06015 21.337 3.43396 26.251 3.43396C32.412 3.43396 34.224 3.85193 38.328 6.21842C43.239 9.05095 49 16.3898 49 19.8149C49 20.7882 49.675 21.5849 50.5 21.5849C52.586 21.5849 52.387 20.2447 49.514 14.9515C46.719 9.79955 39.616 2.9434 37.074 2.9434C36.153 2.9434 34.972 2.55389 34.45 2.07706C33.26 0.990945 25.41 0.135398 21.75 0.692681ZM16 25.0189C16 28.289 16.389 29.434 17.5 29.434C18.325 29.434 19 28.703 19 27.8102C19 26.2992 19.127 26.2992 20.829 27.8102C23.521 30.2002 24 29.8529 24 25.5094C24 22.6749 23.583 21.5849 22.5 21.5849C21.675 21.5849 21 22.0951 21 22.7181C21 23.3961 20.265 23.1989 19.171 22.2275C16.436 19.7992 16 20.1829 16 25.0189ZM32.513 24.1574C30.427 29.0582 30.492 29.1955 34.929 29.2554L38.857 29.3094L37.213 24.9561C36.309 22.5621 35.222 20.6038 34.798 20.6038C34.374 20.6038 33.346 22.203 32.513 24.1574ZM3.986 23.3019C3.979 24.2457 3.701 26.0118 3.37 27.2264C2.841 29.1602 3.142 29.434 5.8 29.434C9.167 29.434 9.805 28.4823 9.19 24.3713C8.865 22.203 8.244 21.5849 6.387 21.5849C4.786 21.5849 3.996 22.15 3.986 23.3019ZM45 25.5094C45 28.3439 45.417 29.434 46.5 29.434C47.583 29.434 48 28.3439 48 25.5094C48 22.6749 47.583 21.5849 46.5 21.5849C45.417 21.5849 45 22.6749 45 25.5094ZM0.558998 33.6038C2.646 40.2392 8.323 46.7588 14.81 49.9681C18.168 51.6291 20.643 52.0569 26.011 51.9029C35.259 51.638 36.261 49.4893 27.134 49.4971C18.902 49.503 17.153 49.0919 12.572 46.07C8.518 43.3955 3 35.9703 3 33.1907C3 32.2037 2.295 31.3962 1.433 31.3962C0.267999 31.3962 0.0439987 31.9633 0.558998 33.6038Z" fill="#404040"/>
<path fill-rule="evenodd" clip-rule="evenodd" d="M22.074 0.849659C17.115 2.23109 19.096 3.43396 26.33 3.43396C32.744 3.43396 34.269 3.80483 38.56 6.40777C43.805 9.58958 47.801 14.508 48.697 18.8868C49.214 21.4073 52 22.8182 52 20.5586C52 16.1475 40.811 2.94339 37.074 2.94339C36.153 2.94339 34.972 2.55389 34.45 2.07705C33.106 0.851621 24.966 0.0441494 22.074 0.849659ZM16 25.0189C16 28.289 16.389 29.434 17.5 29.434C18.325 29.434 19 28.703 19 27.8102C19 26.2992 19.127 26.2992 20.829 27.8102C23.521 30.2002 24 29.8529 24 25.5094C24 22.6749 23.583 21.5849 22.5 21.5849C21.675 21.5849 21 22.0951 21 22.7181C21 23.3961 20.265 23.1989 19.171 22.2275C16.436 19.7992 16 20.1829 16 25.0189ZM32.513 24.1574C30.427 29.0582 30.492 29.1955 34.929 29.2554L38.857 29.3094L37.213 24.9561C36.309 22.5621 35.222 20.6038 34.798 20.6038C34.374 20.6038 33.346 22.203 32.513 24.1574ZM3.986 23.3019C3.979 24.2457 3.701 26.0118 3.37 27.2264C2.841 29.1602 3.142 29.434 5.8 29.434C9.167 29.434 9.805 28.4823 9.19 24.3713C8.865 22.203 8.244 21.5849 6.387 21.5849C4.786 21.5849 3.996 22.15 3.986 23.3019ZM45 25.5094C45 28.3439 45.417 29.434 46.5 29.434C47.583 29.434 48 28.3439 48 25.5094C48 22.6749 47.583 21.5849 46.5 21.5849C45.417 21.5849 45 22.6749 45 25.5094ZM0 31.8054C0 32.03 0.841 34.1277 1.869 36.4657C6.263 46.4645 15.548 52.2453 26.645 51.8931C35.318 51.6174 35.732 49.557 27.123 49.5148C18.838 49.4746 17.114 49.0664 12.572 46.07C8.518 43.3955 3 35.9703 3 33.1907C3 32.2037 2.325 31.3962 1.5 31.3962C0.675 31.3962 0 31.5807 0 31.8054Z" fill="#3B3B3B"/>
<path fill-rule="evenodd" clip-rule="evenodd" d="M23.029 0.929129C22.22 1.43932 21.944 2.21049 22.416 2.64513C22.888 3.07879 23.475 2.88256 23.72 2.20755C24.272 0.692677 28 0.570035 28 2.06724C28 2.66475 28.675 2.89924 29.5 2.58822C30.325 2.27819 31 2.39592 31 2.85117C31 3.30641 32.419 3.95789 34.154 4.29834C40.432 5.52966 49.866 15.6598 49.11 20.3585C49.001 21.0335 49.607 21.5849 50.456 21.5849C52.587 21.5849 52.4 20.2702 49.514 14.9515C46.719 9.79955 39.616 2.94339 37.074 2.94339C36.153 2.94339 34.972 2.55389 34.45 2.07705C32.973 0.72996 24.671 -0.104003 23.029 0.929129ZM19.583 1.83079C19.152 2.51464 19.07 3.33879 19.4 3.66256C20.295 4.54068 21.271 3.24951 20.787 1.82687C20.449 0.830035 20.213 0.830036 19.583 1.83079ZM16 25.0189C16 28.289 16.389 29.434 17.5 29.434C18.325 29.434 19 28.703 19 27.8102C19 26.2992 19.127 26.2992 20.829 27.8102C23.521 30.2002 24 29.8529 24 25.5094C24 22.6749 23.583 21.5849 22.5 21.5849C21.675 21.5849 21 22.0951 21 22.7181C21 23.3961 20.265 23.1989 19.171 22.2275C16.436 19.7992 16 20.1829 16 25.0189ZM32.513 24.1574C30.427 29.0582 30.492 29.1955 34.929 29.2554L38.857 29.3094L37.213 24.9561C36.309 22.5621 35.222 20.6038 34.798 20.6038C34.374 20.6038 33.346 22.203 32.513 24.1574ZM3.986 23.3019C3.979 24.2457 3.701 26.0118 3.37 27.2264C2.841 29.1602 3.142 29.434 5.8 29.434C9.167 29.434 9.805 28.4823 9.19 24.3713C8.865 22.203 8.244 21.5849 6.387 21.5849C4.786 21.5849 3.996 22.15 3.986 23.3019ZM45 25.5094C45 28.3439 45.417 29.434 46.5 29.434C47.583 29.434 48 28.3439 48 25.5094C48 22.6749 47.583 21.5849 46.5 21.5849C45.417 21.5849 45 22.6749 45 25.5094ZM0.506 33.1132C0.903 34.0571 1.453 35.6033 1.73 36.5472C2.007 37.491 2.631 38.2641 3.117 38.2641C3.602 38.2641 3.929 38.5948 3.841 39C3.465 40.7415 5.275 43.005 6.635 42.4928C7.839 42.0395 7.734 41.6 6.052 40.0635C4.923 39.0314 4 37.543 4 36.7542C4 35.9654 3.592 35.3208 3.094 35.3208C2.595 35.3208 2.423 34.4377 2.71 33.3585C3.084 31.9564 2.741 31.3962 1.51 31.3962C0.26 31.3962 -0.0160004 31.8691 0.506 33.1132ZM9.68 45.5177C9.258 46.5959 10.014 47.5584 12.127 48.6308C16.127 50.6598 16.359 50.1721 13.02 46.7509C10.756 44.4315 10.186 44.2216 9.68 45.5177ZM17 49.5344C17 50.9521 19.16 52 22.082 52C25.191 52 24.279 50.4508 20.5 49.3127C17.745 48.4836 17 48.5307 17 49.5344ZM29.837 50.1368C29.154 50.5509 28.237 50.6715 27.798 50.4057C27.359 50.1398 27 50.3968 27 50.9767C27 52.3611 32.82 51.9127 33.379 50.4851C33.87 49.2273 31.69 49.0134 29.837 50.1368Z" fill="#333333"/>
<path fill-rule="evenodd" clip-rule="evenodd" d="M24.75 0.649512C25.438 0.922267 26.563 0.922267 27.25 0.649512C27.938 0.377739 27.375 0.155022 26 0.155022C24.625 0.155022 24.063 0.377739 24.75 0.649512ZM51 19.6805C51 20.2515 50.55 20.4468 50 20.1132C49.45 19.7796 49 19.9749 49 20.5459C49 21.1169 49.675 21.5849 50.5 21.5849C51.325 21.5849 52 20.9226 52 20.1132C52 19.3038 51.775 18.6415 51.5 18.6415C51.225 18.6415 51 19.1095 51 19.6805ZM16 25.0189C16 28.289 16.389 29.434 17.5 29.434C18.325 29.434 19 28.703 19 27.8102C19 26.2992 19.127 26.2992 20.829 27.8102C23.521 30.2002 24 29.8529 24 25.5094C24 22.6749 23.583 21.5849 22.5 21.5849C21.675 21.5849 21 22.0951 21 22.7181C21 23.3961 20.265 23.1989 19.171 22.2276C16.436 19.7992 16 20.1829 16 25.0189ZM32.513 24.1574C30.427 29.0582 30.492 29.1956 34.929 29.2554L38.857 29.3094L37.213 24.9561C36.309 22.5621 35.222 20.6038 34.798 20.6038C34.374 20.6038 33.346 22.203 32.513 24.1574ZM3.986 23.3019C3.979 24.2457 3.701 26.0118 3.37 27.2264C2.841 29.1602 3.142 29.434 5.8 29.434C9.167 29.434 9.805 28.4823 9.19 24.3713C8.865 22.203 8.244 21.5849 6.387 21.5849C4.786 21.5849 3.996 22.15 3.986 23.3019ZM45 25.5094C45 28.3439 45.417 29.434 46.5 29.434C47.583 29.434 48 28.3439 48 25.5094C48 22.6749 47.583 21.5849 46.5 21.5849C45.417 21.5849 45 22.6749 45 25.5094ZM0 32.3469C0 32.8689 0.675 33.0426 1.5 32.7325C2.325 32.4215 3 31.9937 3 31.7818C3 31.5699 2.325 31.3962 1.5 31.3962C0.675 31.3962 0 31.824 0 32.3469Z" fill="#2A2A2A"/>
<path fill-rule="evenodd" clip-rule="evenodd" d="M24.75 0.649512C25.438 0.922267 26.563 0.922267 27.25 0.649512C27.938 0.377739 27.375 0.155022 26 0.155022C24.625 0.155022 24.063 0.377739 24.75 0.649512ZM51.079 20.1946C51.127 21.3377 51.364 21.5702 51.683 20.7882C51.972 20.0799 51.936 19.2331 51.604 18.9074C51.272 18.5817 51.036 19.1605 51.079 20.1946ZM16 25.0189C16 28.289 16.389 29.434 17.5 29.434C18.325 29.434 19 28.703 19 27.8102C19 26.2992 19.127 26.2992 20.829 27.8102C23.521 30.2002 24 29.8529 24 25.5094C24 22.6749 23.583 21.5849 22.5 21.5849C21.675 21.5849 21 22.0951 21 22.7181C21 23.3961 20.265 23.1989 19.171 22.2276C16.436 19.7992 16 20.1829 16 25.0189ZM32.513 24.1574C30.427 29.0582 30.492 29.1956 34.929 29.2554L38.857 29.3094L37.213 24.9561C36.309 22.5621 35.222 20.6038 34.798 20.6038C34.374 20.6038 33.346 22.203 32.513 24.1574ZM3.986 23.3019C3.979 24.2457 3.701 26.0118 3.37 27.2264C2.841 29.1602 3.142 29.434 5.8 29.434C9.167 29.434 9.805 28.4823 9.19 24.3713C8.865 22.203 8.244 21.5849 6.387 21.5849C4.786 21.5849 3.996 22.15 3.986 23.3019ZM45 25.5094C45 28.3439 45.417 29.434 46.5 29.434C47.583 29.434 48 28.3439 48 25.5094C48 22.6749 47.583 21.5849 46.5 21.5849C45.417 21.5849 45 22.6749 45 25.5094Z" fill="#242424"/>
<path fill-rule="evenodd" clip-rule="evenodd" d="M24.75 0.649512C25.438 0.922267 26.563 0.922267 27.25 0.649512C27.938 0.377739 27.375 0.155022 26 0.155022C24.625 0.155022 24.063 0.377739 24.75 0.649512ZM16 25.0189C16 28.289 16.389 29.434 17.5 29.434C18.325 29.434 19 28.703 19 27.8102C19 26.2992 19.127 26.2992 20.829 27.8102C23.521 30.2002 24 29.8529 24 25.5094C24 22.6749 23.583 21.5849 22.5 21.5849C21.675 21.5849 21 22.0951 21 22.7181C21 23.3961 20.265 23.1989 19.171 22.2276C16.436 19.7992 16 20.1829 16 25.0189ZM32.513 24.1574C30.427 29.0582 30.492 29.1956 34.929 29.2554L38.857 29.3094L37.213 24.9561C36.309 22.5621 35.222 20.6038 34.798 20.6038C34.374 20.6038 33.346 22.203 32.513 24.1574ZM3.986 23.3019C3.979 24.2457 3.701 26.0118 3.37 27.2264C2.841 29.1602 3.142 29.434 5.8 29.434C9.167 29.434 9.805 28.4823 9.19 24.3713C8.865 22.203 8.244 21.5849 6.387 21.5849C4.786 21.5849 3.996 22.15 3.986 23.3019ZM45 25.5094C45 28.3439 45.417 29.434 46.5 29.434C47.583 29.434 48 28.3439 48 25.5094C48 22.6749 47.583 21.5849 46.5 21.5849C45.417 21.5849 45 22.6749 45 25.5094Z" fill="black"/>
</g>
<defs>
<clipPath id="clip0_1_42">
<rect width="52" height="52" rx="26" fill="white"/>
</clipPath>
</defs>
</svg>
