<svg width="64" height="64" viewBox="0 0 64 64" fill="none" xmlns="http://www.w3.org/2000/svg">
<path fill-rule="evenodd" clip-rule="evenodd" d="M0 32V64H32H64V32V0H32H0V32Z" fill="#FFFEFF"/>
<path fill-rule="evenodd" clip-rule="evenodd" d="M0 32V64H32H64V32V0H32H0V32ZM33.5 13C33.16 13.55 33.359 14 33.941 14C34.523 14 35 14.498 35 15.106C35 15.714 36.013 17.47 37.25 19.009C38.487 20.547 40.85 24.137 42.5 26.987C44.15 29.836 46.063 32.773 46.75 33.512C47.438 34.252 48 35.699 48 36.729C48 37.758 48.54 39.14 49.2 39.8C50.003 40.603 50.038 41 49.307 41C48.706 41 47.958 40.333 47.645 39.517C47.312 38.649 46.417 38.286 45.49 38.642C44.548 39.004 43.345 38.489 42.528 37.375C41.344 35.761 41.385 35.224 42.826 33.517C44.269 31.808 44.277 31.706 42.883 32.78C41.033 34.204 39.527 32.994 38.798 29.5C38.569 28.4 37.831 27.617 37.16 27.76C34.606 28.305 30.574 14.759 32.667 12.667C33.675 11.658 34.199 11.868 33.5 13ZM35.955 31.25C36.746 32.487 37.416 34.475 37.446 35.667C37.476 36.859 37.823 38.157 38.219 38.552C38.614 38.947 38.752 38.31 38.526 37.135C37.989 34.346 38.839 34.391 39.881 37.207C40.56 39.043 40.177 39.698 37.599 41.107C33.477 43.36 32.52 42.226 32.409 34.95C32.311 28.579 33.475 27.365 35.955 31.25ZM44 42.059C44 42.641 44.409 42.865 44.91 42.556C46.661 41.473 48.789 43.091 48.262 45.104C47.978 46.191 47.542 46.875 47.293 46.626C47.044 46.377 43.9 47.733 40.306 49.639C36.712 51.546 33.492 52.826 33.151 52.484C31.45 50.783 32.55 44.674 34.273 46.25C34.424 46.388 35.617 45.503 36.925 44.285C38.233 43.066 39.654 42.286 40.082 42.551C40.511 42.816 41.144 42.575 41.49 42.016C42.315 40.681 44 40.71 44 42.059Z" fill="#9FD0FF"/>
<path fill-rule="evenodd" clip-rule="evenodd" d="M0 32V64H32H64V32V0H32H0V32ZM34 13C33.175 13.533 33.01 13.976 33.633 13.985C34.257 13.993 35.014 14.945 35.316 16.101C35.666 17.437 36.31 17.927 37.087 17.446C37.844 16.979 38.052 17.107 37.633 17.784C37.262 18.385 37.755 19.341 38.729 19.908C39.703 20.475 40.151 20.953 39.724 20.97C38.594 21.014 41.871 27 43.026 27C43.562 27 44 27.675 44 28.5C44 29.325 44.45 30 45 30C45.55 30 45.947 30.337 45.882 30.75C45.567 32.743 46.101 34.056 47 33.5C47.985 32.891 48.409 34.227 48.058 36.824C47.959 37.552 48.387 38.761 49.009 39.51C49.843 40.515 49.846 41.418 49.023 42.957C48.41 44.103 48.227 45.559 48.618 46.191C49.076 46.932 48.788 47.133 47.807 46.756C46.042 46.079 40.629 49.295 41.711 50.378C42.112 50.778 41.591 50.78 40.555 50.383C39.254 49.883 38.893 50.018 39.388 50.819C39.857 51.578 39.564 51.77 38.539 51.377C37.679 51.046 36.294 51.341 35.463 52.031C33.542 53.625 32.568 52.645 32.381 48.931C32.258 46.479 33.147 45.22 34.273 46.25C34.424 46.388 35.617 45.503 36.925 44.285C38.233 43.066 39.688 42.307 40.159 42.598C40.629 42.889 41.284 42.423 41.614 41.563C42.346 39.655 44 39.495 44 41.333C44 42.403 46.403 42.779 48.785 42.083C48.942 42.038 48.573 41.071 47.965 39.935C47.135 38.383 46.537 38.139 45.557 38.953C44.573 39.769 43.871 39.451 42.697 37.661C41.28 35.498 41.291 35.123 42.821 33.448C44.24 31.894 44.249 31.797 42.883 32.817C41.027 34.203 39.481 32.934 38.844 29.5C38.64 28.4 37.954 27.5 37.32 27.5C35.62 27.5 34.777 26.386 33.33 22.231C31.216 16.162 31.661 11.976 34.417 12.015C35.013 12.024 34.825 12.467 34 13ZM35.955 31.25C36.746 32.487 37.416 34.475 37.446 35.667C37.476 36.859 37.823 38.157 38.219 38.552C38.614 38.947 38.75 38.298 38.521 37.109C38.29 35.909 38.526 35.207 39.052 35.532C39.574 35.854 40 36.766 40 37.559C40 38.352 40.563 39.036 41.25 39.079C42.243 39.142 42.242 39.262 41.244 39.664C40.553 39.943 40.302 40.695 40.686 41.335C41.07 41.976 40.623 41.882 39.692 41.128C38.418 40.094 38 40.061 38 40.994C38 41.741 37.205 42.025 35.999 41.71C34.898 41.422 34.23 41.563 34.515 42.024C34.8 42.485 34.65 43.098 34.183 43.387C33.151 44.025 32.997 43.227 32.616 35.25C32.297 28.569 33.4 27.247 35.955 31.25Z" fill="#92C4FF"/>
<path fill-rule="evenodd" clip-rule="evenodd" d="M0 32V64H32H64V32V0H32H0V32ZM30.125 13.7C26.467 18.798 13.017 41.35 13.404 41.737C13.613 41.946 15.407 41.439 17.392 40.61C19.376 39.78 21 39.457 21 39.891C21 40.325 19.2 41.274 17 42C14.8 42.726 13.007 43.586 13.015 43.91C13.024 44.235 17.559 46.903 23.093 49.839C28.627 52.776 32.948 55.385 32.696 55.637C32.444 55.89 27.529 53.483 21.774 50.29C14.458 46.229 11.384 43.989 11.553 42.841C11.893 40.522 31.432 8.82 31.817 9.961C31.991 10.478 31.229 12.16 30.125 13.7ZM35.205 14.736C35.014 16.064 36.069 17.738 38.205 19.494C40.017 20.984 40.9 21.883 40.167 21.492C39.183 20.966 39.254 21.591 40.443 23.89C41.328 25.6 42.291 27 42.585 27C42.878 27 42.8 26.438 42.412 25.75C41.928 24.892 42.044 24.814 42.782 25.5C43.373 26.05 44.002 27.173 44.179 27.996C44.355 28.819 45.175 30.09 46 30.821C46.825 31.551 46.943 31.867 46.261 31.522C45.447 31.111 45.226 31.426 45.616 32.442C45.943 33.293 46.522 33.795 46.905 33.559C47.287 33.323 48.173 34.047 48.874 35.169C49.577 36.295 49.667 36.912 49.074 36.546C47.593 35.631 47.717 38.317 49.225 39.825C50.192 40.792 50.184 41.475 49.191 43.066C48.499 44.174 48.235 45.571 48.605 46.17C49.004 46.816 48.713 47.058 47.889 46.765C46.07 46.117 42.778 47.832 43.524 49.039C43.852 49.569 43.357 49.691 42.388 49.319C41.231 48.875 40.905 49.038 41.388 49.819C41.87 50.599 41.544 50.762 40.388 50.319C39.231 49.875 38.905 50.038 39.388 50.819C39.857 51.578 39.564 51.77 38.539 51.377C37.679 51.046 36.325 51.315 35.531 51.974C33.61 53.568 31.766 52.313 32.523 49.927C33.227 47.711 29.612 43.91 24.973 41.989C23.338 41.311 22 40.103 22 39.304C22 37.715 29.709 24.298 31.125 23.423C32.751 22.418 32.015 23.956 27.5 31C25.025 34.861 23 38.472 23 39.023C23 39.575 25.137 41.033 27.75 42.263C30.363 43.493 32.88 44.95 33.344 45.5C33.837 46.084 33.96 45.785 33.638 44.782C33.335 43.837 33.486 42.818 33.972 42.517C34.459 42.216 35.046 42.765 35.277 43.735C35.598 45.084 35.668 45.028 35.575 43.5C35.507 42.4 34.901 41.612 34.226 41.75C32.843 42.032 32.741 41.578 32.529 34.25C32.398 29.733 32.638 29 34.247 29C35.276 29 35.838 29.453 35.496 30.007C35.153 30.561 35.551 31.274 36.378 31.592C37.374 31.974 37.759 33.152 37.516 35.072C37.314 36.668 37.542 38.217 38.022 38.514C38.502 38.811 38.72 38.141 38.505 37.027C38.29 35.912 38.539 35 39.057 35C39.576 35 40 35.886 40 36.969C40 38.354 40.469 38.757 41.584 38.329C42.823 37.854 42.886 37.548 41.874 36.922C40.864 36.298 41.011 35.631 42.54 33.889C43.681 32.589 43.874 32.029 43 32.55C40.352 34.128 39.421 33.819 39.212 31.292C38.919 27.745 38.36 27.209 35.524 27.751C33.983 28.045 33 27.775 33 27.058C33 26.411 33.52 26.203 34.155 26.595C34.939 27.08 35.034 26.864 34.452 25.922C33.98 25.159 33.472 23.852 33.323 23.018C33.174 22.183 32.765 20.043 32.414 18.262C32.063 16.482 32.052 14.307 32.389 13.429C33.25 11.184 35.562 12.256 35.205 14.736ZM45.702 38.631C45.044 39.289 43.707 39.61 39.266 40.176C38.312 40.298 38.3 40.657 39.213 41.757C40.229 42.981 40.558 42.957 41.558 41.59C43.076 39.514 43.992 39.573 44.032 41.75C44.061 43.383 44.156 43.379 45.445 41.678C46.781 39.916 46.837 39.916 47.186 41.678C47.411 42.811 47.809 43.083 48.241 42.397C49.087 41.056 46.747 37.586 45.702 38.631ZM53 43.118C53 44.218 52.579 44.858 52.064 44.539C51.549 44.221 51.192 43.101 51.271 42.05C51.459 39.558 53 40.511 53 43.118Z" fill="#1047A4"/>
<path fill-rule="evenodd" clip-rule="evenodd" d="M0 32V64H32H64V32V0H32H0V32ZM36.006 13.51C37.74 16.541 39.542 18.783 40.01 18.494C40.479 18.204 41.149 18.432 41.5 19C41.851 19.568 42.461 19.833 42.855 19.59C43.249 19.346 43.571 20.033 43.571 21.115C43.571 22.983 43.487 22.971 41.919 20.892C39.708 17.961 38.741 20.444 40.634 24.193C41.58 26.068 42.603 26.769 44.001 26.5C45.718 26.169 45.858 26.397 44.962 28.071C44.196 29.503 44.228 29.958 45.082 29.764C45.724 29.619 46.477 30.125 46.755 30.889C47.061 31.733 46.821 32.007 46.141 31.587C45.446 31.157 45.234 31.445 45.581 32.349C46.183 33.918 47.624 33.977 50 32.53C51.282 31.749 51.306 31.855 50.164 33.264C48.797 34.95 49.446 37.461 51 36.5C51.474 36.207 52.187 36.494 52.585 37.138C53.037 37.869 52.876 38.041 52.155 37.595C50.437 36.534 50.73 37.632 53.48 42.558C54.844 45.001 55.857 47.038 55.73 47.083C54.182 47.644 51.215 47.461 51.605 46.829C52.299 45.707 51.269 45.786 48.934 47.035C47.686 47.703 47 47.719 47 47.079C47 46.534 44.049 47.654 40.442 49.567C36.835 51.481 33.46 52.784 32.942 52.464C32.424 52.144 32 52.584 32 53.441C32 55.516 31.984 55.521 39.299 51.5C43.773 49.041 45.667 48.417 45.667 49.405C45.667 50.241 45.061 50.577 44.169 50.235C43.115 49.83 42.914 50.052 43.49 50.985C44.027 51.853 43.922 52.07 43.184 51.614C41.845 50.786 35.719 53.737 36.42 54.871C36.842 55.553 33.727 55.52 27.823 54.781C26.901 54.666 26.325 54.284 26.542 53.932C26.759 53.58 25.805 52.777 24.422 52.146C20.847 50.518 20.436 50.722 23.043 52.833C24.788 54.247 24.938 54.667 23.697 54.667C22.812 54.667 22.32 54.292 22.603 53.833C23.397 52.548 21.564 52.848 20.053 54.25C18.957 55.267 18.868 55.221 19.575 54C21.364 50.911 20.699 49.831 15.419 47.241C12.439 45.779 10 44.201 10 43.733C10 43.265 10.377 43.115 10.837 43.399C11.297 43.684 11.577 42.473 11.46 40.708C11.247 37.504 12.598 34.634 13.932 35.458C14.778 35.981 26.333 17.299 26.333 15.408C26.333 14.682 26.661 14.291 27.062 14.538C28.363 15.342 28.878 12.283 27.672 10.92C26.918 10.069 27.192 10.115 28.437 11.048C30.191 12.362 30.31 12.329 29.699 10.698C29.293 9.616 29.418 9.14 30.011 9.507C30.555 9.843 31 9.641 31 9.059C31 6.546 33.079 8.394 36.006 13.51ZM32.015 10.781C32.007 12.036 32.675 13.322 33.5 13.638C34.325 13.955 35 14.771 35 15.452C35 16.133 35.95 17.547 37.11 18.595C39.186 20.469 39.185 20.439 37.012 16.75C35.797 14.688 34.37 13 33.842 13C33.314 13 33.104 12.641 33.375 12.202C33.646 11.763 33.455 10.751 32.949 9.952C32.234 8.822 32.027 9.006 32.015 10.781ZM26.818 19.337C24.519 23.27 23.246 26.632 23.427 28.29C23.588 29.75 23.301 30.686 22.791 30.371C22.281 30.056 22.105 29.168 22.4 28.399C23.614 25.238 21.892 27.424 17.593 34.506L13.036 42.012L16.624 40.513C18.598 39.688 20.684 39.305 21.261 39.661C21.837 40.017 22.029 39.856 21.687 39.302C21.344 38.748 21.71 37.441 22.5 36.397C24.413 33.87 24.387 32.434 22.458 34.035C21.429 34.889 20.582 34.982 19.915 34.315C19.249 33.649 19.513 32.846 20.708 31.908C22.341 30.625 22.379 30.655 21.128 32.25C19.587 34.215 20.94 34.66 22.8 32.8C23.46 32.14 24 32.015 24 32.523C24 33.03 24.701 32.444 25.558 31.221C26.415 29.997 26.793 28.435 26.398 27.748C26.003 27.062 26.049 26.835 26.5 27.244C27.637 28.274 30.282 24.265 29.403 22.844C28.962 22.13 29.131 21.963 29.845 22.405C30.66 22.908 31 21.628 31 18.059C31 15.277 30.887 13.009 30.75 13.019C30.613 13.03 28.843 15.873 26.818 19.337ZM23.807 19.526C23.499 19.834 22.94 19.279 22.564 18.293C22.022 16.868 22.136 16.753 23.124 17.733C23.808 18.412 24.115 19.219 23.807 19.526ZM30 19.833C30 20.292 29.345 20.667 28.544 20.667C27.743 20.667 27.32 20.292 27.603 19.833C27.886 19.375 28.541 19 29.059 19C29.577 19 30 19.375 30 19.833ZM32.015 21.191C32.007 22.121 32.45 23.16 33 23.5C34.266 24.282 34.266 22.958 33 21C32.165 19.707 32.029 19.734 32.015 21.191ZM42.807 25.526C42.499 25.834 41.94 25.279 41.564 24.293C41.022 22.868 41.136 22.753 42.124 23.733C42.808 24.412 43.115 25.219 42.807 25.526ZM32.079 26.75C32.026 28.262 32.574 28.995 33.75 28.985C34.829 28.975 35.078 28.688 34.4 28.235C33.795 27.831 33.043 26.825 32.729 26C32.347 24.998 32.132 25.247 32.079 26.75ZM18.124 28.267C17.136 29.247 17.022 29.132 17.564 27.707C17.94 26.721 18.499 26.166 18.807 26.474C19.115 26.781 18.808 27.588 18.124 28.267ZM26.548 33.054C22.546 39.882 22.371 40.455 24.552 39.618C25.406 39.291 25.858 39.421 25.558 39.907C25.257 40.393 25.707 41.057 26.558 41.384C27.577 41.775 27.886 41.555 27.465 40.739C27.114 40.057 27.751 40.625 28.881 42L30.936 44.5L30.887 35.75C30.861 30.938 30.672 27 30.467 27C30.263 27 28.499 29.724 26.548 33.054ZM36.7 27.633C36.069 28.264 40.105 34.967 41.128 34.988C41.473 34.994 42.351 34.212 43.079 33.25C44.198 31.772 44.189 31.691 43.026 32.726C41.318 34.246 39 32.64 39 29.937C39 28.004 37.665 26.668 36.7 27.633ZM28 35C28 35.55 27.523 36 26.941 36C26.359 36 26.16 35.55 26.5 35C26.84 34.45 27.316 34 27.559 34C27.802 34 28 34.45 28 35ZM37.314 35.974C37.768 38.949 38.6 39.268 38.6 36.467C38.6 35.11 38.243 34 37.806 34C37.37 34 37.148 34.888 37.314 35.974ZM20.128 36.75C21.371 38.336 21.336 38.371 19.75 37.128C18.788 36.373 18 35.585 18 35.378C18 34.555 18.821 35.084 20.128 36.75ZM12.667 36.667C12.3 37.033 12 37.798 12 38.367C12 38.993 12.466 38.934 13.183 38.217C13.834 37.566 14.134 36.801 13.85 36.517C13.566 36.233 13.033 36.3 12.667 36.667ZM48.032 37.25C48.069 38.694 50.403 42 51.386 42C51.752 42 51.353 40.65 50.5 39C48.854 35.817 47.98 35.197 48.032 37.25ZM18.397 37.833C18.68 38.292 18.277 38.667 17.5 38.667C16.723 38.667 16.32 38.292 16.603 37.833C16.886 37.375 17.29 37 17.5 37C17.71 37 18.114 37.375 18.397 37.833ZM45.575 38.879C45.265 39.38 45.684 40.048 46.506 40.364C47.328 40.679 48 40.528 48 40.028C48 38.672 46.223 37.83 45.575 38.879ZM32.079 41.872C32.017 43.747 32.281 44.011 33.342 43.131C34.08 42.519 35.052 42.351 35.502 42.759C35.952 43.166 35.992 42.93 35.591 42.234C35.19 41.537 34.481 41.203 34.016 41.49C33.551 41.777 32.943 41.447 32.664 40.756C32.386 40.065 32.122 40.568 32.079 41.872ZM16.75 42.299C15.238 42.897 14 43.701 14 44.086C14 45.174 17.057 46.083 18.245 45.349C18.834 44.985 19.019 45.159 18.66 45.741C17.881 47.001 20.736 48.281 22.245 47.349C22.857 46.97 23.017 47.163 22.622 47.803C21.772 49.178 27.604 52.363 29.184 51.386C29.87 50.962 30.031 51.141 29.595 51.845C29.203 52.48 29.359 53 29.941 53C30.523 53 31 51.444 31 49.542C31 46.52 30.453 45.764 26.662 43.542C21.958 40.785 20.913 40.654 16.75 42.299ZM44 42.059C44 42.641 44.45 42.84 45 42.5C45.55 42.16 46 41.684 46 41.441C46 41.198 45.55 41 45 41C44.45 41 44 41.477 44 42.059ZM48.667 43.667C47.404 44.929 48.003 46.213 49.572 45.611C50.437 45.279 52.125 45.486 53.322 46.071C55.171 46.973 55.122 46.825 53 45.089C50.273 42.859 49.672 42.661 48.667 43.667ZM43.493 53.989C43.843 54.555 43.442 54.723 42.552 54.382C40.82 53.717 40.503 53 41.941 53C42.459 53 43.157 53.445 43.493 53.989Z" fill="#003E9B"/>
<path fill-rule="evenodd" clip-rule="evenodd" d="M29.507 9.977C29.002 11.568 28.509 11.837 27.553 11.044C26.553 10.214 26.385 10.563 26.782 12.64C27.139 14.505 26.941 15.082 26.12 14.574C25.425 14.144 25.062 14.388 25.225 15.176C25.383 15.937 24.71 16.433 23.643 16.343C22.286 16.229 22.084 16.484 22.893 17.293C24.286 18.686 24.348 20.333 22.975 19.485C22.412 19.136 22.01 19.222 22.083 19.676C22.332 21.219 20.77 25 19.883 25C19.398 25 19 25.702 19 26.559C19 27.483 18.53 27.827 17.845 27.405C17.141 26.969 16.962 27.13 17.387 27.817C18.304 29.301 15.084 34.17 13.736 33.337C13.125 32.959 12.989 33.174 13.409 33.852C13.803 34.491 13.271 36.248 12.226 37.757C9.515 41.67 8.949 43.667 10.551 43.667C11.3 43.667 11.676 43.285 11.388 42.818C11.099 42.351 15.436 34.518 21.025 25.411C26.613 16.304 30.96 8.627 30.684 8.351C30.408 8.075 29.879 8.807 29.507 9.977ZM32.667 8.667C31.447 9.886 31.978 13.054 33.5 13.638C34.325 13.955 35 14.771 35 15.452C35 17.2 38.494 20.157 39.49 19.252C39.946 18.838 40.071 19.198 39.767 20.05C39.066 22.022 41.415 26.492 43.169 26.524C43.901 26.537 44.44 27.307 44.368 28.235C44.295 29.163 44.689 29.827 45.243 29.711C45.797 29.595 46.477 30.125 46.755 30.889C47.061 31.733 46.821 32.007 46.141 31.587C45.434 31.15 45.238 31.455 45.606 32.416C45.927 33.253 46.71 33.838 47.345 33.718C47.98 33.598 48.398 34.4 48.273 35.5C48.014 37.781 49.911 42 51.195 42C51.666 42 51.353 40.65 50.5 39C49.647 37.35 49.174 36 49.449 36C49.724 36 50.708 37.462 51.636 39.25C52.627 41.161 53.504 41.961 53.764 41.192C54.007 40.473 53.44 39.039 52.505 38.005C51.569 36.972 51.107 35.637 51.476 35.038C51.846 34.44 51.778 34.074 51.324 34.225C50.871 34.376 50.426 34.1 50.335 33.612C50.245 33.123 49.778 32.448 49.298 32.112C47.306 30.714 41.987 21.475 42.462 20.237C42.746 19.5 42.571 19.147 42.074 19.454C41.16 20.019 37.434 14.74 36.829 12.024C36.505 10.571 34.53 8 33.738 8C33.515 8 33.033 8.3 32.667 8.667ZM36.408 14.5C37.893 17.25 38.521 18.639 37.804 17.588C37.087 16.536 35.825 14.942 35 14.045C34.175 13.148 33.345 11.534 33.155 10.457C32.707 7.917 33.149 8.467 36.408 14.5ZM28.253 16.954C26.852 19.405 26.391 21.123 27.028 21.517C27.59 21.864 27.985 21.778 27.906 21.324C27.555 19.3 28.084 17.934 29 18.5C30.51 19.433 30.2 22.658 28.429 24.429C27.564 25.293 27.349 26 27.95 26C29.93 26 31.532 21.081 30.23 18.997C29.419 17.699 29.395 17.035 30.15 16.783C30.743 16.586 31.064 15.659 30.864 14.723C30.602 13.501 29.868 14.128 28.253 16.954ZM32.015 21.191C32.007 22.121 32.45 23.16 33 23.5C34.266 24.282 34.266 22.958 33 21C32.165 19.707 32.029 19.734 32.015 21.191ZM21.725 27.75C18.594 32.789 18.328 33.695 19.576 35.079C21.633 37.36 21.336 38.1 18.564 37.597C16.787 37.275 15.693 37.819 14.52 39.61L12.912 42.063L16.562 40.538C18.57 39.7 20.727 39.307 21.356 39.667C21.985 40.026 22.168 39.954 21.763 39.507C21.358 39.059 21.965 37.075 23.112 35.097C24.821 32.15 24.859 31.911 23.325 33.776C21.908 35.499 21.171 35.771 20.296 34.896C19.421 34.021 19.767 32.738 21.719 29.62C23.138 27.354 24.569 25.275 24.899 25C25.579 24.434 26.187 22 25.649 22C25.456 22 23.69 24.587 21.725 27.75ZM42.807 25.526C42.499 25.834 41.94 25.279 41.564 24.293C41.022 22.868 41.136 22.753 42.124 23.733C42.808 24.412 43.115 25.219 42.807 25.526ZM32.079 26.75C32.026 28.262 32.574 28.995 33.75 28.985C34.829 28.975 35.078 28.688 34.4 28.235C33.795 27.831 33.043 26.825 32.729 26C32.347 24.998 32.132 25.247 32.079 26.75ZM25.429 29.167C25.429 30.175 25.541 31 25.679 31C25.817 31 26.371 30.175 26.911 29.167C27.615 27.85 27.545 27.333 26.66 27.333C25.983 27.333 25.429 28.158 25.429 29.167ZM28.771 29.25C27.968 30.488 26.736 32.625 26.032 34L24.753 36.5L26.936 34.228C28.137 32.978 29.43 32.147 29.81 32.38C30.189 32.614 30.594 31.499 30.71 29.903C30.962 26.41 30.675 26.313 28.771 29.25ZM36.7 27.633C36.069 28.264 40.105 34.967 41.128 34.988C41.473 34.994 42.351 34.212 43.079 33.25C44.198 31.772 44.189 31.691 43.026 32.726C41.318 34.246 39 32.64 39 29.937C39 28.004 37.665 26.668 36.7 27.633ZM37.314 35.974C37.768 38.949 38.6 39.268 38.6 36.467C38.6 35.11 38.243 34 37.806 34C37.37 34 37.148 34.888 37.314 35.974ZM29.429 36.927C29.429 37.986 29.782 38.635 30.214 38.368C30.646 38.1 31 37.234 31 36.441C31 35.648 30.646 35 30.214 35C29.782 35 29.429 35.867 29.429 36.927ZM23.729 37.604C22.452 38.881 22.929 39.649 25.75 40.856C27.995 41.816 28.208 41.8 26.912 40.766C26.039 40.07 25.13 38.909 24.891 38.188C24.653 37.466 24.13 37.203 23.729 37.604ZM45.575 38.879C45.265 39.38 45.684 40.048 46.506 40.364C47.328 40.679 48 40.528 48 40.028C48 38.672 46.223 37.83 45.575 38.879ZM32.079 41.872C32.017 43.747 32.281 44.011 33.342 43.131C34.08 42.519 35.052 42.351 35.502 42.759C35.952 43.166 35.992 42.93 35.591 42.234C35.19 41.537 34.481 41.203 34.016 41.49C33.551 41.777 32.943 41.447 32.664 40.756C32.386 40.065 32.122 40.568 32.079 41.872ZM16.75 42.299C13.377 43.632 13.301 44.36 16.387 45.767C18.498 46.728 18.717 46.632 18.274 44.939C17.687 42.696 20.777 41.021 21.963 42.94C22.381 43.617 22.898 44.101 23.112 44.015C24.003 43.658 29.518 46.218 30.214 47.313C30.793 48.223 30.973 48.218 30.985 47.292C31.003 45.878 22.979 40.951 20.912 41.106C20.135 41.165 18.262 41.702 16.75 42.299ZM29.543 41.931C29.226 42.443 29.425 43.144 29.984 43.49C30.543 43.835 31 43.416 31 42.559C31 40.802 30.4 40.544 29.543 41.931ZM44 42.059C44 42.641 44.45 42.84 45 42.5C45.55 42.16 46 41.684 46 41.441C46 41.198 45.55 41 45 41C44.45 41 44 41.477 44 42.059ZM48.667 43.667C47.242 45.091 48.106 46.106 50.25 45.526C52.316 44.966 52.296 45.037 50 46.386C48.625 47.195 47.361 47.472 47.192 47.003C47.022 46.534 43.958 47.702 40.384 49.598C36.809 51.495 33.46 52.784 32.942 52.464C32.424 52.144 32 52.584 32 53.441C32 55.391 33.065 55.418 35.559 53.532C36.626 52.724 37.95 52.057 38.5 52.049C39.05 52.04 38.002 52.993 36.172 54.165C32.942 56.233 32.735 56.244 29.172 54.563L25.5 52.83L27.708 54.915C30.443 57.497 32.604 57.539 36.627 55.086C41.16 52.322 52.958 46 53.584 46C53.878 46 53.797 46.52 53.405 47.155C52.936 47.913 53.133 48.036 53.982 47.511C54.951 46.912 54.679 46.258 52.886 44.879C50.253 42.855 49.652 42.682 48.667 43.667ZM9.543 45.931C9.226 46.443 9.494 47.187 10.138 47.585C10.869 48.037 11.041 47.876 10.595 47.155C9.552 45.466 10.269 45.683 16.626 48.981C19.786 50.62 22.521 51.812 22.704 51.63C23.049 51.285 11.64 45 10.669 45C10.366 45 9.859 45.419 9.543 45.931ZM21.013 48.083C23.207 49.55 29.836 53 30.46 53C30.757 53 31 52.305 31 51.456C31 50.607 30.438 49.981 29.75 50.065C28.005 50.277 24 48.906 24 48.096C24 47.727 22.993 47.35 21.763 47.257C19.97 47.122 19.821 47.286 21.013 48.083ZM46 48.474C46 49.081 40.359 52.014 39.3 51.958C38.86 51.935 40.075 51.054 42 50C45.941 47.842 46 47.82 46 48.474Z" fill="#153D83"/>
<path fill-rule="evenodd" clip-rule="evenodd" d="M29.564 9.707C29.022 11.132 29.136 11.247 30.124 10.267C30.808 9.588 31.115 8.781 30.807 8.474C30.499 8.166 29.94 8.721 29.564 9.707ZM32.667 8.667C31.447 9.886 31.978 13.054 33.5 13.638C34.325 13.955 35 14.771 35 15.452C35 17.19 38.494 20.162 39.468 19.252C39.911 18.838 40.049 19.175 39.774 20C39.499 20.825 39.899 22.738 40.663 24.25C42.177 27.249 43.325 28.012 42.299 25.336C41.822 24.095 42.014 23.891 43.053 24.533C43.837 25.017 43.492 23.888 42.263 21.947C41.063 20.051 39.5 18.498 38.79 18.495C38.081 18.493 37.5 17.37 37.5 16C37.5 14.63 36.938 13.451 36.25 13.38C35.563 13.308 34.523 13.194 33.941 13.125C33.359 13.056 33.165 12.543 33.51 11.984C33.856 11.425 34.526 11.207 35 11.5C35.474 11.793 36.13 11.599 36.458 11.069C36.789 10.532 36.155 10.277 35.027 10.495C32.825 10.919 32.217 9.483 34.25 8.662C34.948 8.381 35.021 8.123 34.417 8.079C33.821 8.036 33.033 8.3 32.667 8.667ZM26.707 11.989C26.993 13.083 27.648 13.718 28.162 13.4C28.714 13.059 28.617 12.244 27.926 11.411C26.349 9.51 26.091 9.632 26.707 11.989ZM30.079 15.583C30.127 16.748 30.364 16.985 30.683 16.188C30.972 15.466 30.936 14.603 30.604 14.271C30.272 13.939 30.036 14.529 30.079 15.583ZM27.032 18.939C26.323 20.265 26.32 21.08 27.022 21.514C27.587 21.863 27.985 21.778 27.906 21.324C27.828 20.871 27.816 19.882 27.882 19.128C27.982 17.964 28.267 17.964 29.75 19.128C31.336 20.371 31.371 20.336 30.128 18.75C28.413 16.564 28.3 16.57 27.032 18.939ZM22.613 20.183C22.902 20.65 23.557 20.774 24.069 20.457C25.377 19.649 25.23 19.333 23.544 19.333C22.743 19.333 22.324 19.716 22.613 20.183ZM32.015 21.191C32.007 22.121 32.45 23.16 33 23.5C34.266 24.282 34.266 22.958 33 21C32.165 19.707 32.029 19.734 32.015 21.191ZM41.807 23.526C41.499 23.834 40.94 23.279 40.564 22.293C40.022 20.868 40.136 20.753 41.124 21.733C41.808 22.412 42.115 23.219 41.807 23.526ZM23.88 24.25C23.225 25.488 22.036 27.625 21.239 29C19.867 31.365 19.877 31.392 21.413 29.5C24.889 25.221 25.508 24.318 25.75 23.179C26.157 21.26 25.16 21.831 23.88 24.25ZM28.732 24C27.79 25.1 27.449 26 27.975 26C28.5 26 29.411 25.1 30 24C30.589 22.9 30.93 22 30.757 22C30.585 22 29.674 22.9 28.732 24ZM19 26.559C19 27.483 18.53 27.827 17.845 27.405C17.13 26.962 16.962 27.13 17.405 27.845C18.386 29.433 18.764 29.31 20 27C20.726 25.644 20.737 25 20.035 25C19.466 25 19 25.702 19 26.559ZM32.079 26.75C32.026 28.262 32.574 28.995 33.75 28.985C34.829 28.975 35.078 28.688 34.4 28.235C33.795 27.831 33.043 26.825 32.729 26C32.347 24.998 32.132 25.247 32.079 26.75ZM44.429 27.929C44.429 28.989 44.838 29.777 45.339 29.679C45.84 29.58 46.477 30.125 46.755 30.889C47.061 31.733 46.821 32.007 46.141 31.587C45.413 31.137 45.246 31.476 45.66 32.558C46.237 34.061 46.383 34.068 47.186 32.631C47.778 31.575 47.522 30.2 46.422 28.522C44.44 25.496 44.429 25.493 44.429 27.929ZM25.429 29.167C25.429 30.175 25.541 31 25.679 31C25.817 31 26.371 30.175 26.911 29.167C27.615 27.85 27.545 27.333 26.66 27.333C25.983 27.333 25.429 28.158 25.429 29.167ZM36.7 27.633C36.069 28.264 40.105 34.967 41.128 34.988C41.473 34.994 42.351 34.212 43.079 33.25C44.198 31.772 44.189 31.691 43.026 32.726C41.318 34.246 39 32.64 39 29.937C39 28.004 37.665 26.668 36.7 27.633ZM15.985 32.028C15.388 33.143 14.403 33.749 13.795 33.373C13.157 32.979 12.972 33.146 13.357 33.769C13.723 34.361 13.073 36.456 11.913 38.423C10.752 40.39 10.027 42 10.302 42C10.577 42 11.688 40.499 12.771 38.664C13.854 36.829 15.525 34.129 16.485 32.664C17.445 31.199 17.969 30 17.65 30C17.331 30 16.582 30.913 15.985 32.028ZM27.278 32.25C25.779 34.188 24.836 36 25.326 36C25.57 36 26.507 34.875 27.408 33.5C29.094 30.927 29 30.024 27.278 32.25ZM18.57 32.887C18.269 33.374 18.805 34.387 19.761 35.137C21.297 36.341 21.355 36.314 20.259 34.908C19.576 34.032 19.313 33.02 19.675 32.658C20.037 32.296 20.06 32 19.726 32C19.391 32 18.871 32.399 18.57 32.887ZM23 34C22.411 35.1 22.155 36 22.43 36C22.705 36 23.411 35.1 24 34C24.589 32.9 24.845 32 24.57 32C24.295 32 23.589 32.9 23 34ZM48.543 32.931C48.226 33.443 48.35 34.098 48.817 34.387C49.284 34.676 49.667 34.257 49.667 33.456C49.667 31.77 49.351 31.623 48.543 32.931ZM37.314 35.974C37.768 38.949 38.6 39.268 38.6 36.467C38.6 35.11 38.243 34 37.806 34C37.37 34 37.148 34.888 37.314 35.974ZM29.429 37C29.429 38.295 29.767 38.633 30.414 37.986C31.062 37.338 31.062 36.662 30.414 36.014C29.767 35.367 29.429 35.705 29.429 37ZM48.032 37.338C48.07 38.721 50.435 42 51.395 42C51.767 42 51.605 41.13 51.035 40.066C49.661 37.499 49.729 36.726 51.25 37.601C51.938 37.997 52.149 37.935 51.721 37.465C50.508 36.132 47.996 36.046 48.032 37.338ZM15.277 38.362C14.954 38.883 15.211 38.988 15.845 38.595C16.48 38.203 17 38.311 17 38.835C17 39.359 18.05 39.724 19.333 39.644C20.617 39.565 21.667 39.048 21.667 38.496C21.667 37.216 16.057 37.098 15.277 38.362ZM45.575 38.879C45.265 39.38 45.684 40.048 46.506 40.364C47.328 40.679 48 40.528 48 40.028C48 38.672 46.223 37.83 45.575 38.879ZM23.083 39.365C23.313 39.565 24.625 40.265 26 40.92C28.357 42.042 28.389 42.022 26.559 40.555C24.966 39.279 21.711 38.164 23.083 39.365ZM52.564 40.293C52.94 41.279 53.499 41.834 53.807 41.526C54.115 41.219 53.808 40.412 53.124 39.733C52.136 38.753 52.022 38.868 52.564 40.293ZM32.079 41.872C32.017 43.747 32.281 44.011 33.342 43.131C34.08 42.519 35.052 42.351 35.502 42.759C35.952 43.166 35.992 42.93 35.591 42.234C35.19 41.537 34.481 41.203 34.016 41.49C33.551 41.777 32.943 41.447 32.664 40.756C32.386 40.065 32.122 40.568 32.079 41.872ZM16.687 42.407C13.837 43.668 14.004 44.253 17.85 46.465C18.933 47.088 18.982 46.836 18.101 45.188C17.174 43.457 17.335 43.028 19.126 42.46C20.458 42.037 21.57 42.292 22.11 43.143C22.779 44.2 22.973 44.113 22.985 42.75C23.002 40.718 20.778 40.597 16.687 42.407ZM29.543 41.931C29.226 42.443 29.35 43.098 29.817 43.387C30.284 43.676 30.667 43.257 30.667 42.456C30.667 40.77 30.351 40.623 29.543 41.931ZM44 42.059C44 42.641 44.45 42.84 45 42.5C45.55 42.16 46 41.684 46 41.441C46 41.198 45.55 41 45 41C44.45 41 44 41.477 44 42.059ZM24.433 42.891C25.146 44.045 29 46.374 29 45.65C29 45.419 27.82 44.457 26.377 43.511C24.934 42.566 24.059 42.287 24.433 42.891ZM48.431 44.112C47.498 45.622 50.063 47.091 52.375 46.37C53.715 45.952 54.028 46.146 53.471 47.047C52.935 47.915 53.094 48.06 53.982 47.511C54.951 46.912 54.679 46.258 52.886 44.879C50.092 42.731 49.362 42.605 48.431 44.112ZM9.543 45.931C9.226 46.443 9.494 47.187 10.138 47.585C10.869 48.037 11.041 47.876 10.595 47.155C9.709 45.72 10.493 45.692 13.316 47.055C15.426 48.074 15.434 48.057 13.559 46.555C11.328 44.768 10.355 44.617 9.543 45.931ZM40.188 49.602C36.716 51.494 33.454 52.781 32.938 52.462C32.422 52.143 32 52.535 32 53.334C32 55.33 34.741 56.209 37.072 54.961C39.479 53.673 39.592 52.854 37.25 53.679C35.819 54.182 35.729 54.048 36.754 52.944C37.443 52.201 39.243 51.555 40.754 51.508C42.493 51.455 43.393 50.934 43.209 50.089C43.023 49.235 43.491 48.975 44.511 49.366C45.561 49.769 45.86 49.582 45.388 48.819C44.914 48.052 45.218 47.87 46.285 48.279C47.418 48.714 47.733 48.467 47.342 47.449C47.036 46.652 46.722 46.037 46.643 46.081C46.564 46.126 43.66 47.711 40.188 49.602ZM20 47.455C20 48.227 22.976 48.847 23.399 48.164C23.653 47.752 22.993 47.35 21.931 47.27C20.869 47.19 20 47.273 20 47.455ZM16 48.393C16 48.609 16.698 49.054 17.552 49.382C18.442 49.723 18.843 49.555 18.493 48.989C17.906 48.038 16 47.583 16 48.393ZM20.733 51.124C21.412 51.808 22.219 52.115 22.526 51.807C22.834 51.499 22.279 50.94 21.293 50.564C19.868 50.022 19.753 50.136 20.733 51.124ZM29.333 51.456C29.333 52.257 29.708 52.68 30.167 52.397C30.625 52.114 31 51.459 31 50.941C31 50.423 30.625 50 30.167 50C29.708 50 29.333 50.655 29.333 51.456Z" fill="#003184"/>
<path fill-rule="evenodd" clip-rule="evenodd" d="M32.015 10.781C32.007 12.036 32.675 13.322 33.5 13.638C34.325 13.955 35 14.771 35 15.452C35 16.133 35.95 17.547 37.11 18.595C39.186 20.469 39.185 20.439 37.012 16.75C35.797 14.688 34.37 13 33.842 13C33.314 13 33.104 12.641 33.375 12.202C33.646 11.763 33.455 10.751 32.949 9.952C32.234 8.822 32.027 9.006 32.015 10.781ZM32.015 21.191C32.007 22.121 32.45 23.16 33 23.5C34.266 24.282 34.266 22.958 33 21C32.165 19.707 32.029 19.734 32.015 21.191ZM40.5 24C41.353 25.65 42.276 27 42.551 27C42.826 27 42.353 25.65 41.5 24C40.647 22.35 39.724 21 39.449 21C39.174 21 39.647 22.35 40.5 24ZM32.079 26.75C32.026 28.262 32.574 28.995 33.75 28.985C34.829 28.975 35.078 28.688 34.4 28.235C33.795 27.831 33.043 26.825 32.729 26C32.347 24.998 32.132 25.247 32.079 26.75ZM36.7 27.633C36.069 28.264 40.105 34.967 41.128 34.988C41.473 34.994 42.351 34.212 43.079 33.25C44.198 31.772 44.189 31.691 43.026 32.726C41.318 34.246 39 32.64 39 29.937C39 28.004 37.665 26.668 36.7 27.633ZM45.564 32.293C45.94 33.279 46.499 33.834 46.807 33.526C47.115 33.219 46.808 32.412 46.124 31.733C45.136 30.753 45.022 30.868 45.564 32.293ZM37.314 35.974C37.768 38.949 38.6 39.268 38.6 36.467C38.6 35.11 38.243 34 37.806 34C37.37 34 37.148 34.888 37.314 35.974ZM48.032 37.25C48.069 38.694 50.403 42 51.386 42C51.752 42 51.353 40.65 50.5 39C48.854 35.817 47.98 35.197 48.032 37.25ZM45.575 38.879C45.265 39.38 45.684 40.048 46.506 40.364C47.328 40.679 48 40.528 48 40.028C48 38.672 46.223 37.83 45.575 38.879ZM32.079 41.872C32.017 43.747 32.281 44.011 33.342 43.131C34.08 42.519 35.052 42.351 35.502 42.759C35.952 43.166 35.992 42.93 35.591 42.234C35.19 41.537 34.481 41.203 34.016 41.49C33.551 41.777 32.943 41.447 32.664 40.756C32.386 40.065 32.122 40.568 32.079 41.872ZM44 42.059C44 42.641 44.45 42.84 45 42.5C45.55 42.16 46 41.684 46 41.441C46 41.198 45.55 41 45 41C44.45 41 44 41.477 44 42.059ZM48.459 44.067C47.542 45.55 48.404 46.166 50.351 45.419C51.252 45.073 51.74 44.388 51.435 43.895C50.687 42.684 49.263 42.766 48.459 44.067ZM40.188 49.666C36.716 51.523 33.454 52.781 32.938 52.462C32.422 52.143 32 52.584 32 53.441C32 55.52 31.94 55.536 39.716 51.328C47.45 47.143 47.479 47.124 46.917 46.646C46.688 46.451 43.66 47.81 40.188 49.666Z" fill="#E6FFFF"/>
</svg>
