<svg width="64" height="64" viewBox="0 0 64 64" fill="none" xmlns="http://www.w3.org/2000/svg">
<path fill-rule="evenodd" clip-rule="evenodd" d="M21.332 1.79C-5.456 11.362 -7.233 48.491 18.5 60.973C22.584 62.954 25.058 63.4 32 63.409C39.303 63.417 41.234 63.038 45.717 60.71C52.624 57.122 57.678 51.915 60.88 45.086C63.051 40.458 63.489 38.128 63.436 31.5C63.363 22.448 61.358 17.114 55.418 10.175C47.951 1.452 32.747 -2.288 21.332 1.79Z" fill="#A29EA1"/>
<path fill-rule="evenodd" clip-rule="evenodd" d="M21.332 1.79C7.343 6.789 -0.956 19.735 0.376 34.482C1.057 42.023 2.268 45.087 6.843 50.849C11.211 56.35 13.399 58.384 16.517 59.84C17.883 60.478 20.08 61.502 21.4 62.116C24.111 63.376 36.089 63.815 40.226 62.806C47.941 60.925 56.764 53.662 59.919 46.596C66.213 32.5 64.81 21.147 55.418 10.175C47.951 1.452 32.747 -2.288 21.332 1.79ZM37.601 26.51C37.479 27.341 36.778 28.578 36.043 29.26C34.96 30.265 34.874 30.216 35.588 29C36.073 28.175 36.533 27.163 36.61 26.75C36.889 25.257 37.007 25 37.412 25C37.638 25 37.723 25.68 37.601 26.51ZM21.5 29C21.88 29.614 20.456 29.949 17.809 29.868L13.5 29.737L17 29C18.925 28.595 20.586 28.204 20.691 28.132C20.796 28.059 21.16 28.45 21.5 29ZM34 29C34 29.55 32.763 29.955 31.25 29.9L28.5 29.801L31 29C32.375 28.56 33.612 28.155 33.75 28.1C33.888 28.045 34 28.45 34 29ZM17.082 31C18.687 31 20 31.45 20 32C20 32.55 19.325 33 18.5 33C17.675 33 17 33.45 17 34C17 34.55 15.762 34.955 14.25 34.9L11.5 34.801L14 34C15.375 33.56 15.905 33.155 15.179 33.1C14.452 33.045 13.102 32.238 12.179 31.306C10.606 29.719 10.616 29.656 12.332 30.306C13.339 30.688 15.477 31 17.082 31ZM53.738 30.692C52.769 30.945 52.182 31.486 52.435 31.895C52.688 32.304 51.457 32.427 49.699 32.169C46.958 31.767 46.788 31.589 48.502 30.92C49.601 30.491 51.625 30.161 53 30.186C54.649 30.216 54.9 30.389 53.738 30.692ZM29.345 31.75C29.6 32.163 28.545 32.5 27 32.5C25.455 32.5 24.4 32.163 24.655 31.75C24.909 31.337 25.965 31 27 31C28.035 31 29.091 31.337 29.345 31.75ZM34 31.378C34 31.585 33.315 32.324 32.477 33.019C31.204 34.076 31.057 34.014 31.584 32.641C32.122 31.24 34 30.257 34 31.378ZM41 31.387C41 31.599 39.674 31.968 38.053 32.206C36.432 32.443 35.333 32.27 35.612 31.819C36.107 31.017 41 30.625 41 31.387ZM40.5 34C40.16 34.55 38.671 34.947 37.191 34.882L34.5 34.763L37.5 34C39.15 33.58 40.639 33.183 40.809 33.118C40.979 33.053 40.84 33.45 40.5 34ZM26.75 34.689C25.788 34.941 24.212 34.941 23.25 34.689C22.288 34.438 23.075 34.232 25 34.232C26.925 34.232 27.712 34.438 26.75 34.689ZM50.269 34.656C49.592 34.93 48.242 34.947 47.269 34.693C46.296 34.439 46.85 34.215 48.5 34.195C50.15 34.175 50.946 34.382 50.269 34.656Z" fill="#5D585C"/>
<path fill-rule="evenodd" clip-rule="evenodd" d="M21.332 1.79C7.343 6.789 -0.956 19.735 0.376 34.482C1.057 42.023 2.268 45.087 6.843 50.849C11.211 56.35 13.399 58.384 16.517 59.84C17.883 60.478 20.08 61.502 21.4 62.116C24.111 63.376 36.089 63.815 40.226 62.806C47.941 60.925 56.764 53.662 59.919 46.596C66.213 32.5 64.81 21.147 55.418 10.175C47.951 1.452 32.747 -2.288 21.332 1.79ZM45.25 17.662C44.563 17.94 43.438 17.94 42.75 17.662C42.063 17.385 42.625 17.158 44 17.158C45.375 17.158 45.938 17.385 45.25 17.662ZM30 18.378C30 18.585 29.212 19.373 28.25 20.128C26.664 21.371 26.629 21.336 27.872 19.75C29.179 18.084 30 17.555 30 18.378ZM37 19.883C37 20.369 35.987 21.022 34.75 21.334C32.577 21.881 32.566 21.851 34.441 20.45C36.705 18.759 37 18.693 37 19.883ZM50.662 24.25C50.385 24.938 50.158 24.375 50.158 23C50.158 21.625 50.385 21.063 50.662 21.75C50.94 22.438 50.94 23.563 50.662 24.25ZM27.49 26.016C27.144 26.575 26.481 26.797 26.016 26.51C25.551 26.223 25.011 26.466 24.816 27.051C24.606 27.682 23.656 27.805 22.481 27.353C20.635 26.644 20.67 26.545 23 25.896C26.76 24.848 28.188 24.887 27.49 26.016ZM37.787 28C37.294 31.356 38.549 31.892 40.714 29.25C41.503 28.288 41.895 28.011 41.585 28.636C41.276 29.261 41.917 30.007 43.011 30.293C45.069 30.831 45.814 33 43.941 33C43.359 33 43.16 32.55 43.5 32C43.84 31.45 43.416 31 42.559 31C41.204 31 40.494 32.797 40.882 35.25C40.947 35.663 38.862 35.968 36.25 35.93C32.676 35.877 31.995 35.647 33.5 35C34.6 34.527 36.513 34.109 37.75 34.07C38.987 34.032 40 33.498 40 32.883C40 32.255 38.986 31.961 37.68 32.21C35.293 32.667 34.706 30.903 36.356 28.232C36.904 27.346 36.05 26.96 33.309 26.858L29.5 26.716L33.5 26C35.7 25.606 37.664 25.22 37.863 25.142C38.063 25.064 38.029 26.35 37.787 28ZM45.729 26.604C45.397 26.936 44.534 26.972 43.813 26.683C43.015 26.364 43.252 26.127 44.417 26.079C45.471 26.036 46.061 26.272 45.729 26.604ZM50.683 28.188C50.364 28.985 50.127 28.748 50.079 27.583C50.036 26.529 50.272 25.939 50.604 26.271C50.936 26.603 50.972 27.466 50.683 28.188ZM20.354 28.501C21.924 29.32 23.611 29.74 24.104 29.436C24.597 29.131 25 29.359 25 29.941C25 30.523 25.873 31 26.941 31C29.316 31 30.471 32.591 28.833 33.603C27.996 34.12 28.218 34.568 29.566 35.08C30.63 35.485 25.97 35.842 19.211 35.875C11.935 35.91 7.155 35.558 7.493 35.011C7.807 34.503 8.612 34.291 9.282 34.539C9.952 34.787 11.85 34.581 13.5 34.081C15.15 33.581 15.905 33.133 15.179 33.086C14.452 33.039 13.213 32.356 12.426 31.568C11.183 30.326 11.261 30.052 13.011 29.496C14.121 29.144 14.771 28.438 14.456 27.928C13.568 26.493 17.175 26.843 20.354 28.501ZM34.326 29.406C34.622 30.179 34.027 31.571 33.002 32.498C31.237 34.096 31.168 34.074 31.686 32.092C32.075 30.606 31.765 30 30.617 30C29.727 30 29 29.55 29 29C29 27.458 33.716 27.817 34.326 29.406ZM14.762 30.707C16.006 30.946 17.806 30.937 18.762 30.687C19.718 30.437 18.7 30.241 16.5 30.252C14.3 30.263 13.518 30.468 14.762 30.707ZM21.232 32.47C21.077 34.344 21.466 34.585 24.038 34.208C25.681 33.967 27.314 33.3 27.669 32.727C28.074 32.071 27.512 31.894 26.155 32.249C24.968 32.56 24.218 32.457 24.487 32.02C24.757 31.584 24.175 31.018 23.195 30.761C21.919 30.428 21.361 30.914 21.232 32.47ZM53.5 31.017C52.4 31.48 51.893 31.891 52.372 31.93C52.852 31.968 52.627 32.759 51.872 33.687C50.667 35.17 50.719 35.292 52.302 34.699C53.384 34.293 53.86 34.418 53.493 35.011C52.656 36.366 43.282 36.266 42.434 34.893C41.973 34.148 42.445 34.006 43.875 34.46C45.044 34.831 46 34.717 46 34.206C46 33.695 47.072 33.482 48.383 33.733C49.693 33.983 51.07 33.696 51.442 33.094C51.863 32.413 51.173 32 49.618 32C48.243 32 46.875 31.607 46.578 31.126C46.281 30.646 48.167 30.235 50.769 30.213C54.225 30.185 54.961 30.401 53.5 31.017ZM17 34C17 34.55 17.423 35 17.941 35C18.459 35 19.16 34.55 19.5 34C19.84 33.45 19.416 33 18.559 33C17.702 33 17 33.45 17 34ZM15.5 41C16.495 42.1 17.085 43 16.81 43C16.535 43 15.495 42.1 14.5 41C13.505 39.9 12.915 39 13.19 39C13.465 39 14.505 39.9 15.5 41ZM37.5 41C37.16 41.55 36.346 41.993 35.691 41.985C34.975 41.975 35.099 41.582 36 41C37.921 39.758 38.267 39.758 37.5 41ZM33.388 41.819C33.667 42.27 32.568 42.443 30.947 42.206C29.326 41.968 28 41.599 28 41.387C28 40.625 32.893 41.017 33.388 41.819Z" fill="#0C060A"/>
<path fill-rule="evenodd" clip-rule="evenodd" d="M21.332 1.79C7.343 6.789 -0.956 19.735 0.376 34.482C1.057 42.023 2.268 45.087 6.843 50.849C11.211 56.35 13.399 58.384 16.517 59.84C17.883 60.478 20.08 61.502 21.4 62.116C24.111 63.376 36.089 63.815 40.226 62.806C47.941 60.925 56.764 53.662 59.919 46.596C66.213 32.5 64.81 21.147 55.418 10.175C47.951 1.452 32.747 -2.288 21.332 1.79ZM47.316 18.15C49.965 19.544 50.964 20.934 50.985 23.25C51.007 25.834 47.515 25.425 44.591 22.5C41.865 19.774 39.641 19.43 35.315 21.063C33.212 21.857 32.784 21.838 33.625 20.988C34.84 19.759 41.671 17.115 43.816 17.044C44.539 17.02 46.114 17.517 47.316 18.15ZM26.519 21.546C24.111 23.752 21.863 24.972 20.574 24.773C18.95 24.522 19.695 23.754 24 21.236C27.025 19.466 29.7 18.015 29.945 18.009C30.19 18.004 28.649 19.596 26.519 21.546ZM26.826 26.603C25.705 27.724 24.513 27.971 22.862 27.426L20.5 26.647L23 25.923C27.571 24.6 28.639 24.789 26.826 26.603ZM38.453 27.75C36.876 30.787 38.534 32.584 40.188 29.629C40.716 28.685 42.368 28 44.115 28C45.774 28 48.002 27.534 49.066 26.965C50.529 26.182 51 26.255 51 27.265C51 27.999 50.536 29.064 49.969 29.631C49.26 30.34 49.964 30.557 52.219 30.324C54.879 30.049 55.121 30.162 53.5 30.922C52.4 31.438 51.893 31.891 52.372 31.93C52.852 31.968 52.685 32.675 52 33.5C50.316 35.529 52.39 35.468 54.429 33.429C56.229 31.629 56.534 33.133 54.965 36.066C54.006 37.858 52.699 38.002 37.215 38.032C22.008 38.061 20.68 38.202 22.5 39.593C23.95 40.701 26.345 41.036 31.205 40.811C34.892 40.64 37.592 40.776 37.205 41.114C35.433 42.656 29.18 44 23.774 44C18.521 44 17.505 43.659 14.846 41C13.115 39.269 10.79 38 9.35 38C7.521 38 6.943 37.537 7.187 36.269C7.37 35.317 8.415 34.494 9.51 34.44C14.758 34.181 16.444 33.82 15.018 33.26C14.203 32.94 12.964 32.107 12.265 31.408C11.237 30.38 11.38 30.014 13.011 29.496C14.121 29.144 14.771 28.438 14.456 27.928C13.568 26.493 17.175 26.843 20.354 28.501C21.924 29.32 23.611 29.74 24.104 29.436C24.597 29.131 25 29.359 25 29.941C25 30.523 25.825 31 26.833 31C29.374 31 30.19 32.066 28.869 33.658C27.972 34.739 28.461 35 31.378 35C34.103 35 35.038 34.567 35.152 33.25C35.436 29.991 35.552 29.502 36.335 28.25C36.906 27.339 36.085 26.962 33.309 26.858L29.5 26.716L33.5 26C40.172 24.805 40.012 24.749 38.453 27.75ZM45.729 26.604C45.397 26.936 44.534 26.972 43.813 26.683C43.015 26.364 43.252 26.127 44.417 26.079C45.471 26.036 46.061 26.272 45.729 26.604ZM34.326 29.406C34.622 30.179 34.027 31.571 33.002 32.498C31.237 34.096 31.168 34.074 31.686 32.092C32.075 30.606 31.765 30 30.617 30C29.727 30 29 29.55 29 29C29 27.458 33.716 27.817 34.326 29.406ZM14.762 30.707C16.006 30.946 17.806 30.937 18.762 30.687C19.718 30.437 18.7 30.241 16.5 30.252C14.3 30.263 13.518 30.468 14.762 30.707ZM21.667 31.667C21.3 32.033 21 32.855 21 33.493C21 34.908 26.727 34.25 27.669 32.727C28.074 32.071 27.512 31.894 26.155 32.249C24.968 32.56 24.249 32.405 24.558 31.907C25.2 30.868 22.675 30.658 21.667 31.667ZM40.754 32.833C40.373 34.291 40.852 34.667 43.094 34.667C45.761 34.667 47.828 32.431 46.387 31.107C46.023 30.773 45.525 31.063 45.28 31.75C45.034 32.438 44.394 33 43.858 33C43.321 33 43.16 32.55 43.5 32C43.84 31.45 43.469 31 42.676 31C41.882 31 41.018 31.825 40.754 32.833ZM17 34C17 34.55 17.423 35 17.941 35C18.459 35 19.16 34.55 19.5 34C19.84 33.45 19.416 33 18.559 33C17.702 33 17 33.45 17 34Z" fill="#DCD9DC"/>
<path fill-rule="evenodd" clip-rule="evenodd" d="M21.332 1.79C12.649 4.893 5.923 11.154 2.518 19.304C0.687001 23.685 1.845 24.224 4.27 20.12C5.205 18.537 6.857 17.009 7.939 16.726C9.798 16.24 9.82 16.345 8.339 18.606C7.476 19.923 6.202 21 5.508 21C4.814 21 3.253 23.309 2.039 26.13C0.0670007 30.716 -0.0559992 31.896 0.886001 37.24C1.95 43.286 5.027 49.425 9.284 54C12.424 57.374 17.608 61 19.293 61C20.048 61 20.978 61.312 21.359 61.692C23.686 64.02 37.697 63.879 43.5 61.47C55.414 56.525 62.5 46.559 62.5 34.75C62.5 31.038 62.79 28 63.145 28C64.085 28 62.59 22.045 60.594 17.84C57.75 11.845 52.279 6.284 46.397 3.406C39.043 -0.191999 28.74 -0.855999 21.332 1.79ZM33.812 11.703C34.025 13.192 35.255 14.259 37.679 15.059L41.234 16.232L37.367 18.133C35.24 19.178 34.4 19.752 35.5 19.408C43.096 17.034 44.323 16.891 47.12 18.05C48.743 18.722 50.198 20.19 50.416 21.377C51.106 25.129 50.931 28.378 49.977 29.527C49.314 30.327 49.961 30.513 52.241 30.178C55.258 29.735 55.339 29.804 53.717 31.426C51.603 33.54 51.482 35.136 53.494 34.364C54.316 34.048 54.74 33.388 54.435 32.895C54.131 32.403 54.359 32 54.941 32C56.284 32 56.293 33.584 54.965 36.066C54.006 37.858 52.699 38.002 37.215 38.032C22.008 38.061 20.68 38.202 22.5 39.593C23.95 40.701 26.345 41.036 31.205 40.811C34.892 40.64 37.592 40.776 37.205 41.114C35.433 42.656 29.18 44 23.774 44C18.521 44 17.505 43.659 14.846 41C13.164 39.317 10.782 38 9.423 38C8.09 38 7 37.507 7 36.904C7 35.027 10.956 30.149 13.006 29.498C14.08 29.157 14.915 28.568 14.861 28.189C14.567 26.121 15.177 25 16.596 25C17.473 25 19.386 24.16 20.846 23.134C22.306 22.108 24.887 20.561 26.583 19.695C29.136 18.392 29.667 18.361 29.667 19.517C29.667 20.284 29.365 20.726 28.996 20.498C28.099 19.943 24 22.863 24 24.057C24 24.591 28.774 25 35 25C41.494 25 46 24.6 46 24.023C46 23.486 44.83 22.28 43.401 21.343C41.269 19.946 40.105 19.826 36.933 20.672C34.805 21.24 33.301 21.321 33.591 20.852C33.881 20.384 33.684 20 33.153 20C32.622 20 32.442 19.024 32.754 17.831C33.232 16.003 33.021 15.788 31.411 16.459C23.677 19.683 20 20.873 20 20.151C20 18.848 23.212 16.25 26.252 15.094C27.888 14.472 29 13.298 29 12.191C29 8.333 33.268 7.899 33.812 11.703ZM43.5 12.474C46.79 14.5 47.107 14.943 45.284 14.969C42.701 15.005 36 12.007 36 10.815C36 9.249 39.532 10.03 43.5 12.474ZM52 13.5C53.292 14.875 54.124 16 53.849 16C53.574 16 52.292 14.875 51 13.5C49.708 12.125 48.876 11 49.151 11C49.426 11 50.708 12.125 52 13.5ZM61.563 26.771C60.845 27.488 59.076 26.015 57.87 23.694C56.782 21.602 56.851 21.613 59.36 23.921C60.808 25.252 61.799 26.535 61.563 26.771ZM26.2 27.2C24.194 29.206 24.839 31 27.567 31C29.575 31 30.011 31.389 29.569 32.782C29.145 34.118 29.591 34.613 31.352 34.758C33.055 34.899 34.021 34.204 34.866 32.226L36.032 29.5L34.106 31.75C31.721 34.535 30.663 34.637 31.5 32C32.047 30.278 31.674 29.996 28.817 29.97C26.079 29.944 25.806 29.761 27.25 28.92C29.035 27.88 29.647 26 28.2 26C27.76 26 26.86 26.54 26.2 27.2ZM39.114 26.929C38.255 27.461 38.152 27.976 38.824 28.391C39.395 28.744 40.163 28.545 40.531 27.95C41.449 26.464 40.719 25.938 39.114 26.929ZM14.762 30.707C16.006 30.946 17.806 30.937 18.762 30.687C19.718 30.437 18.7 30.241 16.5 30.252C14.3 30.263 13.518 30.468 14.762 30.707ZM37.813 30.683C38.534 30.972 39.397 30.936 39.729 30.604C40.061 30.272 39.471 30.036 38.417 30.079C37.252 30.127 37.015 30.364 37.813 30.683ZM10.072 32.865C9.322 34.267 9.285 35 9.965 35C10.534 35 11 34.612 11 34.139C11 33.665 12.238 33.424 13.75 33.603C15.465 33.806 15.747 33.71 14.5 33.348C13.4 33.03 12.211 32.31 11.857 31.749C11.491 31.167 10.725 31.646 10.072 32.865ZM22.091 32.39C20.913 33.81 21.116 34 23.819 34C25.503 34 27.204 33.479 27.597 32.842C28.085 32.053 27.642 31.86 26.204 32.236C25.045 32.54 23.945 32.336 23.761 31.784C23.577 31.232 22.826 31.505 22.091 32.39ZM41.055 33.29C39.822 35.27 39.843 35.365 41.25 34.201C42.306 33.329 43.035 33.247 43.47 33.951C44.497 35.613 45.72 35.178 46.305 32.943C46.758 31.209 46.608 31.081 45.345 32.129C44.234 33.051 43.665 33.076 43.139 32.226C42.668 31.463 41.971 31.82 41.055 33.29ZM17 34.059C17 34.641 17.45 34.84 18 34.5C18.55 34.16 19 33.684 19 33.441C19 33.198 18.55 33 18 33C17.45 33 17 33.477 17 34.059ZM57 39.5C57 40.325 56.564 41 56.031 41C55.499 41 55.322 40.325 55.638 39.5C55.955 38.675 56.391 38 56.607 38C56.823 38 57 38.675 57 39.5ZM53 48.326C53 48.505 51.763 49.742 50.25 51.076L47.5 53.5L49.924 50.75C52.19 48.18 53 47.541 53 48.326Z" fill="#FCFE74"/>
<path fill-rule="evenodd" clip-rule="evenodd" d="M23.703 6.381C17.718 8.612 12.245 12.672 9.376 17.009C7.923 19.204 6.174 21 5.49 21C4.806 21 3.253 23.309 2.039 26.13C0.0670007 30.716 -0.0559992 31.896 0.886001 37.24C1.95 43.286 5.027 49.425 9.284 54C12.5 57.456 17.622 61 19.4 61C20.215 61 21.102 61.356 21.371 61.791C22.739 64.005 37.924 63.785 43.5 61.47C55.445 56.512 62.5 46.564 62.5 34.68C62.5 29.213 62.151 27.664 60.743 26.876C59.777 26.335 58.041 24.004 56.887 21.696C54.153 16.23 48.509 10.351 43.529 7.782C38.47 5.172 28.781 4.488 23.703 6.381ZM10.872 7.75C9.629 9.336 9.664 9.371 11.25 8.128C12.213 7.373 13 6.585 13 6.378C13 5.555 12.179 6.084 10.872 7.75ZM33.812 11.703C34.025 13.192 35.255 14.259 37.679 15.059L41.234 16.232L37.367 18.133C35.24 19.178 34.4 19.752 35.5 19.408C43.096 17.034 44.323 16.891 47.12 18.05C48.743 18.722 50.198 20.19 50.416 21.377C51.106 25.129 50.931 28.378 49.977 29.527C49.314 30.327 49.961 30.513 52.241 30.178C55.258 29.735 55.339 29.804 53.717 31.426C51.603 33.54 51.482 35.136 53.494 34.364C54.316 34.048 54.74 33.388 54.435 32.895C54.131 32.403 54.359 32 54.941 32C56.284 32 56.293 33.584 54.965 36.066C54.006 37.858 52.699 38.002 37.215 38.032C22.008 38.061 20.68 38.202 22.5 39.593C23.95 40.701 26.345 41.036 31.205 40.811C34.892 40.64 37.592 40.776 37.205 41.114C35.433 42.656 29.18 44 23.774 44C18.521 44 17.505 43.659 14.846 41C13.164 39.317 10.782 38 9.423 38C8.09 38 7 37.507 7 36.904C7 35.027 10.956 30.149 13.006 29.498C14.08 29.157 14.915 28.568 14.861 28.189C14.567 26.121 15.177 25 16.596 25C17.473 25 19.386 24.16 20.846 23.134C22.306 22.108 24.887 20.561 26.583 19.695C29.136 18.392 29.667 18.361 29.667 19.517C29.667 20.284 29.365 20.726 28.996 20.498C28.099 19.943 24 22.863 24 24.057C24 24.591 28.774 25 35 25C41.494 25 46 24.6 46 24.023C46 23.486 44.83 22.28 43.401 21.343C41.269 19.946 40.105 19.826 36.933 20.672C34.805 21.24 33.301 21.321 33.591 20.852C33.881 20.384 33.684 20 33.153 20C32.622 20 32.442 19.024 32.754 17.831C33.232 16.003 33.021 15.788 31.411 16.459C23.677 19.683 20 20.873 20 20.151C20 18.848 23.212 16.25 26.252 15.094C27.888 14.472 29 13.298 29 12.191C29 8.333 33.268 7.899 33.812 11.703ZM6.872 11.75C5.629 13.336 5.664 13.371 7.25 12.128C8.916 10.821 9.445 10 8.622 10C8.415 10 7.627 10.787 6.872 11.75ZM43.5 12.474C46.79 14.5 47.107 14.943 45.284 14.969C42.701 15.005 36 12.007 36 10.815C36 9.249 39.532 10.03 43.5 12.474ZM26.2 27.2C24.194 29.206 24.839 31 27.567 31C29.575 31 30.011 31.389 29.569 32.782C29.145 34.118 29.591 34.613 31.352 34.758C33.055 34.899 34.021 34.204 34.866 32.226L36.032 29.5L34.106 31.75C31.721 34.535 30.663 34.637 31.5 32C32.047 30.278 31.674 29.996 28.817 29.97C26.079 29.944 25.806 29.761 27.25 28.92C29.035 27.88 29.647 26 28.2 26C27.76 26 26.86 26.54 26.2 27.2ZM39.114 26.929C38.255 27.461 38.152 27.976 38.824 28.391C39.395 28.744 40.163 28.545 40.531 27.95C41.449 26.464 40.719 25.938 39.114 26.929ZM14.762 30.707C16.006 30.946 17.806 30.937 18.762 30.687C19.718 30.437 18.7 30.241 16.5 30.252C14.3 30.263 13.518 30.468 14.762 30.707ZM37.813 30.683C38.534 30.972 39.397 30.936 39.729 30.604C40.061 30.272 39.471 30.036 38.417 30.079C37.252 30.127 37.015 30.364 37.813 30.683ZM10.072 32.865C9.322 34.267 9.285 35 9.965 35C10.534 35 11 34.612 11 34.139C11 33.665 12.238 33.424 13.75 33.603C15.465 33.806 15.747 33.71 14.5 33.348C13.4 33.03 12.211 32.31 11.857 31.749C11.491 31.167 10.725 31.646 10.072 32.865ZM22.091 32.39C20.913 33.81 21.116 34 23.819 34C25.503 34 27.204 33.479 27.597 32.842C28.085 32.053 27.642 31.86 26.204 32.236C25.045 32.54 23.945 32.336 23.761 31.784C23.577 31.232 22.826 31.505 22.091 32.39ZM41.055 33.29C39.822 35.27 39.843 35.365 41.25 34.201C42.306 33.329 43.035 33.247 43.47 33.951C44.497 35.613 45.72 35.178 46.305 32.943C46.758 31.209 46.608 31.081 45.345 32.129C44.234 33.051 43.665 33.076 43.139 32.226C42.668 31.463 41.971 31.82 41.055 33.29ZM17 34.059C17 34.641 17.45 34.84 18 34.5C18.55 34.16 19 33.684 19 33.441C19 33.198 18.55 33 18 33C17.45 33 17 33.477 17 34.059ZM55.008 44.484C49.759 55.326 36.418 60.602 23.807 56.824C19.305 55.475 11.624 49.108 9.466 44.935C6.839 39.855 7.921 39.657 11.25 44.608C21.798 60.297 44.633 59.456 53.756 43.042C57.071 37.078 58.048 38.203 55.008 44.484Z" fill="#CE953C"/>
<path fill-rule="evenodd" clip-rule="evenodd" d="M10.872 7.75C9.629 9.336 9.664 9.371 11.25 8.128C12.213 7.373 13 6.585 13 6.378C13 5.555 12.179 6.084 10.872 7.75ZM6.872 11.75C5.629 13.336 5.664 13.371 7.25 12.128C8.916 10.821 9.445 10 8.622 10C8.415 10 7.627 10.787 6.872 11.75ZM30 18.059C30 18.641 30.45 18.84 31 18.5C31.55 18.16 32 17.684 32 17.441C32 17.198 31.55 17 31 17C30.45 17 30 17.477 30 18.059ZM38.269 20.693C39.242 20.947 40.592 20.93 41.269 20.656C41.946 20.382 41.15 20.175 39.5 20.195C37.85 20.215 37.296 20.439 38.269 20.693ZM25.2 22.2C22.8 24.6 24.198 25 35 25C41.05 25 46 24.637 46 24.194C46 23.75 41.188 23.563 35.308 23.778C25.639 24.131 24.741 24.017 25.93 22.584C27.469 20.73 26.946 20.454 25.2 22.2ZM14.667 24.667C14.3 25.033 14.007 25.821 14.015 26.417C14.026 27.15 14.268 27.133 14.765 26.366C15.169 25.742 16.4 25.007 17.5 24.732C19.435 24.248 19.432 24.228 17.417 24.116C16.271 24.052 15.033 24.3 14.667 24.667ZM26.2 27.2C24.194 29.206 24.839 31 27.567 31C29.575 31 30.011 31.389 29.569 32.782C29.145 34.118 29.591 34.613 31.352 34.758C33.055 34.899 34.021 34.204 34.866 32.226L36.032 29.5L34.106 31.75C31.721 34.535 30.663 34.637 31.5 32C32.047 30.278 31.674 29.996 28.817 29.97C26.079 29.944 25.806 29.761 27.25 28.92C29.035 27.88 29.647 26 28.2 26C27.76 26 26.86 26.54 26.2 27.2ZM39.114 26.929C38.255 27.461 38.152 27.976 38.824 28.391C39.395 28.744 40.163 28.545 40.531 27.95C41.449 26.464 40.719 25.938 39.114 26.929ZM11.5 29.208C9.54 30.332 7.095 32.975 7.032 34.037C7.014 34.333 7.9 34.642 9 34.725C10.1 34.808 11 34.516 11 34.077C11 33.637 12.012 33.378 13.25 33.501C14.488 33.624 14.751 33.535 13.835 33.304C12.919 33.072 11.943 32.294 11.667 31.574C11.294 30.603 12.242 30.325 15.332 30.499C18.358 30.669 18.557 30.613 16.057 30.295C13.504 29.97 12.987 29.62 14.057 28.943C16.156 27.615 13.864 27.852 11.5 29.208ZM37.813 30.683C38.534 30.972 39.397 30.936 39.729 30.604C40.061 30.272 39.471 30.036 38.417 30.079C37.252 30.127 37.015 30.364 37.813 30.683ZM53.571 31.571C51.582 33.561 51.539 35.114 53.494 34.364C54.316 34.048 54.74 33.388 54.435 32.895C54.131 32.403 54.411 32 55.058 32C55.741 32 56.014 32.838 55.71 34.001C55.422 35.102 55.595 35.751 56.093 35.442C57.287 34.705 57.268 30 56.071 30C55.561 30 54.436 30.707 53.571 31.571ZM10.345 32.543C10.019 33.392 9.538 33.872 9.276 33.61C9.014 33.348 9.096 32.653 9.459 32.067C10.445 30.471 11.021 30.781 10.345 32.543ZM22.091 32.39C20.913 33.81 21.116 34 23.819 34C25.503 34 27.204 33.479 27.597 32.842C28.085 32.053 27.642 31.86 26.204 32.236C25.045 32.54 23.945 32.336 23.761 31.784C23.577 31.232 22.826 31.505 22.091 32.39ZM41.055 33.29C39.822 35.27 39.843 35.365 41.25 34.201C42.306 33.329 43.035 33.247 43.47 33.951C44.497 35.613 45.72 35.178 46.305 32.943C46.758 31.209 46.608 31.081 45.345 32.129C44.234 33.051 43.665 33.076 43.139 32.226C42.668 31.463 41.971 31.82 41.055 33.29ZM17 34.059C17 34.641 17.45 34.84 18 34.5C18.55 34.16 19 33.684 19 33.441C19 33.198 18.55 33 18 33C17.45 33 17 33.477 17 34.059ZM9.269 38.693C10.242 38.947 11.592 38.93 12.269 38.656C12.946 38.382 12.15 38.175 10.5 38.195C8.85 38.215 8.296 38.439 9.269 38.693ZM27.861 38.893C28.609 39.367 30.142 39.514 31.267 39.22C32.542 38.887 33.069 39.079 32.667 39.73C32.288 40.343 33.277 40.96 35.054 41.221C36.723 41.466 38.363 41.222 38.699 40.679C39.041 40.124 38.8 40.006 38.147 40.409C37.497 40.811 36.722 40.438 36.386 39.563C35.96 38.453 34.441 38.004 31.143 38.015C28.152 38.025 26.984 38.337 27.861 38.893ZM47.762 38.707C49.006 38.946 50.806 38.937 51.762 38.687C52.718 38.437 51.7 38.241 49.5 38.252C47.3 38.263 46.518 38.468 47.762 38.707ZM13 40.378C13 40.585 13.787 41.373 14.75 42.128C16.336 43.371 16.371 43.336 15.128 41.75C13.821 40.084 13 39.555 13 40.378ZM22.75 44.662C23.438 44.94 24.563 44.94 25.25 44.662C25.938 44.385 25.375 44.158 24 44.158C22.625 44.158 22.063 44.385 22.75 44.662Z" fill="#9E7D40"/>
<path fill-rule="evenodd" clip-rule="evenodd" d="M10.872 7.75C9.629 9.336 9.664 9.371 11.25 8.128C12.213 7.373 13 6.585 13 6.378C13 5.555 12.179 6.084 10.872 7.75ZM6.872 11.75C5.629 13.336 5.664 13.371 7.25 12.128C8.916 10.821 9.445 10 8.622 10C8.415 10 7.627 10.787 6.872 11.75ZM26.606 27.584C26.233 28.557 26.456 29.015 27.187 28.771C28.682 28.273 29.505 26 28.19 26C27.653 26 26.941 26.713 26.606 27.584ZM39.667 26.667C39.3 27.033 39 27.798 39 28.367C39 28.993 39.466 28.934 40.183 28.217C40.834 27.566 41.134 26.801 40.85 26.517C40.566 26.233 40.033 26.3 39.667 26.667ZM10.046 32.914C9.432 34.062 9.347 35 9.858 35C10.886 35 12.304 31.971 11.605 31.271C11.361 31.028 10.66 31.767 10.046 32.914ZM22.5 32C22.16 32.55 22.359 33 22.941 33C23.523 33 24 32.55 24 32C24 31.45 23.802 31 23.559 31C23.316 31 22.84 31.45 22.5 32ZM29.583 32.643C28.631 35.126 29.681 35.465 30.954 33.086C31.568 31.938 31.653 31 31.142 31C30.632 31 29.93 31.739 29.583 32.643ZM33.046 32.914C32.432 34.062 32.347 35 32.858 35C33.886 35 35.304 31.971 34.605 31.271C34.361 31.028 33.66 31.767 33.046 32.914ZM41.1 33.295C39.835 35.402 39.857 35.423 41.579 33.774C42.57 32.824 43.166 31.832 42.903 31.569C42.64 31.306 41.829 32.083 41.1 33.295ZM45.2 32.2C43.789 33.611 43.632 35 44.883 35C45.369 35 46.002 34.1 46.29 33C46.9 30.666 46.804 30.596 45.2 32.2ZM52.583 32.643C51.631 35.126 52.681 35.465 53.954 33.086C54.568 31.938 54.653 31 54.142 31C53.632 31 52.93 31.739 52.583 32.643ZM17 34.059C17 34.641 17.45 34.84 18 34.5C18.55 34.16 19 33.684 19 33.441C19 33.198 18.55 33 18 33C17.45 33 17 33.477 17 34.059Z" fill="white"/>
</svg>
