<?xml version="1.0" encoding="UTF-8"?>
<svg version="1.1" xmlns="http://www.w3.org/2000/svg" width="64" height="64">
<path d="M0 0 C7.41604484 5.9717215 11.90439545 14.28294243 12.96484375 23.76171875 C13.41368684 32.9557626 10.3366398 41.56394821 4.54296875 48.70703125 C-1.94992795 55.0337984 -10.10091508 58.45474009 -19.1015625 58.8046875 C-28.93674179 58.53645534 -36.1869338 55.27085292 -43.2890625 48.4921875 C-49.83079701 41.41210576 -51.93054521 33.03856315 -51.62890625 23.54296875 C-50.57425486 14.07535114 -46.54608847 6.65942117 -39.2890625 0.4921875 C-26.91321721 -7.27523492 -12.53443228 -8.25646904 0 0 Z " fill="#D2A149" transform="translate(51.2890625,5.5078125)"/>
<path d="M0 0 C6.14257022 4.43856818 10.33923573 8.86431402 13 16 C12 19 12 19 11 21 C10.071875 20.690625 10.071875 20.690625 9.125 20.375 C8.42375 20.25125 7.7225 20.1275 7 20 C6.34 20.66 5.68 21.32 5 22 C2.8359375 22.1953125 2.8359375 22.1953125 0.375 22.125 C-0.44226562 22.10695313 -1.25953125 22.08890625 -2.1015625 22.0703125 C-2.72804687 22.04710938 -3.35453125 22.02390625 -4 22 C-4 21.34 -4 20.68 -4 20 C-0.92382812 19.70703125 -0.92382812 19.70703125 2.15234375 19.4140625 C2.76207031 19.27742188 3.37179688 19.14078125 4 19 C4.33 18.34 4.66 17.68 5 17 C3.35369672 17.14042877 1.70795821 17.28749329 0.0625 17.4375 C-0.85402344 17.51871094 -1.77054688 17.59992187 -2.71484375 17.68359375 C-4.96159732 17.76044976 -4.96159732 17.76044976 -6 19 C-7.4555937 19.09858603 -8.91607919 19.12972143 -10.375 19.125 C-11.16648437 19.12757812 -11.95796875 19.13015625 -12.7734375 19.1328125 C-15 19 -15 19 -18 18 C-19.89470816 17.9314505 -21.7916834 17.91519628 -23.6875 17.9375 C-24.68136719 17.94652344 -25.67523438 17.95554687 -26.69921875 17.96484375 C-27.45847656 17.97644531 -28.21773437 17.98804687 -29 18 C-25.535 19.98 -25.535 19.98 -22 22 C-22.33 22.66 -22.66 23.32 -23 24 C-20.69 24 -18.38 24 -16 24 C-16 24.66 -16 25.32 -16 26 C-14.02 26.33 -12.04 26.66 -10 27 C-10 26.01 -10 25.02 -10 24 C-8.02 24 -6.04 24 -4 24 C-4.495 25.485 -4.495 25.485 -5 27 C-2.89646505 27.0810206 -0.79204048 27.13919907 1.3125 27.1875 C2.48425781 27.22230469 3.65601563 27.25710937 4.86328125 27.29296875 C7.99288464 27.28717399 7.99288464 27.28717399 9.91796875 25.48828125 C10.27503906 24.99714844 10.63210937 24.50601563 11 24 C10.42655063 26.86724686 10.1385485 27.8614515 8 30 C4.92724609 30.31884766 4.92724609 30.31884766 1.0234375 30.4140625 C0.33819 30.43342865 -0.3470575 30.4527948 -1.05307007 30.4727478 C-3.24358644 30.53256831 -5.4341553 30.57893756 -7.625 30.625 C-9.10939802 30.66317763 -10.59377384 30.70222924 -12.078125 30.7421875 C-15.71854685 30.83827084 -19.35913436 30.92229282 -23 31 C-20.29816945 32.35091528 -17.88191794 32.33858058 -14.875 32.5625 C-13.77929688 32.64628906 -12.68359375 32.73007812 -11.5546875 32.81640625 C-10.29011719 32.90728516 -10.29011719 32.90728516 -9 33 C-12.3997895 36.3997895 -16.27257954 36.22205179 -20.9375 36.375 C-26.5819014 36.3544749 -26.5819014 36.3544749 -29.875 33.5625 C-30.57625 32.716875 -31.2775 31.87125 -32 31 C-35.07378863 30.30342821 -35.07378863 30.30342821 -38 30 C-38.9637078 19.52158984 -37.6989087 13.18755508 -31 5 C-23.31694429 -4.21966686 -10.40780975 -6.1500694 0 0 Z " fill="#CC9C40" transform="translate(45,8)"/>
<path d="M0 0 C0.8554541 0.00523682 1.7109082 0.01047363 2.59228516 0.01586914 C3.52298828 0.0190918 4.45369141 0.02231445 5.41259766 0.02563477 C6.39228516 0.03401367 7.37197266 0.04239258 8.38134766 0.05102539 C9.35330078 0.05553711 10.32525391 0.06004883 11.32666016 0.06469727 C13.13575441 0.07344289 14.94484067 0.08423185 16.75390625 0.09765625 C18.50468459 0.10999102 20.25552586 0.11352539 22.00634766 0.11352539 C25.33968099 0.11352539 28.67301432 0.11352539 32.00634766 0.11352539 C31.67634766 1.10352539 31.34634766 2.09352539 31.00634766 3.11352539 C28.36634766 3.11352539 25.72634766 3.11352539 23.00634766 3.11352539 C23.00634766 3.77352539 23.00634766 4.43352539 23.00634766 5.11352539 C24.46582471 5.05346461 25.92414038 4.9646565 27.38134766 4.86352539 C28.19345703 4.81711914 29.00556641 4.77071289 29.84228516 4.72290039 C32.19473693 4.32131619 32.19473693 4.32131619 33.29541016 2.06665039 C33.53001953 1.42211914 33.76462891 0.77758789 34.00634766 0.11352539 C34.00634766 1.10352539 34.00634766 2.09352539 34.00634766 3.11352539 C35.32634766 3.44352539 36.64634766 3.77352539 38.00634766 4.11352539 C38.33634766 2.79352539 38.66634766 1.47352539 39.00634766 0.11352539 C40.88893967 3.87870943 39.81213031 8.106995 39.00634766 12.11352539 C36.10880753 20.37151474 31.68098475 25.3910063 24.20947266 29.74243164 C18.02266525 32.39068701 10.69622832 32.31500607 4.30712891 30.23461914 C-2.05309337 26.96272211 -6.70894575 22.32529187 -9.36865234 15.67602539 C-9.57490234 14.83040039 -9.78115234 13.98477539 -9.99365234 13.11352539 C-7.80615234 12.80102539 -7.80615234 12.80102539 -4.99365234 13.11352539 C-4.31302734 13.93852539 -3.63240234 14.76352539 -2.93115234 15.61352539 C1.09398027 19.03917017 4.04033128 18.55503412 9.16650391 18.38696289 C11.56258274 18.15625379 13.70272116 17.78748806 16.00634766 17.11352539 C15.31927734 17.07614258 14.63220703 17.03875977 13.92431641 17.00024414 C13.02326172 16.93450195 12.12220703 16.86875977 11.19384766 16.80102539 C10.30052734 16.74301758 9.40720703 16.68500977 8.48681641 16.62524414 C6.00634766 16.11352539 6.00634766 16.11352539 3.00634766 13.11352539 C13.56634766 12.78352539 24.12634766 12.45352539 35.00634766 12.11352539 C35.33634766 11.45352539 35.66634766 10.79352539 36.00634766 10.11352539 C35.67634766 10.44352539 35.34634766 10.77352539 35.00634766 11.11352539 C33.38382274 11.21238892 31.75687493 11.24323706 30.13134766 11.23852539 C29.24705078 11.24110352 28.36275391 11.24368164 27.45166016 11.24633789 C25.00634766 11.11352539 25.00634766 11.11352539 22.00634766 10.11352539 C22.00634766 9.45352539 22.00634766 8.79352539 22.00634766 8.11352539 C19.53134766 7.61852539 19.53134766 7.61852539 17.00634766 7.11352539 C17.00634766 8.10352539 17.00634766 9.09352539 17.00634766 10.11352539 C14.69634766 10.11352539 12.38634766 10.11352539 10.00634766 10.11352539 C10.33634766 9.12352539 10.66634766 8.13352539 11.00634766 7.11352539 C8.36634766 7.44352539 5.72634766 7.77352539 3.00634766 8.11352539 C3.33634766 7.45352539 3.66634766 6.79352539 4.00634766 6.11352539 C1.36634766 5.78352539 -1.27365234 5.45352539 -3.99365234 5.11352539 C-3.00365234 4.45352539 -2.01365234 3.79352539 -0.99365234 3.11352539 C-1.65365234 2.45352539 -2.31365234 1.79352539 -2.99365234 1.11352539 C-1.99365234 0.11352539 -1.99365234 0.11352539 0 0 Z " fill="#CD9A3F" transform="translate(17.99365234375,24.886474609375)"/>
<path d="M0 0 C7.40801045 4.87967924 11.20262035 11.29257712 14.3125 19.4375 C15.19319846 24.00111929 15.16772379 28.36895987 15 33 C12.5705484 29.3558226 12.83820425 27.28758728 13 23 C11.68 23 10.36 23 9 23 C8.6596875 22.21496094 8.319375 21.42992188 7.96875 20.62109375 C4.1233567 12.28599924 0.28914001 6.29528717 -8.3125 2.5625 C-16.34035709 1.33791163 -22.61203948 1.30601974 -30 5 C-31.19625 5.309375 -32.3925 5.61875 -33.625 5.9375 C-40.43508004 8.08141409 -42.90551232 12.11205428 -46.08203125 18.171875 C-46.38496094 18.77515625 -46.68789063 19.3784375 -47 20 C-48 18 -48 18 -47.3203125 15.8984375 C-43.19732898 7.19436118 -37.69406627 1.2169956 -28.6875 -2.5 C-18.75145419 -5.6041482 -9.23823057 -4.8038799 0 0 Z " fill="#F8EE5F" transform="translate(49,4)"/>
<path d="M0 0 C1.30453125 -0.02578125 2.6090625 -0.0515625 3.953125 -0.078125 C10.72829669 0.50738366 14.84113082 3.92552001 19.75 8.25 C19.42 8.91 19.09 9.57 18.75 10.25 C17.95335937 10.21519531 17.15671875 10.18039063 16.3359375 10.14453125 C10.26942365 9.98954732 6.05872497 9.98309233 0.75 13.25 C-0.24 13.25 -1.23 13.25 -2.25 13.25 C-2.25 13.91 -2.25 14.57 -2.25 15.25 C-3.24 15.25 -4.23 15.25 -5.25 15.25 C-5.25 14.26 -5.25 13.27 -5.25 12.25 C-3.93 11.26 -2.61 10.27 -1.25 9.25 C-4.88 11.23 -8.51 13.21 -12.25 15.25 C-12.58 14.26 -12.91 13.27 -13.25 12.25 C-14.9 12.25 -16.55 12.25 -18.25 12.25 C-18.25 10.125 -18.25 10.125 -17.25 7.25 C-11.64689956 2.1025363 -7.61524931 0.08959117 0 0 Z " fill="#E4BB52" transform="translate(31.25,8.75)"/>
<path d="M0 0 C0.8554541 0.00523682 1.7109082 0.01047363 2.59228516 0.01586914 C3.52298828 0.0190918 4.45369141 0.02231445 5.41259766 0.02563477 C6.39228516 0.03401367 7.37197266 0.04239258 8.38134766 0.05102539 C9.35330078 0.05553711 10.32525391 0.06004883 11.32666016 0.06469727 C13.13575441 0.07344289 14.94484067 0.08423185 16.75390625 0.09765625 C18.50468459 0.10999102 20.25552586 0.11352539 22.00634766 0.11352539 C25.33968099 0.11352539 28.67301432 0.11352539 32.00634766 0.11352539 C31.67634766 1.10352539 31.34634766 2.09352539 31.00634766 3.11352539 C27.93017578 3.40649414 27.93017578 3.40649414 24.85400391 3.69946289 C24.24427734 3.83610352 23.63455078 3.97274414 23.00634766 4.11352539 C22.67634766 4.77352539 22.34634766 5.43352539 22.00634766 6.11352539 C23.32634766 6.44352539 24.64634766 6.77352539 26.00634766 7.11352539 C25.01634766 8.59852539 25.01634766 8.59852539 24.00634766 10.11352539 C23.34634766 10.11352539 22.68634766 10.11352539 22.00634766 10.11352539 C22.00634766 9.45352539 22.00634766 8.79352539 22.00634766 8.11352539 C19.53134766 7.61852539 19.53134766 7.61852539 17.00634766 7.11352539 C17.00634766 8.10352539 17.00634766 9.09352539 17.00634766 10.11352539 C14.69634766 10.11352539 12.38634766 10.11352539 10.00634766 10.11352539 C10.33634766 9.12352539 10.66634766 8.13352539 11.00634766 7.11352539 C8.36634766 7.44352539 5.72634766 7.77352539 3.00634766 8.11352539 C3.33634766 7.45352539 3.66634766 6.79352539 4.00634766 6.11352539 C1.36634766 5.78352539 -1.27365234 5.45352539 -3.99365234 5.11352539 C-3.00365234 4.45352539 -2.01365234 3.79352539 -0.99365234 3.11352539 C-1.65365234 2.45352539 -2.31365234 1.79352539 -2.99365234 1.11352539 C-1.99365234 0.11352539 -1.99365234 0.11352539 0 0 Z " fill="#716D70" transform="translate(17.99365234375,24.886474609375)"/>
<path d="M0 0 C3.60409919 -0.05800828 7.20807851 -0.09359869 10.8125 -0.125 C12.34874023 -0.15013672 12.34874023 -0.15013672 13.91601562 -0.17578125 C14.89892578 -0.18222656 15.88183594 -0.18867187 16.89453125 -0.1953125 C17.80050049 -0.20578613 18.70646973 -0.21625977 19.63989258 -0.22705078 C22 0 22 0 25 2 C22.65964736 6.32965238 20.57330252 9.21371312 15.75 10.6875 C15.1725 10.790625 14.595 10.89375 14 11 C13.67 12.32 13.34 13.64 13 15 C11.35 15 9.7 15 8 15 C7.979375 14.401875 7.95875 13.80375 7.9375 13.1875 C7.09543384 10.56685398 7.09543384 10.56685398 3.4375 9.25 C2.303125 8.8375 1.16875 8.425 0 8 C0 7.67 0 7.34 0 7 C0.60328125 6.86722656 1.2065625 6.73445313 1.828125 6.59765625 C2.62734375 6.42105469 3.4265625 6.24445312 4.25 6.0625 C5.03890625 5.88847656 5.8278125 5.71445312 6.640625 5.53515625 C8.76878703 5.052444 10.88532842 4.53836822 13 4 C12.31292969 3.96261719 11.62585937 3.92523438 10.91796875 3.88671875 C10.01691406 3.82097656 9.11585937 3.75523438 8.1875 3.6875 C6.84751953 3.60048828 6.84751953 3.60048828 5.48046875 3.51171875 C2.64079852 2.92589702 1.90792867 2.08247869 0 0 Z " fill="#DEAF4C" transform="translate(21,38)"/>
<path d="M0 0 C0.66 0.33 1.32 0.66 2 1 C-1.75 4 -1.75 4 -4 4 C-4 4.99 -4 5.98 -4 7 C-3.01 7 -2.02 7 -1 7 C-1 6.34 -1 5.68 -1 5 C5.11673024 1.6904648 10.98278687 -0.40597592 18 1 C19.7734375 2.26953125 19.7734375 2.26953125 21 4 C21.45086345 6.75885494 21.18192449 9.18017041 21 12 C20 13 20 13 17.93359375 13.09765625 C17.10988281 13.08605469 16.28617188 13.07445312 15.4375 13.0625 C14.61121094 13.05347656 13.78492187 13.04445313 12.93359375 13.03515625 C12.29550781 13.02355469 11.65742187 13.01195312 11 13 C11 12.34 11 11.68 11 11 C14.07617188 10.70703125 14.07617188 10.70703125 17.15234375 10.4140625 C17.76207031 10.27742188 18.37179688 10.14078125 19 10 C19.33 9.34 19.66 8.68 20 8 C18.35369672 8.14042877 16.70795821 8.28749329 15.0625 8.4375 C14.14597656 8.51871094 13.22945312 8.59992187 12.28515625 8.68359375 C10.03840268 8.76044976 10.03840268 8.76044976 9 10 C7.5444063 10.09858603 6.08392081 10.12972143 4.625 10.125 C3.83351563 10.12757812 3.04203125 10.13015625 2.2265625 10.1328125 C0 10 0 10 -3 9 C-5.33006911 8.64456573 -7.66327016 8.3086247 -10 8 C-10 7.34 -10 6.68 -10 6 C-7.8828125 4.45703125 -7.8828125 4.45703125 -5.125 2.8125 C-4.22007813 2.26207031 -3.31515625 1.71164063 -2.3828125 1.14453125 C-1.20332031 0.57798828 -1.20332031 0.57798828 0 0 Z " fill="#9D8149" transform="translate(30,17)"/>
<path d="M0 0 C0.495 1.485 0.495 1.485 1 3 C-0.05786133 4.46801758 -0.05786133 4.46801758 -2 6 C-5.1862793 6.43237305 -5.1862793 6.43237305 -9.07421875 6.51171875 C-10.09996758 6.53864555 -10.09996758 6.53864555 -11.1464386 6.56611633 C-13.32673 6.62022075 -15.50680256 6.6541134 -17.6875 6.6875 C-19.16734817 6.7206732 -20.64716745 6.75516287 -22.12695312 6.79101562 C-25.75109169 6.87594524 -29.37530652 6.94275635 -33 7 C-30.29816945 8.35091528 -27.88191794 8.33858058 -24.875 8.5625 C-23.23144531 8.68818359 -23.23144531 8.68818359 -21.5546875 8.81640625 C-20.71164063 8.87699219 -19.86859375 8.93757813 -19 9 C-22.3997895 12.3997895 -26.27257954 12.22205179 -30.9375 12.375 C-36.5819014 12.3544749 -36.5819014 12.3544749 -39.875 9.5625 C-40.57625 8.716875 -41.2775 7.87125 -42 7 C-45.18150892 6.12010026 -45.18150892 6.12010026 -48 6 C-47.67 5.01 -47.34 4.02 -47 3 C-46.16101669 3.00999275 -46.16101669 3.00999275 -45.30508423 3.02018738 C-39.49804416 3.08641687 -33.69111087 3.13174871 -27.88378906 3.16479492 C-25.71479944 3.179907 -23.5458405 3.20039735 -21.37695312 3.22631836 C-18.26424604 3.26259534 -15.15194195 3.2797019 -12.0390625 3.29296875 C-11.065065 3.30845261 -10.0910675 3.32393646 -9.08755493 3.33988953 C-8.18677216 3.34011612 -7.28598938 3.34034271 -6.35791016 3.34057617 C-5.16544174 3.35056892 -5.16544174 3.35056892 -3.94888306 3.36076355 C-3.30575165 3.24171158 -2.66262024 3.12265961 -2 3 C-1.34 2.01 -0.68 1.02 0 0 Z " fill="#1C120F" transform="translate(55,32)"/>
<path d="M0 0 C2.1875 -0.3125 2.1875 -0.3125 5 0 C6.0828125 1.2065625 6.0828125 1.2065625 7.1875 2.4375 C11.1466128 6.04469166 14.80409063 5.88901941 20 6 C20 6.33 20 6.66 20 7 C18.35 7.33 16.7 7.66 15 8 C16.98 8.99 18.96 9.98 21 11 C21 12.32 21 13.64 21 15 C22.65 15 24.3 15 26 15 C26 15.66 26 16.32 26 17 C19.07632687 17.51076277 13.72196398 17.18710239 8 13 C3.855559 9.19632415 1.3518844 5.54272606 0 0 Z " fill="#C7953C" transform="translate(8,38)"/>
<path d="M0 0 C0.33 0.99 0.66 1.98 1 3 C1.70125 2.649375 2.4025 2.29875 3.125 1.9375 C6.58229692 0.81012057 8.52082298 1.01675432 12 2 C13.875 3.5625 13.875 3.5625 15 5 C14.67 5.33 14.34 5.66 14 6 C16.31 6 18.62 6 21 6 C21 6.66 21 7.32 21 8 C23.97 8.495 23.97 8.495 27 9 C27 8.01 27 7.02 27 6 C28.98 6 30.96 6 33 6 C33 7.32 33 8.64 33 10 C28.31860746 10.02465288 23.63725241 10.04283739 18.95581055 10.05493164 C17.36205386 10.05997157 15.76830181 10.0668035 14.17456055 10.07543945 C11.88849747 10.08751999 9.60249533 10.09323155 7.31640625 10.09765625 C6.59973282 10.10281754 5.88305939 10.10797882 5.14466858 10.11329651 C3.42936328 10.11349263 1.71418734 10.06192007 0 10 C-1 9 -1 9 -1.1328125 7.1875 C-1.13023437 6.465625 -1.12765625 5.74375 -1.125 5 C-1.12757813 4.278125 -1.13015625 3.55625 -1.1328125 2.8125 C-1 1 -1 1 0 0 Z " fill="#857561" transform="translate(8,26)"/>
<path d="M0 0 C2.88748813 2.13701578 5.48660264 4.43619066 8 7 C3.9666466 7 2.16482462 5.39120082 -1 3 C-1 2.34 -1 1.68 -1 1 C-8.2964416 -1.7795968 -17.5603628 -2.47987907 -25 0 C-24.34 0.66 -23.68 1.32 -23 2 C-26.57005124 3.60288015 -29.82652245 4.95513512 -33.625 5.9375 C-40.43508004 8.08141409 -42.90551232 12.11205428 -46.08203125 18.171875 C-46.38496094 18.77515625 -46.68789063 19.3784375 -47 20 C-48 18 -48 18 -47.3203125 15.8984375 C-43.19732898 7.19436118 -37.69406627 1.2169956 -28.6875 -2.5 C-18.80382276 -5.58778759 -9.17518621 -4.8607475 0 0 Z " fill="#F8F58B" transform="translate(49,4)"/>
<path d="M0 0 C0.69140625 1.6875 0.69140625 1.6875 1 4 C-2.54230801 11.06198146 -7.36771274 16.21985034 -14.78515625 19.0703125 C-21.32515885 20.96158907 -29.06944892 21.30701836 -35.375 18.4375 C-40.68847567 15.25166607 -45.03406227 11.3098511 -47.4375 5.5625 C-47.623125 4.716875 -47.80875 3.87125 -48 3 C-45.6813709 5.23275395 -43.68751176 7.41665099 -41.75 10 C-37.81040359 14.66126422 -33.74512259 16.6536225 -27.6875 17.41796875 C-19.92989612 17.72726977 -14.11448916 16.96720761 -8 12 C-4.34429766 8.5652973 -2.05954712 4.55268312 0 0 Z " fill="#F3E578" transform="translate(56,38)"/>
<path d="M0 0 C0.33 0.99 0.66 1.98 1 3 C3.01508358 3.73323796 3.01508358 3.73323796 5 4 C5.33 2.68 5.66 1.36 6 0 C7.31157516 2.62315032 6.89649988 4.23033436 6.5625 7.125 C6.46066406 8.03507812 6.35882813 8.94515625 6.25390625 9.8828125 C6.17011719 10.58148438 6.08632813 11.28015625 6 12 C4.68 12.33 3.36 12.66 2 13 C2.33 12.01 2.66 11.02 3 10 C2.67 10.33 2.34 10.66 2 11 C0.31391034 11.07205511 -1.37500659 11.08386068 -3.0625 11.0625 C-3.98160156 11.05347656 -4.90070312 11.04445313 -5.84765625 11.03515625 C-6.55792969 11.02355469 -7.26820312 11.01195312 -8 11 C-8.33 10.34 -8.66 9.68 -9 9 C-8.67 8.34 -8.34 7.68 -8 7 C-8.99 6.67 -9.98 6.34 -11 6 C-10.67 5.34 -10.34 4.68 -10 4 C-7.03 4 -4.06 4 -1 4 C-0.67 2.68 -0.34 1.36 0 0 Z " fill="#8F794C" transform="translate(51,25)"/>
<path d="M0 0 C7.0544466 3.24378572 12.14501884 8.23447892 15.50390625 15.203125 C16.24009511 17.86963582 15.19476199 19.61047602 14 22 C12.10546875 21.74609375 12.10546875 21.74609375 10 21 C8.98828125 19.22265625 8.98828125 19.22265625 8.3125 17.0625 C8.08175781 16.35222656 7.85101563 15.64195313 7.61328125 14.91015625 C7.30970703 13.96462891 7.30970703 13.96462891 7 13 C6.67 12.34 6.34 11.68 6 11 C6.66 10.67 7.32 10.34 8 10 C6.72992786 9.0406581 5.45891081 8.08256706 4.1875 7.125 C3.47980469 6.59132813 2.77210937 6.05765625 2.04296875 5.5078125 C0.39543703 4.29185219 -1.29624211 3.13583859 -3 2 C-2.01 2 -1.02 2 0 2 C0 1.34 0 0.68 0 0 Z " fill="#D2AC3B" transform="translate(42,7)"/>
<path d="M0 0 C0.53625 0.268125 1.0725 0.53625 1.625 0.8125 C0.87476562 1.3384375 0.12453125 1.864375 -0.6484375 2.40625 C-3.74604799 5.13995783 -5.15221993 7.63381457 -7 11.3125 C-10.16885561 17.56417894 -10.16885561 17.56417894 -12.07421875 19.859375 C-13.84350887 22.51596677 -13.67518701 24.40726367 -13.5625 27.5625 C-13.53542969 28.54734375 -13.50835937 29.5321875 -13.48046875 30.546875 C-13.44566406 31.29453125 -13.41085937 32.0421875 -13.375 32.8125 C-16.35245125 27.7014096 -16.26304864 22.55431066 -15.375 16.8125 C-12.93880205 10.92209632 -7.69353051 -0.60738399 0 0 Z " fill="#DEB862" transform="translate(15.375,9.1875)"/>
<path d="M0 0 C7.57106659 0.13765576 11.42316379 3.0557216 17 8 C16.67 8.66 16.34 9.32 16 10 C14.35333797 9.8864371 12.70763918 9.75882619 11.0625 9.625 C10.14597656 9.55539063 9.22945312 9.48578125 8.28515625 9.4140625 C7.15400391 9.20910156 7.15400391 9.20910156 6 9 C5.67 8.34 5.34 7.68 5 7 C3.35636866 6.27840576 1.68949614 5.60648579 0 5 C0 3.35 0 1.7 0 0 Z " fill="#E0B948" transform="translate(34,9)"/>
<path d="M0 0 C7.33333333 0 14.66666667 0 22 0 C21.67 0.99 21.34 1.98 21 3 C19.1746875 3.2165625 19.1746875 3.2165625 17.3125 3.4375 C15.03008234 3.71632938 12.86449385 4.03209356 10.625 4.5625 C6.43721491 5.26046418 2.23561622 5.07402048 -2 5 C-1.34 3.35 -0.68 1.7 0 0 Z " fill="#C5C2C4" transform="translate(28,25)"/>
<path d="M0 0 C2.125 0 2.125 0 5 1 C7.33863538 3.44972056 9.1665416 6.16024691 11 9 C11.61875 9.94875 12.2375 10.8975 12.875 11.875 C14.45763444 16.27120676 14.24668437 20.37695219 14 25 C11.5705484 21.3558226 11.83820425 19.28758728 12 15 C10.68 15 9.36 15 8 15 C7.59007812 14.16855469 7.18015625 13.33710938 6.7578125 12.48046875 C6.21898437 11.39378906 5.68015625 10.30710937 5.125 9.1875 C4.59132813 8.10855469 4.05765625 7.02960937 3.5078125 5.91796875 C2.02778861 2.92161735 2.02778861 2.92161735 0 0 Z " fill="#EED256" transform="translate(50,12)"/>
<path d="M0 0 C1.28583984 -0.01160156 1.28583984 -0.01160156 2.59765625 -0.0234375 C4.9375 0.375 4.9375 0.375 6.73046875 1.640625 C8.89691498 4.75357686 8.17578271 7.681618 7.9375 11.375 C6.9375 12.375 6.9375 12.375 4.87109375 12.47265625 C4.04738281 12.46105469 3.22367188 12.44945312 2.375 12.4375 C1.54871094 12.42847656 0.72242188 12.41945313 -0.12890625 12.41015625 C-0.76699219 12.39855469 -1.40507813 12.38695312 -2.0625 12.375 C-2.0625 11.715 -2.0625 11.055 -2.0625 10.375 C1.01367188 10.08203125 1.01367188 10.08203125 4.08984375 9.7890625 C5.00443359 9.58410156 5.00443359 9.58410156 5.9375 9.375 C6.2675 8.715 6.5975 8.055 6.9375 7.375 C5.6175 7.375 4.2975 7.375 2.9375 7.375 C2.6075 6.385 2.2775 5.395 1.9375 4.375 C-0.46795638 3.17227181 -2.01246953 3.27428528 -4.6875 3.3125 C-5.50476562 3.32152344 -6.32203125 3.33054687 -7.1640625 3.33984375 C-7.79054687 3.35144531 -8.41703125 3.36304688 -9.0625 3.375 C-6.00006084 0.68914849 -4.06414341 -0.03677958 0 0 Z " fill="#1B120F" transform="translate(43.0625,17.625)"/>
<path d="M0 0 C2.88748813 2.13701578 5.48660264 4.43619066 8 7 C3.9666466 7 2.16482462 5.39120082 -1 3 C-1 2.34 -1 1.68 -1 1 C-10.73774466 -2.70961701 -21.85760931 -1.30869557 -32 0 C-24.18409088 -7.81590912 -8.67176375 -4.59404889 0 0 Z " fill="#FAFCA9" transform="translate(49,4)"/>
<path d="M0 0 C0.99 0.33 1.98 0.66 3 1 C2.67 1.33 2.34 1.66 2 2 C4.31 2 6.62 2 9 2 C9 2.66 9 3.32 9 4 C11.97 4.495 11.97 4.495 15 5 C15 4.01 15 3.02 15 2 C16.98 2 18.96 2 21 2 C21 3.32 21 4.64 21 6 C14.07 6 7.14 6 0 6 C-1.24546405 3.50907189 -0.7767578 2.58919267 0 0 Z " fill="#585357" transform="translate(20,30)"/>
<path d="M0 0 C1.21429688 -0.01417969 2.42859375 -0.02835937 3.6796875 -0.04296875 C6.96844421 0.17702745 9.17865948 0.77034382 12.125 2.1875 C10.125 4.1875 10.125 4.1875 7.97021484 4.32275391 C7.10090332 4.27038574 6.2315918 4.21801758 5.3359375 4.1640625 C3.92441406 4.08671875 3.92441406 4.08671875 2.484375 4.0078125 C1.49953125 3.94335938 0.5146875 3.87890625 -0.5 3.8125 C-1.49257813 3.75578125 -2.48515625 3.6990625 -3.5078125 3.640625 C-5.96424767 3.49890759 -8.41969735 3.34747723 -10.875 3.1875 C-8.81894563 -0.92460874 -4.05145485 0.02141361 0 0 Z " fill="#FCFD79" transform="translate(33.875,1.8125)"/>
<path d="M0 0 C2.1875 0.3125 2.1875 0.3125 4 1 C2.9171875 1.7734375 2.9171875 1.7734375 1.8125 2.5625 C-0.53872983 4.60023252 -1.871269 6.10916258 -3.5625 8.625 C-5.39997423 11.3405078 -6.78696508 12.92898836 -10 14 C-8.71399035 8.97287136 -6.82997078 6.4563151 -3 3 C-2.484375 2.38125 -1.96875 1.7625 -1.4375 1.125 C-0.963125 0.75375 -0.48875 0.3825 0 0 Z " fill="#F4CC56" transform="translate(13,9)"/>
<path d="M0 0 C4.95 0 9.9 0 15 0 C15 0.66 15 1.32 15 2 C15.99 2.33 16.98 2.66 18 3 C14.66271977 4.11242674 12.4912907 4.00671255 9 3.75 C7.948125 3.68296875 6.89625 3.6159375 5.8125 3.546875 C3 3 3 3 0 0 Z " fill="#A57C34" transform="translate(21,38)"/>
<path d="M0 0 C3.3 0 6.6 0 10 0 C9.67 1.32 9.34 2.64 9 4 C5.7 4 2.4 4 -1 4 C-0.67 2.68 -0.34 1.36 0 0 Z " fill="#BBB8BB" transform="translate(10,31)"/>
<path d="M0 0 C3.3 0 6.6 0 10 0 C9.67 1.32 9.34 2.64 9 4 C5.7 4 2.4 4 -1 4 C-0.67 2.68 -0.34 1.36 0 0 Z " fill="#9F9C9F" transform="translate(45,31)"/>
<path d="M0 0 C1.37478516 0.01740234 1.37478516 0.01740234 2.77734375 0.03515625 C3.69644531 0.04417969 4.61554687 0.05320312 5.5625 0.0625 C6.27277344 0.07410156 6.98304687 0.08570312 7.71484375 0.09765625 C6.72484375 0.75765625 5.73484375 1.41765625 4.71484375 2.09765625 C5.37484375 2.75765625 6.03484375 3.41765625 6.71484375 4.09765625 C5.71484375 5.09765625 5.71484375 5.09765625 3.4296875 5.1953125 C2.05490234 5.17791016 2.05490234 5.17791016 0.65234375 5.16015625 C-0.26675781 5.15113281 -1.18585937 5.14210938 -2.1328125 5.1328125 C-2.84308594 5.12121094 -3.55335937 5.10960937 -4.28515625 5.09765625 C-3.29515625 4.43765625 -2.30515625 3.77765625 -1.28515625 3.09765625 C-1.94515625 2.43765625 -2.60515625 1.77765625 -3.28515625 1.09765625 C-2.28515625 0.09765625 -2.28515625 0.09765625 0 0 Z " fill="#C9C6C8" transform="translate(18.28515625,24.90234375)"/>
<path d="M0 0 C0.33 0.99 0.66 1.98 1 3 C-5.75 4.125 -5.75 4.125 -8 3 C-8 2.34 -8 1.68 -8 1 C-5.29120665 -0.35439668 -2.99066732 -0.06501451 0 0 Z " fill="#CFA84B" transform="translate(43,20)"/>
<path d="M0 0 C1.98 0 3.96 0 6 0 C6 1.32 6 2.64 6 4 C2.37 4 -1.26 4 -5 4 C-5 3.67 -5 3.34 -5 3 C-3.35 3 -1.7 3 0 3 C0 2.01 0 1.02 0 0 Z " fill="#4E494C" transform="translate(35,32)"/>
<path d="M0 0 C0.33 0 0.66 0 1 0 C1.09765625 6.15234375 1.09765625 6.15234375 1 8 C0 9 0 9 -2.06640625 9.09765625 C-2.89011719 9.08605469 -3.71382812 9.07445312 -4.5625 9.0625 C-5.38878906 9.05347656 -6.21507812 9.04445313 -7.06640625 9.03515625 C-7.70449219 9.02355469 -8.34257813 9.01195312 -9 9 C-9 8.34 -9 7.68 -9 7 C-6.36 6.67 -3.72 6.34 -1 6 C-0.67 4.02 -0.34 2.04 0 0 Z " fill="#30251D" transform="translate(50,21)"/>
<path d="M0 0 C3.35212973 3.08748791 5.85053527 5.51708756 7 10 C6.5390625 12.15234375 6.5390625 12.15234375 6 14 C5.73445313 13.45730469 5.46890625 12.91460937 5.1953125 12.35546875 C4.84210937 11.64003906 4.48890625 10.92460937 4.125 10.1875 C3.77695312 9.47980469 3.42890625 8.77210937 3.0703125 8.04296875 C1.9343514 5.78753582 1.9343514 5.78753582 0 3 C0 2.01 0 1.02 0 0 Z " fill="#F6F480" transform="translate(56,12)"/>
<path d="M0 0 C0.66 0.66 1.32 1.32 2 2 C-2.09725269 3.04167441 -5.61495224 2.94409525 -9.8125 2.5625 C-10.97394531 2.46066406 -12.13539062 2.35882813 -13.33203125 2.25390625 C-14.21246094 2.17011719 -15.09289062 2.08632812 -16 2 C-16 1.67 -16 1.34 -16 1 C-4.15114423 -0.31133582 -4.15114423 -0.31133582 0 0 Z " fill="#FAF770" transform="translate(44,3)"/>
<path d="M0 0 C0.66 0.33 1.32 0.66 2 1 C2 1.99 2 2.98 2 4 C-3.48675196 5.86783046 -8.22192976 6.2358396 -14 6 C-14 5.67 -14 5.34 -14 5 C-12.80375 4.87625 -11.6075 4.7525 -10.375 4.625 C-6.72403187 4.17674946 -3.45475101 3.29553163 0 2 C0 1.34 0 0.68 0 0 Z " fill="#7A6643" transform="translate(44,21)"/>
<path d="M0 0 C0.33 0.99 0.66 1.98 1 3 C1.70125 2.649375 2.4025 2.29875 3.125 1.9375 C6.50268586 0.8360807 8.58080593 1.20483859 12 2 C12 2.33 12 2.66 12 3 C7.71 3.66 3.42 4.32 -1 5 C-0.67 3.35 -0.34 1.7 0 0 Z " fill="#9D7B43" transform="translate(8,26)"/>
<path d="M0 0 C3.3 0 6.6 0 10 0 C9.67 0.99 9.34 1.98 9 3 C6.69 3 4.38 3 2 3 C2 2.34 2 1.68 2 1 C1.34 0.67 0.68 0.34 0 0 Z " fill="#B8B5B6" transform="translate(40,25)"/>
<path d="M0 0 C2.3828125 -0.29296875 2.3828125 -0.29296875 5.125 -0.1875 C6.03507812 -0.16042969 6.94515625 -0.13335938 7.8828125 -0.10546875 C8.58148438 -0.07066406 9.28015625 -0.03585938 10 0 C9.34 1.32 8.68 2.64 8 4 C7.34 4 6.68 4 6 4 C6 3.34 6 2.68 6 2 C4.35 1.67 2.7 1.34 1 1 C1 1.99 1 2.98 1 4 C0.01 3.67 -0.98 3.34 -2 3 C-1.34 2.01 -0.68 1.02 0 0 Z " fill="#DFDCDF" transform="translate(34,31)"/>
<path d="M0 0 C0.66 0.33 1.32 0.66 2 1 C0.56967163 2.17544805 -0.86953242 3.34010262 -2.3125 4.5 C-3.11300781 5.1496875 -3.91351563 5.799375 -4.73828125 6.46875 C-7 8 -7 8 -10 8 C-10 7.34 -10 6.68 -10 6 C-7.8828125 4.45703125 -7.8828125 4.45703125 -5.125 2.8125 C-4.22007813 2.26207031 -3.31515625 1.71164063 -2.3828125 1.14453125 C-1.20332031 0.57798828 -1.20332031 0.57798828 0 0 Z " fill="#473720" transform="translate(30,17)"/>
<path d="M0 0 C0.8353125 0.37125 0.8353125 0.37125 1.6875 0.75 C-1.77991134 3.70749791 -5.18123527 5.82848152 -9.3125 7.75 C-7.69865111 3.642021 -4.79776509 -0.51867731 0 0 Z " fill="#F7DF61" transform="translate(15.3125,9.25)"/>
<path d="M0 0 C3.3 0 6.6 0 10 0 C9.67 1.32 9.34 2.64 9 4 C8.01 3.67 7.02 3.34 6 3 C6.33 2.34 6.66 1.68 7 1 C4.36 1.33 1.72 1.66 -1 2 C-0.67 1.34 -0.34 0.68 0 0 Z " fill="#D8D5D8" transform="translate(22,31)"/>
<path d="M0 0 C2.33294775 -0.04241723 4.66702567 -0.04092937 7 0 C8 1 8 1 8.0625 4.0625 C8.041875 5.031875 8.02125 6.00125 8 7 C6.68 7.33 5.36 7.66 4 8 C4.66 7.01 5.32 6.02 6 5 C6 4.01 6 3.02 6 2 C3.03 1.505 3.03 1.505 0 1 C0 0.67 0 0.34 0 0 Z " fill="#9D824D" transform="translate(49,30)"/>
<path d="M0 0 C-0.33 0.99 -0.66 1.98 -1 3 C-3.31 3 -5.62 3 -8 3 C-8 2.34 -8 1.68 -8 1 C-5.10765685 0.17361624 -3.11257569 0 0 0 Z " fill="#888487" transform="translate(29,32)"/>
<path d="M0 0 C-0.66 1.32 -1.32 2.64 -2 4 C-4.97 3.505 -4.97 3.505 -8 3 C-8 2.34 -8 1.68 -8 1 C-5.23735711 0.40267181 -2.83967231 0 0 0 Z " fill="#DAD8D9" transform="translate(42,26)"/>
<path d="M0 0 C5.53846154 -0.36923077 5.53846154 -0.36923077 7.875 1.5 C8.24625 1.995 8.6175 2.49 9 3 C3.46153846 3.36923077 3.46153846 3.36923077 1.125 1.5 C0.75375 1.005 0.3825 0.51 0 0 Z " fill="#BE9642" transform="translate(21,38)"/>
<path d="M0 0 C0.66 0.33 1.32 0.66 2 1 C2 1.66 2 2.32 2 3 C2.66 3.33 3.32 3.66 4 4 C1.36 4 -1.28 4 -4 4 C-4 3.34 -4 2.68 -4 2 C-2.125 0.9375 -2.125 0.9375 0 0 Z " fill="#B38A39" transform="translate(33,20)"/>
<path d="M0 0 C3.67420866 0.30618405 4.78135513 0.75771784 7.3125 3.5625 C8.1478125 4.7690625 8.1478125 4.7690625 9 6 C5.06326356 4.68775452 2.77280706 3.08089673 0 0 Z " fill="#F8FA98" transform="translate(48,6)"/>
</svg>
