<?xml version="1.0" encoding="UTF-8"?>
<svg version="1.1" xmlns="http://www.w3.org/2000/svg" width="64" height="64">
<path d="M0 0 C21.12 0 42.24 0 64 0 C64 21.12 64 42.24 64 64 C42.88 64 21.76 64 0 64 C0 42.88 0 21.76 0 0 Z " fill="#FBFBFB" transform="translate(0,0)"/>
<path d="M0 0 C2.09765625 0.3984375 2.09765625 0.3984375 4.16015625 2.2734375 C5.09765625 4.3984375 5.09765625 4.3984375 5.09765625 6.3984375 C5.75765625 6.3984375 6.41765625 6.3984375 7.09765625 6.3984375 C7.40703125 5.5940625 7.71640625 4.7896875 8.03515625 3.9609375 C9.09765625 1.3984375 9.09765625 1.3984375 10.09765625 0.3984375 C13.1717666 -0.09416842 16.03160868 -0.16340368 19.09765625 0.3984375 C21.72265625 3.0234375 21.72265625 3.0234375 23.09765625 6.3984375 C22.94243999 10.35645213 22.30731283 12.08395263 20.09765625 15.3984375 C22.73765625 15.3984375 25.37765625 15.3984375 28.09765625 15.3984375 C31.04389281 19.81779234 31.04389281 19.81779234 32.09765625 22.3984375 C31.47265625 25.0859375 31.47265625 25.0859375 30.09765625 27.3984375 C29.72640625 28.1615625 29.35515625 28.9246875 28.97265625 29.7109375 C28.68390625 30.2678125 28.39515625 30.8246875 28.09765625 31.3984375 C25.45765625 31.3984375 22.81765625 31.3984375 20.09765625 31.3984375 C20.87109375 32.4503125 20.87109375 32.4503125 21.66015625 33.5234375 C23.44231472 37.08775445 23.2223034 38.62283636 22.09765625 42.3984375 C21.09765625 44.7734375 21.09765625 44.7734375 19.09765625 46.3984375 C15.98426862 47.01995331 13.20201996 47.09474338 10.09765625 46.3984375 C8.16015625 43.9609375 8.16015625 43.9609375 7.09765625 41.3984375 C6.43765625 41.0684375 5.77765625 40.7384375 5.09765625 40.3984375 C4.78828125 41.2028125 4.47890625 42.0071875 4.16015625 42.8359375 C3.09765625 45.3984375 3.09765625 45.3984375 2.09765625 46.3984375 C-0.97619588 46.89100204 -3.83725432 46.9654523 -6.90234375 46.3984375 C-9.52734375 43.7109375 -9.52734375 43.7109375 -10.90234375 40.3984375 C-10.73861266 36.96008464 -9.56215091 34.38609038 -7.90234375 31.3984375 C-10.54234375 31.3984375 -13.18234375 31.3984375 -15.90234375 31.3984375 C-18.84858031 26.97908266 -18.84858031 26.97908266 -19.90234375 24.3984375 C-19.27734375 21.7109375 -19.27734375 21.7109375 -17.90234375 19.3984375 C-17.34546875 18.25375 -17.34546875 18.25375 -16.77734375 17.0859375 C-16.48859375 16.5290625 -16.19984375 15.9721875 -15.90234375 15.3984375 C-13.26234375 15.3984375 -10.62234375 15.3984375 -7.90234375 15.3984375 C-8.41796875 14.6971875 -8.93359375 13.9959375 -9.46484375 13.2734375 C-11.24700222 9.70912055 -11.0269909 8.17403864 -9.90234375 4.3984375 C-7.89678659 -0.36476075 -4.68518822 -0.198073 0 0 Z " fill="#0A090A" transform="translate(25.90234375,8.6015625)"/>
<path d="M0 0 C5.18716578 -0.51871658 5.18716578 -0.51871658 8 0 C10.625 2.6875 10.625 2.6875 12 6 C11.375 8.625 11.375 8.625 10 11 C9.62875 11.763125 9.2575 12.52625 8.875 13.3125 C8.441875 14.1478125 8.441875 14.1478125 8 15 C5.36 15 2.72 15 0 15 C0.515625 15.70125 1.03125 16.4025 1.5625 17.125 C3.34465847 20.68931695 3.12464715 22.22439886 2 26 C1 28.375 1 28.375 -1 30 C-4.11338763 30.62151581 -6.89563629 30.69630588 -10 30 C-11.9375 27.5625 -11.9375 27.5625 -13 25 C-13.66 24.67 -14.32 24.34 -15 24 C-15.309375 24.804375 -15.61875 25.60875 -15.9375 26.4375 C-17 29 -17 29 -18 30 C-21.07385213 30.49256454 -23.93491057 30.5670148 -27 30 C-29.625 27.3125 -29.625 27.3125 -31 24 C-30.9308439 21.09544374 -30.1435591 19.33198043 -29 16.6875 C-26.14090666 14.27513999 -23.74962526 14.44717031 -20.09765625 14.6015625 C-18 15 -18 15 -15.9375 16.875 C-15 19 -15 19 -15 21 C-14.34 21 -13.68 21 -13 21 C-12.690625 20.21625 -12.38125 19.4325 -12.0625 18.625 C-11 16 -11 16 -10 14 C-7.67843403 13.59270772 -5.3431213 13.25561323 -3 13 C-3.33 11.02 -3.66 9.04 -4 7 C-3.34 6.566875 -2.68 6.13375 -2 5.6875 C-1.01 4.8521875 -1.01 4.8521875 0 4 C0 3.01 0 2.02 0 1 C0 0.67 0 0.34 0 0 Z " fill="#070707" transform="translate(46,25)"/>
<path d="M0 0 C3.90394212 0.04358468 4.39441589 0.14441589 7.3125 3.0625 C8.86645008 6.8767411 8.89812432 8.54620755 7.6875 12.4375 C6.6975 13.9225 6.6975 13.9225 5.6875 15.4375 C5.0275 15.4375 4.3675 15.4375 3.6875 15.4375 C3.254375 16.613125 3.254375 16.613125 2.8125 17.8125 C1.6875 20.4375 1.6875 20.4375 -0.3125 22.4375 C-3.3125 17.6875 -3.3125 17.6875 -3.3125 15.4375 C-5.9525 15.4375 -8.5925 15.4375 -11.3125 15.4375 C-10.6525 12.4675 -9.9925 9.4975 -9.3125 6.4375 C-8.6525 6.4375 -7.9925 6.4375 -7.3125 6.4375 C-7.003125 5.633125 -6.69375 4.82875 -6.375 4 C-4.79571685 0.19114063 -4.00124987 0.21610678 0 0 Z " fill="#AA1011" transform="translate(40.3125,8.5625)"/>
<path d="M0 0 C4.15419297 6.1091073 4.15419297 6.1091073 3.4375 10.25 C1.03444564 14.84714747 1.03444564 14.84714747 -1 16 C-5.76453047 16 -7.92646229 15.91643463 -11.5625 12.8125 C-13.37052962 9.27505075 -13.19681885 7.75003238 -12 4 C-9.70208493 -1.4575483 -5.13029286 -0.38719191 0 0 Z " fill="#060606" transform="translate(28,9)"/>
<path d="M0 0 C5.25791246 -0.43097643 5.25791246 -0.43097643 8 0 C10.125 2.1875 10.125 2.1875 11 5 C10.25 7.6875 10.25 7.6875 9 10 C8.67 10.66 8.34 11.32 8 12 C5.36 12 2.72 12 0 12 C0.33 11.4225 0.66 10.845 1 10.25 C2.27075898 7.80116138 2.27075898 7.80116138 2 4 C1.34 3.67 0.68 3.34 0 3 C0 2.01 0 1.02 0 0 Z " fill="#CA0102" transform="translate(37,11)"/>
<path d="M0 0 C3.07416886 -0.35471179 5.93741236 -0.5051691 9 0 C11.625 2.625 11.625 2.625 13 6 C12.84478374 9.95801463 12.20965658 11.68551513 10 15 C9.34 15 8.68 15 8 15 C7.566875 16.175625 7.566875 16.175625 7.125 17.375 C6 20 6 20 4 22 C1 17.25 1 17.25 1 15 C0.34 15 -0.32 15 -1 15 C-1.33 13.68 -1.66 12.36 -2 11 C-1.01 11.495 -1.01 11.495 0 12 C0 12.66 0 13.32 0 14 C2.97 14 5.94 14 9 14 C10.83940425 9.13456982 10.83940425 9.13456982 10.125 4.125 C6.96665994 0.96665994 4.3977305 1.21628183 0 1 C0 0.67 0 0.34 0 0 Z " fill="#681919" transform="translate(36,9)"/>
<path d="M0 0 C1.74671337 1.51888119 2.89123821 2.76693901 3.875 4.875 C4.06330979 8.07626638 3.0206723 9.57519324 1 12 C-1.6875 12.3125 -1.6875 12.3125 -4 12 C-4 11.01 -4 10.02 -4 9 C-3.34 9 -2.68 9 -2 9 C-2.33 8.01 -2.66 7.02 -3 6 C-2.01 5.67 -1.02 5.34 0 5 C0 3.35 0 1.7 0 0 Z " fill="#BE070A" transform="translate(44,11)"/>
<path d="M0 0 C1.98 0 3.96 0 6 0 C5.34 1.98 4.68 3.96 4 6 C3.34 6 2.68 6 2 6 C1.34 4.02 0.68 2.04 0 0 Z " fill="#DFDFDF" transform="translate(29,40)"/>
<path d="M0 0 C2.2477975 2.05233685 3.0022242 3.00667261 4 6 C1.69 6 -0.62 6 -3 6 C-2.01 4.02 -1.02 2.04 0 0 Z " fill="#DBDBDB" transform="translate(40,33)"/>
<path d="M0 0 C2.2477975 2.05233685 3.0022242 3.00667261 4 6 C1.69 6 -0.62 6 -3 6 C-2.01 4.02 -1.02 2.04 0 0 Z " fill="#DFDFDF" transform="translate(23,33)"/>
<path d="M0 0 C2.31 0 4.62 0 7 0 C6.01 1.98 5.02 3.96 4 6 C0 1.125 0 1.125 0 0 Z " fill="#DEE5E4" transform="translate(37,25)"/>
<path d="M0 0 C2.31 0 4.62 0 7 0 C6.01 1.98 5.02 3.96 4 6 C0 1.125 0 1.125 0 0 Z " fill="#E5E5E5" transform="translate(20,25)"/>
<path d="M0 0 C0.99 0.33 1.98 0.66 3 1 C3.6875 3.0625 3.6875 3.0625 4 5 C2.02 5 0.04 5 -2 5 C-1.34 3.35 -0.68 1.7 0 0 Z " fill="#E8E5E3" transform="translate(31,19)"/>
</svg>
