<svg width="64" height="64" viewBox="0 0 64 64" fill="none" xmlns="http://www.w3.org/2000/svg">
<path fill-rule="evenodd" clip-rule="evenodd" d="M0 32V64H32H64V32V0H32H0V32Z" fill="#C50000"/>
<path fill-rule="evenodd" clip-rule="evenodd" d="M0 32V64H32H64V32V0H32H0V32ZM45.927 12.635C48.452 15.845 48.496 16.966 46.25 20.913C44.744 23.558 43.928 23.988 40.402 23.994C36.602 24 36.176 23.716 34.541 20.092C32.851 16.343 32.853 16.057 34.605 13.092C36.124 10.519 37.055 10 40.143 10C42.962 10 44.353 10.634 45.927 12.635Z" fill="white"/>
<path fill-rule="evenodd" clip-rule="evenodd" d="M16.438 12.516C13.894 16.856 13.857 17.133 15.475 19.603C17.433 22.59 17.207 23.008 13.417 23.412C11.554 23.61 9.84 24.84 8.307 27.077C5.451 31.245 5.444 32.138 8.233 36.984C10.247 40.483 10.83 40.844 14.176 40.657L17.885 40.449L15.854 43.736L13.823 47.022L16.454 51.511C18.939 55.751 19.328 56 23.486 56C27.315 56 28.117 55.61 29.659 53C30.634 51.35 31.687 50 32 50C32.313 50 33.366 51.35 34.341 53C35.883 55.61 36.685 56 40.514 56C44.672 56 45.061 55.751 47.546 51.511L50.177 47.022L48.146 43.736L46.115 40.449L49.909 40.662C53.378 40.855 53.895 40.532 55.946 36.882C58.428 32.466 58.209 29.807 55.03 25.765C53.504 23.825 52.189 23.244 49.6 23.365C46.606 23.506 46.302 23.305 47.142 21.735C47.669 20.75 48.454 20.163 48.887 20.43C50.078 21.167 49.513 15.812 48.126 13.229C47.456 11.98 47.223 10.448 47.608 9.825C48.022 9.155 47.864 8.966 47.224 9.362C46.627 9.731 45.856 9.575 45.51 9.016C45.165 8.457 42.909 8 40.498 8C36.686 8 35.881 8.392 34.341 11C33.366 12.65 32.313 14 32 14C31.687 14 30.634 12.65 29.659 11C28.117 8.39 27.315 8 23.486 8C19.324 8 18.94 8.246 16.438 12.516ZM45.927 12.635C48.452 15.845 48.496 16.966 46.25 20.913C44.744 23.558 43.928 23.988 40.402 23.994C36.602 24 36.176 23.716 34.541 20.092C32.851 16.343 32.853 16.057 34.605 13.092C36.124 10.519 37.055 10 40.143 10C42.962 10 44.353 10.634 45.927 12.635ZM33.676 21.852C34.702 23.496 34.516 23.693 32.017 23.602C29.659 23.517 29.354 23.216 30.136 21.75C31.33 19.513 32.231 19.539 33.676 21.852ZM24.826 27.483C23.779 29.78 23.597 29.836 22.379 28.233C20.46 25.705 20.699 25 23.479 25C25.755 25 25.865 25.203 24.826 27.483ZM43 25.514C43 25.796 42.463 26.888 41.806 27.939C40.699 29.712 40.519 29.729 39.338 28.176C37.458 25.703 37.715 25 40.5 25C41.875 25 43 25.231 43 25.514ZM23.844 38.831C21.08 39.284 20.631 38.563 22.157 36.12L23.453 34.044L24.657 36.272C25.708 38.219 25.605 38.542 23.844 38.831ZM42.968 38.25C42.986 38.663 41.875 39 40.5 39C37.658 39 37.533 38.72 39.194 36.061C40.301 34.288 40.481 34.271 41.662 35.824C42.363 36.746 42.951 37.837 42.968 38.25ZM33.866 42.25C33.351 43.212 32.511 44 32 44C31.489 44 30.649 43.212 30.134 42.25C29.345 40.777 29.641 40.5 32 40.5C34.359 40.5 34.655 40.777 33.866 42.25Z" fill="#E6E6E6"/>
<path fill-rule="evenodd" clip-rule="evenodd" d="M16.242 12.97L13.984 16.925L15.992 20.212L18 23.5L13.939 24C10.521 24.421 9.539 25.094 7.742 28.25L5.607 32L7.742 35.75C9.539 38.906 10.521 39.579 13.939 40L18 40.5L15.992 43.788L13.984 47.075L16.242 51.03C18.404 54.817 18.715 54.985 23.569 54.992C28.303 54.999 28.74 54.786 30.198 51.75L31.759 48.5L33.629 51.744C35.346 54.72 35.911 54.987 40.5 54.986C45.276 54.985 45.601 54.807 47.758 51.03L50.016 47.075L48.008 43.788L46 40.5L50.061 40C53.479 39.579 54.461 38.906 56.258 35.75L58.393 32L56.258 28.25C54.461 25.094 53.479 24.421 50.061 24L46 23.5L48.008 20.212L50.016 16.925L47.758 12.97C45.594 9.18 45.288 9.015 40.411 9.008C35.948 9.001 35.181 9.308 34.182 11.5C33.555 12.875 32.574 14 32 14C31.426 14 30.445 12.875 29.818 11.5C28.819 9.308 28.052 9.001 23.589 9.008C18.712 9.015 18.406 9.18 16.242 12.97ZM45.927 12.635C48.452 15.845 48.496 16.966 46.25 20.913C44.744 23.558 43.928 23.988 40.402 23.994C36.602 24 36.176 23.716 34.541 20.092C32.851 16.343 32.853 16.057 34.605 13.092C36.124 10.519 37.055 10 40.143 10C42.962 10 44.353 10.634 45.927 12.635ZM33.818 21.5C34.893 23.86 34.791 24 32 24C29.209 24 29.107 23.86 30.182 21.5C30.808 20.125 31.627 19 32 19C32.373 19 33.192 20.125 33.818 21.5ZM26 25.566C26 25.877 25.491 27.083 24.868 28.246C23.773 30.294 23.693 30.301 22.368 28.489C20.404 25.802 20.664 25 23.5 25C24.875 25 26 25.255 26 25.566ZM43 25.566C43 25.877 42.491 27.083 41.868 28.246C40.773 30.294 40.693 30.301 39.368 28.489C37.404 25.802 37.664 25 40.5 25C41.875 25 43 25.255 43 25.566ZM26 38.191C26 38.636 24.875 39 23.5 39C20.671 39 20.549 38.711 22.132 35.754C23.227 33.706 23.307 33.699 24.632 35.511C25.384 36.54 26 37.746 26 38.191ZM43 38.191C43 38.636 41.875 39 40.5 39C37.671 39 37.549 38.711 39.132 35.754C40.227 33.706 40.307 33.699 41.632 35.511C42.384 36.54 43 37.746 43 38.191ZM33.818 42.5C33.192 43.875 32.373 45 32 45C31.627 45 30.808 43.875 30.182 42.5C29.107 40.14 29.209 40 32 40C34.791 40 34.893 40.14 33.818 42.5Z" fill="#CBCBCB"/>
<path fill-rule="evenodd" clip-rule="evenodd" d="M16.989 12.25C14.603 16.163 14.547 17.224 16.526 21.05L18.051 24H14.046C10.38 24 9.868 24.339 8 28L5.959 32L8 36C9.862 39.651 10.387 40 14.004 40H17.968L16.264 43.572C14.635 46.988 14.647 47.303 16.531 50.822C18.359 54.237 18.865 54.521 23.609 54.797C28.473 55.08 28.779 54.948 29.98 52.047C31.549 48.26 32.069 48.255 34.203 52.006C35.731 54.691 36.411 55 40.802 55C45.552 55 45.75 54.881 47.516 50.964C49.226 47.173 49.236 46.718 47.684 43.464L46.032 40H49.996C53.613 40 54.138 39.651 56 36L58.041 32L56 28C54.132 24.339 53.62 24 49.956 24H45.952L47.818 20.363C49.657 16.778 49.654 16.671 47.592 12.871C45.585 9.174 45.291 9.016 40.371 9.008C35.612 9.001 35.153 9.216 34 12C33.317 13.65 32.417 15 32 15C31.583 15 30.683 13.65 30 12C28.859 9.245 28.358 9 23.864 9C19.416 9 18.79 9.296 16.989 12.25ZM45.927 12.635C48.452 15.845 48.496 16.966 46.25 20.913C44.744 23.558 43.928 23.988 40.402 23.994C36.602 24 36.176 23.716 34.541 20.092C32.851 16.343 32.853 16.057 34.605 13.092C36.124 10.519 37.055 10 40.143 10C42.962 10 44.353 10.634 45.927 12.635ZM33.818 21.5C34.893 23.86 34.791 24 32 24C29.209 24 29.107 23.86 30.182 21.5C30.808 20.125 31.627 19 32 19C32.373 19 33.192 20.125 33.818 21.5ZM26 25.566C26 25.877 25.491 27.083 24.868 28.246C23.773 30.294 23.693 30.301 22.368 28.489C20.404 25.802 20.664 25 23.5 25C24.875 25 26 25.255 26 25.566ZM43 25.566C43 25.877 42.491 27.083 41.868 28.246C40.773 30.294 40.693 30.301 39.368 28.489C37.404 25.802 37.664 25 40.5 25C41.875 25 43 25.255 43 25.566ZM26 38.191C26 38.636 24.875 39 23.5 39C20.671 39 20.549 38.711 22.132 35.754C23.227 33.706 23.307 33.699 24.632 35.511C25.384 36.54 26 37.746 26 38.191ZM43 38.191C43 38.636 41.875 39 40.5 39C37.671 39 37.549 38.711 39.132 35.754C40.227 33.706 40.307 33.699 41.632 35.511C42.384 36.54 43 37.746 43 38.191ZM33.818 42.5C33.192 43.875 32.373 45 32 45C31.627 45 30.808 43.875 30.182 42.5C29.107 40.14 29.209 40 32 40C34.791 40 34.893 40.14 33.818 42.5Z" fill="#909090"/>
<path fill-rule="evenodd" clip-rule="evenodd" d="M16.941 12.595C14.813 16.039 14.788 16.333 16.36 19.629C17.262 21.52 18 23.278 18 23.534C18 23.79 16.313 24.004 14.25 24.008C10.908 24.016 10.264 24.451 8.333 28.008L6.166 32L8.333 35.992C10.264 39.549 10.908 39.984 14.25 39.992C16.313 39.996 18 40.21 18 40.466C18 40.722 17.262 42.48 16.36 44.371C14.788 47.667 14.813 47.961 16.941 51.405C18.942 54.643 19.597 55 23.525 55C27.311 55 28.121 54.604 29.659 52C31.88 48.24 32.559 48.247 34.527 52.053C35.982 54.866 36.463 55.082 40.663 54.803C44.733 54.532 45.448 54.105 47.357 50.804C49.421 47.233 49.435 47.006 47.747 44.149C45.384 40.148 45.454 40.001 49.75 39.992C53.073 39.985 53.759 39.53 55.78 35.992L58.06 32L55.78 28.008C53.759 24.47 53.073 24.015 49.75 24.008C45.454 23.999 45.384 23.852 47.747 19.851C49.435 16.994 49.421 16.767 47.357 13.196C45.452 9.902 44.728 9.467 40.697 9.199C36.574 8.924 36.014 9.167 34.371 11.949C32.124 15.753 31.444 15.76 29.5 12C28.133 9.357 27.425 9 23.556 9C19.592 9 18.946 9.351 16.941 12.595ZM45.927 12.635C48.452 15.845 48.496 16.966 46.25 20.913C44.744 23.558 43.928 23.988 40.402 23.994C36.602 24 36.176 23.716 34.541 20.092C32.851 16.343 32.853 16.057 34.605 13.092C36.124 10.519 37.055 10 40.143 10C42.962 10 44.353 10.634 45.927 12.635ZM33.839 20.547C35.411 23.996 35.409 24 32 24C30.35 24 29 23.796 29 23.547C29 22.422 31.391 18 32 18C32.373 18 33.201 19.146 33.839 20.547ZM26.069 26.75C23.664 30.951 23.439 31.014 21.647 27.98L19.887 25H23.479C26.614 25 26.943 25.222 26.069 26.75ZM43.069 26.75C40.664 30.951 40.439 31.014 38.647 27.98L36.887 25H40.479C43.614 25 43.943 25.222 43.069 26.75ZM26.069 37.25C26.943 38.778 26.614 39 23.479 39H19.887L21.647 36.02C23.439 32.986 23.664 33.049 26.069 37.25ZM43.069 37.25C43.943 38.778 43.614 39 40.479 39H36.887L38.647 36.02C40.439 32.986 40.664 33.049 43.069 37.25ZM35 40.453C35 41.578 32.609 46 32 46C31.391 46 29 41.578 29 40.453C29 40.204 30.35 40 32 40C33.65 40 35 40.204 35 40.453Z" fill="#545454"/>
<path fill-rule="evenodd" clip-rule="evenodd" d="M16.964 13.071L14.887 17.143L16.878 20.517L18.868 23.891L14.684 24.196C10.999 24.464 10.262 24.947 8.5 28.25L6.5 32L8.5 35.75C10.194 38.925 11.075 39.548 14.25 39.81C18.539 40.165 18.511 40.112 16.477 44.044C15.072 46.761 15.113 47.301 16.997 50.995C18.924 54.772 19.297 55 23.537 55C27.69 55 28.159 54.734 29.701 51.5C30.619 49.575 31.654 48 32 48C32.346 48 33.381 49.575 34.299 51.5C35.841 54.734 36.31 55 40.463 55C44.703 55 45.076 54.772 47.003 50.995C48.887 47.301 48.928 46.761 47.523 44.044C45.489 40.112 45.461 40.165 49.75 39.81C52.901 39.55 53.811 38.918 55.45 35.857C57.359 32.292 57.361 32.128 55.548 28.107C53.845 24.33 53.387 24 49.848 24C45.629 24 45.517 23.868 47.055 20.684C48.074 18.574 48.057 18.566 46.555 20.441C45.7 21.509 45 22.746 45 23.191C45 23.636 43.043 24 40.652 24C36.546 24 36.203 23.777 34.5 20C33.508 17.8 32.398 16 32.033 16C31.669 16 30.619 14.425 29.701 12.5C28.159 9.266 27.69 9 23.537 9C19.285 9 18.928 9.221 16.964 13.071ZM34.98 11.25C33.996 13.281 34.028 13.329 35.305 11.75C36.138 10.721 38.084 10 40.032 10C41.853 10 44.231 10.787 45.317 11.75C47.233 13.448 47.256 13.433 46.11 11.25C45.157 9.433 44.077 9 40.5 9C36.896 9 35.867 9.419 34.98 11.25ZM33.839 20.547C35.411 23.996 35.409 24 32 24C30.35 24 29 23.796 29 23.547C29 22.422 31.391 18 32 18C32.373 18 33.201 19.146 33.839 20.547ZM25.5 28C24.647 29.65 23.747 31 23.5 31C23.253 31 22.353 29.65 21.5 28L19.949 25H23.5H27.051L25.5 28ZM42.5 28C41.647 29.65 40.747 31 40.5 31C40.253 31 39.353 29.65 38.5 28L36.949 25H40.5H44.051L42.5 28ZM25.5 36L27.051 39H23.5H19.949L21.5 36C22.353 34.35 23.253 33 23.5 33C23.747 33 24.647 34.35 25.5 36ZM42.5 36L44.051 39H40.5H36.949L38.5 36C39.353 34.35 40.253 33 40.5 33C40.747 33 41.647 34.35 42.5 36ZM35 40.453C35 41.578 32.609 46 32 46C31.391 46 29 41.578 29 40.453C29 40.204 30.35 40 32 40C33.65 40 35 40.204 35 40.453Z" fill="#3A3A3A"/>
<path fill-rule="evenodd" clip-rule="evenodd" d="M17.112 13.015L14.855 17.03L16.972 20.455L19.089 23.881L14.984 24.19C11.409 24.46 10.598 24.993 8.702 28.321L6.526 32.142L8.652 35.821C10.437 38.909 11.438 39.58 14.889 40L19 40.5L16.974 43.817L14.948 47.134L17.158 51.067C19.177 54.659 19.728 55 23.527 55C27.253 55 27.881 54.637 29.57 51.5C30.607 49.575 31.7 48 32 48C32.3 48 33.393 49.575 34.43 51.5C36.119 54.637 36.747 55 40.473 55C44.272 55 44.823 54.659 46.842 51.067L49.052 47.134L47.026 43.817L45 40.5L49.111 40C52.562 39.58 53.563 38.909 55.348 35.821L57.474 32.142L55.297 28.321C53.36 24.922 52.644 24.471 48.81 24.234C44.812 23.987 44.391 24.204 43 27.234C41.196 31.161 39.995 31.136 38 27.131C36.727 24.576 35.843 24.072 32.168 23.81L27.836 23.5L30.388 19.75C31.791 17.688 32.606 16 32.197 16C31.789 16 30.607 14.425 29.57 12.5C27.881 9.363 27.253 9 23.527 9C19.714 9 19.181 9.334 17.112 13.015ZM39.269 9.693C40.242 9.947 41.592 9.93 42.269 9.656C42.946 9.382 42.15 9.175 40.5 9.195C38.85 9.215 38.296 9.439 39.269 9.693ZM26.978 25.25C26.966 25.938 26.132 27.571 25.125 28.88L23.295 31.26L21.648 28.907C19.098 25.267 19.576 24 23.5 24C25.645 24 26.991 24.484 26.978 25.25ZM26.978 38.75C26.991 39.516 25.645 40 23.5 40C19.585 40 19.232 39.102 21.676 35.372L23.352 32.815L25.154 35.157C26.145 36.446 26.966 38.063 26.978 38.75ZM44 38.611C44 39.532 42.82 40 40.5 40C36.579 40 36.231 39.104 38.694 35.345L40.387 32.76L42.194 34.991C43.187 36.218 44 37.847 44 38.611ZM34.5 43C33.647 44.65 32.522 46 32 46C31.478 46 30.353 44.65 29.5 43L27.949 40H32H36.051L34.5 43Z" fill="black"/>
</svg>
