<svg width="64" height="64" viewBox="0 0 64 64" fill="none" xmlns="http://www.w3.org/2000/svg">
<g clip-path="url(#clip0_1_82)">
<path fill-rule="evenodd" clip-rule="evenodd" d="M0 32V64H32H64V32V0H32H0V32Z" fill="#FFFEFF"/>
<path fill-rule="evenodd" clip-rule="evenodd" d="M21.882 1.381C0.152999 9.146 -7.108 36.099 7.928 53.181C14.009 60.09 20.864 63.299 30.636 63.812C37.884 64.192 39.45 63.941 44.648 61.563C56.509 56.136 63.513 44.877 63.39 31.435C63.274 18.871 56.92 8.614 45.811 3.064C40.655 0.486999 38.553 0.00699889 32.59 0.0439989C28.691 0.0679989 23.872 0.669999 21.882 1.381Z" fill="#F4D88F"/>
<path fill-rule="evenodd" clip-rule="evenodd" d="M24 0.876001C16.527 3.335 5 11.928 5 15.04C5 15.568 5.016 16.241 5.036 16.536C5.055 16.83 4.399 17.743 3.578 18.565C2.757 19.386 2.367 20.794 2.712 21.693C3.067 22.618 2.925 23.072 2.384 22.737C1.859 22.413 1.395 22.901 1.354 23.823C1.313 24.746 1.026 27.862 0.716 30.75C0.407 33.638 0.527 36 0.983 36C1.439 36 1.577 36.9 1.289 38.001C0.745 40.085 4.73 49.017 7.76 52.501C19.901 66.462 40.549 67.76 53.304 55.364C55.396 53.331 57.589 50.73 58.177 49.584C58.765 48.438 57.278 49.456 54.873 51.847C52.468 54.238 49.697 56.625 48.716 57.15C47.735 57.676 49.535 55.528 52.716 52.377C55.897 49.225 58.821 46.721 59.214 46.811C59.607 46.902 59.643 46.233 59.294 45.324C58.835 44.127 59.025 43.897 59.985 44.49C60.829 45.012 61.069 44.921 60.647 44.238C60.283 43.65 60.466 41.905 61.053 40.362C62.845 35.647 62.434 26.815 60.095 19.785C57.595 12.272 52.339 6.31 45.145 2.828C40.35 0.507 28.458 -0.590999 24 0.876001ZM35.921 27.25C35.878 29.038 35.646 30.029 35.405 29.453C35.165 28.877 33.401 28.588 31.484 28.812C28.586 29.15 28 28.9 28 27.32C28 25.906 28.702 25.431 30.75 25.461C32.263 25.482 33.831 25.95 34.235 26.5C34.65 27.065 34.976 26.738 34.985 25.75C34.993 24.788 35.225 24 35.5 24C35.775 24 35.964 25.462 35.921 27.25ZM15.345 26.543C15.019 27.392 14.538 27.872 14.276 27.61C14.014 27.348 14.096 26.653 14.459 26.067C15.445 24.471 16.021 24.781 15.345 26.543ZM49.5 26C49.84 26.55 49.641 27 49.059 27C48.477 27 48 26.55 48 26C48 25.45 48.198 25 48.441 25C48.684 25 49.16 25.45 49.5 26ZM11.45 28.342C11.036 29.993 11.628 31.592 13.457 33.767C15.047 35.656 15.648 37.1 15.009 37.494C14.436 37.848 14.226 38.557 14.543 39.069C15.863 41.205 12.979 39.789 11.073 37.365C8.718 34.371 8.494 32.205 10.161 28.547C11.612 25.361 12.223 25.264 11.45 28.342ZM55 32.556C55 35.124 51.242 40.247 49.728 39.743C48.549 39.35 47.784 36 48.873 36C50.243 36 53.163 29.863 52.585 28.198C52.121 26.864 52.317 26.916 53.498 28.441C54.324 29.509 55 31.361 55 32.556ZM52.079 34.679C52.036 35.327 51.293 36.564 50.429 37.429C49.564 38.293 49.284 39 49.806 39C51.324 39 53.237 36.187 52.673 34.784C52.325 33.917 52.132 33.882 52.079 34.679Z" fill="#EFCA7A"/>
<path fill-rule="evenodd" clip-rule="evenodd" d="M26 0.622001C21.876 1.399 18 3.175 18 4.288C18 4.863 17.716 5.049 17.369 4.702C16.345 3.679 12.88 5.997 13.627 7.205C14.029 7.855 13.853 8.027 13.199 7.623C11.697 6.695 6.811 11.066 7.46 12.757C7.744 13.498 7.555 13.843 7.039 13.524C6.523 13.205 5.583 13.911 4.95 15.093C4.018 16.835 4.056 17.096 5.15 16.474C5.893 16.051 5.488 16.69 4.25 17.892C1.936 20.141 1.236 21.59 2.989 20.507C4.037 19.859 3.271 22.735 1.923 24.509C0.501 26.379 1.586 42.299 3.371 45.75C4.295 47.538 5.291 49 5.585 49C5.878 49 5.797 48.48 5.405 47.845C4.948 47.107 5.132 46.963 5.914 47.447C6.586 47.862 6.9 48.817 6.612 49.569C6.323 50.321 6.587 51.245 7.198 51.622C7.936 52.079 8.025 51.838 7.463 50.905C6.74 49.705 6.87 49.706 8.354 50.91C9.309 51.686 9.862 52.918 9.581 53.648C9.301 54.379 9.393 54.869 9.786 54.738C10.179 54.607 11.48 55.4 12.678 56.5C18.775 62.098 22.701 63.478 32.5 63.471C38.706 63.466 41.509 62.971 45 61.263C49.79 58.919 56.423 53.03 58.155 49.584C58.731 48.438 57.151 49.654 54.645 52.287C49.187 58.021 42.861 61.026 35.175 61.538L29.5 61.915L34.5 61.087C51.138 58.332 62.463 45.833 62.252 30.46C62.182 25.4 58.094 13.179 55.974 11.694C54.895 10.939 54.347 9.951 54.756 9.5C55.165 9.049 55.001 8.964 54.391 9.312C53.78 9.66 52.055 8.568 50.556 6.886C49.057 5.204 46.26 3.171 44.341 2.369C40.649 0.827001 30.201 -0.167999 26 0.622001ZM36.992 19.974C38.18 20.725 38.23 21.17 37.242 22.158C36.509 22.891 35.994 26.086 35.985 29.95C35.975 33.915 35.635 35.973 35.123 35.165C33.946 33.309 33.564 33.291 31.462 35C30.402 35.861 29.936 35.968 30.367 35.25C30.78 34.563 30.679 34 30.142 34C29.606 34 28.94 34.563 28.662 35.25C28.385 35.938 28.122 33.462 28.079 29.75C28.015 24.266 28.375 22.625 30 21C32.161 18.839 34.625 18.477 36.992 19.974ZM16.395 26.75C16.041 28.262 15.133 30.159 14.376 30.964C13.178 32.239 13 32.17 13 30.437C13 28.578 15.543 24 16.576 24C16.83 24 16.749 25.238 16.395 26.75ZM51 29.444C51 30.117 50.325 30.667 49.5 30.667C48.675 30.667 48 29.878 48 28.915C48 27.952 47.737 26.339 47.416 25.332C46.962 23.905 47.294 24.022 48.916 25.861C50.062 27.159 51 28.772 51 29.444ZM12.215 28.285C11.622 33.365 14.683 36.501 20.096 36.359L24.392 36.246L21.158 37.918C19.379 38.838 18.241 39.908 18.629 40.295C19.016 40.683 18.324 41 17.09 41C13.854 41 9 35.78 9 32.299C9 30.006 11.301 25 12.356 25C12.489 25 12.426 26.478 12.215 28.285ZM20.23 26.25C19.672 26.938 18.994 28.4 18.724 29.5C18.328 31.109 18.209 30.996 18.116 28.917C17.995 26.22 18.672 25 20.289 25C20.865 25 20.842 25.496 20.23 26.25ZM45.626 26.467C46.644 29.119 45.527 29.991 44.344 27.467C43.698 26.088 43.601 25 44.125 25C44.641 25 45.316 25.66 45.626 26.467ZM55 32.188C55 35.728 50.225 41 47.018 41C45.843 41 45.154 40.56 45.487 40.022C45.819 39.483 44.608 38.374 42.796 37.556L39.5 36.068L43.195 36.635C46.284 37.109 47.324 36.767 49.547 34.544C51.676 32.415 52.122 31.174 51.788 28.313L51.371 24.74L53.186 26.981C54.184 28.213 55 30.556 55 32.188ZM51.6 35.6C51.244 36.527 51.178 37.511 51.453 37.786C51.728 38.061 52.244 37.527 52.6 36.6C52.956 35.673 53.022 34.689 52.747 34.414C52.472 34.139 51.956 34.673 51.6 35.6Z" fill="#DFCCA1"/>
<path fill-rule="evenodd" clip-rule="evenodd" d="M25.712 0.720001C21.498 1.355 10.986 9.013 7.317 14.121C1.269 22.542 -0.104001 33.636 3.745 42.983C5.955 48.35 12.653 56.757 16.794 59.362C21.828 62.528 30.156 64.386 35.846 63.612C41.334 62.865 49.892 58.9 52.591 55.854C54.185 54.055 53.815 54.148 50.347 56.418C45.31 59.716 37.949 62.044 33.091 61.875C30.106 61.772 30.39 61.621 34.772 60.982C45.547 59.411 54.136 53.347 59.217 43.722C60.974 40.393 61.451 37.808 61.473 31.5C61.506 21.719 59.099 16.107 51.551 8.368C44.672 1.314 36.945 -0.972999 25.712 0.720001ZM36.992 19.974C38.18 20.725 38.23 21.17 37.242 22.158C36.509 22.891 35.994 26.086 35.985 29.95C35.975 33.915 35.635 35.973 35.123 35.165C33.946 33.309 33.564 33.291 31.462 35C30.402 35.861 29.936 35.968 30.367 35.25C30.78 34.563 30.679 34 30.142 34C29.606 34 28.94 34.563 28.662 35.25C28.385 35.938 28.122 33.462 28.079 29.75C28.015 24.266 28.375 22.625 30 21C32.161 18.839 34.625 18.477 36.992 19.974ZM16.395 26.75C16.041 28.262 15.133 30.159 14.376 30.964C13.178 32.239 13 32.17 13 30.437C13 28.578 15.543 24 16.576 24C16.83 24 16.749 25.238 16.395 26.75ZM51 29.444C51 30.117 50.325 30.667 49.5 30.667C48.675 30.667 48 29.878 48 28.915C48 27.952 47.737 26.339 47.416 25.332C46.962 23.905 47.294 24.022 48.916 25.861C50.062 27.159 51 28.772 51 29.444ZM12.215 28.285C11.622 33.365 14.683 36.501 20.096 36.359L24.392 36.246L21.158 37.918C19.379 38.838 18.241 39.908 18.629 40.295C19.016 40.683 18.324 41 17.09 41C13.854 41 9 35.78 9 32.299C9 30.006 11.301 25 12.356 25C12.489 25 12.426 26.478 12.215 28.285ZM20.23 26.25C19.672 26.938 18.994 28.4 18.724 29.5C18.328 31.109 18.209 30.996 18.116 28.917C17.995 26.22 18.672 25 20.289 25C20.865 25 20.842 25.496 20.23 26.25ZM45.626 26.467C46.644 29.119 45.527 29.991 44.344 27.467C43.698 26.088 43.601 25 44.125 25C44.641 25 45.316 25.66 45.626 26.467ZM55 32.188C55 35.728 50.225 41 47.018 41C45.843 41 45.154 40.56 45.487 40.022C45.819 39.483 44.608 38.374 42.796 37.556L39.5 36.068L43.195 36.635C46.284 37.109 47.324 36.767 49.547 34.544C51.676 32.415 52.122 31.174 51.788 28.313L51.371 24.74L53.186 26.981C54.184 28.213 55 30.556 55 32.188Z" fill="#DBAE49"/>
<path fill-rule="evenodd" clip-rule="evenodd" d="M27.383 0.912001C21.758 2.322 15.494 5.902 11.068 10.238C-1.397 22.447 -1.28 40.772 11.344 53.396C24.942 66.994 50.957 61.439 59.33 43.149C62.538 36.142 62.313 25.151 58.825 18.48C55.838 12.768 47.525 4.533 42.729 2.535C38.368 0.719002 31.185 -0.0409987 27.383 0.912001ZM32.729 3.604C32.397 3.936 31.534 3.972 30.813 3.683C30.015 3.364 30.252 3.127 31.417 3.079C32.471 3.036 33.061 3.272 32.729 3.604ZM40.382 5.552C40.723 6.442 40.555 6.843 39.989 6.493C39.445 6.157 39 5.459 39 4.941C39 3.503 39.717 3.82 40.382 5.552ZM37.444 19.617C38.684 20.093 38.79 20.548 37.909 21.61C37.281 22.367 36.584 26.874 36.36 31.627C35.928 40.779 35.309 43.095 33.89 40.857C33.185 39.744 33.028 39.74 33.015 40.833C33.007 41.567 32.438 41.965 31.75 41.718C31.063 41.472 29.825 41.615 29 42.036C26.571 43.276 27.05 23.707 29.516 20.982C31.313 18.997 34.43 18.46 37.444 19.617ZM16.868 26.391C16.065 28.153 16.09 29.27 16.965 30.641C18.113 32.44 18.132 32.439 17.553 30.609C16.896 28.531 19.381 24 21.178 24C21.83 24 21.608 24.776 20.655 25.829C19.745 26.835 19 28.619 19 29.794C19 30.968 18.087 32.418 16.972 33.015C15.857 33.612 15.208 34.528 15.531 35.05C16.488 36.598 22.196 36.132 24.171 34.345C25.177 33.435 26 33.127 26 33.661C26 35.103 19.039 41 17.338 41C15.339 41 11.764 39.017 10.282 37.087C8.405 34.642 8.775 29.486 11.015 26.861L13.031 24.5L12.509 27.5C12.223 29.15 12.274 29.825 12.625 29C13.507 26.921 16.141 24 17.134 24C17.587 24 17.467 25.076 16.868 26.391ZM45.587 26.492C46.485 27.863 46.96 29.663 46.641 30.492C45.715 32.906 44.233 32.231 44.732 29.622C45.054 27.939 44.509 26.77 42.871 25.622C41.037 24.337 40.908 24 42.254 24C43.189 24 44.689 25.122 45.587 26.492ZM48.7 24.794C49.36 25.213 50.383 26.669 50.973 28.028C52.001 30.396 52.023 30.374 51.508 27.5L50.969 24.5L52.985 26.861C55.826 30.189 55.627 35.464 52.545 38.545C49.163 41.928 45.548 41.679 41.414 37.78C37.96 34.522 36.521 31.419 39.75 34.193C42.46 36.521 44.954 37.095 47.18 35.904C48.605 35.141 48.899 34.499 48.162 33.762C47.582 33.182 47.365 31.425 47.679 29.857C48.006 28.222 47.717 26.364 47.002 25.502C45.686 23.917 46.673 23.505 48.7 24.794ZM53.5 49C53.84 49.55 53.641 50 53.059 50C52.477 50 52 49.55 52 49C52 48.45 52.198 48 52.441 48C52.684 48 53.16 48.45 53.5 49ZM22 55.441C22 55.684 21.55 56.16 21 56.5C20.45 56.84 20 56.641 20 56.059C20 55.477 20.45 55 21 55C21.55 55 22 55.198 22 55.441ZM41 56.608C41 57.435 39.058 57.903 38.613 57.183C38.324 56.716 38.743 56.333 39.544 56.333C40.345 56.333 41 56.457 41 56.608ZM45.5 59.267C42.229 61.048 39.826 61.45 32.308 61.473C26.36 61.49 23.456 61.843 24.08 62.472C24.61 63.007 28.297 63.424 32.272 63.4C37.69 63.366 40.693 62.78 44.263 61.061C46.882 59.8 49.271 58.37 49.572 57.884C50.31 56.69 50.102 56.761 45.5 59.267Z" fill="#CC9E40"/>
<path fill-rule="evenodd" clip-rule="evenodd" d="M24.951 2.31C11.532 6.083 2 18.207 2 31.5C2 38.771 4.35 44.791 9.476 50.651C15.389 57.411 22.087 60.365 31.5 60.365C42.413 60.365 53.005 54.952 51.719 50.033C51.164 47.91 52.408 47.234 53.53 49.049C54.573 50.736 56.541 48.485 59.064 42.719C62.052 35.889 62.127 26.385 59.243 19.897C56.642 14.046 51.158 7.725 49.3 8.438C48.528 8.735 48.161 8.548 48.485 8.024C48.809 7.5 47.145 5.845 44.787 4.346C39.732 1.131 31.973 0.335001 24.951 2.31ZM43.758 5.375C46.994 7.048 48.204 10 45.654 10C44.913 10 42.846 9.271 41.061 8.381C38.613 7.159 37.285 7.018 35.657 7.805C32.049 9.552 28.146 9.824 27.588 8.369C27.296 7.609 26.377 7.302 25.454 7.656C24.316 8.093 24.181 8.494 25 9C25.825 9.51 25.706 9.899 24.596 10.325C23.675 10.678 23.123 10.444 23.262 9.759C23.393 9.117 23.05 8.564 22.5 8.53C21.95 8.497 21 8.151 20.389 7.762C18.585 6.612 17.874 8.203 19.427 9.919C20.694 11.319 20.58 11.5 18.429 11.5C16.943 11.5 15.994 10.917 15.985 10C15.971 8.667 15.862 8.667 15 10C14.375 10.967 14.025 11.063 14.015 10.27C14 9.055 20.159 5.469 25 3.875C28.86 2.604 40.145 3.507 43.758 5.375ZM24.5 6C24.16 6.55 24.359 7 24.941 7C25.523 7 26 6.55 26 6C26 5.45 25.802 5 25.559 5C25.316 5 24.84 5.45 24.5 6ZM50.075 11.275C50.034 11.674 49.775 12 49.5 12C45.519 12 45.478 11.984 47 11.001C48.615 9.958 50.197 10.099 50.075 11.275ZM13.467 14.279C12.356 14.9 11.426 14.793 10.654 13.956C9.753 12.98 9.908 12.85 11.361 13.364C12.806 13.875 13.081 13.653 12.588 12.37C12.048 10.961 12.188 10.911 13.54 12.033C14.985 13.232 14.978 13.433 13.467 14.279ZM52.667 15.456C52.667 16.257 52.284 16.676 51.817 16.387C51.35 16.098 51.226 15.443 51.543 14.931C52.351 13.623 52.667 13.77 52.667 15.456ZM11 18.607C11 20.2 10.104 20.352 8.122 19.096C7.364 18.616 7.041 17.743 7.404 17.155C8.279 15.739 11 16.837 11 18.607ZM38.782 20.846C38.993 21.48 38.679 22 38.083 22C37.437 22 37 24.218 37 27.5C37 32.93 37.038 33 39.965 33C45.138 33 46.365 27.453 41.692 25.194C39.705 24.234 39.679 24.129 41.421 24.068C42.478 24.03 44.165 24.745 45.171 25.655C47.172 27.465 47.743 26.143 45.8 24.2C44.02 22.42 46.193 22.747 48.943 24.673C50.257 25.593 51.006 25.818 50.607 25.173C49.422 23.255 50.771 23.837 52.961 26.189C55.91 29.354 55.708 35.383 52.545 38.545C48.851 42.24 44.532 41.844 40.368 37.429L37 33.858V37.429C37 42.168 33.988 45.226 29.731 44.809C26.581 44.5 26.58 44.498 26.873 39.091L27.165 33.683L23.714 37.341C21.149 40.061 19.449 41 17.086 41C11.752 41 8.134 36.098 8.968 30C9.233 28.06 12.677 24.347 14.268 24.286C14.945 24.26 16.4 23.893 17.5 23.472C19.145 22.842 19.278 22.945 18.25 24.053C16.297 26.157 16.784 27.505 18.829 25.655C19.835 24.745 21.522 24.03 22.579 24.068C24.321 24.129 24.295 24.234 22.308 25.194C19.297 26.65 18.67 28.848 20.479 31.608C22.739 35.057 26.405 33.474 26.77 28.892C27.284 22.431 28.017 20.896 31.235 19.543C34.504 18.169 38.096 18.789 38.782 20.846ZM56.813 19.938C57.063 20.688 56.688 21.063 55.938 20.813C55.216 20.572 54.428 19.784 54.188 19.063C53.938 18.313 54.313 17.938 55.063 18.188C55.784 18.428 56.572 19.216 56.813 19.938ZM59 25.559C59 26.352 58.365 27 57.588 27C56.409 27 56.232 25.986 56.923 23.191C57.157 22.247 59 24.349 59 25.559ZM12.564 26.707C12.022 28.132 12.136 28.247 13.124 27.267C13.808 26.588 14.115 25.781 13.807 25.474C13.499 25.166 12.94 25.721 12.564 26.707ZM60 34.5C60 35.325 59.325 36 58.5 36C57.675 36 57 35.325 57 34.5C57 33.675 57.675 33 58.5 33C59.325 33 60 33.675 60 34.5ZM6.986 35.414C6.338 36.062 5.662 36.062 5.014 35.414C4.367 34.767 4.705 34.429 6 34.429C7.295 34.429 7.633 34.767 6.986 35.414ZM18.75 35.662C19.438 35.94 20.563 35.94 21.25 35.662C21.938 35.385 21.375 35.158 20 35.158C18.625 35.158 18.063 35.385 18.75 35.662ZM42.75 35.662C43.438 35.94 44.563 35.94 45.25 35.662C45.938 35.385 45.375 35.158 44 35.158C42.625 35.158 42.063 35.385 42.75 35.662ZM9 40.059C9 41.392 6.26 41.229 5.405 39.845C4.962 39.13 5.13 38.962 5.845 39.405C6.48 39.797 7 39.615 7 39C7 38.385 7.45 38.16 8 38.5C8.55 38.84 9 39.541 9 40.059ZM58.771 39.813C59.015 40.544 58.557 40.767 57.584 40.394C56.713 40.059 56 39.347 56 38.81C56 37.495 58.273 38.318 58.771 39.813ZM9.5 45C9.16 45.55 8.459 46 7.941 46C7.423 46 7 45.55 7 45C7 44.45 7.702 44 8.559 44C9.416 44 9.84 44.45 9.5 45ZM17.251 54.149C16.385 55.015 16.142 54.771 16.263 53.161C16.369 51.753 16.761 51.361 17.412 52.012C18.063 52.663 18.008 53.392 17.251 54.149ZM49.128 52.75C50.371 54.336 50.336 54.371 48.75 53.128C47.084 51.821 46.555 51 47.378 51C47.585 51 48.373 51.788 49.128 52.75ZM47 55.059C47 55.577 46.1 56 45 56C42.794 56 42.277 54.426 44.25 53.718C45.763 53.176 47 53.779 47 55.059ZM21.457 54.931C21.774 55.443 21.622 56.115 21.121 56.425C20.62 56.735 19.952 56.316 19.636 55.494C19.014 53.874 20.517 53.409 21.457 54.931ZM40.671 57.663C40.375 57.958 39.605 57.874 38.96 57.475C38.09 56.937 38.137 56.532 39.143 55.907C40.477 55.079 41.769 56.564 40.671 57.663ZM26 56.441C26 56.684 25.55 57.16 25 57.5C24.45 57.84 24 57.641 24 57.059C24 56.477 24.45 56 25 56C25.55 56 26 56.198 26 56.441ZM30.771 57.813C31.371 59.612 29.304 59.234 28.606 57.416C28.233 56.443 28.456 55.985 29.187 56.229C29.84 56.447 30.553 57.159 30.771 57.813ZM36 58C36 58.55 35.325 59 34.5 59C33.675 59 33 58.55 33 58C33 57.45 33.675 57 34.5 57C35.325 57 36 57.45 36 58ZM35.75 62.662C36.438 62.94 37.563 62.94 38.25 62.662C38.938 62.385 38.375 62.158 37 62.158C35.625 62.158 35.063 62.385 35.75 62.662Z" fill="#B98319"/>
<path fill-rule="evenodd" clip-rule="evenodd" d="M12.398 9.391C6.393 14.532 2.818 21.868 2.424 29.864L2.097 36.5L2.983 30.291C4.206 21.727 7.038 15.861 12.522 10.53C18.031 5.176 17.971 4.621 12.398 9.391Z" fill="#6B3200"/>
</g>
<defs>
<clipPath id="clip0_1_82">
<rect width="64" height="64" rx="32" fill="white"/>
</clipPath>
</defs>
</svg>
