<svg width="65" height="65" viewBox="0 0 65 65" fill="none" xmlns="http://www.w3.org/2000/svg">
<path fill-rule="evenodd" clip-rule="evenodd" d="M18.207 3.584C12.612 6.372 6.319 12.807 3.352 18.775C0.7 24.11 0.7 41.89 3.352 47.225C6.319 53.193 12.612 59.628 18.207 62.416C22.701 64.656 24.674 65 33 65C41.326 65 43.299 64.656 47.793 62.416C53.388 59.628 59.681 53.193 62.648 47.225C65.3 41.89 65.3 24.11 62.648 18.775C59.681 12.807 53.388 6.372 47.793 3.584C40.215 -0.192 25.785 -0.192 18.207 3.584Z" fill="#FFFF00"/>
<path fill-rule="evenodd" clip-rule="evenodd" d="M19.362 3.062C12.63 6.404 7.339 11.635 4.068 18.179C-0.402 27.126 -0.402 38.874 4.068 47.821C7.257 54.201 12.6 59.573 18.855 62.686C24.062 65.277 41.938 65.277 47.145 62.686C53.4 59.573 58.743 54.201 61.932 47.821C64.649 42.383 65 40.687 65 33C65 25.313 64.649 23.617 61.932 18.179C60.244 14.802 57.047 10.484 54.826 8.583C47.974 2.718 44.577 1.553 33.5 1.266C25.081 1.048 22.846 1.332 19.362 3.062Z" fill="#FEE4D7"/>
<path fill-rule="evenodd" clip-rule="evenodd" d="M19.362 3.062C12.63 6.404 7.339 11.635 4.068 18.179C-0.402 27.126 -0.402 38.874 4.068 47.821C7.257 54.201 12.6 59.573 18.855 62.686C24.062 65.277 41.938 65.277 47.145 62.686C53.4 59.573 58.743 54.201 61.932 47.821C64.649 42.383 65 40.687 65 33C65 25.313 64.649 23.617 61.932 18.179C60.244 14.802 57.047 10.484 54.826 8.583C47.974 2.718 44.577 1.553 33.5 1.266C25.081 1.048 22.846 1.332 19.362 3.062ZM33.662 30.25C33.385 30.938 33.158 30.375 33.158 29C33.158 27.625 33.385 27.063 33.662 27.75C33.94 28.438 33.94 29.563 33.662 30.25ZM21.683 30.188C21.364 30.985 21.127 30.748 21.079 29.583C21.036 28.529 21.272 27.939 21.604 28.271C21.936 28.603 21.972 29.466 21.683 30.188Z" fill="#FDD2BC"/>
<path fill-rule="evenodd" clip-rule="evenodd" d="M19.362 3.062C12.63 6.404 7.339 11.635 4.068 18.179C-0.402 27.126 -0.402 38.874 4.068 47.821C7.257 54.201 12.6 59.573 18.855 62.686C24.062 65.277 41.938 65.277 47.145 62.686C53.4 59.573 58.743 54.201 61.932 47.821C64.649 42.383 65 40.687 65 33C65 25.313 64.649 23.617 61.932 18.179C60.244 14.802 57.047 10.484 54.826 8.583C47.974 2.718 44.577 1.553 33.5 1.266C25.081 1.048 22.846 1.332 19.362 3.062ZM35.269 10.656C34.592 10.93 33.242 10.947 32.269 10.693C31.296 10.439 31.85 10.215 33.5 10.195C35.15 10.175 35.946 10.382 35.269 10.656ZM28.917 11.283C28.688 11.439 27.6 12.226 26.5 13.033C24.65 14.39 24.603 14.369 25.872 12.75C26.627 11.787 27.715 11 28.289 11C28.863 11 29.146 11.127 28.917 11.283ZM24.662 18.25C24.385 18.938 24.158 18.375 24.158 17C24.158 15.625 24.385 15.063 24.662 15.75C24.94 16.438 24.94 17.563 24.662 18.25ZM49.5 17C50.495 18.1 51.085 19 50.81 19C50.535 19 49.495 18.1 48.5 17C47.505 15.9 46.915 15 47.19 15C47.465 15 48.505 15.9 49.5 17ZM21.442 17.907C21.751 18.405 21.102 18.578 20.001 18.29C17.666 17.679 17.371 17 19.441 17C20.234 17 21.134 17.408 21.442 17.907ZM17 18.378C17 18.585 16.213 19.373 15.25 20.128C13.664 21.371 13.629 21.336 14.872 19.75C16.179 18.084 17 17.555 17 18.378ZM33.662 30.25C33.385 30.938 33.158 30.375 33.158 29C33.158 27.625 33.385 27.063 33.662 27.75C33.94 28.438 33.94 29.563 33.662 30.25ZM21.683 30.188C21.364 30.985 21.127 30.748 21.079 29.583C21.036 28.529 21.272 27.939 21.604 28.271C21.936 28.603 21.972 29.466 21.683 30.188ZM55.689 34.75C55.438 35.712 55.232 34.925 55.232 33C55.232 31.075 55.438 30.288 55.689 31.25C55.941 32.212 55.941 33.788 55.689 34.75ZM16.128 46.75C17.371 48.336 17.336 48.371 15.75 47.128C14.084 45.821 13.555 45 14.378 45C14.585 45 15.373 45.788 16.128 46.75ZM52 45.378C52 45.585 51.212 46.373 50.25 47.128C48.664 48.371 48.629 48.336 49.872 46.75C51.179 45.084 52 44.555 52 45.378ZM20.128 50.75C21.371 52.336 21.336 52.371 19.75 51.128C18.084 49.821 17.555 49 18.378 49C18.585 49 19.373 49.788 20.128 50.75ZM40.579 52.774C38.857 54.423 38.835 54.402 40.1 52.295C40.829 51.083 41.64 50.306 41.903 50.569C42.166 50.832 41.57 51.824 40.579 52.774Z" fill="#FDB896"/>
<path fill-rule="evenodd" clip-rule="evenodd" d="M19.362 3.062C12.63 6.404 7.339 11.635 4.068 18.179C-0.402 27.126 -0.402 38.874 4.068 47.821C7.257 54.201 12.6 59.573 18.855 62.686C24.062 65.277 41.938 65.277 47.145 62.686C53.4 59.573 58.743 54.201 61.932 47.821C64.649 42.383 65 40.687 65 33C65 25.313 64.649 23.617 61.932 18.179C60.244 14.802 57.047 10.484 54.826 8.583C47.974 2.718 44.577 1.553 33.5 1.266C25.081 1.048 22.846 1.332 19.362 3.062ZM33.386 10.906C30.573 11.249 27.535 12.141 26.636 12.887C24.766 14.439 24.512 18.121 26.055 21.316C27.074 23.426 27.057 23.434 25.555 21.559C21.222 16.15 25.786 9.894 33.885 10.141L38.5 10.282L33.386 10.906ZM44.493 12.989C44.843 13.555 44.442 13.723 43.552 13.382C41.82 12.717 41.503 12 42.941 12C43.459 12 44.157 12.445 44.493 12.989ZM49.563 17.25L52.5 20.5L49.25 17.563C46.221 14.825 45.54 14 46.313 14C46.485 14 47.948 15.462 49.563 17.25ZM21.8 18.2C22.46 18.86 22.936 20.997 22.858 22.95L22.716 26.5L22.108 22.51C21.07 15.7 16.41 16.703 12.863 24.5C11.863 26.7 11.034 27.908 11.022 27.184C10.966 23.853 16.318 17 18.974 17C19.868 17 21.14 17.54 21.8 18.2ZM53.807 23.526C53.499 23.834 52.94 23.279 52.564 22.293C52.022 20.868 52.136 20.753 53.124 21.733C53.808 22.412 54.115 23.219 53.807 23.526ZM29 26C29.589 27.1 29.845 28 29.57 28C29.295 28 28.589 27.1 28 26C27.411 24.9 27.155 24 27.43 24C27.705 24 28.411 24.9 29 26ZM35.571 25.571C34.707 26.436 33.948 28.123 33.884 29.321C33.798 30.931 33.651 31.057 33.321 29.802C32.794 27.802 34.619 24 36.107 24C36.677 24 36.436 24.707 35.571 25.571ZM41.965 25.934C42.534 26.998 42.927 30.711 42.838 34.184L42.677 40.5L42.088 33.212C41.694 28.328 41.005 25.611 40 24.977C39.063 24.386 38.956 24.025 39.715 24.015C40.383 24.007 41.395 24.87 41.965 25.934ZM21.683 30.188C21.364 30.985 21.127 30.748 21.079 29.583C21.036 28.529 21.272 27.939 21.604 28.271C21.936 28.603 21.972 29.466 21.683 30.188ZM55.716 35.75C55.487 37.263 55.3 36.025 55.3 33C55.3 29.975 55.487 28.738 55.716 30.25C55.945 31.762 55.945 34.237 55.716 35.75ZM10.689 34.75C10.438 35.712 10.232 34.925 10.232 33C10.232 31.075 10.438 30.288 10.689 31.25C10.941 32.212 10.941 33.788 10.689 34.75ZM36.399 35.75C37.308 37.538 37.826 39 37.551 39C36.975 39 34 33.456 34 32.383C34 31.339 34.542 32.1 36.399 35.75ZM25.415 37.235C26.162 37.741 26.122 37.974 25.285 37.985C24.617 37.993 23.605 37.13 23.035 36.066C21.627 33.434 21.774 31.993 23.195 34.5C23.819 35.6 24.818 36.831 25.415 37.235ZM31 35.378C31 35.585 30.212 36.373 29.25 37.128C27.664 38.371 27.629 38.336 28.872 36.75C30.179 35.084 31 34.555 31 35.378ZM11.683 39.188C11.364 39.985 11.127 39.748 11.079 38.583C11.036 37.529 11.272 36.939 11.604 37.271C11.936 37.603 11.972 38.466 11.683 39.188ZM40.535 43.068C41.408 44.755 41.982 46.534 41.811 47.022C41.64 47.509 40.746 46.128 39.824 43.954C37.837 39.266 38.282 38.711 40.535 43.068ZM21.336 51.364C23.571 52.814 24.948 54 24.394 54C21.595 54 12 44.405 12 41.606C12 41.052 13.186 42.429 14.636 44.664C16.085 46.9 19.1 49.915 21.336 51.364ZM44.914 47.5C44.945 48.05 44.533 47.825 44 47C43.467 46.175 43.055 44.825 43.086 44C43.144 42.416 44.81 45.606 44.914 47.5ZM53 44.345C53 44.535 51.987 45.547 50.75 46.595L48.5 48.5L50.405 46.25C52.195 44.136 53 43.545 53 44.345ZM40.506 52.994C39.507 54.097 38.326 55 37.881 55C37.436 55 38.068 53.965 39.286 52.699C41.974 49.907 43.062 50.169 40.506 52.994ZM28.729 54.604C28.397 54.936 27.534 54.972 26.813 54.683C26.015 54.364 26.252 54.127 27.417 54.079C28.471 54.036 29.061 54.272 28.729 54.604ZM34.75 55.689C33.788 55.941 32.212 55.941 31.25 55.689C30.288 55.438 31.075 55.232 33 55.232C34.925 55.232 35.712 55.438 34.75 55.689Z" fill="#FC9562"/>
<path fill-rule="evenodd" clip-rule="evenodd" d="M19.362 3.062C12.63 6.404 7.339 11.635 4.068 18.179C-0.402 27.126 -0.402 38.874 4.068 47.821C7.257 54.201 12.6 59.573 18.855 62.686C24.062 65.277 41.938 65.277 47.145 62.686C53.4 59.573 58.743 54.201 61.932 47.821C64.649 42.383 65 40.687 65 33C65 25.313 64.649 23.617 61.932 18.179C60.244 14.802 57.047 10.484 54.826 8.583C47.974 2.718 44.577 1.553 33.5 1.266C25.081 1.048 22.846 1.332 19.362 3.062ZM45.6 13.556C55.217 19.502 58.939 33.124 53.671 43.093C50.88 48.374 46.907 50.335 44.293 47.722C43.043 46.472 42.51 43.695 42.193 36.773C41.959 31.673 41.315 26.938 40.762 26.25C39.115 24.205 36.037 24.825 34.844 27.443C33.908 29.498 34.181 30.73 36.561 35.193C43.141 47.533 43.352 48.098 42.39 50.833C40.463 56.311 31.923 57.574 23.459 53.633C17.563 50.887 13.877 46.863 11.459 40.531C8.194 31.983 11.661 18.876 17.58 17.39C22.353 16.193 23 17.262 23 26.346C23 35.203 24.039 37.519 27.702 36.824C30.788 36.24 30.5 30.855 27.057 24.755C21.189 14.358 23.682 9.583 34.644 10.223C39.3 10.494 41.954 11.302 45.6 13.556ZM27.223 12.557C24.17 14.695 24.415 18.456 28 24.5C32.503 32.09 31.774 38 26.335 38C23.035 38 21.668 34.553 21.579 26C21.502 18.72 21.428 18.5 19.04 18.5C17.363 18.5 15.858 19.571 14.314 21.862C6.084 34.075 14.625 52.322 29.625 54.571C35.377 55.434 38.616 54.515 40.623 51.452C42.22 49.015 42.122 48.637 37.47 39.39C33.437 31.369 32.818 29.416 33.603 27.172C34.279 25.237 35.346 24.407 37.469 24.164C41.721 23.677 43 26.077 43 34.542C43 46.793 45.882 50.956 50.759 45.75C57.363 38.7 56.161 24.103 48.376 16.803C42.551 11.341 31.986 9.22 27.223 12.557Z" fill="#FC8042"/>
<path fill-rule="evenodd" clip-rule="evenodd" d="M27.223 12.557C24.17 14.695 24.415 18.456 28 24.5C32.503 32.09 31.774 38 26.335 38C23.035 38 21.668 34.553 21.579 26C21.502 18.72 21.428 18.5 19.04 18.5C17.363 18.5 15.858 19.571 14.314 21.862C6.084 34.075 14.625 52.322 29.625 54.571C35.377 55.434 38.616 54.515 40.623 51.452C42.22 49.015 42.122 48.637 37.47 39.39C33.437 31.369 32.818 29.416 33.603 27.172C34.279 25.237 35.346 24.407 37.469 24.164C41.721 23.677 43 26.077 43 34.542C43 46.793 45.882 50.956 50.759 45.75C57.363 38.7 56.161 24.103 48.376 16.803C42.551 11.341 31.986 9.22 27.223 12.557Z" fill="#FF8080"/>
<path fill-rule="evenodd" clip-rule="evenodd" d="M27.223 12.557C24.17 14.695 24.415 18.456 28 24.5C32.503 32.09 31.774 38 26.335 38C23.035 38 21.668 34.553 21.579 26C21.502 18.72 21.428 18.5 19.04 18.5C17.363 18.5 15.858 19.571 14.314 21.862C6.084 34.075 14.625 52.322 29.625 54.571C35.377 55.434 38.616 54.515 40.623 51.452C42.22 49.015 42.122 48.637 37.47 39.39C33.437 31.369 32.818 29.416 33.603 27.172C34.279 25.237 35.346 24.407 37.469 24.164C41.721 23.677 43 26.077 43 34.542C43 46.793 45.882 50.956 50.759 45.75C57.363 38.7 56.161 24.103 48.376 16.803C42.551 11.341 31.986 9.22 27.223 12.557Z" fill="white"/>
</svg>
