<svg width="250" height="250" viewBox="0 0 250 250" fill="none" xmlns="http://www.w3.org/2000/svg">
<path fill-rule="evenodd" clip-rule="evenodd" d="M98.418 0.867C98.712 1.343 95.588 2.276 91.475 2.94C87.362 3.603 83.355 4.788 82.57 5.573C81.785 6.358 80.712 7 80.186 7C78.173 7 69 10.341 69 11.074C69 11.498 67.473 12.349 65.606 12.965C63.739 13.581 60.927 15.19 59.356 16.541C57.785 17.892 55.938 18.998 55.25 18.999C54.563 18.999 54 19.425 54 19.945C54 20.843 50.279 23.271 46.968 24.535C46.126 24.856 44.578 26.396 43.53 27.956C42.352 29.708 41.059 30.576 40.148 30.226C39.294 29.899 38.937 30.09 39.302 30.679C39.648 31.24 38.898 32.252 37.635 32.928C36.372 33.604 34.544 35.503 33.572 37.148C32.6 38.793 31.561 39.894 31.263 39.596C30.964 39.297 29.995 40.404 29.11 42.055C28.224 43.706 27.118 45.021 26.652 44.976C26.186 44.932 24.891 46.598 23.776 48.68C22.66 50.761 21.188 52.922 20.506 53.482C19.823 54.042 18.659 55.93 17.92 57.678C17.18 59.426 16.302 60.686 15.967 60.479C15.632 60.273 14.558 62.329 13.579 65.049C12.601 67.769 11.459 69.784 11.041 69.526C10.624 69.267 9.494 71.965 8.532 75.52C7.57 79.075 6.428 81.765 5.995 81.497C5.562 81.229 4.396 85.029 3.403 89.94C2.41 94.851 1.238 98.647 0.799 98.376C0.36 98.104 0 110.085 0 125C0 139.915 0.36 151.896 0.799 151.624C1.238 151.353 2.41 155.149 3.403 160.06C4.396 164.971 5.562 168.771 5.995 168.503C6.428 168.235 7.57 170.925 8.532 174.48C9.494 178.035 10.624 180.733 11.041 180.474C11.459 180.216 12.601 182.231 13.579 184.951C14.558 187.671 15.68 189.698 16.073 189.455C16.466 189.212 17.507 190.81 18.386 193.006C19.265 195.203 20.365 197 20.831 197C21.297 197 22.534 198.76 23.58 200.91C24.626 203.061 25.793 204.628 26.174 204.392C26.555 204.157 27.654 205.298 28.617 206.928C29.579 208.558 30.647 209.718 30.989 209.507C31.331 209.295 32.416 210.616 33.399 212.442C34.382 214.268 36.254 216.333 37.559 217.032C38.864 217.73 39.648 218.76 39.302 219.321C38.937 219.91 39.294 220.101 40.148 219.774C41.059 219.424 42.352 220.292 43.53 222.044C44.578 223.604 46.126 225.144 46.968 225.465C50.279 226.729 54 229.157 54 230.055C54 230.575 54.59 231 55.311 231C56.033 231 57.614 231.923 58.824 233.051C60.035 234.179 61.423 234.857 61.908 234.557C62.393 234.257 63.048 234.684 63.364 235.506C63.679 236.328 64.594 237 65.397 237C66.2 237 67.489 237.631 68.26 238.403C69.612 239.755 77.975 243 80.106 243C80.676 243 81.785 243.642 82.57 244.427C83.355 245.212 87.362 246.397 91.475 247.06C95.588 247.724 98.712 248.657 98.418 249.133C98.12 249.614 109.959 250 125 250C140.041 250 151.88 249.614 151.582 249.133C151.288 248.657 154.412 247.724 158.525 247.06C162.638 246.397 166.645 245.212 167.43 244.427C168.215 243.642 169.288 243 169.814 243C171.827 243 181 239.659 181 238.926C181 238.502 182.527 237.651 184.394 237.035C186.261 236.419 189.073 234.81 190.644 233.459C192.215 232.108 194.063 231.002 194.75 231.001C195.438 231.001 196 230.575 196 230.055C196 229.157 199.721 226.729 203.032 225.465C203.874 225.144 205.422 223.604 206.47 222.044C207.648 220.292 208.941 219.424 209.852 219.774C210.706 220.101 211.063 219.91 210.698 219.321C210.352 218.76 211.076 217.762 212.308 217.103C213.54 216.443 215.425 214.6 216.496 213.007C217.567 211.413 218.631 210.298 218.861 210.528C219.092 210.758 220.058 209.496 221.009 207.723C221.959 205.951 223.066 204.636 223.467 204.802C223.868 204.969 225.109 203.402 226.224 201.32C227.34 199.239 228.812 197.078 229.494 196.518C230.177 195.958 231.341 194.07 232.08 192.322C232.82 190.574 233.698 189.314 234.033 189.521C234.368 189.727 235.442 187.671 236.421 184.951C237.399 182.231 238.541 180.216 238.959 180.474C239.376 180.733 240.506 178.035 241.468 174.48C242.43 170.925 243.572 168.235 244.005 168.503C244.438 168.771 245.604 164.971 246.597 160.06C247.59 155.149 248.762 151.353 249.201 151.624C249.64 151.896 250 139.915 250 125C250 110.085 249.64 98.104 249.201 98.376C248.762 98.647 247.59 94.851 246.597 89.94C245.604 85.029 244.438 81.229 244.005 81.497C243.572 81.765 242.43 79.075 241.468 75.52C240.506 71.965 239.376 69.267 238.959 69.526C238.541 69.784 237.399 67.769 236.421 65.049C235.442 62.329 234.32 60.302 233.927 60.545C233.534 60.788 232.493 59.19 231.614 56.994C230.735 54.797 229.635 53 229.169 53C228.703 53 227.466 51.24 226.42 49.09C225.374 46.939 224.207 45.372 223.826 45.608C223.445 45.843 222.346 44.702 221.383 43.072C220.421 41.442 219.353 40.282 219.011 40.493C218.669 40.705 217.584 39.383 216.6 37.556C215.617 35.73 213.704 33.73 212.349 33.113C210.865 32.437 210.173 31.529 210.608 30.826C211.072 30.074 210.804 29.861 209.852 30.226C208.941 30.576 207.648 29.708 206.47 27.956C205.422 26.396 203.874 24.856 203.032 24.535C199.721 23.271 196 20.843 196 19.945C196 19.425 195.41 19 194.689 19C193.967 19 192.386 18.077 191.176 16.949C189.965 15.821 188.577 15.143 188.092 15.443C187.607 15.743 186.952 15.316 186.636 14.494C186.321 13.672 185.406 13 184.603 13C183.8 13 182.511 12.369 181.74 11.597C180.388 10.245 172.025 7 169.894 7C169.324 7 168.215 6.358 167.43 5.573C166.645 4.788 162.638 3.603 158.525 2.94C154.412 2.276 151.288 1.343 151.582 0.867C151.88 0.386 140.041 0 125 0C109.959 0 98.12 0.386 98.418 0.867Z" fill="#F8DEEE"/>
<path fill-rule="evenodd" clip-rule="evenodd" d="M98.418 0.867C98.712 1.343 95.588 2.276 91.475 2.94C87.362 3.603 83.355 4.788 82.57 5.573C81.785 6.358 80.712 7 80.186 7C78.173 7 69 10.341 69 11.074C69 11.498 67.473 12.349 65.606 12.965C63.739 13.581 60.927 15.19 59.356 16.541C57.785 17.892 55.938 18.998 55.25 18.999C54.563 18.999 54 19.425 54 19.945C54 20.843 50.279 23.271 46.968 24.535C46.126 24.856 44.578 26.396 43.53 27.956C42.352 29.708 41.059 30.576 40.148 30.226C39.294 29.899 38.937 30.09 39.302 30.679C39.648 31.24 38.898 32.252 37.635 32.928C36.372 33.604 34.544 35.503 33.572 37.148C32.6 38.793 31.561 39.894 31.263 39.596C30.964 39.297 29.995 40.404 29.11 42.055C28.224 43.706 27.118 45.021 26.652 44.976C26.186 44.932 24.891 46.598 23.776 48.68C22.66 50.761 21.188 52.922 20.506 53.482C19.823 54.042 18.659 55.93 17.92 57.678C17.18 59.426 16.302 60.686 15.967 60.479C15.632 60.273 14.558 62.329 13.579 65.049C12.601 67.769 11.459 69.784 11.041 69.526C10.624 69.267 9.494 71.965 8.532 75.52C7.57 79.075 6.428 81.765 5.995 81.497C5.562 81.229 4.396 85.029 3.403 89.94C2.41 94.851 1.238 98.647 0.799 98.376C0.36 98.104 0 110.085 0 125C0 139.915 0.36 151.896 0.799 151.624C1.238 151.353 2.41 155.149 3.403 160.06C4.396 164.971 5.562 168.771 5.995 168.503C6.428 168.235 7.57 170.925 8.532 174.48C9.494 178.035 10.624 180.733 11.041 180.474C11.459 180.216 12.601 182.231 13.579 184.951C14.558 187.671 15.68 189.698 16.073 189.455C16.466 189.212 17.507 190.81 18.386 193.006C19.265 195.203 20.365 197 20.831 197C21.297 197 22.534 198.76 23.58 200.91C24.626 203.061 25.793 204.628 26.174 204.392C26.555 204.157 27.654 205.298 28.617 206.928C29.579 208.558 30.647 209.718 30.989 209.507C31.331 209.295 32.416 210.616 33.399 212.442C34.382 214.268 36.254 216.333 37.559 217.032C38.864 217.73 39.648 218.76 39.302 219.321C38.937 219.91 39.294 220.101 40.148 219.774C41.059 219.424 42.352 220.292 43.53 222.044C44.578 223.604 46.126 225.144 46.968 225.465C50.279 226.729 54 229.157 54 230.055C54 230.575 54.59 231 55.311 231C56.033 231 57.614 231.923 58.824 233.051C60.035 234.179 61.423 234.857 61.908 234.557C62.393 234.257 63.048 234.684 63.364 235.506C63.679 236.328 64.594 237 65.397 237C66.2 237 67.489 237.631 68.26 238.403C69.612 239.755 77.975 243 80.106 243C80.676 243 81.785 243.642 82.57 244.427C83.355 245.212 87.362 246.397 91.475 247.06C95.588 247.724 98.712 248.657 98.418 249.133C98.12 249.614 109.959 250 125 250C140.041 250 151.88 249.614 151.582 249.133C151.288 248.657 154.412 247.724 158.525 247.06C162.638 246.397 166.645 245.212 167.43 244.427C168.215 243.642 169.288 243 169.814 243C171.827 243 181 239.659 181 238.926C181 238.502 182.527 237.651 184.394 237.035C186.261 236.419 189.073 234.81 190.644 233.459C192.215 232.108 194.063 231.002 194.75 231.001C195.438 231.001 196 230.575 196 230.055C196 229.157 199.721 226.729 203.032 225.465C203.874 225.144 205.422 223.604 206.47 222.044C207.648 220.292 208.941 219.424 209.852 219.774C210.706 220.101 211.063 219.91 210.698 219.321C210.352 218.76 211.076 217.762 212.308 217.103C213.54 216.443 215.425 214.6 216.496 213.007C217.567 211.413 218.631 210.298 218.861 210.528C219.092 210.758 220.058 209.496 221.009 207.723C221.959 205.951 223.066 204.636 223.467 204.802C223.868 204.969 225.109 203.402 226.224 201.32C227.34 199.239 228.812 197.078 229.494 196.518C230.177 195.958 231.341 194.07 232.08 192.322C232.82 190.574 233.698 189.314 234.033 189.521C234.368 189.727 235.442 187.671 236.421 184.951C237.399 182.231 238.541 180.216 238.959 180.474C239.376 180.733 240.506 178.035 241.468 174.48C242.43 170.925 243.572 168.235 244.005 168.503C244.438 168.771 245.604 164.971 246.597 160.06C247.59 155.149 248.762 151.353 249.201 151.624C249.64 151.896 250 139.915 250 125C250 110.085 249.64 98.104 249.201 98.376C248.762 98.647 247.59 94.851 246.597 89.94C245.604 85.029 244.438 81.229 244.005 81.497C243.572 81.765 242.43 79.075 241.468 75.52C240.506 71.965 239.376 69.267 238.959 69.526C238.541 69.784 237.399 67.769 236.421 65.049C235.442 62.329 234.32 60.302 233.927 60.545C233.534 60.788 232.493 59.19 231.614 56.994C230.735 54.797 229.635 53 229.169 53C228.703 53 227.466 51.24 226.42 49.09C225.374 46.939 224.207 45.372 223.826 45.608C223.445 45.843 222.346 44.702 221.383 43.072C220.421 41.442 219.353 40.282 219.011 40.493C218.669 40.705 217.584 39.383 216.6 37.556C215.617 35.73 213.704 33.73 212.349 33.113C210.865 32.437 210.173 31.529 210.608 30.826C211.072 30.074 210.804 29.861 209.852 30.226C208.941 30.576 207.648 29.708 206.47 27.956C205.422 26.396 203.874 24.856 203.032 24.535C199.721 23.271 196 20.843 196 19.945C196 19.425 195.41 19 194.689 19C193.967 19 192.386 18.077 191.176 16.949C189.965 15.821 188.577 15.143 188.092 15.443C187.607 15.743 186.952 15.316 186.636 14.494C186.321 13.672 185.406 13 184.603 13C183.8 13 182.511 12.369 181.74 11.597C180.388 10.245 172.025 7 169.894 7C169.324 7 168.215 6.358 167.43 5.573C166.645 4.788 162.638 3.603 158.525 2.94C154.412 2.276 151.288 1.343 151.582 0.867C151.88 0.386 140.041 0 125 0C109.959 0 98.12 0.386 98.418 0.867ZM127.345 63.75C127.6 64.162 126.545 64.5 125 64.5C123.455 64.5 122.4 64.162 122.655 63.75C122.909 63.337 123.965 63 125 63C126.035 63 127.091 63.337 127.345 63.75ZM119.122 70.675C117.943 72.702 117.659 72.053 118.624 69.539C118.966 68.645 119.458 68.124 119.715 68.382C119.973 68.639 119.706 69.671 119.122 70.675ZM131.807 71.526C131.499 71.834 130.94 71.279 130.564 70.293C130.022 68.868 130.136 68.753 131.124 69.733C131.808 70.412 132.115 71.219 131.807 71.526ZM106.124 73.267C105.136 74.247 105.022 74.132 105.564 72.707C105.94 71.721 106.499 71.166 106.807 71.474C107.115 71.781 106.808 72.588 106.124 73.267ZM144.382 72.552C144.723 73.442 144.555 73.843 143.989 73.493C143.445 73.157 143 72.459 143 71.941C143 70.503 143.717 70.82 144.382 72.552ZM114.345 81.543C114.019 82.392 113.538 82.872 113.276 82.61C113.014 82.348 113.096 81.653 113.459 81.067C114.445 79.471 115.021 79.781 114.345 81.543ZM101.122 84.675C99.943 86.702 99.659 86.053 100.624 83.539C100.966 82.645 101.458 82.124 101.715 82.382C101.973 82.639 101.706 83.671 101.122 84.675ZM149.969 85.5C149.969 86.05 149.533 85.825 149 85C148.467 84.175 148.031 83.05 148.031 82.5C148.031 81.95 148.467 82.175 149 83C149.533 83.825 149.969 84.95 149.969 85.5ZM97.122 93.675C95.943 95.702 95.659 95.053 96.624 92.539C96.966 91.645 97.458 91.124 97.715 91.382C97.973 91.639 97.706 92.671 97.122 93.675ZM154.807 96.526C154.499 96.834 153.94 96.279 153.564 95.293C153.022 93.868 153.136 93.753 154.124 94.733C154.808 95.412 155.115 96.219 154.807 96.526ZM92.693 107.731C92.439 108.704 92.215 108.15 92.195 106.5C92.175 104.85 92.382 104.054 92.656 104.731C92.93 105.408 92.947 106.758 92.693 107.731ZM157.693 107.731C157.439 108.704 157.215 108.15 157.195 106.5C157.175 104.85 157.382 104.054 157.656 104.731C157.93 105.408 157.947 106.758 157.693 107.731ZM104.382 108.552C104.723 109.442 104.555 109.843 103.989 109.493C103.445 109.157 103 108.459 103 107.941C103 106.503 103.717 106.82 104.382 108.552ZM146.124 109.267C145.136 110.247 145.022 110.132 145.564 108.707C145.94 107.721 146.499 107.166 146.807 107.474C147.115 107.781 146.808 108.588 146.124 109.267ZM132.25 121.743C128.262 121.932 121.737 121.932 117.75 121.743C113.763 121.553 117.025 121.397 125 121.397C132.975 121.397 136.238 121.553 132.25 121.743ZM142.128 123.75C143.371 125.336 143.336 125.371 141.75 124.128C140.787 123.373 140 122.585 140 122.378C140 121.555 140.821 122.084 142.128 123.75ZM108.382 128.552C108.723 129.442 108.555 129.843 107.989 129.493C107.445 129.157 107 128.459 107 127.941C107 126.503 107.717 126.82 108.382 128.552ZM142.124 129.267C141.136 130.247 141.022 130.132 141.564 128.707C141.94 127.721 142.499 127.166 142.807 127.474C143.115 127.781 142.808 128.588 142.124 129.267ZM91 128.326C91 128.505 89.763 129.742 88.25 131.076L85.5 133.5L87.924 130.75C90.19 128.18 91 127.541 91 128.326ZM96.128 129.75C97.397 131.369 97.35 131.39 95.5 130.033C94.4 129.226 93.313 128.439 93.083 128.283C92.854 128.127 93.137 128 93.711 128C94.285 128 95.373 128.787 96.128 129.75ZM156.917 128.283C156.688 128.439 155.6 129.226 154.5 130.033C152.65 131.39 152.603 131.369 153.872 129.75C154.627 128.787 155.715 128 156.289 128C156.863 128 157.146 128.127 156.917 128.283ZM162.076 130.75L164.5 133.5L161.5 131C159.85 129.625 158.313 128.387 158.083 128.25C157.854 128.113 158.113 128 158.659 128C159.205 128 160.742 129.238 162.076 130.75ZM86 134.378C86 134.585 85.213 135.373 84.25 136.128C82.664 137.371 82.629 137.336 83.872 135.75C85.179 134.084 86 133.555 86 134.378ZM166.128 135.75C167.371 137.336 167.336 137.371 165.75 136.128C164.084 134.821 163.555 134 164.378 134C164.585 134 165.373 134.787 166.128 135.75ZM102 139C102.589 140.1 102.845 141 102.57 141C102.295 141 101.589 140.1 101 139C100.411 137.9 100.155 137 100.43 137C100.705 137 101.411 137.9 102 139ZM149 139C148.411 140.1 147.705 141 147.43 141C147.155 141 147.411 140.1 148 139C148.589 137.9 149.295 137 149.57 137C149.845 137 149.589 137.9 149 139ZM68 140.378C68 140.585 67.213 141.373 66.25 142.128C64.664 143.371 64.629 143.336 65.872 141.75C67.179 140.084 68 139.555 68 140.378ZM184.128 141.75C185.371 143.336 185.336 143.371 183.75 142.128C182.787 141.373 182 140.585 182 140.378C182 139.555 182.821 140.084 184.128 141.75ZM175.128 147.75C176.371 149.336 176.336 149.371 174.75 148.128C173.084 146.821 172.555 146 173.378 146C173.585 146 174.373 146.787 175.128 147.75ZM62 148.378C62 148.585 61.212 149.373 60.25 150.128C58.664 151.371 58.629 151.336 59.872 149.75C61.179 148.084 62 147.555 62 148.378ZM190.128 149.75C191.371 151.336 191.336 151.371 189.75 150.128C188.084 148.821 187.555 148 188.378 148C188.585 148 189.373 148.787 190.128 149.75ZM178.128 151.75C179.371 153.336 179.336 153.371 177.75 152.128C176.084 150.821 175.555 150 176.378 150C176.585 150 177.373 150.787 178.128 151.75ZM59 152.378C59 152.585 58.212 153.373 57.25 154.128C55.664 155.371 55.629 155.336 56.872 153.75C58.179 152.084 59 151.555 59 152.378ZM193.128 153.75C194.371 155.336 194.336 155.371 192.75 154.128C191.084 152.821 190.555 152 191.378 152C191.585 152 192.373 152.787 193.128 153.75ZM71 154.378C71 154.585 70.213 155.373 69.25 156.128C67.664 157.371 67.629 157.336 68.872 155.75C70.179 154.084 71 153.555 71 154.378ZM112 156C112.589 157.1 112.845 158 112.57 158C112.295 158 111.589 157.1 111 156C110.411 154.9 110.155 154 110.43 154C110.705 154 111.411 154.9 112 156ZM181.128 155.75C182.371 157.336 182.336 157.371 180.75 156.128C179.084 154.821 178.555 154 179.378 154C179.585 154 180.373 154.787 181.128 155.75ZM187.903 165.431C187.64 165.694 186.829 164.917 186.1 163.705C184.835 161.598 184.857 161.577 186.579 163.226C187.57 164.176 188.166 165.168 187.903 165.431ZM51.693 167.731C51.439 168.704 51.215 168.15 51.195 166.5C51.175 164.85 51.382 164.054 51.656 164.731C51.93 165.408 51.947 166.758 51.693 167.731ZM198.689 168.75C198.438 169.713 198.232 168.925 198.232 167C198.232 165.075 198.438 164.287 198.689 165.25C198.941 166.213 198.941 167.787 198.689 168.75ZM110.269 166.656C109.592 166.93 108.242 166.947 107.269 166.693C106.296 166.439 106.85 166.215 108.5 166.195C110.15 166.175 110.946 166.382 110.269 166.656ZM143.269 166.656C142.592 166.93 141.242 166.947 140.269 166.693C139.296 166.439 139.85 166.215 141.5 166.195C143.15 166.175 143.946 166.382 143.269 166.656ZM64.033 169.5C65.39 171.35 65.369 171.397 63.75 170.128C62.788 169.373 62 168.285 62 167.711C62 167.137 62.127 166.854 62.283 167.083C62.439 167.313 63.226 168.4 64.033 169.5ZM103.269 167.656C102.592 167.93 101.242 167.947 100.269 167.693C99.296 167.439 99.85 167.215 101.5 167.195C103.15 167.175 103.946 167.382 103.269 167.656ZM150.25 167.662C149.563 167.94 148.438 167.94 147.75 167.662C147.063 167.385 147.625 167.158 149 167.158C150.375 167.158 150.938 167.385 150.25 167.662ZM186.579 169.774C184.857 171.423 184.835 171.402 186.1 169.295C186.829 168.083 187.64 167.306 187.903 167.569C188.166 167.832 187.57 168.824 186.579 169.774ZM93.269 168.656C92.592 168.93 91.242 168.947 90.269 168.693C89.296 168.439 89.85 168.215 91.5 168.195C93.15 168.175 93.946 168.382 93.269 168.656ZM160.25 168.662C159.563 168.94 158.438 168.94 157.75 168.662C157.063 168.385 157.625 168.158 159 168.158C160.375 168.158 160.938 168.385 160.25 168.662ZM82.25 169.662C81.563 169.94 80.438 169.94 79.75 169.662C79.063 169.385 79.625 169.158 81 169.158C82.375 169.158 82.938 169.385 82.25 169.662ZM129.076 171.75L131.5 174.5L128.936 172.25C125.611 169.333 124.261 169.414 120.555 172.75L117.5 175.5L120.437 172.25C124.024 168.281 125.921 168.171 129.076 171.75ZM170.25 169.662C169.563 169.94 168.438 169.94 167.75 169.662C167.063 169.385 167.625 169.158 169 169.158C170.375 169.158 170.938 169.385 170.25 169.662ZM73.269 170.656C72.592 170.93 71.242 170.947 70.269 170.693C69.296 170.439 69.85 170.215 71.5 170.195C73.15 170.175 73.946 170.382 73.269 170.656ZM179.75 170.689C178.787 170.941 177.213 170.941 176.25 170.689C175.287 170.438 176.075 170.232 178 170.232C179.925 170.232 180.713 170.438 179.75 170.689ZM197 174.313C197 174.485 195.537 175.948 193.75 177.563L190.5 180.5L193.437 177.25C196.175 174.221 197 173.54 197 174.313ZM58.128 178.75C59.371 180.336 59.336 180.371 57.75 179.128C56.084 177.821 55.555 177 56.378 177C56.585 177 57.373 177.787 58.128 178.75ZM105.25 177.662C104.563 177.94 103.438 177.94 102.75 177.662C102.063 177.385 102.625 177.158 104 177.158C105.375 177.158 105.938 177.385 105.25 177.662ZM147.25 177.662C146.563 177.94 145.438 177.94 144.75 177.662C144.063 177.385 144.625 177.158 146 177.158C147.375 177.158 147.938 177.385 147.25 177.662ZM97.269 178.656C96.592 178.93 95.242 178.947 94.269 178.693C93.296 178.439 93.85 178.215 95.5 178.195C97.15 178.175 97.946 178.382 97.269 178.656ZM156.269 178.656C155.592 178.93 154.242 178.947 153.269 178.693C152.296 178.439 152.85 178.215 154.5 178.195C156.15 178.175 156.946 178.382 156.269 178.656ZM89.269 179.656C88.592 179.93 87.242 179.947 86.269 179.693C85.296 179.439 85.85 179.215 87.5 179.195C89.15 179.175 89.946 179.382 89.269 179.656ZM164.25 179.662C163.563 179.94 162.438 179.94 161.75 179.662C161.063 179.385 161.625 179.158 163 179.158C164.375 179.158 164.938 179.385 164.25 179.662ZM79.25 180.662C78.563 180.94 77.438 180.94 76.75 180.662C76.063 180.385 76.625 180.158 78 180.158C79.375 180.158 79.938 180.385 79.25 180.662ZM173.729 180.604C173.397 180.936 172.534 180.972 171.813 180.683C171.015 180.364 171.252 180.127 172.417 180.079C173.471 180.036 174.061 180.272 173.729 180.604ZM68.75 181.689C67.787 181.941 66.213 181.941 65.25 181.689C64.287 181.438 65.075 181.232 67 181.232C68.925 181.232 69.713 181.438 68.75 181.689ZM184.75 181.689C183.787 181.941 182.213 181.941 181.25 181.689C180.287 181.438 181.075 181.232 183 181.232C184.925 181.232 185.713 181.438 184.75 181.689Z" fill="#F3A6D5"/>
<path fill-rule="evenodd" clip-rule="evenodd" d="M98.418 0.867C98.712 1.343 95.588 2.276 91.475 2.94C87.362 3.603 83.355 4.788 82.57 5.573C81.785 6.358 80.712 7 80.186 7C78.173 7 69 10.341 69 11.074C69 11.498 67.473 12.349 65.606 12.965C63.739 13.581 60.927 15.19 59.356 16.541C57.785 17.892 55.938 18.998 55.25 18.999C54.563 18.999 54 19.425 54 19.945C54 20.843 50.279 23.271 46.968 24.535C46.126 24.856 44.578 26.396 43.53 27.956C42.352 29.708 41.059 30.576 40.148 30.226C39.294 29.899 38.937 30.09 39.302 30.679C39.648 31.24 38.898 32.252 37.635 32.928C36.372 33.604 34.544 35.503 33.572 37.148C32.6 38.793 31.561 39.894 31.263 39.596C30.964 39.297 29.995 40.404 29.11 42.055C28.224 43.706 27.118 45.021 26.652 44.976C26.186 44.932 24.891 46.598 23.776 48.68C22.66 50.761 21.188 52.922 20.506 53.482C19.823 54.042 18.659 55.93 17.92 57.678C17.18 59.426 16.302 60.686 15.967 60.479C15.632 60.273 14.558 62.329 13.579 65.049C12.601 67.769 11.459 69.784 11.041 69.526C10.624 69.267 9.494 71.965 8.532 75.52C7.57 79.075 6.428 81.765 5.995 81.497C5.562 81.229 4.396 85.029 3.403 89.94C2.41 94.851 1.238 98.647 0.799 98.376C0.36 98.104 0 110.085 0 125C0 139.915 0.36 151.896 0.799 151.624C1.238 151.353 2.41 155.149 3.403 160.06C4.396 164.971 5.562 168.771 5.995 168.503C6.428 168.235 7.57 170.925 8.532 174.48C9.494 178.035 10.624 180.733 11.041 180.474C11.459 180.216 12.601 182.231 13.579 184.951C14.558 187.671 15.68 189.698 16.073 189.455C16.466 189.212 17.507 190.81 18.386 193.006C19.265 195.203 20.365 197 20.831 197C21.297 197 22.534 198.76 23.58 200.91C24.626 203.061 25.793 204.628 26.174 204.392C26.555 204.157 27.654 205.298 28.617 206.928C29.579 208.558 30.647 209.718 30.989 209.507C31.331 209.295 32.416 210.616 33.399 212.442C34.382 214.268 36.254 216.333 37.559 217.032C38.864 217.73 39.648 218.76 39.302 219.321C38.937 219.91 39.294 220.101 40.148 219.774C41.059 219.424 42.352 220.292 43.53 222.044C44.578 223.604 46.126 225.144 46.968 225.465C50.279 226.729 54 229.157 54 230.055C54 230.575 54.59 231 55.311 231C56.033 231 57.614 231.923 58.824 233.051C60.035 234.179 61.423 234.857 61.908 234.557C62.393 234.257 63.048 234.684 63.364 235.506C63.679 236.328 64.594 237 65.397 237C66.2 237 67.489 237.631 68.26 238.403C69.612 239.755 77.975 243 80.106 243C80.676 243 81.785 243.642 82.57 244.427C83.355 245.212 87.362 246.397 91.475 247.06C95.588 247.724 98.712 248.657 98.418 249.133C98.12 249.614 109.959 250 125 250C140.041 250 151.88 249.614 151.582 249.133C151.288 248.657 154.412 247.724 158.525 247.06C162.638 246.397 166.645 245.212 167.43 244.427C168.215 243.642 169.288 243 169.814 243C171.827 243 181 239.659 181 238.926C181 238.502 182.527 237.651 184.394 237.035C186.261 236.419 189.073 234.81 190.644 233.459C192.215 232.108 194.063 231.002 194.75 231.001C195.438 231.001 196 230.575 196 230.055C196 229.157 199.721 226.729 203.032 225.465C203.874 225.144 205.422 223.604 206.47 222.044C207.648 220.292 208.941 219.424 209.852 219.774C210.706 220.101 211.063 219.91 210.698 219.321C210.352 218.76 211.076 217.762 212.308 217.103C213.54 216.443 215.425 214.6 216.496 213.007C217.567 211.413 218.631 210.298 218.861 210.528C219.092 210.758 220.058 209.496 221.009 207.723C221.959 205.951 223.066 204.636 223.467 204.802C223.868 204.969 225.109 203.402 226.224 201.32C227.34 199.239 228.812 197.078 229.494 196.518C230.177 195.958 231.341 194.07 232.08 192.322C232.82 190.574 233.698 189.314 234.033 189.521C234.368 189.727 235.442 187.671 236.421 184.951C237.399 182.231 238.541 180.216 238.959 180.474C239.376 180.733 240.506 178.035 241.468 174.48C242.43 170.925 243.572 168.235 244.005 168.503C244.438 168.771 245.604 164.971 246.597 160.06C247.59 155.149 248.762 151.353 249.201 151.624C249.64 151.896 250 139.915 250 125C250 110.085 249.64 98.104 249.201 98.376C248.762 98.647 247.59 94.851 246.597 89.94C245.604 85.029 244.438 81.229 244.005 81.497C243.572 81.765 242.43 79.075 241.468 75.52C240.506 71.965 239.376 69.267 238.959 69.526C238.541 69.784 237.399 67.769 236.421 65.049C235.442 62.329 234.32 60.302 233.927 60.545C233.534 60.788 232.493 59.19 231.614 56.994C230.735 54.797 229.635 53 229.169 53C228.703 53 227.466 51.24 226.42 49.09C225.374 46.939 224.207 45.372 223.826 45.608C223.445 45.843 222.346 44.702 221.383 43.072C220.421 41.442 219.353 40.282 219.011 40.493C218.669 40.705 217.584 39.383 216.6 37.556C215.617 35.73 213.704 33.73 212.349 33.113C210.865 32.437 210.173 31.529 210.608 30.826C211.072 30.074 210.804 29.861 209.852 30.226C208.941 30.576 207.648 29.708 206.47 27.956C205.422 26.396 203.874 24.856 203.032 24.535C199.721 23.271 196 20.843 196 19.945C196 19.425 195.41 19 194.689 19C193.967 19 192.386 18.077 191.176 16.949C189.965 15.821 188.577 15.143 188.092 15.443C187.607 15.743 186.952 15.316 186.636 14.494C186.321 13.672 185.406 13 184.603 13C183.8 13 182.511 12.369 181.74 11.597C180.388 10.245 172.025 7 169.894 7C169.324 7 168.215 6.358 167.43 5.573C166.645 4.788 162.638 3.603 158.525 2.94C154.412 2.276 151.288 1.343 151.582 0.867C151.88 0.386 140.041 0 125 0C109.959 0 98.12 0.386 98.418 0.867ZM126.75 52.689C125.787 52.941 124.213 52.941 123.25 52.689C122.287 52.438 123.075 52.232 125 52.232C126.925 52.232 127.713 52.438 126.75 52.689ZM115.82 56.255C114.347 57.49 112.211 60.075 111.074 62C108.702 66.017 108.268 65.316 110.48 61.039C111.294 59.465 113.155 57.237 114.615 56.088C118.183 53.281 119.202 53.422 115.82 56.255ZM138.75 60C139.988 61.813 140.982 63.792 140.96 64.398C140.938 65.004 140.227 64.15 139.381 62.5C138.535 60.85 136.415 58.186 134.671 56.58C132.212 54.315 132.062 54.002 134 55.182C135.375 56.02 137.512 58.188 138.75 60ZM128.171 64.655C129.177 65.565 130 66.79 130 67.377C130 67.965 129.299 67.445 128.443 66.223C126.709 63.747 124.122 63.356 121.998 65.25C120.806 66.313 120.794 66.239 121.921 64.75C123.583 62.553 125.811 62.519 128.171 64.655ZM107.455 70.455C106.59 72.523 105.665 73.998 105.399 73.732C105.132 73.466 105.689 71.623 106.636 69.636C108.872 64.949 109.495 65.572 107.455 70.455ZM144.631 73.702C144.143 74.191 140.951 67.45 141.044 66.128C141.069 65.783 142.001 67.23 143.116 69.344C144.232 71.459 144.913 73.42 144.631 73.702ZM119.568 70.491C117.858 74.583 116.074 77.783 116.03 76.833C115.978 75.677 119.903 67 120.478 67C120.78 67 120.371 68.571 119.568 70.491ZM132.487 72.622C133.319 74.614 133.981 76.527 133.958 76.872C133.904 77.675 130.098 70.752 130.042 69.75C129.94 67.933 131.094 69.288 132.487 72.622ZM98.912 89.412C96.058 95.816 93.556 100.889 93.351 100.684C93.147 100.48 95.305 95.063 98.147 88.647C100.989 82.231 103.492 77.158 103.708 77.374C103.924 77.59 101.765 83.007 98.912 89.412ZM149.568 83.509C150.371 85.429 150.78 87 150.478 87C149.903 87 145.978 78.323 146.03 77.167C146.074 76.217 147.858 79.417 149.568 83.509ZM113.615 83.652C112.228 86.318 111.072 88.158 111.047 87.739C110.969 86.47 115.224 77.891 115.697 78.364C115.939 78.606 115.003 80.986 113.615 83.652ZM138.916 87.5C138.916 88.05 138.054 86.925 137 85C135.946 83.075 135.084 81.05 135.084 80.5C135.084 79.95 135.946 81.075 137 83C138.054 84.925 138.916 86.95 138.916 87.5ZM156.665 100.668C156.21 101.124 150.97 89.604 151.074 88.375C151.115 87.894 152.474 90.379 154.094 93.897C155.714 97.416 156.871 100.462 156.665 100.668ZM107.485 97.602C105.123 102.786 104.102 106.269 104.49 107.818C104.866 109.314 104.702 109.934 104.04 109.525C103.468 109.171 102.996 108.121 102.992 107.191C102.983 105.287 110.115 88.781 110.696 89.362C110.901 89.568 109.457 93.276 107.485 97.602ZM142.916 96.5C142.916 97.05 142.054 95.925 141 94C139.946 92.075 139.084 90.05 139.084 89.5C139.084 88.95 139.946 90.075 141 92C142.054 93.925 142.916 95.95 142.916 96.5ZM146.965 106.691C146.984 107.896 146.63 109.111 146.177 109.391C145.724 109.67 145.363 108.459 145.373 106.7C145.383 104.94 145.047 102.6 144.627 101.5C144.167 100.298 144.474 100.497 145.395 102C146.239 103.375 146.945 105.486 146.965 106.691ZM92.767 116.573C92.07 117.221 90.15 118.021 88.5 118.349C86.253 118.797 86.002 118.724 87.5 118.057C88.6 117.568 90.292 116.917 91.26 116.611C92.786 116.129 92.957 115.092 92.553 108.778L92.087 101.5L93.061 108.447C93.81 113.791 93.742 115.666 92.767 116.573ZM157.634 109.028C157.06 115.199 157.195 116.123 158.74 116.611C159.708 116.917 161.4 117.568 162.5 118.057C163.998 118.724 163.747 118.797 161.5 118.349C156.548 117.363 155.963 116.201 156.661 108.73C157.006 105.029 157.514 102 157.788 102C158.063 102 157.993 105.162 157.634 109.028ZM134.75 110.746C129.387 110.925 120.612 110.925 115.25 110.746C109.888 110.566 114.275 110.419 125 110.419C135.725 110.419 140.113 110.566 134.75 110.746ZM83 120.345C83 120.535 81.987 121.547 80.75 122.595L78.5 124.5L80.405 122.25C82.195 120.136 83 119.545 83 120.345ZM169.5 122C170.495 123.1 171.085 124 170.81 124C170.535 124 169.495 123.1 168.5 122C167.505 120.9 166.915 120 167.19 120C167.465 120 168.505 120.9 169.5 122ZM140.777 122.557C143.536 124.489 143.589 127.723 140.918 131L138.88 133.5L140.44 130.3C143.989 123.019 142.093 122 125 122C107.907 122 106.011 123.019 109.56 130.3L111.12 133.5L109.082 131C106.411 127.723 106.464 124.489 109.223 122.557C110.969 121.334 114.35 121 125 121C135.65 121 139.031 121.334 140.777 122.557ZM78.273 126.25C63.798 144.87 52.759 160.71 52.305 163.511C51.434 168.878 52.802 173.559 56.278 177.1C58.773 179.641 58.955 180.041 57.083 178.874C53.079 176.377 50.825 171.195 51.252 165.472C51.601 160.797 52.56 159.201 64.918 142.722C72.228 132.975 78.442 125 78.727 125C79.012 125 78.808 125.563 78.273 126.25ZM183.546 140.75C190.013 149.412 195.742 157.063 196.275 157.75C196.808 158.438 197.02 159 196.745 159C196.47 159 191.613 152.813 185.952 145.25C180.291 137.688 174.557 130.037 173.211 128.25C171.864 126.463 170.993 125 171.274 125C171.556 125 177.078 132.088 183.546 140.75ZM96.387 130.503C97.397 132.321 97.373 132.344 96.128 130.753C92.856 126.573 90.789 128.276 77.32 146.25C61.888 166.844 62.718 165.536 63.503 168.009C64.02 169.638 65.078 170.021 69.317 170.115L74.5 170.23L70.5 171.027C65.909 171.941 62 170.147 62 167.126C62 165.593 76.19 145.627 87.183 131.693C90.552 127.422 94.398 126.925 96.387 130.503ZM170.309 141.5C183.003 158.263 184.249 160 183.58 160C183.274 160 177.788 153.025 171.389 144.5C157.182 125.573 157.196 125.578 150.5 137C147.92 141.4 145.616 145 145.379 145C144.744 145 147.676 139.545 151.651 133.332C156.964 125.025 158.265 125.595 170.309 141.5ZM104.808 144.165C106.627 147.374 107.916 150 107.672 150C107.248 150 99.148 136.59 98.309 134.5C97.445 132.348 101.674 138.637 104.808 144.165ZM116.031 141.25C120.924 149.58 121.851 151.519 119.296 148.085C116.926 144.897 110.761 134 111.328 134C111.572 134 113.689 137.262 116.031 141.25ZM135.808 139.835C132.674 145.363 128.445 151.652 129.309 149.5C130.148 147.41 138.248 134 138.672 134C138.916 134 137.627 136.626 135.808 139.835ZM142.338 150.75C137.212 159.614 136.007 161.502 136.004 160.674C135.999 159.584 143.944 146 144.586 146C144.86 146 143.848 148.137 142.338 150.75ZM111.579 155.545C113.044 158.045 114.063 160.27 113.843 160.49C113.624 160.71 112.193 158.664 110.664 155.945C107.175 149.738 107.972 149.39 111.579 155.545ZM128.374 152.204C127.75 153.213 122.272 153.251 121.659 152.25C121.406 151.838 122.924 151.479 125.033 151.454C127.141 151.428 128.645 151.766 128.374 152.204ZM198.985 166.185C198.993 168.212 198.589 170.95 198.087 172.271C197.097 174.876 191.396 181 189.962 181C189.475 181 190.973 179.232 193.289 177.072C197.399 173.238 197.5 172.989 197.5 166.667C197.5 163.105 197.831 160.711 198.235 161.345C198.639 161.98 198.976 164.158 198.985 166.185ZM188 166.632C188 170.182 184.397 171.938 179 171.018L174.5 170.25L180.183 170.125C184.972 170.02 185.967 169.678 186.516 167.951C186.907 166.719 186.473 164.826 185.428 163.201L183.69 160.5L185.845 162.405C187.03 163.453 188 165.355 188 166.632ZM113.243 165.157C111.847 166.553 105.197 167.625 93.5 168.339C85.518 168.826 85.994 168.696 97.708 167.194C104.972 166.262 111.467 164.945 112.141 164.267C112.815 163.588 113.592 163.258 113.867 163.533C114.142 163.808 113.861 164.539 113.243 165.157ZM147.89 166.68L156.5 167.861L148.124 167.351C138.58 166.769 137.388 166.453 136.554 164.281C136.034 162.925 136.175 162.902 137.617 164.109C138.531 164.874 143.154 166.031 147.89 166.68ZM163.25 168.706C162.012 168.944 159.988 168.944 158.75 168.706C157.512 168.467 158.525 168.272 161 168.272C163.475 168.272 164.488 168.467 163.25 168.706ZM81.762 169.687C80.806 169.937 79.006 169.946 77.762 169.707C76.518 169.468 77.3 169.263 79.5 169.252C81.7 169.241 82.718 169.437 81.762 169.687ZM129.563 172.25L132.5 175.5L129.445 172.75C125.558 169.251 124.052 169.293 120.5 173C118.919 174.65 117.267 176 116.828 176C116.389 176 117.71 174.437 119.765 172.527C121.819 170.617 124.203 169.042 125.063 169.027C125.923 169.012 127.948 170.463 129.563 172.25ZM172.762 169.687C171.806 169.937 170.006 169.946 168.762 169.707C167.518 169.468 168.3 169.263 170.5 169.252C172.7 169.241 173.718 169.437 172.762 169.687ZM113.5 176.919C110.959 177.925 86.118 180.451 85.439 179.773C85.16 179.494 91.135 178.587 98.716 177.759C115.285 175.948 116.063 175.904 113.5 176.919ZM152.767 178.094C159.514 178.757 164.813 179.52 164.543 179.79C163.84 180.493 138.889 177.878 136.5 176.85C134.952 176.184 135.178 176.092 137.5 176.439C139.15 176.686 146.02 177.431 152.767 178.094ZM82.25 180.706C81.013 180.944 78.987 180.944 77.75 180.706C76.513 180.467 77.525 180.272 80 180.272C82.475 180.272 83.487 180.467 82.25 180.706ZM172.762 180.687C171.806 180.937 170.006 180.946 168.762 180.707C167.518 180.468 168.3 180.263 170.5 180.252C172.7 180.241 173.718 180.437 172.762 180.687ZM71.25 181.723C69.463 181.945 66.537 181.945 64.75 181.723C62.962 181.502 64.425 181.32 68 181.32C71.575 181.32 73.037 181.502 71.25 181.723ZM185.25 181.723C183.463 181.945 180.537 181.945 178.75 181.723C176.963 181.502 178.425 181.32 182 181.32C185.575 181.32 187.037 181.502 185.25 181.723Z" fill="#EF71BE"/>
<path fill-rule="evenodd" clip-rule="evenodd" d="M98.418 0.867C98.712 1.343 95.588 2.276 91.475 2.94C87.362 3.603 83.355 4.788 82.57 5.573C81.785 6.358 80.712 7 80.186 7C78.173 7 69 10.341 69 11.074C69 11.498 67.473 12.349 65.606 12.965C63.739 13.581 60.927 15.19 59.356 16.541C57.785 17.892 55.938 18.998 55.25 18.999C54.563 18.999 54 19.425 54 19.945C54 20.843 50.279 23.271 46.968 24.535C46.126 24.856 44.578 26.396 43.53 27.956C42.352 29.708 41.059 30.576 40.148 30.226C39.294 29.899 38.937 30.09 39.302 30.679C39.648 31.24 38.898 32.252 37.635 32.928C36.372 33.604 34.544 35.503 33.572 37.148C32.6 38.793 31.561 39.894 31.263 39.596C30.964 39.297 29.995 40.404 29.11 42.055C28.224 43.706 27.118 45.021 26.652 44.976C26.186 44.932 24.891 46.598 23.776 48.68C22.66 50.761 21.188 52.922 20.506 53.482C19.823 54.042 18.659 55.93 17.92 57.678C17.18 59.426 16.302 60.686 15.967 60.479C15.632 60.273 14.558 62.329 13.579 65.049C12.601 67.769 11.459 69.784 11.041 69.526C10.624 69.267 9.494 71.965 8.532 75.52C7.57 79.075 6.428 81.765 5.995 81.497C5.562 81.229 4.396 85.029 3.403 89.94C2.41 94.851 1.238 98.647 0.799 98.376C0.36 98.104 0 110.085 0 125C0 139.915 0.36 151.896 0.799 151.624C1.238 151.353 2.41 155.149 3.403 160.06C4.396 164.971 5.562 168.771 5.995 168.503C6.428 168.235 7.57 170.925 8.532 174.48C9.494 178.035 10.624 180.733 11.041 180.474C11.459 180.216 12.601 182.231 13.579 184.951C14.558 187.671 15.68 189.698 16.073 189.455C16.466 189.212 17.507 190.81 18.386 193.006C19.265 195.203 20.365 197 20.831 197C21.297 197 22.534 198.76 23.58 200.91C24.626 203.061 25.793 204.628 26.174 204.392C26.555 204.157 27.654 205.298 28.617 206.928C29.579 208.558 30.647 209.718 30.989 209.507C31.331 209.295 32.416 210.616 33.399 212.442C34.382 214.268 36.254 216.333 37.559 217.032C38.864 217.73 39.648 218.76 39.302 219.321C38.937 219.91 39.294 220.101 40.148 219.774C41.059 219.424 42.352 220.292 43.53 222.044C44.578 223.604 46.126 225.144 46.968 225.465C50.279 226.729 54 229.157 54 230.055C54 230.575 54.59 231 55.311 231C56.033 231 57.614 231.923 58.824 233.051C60.035 234.179 61.423 234.857 61.908 234.557C62.393 234.257 63.048 234.684 63.364 235.506C63.679 236.328 64.594 237 65.397 237C66.2 237 67.489 237.631 68.26 238.403C69.612 239.755 77.975 243 80.106 243C80.676 243 81.785 243.642 82.57 244.427C83.355 245.212 87.362 246.397 91.475 247.06C95.588 247.724 98.712 248.657 98.418 249.133C98.12 249.614 109.959 250 125 250C140.041 250 151.88 249.614 151.582 249.133C151.288 248.657 154.412 247.724 158.525 247.06C162.638 246.397 166.645 245.212 167.43 244.427C168.215 243.642 169.288 243 169.814 243C171.827 243 181 239.659 181 238.926C181 238.502 182.527 237.651 184.394 237.035C186.261 236.419 189.073 234.81 190.644 233.459C192.215 232.108 194.063 231.002 194.75 231.001C195.438 231.001 196 230.575 196 230.055C196 229.157 199.721 226.729 203.032 225.465C203.874 225.144 205.422 223.604 206.47 222.044C207.648 220.292 208.941 219.424 209.852 219.774C210.706 220.101 211.063 219.91 210.698 219.321C210.352 218.76 211.076 217.762 212.308 217.103C213.54 216.443 215.425 214.6 216.496 213.007C217.567 211.413 218.631 210.298 218.861 210.528C219.092 210.758 220.058 209.496 221.009 207.723C221.959 205.951 223.066 204.636 223.467 204.802C223.868 204.969 225.109 203.402 226.224 201.32C227.34 199.239 228.812 197.078 229.494 196.518C230.177 195.958 231.341 194.07 232.08 192.322C232.82 190.574 233.698 189.314 234.033 189.521C234.368 189.727 235.442 187.671 236.421 184.951C237.399 182.231 238.541 180.216 238.959 180.474C239.376 180.733 240.506 178.035 241.468 174.48C242.43 170.925 243.572 168.235 244.005 168.503C244.438 168.771 245.604 164.971 246.597 160.06C247.59 155.149 248.762 151.353 249.201 151.624C249.64 151.896 250 139.915 250 125C250 110.085 249.64 98.104 249.201 98.376C248.762 98.647 247.59 94.851 246.597 89.94C245.604 85.029 244.438 81.229 244.005 81.497C243.572 81.765 242.43 79.075 241.468 75.52C240.506 71.965 239.376 69.267 238.959 69.526C238.541 69.784 237.399 67.769 236.421 65.049C235.442 62.329 234.32 60.302 233.927 60.545C233.534 60.788 232.493 59.19 231.614 56.994C230.735 54.797 229.635 53 229.169 53C228.703 53 227.466 51.24 226.42 49.09C225.374 46.939 224.207 45.372 223.826 45.608C223.445 45.843 222.346 44.702 221.383 43.072C220.421 41.442 219.353 40.282 219.011 40.493C218.669 40.705 217.584 39.383 216.6 37.556C215.617 35.73 213.704 33.73 212.349 33.113C210.865 32.437 210.173 31.529 210.608 30.826C211.072 30.074 210.804 29.861 209.852 30.226C208.941 30.576 207.648 29.708 206.47 27.956C205.422 26.396 203.874 24.856 203.032 24.535C199.721 23.271 196 20.843 196 19.945C196 19.425 195.41 19 194.689 19C193.967 19 192.386 18.077 191.176 16.949C189.965 15.821 188.577 15.143 188.092 15.443C187.607 15.743 186.952 15.316 186.636 14.494C186.321 13.672 185.406 13 184.603 13C183.8 13 182.511 12.369 181.74 11.597C180.388 10.245 172.025 7 169.894 7C169.324 7 168.215 6.358 167.43 5.573C166.645 4.788 162.638 3.603 158.525 2.94C154.412 2.276 151.288 1.343 151.582 0.867C151.88 0.386 140.041 0 125 0C109.959 0 98.12 0.386 98.418 0.867ZM133 54.14C137.832 57.085 138.366 57.983 148.212 79.753C158.98 103.56 159.625 105.576 158.03 110.41C156.608 114.718 157.561 116.462 161.799 117.31C163.314 117.613 165.816 118.854 167.359 120.068C171.573 123.382 197.2 157.9 198.718 162.306C201.23 169.598 196.84 178.246 189.043 181.366C185.345 182.846 183.48 182.782 161.289 180.423C148.205 179.032 136.174 177.377 134.554 176.745C132.934 176.112 130.122 174.29 128.304 172.694L125 169.793L121.696 172.694C119.878 174.29 117.066 176.109 115.446 176.737C113.826 177.365 101.826 179.032 88.779 180.443C66.488 182.853 64.815 182.91 61.025 181.393C53.161 178.247 48.761 169.626 51.282 162.306C52.8 157.9 78.427 123.382 82.641 120.068C84.184 118.854 86.686 117.613 88.201 117.31C92.418 116.466 93.391 114.716 91.995 110.486C90.445 105.79 90.837 104.452 99.46 85C111.615 57.579 111.809 57.229 116.376 54.491C121.663 51.322 128.15 51.185 133 54.14ZM118.104 54.662C115.137 56.173 109 63.946 109 66.193C109 66.634 107.703 69.808 106.119 73.247C93.047 101.614 92.687 102.639 93.386 109.46C94.118 116.605 94.132 116.583 87.022 118.986C82.88 120.387 81.427 121.995 67.605 140.47C54.279 158.282 52.616 160.942 52.218 165.08C51.329 174.334 57.386 181 66.684 181C74.01 181 114.73 176.216 116.772 175.115C117.722 174.603 119.591 173.017 120.924 171.592C122.258 170.166 124.092 169 125 169C125.908 169 127.742 170.166 129.076 171.592C130.409 173.017 132.278 174.603 133.228 175.115C135.324 176.245 176.079 181 183.667 181C188.581 181 189.463 180.64 193.289 177.072C197.379 173.257 197.5 172.961 197.5 166.822V160.5L182.478 140.5C168.595 122.018 167.115 120.385 162.978 118.986C155.863 116.581 155.882 116.61 156.619 109.411C157.222 103.532 156.994 102.328 154.026 95.732C152.237 91.755 149.924 86.588 148.887 84.25C147.849 81.912 146.135 78.088 145.078 75.75C144.021 73.412 141.833 68.537 140.216 64.917C138.317 60.662 136.121 57.51 134.01 56.007C129.724 52.955 122.633 52.355 118.104 54.662ZM128.138 64.75C129.828 66.792 129.667 66.456 139.458 88.412C143.606 97.713 147 106.135 147 107.126C147 110.4 143.594 111 125 111C106.434 111 103 110.399 103 107.147C103 105.568 108.58 92.336 115.582 77.312C116.912 74.458 118 71.75 118 71.294C118 70.838 119.141 68.785 120.536 66.732C123.291 62.677 125.867 62.006 128.138 64.75ZM123.315 64.784C122.664 65.198 118.926 72.729 115.009 81.519C111.092 90.308 106.964 99.511 105.836 101.968C102.427 109.393 102.7 109.5 125 109.5C141.054 109.5 144.44 109.249 145.225 108C145.907 106.914 143.648 100.849 137.043 86.034C127.371 64.34 126.393 62.827 123.315 64.784ZM140.777 122.557C143.954 124.781 143.588 126.749 138.353 135.623C128.447 152.414 127.997 153 125 153C122.003 153 121.553 152.414 111.647 135.623C103.833 122.379 105.092 121 125 121C135.65 121 139.031 121.334 140.777 122.557ZM108.635 124.509C107.838 126.587 108.904 128.898 116.243 141C121.474 149.625 123.038 151.5 125 151.5C126.962 151.5 128.526 149.625 133.757 141C145.019 122.431 145.312 123 124.485 123C111.794 123 109.116 123.255 108.635 124.509ZM98.543 133.75C114.489 159.584 116.315 164.045 111.75 166.013C110.513 166.547 100.332 167.895 89.127 169.009C77.922 170.122 68.34 171.29 67.833 171.603C66.376 172.504 62 169.145 62 167.126C62 165.596 76.162 145.665 87.137 131.75C91.549 126.156 94.135 126.609 98.543 133.75ZM174.161 146.5C181.718 156.445 187.875 165.497 187.92 166.727C188.072 170.962 184.62 171.938 174.5 170.524C169.55 169.832 159.511 168.697 152.191 168.003C138.383 166.692 136 165.784 136 161.833C136 159.998 141.966 149.168 151.504 133.688C157.122 124.569 157.776 124.939 174.161 146.5ZM88.851 131.75C85.693 135.191 65.599 162.012 64.149 164.722C63.355 166.205 63.415 167.185 64.38 168.504C65.625 170.208 66.612 170.184 87.091 167.955C110.69 165.387 113 164.879 113 162.255C113 158.8 94.788 129 92.677 129C91.96 129 90.239 130.238 88.851 131.75ZM153.235 133.25C147.985 141.051 137 160.71 137 162.306C137 163.173 137.474 164.175 138.054 164.533C139.069 165.161 178.201 169.931 182.715 169.977C183.942 169.99 185.42 169.085 186.028 167.947C186.99 166.15 185.666 163.939 175.406 150.197C162.295 132.639 159.198 129 157.361 129C156.665 129 154.809 130.912 153.235 133.25Z" fill="#EB47AD"/>
<path fill-rule="evenodd" clip-rule="evenodd" d="M98.418 0.867C98.712 1.343 95.588 2.276 91.475 2.94C87.362 3.603 83.355 4.788 82.57 5.573C81.785 6.358 80.712 7 80.186 7C78.173 7 69 10.341 69 11.074C69 11.498 67.421 12.366 65.491 13.003C63.43 13.683 62.256 14.604 62.645 15.235C63.036 15.867 62.84 16.019 62.167 15.603C61.54 15.215 60.035 15.821 58.824 16.949C57.614 18.077 56.033 19 55.311 19C54.59 19 54 19.461 54 20.025C54 20.588 52.875 21.477 51.5 22C50.125 22.523 49 23.412 49 23.975C49 24.539 48.212 25.001 47.25 25.003C46.288 25.004 44.628 26.308 43.562 27.899C42.359 29.694 41.063 30.578 40.148 30.226C39.294 29.899 38.937 30.09 39.302 30.679C39.648 31.24 38.898 32.252 37.635 32.928C36.372 33.604 34.544 35.503 33.572 37.148C32.6 38.793 31.561 39.894 31.263 39.596C30.964 39.297 29.995 40.404 29.11 42.055C28.224 43.706 27.118 45.021 26.652 44.976C26.186 44.932 24.891 46.598 23.776 48.68C22.66 50.761 21.188 52.922 20.506 53.482C19.823 54.042 18.659 55.93 17.92 57.678C17.18 59.426 16.302 60.686 15.967 60.479C15.632 60.273 14.558 62.329 13.579 65.049C12.601 67.769 11.459 69.784 11.041 69.526C10.624 69.267 9.494 71.965 8.532 75.52C7.57 79.075 6.428 81.765 5.995 81.497C5.562 81.229 4.396 85.029 3.403 89.94C2.41 94.851 1.238 98.647 0.799 98.376C0.36 98.104 0 110.085 0 125C0 139.915 0.381 151.883 0.846 151.595C1.312 151.307 2.253 154.206 2.937 158.036C3.622 161.866 4.549 165 4.997 165C5.446 165 5.559 165.97 5.249 167.156C4.892 168.52 5.07 169.075 5.734 168.665C6.371 168.271 7.469 170.553 8.532 174.48C9.494 178.035 10.624 180.733 11.041 180.474C11.459 180.216 12.601 182.231 13.579 184.951C14.558 187.671 15.68 189.698 16.073 189.455C16.466 189.212 17.507 190.81 18.386 193.006C19.265 195.203 20.365 197 20.831 197C21.297 197 22.534 198.76 23.58 200.91C24.626 203.061 25.793 204.628 26.174 204.392C26.555 204.157 27.654 205.298 28.617 206.928C29.579 208.558 30.647 209.718 30.989 209.507C31.331 209.295 32.416 210.616 33.399 212.442C34.382 214.268 36.254 216.333 37.559 217.032C38.864 217.73 39.648 218.76 39.302 219.321C38.937 219.91 39.294 220.101 40.148 219.774C41.063 219.422 42.359 220.306 43.562 222.101C44.628 223.692 46.288 224.996 47.25 224.997C48.212 224.999 49 225.461 49 226.025C49 226.588 50.125 227.477 51.5 228C52.875 228.523 54 229.412 54 229.975C54 230.539 54.59 231 55.311 231C56.033 231 57.614 231.923 58.824 233.051C60.035 234.179 61.423 234.857 61.908 234.557C62.393 234.257 63.048 234.684 63.364 235.506C63.679 236.328 64.594 237 65.397 237C66.2 237 67.489 237.631 68.26 238.403C69.612 239.755 77.975 243 80.106 243C80.676 243 81.785 243.642 82.57 244.427C83.355 245.212 87.362 246.397 91.475 247.06C95.588 247.724 98.712 248.657 98.418 249.133C98.12 249.614 109.959 250 125 250C140.041 250 151.88 249.614 151.582 249.133C151.288 248.657 154.412 247.724 158.525 247.06C162.638 246.397 166.645 245.212 167.43 244.427C168.215 243.642 169.288 243 169.814 243C171.827 243 181 239.659 181 238.926C181 238.502 182.579 237.634 184.509 236.997C186.57 236.317 187.744 235.396 187.355 234.765C186.964 234.133 187.16 233.981 187.833 234.397C188.46 234.785 189.965 234.179 191.176 233.051C192.386 231.923 193.967 231 194.689 231C195.41 231 196 230.539 196 229.975C196 229.412 197.125 228.523 198.5 228C199.875 227.477 201 226.588 201 226.025C201 225.461 201.787 224.999 202.75 224.997C203.713 224.996 205.372 223.692 206.438 222.101C207.641 220.306 208.937 219.422 209.852 219.774C210.706 220.101 211.063 219.91 210.698 219.321C210.352 218.76 211.076 217.762 212.308 217.103C213.54 216.443 215.425 214.6 216.496 213.007C217.567 211.413 218.631 210.298 218.861 210.528C219.092 210.758 220.058 209.496 221.009 207.723C221.959 205.951 223.066 204.636 223.467 204.802C223.868 204.969 225.109 203.402 226.224 201.32C227.34 199.239 228.812 197.078 229.494 196.518C230.177 195.958 231.341 194.07 232.08 192.322C232.82 190.574 233.698 189.314 234.033 189.521C234.368 189.727 235.442 187.671 236.421 184.951C237.399 182.231 238.541 180.216 238.959 180.474C239.376 180.733 240.506 178.035 241.468 174.48C242.43 170.925 243.572 168.235 244.005 168.503C244.438 168.771 245.604 164.971 246.597 160.06C247.59 155.149 248.762 151.353 249.201 151.624C249.64 151.896 250 139.915 250 125C250 110.085 249.619 98.117 249.154 98.405C248.688 98.693 247.747 95.794 247.063 91.964C246.378 88.134 245.451 85 245.003 85C244.554 85 244.441 84.03 244.751 82.844C245.108 81.48 244.93 80.925 244.266 81.335C243.629 81.729 242.531 79.447 241.468 75.52C240.506 71.965 239.376 69.267 238.959 69.526C238.541 69.784 237.399 67.769 236.421 65.049C235.442 62.329 234.32 60.302 233.927 60.545C233.534 60.788 232.493 59.19 231.614 56.994C230.735 54.797 229.635 53 229.169 53C228.703 53 227.466 51.24 226.42 49.09C225.374 46.939 224.207 45.372 223.826 45.608C223.445 45.843 222.346 44.702 221.383 43.072C220.421 41.442 219.353 40.282 219.011 40.493C218.669 40.705 217.584 39.383 216.6 37.556C215.617 35.73 213.704 33.73 212.349 33.113C210.865 32.437 210.173 31.529 210.608 30.826C211.072 30.074 210.804 29.861 209.852 30.226C208.937 30.578 207.641 29.694 206.438 27.899C205.372 26.308 203.713 25.004 202.75 25.003C201.787 25.001 201 24.539 201 23.975C201 23.412 199.875 22.523 198.5 22C197.125 21.477 196 20.588 196 20.025C196 19.461 195.41 19 194.689 19C193.967 19 192.386 18.077 191.176 16.949C189.965 15.821 188.577 15.143 188.092 15.443C187.607 15.743 186.952 15.316 186.636 14.494C186.321 13.672 185.406 13 184.603 13C183.8 13 182.511 12.369 181.74 11.597C180.388 10.245 172.025 7 169.894 7C169.324 7 168.215 6.358 167.43 5.573C166.645 4.788 162.638 3.603 158.525 2.94C154.412 2.276 151.288 1.343 151.582 0.867C151.88 0.386 140.041 0 125 0C109.959 0 98.12 0.386 98.418 0.867ZM130.768 52.548C132.806 53.399 135.453 55.016 136.651 56.142C137.849 57.268 143.426 68.315 149.043 80.692L159.256 103.195L158.637 109.347L158.018 115.5L163.259 117.5C168.255 119.406 169.19 120.413 183.232 139C191.335 149.725 198.474 160.011 199.096 161.858C201.49 168.968 197.838 177.217 190.594 181.06L186.175 183.404L160.941 180.652C135.762 177.906 132.184 177.071 128.593 173.102C126.176 170.432 123.824 170.432 121.407 173.102C117.845 177.039 114.405 177.844 89.378 180.597L64.355 183.35L59.715 181.104C52.27 177.5 48.439 169.115 50.923 161.858C51.555 160.011 58.693 149.725 66.786 139C80.816 120.406 81.743 119.407 86.741 117.5L91.982 115.5L91.375 109.468C90.774 103.488 90.852 103.251 100.526 81.673C105.892 69.703 111.196 58.749 112.313 57.329C114.579 54.449 121.287 51.056 124.782 51.022C126.037 51.01 128.731 51.696 130.768 52.548ZM118.104 54.662C115.137 56.173 109 63.946 109 66.193C109 66.634 107.703 69.808 106.119 73.247C93.047 101.614 92.687 102.639 93.386 109.46C94.118 116.605 94.132 116.583 87.022 118.986C82.88 120.387 81.427 121.995 67.605 140.47C54.279 158.282 52.616 160.942 52.218 165.08C51.329 174.334 57.386 181 66.684 181C74.01 181 114.73 176.216 116.772 175.115C117.722 174.603 119.591 173.017 120.924 171.592C122.258 170.166 124.092 169 125 169C125.908 169 127.742 170.166 129.076 171.592C130.409 173.017 132.278 174.603 133.228 175.115C135.324 176.245 176.079 181 183.667 181C188.581 181 189.463 180.64 193.289 177.072C197.379 173.257 197.5 172.961 197.5 166.822V160.5L182.478 140.5C168.595 122.018 167.115 120.385 162.978 118.986C155.863 116.581 155.882 116.61 156.619 109.411C157.222 103.532 156.994 102.328 154.026 95.732C152.237 91.755 149.924 86.588 148.887 84.25C147.849 81.912 146.135 78.088 145.078 75.75C144.021 73.412 141.833 68.537 140.216 64.917C138.317 60.662 136.121 57.51 134.01 56.007C129.724 52.955 122.633 52.355 118.104 54.662ZM128.138 64.75C129.828 66.792 129.667 66.456 139.458 88.412C143.606 97.713 147 106.135 147 107.126C147 110.4 143.594 111 125 111C106.434 111 103 110.399 103 107.147C103 105.568 108.58 92.336 115.582 77.312C116.912 74.458 118 71.75 118 71.294C118 70.838 119.141 68.785 120.536 66.732C123.291 62.677 125.867 62.006 128.138 64.75ZM119.023 73.45C109.805 93.497 105 104.921 105 106.79C105 107.888 105.712 109.059 106.582 109.393C108.644 110.184 141.356 110.184 143.418 109.393C144.288 109.059 145 107.86 145 106.729C145 104.48 144.741 103.852 134.425 81.102C125.483 61.381 124.742 61.013 119.023 73.45ZM140.777 122.557C143.954 124.781 143.588 126.749 138.353 135.623C128.447 152.414 127.997 153 125 153C122.003 153 121.553 152.414 111.647 135.623C103.833 122.379 105.092 121 125 121C135.65 121 139.031 121.334 140.777 122.557ZM109.692 123.642C108.066 125.267 109.388 128.734 115.75 139.526C122.413 150.828 123.796 152.4 126.25 151.457C128.391 150.634 141.148 128.054 140.811 125.684C140.509 123.563 140.064 123.492 125.442 123.225C117.16 123.074 110.072 123.261 109.692 123.642ZM98.543 133.75C114.489 159.584 116.315 164.045 111.75 166.013C110.513 166.547 100.332 167.895 89.127 169.009C77.922 170.122 68.34 171.29 67.833 171.603C66.376 172.504 62 169.145 62 167.126C62 165.596 76.162 145.665 87.137 131.75C91.549 126.156 94.135 126.609 98.543 133.75ZM174.161 146.5C181.718 156.445 187.875 165.497 187.92 166.727C188.072 170.962 184.62 171.938 174.5 170.524C169.55 169.832 159.511 168.697 152.191 168.003C138.383 166.692 136 165.784 136 161.833C136 159.998 141.966 149.168 151.504 133.688C157.122 124.569 157.776 124.939 174.161 146.5ZM90.16 130.8C86.381 134.115 64 164.968 64 166.862C64 169.538 65.468 169.848 73.5 168.87C77.35 168.401 87.25 167.315 95.5 166.456C105.052 165.462 111.007 164.395 111.896 163.516C113.088 162.339 112.614 160.961 108.646 154.069C106.091 149.631 101.949 142.438 99.441 138.084C96.934 133.731 94.256 129.928 93.49 129.635C92.724 129.341 91.226 129.865 90.16 130.8ZM155.749 130.319C154.954 130.968 152.365 134.875 149.997 139C147.628 143.125 143.669 150.018 141.2 154.319C137.365 160.995 136.913 162.338 138.104 163.513C139.031 164.426 146.39 165.594 160 166.987C171.275 168.142 181.063 169.278 181.75 169.512C183.848 170.226 186 168.893 186 166.879C186 164.783 160.695 130.481 158.537 129.653C157.799 129.369 156.544 129.669 155.749 130.319Z" fill="#E81899"/>
<path fill-rule="evenodd" clip-rule="evenodd" d="M98.813 0.683002C99.534 0.972002 100.397 0.936002 100.729 0.604002C101.061 0.272002 100.471 0.0360016 99.417 0.0790016C98.252 0.127002 98.015 0.364002 98.813 0.683002ZM149.813 0.683002C150.534 0.972002 151.397 0.936002 151.729 0.604002C152.061 0.272002 151.471 0.0360016 150.417 0.0790016C149.252 0.127002 149.015 0.364002 149.813 0.683002ZM83 5C82.099 5.582 81.975 5.975 82.691 5.985C83.346 5.993 84.16 5.55 84.5 5C85.267 3.758 84.921 3.758 83 5ZM70.75 9.689C69.787 9.941 69 10.579 69 11.109C69 11.688 69.795 11.645 71 11C72.1 10.411 73 9.72 73 9.465C73 9.209 72.888 9.052 72.75 9.116C72.612 9.18 71.713 9.438 70.75 9.689ZM178 10.393C178 10.609 178.675 11.045 179.5 11.362C180.325 11.678 181 11.501 181 10.969C181 10.436 180.325 10 179.5 10C178.675 10 178 10.177 178 10.393ZM61.029 14.961C60.22 15.473 59.818 16.152 60.136 16.47C60.455 16.788 61.284 16.362 61.98 15.524C63.423 13.786 63.146 13.622 61.029 14.961ZM188.5 16C188.84 16.55 189.316 17 189.559 17C189.802 17 190 16.55 190 16C190 15.45 189.523 15 188.941 15C188.359 15 188.16 15.45 188.5 16ZM44.584 26.641C44.036 28.07 44.184 28.107 45.727 26.924C46.702 26.177 47.688 25.439 47.917 25.283C48.146 25.127 47.631 25 46.774 25C45.916 25 44.931 25.739 44.584 26.641ZM202.083 25.283C202.313 25.439 203.298 26.177 204.273 26.924C205.816 28.107 205.964 28.07 205.416 26.641C205.069 25.739 204.084 25 203.226 25C202.369 25 201.854 25.127 202.083 25.283ZM37 33.282C36.175 33.952 34.842 35.4 34.038 36.5C33.234 37.6 34.022 37.178 35.788 35.563C38.668 32.929 39.501 31.936 38.75 32.032C38.612 32.049 37.825 32.612 37 33.282ZM213.948 35.444C215.268 36.85 216.499 38 216.683 38C217.584 38 214.347 33.963 213.045 33.464C212.221 33.148 212.627 34.039 213.948 35.444ZM118.104 54.662C115.137 56.173 109 63.946 109 66.193C109 66.634 107.703 69.808 106.119 73.247C93.047 101.614 92.687 102.639 93.386 109.46C94.118 116.605 94.132 116.583 87.022 118.986C82.88 120.387 81.427 121.995 67.605 140.47C54.279 158.282 52.616 160.942 52.218 165.08C51.329 174.334 57.386 181 66.684 181C74.01 181 114.73 176.216 116.772 175.115C117.722 174.603 119.591 173.017 120.924 171.592C122.258 170.166 124.092 169 125 169C125.908 169 127.742 170.166 129.076 171.592C130.409 173.017 132.278 174.603 133.228 175.115C135.324 176.245 176.079 181 183.667 181C188.581 181 189.463 180.64 193.289 177.072C197.379 173.257 197.5 172.961 197.5 166.822V160.5L182.478 140.5C168.595 122.018 167.115 120.385 162.978 118.986C155.863 116.581 155.882 116.61 156.619 109.411C157.222 103.532 156.994 102.328 154.026 95.732C152.237 91.755 149.924 86.588 148.887 84.25C147.849 81.912 146.135 78.088 145.078 75.75C144.021 73.412 141.833 68.537 140.216 64.917C138.317 60.662 136.121 57.51 134.01 56.007C129.724 52.955 122.633 52.355 118.104 54.662ZM15.079 61.583C15.127 62.748 15.364 62.985 15.683 62.188C15.972 61.466 15.936 60.603 15.604 60.271C15.272 59.939 15.036 60.529 15.079 61.583ZM234.079 61.583C234.127 62.748 234.364 62.985 234.683 62.188C234.972 61.466 234.936 60.603 234.604 60.271C234.272 59.939 234.036 60.529 234.079 61.583ZM128.138 64.75C129.828 66.792 129.667 66.456 139.458 88.412C143.606 97.713 147 106.135 147 107.126C147 110.4 143.594 111 125 111C106.434 111 103 110.399 103 107.147C103 105.568 108.58 92.336 115.582 77.312C116.912 74.458 118 71.75 118 71.294C118 70.838 119.141 68.785 120.536 66.732C123.291 62.677 125.867 62.006 128.138 64.75ZM0 99.559C0 100.416 0.457 100.835 1.016 100.49C1.575 100.144 1.774 99.443 1.457 98.931C0.6 97.544 0 97.802 0 99.559ZM248.543 98.931C248.226 99.443 248.425 100.144 248.984 100.49C249.543 100.835 250 100.416 250 99.559C250 97.802 249.4 97.544 248.543 98.931ZM140.777 122.557C143.954 124.781 143.588 126.749 138.353 135.623C128.447 152.414 127.997 153 125 153C122.003 153 121.553 152.414 111.647 135.623C103.833 122.379 105.092 121 125 121C135.65 121 139.031 121.334 140.777 122.557ZM98.543 133.75C114.489 159.584 116.315 164.045 111.75 166.013C110.513 166.547 100.332 167.895 89.127 169.009C77.922 170.122 68.34 171.29 67.833 171.603C66.376 172.504 62 169.145 62 167.126C62 165.596 76.162 145.665 87.137 131.75C91.549 126.156 94.135 126.609 98.543 133.75ZM174.161 146.5C181.718 156.445 187.875 165.497 187.92 166.727C188.072 170.962 184.62 171.938 174.5 170.524C169.55 169.832 159.511 168.697 152.191 168.003C138.383 166.692 136 165.784 136 161.833C136 159.998 141.966 149.168 151.504 133.688C157.122 124.569 157.776 124.939 174.161 146.5ZM0 150.559C0 151.416 0.457 151.835 1.016 151.49C1.575 151.144 1.774 150.443 1.457 149.931C0.6 148.544 0 148.802 0 150.559ZM248.543 149.931C248.226 150.443 248.425 151.144 248.984 151.49C249.543 151.835 250 151.416 250 150.559C250 148.802 249.4 148.544 248.543 149.931ZM15.079 188.583C15.127 189.748 15.364 189.985 15.683 189.188C15.972 188.466 15.936 187.603 15.604 187.271C15.272 186.939 15.036 187.529 15.079 188.583ZM234.079 188.583C234.127 189.748 234.364 189.985 234.683 189.188C234.972 188.466 234.936 187.603 234.604 187.271C234.272 186.939 234.036 187.529 234.079 188.583ZM213.946 214.621C212.051 216.612 211.4 217.694 212.5 217.025C214.306 215.927 218.593 211 217.743 211C217.55 211 215.842 212.629 213.946 214.621ZM34.14 213.852C34.776 214.87 36.242 216.277 37.398 216.977C38.87 217.868 38.619 217.313 36.563 215.125C33.219 211.567 32.466 211.172 34.14 213.852ZM44.584 223.359C44.931 224.261 45.916 225 46.774 225C47.631 225 48.146 224.873 47.917 224.717C47.688 224.561 46.702 223.823 45.727 223.076C44.184 221.893 44.036 221.93 44.584 223.359ZM203.559 223.532C201.986 224.721 201.918 225 203.202 225C204.073 225 205.045 224.325 205.362 223.5C206.059 221.683 206.002 221.684 203.559 223.532ZM60 234C60 234.55 60.477 235 61.059 235C61.641 235 61.84 234.55 61.5 234C61.16 233.45 60.684 233 60.441 233C60.198 233 60 233.45 60 234ZM187.981 234.523C186.924 235.796 186.986 235.943 188.359 235.416C189.261 235.069 190 234.384 190 233.893C190 232.607 189.421 232.788 187.981 234.523ZM69 239.031C69 239.564 69.675 240 70.5 240C71.325 240 72 239.823 72 239.607C72 239.391 71.325 238.955 70.5 238.638C69.675 238.322 69 238.499 69 239.031ZM178.441 239.45C176.566 240.851 176.577 240.881 178.75 240.334C179.988 240.022 181 239.369 181 238.883C181 237.693 180.705 237.759 178.441 239.45ZM165.507 244.989C165.157 245.555 165.558 245.723 166.448 245.382C168.18 244.717 168.497 244 167.059 244C166.541 244 165.843 244.445 165.507 244.989ZM98.813 249.683C99.534 249.972 100.397 249.936 100.729 249.604C101.061 249.272 100.471 249.036 99.417 249.079C98.252 249.127 98.015 249.364 98.813 249.683ZM149.813 249.683C150.534 249.972 151.397 249.936 151.729 249.604C152.061 249.272 151.471 249.036 150.417 249.079C149.252 249.127 149.015 249.364 149.813 249.683Z" fill="#FF00FF"/>
<path fill-rule="evenodd" clip-rule="evenodd" d="M118.104 54.662C115.137 56.173 109 63.946 109 66.193C109 66.634 107.703 69.808 106.119 73.247C93.047 101.614 92.687 102.639 93.386 109.46C94.118 116.605 94.132 116.583 87.022 118.986C82.88 120.387 81.427 121.995 67.605 140.47C54.279 158.282 52.616 160.942 52.218 165.08C51.329 174.334 57.386 181 66.684 181C74.01 181 114.73 176.216 116.772 175.115C117.722 174.603 119.591 173.017 120.924 171.592C122.258 170.166 124.092 169 125 169C125.908 169 127.742 170.166 129.076 171.592C130.409 173.017 132.278 174.603 133.228 175.115C135.324 176.245 176.079 181 183.667 181C188.581 181 189.463 180.64 193.289 177.072C197.379 173.257 197.5 172.961 197.5 166.822V160.5L182.478 140.5C168.595 122.018 167.115 120.385 162.978 118.986C155.863 116.581 155.882 116.61 156.619 109.411C157.222 103.532 156.994 102.328 154.026 95.732C152.237 91.755 149.924 86.588 148.887 84.25C147.849 81.912 146.135 78.088 145.078 75.75C144.021 73.412 141.833 68.537 140.216 64.917C138.317 60.662 136.121 57.51 134.01 56.007C129.724 52.955 122.633 52.355 118.104 54.662ZM128.138 64.75C129.828 66.792 129.667 66.456 139.458 88.412C143.606 97.713 147 106.135 147 107.126C147 110.4 143.594 111 125 111C106.434 111 103 110.399 103 107.147C103 105.568 108.58 92.336 115.582 77.312C116.912 74.458 118 71.75 118 71.294C118 70.838 119.141 68.785 120.536 66.732C123.291 62.677 125.867 62.006 128.138 64.75ZM140.777 122.557C143.954 124.781 143.588 126.749 138.353 135.623C128.447 152.414 127.997 153 125 153C122.003 153 121.553 152.414 111.647 135.623C103.833 122.379 105.092 121 125 121C135.65 121 139.031 121.334 140.777 122.557ZM98.543 133.75C114.489 159.584 116.315 164.045 111.75 166.013C110.513 166.547 100.332 167.895 89.127 169.009C77.922 170.122 68.34 171.29 67.833 171.603C66.376 172.504 62 169.145 62 167.126C62 165.596 76.162 145.665 87.137 131.75C91.549 126.156 94.135 126.609 98.543 133.75ZM174.161 146.5C181.718 156.445 187.875 165.497 187.92 166.727C188.072 170.962 184.62 171.938 174.5 170.524C169.55 169.832 159.511 168.697 152.191 168.003C138.383 166.692 136 165.784 136 161.833C136 159.998 141.966 149.168 151.504 133.688C157.122 124.569 157.776 124.939 174.161 146.5Z" fill="#FF0000"/>
<path fill-rule="evenodd" clip-rule="evenodd" d="M118.104 54.662C115.137 56.173 109 63.946 109 66.193C109 66.634 107.703 69.808 106.119 73.247C93.047 101.614 92.687 102.639 93.386 109.46C94.118 116.605 94.132 116.583 87.022 118.986C82.88 120.387 81.427 121.995 67.605 140.47C54.279 158.282 52.616 160.942 52.218 165.08C51.329 174.334 57.386 181 66.684 181C74.01 181 114.73 176.216 116.772 175.115C117.722 174.603 119.591 173.017 120.924 171.592C122.258 170.166 124.092 169 125 169C125.908 169 127.742 170.166 129.076 171.592C130.409 173.017 132.278 174.603 133.228 175.115C135.324 176.245 176.079 181 183.667 181C188.581 181 189.463 180.64 193.289 177.072C197.379 173.257 197.5 172.961 197.5 166.822V160.5L182.478 140.5C168.595 122.018 167.115 120.385 162.978 118.986C155.863 116.581 155.882 116.61 156.619 109.411C157.222 103.532 156.994 102.328 154.026 95.732C152.237 91.755 149.924 86.588 148.887 84.25C147.849 81.912 146.135 78.088 145.078 75.75C144.021 73.412 141.833 68.537 140.216 64.917C138.317 60.662 136.121 57.51 134.01 56.007C129.724 52.955 122.633 52.355 118.104 54.662ZM128.138 64.75C129.828 66.792 129.667 66.456 139.458 88.412C143.606 97.713 147 106.135 147 107.126C147 110.4 143.594 111 125 111C106.434 111 103 110.399 103 107.147C103 105.568 108.58 92.336 115.582 77.312C116.912 74.458 118 71.75 118 71.294C118 70.838 119.141 68.785 120.536 66.732C123.291 62.677 125.867 62.006 128.138 64.75ZM140.777 122.557C143.954 124.781 143.588 126.749 138.353 135.623C128.447 152.414 127.997 153 125 153C122.003 153 121.553 152.414 111.647 135.623C103.833 122.379 105.092 121 125 121C135.65 121 139.031 121.334 140.777 122.557ZM98.543 133.75C114.489 159.584 116.315 164.045 111.75 166.013C110.513 166.547 100.332 167.895 89.127 169.009C77.922 170.122 68.34 171.29 67.833 171.603C66.376 172.504 62 169.145 62 167.126C62 165.596 76.162 145.665 87.137 131.75C91.549 126.156 94.135 126.609 98.543 133.75ZM174.161 146.5C181.718 156.445 187.875 165.497 187.92 166.727C188.072 170.962 184.62 171.938 174.5 170.524C169.55 169.832 159.511 168.697 152.191 168.003C138.383 166.692 136 165.784 136 161.833C136 159.998 141.966 149.168 151.504 133.688C157.122 124.569 157.776 124.939 174.161 146.5Z" fill="#FAFAFA"/>
</svg>
