<svg width="50" height="50" viewBox="0 0 50 50" fill="none" xmlns="http://www.w3.org/2000/svg">
<g clip-path="url(#clip0_1_102)">
<path fill-rule="evenodd" clip-rule="evenodd" d="M19.6836 0.1734C19.7424 0.2686 19.1176 0.4552 18.295 0.588C17.4724 0.7206 16.671 0.9576 16.514 1.1146C16.357 1.2716 16.1424 1.4 16.0372 1.4C15.6346 1.4 13.8 2.0682 13.8 2.2148C13.8 2.2996 13.4946 2.4698 13.1212 2.593C12.7478 2.7162 12.1854 3.038 11.8712 3.3082C11.557 3.5784 11.1876 3.7996 11.05 3.7998C10.9126 3.7998 10.8 3.885 10.8 3.989C10.8 4.1686 10.0558 4.6542 9.3936 4.907C9.2252 4.9712 8.9156 5.2792 8.706 5.5912C8.4704 5.9416 8.2118 6.1152 8.0296 6.0452C7.8588 5.9798 7.7874 6.018 7.8604 6.1358C7.9296 6.248 7.7796 6.4504 7.527 6.5856C7.2744 6.7208 6.9088 7.1006 6.7144 7.4296C6.52 7.7586 6.3122 7.9788 6.2526 7.9192C6.1928 7.8594 5.999 8.0808 5.822 8.411C5.6448 8.7412 5.4236 9.0042 5.3304 8.9952C5.2372 8.9864 4.9782 9.3196 4.7552 9.736C4.532 10.1522 4.2376 10.5844 4.1012 10.6964C3.9646 10.8084 3.7318 11.186 3.584 11.5356C3.436 11.8852 3.2604 12.1372 3.1934 12.0958C3.1264 12.0546 2.9116 12.4658 2.7158 13.0098C2.5202 13.5538 2.2918 13.9568 2.2082 13.9052C2.1248 13.8534 1.8988 14.393 1.7064 15.104C1.514 15.815 1.2856 16.353 1.199 16.2994C1.1124 16.2458 0.8792 17.0058 0.6806 17.988C0.482 18.9702 0.2476 19.7294 0.1598 19.6752C0.072 19.6208 0 22.017 0 25C0 27.983 0.072 30.3792 0.1598 30.3248C0.2476 30.2706 0.482 31.0298 0.6806 32.012C0.8792 32.9942 1.1124 33.7542 1.199 33.7006C1.2856 33.647 1.514 34.185 1.7064 34.896C1.8988 35.607 2.1248 36.1466 2.2082 36.0948C2.2918 36.0432 2.5202 36.4462 2.7158 36.9902C2.9116 37.5342 3.136 37.9396 3.2146 37.891C3.2932 37.8424 3.5014 38.162 3.6772 38.6012C3.853 39.0406 4.073 39.4 4.1662 39.4C4.2594 39.4 4.5068 39.752 4.716 40.182C4.9252 40.6122 5.1586 40.9256 5.2348 40.8784C5.311 40.8314 5.5308 41.0596 5.7234 41.3856C5.9158 41.7116 6.1294 41.9436 6.1978 41.9014C6.2662 41.859 6.4832 42.1232 6.6798 42.4884C6.8764 42.8536 7.2508 43.2666 7.5118 43.4064C7.7728 43.546 7.9296 43.752 7.8604 43.8642C7.7874 43.982 7.8588 44.0202 8.0296 43.9548C8.2118 43.8848 8.4704 44.0584 8.706 44.4088C8.9156 44.7208 9.2252 45.0288 9.3936 45.093C10.0558 45.3458 10.8 45.8314 10.8 46.011C10.8 46.115 10.918 46.2 11.0622 46.2C11.2066 46.2 11.5228 46.3846 11.7648 46.6102C12.007 46.8358 12.2846 46.9714 12.3816 46.9114C12.4786 46.8514 12.6096 46.9368 12.6728 47.1012C12.7358 47.2656 12.9188 47.4 13.0794 47.4C13.24 47.4 13.4978 47.5262 13.652 47.6806C13.9224 47.951 15.595 48.6 16.0212 48.6C16.1352 48.6 16.357 48.7284 16.514 48.8854C16.671 49.0424 17.4724 49.2794 18.295 49.412C19.1176 49.5448 19.7424 49.7314 19.6836 49.8266C19.624 49.9228 21.9918 50 25 50C28.0082 50 30.376 49.9228 30.3164 49.8266C30.2576 49.7314 30.8824 49.5448 31.705 49.412C32.5276 49.2794 33.329 49.0424 33.486 48.8854C33.643 48.7284 33.8576 48.6 33.9628 48.6C34.3654 48.6 36.2 47.9318 36.2 47.7852C36.2 47.7004 36.5054 47.5302 36.8788 47.407C37.2522 47.2838 37.8146 46.962 38.1288 46.6918C38.443 46.4216 38.8126 46.2004 38.95 46.2002C39.0876 46.2002 39.2 46.115 39.2 46.011C39.2 45.8314 39.9442 45.3458 40.6064 45.093C40.7748 45.0288 41.0844 44.7208 41.294 44.4088C41.5296 44.0584 41.7882 43.8848 41.9704 43.9548C42.1412 44.0202 42.2126 43.982 42.1396 43.8642C42.0704 43.752 42.2152 43.5524 42.4616 43.4206C42.708 43.2886 43.085 42.92 43.2992 42.6014C43.5134 42.2826 43.7262 42.0596 43.7722 42.1056C43.8184 42.1516 44.0116 41.8992 44.2018 41.5446C44.3918 41.1902 44.6132 40.9272 44.6934 40.9604C44.7736 40.9938 45.0218 40.6804 45.2448 40.264C45.468 39.8478 45.7624 39.4156 45.8988 39.3036C46.0354 39.1916 46.2682 38.814 46.416 38.4644C46.564 38.1148 46.7396 37.8628 46.8066 37.9042C46.8736 37.9454 47.0884 37.5342 47.2842 36.9902C47.4798 36.4462 47.7082 36.0432 47.7918 36.0948C47.8752 36.1466 48.1012 35.607 48.2936 34.896C48.486 34.185 48.7144 33.647 48.801 33.7006C48.8876 33.7542 49.1208 32.9942 49.3194 32.012C49.518 31.0298 49.7524 30.2706 49.8402 30.3248C49.928 30.3792 50 27.983 50 25C50 22.017 49.928 19.6208 49.8402 19.6752C49.7524 19.7294 49.518 18.9702 49.3194 17.988C49.1208 17.0058 48.8876 16.2458 48.801 16.2994C48.7144 16.353 48.486 15.815 48.2936 15.104C48.1012 14.393 47.8752 13.8534 47.7918 13.9052C47.7082 13.9568 47.4798 13.5538 47.2842 13.0098C47.0884 12.4658 46.864 12.0604 46.7854 12.109C46.7068 12.1576 46.4986 11.838 46.3228 11.3988C46.147 10.9594 45.927 10.6 45.8338 10.6C45.7406 10.6 45.4932 10.248 45.284 9.818C45.0748 9.3878 44.8414 9.0744 44.7652 9.1216C44.689 9.1686 44.4692 8.9404 44.2766 8.6144C44.0842 8.2884 43.8706 8.0564 43.8022 8.0986C43.7338 8.141 43.5168 7.8766 43.32 7.5112C43.1234 7.146 42.7408 6.746 42.4698 6.6226C42.173 6.4874 42.0346 6.3058 42.1216 6.1652C42.2144 6.0148 42.1608 5.9722 41.9704 6.0452C41.7882 6.1152 41.5296 5.9416 41.294 5.5912C41.0844 5.2792 40.7748 4.9712 40.6064 4.907C39.9442 4.6542 39.2 4.1686 39.2 3.989C39.2 3.885 39.082 3.8 38.9378 3.8C38.7934 3.8 38.4772 3.6154 38.2352 3.3898C37.993 3.1642 37.7154 3.0286 37.6184 3.0886C37.5214 3.1486 37.3904 3.0632 37.3272 2.8988C37.2642 2.7344 37.0812 2.6 36.9206 2.6C36.76 2.6 36.5022 2.4738 36.348 2.3194C36.0776 2.049 34.405 1.4 33.9788 1.4C33.8648 1.4 33.643 1.2716 33.486 1.1146C33.329 0.9576 32.5276 0.7206 31.705 0.588C30.8824 0.4552 30.2576 0.2686 30.3164 0.1734C30.376 0.0772 28.0082 0 25 0C21.9918 0 19.624 0.0772 19.6836 0.1734Z" fill="#F8DEEE"/>
<path fill-rule="evenodd" clip-rule="evenodd" d="M19.6836 0.1734C19.7424 0.2686 19.1176 0.4552 18.295 0.588C17.4724 0.7206 16.671 0.9576 16.514 1.1146C16.357 1.2716 16.1424 1.4 16.0372 1.4C15.6346 1.4 13.8 2.0682 13.8 2.2148C13.8 2.2996 13.4946 2.4698 13.1212 2.593C12.7478 2.7162 12.1854 3.038 11.8712 3.3082C11.557 3.5784 11.1876 3.7996 11.05 3.7998C10.9126 3.7998 10.8 3.885 10.8 3.989C10.8 4.1686 10.0558 4.6542 9.3936 4.907C9.2252 4.9712 8.9156 5.2792 8.706 5.5912C8.4704 5.9416 8.2118 6.1152 8.0296 6.0452C7.8588 5.9798 7.7874 6.018 7.8604 6.1358C7.9296 6.248 7.7796 6.4504 7.527 6.5856C7.2744 6.7208 6.9088 7.1006 6.7144 7.4296C6.52 7.7586 6.3122 7.9788 6.2526 7.9192C6.1928 7.8594 5.999 8.0808 5.822 8.411C5.6448 8.7412 5.4236 9.0042 5.3304 8.9952C5.2372 8.9864 4.9782 9.3196 4.7552 9.736C4.532 10.1522 4.2376 10.5844 4.1012 10.6964C3.9646 10.8084 3.7318 11.186 3.584 11.5356C3.436 11.8852 3.2604 12.1372 3.1934 12.0958C3.1264 12.0546 2.9116 12.4658 2.7158 13.0098C2.5202 13.5538 2.2918 13.9568 2.2082 13.9052C2.1248 13.8534 1.8988 14.393 1.7064 15.104C1.514 15.815 1.2856 16.353 1.199 16.2994C1.1124 16.2458 0.8792 17.0058 0.6806 17.988C0.482 18.9702 0.2476 19.7294 0.1598 19.6752C0.072 19.6208 0 22.017 0 25C0 27.983 0.072 30.3792 0.1598 30.3248C0.2476 30.2706 0.482 31.0298 0.6806 32.012C0.8792 32.9942 1.1124 33.7542 1.199 33.7006C1.2856 33.647 1.514 34.185 1.7064 34.896C1.8988 35.607 2.1248 36.1466 2.2082 36.0948C2.2918 36.0432 2.5202 36.4462 2.7158 36.9902C2.9116 37.5342 3.136 37.9396 3.2146 37.891C3.2932 37.8424 3.5014 38.162 3.6772 38.6012C3.853 39.0406 4.073 39.4 4.1662 39.4C4.2594 39.4 4.5068 39.752 4.716 40.182C4.9252 40.6122 5.1586 40.9256 5.2348 40.8784C5.311 40.8314 5.5308 41.0596 5.7234 41.3856C5.9158 41.7116 6.1294 41.9436 6.1978 41.9014C6.2662 41.859 6.4832 42.1232 6.6798 42.4884C6.8764 42.8536 7.2508 43.2666 7.5118 43.4064C7.7728 43.546 7.9296 43.752 7.8604 43.8642C7.7874 43.982 7.8588 44.0202 8.0296 43.9548C8.2118 43.8848 8.4704 44.0584 8.706 44.4088C8.9156 44.7208 9.2252 45.0288 9.3936 45.093C10.0558 45.3458 10.8 45.8314 10.8 46.011C10.8 46.115 10.918 46.2 11.0622 46.2C11.2066 46.2 11.5228 46.3846 11.7648 46.6102C12.007 46.8358 12.2846 46.9714 12.3816 46.9114C12.4786 46.8514 12.6096 46.9368 12.6728 47.1012C12.7358 47.2656 12.9188 47.4 13.0794 47.4C13.24 47.4 13.4978 47.5262 13.652 47.6806C13.9224 47.951 15.595 48.6 16.0212 48.6C16.1352 48.6 16.357 48.7284 16.514 48.8854C16.671 49.0424 17.4724 49.2794 18.295 49.412C19.1176 49.5448 19.7424 49.7314 19.6836 49.8266C19.624 49.9228 21.9918 50 25 50C28.0082 50 30.376 49.9228 30.3164 49.8266C30.2576 49.7314 30.8824 49.5448 31.705 49.412C32.5276 49.2794 33.329 49.0424 33.486 48.8854C33.643 48.7284 33.8576 48.6 33.9628 48.6C34.3654 48.6 36.2 47.9318 36.2 47.7852C36.2 47.7004 36.5054 47.5302 36.8788 47.407C37.2522 47.2838 37.8146 46.962 38.1288 46.6918C38.443 46.4216 38.8126 46.2004 38.95 46.2002C39.0876 46.2002 39.2 46.115 39.2 46.011C39.2 45.8314 39.9442 45.3458 40.6064 45.093C40.7748 45.0288 41.0844 44.7208 41.294 44.4088C41.5296 44.0584 41.7882 43.8848 41.9704 43.9548C42.1412 44.0202 42.2126 43.982 42.1396 43.8642C42.0704 43.752 42.2152 43.5524 42.4616 43.4206C42.708 43.2886 43.085 42.92 43.2992 42.6014C43.5134 42.2826 43.7262 42.0596 43.7722 42.1056C43.8184 42.1516 44.0116 41.8992 44.2018 41.5446C44.3918 41.1902 44.6132 40.9272 44.6934 40.9604C44.7736 40.9938 45.0218 40.6804 45.2448 40.264C45.468 39.8478 45.7624 39.4156 45.8988 39.3036C46.0354 39.1916 46.2682 38.814 46.416 38.4644C46.564 38.1148 46.7396 37.8628 46.8066 37.9042C46.8736 37.9454 47.0884 37.5342 47.2842 36.9902C47.4798 36.4462 47.7082 36.0432 47.7918 36.0948C47.8752 36.1466 48.1012 35.607 48.2936 34.896C48.486 34.185 48.7144 33.647 48.801 33.7006C48.8876 33.7542 49.1208 32.9942 49.3194 32.012C49.518 31.0298 49.7524 30.2706 49.8402 30.3248C49.928 30.3792 50 27.983 50 25C50 22.017 49.928 19.6208 49.8402 19.6752C49.7524 19.7294 49.518 18.9702 49.3194 17.988C49.1208 17.0058 48.8876 16.2458 48.801 16.2994C48.7144 16.353 48.486 15.815 48.2936 15.104C48.1012 14.393 47.8752 13.8534 47.7918 13.9052C47.7082 13.9568 47.4798 13.5538 47.2842 13.0098C47.0884 12.4658 46.864 12.0604 46.7854 12.109C46.7068 12.1576 46.4986 11.838 46.3228 11.3988C46.147 10.9594 45.927 10.6 45.8338 10.6C45.7406 10.6 45.4932 10.248 45.284 9.818C45.0748 9.3878 44.8414 9.0744 44.7652 9.1216C44.689 9.1686 44.4692 8.9404 44.2766 8.6144C44.0842 8.2884 43.8706 8.0564 43.8022 8.0986C43.7338 8.141 43.5168 7.8766 43.32 7.5112C43.1234 7.146 42.7408 6.746 42.4698 6.6226C42.173 6.4874 42.0346 6.3058 42.1216 6.1652C42.2144 6.0148 42.1608 5.9722 41.9704 6.0452C41.7882 6.1152 41.5296 5.9416 41.294 5.5912C41.0844 5.2792 40.7748 4.9712 40.6064 4.907C39.9442 4.6542 39.2 4.1686 39.2 3.989C39.2 3.885 39.082 3.8 38.9378 3.8C38.7934 3.8 38.4772 3.6154 38.2352 3.3898C37.993 3.1642 37.7154 3.0286 37.6184 3.0886C37.5214 3.1486 37.3904 3.0632 37.3272 2.8988C37.2642 2.7344 37.0812 2.6 36.9206 2.6C36.76 2.6 36.5022 2.4738 36.348 2.3194C36.0776 2.049 34.405 1.4 33.9788 1.4C33.8648 1.4 33.643 1.2716 33.486 1.1146C33.329 0.9576 32.5276 0.7206 31.705 0.588C30.8824 0.4552 30.2576 0.2686 30.3164 0.1734C30.376 0.0772 28.0082 0 25 0C21.9918 0 19.624 0.0772 19.6836 0.1734ZM25.469 12.75C25.52 12.8324 25.309 12.9 25 12.9C24.691 12.9 24.48 12.8324 24.531 12.75C24.5818 12.6674 24.793 12.6 25 12.6C25.207 12.6 25.4182 12.6674 25.469 12.75ZM23.8244 14.135C23.5886 14.5404 23.5318 14.4106 23.7248 13.9078C23.7932 13.729 23.8916 13.6248 23.943 13.6764C23.9946 13.7278 23.9412 13.9342 23.8244 14.135ZM26.3614 14.3052C26.2998 14.3668 26.188 14.2558 26.1128 14.0586C26.0044 13.7736 26.0272 13.7506 26.2248 13.9466C26.3616 14.0824 26.423 14.2438 26.3614 14.3052ZM21.2248 14.6534C21.0272 14.8494 21.0044 14.8264 21.1128 14.5414C21.188 14.3442 21.2998 14.2332 21.3614 14.2948C21.423 14.3562 21.3616 14.5176 21.2248 14.6534ZM28.8764 14.5104C28.9446 14.6884 28.911 14.7686 28.7978 14.6986C28.689 14.6314 28.6 14.4918 28.6 14.3882C28.6 14.1006 28.7434 14.164 28.8764 14.5104ZM22.869 16.3086C22.8038 16.4784 22.7076 16.5744 22.6552 16.522C22.6028 16.4696 22.6192 16.3306 22.6918 16.2134C22.889 15.8942 23.0042 15.9562 22.869 16.3086ZM20.2244 16.935C19.9886 17.3404 19.9318 17.2106 20.1248 16.7078C20.1932 16.529 20.2916 16.4248 20.343 16.4764C20.3946 16.5278 20.3412 16.7342 20.2244 16.935ZM29.9938 17.1C29.9938 17.21 29.9066 17.165 29.8 17C29.6934 16.835 29.6062 16.61 29.6062 16.5C29.6062 16.39 29.6934 16.435 29.8 16.6C29.9066 16.765 29.9938 16.99 29.9938 17.1ZM19.4244 18.735C19.1886 19.1404 19.1318 19.0106 19.3248 18.5078C19.3932 18.329 19.4916 18.2248 19.543 18.2764C19.5946 18.3278 19.5412 18.5342 19.4244 18.735ZM30.9614 19.3052C30.8998 19.3668 30.788 19.2558 30.7128 19.0586C30.6044 18.7736 30.6272 18.7506 30.8248 18.9466C30.9616 19.0824 31.023 19.2438 30.9614 19.3052ZM18.5386 21.5462C18.4878 21.7408 18.443 21.63 18.439 21.3C18.435 20.97 18.4764 20.8108 18.5312 20.9462C18.586 21.0816 18.5894 21.3516 18.5386 21.5462ZM31.5386 21.5462C31.4878 21.7408 31.443 21.63 31.439 21.3C31.435 20.97 31.4764 20.8108 31.5312 20.9462C31.586 21.0816 31.5894 21.3516 31.5386 21.5462ZM20.8764 21.7104C20.9446 21.8884 20.911 21.9686 20.7978 21.8986C20.689 21.8314 20.6 21.6918 20.6 21.5882C20.6 21.3006 20.7434 21.364 20.8764 21.7104ZM29.2248 21.8534C29.0272 22.0494 29.0044 22.0264 29.1128 21.7414C29.188 21.5442 29.2998 21.4332 29.3614 21.4948C29.423 21.5562 29.3616 21.7176 29.2248 21.8534ZM26.45 24.3486C25.6524 24.3864 24.3474 24.3864 23.55 24.3486C22.7526 24.3106 23.405 24.2794 25 24.2794C26.595 24.2794 27.2476 24.3106 26.45 24.3486ZM28.4256 24.75C28.6742 25.0672 28.6672 25.0742 28.35 24.8256C28.1574 24.6746 28 24.517 28 24.4756C28 24.311 28.1642 24.4168 28.4256 24.75ZM21.6764 25.7104C21.7446 25.8884 21.711 25.9686 21.5978 25.8986C21.489 25.8314 21.4 25.6918 21.4 25.5882C21.4 25.3006 21.5434 25.364 21.6764 25.7104ZM28.4248 25.8534C28.2272 26.0494 28.2044 26.0264 28.3128 25.7414C28.388 25.5442 28.4998 25.4332 28.5614 25.4948C28.623 25.5562 28.5616 25.7176 28.4248 25.8534ZM18.2 25.6652C18.2 25.701 17.9526 25.9484 17.65 26.2152L17.1 26.7L17.5848 26.15C18.038 25.636 18.2 25.5082 18.2 25.6652ZM19.2256 25.95C19.4794 26.2738 19.47 26.278 19.1 26.0066C18.88 25.8452 18.6626 25.6878 18.6166 25.6566C18.5708 25.6254 18.6274 25.6 18.7422 25.6C18.857 25.6 19.0746 25.7574 19.2256 25.95ZM31.3834 25.6566C31.3376 25.6878 31.12 25.8452 30.9 26.0066C30.53 26.278 30.5206 26.2738 30.7744 25.95C30.9254 25.7574 31.143 25.6 31.2578 25.6C31.3726 25.6 31.4292 25.6254 31.3834 25.6566ZM32.4152 26.15L32.9 26.7L32.3 26.2C31.97 25.925 31.6626 25.6774 31.6166 25.65C31.5708 25.6226 31.6226 25.6 31.7318 25.6C31.841 25.6 32.1484 25.8476 32.4152 26.15ZM17.2 26.8756C17.2 26.917 17.0426 27.0746 16.85 27.2256C16.5328 27.4742 16.5258 27.4672 16.7744 27.15C17.0358 26.8168 17.2 26.711 17.2 26.8756ZM33.2256 27.15C33.4742 27.4672 33.4672 27.4742 33.15 27.2256C32.8168 26.9642 32.711 26.8 32.8756 26.8C32.917 26.8 33.0746 26.9574 33.2256 27.15ZM20.4 27.8C20.5178 28.02 20.569 28.2 20.514 28.2C20.459 28.2 20.3178 28.02 20.2 27.8C20.0822 27.58 20.031 27.4 20.086 27.4C20.141 27.4 20.2822 27.58 20.4 27.8ZM29.8 27.8C29.6822 28.02 29.541 28.2 29.486 28.2C29.431 28.2 29.4822 28.02 29.6 27.8C29.7178 27.58 29.859 27.4 29.914 27.4C29.969 27.4 29.9178 27.58 29.8 27.8ZM13.6 28.0756C13.6 28.117 13.4426 28.2746 13.25 28.4256C12.9328 28.6742 12.9258 28.6672 13.1744 28.35C13.4358 28.0168 13.6 27.911 13.6 28.0756ZM36.8256 28.35C37.0742 28.6672 37.0672 28.6742 36.75 28.4256C36.5574 28.2746 36.4 28.117 36.4 28.0756C36.4 27.911 36.5642 28.0168 36.8256 28.35ZM35.0256 29.55C35.2742 29.8672 35.2672 29.8742 34.95 29.6256C34.6168 29.3642 34.511 29.2 34.6756 29.2C34.717 29.2 34.8746 29.3574 35.0256 29.55ZM12.4 29.6756C12.4 29.717 12.2424 29.8746 12.05 30.0256C11.7328 30.2742 11.7258 30.2672 11.9744 29.95C12.2358 29.6168 12.4 29.511 12.4 29.6756ZM38.0256 29.95C38.2742 30.2672 38.2672 30.2742 37.95 30.0256C37.6168 29.7642 37.511 29.6 37.6756 29.6C37.717 29.6 37.8746 29.7574 38.0256 29.95ZM35.6256 30.35C35.8742 30.6672 35.8672 30.6742 35.55 30.4256C35.2168 30.1642 35.111 30 35.2756 30C35.317 30 35.4746 30.1574 35.6256 30.35ZM11.8 30.4756C11.8 30.517 11.6424 30.6746 11.45 30.8256C11.1328 31.0742 11.1258 31.0672 11.3744 30.75C11.6358 30.4168 11.8 30.311 11.8 30.4756ZM38.6256 30.75C38.8742 31.0672 38.8672 31.0742 38.55 30.8256C38.2168 30.5642 38.111 30.4 38.2756 30.4C38.317 30.4 38.4746 30.5574 38.6256 30.75ZM14.2 30.8756C14.2 30.917 14.0426 31.0746 13.85 31.2256C13.5328 31.4742 13.5258 31.4672 13.7744 31.15C14.0358 30.8168 14.2 30.711 14.2 30.8756ZM22.4 31.2C22.5178 31.42 22.569 31.6 22.514 31.6C22.459 31.6 22.3178 31.42 22.2 31.2C22.0822 30.98 22.031 30.8 22.086 30.8C22.141 30.8 22.2822 30.98 22.4 31.2ZM36.2256 31.15C36.4742 31.4672 36.4672 31.4742 36.15 31.2256C35.8168 30.9642 35.711 30.8 35.8756 30.8C35.917 30.8 36.0746 30.9574 36.2256 31.15ZM37.5806 33.0862C37.528 33.1388 37.3658 32.9834 37.22 32.741C36.967 32.3196 36.9714 32.3154 37.3158 32.6452C37.514 32.8352 37.6332 33.0336 37.5806 33.0862ZM10.3386 33.5462C10.2878 33.7408 10.243 33.63 10.239 33.3C10.235 32.97 10.2764 32.8108 10.3312 32.9462C10.386 33.0816 10.3894 33.3516 10.3386 33.5462ZM39.7378 33.75C39.6876 33.9426 39.6464 33.785 39.6464 33.4C39.6464 33.015 39.6876 32.8574 39.7378 33.05C39.7882 33.2426 39.7882 33.5574 39.7378 33.75ZM22.0538 33.3312C21.9184 33.386 21.6484 33.3894 21.4538 33.3386C21.2592 33.2878 21.37 33.243 21.7 33.239C22.03 33.235 22.1892 33.2764 22.0538 33.3312ZM28.6538 33.3312C28.5184 33.386 28.2484 33.3894 28.0538 33.3386C27.8592 33.2878 27.97 33.243 28.3 33.239C28.63 33.235 28.7892 33.2764 28.6538 33.3312ZM12.8066 33.9C13.078 34.27 13.0738 34.2794 12.75 34.0256C12.5576 33.8746 12.4 33.657 12.4 33.5422C12.4 33.4274 12.4254 33.3708 12.4566 33.4166C12.4878 33.4626 12.6452 33.68 12.8066 33.9ZM20.6538 33.5312C20.5184 33.586 20.2484 33.5894 20.0538 33.5386C19.8592 33.4878 19.97 33.443 20.3 33.439C20.63 33.435 20.7892 33.4764 20.6538 33.5312ZM30.05 33.5324C29.9126 33.588 29.6876 33.588 29.55 33.5324C29.4126 33.477 29.525 33.4316 29.8 33.4316C30.075 33.4316 30.1876 33.477 30.05 33.5324ZM37.3158 33.9548C36.9714 34.2846 36.967 34.2804 37.22 33.859C37.3658 33.6166 37.528 33.4612 37.5806 33.5138C37.6332 33.5664 37.514 33.7648 37.3158 33.9548ZM18.6538 33.7312C18.5184 33.786 18.2484 33.7894 18.0538 33.7386C17.8592 33.6878 17.97 33.643 18.3 33.639C18.63 33.635 18.7892 33.6764 18.6538 33.7312ZM32.05 33.7324C31.9126 33.788 31.6876 33.788 31.55 33.7324C31.4126 33.677 31.525 33.6316 31.8 33.6316C32.075 33.6316 32.1876 33.677 32.05 33.7324ZM16.45 33.9324C16.3126 33.988 16.0876 33.988 15.95 33.9324C15.8126 33.877 15.925 33.8316 16.2 33.8316C16.475 33.8316 16.5876 33.877 16.45 33.9324ZM25.8152 34.35L26.3 34.9L25.7872 34.45C25.1222 33.8666 24.8522 33.8828 24.111 34.55L23.5 35.1L24.0874 34.45C24.8048 33.6562 25.1842 33.6342 25.8152 34.35ZM34.05 33.9324C33.9126 33.988 33.6876 33.988 33.55 33.9324C33.4126 33.877 33.525 33.8316 33.8 33.8316C34.075 33.8316 34.1876 33.877 34.05 33.9324ZM14.6538 34.1312C14.5184 34.186 14.2484 34.1894 14.0538 34.1386C13.8592 34.0878 13.97 34.043 14.3 34.039C14.63 34.035 14.7892 34.0764 14.6538 34.1312ZM35.95 34.1378C35.7574 34.1882 35.4426 34.1882 35.25 34.1378C35.0574 34.0876 35.215 34.0464 35.6 34.0464C35.985 34.0464 36.1426 34.0876 35.95 34.1378ZM39.4 34.8626C39.4 34.897 39.1074 35.1896 38.75 35.5126L38.1 36.1L38.6874 35.45C39.235 34.8442 39.4 34.708 39.4 34.8626ZM11.6256 35.75C11.8742 36.0672 11.8672 36.0742 11.55 35.8256C11.2168 35.5642 11.111 35.4 11.2756 35.4C11.317 35.4 11.4746 35.5574 11.6256 35.75ZM21.05 35.5324C20.9126 35.588 20.6876 35.588 20.55 35.5324C20.4126 35.477 20.525 35.4316 20.8 35.4316C21.075 35.4316 21.1876 35.477 21.05 35.5324ZM29.45 35.5324C29.3126 35.588 29.0876 35.588 28.95 35.5324C28.8126 35.477 28.925 35.4316 29.2 35.4316C29.475 35.4316 29.5876 35.477 29.45 35.5324ZM19.4538 35.7312C19.3184 35.786 19.0484 35.7894 18.8538 35.7386C18.6592 35.6878 18.77 35.643 19.1 35.639C19.43 35.635 19.5892 35.6764 19.4538 35.7312ZM31.2538 35.7312C31.1184 35.786 30.8484 35.7894 30.6538 35.7386C30.4592 35.6878 30.57 35.643 30.9 35.639C31.23 35.635 31.3892 35.6764 31.2538 35.7312ZM17.8538 35.9312C17.7184 35.986 17.4484 35.9894 17.2538 35.9386C17.0592 35.8878 17.17 35.843 17.5 35.839C17.83 35.835 17.9892 35.8764 17.8538 35.9312ZM32.85 35.9324C32.7126 35.988 32.4876 35.988 32.35 35.9324C32.2126 35.877 32.325 35.8316 32.6 35.8316C32.875 35.8316 32.9876 35.877 32.85 35.9324ZM15.85 36.1324C15.7126 36.188 15.4876 36.188 15.35 36.1324C15.2126 36.077 15.325 36.0316 15.6 36.0316C15.875 36.0316 15.9876 36.077 15.85 36.1324ZM34.7458 36.1208C34.6794 36.1872 34.5068 36.1944 34.3626 36.1366C34.203 36.0728 34.2504 36.0254 34.4834 36.0158C34.6942 36.0072 34.8122 36.0544 34.7458 36.1208ZM13.75 36.3378C13.5574 36.3882 13.2426 36.3882 13.05 36.3378C12.8574 36.2876 13.015 36.2464 13.4 36.2464C13.785 36.2464 13.9426 36.2876 13.75 36.3378ZM36.95 36.3378C36.7574 36.3882 36.4426 36.3882 36.25 36.3378C36.0574 36.2876 36.215 36.2464 36.6 36.2464C36.985 36.2464 37.1426 36.2876 36.95 36.3378Z" fill="#F3A6D5"/>
<path fill-rule="evenodd" clip-rule="evenodd" d="M19.6836 0.1734C19.7424 0.2686 19.1176 0.4552 18.295 0.588C17.4724 0.7206 16.671 0.9576 16.514 1.1146C16.357 1.2716 16.1424 1.4 16.0372 1.4C15.6346 1.4 13.8 2.0682 13.8 2.2148C13.8 2.2996 13.4946 2.4698 13.1212 2.593C12.7478 2.7162 12.1854 3.038 11.8712 3.3082C11.557 3.5784 11.1876 3.7996 11.05 3.7998C10.9126 3.7998 10.8 3.885 10.8 3.989C10.8 4.1686 10.0558 4.6542 9.3936 4.907C9.2252 4.9712 8.9156 5.2792 8.706 5.5912C8.4704 5.9416 8.2118 6.1152 8.0296 6.0452C7.8588 5.9798 7.7874 6.018 7.8604 6.1358C7.9296 6.248 7.7796 6.4504 7.527 6.5856C7.2744 6.7208 6.9088 7.1006 6.7144 7.4296C6.52 7.7586 6.3122 7.9788 6.2526 7.9192C6.1928 7.8594 5.999 8.0808 5.822 8.411C5.6448 8.7412 5.4236 9.0042 5.3304 8.9952C5.2372 8.9864 4.9782 9.3196 4.7552 9.736C4.532 10.1522 4.2376 10.5844 4.1012 10.6964C3.9646 10.8084 3.7318 11.186 3.584 11.5356C3.436 11.8852 3.2604 12.1372 3.1934 12.0958C3.1264 12.0546 2.9116 12.4658 2.7158 13.0098C2.5202 13.5538 2.2918 13.9568 2.2082 13.9052C2.1248 13.8534 1.8988 14.393 1.7064 15.104C1.514 15.815 1.2856 16.353 1.199 16.2994C1.1124 16.2458 0.8792 17.0058 0.6806 17.988C0.482 18.9702 0.2476 19.7294 0.1598 19.6752C0.072 19.6208 0 22.017 0 25C0 27.983 0.072 30.3792 0.1598 30.3248C0.2476 30.2706 0.482 31.0298 0.6806 32.012C0.8792 32.9942 1.1124 33.7542 1.199 33.7006C1.2856 33.647 1.514 34.185 1.7064 34.896C1.8988 35.607 2.1248 36.1466 2.2082 36.0948C2.2918 36.0432 2.5202 36.4462 2.7158 36.9902C2.9116 37.5342 3.136 37.9396 3.2146 37.891C3.2932 37.8424 3.5014 38.162 3.6772 38.6012C3.853 39.0406 4.073 39.4 4.1662 39.4C4.2594 39.4 4.5068 39.752 4.716 40.182C4.9252 40.6122 5.1586 40.9256 5.2348 40.8784C5.311 40.8314 5.5308 41.0596 5.7234 41.3856C5.9158 41.7116 6.1294 41.9436 6.1978 41.9014C6.2662 41.859 6.4832 42.1232 6.6798 42.4884C6.8764 42.8536 7.2508 43.2666 7.5118 43.4064C7.7728 43.546 7.9296 43.752 7.8604 43.8642C7.7874 43.982 7.8588 44.0202 8.0296 43.9548C8.2118 43.8848 8.4704 44.0584 8.706 44.4088C8.9156 44.7208 9.2252 45.0288 9.3936 45.093C10.0558 45.3458 10.8 45.8314 10.8 46.011C10.8 46.115 10.918 46.2 11.0622 46.2C11.2066 46.2 11.5228 46.3846 11.7648 46.6102C12.007 46.8358 12.2846 46.9714 12.3816 46.9114C12.4786 46.8514 12.6096 46.9368 12.6728 47.1012C12.7358 47.2656 12.9188 47.4 13.0794 47.4C13.24 47.4 13.4978 47.5262 13.652 47.6806C13.9224 47.951 15.595 48.6 16.0212 48.6C16.1352 48.6 16.357 48.7284 16.514 48.8854C16.671 49.0424 17.4724 49.2794 18.295 49.412C19.1176 49.5448 19.7424 49.7314 19.6836 49.8266C19.624 49.9228 21.9918 50 25 50C28.0082 50 30.376 49.9228 30.3164 49.8266C30.2576 49.7314 30.8824 49.5448 31.705 49.412C32.5276 49.2794 33.329 49.0424 33.486 48.8854C33.643 48.7284 33.8576 48.6 33.9628 48.6C34.3654 48.6 36.2 47.9318 36.2 47.7852C36.2 47.7004 36.5054 47.5302 36.8788 47.407C37.2522 47.2838 37.8146 46.962 38.1288 46.6918C38.443 46.4216 38.8126 46.2004 38.95 46.2002C39.0876 46.2002 39.2 46.115 39.2 46.011C39.2 45.8314 39.9442 45.3458 40.6064 45.093C40.7748 45.0288 41.0844 44.7208 41.294 44.4088C41.5296 44.0584 41.7882 43.8848 41.9704 43.9548C42.1412 44.0202 42.2126 43.982 42.1396 43.8642C42.0704 43.752 42.2152 43.5524 42.4616 43.4206C42.708 43.2886 43.085 42.92 43.2992 42.6014C43.5134 42.2826 43.7262 42.0596 43.7722 42.1056C43.8184 42.1516 44.0116 41.8992 44.2018 41.5446C44.3918 41.1902 44.6132 40.9272 44.6934 40.9604C44.7736 40.9938 45.0218 40.6804 45.2448 40.264C45.468 39.8478 45.7624 39.4156 45.8988 39.3036C46.0354 39.1916 46.2682 38.814 46.416 38.4644C46.564 38.1148 46.7396 37.8628 46.8066 37.9042C46.8736 37.9454 47.0884 37.5342 47.2842 36.9902C47.4798 36.4462 47.7082 36.0432 47.7918 36.0948C47.8752 36.1466 48.1012 35.607 48.2936 34.896C48.486 34.185 48.7144 33.647 48.801 33.7006C48.8876 33.7542 49.1208 32.9942 49.3194 32.012C49.518 31.0298 49.7524 30.2706 49.8402 30.3248C49.928 30.3792 50 27.983 50 25C50 22.017 49.928 19.6208 49.8402 19.6752C49.7524 19.7294 49.518 18.9702 49.3194 17.988C49.1208 17.0058 48.8876 16.2458 48.801 16.2994C48.7144 16.353 48.486 15.815 48.2936 15.104C48.1012 14.393 47.8752 13.8534 47.7918 13.9052C47.7082 13.9568 47.4798 13.5538 47.2842 13.0098C47.0884 12.4658 46.864 12.0604 46.7854 12.109C46.7068 12.1576 46.4986 11.838 46.3228 11.3988C46.147 10.9594 45.927 10.6 45.8338 10.6C45.7406 10.6 45.4932 10.248 45.284 9.818C45.0748 9.3878 44.8414 9.0744 44.7652 9.1216C44.689 9.1686 44.4692 8.9404 44.2766 8.6144C44.0842 8.2884 43.8706 8.0564 43.8022 8.0986C43.7338 8.141 43.5168 7.8766 43.32 7.5112C43.1234 7.146 42.7408 6.746 42.4698 6.6226C42.173 6.4874 42.0346 6.3058 42.1216 6.1652C42.2144 6.0148 42.1608 5.9722 41.9704 6.0452C41.7882 6.1152 41.5296 5.9416 41.294 5.5912C41.0844 5.2792 40.7748 4.9712 40.6064 4.907C39.9442 4.6542 39.2 4.1686 39.2 3.989C39.2 3.885 39.082 3.8 38.9378 3.8C38.7934 3.8 38.4772 3.6154 38.2352 3.3898C37.993 3.1642 37.7154 3.0286 37.6184 3.0886C37.5214 3.1486 37.3904 3.0632 37.3272 2.8988C37.2642 2.7344 37.0812 2.6 36.9206 2.6C36.76 2.6 36.5022 2.4738 36.348 2.3194C36.0776 2.049 34.405 1.4 33.9788 1.4C33.8648 1.4 33.643 1.2716 33.486 1.1146C33.329 0.9576 32.5276 0.7206 31.705 0.588C30.8824 0.4552 30.2576 0.2686 30.3164 0.1734C30.376 0.0772 28.0082 0 25 0C21.9918 0 19.624 0.0772 19.6836 0.1734ZM25.35 10.5378C25.1574 10.5882 24.8426 10.5882 24.65 10.5378C24.4574 10.4876 24.615 10.4464 25 10.4464C25.385 10.4464 25.5426 10.4876 25.35 10.5378ZM23.164 11.251C22.8694 11.498 22.4422 12.015 22.2148 12.4C21.7404 13.2034 21.6536 13.0632 22.096 12.2078C22.2588 11.893 22.631 11.4474 22.923 11.2176C23.6366 10.6562 23.8404 10.6844 23.164 11.251ZM27.75 12C27.9976 12.3626 28.1964 12.7584 28.192 12.8796C28.1876 13.0008 28.0454 12.83 27.8762 12.5C27.707 12.17 27.283 11.6372 26.9342 11.316C26.4424 10.863 26.4124 10.8004 26.8 11.0364C27.075 11.204 27.5024 11.6376 27.75 12ZM25.6342 12.931C25.8354 13.113 26 13.358 26 13.4754C26 13.593 25.8598 13.489 25.6886 13.2446C25.3418 12.7494 24.8244 12.6712 24.3996 13.05C24.1612 13.2626 24.1588 13.2478 24.3842 12.95C24.7166 12.5106 25.1622 12.5038 25.6342 12.931ZM21.491 14.091C21.318 14.5046 21.133 14.7996 21.0798 14.7464C21.0264 14.6932 21.1378 14.3246 21.3272 13.9272C21.7744 12.9898 21.899 13.1144 21.491 14.091ZM28.9262 14.7404C28.8286 14.8382 28.1902 13.49 28.2088 13.2256C28.2138 13.1566 28.4002 13.446 28.6232 13.8688C28.8464 14.2918 28.9826 14.684 28.9262 14.7404ZM23.9136 14.0982C23.5716 14.9166 23.2148 15.5566 23.206 15.3666C23.1956 15.1354 23.9806 13.4 24.0956 13.4C24.156 13.4 24.0742 13.7142 23.9136 14.0982ZM26.4974 14.5244C26.6638 14.9228 26.7962 15.3054 26.7916 15.3744C26.7808 15.535 26.0196 14.1504 26.0084 13.95C25.988 13.5866 26.2188 13.8576 26.4974 14.5244ZM19.7824 17.8824C19.2116 19.1632 18.7112 20.1778 18.6702 20.1368C18.6294 20.096 19.061 19.0126 19.6294 17.7294C20.1978 16.4462 20.6984 15.4316 20.7416 15.4748C20.7848 15.518 20.353 16.6014 19.7824 17.8824ZM29.9136 16.7018C30.0742 17.0858 30.156 17.4 30.0956 17.4C29.9806 17.4 29.1956 15.6646 29.206 15.4334C29.2148 15.2434 29.5716 15.8834 29.9136 16.7018ZM22.723 16.7304C22.4456 17.2636 22.2144 17.6316 22.2094 17.5478C22.1938 17.294 23.0448 15.5782 23.1394 15.6728C23.1878 15.7212 23.0006 16.1972 22.723 16.7304ZM27.7832 17.5C27.7832 17.61 27.6108 17.385 27.4 17C27.1892 16.615 27.0168 16.21 27.0168 16.1C27.0168 15.99 27.1892 16.215 27.4 16.6C27.6108 16.985 27.7832 17.39 27.7832 17.5ZM31.333 20.1336C31.242 20.2248 30.194 17.9208 30.2148 17.675C30.223 17.5788 30.4948 18.0758 30.8188 18.7794C31.1428 19.4832 31.3742 20.0924 31.333 20.1336ZM21.497 19.5204C21.0246 20.5572 20.8204 21.2538 20.898 21.5636C20.9732 21.8628 20.9404 21.9868 20.808 21.905C20.6936 21.8342 20.5992 21.6242 20.5984 21.4382C20.5966 21.0574 22.023 17.7562 22.1392 17.8724C22.1802 17.9136 21.8914 18.6552 21.497 19.5204ZM28.5832 19.3C28.5832 19.41 28.4108 19.185 28.2 18.8C27.9892 18.415 27.8168 18.01 27.8168 17.9C27.8168 17.79 27.9892 18.015 28.2 18.4C28.4108 18.785 28.5832 19.19 28.5832 19.3ZM29.393 21.3382C29.3968 21.5792 29.326 21.8222 29.2354 21.8782C29.1448 21.934 29.0726 21.6918 29.0746 21.34C29.0766 20.988 29.0094 20.52 28.9254 20.3C28.8334 20.0596 28.8948 20.0994 29.079 20.4C29.2478 20.675 29.389 21.0972 29.393 21.3382ZM18.5534 23.3146C18.414 23.4442 18.03 23.6042 17.7 23.6698C17.2506 23.7594 17.2004 23.7448 17.5 23.6114C17.72 23.5136 18.0584 23.3834 18.252 23.3222C18.5572 23.2258 18.5914 23.0184 18.5106 21.7556L18.4174 20.3L18.6122 21.6894C18.762 22.7582 18.7484 23.1332 18.5534 23.3146ZM31.5268 21.8056C31.412 23.0398 31.439 23.2246 31.748 23.3222C31.9416 23.3834 32.28 23.5136 32.5 23.6114C32.7996 23.7448 32.7494 23.7594 32.3 23.6698C31.3096 23.4726 31.1926 23.2402 31.3322 21.746C31.4012 21.0058 31.5028 20.4 31.5576 20.4C31.6126 20.4 31.5986 21.0324 31.5268 21.8056ZM26.95 22.1492C25.8774 22.185 24.1224 22.185 23.05 22.1492C21.9776 22.1132 22.855 22.0838 25 22.0838C27.145 22.0838 28.0226 22.1132 26.95 22.1492ZM16.6 24.069C16.6 24.107 16.3974 24.3094 16.15 24.519L15.7 24.9L16.081 24.45C16.439 24.0272 16.6 23.909 16.6 24.069ZM33.9 24.4C34.099 24.62 34.217 24.8 34.162 24.8C34.107 24.8 33.899 24.62 33.7 24.4C33.501 24.18 33.383 24 33.438 24C33.493 24 33.701 24.18 33.9 24.4ZM28.1554 24.5114C28.7072 24.8978 28.7178 25.5446 28.1836 26.2L27.776 26.7L28.088 26.06C28.7978 24.6038 28.4186 24.4 25 24.4C21.5814 24.4 21.2022 24.6038 21.912 26.06L22.224 26.7L21.8164 26.2C21.2822 25.5446 21.2928 24.8978 21.8446 24.5114C22.1938 24.2668 22.87 24.2 25 24.2C27.13 24.2 27.8062 24.2668 28.1554 24.5114ZM15.6546 25.25C12.7596 28.974 10.5518 32.142 10.461 32.7022C10.2868 33.7756 10.5604 34.7118 11.2556 35.42C11.7546 35.9282 11.791 36.0082 11.4166 35.7748C10.6158 35.2754 10.165 34.239 10.2504 33.0944C10.3202 32.1594 10.512 31.8402 12.9836 28.5444C14.4456 26.595 15.6884 25 15.7454 25C15.8024 25 15.7616 25.1126 15.6546 25.25ZM36.7092 28.15C38.0026 29.8824 39.1484 31.4126 39.255 31.55C39.3616 31.6876 39.404 31.8 39.349 31.8C39.294 31.8 38.3226 30.5626 37.1904 29.05C36.0582 27.5376 34.9114 26.0074 34.6422 25.65C34.3728 25.2926 34.1986 25 34.2548 25C34.3112 25 35.4156 26.4176 36.7092 28.15ZM19.2774 26.1006C19.4794 26.4642 19.4746 26.4688 19.2256 26.1506C18.5712 25.3146 18.1578 25.6552 15.464 29.25C12.3776 33.3688 12.5436 33.1072 12.7006 33.6018C12.804 33.9276 13.0156 34.0042 13.8634 34.023L14.9 34.046L14.1 34.2054C13.1818 34.3882 12.4 34.0294 12.4 33.4252C12.4 33.1186 15.238 29.1254 17.4366 26.3386C18.1104 25.4844 18.8796 25.385 19.2774 26.1006ZM34.0618 28.3C36.6006 31.6526 36.8498 32 36.716 32C36.6548 32 35.5576 30.605 34.2778 28.9C31.4364 25.1146 31.4392 25.1156 30.1 27.4C29.584 28.28 29.1232 29 29.0758 29C28.9488 29 29.5352 27.909 30.3302 26.6664C31.3928 25.005 31.653 25.119 34.0618 28.3ZM20.9616 28.833C21.3254 29.4748 21.5832 30 21.5344 30C21.4496 30 19.8296 27.318 19.6618 26.9C19.489 26.4696 20.3348 27.7274 20.9616 28.833ZM23.2062 28.25C24.1848 29.916 24.3702 30.3038 23.8592 29.617C23.3852 28.9794 22.1522 26.8 22.2656 26.8C22.3144 26.8 22.7378 27.4524 23.2062 28.25ZM27.1616 27.967C26.5348 29.0726 25.689 30.3304 25.8618 29.9C26.0296 29.482 27.6496 26.8 27.7344 26.8C27.7832 26.8 27.5254 27.3252 27.1616 27.967ZM28.4676 30.15C27.4424 31.9228 27.2014 32.3004 27.2008 32.1348C27.1998 31.9168 28.7888 29.2 28.9172 29.2C28.972 29.2 28.7696 29.6274 28.4676 30.15ZM22.3158 31.109C22.6088 31.609 22.8126 32.054 22.7686 32.098C22.7248 32.142 22.4386 31.7328 22.1328 31.189C21.435 29.9476 21.5944 29.878 22.3158 31.109ZM25.6748 30.4408C25.55 30.6426 24.4544 30.6502 24.3318 30.45C24.2812 30.3676 24.5848 30.2958 25.0066 30.2908C25.4282 30.2856 25.729 30.3532 25.6748 30.4408ZM39.797 33.237C39.7986 33.6424 39.7178 34.19 39.6174 34.4542C39.4194 34.9752 38.2792 36.2 37.9924 36.2C37.895 36.2 38.1946 35.8464 38.6578 35.4144C39.4798 34.6476 39.5 34.5978 39.5 33.3334C39.5 32.621 39.5662 32.1422 39.647 32.269C39.7278 32.396 39.7952 32.8316 39.797 33.237ZM37.6 33.3264C37.6 34.0364 36.8794 34.3876 35.8 34.2036L34.9 34.05L36.0366 34.025C36.9944 34.004 37.1934 33.9356 37.3032 33.5902C37.3814 33.3438 37.2946 32.9652 37.0856 32.6402L36.738 32.1L37.169 32.481C37.406 32.6906 37.6 33.071 37.6 33.3264ZM22.6486 33.0314C22.3694 33.3106 21.0394 33.525 18.7 33.6678C17.1036 33.7652 17.1988 33.7392 19.5416 33.4388C20.9944 33.2524 22.2934 32.989 22.4282 32.8534C22.563 32.7176 22.7184 32.6516 22.7734 32.7066C22.8284 32.7616 22.7722 32.9078 22.6486 33.0314ZM29.578 33.336L31.3 33.5722L29.6248 33.4702C27.716 33.3538 27.4776 33.2906 27.3108 32.8562C27.2068 32.585 27.235 32.5804 27.5234 32.8218C27.7062 32.9748 28.6308 33.2062 29.578 33.336ZM32.65 33.7412C32.4024 33.7888 31.9976 33.7888 31.75 33.7412C31.5024 33.6934 31.705 33.6544 32.2 33.6544C32.695 33.6544 32.8976 33.6934 32.65 33.7412ZM16.3524 33.9374C16.1612 33.9874 15.8012 33.9892 15.5524 33.9414C15.3036 33.8936 15.46 33.8526 15.9 33.8504C16.34 33.8482 16.5436 33.8874 16.3524 33.9374ZM25.9126 34.45L26.5 35.1L25.889 34.55C25.1116 33.8502 24.8104 33.8586 24.1 34.6C23.7838 34.93 23.4534 35.2 23.3656 35.2C23.2778 35.2 23.542 34.8874 23.953 34.5054C24.3638 34.1234 24.8406 33.8084 25.0126 33.8054C25.1846 33.8024 25.5896 34.0926 25.9126 34.45ZM34.5524 33.9374C34.3612 33.9874 34.0012 33.9892 33.7524 33.9414C33.5036 33.8936 33.66 33.8526 34.1 33.8504C34.54 33.8482 34.7436 33.8874 34.5524 33.9374ZM22.7 35.3838C22.1918 35.585 17.2236 36.0902 17.0878 35.9546C17.032 35.8988 18.227 35.7174 19.7432 35.5518C23.057 35.1896 23.2126 35.1808 22.7 35.3838ZM30.5534 35.6188C31.9028 35.7514 32.9626 35.904 32.9086 35.958C32.768 36.0986 27.7778 35.5756 27.3 35.37C26.9904 35.2368 27.0356 35.2184 27.5 35.2878C27.83 35.3372 29.204 35.4862 30.5534 35.6188ZM16.45 36.1412C16.2026 36.1888 15.7974 36.1888 15.55 36.1412C15.3026 36.0934 15.505 36.0544 16 36.0544C16.495 36.0544 16.6974 36.0934 16.45 36.1412ZM34.5524 36.1374C34.3612 36.1874 34.0012 36.1892 33.7524 36.1414C33.5036 36.0936 33.66 36.0526 34.1 36.0504C34.54 36.0482 34.7436 36.0874 34.5524 36.1374ZM14.25 36.3446C13.8926 36.389 13.3074 36.389 12.95 36.3446C12.5924 36.3004 12.885 36.264 13.6 36.264C14.315 36.264 14.6074 36.3004 14.25 36.3446ZM37.05 36.3446C36.6926 36.389 36.1074 36.389 35.75 36.3446C35.3926 36.3004 35.685 36.264 36.4 36.264C37.115 36.264 37.4074 36.3004 37.05 36.3446Z" fill="#EF71BE"/>
<path fill-rule="evenodd" clip-rule="evenodd" d="M19.6836 0.1734C19.7424 0.2686 19.1176 0.4552 18.295 0.588C17.4724 0.7206 16.671 0.9576 16.514 1.1146C16.357 1.2716 16.1424 1.4 16.0372 1.4C15.6346 1.4 13.8 2.0682 13.8 2.2148C13.8 2.2996 13.4946 2.4698 13.1212 2.593C12.7478 2.7162 12.1854 3.038 11.8712 3.3082C11.557 3.5784 11.1876 3.7996 11.05 3.7998C10.9126 3.7998 10.8 3.885 10.8 3.989C10.8 4.1686 10.0558 4.6542 9.3936 4.907C9.2252 4.9712 8.9156 5.2792 8.706 5.5912C8.4704 5.9416 8.2118 6.1152 8.0296 6.0452C7.8588 5.9798 7.7874 6.018 7.8604 6.1358C7.9296 6.248 7.7796 6.4504 7.527 6.5856C7.2744 6.7208 6.9088 7.1006 6.7144 7.4296C6.52 7.7586 6.3122 7.9788 6.2526 7.9192C6.1928 7.8594 5.999 8.0808 5.822 8.411C5.6448 8.7412 5.4236 9.0042 5.3304 8.9952C5.2372 8.9864 4.9782 9.3196 4.7552 9.736C4.532 10.1522 4.2376 10.5844 4.1012 10.6964C3.9646 10.8084 3.7318 11.186 3.584 11.5356C3.436 11.8852 3.2604 12.1372 3.1934 12.0958C3.1264 12.0546 2.9116 12.4658 2.7158 13.0098C2.5202 13.5538 2.2918 13.9568 2.2082 13.9052C2.1248 13.8534 1.8988 14.393 1.7064 15.104C1.514 15.815 1.2856 16.353 1.199 16.2994C1.1124 16.2458 0.8792 17.0058 0.6806 17.988C0.482 18.9702 0.2476 19.7294 0.1598 19.6752C0.072 19.6208 0 22.017 0 25C0 27.983 0.072 30.3792 0.1598 30.3248C0.2476 30.2706 0.482 31.0298 0.6806 32.012C0.8792 32.9942 1.1124 33.7542 1.199 33.7006C1.2856 33.647 1.514 34.185 1.7064 34.896C1.8988 35.607 2.1248 36.1466 2.2082 36.0948C2.2918 36.0432 2.5202 36.4462 2.7158 36.9902C2.9116 37.5342 3.136 37.9396 3.2146 37.891C3.2932 37.8424 3.5014 38.162 3.6772 38.6012C3.853 39.0406 4.073 39.4 4.1662 39.4C4.2594 39.4 4.5068 39.752 4.716 40.182C4.9252 40.6122 5.1586 40.9256 5.2348 40.8784C5.311 40.8314 5.5308 41.0596 5.7234 41.3856C5.9158 41.7116 6.1294 41.9436 6.1978 41.9014C6.2662 41.859 6.4832 42.1232 6.6798 42.4884C6.8764 42.8536 7.2508 43.2666 7.5118 43.4064C7.7728 43.546 7.9296 43.752 7.8604 43.8642C7.7874 43.982 7.8588 44.0202 8.0296 43.9548C8.2118 43.8848 8.4704 44.0584 8.706 44.4088C8.9156 44.7208 9.2252 45.0288 9.3936 45.093C10.0558 45.3458 10.8 45.8314 10.8 46.011C10.8 46.115 10.918 46.2 11.0622 46.2C11.2066 46.2 11.5228 46.3846 11.7648 46.6102C12.007 46.8358 12.2846 46.9714 12.3816 46.9114C12.4786 46.8514 12.6096 46.9368 12.6728 47.1012C12.7358 47.2656 12.9188 47.4 13.0794 47.4C13.24 47.4 13.4978 47.5262 13.652 47.6806C13.9224 47.951 15.595 48.6 16.0212 48.6C16.1352 48.6 16.357 48.7284 16.514 48.8854C16.671 49.0424 17.4724 49.2794 18.295 49.412C19.1176 49.5448 19.7424 49.7314 19.6836 49.8266C19.624 49.9228 21.9918 50 25 50C28.0082 50 30.376 49.9228 30.3164 49.8266C30.2576 49.7314 30.8824 49.5448 31.705 49.412C32.5276 49.2794 33.329 49.0424 33.486 48.8854C33.643 48.7284 33.8576 48.6 33.9628 48.6C34.3654 48.6 36.2 47.9318 36.2 47.7852C36.2 47.7004 36.5054 47.5302 36.8788 47.407C37.2522 47.2838 37.8146 46.962 38.1288 46.6918C38.443 46.4216 38.8126 46.2004 38.95 46.2002C39.0876 46.2002 39.2 46.115 39.2 46.011C39.2 45.8314 39.9442 45.3458 40.6064 45.093C40.7748 45.0288 41.0844 44.7208 41.294 44.4088C41.5296 44.0584 41.7882 43.8848 41.9704 43.9548C42.1412 44.0202 42.2126 43.982 42.1396 43.8642C42.0704 43.752 42.2152 43.5524 42.4616 43.4206C42.708 43.2886 43.085 42.92 43.2992 42.6014C43.5134 42.2826 43.7262 42.0596 43.7722 42.1056C43.8184 42.1516 44.0116 41.8992 44.2018 41.5446C44.3918 41.1902 44.6132 40.9272 44.6934 40.9604C44.7736 40.9938 45.0218 40.6804 45.2448 40.264C45.468 39.8478 45.7624 39.4156 45.8988 39.3036C46.0354 39.1916 46.2682 38.814 46.416 38.4644C46.564 38.1148 46.7396 37.8628 46.8066 37.9042C46.8736 37.9454 47.0884 37.5342 47.2842 36.9902C47.4798 36.4462 47.7082 36.0432 47.7918 36.0948C47.8752 36.1466 48.1012 35.607 48.2936 34.896C48.486 34.185 48.7144 33.647 48.801 33.7006C48.8876 33.7542 49.1208 32.9942 49.3194 32.012C49.518 31.0298 49.7524 30.2706 49.8402 30.3248C49.928 30.3792 50 27.983 50 25C50 22.017 49.928 19.6208 49.8402 19.6752C49.7524 19.7294 49.518 18.9702 49.3194 17.988C49.1208 17.0058 48.8876 16.2458 48.801 16.2994C48.7144 16.353 48.486 15.815 48.2936 15.104C48.1012 14.393 47.8752 13.8534 47.7918 13.9052C47.7082 13.9568 47.4798 13.5538 47.2842 13.0098C47.0884 12.4658 46.864 12.0604 46.7854 12.109C46.7068 12.1576 46.4986 11.838 46.3228 11.3988C46.147 10.9594 45.927 10.6 45.8338 10.6C45.7406 10.6 45.4932 10.248 45.284 9.818C45.0748 9.3878 44.8414 9.0744 44.7652 9.1216C44.689 9.1686 44.4692 8.9404 44.2766 8.6144C44.0842 8.2884 43.8706 8.0564 43.8022 8.0986C43.7338 8.141 43.5168 7.8766 43.32 7.5112C43.1234 7.146 42.7408 6.746 42.4698 6.6226C42.173 6.4874 42.0346 6.3058 42.1216 6.1652C42.2144 6.0148 42.1608 5.9722 41.9704 6.0452C41.7882 6.1152 41.5296 5.9416 41.294 5.5912C41.0844 5.2792 40.7748 4.9712 40.6064 4.907C39.9442 4.6542 39.2 4.1686 39.2 3.989C39.2 3.885 39.082 3.8 38.9378 3.8C38.7934 3.8 38.4772 3.6154 38.2352 3.3898C37.993 3.1642 37.7154 3.0286 37.6184 3.0886C37.5214 3.1486 37.3904 3.0632 37.3272 2.8988C37.2642 2.7344 37.0812 2.6 36.9206 2.6C36.76 2.6 36.5022 2.4738 36.348 2.3194C36.0776 2.049 34.405 1.4 33.9788 1.4C33.8648 1.4 33.643 1.2716 33.486 1.1146C33.329 0.9576 32.5276 0.7206 31.705 0.588C30.8824 0.4552 30.2576 0.2686 30.3164 0.1734C30.376 0.0772 28.0082 0 25 0C21.9918 0 19.624 0.0772 19.6836 0.1734ZM26.6 10.828C27.5664 11.417 27.6732 11.5966 29.6424 15.9506C31.796 20.712 31.925 21.1152 31.606 22.082C31.3216 22.9436 31.5122 23.2924 32.3598 23.462C32.6628 23.5226 33.1632 23.7708 33.4718 24.0136C34.3146 24.6764 39.44 31.58 39.7436 32.4612C40.246 33.9196 39.368 35.6492 37.8086 36.2732C37.069 36.5692 36.696 36.5564 32.2578 36.0846C29.641 35.8064 27.2348 35.4754 26.9108 35.349C26.5868 35.2224 26.0244 34.858 25.6608 34.5388L25 33.9586L24.3392 34.5388C23.9756 34.858 23.4132 35.2218 23.0892 35.3474C22.7652 35.473 20.3652 35.8064 17.7558 36.0886C13.2976 36.5706 12.963 36.582 12.205 36.2786C10.6322 35.6494 9.7522 33.9252 10.2564 32.4612C10.56 31.58 15.6854 24.6764 16.5282 24.0136C16.8368 23.7708 17.3372 23.5226 17.6402 23.462C18.4836 23.2932 18.6782 22.9432 18.399 22.0972C18.089 21.158 18.1674 20.8904 19.892 17C22.323 11.5158 22.3618 11.4458 23.2752 10.8982C24.3326 10.2644 25.63 10.237 26.6 10.828ZM23.6208 10.9324C23.0274 11.2346 21.8 12.7892 21.8 13.2386C21.8 13.3268 21.5406 13.9616 21.2238 14.6494C18.6094 20.3228 18.5374 20.5278 18.6772 21.892C18.8236 23.321 18.8264 23.3166 17.4044 23.7972C16.576 24.0774 16.2854 24.399 13.521 28.094C10.8558 31.6564 10.5232 32.1884 10.4436 33.016C10.2658 34.8668 11.4772 36.2 13.3368 36.2C14.802 36.2 22.946 35.2432 23.3544 35.023C23.5444 34.9206 23.9182 34.6034 24.1848 34.3184C24.4516 34.0332 24.8184 33.8 25 33.8C25.1816 33.8 25.5484 34.0332 25.8152 34.3184C26.0818 34.6034 26.4556 34.9206 26.6456 35.023C27.0648 35.249 35.2158 36.2 36.7334 36.2C37.7162 36.2 37.8926 36.128 38.6578 35.4144C39.4758 34.6514 39.5 34.5922 39.5 33.3644V32.1L36.4956 28.1C33.719 24.4036 33.423 24.077 32.5956 23.7972C31.1726 23.3162 31.1764 23.322 31.3238 21.8822C31.4444 20.7064 31.3988 20.4656 30.8052 19.1464C30.4474 18.351 29.9848 17.3176 29.7774 16.85C29.5698 16.3824 29.227 15.6176 29.0156 15.15C28.8042 14.6824 28.3666 13.7074 28.0432 12.9834C27.6634 12.1324 27.2242 11.502 26.802 11.2014C25.9448 10.591 24.5266 10.471 23.6208 10.9324ZM25.6276 12.95C25.9656 13.3584 25.9334 13.2912 27.8916 17.6824C28.7212 19.5426 29.4 21.227 29.4 21.4252C29.4 22.08 28.7188 22.2 25 22.2C21.2868 22.2 20.6 22.0798 20.6 21.4294C20.6 21.1136 21.716 18.4672 23.1164 15.4624C23.3824 14.8916 23.6 14.35 23.6 14.2588C23.6 14.1676 23.8282 13.757 24.1072 13.3464C24.6582 12.5354 25.1734 12.4012 25.6276 12.95ZM24.663 12.9568C24.5328 13.0396 23.7852 14.5458 23.0018 16.3038C22.2184 18.0616 21.3928 19.9022 21.1672 20.3936C20.4854 21.8786 20.54 21.9 25 21.9C28.2108 21.9 28.888 21.8498 29.045 21.6C29.1814 21.3828 28.7296 20.1698 27.4086 17.2068C25.4742 12.868 25.2786 12.5654 24.663 12.9568ZM28.1554 24.5114C28.7908 24.9562 28.7176 25.3498 27.6706 27.1246C25.6894 30.4828 25.5994 30.6 25 30.6C24.4006 30.6 24.3106 30.4828 22.3294 27.1246C20.7666 24.4758 21.0184 24.2 25 24.2C27.13 24.2 27.8062 24.2668 28.1554 24.5114ZM21.727 24.9018C21.5676 25.3174 21.7808 25.7796 23.2486 28.2C24.2948 29.925 24.6076 30.3 25 30.3C25.3924 30.3 25.7052 29.925 26.7514 28.2C29.0038 24.4862 29.0624 24.6 24.897 24.6C22.3588 24.6 21.8232 24.651 21.727 24.9018ZM19.7086 26.75C22.8978 31.9168 23.263 32.809 22.35 33.2026C22.1026 33.3094 20.0664 33.579 17.8254 33.8018C15.5844 34.0244 13.668 34.258 13.5666 34.3206C13.2752 34.5008 12.4 33.829 12.4 33.4252C12.4 33.1192 15.2324 29.133 17.4274 26.35C18.3098 25.2312 18.827 25.3218 19.7086 26.75ZM34.8322 29.3C36.3436 31.289 37.575 33.0994 37.584 33.3454C37.6144 34.1924 36.924 34.3876 34.9 34.1048C33.91 33.9664 31.9022 33.7394 30.4382 33.6006C27.6766 33.3384 27.2 33.1568 27.2 32.3666C27.2 31.9996 28.3932 29.8336 30.3008 26.7376C31.4244 24.9138 31.5552 24.9878 34.8322 29.3ZM17.7702 26.35C17.1386 27.0382 13.1198 32.4024 12.8298 32.9444C12.671 33.241 12.683 33.437 12.876 33.7008C13.125 34.0416 13.3224 34.0368 17.4182 33.591C22.138 33.0774 22.6 32.9758 22.6 32.451C22.6 31.76 18.9576 25.8 18.5354 25.8C18.392 25.8 18.0478 26.0476 17.7702 26.35ZM30.647 26.65C29.597 28.2102 27.4 32.142 27.4 32.4612C27.4 32.6346 27.4948 32.835 27.6108 32.9066C27.8138 33.0322 35.6402 33.9862 36.543 33.9954C36.7884 33.998 37.084 33.817 37.2056 33.5894C37.398 33.23 37.1332 32.7878 35.0812 30.0394C32.459 26.5278 31.8396 25.8 31.4722 25.8C31.333 25.8 30.9618 26.1824 30.647 26.65Z" fill="#EB47AD"/>
<path fill-rule="evenodd" clip-rule="evenodd" d="M19.6836 0.1734C19.7424 0.2686 19.1176 0.4552 18.295 0.588C17.4724 0.7206 16.671 0.9576 16.514 1.1146C16.357 1.2716 16.1424 1.4 16.0372 1.4C15.6346 1.4 13.8 2.0682 13.8 2.2148C13.8 2.2996 13.4842 2.4732 13.0982 2.6006C12.686 2.7366 12.4512 2.9208 12.529 3.047C12.6072 3.1734 12.568 3.2038 12.4334 3.1206C12.308 3.043 12.007 3.1642 11.7648 3.3898C11.5228 3.6154 11.2066 3.8 11.0622 3.8C10.918 3.8 10.8 3.8922 10.8 4.005C10.8 4.1176 10.575 4.2954 10.3 4.4C10.025 4.5046 9.8 4.6824 9.8 4.795C9.8 4.9078 9.6424 5.0002 9.45 5.0006C9.2576 5.0008 8.9256 5.2616 8.7124 5.5798C8.4718 5.9388 8.2126 6.1156 8.0296 6.0452C7.8588 5.9798 7.7874 6.018 7.8604 6.1358C7.9296 6.248 7.7796 6.4504 7.527 6.5856C7.2744 6.7208 6.9088 7.1006 6.7144 7.4296C6.52 7.7586 6.3122 7.9788 6.2526 7.9192C6.1928 7.8594 5.999 8.0808 5.822 8.411C5.6448 8.7412 5.4236 9.0042 5.3304 8.9952C5.2372 8.9864 4.9782 9.3196 4.7552 9.736C4.532 10.1522 4.2376 10.5844 4.1012 10.6964C3.9646 10.8084 3.7318 11.186 3.584 11.5356C3.436 11.8852 3.2604 12.1372 3.1934 12.0958C3.1264 12.0546 2.9116 12.4658 2.7158 13.0098C2.5202 13.5538 2.2918 13.9568 2.2082 13.9052C2.1248 13.8534 1.8988 14.393 1.7064 15.104C1.514 15.815 1.2856 16.353 1.199 16.2994C1.1124 16.2458 0.8792 17.0058 0.6806 17.988C0.482 18.9702 0.2476 19.7294 0.1598 19.6752C0.072 19.6208 0 22.017 0 25C0 27.983 0.0762 30.3766 0.1692 30.319C0.2624 30.2614 0.4506 30.8412 0.5874 31.6072C0.7244 32.3732 0.9098 33 0.9994 33C1.0892 33 1.1118 33.194 1.0498 33.4312C0.9784 33.704 1.014 33.815 1.1468 33.733C1.2742 33.6542 1.4938 34.1106 1.7064 34.896C1.8988 35.607 2.1248 36.1466 2.2082 36.0948C2.2918 36.0432 2.5202 36.4462 2.7158 36.9902C2.9116 37.5342 3.136 37.9396 3.2146 37.891C3.2932 37.8424 3.5014 38.162 3.6772 38.6012C3.853 39.0406 4.073 39.4 4.1662 39.4C4.2594 39.4 4.5068 39.752 4.716 40.182C4.9252 40.6122 5.1586 40.9256 5.2348 40.8784C5.311 40.8314 5.5308 41.0596 5.7234 41.3856C5.9158 41.7116 6.1294 41.9436 6.1978 41.9014C6.2662 41.859 6.4832 42.1232 6.6798 42.4884C6.8764 42.8536 7.2508 43.2666 7.5118 43.4064C7.7728 43.546 7.9296 43.752 7.8604 43.8642C7.7874 43.982 7.8588 44.0202 8.0296 43.9548C8.2126 43.8844 8.4718 44.0612 8.7124 44.4202C8.9256 44.7384 9.2576 44.9992 9.45 44.9994C9.6424 44.9998 9.8 45.0922 9.8 45.205C9.8 45.3176 10.025 45.4954 10.3 45.6C10.575 45.7046 10.8 45.8824 10.8 45.995C10.8 46.1078 10.918 46.2 11.0622 46.2C11.2066 46.2 11.5228 46.3846 11.7648 46.6102C12.007 46.8358 12.2846 46.9714 12.3816 46.9114C12.4786 46.8514 12.6096 46.9368 12.6728 47.1012C12.7358 47.2656 12.9188 47.4 13.0794 47.4C13.24 47.4 13.4978 47.5262 13.652 47.6806C13.9224 47.951 15.595 48.6 16.0212 48.6C16.1352 48.6 16.357 48.7284 16.514 48.8854C16.671 49.0424 17.4724 49.2794 18.295 49.412C19.1176 49.5448 19.7424 49.7314 19.6836 49.8266C19.624 49.9228 21.9918 50 25 50C28.0082 50 30.376 49.9228 30.3164 49.8266C30.2576 49.7314 30.8824 49.5448 31.705 49.412C32.5276 49.2794 33.329 49.0424 33.486 48.8854C33.643 48.7284 33.8576 48.6 33.9628 48.6C34.3654 48.6 36.2 47.9318 36.2 47.7852C36.2 47.7004 36.5158 47.5268 36.9018 47.3994C37.314 47.2634 37.5488 47.0792 37.471 46.953C37.3928 46.8266 37.432 46.7962 37.5666 46.8794C37.692 46.957 37.993 46.8358 38.2352 46.6102C38.4772 46.3846 38.7934 46.2 38.9378 46.2C39.082 46.2 39.2 46.1078 39.2 45.995C39.2 45.8824 39.425 45.7046 39.7 45.6C39.975 45.4954 40.2 45.3176 40.2 45.205C40.2 45.0922 40.3574 44.9998 40.55 44.9994C40.7426 44.9992 41.0744 44.7384 41.2876 44.4202C41.5282 44.0612 41.7874 43.8844 41.9704 43.9548C42.1412 44.0202 42.2126 43.982 42.1396 43.8642C42.0704 43.752 42.2152 43.5524 42.4616 43.4206C42.708 43.2886 43.085 42.92 43.2992 42.6014C43.5134 42.2826 43.7262 42.0596 43.7722 42.1056C43.8184 42.1516 44.0116 41.8992 44.2018 41.5446C44.3918 41.1902 44.6132 40.9272 44.6934 40.9604C44.7736 40.9938 45.0218 40.6804 45.2448 40.264C45.468 39.8478 45.7624 39.4156 45.8988 39.3036C46.0354 39.1916 46.2682 38.814 46.416 38.4644C46.564 38.1148 46.7396 37.8628 46.8066 37.9042C46.8736 37.9454 47.0884 37.5342 47.2842 36.9902C47.4798 36.4462 47.7082 36.0432 47.7918 36.0948C47.8752 36.1466 48.1012 35.607 48.2936 34.896C48.486 34.185 48.7144 33.647 48.801 33.7006C48.8876 33.7542 49.1208 32.9942 49.3194 32.012C49.518 31.0298 49.7524 30.2706 49.8402 30.3248C49.928 30.3792 50 27.983 50 25C50 22.017 49.9238 19.6234 49.8308 19.681C49.7376 19.7386 49.5494 19.1588 49.4126 18.3928C49.2756 17.6268 49.0902 17 49.0006 17C48.9108 17 48.8882 16.806 48.9502 16.5688C49.0216 16.296 48.986 16.185 48.8532 16.267C48.7258 16.3458 48.5062 15.8894 48.2936 15.104C48.1012 14.393 47.8752 13.8534 47.7918 13.9052C47.7082 13.9568 47.4798 13.5538 47.2842 13.0098C47.0884 12.4658 46.864 12.0604 46.7854 12.109C46.7068 12.1576 46.4986 11.838 46.3228 11.3988C46.147 10.9594 45.927 10.6 45.8338 10.6C45.7406 10.6 45.4932 10.248 45.284 9.818C45.0748 9.3878 44.8414 9.0744 44.7652 9.1216C44.689 9.1686 44.4692 8.9404 44.2766 8.6144C44.0842 8.2884 43.8706 8.0564 43.8022 8.0986C43.7338 8.141 43.5168 7.8766 43.32 7.5112C43.1234 7.146 42.7408 6.746 42.4698 6.6226C42.173 6.4874 42.0346 6.3058 42.1216 6.1652C42.2144 6.0148 42.1608 5.9722 41.9704 6.0452C41.7874 6.1156 41.5282 5.9388 41.2876 5.5798C41.0744 5.2616 40.7426 5.0008 40.55 5.0006C40.3574 5.0002 40.2 4.9078 40.2 4.795C40.2 4.6824 39.975 4.5046 39.7 4.4C39.425 4.2954 39.2 4.1176 39.2 4.005C39.2 3.8922 39.082 3.8 38.9378 3.8C38.7934 3.8 38.4772 3.6154 38.2352 3.3898C37.993 3.1642 37.7154 3.0286 37.6184 3.0886C37.5214 3.1486 37.3904 3.0632 37.3272 2.8988C37.2642 2.7344 37.0812 2.6 36.9206 2.6C36.76 2.6 36.5022 2.4738 36.348 2.3194C36.0776 2.049 34.405 1.4 33.9788 1.4C33.8648 1.4 33.643 1.2716 33.486 1.1146C33.329 0.9576 32.5276 0.7206 31.705 0.588C30.8824 0.4552 30.2576 0.2686 30.3164 0.1734C30.376 0.0772 28.0082 0 25 0C21.9918 0 19.624 0.0772 19.6836 0.1734ZM26.1536 10.5096C26.5612 10.6798 27.0906 11.0032 27.3302 11.2284C27.5698 11.4536 28.6852 13.663 29.8086 16.1384L31.8512 20.639L31.7274 21.8694L31.6036 23.1L32.6518 23.5C33.651 23.8812 33.838 24.0826 36.6464 27.8C38.267 29.945 39.6948 32.0022 39.8192 32.3716C40.298 33.7936 39.5676 35.4434 38.1188 36.212L37.235 36.6808L32.1882 36.1304C27.1524 35.5812 26.4368 35.4142 25.7186 34.6204C25.2352 34.0864 24.7648 34.0864 24.2814 34.6204C23.569 35.4078 22.881 35.5688 17.8756 36.1194L12.871 36.67L11.943 36.2208C10.454 35.5 9.6878 33.823 10.1846 32.3716C10.311 32.0022 11.7386 29.945 13.3572 27.8C16.1632 24.0812 16.3486 23.8814 17.3482 23.5L18.3964 23.1L18.275 21.8936C18.1548 20.6976 18.1704 20.6502 20.1052 16.3346C21.1784 13.9406 22.2392 11.7498 22.4626 11.4658C22.9158 10.8898 24.2574 10.2112 24.9564 10.2044C25.2074 10.202 25.7462 10.3392 26.1536 10.5096ZM23.6208 10.9324C23.0274 11.2346 21.8 12.7892 21.8 13.2386C21.8 13.3268 21.5406 13.9616 21.2238 14.6494C18.6094 20.3228 18.5374 20.5278 18.6772 21.892C18.8236 23.321 18.8264 23.3166 17.4044 23.7972C16.576 24.0774 16.2854 24.399 13.521 28.094C10.8558 31.6564 10.5232 32.1884 10.4436 33.016C10.2658 34.8668 11.4772 36.2 13.3368 36.2C14.802 36.2 22.946 35.2432 23.3544 35.023C23.5444 34.9206 23.9182 34.6034 24.1848 34.3184C24.4516 34.0332 24.8184 33.8 25 33.8C25.1816 33.8 25.5484 34.0332 25.8152 34.3184C26.0818 34.6034 26.4556 34.9206 26.6456 35.023C27.0648 35.249 35.2158 36.2 36.7334 36.2C37.7162 36.2 37.8926 36.128 38.6578 35.4144C39.4758 34.6514 39.5 34.5922 39.5 33.3644V32.1L36.4956 28.1C33.719 24.4036 33.423 24.077 32.5956 23.7972C31.1726 23.3162 31.1764 23.322 31.3238 21.8822C31.4444 20.7064 31.3988 20.4656 30.8052 19.1464C30.4474 18.351 29.9848 17.3176 29.7774 16.85C29.5698 16.3824 29.227 15.6176 29.0156 15.15C28.8042 14.6824 28.3666 13.7074 28.0432 12.9834C27.6634 12.1324 27.2242 11.502 26.802 11.2014C25.9448 10.591 24.5266 10.471 23.6208 10.9324ZM25.6276 12.95C25.9656 13.3584 25.9334 13.2912 27.8916 17.6824C28.7212 19.5426 29.4 21.227 29.4 21.4252C29.4 22.08 28.7188 22.2 25 22.2C21.2868 22.2 20.6 22.0798 20.6 21.4294C20.6 21.1136 21.716 18.4672 23.1164 15.4624C23.3824 14.8916 23.6 14.35 23.6 14.2588C23.6 14.1676 23.8282 13.757 24.1072 13.3464C24.6582 12.5354 25.1734 12.4012 25.6276 12.95ZM23.8046 14.69C21.961 18.6994 21 20.9842 21 21.358C21 21.5776 21.1424 21.8118 21.3164 21.8786C21.7288 22.0368 28.2712 22.0368 28.6836 21.8786C28.8576 21.8118 29 21.572 29 21.3458C29 20.896 28.9482 20.7704 26.885 16.2204C25.0966 12.2762 24.9484 12.2026 23.8046 14.69ZM28.1554 24.5114C28.7908 24.9562 28.7176 25.3498 27.6706 27.1246C25.6894 30.4828 25.5994 30.6 25 30.6C24.4006 30.6 24.3106 30.4828 22.3294 27.1246C20.7666 24.4758 21.0184 24.2 25 24.2C27.13 24.2 27.8062 24.2668 28.1554 24.5114ZM21.9384 24.7284C21.6132 25.0534 21.8776 25.7468 23.15 27.9052C24.4826 30.1656 24.7592 30.48 25.25 30.2914C25.6782 30.1268 28.2296 25.6108 28.1622 25.1368C28.1018 24.7126 28.0128 24.6984 25.0884 24.645C23.432 24.6148 22.0144 24.6522 21.9384 24.7284ZM19.7086 26.75C22.8978 31.9168 23.263 32.809 22.35 33.2026C22.1026 33.3094 20.0664 33.579 17.8254 33.8018C15.5844 34.0244 13.668 34.258 13.5666 34.3206C13.2752 34.5008 12.4 33.829 12.4 33.4252C12.4 33.1192 15.2324 29.133 17.4274 26.35C18.3098 25.2312 18.827 25.3218 19.7086 26.75ZM34.8322 29.3C36.3436 31.289 37.575 33.0994 37.584 33.3454C37.6144 34.1924 36.924 34.3876 34.9 34.1048C33.91 33.9664 31.9022 33.7394 30.4382 33.6006C27.6766 33.3384 27.2 33.1568 27.2 32.3666C27.2 31.9996 28.3932 29.8336 30.3008 26.7376C31.4244 24.9138 31.5552 24.9878 34.8322 29.3ZM18.032 26.16C17.2762 26.823 12.8 32.9936 12.8 33.3724C12.8 33.9076 13.0936 33.9696 14.7 33.774C15.47 33.6802 17.45 33.463 19.1 33.2912C21.0104 33.0924 22.2014 32.879 22.3792 32.7032C22.6176 32.4678 22.5228 32.1922 21.7292 30.8138C21.2182 29.9262 20.3898 28.4876 19.8882 27.6168C19.3868 26.7462 18.8512 25.9856 18.698 25.927C18.5448 25.8682 18.2452 25.973 18.032 26.16ZM31.1498 26.0638C30.9908 26.1936 30.473 26.975 29.9994 27.8C29.5256 28.625 28.7338 30.0036 28.24 30.8638C27.473 32.199 27.3826 32.4676 27.6208 32.7026C27.8062 32.8852 29.278 33.1188 32 33.3974C34.255 33.6284 36.2126 33.8556 36.35 33.9024C36.7696 34.0452 37.2 33.7786 37.2 33.3758C37.2 32.9566 32.139 26.0962 31.7074 25.9306C31.5598 25.8738 31.3088 25.9338 31.1498 26.0638Z" fill="#E81899"/>
<path fill-rule="evenodd" clip-rule="evenodd" d="M19.7626 0.136597C19.9068 0.194397 20.0794 0.187197 20.1458 0.120797C20.2122 0.0543973 20.0942 0.00719727 19.8834 0.0157973C19.6504 0.0253973 19.603 0.0727973 19.7626 0.136597ZM29.9626 0.136597C30.1068 0.194397 30.2794 0.187197 30.3458 0.120797C30.4122 0.0543973 30.2942 0.00719727 30.0834 0.0157973C29.8504 0.0253973 29.803 0.0727973 29.9626 0.136597ZM16.6 0.999997C16.4198 1.1164 16.395 1.195 16.5382 1.197C16.6692 1.1986 16.832 1.11 16.9 0.999997C17.0534 0.751597 16.9842 0.751597 16.6 0.999997ZM14.15 1.9378C13.9574 1.9882 13.8 2.1158 13.8 2.2218C13.8 2.3376 13.959 2.329 14.2 2.2C14.42 2.0822 14.6 1.944 14.6 1.893C14.6 1.8418 14.5776 1.8104 14.55 1.8232C14.5224 1.836 14.3426 1.8876 14.15 1.9378ZM35.6 2.0786C35.6 2.1218 35.735 2.209 35.9 2.2724C36.065 2.3356 36.2 2.3002 36.2 2.1938C36.2 2.0872 36.065 2 35.9 2C35.735 2 35.6 2.0354 35.6 2.0786ZM12.2058 2.9922C12.044 3.0946 11.9636 3.2304 12.0272 3.294C12.091 3.3576 12.2568 3.2724 12.396 3.1048C12.6846 2.7572 12.6292 2.7244 12.2058 2.9922ZM37.7 3.2C37.768 3.31 37.8632 3.4 37.9118 3.4C37.9604 3.4 38 3.31 38 3.2C38 3.09 37.9046 3 37.7882 3C37.6718 3 37.632 3.09 37.7 3.2ZM8.9168 5.3282C8.8072 5.614 8.8368 5.6214 9.1454 5.3848C9.3404 5.2354 9.5376 5.0878 9.5834 5.0566C9.6292 5.0254 9.5262 5 9.3548 5C9.1832 5 8.9862 5.1478 8.9168 5.3282ZM40.4166 5.0566C40.4626 5.0878 40.6596 5.2354 40.8546 5.3848C41.1632 5.6214 41.1928 5.614 41.0832 5.3282C41.0138 5.1478 40.8168 5 40.6452 5C40.4738 5 40.3708 5.0254 40.4166 5.0566ZM7.4 6.6564C7.235 6.7904 6.9684 7.08 6.8076 7.3C6.6468 7.52 6.8044 7.4356 7.1576 7.1126C7.7336 6.5858 7.9002 6.3872 7.75 6.4064C7.7224 6.4098 7.565 6.5224 7.4 6.6564ZM42.7896 7.0888C43.0536 7.37 43.2998 7.6 43.3366 7.6C43.5168 7.6 42.8694 6.7926 42.609 6.6928C42.4442 6.6296 42.5254 6.8078 42.7896 7.0888ZM23.6208 10.9324C23.0274 11.2346 21.8 12.7892 21.8 13.2386C21.8 13.3268 21.5406 13.9616 21.2238 14.6494C18.6094 20.3228 18.5374 20.5278 18.6772 21.892C18.8236 23.321 18.8264 23.3166 17.4044 23.7972C16.576 24.0774 16.2854 24.399 13.521 28.094C10.8558 31.6564 10.5232 32.1884 10.4436 33.016C10.2658 34.8668 11.4772 36.2 13.3368 36.2C14.802 36.2 22.946 35.2432 23.3544 35.023C23.5444 34.9206 23.9182 34.6034 24.1848 34.3184C24.4516 34.0332 24.8184 33.8 25 33.8C25.1816 33.8 25.5484 34.0332 25.8152 34.3184C26.0818 34.6034 26.4556 34.9206 26.6456 35.023C27.0648 35.249 35.2158 36.2 36.7334 36.2C37.7162 36.2 37.8926 36.128 38.6578 35.4144C39.4758 34.6514 39.5 34.5922 39.5 33.3644V32.1L36.4956 28.1C33.719 24.4036 33.423 24.077 32.5956 23.7972C31.1726 23.3162 31.1764 23.322 31.3238 21.8822C31.4444 20.7064 31.3988 20.4656 30.8052 19.1464C30.4474 18.351 29.9848 17.3176 29.7774 16.85C29.5698 16.3824 29.227 15.6176 29.0156 15.15C28.8042 14.6824 28.3666 13.7074 28.0432 12.9834C27.6634 12.1324 27.2242 11.502 26.802 11.2014C25.9448 10.591 24.5266 10.471 23.6208 10.9324ZM3.0158 12.3166C3.0254 12.5496 3.0728 12.597 3.1366 12.4376C3.1944 12.2932 3.1872 12.1206 3.1208 12.0542C3.0544 11.9878 3.0072 12.1058 3.0158 12.3166ZM46.8158 12.3166C46.8254 12.5496 46.8728 12.597 46.9366 12.4376C46.9944 12.2932 46.9872 12.1206 46.9208 12.0542C46.8544 11.9878 46.8072 12.1058 46.8158 12.3166ZM25.6276 12.95C25.9656 13.3584 25.9334 13.2912 27.8916 17.6824C28.7212 19.5426 29.4 21.227 29.4 21.4252C29.4 22.08 28.7188 22.2 25 22.2C21.2868 22.2 20.6 22.0798 20.6 21.4294C20.6 21.1136 21.716 18.4672 23.1164 15.4624C23.3824 14.8916 23.6 14.35 23.6 14.2588C23.6 14.1676 23.8282 13.757 24.1072 13.3464C24.6582 12.5354 25.1734 12.4012 25.6276 12.95ZM0 19.9118C0 20.0832 0.0914 20.167 0.2032 20.098C0.315 20.0288 0.3548 19.8886 0.2914 19.7862C0.12 19.5088 0 19.5604 0 19.9118ZM49.7086 19.7862C49.6452 19.8886 49.685 20.0288 49.7968 20.098C49.9086 20.167 50 20.0832 50 19.9118C50 19.5604 49.88 19.5088 49.7086 19.7862ZM28.1554 24.5114C28.7908 24.9562 28.7176 25.3498 27.6706 27.1246C25.6894 30.4828 25.5994 30.6 25 30.6C24.4006 30.6 24.3106 30.4828 22.3294 27.1246C20.7666 24.4758 21.0184 24.2 25 24.2C27.13 24.2 27.8062 24.2668 28.1554 24.5114ZM19.7086 26.75C22.8978 31.9168 23.263 32.809 22.35 33.2026C22.1026 33.3094 20.0664 33.579 17.8254 33.8018C15.5844 34.0244 13.668 34.258 13.5666 34.3206C13.2752 34.5008 12.4 33.829 12.4 33.4252C12.4 33.1192 15.2324 29.133 17.4274 26.35C18.3098 25.2312 18.827 25.3218 19.7086 26.75ZM34.8322 29.3C36.3436 31.289 37.575 33.0994 37.584 33.3454C37.6144 34.1924 36.924 34.3876 34.9 34.1048C33.91 33.9664 31.9022 33.7394 30.4382 33.6006C27.6766 33.3384 27.2 33.1568 27.2 32.3666C27.2 31.9996 28.3932 29.8336 30.3008 26.7376C31.4244 24.9138 31.5552 24.9878 34.8322 29.3ZM0 30.1118C0 30.2832 0.0914 30.367 0.2032 30.298C0.315 30.2288 0.3548 30.0886 0.2914 29.9862C0.12 29.7088 0 29.7604 0 30.1118ZM49.7086 29.9862C49.6452 30.0886 49.685 30.2288 49.7968 30.298C49.9086 30.367 50 30.2832 50 30.1118C50 29.7604 49.88 29.7088 49.7086 29.9862ZM3.0158 37.7166C3.0254 37.9496 3.0728 37.997 3.1366 37.8376C3.1944 37.6932 3.1872 37.5206 3.1208 37.4542C3.0544 37.3878 3.0072 37.5058 3.0158 37.7166ZM46.8158 37.7166C46.8254 37.9496 46.8728 37.997 46.9366 37.8376C46.9944 37.6932 46.9872 37.5206 46.9208 37.4542C46.8544 37.3878 46.8072 37.5058 46.8158 37.7166ZM42.7892 42.9242C42.4102 43.3224 42.28 43.5388 42.5 43.405C42.8612 43.1854 43.7186 42.2 43.5486 42.2C43.51 42.2 43.1684 42.5258 42.7892 42.9242ZM6.828 42.7704C6.9552 42.974 7.2484 43.2554 7.4796 43.3954C7.774 43.5736 7.7238 43.4626 7.3126 43.025C6.6438 42.3134 6.4932 42.2344 6.828 42.7704ZM8.9168 44.6718C8.9862 44.8522 9.1832 45 9.3548 45C9.5262 45 9.6292 44.9746 9.5834 44.9434C9.5376 44.9122 9.3404 44.7646 9.1454 44.6152C8.8368 44.3786 8.8072 44.386 8.9168 44.6718ZM40.7118 44.7064C40.3972 44.9442 40.3836 45 40.6404 45C40.8146 45 41.009 44.865 41.0724 44.7C41.2118 44.3366 41.2004 44.3368 40.7118 44.7064ZM12 46.8C12 46.91 12.0954 47 12.2118 47C12.3282 47 12.368 46.91 12.3 46.8C12.232 46.69 12.1368 46.6 12.0882 46.6C12.0396 46.6 12 46.69 12 46.8ZM37.5962 46.9046C37.3848 47.1592 37.3972 47.1886 37.6718 47.0832C37.8522 47.0138 38 46.8768 38 46.7786C38 46.5214 37.8842 46.5576 37.5962 46.9046ZM13.8 47.8062C13.8 47.9128 13.935 48 14.1 48C14.265 48 14.4 47.9646 14.4 47.9214C14.4 47.8782 14.265 47.791 14.1 47.7276C13.935 47.6644 13.8 47.6998 13.8 47.8062ZM35.6882 47.89C35.3132 48.1702 35.3154 48.1762 35.75 48.0668C35.9976 48.0044 36.2 47.8738 36.2 47.7766C36.2 47.5386 36.141 47.5518 35.6882 47.89ZM33.1014 48.9978C33.0314 49.111 33.1116 49.1446 33.2896 49.0764C33.636 48.9434 33.6994 48.8 33.4118 48.8C33.3082 48.8 33.1686 48.889 33.1014 48.9978ZM19.7626 49.9366C19.9068 49.9944 20.0794 49.9872 20.1458 49.9208C20.2122 49.8544 20.0942 49.8072 19.8834 49.8158C19.6504 49.8254 19.603 49.8728 19.7626 49.9366ZM29.9626 49.9366C30.1068 49.9944 30.2794 49.9872 30.3458 49.9208C30.4122 49.8544 30.2942 49.8072 30.0834 49.8158C29.8504 49.8254 29.803 49.8728 29.9626 49.9366Z" fill="#FF00FF"/>
<path fill-rule="evenodd" clip-rule="evenodd" d="M23.6208 10.9324C23.0274 11.2346 21.8 12.7892 21.8 13.2386C21.8 13.3268 21.5406 13.9616 21.2238 14.6494C18.6094 20.3228 18.5374 20.5278 18.6772 21.892C18.8236 23.321 18.8264 23.3166 17.4044 23.7972C16.576 24.0774 16.2854 24.399 13.521 28.094C10.8558 31.6564 10.5232 32.1884 10.4436 33.016C10.2658 34.8668 11.4772 36.2 13.3368 36.2C14.802 36.2 22.946 35.2432 23.3544 35.023C23.5444 34.9206 23.9182 34.6034 24.1848 34.3184C24.4516 34.0332 24.8184 33.8 25 33.8C25.1816 33.8 25.5484 34.0332 25.8152 34.3184C26.0818 34.6034 26.4556 34.9206 26.6456 35.023C27.0648 35.249 35.2158 36.2 36.7334 36.2C37.7162 36.2 37.8926 36.128 38.6578 35.4144C39.4758 34.6514 39.5 34.5922 39.5 33.3644V32.1L36.4956 28.1C33.719 24.4036 33.423 24.077 32.5956 23.7972C31.1726 23.3162 31.1764 23.322 31.3238 21.8822C31.4444 20.7064 31.3988 20.4656 30.8052 19.1464C30.4474 18.351 29.9848 17.3176 29.7774 16.85C29.5698 16.3824 29.227 15.6176 29.0156 15.15C28.8042 14.6824 28.3666 13.7074 28.0432 12.9834C27.6634 12.1324 27.2242 11.502 26.802 11.2014C25.9448 10.591 24.5266 10.471 23.6208 10.9324ZM25.6276 12.95C25.9656 13.3584 25.9334 13.2912 27.8916 17.6824C28.7212 19.5426 29.4 21.227 29.4 21.4252C29.4 22.08 28.7188 22.2 25 22.2C21.2868 22.2 20.6 22.0798 20.6 21.4294C20.6 21.1136 21.716 18.4672 23.1164 15.4624C23.3824 14.8916 23.6 14.35 23.6 14.2588C23.6 14.1676 23.8282 13.757 24.1072 13.3464C24.6582 12.5354 25.1734 12.4012 25.6276 12.95ZM28.1554 24.5114C28.7908 24.9562 28.7176 25.3498 27.6706 27.1246C25.6894 30.4828 25.5994 30.6 25 30.6C24.4006 30.6 24.3106 30.4828 22.3294 27.1246C20.7666 24.4758 21.0184 24.2 25 24.2C27.13 24.2 27.8062 24.2668 28.1554 24.5114ZM19.7086 26.75C22.8978 31.9168 23.263 32.809 22.35 33.2026C22.1026 33.3094 20.0664 33.579 17.8254 33.8018C15.5844 34.0244 13.668 34.258 13.5666 34.3206C13.2752 34.5008 12.4 33.829 12.4 33.4252C12.4 33.1192 15.2324 29.133 17.4274 26.35C18.3098 25.2312 18.827 25.3218 19.7086 26.75ZM34.8322 29.3C36.3436 31.289 37.575 33.0994 37.584 33.3454C37.6144 34.1924 36.924 34.3876 34.9 34.1048C33.91 33.9664 31.9022 33.7394 30.4382 33.6006C27.6766 33.3384 27.2 33.1568 27.2 32.3666C27.2 31.9996 28.3932 29.8336 30.3008 26.7376C31.4244 24.9138 31.5552 24.9878 34.8322 29.3Z" fill="#FF0000"/>
<path fill-rule="evenodd" clip-rule="evenodd" d="M23.6208 10.9324C23.0274 11.2346 21.8 12.7892 21.8 13.2386C21.8 13.3268 21.5406 13.9616 21.2238 14.6494C18.6094 20.3228 18.5374 20.5278 18.6772 21.892C18.8236 23.321 18.8264 23.3166 17.4044 23.7972C16.576 24.0774 16.2854 24.399 13.521 28.094C10.8558 31.6564 10.5232 32.1884 10.4436 33.016C10.2658 34.8668 11.4772 36.2 13.3368 36.2C14.802 36.2 22.946 35.2432 23.3544 35.023C23.5444 34.9206 23.9182 34.6034 24.1848 34.3184C24.4516 34.0332 24.8184 33.8 25 33.8C25.1816 33.8 25.5484 34.0332 25.8152 34.3184C26.0818 34.6034 26.4556 34.9206 26.6456 35.023C27.0648 35.249 35.2158 36.2 36.7334 36.2C37.7162 36.2 37.8926 36.128 38.6578 35.4144C39.4758 34.6514 39.5 34.5922 39.5 33.3644V32.1L36.4956 28.1C33.719 24.4036 33.423 24.077 32.5956 23.7972C31.1726 23.3162 31.1764 23.322 31.3238 21.8822C31.4444 20.7064 31.3988 20.4656 30.8052 19.1464C30.4474 18.351 29.9848 17.3176 29.7774 16.85C29.5698 16.3824 29.227 15.6176 29.0156 15.15C28.8042 14.6824 28.3666 13.7074 28.0432 12.9834C27.6634 12.1324 27.2242 11.502 26.802 11.2014C25.9448 10.591 24.5266 10.471 23.6208 10.9324ZM25.6276 12.95C25.9656 13.3584 25.9334 13.2912 27.8916 17.6824C28.7212 19.5426 29.4 21.227 29.4 21.4252C29.4 22.08 28.7188 22.2 25 22.2C21.2868 22.2 20.6 22.0798 20.6 21.4294C20.6 21.1136 21.716 18.4672 23.1164 15.4624C23.3824 14.8916 23.6 14.35 23.6 14.2588C23.6 14.1676 23.8282 13.757 24.1072 13.3464C24.6582 12.5354 25.1734 12.4012 25.6276 12.95ZM28.1554 24.5114C28.7908 24.9562 28.7176 25.3498 27.6706 27.1246C25.6894 30.4828 25.5994 30.6 25 30.6C24.4006 30.6 24.3106 30.4828 22.3294 27.1246C20.7666 24.4758 21.0184 24.2 25 24.2C27.13 24.2 27.8062 24.2668 28.1554 24.5114ZM19.7086 26.75C22.8978 31.9168 23.263 32.809 22.35 33.2026C22.1026 33.3094 20.0664 33.579 17.8254 33.8018C15.5844 34.0244 13.668 34.258 13.5666 34.3206C13.2752 34.5008 12.4 33.829 12.4 33.4252C12.4 33.1192 15.2324 29.133 17.4274 26.35C18.3098 25.2312 18.827 25.3218 19.7086 26.75ZM34.8322 29.3C36.3436 31.289 37.575 33.0994 37.584 33.3454C37.6144 34.1924 36.924 34.3876 34.9 34.1048C33.91 33.9664 31.9022 33.7394 30.4382 33.6006C27.6766 33.3384 27.2 33.1568 27.2 32.3666C27.2 31.9996 28.3932 29.8336 30.3008 26.7376C31.4244 24.9138 31.5552 24.9878 34.8322 29.3Z" fill="#FAFAFA"/>
</g>
<defs>
<clipPath id="clip0_1_102">
<rect width="50" height="50" rx="25" fill="white"/>
</clipPath>
</defs>
</svg>
