<svg width="60" height="60" viewBox="0 0 60 60" fill="none" xmlns="http://www.w3.org/2000/svg">
<g clip-path="url(#clip0_1_112)">
<path fill-rule="evenodd" clip-rule="evenodd" d="M15.808 3.536C10.016 6.552 4.706 11.909 2.03 17.438C0.466 20.669 0 23.633 0 30.348C0 40.663 1.22 44.107 7.174 50.591C13.44 57.416 19.551 59.978 29.59 59.99C36.625 59.999 38.479 59.601 43.804 56.94C49.903 53.892 53.944 49.812 57.609 43C59.054 40.316 59.493 37.403 59.496 30.5C59.5 22.389 59.207 20.971 56.534 16.144C53.292 10.291 48.731 6.031 42.434 2.974C36.19 -0.0580029 22.14 0.238997 15.808 3.536Z" fill="white"/>
<path fill-rule="evenodd" clip-rule="evenodd" d="M17 3.077C10.96 5.805 5.273 11.419 2.39 17.5C0.510001 21.465 0.0200005 24.156 0.0200005 30.5C0.0200005 40.293 2.611 46.629 8.956 52.349C15.451 58.205 20.167 59.954 29.5 59.968C39.733 59.984 45.655 57.402 52.275 50.039C65.687 35.122 60.871 11.902 42.602 3.395C35.773 0.215996 23.667 0.0649962 17 3.077Z" fill="#E2E2E2"/>
<path fill-rule="evenodd" clip-rule="evenodd" d="M8 27.817V31.919L16.25 32.21L24.5 32.5L25 36.5C25.486 40.389 25.616 40.508 29.69 40.805L33.88 41.109L34.19 36.805L34.5 32.5L43.308 32.21L52.116 31.92L51.808 28.21L51.5 24.5L43.25 24.21C35.152 23.924 35 23.963 35 26.293C35 29.821 34.44 29.912 29.068 27.253C25.609 25.541 21.762 24.658 16.077 24.268L8 23.714V27.817Z" fill="#C8C8C8"/>
<path fill-rule="evenodd" clip-rule="evenodd" d="M8 28.5V32H16.393C25.529 32 26 32.301 26 38.142C26 40.973 26.187 41.105 29.75 40.81C33.308 40.516 33.526 40.296 34 36.5L34.5 32.5L42.75 32.21L51 31.919V28.46V25H43C35.133 25 35 25.042 35 27.5C35 28.875 34.82 30 34.599 30C34.379 30 31.791 28.879 28.849 27.51C24.607 25.535 21.896 25.018 15.75 25.01L8 25V28.5Z" fill="#929292"/>
<path fill-rule="evenodd" clip-rule="evenodd" d="M8.177 28.124L8.5 31.5L17 32L25.5 32.5L26 36.5C26.458 40.162 26.752 40.5 29.486 40.5C31.705 40.5 32.55 39.986 32.775 38.5C33.81 31.664 33.306 32 42.519 32H51V28.5V25H43C35.133 25 35 25.042 35 27.5C35 30.567 34.151 30.612 29.385 27.8C26.52 26.11 23.593 25.501 16.755 25.174L7.855 24.748L8.177 28.124Z" fill="#797979"/>
<path fill-rule="evenodd" clip-rule="evenodd" d="M8 27.875V31H15.8C24.571 31 26 31.799 26 36.7C26 39.805 26.207 40 29.5 40C32.827 40 33 39.828 33 36.535C33 32.006 34.987 31 43.934 31H51V28V25H43C35.133 25 35 25.042 35 27.5C35 30.56 34.096 30.607 28.71 27.827C25.74 26.295 22.07 25.521 16.25 25.202L8 24.749V27.875Z" fill="#363636"/>
<path fill-rule="evenodd" clip-rule="evenodd" d="M9 27.856V31H15.918C25.211 31 26 31.4 26 36.107C26 39.889 26.099 40 29.5 40C32.793 40 33 39.805 33 36.7C33 31.791 34.425 31 43.266 31H51.133L50.816 28.25C50.507 25.564 50.332 25.493 43.25 25.206C36.765 24.943 36 25.107 36 26.756C36 30.493 34.057 30.934 29.046 28.334C25.747 26.622 21.954 25.691 16.646 25.29L9 24.711V27.856Z" fill="#1D1D1D"/>
<path fill-rule="evenodd" clip-rule="evenodd" d="M9 28.5C9 30.957 9.136 31 16.965 31C25.637 31 27 31.874 27 37.434C27 39.599 27.454 40 29.899 40C32.63 40 32.82 39.729 33.169 35.347L33.539 30.694L28.519 28.357C24.722 26.588 21.736 26.017 16.25 26.01C9.181 26 9 26.062 9 28.5ZM35.755 28.5C35.28 30.984 35.326 31 42.639 31C49.824 31 50 30.94 50 28.5C50 26.075 49.792 26 43.117 26C36.568 26 36.21 26.122 35.755 28.5Z" fill="black"/>
</g>
<defs>
<clipPath id="clip0_1_112">
<rect width="60" height="60" rx="30" fill="white"/>
</clipPath>
</defs>
</svg>
