<svg width="64" height="64" viewBox="0 0 64 64" fill="none" xmlns="http://www.w3.org/2000/svg">
<g clip-path="url(#clip0_1_122)">
<path fill-rule="evenodd" clip-rule="evenodd" d="M0 32V64H32H64V32V0H32H0V32Z" fill="#F3F7FF"/>
<path fill-rule="evenodd" clip-rule="evenodd" d="M0 32V64H32H64V32V0H32H0V32ZM26 23C26 23.55 24.988 23.968 23.75 23.93C21.603 23.863 21.592 23.82 23.5 23C24.6 22.527 25.613 22.109 25.75 22.07C25.887 22.032 26 22.45 26 23ZM35.5 23C35.16 23.55 34.346 23.993 33.691 23.985C32.975 23.975 33.099 23.582 34 23C35.921 21.758 36.267 21.758 35.5 23ZM20.493 23.989C20.843 24.555 20.442 24.723 19.552 24.382C17.82 23.717 17.503 23 18.941 23C19.459 23 20.157 23.445 20.493 23.989ZM41.729 23.604C41.397 23.936 40.534 23.972 39.813 23.683C39.015 23.364 39.252 23.127 40.417 23.079C41.471 23.036 42.061 23.272 41.729 23.604ZM45.729 23.604C45.397 23.936 44.534 23.972 43.813 23.683C43.015 23.364 43.252 23.127 44.417 23.079C45.471 23.036 46.061 23.272 45.729 23.604ZM28.22 27.956C27.617 32.063 27 31.802 27 27.441C27 25.484 27.375 24.114 27.833 24.397C28.292 24.68 28.465 26.282 28.22 27.956ZM36.707 29.238C36.468 30.482 36.263 29.7 36.252 27.5C36.241 25.3 36.437 24.282 36.687 25.238C36.937 26.194 36.946 27.994 36.707 29.238ZM34 26.383C34 26.594 33.1 27.002 32 27.29C30.9 27.577 30 27.405 30 26.906C30 26.408 30.9 26 32 26C33.1 26 34 26.173 34 26.383ZM24 37.441C24 37.684 23.55 38.16 23 38.5C22.45 38.84 22 38.641 22 38.059C22 37.477 22.45 37 23 37C23.55 37 24 37.198 24 37.441Z" fill="#CADCF0"/>
<path fill-rule="evenodd" clip-rule="evenodd" d="M0 32V64H32H64V32V0H32H0V32ZM26 23C26 23.55 25.352 24 24.56 24C23.633 24 22.981 25.335 22.728 27.75L22.336 31.5L22.168 27.323C22.038 24.098 22.398 23.043 23.75 22.689C24.712 22.438 25.613 22.18 25.75 22.116C25.887 22.052 26 22.45 26 23ZM36.85 27.309L36.7 31.5L36 27C35.615 24.525 35.233 23.255 35.15 24.177C35.068 25.099 33.684 26.51 32.075 27.313C29.643 28.526 29.24 28.538 29.682 27.386C29.975 26.624 29.746 26 29.173 26C28.601 26 27.945 27.238 27.716 28.75C27.461 30.435 27.272 29.757 27.229 27C27.19 24.525 27.402 23.113 27.7 23.863C28.158 25.014 28.377 25.014 29.106 23.863C29.782 22.796 29.973 22.88 29.985 24.25C29.994 25.358 30.773 26 32.107 26C33.527 26 34.034 25.532 33.663 24.565C33.113 23.132 34.83 21.891 36.25 22.694C36.663 22.927 36.932 25.004 36.85 27.309ZM20.627 27.577C20.749 31.335 20.735 31.353 20.296 28.009C20.044 26.089 19.311 24.142 18.669 23.683C17.872 23.113 17.977 22.976 19 23.251C19.979 23.515 20.544 25.016 20.627 27.577ZM41.84 27.25C41.687 31.3 41.66 31.336 41.259 28.009C41.027 26.089 40.311 24.183 39.669 23.774C38.902 23.286 39.102 23.025 40.25 23.015C41.669 23.003 41.97 23.803 41.84 27.25ZM45.331 23.774C44.689 24.183 43.973 26.089 43.741 28.009C43.34 31.336 43.313 31.3 43.16 27.25C43.03 23.803 43.331 23.003 44.75 23.015C45.898 23.025 46.098 23.286 45.331 23.774ZM24.884 39.905C24.786 41.257 24.7 41.242 24.321 39.805C24.06 38.814 23.274 38.342 22.426 38.667C21.369 39.072 21.162 38.742 21.659 37.447C22.162 36.136 21.994 35.886 21.015 36.49C20.109 37.051 19.929 36.924 20.445 36.089C21.429 34.497 25.051 37.61 24.884 39.905ZM44 36C44 36.55 43.523 37 42.941 37C42.359 37 42.16 36.55 42.5 36C42.84 35.45 43.316 35 43.559 35C43.802 35 44 35.45 44 36ZM41.802 38.531C40.739 39.594 35 40.837 35 40.004C35 39.532 35.788 38.941 36.75 38.689C39.327 38.016 42.414 37.919 41.802 38.531ZM33 41C33 41.55 32.523 42 31.941 42C31.359 42 31.16 41.55 31.5 41C31.84 40.45 32.316 40 32.559 40C32.802 40 33 40.45 33 41Z" fill="#F9FFFF"/>
<path fill-rule="evenodd" clip-rule="evenodd" d="M0 32V64H32H64V32V0H32H0V32ZM26 23C26 23.55 25.325 24 24.5 24C23.452 24 23 25.056 23 27.5C23 29.944 22.548 31 21.5 31C20.452 31 20 29.944 20 27.5C20 25.056 19.548 24 18.5 24C17.675 24 17 23.55 17 23C17 22.45 19.025 22 21.5 22C23.975 22 26 22.45 26 23ZM36.807 26.75C37.106 30.878 35.802 32.532 34.638 29.5C34.322 28.675 33.135 28 32 28C30.865 28 29.678 28.675 29.362 29.5C28.29 32.294 27 31.02 27 27.167C27 22.315 27.524 21.839 32.464 22.203C36.443 22.496 36.504 22.56 36.807 26.75ZM47 23C47 23.55 46.325 24 45.5 24C44.452 24 44 25.056 44 27.5C44 29.944 43.548 31 42.5 31C41.452 31 41 29.944 41 27.5C41 25.056 40.548 24 39.5 24C38.675 24 38 23.55 38 23C38 22.45 40.025 22 42.5 22C44.975 22 47 22.45 47 23ZM30 25C30 25.55 30.9 26 32 26C33.1 26 34 25.55 34 25C34 24.45 33.1 24 32 24C30.9 24 30 24.45 30 25ZM24.884 39.905C24.786 41.257 24.7 41.242 24.321 39.805C24.06 38.814 23.274 38.342 22.426 38.667C21.369 39.072 21.162 38.742 21.659 37.447C22.162 36.136 21.994 35.886 21.015 36.49C20.109 37.051 19.929 36.924 20.445 36.089C21.429 34.497 25.051 37.61 24.884 39.905ZM44 36C44 36.55 43.55 37 43 37C42.45 37 42 36.55 42 36C42 35.45 42.45 35 43 35C43.55 35 44 35.45 44 36ZM41.802 38.531C40.739 39.594 35 40.837 35 40.004C35 39.532 35.788 38.941 36.75 38.689C39.327 38.016 42.414 37.919 41.802 38.531ZM33 41C33 41.55 32.55 42 32 42C31.45 42 31 41.55 31 41C31 40.45 31.45 40 32 40C32.55 40 33 40.45 33 41Z" fill="#C2BEB5"/>
<path fill-rule="evenodd" clip-rule="evenodd" d="M0 32V64H32H64V32V0H32H0V32ZM48 22.436C48 23.168 47.1 24.002 46 24.29C44.468 24.69 44 25.654 44 28.406C44 33.474 41.231 33.338 40.81 28.25C40.601 25.721 40.011 24.5 39 24.5C37.989 24.5 37.399 25.721 37.19 28.25C36.987 30.703 36.381 32 35.44 32C34.648 32 34 31.325 34 30.5C34 29.667 33.111 29 32 29C30.889 29 30 29.667 30 30.5C30 32.619 27.016 32.377 26.923 30.25C26.809 27.634 26.215 24.882 25.642 24.308C24.428 23.094 23 25.392 23 28.559C23 30.951 22.543 32 21.5 32C20.445 32 20 30.934 20 28.406C20 25.654 19.532 24.69 18 24.29C16.9 24.002 16 23.181 16 22.466C16 21.454 19.55 21.159 32 21.135C44.668 21.111 48 21.382 48 22.436ZM22.989 35.722C24.095 36.669 25 38.005 25 38.691C25 39.376 25.617 39.7 26.371 39.411C27.125 39.122 28.011 39.586 28.34 40.443C29.046 42.283 27.71 42.438 24.684 40.864C21.537 39.228 19.283 36.65 19.757 35.228C20.292 33.625 20.593 33.671 22.989 35.722ZM44.719 36.373C44.518 36.993 42.425 38.573 40.069 39.884C36.618 41.805 35.622 42.006 34.95 40.92C34.356 39.958 35.03 39.186 37.298 38.233C39.048 37.497 40.833 36.262 41.266 35.489C42.169 33.876 45.272 34.67 44.719 36.373ZM33 40.969C33 42.308 32.52 42.753 31.5 42.362C29.896 41.746 29.587 40.747 30.667 39.667C31.928 38.405 33 39.004 33 40.969Z" fill="#3A352F"/>
<path fill-rule="evenodd" clip-rule="evenodd" d="M0 32V64H32H64V32V0H32H0V32ZM47.975 20.985C49.642 22.015 48.568 25 46.531 25C45.448 25 45 26.024 45 28.5C45 30.48 44.498 32 43.845 32C43.149 32 43.339 32.717 44.325 33.806C45.8 35.437 45.81 35.826 44.428 37.799C42.491 40.565 40.036 41.88 35.794 42.423C33.953 42.658 32.008 42.938 31.473 43.044C28.35 43.663 24.789 42.693 22.208 40.522C19.592 38.32 19.258 37.402 19.212 32.281C19.17 27.588 18.774 26.262 17.08 25.137C14.756 23.594 14.346 21.407 16.25 20.707C18.459 19.896 46.612 20.142 47.975 20.985ZM24 28.8C24 30.34 23.523 32.077 22.94 32.66C22.193 33.407 22.811 34.504 25.032 36.374C28.341 39.158 31.643 39.383 37.114 37.197C40.287 35.93 40.836 34.622 40.24 29.75C39.692 25.267 38 24.724 38 29.031C38 32.802 35.325 34.156 33.298 31.412C31.967 29.612 31.827 29.602 30.893 31.25C28.888 34.787 24.664 32.002 25.747 27.858C26.015 26.836 25.731 26 25.117 26C24.502 26 24 27.26 24 28.8Z" fill="#160F09"/>
<path fill-rule="evenodd" clip-rule="evenodd" d="M0 32V64H32H64V32V0H32H0V32ZM48.25 19.861C49.827 20.153 48.925 24.97 47.112 25.94C45.543 26.78 45.28 27.879 45.552 32.45C45.851 37.462 45.641 38.119 43.181 39.871C39.593 42.426 32.581 44.241 28.452 43.685C25.41 43.275 18 39.499 18 38.359C18 38.097 18.563 38.22 19.25 38.633C20.193 39.2 20.235 39.03 19.42 37.942C18.825 37.149 18.289 34.259 18.227 31.519C18.165 28.78 17.634 26.378 17.046 26.182C14.849 25.45 13.933 22.21 15.485 20.658C16.689 19.454 19.819 19.228 32.233 19.45C40.63 19.599 47.837 19.785 48.25 19.861ZM23.74 31.887C23.35 33.379 23.935 34.59 25.728 36.001C29.009 38.582 32.602 38.49 37.121 35.71C40.044 33.911 40.491 33.248 39.439 32.266C38.41 31.304 38.07 31.357 37.819 32.519C37.54 33.803 37.132 33.797 34.579 32.465C32.577 31.42 31.335 31.265 30.629 31.971C29.082 33.518 26.216 33.209 25.196 31.386C24.412 29.985 24.22 30.052 23.74 31.887Z" fill="#0B0B0B"/>
<path fill-rule="evenodd" clip-rule="evenodd" d="M0 32V64H32H64V32V0H32H0V32ZM38.2 19.087C43.684 19.013 47.794 19.414 48.626 20.105C50.626 21.764 50.307 24.765 48 26C46.9 26.589 46 27.981 46 29.094C46 30.436 46.421 30.872 47.25 30.387C47.938 29.985 47.712 30.558 46.748 31.659C45.784 32.761 45.334 34.001 45.748 34.414C46.903 35.568 46.728 39.833 45.545 39.379C44.97 39.159 43.185 40.199 41.578 41.69C39.127 43.963 37.751 44.402 33.046 44.412C27.143 44.424 21.248 42.58 19.402 40.144C18.798 39.347 17.813 38.997 17.214 39.368C16.49 39.815 16.291 39.113 16.621 37.27C16.894 35.747 17.569 34.341 18.12 34.146C18.671 33.952 18.35 32.939 17.406 31.896C16.402 30.786 16.169 30 16.845 30C18.75 30 18.148 27.15 16 26C13.736 24.789 13.363 21.773 15.28 20.182C16.514 19.159 26.636 18.128 28.323 18.854C28.776 19.049 33.22 19.154 38.2 19.087ZM38 32.915C38 33.383 37.1 34.002 36 34.29C34.9 34.577 34 34.449 34 34.005C34 33.561 31.817 33.266 29.149 33.349C24.796 33.484 24.41 33.68 25.389 35.25C25.99 36.212 27.16 37.038 27.991 37.083C28.821 37.129 30.474 37.276 31.665 37.41C34.62 37.742 41.698 33.482 39.557 32.66C38.701 32.332 38 32.446 38 32.915Z" fill="black"/>
</g>
<defs>
<clipPath id="clip0_1_122">
<rect width="64" height="64" rx="32" fill="white"/>
</clipPath>
</defs>
</svg>
