<svg width="64" height="64" viewBox="0 0 64 64" fill="none" xmlns="http://www.w3.org/2000/svg">
<path fill-rule="evenodd" clip-rule="evenodd" d="M0 32V64H32H64V32V0H32H0V32Z" fill="#9AACA8"/>
<path fill-rule="evenodd" clip-rule="evenodd" d="M0 32V64H32H64V32V0H32H0V32ZM51.595 37.25L53.5 39.5L51 37.511C49.625 36.417 48.313 35.404 48.083 35.261C47.854 35.117 48.122 35 48.678 35C49.235 35 50.547 36.013 51.595 37.25ZM10 39.5C10 40.26 9.55 41.16 9 41.5C8.431 41.852 8 40.991 8 39.5C8 38.009 8.431 37.148 9 37.5C9.55 37.84 10 38.74 10 39.5ZM22.5 40C22.851 40.567 22.01 41 20.559 41C19.152 41 18 40.55 18 40C18 39.45 18.873 39 19.941 39C21.009 39 22.16 39.45 22.5 40ZM43.565 42.769C43.228 43.105 42.176 42.557 41.226 41.55C40.277 40.542 40.031 40.014 40.681 40.375C41.33 40.737 42.22 40.463 42.657 39.766C43.241 38.837 43.549 38.986 43.815 40.328C44.014 41.334 43.901 42.432 43.565 42.769ZM33 41C33 41.55 32.802 42 32.559 42C32.316 42 31.84 41.55 31.5 41C31.16 40.45 31.359 40 31.941 40C32.523 40 33 40.45 33 41ZM51.5 42C50.505 43.1 49.26 44 48.734 44C48.209 44 48.841 43.115 50.139 42.033C53.195 39.487 53.787 39.473 51.5 42Z" fill="#6E8782"/>
<path fill-rule="evenodd" clip-rule="evenodd" d="M0 32V64H32H64V32V0H32H0V32ZM51.595 37.25L53.5 39.5L51 37.511C49.625 36.417 48.313 35.404 48.083 35.261C47.854 35.117 48.122 35 48.678 35C49.235 35 50.547 36.013 51.595 37.25ZM26.345 37.543C26.019 38.392 25.538 38.872 25.276 38.61C25.014 38.348 25.096 37.653 25.459 37.067C26.445 35.471 27.021 35.781 26.345 37.543ZM39.54 37.935C39.269 38.374 39.858 39.467 40.85 40.364C42.554 41.906 42.629 41.832 42.213 38.998C41.971 37.349 42.162 36.001 42.637 36.002C43.111 36.003 43.612 37.578 43.749 39.502C44.034 43.491 43.119 43.894 40.457 40.952C38.506 38.797 37.516 35.583 39.104 36.564C39.615 36.88 39.811 37.497 39.54 37.935ZM10 39.5C10 40.26 9.55 41.16 9 41.5C8.431 41.852 8 40.991 8 39.5C8 38.009 8.431 37.148 9 37.5C9.55 37.84 10 38.74 10 39.5ZM22.5 40C22.851 40.567 22.01 41 20.559 41C19.152 41 18 40.55 18 40C18 39.45 18.873 39 19.941 39C21.009 39 22.16 39.45 22.5 40ZM33 41C33 41.55 32.802 42 32.559 42C32.316 42 31.84 41.55 31.5 41C31.16 40.45 31.359 40 31.941 40C32.523 40 33 40.45 33 41ZM51.5 42C50.505 43.1 49.26 44 48.734 44C48.209 44 48.841 43.115 50.139 42.033C53.195 39.487 53.787 39.473 51.5 42Z" fill="#4C6B65"/>
<path fill-rule="evenodd" clip-rule="evenodd" d="M0 32V64H32H64V32V0H32H0V32ZM51.691 37.18L54.011 39.359L51.831 41.68C50.632 42.956 49.255 44 48.77 44C48.285 44 49.101 42.957 50.583 41.682L53.278 39.364L50.504 37.182C48.979 35.982 48.099 35 48.551 35C49.002 35 50.415 35.981 51.691 37.18ZM12.538 36.991C14.523 36.544 15.752 36.593 15.434 37.107C15.13 37.598 13.784 38 12.441 38C10.938 38 10 38.576 10 39.5C10 40.424 10.938 41 12.441 41C13.784 41 15.13 41.402 15.434 41.893C15.752 42.407 14.523 42.456 12.538 42.009C10.237 41.49 8.935 41.608 8.624 42.365C8.368 42.989 8.158 41.7 8.158 39.5C8.158 37.3 8.368 36.011 8.624 36.635C8.935 37.392 10.237 37.51 12.538 36.991ZM23.323 37.602C23.09 38.208 21.791 38.491 20.435 38.232C16.731 37.524 16.751 36.5 20.468 36.5C22.444 36.5 23.577 36.938 23.323 37.602ZM33 37.359C33 37.832 31.425 38.035 29.5 37.81C27.575 37.585 26 37.836 26 38.367C26 38.899 25.73 39.063 25.4 38.733C25.07 38.403 25.027 37.766 25.304 37.317C25.979 36.225 33 36.264 33 37.359ZM36 39.5C36 41.425 35.663 43 35.25 43C34.837 43 34.5 41.425 34.5 39.5C34.5 37.575 34.837 36 35.25 36C35.663 36 36 37.575 36 39.5ZM40.5 39C40.237 39.425 40.613 40.263 41.334 40.862C42.379 41.73 42.558 41.345 42.21 38.976C41.955 37.239 42.224 36 42.855 36C43.456 36 43.652 36.744 43.295 37.674C42.829 38.888 43.066 39.189 44.16 38.769C45.047 38.428 45.667 38.75 45.667 39.551C45.667 40.3 45.292 40.68 44.833 40.397C44.375 40.114 44 40.584 44 41.441C44 43.579 42.667 43.395 40.457 40.952C38.146 38.399 37.437 35.288 39.569 37.057C40.344 37.701 40.763 38.575 40.5 39ZM23 41C23.726 42.356 23.737 43 23.035 43C22.466 43 22 42.55 22 42C22 41.45 21.325 41 20.5 41C19.675 41 19 41.45 19 42C19 42.55 18.592 43 18.094 43C17.595 43 17.423 42.1 17.71 41C17.998 39.9 19.065 39 20.081 39C21.098 39 22.411 39.9 23 41ZM33 40.304C33 41.161 31.541 41.634 28.75 41.682C25.783 41.733 25.405 41.618 27.5 41.301C29.15 41.051 30.927 40.431 31.45 39.923C32.72 38.689 33 38.757 33 40.304Z" fill="#0F3930"/>
<path fill-rule="evenodd" clip-rule="evenodd" d="M13.415 18.917C12.121 20.215 13.328 22 15.5 22C17.833 22 18 22.333 18 27C18 31.333 18.267 32 20 32C21.733 32 22 31.333 22 27C22 22.295 22.152 22 24.573 22C26.406 22 27.054 21.537 26.823 20.39C26.571 19.132 25.114 18.749 20.165 18.64C16.681 18.563 13.644 18.688 13.415 18.917ZM30.313 19.513C29.297 20.256 28.97 22.151 29.19 26.03L29.5 31.5L34.831 31.805C41.008 32.159 43 30.957 43 26.878C43 24.244 42.697 24 39.427 24C36.544 24 35.927 24.338 36.236 25.75C36.447 26.712 37.155 27.387 37.809 27.25C38.464 27.112 39 27.479 39 28.063C39 28.661 37.576 28.989 35.75 28.813C32.86 28.535 32.464 28.124 32.176 25.104L31.851 21.707L37.426 22.362C42.883 23.004 43.718 22.657 42.235 20.365C41.251 18.846 32.118 18.193 30.313 19.513ZM44.48 24.032C44.092 24.66 44.245 25.645 44.82 26.22C46.164 27.564 49.297 26.392 48.75 24.749C48.194 23.078 45.364 22.602 44.48 24.032ZM9 36.827C9 37.282 10.35 37.455 12 37.213C13.65 36.971 15 36.599 15 36.387C15 36.174 13.65 36 12 36C10.35 36 9 36.372 9 36.827ZM17.713 36.621C17.321 37.013 17.032 38.496 17.07 39.917C17.133 42.229 17.225 42.291 17.945 40.5C18.388 39.4 18.554 38.163 18.316 37.75C18.077 37.337 19.082 37 20.548 37C22.366 37 23.05 37.426 22.7 38.341C22.417 39.078 22.61 40.316 23.129 41.091C23.806 42.1 23.992 41.649 23.787 39.5C23.56 37.126 22.97 36.438 20.963 36.204C19.567 36.041 18.104 36.229 17.713 36.621ZM25.429 38.19C25.429 39.624 26.164 39.969 28.964 39.85C31.988 39.722 32.102 39.64 29.75 39.284C28.238 39.055 27 38.477 27 38C27 37.523 28.238 36.935 29.75 36.692C31.874 36.352 31.695 36.267 28.964 36.316C26.242 36.365 25.429 36.797 25.429 38.19ZM36.746 37.25C36.151 39.019 37.053 42 38.184 42C38.708 42 38.825 40.991 38.443 39.75C37.757 37.519 37.775 37.521 40.626 39.996L43.5 42.493L40.563 39.246C37.206 35.535 37.305 35.588 36.746 37.25ZM46.12 37.776C45.017 39.837 46.394 43 48.395 43C49.107 43 50.438 42.173 51.353 41.162C52.907 39.445 52.896 39.216 51.179 37.662C48.816 35.524 47.307 35.558 46.12 37.776ZM34.195 39.5C34.215 41.15 34.439 41.704 34.693 40.731C34.947 39.758 34.93 38.408 34.656 37.731C34.382 37.054 34.175 37.85 34.195 39.5ZM50 38.941C50 39.459 49.55 40.16 49 40.5C48.45 40.84 48 40.416 48 39.559C48 38.702 48.45 38 49 38C49.55 38 50 38.423 50 38.941ZM9 42.173C9 42.628 10.35 43 12 43C13.65 43 15 42.826 15 42.613C15 42.401 13.65 42.029 12 41.787C10.35 41.545 9 41.718 9 42.173ZM28 42L24.5 42.737L28.809 42.868C31.456 42.949 32.88 42.614 32.5 42C32.16 41.45 31.796 41.059 31.691 41.132C31.586 41.204 29.925 41.595 28 42Z" fill="#FF8431"/>
<path fill-rule="evenodd" clip-rule="evenodd" d="M13.667 18.667C12.149 20.185 13.147 22 15.5 22C17.833 22 18 22.333 18 27C18 31.333 18.267 32 20 32C21.733 32 22 31.333 22 27C22 22.333 22.167 22 24.5 22C27.005 22 27.988 19.729 26.011 18.507C25.445 18.157 25.277 18.558 25.618 19.448C26.063 20.606 25.552 21 23.607 21C21.145 21 21 21.279 21 26C21 28.75 20.55 31 20 31C19.45 31 19 28.75 19 26C19 21.279 18.855 21 16.393 21C14.487 21 13.941 20.597 14.362 19.5C14.98 17.889 14.736 17.597 13.667 18.667ZM29.409 20.377C29.118 21.134 29.02 23.947 29.19 26.627L29.5 31.5L34.831 31.805C41.008 32.159 43 30.957 43 26.878C43 24.256 42.689 24 39.5 24C36.08 24 34.621 26.029 36.989 27.493C37.555 27.843 37.723 27.442 37.382 26.552C36.935 25.388 37.454 25 39.459 25C41.786 25 42.092 25.357 41.816 27.75C41.516 30.359 41.201 30.515 35.659 30.803L29.817 31.105L30.159 25.051C30.506 18.888 30.351 17.921 29.409 20.377ZM32.022 21.303C32.975 22.152 43 23.048 42.997 22.284C42.995 21.853 40.417 21.36 37.268 21.189C34.12 21.017 31.759 21.069 32.022 21.303ZM44.446 24.087C44.077 24.685 44.302 25.698 44.946 26.337C45.84 27.224 45.96 27.084 45.452 25.75C44.978 24.505 45.281 24 46.5 24C47.719 24 48.022 24.505 47.548 25.75C47.04 27.084 47.16 27.224 48.054 26.337C49.421 24.981 48.499 23 46.5 23C45.74 23 44.816 23.489 44.446 24.087ZM9 36.827C9 37.282 10.35 37.455 12 37.213C13.65 36.971 15 36.599 15 36.387C15 36.174 13.65 36 12 36C10.35 36 9 36.372 9 36.827ZM17.713 36.621C17.321 37.013 17.032 38.496 17.07 39.917C17.133 42.229 17.225 42.291 17.945 40.5C18.388 39.4 18.554 38.163 18.316 37.75C18.077 37.337 19.082 37 20.548 37C22.366 37 23.05 37.426 22.7 38.341C22.417 39.078 22.61 40.316 23.129 41.091C23.806 42.1 23.992 41.649 23.787 39.5C23.56 37.126 22.97 36.438 20.963 36.204C19.567 36.041 18.104 36.229 17.713 36.621ZM25.429 38.19C25.429 39.624 26.164 39.969 28.964 39.85C31.988 39.722 32.102 39.64 29.75 39.284C28.238 39.055 27 38.477 27 38C27 37.523 28.238 36.935 29.75 36.692C31.874 36.352 31.695 36.267 28.964 36.316C26.242 36.365 25.429 36.797 25.429 38.19ZM36.746 37.25C36.151 39.019 37.053 42 38.184 42C38.708 42 38.825 40.991 38.443 39.75C37.757 37.519 37.775 37.521 40.626 39.996L43.5 42.493L40.563 39.246C37.206 35.535 37.305 35.588 36.746 37.25ZM46.12 37.776C45.017 39.837 46.394 43 48.395 43C49.107 43 50.438 42.173 51.353 41.162C52.907 39.445 52.896 39.216 51.179 37.662C48.816 35.524 47.307 35.558 46.12 37.776ZM34.195 39.5C34.215 41.15 34.439 41.704 34.693 40.731C34.947 39.758 34.93 38.408 34.656 37.731C34.382 37.054 34.175 37.85 34.195 39.5ZM50 38.941C50 39.459 49.55 40.16 49 40.5C48.45 40.84 48 40.416 48 39.559C48 38.702 48.45 38 49 38C49.55 38 50 38.423 50 38.941ZM9 42.173C9 42.628 10.35 43 12 43C13.65 43 15 42.826 15 42.613C15 42.401 13.65 42.029 12 41.787C10.35 41.545 9 41.718 9 42.173ZM28 42L24.5 42.737L28.809 42.868C31.456 42.949 32.88 42.614 32.5 42C32.16 41.45 31.796 41.059 31.691 41.132C31.586 41.204 29.925 41.595 28 42Z" fill="#B06A30"/>
<path fill-rule="evenodd" clip-rule="evenodd" d="M13.345 19.543C13.019 20.392 12.976 21.31 13.249 21.583C13.523 21.856 13.986 21.161 14.279 20.04C14.903 17.657 14.21 17.289 13.345 19.543ZM18.3 27C18.3 30.025 18.487 31.263 18.716 29.75C18.945 28.238 18.945 25.763 18.716 24.25C18.487 22.738 18.3 23.975 18.3 27ZM44.459 24.067C44.096 24.653 44.014 25.348 44.276 25.61C44.538 25.872 45.019 25.392 45.345 24.543C46.021 22.781 45.445 22.471 44.459 24.067ZM47.564 24.293C47.94 25.279 48.499 25.834 48.807 25.526C49.115 25.219 48.808 24.412 48.124 23.733C47.136 22.753 47.022 22.868 47.564 24.293ZM36 25.441C36 26.234 36.408 27.134 36.907 27.442C37.405 27.751 37.578 27.102 37.29 26.001C36.679 23.666 36 23.371 36 25.441ZM42.232 27C42.232 28.925 42.438 29.712 42.689 28.75C42.941 27.788 42.941 26.212 42.689 25.25C42.438 24.288 42.232 25.075 42.232 27ZM9 36.827C9 37.282 10.35 37.455 12 37.213C13.65 36.971 15 36.599 15 36.387C15 36.174 13.65 36 12 36C10.35 36 9 36.372 9 36.827ZM17.713 36.621C17.321 37.013 17.032 38.496 17.07 39.917C17.133 42.229 17.225 42.291 17.945 40.5C18.388 39.4 18.554 38.163 18.316 37.75C18.077 37.337 19.082 37 20.548 37C22.366 37 23.05 37.426 22.7 38.341C22.417 39.078 22.61 40.316 23.129 41.091C23.806 42.1 23.992 41.649 23.787 39.5C23.56 37.126 22.97 36.438 20.963 36.204C19.567 36.041 18.104 36.229 17.713 36.621ZM25.429 38.19C25.429 39.624 26.164 39.969 28.964 39.85C31.988 39.722 32.102 39.64 29.75 39.284C28.238 39.055 27 38.477 27 38C27 37.523 28.238 36.935 29.75 36.692C31.874 36.352 31.695 36.267 28.964 36.316C26.242 36.365 25.429 36.797 25.429 38.19ZM36.746 37.25C36.151 39.019 37.053 42 38.184 42C38.708 42 38.825 40.991 38.443 39.75C37.757 37.519 37.775 37.521 40.626 39.996L43.5 42.493L40.563 39.246C37.206 35.535 37.305 35.588 36.746 37.25ZM46.12 37.776C45.017 39.837 46.394 43 48.395 43C49.107 43 50.438 42.173 51.353 41.162C52.907 39.445 52.896 39.216 51.179 37.662C48.816 35.524 47.307 35.558 46.12 37.776ZM34.195 39.5C34.215 41.15 34.439 41.704 34.693 40.731C34.947 39.758 34.93 38.408 34.656 37.731C34.382 37.054 34.175 37.85 34.195 39.5ZM50 38.941C50 39.459 49.55 40.16 49 40.5C48.45 40.84 48 40.416 48 39.559C48 38.702 48.45 38 49 38C49.55 38 50 38.423 50 38.941ZM9 42.173C9 42.628 10.35 43 12 43C13.65 43 15 42.826 15 42.613C15 42.401 13.65 42.029 12 41.787C10.35 41.545 9 41.718 9 42.173ZM28 42L24.5 42.737L28.809 42.868C31.456 42.949 32.88 42.614 32.5 42C32.16 41.45 31.796 41.059 31.691 41.132C31.586 41.204 29.925 41.595 28 42Z" fill="#524D30"/>
<path fill-rule="evenodd" clip-rule="evenodd" d="M9 36.827C9 37.282 10.35 37.455 12 37.213C13.65 36.971 15 36.599 15 36.387C15 36.174 13.65 36 12 36C10.35 36 9 36.372 9 36.827ZM17.41 37.375C17.091 38.204 17.042 39.697 17.299 40.692C17.606 41.875 17.808 41.549 17.884 39.75C17.98 37.483 18.458 37 20.607 37C22.376 37 23.049 37.431 22.7 38.341C22.417 39.078 22.61 40.316 23.129 41.091C23.806 42.1 23.992 41.649 23.787 39.5C23.553 37.056 22.99 36.441 20.744 36.183C18.986 35.981 17.779 36.412 17.41 37.375ZM26.667 36.667C24.907 38.426 26.177 39.992 29.25 39.85C32.275 39.711 32.31 39.671 29.75 39.284C28.238 39.055 27 38.477 27 38C27 37.523 28.238 36.945 29.75 36.716L32.5 36.3L29.917 36.15C28.496 36.067 27.033 36.3 26.667 36.667ZM37.136 39.25C37.242 41.765 37.373 41.969 37.718 40.153L38.165 37.806L40.832 40.149C43.216 42.244 43.188 42.148 40.563 39.246C38.948 37.461 37.485 36 37.313 36C37.141 36 37.061 37.462 37.136 39.25ZM46.12 37.776C45.017 39.837 46.394 43 48.395 43C49.107 43 50.438 42.173 51.353 41.162C52.907 39.445 52.896 39.216 51.179 37.662C48.816 35.524 47.307 35.558 46.12 37.776ZM34.195 39.5C34.215 41.15 34.439 41.704 34.693 40.731C34.947 39.758 34.93 38.408 34.656 37.731C34.382 37.054 34.175 37.85 34.195 39.5ZM50 38.941C50 39.459 49.55 40.16 49 40.5C48.45 40.84 48 40.416 48 39.559C48 38.702 48.45 38 49 38C49.55 38 50 38.423 50 38.941ZM9 42.173C9 42.628 10.35 43 12 43C13.65 43 15 42.826 15 42.613C15 42.401 13.65 42.029 12 41.787C10.35 41.545 9 41.718 9 42.173ZM28.5 42L25.5 42.763L28.75 42.882C30.538 42.947 32 42.55 32 42C32 41.45 31.887 41.053 31.75 41.118C31.613 41.183 30.15 41.58 28.5 42Z" fill="white"/>
</svg>
