<svg width="64" height="64" viewBox="0 0 64 64" fill="none" xmlns="http://www.w3.org/2000/svg">
<g clip-path="url(#clip0_1_142)">
<path fill-rule="evenodd" clip-rule="evenodd" d="M1.024 1.024C0.023552 2.02445 0 2.7305 0 31.9109V61.7733L1.18477 62.8869L2.37005 64H32.0717H61.7733L62.8869 62.8152L64 61.63V31.8392C64 2.7305 63.9765 2.02445 62.976 1.024C61.9756 0.023552 61.2695 0 32 0C2.7305 0 2.02445 0.023552 1.024 1.024Z" fill="#F9E5FA"/>
<path fill-rule="evenodd" clip-rule="evenodd" d="M1.024 1.024C0.023552 2.02445 0 2.7305 0 31.9109V61.7733L1.18477 62.8869L2.37005 64H32.0717H61.7733L62.8869 62.8152L64 61.63V31.8392C64 2.7305 63.9765 2.02445 62.976 1.024C61.9756 0.023552 61.2695 0 32 0C2.7305 0 2.02445 0.023552 1.024 1.024ZM18.4975 19.84C19.134 20.652 19.116 20.67 18.304 20.0335C17.8115 19.647 17.408 19.2435 17.408 19.1375C17.408 18.7162 17.8284 18.987 18.4975 19.84ZM46.592 19.1375C46.592 19.2435 46.1891 19.647 45.696 20.0335C44.884 20.67 44.8661 20.652 45.5025 19.84C46.1717 18.987 46.592 18.7162 46.592 19.1375ZM23.6872 47.9765C23.0574 48.0978 21.9054 48.1009 21.1272 47.9836C20.3489 47.8659 20.864 47.7665 22.272 47.7624C23.68 47.7589 24.3169 47.8551 23.6872 47.9765ZM43.1432 47.9765C42.5134 48.0978 41.3614 48.1009 40.5832 47.9836C39.8049 47.8659 40.32 47.7665 41.728 47.7624C43.136 47.7589 43.7729 47.8551 43.1432 47.9765Z" fill="#F3CAF4"/>
<path fill-rule="evenodd" clip-rule="evenodd" d="M1.024 1.024C0.023552 2.02445 0 2.7305 0 31.9109V61.7733L1.18477 62.8869L2.37005 64H32.0717H61.7733L62.8869 62.8152L64 61.63V31.8392C64 2.7305 63.9765 2.02445 62.976 1.024C61.9756 0.023552 61.2695 0 32 0C2.7305 0 2.02445 0.023552 1.024 1.024ZM10.0956 17.2728C9.97786 18.0511 9.87853 17.536 9.87443 16.128C9.87085 14.72 9.9671 14.0831 10.0884 14.7128C10.2098 15.3426 10.2129 16.4946 10.0956 17.2728ZM54.1276 17.2728C54.0099 18.0511 53.9105 17.536 53.9064 16.128C53.9029 14.72 53.9991 14.0831 54.1205 14.7128C54.2418 15.3426 54.2449 16.4946 54.1276 17.2728ZM18.4975 19.84C19.134 20.652 19.116 20.67 18.304 20.0335C17.8115 19.647 17.408 19.2435 17.408 19.1375C17.408 18.7162 17.8284 18.987 18.4975 19.84ZM46.592 19.1375C46.592 19.2435 46.1891 19.647 45.696 20.0335C44.884 20.67 44.8661 20.652 45.5025 19.84C46.1717 18.987 46.592 18.7162 46.592 19.1375ZM19.8595 22.5981C19.7315 22.9816 19.4995 22.7492 19.3183 22.057C19.0956 21.2055 19.1621 21.0053 19.542 21.3852C19.84 21.6832 19.9823 22.2285 19.8595 22.5981ZM23.6872 47.9765C23.0574 48.0978 21.9054 48.1009 21.1272 47.9836C20.3489 47.8659 20.864 47.7665 22.272 47.7624C23.68 47.7589 24.3169 47.8551 23.6872 47.9765ZM43.1432 47.9765C42.5134 48.0978 41.3614 48.1009 40.5832 47.9836C39.8049 47.8659 40.32 47.7665 41.728 47.7624C43.136 47.7589 43.7729 47.8551 43.1432 47.9765ZM33.4152 53.0965C32.7854 53.2178 31.6334 53.2209 30.8552 53.1036C30.0769 52.9859 30.592 52.8865 32 52.8824C33.408 52.8789 34.0449 52.9751 33.4152 53.0965Z" fill="#EBA2ED"/>
<path fill-rule="evenodd" clip-rule="evenodd" d="M1.024 1.024C0.023552 2.02445 0 2.7305 0 31.9109V61.7733L1.18477 62.8869L2.37005 64H32.0717H61.7733L62.8869 62.8152L64 61.63V31.8392C64 2.7305 63.9765 2.02445 62.976 1.024C61.9756 0.023552 61.2695 0 32 0C2.7305 0 2.02445 0.023552 1.024 1.024ZM10.0956 17.2728C9.97786 18.0511 9.87853 17.536 9.87443 16.128C9.87085 14.72 9.9671 14.0831 10.0884 14.7128C10.2098 15.3426 10.2129 16.4946 10.0956 17.2728ZM54.1276 17.2728C54.0099 18.0511 53.9105 17.536 53.9064 16.128C53.9029 14.72 53.9991 14.0831 54.1205 14.7128C54.2418 15.3426 54.2449 16.4946 54.1276 17.2728ZM17.7592 19.328C18.2968 19.8205 18.4827 20.0607 18.1724 19.8605C17.8627 19.6608 17.0455 19.2722 16.3564 18.9972C15.5648 18.6808 15.4127 18.4847 15.9432 18.4643C16.405 18.4468 17.2221 18.8355 17.7592 19.328ZM47.6437 18.9972C46.9545 19.2722 46.1373 19.6608 45.8276 19.8605C45.5173 20.0607 45.7032 19.8205 46.2408 19.328C46.7779 18.8355 47.595 18.4468 48.0568 18.4643C48.5873 18.4847 48.4352 18.6808 47.6437 18.9972ZM19.968 34.562V47.5597L22.4 47.7517L24.832 47.9437L22.1604 48.0358L19.4888 48.128L19.3444 34.6086C19.265 27.1729 19.3725 21.1958 19.584 21.3268C19.7955 21.4574 19.968 27.4135 19.968 34.562ZM44.544 35.072V48.128L41.856 48.0358L39.168 47.9437L41.6 47.7517L44.032 47.5597V34.7878C44.032 27.7632 44.1472 22.016 44.288 22.016C44.4288 22.016 44.544 27.8912 44.544 35.072ZM33.4152 53.0965C32.7854 53.2178 31.6334 53.2209 30.8552 53.1036C30.0769 52.9859 30.592 52.8865 32 52.8824C33.408 52.8789 34.0449 52.9751 33.4152 53.0965Z" fill="#E380E6"/>
<path fill-rule="evenodd" clip-rule="evenodd" d="M1.024 1.024C0.023552 2.02445 0 2.7305 0 31.9109V61.7733L1.18477 62.8869L2.37005 64H32.0717H61.7733L62.8869 62.8152L64 61.63V31.8392C64 2.7305 63.9765 2.02445 62.976 1.024C61.9756 0.023552 61.2695 0 32 0C2.7305 0 2.02445 0.023552 1.024 1.024ZM13.6468 18.432C16.7347 18.432 17.1136 18.5564 18.4827 20.0223L19.968 21.6125V34.5861V47.5597L22.4 47.7517L24.832 47.9437L22.144 48.0358L19.456 48.128L19.4447 34.944C19.4309 18.921 19.5825 19.3444 13.7262 18.944L9.984 18.688L9.93178 16.128L9.87955 13.568L10.0879 16L10.2963 18.432H13.6468ZM54.0662 18.2298C53.8742 18.73 52.8794 18.944 50.7459 18.944C44.566 18.944 44.544 19.0029 44.544 35.3024V48.128L41.856 48.0358L39.168 47.9437L41.6 47.7517L44.032 47.5597V35.0188C44.032 19.0034 44.2604 18.432 50.6542 18.432H53.76L53.846 16C53.9279 13.6899 53.9423 13.6668 54.1363 15.5418C54.2485 16.6277 54.2167 17.8371 54.0662 18.2298ZM29.696 35.584V52.736H32H34.304V35.584V18.432L36.992 18.5242L39.68 18.6163L37.2547 18.8078L34.8298 18.9993L34.6947 35.9957L34.56 52.992H32H29.44L29.3053 35.9957L29.1702 18.9993L26.7453 18.8078L24.32 18.6163L27.008 18.5242L29.696 18.432V35.584Z" fill="#DF6DE2"/>
<path fill-rule="evenodd" clip-rule="evenodd" d="M1.024 1.024C0.023552 2.02445 0 2.7305 0 31.9109V61.7733L1.18477 62.8869L2.37005 64H32.0717H61.7733L62.8869 62.8152L64 61.63V31.8392C64 2.7305 63.9765 2.02445 62.976 1.024C61.9756 0.023552 61.2695 0 32 0C2.7305 0 2.02445 0.023552 1.024 1.024ZM54.1706 16.256L54.3258 18.944H50.7602C47.4076 18.944 47.1158 19.0382 45.8696 20.5194L44.544 22.0943V35.1114V48.128L41.856 48.0358L39.168 47.9437L41.6 47.7517L44.032 47.5597V35.0188C44.032 19.0034 44.2604 18.432 50.6542 18.432H53.76V16.128V13.824H32H10.24V16.128V18.432H13.6187C16.7378 18.432 17.111 18.5539 18.4827 20.0223L19.968 21.6125V34.5861V47.5597L22.4 47.7517L24.832 47.9437L22.144 48.0358L19.456 48.128V35.1114V22.0943L18.1304 20.5194C16.8858 19.0403 16.5893 18.944 13.2664 18.944H9.728V16.4695C9.728 15.1081 9.88416 13.8388 10.0746 13.6479C10.2656 13.4574 20.2301 13.3612 32.2186 13.4344L54.016 13.568L54.1706 16.256ZM29.696 35.584V52.736H32H34.304V35.584V18.432L36.992 18.5242L39.68 18.6163L37.248 18.8083L34.816 19.0003V36.1242V53.248H32H29.184V36.1242V19.0003L26.752 18.8083L24.32 18.6163L27.008 18.5242L29.696 18.432V35.584Z" fill="#DA57DE"/>
<path fill-rule="evenodd" clip-rule="evenodd" d="M1.024 1.024C0.023552 2.02445 0 2.7305 0 31.9109V61.7733L1.18477 62.8869L2.37005 64H32.0717H61.7733L62.8869 62.8152L64 61.63V31.8392C64 2.7305 63.9765 2.02445 62.976 1.024C61.9756 0.023552 61.2695 0 32 0C2.7305 0 2.02445 0.023552 1.024 1.024ZM54.272 16.128V18.944H50.9046C47.8653 18.944 47.3912 19.0899 46.0406 20.4406L44.544 21.9372V35.3152V48.6938L41.856 48.5386L39.168 48.384L39.0323 33.664L38.8961 18.944H36.8563H34.816V36.096V53.248H32H29.184V36.096V18.944H27.1437H25.1039L24.9677 33.664L24.832 48.384L22.144 48.5386L19.456 48.6938V35.3152V21.9372L17.9594 20.4406C16.6088 19.0899 16.1347 18.944 13.0954 18.944H9.728V16.128V13.312H32H54.272V16.128ZM10.24 16.128V18.432H13.6187C16.7378 18.432 17.111 18.5539 18.4827 20.0223L19.968 21.6125V34.6143V47.616H22.272H24.576V33.024V18.432H27.136H29.696V35.584V52.736H32H34.304V35.584V18.432H36.864H39.424V33.024V47.616H41.728H44.032V35.0464C44.032 18.9998 44.2583 18.432 50.6542 18.432H53.76V16.128V13.824H32H10.24V16.128Z" fill="#D642DB"/>
<path fill-rule="evenodd" clip-rule="evenodd" d="M10.24 16.128V18.432H13.6187C16.7378 18.432 17.111 18.5539 18.4827 20.0223L19.968 21.6125V34.6143V47.616H22.272H24.576V33.024V18.432H27.136H29.696V35.584V52.736H32H34.304V35.584V18.432H36.864H39.424V33.024V47.616H41.728H44.032V35.0464C44.032 18.9998 44.2583 18.432 50.6542 18.432H53.76V16.128V13.824H32H10.24V16.128Z" fill="white"/>
</g>
<defs>
<clipPath id="clip0_1_142">
<rect width="64" height="64" rx="32" fill="white"/>
</clipPath>
</defs>
</svg>
