<svg width="125" height="125" viewBox="0 0 125 125" fill="none" xmlns="http://www.w3.org/2000/svg">
<path fill-rule="evenodd" clip-rule="evenodd" d="M2 2C0.046 3.954 0 5.333 0 62.326V120.651L2.314 122.826L4.629 125H62.64H120.651L122.826 122.686L125 120.371V62.186C125 5.333 124.954 3.954 123 2C121.046 0.046 119.667 0 62.5 0C5.333 0 3.954 0.046 2 2Z" fill="#F9E5FA"/>
<path fill-rule="evenodd" clip-rule="evenodd" d="M2 2C0.046 3.954 0 5.333 0 62.326V120.651L2.314 122.826L4.629 125H62.64H120.651L122.826 122.686L125 120.371V62.186C125 5.333 124.954 3.954 123 2C121.046 0.046 119.667 0 62.5 0C5.333 0 3.954 0.046 2 2ZM36.128 38.75C37.371 40.336 37.336 40.371 35.75 39.128C34.788 38.373 34 37.585 34 37.378C34 36.555 34.821 37.084 36.128 38.75ZM91 37.378C91 37.585 90.213 38.373 89.25 39.128C87.664 40.371 87.629 40.336 88.872 38.75C90.179 37.084 91 36.555 91 37.378ZM46.264 93.704C45.034 93.941 42.784 93.947 41.264 93.718C39.744 93.488 40.75 93.294 43.5 93.286C46.25 93.279 47.494 93.467 46.264 93.704ZM84.264 93.704C83.034 93.941 80.784 93.947 79.264 93.718C77.744 93.488 78.75 93.294 81.5 93.286C84.25 93.279 85.494 93.467 84.264 93.704Z" fill="#F3CAF4"/>
<path fill-rule="evenodd" clip-rule="evenodd" d="M2 2C0.046 3.954 0 5.333 0 62.326V120.651L2.314 122.826L4.629 125H62.64H120.651L122.826 122.686L125 120.371V62.186C125 5.333 124.954 3.954 123 2C121.046 0.046 119.667 0 62.5 0C5.333 0 3.954 0.046 2 2ZM19.718 33.736C19.488 35.256 19.294 34.25 19.286 31.5C19.279 28.75 19.467 27.506 19.704 28.736C19.941 29.966 19.947 32.216 19.718 33.736ZM105.718 33.736C105.488 35.256 105.294 34.25 105.286 31.5C105.279 28.75 105.467 27.506 105.704 28.736C105.941 29.966 105.947 32.216 105.718 33.736ZM36.128 38.75C37.371 40.336 37.336 40.371 35.75 39.128C34.788 38.373 34 37.585 34 37.378C34 36.555 34.821 37.084 36.128 38.75ZM91 37.378C91 37.585 90.213 38.373 89.25 39.128C87.664 40.371 87.629 40.336 88.872 38.75C90.179 37.084 91 36.555 91 37.378ZM38.788 44.137C38.538 44.886 38.085 44.432 37.731 43.08C37.296 41.417 37.426 41.026 38.168 41.768C38.75 42.35 39.028 43.415 38.788 44.137ZM46.264 93.704C45.034 93.941 42.784 93.947 41.264 93.718C39.744 93.488 40.75 93.294 43.5 93.286C46.25 93.279 47.494 93.467 46.264 93.704ZM84.264 93.704C83.034 93.941 80.784 93.947 79.264 93.718C77.744 93.488 78.75 93.294 81.5 93.286C84.25 93.279 85.494 93.467 84.264 93.704ZM65.264 103.704C64.034 103.941 61.784 103.947 60.264 103.718C58.744 103.488 59.75 103.294 62.5 103.286C65.25 103.279 66.494 103.467 65.264 103.704Z" fill="#EBA2ED"/>
<path fill-rule="evenodd" clip-rule="evenodd" d="M2 2C0.046 3.954 0 5.333 0 62.326V120.651L2.314 122.826L4.629 125H62.64H120.651L122.826 122.686L125 120.371V62.186C125 5.333 124.954 3.954 123 2C121.046 0.046 119.667 0 62.5 0C5.333 0 3.954 0.046 2 2ZM19.718 33.736C19.488 35.256 19.294 34.25 19.286 31.5C19.279 28.75 19.467 27.506 19.704 28.736C19.941 29.966 19.947 32.216 19.718 33.736ZM105.718 33.736C105.488 35.256 105.294 34.25 105.286 31.5C105.279 28.75 105.467 27.506 105.704 28.736C105.941 29.966 105.947 32.216 105.718 33.736ZM34.686 37.75C35.736 38.712 36.099 39.181 35.493 38.79C34.888 38.4 33.292 37.641 31.946 37.104C30.4 36.486 30.103 36.103 31.139 36.063C32.041 36.029 33.637 36.788 34.686 37.75ZM93.054 37.104C91.708 37.641 90.112 38.4 89.507 38.79C88.901 39.181 89.264 38.712 90.314 37.75C91.363 36.788 92.959 36.029 93.861 36.063C94.897 36.103 94.6 36.486 93.054 37.104ZM39 67.504V92.89L43.75 93.265L48.5 93.64L43.282 93.82L38.064 94L37.782 67.595C37.627 53.072 37.837 41.398 38.25 41.654C38.663 41.909 39 53.542 39 67.504ZM87 68.5V94L81.75 93.82L76.5 93.64L81.25 93.265L86 92.89V67.945C86 54.225 86.225 43 86.5 43C86.775 43 87 54.475 87 68.5ZM65.264 103.704C64.034 103.941 61.784 103.947 60.264 103.718C58.744 103.488 59.75 103.294 62.5 103.286C65.25 103.279 66.494 103.467 65.264 103.704Z" fill="#E380E6"/>
<path fill-rule="evenodd" clip-rule="evenodd" d="M2 2C0.046 3.954 0 5.333 0 62.326V120.651L2.314 122.826L4.629 125H62.64H120.651L122.826 122.686L125 120.371V62.186C125 5.333 124.954 3.954 123 2C121.046 0.046 119.667 0 62.5 0C5.333 0 3.954 0.046 2 2ZM26.654 36C32.685 36 33.425 36.243 36.099 39.106L39 42.212V67.551V92.89L43.75 93.265L48.5 93.64L43.25 93.82L38 94L37.978 68.25C37.951 36.955 38.247 37.782 26.809 37L19.5 36.5L19.398 31.5L19.296 26.5L19.703 31.25L20.11 36H26.654ZM105.598 35.605C105.223 36.582 103.28 37 99.113 37C87.043 37 87 37.115 87 68.95V94L81.75 93.82L76.5 93.64L81.25 93.265L86 92.89V68.396C86 37.116 86.446 36 98.934 36H105L105.168 31.25C105.328 26.738 105.356 26.693 105.735 30.355C105.954 32.476 105.892 34.838 105.598 35.605ZM58 69.5V103H62.5H67V69.5V36L72.25 36.18L77.5 36.36L72.763 36.734L68.027 37.108L67.763 70.304L67.5 103.5H62.5H57.5L57.237 70.304L56.973 37.108L52.237 36.734L47.5 36.36L52.75 36.18L58 36V69.5Z" fill="#DF6DE2"/>
<path fill-rule="evenodd" clip-rule="evenodd" d="M2 2C0.046 3.954 0 5.333 0 62.326V120.651L2.314 122.826L4.629 125H62.64H120.651L122.826 122.686L125 120.371V62.186C125 5.333 124.954 3.954 123 2C121.046 0.046 119.667 0 62.5 0C5.333 0 3.954 0.046 2 2ZM105.802 31.75L106.105 37H99.141C92.593 37 92.023 37.184 89.589 40.077L87 43.153V68.577V94L81.75 93.82L76.5 93.64L81.25 93.265L86 92.89V68.396C86 37.116 86.446 36 98.934 36H105V31.5V27H62.5H20V31.5V36H26.599C32.691 36 33.42 36.238 36.099 39.106L39 42.212V67.551V92.89L43.75 93.265L48.5 93.64L43.25 93.82L38 94V68.577V43.153L35.411 40.077C32.98 37.188 32.401 37 25.911 37H19V32.167C19 29.508 19.305 27.029 19.677 26.656C20.05 26.284 39.512 26.096 62.927 26.239L105.5 26.5L105.802 31.75ZM58 69.5V103H62.5H67V69.5V36L72.25 36.18L77.5 36.36L72.75 36.735L68 37.11V70.555V104H62.5H57V70.555V37.11L52.25 36.735L47.5 36.36L52.75 36.18L58 36V69.5Z" fill="#DA57DE"/>
<path fill-rule="evenodd" clip-rule="evenodd" d="M2 2C0.046 3.954 0 5.333 0 62.326V120.651L2.314 122.826L4.629 125H62.64H120.651L122.826 122.686L125 120.371V62.186C125 5.333 124.954 3.954 123 2C121.046 0.046 119.667 0 62.5 0C5.333 0 3.954 0.046 2 2ZM106 31.5V37H99.423C93.487 37 92.561 37.285 89.923 39.923L87 42.846V68.975V95.105L81.75 94.802L76.5 94.5L76.235 65.75L75.969 37H71.985H68V70.5V104H62.5H57V70.5V37H53.015H49.031L48.765 65.75L48.5 94.5L43.25 94.802L38 95.105V68.975V42.846L35.077 39.923C32.439 37.285 31.513 37 25.577 37H19V31.5V26H62.5H106V31.5ZM20 31.5V36H26.599C32.691 36 33.42 36.238 36.099 39.106L39 42.212V67.606V93H43.5H48V64.5V36H53H58V69.5V103H62.5H67V69.5V36H72H77V64.5V93H81.5H86V68.45C86 37.109 86.442 36 98.934 36H105V31.5V27H62.5H20V31.5Z" fill="#D642DB"/>
<path fill-rule="evenodd" clip-rule="evenodd" d="M20 31.5V36H26.599C32.691 36 33.42 36.238 36.099 39.106L39 42.212V67.606V93H43.5H48V64.5V36H53H58V69.5V103H62.5H67V69.5V36H72H77V64.5V93H81.5H86V68.45C86 37.109 86.442 36 98.934 36H105V31.5V27H62.5H20V31.5Z" fill="white"/>
</svg>
