<svg width="64" height="64" viewBox="0 0 64 64" fill="none" xmlns="http://www.w3.org/2000/svg">
<g clip-path="url(#clip0_1_152)">
<path fill-rule="evenodd" clip-rule="evenodd" d="M26.1333 0.163208C23.0779 0.725793 22.2315 0.920029 22 1.11203C21.8533 1.23332 21.3163 1.42644 20.8067 1.54075C19.7787 1.77159 14.2611 4.52918 13.8667 5.00932C13.7933 5.09875 13.0176 5.73736 12.1429 6.42878C9.16827 8.77945 6.62134 11.7631 4.38934 15.5109C3.55814 16.9066 2.13494 19.9588 2.13414 20.3472C2.1336 20.5479 1.9016 21.2452 1.61814 21.8972C0.84507 23.6758 0.179737 28.2436 0.166937 31.8603C0.155471 35.1413 0.798937 39.9083 1.46854 41.5022C1.66214 41.9633 1.96534 42.8277 2.14187 43.423C2.43494 44.4107 3.64054 47.0434 4.26987 48.0699C6.69414 52.0245 9.44507 55.3209 11.8667 57.1724C12.4533 57.621 12.9933 58.0547 13.0667 58.1358C13.3971 58.5021 14.82 59.3671 15 59.3109C15.1099 59.2769 15.2 59.3663 15.2 59.5097C15.2 59.653 15.4699 59.8582 15.8 59.9655C16.1299 60.0728 16.7 60.3783 17.0667 60.6441C17.4333 60.9101 18.2133 61.2871 18.8 61.4825C19.3867 61.6776 20.0011 61.9484 20.1656 62.0845C20.4499 62.3198 23.8237 63.2077 26.4 63.7256C27.9499 64.0369 33.3835 64.0369 34.9333 63.7256C37.5096 63.2077 40.8835 62.3198 41.1677 62.0845C41.3323 61.9484 41.9467 61.6767 42.5333 61.4805C43.12 61.2843 43.8861 60.8908 44.236 60.6058C44.5859 60.3207 45.0272 60.0873 45.2168 60.0873C45.4067 60.0873 45.7205 59.921 45.9144 59.7181C46.108 59.515 46.3579 59.3283 46.4696 59.3034C46.7584 59.2386 48.0683 58.3434 48.4856 57.925C48.6795 57.7308 48.9411 57.572 49.0669 57.572C49.5589 57.572 54.5955 52.0222 55.6611 50.3057C56.2816 49.3065 56.8971 48.3533 57.0293 48.1872C57.3781 47.749 59.1141 43.8604 59.3275 43.0393C59.4275 42.655 59.6667 41.9633 59.8595 41.5022C60.0523 41.041 60.3509 39.7205 60.5232 38.5677C60.6957 37.4148 60.9571 36.0314 61.1043 35.4934C61.6771 33.3988 60.6771 23.1454 59.7883 22.002C59.6419 21.8137 59.3973 21.1806 59.2451 20.5957C59.0083 19.6863 59.0333 19.508 59.4173 19.3666C59.6645 19.2757 60.3467 18.9834 60.9333 18.7171C61.52 18.4504 62.3 18.1394 62.6667 18.0254C63.0333 17.9113 63.4835 17.6922 63.6667 17.5385C64.0403 17.2255 64.1235 16.2096 63.7755 16.2096C63.652 16.2096 63.4064 15.7032 63.2293 15.0844C63.0525 14.4654 62.6136 13.5046 62.2539 12.9492C61.8941 12.3939 61.6 11.7746 61.6 11.5731C61.6 11.3716 61.4376 11.1064 61.2389 10.9834C61.0403 10.8604 60.7221 10.4454 60.5315 10.0611C59.4904 7.96031 54.6677 2.79475 53.7475 2.79475C53.4637 2.79475 52.752 3.63151 50.4693 6.64873C50.1768 7.0358 49.9933 6.97767 48.8693 6.14232C48.1712 5.62361 47.54 5.11999 47.4667 5.02302C47.3933 4.92632 46.9133 4.61806 46.4 4.3383C42.7821 2.36604 41.8784 1.92419 40.9333 1.66567C40.3467 1.50525 39.6267 1.25568 39.3333 1.11119C38.0573 0.48237 36.0955 0.23643 31.6 0.141688C28.96 0.0860723 26.5 0.0955745 26.1333 0.163208Z" fill="#00A9FF"/>
<path fill-rule="evenodd" clip-rule="evenodd" d="M26.1333 0.163208C23.0779 0.725793 22.2315 0.920029 22 1.11203C21.8533 1.23332 21.3163 1.42644 20.8067 1.54075C19.7787 1.77159 14.2611 4.52918 13.8667 5.00932C13.7933 5.09875 13.0176 5.73736 12.1429 6.42878C9.16827 8.77945 6.62134 11.7631 4.38934 15.5109C3.55814 16.9066 2.13494 19.9588 2.13414 20.3472C2.1336 20.5479 1.9016 21.2452 1.61814 21.8972C0.84507 23.6758 0.179737 28.2436 0.166937 31.8603C0.155471 35.1413 0.798937 39.9083 1.46854 41.5022C1.66214 41.9633 1.96534 42.8277 2.14187 43.423C2.43494 44.4107 3.64054 47.0434 4.26987 48.0699C6.69414 52.0245 9.44507 55.3209 11.8667 57.1724C12.4533 57.621 12.9933 58.0547 13.0667 58.1358C13.3971 58.5021 14.82 59.3671 15 59.3109C15.1099 59.2769 15.2 59.3663 15.2 59.5097C15.2 59.653 15.4699 59.8582 15.8 59.9655C16.1299 60.0728 16.7 60.3783 17.0667 60.6441C17.4333 60.9101 18.2133 61.2871 18.8 61.4825C19.3867 61.6776 20.0011 61.9484 20.1656 62.0845C20.4499 62.3198 23.8237 63.2077 26.4 63.7256C27.9499 64.0369 33.3835 64.0369 34.9333 63.7256C37.5096 63.2077 40.8835 62.3198 41.1677 62.0845C41.3323 61.9484 41.9467 61.6767 42.5333 61.4805C43.12 61.2843 43.8861 60.8908 44.236 60.6058C44.5859 60.3207 45.0272 60.0873 45.2168 60.0873C45.4067 60.0873 45.7205 59.921 45.9144 59.7181C46.108 59.515 46.3579 59.3283 46.4696 59.3034C46.7584 59.2386 48.0683 58.3434 48.4856 57.925C48.6795 57.7308 48.9411 57.572 49.0669 57.572C49.5589 57.572 54.5955 52.0222 55.6611 50.3057C56.2816 49.3065 56.8971 48.3533 57.0293 48.1872C57.3781 47.749 59.1141 43.8604 59.3275 43.0393C59.4275 42.655 59.6667 41.9633 59.8595 41.5022C60.0523 41.041 60.3509 39.7205 60.5232 38.5677C60.6957 37.4148 60.9571 36.0314 61.1043 35.4934C61.6771 33.3988 60.6771 23.1454 59.7883 22.002C59.6419 21.8137 59.3973 21.1806 59.2451 20.5957C59.0083 19.6863 59.0333 19.508 59.4173 19.3666C59.6645 19.2757 60.3467 18.9834 60.9333 18.7171C61.52 18.4504 62.3 18.1394 62.6667 18.0254C63.0333 17.9113 63.4835 17.6922 63.6667 17.5385C64.0403 17.2255 64.1235 16.2096 63.7755 16.2096C63.652 16.2096 63.4064 15.7032 63.2293 15.0844C63.0525 14.4654 62.6136 13.5046 62.2539 12.9492C61.8941 12.3939 61.6 11.7746 61.6 11.5731C61.6 11.3716 61.4376 11.1064 61.2389 10.9834C61.0403 10.8604 60.7221 10.4454 60.5315 10.0611C59.4904 7.96031 54.6677 2.79475 53.7475 2.79475C53.4637 2.79475 52.752 3.63151 50.4693 6.64873C50.1768 7.0358 49.9933 6.97767 48.8693 6.14232C48.1712 5.62361 47.54 5.11999 47.4667 5.02302C47.3933 4.92632 46.9133 4.61806 46.4 4.3383C42.7821 2.36604 41.8784 1.92419 40.9333 1.66567C40.3467 1.50525 39.6267 1.25568 39.3333 1.11119C38.0573 0.48237 36.0955 0.23643 31.6 0.141688C28.96 0.0860723 26.5 0.0955745 26.1333 0.163208ZM45.3659 17.7188C46.6701 19.1234 48.5853 22.2977 48.4744 22.8704C48.396 23.2756 47.6861 23.5981 42.5333 25.5701C39.6501 26.6737 36.2077 28.0521 34.8088 28.6633C34.4771 28.8081 34.7925 28.2313 35.668 27.0924C39.7075 21.838 42.3467 18.3876 43.0115 17.4921C43.4211 16.9404 43.8613 16.4891 43.9901 16.4891C44.1187 16.4891 44.7379 17.0424 45.3659 17.7188ZM32.9333 17.0592C34.5589 17.3029 37.5709 18.5407 38.9 19.5116C39.1859 19.7201 38.2312 21.1295 34.584 25.8845C32.0085 29.2424 29.9413 32.0316 29.9901 32.0827C30.1027 32.2009 34.8539 30.4282 39.6 28.497C43.0832 27.0798 44.0205 26.7581 44.18 26.925C44.4928 27.2531 45.0584 30.3804 45.0624 31.8052C45.0949 43.3657 33.108 50.6419 23.4712 44.9112C21.4539 43.7114 18.9747 40.974 17.9531 38.8181C17.1181 37.0563 16.2667 33.5433 16.2667 31.8603C16.2667 30.2776 17.0976 26.707 17.8139 25.2115C20.2203 20.1882 24.9323 17.0422 30.4 16.8082C30.7667 16.7926 31.9067 16.9055 32.9333 17.0592Z" fill="#77D8FF"/>
<path fill-rule="evenodd" clip-rule="evenodd" d="M26.1333 0.163207C23.0779 0.725792 22.2315 0.920028 22 1.11203C21.8533 1.23332 21.3163 1.42644 20.8067 1.54074C19.7787 1.77159 14.2611 4.52918 13.8667 5.00932C13.7933 5.09875 13.0176 5.73736 12.1429 6.42878C9.16827 8.77945 6.62134 11.7631 4.38934 15.5109C3.55814 16.9066 2.13494 19.9588 2.13414 20.3472C2.1336 20.5479 1.9016 21.2452 1.61814 21.8972C0.84507 23.6758 0.179737 28.2436 0.166937 31.8603C0.155471 35.1413 0.798937 39.9083 1.46854 41.5022C1.66214 41.9633 1.96534 42.8277 2.14187 43.423C2.43494 44.4107 3.64054 47.0433 4.26987 48.0699C6.69414 52.0244 9.44507 55.3209 11.8667 57.1724C12.4533 57.621 12.9933 58.0547 13.0667 58.1357C13.3971 58.5021 14.82 59.3671 15 59.3109C15.1099 59.2768 15.2 59.3663 15.2 59.5097C15.2 59.653 15.4699 59.8582 15.8 59.9655C16.1299 60.0728 16.7 60.3783 17.0667 60.644C17.4333 60.9101 18.2133 61.2871 18.8 61.4825C19.3867 61.6775 20.0011 61.9484 20.1656 62.0845C20.4573 62.3259 24.0019 63.2532 26.4 63.7158C27.9499 64.0145 33.3835 64.0145 34.9333 63.7158C37.3315 63.2532 40.876 62.3259 41.1677 62.0845C41.3323 61.9484 41.9467 61.6767 42.5333 61.4805C43.12 61.2843 43.8861 60.8908 44.236 60.6058C44.5859 60.3207 45.0272 60.0873 45.2168 60.0873C45.4067 60.0873 45.7205 59.921 45.9144 59.7181C46.108 59.515 46.3579 59.3283 46.4696 59.3034C46.7584 59.2386 48.0683 58.3434 48.4856 57.925C48.6795 57.7308 48.9411 57.572 49.0669 57.572C49.5589 57.572 54.5955 52.0222 55.6611 50.3057C56.2816 49.3065 56.8971 48.3533 57.0293 48.1872C57.3781 47.749 59.1141 43.8604 59.3275 43.0393C59.4275 42.655 59.6667 41.9633 59.8595 41.5022C60.0523 41.041 60.3509 39.7205 60.5232 38.5677C60.6957 37.4148 60.9571 36.0314 61.1043 35.4934C61.9427 32.4282 60.3376 21.4512 58.9165 20.5306C58.3696 20.1765 58.7189 19.589 59.6667 19.269C60.2168 19.0835 60.7867 18.8386 60.9333 18.7249C61.08 18.6111 61.68 18.3596 62.2667 18.1659C62.8533 17.9723 63.4835 17.6889 63.6667 17.5363C64.04 17.2258 64.1235 16.2096 63.7755 16.2096C63.652 16.2096 63.4064 15.7032 63.2293 15.0844C63.0525 14.4654 62.6136 13.5046 62.2539 12.9492C61.8941 12.3939 61.6 11.7746 61.6 11.5731C61.6 11.3716 61.4376 11.1064 61.2389 10.9834C61.0403 10.8604 60.7221 10.4454 60.5315 10.0611C59.4904 7.96031 54.6677 2.79475 53.7475 2.79475C53.5629 2.79475 52.8659 3.51804 52.1984 4.40174C51.5309 5.28572 50.7403 6.27842 50.4416 6.60792C50.1432 6.93742 49.9816 7.30326 50.0827 7.4212C50.184 7.53914 50.1088 7.5397 49.9155 7.42287C49.7224 7.30605 49.6309 7.14088 49.712 7.05592C49.7931 6.97068 49.5187 6.63755 49.1019 6.31531C48.6851 5.99308 48.0568 5.50679 47.7053 5.23514C46.1755 4.05184 41.8899 1.84481 40.5333 1.54158C40.02 1.42672 39.48 1.23611 39.3333 1.1179C38.6571 0.572639 36.0101 0.239504 31.6 0.144203C28.96 0.0871899 26.5 0.0955739 26.1333 0.163207ZM45.4581 17.5701C46.8587 19.0292 48.8 22.1499 48.8 22.9425C48.8 23.2912 48.2624 23.6207 46.8667 24.128C45.8032 24.5142 42.6869 25.7204 39.9416 26.8082C37.196 27.8959 34.7653 28.786 34.54 28.786C34.1563 28.786 35.7088 26.6366 41.6557 18.9345C42.8128 17.4359 43.8477 16.2096 43.9557 16.2096C44.0637 16.2096 44.7397 16.8219 45.4581 17.5701ZM34.8787 17.2286C36.5179 17.8096 38.1085 18.6092 38.9072 19.2531L39.548 19.7696L37.0405 23.0369C35.6616 24.8339 33.6008 27.5097 32.4608 28.9831C31.3208 30.4562 30.4392 31.7149 30.5016 31.7803C30.564 31.8457 31.1965 31.6462 31.9075 31.3371C34.2896 30.3016 42.2749 27.1449 43.7771 26.6452C44.3947 26.4398 44.7445 27.2472 45.1123 29.7259C45.8248 34.5293 44.3469 39.1101 40.9469 42.6385C36.3899 47.367 30.124 48.4609 24.2965 45.5445C16.4267 41.6067 13.7584 31.2507 18.592 23.4041C20.4597 20.3724 24.6848 17.4021 28 16.7906C29.884 16.443 33.2715 16.6587 34.8787 17.2286Z" fill="#FFFF00"/>
<path fill-rule="evenodd" clip-rule="evenodd" d="M26.1333 0.163207C23.0779 0.725792 22.2315 0.920028 22 1.11203C21.8533 1.23332 21.3163 1.42644 20.8067 1.54074C19.6301 1.80485 14.5664 4.38581 13.6192 5.20384C13.3888 5.4031 12.72 5.95395 12.1333 6.42822C10.4392 7.79765 6.71253 11.733 6.07013 12.8313C5.74747 13.3827 5.38267 13.9598 5.2592 14.1135C4.50213 15.0573 2.13547 19.7777 2.13413 20.3472C2.1336 20.5479 1.9016 21.2452 1.61813 21.8972C0.877866 23.6003 0.235998 28.1337 0.207732 31.8603C0.182932 35.1558 0.806666 39.9268 1.46853 41.5022C1.66213 41.9633 1.96533 42.8277 2.14187 43.423C2.43147 44.3995 3.61893 46.9975 4.2656 48.0699C4.86453 49.0634 6.46053 51.4951 6.8784 52.0516C7.75573 53.2189 10.8104 56.3507 11.8667 57.1654C12.4533 57.6179 12.9933 58.0547 13.0667 58.1357C13.3971 58.5021 14.82 59.3671 15 59.3109C15.1099 59.2768 15.2 59.3663 15.2 59.5097C15.2 59.653 15.4699 59.8582 15.8 59.9655C16.1299 60.0728 16.7 60.3783 17.0667 60.644C17.4333 60.9101 18.2133 61.2871 18.8 61.4825C19.3867 61.6775 20.0352 61.978 20.2411 62.1499C20.4469 62.322 20.6269 62.4232 20.6411 62.3748C20.6552 62.3265 20.8467 62.3564 21.0667 62.4408C21.5501 62.6267 24.7392 63.3871 26.4 63.7121C27.06 63.8415 28.98 63.9472 30.6667 63.9472C32.3533 63.9472 34.2733 63.8415 34.9333 63.7121C36.3469 63.4355 39.7504 62.6384 40.1333 62.4945C40.28 62.4394 40.4715 62.4098 40.5589 62.4285C40.6464 62.4475 40.8864 62.322 41.0923 62.1499C41.2981 61.978 41.9467 61.6767 42.5333 61.4805C43.12 61.2843 43.8861 60.8908 44.236 60.6058C44.5859 60.3207 45.0272 60.0873 45.2168 60.0873C45.4067 60.0873 45.7205 59.921 45.9144 59.7181C46.108 59.515 46.3579 59.3283 46.4696 59.3034C46.7584 59.2386 48.0683 58.3434 48.4856 57.925C48.6795 57.7308 48.932 57.572 49.0464 57.572C49.2808 57.572 53.7512 53.0191 54.4549 52.0636C54.7051 51.724 55.3347 50.7808 55.8539 49.9675C56.3733 49.1545 56.9043 48.3533 57.0339 48.1872C57.3832 47.7398 59.1176 43.8475 59.3275 43.0393C59.4275 42.655 59.6667 41.9633 59.8595 41.5022C60.0523 41.041 60.3509 39.7205 60.5232 38.5677C60.6957 37.4148 60.9571 36.0314 61.1043 35.4934C61.9427 32.4282 60.3376 21.4512 58.9165 20.5306C58.2389 20.0918 59.072 19.2458 60.5333 18.8887C60.6067 18.8708 60.7867 18.7802 60.9333 18.6874C61.08 18.5946 61.68 18.3602 62.2667 18.1662C62.8533 17.9723 63.4835 17.6889 63.6667 17.5363C64.04 17.2258 64.1235 16.2096 63.7755 16.2096C63.652 16.2096 63.4064 15.7032 63.2293 15.0844C63.0525 14.4654 62.6136 13.5046 62.2539 12.9492C61.8941 12.3939 61.6 11.7746 61.6 11.5731C61.6 11.3716 61.4376 11.1064 61.2389 10.9834C61.0403 10.8604 60.7221 10.4454 60.5315 10.0611C59.48 7.93935 54.6565 2.80621 53.7061 2.79755C53.5443 2.79587 52.8659 3.51804 52.1984 4.40174C51.5309 5.28572 50.7403 6.27842 50.4416 6.60792C50.1432 6.93742 49.9816 7.30326 50.0827 7.4212C50.184 7.53914 50.1088 7.5397 49.9155 7.42287C49.7224 7.30605 49.6309 7.14088 49.712 7.05592C49.7931 6.97068 49.5187 6.63755 49.1019 6.31531C48.6851 5.99308 48.0568 5.50679 47.7053 5.23514C46.1755 4.05184 41.8899 1.84481 40.5333 1.54158C40.02 1.42672 39.48 1.23611 39.3333 1.1179C38.6571 0.572639 36.0101 0.239504 31.6 0.144203C28.96 0.0871899 26.5 0.0955739 26.1333 0.163207ZM45.4581 17.5701C46.8587 19.0292 48.8 22.1499 48.8 22.9425C48.8 23.2912 48.2624 23.6207 46.8667 24.128C45.8032 24.5142 42.6869 25.7204 39.9416 26.8082C37.196 27.8959 34.7653 28.786 34.54 28.786C34.1563 28.786 35.7088 26.6366 41.6557 18.9345C42.8128 17.4359 43.8477 16.2096 43.9557 16.2096C44.0637 16.2096 44.7397 16.8219 45.4581 17.5701ZM34.8787 17.2286C36.5179 17.8096 38.1085 18.6092 38.9072 19.2531L39.548 19.7696L37.0405 23.0369C35.6616 24.8339 33.6008 27.5097 32.4608 28.9831C31.3208 30.4562 30.4392 31.7149 30.5016 31.7803C30.564 31.8457 31.1965 31.6462 31.9075 31.3371C34.2896 30.3016 42.2749 27.1449 43.7771 26.6452C44.3947 26.4398 44.7445 27.2472 45.1123 29.7259C45.8248 34.5293 44.3469 39.1101 40.9469 42.6385C36.3899 47.367 30.124 48.4609 24.2965 45.5445C16.4267 41.6067 13.7584 31.2507 18.592 23.4041C20.4597 20.3724 24.6848 17.4021 28 16.7906C29.884 16.443 33.2715 16.6587 34.8787 17.2286Z" fill="#808000"/>
<path fill-rule="evenodd" clip-rule="evenodd" d="M26.2019 0.448001C25.944 0.652857 25.4333 0.815792 25.0667 0.809923C24.4571 0.800141 24.4456 0.778621 24.9333 0.558953C25.3635 0.365276 25.38 0.314971 25.0189 0.299041C24.7728 0.28842 24.372 0.488525 24.1283 0.743966C23.7536 1.13663 23.648 1.14753 23.4467 0.813835C23.3043 0.578237 23.2064 0.549451 23.204 0.742289C23.2019 0.920036 22.9816 1.00584 22.7147 0.932613C22.4477 0.85939 22.0789 0.989346 21.8952 1.22159C21.7115 1.45384 21.3907 1.57513 21.1827 1.49156C20.9747 1.40772 20.7307 1.54103 20.6403 1.78753C20.5501 2.03403 20.3621 2.23581 20.2224 2.23581C20.0827 2.23581 20.0427 2.11004 20.1333 1.95633C20.224 1.80262 20.1709 1.67686 20.0157 1.67686C19.8605 1.67686 19.7333 1.8655 19.7333 2.09607C19.7333 2.48482 19.2709 2.64552 18.4667 2.53625C18.2835 2.51109 18.1333 2.62959 18.1333 2.79895C18.1333 2.9686 18.0347 3.04349 17.9141 2.96524C17.7936 2.88727 17.4949 3.06837 17.2501 3.36797C16.8696 3.83385 16.1864 4.07811 15.9213 3.8428C15.8779 3.80451 15.5016 4.1301 15.0851 4.56664C14.4968 5.18316 14.2773 5.27679 14.1013 4.98585C13.9288 4.70051 13.8739 4.73153 13.8707 5.11693C13.8685 5.39501 13.7592 5.55291 13.628 5.46795C13.4965 5.38271 13.3176 5.50903 13.2299 5.74854C13.1408 5.99197 12.9339 6.09537 12.7608 5.9833C12.5731 5.86173 12.5227 5.90449 12.6328 6.09118C12.8256 6.41817 11.7861 7.16325 11.3333 7.02295C11.1867 6.9774 11.1568 7.03497 11.2672 7.15067C11.5059 7.40053 10.7168 8.38428 10.2776 8.38428C9.904 8.38428 8.26667 10.1159 8.26667 10.5114C8.26667 10.6673 7.87867 11.1645 7.40427 11.6159C6.68373 12.3014 6.6288 12.3215 7.07093 11.738L7.6 11.0393L6.99067 11.5806C6.65547 11.8783 6.44213 12.2883 6.51653 12.4915C6.59093 12.6946 6.4152 13.0158 6.12587 13.2052C5.83653 13.3944 5.6 13.6798 5.6 13.8391C5.6 13.9987 5.36 14.3444 5.06667 14.6077C4.77333 14.8709 4.53333 15.3293 4.53333 15.6263C4.53333 15.9237 4.22267 16.5536 3.84293 17.0265C3.4632 17.4994 3.24613 17.8865 3.36053 17.8865C3.47493 17.8865 3.33573 18.0843 3.05093 18.3264C2.7664 18.5684 2.68347 18.6866 2.86667 18.5893C3.41413 18.2987 3.24453 18.9373 2.6 19.5935C2.26987 19.9294 2.15013 20.1156 2.33333 20.0071C2.5168 19.8987 2.66667 19.9325 2.66667 20.0826C2.66667 20.2324 2.54 20.3995 2.3856 20.4535C2.23093 20.5074 2.07547 20.7567 2.04053 21.0074C2.00533 21.2581 1.80187 21.6887 1.58827 21.9643C1.32933 22.2983 1.31467 22.393 1.544 22.2485C1.99813 21.9623 1.6648 23.4478 1.15493 23.9824C0.959733 24.187 0.801867 24.5025 0.804 24.6836C0.8064 24.8767 0.9152 24.8395 1.06667 24.5939C1.29653 24.2213 1.3248 24.2213 1.3208 24.5939C1.3184 24.8245 1.14027 25.2574 0.9248 25.5556C0.7096 25.854 0.5352 26.2942 0.537333 26.5337C0.541067 26.9172 0.572533 26.9191 0.8 26.5502C1.29627 25.7453 1.0824 26.8196 0.5136 27.9878C0.2096 28.6128 0.0896 29.0404 0.246933 28.9386C0.436533 28.8157 0.533333 29.231 0.533333 30.1669C0.533333 30.9444 0.413333 31.5808 0.266667 31.5808C0.12 31.5808 0 31.777 0 32.0165C0 32.256 0.12 32.3745 0.266667 32.2795C0.431733 32.1724 0.531733 32.6716 0.529333 33.5905C0.526133 34.7076 0.456 34.9706 0.245067 34.655C-0.180533 34.0178 0.231467 35.482 0.6944 36.2522C1.1416 36.9959 1.21307 37.8176 0.7744 37.1703C0.558933 36.8525 0.5328 36.9534 0.666133 37.5867C0.762933 38.0462 0.969867 38.5051 1.12613 38.6063C1.28213 38.7071 1.34533 39.0484 1.26667 39.3642C1.18773 39.68 1.212 39.9757 1.32027 40.0215C1.4288 40.0674 1.59973 40.4821 1.70027 40.9432C1.83333 41.5542 1.80933 41.6679 1.61227 41.3624C1.4632 41.1319 1.33973 41.0849 1.33733 41.2585C1.3352 41.4318 1.50613 41.7238 1.7176 41.9077C1.9288 42.0913 2.04187 42.4049 1.9688 42.6044C1.89573 42.804 2.02293 43.0424 2.25147 43.1343C2.47973 43.226 2.66667 43.4384 2.66667 43.6061C2.66667 43.7735 2.5168 43.8311 2.33333 43.7338C2.15013 43.6365 2.18747 43.7235 2.41653 43.9269C2.96293 44.4124 3.3192 45.3707 2.86373 45.1292C2.68187 45.0328 2.7664 45.1521 3.05093 45.3942C3.33573 45.6362 3.4856 45.8341 3.38427 45.8341C3.28293 45.8341 3.4512 46.0973 3.75787 46.4187C4.0648 46.7404 4.26053 47.2259 4.1928 47.4978C4.1184 47.7957 4.31333 48.1839 4.68373 48.4754C5.064 48.7747 5.2368 49.1263 5.13707 49.3985C5.03387 49.6802 5.08347 49.7688 5.27467 49.645C5.62133 49.4206 6.20773 50.4035 5.924 50.733C5.8192 50.8546 5.87733 50.8677 6.05333 50.7618C6.3576 50.579 7.036 51.4985 7.05733 52.1223C7.0624 52.276 7.22107 52.4017 7.4096 52.4017C7.8392 52.4017 8.28453 53.1236 8.07467 53.4797C7.98827 53.6261 8.03787 53.6678 8.18507 53.5725C8.5304 53.3489 9.66213 54.4456 9.4528 54.8008C9.36533 54.9492 9.39253 55.0369 9.5136 54.9961C9.6344 54.955 10.0301 55.1406 10.3928 55.4083C10.7717 55.6884 10.8917 55.8952 10.6749 55.8952C10.4152 55.8952 10.4581 56.0179 10.8128 56.2895C11.0957 56.5067 11.4187 56.6249 11.5304 56.5525C11.6421 56.4804 11.7333 56.5545 11.7333 56.7171C11.7333 56.8798 11.8581 57.0131 12.0107 57.0131C12.4688 57.0131 13.8568 58.2012 13.7029 58.4619C13.6245 58.5949 13.6592 58.6858 13.7803 58.6637C14.3064 58.5681 14.6861 58.7104 14.5448 58.9501C14.4603 59.0932 14.5133 59.2892 14.6624 59.3859C14.8115 59.4823 14.9333 59.4308 14.9333 59.2713C14.9333 59.0787 15.1568 59.0882 15.6 59.2998C15.9667 59.4747 16.2667 59.7237 16.2667 59.8529C16.2667 59.9817 16.4539 60.0873 16.6824 60.0873C16.9109 60.0873 17.0248 60.2117 16.9352 60.3637C16.8419 60.5219 16.9488 60.5689 17.1861 60.4736C17.4656 60.3612 17.6069 60.4758 17.6211 60.826C17.6325 61.1113 17.6984 61.201 17.7672 61.0253C17.9317 60.6044 18.8549 60.8679 19.0464 61.3903C19.1288 61.6155 19.3251 61.7161 19.4824 61.6141C19.64 61.5121 19.9371 61.6613 20.1427 61.9458C20.42 62.3298 20.5187 62.3592 20.5248 62.0602C20.5309 61.7659 20.6464 61.8033 20.9531 62.1999C21.184 62.4981 21.2968 62.5853 21.204 62.393C21.1072 62.1926 21.2003 62.0437 21.4224 62.0437C21.6355 62.0437 21.8787 62.2323 21.9632 62.4629C22.0475 62.6934 22.2704 62.8801 22.4584 62.8779C22.6973 62.8748 22.6797 62.7921 22.4 62.6026C22.052 62.367 22.0563 62.3312 22.4341 62.3273C22.6728 62.3251 23.0173 62.5118 23.2 62.7424C23.5928 63.2384 24.1189 63.31 23.8352 62.8287C23.7272 62.6457 24.1024 62.796 24.6688 63.163C25.3699 63.6171 25.7325 63.7233 25.8048 63.4958C25.9539 63.0271 26.9195 63.078 27.0973 63.5637C27.2144 63.8837 27.9163 63.9651 30.5336 63.9628C34.0821 63.9595 35.2216 63.8046 34.6227 63.4067C34.3688 63.2379 34.4432 63.1688 34.8824 63.1658C35.2259 63.1635 35.4253 63.2851 35.3333 63.441C35.0451 63.9301 35.9024 63.7418 36.6061 63.1616C37.336 62.5599 37.7328 62.431 37.4667 62.8821C37.2059 63.3242 37.7653 63.2068 38.1333 62.7424C38.316 62.5118 38.6605 62.3251 38.8992 62.3273C39.2771 62.3312 39.2813 62.367 38.9333 62.6026C38.6536 62.7921 38.636 62.8748 38.8749 62.8779C39.0629 62.8801 39.2859 62.6934 39.3701 62.4629C39.4547 62.2323 39.6979 62.0437 39.9109 62.0437C40.1331 62.0437 40.2261 62.1926 40.1293 62.393C40.0365 62.5853 40.1493 62.4981 40.3803 62.1999C40.6869 61.8033 40.8024 61.7659 40.8085 62.0602C40.8147 62.3592 40.9133 62.3298 41.1907 61.9458C41.3963 61.6613 41.6933 61.5121 41.8509 61.6141C42.0083 61.7161 42.2056 61.6127 42.2891 61.3844C42.5027 60.8008 43.2483 60.5574 43.508 60.9861C43.6683 61.2508 43.7261 61.2181 43.7293 60.8612C43.7317 60.5803 44.0128 60.3039 44.4 60.2022C44.7667 60.1058 45.0667 59.9347 45.0667 59.8224C45.0667 59.71 45.3667 59.4747 45.7333 59.2998C46.1765 59.0882 46.4 59.0787 46.4 59.2713C46.4 59.4308 46.5219 59.4823 46.6709 59.3859C46.82 59.2892 46.8731 59.0932 46.7885 58.9501C46.6472 58.7104 47.0269 58.5681 47.5531 58.6637C47.6741 58.6858 47.7088 58.5949 47.6304 58.4619C47.4765 58.2012 48.8645 57.0131 49.3227 57.0131C49.4752 57.0131 49.6 56.8798 49.6 56.7171C49.6 56.5545 49.7139 56.495 49.8533 56.5852C49.9925 56.6755 50.2387 56.4908 50.4 56.1747C50.5613 55.8586 50.8259 55.6859 50.988 55.791C51.1541 55.8985 51.2077 55.855 51.1109 55.6906C50.8973 55.3284 51.5688 54.7057 51.8672 54.9894C51.9872 55.1032 52.0037 55.0467 51.9035 54.8639C51.6824 54.4598 52.7723 53.329 53.1483 53.5725C53.2955 53.6678 53.3451 53.6261 53.2587 53.4797C53.0488 53.1236 53.4941 52.4017 53.9237 52.4017C54.1123 52.4017 54.2709 52.276 54.276 52.1223C54.2973 51.4985 54.9757 50.579 55.28 50.7618C55.456 50.8677 55.5141 50.8546 55.4093 50.733C55.1256 50.4035 55.712 49.4206 56.0587 49.645C56.2499 49.7688 56.2995 49.6802 56.1963 49.3985C56.0965 49.1263 56.2693 48.7747 56.6496 48.4754C57.02 48.1839 57.2149 47.7957 57.1405 47.4978C57.0728 47.2259 57.2685 46.7404 57.5755 46.4187C57.8821 46.0973 58.0504 45.8341 57.9491 45.8341C57.8477 45.8341 57.9976 45.6362 58.2824 45.3942C58.5669 45.1521 58.6515 45.0328 58.4696 45.1292C58.0141 45.3707 58.3704 44.4124 58.9168 43.9269C59.1459 43.7235 59.1835 43.6365 59 43.7338C58.8168 43.8311 58.6667 43.7735 58.6667 43.6061C58.6667 43.4384 58.8467 43.2288 59.0667 43.1405C59.2867 43.0519 59.4667 42.8599 59.4667 42.7134C59.4667 42.567 59.3168 42.5379 59.1333 42.6486C58.9501 42.7593 59.0699 42.5385 59.4 42.1581C59.7299 41.7775 59.9981 41.3485 59.996 41.2048C59.9936 41.0609 59.8701 41.1319 59.7211 41.3624C59.524 41.6679 59.5 41.5542 59.6331 40.9432C59.7336 40.4821 59.9045 40.0674 60.0131 40.0215C60.1213 39.9757 60.1499 39.6973 60.0765 39.4028C60.0029 39.1082 60.1357 38.6649 60.3715 38.4179C60.8365 37.9305 60.9683 37.0283 60.5333 37.31C60.1664 37.5479 60.1901 37.4414 60.8 36.1184C61.0933 35.482 61.3248 34.6724 61.3147 34.3191C61.2968 33.7112 61.2835 33.7068 61.0667 34.2358C60.8837 34.6821 60.8336 34.5804 60.8187 33.7302C60.8075 33.0874 60.9056 32.7342 61.0667 32.8384C61.228 32.943 61.3333 32.5564 61.3333 31.8603C61.3333 31.1641 61.228 30.7776 61.0667 30.8821C60.9056 30.9863 60.8075 30.6331 60.8187 29.9903C60.8336 29.1401 60.8837 29.0384 61.0667 29.4847C61.2835 30.0138 61.2968 30.0093 61.3147 29.4014C61.3248 29.0482 61.1043 28.262 60.8243 27.6547C60.5443 27.0471 60.4243 26.5502 60.5576 26.5502C60.6909 26.5502 60.8 26.4169 60.8 26.2543C60.8 26.0916 60.6813 26.0351 60.5363 26.129C60.3891 26.2243 60.3384 26.1207 60.4213 25.8943C60.5029 25.6713 60.4416 25.4058 60.2848 25.3043C60.1283 25.2029 60.0019 24.9072 60.004 24.6473C60.0077 24.2401 60.044 24.2325 60.2667 24.5939C60.4181 24.8395 60.5269 24.8767 60.5293 24.6836C60.5315 24.5025 60.3736 24.187 60.1784 23.9824C59.9829 23.7775 59.7395 23.2342 59.6368 22.7745C59.5013 22.1669 59.5243 22.0532 59.7211 22.3581C59.8701 22.5886 59.9936 22.6356 59.996 22.462C59.9981 22.2888 59.8213 21.9917 59.6029 21.8016C59.3845 21.6116 59.2632 21.359 59.3333 21.2402C59.4035 21.1214 59.2821 20.8688 59.0637 20.6787C58.4245 20.1226 58.5661 19.0913 59.3085 18.8962C59.6616 18.8031 60.1613 18.6424 60.4189 18.5388C60.7677 18.3987 60.8371 18.4518 60.6907 18.7473C60.5824 18.9655 60.6645 18.9258 60.8733 18.6595C61.0819 18.3929 61.3408 18.2668 61.4483 18.3795C61.5557 18.4921 61.7843 18.3828 61.9563 18.1363C62.3643 17.5514 63.6328 17.0947 63.3155 17.647C63.1349 17.9611 63.1752 17.9602 63.5488 17.6428C64.1147 17.1615 64.1333 16.3231 63.5832 16.1017C63.3539 16.0095 63.2413 15.8066 63.3333 15.6507C63.4253 15.4947 63.3248 15.2966 63.1099 15.2102C62.6115 15.0095 62.36 14.042 62.7616 13.8696C62.9293 13.7975 62.8496 13.7284 62.5843 13.7164C62.3189 13.7044 62.176 13.5686 62.2667 13.4148C62.3573 13.2611 62.3043 13.1354 62.1491 13.1354C61.9939 13.1354 61.8667 12.9467 61.8667 12.7162C61.8667 12.4856 61.7395 12.2969 61.5843 12.2969C61.4291 12.2969 61.376 12.1712 61.4667 12.0175C61.5573 11.8638 61.4744 11.736 61.2824 11.7338C61.0043 11.7302 61.0069 11.6807 61.2952 11.4893C61.5475 11.3216 61.5675 11.1911 61.3619 11.0577C61.1995 10.9527 61.0667 10.9507 61.0667 11.0538C61.0667 11.1567 60.8405 10.9482 60.564 10.5902C60.2875 10.2325 60.1128 9.79843 60.176 9.62599C60.2392 9.45356 60.0755 9.13495 59.8123 8.91808C59.3653 8.55029 59.36 8.56119 59.7333 9.08297C60.1043 9.6014 60.0995 9.61397 59.6667 9.25848C59.4099 9.04748 59.2 8.63134 59.2 8.3337C59.2 8.03577 59.0989 7.85775 58.9755 7.93768C58.6112 8.17356 56.9795 6.24294 57.2112 5.84999C57.3349 5.64011 57.3061 5.57415 57.1387 5.68259C56.9861 5.78152 56.3888 5.39221 55.8115 4.81761C55.2341 4.24301 55.0104 3.96157 55.3141 4.19214C55.8613 4.60744 55.8619 4.60549 55.3683 3.99371C55.0941 3.65387 54.7941 3.39759 54.7016 3.42414C54.6091 3.45069 54.2488 3.30732 53.9011 3.10582C53.5259 2.88811 53.3427 2.86379 53.4501 3.04629C53.5563 3.22627 53.4315 3.35539 53.1491 3.35791C52.7936 3.36126 52.7576 3.42274 53.0125 3.59239C53.2848 3.77321 53.2595 3.90652 52.8947 4.21674C52.4995 4.55322 52.4643 4.5535 52.6568 4.21869C52.8109 3.95039 52.7837 3.89031 52.5701 4.02865C52.3984 4.13988 52.3163 4.32964 52.3875 4.45066C52.4589 4.57139 52.0835 5.20133 51.5531 5.85055C50.8693 6.68786 50.4411 6.99025 50.0795 6.89104C49.6379 6.77003 49.6163 6.81335 49.9181 7.21328C50.1099 7.46704 49.7568 7.25799 49.1333 6.74851C48.5099 6.23902 48 5.69936 48 5.54956C48 5.39976 47.88 5.35476 47.7333 5.44978C47.5867 5.5448 47.4648 5.39501 47.4627 5.11693C47.4592 4.68821 47.4192 4.67508 47.2 5.03057C46.9872 5.37572 46.9408 5.37991 46.9373 5.05377C46.9352 4.83605 46.8555 4.73936 46.7605 4.83913C46.6653 4.9389 46.3744 4.76283 46.1139 4.44814C45.8536 4.13345 45.5712 3.88416 45.4869 3.89422C44.8328 3.97247 44.4821 3.83162 44.0104 3.30089C43.7115 2.96468 43.4629 2.80734 43.4587 2.95155C43.4541 3.09604 43.32 2.97894 43.1608 2.69136C42.9269 2.26935 42.8264 2.24252 42.6395 2.55162C42.4789 2.8174 42.4069 2.83025 42.404 2.59382C42.4019 2.40657 42.22 2.3258 42 2.41411C41.7467 2.51612 41.6 2.41048 41.6 2.12598C41.6 1.87892 41.4728 1.67686 41.3176 1.67686C41.1624 1.67686 41.1093 1.80262 41.2 1.95633C41.2907 2.11004 41.2507 2.23581 41.1109 2.23581C40.9712 2.23581 40.7832 2.03403 40.6931 1.78753C40.6027 1.54103 40.3587 1.40772 40.1507 1.49156C39.9427 1.57513 39.6245 1.45691 39.4437 1.22858C39.2224 0.949381 38.8677 0.870569 38.3592 0.987669C37.8475 1.10533 37.4677 1.01925 37.1827 0.72049C36.9512 0.477905 36.5605 0.28842 36.3144 0.299041C35.9533 0.314971 35.9699 0.365276 36.4 0.558953C36.9059 0.786726 36.9019 0.800141 36.324 0.818866C35.9888 0.829486 35.4488 0.664036 35.124 0.451075C34.3008 -0.0888722 26.8797 -0.0913874 26.2019 0.448001ZM16.5333 3.35371C16.2931 3.51637 16.26 3.6262 16.4509 3.629C16.6256 3.63123 16.8427 3.50742 16.9333 3.35371C17.1379 3.0066 17.0456 3.0066 16.5333 3.35371ZM50.6325 6.35808C50.3011 6.80133 50.3104 6.81111 50.7333 6.46372C51.1776 6.09845 51.3187 5.869 51.0992 5.869C51.044 5.869 50.8339 6.08922 50.6325 6.35808ZM58.1936 7.14872C58.4469 7.42568 58.7115 7.59225 58.7816 7.51874C58.8517 7.44524 58.6445 7.21859 58.3213 7.01485C57.7595 6.66131 57.7539 6.66746 58.1936 7.14872ZM45.4581 17.5701C46.8587 19.0292 48.8 22.1499 48.8 22.9425C48.8 23.2913 48.2624 23.6208 46.8667 24.128C45.8032 24.5142 42.6869 25.7205 39.9416 26.8082C37.196 27.8959 34.7653 28.786 34.54 28.786C34.1563 28.786 35.7088 26.6366 41.6557 18.9345C42.8128 17.4359 43.8477 16.2096 43.9557 16.2096C44.0637 16.2096 44.7397 16.8219 45.4581 17.5701ZM34.8787 17.2286C36.5179 17.8096 38.1085 18.6092 38.9072 19.2531L39.548 19.7696L37.0405 23.0369C35.6616 24.834 33.6008 27.5097 32.4608 28.9831C31.3208 30.4562 30.4392 31.7149 30.5016 31.7803C30.564 31.8457 31.1965 31.6462 31.9075 31.3371C34.2896 30.3016 42.2749 27.1449 43.7771 26.6452C44.3947 26.4398 44.7445 27.2472 45.1123 29.7259C45.8248 34.5293 44.3469 39.1101 40.9469 42.6385C36.3899 47.367 30.124 48.4609 24.2965 45.5445C16.4267 41.6067 13.7584 31.2507 18.592 23.4042C20.4597 20.3724 24.6848 17.4021 28 16.7906C29.884 16.443 33.2715 16.6587 34.8787 17.2286ZM48.6685 57.569C48.5752 57.7272 48.6821 57.7741 48.9195 57.6788C49.3813 57.493 49.4659 57.2926 49.0824 57.2926C48.9443 57.2926 48.7581 57.4169 48.6685 57.569Z" fill="#FFB100"/>
<path fill-rule="evenodd" clip-rule="evenodd" d="M26.8835 0.190877C27.0757 0.271646 27.3059 0.261585 27.3944 0.168799C27.4829 0.0760125 27.3256 0.0100564 27.0445 0.0220739C26.7339 0.0354888 26.6707 0.101724 26.8835 0.190877ZM29.2835 0.190877C29.4757 0.271646 29.7059 0.261585 29.7944 0.168799C29.8829 0.0760125 29.7256 0.0100564 29.4445 0.0220739C29.1339 0.0354888 29.0707 0.101724 29.2835 0.190877ZM31.6835 0.190877C31.8757 0.271646 32.1059 0.261585 32.1944 0.168799C32.2829 0.0760125 32.1256 0.0100564 31.8445 0.0220739C31.5339 0.0354888 31.4707 0.101724 31.6835 0.190877ZM34.0835 0.190877C34.2757 0.271646 34.5059 0.261585 34.5944 0.168799C34.6829 0.0760125 34.5256 0.0100564 34.2445 0.0220739C33.9339 0.0354888 33.8707 0.101724 34.0835 0.190877ZM24.7501 0.470353C24.9424 0.551121 25.1725 0.54106 25.2611 0.448274C25.3496 0.355488 25.1923 0.289532 24.9112 0.301549C24.6005 0.314964 24.5373 0.3812 24.7501 0.470353ZM36.2168 0.470353C36.4091 0.551121 36.6392 0.54106 36.7277 0.448274C36.8163 0.355488 36.6589 0.289532 36.3779 0.301549C36.0672 0.314964 36.004 0.3812 36.2168 0.470353ZM22 1.1179C21.9093 1.27161 21.9552 1.39737 22.1019 1.39737C22.2485 1.39737 22.4427 1.27161 22.5333 1.1179C22.624 0.964187 22.5781 0.838423 22.4315 0.838423C22.2848 0.838423 22.0907 0.964187 22 1.1179ZM38.8 1.1179C38.8907 1.27161 39.0848 1.39737 39.2315 1.39737C39.3781 1.39737 39.424 1.27161 39.3333 1.1179C39.2427 0.964187 39.0485 0.838423 38.9019 0.838423C38.7552 0.838423 38.7093 0.964187 38.8 1.1179ZM42.6667 2.51528C42.6667 2.66899 42.7939 2.79475 42.9491 2.79475C43.1043 2.79475 43.1573 2.66899 43.0667 2.51528C42.976 2.36157 42.8491 2.2358 42.7843 2.2358C42.7195 2.2358 42.6667 2.36157 42.6667 2.51528ZM55.0667 3.91266C55.332 4.22008 55.6093 4.47161 55.6827 4.47161C55.756 4.47161 55.5987 4.22008 55.3333 3.91266C55.068 3.60524 54.7907 3.35371 54.7173 3.35371C54.644 3.35371 54.8013 3.60524 55.0667 3.91266ZM50.6325 6.35807C50.3011 6.80132 50.3104 6.8111 50.7333 6.46372C51.1776 6.09844 51.3187 5.86899 51.0992 5.86899C51.044 5.86899 50.8339 6.08922 50.6325 6.35807ZM46.9333 9.69613C45.6867 11.3 44.532 12.7321 44.3675 12.8782C44.168 13.0557 43.4581 12.7556 42.2363 11.9775C38.3875 9.52705 34.2155 8.4765 29.3944 8.74368C25.8216 8.94183 24.0547 9.43259 20.6264 11.1799C18.4472 12.2902 17.4725 13.0026 15.6293 14.8309C10.7933 19.6287 8.41307 25.2915 8.41307 32C8.41307 38.322 10.6136 43.8551 14.9192 48.3597C17.7053 51.2746 20.5003 53.075 24.1333 54.2955C26.6315 55.1345 27.0443 55.1909 30.6667 55.1887C34.1688 55.1864 34.7595 55.1115 36.9315 54.393C41.1045 53.013 43.9421 51.1877 46.8323 48.0238C51.8619 42.5181 54.0339 34.714 52.5365 27.5284C52.2163 25.9913 51.9344 24.5033 51.9104 24.2216C51.8752 23.8108 52.5648 23.4304 55.4053 22.2935C58.6203 21.0068 58.9285 20.8235 58.7755 20.2902C58.4971 19.321 58.236 19.2137 57.3392 19.7C56.8688 19.9549 56.4531 20.1228 56.4157 20.0731C56.3784 20.0233 55.8973 19.0393 55.3469 17.8865C54.0931 15.2602 52.8109 13.4573 50.584 11.1883L48.8395 9.41079L49.4381 8.54805C49.7675 8.07378 50.0285 7.50896 50.0184 7.29292C49.9704 6.26948 49.0232 7.00758 46.9333 9.69613ZM58.1936 7.14871C58.4469 7.42567 58.7115 7.59224 58.7816 7.51874C58.8517 7.44524 58.6445 7.21858 58.3213 7.01484C57.7595 6.66131 57.7539 6.66745 58.1936 7.14871ZM59.4667 8.76939C59.4667 8.82724 59.6765 9.04747 59.9333 9.25847C60.3563 9.60586 60.3656 9.59608 60.0341 9.15283C59.6856 8.68723 59.4667 8.53938 59.4667 8.76939ZM61.0667 11.179C61.0667 11.3327 61.1939 11.4585 61.3491 11.4585C61.5043 11.4585 61.5573 11.3327 61.4667 11.179C61.376 11.0253 61.2491 10.8996 61.1843 10.8996C61.1195 10.8996 61.0667 11.0253 61.0667 11.179ZM6.77467 11.8079L6.26667 12.4367L6.86667 11.9043C7.4304 11.404 7.588 11.179 7.37467 11.179C7.324 11.179 7.05414 11.4621 6.77467 11.8079ZM45.4581 17.5701C46.8587 19.0292 48.8 22.1499 48.8 22.9425C48.8 23.2912 48.2624 23.6207 46.8667 24.128C45.8032 24.5142 42.6869 25.7204 39.9416 26.8082C37.196 27.8959 34.7653 28.786 34.54 28.786C34.1563 28.786 35.7088 26.6366 41.6557 18.9345C42.8128 17.4359 43.8477 16.2096 43.9557 16.2096C44.0637 16.2096 44.7397 16.8219 45.4581 17.5701ZM34.8787 17.2286C36.5179 17.8096 38.1085 18.6092 38.9072 19.2531L39.548 19.7696L37.0405 23.0369C35.6616 24.834 33.6008 27.5097 32.4608 28.9831C31.3208 30.4562 30.4392 31.7149 30.5016 31.7803C30.564 31.8457 31.1965 31.6462 31.9075 31.3371C34.2896 30.3016 42.2749 27.1449 43.7771 26.6452C44.3947 26.4398 44.7445 27.2472 45.1123 29.7259C45.8248 34.5293 44.3469 39.1101 40.9469 42.6385C36.3899 47.367 30.124 48.4609 24.2965 45.5445C16.4267 41.6067 13.7584 31.2507 18.592 23.4042C20.4597 20.3724 24.6848 17.4021 28 16.7906C29.884 16.443 33.2715 16.6587 34.8787 17.2286ZM0.554404 26.4337C0.567204 26.7593 0.630404 26.8255 0.71547 26.6028C0.792537 26.401 0.782937 26.1598 0.694404 26.067C0.60587 25.9742 0.542937 26.1391 0.554404 26.4337ZM60.8229 28.3668C60.8309 28.6742 60.9405 29.1773 61.0667 29.4847C61.2765 29.9967 61.2971 29.985 61.3104 29.345C61.3187 28.9607 61.2088 28.4576 61.0667 28.2271C60.8533 27.8811 60.8107 27.9054 60.8229 28.3668ZM0.150403 28.7041C0.00587006 29.1024 0.03627 29.1345 0.299737 28.8606C0.482137 28.6709 0.564004 28.4453 0.48187 28.3595C0.399737 28.2735 0.25067 28.4286 0.150403 28.7041ZM60.948 34.6053C60.8387 35.1156 60.8149 35.6022 60.8949 35.6863C61.0957 35.8965 61.4136 34.4845 61.2661 34.0382C61.2005 33.8395 61.0573 34.0947 60.948 34.6053ZM0.0229367 34.5153C0.0506699 35.0446 0.494937 35.9361 0.510404 35.4934C0.51867 35.2629 0.408804 34.8856 0.26667 34.655C0.124537 34.4244 0.01467 34.3616 0.0229367 34.5153ZM0.554404 37.3332C0.567204 37.6588 0.630404 37.7251 0.71547 37.5023C0.792537 37.3005 0.782937 37.0593 0.694404 36.9666C0.60587 36.8738 0.542937 37.0387 0.554404 37.3332ZM60.5544 37.6127C60.5672 37.9383 60.6304 38.0045 60.7155 37.7818C60.7925 37.58 60.7829 37.3388 60.6944 37.246C60.6059 37.1533 60.5429 37.3181 60.5544 37.6127ZM10.4221 55.9743C10.4835 56.0179 10.7733 56.2378 11.0667 56.4634C11.56 56.8426 11.5725 56.8367 11.2341 56.3843C11.0328 56.1151 10.7427 55.8952 10.5896 55.8952C10.4365 55.8952 10.3611 55.9307 10.4221 55.9743ZM48.6685 57.569C48.5752 57.7272 48.6821 57.7741 48.9195 57.6788C49.3813 57.493 49.4659 57.2926 49.0824 57.2926C48.9443 57.2926 48.7581 57.4169 48.6685 57.569ZM14.5333 59.2489C14.624 59.4026 14.7509 59.5284 14.8157 59.5284C14.8805 59.5284 14.9333 59.4026 14.9333 59.2489C14.9333 59.0952 14.8061 58.9694 14.6509 58.9694C14.4957 58.9694 14.4427 59.0952 14.5333 59.2489ZM46.4 59.2654C46.4 59.428 46.52 59.4837 46.6667 59.3886C46.8133 59.2936 46.9333 59.1606 46.9333 59.0927C46.9333 59.0248 46.8133 58.9694 46.6667 58.9694C46.52 58.9694 46.4 59.1027 46.4 59.2654ZM20.1333 62.0437C20.224 62.1974 20.3509 62.3231 20.4157 62.3231C20.4805 62.3231 20.5333 62.1974 20.5333 62.0437C20.5333 61.89 20.4061 61.7642 20.2509 61.7642C20.0957 61.7642 20.0427 61.89 20.1333 62.0437ZM40.8 62.0602C40.8 62.2228 40.92 62.2784 41.0667 62.1834C41.2133 62.0884 41.3333 61.9553 41.3333 61.8874C41.3333 61.8195 41.2133 61.7642 41.0667 61.7642C40.92 61.7642 40.8 61.8975 40.8 62.0602ZM25.0667 63.441C25.5837 63.7912 25.8667 63.7912 25.8667 63.441C25.8667 63.2873 25.5965 63.1635 25.2667 63.1658C24.7816 63.1694 24.7432 63.2219 25.0667 63.441ZM35.3333 63.441C35.1235 63.7968 35.7413 63.7968 36.2667 63.441C36.5917 63.2208 36.5573 63.1694 36.0824 63.1658C35.7611 63.1635 35.424 63.2873 35.3333 63.441ZM28.4 63.7205C28.3093 63.8742 28.3624 64 28.5176 64C28.6728 64 28.8 63.8742 28.8 63.7205C28.8 63.5668 28.7472 63.441 28.6824 63.441C28.6176 63.441 28.4907 63.5668 28.4 63.7205ZM29.3333 63.7205C29.0525 63.9106 29.4504 63.9913 30.6667 63.9913C31.8829 63.9913 32.2808 63.9106 32 63.7205C31.78 63.5716 31.18 63.4497 30.6667 63.4497C30.1533 63.4497 29.5533 63.5716 29.3333 63.7205ZM32.5333 63.7205C32.5333 63.8742 32.6605 64 32.8157 64C32.9709 64 33.024 63.8742 32.9333 63.7205C32.8427 63.5668 32.7157 63.441 32.6509 63.441C32.5861 63.441 32.5333 63.5668 32.5333 63.7205Z" fill="#FF0000"/>
<path fill-rule="evenodd" clip-rule="evenodd" d="M26.8835 0.190877C27.0757 0.271646 27.3059 0.261585 27.3944 0.168799C27.4829 0.0760125 27.3256 0.0100564 27.0445 0.0220739C26.7339 0.0354888 26.6707 0.101724 26.8835 0.190877ZM29.2835 0.190877C29.4757 0.271646 29.7059 0.261585 29.7944 0.168799C29.8829 0.0760125 29.7256 0.0100564 29.4445 0.0220739C29.1339 0.0354888 29.0707 0.101724 29.2835 0.190877ZM31.6835 0.190877C31.8757 0.271646 32.1059 0.261585 32.1944 0.168799C32.2829 0.0760125 32.1256 0.0100564 31.8445 0.0220739C31.5339 0.0354888 31.4707 0.101724 31.6835 0.190877ZM34.0835 0.190877C34.2757 0.271646 34.5059 0.261585 34.5944 0.168799C34.6829 0.0760125 34.5256 0.0100564 34.2445 0.0220739C33.9339 0.0354888 33.8707 0.101724 34.0835 0.190877ZM24.7501 0.470353C24.9424 0.551121 25.1725 0.54106 25.2611 0.448274C25.3496 0.355488 25.1923 0.289532 24.9112 0.301549C24.6005 0.314964 24.5373 0.3812 24.7501 0.470353ZM36.2168 0.470353C36.4091 0.551121 36.6392 0.54106 36.7277 0.448274C36.8163 0.355488 36.6589 0.289532 36.3779 0.301549C36.0672 0.314964 36.004 0.3812 36.2168 0.470353ZM22 1.1179C21.9093 1.27161 21.9624 1.39737 22.1176 1.39737C22.2728 1.39737 22.4 1.27161 22.4 1.1179C22.4 0.964187 22.3472 0.838423 22.2824 0.838423C22.2176 0.838423 22.0907 0.964187 22 1.1179ZM38.9333 1.1179C38.9333 1.27161 39.0605 1.39737 39.2157 1.39737C39.3709 1.39737 39.424 1.27161 39.3333 1.1179C39.2427 0.964187 39.1157 0.838423 39.0509 0.838423C38.9861 0.838423 38.9333 0.964187 38.9333 1.1179ZM42.6667 2.51528C42.6667 2.66899 42.7939 2.79475 42.9491 2.79475C43.1043 2.79475 43.1573 2.66899 43.0667 2.51528C42.976 2.36157 42.8491 2.2358 42.7843 2.2358C42.7195 2.2358 42.6667 2.36157 42.6667 2.51528ZM55.0667 3.91266C55.332 4.22008 55.6093 4.47161 55.6827 4.47161C55.756 4.47161 55.5987 4.22008 55.3333 3.91266C55.068 3.60524 54.7907 3.35371 54.7173 3.35371C54.644 3.35371 54.8013 3.60524 55.0667 3.91266ZM50.6325 6.35807C50.3011 6.80132 50.3104 6.8111 50.7333 6.46372C51.1776 6.09844 51.3187 5.86899 51.0992 5.86899C51.044 5.86899 50.8339 6.08922 50.6325 6.35807ZM46.9333 9.69613C45.6867 11.3 44.532 12.7321 44.3675 12.8782C44.168 13.0557 43.4581 12.7556 42.2363 11.9775C38.3875 9.52705 34.2155 8.4765 29.3944 8.74368C25.8216 8.94183 24.0547 9.43259 20.6264 11.1799C18.4472 12.2902 17.4725 13.0026 15.6293 14.8309C10.7933 19.6287 8.41307 25.2915 8.41307 32C8.41307 38.322 10.6136 43.8551 14.9192 48.3597C17.7053 51.2746 20.5003 53.075 24.1333 54.2955C26.6315 55.1345 27.0443 55.1909 30.6667 55.1887C34.1688 55.1864 34.7595 55.1115 36.9315 54.393C41.1045 53.013 43.9421 51.1877 46.8323 48.0238C51.8619 42.5181 54.0339 34.714 52.5365 27.5284C52.2163 25.9913 51.9344 24.5033 51.9104 24.2216C51.8752 23.8108 52.5648 23.4304 55.4053 22.2935C58.6203 21.0068 58.9285 20.8235 58.7755 20.2902C58.4971 19.321 58.236 19.2137 57.3392 19.7C56.8688 19.9549 56.4531 20.1228 56.4157 20.0731C56.3784 20.0233 55.8973 19.0393 55.3469 17.8865C54.0931 15.2602 52.8109 13.4573 50.584 11.1883L48.8395 9.41079L49.4381 8.54805C49.7675 8.07378 50.0285 7.50896 50.0184 7.29292C49.9704 6.26948 49.0232 7.00758 46.9333 9.69613ZM58.1936 7.14871C58.4469 7.42567 58.7115 7.59224 58.7816 7.51874C58.8517 7.44524 58.6445 7.21858 58.3213 7.01484C57.7595 6.66131 57.7539 6.66745 58.1936 7.14871ZM59.4667 8.76939C59.4667 8.82724 59.6765 9.04747 59.9333 9.25847C60.3563 9.60586 60.3656 9.59608 60.0341 9.15283C59.6856 8.68723 59.4667 8.53938 59.4667 8.76939ZM6.77467 11.8079L6.26667 12.4367L6.86667 11.9043C7.4304 11.404 7.588 11.179 7.37467 11.179C7.324 11.179 7.05414 11.4621 6.77467 11.8079ZM45.4581 17.5701C46.8587 19.0292 48.8 22.1499 48.8 22.9425C48.8 23.2912 48.2624 23.6207 46.8667 24.128C45.8032 24.5142 42.6869 25.7204 39.9416 26.8082C37.196 27.8959 34.7653 28.786 34.54 28.786C34.1563 28.786 35.7088 26.6366 41.6557 18.9345C42.8128 17.4359 43.8477 16.2096 43.9557 16.2096C44.0637 16.2096 44.7397 16.8219 45.4581 17.5701ZM34.8787 17.2286C36.5179 17.8096 38.1085 18.6092 38.9072 19.2531L39.548 19.7696L37.0405 23.0369C35.6616 24.834 33.6008 27.5097 32.4608 28.9831C31.3208 30.4562 30.4392 31.7149 30.5016 31.7803C30.564 31.8457 31.1965 31.6462 31.9075 31.3371C34.2896 30.3016 42.2749 27.1449 43.7771 26.6452C44.3947 26.4398 44.7445 27.2472 45.1123 29.7259C45.8248 34.5293 44.3469 39.1101 40.9469 42.6385C36.3899 47.367 30.124 48.4609 24.2965 45.5445C16.4267 41.6067 13.7584 31.2507 18.592 23.4042C20.4597 20.3724 24.6848 17.4021 28 16.7906C29.884 16.443 33.2715 16.6587 34.8787 17.2286ZM0.554403 26.4337C0.567203 26.7593 0.630403 26.8255 0.715469 26.6028C0.792536 26.401 0.782936 26.1598 0.694403 26.067C0.605869 25.9742 0.542936 26.1391 0.554403 26.4337ZM60.804 28.4367C60.8019 28.7824 60.92 29.0655 61.0667 29.0655C61.4008 29.0655 61.4008 28.769 61.0667 28.2271C60.8576 27.8881 60.8075 27.9283 60.804 28.4367ZM0.150403 28.7041C0.00586992 29.1024 0.03627 29.1345 0.299736 28.8606C0.482136 28.6709 0.564003 28.4453 0.481869 28.3595C0.399736 28.2735 0.25067 28.4286 0.150403 28.7041ZM0.194936 35.2363C0.289336 35.6142 0.410136 35.7411 0.476803 35.5317C0.540803 35.33 0.466669 35.0323 0.311469 34.8697C0.113603 34.6623 0.0789364 34.7716 0.194936 35.2363ZM60.804 35.2838C60.8075 35.7922 60.8576 35.8324 61.0667 35.4934C61.4008 34.9515 61.4008 34.655 61.0667 34.655C60.92 34.655 60.8019 34.9378 60.804 35.2838ZM0.554403 37.3332C0.567203 37.6588 0.630403 37.7251 0.715469 37.5023C0.792536 37.3005 0.782936 37.0593 0.694403 36.9666C0.605869 36.8738 0.542936 37.0387 0.554403 37.3332ZM60.5544 37.6127C60.5672 37.9383 60.6304 38.0045 60.7155 37.7818C60.7925 37.58 60.7829 37.3388 60.6944 37.246C60.6059 37.1533 60.5429 37.3181 60.5544 37.6127ZM10.4221 55.9743C10.4835 56.0179 10.7733 56.2378 11.0667 56.4634C11.56 56.8426 11.5725 56.8367 11.2341 56.3843C11.0328 56.1151 10.7427 55.8952 10.5896 55.8952C10.4365 55.8952 10.3611 55.9307 10.4221 55.9743ZM48.6685 57.569C48.5752 57.7272 48.6821 57.7741 48.9195 57.6788C49.3813 57.493 49.4659 57.2926 49.0824 57.2926C48.9443 57.2926 48.7581 57.4169 48.6685 57.569ZM14.5333 59.2489C14.624 59.4026 14.7509 59.5284 14.8157 59.5284C14.8805 59.5284 14.9333 59.4026 14.9333 59.2489C14.9333 59.0952 14.8061 58.9694 14.6509 58.9694C14.4957 58.9694 14.4427 59.0952 14.5333 59.2489ZM46.4 59.2654C46.4 59.428 46.52 59.4837 46.6667 59.3886C46.8133 59.2936 46.9333 59.1606 46.9333 59.0927C46.9333 59.0248 46.8133 58.9694 46.6667 58.9694C46.52 58.9694 46.4 59.1027 46.4 59.2654ZM20.1333 62.0437C20.224 62.1974 20.3509 62.3231 20.4157 62.3231C20.4805 62.3231 20.5333 62.1974 20.5333 62.0437C20.5333 61.89 20.4061 61.7642 20.2509 61.7642C20.0957 61.7642 20.0427 61.89 20.1333 62.0437ZM40.8 62.0602C40.8 62.2228 40.92 62.2784 41.0667 62.1834C41.2133 62.0884 41.3333 61.9553 41.3333 61.8874C41.3333 61.8195 41.2133 61.7642 41.0667 61.7642C40.92 61.7642 40.8 61.8975 40.8 62.0602ZM25.0667 63.441C25.5837 63.7912 25.8667 63.7912 25.8667 63.441C25.8667 63.2873 25.5965 63.1635 25.2667 63.1658C24.7816 63.1694 24.7432 63.2219 25.0667 63.441ZM35.4667 63.441C35.4667 63.7912 35.7496 63.7912 36.2667 63.441C36.5901 63.2219 36.5517 63.1694 36.0667 63.1658C35.7365 63.1635 35.4667 63.2873 35.4667 63.441ZM28.4 63.7205C28.3093 63.8742 28.3624 64 28.5176 64C28.6728 64 28.8 63.8742 28.8 63.7205C28.8 63.5668 28.7472 63.441 28.6824 63.441C28.6176 63.441 28.4907 63.5668 28.4 63.7205ZM29.3333 63.7205C29.0525 63.9106 29.4504 63.9913 30.6667 63.9913C31.8829 63.9913 32.2808 63.9106 32 63.7205C31.78 63.5716 31.18 63.4497 30.6667 63.4497C30.1533 63.4497 29.5533 63.5716 29.3333 63.7205ZM32.5333 63.7205C32.5333 63.8742 32.6605 64 32.8157 64C32.9709 64 33.024 63.8742 32.9333 63.7205C32.8427 63.5668 32.7157 63.441 32.6509 63.441C32.5861 63.441 32.5333 63.5668 32.5333 63.7205Z" fill="white"/>
<path fill-rule="evenodd" clip-rule="evenodd" d="M26.8835 0.190877C27.0757 0.271646 27.3059 0.261585 27.3944 0.168799C27.4829 0.0760125 27.3256 0.0100564 27.0445 0.0220739C26.7339 0.0354888 26.6707 0.101724 26.8835 0.190877ZM34.0835 0.190877C34.2757 0.271646 34.5059 0.261585 34.5944 0.168799C34.6829 0.0760125 34.5256 0.0100564 34.2445 0.0220739C33.9339 0.0354888 33.8707 0.101724 34.0835 0.190877ZM24.7501 0.470353C24.9424 0.551121 25.1725 0.54106 25.2611 0.448274C25.3496 0.355488 25.1923 0.289532 24.9112 0.301549C24.6005 0.314964 24.5373 0.3812 24.7501 0.470353ZM36.2168 0.470353C36.4091 0.551121 36.6392 0.54106 36.7277 0.448274C36.8163 0.355488 36.6589 0.289532 36.3779 0.301549C36.0672 0.314964 36.004 0.3812 36.2168 0.470353ZM22 1.1179C21.9093 1.27161 21.9624 1.39737 22.1176 1.39737C22.2728 1.39737 22.4 1.27161 22.4 1.1179C22.4 0.964187 22.3472 0.838423 22.2824 0.838423C22.2176 0.838423 22.0907 0.964187 22 1.1179ZM38.9333 1.1179C38.9333 1.27161 39.0605 1.39737 39.2157 1.39737C39.3709 1.39737 39.424 1.27161 39.3333 1.1179C39.2427 0.964187 39.1157 0.838423 39.0509 0.838423C38.9861 0.838423 38.9333 0.964187 38.9333 1.1179ZM42.6667 2.51528C42.6667 2.66899 42.7939 2.79475 42.9491 2.79475C43.1043 2.79475 43.1573 2.66899 43.0667 2.51528C42.976 2.36157 42.8491 2.2358 42.7843 2.2358C42.7195 2.2358 42.6667 2.36157 42.6667 2.51528ZM55.0667 3.91266C55.332 4.22008 55.6093 4.47161 55.6827 4.47161C55.756 4.47161 55.5987 4.22008 55.3333 3.91266C55.068 3.60524 54.7907 3.35371 54.7173 3.35371C54.644 3.35371 54.8013 3.60524 55.0667 3.91266ZM50.6325 6.35807C50.3011 6.80132 50.3104 6.8111 50.7333 6.46372C51.1776 6.09844 51.3187 5.86899 51.0992 5.86899C51.044 5.86899 50.8339 6.08922 50.6325 6.35807ZM58.1936 7.14871C58.4469 7.42567 58.7115 7.59224 58.7816 7.51874C58.8517 7.44524 58.6445 7.21858 58.3213 7.01484C57.7595 6.66131 57.7539 6.66745 58.1936 7.14871ZM59.4667 8.76939C59.4667 8.82724 59.6765 9.04747 59.9333 9.25847C60.3563 9.60586 60.3656 9.59608 60.0341 9.15283C59.6856 8.68723 59.4667 8.53938 59.4667 8.76939ZM6.77467 11.8079L6.26667 12.4367L6.86667 11.9043C7.4304 11.404 7.588 11.179 7.37467 11.179C7.324 11.179 7.05414 11.4621 6.77467 11.8079ZM0.554403 26.4337C0.567203 26.7593 0.630403 26.8255 0.715469 26.6028C0.792536 26.401 0.782936 26.1598 0.694403 26.067C0.605869 25.9742 0.542936 26.1391 0.554403 26.4337ZM60.804 28.4367C60.8019 28.7824 60.92 29.0655 61.0667 29.0655C61.4008 29.0655 61.4008 28.769 61.0667 28.2271C60.8576 27.8881 60.8075 27.9283 60.804 28.4367ZM0.150403 28.7041C0.00586992 29.1024 0.03627 29.1345 0.299736 28.8606C0.482136 28.6709 0.564003 28.4453 0.481869 28.3595C0.399736 28.2735 0.25067 28.4286 0.150403 28.7041ZM0.194936 35.2363C0.289336 35.6142 0.410136 35.7411 0.476803 35.5317C0.540803 35.33 0.466669 35.0323 0.311469 34.8697C0.113603 34.6623 0.0789364 34.7716 0.194936 35.2363ZM60.804 35.2838C60.8075 35.7922 60.8576 35.8324 61.0667 35.4934C61.4008 34.9515 61.4008 34.655 61.0667 34.655C60.92 34.655 60.8019 34.9378 60.804 35.2838ZM0.554403 37.3332C0.567203 37.6588 0.630403 37.7251 0.715469 37.5023C0.792536 37.3005 0.782936 37.0593 0.694403 36.9666C0.605869 36.8738 0.542936 37.0387 0.554403 37.3332ZM60.5544 37.6127C60.5672 37.9383 60.6304 38.0045 60.7155 37.7818C60.7925 37.58 60.7829 37.3388 60.6944 37.246C60.6059 37.1533 60.5429 37.3181 60.5544 37.6127ZM10.4221 55.9743C10.4835 56.0179 10.7733 56.2378 11.0667 56.4634C11.56 56.8426 11.5725 56.8367 11.2341 56.3843C11.0328 56.1151 10.7427 55.8952 10.5896 55.8952C10.4365 55.8952 10.3611 55.9307 10.4221 55.9743ZM48.6685 57.569C48.5752 57.7272 48.6821 57.7741 48.9195 57.6788C49.3813 57.493 49.4659 57.2926 49.0824 57.2926C48.9443 57.2926 48.7581 57.4169 48.6685 57.569ZM14.5333 59.2489C14.624 59.4026 14.7509 59.5284 14.8157 59.5284C14.8805 59.5284 14.9333 59.4026 14.9333 59.2489C14.9333 59.0952 14.8061 58.9694 14.6509 58.9694C14.4957 58.9694 14.4427 59.0952 14.5333 59.2489ZM46.4 59.2654C46.4 59.428 46.52 59.4837 46.6667 59.3886C46.8133 59.2936 46.9333 59.1606 46.9333 59.0927C46.9333 59.0248 46.8133 58.9694 46.6667 58.9694C46.52 58.9694 46.4 59.1027 46.4 59.2654ZM20.1333 62.0437C20.224 62.1974 20.3509 62.3231 20.4157 62.3231C20.4805 62.3231 20.5333 62.1974 20.5333 62.0437C20.5333 61.89 20.4061 61.7642 20.2509 61.7642C20.0957 61.7642 20.0427 61.89 20.1333 62.0437ZM40.8 62.0602C40.8 62.2228 40.92 62.2784 41.0667 62.1834C41.2133 62.0884 41.3333 61.9553 41.3333 61.8874C41.3333 61.8195 41.2133 61.7642 41.0667 61.7642C40.92 61.7642 40.8 61.8975 40.8 62.0602ZM25.0667 63.441C25.5837 63.7912 25.8667 63.7912 25.8667 63.441C25.8667 63.2873 25.5965 63.1635 25.2667 63.1658C24.7816 63.1694 24.7432 63.2219 25.0667 63.441ZM35.4667 63.441C35.4667 63.7912 35.7496 63.7912 36.2667 63.441C36.5901 63.2219 36.5517 63.1694 36.0667 63.1658C35.7365 63.1635 35.4667 63.2873 35.4667 63.441Z" fill="black"/>
</g>
<defs>
<clipPath id="clip0_1_152">
<rect width="64" height="64" rx="32" fill="white"/>
</clipPath>
</defs>
</svg>
