<svg width="240" height="229" viewBox="0 0 240 229" fill="none" xmlns="http://www.w3.org/2000/svg">
<path fill-rule="evenodd" clip-rule="evenodd" d="M98 0.583998C86.542 2.597 83.368 3.292 82.5 3.979C81.95 4.413 79.936 5.104 78.025 5.513C74.17 6.339 53.479 16.206 52 17.924C51.725 18.244 48.816 20.529 45.536 23.003C34.381 31.414 24.83 42.09 16.46 55.5C13.343 60.494 8.006 71.415 8.003 72.805C8.001 73.523 7.131 76.018 6.068 78.351C3.169 84.715 0.674001 101.059 0.626001 114C0.583001 125.74 2.996 142.797 5.507 148.5C6.233 150.15 7.37 153.243 8.032 155.373C9.131 158.907 13.652 168.327 16.012 172C25.103 186.15 35.419 197.945 44.5 204.57C46.7 206.175 48.725 207.727 49 208.017C50.239 209.328 55.575 212.423 56.25 212.222C56.662 212.1 57 212.42 57 212.933C57 213.446 58.012 214.18 59.25 214.564C60.487 214.948 62.625 216.041 64 216.992C65.375 217.944 68.3 219.293 70.5 219.992C72.7 220.69 75.004 221.659 75.621 222.146C76.687 222.988 89.339 226.165 99 228.018C104.812 229.132 125.188 229.132 131 228.018C140.661 226.165 153.313 222.988 154.379 222.146C154.996 221.659 157.3 220.687 159.5 219.985C161.7 219.283 164.573 217.875 165.885 216.855C167.197 215.835 168.852 215 169.563 215C170.275 215 171.452 214.405 172.179 213.679C172.905 212.952 173.842 212.284 174.261 212.195C175.344 211.963 180.256 208.76 181.821 207.263C182.548 206.568 183.529 206 184.001 206C185.846 206 204.733 186.142 208.729 180C211.056 176.425 213.364 173.014 213.86 172.42C215.168 170.852 221.678 156.938 222.478 154C222.853 152.625 223.75 150.15 224.473 148.5C225.196 146.85 226.316 142.125 226.962 138C227.609 133.875 228.589 128.925 229.141 127C231.289 119.505 227.539 82.817 224.206 78.726C223.657 78.052 222.74 75.787 222.169 73.694C221.281 70.44 221.375 69.802 222.815 69.296C223.742 68.971 226.3 67.925 228.5 66.972C230.7 66.018 233.625 64.905 235 64.497C236.375 64.089 238.063 63.305 238.75 62.755C240.151 61.635 240.463 58 239.158 58C238.695 58 237.774 56.188 237.11 53.974C236.447 51.759 234.801 48.321 233.452 46.334C232.103 44.347 231 42.131 231 41.41C231 40.689 230.391 39.74 229.646 39.3C228.901 38.86 227.708 37.375 226.993 36C223.089 28.483 205.004 10 201.553 10C200.489 10 197.82 12.994 189.26 23.79C188.163 25.175 187.475 24.967 183.26 21.978C180.642 20.122 178.275 18.32 178 17.973C177.725 17.627 175.925 16.524 174 15.523C160.433 8.466 157.044 6.885 153.5 5.96C151.3 5.386 148.6 4.493 147.5 3.976C142.715 1.726 135.358 0.845998 118.5 0.506998C108.6 0.307998 99.375 0.341998 98 0.583998Z" fill="#00A9FF"/>
<path fill-rule="evenodd" clip-rule="evenodd" d="M98 0.583998C86.542 2.597 83.368 3.292 82.5 3.979C81.95 4.413 79.936 5.104 78.025 5.513C74.17 6.339 53.479 16.206 52 17.924C51.725 18.244 48.816 20.529 45.536 23.003C34.381 31.414 24.83 42.09 16.46 55.5C13.343 60.494 8.006 71.415 8.003 72.805C8.001 73.523 7.131 76.018 6.068 78.351C3.169 84.715 0.674001 101.059 0.626001 114C0.583001 125.74 2.996 142.797 5.507 148.5C6.233 150.15 7.37 153.243 8.032 155.373C9.131 158.907 13.652 168.327 16.012 172C25.103 186.15 35.419 197.945 44.5 204.57C46.7 206.175 48.725 207.727 49 208.017C50.239 209.328 55.575 212.423 56.25 212.222C56.662 212.1 57 212.42 57 212.933C57 213.446 58.012 214.18 59.25 214.564C60.487 214.948 62.625 216.041 64 216.992C65.375 217.944 68.3 219.293 70.5 219.992C72.7 220.69 75.004 221.659 75.621 222.146C76.687 222.988 89.339 226.165 99 228.018C104.812 229.132 125.188 229.132 131 228.018C140.661 226.165 153.313 222.988 154.379 222.146C154.996 221.659 157.3 220.687 159.5 219.985C161.7 219.283 164.573 217.875 165.885 216.855C167.197 215.835 168.852 215 169.563 215C170.275 215 171.452 214.405 172.179 213.679C172.905 212.952 173.842 212.284 174.261 212.195C175.344 211.963 180.256 208.76 181.821 207.263C182.548 206.568 183.529 206 184.001 206C185.846 206 204.733 186.142 208.729 180C211.056 176.425 213.364 173.014 213.86 172.42C215.168 170.852 221.678 156.938 222.478 154C222.853 152.625 223.75 150.15 224.473 148.5C225.196 146.85 226.316 142.125 226.962 138C227.609 133.875 228.589 128.925 229.141 127C231.289 119.505 227.539 82.817 224.206 78.726C223.657 78.052 222.74 75.787 222.169 73.694C221.281 70.44 221.375 69.802 222.815 69.296C223.742 68.971 226.3 67.925 228.5 66.972C230.7 66.018 233.625 64.905 235 64.497C236.375 64.089 238.063 63.305 238.75 62.755C240.151 61.635 240.463 58 239.158 58C238.695 58 237.774 56.188 237.11 53.974C236.447 51.759 234.801 48.321 233.452 46.334C232.103 44.347 231 42.131 231 41.41C231 40.689 230.391 39.74 229.646 39.3C228.901 38.86 227.708 37.375 226.993 36C223.089 28.483 205.004 10 201.553 10C200.489 10 197.82 12.994 189.26 23.79C188.163 25.175 187.475 24.967 183.26 21.978C180.642 20.122 178.275 18.32 178 17.973C177.725 17.627 175.925 16.524 174 15.523C160.433 8.466 157.044 6.885 153.5 5.96C151.3 5.386 148.6 4.493 147.5 3.976C142.715 1.726 135.358 0.845998 118.5 0.506998C108.6 0.307998 99.375 0.341998 98 0.583998ZM170.122 63.4C175.013 68.426 182.195 79.784 181.779 81.833C181.485 83.283 178.823 84.437 159.5 91.493C148.688 95.442 135.779 100.374 130.533 102.561C129.289 103.079 130.472 101.015 133.755 96.94C148.903 78.139 158.8 65.793 161.293 62.589C162.829 60.615 164.48 59 164.963 59C165.445 59 167.767 60.98 170.122 63.4ZM123.5 61.04C129.596 61.912 140.891 66.341 145.875 69.815C146.947 70.561 143.367 75.604 129.69 92.618C120.032 104.633 112.28 114.613 112.463 114.796C112.885 115.219 130.702 108.876 148.5 101.966C161.562 96.895 165.077 95.744 165.675 96.341C166.848 97.515 168.969 108.705 168.984 113.803C169.106 155.168 124.155 181.203 88.017 160.698C80.452 156.405 71.155 146.61 67.324 138.896C64.193 132.592 61 120.022 61 114C61 108.337 64.116 95.561 66.802 90.21C75.826 72.236 93.496 60.979 114 60.142C115.375 60.086 119.65 60.49 123.5 61.04Z" fill="#77D8FF"/>
<path fill-rule="evenodd" clip-rule="evenodd" d="M98 0.584002C86.542 2.597 83.368 3.292 82.5 3.979C81.95 4.413 79.936 5.104 78.025 5.513C74.17 6.339 53.479 16.206 52 17.924C51.725 18.244 48.816 20.529 45.536 23.003C34.381 31.414 24.83 42.09 16.46 55.5C13.343 60.494 8.006 71.415 8.003 72.805C8.001 73.523 7.131 76.018 6.068 78.351C3.169 84.715 0.674001 101.059 0.626001 114C0.583001 125.74 2.996 142.797 5.507 148.5C6.233 150.15 7.37 153.243 8.032 155.373C9.131 158.907 13.652 168.327 16.012 172C25.103 186.15 35.419 197.945 44.5 204.57C46.7 206.175 48.725 207.727 49 208.017C50.239 209.328 55.575 212.423 56.25 212.222C56.662 212.1 57 212.42 57 212.933C57 213.446 58.012 214.18 59.25 214.564C60.487 214.948 62.625 216.041 64 216.992C65.375 217.944 68.3 219.293 70.5 219.992C72.7 220.69 75.004 221.659 75.621 222.146C76.715 223.01 90.007 226.328 99 227.983C104.812 229.052 125.188 229.052 131 227.983C139.993 226.328 153.285 223.01 154.379 222.146C154.996 221.659 157.3 220.687 159.5 219.985C161.7 219.283 164.573 217.875 165.885 216.855C167.197 215.835 168.852 215 169.563 215C170.275 215 171.452 214.405 172.179 213.679C172.905 212.952 173.842 212.284 174.261 212.195C175.344 211.963 180.256 208.76 181.821 207.263C182.548 206.568 183.529 206 184.001 206C185.846 206 204.733 186.142 208.729 180C211.056 176.425 213.364 173.014 213.86 172.42C215.168 170.852 221.678 156.938 222.478 154C222.853 152.625 223.75 150.15 224.473 148.5C225.196 146.85 226.316 142.125 226.962 138C227.609 133.875 228.589 128.925 229.141 127C232.285 116.032 226.266 76.755 220.937 73.461C218.886 72.194 220.196 70.092 223.75 68.947C225.813 68.283 227.95 67.407 228.5 67C229.05 66.593 231.3 65.693 233.5 65C235.7 64.307 238.063 63.293 238.75 62.747C240.15 61.636 240.463 58 239.158 58C238.695 58 237.774 56.188 237.11 53.974C236.447 51.759 234.801 48.321 233.452 46.334C232.103 44.347 231 42.131 231 41.41C231 40.689 230.391 39.74 229.646 39.3C228.901 38.86 227.708 37.375 226.993 36C223.089 28.483 205.004 10 201.553 10C200.861 10 198.247 12.588 195.744 15.75C193.241 18.913 190.276 22.465 189.156 23.644C188.037 24.823 187.431 26.132 187.81 26.554C188.19 26.976 187.908 26.978 187.183 26.56C186.459 26.142 186.116 25.551 186.42 25.247C186.724 24.942 185.695 23.75 184.132 22.597C182.569 21.444 180.213 19.704 178.895 18.732C173.158 14.498 157.087 6.601 152 5.516C150.075 5.105 148.05 4.423 147.5 4C144.964 2.049 135.038 0.857003 118.5 0.516003C108.6 0.312003 99.375 0.342002 98 0.584002ZM170.468 62.868C175.72 68.089 183 79.255 183 82.091C183 83.339 180.984 84.518 175.75 86.333C171.762 87.715 160.076 92.031 149.781 95.923C139.485 99.815 130.37 103 129.525 103C128.086 103 133.908 95.309 156.209 67.75C160.548 62.388 164.429 58 164.834 58C165.239 58 167.774 60.191 170.468 62.868ZM130.795 61.646C136.942 63.725 142.907 66.586 145.902 68.89L148.305 70.738L138.902 82.429C133.731 88.859 126.003 98.433 121.728 103.705C117.453 108.976 114.147 113.48 114.381 113.714C114.615 113.948 116.987 113.234 119.653 112.128C128.586 108.423 158.531 97.128 164.164 95.34C166.48 94.605 167.792 97.494 169.171 106.363C171.843 123.55 166.301 139.941 153.551 152.566C136.462 169.485 112.965 173.399 91.112 162.964C61.6 148.874 51.594 111.819 69.72 83.743C76.724 72.895 92.568 62.267 105 60.079C112.065 58.835 124.768 59.607 130.795 61.646Z" fill="#FFFF00"/>
<path fill-rule="evenodd" clip-rule="evenodd" d="M98 0.584002C86.542 2.597 83.368 3.292 82.5 3.979C81.95 4.413 79.936 5.104 78.025 5.513C73.613 6.458 54.624 15.693 51.072 18.62C50.208 19.333 47.7 21.304 45.5 23.001C39.147 27.901 25.172 41.982 22.763 45.912C21.553 47.885 20.185 49.95 19.722 50.5C16.883 53.877 8.008 70.767 8.003 72.805C8.001 73.523 7.131 76.018 6.068 78.351C3.292 84.445 0.884997 100.666 0.778997 114C0.685997 125.792 3.025 142.863 5.507 148.5C6.233 150.15 7.37 153.243 8.032 155.373C9.118 158.867 13.571 168.163 15.996 172C18.242 175.555 24.227 184.256 25.794 186.247C29.084 190.424 40.539 201.63 44.5 204.545C46.7 206.164 48.725 207.727 49 208.017C50.239 209.328 55.575 212.423 56.25 212.222C56.662 212.1 57 212.42 57 212.933C57 213.446 58.012 214.18 59.25 214.564C60.487 214.948 62.625 216.041 64 216.992C65.375 217.944 68.3 219.293 70.5 219.992C72.7 220.69 75.132 221.765 75.904 222.38C76.676 222.996 77.351 223.358 77.404 223.185C77.457 223.012 78.175 223.119 79 223.421C80.813 224.086 92.772 226.807 99 227.97C101.475 228.433 108.675 228.811 115 228.811C121.325 228.811 128.525 228.433 131 227.97C136.301 226.98 149.064 224.128 150.5 223.613C151.05 223.416 151.768 223.31 152.096 223.377C152.424 223.445 153.324 222.996 154.096 222.38C154.868 221.765 157.3 220.687 159.5 219.985C161.7 219.283 164.573 217.875 165.885 216.855C167.197 215.835 168.852 215 169.563 215C170.275 215 171.452 214.405 172.179 213.679C172.905 212.952 173.842 212.284 174.261 212.195C175.344 211.963 180.256 208.76 181.821 207.263C182.548 206.568 183.495 206 183.924 206C184.803 206 201.567 189.709 204.206 186.29C205.144 185.075 207.505 181.7 209.452 178.79C211.4 175.881 213.391 173.014 213.877 172.42C215.187 170.819 221.691 156.892 222.478 154C222.853 152.625 223.75 150.15 224.473 148.5C225.196 146.85 226.316 142.125 226.962 138C227.609 133.875 228.589 128.925 229.141 127C232.285 116.032 226.266 76.755 220.937 73.461C218.396 71.891 221.52 68.864 227 67.586C227.275 67.522 227.95 67.198 228.5 66.866C229.05 66.534 231.3 65.695 233.5 65.001C235.7 64.307 238.063 63.293 238.75 62.747C240.15 61.636 240.463 58 239.158 58C238.695 58 237.774 56.188 237.11 53.974C236.447 51.759 234.801 48.321 233.452 46.334C232.103 44.347 231 42.131 231 41.41C231 40.689 230.391 39.74 229.646 39.3C228.901 38.86 227.708 37.375 226.993 36C223.05 28.408 204.962 10.041 201.398 10.01C200.791 10.004 198.247 12.588 195.744 15.75C193.241 18.913 190.276 22.465 189.156 23.644C188.037 24.823 187.431 26.132 187.81 26.554C188.19 26.976 187.908 26.978 187.183 26.56C186.459 26.142 186.116 25.551 186.42 25.247C186.724 24.942 185.695 23.75 184.132 22.597C182.569 21.444 180.213 19.704 178.895 18.732C173.158 14.498 157.087 6.601 152 5.516C150.075 5.105 148.05 4.423 147.5 4C144.964 2.049 135.038 0.857003 118.5 0.516003C108.6 0.312003 99.375 0.342002 98 0.584002ZM170.468 62.868C175.72 68.089 183 79.255 183 82.091C183 83.339 180.984 84.518 175.75 86.333C171.762 87.715 160.076 92.031 149.781 95.923C139.485 99.815 130.37 103 129.525 103C128.086 103 133.908 95.309 156.209 67.75C160.548 62.388 164.429 58 164.834 58C165.239 58 167.774 60.191 170.468 62.868ZM130.795 61.646C136.942 63.725 142.907 66.586 145.902 68.89L148.305 70.738L138.902 82.429C133.731 88.859 126.003 98.433 121.728 103.705C117.453 108.976 114.147 113.48 114.381 113.714C114.615 113.948 116.987 113.234 119.653 112.128C128.586 108.423 158.531 97.128 164.164 95.34C166.48 94.605 167.792 97.494 169.171 106.363C171.843 123.55 166.301 139.941 153.551 152.566C136.462 169.485 112.965 173.399 91.112 162.964C61.6 148.874 51.594 111.819 69.72 83.743C76.724 72.895 92.568 62.267 105 60.079C112.065 58.835 124.768 59.607 130.795 61.646Z" fill="#808000"/>
<path fill-rule="evenodd" clip-rule="evenodd" d="M98.257 1.603C97.29 2.336 95.375 2.919 94 2.898C91.714 2.863 91.671 2.786 93.5 2C95.113 1.307 95.175 1.127 93.821 1.07C92.898 1.032 91.395 1.748 90.481 2.662C89.076 4.067 88.68 4.106 87.925 2.912C87.391 2.069 87.024 1.966 87.015 2.656C87.007 3.292 86.181 3.599 85.18 3.337C84.179 3.075 82.796 3.54 82.107 4.371C81.418 5.202 80.215 5.636 79.435 5.337C78.655 5.037 77.74 5.514 77.401 6.396C77.063 7.278 76.358 8 75.834 8C75.31 8 75.16 7.55 75.5 7C75.84 6.45 75.641 6 75.059 6C74.477 6 74 6.675 74 7.5C74 8.891 72.266 9.466 69.25 9.075C68.563 8.985 68 9.409 68 10.015C68 10.622 67.63 10.89 67.178 10.61C66.726 10.331 65.606 10.979 64.688 12.051C63.261 13.718 60.699 14.592 59.705 13.75C59.542 13.613 58.131 14.778 56.569 16.34C54.363 18.546 53.54 18.881 52.88 17.84C52.233 16.819 52.027 16.93 52.015 18.309C52.007 19.304 51.597 19.869 51.105 19.565C50.612 19.26 49.941 19.712 49.612 20.569C49.278 21.44 48.502 21.81 47.853 21.409C47.149 20.974 46.96 21.127 47.373 21.795C48.096 22.965 44.198 25.631 42.5 25.129C41.95 24.966 41.838 25.172 42.252 25.586C43.147 26.48 40.188 30 38.541 30C37.14 30 31 36.196 31 37.611C31 38.169 29.545 39.948 27.766 41.563C25.064 44.016 24.858 44.088 26.516 42L28.5 39.5L26.215 41.437C24.958 42.502 24.158 43.969 24.437 44.696C24.716 45.423 24.057 46.572 22.972 47.25C21.887 47.927 21 48.948 21 49.518C21 50.089 20.1 51.326 19 52.268C17.9 53.21 17 54.85 17 55.913C17 56.977 15.835 59.231 14.411 60.923C12.987 62.615 12.173 64 12.602 64C13.031 64 12.509 64.708 11.441 65.574C10.374 66.44 10.063 66.863 10.75 66.515C12.803 65.475 12.167 67.76 9.75 70.108C8.512 71.31 8.063 71.976 8.75 71.588C9.438 71.2 10 71.321 10 71.858C10 72.394 9.525 72.992 8.946 73.185C8.366 73.378 7.783 74.27 7.652 75.167C7.52 76.064 6.757 77.605 5.956 78.591C4.985 79.786 4.93 80.125 5.79 79.608C7.493 78.584 6.243 83.899 4.331 85.812C3.599 86.544 3.007 87.673 3.015 88.321C3.024 89.012 3.432 88.879 4 88C4.862 86.667 4.968 86.667 4.953 88C4.944 88.825 4.276 90.374 3.468 91.441C2.661 92.509 2.007 94.084 2.015 94.941C2.029 96.313 2.147 96.32 3 95C4.861 92.12 4.059 95.964 1.926 100.144C0.786 102.38 0.336 103.91 0.926 103.546C1.637 103.106 2 104.592 2 107.941C2 110.723 1.55 113 1 113C0.45 113 0 113.702 0 114.559C0 115.416 0.45 115.84 1 115.5C1.619 115.117 1.994 116.903 1.985 120.191C1.973 124.188 1.71 125.129 0.919 124C-0.677 121.72 0.868 126.959 2.604 129.715C4.281 132.376 4.549 135.316 2.904 133C2.096 131.863 1.998 132.224 2.498 134.49C2.861 136.134 3.637 137.776 4.223 138.138C4.808 138.499 5.045 139.72 4.75 140.85C4.454 141.98 4.545 143.038 4.951 143.202C5.358 143.366 5.999 144.85 6.376 146.5C6.875 148.686 6.785 149.093 6.046 148C5.487 147.175 5.024 147.007 5.015 147.628C5.007 148.248 5.648 149.293 6.441 149.951C7.233 150.608 7.657 151.73 7.383 152.444C7.109 153.158 7.586 154.011 8.443 154.34C9.299 154.668 10 155.428 10 156.028C10 156.627 9.438 156.833 8.75 156.485C8.063 156.137 8.203 156.448 9.062 157.176C11.111 158.913 12.447 162.342 10.739 161.478C10.057 161.133 10.374 161.56 11.441 162.426C12.509 163.292 13.071 164 12.691 164C12.311 164 12.942 164.942 14.092 166.092C15.243 167.243 15.977 168.98 15.723 169.953C15.444 171.019 16.175 172.408 17.564 173.451C18.99 174.522 19.638 175.78 19.264 176.754C18.877 177.762 19.063 178.079 19.78 177.636C21.08 176.833 23.279 180.35 22.215 181.529C21.822 181.964 22.04 182.011 22.7 181.632C23.841 180.978 26.385 184.268 26.465 186.5C26.484 187.05 27.079 187.5 27.786 187.5C29.397 187.5 31.067 190.083 30.28 191.357C29.956 191.881 30.142 192.03 30.694 191.689C31.989 190.889 36.233 194.813 35.448 196.084C35.12 196.615 35.222 196.929 35.676 196.783C36.129 196.636 37.613 197.3 38.973 198.258C40.394 199.26 40.844 200 40.031 200C39.057 200 39.218 200.439 40.548 201.411C41.609 202.188 42.82 202.611 43.239 202.352C43.658 202.094 44 202.359 44 202.941C44 203.523 44.468 204 45.04 204C46.758 204 51.963 208.251 51.386 209.184C51.092 209.66 51.222 209.985 51.676 209.906C53.649 209.564 55.073 210.073 54.543 210.931C54.226 211.443 54.425 212.144 54.984 212.49C55.543 212.835 56 212.651 56 212.08C56 211.391 56.838 211.425 58.5 212.182C59.875 212.808 61 213.699 61 214.161C61 214.622 61.702 215 62.559 215C63.416 215 63.843 215.445 63.507 215.989C63.157 216.555 63.558 216.723 64.448 216.382C65.496 215.98 66.026 216.39 66.079 217.643C66.122 218.664 66.369 218.985 66.627 218.356C67.244 216.85 70.706 217.793 71.424 219.662C71.733 220.468 72.469 220.828 73.059 220.463C73.65 220.098 74.764 220.632 75.535 221.65C76.575 223.024 76.945 223.129 76.968 222.059C76.991 221.006 77.424 221.14 78.574 222.559C79.44 223.626 79.863 223.938 79.515 223.25C79.152 222.533 79.501 222 80.334 222C81.133 222 82.045 222.675 82.362 223.5C82.678 224.325 83.514 224.993 84.219 224.985C85.115 224.974 85.049 224.678 84 224C82.695 223.157 82.711 223.029 84.128 223.015C85.023 223.007 86.315 223.675 87 224.5C88.473 226.275 90.446 226.531 89.382 224.809C88.977 224.154 90.384 224.692 92.508 226.005C95.137 227.63 96.497 228.01 96.768 227.196C97.327 225.519 100.948 225.701 101.615 227.439C102.054 228.584 104.686 228.875 114.501 228.867C127.808 228.855 132.081 228.301 129.835 226.877C128.883 226.273 129.162 226.026 130.809 226.015C132.097 226.007 132.845 226.442 132.5 227C131.419 228.75 134.634 228.076 137.273 226C140.01 223.847 141.498 223.386 140.5 225C139.522 226.582 141.62 226.162 143 224.5C143.685 223.675 144.977 223.007 145.872 223.015C147.289 223.029 147.305 223.157 146 224C144.951 224.678 144.885 224.974 145.781 224.985C146.486 224.993 147.322 224.325 147.638 223.5C147.955 222.675 148.867 222 149.666 222C150.499 222 150.848 222.533 150.485 223.25C150.137 223.938 150.56 223.626 151.426 222.559C152.576 221.14 153.009 221.006 153.032 222.059C153.055 223.129 153.425 223.024 154.465 221.65C155.236 220.632 156.35 220.098 156.941 220.463C157.531 220.828 158.271 220.458 158.584 219.641C159.385 217.553 162.181 216.682 163.155 218.216C163.756 219.163 163.973 219.046 163.985 217.769C163.994 216.764 165.048 215.775 166.5 215.411C167.875 215.066 169 214.454 169 214.052C169 213.65 170.125 212.808 171.5 212.182C173.162 211.425 174 211.391 174 212.08C174 212.651 174.457 212.835 175.016 212.49C175.575 212.144 175.774 211.443 175.457 210.931C174.927 210.073 176.351 209.564 178.324 209.906C178.778 209.985 178.908 209.66 178.614 209.184C178.037 208.251 183.242 204 184.96 204C185.532 204 186 203.523 186 202.941C186 202.359 186.427 202.146 186.95 202.469C187.472 202.792 188.395 202.131 189 201C189.605 199.869 190.597 199.251 191.205 199.627C191.828 200.012 192.029 199.856 191.666 199.268C190.865 197.972 193.383 195.744 194.502 196.759C194.952 197.166 195.014 196.964 194.638 196.31C193.809 194.864 197.896 190.818 199.306 191.689C199.858 192.03 200.044 191.881 199.72 191.357C198.933 190.083 200.603 187.5 202.214 187.5C202.921 187.5 203.516 187.05 203.535 186.5C203.615 184.268 206.159 180.978 207.3 181.632C207.96 182.011 208.178 181.964 207.785 181.529C206.721 180.35 208.92 176.833 210.22 177.636C210.937 178.079 211.123 177.762 210.736 176.754C210.362 175.78 211.01 174.522 212.436 173.451C213.825 172.408 214.556 171.019 214.277 169.953C214.023 168.98 214.757 167.243 215.908 166.092C217.058 164.942 217.689 164 217.309 164C216.929 164 217.491 163.292 218.559 162.426C219.626 161.56 219.943 161.133 219.261 161.478C217.553 162.342 218.889 158.913 220.938 157.176C221.797 156.448 221.938 156.137 221.25 156.485C220.563 156.833 220 156.627 220 156.028C220 155.428 220.675 154.678 221.5 154.362C222.325 154.045 223 153.358 223 152.834C223 152.31 222.438 152.206 221.75 152.602C221.063 152.998 221.512 152.208 222.75 150.847C223.987 149.485 224.993 147.95 224.985 147.436C224.976 146.921 224.513 147.175 223.954 148C223.215 149.093 223.125 148.686 223.624 146.5C224.001 144.85 224.642 143.366 225.049 143.202C225.455 143.038 225.562 142.042 225.287 140.988C225.011 139.934 225.509 138.348 226.393 137.464C228.137 135.72 228.631 132.492 227 133.5C225.624 134.351 225.713 133.97 228 129.236C229.1 126.959 229.968 124.062 229.93 122.798C229.863 120.623 229.813 120.607 229 122.5C228.314 124.097 228.126 123.733 228.07 120.691C228.028 118.391 228.396 117.127 229 117.5C229.605 117.874 230 116.491 230 114C230 111.509 229.605 110.126 229 110.5C228.396 110.873 228.028 109.609 228.07 107.309C228.126 104.267 228.314 103.903 229 105.5C229.813 107.393 229.863 107.377 229.93 105.202C229.968 103.938 229.141 101.125 228.091 98.952C227.041 96.778 226.591 95 227.091 95C227.591 95 228 94.523 228 93.941C228 93.359 227.555 93.157 227.011 93.493C226.459 93.834 226.269 93.463 226.58 92.653C226.886 91.855 226.656 90.905 226.068 90.542C225.481 90.179 225.007 89.121 225.015 88.191C225.029 86.734 225.165 86.707 226 88C226.568 88.879 226.976 89.012 226.985 88.321C226.993 87.673 226.401 86.544 225.669 85.812C224.936 85.079 224.023 83.135 223.638 81.49C223.13 79.316 223.216 78.909 223.954 80C224.513 80.825 224.976 80.993 224.985 80.372C224.993 79.752 224.33 78.689 223.511 78.009C222.692 77.329 222.237 76.425 222.5 76C222.763 75.575 222.308 74.671 221.489 73.991C219.092 72.001 219.623 68.311 222.407 67.613C223.731 67.28 225.605 66.705 226.571 66.334C227.879 65.833 228.139 66.023 227.59 67.08C227.184 67.861 227.492 67.719 228.275 66.766C229.057 65.812 230.028 65.361 230.431 65.764C230.834 66.167 231.691 65.776 232.336 64.894C233.866 62.801 238.623 61.167 237.433 63.143C236.756 64.267 236.907 64.264 238.308 63.128C240.43 61.406 240.5 58.406 238.437 57.614C237.577 57.284 237.155 56.558 237.5 56C237.845 55.442 237.468 54.733 236.662 54.424C234.793 53.706 233.85 50.244 235.356 49.627C235.985 49.369 235.686 49.122 234.691 49.079C233.696 49.036 233.16 48.55 233.5 48C233.84 47.45 233.641 47 233.059 47C232.477 47 232 46.325 232 45.5C232 44.675 231.523 44 230.941 44C230.359 44 230.16 43.55 230.5 43C230.84 42.45 230.529 41.993 229.809 41.985C228.766 41.972 228.776 41.795 229.857 41.11C230.803 40.51 230.878 40.043 230.107 39.566C229.498 39.19 229 39.183 229 39.552C229 39.92 228.152 39.174 227.115 37.893C226.078 36.613 225.423 35.06 225.66 34.443C225.897 33.826 225.283 32.686 224.296 31.91C222.62 30.594 222.6 30.633 224 32.5C225.391 34.355 225.373 34.4 223.75 33.128C222.787 32.373 222 30.884 222 29.819C222 28.753 221.621 28.116 221.158 28.402C219.792 29.246 213.673 22.338 214.542 20.932C215.006 20.181 214.898 19.945 214.27 20.333C213.698 20.687 211.458 19.294 209.293 17.238C207.128 15.182 206.289 14.175 207.428 15C209.48 16.486 209.482 16.479 207.631 14.29C206.603 13.074 205.478 12.157 205.131 12.252C204.784 12.347 203.433 11.834 202.129 11.113C200.722 10.334 200.035 10.247 200.438 10.9C200.836 11.544 200.368 12.006 199.309 12.015C197.976 12.027 197.841 12.247 198.797 12.854C199.818 13.501 199.723 13.978 198.355 15.088C196.873 16.292 196.741 16.293 197.463 15.095C198.041 14.135 197.939 13.92 197.138 14.415C196.494 14.813 196.186 15.492 196.453 15.925C196.721 16.357 195.313 18.611 193.324 20.934C190.76 23.93 189.154 25.012 187.798 24.657C186.142 24.224 186.061 24.379 187.193 25.81C187.912 26.718 186.588 25.97 184.25 24.147C181.912 22.324 180 20.393 180 19.857C180 19.321 179.55 19.16 179 19.5C178.45 19.84 177.993 19.304 177.985 18.309C177.972 16.775 177.822 16.728 177 18C176.202 19.235 176.028 19.25 176.015 18.083C176.007 17.304 175.708 16.958 175.352 17.315C174.995 17.672 173.904 17.042 172.927 15.916C171.951 14.79 170.892 13.898 170.576 13.934C168.123 14.214 166.808 13.71 165.039 11.811C163.918 10.608 162.986 10.045 162.97 10.561C162.953 11.078 162.45 10.659 161.853 9.63C160.976 8.12 160.599 8.024 159.898 9.13C159.296 10.081 159.026 10.127 159.015 9.281C159.007 8.611 158.325 8.322 157.5 8.638C156.55 9.003 156 8.625 156 7.607C156 6.723 155.523 6 154.941 6C154.359 6 154.16 6.45 154.5 7C154.84 7.55 154.69 8 154.166 8C153.642 8 152.937 7.278 152.599 6.396C152.26 5.514 151.345 5.037 150.565 5.337C149.785 5.636 148.592 5.213 147.914 4.396C147.084 3.397 145.754 3.115 143.847 3.534C141.928 3.955 140.504 3.647 139.435 2.578C138.567 1.71 137.102 1.032 136.179 1.07C134.825 1.127 134.887 1.307 136.5 2C138.397 2.815 138.382 2.863 136.215 2.93C134.958 2.968 132.933 2.376 131.715 1.614C128.628 -0.318 100.799 -0.327 98.257 1.603ZM62 12C61.099 12.582 60.975 12.975 61.691 12.985C62.346 12.993 63.16 12.55 63.5 12C64.267 10.758 63.921 10.758 62 12ZM189.872 22.75C188.629 24.336 188.664 24.371 190.25 23.128C191.916 21.821 192.445 21 191.622 21C191.415 21 190.627 21.788 189.872 22.75ZM218.226 25.579C219.176 26.57 220.168 27.166 220.431 26.903C220.694 26.64 219.917 25.829 218.705 25.1C216.598 23.835 216.577 23.857 218.226 25.579ZM170.468 62.868C175.72 68.089 183 79.255 183 82.091C183 83.339 180.984 84.518 175.75 86.333C171.762 87.715 160.076 92.031 149.781 95.923C139.485 99.815 130.37 103 129.525 103C128.086 103 133.908 95.309 156.209 67.75C160.548 62.388 164.429 58 164.834 58C165.239 58 167.774 60.191 170.468 62.868ZM130.795 61.646C136.942 63.725 142.907 66.586 145.902 68.89L148.305 70.738L138.902 82.429C133.731 88.859 126.003 98.433 121.728 103.705C117.453 108.976 114.147 113.48 114.381 113.714C114.615 113.948 116.987 113.234 119.653 112.128C128.586 108.423 158.531 97.128 164.164 95.34C166.48 94.605 167.792 97.494 169.171 106.363C171.843 123.55 166.301 139.941 153.551 152.566C136.462 169.485 112.965 173.399 91.112 162.964C61.6 148.874 51.594 111.819 69.72 83.743C76.724 72.895 92.568 62.267 105 60.079C112.065 58.835 124.768 59.607 130.795 61.646ZM182.507 205.989C182.157 206.555 182.558 206.723 183.448 206.382C185.18 205.717 185.497 205 184.059 205C183.541 205 182.843 205.445 182.507 205.989Z" fill="#FFB100"/>
<path fill-rule="evenodd" clip-rule="evenodd" d="M100.813 0.683001C101.534 0.972001 102.397 0.936001 102.729 0.604001C103.061 0.272001 102.471 0.0360016 101.417 0.0790016C100.252 0.127002 100.015 0.364001 100.813 0.683001ZM109.813 0.683001C110.534 0.972001 111.397 0.936001 111.729 0.604001C112.061 0.272001 111.471 0.0360016 110.417 0.0790016C109.252 0.127002 109.015 0.364001 109.813 0.683001ZM118.813 0.683001C119.534 0.972001 120.397 0.936001 120.729 0.604001C121.061 0.272001 120.471 0.0360016 119.417 0.0790016C118.252 0.127002 118.015 0.364001 118.813 0.683001ZM127.813 0.683001C128.534 0.972001 129.397 0.936001 129.729 0.604001C130.061 0.272001 129.471 0.0360016 128.417 0.0790016C127.252 0.127002 127.015 0.364001 127.813 0.683001ZM92.813 1.683C93.534 1.972 94.397 1.936 94.729 1.604C95.061 1.272 94.471 1.036 93.417 1.079C92.252 1.127 92.015 1.364 92.813 1.683ZM135.813 1.683C136.534 1.972 137.397 1.936 137.729 1.604C138.061 1.272 137.471 1.036 136.417 1.079C135.252 1.127 135.015 1.364 135.813 1.683ZM82.5 4C82.16 4.55 82.332 5 82.882 5C83.432 5 84.16 4.55 84.5 4C84.84 3.45 84.668 3 84.118 3C83.568 3 82.84 3.45 82.5 4ZM145.5 4C145.84 4.55 146.568 5 147.118 5C147.668 5 147.84 4.55 147.5 4C147.16 3.45 146.432 3 145.882 3C145.332 3 145.16 3.45 145.5 4ZM160 9C160 9.55 160.477 10 161.059 10C161.641 10 161.84 9.55 161.5 9C161.16 8.45 160.684 8 160.441 8C160.198 8 160 8.45 160 9ZM206.5 14C207.495 15.1 208.535 16 208.81 16C209.085 16 208.495 15.1 207.5 14C206.505 12.9 205.465 12 205.19 12C204.915 12 205.505 12.9 206.5 14ZM189.872 22.75C188.629 24.336 188.664 24.371 190.25 23.128C191.916 21.821 192.445 21 191.622 21C191.415 21 190.627 21.788 189.872 22.75ZM176 34.694C171.325 40.433 166.995 45.557 166.378 46.08C165.63 46.715 162.968 45.641 158.386 42.857C143.953 34.089 128.308 30.33 110.229 31.286C96.831 31.995 90.205 33.751 77.349 40.003C69.177 43.976 65.522 46.525 58.61 53.067C40.475 70.234 31.549 90.496 31.549 114.5C31.549 137.121 39.801 156.919 55.947 173.037C66.395 183.467 76.876 189.909 90.5 194.276C99.868 197.278 101.416 197.48 115 197.472C128.133 197.464 130.348 197.196 138.493 194.625C154.142 189.687 164.783 183.156 175.621 171.835C194.482 152.135 202.627 124.211 197.012 98.5C195.811 93 194.754 87.676 194.664 86.668C194.532 85.198 197.118 83.837 207.77 79.769C219.826 75.165 220.982 74.509 220.408 72.601C219.364 69.133 218.385 68.749 215.022 70.489C213.258 71.401 211.699 72.002 211.559 71.824C211.419 71.646 209.615 68.125 207.551 64C202.849 54.603 198.041 48.152 189.69 40.033L183.148 33.673L185.393 30.586C186.628 28.889 187.607 26.868 187.569 26.095C187.389 22.433 183.837 25.074 176 34.694ZM218.226 25.579C219.176 26.57 220.168 27.166 220.431 26.903C220.694 26.64 219.917 25.829 218.705 25.1C216.598 23.835 216.577 23.857 218.226 25.579ZM223 31.378C223 31.585 223.787 32.373 224.75 33.128C226.336 34.371 226.371 34.336 225.128 32.75C223.821 31.084 223 30.555 223 31.378ZM229 40C229 40.55 229.477 41 230.059 41C230.641 41 230.84 40.55 230.5 40C230.16 39.45 229.684 39 229.441 39C229.198 39 229 39.45 229 40ZM25.405 42.25L23.5 44.5L25.75 42.595C27.864 40.805 28.455 40 27.655 40C27.465 40 26.453 41.013 25.405 42.25ZM170.468 62.868C175.72 68.089 183 79.255 183 82.091C183 83.339 180.984 84.518 175.75 86.333C171.762 87.715 160.076 92.031 149.781 95.923C139.485 99.815 130.37 103 129.525 103C128.086 103 133.908 95.309 156.209 67.75C160.548 62.388 164.429 58 164.834 58C165.239 58 167.774 60.191 170.468 62.868ZM130.795 61.646C136.942 63.725 142.907 66.586 145.902 68.89L148.305 70.738L138.902 82.429C133.731 88.859 126.003 98.433 121.728 103.705C117.453 108.976 114.147 113.48 114.381 113.714C114.615 113.948 116.987 113.234 119.653 112.128C128.586 108.423 158.531 97.128 164.164 95.34C166.48 94.605 167.792 97.494 169.171 106.363C171.843 123.55 166.301 139.941 153.551 152.566C136.462 169.485 112.965 173.399 91.112 162.964C61.6 148.874 51.594 111.819 69.72 83.743C76.724 72.895 92.568 62.267 105 60.079C112.065 58.835 124.768 59.607 130.795 61.646ZM2.079 94.583C2.127 95.748 2.364 95.985 2.683 95.188C2.972 94.466 2.936 93.603 2.604 93.271C2.272 92.939 2.036 93.529 2.079 94.583ZM228.086 101.5C228.116 102.6 228.527 104.4 229 105.5C229.787 107.332 229.864 107.29 229.914 105C229.945 103.625 229.533 101.825 229 101C228.2 99.762 228.04 99.849 228.086 101.5ZM0.563999 102.707C0.0219994 104.132 0.135999 104.247 1.124 103.267C1.808 102.588 2.115 101.781 1.807 101.474C1.499 101.166 0.939999 101.721 0.563999 102.707ZM228.555 123.822C228.145 125.648 228.056 127.389 228.356 127.69C229.109 128.442 230.301 123.39 229.748 121.793C229.502 121.082 228.965 121.995 228.555 123.822ZM0.0859993 123.5C0.189999 125.394 1.856 128.584 1.914 127C1.945 126.175 1.533 124.825 0.999999 124C0.466999 123.175 0.0549993 122.95 0.0859993 123.5ZM2.079 133.583C2.127 134.748 2.364 134.985 2.683 134.188C2.972 133.466 2.936 132.603 2.604 132.271C2.272 131.939 2.036 132.529 2.079 133.583ZM227.079 134.583C227.127 135.748 227.364 135.985 227.683 135.188C227.972 134.466 227.936 133.603 227.604 133.271C227.272 132.939 227.036 133.529 227.079 134.583ZM39.083 200.283C39.313 200.439 40.4 201.226 41.5 202.033C43.35 203.39 43.397 203.369 42.128 201.75C41.373 200.787 40.285 200 39.711 200C39.137 200 38.854 200.127 39.083 200.283ZM182.507 205.989C182.157 206.555 182.558 206.723 183.448 206.382C185.18 205.717 185.497 205 184.059 205C183.541 205 182.843 205.445 182.507 205.989ZM54.5 212C54.84 212.55 55.316 213 55.559 213C55.802 213 56 212.55 56 212C56 211.45 55.523 211 54.941 211C54.359 211 54.16 211.45 54.5 212ZM174 212.059C174 212.641 174.45 212.84 175 212.5C175.55 212.16 176 211.684 176 211.441C176 211.198 175.55 211 175 211C174.45 211 174 211.477 174 212.059ZM75.5 222C75.84 222.55 76.316 223 76.559 223C76.802 223 77 222.55 77 222C77 221.45 76.523 221 75.941 221C75.359 221 75.16 221.45 75.5 222ZM153 222.059C153 222.641 153.45 222.84 154 222.5C154.55 222.16 155 221.684 155 221.441C155 221.198 154.55 221 154 221C153.45 221 153 221.477 153 222.059ZM94 227C95.939 228.253 97 228.253 97 227C97 226.45 95.987 226.007 94.75 226.015C92.931 226.028 92.787 226.216 94 227ZM132.5 227C131.713 228.273 134.03 228.273 136 227C137.219 226.212 137.09 226.028 135.309 226.015C134.104 226.007 132.84 226.45 132.5 227ZM106.5 228C106.16 228.55 106.359 229 106.941 229C107.523 229 108 228.55 108 228C108 227.45 107.802 227 107.559 227C107.316 227 106.84 227.45 106.5 228ZM110 228C108.947 228.68 110.439 228.969 115 228.969C119.561 228.969 121.053 228.68 120 228C119.175 227.467 116.925 227.031 115 227.031C113.075 227.031 110.825 227.467 110 228ZM122 228C122 228.55 122.477 229 123.059 229C123.641 229 123.84 228.55 123.5 228C123.16 227.45 122.684 227 122.441 227C122.198 227 122 227.45 122 228Z" fill="#FF0000"/>
<path fill-rule="evenodd" clip-rule="evenodd" d="M100.813 0.683001C101.534 0.972001 102.397 0.936001 102.729 0.604001C103.061 0.272001 102.471 0.0360016 101.417 0.0790016C100.252 0.127002 100.015 0.364001 100.813 0.683001ZM109.813 0.683001C110.534 0.972001 111.397 0.936001 111.729 0.604001C112.061 0.272001 111.471 0.0360016 110.417 0.0790016C109.252 0.127002 109.015 0.364001 109.813 0.683001ZM118.813 0.683001C119.534 0.972001 120.397 0.936001 120.729 0.604001C121.061 0.272001 120.471 0.0360016 119.417 0.0790016C118.252 0.127002 118.015 0.364001 118.813 0.683001ZM127.813 0.683001C128.534 0.972001 129.397 0.936001 129.729 0.604001C130.061 0.272001 129.471 0.0360016 128.417 0.0790016C127.252 0.127002 127.015 0.364001 127.813 0.683001ZM92.813 1.683C93.534 1.972 94.397 1.936 94.729 1.604C95.061 1.272 94.471 1.036 93.417 1.079C92.252 1.127 92.015 1.364 92.813 1.683ZM135.813 1.683C136.534 1.972 137.397 1.936 137.729 1.604C138.061 1.272 137.471 1.036 136.417 1.079C135.252 1.127 135.015 1.364 135.813 1.683ZM82.5 4C82.16 4.55 82.359 5 82.941 5C83.523 5 84 4.55 84 4C84 3.45 83.802 3 83.559 3C83.316 3 82.84 3.45 82.5 4ZM146 4C146 4.55 146.477 5 147.059 5C147.641 5 147.84 4.55 147.5 4C147.16 3.45 146.684 3 146.441 3C146.198 3 146 3.45 146 4ZM160 9C160 9.55 160.477 10 161.059 10C161.641 10 161.84 9.55 161.5 9C161.16 8.45 160.684 8 160.441 8C160.198 8 160 8.45 160 9ZM206.5 14C207.495 15.1 208.535 16 208.81 16C209.085 16 208.495 15.1 207.5 14C206.505 12.9 205.465 12 205.19 12C204.915 12 205.505 12.9 206.5 14ZM189.872 22.75C188.629 24.336 188.664 24.371 190.25 23.128C191.916 21.821 192.445 21 191.622 21C191.415 21 190.627 21.788 189.872 22.75ZM176 34.694C171.325 40.433 166.995 45.557 166.378 46.08C165.63 46.715 162.968 45.641 158.386 42.857C143.953 34.089 128.308 30.33 110.229 31.286C96.831 31.995 90.205 33.751 77.349 40.003C69.177 43.976 65.522 46.525 58.61 53.067C40.475 70.234 31.549 90.496 31.549 114.5C31.549 137.121 39.801 156.919 55.947 173.037C66.395 183.467 76.876 189.909 90.5 194.276C99.868 197.278 101.416 197.48 115 197.472C128.133 197.464 130.348 197.196 138.493 194.625C154.142 189.687 164.783 183.156 175.621 171.835C194.482 152.135 202.627 124.211 197.012 98.5C195.811 93 194.754 87.676 194.664 86.668C194.532 85.198 197.118 83.837 207.77 79.769C219.826 75.165 220.982 74.509 220.408 72.601C219.364 69.133 218.385 68.749 215.022 70.489C213.258 71.401 211.699 72.002 211.559 71.824C211.419 71.646 209.615 68.125 207.551 64C202.849 54.603 198.041 48.152 189.69 40.033L183.148 33.673L185.393 30.586C186.628 28.889 187.607 26.868 187.569 26.095C187.389 22.433 183.837 25.074 176 34.694ZM218.226 25.579C219.176 26.57 220.168 27.166 220.431 26.903C220.694 26.64 219.917 25.829 218.705 25.1C216.598 23.835 216.577 23.857 218.226 25.579ZM223 31.378C223 31.585 223.787 32.373 224.75 33.128C226.336 34.371 226.371 34.336 225.128 32.75C223.821 31.084 223 30.555 223 31.378ZM25.405 42.25L23.5 44.5L25.75 42.595C27.864 40.805 28.455 40 27.655 40C27.465 40 26.453 41.013 25.405 42.25ZM170.468 62.868C175.72 68.089 183 79.255 183 82.091C183 83.339 180.984 84.518 175.75 86.333C171.762 87.715 160.076 92.031 149.781 95.923C139.485 99.815 130.37 103 129.525 103C128.086 103 133.908 95.309 156.209 67.75C160.548 62.388 164.429 58 164.834 58C165.239 58 167.774 60.191 170.468 62.868ZM130.795 61.646C136.942 63.725 142.907 66.586 145.902 68.89L148.305 70.738L138.902 82.429C133.731 88.859 126.003 98.433 121.728 103.705C117.453 108.976 114.147 113.48 114.381 113.714C114.615 113.948 116.987 113.234 119.653 112.128C128.586 108.423 158.531 97.128 164.164 95.34C166.48 94.605 167.792 97.494 169.171 106.363C171.843 123.55 166.301 139.941 153.551 152.566C136.462 169.485 112.965 173.399 91.112 162.964C61.6 148.874 51.594 111.819 69.72 83.743C76.724 72.895 92.568 62.267 105 60.079C112.065 58.835 124.768 59.607 130.795 61.646ZM2.079 94.583C2.127 95.748 2.364 95.985 2.683 95.188C2.972 94.466 2.936 93.603 2.604 93.271C2.272 92.939 2.036 93.529 2.079 94.583ZM228.015 101.75C228.007 102.987 228.45 104 229 104C230.253 104 230.253 102.939 229 101C228.216 99.787 228.028 99.931 228.015 101.75ZM0.564003 102.707C0.0220027 104.132 0.136003 104.247 1.124 103.267C1.808 102.588 2.115 101.781 1.807 101.474C1.499 101.166 0.940003 101.721 0.564003 102.707ZM0.731002 126.08C1.085 127.432 1.538 127.886 1.788 127.137C2.028 126.415 1.75 125.35 1.168 124.768C0.426003 124.026 0.296002 124.417 0.731002 126.08ZM228.015 126.25C228.028 128.069 228.216 128.213 229 127C230.253 125.061 230.253 124 229 124C228.45 124 228.007 125.012 228.015 126.25ZM2.079 133.583C2.127 134.748 2.364 134.985 2.683 134.188C2.972 133.466 2.936 132.603 2.604 132.271C2.272 131.939 2.036 132.529 2.079 133.583ZM227.079 134.583C227.127 135.748 227.364 135.985 227.683 135.188C227.972 134.466 227.936 133.603 227.604 133.271C227.272 132.939 227.036 133.529 227.079 134.583ZM39.083 200.283C39.313 200.439 40.4 201.226 41.5 202.033C43.35 203.39 43.397 203.369 42.128 201.75C41.373 200.787 40.285 200 39.711 200C39.137 200 38.854 200.127 39.083 200.283ZM182.507 205.989C182.157 206.555 182.558 206.723 183.448 206.382C185.18 205.717 185.497 205 184.059 205C183.541 205 182.843 205.445 182.507 205.989ZM54.5 212C54.84 212.55 55.316 213 55.559 213C55.802 213 56 212.55 56 212C56 211.45 55.523 211 54.941 211C54.359 211 54.16 211.45 54.5 212ZM174 212.059C174 212.641 174.45 212.84 175 212.5C175.55 212.16 176 211.684 176 211.441C176 211.198 175.55 211 175 211C174.45 211 174 211.477 174 212.059ZM75.5 222C75.84 222.55 76.316 223 76.559 223C76.802 223 77 222.55 77 222C77 221.45 76.523 221 75.941 221C75.359 221 75.16 221.45 75.5 222ZM153 222.059C153 222.641 153.45 222.84 154 222.5C154.55 222.16 155 221.684 155 221.441C155 221.198 154.55 221 154 221C153.45 221 153 221.477 153 222.059ZM94 227C95.939 228.253 97 228.253 97 227C97 226.45 95.987 226.007 94.75 226.015C92.931 226.028 92.787 226.216 94 227ZM133 227C133 228.253 134.061 228.253 136 227C137.213 226.216 137.069 226.028 135.25 226.015C134.012 226.007 133 226.45 133 227ZM106.5 228C106.16 228.55 106.359 229 106.941 229C107.523 229 108 228.55 108 228C108 227.45 107.802 227 107.559 227C107.316 227 106.84 227.45 106.5 228ZM110 228C108.947 228.68 110.439 228.969 115 228.969C119.561 228.969 121.053 228.68 120 228C119.175 227.467 116.925 227.031 115 227.031C113.075 227.031 110.825 227.467 110 228ZM122 228C122 228.55 122.477 229 123.059 229C123.641 229 123.84 228.55 123.5 228C123.16 227.45 122.684 227 122.441 227C122.198 227 122 227.45 122 228Z" fill="white"/>
<path fill-rule="evenodd" clip-rule="evenodd" d="M100.813 0.683001C101.534 0.972001 102.397 0.936001 102.729 0.604001C103.061 0.272001 102.471 0.0360016 101.417 0.0790016C100.252 0.127002 100.015 0.364001 100.813 0.683001ZM127.813 0.683001C128.534 0.972001 129.397 0.936001 129.729 0.604001C130.061 0.272001 129.471 0.0360016 128.417 0.0790016C127.252 0.127002 127.015 0.364001 127.813 0.683001ZM92.813 1.683C93.534 1.972 94.397 1.936 94.729 1.604C95.061 1.272 94.471 1.036 93.417 1.079C92.252 1.127 92.015 1.364 92.813 1.683ZM135.813 1.683C136.534 1.972 137.397 1.936 137.729 1.604C138.061 1.272 137.471 1.036 136.417 1.079C135.252 1.127 135.015 1.364 135.813 1.683ZM82.5 4C82.16 4.55 82.359 5 82.941 5C83.523 5 84 4.55 84 4C84 3.45 83.802 3 83.559 3C83.316 3 82.84 3.45 82.5 4ZM146 4C146 4.55 146.477 5 147.059 5C147.641 5 147.84 4.55 147.5 4C147.16 3.45 146.684 3 146.441 3C146.198 3 146 3.45 146 4ZM160 9C160 9.55 160.477 10 161.059 10C161.641 10 161.84 9.55 161.5 9C161.16 8.45 160.684 8 160.441 8C160.198 8 160 8.45 160 9ZM206.5 14C207.495 15.1 208.535 16 208.81 16C209.085 16 208.495 15.1 207.5 14C206.505 12.9 205.465 12 205.19 12C204.915 12 205.505 12.9 206.5 14ZM189.872 22.75C188.629 24.336 188.664 24.371 190.25 23.128C191.916 21.821 192.445 21 191.622 21C191.415 21 190.627 21.788 189.872 22.75ZM218.226 25.579C219.176 26.57 220.168 27.166 220.431 26.903C220.694 26.64 219.917 25.829 218.705 25.1C216.598 23.835 216.577 23.857 218.226 25.579ZM223 31.378C223 31.585 223.787 32.373 224.75 33.128C226.336 34.371 226.371 34.336 225.128 32.75C223.821 31.084 223 30.555 223 31.378ZM25.405 42.25L23.5 44.5L25.75 42.595C27.864 40.805 28.455 40 27.655 40C27.465 40 26.453 41.013 25.405 42.25ZM2.079 94.583C2.127 95.748 2.364 95.985 2.683 95.188C2.972 94.466 2.936 93.603 2.604 93.271C2.272 92.939 2.036 93.529 2.079 94.583ZM228.015 101.75C228.007 102.987 228.45 104 229 104C230.253 104 230.253 102.939 229 101C228.216 99.787 228.028 99.931 228.015 101.75ZM0.564003 102.707C0.0220027 104.132 0.136003 104.247 1.124 103.267C1.808 102.588 2.115 101.781 1.807 101.474C1.499 101.166 0.940003 101.721 0.564003 102.707ZM0.731002 126.08C1.085 127.432 1.538 127.886 1.788 127.137C2.028 126.415 1.75 125.35 1.168 124.768C0.426003 124.026 0.296002 124.417 0.731002 126.08ZM228.015 126.25C228.028 128.069 228.216 128.213 229 127C230.253 125.061 230.253 124 229 124C228.45 124 228.007 125.012 228.015 126.25ZM2.079 133.583C2.127 134.748 2.364 134.985 2.683 134.188C2.972 133.466 2.936 132.603 2.604 132.271C2.272 131.939 2.036 132.529 2.079 133.583ZM227.079 134.583C227.127 135.748 227.364 135.985 227.683 135.188C227.972 134.466 227.936 133.603 227.604 133.271C227.272 132.939 227.036 133.529 227.079 134.583ZM39.083 200.283C39.313 200.439 40.4 201.226 41.5 202.033C43.35 203.39 43.397 203.369 42.128 201.75C41.373 200.787 40.285 200 39.711 200C39.137 200 38.854 200.127 39.083 200.283ZM182.507 205.989C182.157 206.555 182.558 206.723 183.448 206.382C185.18 205.717 185.497 205 184.059 205C183.541 205 182.843 205.445 182.507 205.989ZM54.5 212C54.84 212.55 55.316 213 55.559 213C55.802 213 56 212.55 56 212C56 211.45 55.523 211 54.941 211C54.359 211 54.16 211.45 54.5 212ZM174 212.059C174 212.641 174.45 212.84 175 212.5C175.55 212.16 176 211.684 176 211.441C176 211.198 175.55 211 175 211C174.45 211 174 211.477 174 212.059ZM75.5 222C75.84 222.55 76.316 223 76.559 223C76.802 223 77 222.55 77 222C77 221.45 76.523 221 75.941 221C75.359 221 75.16 221.45 75.5 222ZM153 222.059C153 222.641 153.45 222.84 154 222.5C154.55 222.16 155 221.684 155 221.441C155 221.198 154.55 221 154 221C153.45 221 153 221.477 153 222.059ZM94 227C95.939 228.253 97 228.253 97 227C97 226.45 95.987 226.007 94.75 226.015C92.931 226.028 92.787 226.216 94 227ZM133 227C133 228.253 134.061 228.253 136 227C137.213 226.216 137.069 226.028 135.25 226.015C134.012 226.007 133 226.45 133 227Z" fill="black"/>
</svg>
