<svg width="65" height="65" viewBox="0 0 65 65" fill="none" xmlns="http://www.w3.org/2000/svg">
<path fill-rule="evenodd" clip-rule="evenodd" d="M18.207 3.584C12.612 6.372 6.319 12.807 3.352 18.775C0.699999 24.11 0.699999 41.89 3.352 47.225C6.319 53.193 12.612 59.628 18.207 62.416C22.701 64.656 24.674 65 33 65C41.326 65 43.299 64.656 47.793 62.416C53.388 59.628 59.681 53.193 62.648 47.225C65.3 41.89 65.3 24.11 62.648 18.775C59.681 12.807 53.388 6.372 47.793 3.584C40.215 -0.192001 25.785 -0.192001 18.207 3.584Z" fill="#FF80FF"/>
<path fill-rule="evenodd" clip-rule="evenodd" d="M18.207 3.584C12.612 6.372 6.319 12.807 3.352 18.775C0.699999 24.11 0.699999 41.89 3.352 47.225C6.382 53.319 12.708 59.71 18.528 62.558C23.605 65.042 24.699 65.198 34.243 64.801C42.889 64.441 45.183 63.981 48.852 61.868C51.245 60.49 53.196 58.943 53.187 58.431C53.178 57.919 53.694 56.845 54.335 56.044C54.976 55.243 53.834 55.604 51.797 56.846C48.154 59.068 48.101 59.072 48.49 57.053C48.917 54.837 59.528 40.745 61.241 40.12C62.24 39.755 61.915 42.198 60.37 46.657C60.019 47.671 60.948 46.925 62.434 45C65.006 41.669 65.12 41.041 64.802 32C64.568 25.355 63.915 21.38 62.631 18.775C59.701 12.829 53.4 6.378 47.793 3.584C40.215 -0.192001 25.785 -0.192001 18.207 3.584Z" fill="#A3FAE0"/>
<path fill-rule="evenodd" clip-rule="evenodd" d="M18.207 3.584C12.597 6.38 6.293 12.835 3.373 18.775C1.305 22.98 0.0369983 41 1.809 41C2.36 41 5.441 37.415 8.656 33.033C11.87 28.651 14.838 25.051 15.25 25.033C15.662 25.015 16 28.6 16 33V41H20.282C24.196 41 24.583 41.229 24.784 43.659C24.996 46.22 19.656 56 18.046 56C17.636 56 15.365 54.598 13 52.885L8.7 49.77L10.803 52.724C11.96 54.348 13.576 56.233 14.394 56.912C15.212 57.591 15.646 58.76 15.358 59.51C15.015 60.403 16.48 61.624 19.597 63.044C23.739 64.931 25.671 65.159 34.43 64.794C42.882 64.442 45.199 63.971 48.852 61.868C51.245 60.49 53.196 58.943 53.187 58.431C53.178 57.919 53.694 56.845 54.335 56.044C54.976 55.243 53.834 55.604 51.797 56.846C48.154 59.068 48.101 59.072 48.49 57.053C48.917 54.837 59.528 40.745 61.241 40.12C62.24 39.755 61.915 42.198 60.37 46.657C60.019 47.671 60.948 46.925 62.434 45C65.006 41.669 65.12 41.041 64.802 32C64.439 21.689 63.238 18.171 57.856 11.641C55.746 9.082 54.411 8.189 53.724 8.876C53.036 9.564 51.382 9.246 48.604 7.893L44.5 5.893L47.943 8.828C51.344 11.727 51.365 11.795 49.67 14.381C47.959 16.993 47.916 17 34.415 17H20.876L23.982 12.674C25.691 10.295 28.419 6.892 30.044 5.113C31.67 3.333 33 1.679 33 1.438C33 1.197 30.838 1 28.196 1C25.035 1 21.62 1.884 18.207 3.584Z" fill="#7A8C83"/>
<path fill-rule="evenodd" clip-rule="evenodd" d="M18.207 3.584C12.597 6.38 6.293 12.835 3.373 18.775C1.305 22.98 0.0369983 41 1.809 41C2.36 41 5.441 37.415 8.656 33.033C11.87 28.651 14.838 25.051 15.25 25.033C15.662 25.015 16 28.375 16 32.5V40L21.75 40.03C25.939 40.053 27.05 40.323 25.843 41.028C24.824 41.623 24.386 42.761 24.706 43.984C25.405 46.658 19.243 56.307 17.309 55.565C14.045 54.313 17.551 57.346 21.373 59.082C23.643 60.113 24.825 60.964 24 60.973C21.794 60.998 14.5 56.349 14.5 54.919C14.5 54.243 13.659 53.567 12.631 53.416C11.012 53.179 11.096 53.501 13.256 55.821C14.628 57.294 15.552 59.038 15.31 59.695C15.063 60.367 16.947 61.837 19.614 63.052C23.736 64.93 25.681 65.158 34.43 64.794C42.882 64.442 45.199 63.971 48.852 61.868C51.245 60.49 53.196 58.943 53.187 58.431C53.178 57.919 53.625 56.952 54.181 56.282C54.737 55.612 52.428 56.445 49.049 58.133C45.671 59.822 41.015 61.39 38.703 61.618L34.5 62.033L39.5 60.56C42.25 59.751 44.8 59.068 45.167 59.044C46.025 58.987 58.661 42.822 60.655 39.231L62.171 36.5L61.684 40.5C61.416 42.7 60.867 45.4 60.465 46.5C60.062 47.6 60.948 46.925 62.434 45C65.006 41.669 65.12 41.041 64.802 32C64.439 21.689 63.238 18.171 57.856 11.641C55.746 9.082 54.411 8.189 53.724 8.876C53.036 9.564 51.382 9.246 48.604 7.893L44.5 5.893L47.943 8.828C51.313 11.701 51.35 11.816 49.719 14.307C48.478 16.2 48.365 16.977 49.276 17.346C49.949 17.619 42.625 17.81 33 17.771C23.375 17.732 16.704 17.516 18.175 17.291C20.015 17.009 22.18 15.107 25.116 11.191C27.462 8.061 29.751 5.348 30.203 5.163C30.654 4.977 31.484 3.965 32.047 2.913C32.989 1.152 32.687 1 28.232 1C25.033 1 21.635 1.876 18.207 3.584ZM47.768 40.715C46.265 40.943 43.565 40.947 41.768 40.725C39.971 40.502 41.2 40.315 44.5 40.31C47.8 40.304 49.271 40.486 47.768 40.715ZM30.269 61.656C29.592 61.93 28.242 61.947 27.269 61.693C26.296 61.439 26.85 61.215 28.5 61.195C30.15 61.175 30.946 61.382 30.269 61.656Z" fill="#FFFF00"/>
<path fill-rule="evenodd" clip-rule="evenodd" d="M19.362 3.108C12.689 6.347 7.354 11.604 4.068 18.179C1.38 23.559 1 25.352 1 32.66C1 37.247 1.407 41 1.906 41C2.404 41 5.441 37.415 8.656 33.033C11.87 28.651 14.838 25.051 15.25 25.033C15.662 25.015 16 28.375 16 32.5V40L21.75 40.03C25.939 40.053 27.05 40.323 25.843 41.028C24.824 41.623 24.386 42.761 24.706 43.984C25.405 46.658 19.243 56.307 17.309 55.565C14.045 54.313 17.551 57.346 21.373 59.082C23.643 60.113 24.825 60.964 24 60.973C21.794 60.998 14.5 56.349 14.5 54.919C14.5 54.243 13.659 53.567 12.631 53.416C11.012 53.179 11.096 53.501 13.256 55.821C14.628 57.294 15.552 59.038 15.31 59.695C15.063 60.367 16.947 61.837 19.614 63.052C23.736 64.93 25.681 65.158 34.43 64.794C42.882 64.442 45.199 63.971 48.852 61.868C51.245 60.49 53.196 58.943 53.187 58.431C53.178 57.919 53.625 56.952 54.181 56.282C54.737 55.612 52.428 56.445 49.049 58.133C45.671 59.822 41.015 61.39 38.703 61.618L34.5 62.033L39.5 60.56C42.25 59.751 44.8 59.068 45.167 59.044C46.025 58.987 58.661 42.822 60.655 39.231L62.171 36.5L61.684 40.5C61.416 42.7 60.867 45.4 60.465 46.5C60.062 47.6 60.948 46.925 62.434 45C65.006 41.669 65.12 41.041 64.802 32C64.439 21.689 63.238 18.171 57.856 11.641C55.746 9.082 54.411 8.189 53.724 8.876C53.036 9.564 51.382 9.246 48.604 7.893L44.5 5.893L47.943 8.828C51.313 11.701 51.35 11.816 49.719 14.307C48.478 16.2 48.365 16.977 49.276 17.346C49.949 17.619 42.625 17.81 33 17.771C23.375 17.732 16.704 17.516 18.175 17.291C20.015 17.009 22.18 15.107 25.116 11.191C27.462 8.061 29.751 5.348 30.203 5.163C30.654 4.977 31.484 3.965 32.047 2.913C32.99 1.15 32.694 1.004 28.285 1.05C25.63 1.078 21.658 1.994 19.362 3.108ZM47.768 40.715C46.265 40.943 43.565 40.947 41.768 40.725C39.971 40.502 41.2 40.315 44.5 40.31C47.8 40.304 49.271 40.486 47.768 40.715ZM30.269 61.656C29.592 61.93 28.242 61.947 27.269 61.693C26.296 61.439 26.85 61.215 28.5 61.195C30.15 61.175 30.946 61.382 30.269 61.656Z" fill="#E3F171"/>
<path fill-rule="evenodd" clip-rule="evenodd" d="M49.75 10.661C55.371 15.951 56.187 18.294 53 20C51.347 20.885 51 20.761 51.001 19.285C51.002 17.628 49.744 17.521 33.501 17.795L16 18.089V29.045V40L21.75 40.03C26.055 40.053 27.071 40.311 25.792 41.057C24.852 41.605 24.336 42.711 24.644 43.515C25.19 44.939 23.39 54.275 22.097 56.723C21.597 57.669 20.825 57.622 18.692 56.515C17.175 55.728 16.237 55.574 16.606 56.172C17.001 56.811 16.706 57.069 15.889 56.796C15.125 56.542 14.5 55.739 14.5 55.012C14.5 54.285 13.665 53.568 12.644 53.418C9.5 52.957 14.415 57.448 20.593 60.683C24.84 62.907 25.595 63.645 24.227 64.238C23.277 64.649 27.45 64.85 33.5 64.685C43.104 64.422 45.052 64.065 48.852 61.873C51.245 60.492 53.045 59.125 52.852 58.835C52.658 58.545 53.106 57.578 53.846 56.686C54.68 55.681 52.854 56.232 49.049 58.133C45.671 59.822 41.015 61.39 38.703 61.618L34.5 62.033L39.5 60.56C42.25 59.751 44.8 59.068 45.167 59.044C46.025 58.987 58.661 42.822 60.655 39.231L62.171 36.5L61.684 40.5C61.416 42.7 60.867 45.4 60.465 46.5C60.062 47.6 60.917 46.95 62.366 45.056C64.712 41.988 64.999 40.731 64.986 33.556C64.97 24.191 64.309 21 62.383 21C61.623 21 61 20.613 61 20.141C61 18.25 52.504 9.788 48.628 7.818L44.5 5.72L49.75 10.661ZM47.768 40.715C46.265 40.943 43.565 40.947 41.768 40.725C39.971 40.502 41.2 40.315 44.5 40.31C47.8 40.304 49.271 40.486 47.768 40.715ZM24.022 60.811C23.122 61.126 17 58.282 17 57.549C17 57.329 18.779 57.903 20.954 58.824C23.128 59.746 24.509 60.64 24.022 60.811ZM30.269 61.656C29.592 61.93 28.242 61.947 27.269 61.693C26.296 61.439 26.85 61.215 28.5 61.195C30.15 61.175 30.946 61.382 30.269 61.656Z" fill="#DEA08F"/>
<path fill-rule="evenodd" clip-rule="evenodd" d="M16 29V40H21.45H26.9L27.2 45.75L27.5 51.5H33H38.5L38.8 45.75L39.1 40H44.55H50V29V18H33H16V29Z" fill="white"/>
<path fill-rule="evenodd" clip-rule="evenodd" d="M16 29V40H21.45H26.9L27.2 45.75L27.5 51.5H33H38.5L38.8 45.75L39.1 40H44.55H50V29V18H33H16V29Z" fill="#232323"/>
</svg>
