<svg width="64" height="64" viewBox="0 0 64 64" fill="none" xmlns="http://www.w3.org/2000/svg">
<path fill-rule="evenodd" clip-rule="evenodd" d="M0 32V64H32H64V32V0H32H0V32Z" fill="white"/>
<path fill-rule="evenodd" clip-rule="evenodd" d="M0 32V64H32H64V32V0H32H0V32Z" fill="#EDEDED"/>
<path fill-rule="evenodd" clip-rule="evenodd" d="M0 32V64H32H64V32V0H32H0V32ZM45.693 56.731C45.439 57.704 45.215 57.15 45.195 55.5C45.175 53.85 45.382 53.054 45.656 53.731C45.93 54.408 45.947 55.758 45.693 56.731ZM42.397 55.833C42.68 56.292 42.257 56.667 41.456 56.667C40.655 56.667 40 56.292 40 55.833C40 55.375 40.423 55 40.941 55C41.459 55 42.114 55.375 42.397 55.833Z" fill="#BEBEBE"/>
<path fill-rule="evenodd" clip-rule="evenodd" d="M0 32V64H32H64V32V0H32H0V32ZM31 12.241C31 13.446 30.443 13.15 28.405 10.858C26.507 8.724 26.508 8.722 28.75 10.099C29.988 10.859 31 11.823 31 12.241ZM44.345 10.543C44.019 11.392 43.538 11.872 43.276 11.61C43.014 11.348 43.096 10.653 43.459 10.067C44.445 8.471 45.021 8.781 44.345 10.543ZM14.526 13.807C14.219 14.115 13.412 13.808 12.733 13.124C11.753 12.136 11.868 12.022 13.293 12.564C14.279 12.94 14.834 13.499 14.526 13.807ZM36.356 26.234C36.088 26.667 34.908 26.349 33.735 25.527C31.852 24.208 31.335 24.206 29.352 25.505C28.049 26.359 26.86 26.582 26.522 26.036C26.202 25.519 27.151 24.461 28.63 23.686C30.979 22.455 31.67 22.477 34.081 23.861C35.6 24.733 36.623 25.801 36.356 26.234ZM23.5 28C23.84 28.55 23.39 29 22.5 29C21.61 29 21.16 28.55 21.5 28C21.84 27.45 22.29 27 22.5 27C22.71 27 23.16 27.45 23.5 28ZM32.5 28C32.84 28.55 32.416 29 31.559 29C30.702 29 30 28.55 30 28C30 27.45 30.423 27 30.941 27C31.459 27 32.16 27.45 32.5 28ZM41.729 28.604C41.397 28.936 40.534 28.972 39.813 28.683C39.015 28.364 39.252 28.127 40.417 28.079C41.471 28.036 42.061 28.272 41.729 28.604ZM29 31C30.253 31.671 31.761 31.661 33.573 30.972C37.219 29.586 37.773 30.448 34.581 32.539C32.383 33.979 31.533 34.049 28.994 32.998C27.347 32.315 26 31.362 26 30.879C26 29.741 26.701 29.77 29 31ZM32.245 55.5C31.982 56.875 31.647 58 31.5 58C31.353 58 31.018 56.875 30.755 55.5C30.456 53.936 30.735 53 31.5 53C32.265 53 32.544 53.936 32.245 55.5ZM38.812 55.265C39.21 57.331 36.324 58.724 34.8 57.2C33.276 55.676 34.669 52.79 36.735 53.188C37.693 53.372 38.628 54.307 38.812 55.265ZM42.335 54.346C42.976 53.979 43.166 54.048 42.759 54.498C42.351 54.948 42.576 56.032 43.259 56.908C44.341 58.296 44.288 58.334 42.847 57.208C41.497 56.153 41.1 56.153 40.676 57.208C40.391 57.919 40.158 57.15 40.158 55.5C40.158 53.85 40.386 53.065 40.664 53.756C40.943 54.447 41.695 54.713 42.335 54.346ZM47.137 53.7C45.986 54.158 45.986 54.377 47.137 55.106C48.254 55.813 48.229 55.975 47 56C45.667 56.027 45.667 56.138 47 57C48.282 57.828 48.246 57.972 46.75 57.985C45.546 57.995 45 57.22 45 55.5C45 53.756 45.529 53.024 46.75 53.079C47.97 53.134 48.087 53.322 47.137 53.7ZM52.968 57.321C52.986 57.773 52.325 57.468 51.5 56.643C50.675 55.818 50 54.575 50 53.88C50 52.537 52.914 55.915 52.968 57.321ZM35 55.5C35 56.325 35.675 57 36.5 57C37.325 57 38 56.325 38 55.5C38 54.675 37.325 54 36.5 54C35.675 54 35 54.675 35 55.5Z" fill="#9A9A9A"/>
<path fill-rule="evenodd" clip-rule="evenodd" d="M0 32V64H32H64V32V0H32H0V32ZM15.463 8.939C15.782 9.456 15.165 9.813 14.091 9.732C13.017 9.651 12.359 9.228 12.628 8.792C13.293 7.717 14.754 7.793 15.463 8.939ZM20.662 12.25C20.385 12.938 20.158 12.375 20.158 11C20.158 9.625 20.385 9.063 20.662 9.75C20.94 10.438 20.94 11.563 20.662 12.25ZM22.662 12.25C22.385 12.938 22.158 12.375 22.158 11C22.158 9.625 22.385 9.063 22.662 9.75C22.94 10.438 22.94 11.563 22.662 12.25ZM25.662 12.25C25.385 12.938 25.158 12.375 25.158 11C25.158 9.625 25.385 9.063 25.662 9.75C25.94 10.438 25.94 11.563 25.662 12.25ZM28.349 11.532C27.556 13.599 27 13.356 27 10.941C27 9.809 27.43 9.148 27.956 9.473C28.482 9.798 28.659 10.725 28.349 11.532ZM31 11.059C31 12.191 30.57 12.852 30.044 12.527C29.518 12.202 29.341 11.275 29.651 10.468C30.444 8.401 31 8.644 31 11.059ZM41.554 12.78C41.012 13.321 38 10.471 38 9.416C38 9.017 38.903 9.507 40.006 10.506C41.11 11.504 41.806 12.527 41.554 12.78ZM45.25 9.662C43.45 10.389 43.712 11.778 45.75 12.311C47.328 12.723 47.334 12.779 45.809 12.884C44.879 12.948 43.84 12.55 43.5 12C42.702 10.71 43.775 8.977 45.309 9.079C46.168 9.136 46.151 9.299 45.25 9.662ZM49.29 11C49.002 12.1 48.594 13 48.383 13C48.173 13 48 12.1 48 11C48 9.9 48.408 9 48.906 9C49.405 9 49.577 9.9 49.29 11ZM16 12.5C14.568 14.225 12 14.508 12 12.941C12 12.359 12.359 12.104 12.798 12.375C13.237 12.646 14.249 12.455 15.048 11.949C17.139 10.627 17.42 10.789 16 12.5ZM34.096 23.716C38.329 26.216 38.07 28.178 33.808 25.897C32.303 25.092 31.087 25.095 29.299 25.91C25.658 27.569 24.39 26.057 27.664 23.961C31.225 21.682 30.688 21.703 34.096 23.716ZM23.5 28C23.84 28.55 23.39 29 22.5 29C21.61 29 21.16 28.55 21.5 28C21.84 27.45 22.29 27 22.5 27C22.71 27 23.16 27.45 23.5 28ZM32.457 27.931C33.459 29.552 31.282 30.045 29.991 28.489C28.986 27.278 29.047 27 30.319 27C31.178 27 32.141 27.419 32.457 27.931ZM41.306 27.639C42.371 28.704 41.036 29.951 39.474 29.352C38.669 29.043 38.26 28.388 38.565 27.895C39.213 26.846 40.402 26.735 41.306 27.639ZM31 31.194C31.825 31.194 33.513 30.873 34.75 30.48C37.94 29.469 37.53 31.191 34.12 33.131C31.422 34.666 31.068 34.645 28.126 32.783C24.455 30.459 24.081 29.475 27.25 30.48C28.488 30.873 30.175 31.194 31 31.194ZM17.729 53.604C17.397 53.936 16.534 53.972 15.813 53.683C15.015 53.364 15.252 53.127 16.417 53.079C17.471 53.036 18.061 53.272 17.729 53.604ZM21.573 53.895C19.849 54.571 19.823 54.718 21.323 55.294C22.245 55.648 23 56.397 23 56.959C23 57.521 22.123 57.23 21.051 56.312C18.881 54.454 19.23 52.963 21.809 53.07C23.216 53.129 23.177 53.267 21.573 53.895ZM26.245 55.5C25.982 56.875 25.647 58 25.5 58C25.353 58 25.018 56.875 24.755 55.5C24.456 53.936 24.735 53 25.5 53C26.265 53 26.544 53.936 26.245 55.5ZM32.245 55.5C31.982 56.875 31.647 58 31.5 58C31.353 58 31.018 56.875 30.755 55.5C30.456 53.936 30.735 53 31.5 53C32.265 53 32.544 53.936 32.245 55.5ZM38.812 55.265C39.21 57.331 36.324 58.724 34.8 57.2C33.276 55.676 34.669 52.79 36.735 53.188C37.693 53.372 38.628 54.307 38.812 55.265ZM43.5 55.496C43.5 57.145 43.162 57.549 42.347 56.873C41.587 56.242 41.018 56.356 40.676 57.208C40.391 57.919 40.122 57.358 40.079 55.963C40.025 54.229 40.554 53.384 41.75 53.294C42.954 53.203 43.5 53.89 43.5 55.496ZM47.137 53.7C45.986 54.158 45.986 54.377 47.137 55.106C48.254 55.813 48.229 55.975 47 56C45.667 56.027 45.667 56.138 47 57C48.282 57.828 48.246 57.972 46.75 57.985C45.546 57.995 45 57.22 45 55.5C45 53.756 45.529 53.024 46.75 53.079C47.97 53.134 48.087 53.322 47.137 53.7ZM52.985 57.179C52.972 58.232 52.792 58.22 52.096 57.122C51.616 56.364 50.765 56.027 50.205 56.373C49.592 56.752 49.391 56.221 49.701 55.037C50.14 53.357 50.417 53.274 51.607 54.464C52.373 55.23 52.993 56.452 52.985 57.179ZM35.694 54.639C34.895 55.438 35.798 57 37.059 57C37.577 57 38 56.325 38 55.5C38 53.954 36.82 53.513 35.694 54.639ZM17.729 55.604C17.397 55.936 16.534 55.972 15.813 55.683C15.015 55.364 15.252 55.127 16.417 55.079C17.471 55.036 18.061 55.272 17.729 55.604Z" fill="#767676"/>
<path fill-rule="evenodd" clip-rule="evenodd" d="M0 32V64H32H64V32V0H32H0V32ZM15.525 12.973C13.793 14.886 13.558 14.91 11.838 13.353C10.827 12.438 10.036 11.197 10.079 10.595C10.125 9.963 10.371 10.028 10.662 10.75C10.94 11.438 11.627 12 12.19 12C12.753 12 12.939 11.284 12.604 10.41C11.526 7.602 13.13 6.686 15.308 8.864C17.322 10.877 17.327 10.981 15.525 12.973ZM13.429 11C13.429 12.034 13.965 12.567 14.714 12.279C15.421 12.008 16 11.432 16 11C16 10.568 15.421 9.992 14.714 9.721C13.965 9.433 13.429 9.966 13.429 11ZM22.884 11.25C22.778 13.302 22.722 13.324 22.249 11.5L21.73 9.5L20.935 11.5C20.182 13.396 20.137 13.383 20.07 11.25C20.028 9.885 20.59 9 21.5 9C22.423 9 22.955 9.865 22.884 11.25ZM25.662 12.25C25.385 12.938 25.158 12.375 25.158 11C25.158 9.625 25.385 9.063 25.662 9.75C25.94 10.438 25.94 11.563 25.662 12.25ZM28.985 9.75C28.976 10.162 28.533 11.175 28 12C27.216 13.213 27.028 13.069 27.015 11.25C27.007 10.012 27.45 9 28 9C28.55 9 28.993 9.338 28.985 9.75ZM31 11.059C31 12.191 30.57 12.852 30.044 12.527C29.518 12.202 29.341 11.275 29.651 10.468C30.444 8.401 31 8.644 31 11.059ZM36 11.346C36 12.022 35.099 12.642 33.998 12.725C32.306 12.853 32.159 12.572 33.048 10.91C34.131 8.887 36 9.164 36 11.346ZM39.349 11.532C38.556 13.599 38 13.356 38 10.941C38 9.809 38.43 9.148 38.956 9.473C39.482 9.798 39.659 10.725 39.349 11.532ZM41.588 12.745C40.513 13.82 39.942 12.314 40.697 10.393C41.405 8.591 41.459 8.588 41.809 10.328C42.011 11.334 41.912 12.421 41.588 12.745ZM45.75 9.689C44.788 9.941 44 10.531 44 11C44 11.469 44.788 12.059 45.75 12.311C47.067 12.655 46.943 12.797 45.25 12.884C43.984 12.949 43 12.417 43 11.667C43 9.863 44.013 8.977 45.917 9.116C47.185 9.209 47.152 9.323 45.75 9.689ZM50.571 11C50.571 12.1 49.993 13 49.286 13C48.579 13 48 12.1 48 11C48 9.9 48.579 9 49.286 9C49.993 9 50.571 9.9 50.571 11ZM34.782 24.009C37.376 25.59 37.877 26.376 37.168 27.755C36.674 28.715 36.463 30.036 36.699 30.691C36.935 31.347 35.823 32.557 34.23 33.381C31.553 34.765 31.07 34.717 27.916 32.746C25.187 31.042 24.862 30.534 26.298 30.224C27.287 30.01 28.709 30.344 29.459 30.966C30.344 31.7 31.038 31.747 31.439 31.099C31.778 30.55 31.143 29.612 30.028 29.015C28.913 28.418 28 28.256 28 28.656C28 29.055 27.365 28.514 26.589 27.453C25.318 25.714 25.441 25.35 27.839 23.768C31.123 21.603 30.819 21.592 34.782 24.009ZM31 25.386C31 25.598 31.614 26.955 32.364 28.401C33.565 30.716 33.883 30.846 35.013 29.484C36.081 28.198 35.977 27.696 34.398 26.501C32.558 25.108 31 24.597 31 25.386ZM23.355 27.583C24.19 27.903 24.625 28.815 24.32 29.608C23.895 30.716 23.445 30.785 22.383 29.903C21.622 29.272 21 28.36 21 27.878C21 26.844 21.324 26.803 23.355 27.583ZM41.655 28.543C42.517 30.79 41.334 31.477 39.595 29.738C38.77 28.913 38.374 27.96 38.714 27.619C39.785 26.548 41.041 26.942 41.655 28.543ZM13.161 55.75C12.698 58.019 12.527 58.15 12.184 56.5C11.956 55.4 11.258 54.169 10.634 53.765C9.955 53.325 10.346 53.024 11.611 53.015C13.386 53.002 13.633 53.438 13.161 55.75ZM17.137 53.7C15.986 54.158 15.986 54.377 17.137 55.106C18.254 55.813 18.229 55.975 17 56C15.667 56.027 15.667 56.138 17 57C18.282 57.828 18.246 57.972 16.75 57.985C15.546 57.995 15 57.22 15 55.5C15 53.756 15.529 53.024 16.75 53.079C17.97 53.134 18.087 53.322 17.137 53.7ZM21.573 53.895C19.849 54.571 19.823 54.718 21.323 55.294C23.53 56.141 23.479 58.004 21.25 57.985C19.91 57.973 19.812 57.771 20.834 57.124C21.9 56.448 21.837 56.151 20.52 55.646C18.513 54.876 19.465 52.973 21.809 53.07C23.216 53.129 23.177 53.267 21.573 53.895ZM26.245 55.5C25.982 56.875 25.647 58 25.5 58C25.353 58 25.018 56.875 24.755 55.5C24.456 53.936 24.735 53 25.5 53C26.265 53 26.544 53.936 26.245 55.5ZM38.5 55.486C38.5 58.394 35.183 58.648 34.093 55.824L33.196 53.5L32.252 55.948L31.309 58.397L30.797 55.717C30.303 53.136 30.435 53.046 34.392 53.269C37.746 53.458 38.5 53.864 38.5 55.486ZM43.5 55.581C43.5 56.911 43.163 58 42.75 58C42.337 58 41.993 57.438 41.985 56.75C41.974 55.917 41.646 56 41 57C40.234 58.186 40.027 57.968 40.015 55.963C40.005 54.257 40.573 53.382 41.75 53.294C42.971 53.202 43.5 53.894 43.5 55.581ZM47 54C45.667 54.862 45.667 54.973 47 55C48.333 55.027 48.333 55.138 47 56C45.718 56.828 45.754 56.972 47.25 56.985C48.338 56.994 49 56.244 49 55C49 52.858 50.947 52.156 51.079 54.25C51.142 55.25 51.259 55.25 51.662 54.25C52.547 52.056 53.985 52.909 53.771 55.5C53.538 58.312 53.002 58.558 51.053 56.75C49.976 55.75 49.848 55.75 50.412 56.75C50.91 57.631 50.216 58 48.059 58C45.463 58 45 57.622 45 55.5C45 53.78 45.546 53.005 46.75 53.015C48.246 53.028 48.282 53.172 47 54ZM35.597 54.844C35.251 55.404 35.455 56.163 36.05 56.531C37.588 57.481 38.58 56.18 37.296 54.896C36.578 54.178 36.019 54.161 35.597 54.844Z" fill="#5C5C5C"/>
<path fill-rule="evenodd" clip-rule="evenodd" d="M0 32V64H32H64V32V0H32H0V32ZM15.5 13C13.626 15.071 13.626 15.071 11.626 13.071C9.669 11.113 9.666 11.026 11.5 9L13.374 6.929L15.374 8.929C17.331 10.887 17.334 10.974 15.5 13ZM11.909 10.093C10.697 10.873 10.697 11.127 11.909 11.907C13.415 12.877 16 12.303 16 11C16 9.697 13.415 9.123 11.909 10.093ZM23 11C23 12.111 22.333 13 21.5 13C20.667 13 20 12.111 20 11C20 9.889 20.667 9 21.5 9C22.333 9 23 9.889 23 11ZM26 11C26 12.1 25.827 13 25.617 13C25.406 13 24.998 12.1 24.71 11C24.423 9.9 24.595 9 25.094 9C25.592 9 26 9.9 26 11ZM31 11.213C31 12.196 30.55 13 30 13C29.45 13 28.993 12.438 28.985 11.75C28.974 10.917 28.646 11 28 12C27.212 13.22 27.028 13.091 27.015 11.312C27.004 9.736 27.559 9.166 29 9.275C30.198 9.365 31 10.142 31 11.213ZM35.933 10.875C36.787 12.47 36.573 12.75 34.5 12.75C32.427 12.75 32.213 12.47 33.067 10.875C33.619 9.844 34.264 9 34.5 9C34.736 9 35.381 9.844 35.933 10.875ZM42 11.152C42 12.259 41.285 12.822 40 12.725C38.9 12.642 38 11.867 38 11.001C38 10.095 38.848 9.429 40 9.429C41.226 9.429 42 10.095 42 11.152ZM45.75 9.689C43.58 10.256 43.436 12 45.559 12C46.416 12 46.852 12.43 46.527 12.956C45.584 14.482 43 12.971 43 10.893C43 9.562 43.668 9.034 45.25 9.116C46.943 9.203 47.067 9.345 45.75 9.689ZM51 11.469C51 13.252 50.584 13.777 49.5 13.362C48.675 13.045 48 11.934 48 10.893C48 9.852 48.675 9 49.5 9C50.428 9 51 9.941 51 11.469ZM34.913 23.75C37.875 25.436 38.7 26.967 37.366 28.301C37.017 28.649 35.599 28.043 34.213 26.953C32.828 25.864 31.426 25.265 31.097 25.623C30.769 25.981 31.063 26.475 31.75 26.72C32.438 26.966 33 27.824 33 28.627C33 29.43 33.563 30.015 34.25 29.925C38.62 29.358 39.342 31.799 35.661 34.695C34.374 35.707 33.06 37.202 32.74 38.017C32.327 39.069 32.135 38.905 32.079 37.454C32.026 36.078 30.308 34.441 26.831 32.454C21.588 29.457 19.576 27 22.367 27C23.21 27 24.311 27.733 24.812 28.628C25.538 29.926 25.889 29.989 26.539 28.937C27.024 28.152 26.878 27.459 26.177 27.226C24.227 26.576 24.84 25.151 27.75 23.572C31.256 21.67 31.258 21.67 34.913 23.75ZM41.62 28.452C42.568 30.923 40.964 32.333 39.493 30.321C38.769 29.332 38.389 28.18 38.648 27.761C39.415 26.519 41.022 26.893 41.62 28.452ZM28.5 30C28.84 30.55 29.541 31 30.059 31C30.577 31 31 30.55 31 30C31 29.45 30.298 29 29.441 29C28.584 29 28.16 29.45 28.5 30ZM23.689 37.75C23.438 38.712 23.232 37.925 23.232 36C23.232 34.075 23.438 33.288 23.689 34.25C23.941 35.212 23.941 36.788 23.689 37.75ZM42 35.726C42 38.4 40.505 38.038 39.758 35.182C39.462 34.052 39.804 33.333 40.637 33.333C41.408 33.333 42 34.373 42 35.726ZM29 37C29 37.55 28.523 38 27.941 38C27.359 38 27.16 37.55 27.5 37C27.84 36.45 28.316 36 28.559 36C28.802 36 29 36.45 29 37ZM17.137 53.7C15.986 54.158 15.986 54.377 17.137 55.106C18.254 55.813 18.229 55.975 17 56C15.667 56.027 15.667 56.138 17 57C18.213 57.784 18.069 57.972 16.25 57.985C14.619 57.996 13.963 57.381 13.864 55.75L13.728 53.5L13.294 55.75C12.717 58.745 11.35 58.61 10.755 55.5C10.306 53.152 10.527 53.005 14.389 53.079C16.65 53.122 17.887 53.402 17.137 53.7ZM22.137 53.7C21.062 54.127 21.04 54.407 22.033 55.02C23.775 56.097 22.455 59.112 20.559 58.384C19.309 57.905 19.084 56.081 19.926 53.25C19.967 53.112 20.788 53.036 21.75 53.079C22.97 53.134 23.087 53.322 22.137 53.7ZM27.366 53.765C26.742 54.169 26.044 55.4 25.816 56.5C25.473 58.15 25.302 58.019 24.839 55.75C24.367 53.438 24.614 53.002 26.389 53.015C27.654 53.024 28.045 53.325 27.366 53.765ZM43.5 55.733C43.5 56.98 43.163 58 42.75 58C42.337 58 41.993 57.438 41.985 56.75C41.975 55.973 41.692 55.879 41.235 56.504C40.831 57.056 39.26 57.651 37.745 57.826C35.632 58.07 34.772 57.603 34.058 55.822L33.127 53.5L33.063 55.75C32.979 58.745 31.354 58.631 30.772 55.59C30.321 53.229 30.447 53.182 36.906 53.323C43.05 53.457 43.5 53.622 43.5 55.733ZM51.079 54.25C51.142 55.25 51.259 55.25 51.662 54.25C52.506 52.158 54 52.854 54 55.338C54 57.417 53.502 57.695 49.5 57.846C45.318 58.004 45 57.839 45 55.508C45 53.388 45.464 53 48 53C49.691 53 51.034 53.545 51.079 54.25ZM35.553 54.915C35.231 55.436 35.394 56.125 35.915 56.447C36.436 56.769 37.125 56.606 37.447 56.085C37.769 55.564 37.606 54.875 37.085 54.553C36.564 54.231 35.875 54.394 35.553 54.915ZM46.863 54.894C48.014 55.623 48.014 55.842 46.863 56.3C45.913 56.678 46.03 56.866 47.25 56.921C48.212 56.964 49 56.325 49 55.5C49 54.675 48.212 54.007 47.25 54.015C45.88 54.027 45.796 54.218 46.863 54.894Z" fill="#383838"/>
<path fill-rule="evenodd" clip-rule="evenodd" d="M0 32V64H32H64V32V0H32H0V32ZM17.969 11.357C17.986 11.828 17.302 11.946 16.448 11.618C15.594 11.291 15.115 11.377 15.382 11.809C15.649 12.242 15.463 13.249 14.967 14.048C14.212 15.264 13.705 15.14 11.846 13.285C9.699 11.143 9.685 11.005 11.43 9.077C13.148 7.179 13.347 7.165 15.586 8.792C16.879 9.731 17.951 10.886 17.969 11.357ZM22.65 9.529C23.157 10.851 23.42 10.817 24.586 9.279C25.816 7.659 25.939 7.768 25.966 10.5C25.992 13.137 25.628 13.526 22.953 13.713C19.76 13.937 18.311 12.237 19.362 9.5C20.107 7.558 21.899 7.575 22.65 9.529ZM30.324 8.792C30.609 8.081 30.878 9.018 30.921 10.872C30.986 13.657 30.756 14.042 29.597 13.081C28.52 12.187 28.074 12.216 27.676 13.208C27.391 13.919 27.122 12.982 27.079 11.128C27.014 8.343 27.244 7.958 28.403 8.919C29.48 9.813 29.926 9.784 30.324 8.792ZM36.07 10.809C36.129 12.219 36.266 12.181 36.894 10.577C37.308 9.52 38.627 8.583 39.824 8.495C41.604 8.363 42 8.872 42 11.29C42 13.803 41.776 14.059 40.5 13C39.675 12.315 39 12.162 39 12.659C39 13.156 37.425 13.548 35.501 13.531C31.755 13.498 31.405 12.98 33.05 9.906C34.227 7.707 35.963 8.226 36.07 10.809ZM46.318 8.651C46.676 9.009 46.188 9.895 45.234 10.619C43.611 11.852 43.625 11.938 45.45 11.968C46.882 11.992 47.104 12.296 46.287 13.113C44.861 14.539 43 13.403 43 11.108C43 8.444 44.787 7.121 46.318 8.651ZM51.572 11.25C51.8 13.402 51.443 14 49.932 14C48.442 14 48 13.297 48 10.927C48 6.917 51.142 7.202 51.572 11.25ZM35.05 23.526C36.672 24.365 38 25.49 38 26.026C38 26.562 38.852 27 39.893 27C41.867 27 43.513 29.565 42.1 30.438C41.653 30.714 41.497 33.12 41.753 35.783C42.176 40.184 41.972 40.788 39.525 42.392C36.968 44.067 36.733 44.069 34.915 42.423C32.953 40.648 32.619 41.005 32.971 44.5C33.134 46.113 32.924 46.258 31.886 45.25C31.179 44.563 29.983 44 29.229 44C28.474 44 27.192 43.335 26.379 42.522C25.566 41.709 24.26 40.685 23.477 40.247C22.661 39.791 21.924 37.538 21.752 34.975C21.587 32.514 21.096 29.934 20.662 29.243C19.291 27.058 23.113 26.444 24.748 28.588C26.131 30.401 26.169 30.375 25.486 28.093C24.928 26.228 25.299 25.275 27.133 23.865C30.04 21.629 31.28 21.576 35.05 23.526ZM7 30.07C7 30.714 6.286 30.688 5 30C3.9 29.411 3 28.48 3 27.93C3 27.286 3.714 27.312 5 28C6.1 28.589 7 29.52 7 30.07ZM34.079 28.583C34.127 29.748 34.364 29.985 34.683 29.188C34.972 28.466 34.936 27.603 34.604 27.271C34.272 26.939 34.036 27.529 34.079 28.583ZM60 27.965C60 28.495 59.1 29.411 58 30C55.797 31.179 55.312 30.088 57.2 28.2C58.646 26.754 60 26.64 60 27.965ZM28 29.393C28 29.609 28.698 30.054 29.552 30.382C30.442 30.723 30.843 30.555 30.493 29.989C29.906 29.038 28 28.583 28 29.393ZM3 32.118C3 32.668 2.55 32.84 2 32.5C1.45 32.16 1 31.432 1 30.882C1 30.332 1.45 30.16 2 30.5C2.55 30.84 3 31.568 3 32.118ZM53.183 32.217C52.466 32.934 52 32.993 52 32.367C52 31.032 53.183 29.849 53.85 30.517C54.134 30.801 53.834 31.566 53.183 32.217ZM23.631 31.702C22.796 32.538 25.738 35.068 27.196 34.768C27.963 34.61 28.562 35.529 28.651 37C28.735 38.375 28.847 40.314 28.901 41.309C29.077 44.528 31 41.991 31 38.54C31 35.796 30.389 34.837 27.584 33.182C25.705 32.073 23.926 31.407 23.631 31.702ZM36.75 34.601C37.438 34.912 38 36.029 38 37.083C38 38.138 38.481 39 39.07 39C41.062 39 39.576 34.53 37.5 34.278C36.4 34.144 36.063 34.29 36.75 34.601ZM25 38C25 38.55 25.45 39 26 39C26.55 39 27 38.55 27 38C27 37.45 26.55 37 26 37C25.45 37 25 37.45 25 38ZM33.638 38.5C33.322 39.325 33.499 40 34.031 40C34.564 40 35 39.325 35 38.5C35 37.675 34.823 37 34.607 37C34.391 37 33.955 37.675 33.638 38.5ZM25.443 53C27.335 53 27.641 53.425 27.245 55.5C26.675 58.478 25 58.852 25 56C25 54.9 24.502 54 23.893 54C23.284 54 23.032 54.642 23.334 55.427C24.111 57.453 22.062 58.675 18.046 58.581C15.247 58.515 14.46 58.026 13.896 56C13.235 53.627 13.194 53.614 13.1 55.75C12.966 58.762 11.352 58.622 10.764 55.547C10.322 53.236 10.59 53.074 15.398 52.74C18.204 52.545 21.099 52.523 21.832 52.693C22.564 52.862 24.189 53 25.443 53ZM46.038 53.19C53.836 53.215 54 53.267 54 55.691C54 57.239 53.532 58.002 52.75 57.727C52.063 57.485 50.518 57.65 49.318 58.093C48.117 58.536 45.867 58.544 44.318 58.109C42.768 57.675 40.316 57.645 38.868 58.042C35.759 58.895 34.414 58.229 33.732 55.5C33.278 53.684 33.221 53.707 33.116 55.75C32.973 58.532 31 58.765 31 56C31 54.9 30.438 53.936 29.75 53.858C29.063 53.78 30.3 53.422 32.5 53.063C34.7 52.704 36.855 52.58 37.288 52.788C37.721 52.995 41.659 53.176 46.038 53.19ZM17.5 54.935L19.5 55.73L17.5 56.219C16.293 56.514 16.781 56.705 18.734 56.702C21.619 56.697 21.781 56.555 20.234 55.38C19.28 54.656 17.825 54.081 17 54.102C16.05 54.126 16.234 54.432 17.5 54.935ZM36.079 55.583C36.127 56.748 36.364 56.985 36.683 56.188C36.972 55.466 36.936 54.603 36.604 54.271C36.272 53.939 36.036 54.529 36.079 55.583ZM46.813 56.683C47.534 56.972 48.397 56.936 48.729 56.604C49.061 56.272 48.471 56.036 47.417 56.079C46.252 56.127 46.015 56.364 46.813 56.683Z" fill="#070707"/>
</svg>
