<svg width="125" height="126" viewBox="0 0 125 126" fill="none" xmlns="http://www.w3.org/2000/svg">
<path fill-rule="evenodd" clip-rule="evenodd" d="M0 62.5V125H62.5H125V62.5V0H62.5H0V62.5Z" fill="#FDE28E"/>
<path fill-rule="evenodd" clip-rule="evenodd" d="M50.347 16.985C46.413 18.017 41.286 19.834 38.955 21.023C33.481 23.815 25.472 31.327 22.49 36.466C20.444 39.992 19.792 42.11 18.631 49C18.492 49.825 17.395 52.075 16.193 54C13.9 57.672 13.365 63.199 14.908 67.258C15.408 68.572 18.104 72.089 20.9 75.074C23.696 78.058 25.987 80.881 25.992 81.347C25.996 81.812 24.206 84.231 22.013 86.723C14.954 94.742 10.061 108.419 10.017 120.25L10 125H56.372H102.744L103.326 121.25C105.083 109.916 105.129 102.266 103.482 95C102.548 90.875 101.8 86.825 101.822 86C101.924 82.053 103.057 77.047 104.877 72.5C109.449 61.074 111.279 53.159 110.575 47.855C107.514 24.782 78.106 9.708 50.347 16.985ZM59 19.617C59 19.827 57.875 20 56.5 20C55.125 20 54 19.612 54 19.139C54 18.665 55.125 18.492 56.5 18.755C57.875 19.018 59 19.406 59 19.617ZM71.269 19.656C70.592 19.93 69.242 19.947 68.269 19.693C67.296 19.439 67.85 19.215 69.5 19.195C71.15 19.175 71.946 19.382 71.269 19.656ZM47.77 23.029C40.394 27.915 40.397 28.858 47.78 26.342C60.666 21.95 77.864 23.759 87.868 30.557C91.693 33.155 97.72 34.002 96.367 31.75C95.857 30.901 96.158 30.94 97.308 31.872C98.239 32.627 98.964 33.752 98.921 34.372C98.875 35.023 98.665 35.077 98.422 34.5C97.814 33.051 75.937 34.358 67.786 36.33C53.289 39.838 41.976 46.057 37.335 53.07C35.904 55.232 34.36 57 33.902 57C31.736 57 31.208 53.174 32.513 46.946C34.258 38.621 35.498 35.392 38.777 30.627C41.458 26.732 49.4 20 51.315 20C51.88 20 50.285 21.363 47.77 23.029ZM86.559 24.555C88.389 26.022 88.357 26.042 86 24.92C82.939 23.462 82.372 23 83.642 23C84.179 23 85.491 23.7 86.559 24.555ZM93.128 28.75C94.371 30.336 94.336 30.371 92.75 29.128C91.787 28.373 91 27.585 91 27.378C91 26.555 91.821 27.084 93.128 28.75ZM99.128 29.75C100.371 31.336 100.336 31.371 98.75 30.128C97.787 29.373 97 28.585 97 28.378C97 27.555 97.821 28.084 99.128 29.75ZM60.541 48.067C61.567 49.727 60.646 49.957 59.211 48.399C58.501 47.63 58.362 47 58.902 47C59.441 47 60.179 47.48 60.541 48.067ZM27.595 52.25L29.5 54.5L27 52.511C25.625 51.417 24.313 50.404 24.083 50.261C23.854 50.117 24.122 50 24.678 50C25.235 50 26.547 51.013 27.595 52.25ZM95.771 55.562C95.436 55.897 94.623 55.12 93.964 53.836C92.819 51.603 92.846 51.576 94.574 53.226C95.568 54.176 96.107 55.227 95.771 55.562ZM104.345 54.543C104.019 55.392 103.538 55.872 103.276 55.61C103.014 55.348 103.096 54.653 103.459 54.067C104.445 52.471 105.021 52.781 104.345 54.543ZM42.183 56.217C41.466 56.934 41 56.993 41 56.367C41 55.798 41.3 55.033 41.667 54.667C42.033 54.3 42.566 54.233 42.85 54.517C43.134 54.801 42.834 55.566 42.183 56.217ZM31.683 62.188C31.364 62.985 31.127 62.748 31.079 61.583C31.036 60.529 31.272 59.939 31.604 60.271C31.936 60.603 31.972 61.466 31.683 62.188ZM28.683 66.188C28.364 66.985 28.127 66.748 28.079 65.583C28.036 64.529 28.272 63.939 28.604 64.271C28.936 64.603 28.972 65.466 28.683 66.188ZM63.5 91C66.048 92.095 63.419 92.095 60 91C57.99 90.356 57.892 90.194 59.5 90.17C60.6 90.154 62.4 90.527 63.5 91ZM71.25 92.662C70.563 92.94 69.438 92.94 68.75 92.662C68.063 92.385 68.625 92.158 70 92.158C71.375 92.158 71.938 92.385 71.25 92.662ZM82.25 92.662C81.563 92.94 80.438 92.94 79.75 92.662C79.063 92.385 79.625 92.158 81 92.158C82.375 92.158 82.938 92.385 82.25 92.662ZM93 101.345C93 101.535 91.987 102.547 90.75 103.595L88.5 105.5L90.405 103.25C92.195 101.136 93 100.545 93 101.345ZM42.683 104.188C42.364 104.985 42.127 104.748 42.079 103.583C42.036 102.529 42.272 101.939 42.604 102.271C42.936 102.603 42.972 103.466 42.683 104.188ZM75.25 108.662C74.563 108.94 73.438 108.94 72.75 108.662C72.063 108.385 72.625 108.158 74 108.158C75.375 108.158 75.938 108.385 75.25 108.662ZM82.683 115.188C82.364 115.985 82.127 115.748 82.079 114.583C82.036 113.529 82.272 112.939 82.604 113.271C82.936 113.603 82.972 114.466 82.683 115.188ZM80.683 121.188C80.364 121.985 80.127 121.748 80.079 120.583C80.036 119.529 80.272 118.939 80.604 119.271C80.936 119.603 80.972 120.466 80.683 121.188Z" fill="#FCCA00"/>
<path fill-rule="evenodd" clip-rule="evenodd" d="M50.347 16.985C46.413 18.017 41.286 19.834 38.955 21.023C33.481 23.815 25.472 31.327 22.49 36.466C20.444 39.992 19.792 42.11 18.631 49C18.492 49.825 17.395 52.075 16.193 54C13.9 57.672 13.365 63.199 14.908 67.258C15.408 68.572 18.104 72.089 20.9 75.074C23.696 78.058 25.987 80.881 25.992 81.347C25.996 81.812 24.206 84.231 22.013 86.723C14.954 94.742 10.061 108.419 10.017 120.25C9.988 128.148 12.313 126.148 14.283 116.58C17.384 101.512 19.876 94.888 23.993 90.772C26.718 88.047 28.617 87 30.835 87C33.532 87 34.033 87.457 34.947 90.75C36.545 96.504 36.22 99.158 33.576 101.945C31.581 104.049 24.032 121.644 24.007 124.25C24.003 124.662 40.416 125 60.481 125H96.962L97.62 122.377C97.982 120.934 97.979 115.122 97.613 109.462C97.072 101.094 97.257 98.399 98.599 95.044C99.507 92.774 100.394 91.061 100.571 91.237C100.747 91.413 101.37 94.558 101.956 98.224C102.712 102.955 102.708 107.694 101.944 114.546C100.965 123.327 101.121 126.212 102.501 124.832C102.777 124.557 103.515 119.635 104.142 113.895C105.132 104.829 105.052 102.41 103.538 95.479C102.579 91.091 101.809 86.825 101.828 86C101.914 82.101 103.053 77.058 104.877 72.5C109.449 61.074 111.279 53.159 110.575 47.855C107.514 24.782 78.106 9.708 50.347 16.985ZM59 19.617C59 19.827 57.875 20 56.5 20C55.125 20 54 19.612 54 19.139C54 18.665 55.125 18.492 56.5 18.755C57.875 19.018 59 19.406 59 19.617ZM71.269 19.656C70.592 19.93 69.242 19.947 68.269 19.693C67.296 19.439 67.85 19.215 69.5 19.195C71.15 19.175 71.946 19.382 71.269 19.656ZM47.77 23.029C40.394 27.915 40.397 28.858 47.78 26.342C60.666 21.95 77.864 23.759 87.868 30.557C91.693 33.155 97.72 34.002 96.367 31.75C95.857 30.901 96.158 30.94 97.308 31.872C98.239 32.627 98.964 33.752 98.921 34.372C98.875 35.023 98.665 35.077 98.422 34.5C97.814 33.051 75.937 34.358 67.786 36.33C53.289 39.838 41.976 46.057 37.335 53.07C35.904 55.232 34.36 57 33.902 57C31.736 57 31.208 53.174 32.513 46.946C34.258 38.621 35.498 35.392 38.777 30.627C41.458 26.732 49.4 20 51.315 20C51.88 20 50.285 21.363 47.77 23.029ZM86.559 24.555C88.389 26.022 88.357 26.042 86 24.92C82.939 23.462 82.372 23 83.642 23C84.179 23 85.491 23.7 86.559 24.555ZM93.128 28.75C94.371 30.336 94.336 30.371 92.75 29.128C91.787 28.373 91 27.585 91 27.378C91 26.555 91.821 27.084 93.128 28.75ZM99.128 29.75C100.371 31.336 100.336 31.371 98.75 30.128C97.787 29.373 97 28.585 97 28.378C97 27.555 97.821 28.084 99.128 29.75ZM91.416 45.162C90.074 47.758 89.981 48.993 90.899 52.059C91.515 54.113 92.689 56.05 93.509 56.365C94.329 56.68 95 57.606 95 58.423C95 60.053 100.966 61.611 103.492 60.641C105.685 59.8 105.447 66.418 103.099 71.59C99.992 78.431 88.553 84.289 75.817 85.562C64.004 86.742 45.801 80.384 42.452 73.908C39.867 68.909 40.929 67.975 48.41 68.674C57.193 69.494 60.434 68.067 63.008 62.248C64.104 59.772 65 56.734 65 55.498C65 50.085 66.307 46.834 68.891 45.816C72.407 44.432 84.606 42.202 89.276 42.09L93.051 42L91.416 45.162ZM60.541 48.067C61.567 49.727 60.646 49.957 59.211 48.399C58.501 47.63 58.362 47 58.902 47C59.441 47 60.179 47.48 60.541 48.067ZM27.595 52.25L29.5 54.5L27 52.511C25.625 51.417 24.313 50.404 24.083 50.261C23.854 50.117 24.122 50 24.678 50C25.235 50 26.547 51.013 27.595 52.25ZM95.771 55.562C95.436 55.897 94.623 55.12 93.964 53.836C92.819 51.603 92.846 51.576 94.574 53.226C95.568 54.176 96.107 55.227 95.771 55.562ZM104.345 54.543C104.019 55.392 103.538 55.872 103.276 55.61C103.014 55.348 103.096 54.653 103.459 54.067C104.445 52.471 105.021 52.781 104.345 54.543ZM42.183 56.217C41.466 56.934 41 56.993 41 56.367C41 55.798 41.3 55.033 41.667 54.667C42.033 54.3 42.566 54.233 42.85 54.517C43.134 54.801 42.834 55.566 42.183 56.217ZM86.553 55.915C86.231 56.436 86.394 57.125 86.915 57.447C87.436 57.769 88.125 57.606 88.447 57.085C88.769 56.564 88.606 55.875 88.085 55.553C87.564 55.231 86.875 55.394 86.553 55.915ZM81 58C81 58.55 81.423 59 81.941 59C82.459 59 83.16 58.55 83.5 58C83.84 57.45 83.416 57 82.559 57C81.702 57 81 57.45 81 58ZM31.683 62.188C31.364 62.985 31.127 62.748 31.079 61.583C31.036 60.529 31.272 59.939 31.604 60.271C31.936 60.603 31.972 61.466 31.683 62.188ZM28.683 66.188C28.364 66.985 28.127 66.748 28.079 65.583C28.036 64.529 28.272 63.939 28.604 64.271C28.936 64.603 28.972 65.466 28.683 66.188ZM82.618 67.238C80.483 68.482 77.783 70.056 76.618 70.735C75.453 71.415 72.994 71.977 71.154 71.985C67.384 72.002 62 74.775 62 76.701C62 77.581 62.997 77.363 65.25 75.989C67.037 74.899 70.002 74.006 71.838 74.004C73.815 74.002 77.84 72.51 81.714 70.343C88.125 66.758 88.348 66.711 93.158 67.944C97.84 69.144 103.999 68.666 102.548 67.214C102.169 66.836 100.429 66.451 98.68 66.358C96.931 66.266 93.475 65.917 91 65.583C87.402 65.098 85.722 65.429 82.618 67.238ZM63.5 91C66.048 92.095 63.419 92.095 60 91C57.99 90.356 57.892 90.194 59.5 90.17C60.6 90.154 62.4 90.527 63.5 91ZM71.25 92.662C70.563 92.94 69.438 92.94 68.75 92.662C68.063 92.385 68.625 92.158 70 92.158C71.375 92.158 71.938 92.385 71.25 92.662ZM82.25 92.662C81.563 92.94 80.438 92.94 79.75 92.662C79.063 92.385 79.625 92.158 81 92.158C82.375 92.158 82.938 92.385 82.25 92.662ZM93 101.345C93 101.535 91.987 102.547 90.75 103.595L88.5 105.5L90.405 103.25C92.195 101.136 93 100.545 93 101.345ZM42.683 104.188C42.364 104.985 42.127 104.748 42.079 103.583C42.036 102.529 42.272 101.939 42.604 102.271C42.936 102.603 42.972 103.466 42.683 104.188ZM75.25 108.662C74.563 108.94 73.438 108.94 72.75 108.662C72.063 108.385 72.625 108.158 74 108.158C75.375 108.158 75.938 108.385 75.25 108.662ZM82.683 115.188C82.364 115.985 82.127 115.748 82.079 114.583C82.036 113.529 82.272 112.939 82.604 113.271C82.936 113.603 82.972 114.466 82.683 115.188ZM80.683 121.188C80.364 121.985 80.127 121.748 80.079 120.583C80.036 119.529 80.272 118.939 80.604 119.271C80.936 119.603 80.972 120.466 80.683 121.188Z" fill="#D0AC80"/>
<path fill-rule="evenodd" clip-rule="evenodd" d="M56.5 15.633C37.572 18.561 21.628 31.635 19.398 46.057C19.02 48.501 17.906 51.652 16.922 53.061C12.121 59.933 13.205 65.806 20.924 74.751L26.759 81.514L22.878 85.887C15.697 93.979 10 109.542 10 121.065C10 128.182 12.415 125.652 14.283 116.58C17.384 101.512 19.876 94.888 23.993 90.772C26.718 88.047 28.617 87 30.835 87C33.532 87 34.033 87.457 34.947 90.75C36.545 96.504 36.22 99.158 33.576 101.945C32.243 103.35 29.547 108.775 27.583 114C23.752 124.198 23.552 125 24.839 125C25.3 125 27.391 120.516 29.486 115.035C31.582 109.555 34.354 104.076 35.648 102.861C38.426 100.251 38.791 94.83 36.551 89.468C35.754 87.561 35.492 86 35.969 86C36.446 86 39.236 88.064 42.168 90.586C48.421 95.965 56.128 100.063 64.5 102.461C67.8 103.406 71.257 104.856 72.183 105.684C73.337 106.716 74.828 106.977 76.933 106.515C78.684 106.13 80 106.251 80 106.796C80 110.824 58.1 107.24 46.706 101.348C45.115 100.525 43.708 99.998 43.579 100.176C43.449 100.354 42.229 106.013 40.867 112.75L38.391 125H67.677H96.962L97.616 122.392C97.976 120.958 97.988 114.995 97.641 109.142C97.1 100.001 97.274 97.936 98.871 94.5L100.73 90.5L101.565 95.5C102.648 101.978 102.686 107.684 101.708 117.25C101.213 122.095 101.277 125 101.879 125C104.546 125 105.151 100.172 102.686 91.872C100.849 85.684 101.243 81.972 104.799 72C109.378 59.161 110.276 55.462 110.195 49.762C109.996 35.778 98.104 22.983 80.099 17.383C75.231 15.869 61.539 14.854 56.5 15.633ZM59.729 17.604C59.397 17.936 58.534 17.972 57.813 17.683C57.015 17.364 57.252 17.127 58.417 17.079C59.471 17.036 60.061 17.272 59.729 17.604ZM72.25 17.662C71.563 17.94 70.438 17.94 69.75 17.662C69.063 17.385 69.625 17.158 71 17.158C72.375 17.158 72.938 17.385 72.25 17.662ZM79.5 21.47C86.424 23.87 99.004 31.9 98.999 33.917C98.998 34.238 93.71 34.535 87.249 34.578C63.413 34.737 44.486 42.603 35.698 56C34.074 58.475 33.014 59.712 33.342 58.75C33.669 57.788 33.614 56.997 33.219 56.994C32.823 56.99 31.733 55.64 30.797 53.994C29.86 52.347 28.552 51 27.892 51C27.168 51 27.448 51.881 28.595 53.215C30.024 54.876 29.668 54.751 27.173 52.715C25.344 51.222 23.206 50 22.423 50C20.262 50 20.691 45.201 23.363 39.5C26.192 33.464 33.801 26.148 41.095 22.452L46.456 19.735L41.798 24.262C35.533 30.351 31.879 37.782 31.386 45.437L30.995 51.5L32.404 45.402C33.179 42.048 34.941 37.098 36.32 34.402C39.947 27.311 49.651 18.545 52.615 19.682C53.377 19.975 54 19.828 54 19.357C53.999 17.94 74.124 19.608 79.5 21.47ZM100 30.5C101.866 32.425 103.167 34 102.892 34C102.617 34 100.866 32.425 99 30.5C97.134 28.575 95.833 27 96.108 27C96.383 27 98.134 28.575 100 30.5ZM105.02 37.25C105.998 39.269 105.966 39.322 104.706 37.766C103.934 36.812 102.937 36.362 102.491 36.766C102.045 37.169 102.003 36.938 102.399 36.25C103.394 34.521 103.766 34.663 105.02 37.25ZM105.856 41.849C108.442 45.551 109.206 49.444 108.4 54.818L107.709 59.426L106.375 54.213C105.055 49.054 102.5 43.59 99.384 39.262C97.782 37.038 97.79 37.031 100.888 38.111C102.602 38.708 104.838 40.39 105.856 41.849ZM91.416 45.162C90.074 47.758 89.981 48.993 90.899 52.059C91.515 54.113 92.689 56.05 93.509 56.365C94.329 56.68 95 57.606 95 58.423C95 60.053 100.966 61.611 103.492 60.641C105.685 59.8 105.447 66.418 103.099 71.59C99.992 78.431 88.553 84.289 75.817 85.562C64.004 86.742 45.801 80.384 42.452 73.908C39.867 68.909 40.929 67.975 48.41 68.674C57.193 69.494 60.434 68.067 63.008 62.248C64.104 59.772 65 56.734 65 55.498C65 50.085 66.307 46.834 68.891 45.816C72.407 44.432 84.606 42.202 89.276 42.09L93.051 42L91.416 45.162ZM93.948 46.182C93.282 48.505 93.435 50.167 94.518 52.336C96.369 56.047 96.378 56.558 94.564 55.053C92.53 53.365 91.739 48.815 92.934 45.674C94.345 41.962 95.056 42.318 93.948 46.182ZM50 46C50 46.55 49.508 47 48.908 47C47.294 47 42.964 50.631 43.701 51.367C44.049 51.715 44.06 52 43.726 52C41.512 52 42.532 49.711 45.706 47.554C49.976 44.652 50 44.643 50 46ZM57 46C57 46.55 56.55 47 56 47C55.45 47 55 46.55 55 46C55 45.45 55.45 45 56 45C56.55 45 57 45.45 57 46ZM101.368 45.786C101.635 46.218 101.019 46.571 100 46.571C98.981 46.571 98.365 46.218 98.632 45.786C98.9 45.354 99.515 45 100 45C100.485 45 101.1 45.354 101.368 45.786ZM61.53 49.803C60.858 50.475 58 47.981 58 46.723C58 46.155 58.903 46.507 60.006 47.506C61.11 48.504 61.795 49.538 61.53 49.803ZM58.128 50.75C59.384 52.352 59.346 52.379 57.674 51.064C56.087 49.817 55.729 49.817 54.939 51.064C54.439 51.854 54.024 52.013 54.015 51.417C53.977 48.691 56.226 48.326 58.128 50.75ZM25 53.5C26.292 54.875 27.124 56 26.849 56C26.574 56 25.292 54.875 24 53.5C22.708 52.125 21.876 51 22.151 51C22.426 51 23.708 52.125 25 53.5ZM58.729 53.604C58.397 53.936 57.534 53.972 56.813 53.683C56.015 53.364 56.252 53.127 57.417 53.079C58.471 53.036 59.061 53.272 58.729 53.604ZM104 55C102.862 57.126 101 57.71 101 55.941C101 55.359 101.403 55.131 101.895 55.435C102.388 55.74 103.048 55.316 103.364 54.494C103.679 53.672 104.192 53 104.504 53C104.815 53 104.589 53.9 104 55ZM24.443 56.223C26.74 59.502 26.519 68.22 24.083 70.425C19.238 74.809 13.955 64.508 16.975 56.565C18.225 53.279 22.252 53.094 24.443 56.223ZM42.122 56.675C41.251 58.174 41.055 58.217 41.03 56.917C40.998 55.233 42.05 53.716 42.758 54.425C42.992 54.659 42.706 55.671 42.122 56.675ZM63.5 55C63.84 55.55 63.641 56 63.059 56C62.477 56 62 55.55 62 55C62 54.45 62.198 54 62.441 54C62.684 54 63.16 54.45 63.5 55ZM86.553 55.915C86.231 56.436 86.394 57.125 86.915 57.447C87.436 57.769 88.125 57.606 88.447 57.085C88.769 56.564 88.606 55.875 88.085 55.553C87.564 55.231 86.875 55.394 86.553 55.915ZM99 55.441C99 55.684 98.55 56.16 98 56.5C97.45 56.84 97 56.641 97 56.059C97 55.477 97.45 55 98 55C98.55 55 99 55.198 99 55.441ZM81 58C81 58.55 81.423 59 81.941 59C82.459 59 83.16 58.55 83.5 58C83.84 57.45 83.416 57 82.559 57C81.702 57 81 57.45 81 58ZM62.457 58.931C62.774 59.443 62.65 60.098 62.183 60.387C61.716 60.676 61.333 60.257 61.333 59.456C61.333 57.77 61.649 57.623 62.457 58.931ZM31.662 62.25C31.385 62.938 31.158 62.375 31.158 61C31.158 59.625 31.385 59.063 31.662 59.75C31.94 60.438 31.94 61.563 31.662 62.25ZM30.632 66.588C31.801 66.139 32.058 66.718 31.813 69.257C31.533 72.156 31.131 72.535 28.022 72.83C24.657 73.15 24.601 73.099 26.272 71.252C27.285 70.132 28.066 67.513 28.16 64.921C28.298 61.115 28.377 60.963 28.729 63.83C29.031 66.284 29.532 67.01 30.632 66.588ZM60 62.608C60 63.435 58.058 63.903 57.613 63.183C57.324 62.716 57.743 62.333 58.544 62.333C59.345 62.333 60 62.457 60 62.608ZM51 63.393C51 63.609 50.302 64.054 49.448 64.382C48.558 64.723 48.157 64.555 48.507 63.989C49.094 63.038 51 62.583 51 63.393ZM56.5 64C56.84 64.55 56.668 65 56.118 65C55.568 65 54.84 64.55 54.5 64C54.16 63.45 54.332 63 54.882 63C55.432 63 56.16 63.45 56.5 64ZM82.618 67.238C80.483 68.482 77.783 70.056 76.618 70.735C75.453 71.415 72.994 71.977 71.154 71.985C67.384 72.002 62 74.775 62 76.701C62 77.581 62.997 77.363 65.25 75.989C67.037 74.899 70.002 74.006 71.838 74.004C73.815 74.002 77.84 72.51 81.714 70.343C88.125 66.758 88.348 66.711 93.158 67.944C97.84 69.144 103.999 68.666 102.548 67.214C102.169 66.836 100.429 66.451 98.68 66.358C96.931 66.266 93.475 65.917 91 65.583C87.402 65.098 85.722 65.429 82.618 67.238ZM28.29 77C28.002 78.1 27.664 79 27.538 79C27.413 79 26.495 78.1 25.5 77C23.735 75.049 23.753 75 26.251 75C28.32 75 28.712 75.384 28.29 77ZM34.05 78.526C37.662 80.393 38.239 84.321 34.828 83.82C31.793 83.373 31.241 81.004 34.167 80.985C36.04 80.972 36.204 80.778 35 80C32.735 78.536 31.198 78.804 30.689 80.75C30.408 81.827 30.187 81.442 30.116 79.75C29.981 76.552 30.138 76.503 34.05 78.526ZM100.244 81.722C99.553 81.969 99.287 82.695 99.654 83.335C100.021 83.976 99.952 84.166 99.502 83.759C99.052 83.351 97.968 83.562 97.092 84.228C96.216 84.894 96.589 84.217 97.921 82.724C99.252 81.23 100.602 80.293 100.921 80.641C101.239 80.989 100.935 81.476 100.244 81.722ZM57.75 89.159C61.737 89.836 65 90.7 65 91.079C65 92.267 77.323 93.048 81.25 92.108C83.313 91.615 85 91.559 85 91.984C85 92.41 83.863 95.242 82.473 98.277C79.702 104.331 76.225 106.349 73.132 103.698C72.235 102.928 67.614 101.107 62.865 99.652C53.759 96.863 39.844 88.143 39.205 84.827C38.931 83.402 39.679 83.501 44.694 85.552C47.887 86.858 53.763 88.481 57.75 89.159ZM96.308 90.037C93.894 94.367 87.609 100.773 83.182 103.415C82.457 103.848 83.057 101.848 84.515 98.971C85.972 96.094 86.954 92.932 86.696 91.945C86.418 90.882 86.69 90.315 87.363 90.555C87.988 90.779 90.75 89.668 93.5 88.088C96.25 86.508 98.638 85.166 98.808 85.107C98.977 85.048 97.852 87.267 96.308 90.037ZM81.25 90.662C80.563 90.94 79.438 90.94 78.75 90.662C78.063 90.385 78.625 90.158 80 90.158C81.375 90.158 81.938 90.385 81.25 90.662ZM93.579 101.457C93.918 102.808 93.962 104.496 93.677 105.207C93.391 105.918 93.122 105.465 93.079 104.199L93 101.898L89.75 104.333C85.981 107.157 82 108.596 82 107.135C82 106.585 82.821 105.874 83.824 105.556C84.827 105.237 86.936 103.632 88.511 101.988C91.987 98.36 92.78 98.277 93.579 101.457ZM82.707 118.238C82.468 119.482 82.263 118.7 82.252 116.5C82.241 114.3 82.437 113.282 82.687 114.238C82.937 115.194 82.946 116.994 82.707 118.238ZM80.706 120.25C80.467 121.487 80.272 120.475 80.272 118C80.272 115.525 80.467 114.513 80.706 115.75C80.944 116.987 80.944 119.013 80.706 120.25Z" fill="#DA8E2E"/>
<path fill-rule="evenodd" clip-rule="evenodd" d="M53.131 16.541C37.879 19.85 25.317 29.191 21.154 40.319C19.969 43.485 19 47.338 19 48.883C19 50.427 18.109 52.497 17.02 53.482C11.94 58.079 13.696 66.895 21.39 75.427L26.735 81.354L22.2 86.921C19.706 89.983 16.603 94.811 15.303 97.65C11.457 106.051 8.476 125 11 125C11.55 125 12.008 123.088 12.017 120.75C12.064 109.214 17.639 94.111 24.554 86.785C27.643 83.512 28.341 83.198 30.42 84.145C33.108 85.37 34.928 88.708 36.064 94.5C36.743 97.965 36.524 98.841 34.425 101.053C31.967 103.644 23.506 123.839 24.473 124.806C25.292 125.625 25.512 125.183 29.967 113.743C32.498 107.245 34.918 102.579 36.079 101.958C38.453 100.687 38.685 94.575 36.551 89.468C34.734 85.12 36.471 84.713 40.076 88.642C44.345 93.296 54.108 98.947 62.407 101.569C66.842 102.97 71.192 104.768 72.073 105.566C73.143 106.535 74.722 106.806 76.837 106.383C78.701 106.01 80 106.161 80 106.75C80 110.821 58.176 107.279 46.706 101.348C45.115 100.525 43.708 99.998 43.579 100.176C43.449 100.354 42.229 106.013 40.867 112.75L38.391 125H66.696H95L95.013 111.25C95.024 98.987 95.277 96.959 97.346 92.5L99.666 87.5L101.058 91.5C102.593 95.914 102.917 111.198 101.661 120C101.126 123.75 101.202 125.178 101.901 124.488C102.464 123.931 103.379 119.471 103.936 114.576C104.952 105.63 104.159 95.179 102.041 89.608C100.873 86.535 101.76 78.382 103.577 75.5C104.27 74.4 105.347 71.475 105.97 69C106.592 66.525 107.786 62.723 108.622 60.551C110.456 55.788 110.593 47.334 108.918 42.231C104.807 29.71 92.227 19.987 75.726 16.578C66.621 14.698 61.664 14.69 53.131 16.541ZM59.729 17.604C59.397 17.936 58.534 17.972 57.813 17.683C57.015 17.364 57.252 17.127 58.417 17.079C59.471 17.036 60.061 17.272 59.729 17.604ZM72.25 17.662C71.563 17.94 70.438 17.94 69.75 17.662C69.063 17.385 69.625 17.158 71 17.158C72.375 17.158 72.938 17.385 72.25 17.662ZM80.024 21.703C86.637 24.082 92.089 27.431 97.5 32.438L101.5 36.14L98.5 35.32C92.826 33.769 75.958 34.609 67 36.888C51.277 40.889 41.824 46.661 35.698 56C34.074 58.475 33.014 59.712 33.342 58.75C33.669 57.788 33.614 56.997 33.219 56.994C32.823 56.99 31.733 55.64 30.797 53.994C29.86 52.347 28.552 51 27.892 51C27.163 51 27.436 51.885 28.588 53.25L30.486 55.5L27.928 53.25C24.213 49.981 22.082 50.354 25.076 53.75L27.5 56.5L24.781 54.105C23.285 52.787 22.299 51.325 22.59 50.855C22.88 50.385 22.641 50 22.059 50C20.256 50 20.907 44.74 23.359 39.5C26.418 32.963 32.398 27.117 40.204 23.035L46.5 19.742L41.749 24.523C35.641 30.67 32.005 38.112 31.436 45.633L30.992 51.5L32.402 45.402C33.178 42.048 34.941 37.098 36.32 34.402C39.947 27.311 49.651 18.545 52.615 19.682C53.377 19.975 54 19.828 54 19.357C53.999 17.792 74.221 19.615 80.024 21.703ZM100 30.5C101.866 32.425 103.167 34 102.892 34C102.617 34 100.866 32.425 99 30.5C97.134 28.575 95.833 27 96.108 27C96.383 27 98.134 28.575 100 30.5ZM105.02 37.25C105.998 39.269 105.966 39.322 104.706 37.766C103.934 36.812 102.937 36.362 102.491 36.766C102.045 37.169 102.003 36.938 102.399 36.25C103.394 34.521 103.766 34.663 105.02 37.25ZM93.921 37.265C96.739 38.702 97.832 41 95.698 41C94.891 41 93.503 42.109 92.615 43.465C87.578 51.153 95.354 62.092 102.962 58.02C107.176 55.765 106.141 67.646 101.421 75.716C95.871 85.206 88.309 88.349 71 88.359C60.056 88.366 57.471 88.027 50.235 85.635C45.645 84.118 40.658 81.702 39.019 80.202C33.313 74.978 30.158 73 27.535 73C24.998 73 24.952 72.907 26.443 70.777C27.299 69.555 28.072 66.743 28.16 64.527C28.311 60.716 28.342 60.679 28.729 63.83C29.022 66.214 29.545 67.005 30.569 66.612C31.586 66.222 32.019 66.849 32.066 68.781C32.111 70.666 32.567 69.884 33.55 66.23C34.331 63.332 35.706 59.536 36.606 57.795L38.243 54.629L40.372 58.989C43.805 66.021 51.481 68.871 57.961 65.52C67.186 60.75 67.383 48.782 58.308 44.476L54.527 42.682L60.013 40.803C72.085 36.669 89.244 34.878 93.921 37.265ZM103.102 39.287C107.47 42.226 109.373 47.677 108.411 54.5C108.024 57.25 107.58 59.05 107.426 58.5C107.272 57.95 106.434 54.942 105.564 51.815C104.694 48.688 102.414 44.075 100.497 41.565C96.645 36.518 97.664 35.627 103.102 39.287ZM93.948 46.182C93.282 48.505 93.435 50.167 94.518 52.336C96.369 56.047 96.378 56.558 94.564 55.053C92.53 53.365 91.739 48.815 92.934 45.674C94.345 41.962 95.056 42.318 93.948 46.182ZM50 46C50 46.55 49.508 47 48.908 47C47.294 47 42.964 50.631 43.701 51.367C44.049 51.715 44.06 52 43.726 52C41.512 52 42.532 49.711 45.706 47.554C49.976 44.652 50 44.643 50 46ZM57 46C57 46.55 56.55 47 56 47C55.45 47 55 46.55 55 46C55 45.45 55.45 45 56 45C56.55 45 57 45.45 57 46ZM101.368 45.786C101.635 46.218 101.019 46.571 100 46.571C98.981 46.571 98.365 46.218 98.632 45.786C98.9 45.354 99.515 45 100 45C100.485 45 101.1 45.354 101.368 45.786ZM61.53 49.803C60.858 50.475 58 47.981 58 46.723C58 46.155 58.903 46.507 60.006 47.506C61.11 48.504 61.795 49.538 61.53 49.803ZM58.128 50.75C59.384 52.352 59.346 52.379 57.674 51.064C56.087 49.817 55.729 49.817 54.939 51.064C54.439 51.854 54.024 52.013 54.015 51.417C53.977 48.691 56.226 48.326 58.128 50.75ZM25.787 59.551C27.283 64.005 26.641 68.11 24.088 70.42C18.497 75.48 12.631 60.369 18.073 54.927C19.934 53.066 20.37 53 22.323 54.285C23.52 55.073 25.079 57.442 25.787 59.551ZM58.729 53.604C58.397 53.936 57.534 53.972 56.813 53.683C56.015 53.364 56.252 53.127 57.417 53.079C58.471 53.036 59.061 53.272 58.729 53.604ZM104 55C102.862 57.126 101 57.71 101 55.941C101 55.359 101.403 55.131 101.895 55.435C102.388 55.74 103.048 55.316 103.364 54.494C103.679 53.672 104.192 53 104.504 53C104.815 53 104.589 53.9 104 55ZM42.122 56.675C41.251 58.174 41.055 58.217 41.03 56.917C40.998 55.233 42.05 53.716 42.758 54.425C42.992 54.659 42.706 55.671 42.122 56.675ZM63.5 55C63.84 55.55 63.641 56 63.059 56C62.477 56 62 55.55 62 55C62 54.45 62.198 54 62.441 54C62.684 54 63.16 54.45 63.5 55ZM99 55.441C99 55.684 98.55 56.16 98 56.5C97.45 56.84 97 56.641 97 56.059C97 55.477 97.45 55 98 55C98.55 55 99 55.198 99 55.441ZM62.457 58.931C62.774 59.443 62.65 60.098 62.183 60.387C61.716 60.676 61.333 60.257 61.333 59.456C61.333 57.77 61.649 57.623 62.457 58.931ZM31.662 62.25C31.385 62.938 31.158 62.375 31.158 61C31.158 59.625 31.385 59.063 31.662 59.75C31.94 60.438 31.94 61.563 31.662 62.25ZM60 62.608C60 63.435 58.058 63.903 57.613 63.183C57.324 62.716 57.743 62.333 58.544 62.333C59.345 62.333 60 62.457 60 62.608ZM51 63.393C51 63.609 50.302 64.054 49.448 64.382C48.558 64.723 48.157 64.555 48.507 63.989C49.094 63.038 51 62.583 51 63.393ZM56.5 64C56.84 64.55 56.668 65 56.118 65C55.568 65 54.84 64.55 54.5 64C54.16 63.45 54.332 63 54.882 63C55.432 63 56.16 63.45 56.5 64ZM84 66.884C76.864 70.919 74.394 71.909 70 72.494C65.445 73.1 61.101 75.434 62.299 76.632C62.658 76.991 63.59 76.755 64.371 76.107C65.151 75.459 68.35 74.513 71.479 74.003C74.979 73.434 78.962 71.882 81.834 69.97C85.78 67.341 87.117 66.955 90.5 67.47C97.433 68.523 101.302 68.534 101.657 67.5C101.845 66.95 100.313 66.455 98.25 66.4C96.188 66.345 92.925 65.986 91 65.602C88.395 65.083 86.605 65.411 84 66.884ZM28.29 77C28.002 78.1 27.477 79 27.124 79C26.77 79 25.919 78.1 25.232 77C24.113 75.207 24.233 75 26.398 75C28.32 75 28.706 75.408 28.29 77ZM34.05 78.526C37.354 80.234 38.161 84 35.223 84C32.191 84 29.128 81.227 29.708 79.007C30.338 76.601 30.329 76.602 34.05 78.526ZM31.079 80.75C31.122 81.713 31.376 81.963 31.644 81.306C31.911 80.65 32.849 80.389 33.729 80.726C34.791 81.134 35.085 80.947 34.605 80.17C33.493 78.371 30.99 78.783 31.079 80.75ZM100.244 81.722C99.553 81.969 99.287 82.695 99.654 83.335C100.021 83.976 99.952 84.166 99.502 83.759C99.052 83.351 97.968 83.562 97.092 84.228C96.216 84.894 96.589 84.217 97.921 82.724C99.252 81.23 100.602 80.293 100.921 80.641C101.239 80.989 100.935 81.476 100.244 81.722ZM48 86.615C51.575 87.875 56.862 89.204 59.75 89.568C62.638 89.932 65 90.576 65 90.999C65 92.25 77.184 93.081 81.25 92.108C83.313 91.615 85 91.557 85 91.981C85 92.405 83.906 95.226 82.568 98.25C79.828 104.446 76.69 106.147 72.746 103.577C71.511 102.772 66.9 100.979 62.5 99.592C54.117 96.949 47.942 93.522 41.716 88.055C37.798 84.615 36.76 82.241 39.75 83.556C40.712 83.979 44.425 85.356 48 86.615ZM96.364 90.073C93.999 94.418 87.729 100.771 83.182 103.431C82.457 103.855 83.057 101.848 84.515 98.971C85.972 96.094 86.954 92.932 86.696 91.945C86.418 90.882 86.69 90.315 87.363 90.555C87.988 90.779 90.75 89.668 93.5 88.088C96.25 86.508 98.641 85.166 98.812 85.107C98.984 85.048 97.882 87.283 96.364 90.073ZM81.25 90.662C80.563 90.94 79.438 90.94 78.75 90.662C78.063 90.385 78.625 90.158 80 90.158C81.375 90.158 81.938 90.385 81.25 90.662ZM93.635 102.251C93.709 104.588 93.565 105.488 93.316 104.252L92.861 102.004L89.681 104.386C85.848 107.256 82 108.587 82 107.043C82 106.442 83.013 105.557 84.25 105.076C85.487 104.595 87.822 102.806 89.437 101.101C91.052 99.395 92.627 98.001 92.937 98.001C93.247 98.002 93.561 99.915 93.635 102.251ZM82.707 118.238C82.468 119.482 82.263 118.7 82.252 116.5C82.241 114.3 82.437 113.282 82.687 114.238C82.937 115.194 82.946 116.994 82.707 118.238ZM80.706 120.25C80.467 121.487 80.272 120.475 80.272 118C80.272 115.525 80.467 114.513 80.706 115.75C80.944 116.987 80.944 119.013 80.706 120.25Z" fill="#735F46"/>
<path fill-rule="evenodd" clip-rule="evenodd" d="M50.5 17.496C33.318 22.185 21.548 33.398 19.364 47.158C18.985 49.546 17.81 52.674 16.754 54.108C15.526 55.776 14.833 58.351 14.833 61.247C14.833 65.661 17.002 71.476 18.905 72.16C19.425 72.347 21.415 74.483 23.326 76.906L26.8 81.312L22.82 86.347C17.722 92.796 14.537 99.12 12.632 106.571C10.552 114.708 9.489 125 10.728 125C11.27 125 11.968 121.513 12.277 117.25C13.082 106.174 16.197 97.178 21.792 89.771C24.386 86.336 27.283 83.377 28.231 83.194C30.969 82.667 34.602 87.172 35.942 92.759C37.146 97.777 37.105 97.989 34.211 101.7C32.581 103.79 30.784 106.85 30.218 108.5C29.652 110.15 27.989 114.65 26.522 118.5C25.055 122.35 24.297 125.05 24.839 124.5C25.38 123.95 27.462 119.225 29.467 114C31.471 108.775 34.211 103.35 35.556 101.945C38.37 99.004 38.544 97.124 36.598 90.659C35.827 88.097 35.608 86 36.112 86C36.616 86 39.519 88.028 42.562 90.508C49.349 96.036 55.337 99.134 64.775 102C68.749 103.207 72 104.601 72 105.097C72 105.594 73.8 106 76 106C80.615 106 81.349 107.48 77.149 108.32C71.416 109.467 55.243 105.763 46.706 101.348C45.115 100.525 43.708 99.998 43.579 100.176C43.449 100.354 42.229 106.013 40.867 112.75L38.391 125H60.148H81.905L82.26 118.75L82.615 112.5L82.807 118.75L83 125H88H93V113.449V101.898L89.75 104.333C87.963 105.672 85.503 107.07 84.285 107.44C82.018 108.128 81.389 110.053 80.675 118.5C80.443 121.238 80.283 120.549 80.168 116.315C79.976 109.261 81.236 105 83.514 105C84.374 105 86.972 103.177 89.289 100.95L93.5 96.899L94.042 111.2L94.584 125.5L94.792 110.71C94.971 97.961 95.287 95.358 97.081 91.841C98.34 89.373 99.524 88.124 100.077 88.677C102.812 91.412 103.62 112.319 101.401 122.967C100.947 125.147 101.031 125.253 101.999 123.727C102.618 122.752 103.376 116.452 103.682 109.727C104.166 99.103 103.972 96.717 102.201 91.532C100.816 87.476 100.457 85.014 101.082 83.848C101.587 82.904 102 81.251 102 80.175C102 79.099 102.89 76.257 103.978 73.859C105.066 71.462 105.935 68.6 105.908 67.5C105.882 66.4 105.224 67.566 104.446 70.091C102.519 76.346 96.262 83.185 89.788 86.111C85.027 88.262 83.154 88.495 71 88.449C59.033 88.405 56.563 88.087 49.25 85.656C44.713 84.147 39.988 81.894 38.75 80.648C34.768 76.639 29.192 73 27.032 73C25.154 73 25.061 72.76 26.16 70.75C26.837 69.513 27.696 66.7 28.07 64.5C28.74 60.554 28.751 60.546 28.875 63.857C28.97 66.402 29.363 67.075 30.5 66.638C31.546 66.237 32.022 66.734 32.071 68.281C32.11 69.502 32.943 67.703 33.921 64.284C34.899 60.865 36.281 57.367 36.992 56.51C37.703 55.653 38.028 54.695 37.715 54.381C37.401 54.068 36.232 55.541 35.116 57.656C34.001 59.77 33.024 60.825 32.945 60C32.865 59.175 32.403 59.625 31.916 61C31.225 62.952 31.136 62.595 31.509 59.367C31.845 56.459 31.544 54.866 30.493 53.994C29.672 53.313 29 53.105 29 53.533C29 53.96 28.212 53.6 27.25 52.733C26.288 51.866 24.239 50.841 22.697 50.456C20.171 49.826 19.959 49.448 20.549 46.628C22.541 37.1 30.316 27.407 39.836 22.583C47.083 18.911 47.988 19.378 42.678 24.053C37.374 28.721 32.307 38.236 31.521 45C31.036 49.178 31.105 49.088 32.478 43.741C35.094 33.559 39.845 26.33 46.841 21.889C49.273 20.345 51.874 19.398 52.755 19.736C53.62 20.068 54.068 19.919 53.75 19.405C53.003 18.195 66.715 18.672 74 20.109C81.562 21.6 90.552 26.166 96.463 31.517C99.187 33.982 101.772 36 102.208 36C103.865 36 102.865 34.274 99.051 30.55C96.879 28.429 95.192 26.256 95.301 25.722C95.41 25.187 94.875 24.523 94.111 24.245C93.179 23.907 92.983 24.163 93.515 25.025C94.04 25.873 93.912 26.063 93.138 25.585C92.494 25.187 92.233 24.433 92.557 23.908C93.143 22.959 83.05 17.959 80.721 18.045C80.05 18.07 80.85 18.708 82.5 19.464C86.444 21.27 85.552 21.301 80 19.552C77.418 18.738 76.352 18.063 77.5 17.967C79.197 17.826 79.121 17.679 77 17C72.943 15.701 55.91 16.02 50.5 17.496ZM59.25 17.662C58.563 17.94 57.438 17.94 56.75 17.662C56.063 17.385 56.625 17.158 58 17.158C59.375 17.158 59.938 17.385 59.25 17.662ZM73.75 17.689C72.787 17.941 71.213 17.941 70.25 17.689C69.287 17.438 70.075 17.232 72 17.232C73.925 17.232 74.713 17.438 73.75 17.689ZM89.559 22.555C91.389 24.022 91.357 24.042 89 22.92C85.939 21.462 85.372 21 86.642 21C87.179 21 88.491 21.7 89.559 22.555ZM99.996 30.496C103.197 33.758 104.107 35.293 103.312 36.088C102.516 36.884 101.568 36.824 99.857 35.868C95.734 33.565 78.071 34.337 66.761 37.315C56.044 40.137 44.745 45.569 40.605 49.891L37.933 52.679L39.866 57.188C42.433 63.176 46.379 66.271 50.434 65.478C52.759 65.024 53.137 65.135 52 65.938C49.675 67.58 57.003 66.066 59.79 64.329C63.208 62.198 65.392 56.904 64.598 52.672C63.865 48.763 59.1 44 55.923 44C49.325 44 61.182 39.385 73.886 37.008C81.85 35.518 91.63 35.757 95.05 37.526C98.161 39.135 98.979 41 96.573 41C94.275 41 91 45.996 91 49.5C91 55.682 97.075 60.063 102.688 57.929C105.067 57.024 105.201 57.233 106.26 63.5C106.482 64.814 107.224 63.653 108.425 60.113C110.686 53.445 110.172 44.2 107.22 38.471C104.751 33.677 98.283 26 96.714 26C96.092 26 97.569 28.023 99.996 30.496ZM99.557 37.021C101.371 37.711 102.639 37.714 103.464 37.03C104.676 36.024 106 36.601 106 38.135C106 38.576 105.213 38.657 104.25 38.314C103.092 37.902 103.493 38.758 105.436 40.845C107.819 43.404 108.447 45.081 108.769 49.749C108.987 52.912 108.739 56.624 108.219 57.998C107.349 60.295 107.181 60.07 106.14 55.215C104.576 47.925 101.399 41.91 99.496 42.64C98.673 42.956 98 42.689 98 42.048C98 41.407 98.45 41.16 99 41.5C100.765 42.591 100.069 40.702 97.826 38.314C95.4 35.732 95.658 35.539 99.557 37.021ZM97 42.878C97 43.36 96.325 44.315 95.5 45C94.675 45.685 94 47.508 94 49.051C94 53.949 98.436 56.443 102.899 54.054C104.21 53.352 104.667 53.481 104.667 54.554C104.667 56.188 104.83 56.126 99.697 56.445C96.678 56.633 95.494 56.172 93.947 54.206C91.599 51.221 91.443 47.24 93.557 44.223C95.125 41.984 97 41.251 97 42.878ZM50.434 45.893C50.738 46.385 49.876 47.065 48.518 47.406C47.161 47.747 45.382 49.257 44.565 50.763C43.741 52.282 43.055 52.833 43.025 52C42.976 50.667 42.862 50.667 42 52C41.433 52.877 41.024 53.011 41.015 52.323C41 51.14 47.836 45 49.169 45C49.561 45 50.13 45.402 50.434 45.893ZM60.506 48.007C62.886 50.491 63.154 51.229 62.046 52.257C60.958 53.266 60.816 53.185 61.293 51.825C61.723 50.598 60.832 49.631 57.967 48.214C55.816 47.149 54.343 45.991 54.694 45.639C55.971 44.363 57.684 45.06 60.506 48.007ZM101.493 45.989C101.843 46.555 101.442 46.723 100.552 46.382C99.698 46.054 99 46.251 99 46.82C99 47.388 99.787 48.086 100.75 48.369C102.123 48.774 102.072 48.841 100.511 48.681C98.168 48.441 97.099 45 99.368 45C100.201 45 101.157 45.445 101.493 45.989ZM58.128 50.75C59.384 52.352 59.346 52.379 57.674 51.064C56.087 49.817 55.729 49.817 54.939 51.064C54.193 52.243 54.028 52.187 54.015 50.75C54.007 49.788 54.62 49 55.378 49C56.135 49 57.373 49.788 58.128 50.75ZM25.411 54.077C26.835 55.769 27.998 57.681 27.996 58.327C27.994 58.972 27.125 58.077 26.064 56.338C25.004 54.599 23.318 52.7 22.318 52.118C21.318 51.537 21.022 51.047 21.661 51.03C22.3 51.014 23.987 52.385 25.411 54.077ZM23.942 55.438C28.387 60.17 27.32 71.086 22.34 71.804C17.172 72.55 13.744 60.667 17.557 55.223C19.558 52.365 21.104 52.417 23.942 55.438ZM58.25 53.662C57.563 53.94 56.438 53.94 55.75 53.662C55.063 53.385 55.625 53.158 57 53.158C58.375 53.158 58.938 53.385 58.25 53.662ZM63.97 55.75C63.944 58.109 63.794 58.25 62.915 56.742C62.352 55.775 62.168 54.538 62.505 53.992C63.539 52.319 64.001 52.874 63.97 55.75ZM30.807 56.526C30.499 56.834 29.94 56.279 29.564 55.293C29.022 53.868 29.136 53.753 30.124 54.733C30.808 55.412 31.115 56.219 30.807 56.526ZM42.513 56.75C42.224 58.263 42.235 58.992 42.537 58.37C42.877 57.671 44.183 58.337 45.966 60.12C49.933 64.086 55.063 64.091 59.021 60.133C61.836 57.318 63.883 57.994 61.923 61.091C61.157 62.301 61.028 62.3 61.015 61.083C60.997 59.414 59.51 60.623 59.478 62.333C59.465 62.975 58.633 63.357 57.627 63.183C56.622 63.009 56.027 63.235 56.305 63.685C56.584 64.135 54.491 64.47 51.656 64.429C48.82 64.388 46.58 63.937 46.679 63.427C46.944 62.051 43.871 58.962 42.859 59.587C41.699 60.304 40.634 57.397 41.362 55.5C42.32 53.002 43.073 53.819 42.513 56.75ZM80.831 68.852C78.232 70.522 74.02 72.155 71.331 72.535C66.604 73.202 61.312 75.645 62.349 76.682C62.636 76.969 63.9 76.483 65.158 75.602C66.416 74.721 68.807 73.99 70.473 73.978C73.265 73.958 77.744 72.14 84 68.489C87.019 66.727 91.989 66.582 95.444 68.157C97.286 68.996 98.603 69.017 100.241 68.236C102.409 67.202 102.379 67.157 99.5 67.134C97.85 67.12 94.025 66.826 91 66.48C86.032 65.912 85.049 66.141 80.831 68.852ZM28.296 74.56C29.465 75.009 29.532 75.594 28.631 77.503L27.506 79.885L25.253 77.768C24.014 76.604 23 75.28 23 74.826C23 73.883 26.123 73.726 28.296 74.56ZM37 82.009C37 84.737 35.824 85.055 32.21 83.305C28.921 81.712 28.103 79.297 30.157 77.243C31.701 75.699 37 79.389 37 82.009ZM31 79.786C31 80.218 31.867 80.571 32.927 80.571C33.986 80.571 34.635 80.218 34.368 79.786C34.1 79.354 33.234 79 32.441 79C31.648 79 31 79.354 31 79.786ZM97.997 87.715C94.688 93.799 85.472 104 83.284 104C81.552 104 81.616 103.691 84.532 97.936C86.519 94.015 86.826 92.568 85.957 91.219C85.107 89.9 84.959 89.865 85.324 91.069C85.585 91.932 84.381 95.307 82.649 98.569C80.076 103.415 78.981 104.559 76.662 104.825C75.1 105.004 73.075 104.497 72.162 103.699C71.248 102.9 67.028 101.231 62.784 99.988C58.541 98.746 52.466 96.025 49.284 93.942C43.389 90.082 37.271 84.396 38.11 83.556C38.366 83.301 42.493 84.442 47.281 86.093C52.069 87.743 59.478 89.463 63.744 89.914C68.364 90.402 70.085 90.835 68 90.985C64.745 91.218 64.85 91.297 69.5 92.124C75.924 93.265 83.662 92.322 84.437 90.304C84.902 89.091 85.323 89.023 86.469 89.974C87.623 90.932 88.964 90.603 93.142 88.337C96.017 86.776 98.567 84.884 98.808 84.13C99.063 83.335 97.629 83.86 95.391 85.38C93.271 86.821 91.102 88 90.572 88C90.042 88 91.668 86.694 94.185 85.098C96.702 83.502 99.122 81.611 99.564 80.897C100.142 79.962 100.475 79.925 100.755 80.764C100.968 81.405 99.727 84.533 97.997 87.715ZM79.75 90.716C78.237 90.945 75.763 90.945 74.25 90.716C72.737 90.487 73.975 90.3 77 90.3C80.025 90.3 81.263 90.487 79.75 90.716Z" fill="#382E22"/>
<path fill-rule="evenodd" clip-rule="evenodd" d="M58.774 17.262C59.76 17.702 58.777 17.822 56.48 17.541C53.114 17.13 44.482 18.516 47.5 18.983C52.514 19.759 54.298 19.802 53.194 19.12C51.438 18.034 67.201 18.792 74 20.12C81.547 21.593 90.542 26.157 96.463 31.517C99.187 33.982 101.799 36 102.267 36C102.735 36 102.859 36.419 102.543 36.931C102.226 37.443 102.397 38.127 102.921 38.451C103.473 38.792 103.676 37.945 103.403 36.44C103.071 34.605 103.281 34.056 104.12 34.574C104.875 35.041 105.045 34.881 104.585 34.138C104.187 33.494 103.514 33.182 103.089 33.445C102.205 33.991 96.12 28.008 96.038 26.511C96.008 25.966 95.199 25.516 94.241 25.511C93.284 25.505 92.607 24.954 92.738 24.286C92.885 23.537 92.343 23.315 91.324 23.706C90.223 24.128 89.911 23.953 90.388 23.181C90.87 22.401 90.544 22.238 89.388 22.681C88.231 23.125 87.905 22.962 88.388 22.181C88.87 21.401 88.544 21.238 87.388 21.681C86.292 22.102 85.912 21.951 86.337 21.263C86.768 20.566 86.241 20.386 84.845 20.751C83.238 21.171 82.894 20.98 83.498 20.003C84.007 19.18 83.917 18.933 83.257 19.341C82.679 19.699 80.773 19.705 79.022 19.354C77.027 18.955 76.293 18.437 77.054 17.967C77.723 17.553 76.072 17.426 73.385 17.684C70.684 17.942 69.014 17.783 69.65 17.326C70.299 16.86 67.804 16.498 63.924 16.495C59.878 16.493 57.758 16.808 58.774 17.262ZM36.441 23.555C34.577 25.049 34.589 25.067 36.75 24.02C37.987 23.42 39 22.72 39 22.465C39 21.7 38.481 21.921 36.441 23.555ZM40.924 25.75L38.5 28.5L41.25 26.076C42.763 24.742 44 23.505 44 23.326C44 22.541 43.19 23.18 40.924 25.75ZM29 29.5C26.571 31.975 24.809 34 25.084 34C25.359 34 27.571 31.975 30 29.5C32.429 27.025 34.191 25 33.916 25C33.641 25 31.429 27.025 29 29.5ZM99 28.378C99 28.585 99.787 29.373 100.75 30.128C102.336 31.371 102.371 31.336 101.128 29.75C99.821 28.084 99 27.555 99 28.378ZM78.25 35.689C79.213 35.941 80.787 35.941 81.75 35.689C82.713 35.438 81.925 35.232 80 35.232C78.075 35.232 77.287 35.438 78.25 35.689ZM92.838 36.064C94.312 36.654 95.79 36.642 96.838 36.031C98.105 35.291 97.55 35.069 94.5 35.094C91.001 35.123 90.793 35.244 92.838 36.064ZM72.813 36.683C73.534 36.972 74.397 36.936 74.729 36.604C75.061 36.272 74.471 36.036 73.417 36.079C72.252 36.127 72.015 36.364 72.813 36.683ZM67.813 37.683C68.534 37.972 69.397 37.936 69.729 37.604C70.061 37.272 69.471 37.036 68.417 37.079C67.252 37.127 67.015 37.364 67.813 37.683ZM106.873 42.102C108.735 45.346 109.346 45.226 108.482 41.785C108.144 40.436 107.286 39.333 106.576 39.333C105.592 39.333 105.663 39.994 106.873 42.102ZM49.75 43.572C48.237 44.393 47.001 45.162 47.002 45.282C47.009 46.049 54.464 45.83 55.829 45.023C57.051 44.3 56.559 44.197 54 44.639C50.665 45.215 50.594 45.169 52.5 43.654C55.02 41.651 53.381 41.602 49.75 43.572ZM94.232 46.958C94.047 50.246 94.432 52.114 95.471 52.976C96.3 53.664 96.801 54.513 96.584 54.863C96.368 55.213 97.686 55.5 99.512 55.5C101.339 55.5 102.645 55.312 102.414 55.081C102.184 54.851 102.722 53.86 103.61 52.879C105.101 51.231 105.064 50.763 103.127 46.762C101.722 43.859 100.388 42.429 99.088 42.429C98.02 42.429 97.336 42.735 97.568 43.11C97.799 43.484 97.293 44.057 96.442 44.384C95.592 44.71 95.152 44.563 95.464 44.058C95.777 43.552 95.688 42.925 95.266 42.664C94.844 42.404 94.379 44.336 94.232 46.958ZM20.079 44.583C20.127 45.748 20.364 45.985 20.683 45.188C20.972 44.466 20.936 43.603 20.604 43.271C20.272 42.939 20.036 43.529 20.079 44.583ZM57.5 46C57.16 46.55 54.962 47 52.615 47C44.469 47 40.605 55.683 46.496 60.75C52.258 65.707 61.506 61.881 61.301 54.626C61.244 52.629 61.652 50.715 62.206 50.373C62.838 49.982 62.97 50.636 62.559 52.125C61.991 54.187 62.053 54.262 63.032 52.696C63.907 51.297 63.8 50.344 62.557 48.446C61.675 47.101 60.684 46 60.355 46C60.025 46 60.299 46.655 60.964 47.456C62.89 49.777 61.142 51.438 58.904 49.413C57.46 48.106 57.274 47.375 58.126 46.348C58.741 45.607 58.991 45 58.681 45C58.372 45 57.84 45.45 57.5 46ZM101.89 46.367C102.746 47.399 102.697 48.007 101.689 48.844C100.185 50.092 98 48.585 98 46.3C98 44.591 100.451 44.633 101.89 46.367ZM42.95 48.255C41.548 49.49 39.523 51.617 38.45 52.983C36.724 55.18 36.71 55.302 38.326 54.047C39.895 52.829 40.275 52.827 41.022 54.036C41.724 55.172 42.029 55.063 42.6 53.472C42.99 52.387 43.497 51.05 43.728 50.5C43.959 49.95 43.44 50.374 42.574 51.441C41.478 52.792 41 52.956 41 51.979C41 51.207 42.237 49.562 43.75 48.324C45.263 47.085 46.275 46.058 46 46.041C45.725 46.024 44.353 47.02 42.95 48.255ZM99 47C99 47.55 99.702 48 100.559 48C101.416 48 101.84 47.55 101.5 47C101.16 46.45 100.459 46 99.941 46C99.423 46 99 46.45 99 47ZM109.079 47.583C109.127 48.748 109.364 48.985 109.683 48.188C109.972 47.466 109.936 46.603 109.604 46.271C109.272 45.939 109.036 46.529 109.079 47.583ZM91.195 49.5C91.215 51.15 91.439 51.704 91.693 50.731C91.947 49.758 91.93 48.408 91.656 47.731C91.382 47.054 91.175 47.85 91.195 49.5ZM58.918 50.847C59.591 52.104 59.553 53.047 58.8 53.8C57.24 55.36 54 53.446 54 50.965C54 48.412 57.569 48.326 58.918 50.847ZM55 51.5C55 52.362 55.902 53 57.122 53C58.896 53 59.04 52.753 58 51.5C57.315 50.675 56.36 50 55.878 50C55.395 50 55 50.675 55 51.5ZM109.232 53C109.232 54.925 109.438 55.712 109.689 54.75C109.941 53.788 109.941 52.212 109.689 51.25C109.438 50.288 109.232 51.075 109.232 53ZM18.114 52.363C17.198 53.466 17.459 53.635 19.48 53.249C20.853 52.986 21.73 52.373 21.429 51.886C20.644 50.616 19.417 50.792 18.114 52.363ZM23.434 52.75C23.575 53.712 24.323 54.5 25.095 54.5C26.682 54.5 28.858 60.061 28.944 64.333C28.98 66.149 29.449 67.011 30.25 66.732C30.938 66.493 31.421 65.218 31.325 63.899C30.78 56.454 30.437 54.233 29.884 54.573C29.545 54.782 28.462 54.063 27.479 52.976C25.265 50.53 23.09 50.408 23.434 52.75ZM64.079 55.583C64.127 56.748 64.364 56.985 64.683 56.188C64.972 55.466 64.936 54.603 64.604 54.271C64.272 53.939 64.036 54.529 64.079 55.583ZM34.885 58.25C34.234 59.487 33.342 60.737 32.903 61.026C32.464 61.316 32.422 62.064 32.808 62.689C33.225 63.364 34.188 62.238 35.181 59.912C36.991 55.672 36.803 54.609 34.885 58.25ZM41.701 58.037C40.948 60.917 43.455 64.146 45.758 63.263C46.788 62.867 47.082 63.059 46.612 63.819C46.13 64.599 46.456 64.762 47.612 64.319C48.562 63.954 49.074 64.071 48.76 64.58C48.447 65.086 49.905 65.5 52 65.5C54.095 65.5 55.6 65.162 55.345 64.75C55.091 64.338 53.619 64 52.076 64C48.882 64 44.199 60.713 43.079 57.686C42.357 55.733 42.299 55.747 41.701 58.037ZM62 57.411C62 58.187 60.666 59.945 59.035 61.317C56.79 63.206 56.422 63.948 57.523 64.37C58.322 64.677 58.869 64.598 58.738 64.195C58.607 63.791 59.513 62.373 60.75 61.042C62.781 58.858 63.773 56 62.5 56C62.225 56 62 56.635 62 57.411ZM97 57C95.172 58.181 96.751 58.181 99.5 57C100.819 56.433 100.989 56.122 100 56.086C99.175 56.055 97.825 56.467 97 57ZM44.033 61.5C45.39 63.35 45.369 63.397 43.75 62.128C42.788 61.373 42 60.285 42 59.711C42 59.137 42.127 58.854 42.283 59.083C42.439 59.313 43.226 60.4 44.033 61.5ZM106.03 61.55C106.057 64.136 106.193 64.272 107.134 62.654C107.903 61.33 107.895 60.495 107.104 59.704C106.299 58.899 106.008 59.399 106.03 61.55ZM27.195 64.5C27.215 66.15 27.439 66.704 27.693 65.731C27.947 64.758 27.93 63.408 27.656 62.731C27.382 62.054 27.175 62.85 27.195 64.5ZM90.813 66.683C91.534 66.972 92.397 66.936 92.729 66.604C93.061 66.272 92.471 66.036 91.417 66.079C90.252 66.127 90.015 66.364 90.813 66.683ZM16 67.941C16 68.459 16.445 69.157 16.989 69.493C17.555 69.843 17.723 69.442 17.382 68.552C16.717 66.82 16 66.503 16 67.941ZM79.049 70.078C76.601 71.685 75.026 72.998 75.549 72.996C76.072 72.993 78.525 71.645 81 70C83.475 68.355 85.05 67.042 84.5 67.082C83.95 67.122 81.497 68.471 79.049 70.078ZM25.25 69.971C24.604 71.005 23.127 71.997 21.967 72.175C19.998 72.479 20.094 72.774 23.429 76.659C25.393 78.946 27 81.175 27 81.611C27 82.048 25.538 84.001 23.751 85.952L20.503 89.5L24.564 85.73C26.798 83.656 28.876 82.209 29.181 82.514C29.486 82.819 29.496 81.816 29.202 80.285C28.909 78.753 28.47 78.095 28.227 78.823C27.904 79.79 27.141 79.541 25.392 77.899C22.406 75.094 22.369 74.033 25.25 73.884C27.057 73.791 27.141 73.675 25.675 73.296C23.939 72.848 23.935 72.73 25.585 70.906C26.54 69.851 27.119 68.786 26.873 68.539C26.626 68.293 25.896 68.937 25.25 69.971ZM67.75 73.662C68.438 73.94 69.563 73.94 70.25 73.662C70.938 73.385 70.375 73.158 69 73.158C67.625 73.158 67.063 73.385 67.75 73.662ZM29.721 75.286C29.429 76.045 29.977 76.571 31.058 76.571C32.437 76.571 32.626 76.254 31.822 75.286C31.235 74.579 30.633 74 30.485 74C30.336 74 29.992 74.579 29.721 75.286ZM100.583 77.866C100.152 78.563 100.07 79.403 100.4 79.733C101.295 80.628 102.271 79.312 101.787 77.862C101.449 76.846 101.213 76.846 100.583 77.866ZM98.241 81.441C98.649 81.922 98.481 82.92 97.869 83.658C96.509 85.297 94.601 85.454 95.595 83.845C96.041 83.124 95.869 82.963 95.138 83.415C94.494 83.813 94.212 84.535 94.512 85.019C95.265 86.238 91.176 88.281 89.37 87.588C88.438 87.231 88.154 87.44 88.597 88.157C89.087 88.95 88.5 89.091 86.649 88.627C85.114 88.242 84 88.38 84 88.956C84 89.505 82.547 89.744 80.75 89.489C77.89 89.082 77.8 89.133 80 89.914C81.847 90.569 80.148 90.857 73.5 91.018C64.873 91.226 64.707 91.272 69.5 92.124C75.924 93.265 83.662 92.322 84.437 90.304C84.904 89.087 85.321 89.021 86.477 89.981C87.644 90.95 89.022 90.597 93.465 88.19C96.509 86.541 99 85.392 99 85.636C99 85.88 98.095 87.974 96.989 90.29C95.883 92.605 95.546 93.639 96.239 92.588C96.933 91.536 98.175 89.938 99 89.036C101.132 86.705 101.233 83.419 99.221 81.881C98.274 81.158 97.834 80.96 98.241 81.441ZM32.405 84.854C34.521 87.238 35 87.456 35 86.035C35 85.505 33.987 84.539 32.75 83.89C30.512 82.715 30.51 82.72 32.405 84.854ZM37.079 84.128C37.036 85.023 37.788 86.373 38.75 87.128C40.271 88.32 40.354 88.303 39.384 87C38.771 86.175 38.019 84.825 37.713 84C37.249 82.745 37.145 82.766 37.079 84.128ZM42 84C42.825 84.533 43.95 84.969 44.5 84.969C45.05 84.969 44.825 84.533 44 84C43.175 83.467 42.05 83.031 41.5 83.031C40.95 83.031 41.175 83.467 42 84ZM43.5 91C44.495 92.1 45.535 93 45.81 93C46.085 93 45.495 92.1 44.5 91C43.505 89.9 42.465 89 42.19 89C41.915 89 42.505 89.9 43.5 91ZM61.813 89.683C62.534 89.972 63.397 89.936 63.729 89.604C64.061 89.272 63.471 89.036 62.417 89.079C61.252 89.127 61.015 89.364 61.813 89.683ZM16.452 96.093C15.572 97.794 15.03 99.363 15.247 99.58C15.464 99.797 16.39 98.406 17.305 96.487C19.361 92.175 18.649 91.845 16.452 96.093ZM50 95.49C50 96.175 56.123 99.21 56.58 98.753C56.797 98.536 55.406 97.61 53.487 96.695C51.569 95.781 50 95.239 50 95.49ZM92.872 96.692C92.006 97.761 91.949 98.114 92.719 97.652C93.645 97.096 94.014 99.876 94.253 109.21L94.568 121.5L94.784 108.25C94.903 100.963 94.83 95 94.622 95C94.415 95 93.627 95.761 92.872 96.692ZM87.5 101C84.439 104.195 82.474 104.785 81.677 102.75C81.407 102.063 80.873 102.916 80.489 104.646C79.961 107.027 79.124 107.925 77.045 108.341C71.411 109.468 55.169 105.724 46.706 101.348C45.115 100.525 43.708 99.998 43.579 100.176C43.449 100.354 42.229 106.013 40.867 112.75L38.391 125H59.581H80.77L80.256 118.596C79.575 110.12 80.552 105 82.849 105C83.816 105 86.134 103.425 88 101.5C89.866 99.575 91.163 98 90.883 98C90.603 98 89.081 99.35 87.5 101ZM33.924 102.75L31.5 105.5L34.25 103.076C36.82 100.81 37.459 100 36.674 100C36.495 100 35.258 101.237 33.924 102.75ZM103.3 105C103.3 108.025 103.487 109.263 103.716 107.75C103.945 106.237 103.945 103.763 103.716 102.25C103.487 100.737 103.3 101.975 103.3 105ZM90 104.162C88.625 105.314 86.263 106.693 84.75 107.226C83.237 107.759 81.994 108.939 81.986 109.848C81.979 110.757 81.745 112.625 81.466 114C81.024 116.179 81.081 116.243 81.909 114.5C82.627 112.989 82.877 114.029 82.93 118.75L83 125H88H93V113.5C93 107.175 92.888 102.015 92.75 102.033C92.612 102.052 91.375 103.009 90 104.162ZM71.872 104.25C72.72 105.33 74.442 105.943 76.372 105.85L79.5 105.7L76.5 105.262C74.85 105.02 72.825 104.3 72 103.662C70.695 102.651 70.678 102.727 71.872 104.25ZM12.079 109.583C12.127 110.748 12.364 110.985 12.683 110.188C12.972 109.466 12.936 108.603 12.604 108.271C12.272 107.939 12.036 108.529 12.079 109.583ZM11.158 116C11.158 117.375 11.385 117.938 11.662 117.25C11.94 116.563 11.94 115.438 11.662 114.75C11.385 114.063 11.158 114.625 11.158 116ZM102.158 119C102.158 120.375 102.385 120.938 102.662 120.25C102.94 119.563 102.94 118.438 102.662 117.75C102.385 117.063 102.158 117.625 102.158 119Z" fill="#080604"/>
<path fill-rule="evenodd" clip-rule="evenodd" d="M57.5 17.942C55.21 18.569 56.394 18.794 62.5 18.894C75.952 19.112 87.485 23.329 96.054 31.162C98.457 33.359 101.263 35.605 102.288 36.154C103.91 37.022 104.02 36.907 103.141 35.263C101.567 32.322 93.609 25.351 89.349 23.181C80.571 18.71 64.409 16.051 57.5 17.942ZM51.269 45.693C52.242 45.947 53.592 45.93 54.269 45.656C54.946 45.382 54.15 45.175 52.5 45.195C50.85 45.215 50.296 45.439 51.269 45.693ZM99 47C99 47.55 99.702 48 100.559 48C101.416 48 101.84 47.55 101.5 47C101.16 46.45 100.459 46 99.941 46C99.423 46 99 46.45 99 47ZM42.035 51.934C40.768 54.301 40.709 55.298 41.879 54.575C42.762 54.029 44.138 50 43.442 50C43.237 50 42.605 50.87 42.035 51.934ZM55 51.5C55 52.362 55.902 53 57.122 53C58.896 53 59.04 52.753 58 51.5C57.315 50.675 56.36 50 55.878 50C55.395 50 55 50.675 55 51.5ZM25.382 54.042C27.005 55.971 28.183 58.9 28.6 62.042C29.221 66.725 30.191 68.118 31.431 66.111C32.526 64.34 30.181 55.822 27.944 53.44C24.493 49.767 22.233 50.299 25.382 54.042ZM42.063 56.816C41.871 60.799 47.537 65.097 52.7 64.885C55.079 64.787 54.937 64.661 51.753 64.043C47.708 63.258 44.251 60.69 42.945 57.5C42.495 56.4 42.098 56.092 42.063 56.816ZM62 57.411C62 58.187 60.615 59.987 58.923 61.411C57.231 62.835 56.27 64 56.787 64C58.228 64 63 58.903 63 57.364C63 56.614 62.775 56 62.5 56C62.225 56 62 56.635 62 57.411ZM98.813 56.683C99.534 56.972 100.397 56.936 100.729 56.604C101.061 56.272 100.471 56.036 99.417 56.079C98.252 56.127 98.015 56.364 98.813 56.683ZM96.5 84.552C94.85 85.915 91.798 87.55 89.718 88.184C87.444 88.876 86.299 89.699 86.846 90.246C88.076 91.476 97.625 86.569 98.999 84.001C100.349 81.48 100.168 81.52 96.5 84.552ZM73.5 90.939L64.5 91.5L70.261 92.26C76.422 93.073 84 92.307 84 90.872C84 90.392 83.662 90.085 83.25 90.189C82.838 90.293 78.45 90.63 73.5 90.939ZM40.946 112.5L38.423 125H59.828H81.233L80.63 122.75C80.299 121.513 80.021 117.778 80.014 114.45L80 108.4L73.234 108.296C65.97 108.184 57.745 106.161 49.126 102.366C46.17 101.065 43.688 100 43.61 100C43.532 100 42.334 105.625 40.946 112.5ZM90 104.162C88.625 105.314 86.214 106.71 84.641 107.264C82.029 108.185 81.834 108.583 82.38 111.886C82.709 113.874 82.983 117.638 82.989 120.25L83 125H88H93V113.5C93 107.175 92.888 102.015 92.75 102.033C92.612 102.052 91.375 103.009 90 104.162Z" fill="white"/>
</svg>
