<svg width="64" height="64" viewBox="0 0 64 64" fill="none" xmlns="http://www.w3.org/2000/svg">
<g clip-path="url(#clip0_1_182)">
<path fill-rule="evenodd" clip-rule="evenodd" d="M0 31.746V63.4921H32H64V31.746V0H32H0V31.746Z" fill="#FDE28E"/>
<path fill-rule="evenodd" clip-rule="evenodd" d="M25.7777 8.6273C23.7635 9.15149 21.1384 10.0744 19.945 10.6783C17.1423 12.0965 13.0417 15.9121 11.5149 18.5224C10.4673 20.3134 10.1335 21.3892 9.53907 24.8889C9.4679 25.3079 8.90624 26.4508 8.29082 27.4286C7.1168 29.2937 6.84288 32.1011 7.6329 34.1628C7.8889 34.8302 9.26925 36.6166 10.7008 38.1328C12.1324 39.6485 13.3053 41.0824 13.3079 41.3191C13.31 41.5553 12.3935 42.784 11.2707 44.0498C7.65645 48.1229 5.15123 55.07 5.1287 61.0794L5.12 63.4921H28.8625H52.6049L52.9029 61.5873C53.8025 55.8303 53.826 51.9446 52.9828 48.254C52.5046 46.1587 52.1216 44.1016 52.1329 43.6825C52.1851 41.6777 52.7652 39.135 53.697 36.8254C56.0379 31.0217 56.9748 27.0014 56.6144 24.3073C55.0472 12.5877 39.9903 4.93105 25.7777 8.6273ZM30.208 9.96419C30.208 10.0709 29.632 10.1587 28.928 10.1587C28.224 10.1587 27.648 9.96165 27.648 9.7214C27.648 9.48063 28.224 9.39276 28.928 9.52635C29.632 9.65994 30.208 9.85702 30.208 9.96419ZM36.4897 9.984C36.1431 10.1232 35.4519 10.1318 34.9537 10.0028C34.4555 9.87378 34.7392 9.76 35.584 9.74984C36.4288 9.73968 36.8363 9.84483 36.4897 9.984ZM24.4582 11.6973C20.6817 14.179 20.6833 14.658 24.4634 13.3801C31.061 11.1492 39.8664 12.0681 44.9884 15.521C46.9468 16.8406 50.0326 17.2709 49.3399 16.127C49.0788 15.6957 49.2329 15.7156 49.8217 16.189C50.2984 16.5724 50.6696 17.1439 50.6475 17.4588C50.624 17.7895 50.5165 17.8169 50.3921 17.5238C50.0808 16.7878 38.8797 17.4517 34.7064 18.4533C27.284 20.2352 21.4917 23.394 19.1155 26.9562C18.3828 28.0543 17.5923 28.9524 17.3578 28.9524C16.2488 28.9524 15.9785 27.009 16.6467 23.8456C17.5401 19.617 18.175 17.9769 19.8538 15.5566C21.2265 13.5782 25.2928 10.1587 26.2733 10.1587C26.5626 10.1587 25.7459 10.851 24.4582 11.6973ZM44.3182 12.4724C45.2552 13.2175 45.2388 13.2277 44.032 12.6578C42.4648 11.9172 42.1745 11.6825 42.8247 11.6825C43.0996 11.6825 43.7714 12.0381 44.3182 12.4724ZM47.6815 14.6032C48.3179 15.4088 48.3 15.4265 47.488 14.7952C46.9949 14.4117 46.592 14.0114 46.592 13.9063C46.592 13.4883 47.0123 13.757 47.6815 14.6032ZM50.7535 15.1111C51.3899 15.9167 51.372 15.9345 50.56 15.3031C50.0669 14.9196 49.664 14.5194 49.664 14.4142C49.664 13.9962 50.0843 14.2649 50.7535 15.1111ZM30.997 24.415C31.5223 25.2582 31.0507 25.375 30.316 24.5836C29.9525 24.193 29.8813 23.873 30.1578 23.873C30.4338 23.873 30.8116 24.1168 30.997 24.415ZM14.1286 26.5397L15.104 27.6825L13.824 26.6723C13.12 26.1166 12.4483 25.602 12.3305 25.5294C12.2132 25.4563 12.3505 25.3968 12.6351 25.3968C12.9203 25.3968 13.5921 25.9114 14.1286 26.5397ZM49.0348 28.222C48.8632 28.3921 48.447 27.9975 48.1096 27.3453C47.5233 26.211 47.5371 26.1973 48.4219 27.0354C48.9308 27.518 49.2068 28.0518 49.0348 28.222ZM53.4246 27.7044C53.2577 28.1356 53.0115 28.3794 52.8773 28.2463C52.7432 28.1133 52.7851 27.7603 52.971 27.4626C53.4758 26.6519 53.7707 26.8094 53.4246 27.7044ZM21.5977 28.5547C21.2306 28.9189 20.992 28.9488 20.992 28.6309C20.992 28.3418 21.1456 27.9533 21.3335 27.7674C21.5209 27.581 21.7938 27.5469 21.9392 27.6912C22.0846 27.8354 21.931 28.224 21.5977 28.5547ZM16.2217 31.5876C16.0584 31.9924 15.937 31.872 15.9124 31.2803C15.8904 30.7449 16.0113 30.4452 16.1812 30.6138C16.3512 30.7825 16.3697 31.2208 16.2217 31.5876ZM14.6857 33.6193C14.5224 34.0241 14.401 33.9037 14.3764 33.312C14.3544 32.7766 14.4753 32.477 14.6452 32.6456C14.8152 32.8142 14.8337 33.2526 14.6857 33.6193ZM32.512 46.2222C33.8166 46.7784 32.4705 46.7784 30.72 46.2222C29.6909 45.8951 29.6407 45.8128 30.464 45.8006C31.0272 45.7925 31.9488 45.982 32.512 46.2222ZM36.48 47.0664C36.1283 47.2076 35.5523 47.2076 35.2 47.0664C34.8483 46.9257 35.136 46.8104 35.84 46.8104C36.544 46.8104 36.8323 46.9257 36.48 47.0664ZM42.112 47.0664C41.7603 47.2076 41.1843 47.2076 40.832 47.0664C40.4803 46.9257 40.768 46.8104 41.472 46.8104C42.176 46.8104 42.4643 46.9257 42.112 47.0664ZM47.616 51.4768C47.616 51.5733 47.0973 52.0874 46.464 52.6197L45.312 53.5873L46.2874 52.4444C47.2038 51.3707 47.616 51.0705 47.616 51.4768ZM21.8537 52.9209C21.6904 53.3257 21.569 53.2053 21.5444 52.6136C21.5224 52.0782 21.6433 51.7785 21.8132 51.9472C21.9832 52.1158 22.0017 52.5542 21.8537 52.9209ZM38.528 55.1934C38.1763 55.3346 37.6003 55.3346 37.248 55.1934C36.8963 55.0527 37.184 54.9374 37.888 54.9374C38.592 54.9374 38.8803 55.0527 38.528 55.1934ZM42.3337 58.5082C42.1704 58.913 42.049 58.7926 42.0244 58.2009C42.0024 57.6655 42.1233 57.3658 42.2932 57.5345C42.4632 57.7031 42.4817 58.1415 42.3337 58.5082ZM41.3097 61.5558C41.1464 61.9606 41.025 61.8402 41.0004 61.2485C40.9784 60.7131 41.0993 60.4135 41.2692 60.5821C41.4392 60.7507 41.4577 61.1891 41.3097 61.5558Z" fill="#FCCA00"/>
<path fill-rule="evenodd" clip-rule="evenodd" d="M25.7777 8.6273C23.7635 9.15149 21.1384 10.0744 19.945 10.6783C17.1423 12.0965 13.0417 15.9121 11.5149 18.5224C10.4673 20.3134 10.1335 21.3892 9.53907 24.8889C9.4679 25.3079 8.90624 26.4508 8.29082 27.4286C7.1168 29.2937 6.84288 32.1011 7.6329 34.1628C7.8889 34.8302 9.26925 36.6166 10.7008 38.1328C12.1324 39.6485 13.3053 41.0824 13.3079 41.3191C13.31 41.5553 12.3935 42.784 11.2707 44.0498C7.65645 48.1229 5.15123 55.07 5.1287 61.0794C5.11386 65.091 6.30426 64.0752 7.3129 59.2152C8.90061 51.5617 10.1765 48.1971 12.2844 46.1064C13.6796 44.7223 14.6519 44.1905 15.7875 44.1905C17.1684 44.1905 17.4249 44.4226 17.8929 46.0952C18.711 49.0179 18.5446 50.366 17.1909 51.7816C16.1695 52.8503 12.3044 61.7874 12.2916 63.1111C12.2895 63.3204 20.693 63.4921 30.9663 63.4921H49.6445L49.9814 62.1597C50.1668 61.4268 50.1652 58.4747 49.9779 55.5997C49.7009 51.3493 49.7956 49.9804 50.4827 48.2763C50.9476 47.1233 51.4017 46.2532 51.4924 46.3426C51.5825 46.432 51.9014 48.0295 52.2015 49.8916C52.5885 52.2946 52.5865 54.7017 52.1953 58.1821C51.6941 62.6423 51.774 64.1077 52.4805 63.4067C52.6218 63.267 52.9997 60.767 53.3207 57.8514C53.8276 53.2465 53.7866 52.0178 53.0115 48.4973C52.5205 46.2684 52.1262 44.1016 52.1359 43.6825C52.18 41.7021 52.7631 39.1406 53.697 36.8254C56.0379 31.0217 56.9748 27.0014 56.6144 24.3073C55.0472 12.5877 39.9903 4.93105 25.7777 8.6273ZM30.208 9.96419C30.208 10.0709 29.632 10.1587 28.928 10.1587C28.224 10.1587 27.648 9.96165 27.648 9.7214C27.648 9.48063 28.224 9.39276 28.928 9.52635C29.632 9.65994 30.208 9.85702 30.208 9.96419ZM36.4897 9.984C36.1431 10.1232 35.4519 10.1318 34.9537 10.0028C34.4556 9.87378 34.7392 9.76 35.584 9.74984C36.4288 9.73968 36.8364 9.84483 36.4897 9.984ZM24.4582 11.6973C20.6817 14.179 20.6833 14.658 24.4634 13.3801C31.061 11.1492 39.8664 12.0681 44.9884 15.521C46.9468 16.8406 50.0326 17.2709 49.3399 16.127C49.0788 15.6957 49.2329 15.7156 49.8217 16.189C50.2984 16.5724 50.6696 17.1439 50.6476 17.4588C50.624 17.7895 50.5165 17.8169 50.3921 17.5238C50.0808 16.7878 38.8797 17.4517 34.7064 18.4533C27.284 20.2352 21.4917 23.394 19.1155 26.9562C18.3828 28.0544 17.5923 28.9524 17.3578 28.9524C16.2488 28.9524 15.9785 27.009 16.6467 23.8456C17.5401 19.617 18.175 17.9769 19.8538 15.5566C21.2265 13.5782 25.2928 10.1587 26.2733 10.1587C26.5626 10.1587 25.7459 10.851 24.4582 11.6973ZM44.3182 12.4724C45.2552 13.2175 45.2388 13.2277 44.032 12.6578C42.4648 11.9172 42.1745 11.6825 42.8247 11.6825C43.0996 11.6825 43.7714 12.0381 44.3182 12.4724ZM47.6815 14.6032C48.318 15.4088 48.3 15.4265 47.488 14.7952C46.9949 14.4117 46.592 14.0114 46.592 13.9063C46.592 13.4883 47.0124 13.757 47.6815 14.6032ZM50.7535 15.1111C51.39 15.9167 51.372 15.9345 50.56 15.3031C50.0669 14.9196 49.664 14.5194 49.664 14.4142C49.664 13.9962 50.0844 14.2649 50.7535 15.1111ZM46.805 22.9394C46.1179 24.258 46.0703 24.8853 46.5403 26.4427C46.8557 27.486 47.4568 28.4698 47.8766 28.6298C48.2965 28.7898 48.64 29.2602 48.64 29.6752C48.64 30.5031 51.6946 31.2945 52.9879 30.8018C54.1107 30.3746 53.9889 33.7361 52.7867 36.3632C51.1959 39.838 45.3391 42.8135 38.8183 43.4601C32.7701 44.0594 23.4501 40.83 21.7354 37.5406C20.4119 35.0014 20.9556 34.527 24.7859 34.882C29.2828 35.2985 30.9422 34.5737 32.2601 31.618C32.8212 30.3604 33.28 28.8173 33.28 28.1895C33.28 25.44 33.9492 23.7887 35.2722 23.2716C37.0724 22.5686 43.3183 21.4359 45.7093 21.379L47.6421 21.3333L46.805 22.9394ZM30.997 24.415C31.5223 25.2582 31.0508 25.375 30.316 24.5836C29.9525 24.193 29.8813 23.873 30.1578 23.873C30.4338 23.873 30.8116 24.1168 30.997 24.415ZM14.1286 26.5397L15.104 27.6825L13.824 26.6723C13.12 26.1166 12.4483 25.602 12.3305 25.5294C12.2132 25.4563 12.3505 25.3968 12.6351 25.3968C12.9203 25.3968 13.5921 25.9114 14.1286 26.5397ZM49.0348 28.222C48.8632 28.3921 48.447 27.9975 48.1096 27.3453C47.5233 26.211 47.5372 26.1973 48.4219 27.0354C48.9308 27.518 49.2068 28.0518 49.0348 28.222ZM53.4246 27.7044C53.2577 28.1356 53.0115 28.3794 52.8773 28.2464C52.7432 28.1133 52.7852 27.7603 52.971 27.4626C53.4758 26.6519 53.7708 26.8094 53.4246 27.7044ZM21.5977 28.5547C21.2306 28.9189 20.992 28.9488 20.992 28.6309C20.992 28.3418 21.1456 27.9533 21.3335 27.7674C21.5209 27.581 21.7938 27.5469 21.9392 27.6912C22.0846 27.8354 21.931 28.224 21.5977 28.5547ZM44.3151 28.4013C44.1503 28.6659 44.2337 29.0159 44.5005 29.1794C44.7672 29.343 45.12 29.2602 45.2849 28.9956C45.4497 28.7309 45.3663 28.381 45.0995 28.2174C44.8328 28.0538 44.48 28.1366 44.3151 28.4013ZM41.472 29.4603C41.472 29.7397 41.6886 29.9683 41.9538 29.9683C42.219 29.9683 42.5779 29.7397 42.752 29.4603C42.9261 29.181 42.709 28.9524 42.2702 28.9524C41.8314 28.9524 41.472 29.181 41.472 29.4603ZM16.2217 31.5876C16.0584 31.9924 15.937 31.872 15.9124 31.2803C15.8904 30.7449 16.0113 30.4452 16.1812 30.6138C16.3512 30.7825 16.3697 31.2208 16.2217 31.5876ZM14.6857 33.6193C14.5224 34.0241 14.401 33.9037 14.3764 33.312C14.3544 32.7766 14.4753 32.477 14.6452 32.6456C14.8152 32.8142 14.8337 33.2526 14.6857 33.6193ZM42.3004 34.1526C41.2073 34.7845 39.8249 35.584 39.2284 35.9289C38.6319 36.2743 37.3729 36.5597 36.4308 36.5638C34.5006 36.5724 31.744 37.981 31.744 38.9592C31.744 39.4062 32.2545 39.2955 33.408 38.5976C34.3229 38.0439 35.841 37.5904 36.7811 37.5893C37.7933 37.5883 39.8541 36.8305 41.8376 35.7298C45.12 33.9088 45.2342 33.885 47.6969 34.5112C50.0941 35.1208 53.2475 34.878 52.5046 34.1404C52.3105 33.9484 51.4197 33.7529 50.5242 33.7057C49.6287 33.6589 47.8592 33.4817 46.592 33.312C44.7498 33.0657 43.8897 33.2338 42.3004 34.1526ZM32.512 46.2222C33.8166 46.7784 32.4705 46.7784 30.72 46.2222C29.6909 45.8951 29.6407 45.8128 30.464 45.8006C31.0272 45.7925 31.9488 45.982 32.512 46.2222ZM36.48 47.0664C36.1283 47.2076 35.5523 47.2076 35.2 47.0664C34.8483 46.9257 35.136 46.8104 35.84 46.8104C36.544 46.8104 36.8323 46.9257 36.48 47.0664ZM42.112 47.0664C41.7603 47.2076 41.1843 47.2076 40.832 47.0664C40.4803 46.9257 40.768 46.8104 41.472 46.8104C42.176 46.8104 42.4643 46.9257 42.112 47.0664ZM47.616 51.4768C47.616 51.5733 47.0973 52.0874 46.464 52.6197L45.312 53.5873L46.2874 52.4444C47.2038 51.3707 47.616 51.0705 47.616 51.4768ZM21.8537 52.9209C21.6904 53.3257 21.569 53.2053 21.5444 52.6136C21.5224 52.0782 21.6433 51.7785 21.8132 51.9472C21.9832 52.1158 22.0017 52.5542 21.8537 52.9209ZM38.528 55.1934C38.1763 55.3346 37.6003 55.3346 37.248 55.1934C36.8963 55.0527 37.184 54.9374 37.888 54.9374C38.592 54.9374 38.8803 55.0527 38.528 55.1934ZM42.3337 58.5082C42.1704 58.913 42.049 58.7926 42.0245 58.2009C42.0024 57.6655 42.1233 57.3658 42.2932 57.5345C42.4632 57.7031 42.4817 58.1415 42.3337 58.5082ZM41.3097 61.5558C41.1464 61.9606 41.025 61.8403 41.0005 61.2485C40.9784 60.7131 41.0993 60.4135 41.2692 60.5821C41.4392 60.7507 41.4577 61.1891 41.3097 61.5558Z" fill="#D0AC80"/>
<path fill-rule="evenodd" clip-rule="evenodd" d="M28.928 7.94057C19.2369 9.42781 11.0735 16.0686 9.93178 23.394C9.73824 24.6354 9.16787 26.2359 8.66406 26.9516C6.20595 30.4422 6.76096 33.4253 10.7131 37.9688L13.7006 41.4039L11.7135 43.6251C8.03686 47.7354 5.12 55.6404 5.12 61.4933C5.12 65.1083 6.35648 63.8232 7.3129 59.2152C8.90061 51.5617 10.1765 48.1971 12.2844 46.1064C13.6796 44.7223 14.6519 44.1905 15.7875 44.1905C17.1684 44.1905 17.4249 44.4226 17.8929 46.0952C18.711 49.0179 18.5446 50.366 17.1909 51.7816C16.5084 52.4952 15.1281 55.2508 14.1225 57.9048C12.161 63.0847 12.0586 63.4921 12.7176 63.4921C12.9536 63.4921 14.0242 61.2145 15.0968 58.4305C16.17 55.647 17.5892 52.864 18.2518 52.2469C19.6741 50.9211 19.861 48.1676 18.7141 45.4441C18.306 44.4754 18.1719 43.6825 18.4161 43.6825C18.6604 43.6825 20.0888 44.7309 21.59 46.0119C24.7916 48.7441 28.7375 50.8257 33.024 52.0437C34.7136 52.5237 36.4836 53.2602 36.9577 53.6808C37.5485 54.205 38.3119 54.3375 39.3897 54.1029C40.2862 53.9073 40.96 53.9688 40.96 54.2456C40.96 56.2916 29.7472 54.4711 23.9135 51.4783C23.0989 51.0603 22.3785 50.7926 22.3124 50.883C22.2459 50.9735 21.6212 53.8479 20.9239 57.2698L19.6562 63.4921H34.6506H49.6445L49.9794 62.1674C50.1637 61.439 50.1699 58.4102 49.9922 55.4372C49.7152 50.7942 49.8043 49.7453 50.6219 48L51.5738 45.9683L52.0013 48.5079C52.5558 51.7983 52.5752 54.6966 52.0745 59.5556C51.8211 62.0165 51.8538 63.4921 52.162 63.4921C53.5275 63.4921 53.8373 50.881 52.5752 46.6651C51.6347 43.522 51.8364 41.6366 53.6571 36.5714C56.0015 30.05 56.4613 28.1712 56.4198 25.2759C56.3179 18.173 50.2292 11.6739 41.0107 8.82946C38.5183 8.06044 31.508 7.54489 28.928 7.94057ZM30.5812 8.94172C30.4113 9.11035 29.9694 9.12864 29.6003 8.98184C29.1917 8.81981 29.313 8.69943 29.9095 8.67505C30.4492 8.65321 30.7512 8.77308 30.5812 8.94172ZM36.992 8.97118C36.6403 9.11238 36.0643 9.11238 35.712 8.97118C35.3603 8.83048 35.648 8.71518 36.352 8.71518C37.056 8.71518 37.3443 8.83048 36.992 8.97118ZM40.704 10.9054C44.2491 12.1244 50.69 16.2032 50.6875 17.2277C50.687 17.3907 47.9795 17.5416 44.6715 17.5634C32.4675 17.6442 22.7768 21.6396 18.2774 28.4444C17.4459 29.7016 16.9032 30.3299 17.0711 29.8413C17.2385 29.3526 17.2104 28.9509 17.0081 28.9493C16.8054 28.9473 16.2473 28.2616 15.7681 27.4255C15.2883 26.589 14.6186 25.9048 14.2807 25.9048C13.91 25.9048 14.0534 26.3523 14.6406 27.0298C15.3723 27.8735 15.19 27.81 13.9126 26.7759C12.9761 26.0175 11.8815 25.3968 11.4806 25.3968C10.3741 25.3968 10.5938 22.9592 11.9619 20.0635C13.4103 16.9976 17.3061 13.2815 21.0406 11.4042L23.7855 10.0241L21.4006 12.3236C18.1929 15.4164 16.322 19.1909 16.0696 23.0791L15.8694 26.1587L16.5908 23.0613C16.9876 21.3577 17.8898 18.8434 18.5958 17.474C20.4529 13.8723 25.4213 9.41968 26.9389 9.99721C27.329 10.146 27.648 10.0714 27.648 9.83213C27.6475 9.11238 37.9515 9.95962 40.704 10.9054ZM51.2 15.4921C52.1554 16.4698 52.8215 17.2698 52.6807 17.2698C52.5399 17.2698 51.6434 16.4698 50.688 15.4921C49.7326 14.5143 49.0665 13.7143 49.2073 13.7143C49.3481 13.7143 50.2446 14.5143 51.2 15.4921ZM53.7702 18.9206C54.271 19.9462 54.2546 19.9731 53.6095 19.1827C53.2142 18.6982 52.7037 18.4696 52.4754 18.6748C52.247 18.8795 52.2255 18.7622 52.4283 18.4127C52.9377 17.5345 53.1282 17.6066 53.7702 18.9206ZM54.1983 21.2566C55.5223 23.137 55.9135 25.1144 55.5008 27.8441L55.147 30.1846L54.464 27.5368C53.7882 24.9163 52.48 22.141 50.8846 19.9426C50.0644 18.813 50.0685 18.8094 51.6547 19.358C52.5322 19.6612 53.6771 20.5156 54.1983 21.2566ZM46.805 22.9394C46.1179 24.258 46.0703 24.8853 46.5403 26.4427C46.8557 27.486 47.4568 28.4698 47.8766 28.6298C48.2964 28.7898 48.64 29.2602 48.64 29.6752C48.64 30.5031 51.6946 31.2945 52.9879 30.8018C54.1107 30.3746 53.9889 33.7361 52.7867 36.3632C51.1959 39.838 45.3391 42.8135 38.8183 43.4601C32.77 44.0594 23.4501 40.83 21.7354 37.5406C20.4119 35.0014 20.9556 34.527 24.7859 34.882C29.2828 35.2985 30.9422 34.5737 32.2601 31.618C32.8212 30.3604 33.28 28.8173 33.28 28.1895C33.28 25.44 33.9492 23.7887 35.2722 23.2716C37.0724 22.5686 43.3183 21.4359 45.7093 21.379L47.6421 21.3333L46.805 22.9394ZM48.1014 23.4575C47.7604 24.6375 47.8387 25.4816 48.3932 26.5834C49.3409 28.4683 49.3455 28.7279 48.4168 27.9634C47.3754 27.106 46.9704 24.7949 47.5822 23.1995C48.3046 21.314 48.6687 21.4949 48.1014 23.4575ZM25.6 23.3651C25.6 23.6444 25.3481 23.873 25.0409 23.873C24.2145 23.873 21.9976 25.7173 22.3749 26.0912C22.5531 26.2679 22.5587 26.4127 22.3877 26.4127C21.2541 26.4127 21.7764 25.25 23.4015 24.1544C25.5877 22.6804 25.6 22.6758 25.6 23.3651ZM29.184 23.3651C29.184 23.6444 28.9536 23.873 28.672 23.873C28.3904 23.873 28.16 23.6444 28.16 23.3651C28.16 23.0857 28.3904 22.8571 28.672 22.8571C28.9536 22.8571 29.184 23.0857 29.184 23.3651ZM51.9004 23.2564C52.0371 23.4758 51.7217 23.6551 51.2 23.6551C50.6783 23.6551 50.3629 23.4758 50.4996 23.2564C50.6368 23.037 50.9517 22.8571 51.2 22.8571C51.4483 22.8571 51.7632 23.037 51.9004 23.2564ZM31.5034 25.2968C31.1593 25.6381 29.696 24.3713 29.696 23.7323C29.696 23.4438 30.1583 23.6226 30.7231 24.13C31.2883 24.637 31.639 25.1622 31.5034 25.2968ZM29.7615 25.7778C30.4046 26.5915 30.3852 26.6052 29.5291 25.9373C28.7165 25.3039 28.5332 25.3039 28.1288 25.9373C27.8728 26.3385 27.6603 26.4193 27.6557 26.1166C27.6362 24.7319 28.7877 24.5465 29.7615 25.7778ZM12.8 27.1746C13.4615 27.873 13.8875 28.4444 13.7467 28.4444C13.6059 28.4444 12.9495 27.873 12.288 27.1746C11.6265 26.4762 11.2005 25.9048 11.3413 25.9048C11.4821 25.9048 12.1385 26.4762 12.8 27.1746ZM30.0692 27.2274C29.8993 27.3961 29.4574 27.4143 29.0883 27.2676C28.6797 27.1055 28.801 26.9851 29.3975 26.9608C29.9372 26.9389 30.2392 27.0588 30.0692 27.2274ZM53.248 27.9365C52.6653 29.0164 51.712 29.313 51.712 28.4145C51.712 28.1189 51.9183 28.003 52.1702 28.1575C52.4227 28.3124 52.7606 28.097 52.9224 27.6795C53.0836 27.262 53.3463 26.9206 53.506 26.9206C53.6653 26.9206 53.5496 27.3778 53.248 27.9365ZM12.5148 28.5577C13.6909 30.2232 13.5777 34.6514 12.3305 35.7714C9.84986 37.9982 7.14496 32.766 8.6912 28.7314C9.3312 27.0623 11.393 26.9684 12.5148 28.5577ZM21.5665 28.7873C21.1205 29.5487 21.0202 29.5705 21.0074 28.9102C20.991 28.0549 21.5296 27.2843 21.8921 27.6444C22.0119 27.7633 21.8655 28.2773 21.5665 28.7873ZM32.512 27.9365C32.6861 28.2159 32.5842 28.4444 32.2862 28.4444C31.9882 28.4444 31.744 28.2159 31.744 27.9365C31.744 27.6571 31.8454 27.4286 31.9698 27.4286C32.0942 27.4286 32.3379 27.6571 32.512 27.9365ZM44.3151 28.4013C44.1503 28.6659 44.2337 29.0159 44.5005 29.1794C44.7672 29.343 45.12 29.2602 45.2849 28.9956C45.4497 28.7309 45.3663 28.381 45.0995 28.2174C44.8328 28.0538 44.48 28.1366 44.3151 28.4013ZM50.688 28.1605C50.688 28.2839 50.4576 28.5257 50.176 28.6984C49.8944 28.8711 49.664 28.77 49.664 28.4744C49.664 28.1788 49.8944 27.9365 50.176 27.9365C50.4576 27.9365 50.688 28.0371 50.688 28.1605ZM41.472 29.4603C41.472 29.7397 41.6886 29.9683 41.9538 29.9683C42.219 29.9683 42.5779 29.7397 42.752 29.4603C42.9261 29.181 42.709 28.9524 42.2702 28.9524C41.8314 28.9524 41.472 29.181 41.472 29.4603ZM31.978 29.9332C32.1403 30.1933 32.0768 30.526 31.8377 30.6728C31.5986 30.8196 31.4025 30.6067 31.4025 30.1999C31.4025 29.3435 31.5643 29.2688 31.978 29.9332ZM16.2109 31.619C16.0691 31.9685 15.9529 31.6825 15.9529 30.9841C15.9529 30.2857 16.0691 30.0003 16.2109 30.3492C16.3533 30.6987 16.3533 31.2701 16.2109 31.619ZM15.6836 33.8225C16.2821 33.5944 16.4137 33.8885 16.2883 35.1782C16.1449 36.6507 15.9391 36.8432 14.3473 36.993C12.6244 37.1556 12.5957 37.1296 13.4513 36.1915C13.9699 35.6226 14.3698 34.2923 14.4179 32.9757C14.4886 31.0425 14.529 30.9653 14.7092 32.4216C14.8639 33.6681 15.1204 34.0368 15.6836 33.8225ZM30.72 31.8009C30.72 32.221 29.7257 32.4587 29.4979 32.093C29.3499 31.8557 29.5644 31.6612 29.9745 31.6612C30.3846 31.6612 30.72 31.7242 30.72 31.8009ZM26.112 32.1996C26.112 32.3093 25.7546 32.5354 25.3174 32.702C24.8617 32.8752 24.6564 32.7898 24.8356 32.5023C25.1361 32.0193 26.112 31.7882 26.112 32.1996ZM28.928 32.5079C29.1021 32.7873 29.014 33.0159 28.7324 33.0159C28.4508 33.0159 28.0781 32.7873 27.904 32.5079C27.7299 32.2286 27.818 32 28.0996 32C28.3812 32 28.7539 32.2286 28.928 32.5079ZM42.3004 34.1526C41.2073 34.7845 39.8249 35.584 39.2284 35.9289C38.6319 36.2743 37.3729 36.5597 36.4308 36.5638C34.5006 36.5724 31.744 37.9809 31.744 38.9592C31.744 39.4062 32.2545 39.2955 33.408 38.5976C34.3229 38.0439 35.841 37.5903 36.7811 37.5893C37.7933 37.5883 39.8541 36.8305 41.8376 35.7298C45.12 33.9088 45.2342 33.885 47.6969 34.5112C50.0941 35.1208 53.2475 34.878 52.5046 34.1404C52.3105 33.9484 51.4196 33.7529 50.5242 33.7057C49.6287 33.6589 47.8592 33.4817 46.592 33.312C44.7498 33.0657 43.8897 33.2338 42.3004 34.1526ZM14.4845 39.1111C14.337 39.6698 14.164 40.127 14.0995 40.127C14.0355 40.127 13.5654 39.6698 13.056 39.1111C12.1523 38.1201 12.1615 38.0952 13.4405 38.0952C14.4998 38.0952 14.7005 38.2903 14.4845 39.1111ZM17.4336 39.8862C19.2829 40.8345 19.5784 42.8297 17.8319 42.5752C16.278 42.3482 15.9954 41.1449 17.4935 41.1352C18.4525 41.1286 18.5364 41.0301 17.92 40.6349C16.7603 39.8913 15.9734 40.0274 15.7128 41.0159C15.5689 41.5629 15.4557 41.3674 15.4194 40.5079C15.3503 38.8836 15.4307 38.8587 17.4336 39.8862ZM51.3249 41.5096C50.9711 41.635 50.8349 42.0038 51.0228 42.3289C51.2107 42.6545 51.1754 42.751 50.945 42.5443C50.7146 42.337 50.1596 42.4442 49.7111 42.7825C49.2626 43.1208 49.4536 42.7769 50.1355 42.0185C50.817 41.2597 51.5082 40.7837 51.6715 40.9605C51.8344 41.1373 51.6787 41.3846 51.3249 41.5096ZM29.568 45.2871C31.6093 45.631 33.28 46.0698 33.28 46.2624C33.28 46.8658 39.5894 47.2625 41.6 46.785C42.6563 46.5346 43.52 46.5062 43.52 46.722C43.52 46.9384 42.9379 48.3769 42.2262 49.9185C40.8074 52.9935 39.0272 54.0185 37.4436 52.672C36.9843 52.2809 34.6184 51.3559 32.1869 50.6169C27.5246 49.2003 20.4001 44.771 20.073 43.0867C19.9327 42.3629 20.3156 42.4132 22.8833 43.455C24.5181 44.1184 27.5267 44.9427 29.568 45.2871ZM49.3097 45.7331C48.0737 47.9324 44.8558 51.1863 42.5892 52.5283C42.218 52.7482 42.5252 51.7323 43.2717 50.271C44.0177 48.8097 44.5204 47.2036 44.3883 46.7022C44.246 46.1623 44.3853 45.8743 44.7299 45.9962C45.0499 46.11 46.464 45.5456 47.872 44.7431C49.28 43.9406 50.5027 43.2589 50.5897 43.229C50.6762 43.199 50.1002 44.3261 49.3097 45.7331ZM41.6 46.0505C41.2483 46.1917 40.6723 46.1917 40.32 46.0505C39.9683 45.9098 40.256 45.7945 40.96 45.7945C41.664 45.7945 41.9523 45.9098 41.6 46.0505ZM47.9124 51.5337C48.086 52.2199 48.1085 53.0773 47.9626 53.4385C47.8162 53.7996 47.6785 53.5695 47.6564 52.9265L47.616 51.7577L45.952 52.9945C44.0223 54.429 41.984 55.1599 41.984 54.4178C41.984 54.1384 42.4043 53.7773 42.9179 53.6157C43.4314 53.4537 44.5112 52.6385 45.3176 51.8034C47.0973 49.9606 47.5034 49.9185 47.9124 51.5337ZM42.346 60.0574C42.2236 60.6893 42.1187 60.2921 42.113 59.1746C42.1074 58.0571 42.2077 57.5401 42.3357 58.0256C42.4637 58.5112 42.4683 59.4255 42.346 60.0574ZM41.3215 61.0794C41.1991 61.7077 41.0993 61.1937 41.0993 59.9365C41.0993 58.6794 41.1991 58.1653 41.3215 58.7937C41.4433 59.422 41.4433 60.451 41.3215 61.0794Z" fill="#DA8E2E"/>
<path fill-rule="evenodd" clip-rule="evenodd" d="M27.2031 8.40178C19.394 10.0825 12.9623 14.8272 10.8308 20.4795C10.2241 22.0876 9.728 24.0447 9.728 24.8295C9.728 25.6137 9.27181 26.6651 8.71424 27.1655C6.11328 29.5004 7.01235 33.9784 10.9517 38.3121L13.6883 41.3227L11.3664 44.1503C10.0895 45.7057 8.50074 48.158 7.83514 49.6C5.86598 53.8672 4.33971 63.4921 5.632 63.4921C5.9136 63.4921 6.1481 62.5209 6.1527 61.3333C6.17677 55.4738 9.03117 47.8024 12.5716 44.0813C14.1532 42.4188 14.5106 42.2593 15.575 42.7403C16.9513 43.3625 17.8831 45.058 18.4648 48C18.8124 49.76 18.7003 50.205 17.6256 51.3285C16.3671 52.6446 12.0351 62.9024 12.5302 63.3935C12.9495 63.8095 13.0621 63.585 15.3431 57.7742C16.639 54.4737 17.878 52.1036 18.4724 51.7882C19.6879 51.1426 19.8067 48.0381 18.7141 45.4441C17.7838 43.2356 18.6732 43.0288 20.5189 45.0245C22.7046 47.3884 27.7033 50.2588 31.9524 51.5906C34.2231 52.3022 36.4503 53.2155 36.9014 53.6208C37.4492 54.113 38.2577 54.2507 39.3405 54.0358C40.2949 53.8464 40.96 53.923 40.96 54.2222C40.96 56.29 29.7861 54.4909 23.9135 51.4784C23.0989 51.0603 22.3785 50.7926 22.3124 50.8831C22.2459 50.9735 21.6212 53.8479 20.9239 57.2698L19.6562 63.4921H34.1484H48.64L48.6467 56.5079C48.6523 50.2791 48.7818 49.249 49.8412 46.9841L51.029 44.4444L51.7417 46.4762C52.5276 48.7182 52.6935 56.4815 52.0504 60.9524C51.7765 62.8571 51.8154 63.5825 52.1733 63.232C52.4616 62.9491 52.93 60.6837 53.2152 58.1973C53.7354 53.6533 53.3294 48.3449 52.245 45.5152C51.647 43.9543 52.1011 39.8131 53.0314 38.3492C53.3862 37.7905 53.9377 36.3048 54.2566 35.0476C54.5751 33.7905 55.1864 31.8593 55.6145 30.7561C56.5535 28.3368 56.6236 24.0427 55.766 21.4507C53.6612 15.0908 47.2202 10.1521 38.7717 8.42057C34.11 7.46565 31.572 7.46159 27.2031 8.40178ZM30.5812 8.94171C30.4113 9.11035 29.9694 9.12863 29.6003 8.98184C29.1917 8.81981 29.313 8.69943 29.9095 8.67505C30.4492 8.65321 30.7512 8.77308 30.5812 8.94171ZM36.992 8.97117C36.6403 9.11238 36.0643 9.11238 35.712 8.97117C35.3603 8.83048 35.648 8.71517 36.352 8.71517C37.056 8.71517 37.3443 8.83048 36.992 8.97117ZM40.9723 11.0237C44.3581 12.2321 47.1496 13.9332 49.92 16.4764L51.968 18.3568L50.432 17.9403C47.5269 17.1525 38.8905 17.5792 34.304 18.7368C26.2538 20.769 21.4139 23.7008 18.2774 28.4444C17.4459 29.7016 16.9032 30.3299 17.0711 29.8413C17.2385 29.3526 17.2104 28.9509 17.0081 28.9493C16.8054 28.9473 16.2473 28.2616 15.7681 27.4255C15.2883 26.589 14.6186 25.9048 14.2807 25.9048C13.9075 25.9048 14.0472 26.3543 14.6371 27.0476L15.6088 28.1905L14.2991 27.0476C12.3971 25.3872 11.306 25.5766 12.8389 27.3016L14.08 28.6984L12.6879 27.4819C11.9219 26.8124 11.4171 26.0698 11.5661 25.8311C11.7146 25.5924 11.5922 25.3968 11.2942 25.3968C10.3711 25.3968 10.7044 22.7251 11.9598 20.0635C13.526 16.7431 16.5878 13.7737 20.5844 11.7003L23.808 10.0277L21.3755 12.4561C18.2482 15.5784 16.3866 19.3585 16.0952 23.1787L15.8679 26.1587L16.5898 23.0613C16.9871 21.3577 17.8898 18.8434 18.5958 17.474C20.4529 13.8723 25.4213 9.41968 26.9389 9.99721C27.329 10.146 27.648 10.0714 27.648 9.83213C27.6475 9.03721 38.0012 9.96317 40.9723 11.0237ZM51.2 15.4921C52.1554 16.4698 52.8215 17.2698 52.6807 17.2698C52.5399 17.2698 51.6434 16.4698 50.688 15.4921C49.7326 14.5143 49.0665 13.7143 49.2073 13.7143C49.3481 13.7143 50.2446 14.5143 51.2 15.4921ZM53.7702 18.9206C54.271 19.9462 54.2546 19.9731 53.6095 19.1827C53.2142 18.6982 52.7037 18.4696 52.4754 18.6748C52.247 18.8795 52.2255 18.7622 52.4283 18.4127C52.9377 17.5345 53.1282 17.6066 53.7702 18.9206ZM48.0876 18.9283C49.5304 19.6582 50.09 20.8254 48.9974 20.8254C48.5842 20.8254 47.8735 21.3887 47.4189 22.0775C44.8399 25.9825 48.8212 31.5388 52.7165 29.4705C54.8741 28.3251 54.3442 34.3599 51.9276 38.4589C49.086 43.2792 45.2142 44.8757 36.352 44.8808C30.7487 44.8843 29.4252 44.7121 25.7203 43.4971C23.3702 42.7266 20.8169 41.4994 19.9777 40.7375C17.0563 38.0841 15.4409 37.0794 14.0979 37.0794C12.799 37.0794 12.7754 37.0321 13.5388 35.9502C13.9771 35.3295 14.3729 33.9012 14.4179 32.7756C14.4952 30.8399 14.5111 30.8211 14.7092 32.4216C14.8593 33.6325 15.127 34.0343 15.6513 33.8347C16.172 33.6366 16.3937 33.955 16.4178 34.9364C16.4408 35.8938 16.6743 35.4966 17.1776 33.6406C17.5775 32.1686 18.2815 30.2405 18.7423 29.3562L19.5804 27.7481L20.6705 29.9627C22.4282 33.5345 26.3583 34.9821 29.676 33.28C34.3992 30.8571 34.5001 24.7782 29.8537 22.591L27.9178 21.6797L30.7267 20.7253C36.9075 18.6255 45.6929 17.7158 48.0876 18.9283ZM52.7882 19.9553C55.0246 21.4481 55.999 24.2169 55.5064 27.6825C55.3083 29.0794 55.081 29.9937 55.0021 29.7143C54.9233 29.4349 54.4942 27.907 54.0488 26.3187C53.6033 24.7304 52.436 22.3873 51.4545 21.1124C49.4822 18.5488 50.004 18.0963 52.7882 19.9553ZM48.1014 23.4575C47.7604 24.6375 47.8387 25.4817 48.3932 26.5834C49.3409 28.4683 49.3455 28.7279 48.4168 27.9634C47.3754 27.106 46.9704 24.7949 47.5822 23.1995C48.3046 21.314 48.6687 21.4949 48.1014 23.4575ZM25.6 23.3651C25.6 23.6444 25.3481 23.873 25.0409 23.873C24.2145 23.873 21.9976 25.7173 22.3749 26.0912C22.5531 26.2679 22.5587 26.4127 22.3877 26.4127C21.2541 26.4127 21.7764 25.25 23.4015 24.1544C25.5877 22.6804 25.6 22.6758 25.6 23.3651ZM29.184 23.3651C29.184 23.6444 28.9536 23.873 28.672 23.873C28.3904 23.873 28.16 23.6444 28.16 23.3651C28.16 23.0857 28.3904 22.8571 28.672 22.8571C28.9536 22.8571 29.184 23.0857 29.184 23.3651ZM51.9004 23.2564C52.0371 23.4758 51.7217 23.6551 51.2 23.6551C50.6783 23.6551 50.3629 23.4758 50.4996 23.2564C50.6368 23.037 50.9517 22.8571 51.2 22.8571C51.4483 22.8571 51.7632 23.037 51.9004 23.2564ZM31.5034 25.2968C31.1593 25.6381 29.696 24.3713 29.696 23.7323C29.696 23.4438 30.1583 23.6226 30.7231 24.13C31.2883 24.637 31.639 25.1622 31.5034 25.2968ZM29.7615 25.7778C30.4046 26.5915 30.3852 26.6052 29.5291 25.9373C28.7165 25.3039 28.5332 25.3039 28.1288 25.9373C27.8728 26.3385 27.6603 26.4193 27.6557 26.1166C27.6362 24.7319 28.7877 24.5465 29.7615 25.7778ZM13.2029 30.2481C13.9689 32.5105 13.6402 34.5956 12.3331 35.7689C9.47046 38.339 6.46707 30.6636 9.25338 27.8994C10.2062 26.9542 10.4294 26.9206 11.4294 27.5733C12.0422 27.9736 12.8404 29.1769 13.2029 30.2481ZM30.0692 27.2274C29.8993 27.3961 29.4574 27.4143 29.0883 27.2676C28.6797 27.1055 28.801 26.9851 29.3975 26.9608C29.9372 26.9389 30.2392 27.0588 30.0692 27.2274ZM53.248 27.9365C52.6653 29.0164 51.712 29.313 51.712 28.4145C51.712 28.1189 51.9183 28.003 52.1702 28.1575C52.4227 28.3124 52.7606 28.097 52.9224 27.6795C53.0836 27.262 53.3463 26.9206 53.506 26.9206C53.6653 26.9206 53.5496 27.3778 53.248 27.9365ZM21.5665 28.7873C21.1205 29.5487 21.0202 29.5705 21.0074 28.9102C20.991 28.0549 21.5296 27.2843 21.8921 27.6444C22.0119 27.7633 21.8655 28.2773 21.5665 28.7873ZM32.512 27.9365C32.6861 28.2159 32.5842 28.4444 32.2862 28.4444C31.9882 28.4444 31.744 28.2159 31.744 27.9365C31.744 27.6571 31.8454 27.4286 31.9698 27.4286C32.0942 27.4286 32.3379 27.6571 32.512 27.9365ZM50.688 28.1605C50.688 28.2839 50.4576 28.5257 50.176 28.6984C49.8944 28.8711 49.664 28.77 49.664 28.4744C49.664 28.1788 49.8944 27.9365 50.176 27.9365C50.4576 27.9365 50.688 28.0371 50.688 28.1605ZM31.978 29.9332C32.1403 30.1933 32.0768 30.526 31.8377 30.6728C31.5986 30.8196 31.4025 30.6067 31.4025 30.1999C31.4025 29.3435 31.5643 29.2688 31.978 29.9332ZM16.2109 31.619C16.0691 31.9685 15.9529 31.6825 15.9529 30.9841C15.9529 30.2857 16.0691 30.0003 16.2109 30.3492C16.3533 30.6987 16.3533 31.2701 16.2109 31.619ZM30.72 31.8009C30.72 32.221 29.7257 32.4587 29.4979 32.093C29.3499 31.8557 29.5644 31.6612 29.9745 31.6612C30.3846 31.6612 30.72 31.7242 30.72 31.8009ZM26.112 32.1996C26.112 32.3093 25.7546 32.5354 25.3174 32.702C24.8617 32.8752 24.6564 32.7898 24.8356 32.5023C25.1361 32.0193 26.112 31.7882 26.112 32.1996ZM28.928 32.5079C29.1021 32.7873 29.014 33.0159 28.7324 33.0159C28.4508 33.0159 28.0781 32.7873 27.904 32.5079C27.7299 32.2286 27.818 32 28.0996 32C28.3812 32 28.7539 32.2286 28.928 32.5079ZM43.008 33.9728C39.3544 36.0224 38.0897 36.5252 35.84 36.8224C33.5078 37.1302 31.2837 38.3157 31.8971 38.9242C32.0809 39.1065 32.5581 38.9867 32.958 38.6575C33.3573 38.3284 34.9952 37.8479 36.5972 37.5888C38.3892 37.2998 40.4285 36.5115 41.899 35.5403C43.9194 34.205 44.6039 34.0089 46.336 34.2705C49.8857 34.8053 51.8666 34.8109 52.0484 34.2857C52.1446 34.0064 51.3603 33.7549 50.304 33.727C49.2483 33.699 47.5776 33.5167 46.592 33.3217C45.2582 33.058 44.3418 33.2246 43.008 33.9728ZM14.4845 39.1111C14.337 39.6698 14.0682 40.127 13.8875 40.127C13.7062 40.127 13.2705 39.6698 12.9188 39.1111C12.3459 38.2004 12.4073 38.0952 13.5158 38.0952C14.4998 38.0952 14.6975 38.3025 14.4845 39.1111ZM17.4336 39.8862C19.1252 40.7538 19.5384 42.6667 18.0342 42.6667C16.4818 42.6667 14.9135 41.2582 15.2105 40.1305C15.5331 38.9084 15.5284 38.909 17.4336 39.8862ZM15.9124 41.0159C15.9345 41.505 16.0645 41.632 16.2017 41.2983C16.3384 40.9651 16.8187 40.8325 17.2692 41.0037C17.813 41.2109 17.9635 41.1159 17.7178 40.7213C17.1484 39.8075 15.8669 40.0168 15.9124 41.0159ZM51.3249 41.5096C50.9711 41.635 50.8349 42.0038 51.0228 42.3289C51.2108 42.6545 51.1754 42.751 50.945 42.5443C50.7146 42.337 50.1596 42.4442 49.7111 42.7825C49.2626 43.1208 49.4536 42.7769 50.1356 42.0185C50.817 41.2597 51.5082 40.7837 51.6716 40.9605C51.8344 41.1373 51.6787 41.3846 51.3249 41.5096ZM24.576 43.9949C26.4064 44.6349 29.1133 45.31 30.592 45.4949C32.0707 45.6797 33.28 46.0069 33.28 46.2217C33.28 46.8571 39.5182 47.2792 41.6 46.785C42.6563 46.5346 43.52 46.5051 43.52 46.7205C43.52 46.9359 42.9599 48.3688 42.2748 49.9048C40.8719 53.0519 39.2653 53.9159 37.246 52.6105C36.6136 52.2017 34.2528 51.2909 32 50.5864C27.7079 49.2439 24.5463 47.5032 21.3586 44.7264C19.3526 42.979 18.8211 41.7732 20.352 42.4411C20.8445 42.656 22.7456 43.3554 24.576 43.9949ZM49.3384 45.7514C48.1275 47.9583 44.9172 51.1853 42.5892 52.5364C42.218 52.7517 42.5252 51.7323 43.2717 50.271C44.0177 48.8097 44.5204 47.2036 44.3884 46.7022C44.246 46.1623 44.3853 45.8743 44.7299 45.9962C45.0499 46.11 46.464 45.5457 47.872 44.7431C49.28 43.9406 50.5042 43.2589 50.5917 43.229C50.6798 43.199 50.1156 44.3342 49.3384 45.7514ZM41.6 46.0505C41.2483 46.1917 40.6723 46.1917 40.32 46.0505C39.9683 45.9098 40.256 45.7945 40.96 45.7945C41.664 45.7945 41.9523 45.9098 41.6 46.0505ZM47.9411 51.937C47.979 53.1241 47.9053 53.5812 47.7778 52.9534L47.5448 51.8116L45.9167 53.0215C43.9542 54.4792 41.984 55.1553 41.984 54.371C41.984 54.0658 42.5027 53.6163 43.136 53.3719C43.7693 53.1276 44.9649 52.2189 45.7917 51.3529C46.6186 50.4863 47.425 49.7783 47.5837 49.7783C47.7425 49.7788 47.9032 50.7505 47.9411 51.937ZM42.346 60.0574C42.2236 60.6893 42.1187 60.2921 42.113 59.1746C42.1074 58.0571 42.2077 57.5401 42.3357 58.0257C42.4637 58.5112 42.4684 59.4255 42.346 60.0574ZM41.3215 61.0794C41.1991 61.7077 41.0993 61.1937 41.0993 59.9365C41.0993 58.6794 41.1991 58.1653 41.3215 58.7937C41.4433 59.422 41.4433 60.4511 41.3215 61.0794Z" fill="#735F46"/>
<path fill-rule="evenodd" clip-rule="evenodd" d="M25.856 8.88686C17.0588 11.2686 11.0326 16.9641 9.91437 23.9533C9.72032 25.1662 9.11872 26.755 8.57805 27.4834C7.94931 28.3307 7.5945 29.6386 7.5945 31.1096C7.5945 33.3516 8.70502 36.3053 9.67936 36.6527C9.9456 36.7477 10.9645 37.8326 11.9429 39.0634L13.7216 41.3013L11.6838 43.8588C9.07366 47.1345 7.44294 50.3467 6.46758 54.1313C5.40262 58.2644 4.85837 63.4921 5.49274 63.4921C5.77024 63.4921 6.12762 61.7209 6.28582 59.5556C6.69798 53.9296 8.29286 49.3603 11.1575 45.598C12.4856 43.8532 13.9689 42.3502 14.4543 42.2573C15.8561 41.9896 17.7162 44.2778 18.4023 47.1157C19.0188 49.6645 18.9978 49.7722 17.516 51.6571C16.6815 52.7187 15.7614 54.273 15.4716 55.1111C15.1818 55.9492 14.3304 58.2349 13.5793 60.1905C12.8282 62.146 12.4401 63.5175 12.7176 63.2381C12.9946 62.9587 14.0605 60.5587 15.0871 57.9048C16.1132 55.2508 17.516 52.4952 18.2047 51.7816C19.6454 50.2877 19.7345 49.3328 18.7382 46.049C18.3434 44.7477 18.2313 43.6825 18.4893 43.6825C18.7474 43.6825 20.2337 44.7126 21.7917 45.9723C25.2667 48.7802 28.3325 50.3538 33.1648 51.8095C35.1995 52.4226 36.864 53.1307 36.864 53.3826C36.864 53.635 37.7856 53.8413 38.912 53.8413C41.2749 53.8413 41.6507 54.593 39.5003 55.0197C36.565 55.6023 28.2844 53.7209 23.9135 51.4783C23.0989 51.0603 22.3785 50.7926 22.3124 50.883C22.2459 50.9735 21.6212 53.8479 20.9239 57.2698L19.6562 63.4921H30.7958H41.9354L42.1171 60.3175L42.2989 57.1429L42.3972 60.3175L42.496 63.4921H45.056H47.616V57.6249V51.7577L45.952 52.9945C45.0371 53.6747 43.7775 54.3848 43.1539 54.5727C41.9932 54.9222 41.6712 55.8999 41.3056 60.1905C41.1868 61.5812 41.1049 61.2312 41.046 59.0806C40.9477 55.4976 41.5928 53.3333 42.7592 53.3333C43.1995 53.3333 44.5297 52.4074 45.716 51.2762L47.872 49.2185L48.1495 56.4825L48.427 63.746L48.5335 56.2336C48.6252 49.758 48.7869 48.4358 49.7055 46.6494C50.3501 45.3958 50.9563 44.7614 51.2394 45.0423C52.6397 46.4315 53.0534 57.0509 51.9173 62.4594C51.6849 63.5667 51.7279 63.6206 52.2235 62.8455C52.5404 62.3502 52.9285 59.1502 53.0852 55.7343C53.333 50.338 53.2337 49.1261 52.3269 46.4924C51.6178 44.4322 51.434 43.1817 51.754 42.5895C52.0125 42.11 52.224 41.2703 52.224 40.7238C52.224 40.1773 52.6797 38.7337 53.2367 37.5157C53.7938 36.2982 54.2387 34.8444 54.2249 34.2857C54.2116 33.727 53.8747 34.3192 53.4764 35.6018C52.4897 38.7789 49.2861 42.2527 45.9715 43.7389C43.5338 44.8315 42.5748 44.9498 36.352 44.9265C30.2249 44.9041 28.9603 44.7426 25.216 43.5078C22.8931 42.7413 20.4739 41.597 19.84 40.9641C17.8012 38.9277 14.9463 37.0794 13.8404 37.0794C12.8788 37.0794 12.8312 36.9575 13.3939 35.9365C13.7405 35.3082 14.1804 33.8794 14.3718 32.7619C14.7149 30.7576 14.7205 30.7535 14.784 32.4353C14.8326 33.728 15.0339 34.0698 15.616 33.8479C16.1516 33.6442 16.3953 33.8966 16.4204 34.6824C16.4403 35.3026 16.8668 34.3888 17.3676 32.6522C17.8683 30.9155 18.5759 29.1388 18.9399 28.7035C19.3039 28.2682 19.4703 27.7816 19.3101 27.6221C19.1493 27.4631 18.5508 28.2113 17.9794 29.2856C17.4085 30.3594 16.9083 30.8952 16.8678 30.4762C16.8269 30.0571 16.5903 30.2857 16.341 30.9841C15.9872 31.9756 15.9416 31.7943 16.1326 30.1547C16.3046 28.6776 16.1505 27.8684 15.6124 27.4255C15.1921 27.0796 14.848 26.974 14.848 27.1914C14.848 27.4083 14.4445 27.2254 13.952 26.785C13.4595 26.3446 12.4104 25.824 11.6209 25.6284C10.3276 25.3084 10.219 25.1164 10.5211 23.6841C11.541 18.8444 15.5218 13.921 20.396 11.4707C24.1065 9.60559 24.5699 9.84279 21.8511 12.2174C19.1355 14.5884 16.5412 19.4215 16.1388 22.8571C15.8904 24.9793 15.9258 24.9336 16.6287 22.2176C17.9681 17.0458 20.4006 13.374 23.9826 11.1182C25.2278 10.334 26.5595 9.85295 27.0106 10.0246C27.4534 10.1933 27.6828 10.1176 27.52 9.85651C27.1375 9.2419 34.1581 9.48419 37.888 10.2141C41.7597 10.9714 46.3626 13.2907 49.3891 16.0086C50.7837 17.2607 52.1073 18.2857 52.3305 18.2857C53.1789 18.2857 52.6669 17.409 50.7141 15.5175C49.6021 14.4401 48.7383 13.3364 48.7941 13.0651C48.8499 12.7934 48.576 12.4561 48.1848 12.3149C47.7076 12.1432 47.6073 12.2733 47.8797 12.7111C48.1485 13.1418 48.0829 13.2383 47.6867 12.9956C47.3569 12.7934 47.2233 12.4104 47.3892 12.1437C47.6892 11.6617 42.5216 9.12203 41.3292 9.16571C40.9856 9.17841 41.3952 9.50247 42.24 9.88647C44.2593 10.8038 43.8026 10.8196 40.96 9.93117C39.638 9.51771 39.0922 9.17485 39.68 9.12609C40.5489 9.05447 40.51 8.97981 39.424 8.63492C37.3468 7.97511 28.6259 8.13714 25.856 8.88686ZM30.336 8.97117C29.9843 9.11238 29.4083 9.11238 29.056 8.97117C28.7043 8.83047 28.992 8.71517 29.696 8.71517C30.4 8.71517 30.6883 8.83047 30.336 8.97117ZM37.76 8.98489C37.2669 9.11289 36.4611 9.11289 35.968 8.98489C35.4749 8.85739 35.8784 8.75276 36.864 8.75276C37.8496 8.75276 38.2531 8.85739 37.76 8.98489ZM45.8542 11.4565C46.7912 12.2016 46.7748 12.2118 45.568 11.6419C44.0008 10.9013 43.7105 10.6667 44.3607 10.6667C44.6356 10.6667 45.3074 11.0222 45.8542 11.4565ZM51.198 15.49C52.8369 17.1469 53.3028 17.9266 52.8957 18.3304C52.4882 18.7347 52.0028 18.7043 51.1268 18.2187C49.0158 17.0489 39.9724 17.441 34.1816 18.9536C28.6945 20.387 22.9094 23.1462 20.7898 25.3415L19.4217 26.7576L20.4114 29.0479C21.7257 32.0894 23.746 33.6615 25.8222 33.2587C27.0126 33.0281 27.2061 33.0844 26.624 33.4923C25.4336 34.3263 29.1855 33.5573 30.6125 32.675C32.3625 31.5926 33.4807 28.9036 33.0742 26.754C32.6989 24.7685 30.2592 22.3492 28.6326 22.3492C25.2544 22.3492 31.3252 20.0051 37.8296 18.7977C41.9072 18.0409 46.9146 18.1623 48.6656 19.0608C50.2584 19.8781 50.6772 20.8254 49.4454 20.8254C48.2688 20.8254 46.592 23.363 46.592 25.1429C46.592 28.2829 49.7024 30.5082 52.5763 29.4243C53.7943 28.9646 53.8629 29.0707 54.4051 32.254C54.5188 32.9214 54.8987 32.3317 55.5136 30.5336C56.6712 27.1467 56.4081 22.4508 54.8966 19.5408C53.6325 17.1058 50.3209 13.2063 49.5176 13.2063C49.1991 13.2063 49.9553 14.2339 51.198 15.49ZM50.9732 18.8043C51.902 19.1548 52.5512 19.1563 52.9736 18.8089C53.5941 18.2979 54.272 18.591 54.272 19.3702C54.272 19.5942 53.8691 19.6353 53.376 19.4611C52.7831 19.2518 52.9884 19.6866 53.9832 20.7467C55.2033 22.0465 55.5249 22.8983 55.6897 25.2693C55.8013 26.8759 55.6744 28.7614 55.4081 29.4593C54.9627 30.626 54.8767 30.5117 54.3437 28.0457C53.5429 24.3429 51.9163 21.2876 50.942 21.6584C50.5206 21.8189 50.176 21.6833 50.176 21.3577C50.176 21.0321 50.4064 20.9067 50.688 21.0794C51.5917 21.6335 51.2353 20.674 50.0869 19.4611C48.8448 18.1496 48.9769 18.0516 50.9732 18.8043ZM49.664 21.7793C49.664 22.0241 49.3184 22.5092 48.896 22.8571C48.4736 23.2051 48.128 24.131 48.128 24.9148C48.128 27.4027 50.3992 28.6695 52.6843 27.456C53.3555 27.0994 53.5895 27.1649 53.5895 27.71C53.5895 28.5399 53.673 28.5084 51.0449 28.6705C49.4991 28.766 48.8929 28.5318 48.1009 27.5332C46.8987 26.017 46.8188 23.9949 47.9012 22.4625C48.704 21.3252 49.664 20.9529 49.664 21.7793ZM25.8222 23.3107C25.9779 23.5606 25.5365 23.906 24.8412 24.0792C24.1464 24.2524 23.2356 25.0194 22.8173 25.7844C22.3954 26.5559 22.0442 26.8358 22.0288 26.4127C22.0037 25.7356 21.9453 25.7356 21.504 26.4127C21.2137 26.8582 21.0043 26.9262 20.9997 26.5768C20.992 25.9759 24.492 22.8571 25.1745 22.8571C25.3752 22.8571 25.6666 23.0613 25.8222 23.3107ZM30.9791 24.3845C32.1976 25.6462 32.3348 26.0211 31.7676 26.5432C31.2105 27.0557 31.1378 27.0146 31.382 26.3238C31.6022 25.7006 31.146 25.2094 29.6791 24.4896C28.5778 23.9487 27.8236 23.3605 28.0033 23.1817C28.6572 22.5336 29.5342 22.8876 30.9791 24.3845ZM51.9644 23.3595C52.1436 23.647 51.9383 23.7323 51.4826 23.5591C51.0454 23.3925 50.688 23.4926 50.688 23.7816C50.688 24.0701 51.0909 24.4246 51.584 24.5684C52.287 24.7741 52.2609 24.8081 51.4616 24.7269C50.262 24.6049 49.7147 22.8571 50.8764 22.8571C51.3029 22.8571 51.7924 23.0832 51.9644 23.3595ZM29.7615 25.7778C30.4046 26.5915 30.3852 26.6052 29.5291 25.9373C28.7165 25.3039 28.5332 25.3039 28.1288 25.9373C27.7468 26.5361 27.6623 26.5077 27.6557 25.7778C27.6516 25.2891 27.9654 24.8889 28.3535 24.8889C28.7411 24.8889 29.375 25.2891 29.7615 25.7778ZM13.0104 27.4677C13.7395 28.3271 14.335 29.2983 14.334 29.6264C14.3329 29.954 13.888 29.4994 13.3448 28.6161C12.802 27.7328 11.9388 26.7682 11.4268 26.4726C10.9148 26.1775 10.7633 25.9286 11.0904 25.92C11.4176 25.9119 12.2813 26.6082 13.0104 27.4677ZM12.2583 28.159C14.5341 30.5625 13.9878 36.1072 11.4381 36.4719C8.79206 36.8508 7.03693 30.815 8.98918 28.0498C10.0137 26.5981 10.8052 26.6245 12.2583 28.159ZM29.824 27.2569C29.4723 27.3981 28.8963 27.3981 28.544 27.2569C28.1923 27.1162 28.48 27.0009 29.184 27.0009C29.888 27.0009 30.1763 27.1162 29.824 27.2569ZM32.7526 28.3175C32.7393 29.5157 32.6625 29.5873 32.2125 28.8213C31.9242 28.3302 31.83 27.7018 32.0026 27.4245C32.532 26.5747 32.7685 26.8566 32.7526 28.3175ZM15.7732 28.7116C15.6155 28.8681 15.3293 28.5862 15.1368 28.0853C14.8593 27.3615 14.9176 27.3031 15.4235 27.8009C15.7737 28.1458 15.9309 28.5557 15.7732 28.7116ZM21.7667 28.8254C21.6187 29.5939 21.6243 29.9642 21.7789 29.6482C21.953 29.2932 22.6217 29.6315 23.5346 30.5371C25.5657 32.5516 28.1923 32.5542 30.2188 30.5437C31.66 29.1139 32.7081 29.4573 31.7046 31.0303C31.3124 31.6449 31.2463 31.6444 31.2397 31.0263C31.2305 30.1785 30.4691 30.7926 30.4527 31.6612C30.4461 31.9873 30.0201 32.1813 29.505 32.0929C28.9905 32.0046 28.6858 32.1194 28.8282 32.3479C28.971 32.5765 27.8994 32.7467 26.4479 32.7258C24.9958 32.705 23.849 32.4759 23.8996 32.2169C24.0353 31.518 22.462 29.9489 21.9438 30.2664C21.3499 30.6306 20.8046 29.154 21.1773 28.1905C21.6678 26.9216 22.0534 27.3366 21.7667 28.8254ZM41.3855 34.9724C40.0548 35.8207 37.8982 36.6502 36.5215 36.8432C34.1012 37.182 31.3917 38.4229 31.9227 38.9496C32.0696 39.0954 32.7168 38.8485 33.3609 38.401C34.005 37.9535 35.2292 37.5822 36.0822 37.5761C37.5117 37.566 39.8049 36.6425 43.008 34.7881C44.5537 33.8931 47.0984 33.8194 48.8673 34.6194C49.8104 35.0456 50.4847 35.0562 51.3234 34.6596C52.4334 34.1343 52.418 34.1115 50.944 34.0998C50.0992 34.0927 48.1408 33.9434 46.592 33.7676C44.0484 33.4791 43.5451 33.5954 41.3855 34.9724ZM14.4876 37.8717C15.0861 38.0998 15.1204 38.3969 14.6591 39.3666L14.0831 40.5765L12.9295 39.5012C12.2952 38.91 11.776 38.2375 11.776 38.0069C11.776 37.5279 13.375 37.4481 14.4876 37.8717ZM18.944 41.6554C18.944 43.041 18.3419 43.2025 16.4915 42.3136C14.8076 41.5045 14.3887 40.2778 15.4404 39.2345C16.2309 38.4503 18.944 40.3246 18.944 41.6554ZM15.872 40.5262C15.872 40.7456 16.3159 40.9249 16.8586 40.9249C17.4008 40.9249 17.7331 40.7456 17.5964 40.5262C17.4592 40.3068 17.0158 40.127 16.6098 40.127C16.2038 40.127 15.872 40.3068 15.872 40.5262ZM50.1745 44.5536C48.4803 47.6439 43.7617 52.8254 42.6414 52.8254C41.7546 52.8254 41.7874 52.6684 43.2804 49.7453C44.2977 47.7536 44.4549 47.0187 44.01 46.3335C43.5748 45.6635 43.499 45.6457 43.6859 46.2573C43.8195 46.6956 43.2031 48.4099 42.3163 50.0668C40.9989 52.5283 40.4383 53.1093 39.2509 53.2444C38.4512 53.3354 37.4144 53.0778 36.9469 52.6725C36.479 52.2667 34.3183 51.4189 32.1454 50.7876C29.973 50.1567 26.8626 48.7746 25.2334 47.7166C22.2152 45.7559 19.0828 42.8678 19.5123 42.4411C19.6434 42.3116 21.7564 42.8912 24.2079 43.7298C26.6593 44.5679 30.4527 45.4415 32.6369 45.6706C35.0024 45.9185 35.8835 46.1384 34.816 46.2146C33.1494 46.3329 33.2032 46.3731 35.584 46.7931C38.8731 47.3727 42.8349 46.8937 43.2317 45.8687C43.4698 45.2526 43.6854 45.218 44.2721 45.7011C44.863 46.1877 45.5496 46.0206 47.6887 44.8696C49.1607 44.0767 50.4663 43.1157 50.5897 42.7327C50.7203 42.3289 49.986 42.5956 48.8402 43.3676C47.7548 44.0996 46.6442 44.6984 46.3729 44.6984C46.1015 44.6984 46.934 44.035 48.2227 43.2244C49.5114 42.4137 50.7505 41.4532 50.9768 41.0905C51.2727 40.6156 51.4432 40.5968 51.5866 41.023C51.6956 41.3486 51.0602 42.9374 50.1745 44.5536ZM40.832 46.078C40.0573 46.1943 38.7907 46.1943 38.016 46.078C37.2413 45.9616 37.8752 45.8667 39.424 45.8667C40.9728 45.8667 41.6067 45.9616 40.832 46.078Z" fill="#382E22"/>
<path fill-rule="evenodd" clip-rule="evenodd" d="M30.0923 8.768C30.5971 8.99149 30.0938 9.05245 28.9178 8.90972C27.1944 8.70095 22.7748 9.40495 24.32 9.64216C26.8872 10.0363 27.8006 10.0582 27.2353 9.71175C26.3363 9.16013 34.4069 9.54515 37.888 10.2197C41.7521 10.9679 46.3575 13.2861 49.3891 16.0086C50.7837 17.2607 52.1211 18.2857 52.3607 18.2857C52.6003 18.2857 52.6638 18.4985 52.502 18.7586C52.3397 19.0187 52.4273 19.3661 52.6955 19.5307C52.9782 19.7039 53.0821 19.2737 52.9423 18.5092C52.7724 17.5771 52.8799 17.2983 53.3094 17.5614C53.696 17.7986 53.783 17.7173 53.5475 17.3399C53.3437 17.0128 52.9992 16.8544 52.7816 16.9879C52.329 17.2653 49.2134 14.2263 49.1715 13.4659C49.1561 13.1891 48.7419 12.9605 48.2514 12.958C47.7614 12.9549 47.4148 12.675 47.4819 12.3357C47.5571 11.9553 47.2796 11.8425 46.7579 12.0411C46.1942 12.2555 46.0344 12.1666 46.2787 11.7745C46.5254 11.3783 46.3585 11.2955 45.7667 11.5205C45.1743 11.746 45.0074 11.6632 45.2547 11.2665C45.5014 10.8704 45.3345 10.7876 44.7427 11.0126C44.1815 11.2264 43.9869 11.1497 44.2045 10.8003C44.4252 10.4462 44.1554 10.3548 43.4406 10.5402C42.6179 10.7535 42.4417 10.6565 42.751 10.1603C43.0116 9.74222 42.9655 9.61676 42.6276 9.824C42.3316 10.0058 41.3558 10.0089 40.4593 9.83061C39.4378 9.62794 39.062 9.36483 39.4516 9.1261C39.7942 8.91581 38.9489 8.8513 37.5731 8.98235C36.1902 9.1134 35.3352 9.03264 35.6608 8.80051C35.9931 8.56381 34.7156 8.37994 32.7291 8.37842C30.6575 8.3774 29.5721 8.5374 30.0923 8.768ZM18.6578 11.9644C17.7034 12.7233 17.7096 12.7324 18.816 12.2006C19.4493 11.8959 19.968 11.5403 19.968 11.4108C19.968 11.0222 19.7023 11.1345 18.6578 11.9644ZM20.9531 13.0794L19.712 14.4762L21.12 13.245C21.8947 12.5674 22.528 11.939 22.528 11.8481C22.528 11.4494 22.1133 11.774 20.9531 13.0794ZM14.848 14.9841C13.6044 16.2413 12.7022 17.2698 12.843 17.2698C12.9838 17.2698 14.1164 16.2413 15.36 14.9841C16.6036 13.727 17.5058 12.6984 17.365 12.6984C17.2242 12.6984 16.0916 13.727 14.848 14.9841ZM50.688 14.4142C50.688 14.5194 51.0909 14.9196 51.584 15.3031C52.396 15.9345 52.4139 15.9167 51.7775 15.1111C51.1083 14.2649 50.688 13.9962 50.688 14.4142ZM40.064 18.1277C40.5571 18.2557 41.3629 18.2557 41.856 18.1277C42.3491 18.0003 41.9456 17.8956 40.96 17.8956C39.9744 17.8956 39.5709 18.0003 40.064 18.1277ZM47.5331 18.3182C48.2877 18.6179 49.0445 18.6118 49.5811 18.3015C50.2298 17.9256 49.9456 17.8128 48.384 17.8255C46.5925 17.8403 46.486 17.9017 47.5331 18.3182ZM37.2803 18.6326C37.6494 18.7794 38.0913 18.7611 38.2612 18.5925C38.4312 18.4239 38.1291 18.304 37.5895 18.3258C36.993 18.3502 36.8717 18.4706 37.2803 18.6326ZM34.7203 19.1406C35.0894 19.2874 35.5313 19.2691 35.7012 19.1004C35.8712 18.9318 35.5691 18.8119 35.0295 18.8338C34.433 18.8582 34.3117 18.9785 34.7203 19.1406ZM54.719 21.3851C55.6723 23.0329 55.9852 22.9719 55.5428 21.2241C55.3697 20.5389 54.9304 19.9787 54.5669 19.9787C54.0631 19.9787 54.0995 20.3144 54.719 21.3851ZM25.472 22.1318C24.6973 22.5488 24.0645 22.9394 24.065 23.0004C24.0686 23.39 27.8856 23.2787 28.5844 22.8688C29.2101 22.5016 28.9582 22.4493 27.648 22.6738C25.9405 22.9664 25.9041 22.943 26.88 22.1735C28.1702 21.1561 27.3311 21.1312 25.472 22.1318ZM48.2468 23.8517C48.1521 25.5218 48.3492 26.4706 48.8812 26.9084C49.3056 27.2579 49.5621 27.6891 49.451 27.8669C49.3404 28.0447 50.0152 28.1905 50.9501 28.1905C51.8856 28.1905 52.5542 28.095 52.436 27.9777C52.3182 27.8608 52.5937 27.3575 53.0483 26.8592C53.8117 26.0221 53.7928 25.7844 52.801 23.7521C52.0817 22.2776 51.3987 21.5512 50.7331 21.5512C50.1862 21.5512 49.836 21.7067 49.9548 21.8971C50.0731 22.0871 49.814 22.3782 49.3783 22.5443C48.9431 22.7098 48.7178 22.6352 48.8776 22.3787C49.0378 22.1217 48.9923 21.8032 48.7762 21.6706C48.5601 21.5385 48.322 22.5199 48.2468 23.8517ZM10.2804 22.6453C10.305 23.2371 10.4264 23.3575 10.5897 22.9526C10.7377 22.5859 10.7192 22.1476 10.5492 21.9789C10.3793 21.8103 10.2584 22.11 10.2804 22.6453ZM29.44 23.3651C29.2659 23.6444 28.1405 23.873 26.9389 23.873C22.7681 23.873 20.7898 28.2834 23.8059 30.8571C26.7561 33.375 31.4911 31.4316 31.3861 27.7465C31.3569 26.7322 31.5658 25.76 31.8495 25.5863C32.1731 25.3877 32.2406 25.7199 32.0302 26.4762C31.7394 27.5236 31.7711 27.5617 32.2724 26.7662C32.7204 26.0556 32.6656 25.5716 32.0292 24.6075C31.5776 23.9243 31.0702 23.3651 30.9018 23.3651C30.7328 23.3651 30.8731 23.6978 31.2136 24.1046C32.1997 25.2836 31.3047 26.1272 30.1588 25.0987C29.4195 24.4348 29.3243 24.0635 29.7605 23.5418C30.0754 23.1655 30.2034 22.8571 30.0447 22.8571C29.8865 22.8571 29.6141 23.0857 29.44 23.3651ZM52.1677 23.5515C52.606 24.0757 52.5809 24.3845 52.0648 24.8097C51.2947 25.4436 50.176 24.6781 50.176 23.5175C50.176 22.6494 51.4309 22.6707 52.1677 23.5515ZM21.9904 24.5105C21.2726 25.1378 20.2358 26.2182 19.6864 26.912C18.8027 28.0279 18.7955 28.0899 19.6229 27.4524C20.4262 26.8338 20.6208 26.8328 21.0033 27.4469C21.3627 28.0239 21.5188 27.9685 21.8112 27.1604C22.0109 26.6093 22.2705 25.9302 22.3887 25.6508C22.507 25.3714 22.2413 25.5868 21.7979 26.1288C21.2367 26.815 20.992 26.8983 20.992 26.402C20.992 26.0099 21.6253 25.1744 22.4 24.5455C23.1747 23.9162 23.6928 23.3945 23.552 23.3859C23.4112 23.3773 22.7087 23.8832 21.9904 24.5105ZM50.688 23.873C50.688 24.1524 51.0474 24.381 51.4862 24.381C51.925 24.381 52.1421 24.1524 51.968 23.873C51.7939 23.5937 51.435 23.3651 51.1698 23.3651C50.9046 23.3651 50.688 23.5937 50.688 23.873ZM55.8484 24.1691C55.873 24.7609 55.9944 24.8813 56.1577 24.4764C56.3057 24.1097 56.2872 23.6714 56.1172 23.5027C55.9473 23.3341 55.8264 23.6338 55.8484 24.1691ZM46.6918 25.1429C46.7021 25.981 46.8168 26.2624 46.9468 25.7681C47.0769 25.2739 47.0682 24.5882 46.9279 24.2443C46.7876 23.9004 46.6816 24.3048 46.6918 25.1429ZM30.166 25.8271C30.5106 26.4655 30.4911 26.9445 30.1056 27.327C29.3069 28.1194 27.648 27.1472 27.648 25.887C27.648 24.5902 29.4753 24.5465 30.166 25.8271ZM28.16 26.1587C28.16 26.5966 28.6218 26.9206 29.2465 26.9206C30.1548 26.9206 30.2285 26.7952 29.696 26.1587C29.3453 25.7397 28.8563 25.3968 28.6095 25.3968C28.3622 25.3968 28.16 25.7397 28.16 26.1587ZM55.9268 26.9206C55.9268 27.8984 56.0323 28.2982 56.1608 27.8095C56.2898 27.3209 56.2898 26.5204 56.1608 26.0317C56.0323 25.5431 55.9268 25.9429 55.9268 26.9206ZM9.27437 26.5971C8.80538 27.1573 8.93901 27.2432 9.97376 27.0471C10.6767 26.9135 11.1258 26.6022 10.9716 26.3548C10.5697 25.7097 9.9415 25.7991 9.27437 26.5971ZM11.9982 26.7937C12.0704 27.2823 12.4534 27.6825 12.8486 27.6825C13.6612 27.6825 14.7753 30.5072 14.8193 32.6771C14.8378 33.5995 15.0779 34.0373 15.488 33.8956C15.8403 33.7742 16.0876 33.1266 16.0384 32.4566C15.7594 28.675 15.5837 27.5469 15.3006 27.7196C15.127 27.8258 14.5725 27.4606 14.0692 26.9084C12.9357 25.666 11.8221 25.6041 11.9982 26.7937ZM32.8084 28.2326C32.833 28.8244 32.9544 28.9448 33.1177 28.5399C33.2657 28.1732 33.2472 27.7349 33.0772 27.5662C32.9073 27.3976 32.7864 27.6973 32.8084 28.2326ZM17.8611 29.5873C17.5278 30.2156 17.0711 30.8505 16.8463 30.9973C16.6216 31.1446 16.6001 31.5246 16.7977 31.842C17.0112 32.1849 17.5043 31.613 18.0127 30.4315C18.9394 28.2778 18.8431 27.7379 17.8611 29.5873ZM21.3509 29.4791C20.9654 30.942 22.249 32.5821 23.4281 32.1336C23.9555 31.9324 24.106 32.03 23.8653 32.416C23.6186 32.8122 23.7855 32.895 24.3773 32.67C24.8637 32.4846 25.1259 32.544 24.9651 32.8025C24.8049 33.0596 25.5514 33.2698 26.624 33.2698C27.6966 33.2698 28.4672 33.0982 28.3366 32.8889C28.2066 32.6796 27.4529 32.5079 26.6629 32.5079C25.0276 32.5079 22.6299 30.8384 22.0564 29.3008C21.6868 28.3088 21.6571 28.3159 21.3509 29.4791ZM31.744 29.1611C31.744 29.5553 31.061 30.4483 30.2259 31.1451C29.0765 32.1046 28.8881 32.4815 29.4518 32.6959C29.8609 32.8518 30.1409 32.8117 30.0739 32.607C30.0068 32.4018 30.4707 31.6815 31.104 31.0055C32.1439 29.8961 32.6518 28.4444 32 28.4444C31.8592 28.4444 31.744 28.767 31.744 29.1611ZM49.664 28.9524C48.7281 29.5523 49.5365 29.5523 50.944 28.9524C51.6193 28.6644 51.7064 28.5064 51.2 28.4881C50.7776 28.4724 50.0864 28.6817 49.664 28.9524ZM22.5449 31.2381C23.2397 32.1778 23.2289 32.2017 22.4 31.5571C21.9075 31.1736 21.504 30.621 21.504 30.3294C21.504 30.0378 21.569 29.8941 21.6489 30.0104C21.7288 30.1272 22.1317 30.6794 22.5449 31.2381ZM54.2874 31.2635C54.3012 32.577 54.3708 32.6461 54.8526 31.8243C55.2463 31.1517 55.2422 30.7276 54.8372 30.3258C54.4251 29.917 54.2761 30.1709 54.2874 31.2635ZM13.9238 32.7619C13.9341 33.6 14.0488 33.8814 14.1788 33.3872C14.3089 32.893 14.3002 32.2072 14.1599 31.8634C14.0196 31.5195 13.9136 31.9238 13.9238 32.7619ZM46.4963 33.8707C46.8654 34.0175 47.3073 33.9992 47.4772 33.8306C47.6472 33.662 47.3452 33.5421 46.8055 33.5639C46.209 33.5883 46.0877 33.7087 46.4963 33.8707ZM8.192 34.5097C8.192 34.7728 8.41984 35.1274 8.69837 35.298C8.98816 35.4758 9.07418 35.2721 8.89958 34.8201C8.5591 33.9403 8.192 33.7793 8.192 34.5097ZM40.4731 35.5952C39.2197 36.4114 38.4133 37.0784 38.6811 37.0773C38.9489 37.0758 40.2048 36.3911 41.472 35.5556C42.7392 34.72 43.5456 34.0531 43.264 34.0734C42.9824 34.0937 41.7265 34.7789 40.4731 35.5952ZM12.928 35.5408C12.5972 36.066 11.841 36.5699 11.2471 36.6603C10.239 36.8147 10.2881 36.9646 11.9956 38.9379C13.0012 40.0996 13.824 41.2317 13.824 41.4532C13.824 41.6752 13.0755 42.6672 12.1605 43.6582L10.4975 45.4603L12.5768 43.5454C13.7206 42.4919 14.7845 41.757 14.9407 41.9119C15.0968 42.0668 15.102 41.5573 14.9514 40.7797C14.8014 40.0015 14.5766 39.6673 14.4522 40.0371C14.2868 40.5283 13.8962 40.4018 13.0007 39.5678C11.4719 38.143 11.4529 37.6041 12.928 37.5284C13.8532 37.4811 13.8962 37.4222 13.1456 37.2297C12.2568 37.0022 12.2547 36.9422 13.0995 36.0157C13.5885 35.4799 13.8849 34.9389 13.759 34.8135C13.6325 34.6885 13.2588 35.0156 12.928 35.5408ZM34.688 37.4156C35.0403 37.5568 35.6163 37.5568 35.968 37.4156C36.3203 37.2749 36.032 37.1596 35.328 37.1596C34.624 37.1596 34.3363 37.2749 34.688 37.4156ZM15.2172 38.2405C15.0676 38.626 15.3482 38.8932 15.9017 38.8932C16.6077 38.8932 16.7045 38.7322 16.2929 38.2405C15.9923 37.8814 15.6841 37.5873 15.6083 37.5873C15.532 37.5873 15.3559 37.8814 15.2172 38.2405ZM51.4985 39.551C51.2778 39.905 51.2358 40.3317 51.4048 40.4993C51.863 40.9539 52.3628 40.2855 52.1149 39.549C51.9419 39.0329 51.8211 39.0329 51.4985 39.551ZM50.2994 41.3669C50.5083 41.6112 50.4223 42.1181 50.1089 42.493C49.4126 43.3255 48.4357 43.4052 48.9446 42.5879C49.173 42.2217 49.0849 42.1399 48.7107 42.3695C48.3809 42.5717 48.2365 42.9384 48.3901 43.1843C48.7757 43.8034 46.6821 44.8411 45.7574 44.4891C45.2803 44.3078 45.1348 44.414 45.3617 44.7782C45.6125 45.181 45.312 45.2526 44.3643 45.0169C43.5784 44.8213 43.008 44.8914 43.008 45.184C43.008 45.4629 42.2641 45.5843 41.344 45.4547C39.8797 45.248 39.8336 45.2739 40.96 45.6706C41.9057 46.0033 41.0358 46.1496 37.632 46.2314C33.215 46.337 33.13 46.3604 35.584 46.7931C38.8731 47.3727 42.8349 46.8937 43.2317 45.8687C43.4708 45.2505 43.6843 45.217 44.2762 45.7046C44.8737 46.1968 45.5793 46.0175 47.8541 44.7949C49.4126 43.9573 50.688 43.3737 50.688 43.4977C50.688 43.6216 50.2246 44.6852 49.6584 45.8616C49.0921 47.0375 48.9196 47.5627 49.2744 47.0288C49.6297 46.4945 50.2656 45.6828 50.688 45.2246C51.7796 44.0406 51.8313 42.3716 50.8012 41.5903C50.3163 41.2231 50.091 41.1225 50.2994 41.3669ZM16.5914 43.1004C17.6748 44.3114 17.92 44.4221 17.92 43.7003C17.92 43.4311 17.4013 42.9404 16.768 42.6108C15.6221 42.014 15.6211 42.0165 16.5914 43.1004ZM18.9844 42.7317C18.9624 43.1863 19.3475 43.872 19.84 44.2555C20.6188 44.861 20.6612 44.8523 20.1646 44.1905C19.8508 43.7714 19.4657 43.0857 19.3091 42.6667C19.0715 42.0292 19.0182 42.0399 18.9844 42.7317ZM21.504 42.6667C21.9264 42.9374 22.5024 43.1589 22.784 43.1589C23.0656 43.1589 22.9504 42.9374 22.528 42.6667C22.1056 42.3959 21.5296 42.1745 21.248 42.1745C20.9664 42.1745 21.0816 42.3959 21.504 42.6667ZM22.272 46.2222C22.7814 46.781 23.3139 47.2381 23.4547 47.2381C23.5955 47.2381 23.2934 46.781 22.784 46.2222C22.2746 45.6635 21.7421 45.2064 21.6013 45.2064C21.4605 45.2064 21.7626 45.6635 22.272 46.2222ZM31.6483 45.5533C32.0174 45.7001 32.4593 45.6818 32.6292 45.5131C32.7992 45.3445 32.4971 45.2246 31.9575 45.2465C31.361 45.2709 31.2397 45.3912 31.6483 45.5533ZM8.42342 48.8091C7.97286 49.6731 7.69536 50.4701 7.80646 50.5803C7.91757 50.6905 8.39168 49.984 8.86016 49.0093C9.91283 46.819 9.54829 46.6514 8.42342 48.8091ZM25.6 48.5029C25.6 48.8508 28.735 50.3924 28.969 50.1603C29.0801 50.05 28.3679 49.5797 27.3853 49.1149C26.4033 48.6507 25.6 48.3754 25.6 48.5029ZM47.5505 49.1134C47.1071 49.6564 47.0779 49.8357 47.4721 49.601C47.9462 49.3186 48.1352 50.7307 48.2575 55.4717L48.4188 61.7143L48.5294 54.9841C48.5903 51.2828 48.553 48.254 48.4465 48.254C48.3405 48.254 47.937 48.6405 47.5505 49.1134ZM44.8 51.3016C43.2328 52.9244 42.2267 53.2241 41.8186 52.1905C41.6804 51.8415 41.407 52.2748 41.2104 53.1535C40.94 54.3629 40.5115 54.8191 39.447 55.0304C36.5624 55.6028 28.2465 53.7011 23.9135 51.4784C23.0989 51.0603 22.3785 50.7926 22.3124 50.8831C22.2459 50.9735 21.6212 53.8479 20.9239 57.2698L19.6562 63.4921H30.5055H41.3542L41.0911 60.2392C40.7424 55.934 41.2426 53.3333 42.4187 53.3333C42.9138 53.3333 44.1006 52.5333 45.056 51.5556C46.0114 50.5778 46.6755 49.7778 46.5321 49.7778C46.3887 49.7778 45.6095 50.4635 44.8 51.3016ZM17.3691 52.1905L16.128 53.5873L17.536 52.3561C18.8518 51.2051 19.179 50.7937 18.7771 50.7937C18.6854 50.7937 18.0521 51.422 17.3691 52.1905ZM52.8896 53.3333C52.8896 54.8698 52.9853 55.4987 53.1026 54.7302C53.2198 53.9617 53.2198 52.705 53.1026 51.9365C52.9853 51.168 52.8896 51.7968 52.8896 53.3333ZM46.08 52.9077C45.376 53.4928 44.1667 54.1933 43.392 54.464C42.6173 54.7347 41.9809 55.3341 41.9768 55.7958C41.9732 56.2575 41.8534 57.2064 41.7106 57.9048C41.4843 59.0116 41.5135 59.0441 41.9374 58.1587C42.305 57.3912 42.433 57.9195 42.4602 60.3175L42.496 63.4921H45.056H47.616V57.6508C47.616 54.4381 47.5587 51.8171 47.488 51.8263C47.4173 51.8359 46.784 52.322 46.08 52.9077ZM36.7985 52.9524C37.2326 53.501 38.1143 53.8123 39.1025 53.7651L40.704 53.6889L39.168 53.4664C38.3232 53.3435 37.2864 52.9778 36.864 52.6537C36.1958 52.1402 36.1871 52.1788 36.7985 52.9524ZM6.18445 55.6612C6.20902 56.253 6.33037 56.3733 6.4937 55.9685C6.64166 55.6018 6.62323 55.1634 6.45325 54.9948C6.28326 54.8262 6.16243 55.1258 6.18445 55.6612ZM5.7129 58.9206C5.7129 59.6191 5.82912 59.905 5.97094 59.5556C6.11328 59.2066 6.11328 58.6352 5.97094 58.2857C5.82912 57.9368 5.7129 58.2222 5.7129 58.9206ZM52.3049 60.4444C52.3049 61.1429 52.4211 61.4288 52.5629 61.0794C52.7053 60.7304 52.7053 60.159 52.5629 59.8095C52.4211 59.4606 52.3049 59.746 52.3049 60.4444Z" fill="#080604"/>
<path fill-rule="evenodd" clip-rule="evenodd" d="M29.44 9.1134C28.2675 9.43187 28.8737 9.54616 32 9.59695C38.8874 9.70768 44.7923 11.8497 49.1797 15.8283C50.41 16.9443 51.8467 18.0851 52.3715 18.3639C53.2019 18.8048 53.2582 18.7464 52.8082 17.9114C52.0023 16.4175 47.9278 12.8767 45.7467 11.7745C41.2524 9.50349 32.9774 8.15289 29.44 9.1134ZM26.2497 23.2091C26.7479 23.3382 27.4391 23.3295 27.7857 23.1903C28.1324 23.0512 27.7248 22.946 26.88 22.9562C26.0352 22.9664 25.7516 23.0801 26.2497 23.2091ZM50.688 23.873C50.688 24.1524 51.0474 24.381 51.4862 24.381C51.925 24.381 52.1421 24.1524 51.968 23.873C51.7939 23.5937 51.435 23.3651 51.1698 23.3651C50.9046 23.3651 50.688 23.5937 50.688 23.873ZM21.5219 26.3792C20.8732 27.5815 20.843 28.0879 21.442 27.7206C21.8941 27.4433 22.5987 25.3968 22.2423 25.3968C22.1373 25.3968 21.8138 25.8387 21.5219 26.3792ZM28.16 26.1587C28.16 26.5966 28.6218 26.9206 29.2465 26.9206C30.1548 26.9206 30.2285 26.7952 29.696 26.1587C29.3453 25.7397 28.8563 25.3968 28.6095 25.3968C28.3622 25.3968 28.16 25.7397 28.16 26.1587ZM12.9956 27.4499C13.8266 28.4297 14.4297 29.9175 14.6432 31.5134C14.9612 33.8921 15.4578 34.5996 16.0927 33.5802C16.6533 32.6806 15.4527 28.354 14.3073 27.1441C12.5404 25.2785 11.3833 25.5487 12.9956 27.4499ZM21.5363 28.8589C21.438 30.882 24.3389 33.0651 26.9824 32.9575C28.2004 32.9077 28.1277 32.8437 26.4975 32.5298C24.4265 32.1311 22.6565 30.8267 21.9878 29.2064C21.7574 28.6476 21.5542 28.4912 21.5363 28.8589ZM31.744 29.1611C31.744 29.5553 31.0349 30.4696 30.1686 31.1929C29.3023 31.9162 28.8102 32.5079 29.0749 32.5079C29.8127 32.5079 32.256 29.919 32.256 29.1373C32.256 28.7563 32.1408 28.4444 32 28.4444C31.8592 28.4444 31.744 28.767 31.744 29.1611ZM50.5923 28.7914C50.9614 28.9382 51.4033 28.9199 51.5732 28.7512C51.7432 28.5826 51.4412 28.4627 50.9015 28.4846C50.305 28.509 50.1837 28.6293 50.5923 28.7914ZM49.408 42.9471C48.5632 43.6394 47.0006 44.4698 45.9356 44.7919C44.7713 45.1434 44.1851 45.5614 44.4652 45.8392C45.0949 46.464 49.984 43.9716 50.6875 42.6672C51.3787 41.3867 51.286 41.407 49.408 42.9471ZM37.632 46.1912L33.024 46.4762L35.9736 46.8622C39.1281 47.2752 43.008 46.8861 43.008 46.1572C43.008 45.9134 42.8349 45.7575 42.624 45.8103C42.4131 45.8631 40.1664 46.0343 37.632 46.1912ZM20.9644 57.1429L19.6726 63.4921H30.6319H41.5913L41.2826 62.3492C41.1131 61.7209 40.9708 59.8237 40.9672 58.1333L40.96 55.0603L37.4958 55.0075C33.7766 54.9506 29.5654 53.9231 25.1525 51.9954C23.639 51.3346 22.3683 50.7937 22.3283 50.7937C22.2884 50.7937 21.675 53.6508 20.9644 57.1429ZM46.08 52.9077C45.376 53.4928 44.1416 54.2019 43.3362 54.4833C41.9988 54.9511 41.899 55.1533 42.1786 56.831C42.347 57.8408 42.4873 59.7526 42.4904 61.0794L42.496 63.4921H45.056H47.616V57.6508C47.616 54.4381 47.5587 51.8171 47.488 51.8263C47.4173 51.8359 46.784 52.322 46.08 52.9077Z" fill="white"/>
</g>
<defs>
<clipPath id="clip0_1_182">
<rect width="64" height="64" rx="32" fill="white"/>
</clipPath>
</defs>
</svg>
