<svg width="64" height="64" viewBox="0 0 64 64" fill="none" xmlns="http://www.w3.org/2000/svg">
<path fill-rule="evenodd" clip-rule="evenodd" d="M0 32V64H32H64V32V0H32H0V32Z" fill="#FEAE00"/>
<path fill-rule="evenodd" clip-rule="evenodd" d="M19.667 17.667C19.3 18.033 19 19.158 19 20.167C19 21.722 18.167 22 13.5 22C10.475 22 8 22.413 8 22.918C8 24.15 23.676 29.319 24.976 28.515C25.539 28.167 26 27.009 26 25.941C26 24.475 26.695 24 28.842 24H31.684L29.485 37.086C27.103 51.269 27.146 51.457 32.666 50.825C35.496 50.5 35.503 50.484 37.507 37.5L39.515 24.5L44.757 24.198C49.1 23.947 50 23.575 50 22.03C50 21.003 50.273 19.452 50.607 18.582C51.144 17.181 49.442 17 35.774 17C27.281 17 20.033 17.3 19.667 17.667Z" fill="#E39B00"/>
<path fill-rule="evenodd" clip-rule="evenodd" d="M19.35 20C18.771 22.895 18.553 23.003 13.125 23.075L7.5 23.151L15.943 26.071C24.446 29.013 25.94 28.891 25.985 25.25C25.993 24.534 27.27 24 28.975 24C31.669 24 31.905 24.26 31.477 26.75C27.176 51.731 27.191 51 30.965 51C34.863 51 35.379 49.806 37.545 35.796L39.353 24.092L44.427 23.796C49.348 23.509 49.509 23.403 49.813 20.25L50.127 17H35.038H19.95L19.35 20Z" fill="#AE7700"/>
<path fill-rule="evenodd" clip-rule="evenodd" d="M19.711 19.955C18.704 22.623 18.107 22.938 13.548 23.205L8.5 23.5L16.5 26.047L24.5 28.594L25.702 25.797C26.568 23.78 27.614 23 29.452 23C32.503 23 32.487 22.602 30 37C28.907 43.325 28.01 48.837 28.007 49.25C28.003 49.663 29.539 50 31.421 50C35.31 50 34.955 50.902 37.519 34.51C38.378 29.015 39.4 24.206 39.79 23.823C40.181 23.44 42.525 22.985 45 22.813C49.074 22.53 49.53 22.24 49.816 19.75L50.133 17H35.48H20.826L19.711 19.955Z" fill="#936500"/>
<path fill-rule="evenodd" clip-rule="evenodd" d="M19.603 20.445C19.075 22.548 18.324 22.934 14.245 23.195L9.5 23.5L15.944 25.75C24.037 28.576 24.643 28.56 25.411 25.5C25.904 23.533 26.673 23 29.019 23C32.63 23 32.619 22.84 30 38C28.907 44.325 28.01 49.612 28.007 49.75C28.003 49.888 29.509 50 31.353 50H34.707L35.886 42.75C36.534 38.763 37.547 32.688 38.135 29.25L39.205 23H43.996C48.595 23 50 22.045 50 18.918C50 18.402 43.485 18 35.108 18H20.217L19.603 20.445Z" fill="#593D00"/>
<path fill-rule="evenodd" clip-rule="evenodd" d="M19.589 20.5C19.034 22.711 18.415 23.009 14.231 23.074L9.5 23.149L16.445 25.574C20.264 26.908 23.703 28 24.086 28C24.47 28 25.066 26.875 25.411 25.5C25.904 23.533 26.673 23 29.019 23C31.445 23 31.999 23.419 31.997 25.25C31.994 27.361 29.571 42.789 28.464 47.75C28.022 49.733 28.357 50 31.287 50H34.612L36.378 38.75C39.044 21.773 38.441 23 44.108 23C46.799 23 49 22.587 49 22.082C49 21.577 49.273 20.452 49.607 19.582C50.144 18.183 48.481 18 35.215 18H20.217L19.589 20.5Z" fill="#412C00"/>
<path fill-rule="evenodd" clip-rule="evenodd" d="M19.82 20.25C19.556 22.109 18.718 22.588 15 23.008L10.5 23.516L16.944 25.758C24.856 28.511 24.788 28.511 25.18 25.75C25.437 23.944 26.238 23.439 29.237 23.19C32.844 22.892 32.955 22.978 32.441 25.69C32.147 27.236 31.092 33.361 30.095 39.303L28.283 50.106L31.368 49.803L34.452 49.5L36.664 36.5C37.88 29.35 38.903 23.387 38.938 23.25C38.972 23.113 41.198 23 43.883 23C48.298 23 48.813 22.76 49.245 20.5L49.723 18H34.931C20.353 18 20.134 18.032 19.82 20.25Z" fill="#231800"/>
<path fill-rule="evenodd" clip-rule="evenodd" d="M20.469 19.5C20.211 20.325 19.789 21.675 19.531 22.5C19.271 23.333 17.825 24.034 16.281 24.078C13.985 24.141 14.372 24.467 18.5 25.944C24.048 27.93 25 27.783 25 24.941C25 23.343 25.707 23 29 23C31.2 23 32.997 23.113 32.993 23.25C32.99 23.387 32.093 28.675 31 35C28.435 49.846 28.44 50 31.5 50C32.875 50 34.028 49.888 34.062 49.75C34.097 49.612 35.12 43.65 36.338 36.5L38.551 23.5L43.775 23.198C48.57 22.92 49 22.694 49 20.448V18H34.969C23.371 18 20.856 18.26 20.469 19.5Z" fill="black"/>
</svg>
