<svg width="64" height="64" viewBox="0 0 64 64" fill="none" xmlns="http://www.w3.org/2000/svg">
<path fill-rule="evenodd" clip-rule="evenodd" d="M17.279 2.548C11.3 5.528 4.642 12.371 1.946 18.31C0.522002 21.446 0.0380023 24.829 0.0220023 31.761C-0.00399767 42.884 1.984 48.04 9.027 55.107C15.513 61.615 23.052 64.332 33.071 63.774C45.654 63.072 54.74 57.156 60.702 45.784C63.095 41.218 63.473 39.344 63.476 32C63.481 21.835 61.198 15.884 54.702 9.133C48.136 2.308 42.307 0.0209971 31.446 0.00999714C23.736 0.000997142 21.634 0.377997 17.279 2.548Z" fill="#808000"/>
<path fill-rule="evenodd" clip-rule="evenodd" d="M19.885 1.38C12.916 3.87 6.708 9.559 2.84 17C0.821 20.882 0.5 22.941 0.5 32C0.5 44.408 1.831 47.951 9.205 55.174C16.007 61.836 23.132 64.364 33.237 63.7C45.897 62.867 54.868 56.973 60.75 45.623C62.995 41.289 63.411 39.191 63.449 32C63.503 21.946 61.519 16.688 55.006 9.622C48.466 2.527 42.388 -0.00899837 32.054 0.0440016C27.349 0.0680016 21.873 0.669002 19.885 1.38Z" fill="#E7DCCF"/>
<path fill-rule="evenodd" clip-rule="evenodd" d="M19.885 1.38C12.916 3.87 6.708 9.559 2.84 17C0.821 20.882 0.5 22.941 0.5 32C0.5 44.408 1.831 47.951 9.205 55.174C16.007 61.836 23.132 64.364 33.237 63.7C45.897 62.867 54.868 56.973 60.75 45.623C62.995 41.289 63.411 39.191 63.449 32C63.503 21.946 61.519 16.688 55.006 9.622C48.466 2.527 42.388 -0.00899837 32.054 0.0440016C27.349 0.0680016 21.873 0.669002 19.885 1.38ZM49.5 14C50.495 15.1 51.085 16 50.81 16C50.535 16 49.495 15.1 48.5 14C47.505 12.9 46.915 12 47.19 12C47.465 12 48.505 12.9 49.5 14ZM48 15.5C49.292 16.875 50.124 18 49.849 18C49.574 18 48.292 16.875 47 15.5C45.708 14.125 44.876 13 45.151 13C45.426 13 46.708 14.125 48 15.5ZM17 14.378C17 14.585 16.212 15.373 15.25 16.128C13.664 17.371 13.629 17.336 14.872 15.75C16.179 14.084 17 13.555 17 14.378ZM32.427 15.765C31.837 16.169 31.064 17.288 30.708 18.25C30.327 19.285 29.131 19.944 27.781 19.864C25.578 19.732 25.573 19.713 27.648 19.308C28.829 19.077 30.025 18.013 30.304 16.944C30.584 15.875 31.417 15.007 32.156 15.015C33.037 15.025 33.13 15.284 32.427 15.765ZM36.25 19.662C35.563 19.94 34.438 19.94 33.75 19.662C33.063 19.385 33.625 19.158 35 19.158C36.375 19.158 36.938 19.385 36.25 19.662ZM41 37C41 39.596 40.333 41.255 38.75 42.595C36.502 44.498 36.502 44.498 38.25 42.421C39.212 41.278 40 38.838 40 37C40 35.162 39.212 32.722 38.25 31.579C36.502 29.502 36.502 29.502 38.75 31.405C40.333 32.745 41 34.404 41 37ZM33.75 32.716C32.238 32.945 29.763 32.945 28.25 32.716C26.738 32.487 27.975 32.3 31 32.3C34.025 32.3 35.263 32.487 33.75 32.716ZM25.128 42.75C26.371 44.336 26.336 44.371 24.75 43.128C23.084 41.821 22.555 41 23.378 41C23.585 41 24.373 41.788 25.128 42.75ZM34.264 41.704C33.034 41.941 30.784 41.947 29.264 41.718C27.744 41.488 28.75 41.294 31.5 41.286C34.25 41.279 35.494 41.467 34.264 41.704ZM30.683 46.188C30.364 46.985 30.127 46.748 30.079 45.583C30.036 44.529 30.272 43.939 30.604 44.271C30.936 44.603 30.972 45.466 30.683 46.188ZM16 47.5C17.292 48.875 18.124 50 17.849 50C17.574 50 16.292 48.875 15 47.5C13.708 46.125 12.876 45 13.151 45C13.426 45 14.708 46.125 16 47.5ZM51 47.345C51 47.535 49.987 48.547 48.75 49.595L46.5 51.5L48.405 49.25C50.195 47.136 51 46.545 51 47.345Z" fill="#D2BDA4"/>
<path fill-rule="evenodd" clip-rule="evenodd" d="M19.885 1.38C12.916 3.87 6.708 9.559 2.84 17C0.821 20.882 0.5 22.941 0.5 32C0.5 44.408 1.831 47.951 9.205 55.174C16.007 61.836 23.132 64.364 33.237 63.7C45.897 62.867 54.868 56.973 60.75 45.623C62.995 41.289 63.411 39.191 63.449 32C63.503 21.946 61.519 16.688 55.006 9.622C48.466 2.527 42.388 -0.00899837 32.054 0.0440016C27.349 0.0680016 21.873 0.669002 19.885 1.38ZM26 8.5C26 9.325 25.823 10 25.607 10C25.391 10 24.955 9.325 24.638 8.5C24.322 7.675 24.499 7 25.031 7C25.564 7 26 7.675 26 8.5ZM38.345 8.543C38.019 9.392 37.538 9.872 37.276 9.61C37.014 9.348 37.096 8.653 37.459 8.067C38.445 6.471 39.021 6.781 38.345 8.543ZM22.917 8.365C22.688 8.565 21.375 9.265 20 9.92C17.643 11.042 17.611 11.022 19.441 9.555C21.034 8.279 24.289 7.164 22.917 8.365ZM43.559 9.555C45.389 11.022 45.357 11.042 43 9.92C39.939 8.462 39.372 8 40.642 8C41.179 8 42.491 8.7 43.559 9.555ZM42.559 11.555C44.389 13.022 44.357 13.042 42 11.92C38.939 10.462 38.372 10 39.642 10C40.179 10 41.491 10.7 42.559 11.555ZM17 11.313C17 11.485 15.538 12.948 13.75 14.563L10.5 17.5L13.437 14.25C16.175 11.221 17 10.54 17 11.313ZM49.563 14.25L52.5 17.5L49.25 14.563C46.221 11.825 45.54 11 46.313 11C46.485 11 47.948 12.462 49.563 14.25ZM48 15.5C49.292 16.875 50.124 18 49.849 18C49.574 18 48.292 16.875 47 15.5C45.708 14.125 44.876 13 45.151 13C45.426 13 46.708 14.125 48 15.5ZM17 14.378C17 14.585 16.212 15.373 15.25 16.128C13.664 17.371 13.629 17.336 14.872 15.75C16.179 14.084 17 13.555 17 14.378ZM32.427 15.765C31.837 16.169 31.064 17.288 30.708 18.25C30.346 19.232 29.039 20 27.731 20C24.498 20 23.028 21.789 22.84 25.95L22.68 29.5L22.27 26.156C21.781 22.174 24.17 19 27.655 19C29.333 19 30 18.431 30 17C30 15.756 30.662 15.006 31.75 15.015C32.805 15.025 33.074 15.323 32.427 15.765ZM10.345 19.543C10.019 20.392 9.538 20.872 9.276 20.61C9.014 20.348 9.096 19.653 9.459 19.067C10.445 17.471 11.021 17.781 10.345 19.543ZM55 22.358C55 23.628 54.538 23.061 53.08 20C51.958 17.643 51.978 17.611 53.445 19.441C54.3 20.509 55 21.821 55 22.358ZM39.171 20.655C40.177 21.565 40.993 23.028 40.985 23.905C40.976 24.903 40.498 24.566 39.708 23.005C38.963 21.531 37.229 20.25 35.473 19.873C32.877 19.317 32.807 19.222 34.921 19.118C36.253 19.053 38.165 19.745 39.171 20.655ZM53 23.358C53 24.628 52.538 24.061 51.08 21C49.958 18.643 49.978 18.611 51.445 20.441C52.3 21.509 53 22.821 53 23.358ZM26.5 25.905C26.5 28.052 26.163 29.6 25.75 29.345C24.416 28.521 25.007 22 26.417 22C26.462 22 26.5 23.757 26.5 25.905ZM37.807 24.526C37.499 24.834 36.94 24.279 36.564 23.293C36.022 21.868 36.136 21.753 37.124 22.733C37.808 23.412 38.115 24.219 37.807 24.526ZM7.683 26.188C7.364 26.985 7.127 26.748 7.079 25.583C7.036 24.529 7.272 23.939 7.604 24.271C7.936 24.603 7.972 25.466 7.683 26.188ZM53.683 27.188C53.364 27.985 53.127 27.748 53.079 26.583C53.036 25.529 53.272 24.939 53.604 25.271C53.936 25.603 53.972 26.466 53.683 27.188ZM9.683 28.188C9.364 28.985 9.127 28.748 9.079 27.583C9.036 26.529 9.272 25.939 9.604 26.271C9.936 26.603 9.972 27.466 9.683 28.188ZM56.707 33.238C56.468 34.482 56.263 33.7 56.252 31.5C56.241 29.3 56.437 28.282 56.687 29.238C56.937 30.194 56.946 31.994 56.707 33.238ZM6.662 33.25C6.385 33.938 6.158 33.375 6.158 32C6.158 30.625 6.385 30.063 6.662 30.75C6.94 31.438 6.94 32.563 6.662 33.25ZM31.03 32.255L36.5 32.63L30.872 32.815C26.55 32.957 24.927 32.594 23.872 31.25C22.671 29.718 22.691 29.648 24.03 30.69C24.872 31.345 28.022 32.049 31.03 32.255ZM41 37C41 39.596 40.333 41.255 38.75 42.595C36.502 44.498 36.502 44.498 38.25 42.421C39.212 41.278 40 38.838 40 37C40 35.162 39.212 32.722 38.25 31.579C36.502 29.502 36.502 29.502 38.75 31.405C40.333 32.745 41 34.404 41 37ZM9.683 36.188C9.364 36.985 9.127 36.748 9.079 35.583C9.036 34.529 9.272 33.939 9.604 34.271C9.936 34.603 9.972 35.466 9.683 36.188ZM36.95 40.56C34.527 43.48 25 41.924 25 38.609C25 38.064 25.579 38.409 26.286 39.377C27.255 40.701 28.675 41.057 32.036 40.818C36.311 40.513 36.519 40.352 36.941 37C37.357 33.704 37.405 33.664 37.764 36.31C37.973 37.856 37.607 39.769 36.95 40.56ZM53.683 37.188C53.364 37.985 53.127 37.748 53.079 36.583C53.036 35.529 53.272 34.939 53.604 35.271C53.936 35.603 53.972 36.466 53.683 37.188ZM7.683 38.188C7.364 38.985 7.127 38.748 7.079 37.583C7.036 36.529 7.272 35.939 7.604 36.271C7.936 36.603 7.972 37.466 7.683 38.188ZM24.88 42.5C26.486 44.483 26.481 44.484 24.25 42.595C23.012 41.547 22.036 39.972 22.079 39.095C22.146 37.741 22.241 37.727 22.709 39C23.013 39.825 23.99 41.4 24.88 42.5ZM53 39.809C53 40.254 52.318 41.491 51.484 42.559C50.078 44.359 50.053 44.3 51.144 41.75C52.322 38.999 53 38.289 53 39.809ZM9.92 43C11.042 45.357 11.022 45.389 9.555 43.559C8.7 42.491 8 41.179 8 40.642C8 39.372 8.462 39.939 9.92 43ZM16.015 47.493C18.412 50.38 18.417 50.416 16.157 48.504C14.869 47.414 13.351 45.617 12.785 44.511C11.697 42.387 12.033 42.697 16.015 47.493ZM54 43.497C54 44.422 46.686 52.098 44.888 53.06C43.907 53.585 45.443 51.586 48.302 48.617C53.823 42.883 54 42.724 54 43.497ZM30.662 47.25C30.385 47.938 30.158 47.375 30.158 46C30.158 44.625 30.385 44.063 30.662 44.75C30.94 45.438 30.94 46.563 30.662 47.25ZM50 45.326C50 45.505 48.763 46.742 47.25 48.076L44.5 50.5L46.924 47.75C49.19 45.18 50 44.541 50 45.326ZM14.563 49.25L17.5 52.5L14.25 49.563C12.462 47.948 11 46.485 11 46.313C11 45.54 11.825 46.221 14.563 49.25ZM23.917 52.635C25.289 53.836 22.034 52.721 20.441 51.445C18.611 49.978 18.643 49.958 21 51.08C22.375 51.735 23.688 52.435 23.917 52.635ZM42.559 51.532C41.491 52.339 40.141 52.984 39.559 52.965C38.976 52.945 39.625 52.286 41 51.5C44.239 49.648 45.028 49.664 42.559 51.532ZM22.917 54.635C24.289 55.836 21.034 54.721 19.441 53.445C17.611 51.978 17.643 51.958 20 53.08C21.375 53.735 22.688 54.435 22.917 54.635ZM26 54.5C26 55.325 25.564 56 25.031 56C24.499 56 24.322 55.325 24.638 54.5C24.955 53.675 25.391 53 25.607 53C25.823 53 26 53.675 26 54.5ZM38.362 54.5C38.678 55.325 38.501 56 37.969 56C37.436 56 37 55.325 37 54.5C37 53.675 37.177 53 37.393 53C37.609 53 38.045 53.675 38.362 54.5Z" fill="#AE875A"/>
<path fill-rule="evenodd" clip-rule="evenodd" d="M19.748 1.427C11.783 4.269 3.257 13.451 0.955 21.665C-0.743 27.724 0.125 41.604 2.508 46.5C5.088 51.8 12.141 58.55 17.874 61.206C26.889 65.382 40.611 64.508 48.5 59.255C53.689 55.8 57.235 51.81 60.675 45.553C63.092 41.158 63.456 39.393 63.474 32C63.498 21.937 61.501 16.669 54.982 9.596C48.643 2.72 42.022 -0.0100028 31.812 0.0439972C27.24 0.0679972 21.812 0.689997 19.748 1.427ZM26 8.892C26 10.072 25.066 11.018 23.518 11.406C22.153 11.749 19.383 13.481 17.361 15.256C5.722 25.475 8.235 43.904 22.25 51.112C26.785 53.444 27.493 56.581 23.25 55.545C13.169 53.083 5.129 40.729 6.29 29.484C7.19 20.759 12.623 12.796 20.5 8.657C24.506 6.551 26 6.615 26 8.892ZM46.242 10.694C57.003 18.076 60.17 33.673 53.208 45C48.904 52.002 37 59.025 37 54.562C37 53.772 39.231 51.911 41.957 50.427C49.021 46.582 52.315 41.269 52.814 32.913C53.124 27.728 52.779 25.494 51.195 22.413C48.859 17.87 44.86 13.914 40.25 11.588C38.462 10.687 37 9.236 37 8.366C37 6.214 41.286 7.294 46.242 10.694ZM20.5 9.659C11.87 14.2 7.561 21.472 7.556 31.5C7.551 41.477 11.833 48.783 20.21 53.092C24.461 55.278 25 55.38 25 54C25 53.45 24.393 53 23.65 53C22.908 53 20.393 51.619 18.063 49.931C5.315 40.696 6.418 19.731 20.049 12.215C22.756 10.722 24.978 9.162 24.986 8.75C25.007 7.654 23.873 7.884 20.5 9.659ZM38 8.892C38 9.382 39.013 10.042 40.25 10.358C43.931 11.298 49.674 16.694 51.91 21.315C56.35 30.485 53.818 42.69 46.16 49.035C44.147 50.703 41.487 52.326 40.25 52.642C39.013 52.958 38 53.648 38 54.176C38 57.001 47.372 51.057 51.333 45.721C60.037 33.994 55.9 16.652 42.79 9.908C38.604 7.755 38 7.627 38 8.892ZM34 17C34 18.202 34.667 19 35.671 19C37.977 19 41 21.925 41 24.155C41 26.435 37.471 26.669 36.617 24.445C36.168 23.274 34.843 22.965 31.26 23.195C26.931 23.472 26.5 23.726 26.5 26C26.5 28.325 26.884 28.522 31.988 28.811C39.068 29.211 41 30.93 41 36.826C41 41.668 38.946 45 35.962 45C35.011 45 33.998 45.9 33.71 47C33.024 49.622 30 49.622 30 47C30 45.614 29.333 45 27.829 45C24.884 45 22 42.202 22 39.345C22 36.336 25.531 36.1 26.305 39.058C26.77 40.836 27.501 41.074 31.672 40.808C36.464 40.502 36.5 40.474 36.5 37V33.5L31.012 33.189C24.349 32.812 22 30.984 22 26.174C22 22.211 24.349 19 27.249 19C28.346 19 29.414 18.132 29.71 17C30 15.893 31.074 15 32.117 15C33.333 15 34 15.708 34 17ZM30.71 18C30.371 19.297 29.346 20 27.794 20C24.444 20 23 21.808 23 26C23 30.834 24.458 32 30.5 32C36.216 32 38 33.19 38 37C38 40.684 36.239 42 31.308 42C28.1 42 26.702 41.495 25.768 40C24.331 37.7 23 37.385 23 39.345C23 41.31 26.329 44 28.759 44C30.141 44 31.013 44.771 31.303 46.25L31.746 48.5L32.49 46.25C32.899 45.013 34.011 44 34.962 44C39.494 44 41.889 35.02 38.238 31.716C37.2 30.776 34.223 29.994 30.988 29.811L25.5 29.5V26V22.5L30.97 22.19C35.253 21.947 36.715 22.257 37.709 23.617C38.408 24.572 39.306 25.028 39.704 24.629C40.981 23.353 38.388 20.511 35.649 20.184C33.806 19.963 33 19.279 33 17.934C33 15.396 31.379 15.443 30.71 18Z" fill="#9F703A"/>
<path fill-rule="evenodd" clip-rule="evenodd" d="M20.5 9.659C11.87 14.2 7.561 21.472 7.556 31.5C7.551 41.477 11.833 48.783 20.21 53.092C24.461 55.278 25 55.38 25 54C25 53.45 24.393 53 23.65 53C22.908 53 20.393 51.619 18.063 49.931C5.315 40.696 6.418 19.731 20.049 12.215C22.756 10.722 24.978 9.162 24.986 8.75C25.007 7.654 23.873 7.884 20.5 9.659ZM38 8.892C38 9.382 39.013 10.042 40.25 10.358C43.931 11.298 49.674 16.694 51.91 21.315C56.35 30.485 53.818 42.69 46.16 49.035C44.147 50.703 41.487 52.326 40.25 52.642C39.013 52.958 38 53.648 38 54.176C38 57.001 47.372 51.057 51.333 45.721C60.037 33.994 55.9 16.652 42.79 9.908C38.604 7.755 38 7.627 38 8.892ZM30.71 18C30.371 19.297 29.346 20 27.794 20C24.444 20 23 21.808 23 26C23 30.834 24.458 32 30.5 32C36.216 32 38 33.19 38 37C38 40.684 36.239 42 31.308 42C28.1 42 26.702 41.495 25.768 40C24.331 37.7 23 37.385 23 39.345C23 41.31 26.329 44 28.759 44C30.141 44 31.013 44.771 31.303 46.25L31.746 48.5L32.49 46.25C32.899 45.013 34.011 44 34.962 44C39.494 44 41.889 35.02 38.238 31.716C37.2 30.776 34.223 29.994 30.988 29.811L25.5 29.5V26V22.5L30.97 22.19C35.253 21.947 36.715 22.257 37.709 23.617C38.408 24.572 39.306 25.028 39.704 24.629C40.981 23.353 38.388 20.511 35.649 20.184C33.806 19.963 33 19.279 33 17.934C33 15.396 31.379 15.443 30.71 18Z" fill="#FF0000"/>
<path fill-rule="evenodd" clip-rule="evenodd" d="M20.5 9.659C11.87 14.2 7.561 21.472 7.556 31.5C7.551 41.477 11.833 48.783 20.21 53.092C24.461 55.278 25 55.38 25 54C25 53.45 24.393 53 23.65 53C22.908 53 20.393 51.619 18.063 49.931C5.315 40.696 6.418 19.731 20.049 12.215C22.756 10.722 24.978 9.162 24.986 8.75C25.007 7.654 23.873 7.884 20.5 9.659ZM38 8.892C38 9.382 39.013 10.042 40.25 10.358C43.931 11.298 49.674 16.694 51.91 21.315C56.35 30.485 53.818 42.69 46.16 49.035C44.147 50.703 41.487 52.326 40.25 52.642C39.013 52.958 38 53.648 38 54.176C38 57.001 47.372 51.057 51.333 45.721C60.037 33.994 55.9 16.652 42.79 9.908C38.604 7.755 38 7.627 38 8.892ZM30.71 18C30.371 19.297 29.346 20 27.794 20C24.444 20 23 21.808 23 26C23 30.834 24.458 32 30.5 32C36.216 32 38 33.19 38 37C38 40.684 36.239 42 31.308 42C28.1 42 26.702 41.495 25.768 40C24.331 37.7 23 37.385 23 39.345C23 41.31 26.329 44 28.759 44C30.141 44 31.013 44.771 31.303 46.25L31.746 48.5L32.49 46.25C32.899 45.013 34.011 44 34.962 44C39.494 44 41.889 35.02 38.238 31.716C37.2 30.776 34.223 29.994 30.988 29.811L25.5 29.5V26V22.5L30.97 22.19C35.253 21.947 36.715 22.257 37.709 23.617C38.408 24.572 39.306 25.028 39.704 24.629C40.981 23.353 38.388 20.511 35.649 20.184C33.806 19.963 33 19.279 33 17.934C33 15.396 31.379 15.443 30.71 18Z" fill="#AA5555"/>
<path fill-rule="evenodd" clip-rule="evenodd" d="M20.5 9.659C11.87 14.2 7.561 21.472 7.556 31.5C7.551 41.477 11.833 48.783 20.21 53.092C24.461 55.278 25 55.38 25 54C25 53.45 24.393 53 23.65 53C22.908 53 20.393 51.619 18.063 49.931C5.315 40.696 6.418 19.731 20.049 12.215C22.756 10.722 24.978 9.162 24.986 8.75C25.007 7.654 23.873 7.884 20.5 9.659ZM38 8.892C38 9.382 39.013 10.042 40.25 10.358C43.931 11.298 49.674 16.694 51.91 21.315C56.35 30.485 53.818 42.69 46.16 49.035C44.147 50.703 41.487 52.326 40.25 52.642C39.013 52.958 38 53.648 38 54.176C38 57.001 47.372 51.057 51.333 45.721C60.037 33.994 55.9 16.652 42.79 9.908C38.604 7.755 38 7.627 38 8.892ZM30.71 18C30.371 19.297 29.346 20 27.794 20C24.444 20 23 21.808 23 26C23 30.834 24.458 32 30.5 32C36.216 32 38 33.19 38 37C38 40.684 36.239 42 31.308 42C28.1 42 26.702 41.495 25.768 40C24.331 37.7 23 37.385 23 39.345C23 41.31 26.329 44 28.759 44C30.141 44 31.013 44.771 31.303 46.25L31.746 48.5L32.49 46.25C32.899 45.013 34.011 44 34.962 44C39.494 44 41.889 35.02 38.238 31.716C37.2 30.776 34.223 29.994 30.988 29.811L25.5 29.5V26V22.5L30.97 22.19C35.253 21.947 36.715 22.257 37.709 23.617C38.408 24.572 39.306 25.028 39.704 24.629C40.981 23.353 38.388 20.511 35.649 20.184C33.806 19.963 33 19.279 33 17.934C33 15.396 31.379 15.443 30.71 18Z" fill="white"/>
</svg>
