<svg width="250" height="219" viewBox="0 0 250 219" fill="none" xmlns="http://www.w3.org/2000/svg">
<path fill-rule="evenodd" clip-rule="evenodd" d="M29.385 1.765C28.771 2.169 27.954 3.512 27.567 4.75C27.181 5.988 26.48 7 26.01 7C25.54 7 24.634 8.579 23.997 10.509C23.36 12.439 22.515 13.818 22.119 13.573C21.723 13.329 20.809 15.125 20.089 17.564C19.369 20.004 18.387 22 17.909 22C17.43 22 16.757 23.122 16.412 24.493C16.068 25.864 15.421 26.76 14.975 26.484C14.528 26.208 13.859 27.367 13.487 29.059C13.115 30.751 12.229 32.359 11.518 32.631C10.806 32.904 9.954 34.479 9.624 36.13C9.294 37.781 8.65 38.902 8.193 38.62C7.737 38.337 6.802 39.658 6.117 41.553C5.431 43.449 4.498 45 4.044 45C3.589 45 2.934 46.125 2.589 47.5C2.244 48.875 1.52 50 0.981 50C0.441 50 0 51.575 0 53.5V57H30.935H61.871L63.117 60.447C63.802 62.342 64.695 63.689 65.1 63.438C65.506 63.188 66.135 64.336 66.498 65.991C66.862 67.646 67.544 69 68.015 69C68.485 69 69.44 70.575 70.136 72.5C70.832 74.425 71.707 76 72.08 76C72.452 76 73.355 77.463 74.086 79.25C74.817 81.037 75.997 83.095 76.708 83.821C77.418 84.548 78 86.037 78 87.13C78 88.224 78.384 88.881 78.854 88.59C79.796 88.008 82 92.221 82 94.606C82 95.438 82.437 95.848 82.971 95.518C83.505 95.188 84.228 96.062 84.579 97.459C84.93 98.857 85.6 100 86.068 100C86.537 100 87.455 101.785 88.108 103.967C88.762 106.149 89.667 107.706 90.119 107.426C90.571 107.147 91.228 108.062 91.579 109.459C91.93 110.857 92.583 112 93.031 112C93.479 112 94.365 113.575 95 115.5C95.635 117.425 96.526 119 96.98 119C97.433 119 98.28 120.363 98.861 122.03C99.441 123.696 100.61 125.753 101.458 126.601C102.306 127.449 103 129.037 103 130.13C103 131.224 103.428 131.853 103.951 131.53C104.474 131.207 105.441 132.741 106.1 134.938C106.758 137.136 107.685 138.694 108.16 138.401C108.635 138.108 109.298 139.24 109.633 140.917C109.969 142.595 110.617 143.737 111.073 143.455C111.529 143.173 112.441 144.741 113.1 146.938C113.758 149.136 114.68 150.698 115.148 150.408C115.617 150.119 116 150.551 116 151.37C116 152.188 116.582 153.452 117.292 154.179C118.003 154.905 119.183 156.963 119.914 158.75C120.645 160.537 121.62 162 122.081 162C122.542 162 123.455 163.785 124.108 165.967C124.762 168.149 125.644 169.72 126.067 169.459C126.491 169.197 127.135 170.34 127.5 172C127.865 173.66 128.509 174.803 128.932 174.542C129.355 174.28 130.286 175.836 131 178C131.714 180.164 132.645 181.72 133.068 181.458C133.491 181.197 134.135 182.336 134.498 183.991C134.862 185.646 135.519 187 135.958 187C136.398 187 137.355 188.463 138.086 190.25C138.817 192.037 139.885 194.047 140.458 194.715C141.031 195.384 142.026 196.563 142.669 197.336C143.312 198.109 144.468 200.606 145.238 202.885C146.008 205.164 146.9 206.767 147.22 206.447C147.539 206.127 148.33 207.471 148.978 209.433C149.625 211.395 150.562 213 151.059 213C151.555 213 152.24 214.109 152.58 215.464C153.547 219.317 159 220.147 159 216.441C159 215.648 159.415 215 159.922 215C160.43 215 161.365 213.425 162 211.5C162.635 209.575 163.562 208 164.059 208C164.555 208 165.243 206.878 165.588 205.507C165.932 204.136 166.579 203.24 167.025 203.516C167.472 203.792 168.141 202.633 168.513 200.941C168.885 199.249 169.821 197.622 170.594 197.325C171.367 197.029 172 195.966 172 194.964C172 193.963 172.582 192.548 173.292 191.821C174.003 191.095 175.183 189.037 175.914 187.25C176.645 185.463 177.548 184 177.92 184C178.293 184 179.168 182.425 179.864 180.5C180.56 178.575 181.55 177 182.065 177C182.579 177 183 176.357 183 175.571C183 174.786 183.611 173.532 184.358 172.785C185.105 172.038 186.311 169.782 187.038 167.772C188.134 164.741 188.133 163.432 187.03 160.092C186.3 157.878 185.355 156.28 184.932 156.542C184.509 156.803 183.865 155.664 183.502 154.009C183.138 152.354 182.481 151 182.042 151C181.602 151 180.645 149.537 179.914 147.75C179.183 145.963 178.003 143.905 177.292 143.179C176.582 142.452 176 141.283 176 140.582C176 139.88 175.1 138.268 174 137C172.9 135.732 172 133.836 172 132.788C172 131.74 171.616 131.119 171.146 131.41C170.204 131.992 168 127.779 168 125.394C168 124.562 167.563 124.152 167.029 124.482C166.495 124.812 165.772 123.938 165.421 122.541C165.07 121.143 164.4 120 163.932 120C163.463 120 162.545 118.215 161.892 116.033C161.238 113.851 160.333 112.294 159.881 112.574C159.429 112.853 158.772 111.938 158.421 110.541C158.07 109.143 157.417 108 156.969 108C156.521 108 155.635 106.425 155 104.5C154.365 102.575 153.474 101 153.02 101C152.567 101 151.72 99.637 151.139 97.97C150.559 96.304 149.39 94.247 148.542 93.399C147.694 92.551 147 90.963 147 89.87C147 88.776 146.572 88.147 146.049 88.47C145.526 88.793 144.559 87.259 143.9 85.062C143.242 82.864 142.315 81.306 141.84 81.599C141.365 81.892 140.702 80.76 140.367 79.083C140.031 77.405 139.383 76.263 138.927 76.545C138.471 76.827 137.559 75.259 136.9 73.062C136.242 70.864 135.32 69.302 134.852 69.592C134.383 69.881 134 69.485 134 68.712C134 67.939 133.1 66.268 132 65C130.9 63.732 130 62.12 130 61.418C130 60.717 129.286 59.429 128.414 58.557C126.965 57.108 129.458 56.993 157.075 57.235L187.322 57.5L188.436 60.809C189.048 62.628 189.833 63.834 190.18 63.487C190.526 63.141 191.113 64.239 191.484 65.928C191.855 67.618 192.519 69 192.958 69C193.398 69 194.355 70.463 195.086 72.25C195.817 74.037 196.997 76.095 197.708 76.821C198.418 77.548 199 78.717 199 79.418C199 80.12 199.9 81.732 201 83C202.1 84.268 203 86.164 203 87.212C203 88.26 203.384 88.881 203.854 88.59C204.796 88.008 207 92.221 207 94.606C207 95.438 207.418 95.86 207.928 95.544C208.438 95.229 209.173 95.969 209.56 97.189C209.947 98.409 210.902 100.044 211.681 100.824C212.46 101.603 213.356 103.53 213.671 105.104C213.986 106.679 214.606 107.743 215.05 107.469C215.493 107.195 216.144 107.877 216.495 108.985C217.583 112.412 220.971 110.818 222.44 106.189C222.827 104.969 223.525 104.206 223.991 104.494C224.456 104.782 225.141 103.633 225.513 101.941C225.885 100.249 226.794 98.633 227.533 98.349C228.273 98.065 229.158 96.558 229.5 94.999C229.843 93.44 230.995 91.159 232.061 89.929C233.128 88.7 234 87.061 234 86.288C234 85.515 234.413 85.137 234.919 85.45C235.424 85.762 236.141 84.633 236.513 82.941C236.885 81.249 237.821 79.622 238.594 79.325C239.367 79.029 240 77.966 240 76.964C240 75.963 240.582 74.548 241.292 73.821C242.003 73.095 243.183 71.037 243.914 69.25C244.645 67.462 245.638 66 246.121 66C246.605 66 247 65.311 247 64.469C247 63.626 247.675 62.678 248.5 62.362C249.601 61.939 250 60.202 250 55.834C250 52.472 249.6 50.129 249.081 50.45C248.576 50.762 247.865 49.66 247.5 48C247.135 46.34 246.491 45.197 246.068 45.458C245.645 45.72 244.714 44.164 244 42C243.286 39.836 242.355 38.28 241.932 38.542C241.509 38.803 240.865 37.66 240.5 36C240.135 34.34 239.506 33.188 239.1 33.438C238.695 33.689 237.773 32.261 237.051 30.265C235.817 26.851 235.182 25.822 232.343 22.63C231.707 21.915 230.551 19.449 229.774 17.151C228.997 14.852 228.1 13.233 227.78 13.553C227.461 13.873 226.67 12.529 226.022 10.567C225.375 8.605 224.46 7 223.99 7C223.52 7 222.819 5.987 222.433 4.75C222.046 3.512 221.229 2.169 220.615 1.765C220.002 1.361 205.02 1.024 187.321 1.015C159.388 1.002 154.936 1.207 153.571 2.571C152.707 3.436 152 4.786 152 5.571C152 6.357 151.585 7 151.078 7C150.57 7 149.634 8.579 148.997 10.509C148.36 12.439 147.515 13.818 147.119 13.573C146.723 13.329 145.809 15.125 145.089 17.564C144.369 20.004 143.387 22 142.909 22C142.43 22 141.757 23.122 141.412 24.493C141.068 25.864 140.421 26.76 139.975 26.484C139.528 26.208 138.859 27.367 138.487 29.059C138.115 30.751 137.206 32.367 136.467 32.651C135.727 32.935 134.833 34.483 134.48 36.092C134.126 37.701 133.46 38.784 132.999 38.5C132.538 38.215 131.64 39.561 131.003 41.491C130.366 43.421 129.52 45 129.123 45C128.726 45 127.823 46.6 127.116 48.555C125.597 52.757 124.053 52.614 122.544 48.131C121.943 46.345 121.197 45.136 120.887 45.446C120.577 45.756 119.734 44.223 119.013 42.038C118.292 39.854 117.355 38.28 116.932 38.542C116.509 38.803 115.865 37.66 115.5 36C115.135 34.34 114.506 33.188 114.1 33.438C113.695 33.689 112.773 32.261 112.051 30.265C110.817 26.851 110.182 25.822 107.343 22.63C106.707 21.915 105.551 19.449 104.774 17.151C103.997 14.852 103.1 13.233 102.78 13.553C102.461 13.873 101.67 12.529 101.022 10.567C100.375 8.605 99.46 7 98.99 7C98.52 7 97.819 5.987 97.433 4.75C97.046 3.512 96.229 2.169 95.615 1.765C94.159 0.806001 30.841 0.806001 29.385 1.765Z" fill="#0000FF"/>
<path fill-rule="evenodd" clip-rule="evenodd" d="M29.385 1.765C28.771 2.169 27.954 3.512 27.567 4.75C27.181 5.988 26.48 7 26.01 7C25.54 7 24.634 8.579 23.997 10.509C23.36 12.439 22.515 13.818 22.119 13.573C21.723 13.329 20.809 15.125 20.089 17.564C19.369 20.004 18.387 22 17.909 22C17.43 22 16.757 23.122 16.412 24.493C16.068 25.864 15.421 26.76 14.975 26.484C14.528 26.208 13.859 27.367 13.487 29.059C13.115 30.751 12.229 32.359 11.518 32.631C10.806 32.904 9.954 34.479 9.624 36.13C9.294 37.781 8.65 38.902 8.193 38.62C7.737 38.337 6.802 39.658 6.117 41.553C5.431 43.449 4.498 45 4.044 45C3.589 45 2.934 46.125 2.589 47.5C2.244 48.875 1.52 50 0.981 50C0.441 50 0 51.569 0 53.486V56.972L31.161 57.236L62.322 57.5L63.436 60.809C64.048 62.628 64.833 63.834 65.18 63.487C65.526 63.141 66.113 64.239 66.484 65.928C66.855 67.618 67.544 69 68.015 69C68.485 69 69.44 70.575 70.136 72.5C70.832 74.425 71.707 76 72.08 76C72.452 76 73.355 77.463 74.086 79.25C74.817 81.037 75.997 83.095 76.708 83.821C77.418 84.548 78 86.037 78 87.13C78 88.224 78.384 88.881 78.854 88.59C79.796 88.008 82 92.221 82 94.606C82 95.438 82.418 95.86 82.928 95.544C83.438 95.229 84.173 95.969 84.56 97.189C84.947 98.409 85.902 100.044 86.681 100.824C87.46 101.603 88.356 103.53 88.671 105.104C88.986 106.679 89.626 107.731 90.092 107.443C90.559 107.154 91.228 108.062 91.579 109.459C91.93 110.857 92.583 112 93.031 112C93.479 112 94.365 113.575 95 115.5C95.635 117.425 96.526 119 96.98 119C97.433 119 98.28 120.363 98.861 122.03C99.441 123.696 100.61 125.753 101.458 126.601C102.306 127.449 103 129.037 103 130.13C103 131.224 103.428 131.853 103.951 131.53C104.474 131.207 105.441 132.741 106.1 134.938C106.758 137.136 107.685 138.694 108.16 138.401C108.635 138.108 109.298 139.24 109.633 140.917C109.969 142.595 110.617 143.737 111.073 143.455C111.529 143.173 112.441 144.741 113.1 146.938C113.758 149.136 114.68 150.698 115.148 150.408C115.617 150.119 116 150.551 116 151.37C116 152.188 116.582 153.452 117.292 154.179C118.003 154.905 119.183 156.963 119.914 158.75C120.645 160.537 121.62 162 122.081 162C122.542 162 123.455 163.785 124.108 165.967C124.762 168.149 125.644 169.72 126.067 169.459C126.491 169.197 127.135 170.34 127.5 172C127.865 173.66 128.509 174.803 128.932 174.542C129.355 174.28 130.286 175.836 131 178C131.714 180.164 132.645 181.72 133.068 181.458C133.491 181.197 134.135 182.336 134.498 183.991C134.862 185.646 135.519 187 135.958 187C136.398 187 137.355 188.463 138.086 190.25C138.817 192.037 139.885 194.047 140.458 194.715C141.031 195.384 142.026 196.563 142.669 197.336C143.312 198.109 144.468 200.606 145.238 202.885C146.008 205.164 146.9 206.767 147.22 206.447C147.539 206.127 148.33 207.471 148.978 209.433C149.625 211.395 150.562 213 151.059 213C151.555 213 152.24 214.109 152.58 215.464C153.547 219.317 159 220.147 159 216.441C159 215.648 159.415 215 159.922 215C160.43 215 161.365 213.425 162 211.5C162.635 209.575 163.562 208 164.059 208C164.555 208 165.243 206.878 165.588 205.507C165.932 204.136 166.579 203.24 167.025 203.516C167.472 203.792 168.141 202.633 168.513 200.941C168.885 199.249 169.821 197.622 170.594 197.325C171.367 197.029 172 195.966 172 194.964C172 193.963 172.582 192.548 173.292 191.821C174.003 191.095 175.183 189.037 175.914 187.25C176.645 185.463 177.548 184 177.92 184C178.293 184 179.168 182.425 179.864 180.5C180.56 178.575 181.55 177 182.065 177C182.579 177 183 176.357 183 175.571C183 174.786 183.582 173.548 184.292 172.821C187.313 169.732 188.313 165.189 187.002 160.506C186.313 158.048 185.393 156.257 184.956 156.527C184.52 156.797 183.865 155.664 183.502 154.009C183.138 152.354 182.481 151 182.042 151C181.602 151 180.652 149.537 179.93 147.75C179.208 145.963 178.029 144.14 177.309 143.7C176.589 143.26 176 142.092 176 141.103C176 140.115 175.1 138.268 174 137C172.9 135.732 171.993 133.75 171.985 132.597C171.973 131.061 171.742 130.858 171.121 131.838C170.53 132.771 169.868 131.805 168.937 128.652C168.202 126.164 167.273 124.331 166.873 124.579C166.472 124.826 165.827 124.031 165.44 122.811C165.053 121.591 164.098 119.956 163.319 119.176C162.54 118.397 161.644 116.47 161.329 114.896C161.014 113.321 160.374 112.269 159.908 112.557C159.441 112.846 158.772 111.938 158.421 110.541C158.07 109.143 157.437 108 157.013 108C156.589 108 155.645 106.537 154.914 104.75C154.183 102.963 153.003 100.905 152.292 100.179C151.582 99.452 151 98.283 151 97.582C151 96.88 150.1 95.268 149 94C147.9 92.732 147 90.836 147 89.788C147 88.74 146.572 88.147 146.049 88.47C145.526 88.793 144.559 87.259 143.9 85.062C143.242 82.864 142.315 81.306 141.84 81.599C141.365 81.892 140.702 80.76 140.367 79.083C140.031 77.405 139.383 76.263 138.927 76.545C138.471 76.827 137.559 75.259 136.9 73.062C136.242 70.864 135.368 69.273 134.958 69.526C134.549 69.779 133.932 68.864 133.588 67.493C133.243 66.122 132.575 65 132.102 65C131.629 65 130.651 63.537 129.928 61.75C129.205 59.963 128.138 58.165 127.557 57.757C126.976 57.348 140.185 57.123 156.911 57.257L187.322 57.5L188.436 60.809C189.048 62.628 189.833 63.834 190.18 63.487C190.526 63.141 191.113 64.239 191.484 65.928C191.855 67.618 192.519 69 192.958 69C193.398 69 194.355 70.463 195.086 72.25C195.817 74.037 196.997 76.095 197.708 76.821C198.418 77.548 199 78.717 199 79.418C199 80.12 199.9 81.732 201 83C202.1 84.268 203 86.164 203 87.212C203 88.26 203.384 88.881 203.854 88.59C204.796 88.008 207 92.221 207 94.606C207 95.438 207.418 95.86 207.928 95.544C208.438 95.229 209.173 95.969 209.56 97.189C209.947 98.409 210.902 100.044 211.681 100.824C212.46 101.603 213.356 103.53 213.671 105.104C213.986 106.679 214.606 107.743 215.05 107.469C215.493 107.195 216.144 107.877 216.495 108.985C217.583 112.412 220.971 110.818 222.44 106.189C222.827 104.969 223.525 104.206 223.991 104.494C224.456 104.782 225.141 103.633 225.513 101.941C225.885 100.249 226.794 98.633 227.533 98.349C228.273 98.065 229.158 96.558 229.5 94.999C229.843 93.44 230.995 91.159 232.061 89.929C233.128 88.7 234 87.061 234 86.288C234 85.515 234.413 85.137 234.919 85.45C235.424 85.762 236.141 84.633 236.513 82.941C236.885 81.249 237.821 79.622 238.594 79.325C239.367 79.029 240 77.966 240 76.964C240 75.963 240.582 74.548 241.292 73.821C242.003 73.095 243.183 71.037 243.914 69.25C244.645 67.462 245.638 66 246.121 66C246.605 66 247 65.311 247 64.469C247 63.626 247.675 62.678 248.5 62.362C249.601 61.939 250 60.202 250 55.834C250 52.472 249.6 50.129 249.081 50.45C248.576 50.762 247.865 49.66 247.5 48C247.135 46.34 246.491 45.197 246.068 45.458C245.645 45.72 244.714 44.164 244 42C243.286 39.836 242.319 38.303 241.851 38.592C241.383 38.881 241 38.449 241 37.63C241 36.812 240.418 35.548 239.708 34.821C238.997 34.095 237.776 31.925 236.995 30C235.637 26.655 234.938 25.547 232.343 22.63C231.707 21.915 230.491 19.343 229.641 16.915C228.791 14.487 228.042 13.175 227.977 14C227.912 14.825 227.235 13.799 226.472 11.721C225.709 9.642 224.39 7.248 223.542 6.399C222.694 5.551 222 4.262 222 3.536C222 2.809 221.288 1.941 220.418 1.607C219.548 1.273 204.505 1 186.99 1C159.371 1 154.934 1.209 153.571 2.571C152.707 3.436 152 4.786 152 5.571C152 6.357 151.585 7 151.078 7C150.57 7 149.634 8.579 148.997 10.509C148.36 12.439 147.515 13.818 147.119 13.573C146.723 13.329 145.809 15.125 145.089 17.564C144.369 20.004 143.387 22 142.909 22C142.43 22 141.757 23.122 141.412 24.493C141.068 25.864 140.421 26.76 139.975 26.484C139.528 26.208 138.859 27.367 138.487 29.059C138.115 30.751 137.206 32.367 136.467 32.651C135.727 32.935 134.833 34.483 134.48 36.092C134.126 37.701 133.46 38.784 132.999 38.5C132.538 38.215 131.64 39.561 131.003 41.491C130.366 43.421 129.52 45 129.123 45C128.726 45 127.823 46.6 127.116 48.555C125.597 52.757 124.053 52.614 122.544 48.131C121.943 46.345 121.197 45.136 120.887 45.446C120.577 45.756 119.734 44.223 119.013 42.038C118.292 39.854 117.319 38.303 116.851 38.592C116.383 38.881 116 38.449 116 37.63C116 36.812 115.418 35.548 114.708 34.821C113.997 34.095 112.776 31.925 111.995 30C110.637 26.655 109.938 25.547 107.343 22.63C106.707 21.915 105.491 19.343 104.641 16.915C103.791 14.487 103.042 13.175 102.977 14C102.912 14.825 102.235 13.799 101.472 11.721C100.709 9.642 99.39 7.248 98.542 6.399C97.694 5.551 97 4.262 97 3.536C97 2.809 96.288 1.941 95.418 1.607C93.148 0.736 30.721 0.884999 29.385 1.765Z" fill="#80FFFF"/>
<path fill-rule="evenodd" clip-rule="evenodd" d="M29.385 1.765C28.771 2.169 27.954 3.512 27.567 4.75C27.181 5.988 26.48 7 26.01 7C25.54 7 24.634 8.579 23.997 10.509C23.36 12.439 22.515 13.818 22.119 13.573C21.723 13.329 20.809 15.125 20.089 17.564C19.369 20.004 18.423 22 17.987 22C17.552 22 16.684 23.237 16.058 24.75C14.171 29.31 11.94 33 11.07 33C10.619 33 9.974 34.38 9.637 36.066C9.299 37.753 8.65 38.902 8.193 38.62C7.737 38.337 6.802 39.658 6.117 41.553C5.431 43.449 4.45 45 3.935 45C3.421 45 3 45.914 3 47.031C3 48.149 2.325 49.322 1.5 49.638C0.576 49.993 0 51.512 0 53.593V56.972L31.161 57.236L62.322 57.5L63.436 60.809C64.048 62.628 64.833 63.834 65.18 63.487C65.526 63.141 66.113 64.239 66.484 65.928C66.855 67.618 67.544 69 68.015 69C68.485 69 69.44 70.575 70.136 72.5C70.832 74.425 71.707 76 72.08 76C72.452 76 73.355 77.463 74.086 79.25C74.817 81.037 75.997 83.095 76.708 83.821C77.418 84.548 78 86.037 78 87.13C78 88.224 78.384 88.881 78.854 88.59C79.796 88.008 82 92.221 82 94.606C82 95.438 82.418 95.86 82.928 95.544C83.438 95.229 84.173 95.969 84.56 97.189C84.947 98.409 85.902 100.044 86.681 100.824C87.46 101.603 88.356 103.53 88.671 105.104C88.986 106.679 89.626 107.731 90.092 107.443C90.559 107.154 91.228 108.062 91.579 109.459C91.93 110.857 92.583 112 93.031 112C93.479 112 94.365 113.575 95 115.5C95.635 117.425 96.526 119 96.98 119C97.433 119 98.28 120.363 98.861 122.03C99.441 123.696 100.61 125.753 101.458 126.601C102.306 127.449 103 129.037 103 130.13C103 131.224 103.428 131.853 103.951 131.53C104.474 131.207 105.441 132.741 106.1 134.938C106.758 137.136 107.685 138.694 108.16 138.401C108.635 138.108 109.298 139.24 109.633 140.917C109.969 142.595 110.617 143.737 111.073 143.455C111.529 143.173 112.441 144.741 113.1 146.938C113.758 149.136 114.68 150.698 115.148 150.408C115.617 150.119 116 150.551 116 151.37C116 152.188 116.582 153.452 117.292 154.179C118.003 154.905 119.183 156.963 119.914 158.75C120.645 160.537 121.62 162 122.081 162C122.542 162 123.455 163.785 124.108 165.967C124.762 168.149 125.644 169.72 126.067 169.459C126.491 169.197 127.135 170.34 127.5 172C127.865 173.66 128.509 174.803 128.932 174.542C129.355 174.28 130.286 175.836 131 178C131.714 180.164 132.645 181.72 133.068 181.458C133.491 181.197 134.135 182.336 134.498 183.991C134.862 185.646 135.519 187 135.958 187C136.398 187 137.355 188.463 138.086 190.25C138.817 192.037 139.885 194.047 140.458 194.715C141.031 195.384 142.026 196.563 142.669 197.336C143.312 198.109 144.468 200.606 145.238 202.885C146.008 205.164 146.9 206.767 147.22 206.447C147.539 206.127 148.33 207.471 148.978 209.433C149.625 211.395 150.562 213 151.059 213C151.555 213 152.24 214.109 152.58 215.464C153.547 219.317 159 220.147 159 216.441C159 215.648 159.415 215 159.922 215C160.43 215 161.365 213.425 162 211.5C162.635 209.575 163.562 208 164.059 208C164.555 208 165.243 206.878 165.588 205.507C165.932 204.136 166.579 203.24 167.025 203.516C167.472 203.792 168.141 202.633 168.513 200.941C168.885 199.249 169.821 197.622 170.594 197.325C171.367 197.029 172 195.966 172 194.964C172 193.963 172.582 192.548 173.292 191.821C174.003 191.095 175.183 189.037 175.914 187.25C176.645 185.463 177.548 184 177.92 184C178.293 184 179.168 182.425 179.864 180.5C180.56 178.575 181.55 177 182.065 177C182.579 177 183 176.357 183 175.571C183 174.786 183.582 173.548 184.292 172.821C187.313 169.732 188.313 165.189 187.002 160.506C186.313 158.048 185.393 156.257 184.956 156.527C184.52 156.797 183.865 155.664 183.502 154.009C183.138 152.354 182.481 151 182.042 151C181.602 151 180.652 149.537 179.93 147.75C179.208 145.963 178.029 144.14 177.309 143.7C176.589 143.26 176 142.092 176 141.103C176 140.115 175.1 138.268 174 137C172.9 135.732 171.993 133.75 171.985 132.597C171.973 131.061 171.742 130.858 171.121 131.838C170.53 132.771 169.868 131.805 168.937 128.652C168.202 126.164 167.273 124.331 166.873 124.579C166.472 124.826 165.827 124.031 165.44 122.811C165.053 121.591 164.098 119.956 163.319 119.176C162.54 118.397 161.644 116.47 161.329 114.896C161.014 113.321 160.374 112.269 159.908 112.557C159.441 112.846 158.772 111.938 158.421 110.541C158.07 109.143 157.437 108 157.013 108C156.589 108 155.645 106.537 154.914 104.75C154.183 102.963 153.003 100.905 152.292 100.179C151.582 99.452 151 98.283 151 97.582C151 96.88 150.1 95.268 149 94C147.9 92.732 147 90.836 147 89.788C147 88.74 146.572 88.147 146.049 88.47C145.526 88.793 144.559 87.259 143.9 85.062C143.242 82.864 142.315 81.306 141.84 81.599C141.365 81.892 140.702 80.76 140.367 79.083C140.031 77.405 139.383 76.263 138.927 76.545C138.471 76.827 137.559 75.259 136.9 73.062C136.242 70.864 135.368 69.273 134.958 69.526C134.549 69.779 133.932 68.864 133.588 67.493C133.243 66.122 132.575 65 132.102 65C131.629 65 130.651 63.537 129.928 61.75C129.205 59.963 128.138 58.165 127.557 57.757C126.976 57.348 140.185 57.123 156.911 57.257L187.322 57.5L188.436 60.809C189.048 62.628 189.833 63.834 190.18 63.487C190.526 63.141 191.113 64.239 191.484 65.928C191.855 67.618 192.519 69 192.958 69C193.398 69 194.355 70.463 195.086 72.25C195.817 74.037 196.997 76.095 197.708 76.821C198.418 77.548 199 78.717 199 79.418C199 80.12 199.9 81.732 201 83C202.1 84.268 203 86.164 203 87.212C203 88.26 203.384 88.881 203.854 88.59C204.796 88.008 207 92.221 207 94.606C207 95.438 207.418 95.86 207.928 95.544C208.438 95.229 209.173 95.969 209.56 97.189C209.947 98.409 210.902 100.044 211.681 100.824C212.46 101.603 213.356 103.53 213.671 105.104C213.986 106.679 214.606 107.743 215.05 107.469C215.493 107.195 216.144 107.877 216.495 108.985C217.583 112.412 220.971 110.818 222.44 106.189C222.827 104.969 223.525 104.206 223.991 104.494C224.456 104.782 225.141 103.633 225.513 101.941C225.885 100.249 226.794 98.633 227.533 98.349C228.273 98.065 229.158 96.558 229.5 94.999C229.843 93.44 230.995 91.159 232.061 89.929C233.128 88.7 234 87.061 234 86.288C234 85.515 234.413 85.137 234.919 85.45C235.424 85.762 236.141 84.633 236.513 82.941C236.885 81.249 237.821 79.622 238.594 79.325C239.367 79.029 240 77.966 240 76.964C240 75.963 240.582 74.548 241.292 73.821C242.003 73.095 243.183 71.037 243.914 69.25C244.645 67.462 245.638 66 246.121 66C246.605 66 247 65.311 247 64.469C247 63.626 247.675 62.678 248.5 62.362C249.601 61.939 250 60.202 250 55.834C250 52.472 249.6 50.129 249.081 50.45C248.576 50.762 247.865 49.66 247.5 48C247.135 46.34 246.491 45.197 246.068 45.458C245.645 45.72 244.714 44.164 244 42C243.286 39.836 242.319 38.303 241.851 38.592C241.383 38.881 241 38.449 241 37.63C241 36.812 240.418 35.548 239.708 34.821C238.997 34.095 237.776 31.925 236.995 30C235.637 26.655 234.938 25.547 232.343 22.63C231.707 21.915 230.491 19.343 229.641 16.915C228.791 14.487 228.042 13.175 227.977 14C227.912 14.825 227.235 13.799 226.472 11.721C225.709 9.642 224.39 7.248 223.542 6.399C222.694 5.551 222 4.262 222 3.536C222 2.809 221.288 1.941 220.418 1.607C218.148 0.736001 155.721 0.885 154.385 1.765C153.771 2.169 152.954 3.512 152.567 4.75C152.181 5.988 151.48 7 151.01 7C150.54 7 149.634 8.579 148.997 10.509C148.36 12.439 147.515 13.818 147.119 13.573C146.723 13.329 145.809 15.125 145.089 17.564C144.369 20.004 143.423 22 142.987 22C142.552 22 141.684 23.238 141.058 24.75C139.139 29.387 136.935 33 136.025 33C135.549 33 134.862 34.354 134.498 36.009C134.135 37.664 133.446 38.776 132.967 38.48C132.489 38.184 131.559 39.741 130.9 41.938C130.242 44.136 129.32 45.698 128.852 45.408C128.383 45.119 127.986 45.696 127.968 46.691C127.926 49.104 125.386 52.356 124.143 51.589C123.599 51.252 122.858 49.628 122.496 47.98C122.133 46.331 121.491 45.197 121.068 45.458C120.645 45.72 119.714 44.164 119 42C118.286 39.836 117.319 38.303 116.851 38.592C116.383 38.881 116 38.449 116 37.63C116 36.812 115.418 35.548 114.708 34.821C113.997 34.095 112.776 31.925 111.995 30C110.637 26.655 109.938 25.547 107.343 22.63C106.707 21.915 105.491 19.343 104.641 16.915C103.791 14.487 103.042 13.175 102.977 14C102.912 14.825 102.235 13.799 101.472 11.721C100.709 9.642 99.39 7.248 98.542 6.399C97.694 5.551 97 4.262 97 3.536C97 2.809 96.288 1.941 95.418 1.607C93.148 0.736001 30.721 0.885 29.385 1.765Z" fill="#00FFFF"/>
<path fill-rule="evenodd" clip-rule="evenodd" d="M29.295 2.25C27.111 5.123 19 19.768 19 20.838C19 21.477 18.594 22 18.098 22C17.602 22 16.7 23.237 16.095 24.75C15.489 26.263 14.11 28.85 13.029 30.5C11.948 32.15 10.358 34.85 9.496 36.5C6.093 43.01 4.666 45.521 4.096 46C2.662 47.203 0 52.991 0 54.904C0 56.987 0.194 57 31.025 57H62.05L63.087 59.73C63.658 61.231 64.434 62.693 64.813 62.98C65.191 63.266 66.803 65.975 68.395 69C69.987 72.025 71.9 75.21 72.645 76.079C73.39 76.947 74 78.185 74 78.829C74 79.473 74.36 80 74.799 80C75.239 80 76.168 81.575 76.864 83.5C77.56 85.425 78.55 87 79.065 87C79.579 87 80 87.521 80 88.157C80 88.794 82.7 93.934 86 99.58C89.3 105.226 92 110.292 92 110.839C92 111.386 92.358 111.983 92.796 112.167C93.829 112.6 103 128.584 103 129.953C103 130.529 103.406 131 103.902 131C104.398 131 105.308 132.238 105.924 133.75C107.196 136.873 110.203 142.251 111.096 143C111.661 143.475 113.344 146.453 116.181 152C116.884 153.375 117.694 154.725 117.981 155C118.268 155.275 119.177 156.85 120 158.5C120.823 160.15 121.766 161.725 122.094 162C122.873 162.652 125.613 167.758 127.058 171.25C127.684 172.763 128.558 174 129 174C129.442 174 130.292 175.238 130.888 176.75C131.484 178.263 132.403 180.175 132.931 181C133.459 181.825 135.79 185.875 138.11 190C140.431 194.125 142.644 197.725 143.03 198C143.415 198.275 144.046 199.51 144.431 200.744C144.816 201.978 145.664 203.569 146.316 204.279C146.967 204.988 148.804 208.029 150.399 211.035C153.939 217.71 154.921 219.012 156.372 218.958C157.61 218.911 161.444 213.327 162.48 210.062C162.84 208.928 163.51 208 163.97 208C164.429 208 165.3 206.762 165.905 205.25C166.511 203.737 167.898 201.15 168.988 199.5C170.078 197.85 171.432 195.446 171.996 194.157C173.144 191.532 181.139 177.777 181.967 177C182.26 176.725 183.825 173.967 185.445 170.871C188.192 165.619 188.307 164.967 187.154 161.121C186.475 158.855 185.488 157 184.96 157C184.432 157 183.982 156.438 183.961 155.75C183.94 155.063 182.392 152.025 180.522 149C178.651 145.975 175.875 141.137 174.352 138.25C172.828 135.363 171.226 133 170.791 133C170.356 133 170 132.479 170 131.843C170 131.206 167.3 126.066 164 120.42C160.7 114.774 158 109.708 158 109.161C158 108.614 157.642 108.017 157.204 107.833C156.171 107.4 147 91.416 147 90.047C147 89.471 146.594 89 146.098 89C145.602 89 144.692 87.763 144.076 86.25C142.804 83.127 139.797 77.749 138.904 77C138.188 76.399 135.514 71.551 133.801 67.75C133.119 66.237 132.265 65 131.902 65C131.539 65 130.651 63.537 129.928 61.75C129.205 59.963 128.138 58.169 127.557 57.765C126.976 57.361 140.136 57.024 156.802 57.015L187.104 57L188.15 60C188.725 61.65 189.602 63 190.098 63C190.594 63 191 63.485 191 64.078C191 65.451 203.154 86.388 204.21 86.833C204.644 87.017 205 87.636 205 88.21C205 89.797 217.382 110.963 218.321 110.983C219.61 111.01 221.668 108.62 222.434 106.209C222.817 105.001 223.664 103.428 224.316 102.714C226.257 100.585 227.971 97.725 229.686 93.75C230.575 91.687 231.641 90 232.054 90C232.467 90 233.3 88.763 233.905 87.25C234.511 85.737 235.862 83.15 236.909 81.5C237.955 79.85 240.256 75.8 242.022 72.5C243.788 69.2 245.517 66.275 245.866 66C247.162 64.977 250 57.852 250 55.62C250 53.277 247.296 46.935 245.891 45.98C245.47 45.693 244.624 44.343 244.011 42.98C242.339 39.26 239.769 34.565 239.096 34C238.768 33.725 237.166 30.913 235.535 27.75C233.904 24.587 232.266 22 231.893 22C231.521 22 230.942 20.906 230.607 19.57C230.271 18.233 229.435 16.53 228.748 15.785C228.062 15.04 226.196 11.971 224.601 8.965C223.007 5.959 221.259 2.931 220.718 2.237C219.952 1.255 212.476 1.032 187.189 1.237L154.645 1.5L149.34 10.5C146.422 15.45 144.027 20.063 144.017 20.75C144.008 21.438 143.594 22 143.098 22C142.602 22 141.7 23.238 141.095 24.75C140.489 26.263 139.094 28.85 137.995 30.5C136.895 32.15 135.291 34.85 134.429 36.5C130.493 44.036 129.653 45.532 129.094 46C128.766 46.275 127.859 47.738 127.079 49.25C125.255 52.79 124.149 52.725 122.85 49C122.275 47.35 121.442 46 121 46C120.558 46 119.684 44.763 119.058 43.25C117.615 39.764 114.874 34.653 114.096 34C113.768 33.725 112.166 30.913 110.535 27.75C108.904 24.587 107.266 22 106.893 22C106.521 22 105.942 20.906 105.607 19.57C105.271 18.233 104.435 16.53 103.748 15.785C103.062 15.04 101.196 11.971 99.601 8.965C98.007 5.959 96.264 2.938 95.729 2.25C94.319 0.440002 30.671 0.440002 29.295 2.25Z" fill="#50FDDB"/>
<path fill-rule="evenodd" clip-rule="evenodd" d="M93 2.011C93 2.567 86.544 14.155 78.654 27.761C60.28 59.447 61.798 56.34 63.062 59.664C63.647 61.201 64.434 62.693 64.813 62.98C65.191 63.266 66.803 65.975 68.395 69C69.987 72.025 71.9 75.21 72.645 76.079C73.39 76.947 74 78.185 74 78.829C74 79.473 74.36 80 74.799 80C75.239 80 76.168 81.575 76.864 83.5C77.56 85.425 78.55 87 79.065 87C79.579 87 80 87.521 80 88.157C80 88.794 82.7 93.934 86 99.58C89.3 105.226 92 110.292 92 110.839C92 111.386 92.358 111.983 92.796 112.167C93.829 112.6 103 128.584 103 129.953C103 130.529 103.406 131 103.902 131C104.398 131 105.308 132.238 105.924 133.75C107.196 136.873 110.203 142.251 111.096 143C111.661 143.475 113.344 146.453 116.181 152C116.884 153.375 117.694 154.725 117.981 155C118.268 155.275 119.177 156.85 120 158.5C120.823 160.15 121.766 161.725 122.094 162C122.873 162.652 125.613 167.758 127.058 171.25C127.684 172.762 128.558 174 129 174C129.442 174 130.292 175.238 130.888 176.75C131.484 178.262 132.403 180.175 132.931 181C133.459 181.825 135.79 185.875 138.11 190C140.431 194.125 142.644 197.725 143.03 198C143.415 198.275 144.046 199.51 144.431 200.744C144.816 201.978 145.664 203.569 146.316 204.279C146.967 204.988 148.804 208.029 150.399 211.035C153.939 217.71 154.921 219.012 156.372 218.958C157.61 218.911 161.444 213.327 162.48 210.062C162.84 208.928 163.51 208 163.97 208C164.429 208 165.3 206.762 165.905 205.25C166.511 203.737 167.898 201.15 168.988 199.5C170.078 197.85 171.432 195.446 171.996 194.157C173.144 191.532 181.139 177.777 181.967 177C182.26 176.725 183.825 173.967 185.445 170.871C188.192 165.619 188.307 164.967 187.154 161.121C186.475 158.855 185.488 157 184.96 157C184.432 157 183.982 156.438 183.961 155.75C183.94 155.063 182.392 152.025 180.522 149C178.651 145.975 175.875 141.137 174.352 138.25C172.828 135.362 171.226 133 170.791 133C170.356 133 170 132.479 170 131.843C170 131.206 167.3 126.066 164 120.42C160.7 114.774 158 109.708 158 109.161C158 108.614 157.642 108.017 157.204 107.833C156.171 107.4 147 91.416 147 90.047C147 89.471 146.594 89 146.098 89C145.602 89 144.692 87.763 144.076 86.25C142.804 83.127 139.797 77.749 138.904 77C138.188 76.399 135.514 71.551 133.801 67.75C133.119 66.238 132.265 65 131.902 65C131.539 65 130.65 63.537 129.926 61.75C129.203 59.963 127.798 57.772 126.805 56.883C125.812 55.993 125 54.825 125 54.286C125 53.073 121.902 46.682 120.983 46C120.256 45.461 117.789 41.025 115.989 37.02C115.376 35.657 114.566 34.307 114.187 34.02C113.809 33.734 112.166 30.913 110.535 27.75C108.904 24.587 107.266 22 106.893 22C106.521 22 105.942 20.906 105.607 19.57C105.271 18.233 104.435 16.53 103.748 15.785C103.062 15.04 101.196 11.971 99.601 8.965C98.007 5.959 96.264 2.938 95.729 2.25C94.557 0.744998 93 0.608997 93 2.011ZM218 2.011C218 2.567 211.544 14.155 203.654 27.761C185.252 59.495 186.833 56.224 188.115 59.901C188.71 61.606 189.602 63 190.098 63C190.594 63 191 63.485 191 64.078C191 65.451 203.154 86.388 204.21 86.833C204.644 87.017 205 87.636 205 88.21C205 89.797 217.382 110.963 218.321 110.983C219.61 111.01 221.668 108.62 222.434 106.209C222.817 105.001 223.664 103.428 224.316 102.714C226.257 100.585 227.971 97.725 229.686 93.75C230.575 91.688 231.641 90 232.054 90C232.467 90 233.3 88.763 233.905 87.25C234.511 85.737 235.862 83.15 236.909 81.5C237.955 79.85 240.256 75.8 242.022 72.5C243.788 69.2 245.517 66.275 245.866 66C247.162 64.977 250 57.852 250 55.62C250 53.373 247.342 47.008 245.983 46C245.256 45.461 242.789 41.025 240.989 37.02C240.376 35.657 239.566 34.307 239.187 34.02C238.809 33.734 237.166 30.913 235.535 27.75C233.904 24.587 232.266 22 231.893 22C231.521 22 230.942 20.906 230.607 19.57C230.271 18.233 229.435 16.53 228.748 15.785C228.062 15.04 226.196 11.971 224.601 8.965C223.007 5.959 221.264 2.938 220.729 2.25C219.557 0.744998 218 0.608997 218 2.011Z" fill="#03D9AF"/>
</svg>
