<svg width="125" height="125" viewBox="0 0 125 125" fill="none" xmlns="http://www.w3.org/2000/svg">
<g clip-path="url(#clip0_1_219)">
<path fill-rule="evenodd" clip-rule="evenodd" d="M14.6925 1.00742C14.3855 1.23801 13.977 2.00456 13.7835 2.71119C13.5905 3.41781 13.24 3.99543 13.005 3.99543C12.77 3.99543 12.317 4.89669 11.9985 5.99829C11.68 7.09988 11.2575 7.88698 11.0595 7.74714C10.8615 7.60787 10.4045 8.63299 10.0445 10.0251C9.6845 11.4178 9.1935 12.5571 8.9545 12.5571C8.715 12.5571 8.3785 13.1975 8.206 13.98C8.034 14.7626 7.7105 15.274 7.4875 15.1164C7.264 14.9589 6.9295 15.6204 6.7435 16.5862C6.5575 17.5519 6.1145 18.4697 5.759 18.625C5.403 18.7808 4.977 19.6798 4.812 20.6221C4.647 21.5645 4.325 22.2043 4.0965 22.0434C3.8685 21.8818 3.401 22.6358 3.0585 23.7175C2.7155 24.7997 2.249 25.6849 2.022 25.6849C1.7945 25.6849 1.467 26.3271 1.2945 27.1119C1.122 27.8967 0.76 28.5388 0.4905 28.5388C0.2205 28.5388 0 29.4378 0 30.5365V32.5342H15.4675H30.9355L31.5585 34.5017C31.901 35.5833 32.3475 36.3522 32.55 36.2089C32.753 36.0662 33.0675 36.7215 33.249 37.6661C33.431 38.6107 33.772 39.3836 34.0075 39.3836C34.2425 39.3836 34.72 40.2825 35.068 41.3813C35.416 42.48 35.8535 43.379 36.04 43.379C36.226 43.379 36.6775 44.214 37.043 45.234C37.4085 46.254 37.9985 47.4286 38.354 47.843C38.709 48.258 39 49.1079 39 49.7317C39 50.3562 39.192 50.7312 39.427 50.5651C39.898 50.2329 41 52.6376 41 53.9989C41 54.4737 41.2185 54.7078 41.4855 54.5194C41.7525 54.331 42.114 54.8299 42.2895 55.6273C42.465 56.4252 42.8 57.0776 43.034 57.0776C43.2685 57.0776 43.7275 58.0965 44.054 59.3419C44.381 60.5873 44.8335 61.476 45.0595 61.3162C45.2855 61.157 45.614 61.6792 45.7895 62.4766C45.965 63.2745 46.2915 63.9269 46.5155 63.9269C46.7395 63.9269 47.1825 64.8259 47.5 65.9247C47.8175 67.0234 48.263 67.9224 48.49 67.9224C48.7165 67.9224 49.14 68.7003 49.4305 69.6518C49.7205 70.6027 50.305 71.7768 50.729 72.2608C51.153 72.7449 51.5 73.6513 51.5 74.2751C51.5 74.8995 51.714 75.2586 51.9755 75.0742C52.237 74.8898 52.7205 75.7654 53.05 77.0194C53.379 78.274 53.8425 79.1632 54.08 78.996C54.3175 78.8288 54.649 79.4749 54.8165 80.4321C54.9845 81.3898 55.3085 82.0417 55.5365 81.8807C55.7645 81.7197 56.2205 82.6147 56.55 83.8687C56.879 85.1233 57.34 86.0148 57.574 85.8493C57.8085 85.6844 58 85.9309 58 86.3984C58 86.8653 58.291 87.5868 58.646 88.0017C59.0015 88.4161 59.5915 89.5908 59.957 90.6107C60.3225 91.6307 60.81 92.4658 61.0405 92.4658C61.271 92.4658 61.7275 93.4846 62.054 94.73C62.381 95.9755 62.822 96.8721 63.0335 96.7232C63.2455 96.5736 63.5675 97.226 63.75 98.1735C63.9325 99.121 64.2545 99.7734 64.466 99.6244C64.6775 99.4749 65.143 100.363 65.5 101.598C65.857 102.833 66.3225 103.721 66.534 103.572C66.7455 103.423 67.0675 104.073 67.249 105.018C67.431 105.962 67.7595 106.735 67.979 106.735C68.199 106.735 68.6775 107.57 69.043 108.59C69.4085 109.61 69.9425 110.757 70.229 111.139C70.5155 111.521 71.013 112.193 71.3345 112.635C71.656 113.076 72.234 114.501 72.619 115.802C73.004 117.103 73.45 118.018 73.61 117.835C73.7695 117.652 74.165 118.42 74.489 119.539C74.8125 120.659 75.281 121.575 75.5295 121.575C75.7775 121.575 76.12 122.208 76.29 122.982C76.7735 125.181 79.5 125.655 79.5 123.539C79.5 123.087 79.7075 122.717 79.961 122.717C80.215 122.717 80.6825 121.818 81 120.719C81.3175 119.62 81.781 118.721 82.0295 118.721C82.2775 118.721 82.6215 118.081 82.794 117.299C82.966 116.516 83.2895 116.005 83.5125 116.162C83.736 116.32 84.0705 115.658 84.2565 114.692C84.4425 113.727 84.9105 112.798 85.297 112.628C85.6835 112.459 86 111.853 86 111.281C86 110.709 86.291 109.902 86.646 109.487C87.0015 109.072 87.5915 107.898 87.957 106.878C88.3225 105.858 88.774 105.023 88.96 105.023C89.1465 105.023 89.584 104.124 89.932 103.025C90.28 101.926 90.775 101.027 91.0325 101.027C91.2895 101.027 91.5 100.66 91.5 100.212C91.5 99.7637 91.8055 99.0479 92.179 98.6216C92.5525 98.1952 93.1555 96.9075 93.519 95.7603C94.067 94.0303 94.0665 93.2831 93.515 91.3767C93.15 90.113 92.6775 89.2009 92.466 89.3505C92.2545 89.4994 91.9325 88.8493 91.751 87.9047C91.569 86.96 91.2405 86.1872 91.021 86.1872C90.801 86.1872 90.3225 85.3522 89.957 84.3322C89.5915 83.3122 89.0015 82.1376 88.646 81.7232C88.291 81.3082 88 80.641 88 80.2409C88 79.8402 87.55 78.9201 87 78.1963C86.45 77.4726 86 76.3904 86 75.7922C86 75.1941 85.808 74.8396 85.573 75.0057C85.102 75.3379 84 72.9332 84 71.5719C84 71.097 83.7815 70.863 83.5145 71.0514C83.2475 71.2397 82.886 70.7409 82.7105 69.9435C82.535 69.1455 82.2 68.4931 81.966 68.4931C81.7315 68.4931 81.2725 67.4743 80.946 66.2289C80.619 64.9834 80.1665 64.0947 79.9405 64.2546C79.7145 64.4138 79.386 63.8915 79.2105 63.0942C79.035 62.2962 78.7085 61.6438 78.4845 61.6438C78.2605 61.6438 77.8175 60.7449 77.5 59.6461C77.1825 58.5474 76.737 57.6484 76.51 57.6484C76.2835 57.6484 75.86 56.8704 75.5695 55.9189C75.2795 54.968 74.695 53.7939 74.271 53.3099C73.847 52.8259 73.5 51.9195 73.5 51.2957C73.5 50.6712 73.286 50.3122 73.0245 50.4966C72.763 50.6809 72.2795 49.8054 71.95 48.5514C71.621 47.2968 71.1575 46.4075 70.92 46.5748C70.6825 46.742 70.351 46.0959 70.1835 45.1387C70.0155 44.1809 69.6915 43.5291 69.4635 43.6901C69.2355 43.851 68.7795 42.956 68.45 41.702C68.121 40.4475 67.66 39.5559 67.426 39.7215C67.1915 39.8864 67 39.6604 67 39.2192C67 38.778 66.55 37.8242 66 37.1005C65.45 36.3767 65 35.4566 65 35.0559C65 34.6558 64.643 33.9207 64.207 33.4229C63.4825 32.5959 64.729 32.5302 78.5375 32.6684L93.661 32.8196L94.218 34.7083C94.524 35.7466 94.9165 36.4349 95.09 36.2369C95.263 36.0394 95.5565 36.6661 95.742 37.6301C95.9275 38.5947 96.2595 39.3836 96.479 39.3836C96.699 39.3836 97.1775 40.2186 97.543 41.2386C97.9085 42.2586 98.4985 43.4332 98.854 43.8476C99.209 44.2626 99.5 44.9298 99.5 45.3299C99.5 45.7306 99.95 46.6507 100.5 47.3744C101.05 48.0982 101.5 49.1804 101.5 49.7785C101.5 50.3767 101.692 50.7312 101.927 50.5651C102.398 50.2329 103.5 52.6376 103.5 53.9989C103.5 54.4737 103.709 54.7146 103.964 54.5342C104.219 54.3544 104.586 54.7768 104.78 55.4732C104.973 56.1695 105.451 57.1027 105.84 57.5479C106.23 57.9926 106.678 59.0925 106.836 59.9909C106.993 60.8898 107.303 61.4971 107.525 61.3407C107.747 61.1844 108.072 61.5736 108.247 62.206C108.791 64.1621 110.486 63.2523 111.22 60.6102C111.414 59.9138 111.762 59.4783 111.995 59.6427C112.228 59.8071 112.571 59.1513 112.757 58.1855C112.943 57.2197 113.397 56.2974 113.767 56.1353C114.137 55.9732 114.579 55.113 114.75 54.2232C114.921 53.3333 115.498 52.0314 116.031 51.3293C116.564 50.6278 117 49.6923 117 49.2511C117 48.8099 117.207 48.5942 117.46 48.7728C117.712 48.9509 118.071 48.3065 118.257 47.3407C118.443 46.375 118.91 45.4463 119.297 45.2768C119.683 45.1079 120 44.5011 120 43.9292C120 43.3579 120.291 42.5502 120.646 42.1353C121.002 41.7209 121.592 40.5462 121.957 39.5263C122.323 38.5057 122.819 37.6712 123.061 37.6712C123.303 37.6712 123.5 37.278 123.5 36.7974C123.5 36.3162 123.838 35.7751 124.25 35.5947C124.8 35.3533 125 34.3619 125 31.8687C125 29.9498 124.8 28.6124 124.54 28.7957C124.288 28.9737 123.933 28.3447 123.75 27.3973C123.567 26.4498 123.245 25.7974 123.034 25.9463C122.822 26.0959 122.357 25.2078 122 23.9726C121.643 22.7374 121.178 21.8493 120.966 21.9989C120.755 22.1478 120.433 21.4954 120.25 20.5479C120.067 19.6005 119.753 18.9429 119.55 19.0856C119.348 19.2289 118.886 18.4138 118.525 17.2745C117.908 15.3259 117.591 14.7386 116.172 12.9167C115.854 12.5086 115.276 11.101 114.887 9.78938C114.499 8.47717 114.05 7.55308 113.89 7.73573C113.73 7.91838 113.335 7.15125 113.011 6.03139C112.688 4.91153 112.23 3.99543 111.995 3.99543C111.76 3.99543 111.409 3.41724 111.216 2.71119C111.023 2.00456 110.615 1.23801 110.308 1.00742C110.001 0.776825 102.51 0.584473 93.6605 0.579336C79.694 0.571916 77.468 0.688926 76.7855 1.46746C76.3535 1.96119 76 2.73173 76 3.17979C76 3.62842 75.7925 3.99543 75.539 3.99543C75.285 3.99543 74.817 4.89669 74.4985 5.99829C74.18 7.09988 73.7575 7.88698 73.5595 7.74714C73.3615 7.60787 72.9045 8.63299 72.5445 10.0251C72.1845 11.4178 71.6935 12.5571 71.4545 12.5571C71.215 12.5571 70.8785 13.1975 70.706 13.98C70.534 14.7626 70.2105 15.274 69.9875 15.1164C69.764 14.9589 69.4295 15.6204 69.2435 16.5862C69.0575 17.5519 68.603 18.4743 68.2335 18.6364C67.8635 18.7985 67.4165 19.6821 67.24 20.6005C67.063 21.5188 66.73 22.137 66.4995 21.9749C66.269 21.8122 65.82 22.5805 65.5015 23.6821C65.183 24.7837 64.76 25.6849 64.5615 25.6849C64.363 25.6849 63.9115 26.5982 63.558 27.714C62.7985 30.1124 62.0265 30.0308 61.272 27.472C60.9715 26.4526 60.5985 25.7626 60.4435 25.9395C60.2885 26.1164 59.867 25.2414 59.5065 23.9943C59.146 22.7477 58.6775 21.8493 58.466 21.9989C58.2545 22.1478 57.9325 21.4954 57.75 20.5479C57.5675 19.6005 57.253 18.9429 57.05 19.0856C56.8475 19.2289 56.3865 18.4138 56.0255 17.2745C55.4085 15.3259 55.091 14.7386 53.6715 12.9167C53.3535 12.5086 52.7755 11.101 52.387 9.78938C51.9985 8.47717 51.55 7.55308 51.39 7.73573C51.2305 7.91838 50.835 7.15125 50.511 6.03139C50.1875 4.91153 49.73 3.99543 49.495 3.99543C49.26 3.99543 48.9095 3.41724 48.7165 2.71119C48.523 2.00456 48.1145 1.23801 47.8075 1.00742C47.0795 0.460045 15.4205 0.460045 14.6925 1.00742Z" fill="#0000FF"/>
<path fill-rule="evenodd" clip-rule="evenodd" d="M14.6925 1.00742C14.3855 1.23802 13.977 2.00457 13.7835 2.71119C13.5905 3.41781 13.24 3.99544 13.005 3.99544C12.77 3.99544 12.317 4.89669 11.9985 5.99829C11.68 7.09989 11.2575 7.88699 11.0595 7.74715C10.8615 7.60788 10.4045 8.63299 10.0445 10.0251C9.6845 11.4178 9.1935 12.5571 8.9545 12.5571C8.715 12.5571 8.3785 13.1975 8.206 13.98C8.034 14.7626 7.7105 15.274 7.4875 15.1164C7.264 14.9589 6.9295 15.6204 6.7435 16.5862C6.5575 17.5519 6.1145 18.4697 5.759 18.625C5.403 18.7808 4.977 19.6798 4.812 20.6221C4.647 21.5645 4.325 22.2043 4.0965 22.0434C3.8685 21.8818 3.401 22.6358 3.0585 23.7175C2.7155 24.7997 2.249 25.6849 2.022 25.6849C1.7945 25.6849 1.467 26.3271 1.2945 27.1119C1.122 27.8967 0.76 28.5388 0.4905 28.5388C0.2205 28.5388 0 29.4344 0 30.5285V32.5183L15.5805 32.6689L31.161 32.8196L31.718 34.7083C32.024 35.7466 32.4165 36.4349 32.59 36.2369C32.763 36.0394 33.0565 36.6661 33.242 37.6301C33.4275 38.5947 33.772 39.3836 34.0075 39.3836C34.2425 39.3836 34.72 40.2825 35.068 41.3813C35.416 42.48 35.8535 43.379 36.04 43.379C36.226 43.379 36.6775 44.214 37.043 45.234C37.4085 46.254 37.9985 47.4287 38.354 47.843C38.709 48.258 39 49.1079 39 49.7317C39 50.3562 39.192 50.7312 39.427 50.5651C39.898 50.2329 41 52.6376 41 53.9989C41 54.4737 41.209 54.7146 41.464 54.5342C41.719 54.3544 42.0865 54.7768 42.28 55.4732C42.4735 56.1695 42.951 57.1027 43.3405 57.5479C43.73 57.9926 44.178 59.0925 44.3355 59.9909C44.493 60.8898 44.813 61.4903 45.046 61.3259C45.2795 61.161 45.614 61.6792 45.7895 62.4766C45.965 63.2745 46.2915 63.9269 46.5155 63.9269C46.7395 63.9269 47.1825 64.8259 47.5 65.9247C47.8175 67.0234 48.263 67.9224 48.49 67.9224C48.7165 67.9224 49.14 68.7003 49.4305 69.6518C49.7205 70.6027 50.305 71.7768 50.729 72.2608C51.153 72.7449 51.5 73.6513 51.5 74.2751C51.5 74.8995 51.714 75.2586 51.9755 75.0742C52.237 74.8898 52.7205 75.7654 53.05 77.0194C53.379 78.274 53.8425 79.1632 54.08 78.996C54.3175 78.8288 54.649 79.4749 54.8165 80.4321C54.9845 81.3898 55.3085 82.0417 55.5365 81.8807C55.7645 81.7197 56.2205 82.6147 56.55 83.8687C56.879 85.1233 57.34 86.0148 57.574 85.8493C57.8085 85.6844 58 85.9309 58 86.3984C58 86.8653 58.291 87.5868 58.646 88.0017C59.0015 88.4161 59.5915 89.5908 59.957 90.6107C60.3225 91.6307 60.81 92.4657 61.0405 92.4657C61.271 92.4657 61.7275 93.4846 62.054 94.73C62.381 95.9755 62.822 96.8721 63.0335 96.7232C63.2455 96.5736 63.5675 97.226 63.75 98.1735C63.9325 99.121 64.2545 99.7734 64.466 99.6244C64.6775 99.4749 65.143 100.363 65.5 101.598C65.857 102.833 66.3225 103.721 66.534 103.572C66.7455 103.423 67.0675 104.073 67.249 105.018C67.431 105.962 67.7595 106.735 67.979 106.735C68.199 106.735 68.6775 107.57 69.043 108.59C69.4085 109.61 69.9425 110.757 70.229 111.139C70.5155 111.521 71.013 112.193 71.3345 112.635C71.656 113.076 72.234 114.501 72.619 115.802C73.004 117.103 73.45 118.018 73.61 117.835C73.7695 117.652 74.165 118.42 74.489 119.539C74.8125 120.659 75.281 121.575 75.5295 121.575C75.7775 121.575 76.12 122.208 76.29 122.982C76.7735 125.181 79.5 125.655 79.5 123.539C79.5 123.087 79.7075 122.717 79.961 122.717C80.215 122.717 80.6825 121.818 81 120.719C81.3175 119.62 81.781 118.721 82.0295 118.721C82.2775 118.721 82.6215 118.081 82.794 117.299C82.966 116.516 83.2895 116.005 83.5125 116.162C83.736 116.32 84.0705 115.658 84.2565 114.692C84.4425 113.727 84.9105 112.798 85.297 112.628C85.6835 112.459 86 111.853 86 111.281C86 110.709 86.291 109.902 86.646 109.487C87.0015 109.072 87.5915 107.898 87.957 106.878C88.3225 105.858 88.774 105.023 88.96 105.023C89.1465 105.023 89.584 104.124 89.932 103.025C90.28 101.926 90.775 101.027 91.0325 101.027C91.2895 101.027 91.5 100.66 91.5 100.212C91.5 99.7637 91.791 99.0571 92.146 98.6421C93.6565 96.879 94.1565 94.286 93.501 91.613C93.1565 90.21 92.6965 89.1878 92.478 89.3419C92.26 89.496 91.9325 88.8493 91.751 87.9047C91.569 86.96 91.2405 86.1872 91.021 86.1872C90.801 86.1872 90.326 85.3522 89.965 84.3322C89.604 83.3122 89.0145 82.2717 88.6545 82.0205C88.2945 81.7694 88 81.1027 88 80.5382C88 79.9743 87.55 78.9201 87 78.1963C86.45 77.4726 85.9965 76.3413 85.9925 75.6832C85.9865 74.8065 85.871 74.6906 85.5605 75.25C85.265 75.7825 84.934 75.2312 84.4685 73.4315C84.101 72.0114 83.6365 70.9652 83.4365 71.1067C83.236 71.2477 82.9135 70.7939 82.72 70.0976C82.5265 69.4013 82.049 68.468 81.6595 68.0228C81.27 67.5782 80.822 66.4783 80.6645 65.5799C80.507 64.6809 80.187 64.0805 79.954 64.2449C79.7205 64.4098 79.386 63.8916 79.2105 63.0942C79.035 62.2962 78.7185 61.6438 78.5065 61.6438C78.2945 61.6438 77.8225 60.8088 77.457 59.7888C77.0915 58.7688 76.5015 57.5942 76.146 57.1798C75.791 56.7648 75.5 56.0976 75.5 55.6975C75.5 55.2968 75.05 54.3767 74.5 53.653C73.95 52.9292 73.5 51.847 73.5 51.2489C73.5 50.6507 73.286 50.3122 73.0245 50.4966C72.763 50.6809 72.2795 49.8054 71.95 48.5514C71.621 47.2968 71.1575 46.4075 70.92 46.5748C70.6825 46.742 70.351 46.0959 70.1835 45.1387C70.0155 44.1809 69.6915 43.5291 69.4635 43.6901C69.2355 43.851 68.7795 42.956 68.45 41.7021C68.121 40.4475 67.684 39.5394 67.479 39.6838C67.2745 39.8282 66.966 39.3059 66.794 38.5234C66.6215 37.7409 66.2875 37.1005 66.051 37.1005C65.8145 37.1005 65.3255 36.2654 64.964 35.2454C64.6025 34.2255 64.069 33.1992 63.7785 32.9663C63.488 32.7329 70.0925 32.6045 78.4555 32.6809L93.661 32.8196L94.218 34.7083C94.524 35.7466 94.9165 36.4349 95.09 36.2369C95.263 36.0394 95.5565 36.6661 95.742 37.6301C95.9275 38.5947 96.2595 39.3836 96.479 39.3836C96.699 39.3836 97.1775 40.2186 97.543 41.2386C97.9085 42.2586 98.4985 43.4332 98.854 43.8476C99.209 44.2626 99.5 44.9298 99.5 45.3299C99.5 45.7306 99.95 46.6507 100.5 47.3744C101.05 48.0982 101.5 49.1804 101.5 49.7785C101.5 50.3767 101.692 50.7312 101.927 50.5651C102.398 50.2329 103.5 52.6376 103.5 53.9989C103.5 54.4737 103.709 54.7146 103.964 54.5342C104.219 54.3544 104.586 54.7768 104.78 55.4732C104.973 56.1695 105.451 57.1027 105.84 57.5479C106.23 57.9926 106.678 59.0925 106.836 59.9909C106.993 60.8898 107.303 61.4971 107.525 61.3408C107.747 61.1844 108.072 61.5736 108.247 62.206C108.791 64.1621 110.486 63.2523 111.22 60.6102C111.414 59.9138 111.762 59.4783 111.995 59.6427C112.228 59.8071 112.571 59.1513 112.757 58.1855C112.943 57.2197 113.397 56.2974 113.767 56.1353C114.137 55.9732 114.579 55.113 114.75 54.2232C114.921 53.3333 115.498 52.0314 116.031 51.3293C116.564 50.6279 117 49.6924 117 49.2511C117 48.8099 117.207 48.5942 117.46 48.7728C117.712 48.9509 118.071 48.3065 118.257 47.3408C118.443 46.375 118.91 45.4463 119.297 45.2768C119.683 45.1079 120 44.5011 120 43.9292C120 43.3579 120.291 42.5502 120.646 42.1353C121.002 41.7209 121.592 40.5462 121.957 39.5263C122.323 38.5057 122.819 37.6712 123.061 37.6712C123.303 37.6712 123.5 37.278 123.5 36.7974C123.5 36.3162 123.838 35.7751 124.25 35.5947C124.8 35.3533 125 34.3619 125 31.8687C125 29.9498 124.8 28.6124 124.54 28.7957C124.288 28.9737 123.933 28.3447 123.75 27.3973C123.567 26.4498 123.245 25.7974 123.034 25.9463C122.822 26.0959 122.357 25.2078 122 23.9726C121.643 22.7374 121.159 21.8624 120.925 22.0274C120.691 22.1924 120.5 21.9458 120.5 21.4783C120.5 21.0114 120.209 20.29 119.854 19.875C119.498 19.4606 118.888 18.222 118.497 17.1233C117.818 15.214 117.469 14.5816 116.172 12.9167C115.854 12.5086 115.246 11.0405 114.821 9.65468C114.396 8.26884 114.021 7.51998 113.989 7.99087C113.956 8.46176 113.618 7.87614 113.236 6.69007C112.855 5.50343 112.195 4.13699 111.771 3.6524C111.347 3.16838 111 2.43265 111 2.01827C111 1.60331 110.644 1.10788 110.209 0.917239C109.774 0.7266 102.253 0.570778 93.495 0.570778C79.6855 0.570778 77.467 0.69007 76.7855 1.46747C76.3535 1.96119 76 2.73174 76 3.1798C76 3.62843 75.7925 3.99544 75.539 3.99544C75.285 3.99544 74.817 4.89669 74.4985 5.99829C74.18 7.09989 73.7575 7.88699 73.5595 7.74715C73.3615 7.60788 72.9045 8.63299 72.5445 10.0251C72.1845 11.4178 71.6935 12.5571 71.4545 12.5571C71.215 12.5571 70.8785 13.1975 70.706 13.98C70.534 14.7626 70.2105 15.274 69.9875 15.1164C69.764 14.9589 69.4295 15.6204 69.2435 16.5862C69.0575 17.5519 68.603 18.4743 68.2335 18.6364C67.8635 18.7985 67.4165 19.6821 67.24 20.6005C67.063 21.5188 66.73 22.137 66.4995 21.9749C66.269 21.8122 65.82 22.5805 65.5015 23.6821C65.183 24.7837 64.76 25.6849 64.5615 25.6849C64.363 25.6849 63.9115 26.5982 63.558 27.714C62.7985 30.1124 62.0265 30.0308 61.272 27.472C60.9715 26.4526 60.5985 25.7626 60.4435 25.9395C60.2885 26.1164 59.867 25.2414 59.5065 23.9943C59.146 22.7477 58.6595 21.8624 58.4255 22.0274C58.1915 22.1924 58 21.9458 58 21.4783C58 21.0114 57.709 20.29 57.354 19.875C56.9985 19.4606 56.388 18.222 55.9975 17.1233C55.3185 15.214 54.969 14.5816 53.6715 12.9167C53.3535 12.5086 52.7455 11.0405 52.3205 9.65468C51.8955 8.26884 51.521 7.51998 51.4885 7.99087C51.456 8.46176 51.1175 7.87614 50.736 6.69007C50.3545 5.50343 49.695 4.13699 49.271 3.6524C48.847 3.16838 48.5 2.43265 48.5 2.01827C48.5 1.60331 48.144 1.10788 47.709 0.917239C46.574 0.420093 15.3605 0.505138 14.6925 1.00742Z" fill="#80FFFF"/>
<path fill-rule="evenodd" clip-rule="evenodd" d="M14.6925 1.00742C14.3855 1.23801 13.977 2.00456 13.7835 2.71119C13.5905 3.41781 13.24 3.99543 13.005 3.99543C12.77 3.99543 12.317 4.89669 11.9985 5.99829C11.68 7.09988 11.2575 7.88698 11.0595 7.74714C10.8615 7.60787 10.4045 8.63299 10.0445 10.0251C9.6845 11.4178 9.2115 12.5571 8.9935 12.5571C8.776 12.5571 8.342 13.2631 8.029 14.1267C7.0855 16.7294 5.97 18.8356 5.535 18.8356C5.3095 18.8356 4.987 19.6233 4.8185 20.5856C4.6495 21.5485 4.325 22.2043 4.0965 22.0434C3.8685 21.8818 3.401 22.6358 3.0585 23.7175C2.7155 24.7997 2.225 25.6849 1.9675 25.6849C1.7105 25.6849 1.5 26.2066 1.5 26.8442C1.5 27.4823 1.1625 28.1518 0.75 28.3322C0.288 28.5348 0 29.4018 0 30.5896V32.5183L15.5805 32.6689L31.161 32.8196L31.718 34.7083C32.024 35.7466 32.4165 36.4349 32.59 36.2369C32.763 36.0394 33.0565 36.6661 33.242 37.6301C33.4275 38.5947 33.772 39.3836 34.0075 39.3836C34.2425 39.3836 34.72 40.2825 35.068 41.3813C35.416 42.48 35.8535 43.379 36.04 43.379C36.226 43.379 36.6775 44.214 37.043 45.234C37.4085 46.254 37.9985 47.4286 38.354 47.843C38.709 48.258 39 49.1079 39 49.7317C39 50.3562 39.192 50.7312 39.427 50.5651C39.898 50.2329 41 52.6376 41 53.9989C41 54.4737 41.209 54.7146 41.464 54.5342C41.719 54.3544 42.0865 54.7768 42.28 55.4732C42.4735 56.1695 42.951 57.1027 43.3405 57.5479C43.73 57.9926 44.178 59.0925 44.3355 59.9909C44.493 60.8898 44.813 61.4903 45.046 61.3259C45.2795 61.161 45.614 61.6792 45.7895 62.4766C45.965 63.2745 46.2915 63.9269 46.5155 63.9269C46.7395 63.9269 47.1825 64.8259 47.5 65.9247C47.8175 67.0234 48.263 67.9224 48.49 67.9224C48.7165 67.9224 49.14 68.7003 49.4305 69.6518C49.7205 70.6027 50.305 71.7768 50.729 72.2608C51.153 72.7449 51.5 73.6513 51.5 74.2751C51.5 74.8995 51.714 75.2586 51.9755 75.0742C52.237 74.8898 52.7205 75.7654 53.05 77.0194C53.379 78.274 53.8425 79.1632 54.08 78.996C54.3175 78.8288 54.649 79.4749 54.8165 80.4321C54.9845 81.3898 55.3085 82.0417 55.5365 81.8807C55.7645 81.7197 56.2205 82.6147 56.55 83.8687C56.879 85.1233 57.34 86.0148 57.574 85.8493C57.8085 85.6844 58 85.9309 58 86.3984C58 86.8653 58.291 87.5868 58.646 88.0017C59.0015 88.4161 59.5915 89.5907 59.957 90.6107C60.3225 91.6307 60.81 92.4657 61.0405 92.4657C61.271 92.4657 61.7275 93.4846 62.054 94.73C62.381 95.9754 62.822 96.8721 63.0335 96.7232C63.2455 96.5736 63.5675 97.226 63.75 98.1735C63.9325 99.121 64.2545 99.7734 64.466 99.6244C64.6775 99.4749 65.143 100.363 65.5 101.598C65.857 102.833 66.3225 103.721 66.534 103.572C66.7455 103.423 67.0675 104.073 67.249 105.018C67.431 105.962 67.7595 106.735 67.979 106.735C68.199 106.735 68.6775 107.57 69.043 108.59C69.4085 109.61 69.9425 110.757 70.229 111.139C70.5155 111.521 71.013 112.193 71.3345 112.635C71.656 113.076 72.234 114.501 72.619 115.802C73.004 117.103 73.45 118.018 73.61 117.835C73.7695 117.652 74.165 118.42 74.489 119.539C74.8125 120.659 75.281 121.575 75.5295 121.575C75.7775 121.575 76.12 122.208 76.29 122.982C76.7735 125.181 79.5 125.655 79.5 123.539C79.5 123.087 79.7075 122.717 79.961 122.717C80.215 122.717 80.6825 121.818 81 120.719C81.3175 119.62 81.781 118.721 82.0295 118.721C82.2775 118.721 82.6215 118.081 82.794 117.299C82.966 116.516 83.2895 116.005 83.5125 116.162C83.736 116.32 84.0705 115.658 84.2565 114.692C84.4425 113.727 84.9105 112.798 85.297 112.628C85.6835 112.459 86 111.853 86 111.281C86 110.709 86.291 109.902 86.646 109.487C87.0015 109.072 87.5915 107.898 87.957 106.878C88.3225 105.858 88.774 105.023 88.96 105.023C89.1465 105.023 89.584 104.124 89.932 103.025C90.28 101.926 90.775 101.027 91.0325 101.027C91.2895 101.027 91.5 100.66 91.5 100.212C91.5 99.7637 91.791 99.0571 92.146 98.6421C93.6565 96.879 94.1565 94.286 93.501 91.613C93.1565 90.21 92.6965 89.1878 92.478 89.3419C92.26 89.496 91.9325 88.8493 91.751 87.9047C91.569 86.96 91.2405 86.1872 91.021 86.1872C90.801 86.1872 90.326 85.3522 89.965 84.3322C89.604 83.3122 89.0145 82.2717 88.6545 82.0205C88.2945 81.7694 88 81.1027 88 80.5382C88 79.9743 87.55 78.9201 87 78.1963C86.45 77.4726 85.9965 76.3413 85.9925 75.6832C85.9865 74.8065 85.871 74.6906 85.5605 75.25C85.265 75.7825 84.934 75.2312 84.4685 73.4315C84.101 72.0114 83.6365 70.9652 83.4365 71.1067C83.236 71.2477 82.9135 70.7939 82.72 70.0976C82.5265 69.4012 82.049 68.468 81.6595 68.0228C81.27 67.5782 80.822 66.4783 80.6645 65.5799C80.507 64.6809 80.187 64.0805 79.954 64.2449C79.7205 64.4098 79.386 63.8915 79.2105 63.0942C79.035 62.2962 78.7185 61.6438 78.5065 61.6438C78.2945 61.6438 77.8225 60.8088 77.457 59.7888C77.0915 58.7688 76.5015 57.5942 76.146 57.1798C75.791 56.7648 75.5 56.0976 75.5 55.6975C75.5 55.2968 75.05 54.3767 74.5 53.653C73.95 52.9292 73.5 51.847 73.5 51.2489C73.5 50.6507 73.286 50.3122 73.0245 50.4966C72.763 50.6809 72.2795 49.8054 71.95 48.5514C71.621 47.2968 71.1575 46.4075 70.92 46.5748C70.6825 46.742 70.351 46.0959 70.1835 45.1387C70.0155 44.1809 69.6915 43.5291 69.4635 43.6901C69.2355 43.851 68.7795 42.956 68.45 41.702C68.121 40.4475 67.684 39.5394 67.479 39.6838C67.2745 39.8282 66.966 39.3059 66.794 38.5234C66.6215 37.7409 66.2875 37.1005 66.051 37.1005C65.8145 37.1005 65.3255 36.2654 64.964 35.2454C64.6025 34.2255 64.069 33.1992 63.7785 32.9663C63.488 32.7329 70.0925 32.6044 78.4555 32.6809L93.661 32.8196L94.218 34.7083C94.524 35.7466 94.9165 36.4349 95.09 36.2369C95.263 36.0394 95.5565 36.6661 95.742 37.6301C95.9275 38.5947 96.2595 39.3836 96.479 39.3836C96.699 39.3836 97.1775 40.2186 97.543 41.2386C97.9085 42.2586 98.4985 43.4332 98.854 43.8476C99.209 44.2626 99.5 44.9298 99.5 45.3299C99.5 45.7306 99.95 46.6507 100.5 47.3744C101.05 48.0982 101.5 49.1804 101.5 49.7785C101.5 50.3767 101.692 50.7312 101.927 50.5651C102.398 50.2329 103.5 52.6376 103.5 53.9989C103.5 54.4737 103.709 54.7146 103.964 54.5342C104.219 54.3544 104.586 54.7768 104.78 55.4732C104.973 56.1695 105.451 57.1027 105.84 57.5479C106.23 57.9926 106.678 59.0925 106.836 59.9909C106.993 60.8898 107.303 61.4971 107.525 61.3407C107.747 61.1844 108.072 61.5736 108.247 62.206C108.791 64.1621 110.486 63.2523 111.22 60.6102C111.414 59.9138 111.762 59.4783 111.995 59.6427C112.228 59.8071 112.571 59.1513 112.757 58.1855C112.943 57.2197 113.397 56.2974 113.767 56.1353C114.137 55.9732 114.579 55.113 114.75 54.2232C114.921 53.3333 115.498 52.0314 116.031 51.3293C116.564 50.6279 117 49.6923 117 49.2511C117 48.8099 117.207 48.5942 117.46 48.7728C117.712 48.9509 118.071 48.3065 118.257 47.3408C118.443 46.375 118.91 45.4463 119.297 45.2768C119.683 45.1079 120 44.5011 120 43.9292C120 43.3579 120.291 42.5502 120.646 42.1353C121.002 41.7209 121.592 40.5462 121.957 39.5263C122.323 38.5057 122.819 37.6712 123.061 37.6712C123.303 37.6712 123.5 37.278 123.5 36.7974C123.5 36.3162 123.838 35.7751 124.25 35.5947C124.8 35.3533 125 34.3619 125 31.8687C125 29.9498 124.8 28.6124 124.54 28.7957C124.288 28.9737 123.933 28.3447 123.75 27.3973C123.567 26.4498 123.245 25.7974 123.034 25.9463C122.822 26.0959 122.357 25.2078 122 23.9726C121.643 22.7374 121.159 21.8624 120.925 22.0274C120.691 22.1923 120.5 21.9458 120.5 21.4783C120.5 21.0114 120.209 20.29 119.854 19.875C119.498 19.4606 118.888 18.222 118.497 17.1233C117.818 15.214 117.469 14.5816 116.172 12.9167C115.854 12.5086 115.246 11.0405 114.821 9.65468C114.396 8.26883 114.021 7.51998 113.989 7.99087C113.956 8.46176 113.618 7.87614 113.236 6.69007C112.855 5.50342 112.195 4.13698 111.771 3.6524C111.347 3.16838 111 2.43265 111 2.01826C111 1.60331 110.644 1.10787 110.209 0.917236C109.074 0.42009 77.8605 0.505135 77.1925 1.00742C76.8855 1.23801 76.477 2.00456 76.2835 2.71119C76.0905 3.41781 75.74 3.99543 75.505 3.99543C75.27 3.99543 74.817 4.89669 74.4985 5.99829C74.18 7.09988 73.7575 7.88698 73.5595 7.74714C73.3615 7.60787 72.9045 8.63299 72.5445 10.0251C72.1845 11.4178 71.7115 12.5571 71.4935 12.5571C71.276 12.5571 70.842 13.2637 70.529 14.1267C69.5695 16.7734 68.4675 18.8356 68.0125 18.8356C67.7745 18.8356 67.431 19.6084 67.249 20.5531C67.0675 21.4977 66.723 22.1324 66.4835 21.9635C66.2445 21.7945 65.7795 22.6832 65.45 23.9372C65.121 25.1918 64.66 26.0833 64.426 25.9178C64.1915 25.7529 63.993 26.0822 63.984 26.6501C63.963 28.0274 62.693 29.8836 62.0715 29.4458C61.7995 29.2534 61.429 28.3265 61.248 27.3858C61.0665 26.4446 60.7455 25.7974 60.534 25.9463C60.3225 26.0959 59.857 25.2078 59.5 23.9726C59.143 22.7374 58.6595 21.8624 58.4255 22.0274C58.1915 22.1923 58 21.9458 58 21.4783C58 21.0114 57.709 20.29 57.354 19.875C56.9985 19.4606 56.388 18.222 55.9975 17.1233C55.3185 15.214 54.969 14.5816 53.6715 12.9167C53.3535 12.5086 52.7455 11.0405 52.3205 9.65468C51.8955 8.26883 51.521 7.51998 51.4885 7.99087C51.456 8.46176 51.1175 7.87614 50.736 6.69007C50.3545 5.50342 49.695 4.13698 49.271 3.6524C48.847 3.16838 48.5 2.43265 48.5 2.01826C48.5 1.60331 48.144 1.10787 47.709 0.917236C46.574 0.42009 15.3605 0.505135 14.6925 1.00742Z" fill="#00FFFF"/>
<path fill-rule="evenodd" clip-rule="evenodd" d="M14.6475 1.28425C13.5555 2.92409 9.5 11.2831 9.5 11.8938C9.5 12.2586 9.297 12.5571 9.049 12.5571C8.801 12.5571 8.35 13.2631 8.0475 14.1267C7.7445 14.9903 7.055 16.4669 6.5145 17.4087C5.974 18.3505 5.179 19.8916 4.748 20.8333C3.0465 24.5491 2.333 25.9823 2.048 26.2557C1.331 26.9423 0 30.246 0 31.3379C0 32.5268 0.0970001 32.5342 15.5125 32.5342H31.025L31.5435 34.0925C31.829 34.9492 32.217 35.7837 32.4065 35.9475C32.5955 36.1107 33.4015 37.657 34.1975 39.3836C34.9935 41.1102 35.95 42.9281 36.3225 43.4241C36.695 43.9195 37 44.6261 37 44.9937C37 45.3613 37.18 45.6621 37.3995 45.6621C37.6195 45.6621 38.084 46.5611 38.432 47.6598C38.78 48.7586 39.275 49.6575 39.5325 49.6575C39.7895 49.6575 40 49.9549 40 50.3179C40 50.6815 41.35 53.6153 43 56.8379C44.65 60.0605 46 62.952 46 63.2643C46 63.5765 46.179 63.9172 46.398 64.0223C46.9145 64.2694 51.5 73.3927 51.5 74.1741C51.5 74.5029 51.703 74.7717 51.951 74.7717C52.199 74.7717 52.654 75.4783 52.962 76.3413C53.598 78.1239 55.1015 81.1935 55.548 81.621C55.8305 81.8921 56.672 83.5919 58.0905 86.758C58.442 87.5428 58.847 88.3134 58.9905 88.4703C59.134 88.6273 59.5885 89.5263 60 90.468C60.4115 91.4098 60.883 92.3088 61.047 92.4657C61.4365 92.8379 62.8065 95.7523 63.529 97.7454C63.842 98.609 64.279 99.3151 64.5 99.3151C64.721 99.3151 65.146 100.022 65.444 100.885C65.742 101.748 66.2015 102.84 66.4655 103.31C66.7295 103.781 67.895 106.093 69.055 108.447C70.2155 110.802 71.322 112.857 71.515 113.014C71.7075 113.171 72.023 113.876 72.2155 114.58C72.408 115.284 72.832 116.192 73.158 116.598C73.4835 117.002 74.402 118.738 75.1995 120.454C76.9695 124.264 77.4605 125.007 78.186 124.976C78.805 124.949 80.722 121.762 81.24 119.898C81.42 119.251 81.755 118.721 81.985 118.721C82.2145 118.721 82.65 118.015 82.9525 117.152C83.2555 116.288 83.949 114.812 84.494 113.87C85.039 112.928 85.716 111.556 85.998 110.82C86.572 109.322 90.5695 101.471 90.9835 101.027C91.13 100.87 91.9125 99.2962 92.7225 97.5291C94.096 94.5314 94.1535 94.1592 93.577 91.964C93.2375 90.6707 92.744 89.6119 92.48 89.6119C92.216 89.6119 91.991 89.2911 91.9805 88.8984C91.97 88.5063 91.196 86.7723 90.261 85.0457C89.3255 83.3191 87.9375 80.5576 87.176 78.9098C86.414 77.262 85.613 75.9132 85.3955 75.9132C85.178 75.9132 85 75.6159 85 75.2529C85 74.8893 83.65 71.9555 82 68.7329C80.35 65.5103 79 62.6187 79 62.3065C79 61.9943 78.821 61.6535 78.602 61.5485C78.0855 61.3014 73.5 52.1781 73.5 51.3967C73.5 51.0679 73.297 50.7991 73.049 50.7991C72.801 50.7991 72.346 50.093 72.038 49.2294C71.402 47.4469 69.8985 44.3773 69.452 43.9498C69.094 43.6067 67.757 40.8396 66.9005 38.6701C66.5595 37.8065 66.1325 37.1005 65.951 37.1005C65.7695 37.1005 65.3255 36.2654 64.964 35.2454C64.6025 34.2255 64.069 33.2015 63.7785 32.9709C63.488 32.7403 70.068 32.5479 78.401 32.5428L93.552 32.5342L94.075 34.2466C94.3625 35.1884 94.801 35.9589 95.049 35.9589C95.297 35.9589 95.5 36.2357 95.5 36.5742C95.5 37.3579 101.577 49.3082 102.105 49.5622C102.322 49.6672 102.5 50.0205 102.5 50.3482C102.5 51.254 108.691 63.335 109.16 63.3465C109.805 63.3619 110.834 61.9977 111.217 60.6216C111.409 59.9321 111.832 59.0342 112.158 58.6267C113.128 57.4115 113.986 55.7791 114.843 53.5103C115.288 52.3328 115.821 51.3699 116.027 51.3699C116.234 51.3699 116.65 50.6638 116.952 49.8002C117.255 48.9366 117.931 47.46 118.454 46.5183C118.977 45.5765 120.128 43.2648 121.011 41.3813C121.894 39.4977 122.758 37.8282 122.933 37.6712C123.581 37.0873 125 33.0205 125 31.7466C125 30.4092 123.648 26.7894 122.946 26.2443C122.735 26.0805 122.312 25.3099 122.006 24.532C121.17 22.4087 119.884 19.7289 119.548 19.4064C119.384 19.2494 118.583 17.6444 117.768 15.839C116.952 14.0337 116.133 12.5571 115.947 12.5571C115.761 12.5571 115.471 11.9326 115.303 11.1701C115.135 10.407 114.718 9.43493 114.374 9.0097C114.031 8.58447 113.098 6.83276 112.3 5.11701C111.503 3.40126 110.63 1.67294 110.359 1.27683C109.976 0.716324 106.238 0.589041 93.5945 0.70605L77.3225 0.856164L74.67 5.99315C73.211 8.81849 72.0135 11.4515 72.0085 11.8436C72.004 12.2363 71.797 12.5571 71.549 12.5571C71.301 12.5571 70.85 13.2637 70.5475 14.1267C70.2445 14.9903 69.547 16.4669 68.9975 17.4087C68.4475 18.3505 67.6455 19.8916 67.2145 20.8333C65.2465 25.1347 64.8265 25.9886 64.547 26.2557C64.383 26.4127 63.9295 27.2477 63.5395 28.1107C62.6275 30.1313 62.0745 30.0942 61.425 27.968C61.1375 27.0263 60.721 26.2557 60.5 26.2557C60.279 26.2557 59.842 25.5497 59.529 24.6861C58.8075 22.6963 57.437 19.7791 57.048 19.4064C56.884 19.2494 56.083 17.6444 55.2675 15.839C54.452 14.0337 53.633 12.5571 53.4465 12.5571C53.2605 12.5571 52.971 11.9326 52.8035 11.1701C52.6355 10.407 52.2175 9.43493 51.874 9.0097C51.531 8.58447 50.598 6.83276 49.8005 5.11701C49.0035 3.40126 48.132 1.67694 47.8645 1.28425C47.1595 0.251143 15.3355 0.251143 14.6475 1.28425Z" fill="#50FDDB"/>
<path fill-rule="evenodd" clip-rule="evenodd" d="M46.5 1.14783C46.5 1.46518 43.272 8.07934 39.327 15.8453C30.14 33.9309 30.899 32.1575 31.531 34.0548C31.8235 34.9321 32.217 35.7837 32.4065 35.9475C32.5955 36.1107 33.4015 37.657 34.1975 39.3836C34.9935 41.1102 35.95 42.9281 36.3225 43.4241C36.695 43.9195 37 44.6261 37 44.9937C37 45.3613 37.18 45.6621 37.3995 45.6621C37.6195 45.6621 38.084 46.5611 38.432 47.6598C38.78 48.7586 39.275 49.6575 39.5325 49.6575C39.7895 49.6575 40 49.9549 40 50.3179C40 50.6815 41.35 53.6153 43 56.8379C44.65 60.0605 46 62.9521 46 63.2643C46 63.5765 46.179 63.9172 46.398 64.0223C46.9145 64.2694 51.5 73.3927 51.5 74.1741C51.5 74.5029 51.703 74.7717 51.951 74.7717C52.199 74.7717 52.654 75.4783 52.962 76.3413C53.598 78.1239 55.1015 81.1935 55.548 81.621C55.8305 81.8921 56.672 83.5919 58.0905 86.758C58.442 87.5428 58.847 88.3134 58.9905 88.4703C59.134 88.6273 59.5885 89.5263 60 90.468C60.4115 91.4098 60.883 92.3088 61.047 92.4658C61.4365 92.8379 62.8065 95.7523 63.529 97.7454C63.842 98.6085 64.279 99.3151 64.5 99.3151C64.721 99.3151 65.146 100.022 65.444 100.885C65.742 101.748 66.2015 102.84 66.4655 103.311C66.7295 103.781 67.895 106.093 69.055 108.447C70.2155 110.802 71.322 112.857 71.515 113.014C71.7075 113.171 72.023 113.876 72.2155 114.58C72.408 115.284 72.832 116.192 73.158 116.598C73.4835 117.002 74.402 118.738 75.1995 120.454C76.9695 124.264 77.4605 125.007 78.186 124.976C78.805 124.949 80.722 121.762 81.24 119.898C81.42 119.251 81.755 118.721 81.985 118.721C82.2145 118.721 82.65 118.015 82.9525 117.152C83.2555 116.288 83.949 114.812 84.494 113.87C85.039 112.928 85.716 111.556 85.998 110.82C86.572 109.322 90.5695 101.471 90.9835 101.027C91.13 100.87 91.9125 99.2962 92.7225 97.5291C94.096 94.5314 94.1535 94.1593 93.577 91.964C93.2375 90.6707 92.744 89.6119 92.48 89.6119C92.216 89.6119 91.991 89.2911 91.9805 88.8984C91.97 88.5063 91.196 86.7723 90.261 85.0457C89.3255 83.3191 87.9375 80.5577 87.176 78.9098C86.414 77.2614 85.613 75.9132 85.3955 75.9132C85.178 75.9132 85 75.6159 85 75.2529C85 74.8893 83.65 71.9555 82 68.7329C80.35 65.5103 79 62.6187 79 62.3065C79 61.9943 78.821 61.6535 78.602 61.5485C78.0855 61.3014 73.5 52.1781 73.5 51.3967C73.5 51.0679 73.297 50.7991 73.049 50.7991C72.801 50.7991 72.346 50.093 72.038 49.2295C71.402 47.4469 69.8985 44.3773 69.452 43.9498C69.094 43.6067 67.757 40.8396 66.9005 38.6701C66.5595 37.8071 66.1325 37.1005 65.951 37.1005C65.7695 37.1005 65.325 36.2654 64.963 35.2454C64.6015 34.2255 63.899 32.9749 63.4025 32.4675C62.906 31.9595 62.5 31.2928 62.5 30.9852C62.5 30.2928 60.951 26.645 60.4915 26.2557C60.128 25.9481 58.8945 23.4161 57.9945 21.1301C57.688 20.3522 57.283 19.5816 57.0935 19.4178C56.9045 19.2546 56.083 17.6444 55.2675 15.839C54.452 14.0337 53.633 12.5571 53.4465 12.5571C53.2605 12.5571 52.971 11.9327 52.8035 11.1701C52.6355 10.407 52.2175 9.43493 51.874 9.0097C51.531 8.58448 50.598 6.83276 49.8005 5.11701C49.0035 3.40126 48.132 1.67694 47.8645 1.28425C47.2785 0.425228 46.5 0.347602 46.5 1.14783ZM109 1.14783C109 1.46518 105.772 8.07934 101.827 15.8453C92.626 33.9583 93.4165 32.0913 94.0575 34.1901C94.355 35.1632 94.801 35.9589 95.049 35.9589C95.297 35.9589 95.5 36.2357 95.5 36.5742C95.5 37.3579 101.577 49.3082 102.105 49.5622C102.322 49.6672 102.5 50.0206 102.5 50.3482C102.5 51.254 108.691 63.3351 109.16 63.3465C109.805 63.3619 110.834 61.9977 111.217 60.6216C111.409 59.9321 111.832 59.0342 112.158 58.6267C113.128 57.4115 113.986 55.7791 114.843 53.5103C115.288 52.3333 115.821 51.3699 116.027 51.3699C116.234 51.3699 116.65 50.6638 116.952 49.8002C117.255 48.9366 117.931 47.46 118.454 46.5183C118.977 45.5765 120.128 43.2648 121.011 41.3813C121.894 39.4977 122.758 37.8282 122.933 37.6712C123.581 37.0873 125 33.0206 125 31.7466C125 30.464 123.671 26.8311 122.992 26.2557C122.628 25.9481 121.394 23.4161 120.494 21.1301C120.188 20.3522 119.783 19.5816 119.593 19.4178C119.404 19.2546 118.583 17.6444 117.768 15.839C116.952 14.0337 116.133 12.5571 115.947 12.5571C115.761 12.5571 115.471 11.9327 115.303 11.1701C115.135 10.407 114.718 9.43493 114.374 9.0097C114.031 8.58448 113.098 6.83276 112.3 5.11701C111.503 3.40126 110.632 1.67694 110.365 1.28425C109.779 0.425228 109 0.347602 109 1.14783Z" fill="#03D9AF"/>
</g>
<defs>
<clipPath id="clip0_1_219">
<rect width="125" height="125" rx="62.5" fill="white"/>
</clipPath>
</defs>
</svg>
