<svg width="64" height="64" viewBox="0 0 64 64" fill="none" xmlns="http://www.w3.org/2000/svg">
<path fill-rule="evenodd" clip-rule="evenodd" d="M0 32V64H32H64V32V0H32H0V32Z" fill="#FFFBFF"/>
<path fill-rule="evenodd" clip-rule="evenodd" d="M0 32V64H32H64V32V0H32H0V32ZM42.559 18.468C43.626 19.276 44.028 19.951 43.45 19.968C42.873 19.986 41.872 19.472 41.227 18.827C40.338 17.938 39.443 17.933 37.527 18.806C36.137 19.439 35 19.592 35 19.145C35 16.642 39.6 16.23 42.559 18.468ZM35 24.686C35 28.785 38.13 33 41.174 33C43.514 33 43.473 33.412 40.75 37.264C37.415 41.98 35.986 43.325 35.202 42.482C34.816 42.066 35.063 41.525 35.75 41.28C36.438 41.034 37 40.196 37 39.417C37 38.638 37.45 38 38 38C39.666 38 39.119 34.203 37.25 32.795C36.288 32.069 34.938 30.475 34.25 29.251C32.756 26.594 32.587 21 34 21C34.55 21 35 22.658 35 24.686ZM45 24.559C45 25.902 44.55 27 44 27C43.45 27 43 25.623 43 23.941C43 22.156 43.417 21.139 44 21.5C44.55 21.84 45 23.216 45 24.559ZM21.608 24.75C23.105 26.722 23.473 32 22.113 32C21.626 32 21.015 30.762 20.755 29.25C20.495 27.738 19.946 25.712 19.534 24.75C19.123 23.788 19.122 23 19.533 23C19.943 23 20.877 23.788 21.608 24.75ZM25 35.596C25 36.473 25.949 38.524 27.109 40.153C28.269 41.782 28.907 43.426 28.527 43.806C27.705 44.628 25 41.18 25 39.309C25 38.589 24.55 38 24 38C23.45 38 23 37.1 23 36C23 34.9 23.45 34 24 34C24.55 34 25 34.718 25 35.596ZM33 46C33 46.55 32.325 47 31.5 47C30.675 47 30 46.55 30 46C30 45.45 30.675 45 31.5 45C32.325 45 33 45.45 33 46Z" fill="#EEFFFF"/>
<path fill-rule="evenodd" clip-rule="evenodd" d="M0 32V64H32H64V32V0H32H0V32ZM42.376 17.125C44.938 18.293 45.947 20.71 45.665 25C45.417 28.755 42.568 28.2 42.192 24.324C42.023 22.578 41.187 20.57 40.334 19.862C39.043 18.79 38.551 18.893 37.392 20.479C34.177 24.876 36.817 31.163 42.475 32.583C45.527 33.349 45.572 33.696 42.969 36.395C41.852 37.553 39.54 40.205 37.832 42.288C32.011 49.387 29.705 49.163 24.513 40.995C20.676 34.961 17.44 21 19.878 21C21.409 21 22.717 23.375 23.456 27.5C24.427 32.918 27.758 40.471 30.12 42.608C31.982 44.294 32.164 44.231 34.987 40.93C38.407 36.929 38.755 34.475 36.105 33.056C30.154 29.871 32.241 16.194 38.703 16.03C39.365 16.014 41.017 16.506 42.376 17.125Z" fill="#D9FFFF"/>
<path fill-rule="evenodd" clip-rule="evenodd" d="M0 32V64H32H64V32V0H32H0V32ZM43.114 16.061C45.783 17.49 47.269 21.752 46.509 25.802C46.002 28.506 45.478 29.066 43.693 28.812C41.958 28.565 41.396 27.665 41 24.5C40.335 19.178 37.628 18.96 37.193 24.193C36.813 28.768 39.631 32 44 32C46.333 32 47 32.444 47 34C47 35.286 46.333 36 45.133 36C44.051 36 42.109 37.748 40.514 40.157C37.309 45.001 33.228 49 31.49 49C27.643 49 20.922 38.009 18.508 27.769C16.599 19.675 16.546 20 19.791 20C22.427 20 22.675 20.394 24.245 27.083C25.874 34.023 30.225 43 31.961 43C32.443 43 33.827 41.398 35.037 39.44L37.237 35.881L35.094 33.601C30.457 28.665 30.296 20.486 34.766 16.969C37.567 14.766 40.166 14.483 43.114 16.061Z" fill="#00C68F"/>
<path fill-rule="evenodd" clip-rule="evenodd" d="M0 32V64H32H64V32V0H32H0V32ZM43.114 16.061C45.783 17.49 47.269 21.752 46.509 25.802C46.002 28.506 45.478 29.066 43.693 28.812C41.958 28.565 41.396 27.665 41 24.5C40.335 19.178 37.628 18.96 37.193 24.193C36.813 28.768 39.631 32 44 32C46.333 32 47 32.444 47 34C47 35.286 46.333 36 45.133 36C44.051 36 42.109 37.748 40.514 40.157C37.309 45.001 33.228 49 31.49 49C27.643 49 20.922 38.009 18.508 27.769C16.599 19.675 16.546 20 19.791 20C22.427 20 22.675 20.394 24.245 27.083C25.874 34.023 30.225 43 31.961 43C32.443 43 33.827 41.398 35.037 39.44L37.237 35.881L35.094 33.601C30.457 28.665 30.296 20.486 34.766 16.969C37.567 14.766 40.166 14.483 43.114 16.061ZM22 18.118C22 18.668 21.55 18.84 21 18.5C20.45 18.16 20 17.432 20 16.882C20 16.332 20.45 16.16 21 16.5C21.55 16.84 22 17.568 22 18.118ZM26.683 23.188C26.364 23.985 26.127 23.748 26.079 22.583C26.036 21.529 26.272 20.939 26.604 21.271C26.936 21.603 26.972 22.466 26.683 23.188ZM21.349 45.468C21.659 46.275 21.482 47.202 20.956 47.527C20.43 47.852 20 47.191 20 46.059C20 43.644 20.556 43.401 21.349 45.468ZM44 45C44 45.55 43.523 46 42.941 46C42.359 46 42.16 45.55 42.5 45C42.84 44.45 43.316 44 43.559 44C43.802 44 44 44.45 44 45Z" fill="#00BF8E"/>
<path fill-rule="evenodd" clip-rule="evenodd" d="M35.381 14.162C34.216 14.727 32.26 16.972 31.035 19.152C28.855 23.029 28.844 23.226 30.49 28.261C31.416 31.091 32.922 33.981 33.837 34.684C35.185 35.72 35.247 36.129 34.165 36.843C33.43 37.327 32.868 38.123 32.915 38.612C33.057 40.09 30.768 39.607 30.014 38C29.627 37.175 28.791 35.494 28.155 34.264C27.52 33.034 27 31.148 27 30.073C27 28.998 26.55 27.84 26 27.5C25.45 27.16 25 25.158 25 23.05C25 19.401 24.83 19.199 21.428 18.802C16.055 18.175 14.875 19.56 16.149 25C18.307 34.221 19.42 37.569 21.186 40.154C22.184 41.614 23 43.527 23 44.404C23 45.282 23.425 46 23.943 46C24.462 46 25.676 47.336 26.641 48.969C29.477 53.771 33.58 54.136 35.518 49.759C36.149 48.334 37.211 47.62 38.395 47.825C39.654 48.043 40.097 47.696 39.742 46.771C38.979 44.783 43.208 38.225 44.888 38.791C47.17 39.56 48.416 35.943 48.577 28.079C48.695 22.383 48.288 19.908 46.83 17.436C44.325 13.192 39.96 11.943 35.381 14.162ZM43.114 16.061C45.783 17.49 47.269 21.752 46.509 25.802C46.002 28.506 45.478 29.066 43.693 28.812C41.958 28.565 41.396 27.665 41 24.5C40.335 19.178 37.628 18.96 37.193 24.193C36.813 28.768 39.631 32 44 32C46.333 32 47 32.444 47 34C47 35.286 46.333 36 45.133 36C44.051 36 42.109 37.748 40.514 40.157C37.309 45.001 33.228 49 31.49 49C27.643 49 20.922 38.009 18.508 27.769C16.599 19.675 16.546 20 19.791 20C22.427 20 22.675 20.394 24.245 27.083C25.874 34.023 30.225 43 31.961 43C32.443 43 33.827 41.398 35.037 39.44L37.237 35.881L35.094 33.601C30.457 28.665 30.296 20.486 34.766 16.969C37.567 14.766 40.166 14.483 43.114 16.061Z" fill="#0DBA8D"/>
<path fill-rule="evenodd" clip-rule="evenodd" d="M33.455 16.455C32.105 17.805 31.014 19.492 31.03 20.205C31.047 20.917 31.577 20.6 32.208 19.5C33.986 16.399 36.214 15.066 39.677 15.032C43.561 14.993 46.945 18.793 47.116 23.385C47.185 25.227 47.425 25.752 47.705 24.671C49.835 16.423 39.465 10.444 33.455 16.455ZM18.75 19.662C19.438 19.94 20.563 19.94 21.25 19.662C21.938 19.385 21.375 19.158 20 19.158C18.625 19.158 18.063 19.385 18.75 19.662ZM16.079 21.583C16.127 22.748 16.364 22.985 16.683 22.188C16.972 21.466 16.936 20.603 16.604 20.271C16.272 19.939 16.036 20.529 16.079 21.583ZM23.645 23C24.436 27.313 25.005 28.126 24.985 24.917C24.976 23.587 24.527 21.825 23.986 21C23.294 19.945 23.193 20.538 23.645 23ZM37 23.453C37 27.152 38.985 30.761 41.372 31.402C45.015 32.379 45.386 32.069 43.024 30.021C41.769 28.932 40.35 28.284 39.871 28.58C39.392 28.876 39 28.641 39 28.059C39 27.477 39.45 27 40 27C40.55 27 41 25.65 41 24C41 21.667 40.556 21 39 21C37.544 21 37 21.667 37 23.453ZM30.195 24.5C30.215 26.15 30.439 26.704 30.693 25.731C30.947 24.758 30.93 23.408 30.656 22.731C30.382 22.054 30.175 22.85 30.195 24.5ZM39.094 26.306C38.302 27.098 38 26.838 38 25.367C38 22.723 39.398 21.32 39.844 23.517C40.033 24.449 39.695 25.705 39.094 26.306ZM17.158 26C17.158 27.375 17.385 27.938 17.662 27.25C17.94 26.563 17.94 25.438 17.662 24.75C17.385 24.063 17.158 24.625 17.158 26ZM46 28.5C45.282 29.365 45.185 30 45.771 30C46.329 30 47.045 29.325 47.362 28.5C47.678 27.675 47.781 27 47.591 27C47.401 27 46.685 27.675 46 28.5ZM25.047 29.261C24.968 32.244 31.322 44.194 32.314 42.927C32.497 42.692 33.678 41.009 34.938 39.186C37.223 35.878 37.224 35.867 35.25 33.686C34.163 32.484 32.775 30.6 32.167 29.5C31.559 28.4 31.047 28.037 31.03 28.694C31.014 29.351 32.081 31.146 33.403 32.682C35.622 35.262 35.697 35.686 34.377 38.238C33.591 39.757 32.618 41 32.215 41C31.169 41 28.93 37.231 26.867 32C25.892 29.525 25.073 28.292 25.047 29.261ZM18.079 30.583C18.127 31.748 18.364 31.985 18.683 31.188C18.972 30.466 18.936 29.603 18.604 29.271C18.272 28.939 18.036 29.529 18.079 30.583ZM46.825 33.674C47.251 35.767 47.503 36.019 47.794 34.644C48.011 33.623 47.751 32.351 47.218 31.818C46.592 31.192 46.452 31.849 46.825 33.674ZM19.058 33.783C18.975 35.634 23.546 44.059 26.264 47.063C28.809 49.877 32 51.493 32 49.969C32 49.436 31.365 49 30.589 49C28.583 49 24.077 43.362 21.399 37.5C20.143 34.75 19.089 33.077 19.058 33.783ZM42 37.91C42 38.411 40.165 41.223 37.923 44.16C35.681 47.097 35.118 48.104 36.673 46.399C43.254 39.179 44.816 37 43.41 37C42.634 37 42 37.41 42 37.91Z" fill="#12AE87"/>
<path fill-rule="evenodd" clip-rule="evenodd" d="M38.75 14.662C39.438 14.94 40.563 14.94 41.25 14.662C41.938 14.385 41.375 14.158 40 14.158C38.625 14.158 38.063 14.385 38.75 14.662ZM43 15.378C43 15.585 43.788 16.373 44.75 17.128C46.336 18.371 46.371 18.336 45.128 16.75C43.821 15.084 43 14.555 43 15.378ZM37 23.453C37 24.802 37.505 27.014 38.122 28.368C39.329 31.017 42.667 32.552 42.667 30.458C42.667 29.761 42.101 29.408 41.41 29.673C39.943 30.236 38 27.042 38 24.066C38 21.016 39.8 21.555 40.284 24.75C40.671 27.31 40.711 27.275 40.85 24.25C40.972 21.617 40.62 21 39 21C37.544 21 37 21.667 37 23.453ZM47.158 23C47.158 24.375 47.385 24.938 47.662 24.25C47.94 23.563 47.94 22.438 47.662 21.75C47.385 21.063 47.158 21.625 47.158 23ZM25.079 30.583C25.127 31.748 25.364 31.985 25.683 31.188C25.972 30.466 25.936 29.603 25.604 29.271C25.272 28.939 25.036 29.529 25.079 30.583ZM32 30.768C32 31.275 32.916 32.519 34.035 33.532C35.211 34.596 35.82 36.034 35.476 36.937C35.016 38.148 35.152 38.232 36.08 37.31C37.011 36.387 36.689 35.419 34.64 32.984C33.188 31.258 32 30.261 32 30.768ZM47.158 34C47.158 35.375 47.385 35.938 47.662 35.25C47.94 34.563 47.94 33.438 47.662 32.75C47.385 32.063 47.158 32.625 47.158 34ZM19.031 33.5C19.031 34.05 19.467 35.175 20 36C20.533 36.825 20.969 37.05 20.969 36.5C20.969 35.95 20.533 34.825 20 34C19.467 33.175 19.031 32.95 19.031 33.5ZM30.08 40.75C30.851 41.987 31.715 43 32 43C32.285 43 33.149 41.987 33.92 40.75C35.203 38.691 35.181 38.616 33.661 39.872C32.253 41.036 31.747 41.036 30.339 39.872C28.819 38.616 28.797 38.691 30.08 40.75ZM26.5 47C27.495 48.1 28.535 49 28.81 49C29.085 49 28.495 48.1 27.5 47C26.505 45.9 25.465 45 25.19 45C24.915 45 25.505 45.9 26.5 47ZM35.872 46.75C34.629 48.336 34.664 48.371 36.25 47.128C37.212 46.373 38 45.585 38 45.378C38 44.555 37.179 45.084 35.872 46.75Z" fill="#1CA987"/>
</svg>
