<svg width="250" height="250" viewBox="0 0 250 250" fill="none" xmlns="http://www.w3.org/2000/svg">
<rect width="250" height="250" rx="125" fill="#2380EE"/>
<path fill-rule="evenodd" clip-rule="evenodd" d="M0 125V250H125H250V125V0H125H0V125Z" fill="#88C0B2"/>
<path fill-rule="evenodd" clip-rule="evenodd" d="M0 125V250H125H250V125V0H125H0V125ZM129.729 76.604C129.397 76.936 128.534 76.972 127.813 76.683C127.015 76.364 127.252 76.127 128.417 76.079C129.471 76.036 130.061 76.272 129.729 76.604ZM144.128 83.75C145.371 85.336 145.336 85.371 143.75 84.128C142.084 82.821 141.555 82 142.378 82C142.585 82 143.373 82.787 144.128 83.75ZM52.174 100.716C50.487 101.037 50.022 101.619 50.483 102.83C50.967 104.103 50.84 104.224 49.946 103.337C48.34 101.744 49.649 99.971 52.309 100.136C54.42 100.267 54.415 100.289 52.174 100.716ZM97.707 105.238C97.468 106.482 97.263 105.7 97.252 103.5C97.241 101.3 97.437 100.282 97.687 101.238C97.937 102.194 97.946 103.994 97.707 105.238ZM195.729 107.604C195.397 107.936 194.534 107.972 193.813 107.683C193.015 107.364 193.252 107.127 194.417 107.079C195.471 107.036 196.061 107.272 195.729 107.604ZM118.5 114C119.495 115.1 120.085 116 119.81 116C119.535 116 118.495 115.1 117.5 114C116.505 112.9 115.915 112 116.19 112C116.465 112 117.505 112.9 118.5 114ZM154.693 115.731C154.439 116.704 154.215 116.15 154.195 114.5C154.175 112.85 154.382 112.054 154.656 112.731C154.93 113.408 154.947 114.758 154.693 115.731ZM136.683 116.188C136.364 116.985 136.127 116.748 136.079 115.583C136.036 114.529 136.272 113.939 136.604 114.271C136.936 114.603 136.972 115.466 136.683 116.188ZM133.729 120.604C133.397 120.936 132.534 120.972 131.813 120.683C131.015 120.364 131.252 120.127 132.417 120.079C133.471 120.036 134.061 120.272 133.729 120.604ZM83.5 127C86.766 130.3 89.212 133 88.937 133C88.662 133 85.766 130.3 82.5 127C79.234 123.7 76.788 121 77.063 121C77.338 121 80.234 123.7 83.5 127ZM99.5 123C100.495 124.1 101.085 125 100.81 125C100.535 125 99.495 124.1 98.5 123C97.505 121.9 96.915 121 97.19 121C97.465 121 98.505 121.9 99.5 123ZM111.128 134.75C112.371 136.336 112.336 136.371 110.75 135.128C109.787 134.373 109 133.585 109 133.378C109 132.555 109.821 133.084 111.128 134.75ZM132 167.326C132 167.505 130.762 168.742 129.25 170.076L126.5 172.5L128.924 169.75C131.19 167.18 132 166.541 132 167.326Z" fill="#3EAEB3"/>
<path fill-rule="evenodd" clip-rule="evenodd" d="M0 125V250H125H250V125V0H125H0V125ZM129.729 76.604C129.397 76.936 128.534 76.972 127.813 76.683C127.015 76.364 127.252 76.127 128.417 76.079C129.471 76.036 130.061 76.272 129.729 76.604ZM114.5 79C114.16 79.55 113.346 79.993 112.691 79.985C111.975 79.975 112.099 79.582 113 79C114.921 77.758 115.267 77.758 114.5 79ZM144.128 83.75C145.371 85.336 145.336 85.371 143.75 84.128C142.084 82.821 141.555 82 142.378 82C142.585 82 143.373 82.787 144.128 83.75ZM105.316 86.25C102.044 89.707 100.208 92.79 98.948 96.942C98.432 98.643 98.143 98.897 98.086 97.7C97.963 95.116 100.733 90.017 104.308 86.25C106.004 84.463 107.617 83 107.892 83C108.167 83 107.008 84.463 105.316 86.25ZM129.442 91.907C129.751 92.405 129.102 92.578 128.001 92.29C125.666 91.679 125.371 91 127.441 91C128.234 91 129.134 91.408 129.442 91.907ZM61.518 102.533C70.157 105.037 84.51 111.398 85.638 113.223C85.958 113.741 84.833 113.448 83.137 112.571C80.754 111.338 80.171 111.283 80.572 112.328C80.858 113.071 80.396 114.257 79.546 114.962C78.695 115.668 78 116.837 78 117.56C78 119.853 73.674 118.695 69.002 115.151C66.529 113.275 61.016 109.712 56.752 107.235C49.174 102.831 48.306 102.027 49.667 100.667C50.727 99.606 52.238 99.844 61.518 102.533ZM97.707 105.238C97.468 106.482 97.263 105.7 97.252 103.5C97.241 101.3 97.437 100.282 97.687 101.238C97.937 102.194 97.946 103.994 97.707 105.238ZM195.729 107.604C195.397 107.936 194.534 107.972 193.813 107.683C193.015 107.364 193.252 107.127 194.417 107.079C195.471 107.036 196.061 107.272 195.729 107.604ZM118.5 114C119.495 115.1 120.085 116 119.81 116C119.535 116 118.495 115.1 117.5 114C116.505 112.9 115.915 112 116.19 112C116.465 112 117.505 112.9 118.5 114ZM154.693 115.731C154.439 116.704 154.215 116.15 154.195 114.5C154.175 112.85 154.382 112.054 154.656 112.731C154.93 113.408 154.947 114.758 154.693 115.731ZM91.567 117.109C91.941 117.713 91.066 117.434 89.623 116.489C88.18 115.543 87 114.581 87 114.35C87 113.626 90.854 115.955 91.567 117.109ZM136.683 116.188C136.364 116.985 136.127 116.748 136.079 115.583C136.036 114.529 136.272 113.939 136.604 114.271C136.936 114.603 136.972 115.466 136.683 116.188ZM103.382 118.552C103.723 119.442 103.555 119.843 102.989 119.493C102.445 119.157 102 118.459 102 117.941C102 116.503 102.717 116.82 103.382 118.552ZM95.128 119.75C96.371 121.336 96.336 121.371 94.75 120.128C93.084 118.821 92.555 118 93.378 118C93.585 118 94.373 118.787 95.128 119.75ZM85.828 129.156C91.017 135.15 89.122 133.696 81.473 125.815C77.638 121.864 76.3 120.134 78.5 121.971C80.7 123.809 83.998 127.042 85.828 129.156ZM133.729 120.604C133.397 120.936 132.534 120.972 131.813 120.683C131.015 120.364 131.252 120.127 132.417 120.079C133.471 120.036 134.061 120.272 133.729 120.604ZM99.5 123C100.495 124.1 101.085 125 100.81 125C100.535 125 99.495 124.1 98.5 123C97.505 121.9 96.915 121 97.19 121C97.465 121 98.505 121.9 99.5 123ZM111.128 134.75C112.371 136.336 112.336 136.371 110.75 135.128C109.787 134.373 109 133.585 109 133.378C109 132.555 109.821 133.084 111.128 134.75ZM132 167.326C132 167.505 130.762 168.742 129.25 170.076L126.5 172.5L128.924 169.75C131.19 167.18 132 166.541 132 167.326Z" fill="#5DA69E"/>
<path fill-rule="evenodd" clip-rule="evenodd" d="M0 125V250H125H250V125V0H125H0V125ZM128.264 76.704C127.034 76.941 124.784 76.947 123.264 76.718C121.744 76.488 122.75 76.294 125.5 76.286C128.25 76.279 129.494 76.467 128.264 76.704ZM119.729 77.604C119.397 77.936 118.534 77.972 117.813 77.683C117.015 77.364 117.252 77.127 118.417 77.079C119.471 77.036 120.061 77.272 119.729 77.604ZM113 80.103C105.899 84.355 100.983 90.259 98.934 96.994C98.421 98.68 98.144 98.915 98.086 97.71C97.948 94.833 101.525 88.787 105.665 84.899C110.09 80.745 113.996 77.998 115.473 78.004C116.038 78.006 114.925 78.951 113 80.103ZM144.128 83.75C145.371 85.336 145.336 85.371 143.75 84.128C142.084 82.821 141.555 82 142.378 82C142.585 82 143.373 82.787 144.128 83.75ZM123.729 91.604C123.397 91.936 122.534 91.972 121.813 91.683C121.015 91.364 121.252 91.127 122.417 91.079C123.471 91.036 124.061 91.272 123.729 91.604ZM129.442 91.907C129.751 92.405 129.102 92.578 128.001 92.29C125.666 91.679 125.371 91 127.441 91C128.234 91 129.134 91.408 129.442 91.907ZM118 93.345C118 93.535 116.987 94.547 115.75 95.595L113.5 97.5L115.405 95.25C117.195 93.136 118 92.545 118 93.345ZM134.807 98.526C134.499 98.834 133.94 98.279 133.564 97.293C133.022 95.868 133.136 95.753 134.124 96.733C134.808 97.412 135.115 98.219 134.807 98.526ZM201 101.563C201 102.839 200.615 104.12 200.144 104.411C199.674 104.702 199.502 103.826 199.762 102.464C200.022 101.102 199.62 99.204 198.868 98.244C197.629 96.665 197.665 96.63 199.25 97.872C200.213 98.627 201 100.288 201 101.563ZM191.134 101.25C190.809 103.279 190.467 103.821 190.223 102.692C189.85 100.973 190.53 98 191.295 98C191.492 98 191.42 99.463 191.134 101.25ZM152.683 101.188C152.364 101.985 152.127 101.748 152.079 100.583C152.036 99.529 152.272 98.939 152.604 99.271C152.936 99.603 152.972 100.466 152.683 101.188ZM61.518 102.533C70.157 105.037 84.51 111.398 85.638 113.223C85.958 113.741 84.833 113.448 83.137 112.571C80.754 111.338 80.171 111.283 80.572 112.328C80.858 113.071 80.396 114.257 79.546 114.962C78.695 115.668 78 116.837 78 117.56C78 119.853 73.674 118.695 69.002 115.151C66.529 113.275 61.016 109.712 56.752 107.235C49.174 102.831 48.306 102.027 49.667 100.667C50.727 99.606 52.238 99.844 61.518 102.533ZM97.707 105.238C97.468 106.482 97.263 105.7 97.252 103.5C97.241 101.3 97.437 100.282 97.687 101.238C97.937 102.194 97.946 103.994 97.707 105.238ZM112.689 104.75C112.438 105.713 112.232 104.925 112.232 103C112.232 101.075 112.438 100.287 112.689 101.25C112.941 102.213 112.941 103.787 112.689 104.75ZM136.662 106.25C136.385 106.938 136.158 106.375 136.158 105C136.158 103.625 136.385 103.063 136.662 103.75C136.94 104.438 136.94 105.563 136.662 106.25ZM153.662 106.25C153.385 106.938 153.158 106.375 153.158 105C153.158 103.625 153.385 103.063 153.662 103.75C153.94 104.438 153.94 105.563 153.662 106.25ZM194.869 107.866C194.283 108.067 193.07 107.499 192.174 106.603C190.668 105.097 190.749 105.069 193.24 106.237C194.722 106.931 195.455 107.665 194.869 107.866ZM98.683 110.188C98.364 110.985 98.127 110.748 98.079 109.583C98.036 108.529 98.272 107.939 98.604 108.271C98.936 108.603 98.972 109.466 98.683 110.188ZM118.563 114.25L121.5 117.5L118.25 114.563C116.463 112.948 115 111.485 115 111.313C115 110.54 115.825 111.221 118.563 114.25ZM154.693 115.731C154.439 116.704 154.215 116.15 154.195 114.5C154.175 112.85 154.382 112.054 154.656 112.731C154.93 113.408 154.947 114.758 154.693 115.731ZM181 112.378C181 112.585 180.213 113.373 179.25 114.128C177.664 115.371 177.629 115.336 178.872 113.75C180.179 112.084 181 111.555 181 112.378ZM91.567 117.109C91.941 117.713 91.066 117.434 89.623 116.489C88.18 115.543 87 114.581 87 114.35C87 113.626 90.854 115.955 91.567 117.109ZM136.693 117.731C136.439 118.704 136.215 118.15 136.195 116.5C136.175 114.85 136.382 114.054 136.656 114.731C136.93 115.408 136.947 116.758 136.693 117.731ZM106.045 121.5C110.213 126.252 110.242 126.327 106.633 123C104.545 121.075 102.362 118.6 101.782 117.5C101.203 116.4 100.938 115.725 101.194 116C101.45 116.275 103.633 118.75 106.045 121.5ZM95.128 119.75C96.371 121.336 96.336 121.371 94.75 120.128C93.084 118.821 92.555 118 93.378 118C93.585 118 94.373 118.787 95.128 119.75ZM87.332 130.673C94.76 138.801 92.459 137.028 82.978 127.318C78.315 122.543 76.292 120.145 78.481 121.991C80.671 123.836 84.654 127.743 87.332 130.673ZM133.25 120.662C132.563 120.94 131.438 120.94 130.75 120.662C130.063 120.385 130.625 120.158 132 120.158C133.375 120.158 133.938 120.385 133.25 120.662ZM105.025 128.75L112.5 136.5L104.75 129.025C97.552 122.082 96.544 121 97.275 121C97.426 121 100.914 124.487 105.025 128.75ZM166 122.474C166 123.081 160.359 126.014 159.3 125.958C158.86 125.935 160.075 125.054 162 124C165.941 121.842 166 121.82 166 122.474ZM124.729 131.604C124.397 131.936 123.534 131.972 122.813 131.683C122.015 131.364 122.252 131.127 123.417 131.079C124.471 131.036 125.061 131.272 124.729 131.604ZM131.729 132.604C131.397 132.936 130.534 132.972 129.813 132.683C129.015 132.364 129.252 132.127 130.417 132.079C131.471 132.036 132.061 132.272 131.729 132.604ZM94.128 138.75C95.371 140.336 95.336 140.371 93.75 139.128C92.787 138.373 92 137.585 92 137.378C92 136.555 92.821 137.084 94.128 138.75ZM115.128 139.75C116.371 141.336 116.336 141.371 114.75 140.128C113.787 139.373 113 138.585 113 138.378C113 137.555 113.821 138.084 115.128 139.75ZM127 142C126.411 143.1 125.705 144 125.43 144C125.155 144 125.411 143.1 126 142C126.589 140.9 127.295 140 127.57 140C127.845 140 127.589 140.9 127 142ZM97.128 142.75C98.371 144.336 98.336 144.371 96.75 143.128C95.787 142.373 95 141.585 95 141.378C95 140.555 95.821 141.084 97.128 142.75ZM139 158.378C139 158.585 138.213 159.373 137.25 160.128C135.664 161.371 135.629 161.336 136.872 159.75C138.179 158.084 139 157.555 139 158.378ZM136 162.378C136 162.585 135.213 163.373 134.25 164.128C132.664 165.371 132.629 165.336 133.872 163.75C135.179 162.084 136 161.555 136 162.378ZM112.39 170.049C113 170.901 112.487 170.538 111.25 169.243C110.013 167.948 109.014 166.351 109.03 165.694C109.047 165.037 109.56 165.4 110.17 166.5C110.781 167.6 111.779 169.197 112.39 170.049ZM132 167.326C132 167.505 130.762 168.742 129.25 170.076L126.5 172.5L128.924 169.75C131.19 167.18 132 166.541 132 167.326ZM122.762 173.687C121.806 173.937 120.006 173.946 118.762 173.707C117.518 173.468 118.3 173.263 120.5 173.252C122.7 173.241 123.718 173.437 122.762 173.687Z" fill="#38A0A2"/>
<path fill-rule="evenodd" clip-rule="evenodd" d="M0 125V250H125H250V125V0H125H0V125ZM136.858 78.927C139.175 80.11 140.822 81.478 140.519 81.969C140.216 82.46 140.405 83.132 140.94 83.463C142.319 84.315 141.207 86.857 137.357 91.655C134.088 95.728 134.052 95.879 135.511 99.373C136.33 101.332 136.955 103.963 136.9 105.218C136.835 106.69 136.483 106.157 135.908 103.718C134.463 97.581 132.085 93.933 128.569 92.464C124.164 90.624 118.948 92.084 115.564 96.106C108.6 104.382 116.554 117.232 130.326 119.956C133.848 120.652 134.031 120.795 131.5 120.868C129.85 120.917 126.588 120.088 124.25 119.027C121.912 117.966 120 117.545 120 118.091C120 119.135 118.97 120.525 115.241 124.512L112.982 126.927L115.741 128.423C119.413 130.415 117.739 130.433 113.891 128.443C108.836 125.829 102.984 119.893 100.207 114.563C96.771 107.968 96.587 98.556 99.775 92.387C102.692 86.743 111.218 79.318 116.86 77.508C122.888 75.574 131.481 76.184 136.858 78.927ZM145.225 85.25C146.58 87.037 148.218 89.625 148.865 91C149.857 93.109 149.842 93.2 148.77 91.579C148.072 90.523 145.985 87.935 144.134 85.829C142.282 83.723 141.216 82 141.765 82C142.314 82 143.871 83.463 145.225 85.25ZM152.879 101C152.862 101.825 152.241 100.925 151.5 99C149.742 94.434 149.768 92.638 151.536 96.5C152.292 98.15 152.896 100.175 152.879 101ZM201 101.563C201 102.839 200.615 104.12 200.144 104.411C199.674 104.702 199.502 103.826 199.762 102.464C200.022 101.102 199.62 99.204 198.868 98.244C197.629 96.665 197.665 96.63 199.25 97.872C200.213 98.627 201 100.288 201 101.563ZM191.134 101.25C190.809 103.279 190.467 103.821 190.223 102.692C189.85 100.973 190.53 98 191.295 98C191.492 98 191.42 99.463 191.134 101.25ZM61.574 102.55C71.389 105.394 80.556 109.639 89.515 115.489C97.13 120.462 112.566 135.774 117.48 143.23C119.557 146.381 121.649 148.717 122.128 148.421C122.608 148.124 123 148.107 123 148.382C123 148.657 122.578 149.143 122.062 149.462C121.546 149.78 119.68 147.894 117.915 145.271C114.342 139.96 109.999 135 108.921 135C108.534 135 107.962 136.017 107.65 137.259C107.338 138.502 105.581 141.158 103.746 143.162L100.409 146.805L104.692 154.652C107.047 158.969 108.973 162.95 108.971 163.5C108.968 164.05 106.926 160.699 104.431 156.052C92.792 134.371 76.794 118.818 50.075 103.209C48.46 102.265 49.429 100 51.447 100C52.178 100 56.735 101.147 61.574 102.55ZM153.693 106.731C153.439 107.704 153.215 107.15 153.195 105.5C153.175 103.85 153.382 103.054 153.656 103.731C153.93 104.408 153.947 105.758 153.693 106.731ZM194.869 107.866C194.283 108.067 193.07 107.499 192.174 106.603C190.668 105.097 190.749 105.069 193.24 106.237C194.722 106.931 195.455 107.665 194.869 107.866ZM184.595 107.155C185.033 107.862 184.87 108.038 184.175 107.608C183.552 107.223 182.02 107.403 180.771 108.009C178.594 109.065 178.58 109.046 180.441 107.555C182.758 105.699 183.643 105.613 184.595 107.155ZM154.693 115.731C154.439 116.704 154.215 116.15 154.195 114.5C154.175 112.85 154.382 112.054 154.656 112.731C154.93 113.408 154.947 114.758 154.693 115.731ZM181 112.378C181 112.585 180.213 113.373 179.25 114.128C177.664 115.371 177.629 115.336 178.872 113.75C180.179 112.084 181 111.555 181 112.378ZM136.693 117.731C136.439 118.704 136.215 118.15 136.195 116.5C136.175 114.85 136.382 114.054 136.656 114.731C136.93 115.408 136.947 116.758 136.693 117.731ZM177 115.378C177 115.585 176.213 116.373 175.25 117.128C173.664 118.371 173.629 118.336 174.872 116.75C176.179 115.084 177 114.555 177 115.378ZM173 118.465C173 118.72 171.988 119.42 170.75 120.02C168.589 121.067 168.577 121.049 170.441 119.555C172.481 117.921 173 117.7 173 118.465ZM166 122.474C166 123.081 160.359 126.014 159.3 125.958C158.86 125.935 160.075 125.054 162 124C165.941 121.842 166 121.82 166 122.474ZM126.269 131.656C125.592 131.93 124.242 131.947 123.269 131.693C122.296 131.439 122.85 131.215 124.5 131.195C126.15 131.175 126.946 131.382 126.269 131.656ZM131.991 132.75C131.977 133.801 126.067 144 125.471 144C125.203 144 126.355 141.569 128.032 138.597C130.273 134.627 130.739 133.056 129.791 132.676C128.971 132.347 129.139 132.129 130.25 132.079C131.213 132.036 131.996 132.338 131.991 132.75ZM149.122 139.675C147.943 141.702 147.659 141.053 148.624 138.539C148.966 137.645 149.458 137.124 149.715 137.382C149.973 137.639 149.706 138.671 149.122 139.675ZM143 152C142.411 153.1 141.705 154 141.43 154C141.155 154 141.411 153.1 142 152C142.589 150.9 143.295 150 143.57 150C143.845 150 143.589 150.9 143 152ZM139 158.378C139 158.585 138.213 159.373 137.25 160.128C135.664 161.371 135.629 161.336 136.872 159.75C138.179 158.084 139 157.555 139 158.378ZM136 162.345C136 162.535 134.988 163.547 133.75 164.595L131.5 166.5L133.405 164.25C135.195 162.136 136 161.545 136 162.345ZM112.39 170.049C113 170.901 112.487 170.538 111.25 169.243C110.013 167.948 109.014 166.351 109.03 165.694C109.047 165.037 109.56 165.4 110.17 166.5C110.781 167.6 111.779 169.197 112.39 170.049ZM132 167.326C132 167.505 130.762 168.742 129.25 170.076L126.5 172.5L128.924 169.75C131.19 167.18 132 166.541 132 167.326ZM122.762 173.687C121.806 173.937 120.006 173.946 118.762 173.707C117.518 173.468 118.3 173.263 120.5 173.252C122.7 173.241 123.718 173.437 122.762 173.687Z" fill="#318F8E"/>
<path fill-rule="evenodd" clip-rule="evenodd" d="M0 125V250H125H250V125V0H125H0V125ZM137.933 79.56C143.668 82.681 147.014 86.604 150.573 94.378C152.978 99.633 155.65 115.139 154.477 117.037C154.15 117.567 154.346 118 154.912 118C157.103 118 172.523 111.896 177.671 108.99C182.951 106.01 185 105.835 185 108.363C185 111.321 161.279 126.705 158.413 125.605C157.579 125.285 157.144 125.424 157.447 125.914C157.75 126.404 156.706 127.255 155.128 127.805C152.947 128.566 152.103 129.636 151.61 132.266C150.704 137.095 142.21 154.248 141.073 153.545C140.559 153.227 139.813 153.494 139.415 154.138C138.937 154.912 139.127 155.04 139.975 154.515C140.831 153.986 141.105 154.185 140.796 155.111C140.542 155.875 139.846 156.5 139.25 156.5C138.654 156.5 137.792 156.91 137.333 157.41C136.849 157.939 137.024 158.019 137.75 157.601C139.613 156.529 139.261 158.544 137.308 160.128C136.158 161.06 135.857 161.099 136.367 160.25C137.462 158.428 136.471 158.721 134.872 160.692C133.94 161.842 133.901 162.143 134.75 161.633C136.867 160.361 136.131 162.578 133.767 164.595C131.95 166.146 131.786 166.175 132.89 164.75C134.822 162.255 133.678 162.58 131.405 165.172C130.357 166.366 130.063 167.015 130.75 166.613C132.892 165.361 132.12 167.539 129.574 169.93C128.142 171.276 126.645 171.898 125.92 171.45C125.176 170.991 124.947 171.105 125.34 171.741C126.119 173.002 123.827 174.001 120.168 173.996C114.745 173.989 111.609 170.792 106.24 159.8C95.378 137.563 77.406 118.8 54.75 106.046C44.753 100.418 47.896 98.634 61.124 102.428C84.963 109.266 105.468 124.764 120.099 147.001L121.699 149.432L126.333 141.515C131.245 133.124 131.183 132.046 125.788 132.015C121.082 131.989 112.38 128.087 107.556 123.84C100.788 117.883 97.559 111.116 97.609 103C97.66 94.829 100.045 89.943 107.06 83.636C116.108 75.501 127.671 73.975 137.933 79.56ZM121.333 92.097C116.904 93.38 113 98.312 113 102.626C113 111.092 121.697 119.127 131.971 120.153C135.371 120.493 135.459 120.408 136.254 116C138.03 106.166 134.346 94.878 128.573 92.466C126.643 91.66 124.937 91.041 124.782 91.09C124.627 91.14 123.075 91.593 121.333 92.097ZM199.8 98.2C201.692 100.092 201.206 103.516 198.75 105.595L196.5 107.5L198.33 105.332C202.043 100.936 199.224 96.974 193.421 98.43C189.504 99.414 190.63 105.744 195 107.306C196.212 107.739 196.175 107.857 194.807 107.921C190.901 108.103 188.395 100.034 191.75 98.08C194.147 96.684 198.347 96.747 199.8 98.2ZM173.5 111.897C165.978 115.775 164.551 116.89 164.808 118.683C165.013 120.108 164.456 121.038 163.149 121.453C162.066 121.796 160.584 122.796 159.855 123.675C158.235 125.626 167.5 121.07 174 116.718C179.251 113.203 184 108.974 184 107.813C184 106.581 183.221 106.884 173.5 111.897ZM142 150C141.411 151.1 141.155 152 141.43 152C141.705 152 142.411 151.1 143 150C143.589 148.9 143.845 148 143.57 148C143.295 148 142.589 148.9 142 150Z" fill="#2A7F7B"/>
<path fill-rule="evenodd" clip-rule="evenodd" d="M0 125V250H125H250V125V0H125H0V125ZM137.933 79.56C143.668 82.681 147.014 86.604 150.573 94.378C152.978 99.633 155.65 115.139 154.477 117.037C154.15 117.567 154.346 118 154.912 118C157.103 118 172.523 111.896 177.671 108.99C182.951 106.01 185 105.835 185 108.363C185 111.171 164.549 124.537 155.38 127.722C152.932 128.572 152.119 129.552 151.61 132.266C149.772 142.064 133.584 167.843 126.592 172.107C122.661 174.504 118.343 174.506 114.418 172.113C112.173 170.744 109.951 167.399 106.24 159.8C95.378 137.563 77.406 118.8 54.75 106.046C44.753 100.418 47.896 98.634 61.124 102.428C84.963 109.266 105.468 124.764 120.099 147.001L121.699 149.432L126.333 141.515C131.245 133.124 131.183 132.046 125.788 132.015C121.082 131.989 112.38 128.087 107.556 123.84C100.788 117.883 97.559 111.116 97.609 103C97.66 94.829 100.045 89.943 107.06 83.636C116.108 75.501 127.671 73.975 137.933 79.56ZM121.333 92.097C116.904 93.38 113 98.312 113 102.626C113 111.092 121.697 119.127 131.971 120.153C135.371 120.493 135.459 120.408 136.254 116C138.03 106.166 134.346 94.878 128.573 92.466C126.643 91.66 124.937 91.041 124.782 91.09C124.627 91.14 123.075 91.593 121.333 92.097ZM199.8 98.2C201.805 100.205 201.149 103.738 198.365 105.927C195.001 108.574 193.492 108.541 191.557 105.777C189.494 102.833 189.582 99.343 191.75 98.08C194.147 96.684 198.347 96.747 199.8 98.2Z" fill="#DAF7E4"/>
<path fill-rule="evenodd" clip-rule="evenodd" d="M104.946 84.75L101.5 88.5L105.25 85.054C107.313 83.158 109 81.471 109 81.304C109 80.54 108.154 81.26 104.946 84.75ZM130 93.378C130 93.585 130.787 94.373 131.75 95.128C133.336 96.371 133.371 96.336 132.128 94.75C130.821 93.084 130 92.555 130 93.378ZM195.813 96.683C196.534 96.972 197.397 96.936 197.729 96.604C198.061 96.272 197.471 96.036 196.417 96.079C195.252 96.127 195.015 96.364 195.813 96.683ZM97.079 98.583C97.127 99.748 97.364 99.985 97.683 99.188C97.972 98.466 97.936 97.603 97.604 97.271C97.272 96.939 97.036 97.529 97.079 98.583ZM136.252 110.5C136.263 112.7 136.468 113.482 136.707 112.238C136.946 110.994 136.937 109.194 136.687 108.238C136.437 107.282 136.241 108.3 136.252 110.5ZM154.195 109.5C154.215 111.15 154.439 111.704 154.693 110.731C154.947 109.758 154.93 108.408 154.656 107.731C154.382 107.054 154.175 107.85 154.195 109.5ZM180.872 112.75C179.629 114.336 179.664 114.371 181.25 113.128C182.213 112.373 183 111.585 183 111.378C183 110.555 182.179 111.084 180.872 112.75ZM69 115.378C69 115.585 69.787 116.373 70.75 117.128C72.336 118.371 72.371 118.336 71.128 116.75C69.821 115.084 69 114.555 69 115.378ZM134.564 119.707C134.022 121.132 134.136 121.247 135.124 120.267C135.808 119.588 136.115 118.781 135.807 118.474C135.499 118.166 134.94 118.721 134.564 119.707ZM75.5 121C76.495 122.1 77.535 123 77.81 123C78.085 123 77.495 122.1 76.5 121C75.505 119.9 74.465 119 74.19 119C73.915 119 74.505 119.9 75.5 121ZM105 122.5C106.292 123.875 107.574 125 107.849 125C108.124 125 107.292 123.875 106 122.5C104.708 121.125 103.426 120 103.151 120C102.876 120 103.708 121.125 105 122.5ZM104.5 128C106.648 130.2 108.631 132 108.906 132C109.181 132 107.648 130.2 105.5 128C103.352 125.8 101.369 124 101.094 124C100.819 124 102.352 125.8 104.5 128ZM152.459 129.067C152.096 129.653 152.014 130.348 152.276 130.61C152.538 130.872 153.019 130.392 153.345 129.543C154.021 127.781 153.445 127.471 152.459 129.067ZM125.75 132.662C126.438 132.94 127.563 132.94 128.25 132.662C128.938 132.385 128.375 132.158 127 132.158C125.625 132.158 125.063 132.385 125.75 132.662ZM89 134.378C89 134.585 89.787 135.373 90.75 136.128C92.336 137.371 92.371 137.336 91.128 135.75C89.821 134.084 89 133.555 89 134.378ZM120.613 148.183C120.902 148.65 121.557 148.774 122.069 148.457C123.377 147.649 123.23 147.333 121.544 147.333C120.743 147.333 120.324 147.716 120.613 148.183Z" fill="#B3DDCA"/>
</svg>
