<?xml version="1.0" encoding="UTF-8"?>
<svg version="1.1" xmlns="http://www.w3.org/2000/svg" width="250" height="250">
<path d="M0 0 C82.5 0 165 0 250 0 C250 82.5 250 165 250 250 C167.5 250 85 250 0 250 C0 167.5 0 85 0 0 Z " fill="#DAF7E3" transform="translate(0,0)"/>
<path d="M0 0 C6.90002727 4.07364794 11.50707867 9.97353004 14.35546875 17.390625 C14.71640625 18.2878125 15.07734375 19.185 15.44921875 20.109375 C16.55253155 24.10412824 16.57721567 27.65016003 16.48046875 31.765625 C16.47144531 32.50167969 16.46242188 33.23773438 16.453125 33.99609375 C16.42977019 35.7944138 16.39390711 37.59256411 16.35546875 39.390625 C25.43881307 36.38769054 34.06358693 33.45325789 42.25390625 28.39453125 C44.35546875 27.390625 44.35546875 27.390625 47.35546875 28.390625 C47.35546875 29.380625 47.35546875 30.370625 47.35546875 31.390625 C39.52311909 38.78541323 28.02791793 46.27446151 17.59375 49.15234375 C14.13939874 51.06338974 13.58998542 54.1952678 12.48046875 57.765625 C7.80635889 71.36719324 -0.3451414 86.41361897 -12.58203125 94.703125 C-15.49523347 95.67419241 -17.5842579 95.7578578 -20.64453125 95.390625 C-25.90237809 92.60216269 -28.07073999 89.43807593 -30.39453125 84.140625 C-38.77575862 66.34512096 -49.03371949 52.56022132 -64.64453125 40.390625 C-65.73701172 39.48183594 -65.73701172 39.48183594 -66.8515625 38.5546875 C-73.27740471 33.28525845 -80.38064534 29.3687133 -87.64453125 25.390625 C-87.64453125 24.400625 -87.64453125 23.410625 -87.64453125 22.390625 C-66.82357409 22.86677995 -49.71999336 33.85396604 -34.64453125 47.390625 C-33.86722656 48.08542969 -33.08992188 48.78023437 -32.2890625 49.49609375 C-26.01450254 55.42506693 -21.34263147 62.20464192 -16.64453125 69.390625 C-13.75946857 65.95990916 -11.49279464 62.53621276 -9.39453125 58.578125 C-8.61335938 57.11439453 -8.61335938 57.11439453 -7.81640625 55.62109375 C-7.4296875 54.88503906 -7.04296875 54.14898437 -6.64453125 53.390625 C-7.51851562 53.49503906 -7.51851562 53.49503906 -8.41015625 53.6015625 C-16.32256509 54.12408006 -22.10904861 51.77757896 -28.64453125 47.390625 C-34.86449565 41.8795169 -39.16582991 36.24835565 -39.98828125 27.90234375 C-40.47711121 15.54716643 -40.47711121 15.54716643 -36.328125 10.1640625 C-25.84644023 -0.87696972 -14.89253581 -6.72413382 0 0 Z " fill="#379898" transform="translate(137.64453125,78.609375)"/>
<path d="M0 0 C3.89932906 1.90818231 5.28109707 4.14267047 6.8125 8.0625 C8.70725107 14.52820422 8.87584405 21.5101847 7 28 C0.43142834 28.54738097 -4.60886823 28.00096571 -10 24 C-14.13290902 20.17551703 -16.37339511 16.55831019 -16.75 10.875 C-16.50149365 7.37430186 -15.87059652 5.09537978 -13.625 2.375 C-9.54007693 -1.04042261 -5.05105599 -0.95446376 0 0 Z " fill="#D3F4E2" transform="translate(129,92)"/>
<path d="M0 0 C0.66 0.66 1.32 1.32 2 2 C1.54545455 7.45454545 1.54545455 7.45454545 -1 10 C-4 10.25 -4 10.25 -7 10 C-9 8 -9 8 -9.3125 5 C-9.209375 4.01 -9.10625 3.02 -9 2 C-5.54754176 -0.30163882 -4.05261287 -0.34490322 0 0 Z " fill="#31847F" transform="translate(199,97)"/>
<path d="M0 0 C0 0.33 0 0.66 0 1 C-0.94875 1.226875 -1.8975 1.45375 -2.875 1.6875 C-6.19323388 2.69083714 -6.19323388 2.69083714 -7.375 5.625 C-7.58125 6.40875 -7.7875 7.1925 -8 8 C-8.33 8 -8.66 8 -9 8 C-9.1875 5.125 -9.1875 5.125 -9 2 C-5.5647952 -0.29013653 -4.014669 -0.17842973 0 0 Z " fill="#589F96" transform="translate(199,97)"/>
</svg>
