<svg width="32" height="32" viewBox="0 0 32 32" fill="none" xmlns="http://www.w3.org/2000/svg">
<g clip-path="url(#clip0_1_62)">
<path fill-rule="evenodd" clip-rule="evenodd" d="M0 15.9865C0 24.8156 7.17089 31.973 16 31.973C24.8291 31.973 32 24.8156 32 15.9865C32 7.15741 24.8291 0 16 0C7.17089 0 0 7.15741 0 15.9865Z" fill="#EFE29B"/>
<path fill-rule="evenodd" clip-rule="evenodd" d="M0 7.49368V12.0184C0 13.6581 1.32927 14.9874 2.969 14.9874C5.316 14.9874 5.805 15.3321 5.304 16.636C4.784 17.9888 5.13 18.1687 7.237 17.6401C11.096 16.6729 19 18.0028 19 19.6194C19 20.6746 16.857 20.9823 9.5 20.9823H5.49536C2.46036 20.9823 0 23.4427 0 26.4777C0 29.5127 2.46036 31.973 5.49536 31.973H16H26.5046C29.5396 31.973 32 29.5127 32 26.4777C32 21.0902 31.944 20.9823 29.122 20.9823C27.54 20.9823 25.685 20.3079 25 19.4836C24.14 18.4484 24.102 17.9848 24.878 17.9848C25.495 17.9848 26 17.3104 26 16.4861C26 15.4869 27 14.9874 29 14.9874C30.6569 14.9874 32 13.6442 32 11.9874V7.49368C32 3.35503 28.645 0 24.5063 0H16H7.49368C3.35503 0 0 3.35503 0 7.49368Z" fill="#EFDB74"/>
<path fill-rule="evenodd" clip-rule="evenodd" d="M0 5.90002V7.66239C0 9.8528 1.93 11.5414 4.101 11.2505L4.7506 11.1635C6.20421 10.9687 7.27529 12.491 6.601 13.7934C4.495 17.8629 4.574 18.3295 7.25 17.6261C10.941 16.6549 20 18.0728 20 19.6214C20 20.5736 18.613 20.9823 15.383 20.9823C11.259 20.9823 10.823 21.1951 11.29 22.9806C11.769 24.8121 11.32 24.9789 5.906 24.9789H3.49705C1.56568 24.9789 0 26.5446 0 28.476C0 30.4073 1.56568 31.973 3.49705 31.973H16H28.503C30.4343 31.973 32 30.4073 32 28.476C32 25.3326 31.722 24.9769 29.25 24.9539C27.121 24.935 26.11 24.1456 24.771 21.4569C23.301 18.5054 23.264 17.9848 24.521 17.9848C25.545 17.9848 26 16.9077 26 14.4878C26 12.0458 25.548 10.9907 24.5 10.9907C23.667 10.9907 23 11.879 23 12.989C23 16.0345 21.345 15.389 18.52 11.2405C17.4112 9.6126 18.5301 7.40107 20.4984 7.32992L23.984 7.20392L28.5462 7.03844C30.4736 6.96853 32 5.38576 32 3.45708C32 1.54779 30.4522 0 28.5429 0H16H5.90002C2.64153 0 0 2.64153 0 5.90002ZM15.807 14.5138C15.499 14.8215 14.94 14.267 14.564 13.2818C14.022 11.858 14.136 11.7431 15.124 12.7223C15.808 13.4007 16.115 14.207 15.807 14.5138Z" fill="#ECCC24"/>
<path fill-rule="evenodd" clip-rule="evenodd" d="M0 8.39792C0 10.1989 1.58691 11.5874 3.37199 11.3482L4.101 11.2505L4.7506 11.1635C6.20421 10.9687 7.27529 12.491 6.601 13.7934C4.495 17.8629 4.574 18.3295 7.25 17.6261C10.941 16.655 20 18.0728 20 19.6214C20 20.5736 18.613 20.9823 15.383 20.9823C11.259 20.9823 10.823 21.1951 11.29 22.9806C11.769 24.8121 11.32 24.9789 5.906 24.9789H3.51104C1.57194 24.9789 0 26.5509 0 28.49C0 30.4256 1.57439 31.9919 3.50999 31.982L16 31.9181L28.5719 31.8537C30.468 31.844 32 30.3042 32 28.408C32 25.3396 31.711 24.9759 29.25 24.9539C27.121 24.935 26.11 24.1456 24.771 21.4569C23.301 18.5054 23.264 17.9848 24.521 17.9848C25.545 17.9848 26 16.9077 26 14.4878C26 12.0458 25.548 10.9907 24.5 10.9907C23.667 10.9907 23 11.879 23 12.989C23 15.9805 21.293 15.406 18.775 11.5672C15.596 6.72233 12.134 4.99579 5.596 4.99579H3.40213C1.52319 4.99579 0 6.51897 0 8.39792ZM15 5.99495C15 6.58245 18.5 6.9941 23.5 6.9941C28.5 6.9941 32 6.58245 32 5.99495C32 5.40744 28.5 4.99579 23.5 4.99579C18.5 4.99579 15 5.40744 15 5.99495ZM15.807 14.5138C15.499 14.8215 14.94 14.267 14.564 13.2818C14.022 11.858 14.136 11.7431 15.124 12.7223C15.808 13.4007 16.115 14.207 15.807 14.5138Z" fill="#E0CB59"/>
<path fill-rule="evenodd" clip-rule="evenodd" d="M14.8 9.19223C15.46 9.85168 15.98 11.7631 15.956 13.4387C15.9444 14.245 14.8653 14.5041 14.4887 13.7911L13.9 12.6763C11.38 7.90632 9.47 8.20007 6.995 13.7384C5.04 18.1137 5.566 18.8971 9.014 16.7449C10.461 15.8426 11.475 15.7967 12.75 16.578C13.712 17.1685 17.087 17.749 20.25 17.8689L22.4536 17.9528C24.39 18.0265 26 16.4766 26 14.5387C26 11.9459 25.567 10.9907 24.393 10.9907C23.391 10.9907 22.998 11.5433 23.349 12.4575C23.894 13.8753 22.613 15.2611 20.454 15.5898C19.879 15.6778 19.341 14.8665 19.26 13.7854C19.178 12.7053 18.118 10.9598 16.903 9.90763C14.487 7.8144 12.871 7.26486 14.8 9.19223ZM11.321 22.4451C11.51 23.0146 13.915 23.6131 16.666 23.7749C20.604 24.0067 21.667 23.747 21.667 22.551C21.667 21.357 20.521 21.0722 16.321 21.2211C13.154 21.333 11.116 21.8316 11.321 22.4451ZM21.304 25.7902C20.656 26.1909 19.647 27.7746 19.063 29.3093C18.025 32.037 18.075 32.0929 21.251 31.7862C24.076 31.5144 24.456 31.1477 24.164 28.9756C23.745 25.8652 22.831 24.847 21.304 25.7902Z" fill="#C8B138"/>
<path fill-rule="evenodd" clip-rule="evenodd" d="M7 13.9882C5.29 17.3364 5.206 17.9848 6.48 17.9848C7.316 17.9848 8 17.5352 8 16.9857C8 15.5938 12.345 15.7317 13.783 17.1685C15.847 19.2308 16.148 17.3643 14.358 13.6125C12.056 8.78958 9.59 8.91547 7 13.9882ZM16 13.3667C16 16.589 17.786 17.827 22.25 17.6971C25.804 17.5941 26 17.4163 26 14.2899C26 10.5821 24.313 9.76875 23.82 13.2388C23.585 14.8854 22.831 15.4869 21 15.4869C19.625 15.4869 18.444 14.9254 18.375 14.238C18.081 11.2985 17.951 10.9907 17 10.9907C16.45 10.9907 16 12.0598 16 13.3667ZM12 14.0471C12 14.5647 11.55 14.9873 11 14.9873C10.45 14.9873 10 14.2859 10 13.4297C10 12.5734 10.45 12.1497 11 12.4895C11.55 12.8292 12 13.5296 12 14.0471ZM11.002 22.0644C10.998 23.4532 12.422 23.8748 13.658 22.8497C14.396 22.2372 15 22.1453 15 22.6459C15 23.1455 16.35 23.657 18 23.7829C20.087 23.9418 21 23.5611 21 22.53C21 21.3889 19.85 21.0982 16.002 21.2651C13.253 21.384 11.003 21.7436 11.002 22.0644Z" fill="#7E7232"/>
<path fill-rule="evenodd" clip-rule="evenodd" d="M7.685 13.5226C5.698 17.6871 5.545 18.8391 7.2 17.1855C8.649 15.7377 14 15.5798 14 16.9857C14 17.5352 14.459 17.9848 15.02 17.9848C15.582 17.9848 15.122 16.1863 14 13.9882C11.485 9.06335 9.87 8.94445 7.685 13.5226ZM17.345 13.9802C17.463 16.639 17.976 17.5402 19.5 17.767C21.318 18.0378 21.35 17.9439 19.847 16.7369C18.938 16.0065 17.969 14.3019 17.693 12.9501C17.36 11.3184 17.243 11.6652 17.345 13.9802ZM24 13.4057C24 14.7336 23.46 15.9995 22.801 16.2193C22.05 16.4691 22.238 16.8628 23.301 17.2704C24.699 17.807 25 17.3074 25 14.4568C25 12.5504 24.775 10.9907 24.5 10.9907C24.225 10.9907 24 12.0768 24 13.4057ZM12 13.4886C12 14.3129 11.325 14.9873 10.5 14.9873C8.938 14.9873 8.516 13.8053 9.667 12.6563C10.817 11.5063 12 11.9279 12 13.4886ZM15 22.3461C15 23.0615 15.675 23.647 16.5 23.647C17.325 23.647 18 23.3203 18 22.9207C18 22.522 17.325 21.9365 16.5 21.6198C15.64 21.29 15 21.5998 15 22.3461ZM19 22.9806C19 23.5301 19.477 23.9798 20.059 23.9798C20.641 23.9798 20.84 23.5301 20.5 22.9806C20.16 22.4311 19.684 21.9814 19.441 21.9814C19.198 21.9814 19 22.4311 19 22.9806Z" fill="#4A3E03"/>
<path fill-rule="evenodd" clip-rule="evenodd" d="M9.507 10.9797C9.157 11.5453 9.558 11.7131 10.448 11.3724C12.18 10.708 12.497 9.99158 11.059 9.99158C10.541 9.99158 9.843 10.4362 9.507 10.9797Z" fill="#2E2402"/>
</g>
<defs>
<clipPath id="clip0_1_62">
<rect width="32" height="32" rx="16" fill="white"/>
</clipPath>
</defs>
</svg>
