<svg width="66" height="66" viewBox="0 0 66 66" fill="none" xmlns="http://www.w3.org/2000/svg">
<g clip-path="url(#clip0_1_236)">
<path fill-rule="evenodd" clip-rule="evenodd" d="M1 32.4923V64.9846H33H65V32.4923V0H33H1V32.4923Z" fill="#235044"/>
<path fill-rule="evenodd" clip-rule="evenodd" d="M1 32.4923V64.9846H33H65V32.4923V0H33H1V32.4923ZM27 35.9274C27 36.7001 26.059 37.5824 24.908 37.8881C22.9 38.4211 22.887 38.3643 24.563 36.4828C26.641 34.1514 27 34.0692 27 35.9274ZM36.139 44.9348C39.746 44.9541 39.786 45.0008 40.556 50.1458C40.984 53.0021 41.421 56.2523 41.526 57.3692C41.632 58.4862 42.055 60.2001 42.466 61.1769C43.096 62.6746 42.666 62.9538 39.732 62.9538C33.789 62.9538 30.091 61.8654 30.686 60.2905C31.541 58.0262 29.034 55.8462 25.575 55.8462C22.543 55.8462 22.344 55.5974 21.308 50.5154C20.71 47.583 20.425 44.8384 20.674 44.416C20.923 43.9926 23.686 43.9326 26.813 44.2809C29.941 44.6302 34.138 44.9247 36.139 44.9348Z" fill="#356856"/>
<path fill-rule="evenodd" clip-rule="evenodd" d="M1.015 21.1291C1.003 38.147 1.267 42.6126 2.25 42.0491C3.25 41.4764 3.25 41.6064 2.25 42.7C0.547999 44.5622 0.547999 58.5379 2.25 59.2355C3.25 59.6447 3.25 59.7635 2.25 59.8275C1.563 59.8711 0.999999 61.0074 0.999999 62.3517C0.999999 64.7562 1.152 64.7968 10.638 64.8973C16.482 64.9602 20.812 64.549 21.638 63.8525C22.675 62.9792 23.004 63.0381 23.015 64.0992C23.028 65.2679 23.169 65.2699 23.89 64.1144C24.488 63.1569 24.958 63.0787 25.432 63.8575C25.893 64.615 32.414 64.9653 45.557 64.9369L65 64.8953V60.0661C65 57.4098 64.511 54.7404 63.913 54.1332C63.13 53.3381 63.13 52.8386 63.913 52.3471C65.399 51.415 65.287 48.0094 63.75 47.3799C62.862 47.0164 62.843 46.8448 63.683 46.7879C64.555 46.729 64.892 40.5626 64.963 23.3813L65.058 0.0558444L34.029 0.0314751C9.909 0.0121828 2.997 0.288367 2.985 1.27228C2.975 2.112 2.643 2.02569 2 1.01538C1.357 0.00609045 1.025 6.7848 1.015 21.1291ZM40.995 38.1368C40.077 43.9296 40.76 51.944 42.54 56.2665C43.105 57.6403 42.997 57.9947 42.17 57.4758C41.526 57.0717 41 57.1986 41 57.7571C41 58.3156 41.45 59.0548 42 59.4C42.55 59.7452 43 60.8469 43 61.8491C43 63.425 42.292 63.6128 37.75 63.2361C31.288 62.701 29.709 62.2217 30.44 61.0216C31.62 59.0832 29.726 56.7366 27.119 56.9062C21.924 57.2443 19.431 56.8747 20.828 55.9751C21.911 55.2785 21.936 53.9829 20.967 48.9781C19.604 41.9455 20.661 39.1177 26.362 34.5434C28.088 33.1574 28.898 32.7959 28.162 33.7392C26.676 35.643 27.729 36.101 35.214 36.8036C38.492 37.1123 39.065 36.8158 40.098 34.2824C41.802 30.1051 42.079 31.2941 40.995 38.1368ZM58.762 34.2053C57.806 34.4591 56.006 34.4682 54.762 34.2256C53.518 33.9829 54.3 33.7747 56.5 33.7636C58.7 33.7524 59.718 33.9514 58.762 34.2053ZM61 41.6308C61 43.8646 60.55 45.6923 60 45.6923C59.45 45.6923 59 43.8646 59 41.6308C59 39.3969 59.45 37.5692 60 37.5692C60.55 37.5692 61 39.3969 61 41.6308ZM29 41.6308C29 42.1892 29 42.8746 29 43.1538C29 44.4149 30.399 43.5509 30.599 42.1659C30.722 41.313 30.413 40.6154 29.912 40.6154C29.41 40.6154 29 41.0723 29 41.6308ZM52.345 48.9923C52.091 49.4117 51.009 49.7538 49.941 49.7538C48.873 49.7538 48 49.4117 48 48.9923C48 48.5729 49.082 48.2308 50.405 48.2308C51.727 48.2308 52.6 48.5729 52.345 48.9923Z" fill="#DDD9D7"/>
<path fill-rule="evenodd" clip-rule="evenodd" d="M1.015 21.1289C1.003 38.1468 1.267 42.6124 2.25 42.0489C3.25 41.4762 3.25 41.6062 2.25 42.6998C0.547999 44.562 0.547999 58.5377 2.25 59.2353C3.25 59.6445 3.25 59.7633 2.25 59.8273C1.563 59.8709 0.999999 61.0071 0.999999 62.3515C0.999999 64.7559 1.152 64.7966 10.638 64.8971C16.482 64.96 20.812 64.5488 21.638 63.8522C22.675 62.979 23.004 63.0379 23.015 64.099C23.028 65.2677 23.169 65.2697 23.89 64.1142C24.488 63.1567 24.958 63.0785 25.432 63.8573C25.893 64.6148 32.414 64.9651 45.557 64.9367L65 64.895V60.0659C65 57.4096 64.511 54.7402 63.913 54.133C63.13 53.3379 63.13 52.8384 63.913 52.3469C65.399 51.4148 65.287 48.0092 63.75 47.3797C62.862 47.0161 62.843 46.8445 63.683 46.7877C64.555 46.7288 64.892 40.5573 64.963 23.3607L65.058 0.0139999L34.029 0.0596922C10.621 0.0942153 2.996 0.403908 2.985 1.32182C2.975 2.06305 2.591 1.94323 2 1.01517C1.357 0.00587691 1.025 6.78458 1.015 21.1289ZM54.725 4.06132C54.813 5.24222 54.259 6.09209 53.403 6.09209C52.24 6.09209 52.155 5.66462 53 4.06132C53.589 2.9444 54.184 2.03055 54.322 2.03055C54.461 2.03055 54.642 2.9444 54.725 4.06132ZM61 4.39945C61 5.14474 60.368 5.75397 59.595 5.75397C58.823 5.75397 58.421 5.14474 58.702 4.39945C58.984 3.65517 59.616 3.04594 60.107 3.04594C60.598 3.04594 61 3.65517 61 4.39945ZM15.803 10.0054C14.35 10.5689 13.889 9.59821 14.651 7.58065C15.315 5.82505 15.384 5.83012 16.041 7.68929C16.421 8.7656 16.314 9.80738 15.803 10.0054ZM34 7.10748C34 7.66594 33.523 8.12286 32.941 8.12286C32.359 8.12286 32.16 7.66594 32.5 7.10748C32.84 6.54901 33.316 6.09209 33.559 6.09209C33.802 6.09209 34 6.54901 34 7.10748ZM21.75 9.73021C20.797 10.6979 18.886 9.13114 19.597 7.96446C20.019 7.27095 20.578 7.28821 21.296 8.01726C21.885 8.61532 22.089 9.386 21.75 9.73021ZM5.457 9.06818C5.774 9.58806 5.575 10.2998 5.016 10.6512C4.457 11.0015 4 10.576 4 9.70585C4 7.92181 4.6 7.65985 5.457 9.06818ZM11 9.70585C11 10.576 10.55 11.0066 10 10.6613C9.45 10.3161 9 9.60431 9 9.07834C9 8.55237 9.45 8.12286 10 8.12286C10.55 8.12286 11 8.83566 11 9.70585ZM54.729 9.75154C54.397 10.0886 53.534 10.1252 52.813 9.83175C52.015 9.50785 52.252 9.2672 53.417 9.21846C54.471 9.1748 55.061 9.41443 54.729 9.75154ZM60.729 9.75154C60.397 10.0886 59.534 10.1252 58.813 9.83175C58.015 9.50785 58.252 9.2672 59.417 9.21846C60.471 9.1748 61.061 9.41443 60.729 9.75154ZM36.128 11.8422C37.212 13.1764 37.234 13.6212 36.232 13.9634C35.535 14.202 34.377 14.993 33.659 15.722C31.791 17.6187 27 16.4856 27 14.1471C27 10.4522 33.635 8.77575 36.128 11.8422ZM16.342 13.6557C16.713 14.6376 16.418 14.9402 15.455 14.5645C14.661 14.2558 14.26 13.5938 14.565 13.0932C15.331 11.8341 15.697 11.9498 16.342 13.6557ZM17 26.3998C15.9 27.5167 14.534 28.4306 13.965 28.4306C13.263 28.4306 13.274 27.7766 14 26.3998C14.589 25.2829 15.955 24.369 17.035 24.369C18.977 24.369 18.976 24.3934 17 26.3998ZM23.454 28.0457C24.926 28.6194 24.931 28.8936 23.513 31.0919C21.439 34.3056 22.724 34.1553 26.195 30.7791C28.212 28.8174 29 28.4874 29 29.6064C29 31.6585 26.11 34.2355 22.294 35.586C19.806 36.4673 19.326 37.0999 19.783 38.8992C20.303 40.9523 20.204 41.0061 18.486 39.5998C16.809 38.227 16.687 38.2442 17.25 39.7694C17.636 40.8172 17.271 41.6976 16.294 42.0783C13.552 43.1465 13.818 42.0276 17.461 37.1822C20.956 32.5327 21.811 30.8482 20.144 31.894C19.674 32.1895 19.501 31.3021 19.761 29.9232C20.257 27.2903 20.804 27.0131 23.454 28.0457ZM41.447 31.1944C41.95 32.5256 42.296 32.6332 42.899 31.6432C44.246 29.4297 48.269 31.3965 52.25 36.2145C54.313 38.7113 56 41.1675 56 41.6742C56 42.5962 50.053 46.1318 49.543 45.5134C49.393 45.3326 48.744 44.1558 48.1 42.8998C46.527 39.8282 44.601 40.0202 43.008 43.4075L41.695 46.1998L40.895 43.6613C40.421 42.1545 40.33 43.5994 40.673 47.2152C40.991 50.5659 41.644 54.0771 42.125 55.0174C43.279 57.2725 43.232 58.1427 42 57.369C41.45 57.0238 41 57.1984 41 57.7569C41 58.3154 41.45 59.0546 42 59.3998C42.55 59.745 43 60.8467 43 61.8489C43 63.4248 42.292 63.6126 37.75 63.2359C31.191 62.6927 29.709 62.2225 30.491 60.9381C30.83 60.3796 30.6 59.1205 29.979 58.1387C28.956 56.5222 28.899 56.5181 29.379 58.093C29.788 59.4343 29.115 59.9836 26.444 60.4933C22.547 61.2356 18.814 59.2668 21.203 57.7285C22.215 57.0756 22.171 56.8857 21 56.8613C19.801 56.837 19.767 56.6582 20.828 55.9749C21.913 55.2763 21.936 53.9807 20.952 48.9007C19.874 43.3374 19.938 42.386 21.559 39.8719C25.59 33.6202 32.662 31.1569 37.629 34.2741C39.428 35.4032 39.847 35.3768 40.328 34.1035C40.7 33.1206 40.428 32.7784 39.55 33.1206C37.676 33.8507 36.432 31.4503 38.122 30.3638C40.113 29.0834 40.705 29.2307 41.447 31.1944ZM10.485 34.7767C9.598 40.3156 8.065 42.0296 8.311 37.2065C8.415 35.1768 8.838 33.5146 9.25 33.5115C9.662 33.5095 10 32.8221 10 31.9844C10 31.1467 10.265 30.4613 10.588 30.4613C10.911 30.4613 10.865 32.4038 10.485 34.7767ZM58.762 34.205C57.806 34.4589 56.006 34.468 54.762 34.2254C53.518 33.9827 54.3 33.7745 56.5 33.7634C58.7 33.7522 59.718 33.9512 58.762 34.205ZM41.195 37.0613C41.215 38.7367 41.439 39.2992 41.693 38.3113C41.947 37.3233 41.93 35.9525 41.656 35.2651C41.382 34.5777 41.175 35.3859 41.195 37.0613ZM30.762 36.2561C32.006 36.4988 33.806 36.4897 34.762 36.2358C35.718 35.982 34.7 35.783 32.5 35.7941C30.3 35.8053 29.518 36.0134 30.762 36.2561ZM61 41.6306C61 43.8644 60.55 45.6921 60 45.6921C59.45 45.6921 59 43.8644 59 41.6306C59 39.3967 59.45 37.569 60 37.569C60.55 37.569 61 39.3967 61 41.6306ZM29 41.6306C29 42.189 29 42.8744 29 43.1536C29 44.4147 30.399 43.5506 30.599 42.1657C30.722 41.3127 30.413 40.6152 29.912 40.6152C29.41 40.6152 29 41.0721 29 41.6306ZM52.345 48.9921C52.091 49.4114 51.009 49.7536 49.941 49.7536C48.873 49.7536 48 49.4114 48 48.9921C48 48.5727 49.082 48.2306 50.405 48.2306C51.727 48.2306 52.6 48.5727 52.345 48.9921ZM57.064 52.2129C56.415 53.0079 54.448 54.1442 52.692 54.7392L49.5 55.8205L52.306 53.2943C55.402 50.5081 59.156 49.6551 57.064 52.2129Z" fill="#D6B2A0"/>
<path fill-rule="evenodd" clip-rule="evenodd" d="M1.079 17.0077C1.029 28.0612 1.369 34.5231 2 34.5231C3.304 34.5231 3.304 42.3355 2 43.1539C1.45 43.4991 1 47.1464 1 51.2576V58.7349L4.27 59.8305C6.069 60.4337 9.332 60.8936 11.52 60.854C13.709 60.8134 16.85 61.1891 18.5 61.6877L21.5 62.5954L18 63.4504C14.527 64.2982 14.521 64.3074 17.31 64.7176C18.856 64.945 20.769 64.5856 21.56 63.9185C22.694 62.963 23.003 63.0016 23.015 64.0992C23.028 65.2679 23.169 65.27 23.89 64.1144C24.454 63.2118 24.974 63.1052 25.399 63.8037C25.818 64.4922 32.968 64.8618 45.524 64.8465L65 64.8222V60.0296C65 57.3936 64.511 54.7404 63.913 54.1332C63.13 53.3382 63.13 52.8386 63.913 52.3472C65.414 51.4049 65.285 47.7261 63.75 47.7079C62.917 47.6967 62.855 47.4428 63.565 46.9463C64.15 46.5361 64.731 44.2576 64.855 41.8846C65.051 38.1429 64.81 37.5692 63.041 37.5692C61.327 37.5692 61 38.2191 61 41.6308C61 43.8646 60.534 45.6923 59.965 45.6923C59.276 45.6923 59.302 46.398 60.042 47.8023C61.715 50.9774 60.565 52.6264 54.767 55.3669C48.365 58.3938 47.381 58.4516 46.71 55.8452C46.422 54.7272 46.585 54.0632 47.073 54.3688C47.988 54.9435 50.152 53.9088 53.329 51.3775C54.755 50.2412 54.931 49.4888 54.126 47.9617C53.388 46.5615 53.436 45.6476 54.297 44.7551C55.22 43.7976 54.845 43.8057 52.688 44.7907C50.086 45.9797 49.706 45.8588 47.596 43.1711L45.315 40.2671L44.21 43.4879C42.85 47.4479 41.028 47.6855 40.921 43.9154C40.878 42.3791 40.636 41.6298 40.385 42.2481C39.852 43.56 41.368 53.4265 42.539 56.2665C43.105 57.6404 42.997 57.9947 42.17 57.4759C41.526 57.0717 41 57.1987 41 57.7571C41 58.3156 41.45 59.0548 42 59.4C42.55 59.7452 43 59.5432 43 58.9522C43 58.3613 43.45 57.8769 44 57.8769C44.55 57.8769 45 59.0467 45 60.4753C45 61.904 44.588 62.8158 44.085 62.5C43.582 62.1842 43.02 62.2949 42.835 62.7467C42.651 63.1986 39.8 63.3153 36.5 63.0067C31.198 62.5112 30.539 62.2096 30.834 60.4154C31.103 58.7786 30.918 58.6304 29.884 59.6539C28.293 61.2267 21.365 61.3292 20.431 59.794C20.053 59.1736 20.364 58.2668 21.122 57.7795C22.262 57.0453 22.241 56.8869 21 56.8616C19.784 56.8362 19.755 56.6666 20.848 55.9629C21.95 55.2532 21.981 54.0428 21.014 49.3162C20.365 46.1381 20.105 42.8178 20.437 41.9384C20.976 40.5139 20.794 40.52 18.771 41.9923C14.592 45.0333 13 45.802 13 44.7785C13 42.2684 15.277 38.213 18.218 35.4857C19.993 33.8397 20.935 32.4923 20.31 32.4923C19.617 32.4923 19.354 31.3388 19.633 29.5355C19.895 27.851 19.576 26.2538 18.892 25.8243C18.178 25.3765 17.952 25.4994 18.334 26.1279C19.117 27.4134 16.344 29.9173 14.114 29.9386C12.832 29.9508 12.397 31.415 12 37.0616C11.439 45.0425 9.85 48.9598 7.949 47.0499C6.387 45.4801 7.383 37.3804 9.925 30.9692C12.742 23.8676 17.118 22.1659 21.289 26.5503C22.273 27.585 23.848 28.5008 24.789 28.5851C25.73 28.6704 26.95 28.8461 27.5 28.976C28.05 29.106 28.95 29.3182 29.5 29.4492C30.05 29.5802 30.893 29.6137 31.373 29.5254C31.853 29.436 31.964 30.1813 31.62 31.1815C31.055 32.8264 31.134 32.8183 32.453 31.0901C34.225 28.7709 41 28.0094 41 30.1295C41 31.087 41.745 31.3256 43.407 30.9022C46.08 30.2209 49.711 31.7673 52 34.5607C53.39 36.2584 57.389 37.0585 62.695 36.7011C64.839 36.5569 64.89 36.235 64.9 22.8147C64.906 15.2572 64.529 9.31414 64.062 9.60759C63.596 9.90002 63.605 8.42974 64.083 6.33906C65.589 -0.245705 65.981 1.79145e-05 54 1.79145e-05C44.007 1.79145e-05 41.122 0.73211 44 2.53848C45.691 3.59956 45.109 5.07694 43 5.07694C40.891 5.07694 40.309 6.55433 42 7.6154C43.76 8.71913 43.07 11.1692 41 11.1692C39.9 11.1692 39 10.7123 39 10.1539C39 9.5954 38.524 9.13848 37.943 9.13848C37.351 9.13848 37.571 10.1305 38.443 11.3957C40.912 14.9739 40.442 16.5427 37.053 16.037C35.432 15.7964 34.293 15.906 34.521 16.2817C34.75 16.6574 33.805 17.488 32.422 18.1287C29.372 19.5391 28.701 19.5888 29.457 18.347C29.774 17.8271 29.506 17.0717 28.862 16.6676C28.131 16.2086 27.959 16.3721 28.405 17.1042C28.797 17.7489 28.65 18.2769 28.078 18.2769C26.334 18.2769 25.651 13.331 27.138 11.4688C27.887 10.5316 27.985 10.0777 27.355 10.4605C26.725 10.8443 25.966 10.5123 25.668 9.72436C25.37 8.93642 25.873 8.00023 26.785 7.64485C28.166 7.10669 28.208 6.85082 27.036 6.11466C25.871 5.38359 25.854 4.95611 26.937 3.63103C28.382 1.86325 32 1.44491 32 3.04617C32 3.60463 33.377 4.06156 35.059 4.06156C36.741 4.06156 37.857 3.63306 37.538 3.10811C37.219 2.58417 37.755 1.66829 38.729 1.07125C40.022 0.280264 35.709 0.0325102 22.75 0.153341C12.988 0.244726 5 0.703679 5 1.17482C5 2.51919 2.224 2.17497 1.662 0.761556C1.385 0.0629717 1.122 7.37374 1.079 17.0077ZM55.93 7.7606C55.968 8.95774 55.261 10.2249 54.357 10.5773C51.93 11.5226 51.222 10.1965 53.321 8.63789C55.056 7.35039 55.058 7.24174 53.367 6.28119C51.824 5.40389 51.777 5.05054 53 3.55386C54.315 1.94549 54.453 1.95565 55.133 3.70922C55.532 4.74085 55.891 6.56346 55.93 7.7606ZM61.813 6.93205C62.074 9.61266 61.78 10.1539 60.063 10.1539C58.929 10.1539 58 9.69694 58 9.13848C58 8.58002 58.675 8.12309 59.5 8.12309C60.325 8.12309 61 7.66617 61 7.10771C61 6.54925 60.325 6.09233 59.5 6.09233C57.927 6.09233 57.518 4.88909 58.688 3.70211C60.068 2.30088 61.508 3.78842 61.813 6.93205ZM16.985 11.8993C16.996 14.2641 16.619 15.0186 15.62 14.6297C14.402 14.1545 14.223 12.146 14.906 6.60002C15.186 4.32149 16.97 8.87042 16.985 11.8993ZM22.616 9.75482C23.226 12.2222 21.981 14.1535 19.75 14.2002C18.524 14.2256 18.898 12.4019 20.25 11.7612C21.25 11.288 21.25 11.0504 20.25 10.5773C18.506 9.75076 18.682 7.10771 20.481 7.10771C21.295 7.10771 22.256 8.29876 22.616 9.75482ZM5.835 12.2415C5.651 13.5188 4.825 14.7881 4 15.0622C2.689 15.4978 2.681 15.3384 3.936 13.795C5.109 12.3532 5.131 11.879 4.058 11.2058C3.335 10.7519 3.077 9.833 3.485 9.16386C4.594 7.34226 6.232 9.48777 5.835 12.2415ZM11.816 11.5013C12.018 13.2325 11.656 14.2144 10.816 14.2134C10.041 14.2113 9.455 12.9441 9.392 11.1307C9.258 7.32703 11.367 7.64992 11.816 11.5013ZM47 10.1539C47 10.7123 46.523 11.1692 45.941 11.1692C45.359 11.1692 45.16 10.7123 45.5 10.1539C45.84 9.5954 46.316 9.13848 46.559 9.13848C46.802 9.13848 47 9.5954 47 10.1539ZM38 20.4265C38 20.919 37.1 21.3231 36 21.3231C34.9 21.3231 34 20.6804 34 19.8955C34 18.9674 34.7 18.6526 36 18.9979C37.1 19.2903 38 19.933 38 20.4265ZM42.335 19.6568C42.976 19.2923 42.487 19.9929 41.25 21.2134C40.013 22.4339 39 23.8819 39 24.4302C39 24.9795 37.893 25.94 36.541 26.5655C34.562 27.4814 33.57 27.3626 31.457 25.9573C28.931 24.2768 28.898 24.1357 30.592 22.2349C31.793 20.8875 32.678 20.59 33.376 21.2987C35.033 22.9812 37.887 22.4938 39.238 20.2976C39.929 19.1756 40.646 18.7217 40.832 19.2883C41.018 19.8559 41.695 20.0214 42.335 19.6568ZM31 20.7799C31 21.0388 30.11 21.7353 29.023 22.3263C27.409 23.2026 27.153 23.1163 27.629 21.8541C28.147 20.4834 31 19.5746 31 20.7799ZM55.662 24.6231C55.385 25.3217 55.158 24.75 55.158 23.3539C55.158 21.9577 55.385 21.3871 55.662 22.0846C55.94 22.7832 55.94 23.9255 55.662 24.6231ZM61 22.8462C61 23.6839 60.55 24.3692 60 24.3692C59.45 24.3692 59 23.6839 59 22.8462C59 22.0085 59.45 21.3231 60 21.3231C60.55 21.3231 61 22.0085 61 22.8462ZM24.662 26.6539C24.385 27.3524 24.158 26.7808 24.158 25.3846C24.158 23.9885 24.385 23.4178 24.662 24.1154C24.94 24.814 24.94 25.9563 24.662 26.6539ZM52 24.3692C52 24.9277 51.298 25.3846 50.441 25.3846C49.584 25.3846 49.16 24.9277 49.5 24.3692C49.84 23.8108 50.541 23.3539 51.059 23.3539C51.577 23.3539 52 23.8108 52 24.3692ZM25.25 34.5129C22.913 36.7072 21 38.8121 21 39.1898C21 39.5675 22.179 38.6791 23.621 37.2159C25.062 35.7527 26.586 34.7708 27.007 35.0359C28.01 35.6644 30.289 32.8568 29.845 31.5419C29.655 30.9814 27.587 32.3177 25.25 34.5129ZM39.459 33.5757C39.096 34.1708 39.014 34.8764 39.276 35.1425C39.538 35.4085 40.019 34.9211 40.345 34.0591C41.021 32.27 40.445 31.9552 39.459 33.5757ZM58.762 34.2053C57.806 34.4591 56.006 34.4683 54.762 34.2256C53.518 33.9829 54.3 33.7748 56.5 33.7636C58.7 33.7524 59.718 33.9514 58.762 34.2053ZM41.158 36.5539C41.158 37.95 41.385 38.5217 41.662 37.8231C41.94 37.1255 41.94 35.9832 41.662 35.2846C41.385 34.5871 41.158 35.1577 41.158 36.5539ZM30.25 36.2381C31.212 36.494 32.788 36.494 33.75 36.2381C34.712 35.9832 33.925 35.774 32 35.774C30.075 35.774 29.288 35.9832 30.25 36.2381ZM55.64 40.5951C57.832 45.0567 59 45.2608 59 41.183C59 38.0353 58.687 37.5692 56.577 37.5692C54.222 37.5692 54.195 37.6545 55.64 40.5951ZM29 41.6308C29 42.1892 29 42.8746 29 43.1539C29 44.415 30.399 43.5509 30.599 42.1659C30.722 41.313 30.413 40.6154 29.912 40.6154C29.41 40.6154 29 41.0723 29 41.6308ZM52.345 48.9923C52.091 49.4117 51.009 49.7539 49.941 49.7539C48.873 49.7539 48 49.4117 48 48.9923C48 48.573 49.082 48.2308 50.405 48.2308C51.727 48.2308 52.6 48.573 52.345 48.9923ZM13.269 52.4507C12.592 52.7289 11.242 52.7462 10.269 52.4883C9.296 52.2304 9.85 52.0029 11.5 51.9826C13.15 51.9623 13.946 52.1725 13.269 52.4507ZM1 62.9853C1 64.7115 1.571 65.009 4.5 64.809C6.425 64.677 8 64.1794 8 63.7022C8 63.225 8.45 63.1163 9 63.4616C9.55 63.8068 10 63.5479 10 62.8868C10 62.0959 8.987 61.8908 7.039 62.2857C5.41 62.6168 3.809 62.4452 3.48 61.905C2.446 60.2062 1 60.8368 1 62.9853Z" fill="#ACA297"/>
<path fill-rule="evenodd" clip-rule="evenodd" d="M1.079 17.0077L1 34.5231H3.45C4.798 34.5231 6.359 35.3232 6.92 36.3C7.481 37.2768 7.987 37.62 8.046 37.0616C8.597 31.8303 11.564 25.9644 14.453 24.3946C16.395 23.3397 17.337 23.3762 19.758 24.6018C22.386 25.934 22.818 25.9197 23.792 24.4698C24.768 23.0168 24.889 23.0391 24.941 24.683C24.974 25.6933 25.45 26.2376 26 25.8923C26.55 25.5471 27 25.9461 27 26.7798C27 28.6349 30.831 30.0239 32.178 28.6562C32.813 28.0114 32.275 26.7717 30.638 25.1095C29.254 23.7042 27.899 22.7792 27.628 23.0543C27.357 23.3295 27.359 22.6857 27.633 21.6237C27.996 20.2123 28.919 19.7482 31.062 19.8985C32.743 20.0173 33.739 19.6853 33.396 19.1217C33.067 18.5805 32.136 18.3968 31.326 18.7115C29.37 19.4741 26 17.5702 26 15.7029C26 14.8845 25.627 14.2154 25.17 14.2154C24.714 14.2154 24.791 11.6912 25.342 8.60642C26.175 3.94174 26.747 2.89488 28.745 2.38516C30.066 2.04907 31.653 2.28768 32.273 2.91722C34.006 4.67688 36.385 4.27987 37.788 1.9983C39.043 -0.0426258 38.897 -0.0649645 24.789 0.0609432C16.942 0.131005 9.765 0.599097 8.841 1.10171C7.716 1.71297 6.996 1.59824 6.66 0.753436C6.262 -0.245703 6.141 -0.243672 6.079 0.761559C5.976 2.41257 2.318 2.41257 1.662 0.761559C1.385 0.062974 1.122 7.37374 1.079 17.0077ZM43 0.812328C43 2.23184 45.199 3.92042 46.425 3.44319C47.191 3.14467 47.689 4.41897 47.843 7.07624C48.024 10.1894 47.712 11.1693 46.541 11.1693C44.699 11.1693 44.471 8.50894 46.25 7.7799C46.938 7.49864 46.439 7.23159 45.142 7.18793C43.117 7.11888 42.872 7.46513 43.407 9.63094C43.86 11.4647 43.416 12.7776 41.784 14.4347C40.548 15.6897 39.079 16.7691 38.518 16.8341C37.958 16.8991 36.637 17.0219 35.583 17.1072C33.219 17.2981 33.96 18.1906 36.973 18.7796C38.207 19.0202 39.879 18.545 40.689 17.7225C42.191 16.1974 44 16.566 44 18.3968C44 18.9552 43.555 19.1329 43.011 18.7917C42.445 18.4364 42.277 18.8435 42.618 19.7472C42.946 20.6144 42.732 21.3231 42.142 21.3231C41.553 21.3231 40.591 22.2319 40.005 23.3437C38.449 26.2954 41.354 30.4616 44.969 30.4616C46.49 30.4616 48.884 31.5683 50.354 32.9513C51.809 34.321 53 35.0064 53 34.4744C53 33.9433 54.533 33.5077 56.406 33.5077C59.32 33.5077 59.737 33.8012 59.29 35.5385C59 36.6625 57.926 37.5693 56.883 37.5693C54.513 37.5693 54.538 38.4344 57 41.6308L58.956 44.1693L58.978 40.8693C58.99 39.0537 59.45 37.5693 60 37.5693C60.55 37.5693 61 36.8839 61 36.0462C61 35.2004 61.889 34.5231 63 34.5231C64.69 34.5231 65 33.8458 65 30.1569C65 27.7556 64.438 25.1856 63.75 24.4454C62.75 23.3691 62.75 23.0066 63.75 22.635C65.199 22.0948 65.539 10.1539 64.105 10.1539C63.583 10.1539 63.573 8.56784 64.081 6.34617C65.589 -0.247734 65.982 2.01328e-05 54 2.01328e-05C47.95 2.01328e-05 43 0.365559 43 0.812328ZM55.985 7.86925C55.997 10.4971 55.593 11.1693 54 11.1693C52.34 11.1693 52 10.492 52 7.19199C52 4.92261 52.537 3.02688 53.25 2.77507C54.989 2.16279 55.967 3.98439 55.985 7.86925ZM61.475 3.69094C63.115 5.96845 62.211 9.86042 59.901 10.4747C58.283 10.9042 58 10.4128 58 7.18184C58 1.97494 59.3 0.670174 61.475 3.69094ZM18 11.811C18 14.3789 16.92 15.441 15.365 14.4022C13.748 13.3229 13.154 9.62079 14.273 7.59104C15.245 5.82731 15.337 5.82934 16.642 7.64181C17.389 8.67851 18 10.5549 18 11.811ZM23 11.2931C23 13.5381 22.537 14.2154 21 14.2154C19.4 14.2154 19 13.5381 19 10.8311C19 8.96891 19.296 7.14528 19.658 6.77771C20.895 5.5227 23 8.36679 23 11.2931ZM11.393 8.71405C12.867 12.6131 11.392 16.2238 8.951 14.6926C8.225 14.2367 8.238 13.6245 8.993 12.7005C9.781 11.7369 9.779 11.2637 8.985 10.9946C7.796 10.5925 8.706 7.10771 10 7.10771C10.432 7.10771 11.059 7.83067 11.393 8.71405ZM6.575 10.6037C7.288 13.4884 6.484 15.2308 4.441 15.2308C3.525 15.2308 3 14.1819 3 12.3542C3 7.64485 5.537 6.40304 6.575 10.6037ZM57.709 23.7326C57.503 24.3621 55.489 24.9501 53.233 25.0384C50.037 25.1643 49.254 24.878 49.685 23.7387C50.013 22.8716 50.967 22.5131 52.034 22.8573C53.023 23.1762 54.109 22.9812 54.448 22.4238C55.262 21.0855 58.192 22.2613 57.709 23.7326ZM61 23.3539C61 24.4708 60.55 25.3846 60 25.3846C59.45 25.3846 59 24.4708 59 23.3539C59 22.2369 59.45 21.3231 60 21.3231C60.55 21.3231 61 22.2369 61 23.3539ZM7.342 26.8559C7.714 27.8398 7.418 28.1404 6.449 27.7627C5.652 27.452 5 26.7899 5 26.2914C5 24.8313 6.735 25.2496 7.342 26.8559ZM11 26.4C11 26.9585 10.55 27.4154 10 27.4154C9.45 27.4154 9 26.9585 9 26.4C9 25.8416 9.45 25.3846 10 25.3846C10.55 25.3846 11 25.8416 11 26.4ZM18.009 28.4145C17.38 29.6076 16.089 30.3316 14.84 30.1915C13.015 29.9853 12.705 30.5367 12.527 34.3099C12.414 36.7062 12.768 38.9471 13.315 39.2903C13.909 39.663 13.99 39.3898 13.515 38.61C12.988 37.7429 13.184 37.4626 14.101 37.7723C16.12 38.4557 19.376 33.7037 19.572 29.7884C19.768 25.8751 19.481 25.6222 18.009 28.4145ZM36 27.4154C35.099 28.0064 34.975 28.4054 35.691 28.4156C36.346 28.4237 37.16 27.9739 37.5 27.4154C38.267 26.1543 37.921 26.1543 36 27.4154ZM25.405 34.7769L23.5 37.0616L25.75 35.1273C26.988 34.0631 28 33.0356 28 32.8426C28 32.0303 27.195 32.6304 25.405 34.7769ZM60.775 42.3923C60.328 47.4621 61.318 51.6547 63.313 53.129C64.086 53.7007 63.89 53.8073 62.75 53.4357C61.788 53.1209 60.245 53.1574 59.323 53.5169C57.823 54.1017 57.849 54.251 59.573 54.9374C63.542 56.5153 64.493 55.9843 64.704 52.0689C64.816 49.9925 64.366 47.9434 63.704 47.516C62.945 47.0255 62.902 46.7331 63.588 46.7229C64.186 46.7148 64.752 44.6516 64.846 42.1385C64.99 38.2597 64.728 37.5693 63.109 37.5693C61.56 37.5693 61.121 38.475 60.775 42.3923ZM4.048 41.579C3.249 42.0928 2.316 42.3365 1.974 42.1222C1.632 41.908 1.256 43.8961 1.137 46.5402L0.921 51.347L8.929 51.5206C13.334 51.6161 17.191 51.2769 17.501 50.7682C17.811 50.2595 18.725 50.1001 19.532 50.4149C21.294 51.1013 21.443 49.0299 19.922 44.9968L18.845 42.1385L16.922 44.5358C15.865 45.8538 15 46.6377 15 46.2772C15 45.9157 14.17 46.0721 13.155 46.6234C12.14 47.1748 10.22 47.8267 8.889 48.0724C6.62 48.4897 6.491 48.2694 6.839 44.5663C7.217 40.5423 6.634 39.9178 4.048 41.579ZM45.298 43.2869C45.645 43.6402 45.27 44.8841 44.465 46.0518C42.869 48.3648 42.451 52.2497 43.895 51.3429C44.388 51.0333 45.048 51.4638 45.364 52.2984C46.104 54.2561 49.398 54.252 51 52.2923C51.685 51.4546 52.865 50.7693 53.622 50.7693C54.38 50.7693 55 50.3397 55 49.8138C55 48.3445 53.216 47.5617 52.51 48.7222C51.759 49.9559 48 50.1143 48 48.9121C48 48.4481 48.967 48.1059 50.149 48.1506C51.331 48.1942 52.509 47.6114 52.767 46.8549C53.103 45.87 52.657 45.6659 51.199 46.1361C49.693 46.6214 48.992 46.2518 48.513 44.7196C48.157 43.5793 47.146 42.6462 46.266 42.6462C45.386 42.6462 44.951 42.9345 45.298 43.2869ZM15 48.7385C15 49.2969 13.988 49.7214 12.75 49.6828C10.603 49.6148 10.592 49.5711 12.5 48.7385C13.6 48.2582 14.613 47.8338 14.75 47.7942C14.887 47.7556 15 48.18 15 48.7385ZM50.269 51.4353C49.592 51.7136 48.242 51.7308 47.269 51.4729C46.296 51.215 46.85 50.9876 48.5 50.9673C50.15 50.9469 50.946 51.1571 50.269 51.4353ZM1 55.7781C1 59.3015 1.732 59.6153 12 60.4824C16.124 60.8317 19.913 61.376 20.42 61.6938C20.941 62.0207 21.035 61.4633 20.636 60.4093C20.235 59.3472 20.428 58.2354 21.086 57.8231C22.832 56.7275 15.354 54.5475 11.711 55.0907C9.836 55.37 8.027 55.0034 7.215 54.1789C6.468 53.4204 4.764 52.8 3.429 52.8C1.409 52.8 1 53.3016 1 55.7781ZM45.032 59.5351C44.995 64.4231 45.318 64.5622 57.456 64.8882L65 65.0913V61.1059V57.1195L59.814 56.6138C56.52 56.2929 53.382 56.6361 51.214 57.5561C48.111 58.873 47.677 58.8375 46.432 57.1713C45.203 55.5253 45.06 55.7649 45.032 59.5351ZM41 57.7571C41 58.3156 41.45 59.0548 42 59.4C42.55 59.7453 43 59.5706 43 59.0121C43 58.4537 42.55 57.7145 42 57.3693C41.45 57.024 41 57.1987 41 57.7571ZM28.5 60.9231C27.4 61.4034 27.048 61.8278 27.719 61.8674C28.389 61.906 28.678 62.6239 28.362 63.4616C28.045 64.2993 28.284 64.9846 28.893 64.9846C29.502 64.9846 30.034 64.6425 30.077 64.2231C30.119 63.8037 30.304 62.6614 30.488 61.6846C30.672 60.7078 30.75 59.9402 30.662 59.9788C30.573 60.0184 29.6 60.4428 28.5 60.9231ZM1 63.5997C1 64.3693 2.026 64.9846 3.309 64.9846C4.579 64.9846 6.457 64.3612 7.483 63.5997C9.167 62.3497 8.943 62.2157 5.174 62.2157C2.316 62.2157 1 62.6523 1 63.5997ZM21.49 62.9701C21.144 63.5377 20.446 63.7418 19.939 63.423C19.431 63.1041 18.225 63.3113 17.258 63.8829C15.743 64.7785 15.872 64.9268 18.191 64.9542C19.671 64.9704 21.184 64.4881 21.554 63.8809C21.923 63.2737 23.076 63.0026 24.114 63.2788C25.153 63.554 25.751 63.3651 25.442 62.8594C24.689 61.6217 22.269 61.6897 21.49 62.9701ZM38.813 63.6474C39.534 63.9408 40.397 63.9043 40.729 63.5672C41.061 63.2301 40.471 62.9904 39.417 63.0341C38.252 63.0828 38.015 63.3235 38.813 63.6474Z" fill="#A57950"/>
<path fill-rule="evenodd" clip-rule="evenodd" d="M1.079 17.1174L1 34.7434L3.522 34.1007C5.368 33.6306 6.219 33.921 6.697 35.1851C7.192 36.496 7.666 35.9842 8.662 33.0619C10.186 28.5932 9.782 27.3981 6.999 28.1373C5.609 28.5059 5 28.1678 5 27.0265C5 25.8263 5.944 25.3846 8.514 25.3846C10.446 25.3846 12.886 24.8404 13.935 24.1743C15.363 23.2686 16.744 23.2452 19.421 24.0788C21.66 24.7774 23.219 24.8312 23.588 24.225C23.947 23.6351 24.731 23.7214 25.589 24.4444C26.75 25.4222 27 25.0983 27 22.6187C27 19.1979 24.244 12.9269 23.065 13.6671C22.637 13.9351 19.104 14.3992 15.214 14.6977C8.471 15.2155 8.12 15.1343 7.706 12.9512L7.272 10.6615L7.136 12.9462C6.945 16.1588 3.384 16.0309 2.773 12.7888C2.521 11.4464 2.734 9.58523 3.247 8.65311C4.116 7.07825 4.315 7.08231 6.091 8.71403C7.204 9.73652 8 9.9792 8 9.29585C8 8.65108 7.598 8.12308 7.107 8.12308C6.616 8.12308 5.973 7.48542 5.678 6.7056C5.257 5.59172 7.328 5.03631 15.321 4.11942C20.92 3.47668 26.316 2.49378 27.313 1.93431C28.309 1.37585 29.997 1.20018 31.063 1.54338C32.19 1.90689 33 1.69366 33 1.03366C33 0.246738 29.472 -0.0142154 21.5 0.182769C15.175 0.339138 10 0.819415 10 1.24892C10 2.57502 2.202 2.11911 1.662 0.761538C1.385 0.0629538 1.122 7.42348 1.079 17.1174ZM34.75 0.672185C35.438 0.954461 36.563 0.954461 37.25 0.672185C37.938 0.390923 37.375 0.160431 36 0.160431C34.625 0.160431 34.063 0.390923 34.75 0.672185ZM44 1.52308C44.685 2.36077 45.865 3.04615 46.622 3.04615C48.527 3.04615 48.506 10.755 46.6 11.4972C45.829 11.7978 44.897 13.862 44.527 16.0847C44.157 18.3084 42.987 20.924 41.927 21.8978C40.867 22.8715 40 24.486 40 25.4841C40 27.4946 43.576 30.4615 46 30.4615C46.855 30.4615 48.61 31.2119 49.9 32.1298C51.987 33.6133 54.477 33.8895 63 33.5798C64.647 33.5209 65 32.8071 65 29.5304C65 27.2712 64.46 25.3552 63.75 25.0942C62.75 24.7266 62.75 24.2047 63.75 22.4847C64.438 21.3028 65 18.1327 65 15.4399V10.5448L56.929 10.7895L48.858 11.0352L49.03 7.80221C49.418 0.518862 49.209 0 45.878 0C43.215 0 42.939 0.2244 44 1.52308ZM14.603 5.92274C14.32 6.3888 14.723 6.76957 15.5 6.76957C16.277 6.76957 16.68 6.3888 16.397 5.92274C16.114 5.45769 15.71 5.07692 15.5 5.07692C15.29 5.07692 14.886 5.45769 14.603 5.92274ZM19.813 5.77043C20.534 6.06388 21.397 6.02732 21.729 5.69022C22.061 5.35311 21.471 5.11348 20.417 5.15714C19.252 5.20588 19.015 5.44652 19.813 5.77043ZM36.75 17.9337C37.438 18.216 38.563 18.216 39.25 17.9337C39.938 17.6525 39.375 17.422 38 17.422C36.625 17.422 36.063 17.6525 36.75 17.9337ZM61.788 23.495C62.055 24.9003 61.084 25.1592 55.552 25.1592C50.384 25.1592 49 24.8363 49 23.63C49 22.5436 49.729 22.243 51.524 22.5913C52.912 22.8614 54.219 22.8005 54.428 22.4562C54.638 22.112 56.308 21.8308 58.141 21.8308C60.433 21.8308 61.571 22.3496 61.788 23.495ZM42.683 25.5755C42.364 26.3848 42.127 26.1441 42.079 24.9612C42.036 23.891 42.272 23.2919 42.604 23.629C42.936 23.9661 42.972 24.8424 42.683 25.5755ZM28.355 26.6488C28.544 27.9078 29.292 28.9385 30.016 28.9385C32.163 28.9385 32.158 26.9889 30.008 25.6253C28.215 24.488 28.046 24.5926 28.355 26.6488ZM13.667 32.1542C12.502 33.3361 12.949 36.5538 14.277 36.5538C16.253 36.5538 20.103 33.4833 19.458 32.4233C18.796 31.3368 14.661 31.1439 13.667 32.1542ZM2.2 42.8492C1.54 43.5194 1 45.5755 1 47.4185V50.7692L8.75 50.755C20.266 50.7347 22.54 49.7346 20.072 45.7766C19.306 44.547 18.688 44.5805 15.838 46.0071C14.002 46.925 13.063 47.6875 13.75 47.6997C14.438 47.7129 15 48.18 15 48.7385C15 49.2969 13.018 49.7538 10.595 49.7538H6.19L6.727 45.6923C7.192 42.1679 7.008 41.6308 5.332 41.6308C4.269 41.6308 2.86 42.1791 2.2 42.8492ZM45.038 45.5989C43.493 49.3873 44.054 50.3397 46.914 48.7852C49.353 47.4601 49.473 46.7371 47.673 44.2373C46.439 42.5243 46.253 42.6208 45.038 45.5989ZM63 45.6923C63 46.2508 63.45 46.7077 64 46.7077C64.55 46.7077 65 46.2508 65 45.6923C65 45.1338 64.55 44.6769 64 44.6769C63.45 44.6769 63 45.1338 63 45.6923ZM62.813 50.4473C63.534 50.7408 64.397 50.7042 64.729 50.3671C65.061 50.03 64.471 49.7904 63.417 49.8341C62.252 49.8828 62.015 50.1234 62.813 50.4473ZM1 56.7894C1 59.1411 2.17 59.5056 12.621 60.4062C19.277 60.9799 19.778 60.8804 20.293 58.8791C20.967 56.2604 20.684 56.166 9.75 55.3659C1.412 54.7546 1 54.8216 1 56.7894ZM45.685 59.4C46.014 61.6338 46.395 63.6027 46.533 63.7743C46.67 63.9459 50.881 64.3561 55.891 64.6861L65 65.2852V62.7376C65 60.4235 64.521 60.1321 59.75 59.5503C56.862 59.1979 52.835 58.9055 50.8 58.9014C48.332 58.8953 46.764 58.3003 46.093 57.1154C45.35 55.8035 45.243 56.4016 45.685 59.4ZM1 63.3427C1 65.1877 4.575 65.5603 7 63.9692C8.333 63.094 8.333 62.9813 7 62.9559C6.175 62.9396 4.488 62.6502 3.25 62.3141C1.596 61.8633 1 62.1365 1 63.3427ZM17.75 64.6414C18.438 64.9237 19.563 64.9237 20.25 64.6414C20.938 64.3601 20.375 64.1297 19 64.1297C17.625 64.1297 17.063 64.3601 17.75 64.6414Z" fill="#4D3D31"/>
<path fill-rule="evenodd" clip-rule="evenodd" d="M1.079 1.60735C1.127 2.79028 1.364 3.03092 1.683 2.22166C1.972 1.48855 1.936 0.612277 1.604 0.275169C1.272 -0.0619391 1.036 0.537137 1.079 1.60735ZM1.07 4.82308C1.109 5.24141 1.467 6.42738 1.867 7.458C2.518 9.13846 2.714 9.06028 3.775 6.69646C4.831 4.34381 4.745 4.06154 2.979 4.06154C1.89 4.06154 1.032 4.40474 1.07 4.82308ZM1.15 22.0846C1.008 32.8812 1.11 33.5077 3 33.5077C4.111 33.5077 5 32.8304 5 31.9846C5 31.1388 5.889 30.4615 7 30.4615C8.1 30.4615 9 30.0046 9 29.4462C9 28.8877 7.875 28.4308 6.5 28.4308C4.168 28.4308 4 28.0906 4 23.3731C4 17.6961 4.179 17.5753 13.5 16.9488C16.755 16.7295 15.645 16.5487 10.316 16.4289C2.21 16.2482 2.129 16.2198 1.716 13.4538C1.487 11.9186 1.232 15.8024 1.15 22.0846ZM61.75 12.8568C62.438 13.1391 63.563 13.1391 64.25 12.8568C64.938 12.5755 64.375 12.345 63 12.345C61.625 12.345 61.063 12.5755 61.75 12.8568ZM46.667 13.8773C46.3 14.2489 46 17.2189 46 20.4773C46 25.0648 46.338 26.4 47.5 26.4C48.665 26.4 49 25.0516 49 20.3585V14.3169L54.75 13.9504L60.5 13.5838L53.917 13.3919C50.296 13.2863 47.033 13.5046 46.667 13.8773ZM21.813 15.9243C22.534 16.2177 23.397 16.1812 23.729 15.8441C24.061 15.507 23.471 15.2673 22.417 15.311C21.252 15.3597 21.015 15.6004 21.813 15.9243ZM59.5 20.3077C59.16 20.8662 59.359 21.3231 59.941 21.3231C60.523 21.3231 61 20.8662 61 20.3077C61 19.7492 60.802 19.2923 60.559 19.2923C60.316 19.2923 59.84 19.7492 59.5 20.3077ZM9 23.3538C9 23.9123 9.477 24.3692 10.059 24.3692C10.641 24.3692 10.84 23.9123 10.5 23.3538C10.16 22.7954 9.684 22.3385 9.441 22.3385C9.198 22.3385 9 22.7954 9 23.3538ZM42.541 27.3484C42.172 27.9546 43.039 28.8816 44.505 29.4482C48.082 30.8291 49 30.7255 49 28.9385C49 28.1008 48.362 27.4154 47.582 27.4154C46.802 27.4154 45.497 27.1554 44.683 26.8386C43.869 26.5208 42.905 26.7503 42.541 27.3484ZM3.223 43.2117C1.824 44.2058 1 45.8477 1 47.6398C1 50.1295 1.314 50.427 3.5 50.0026C5.655 49.5843 6 48.974 6 45.5735C6 43.4057 5.875 41.6308 5.723 41.6308C5.57 41.6308 4.445 42.3425 3.223 43.2117ZM45.194 46.1726C44.24 48.2998 44.301 48.7385 45.553 48.7385C47.417 48.7385 48.611 45.9065 47.306 44.5815C46.692 43.958 45.93 44.5327 45.194 46.1726ZM17.288 45.934C15.015 48.9161 15.133 49.3822 18.053 48.9476C21.281 48.4663 21.731 47.5718 19.633 45.804C18.604 44.9379 18.023 44.9693 17.288 45.934ZM1 56.7874C1 58.1937 2.073 58.7654 5.64 59.2619C13.663 60.3788 19.733 60.0468 20.334 58.4587C20.762 57.3266 19.421 56.8768 14.191 56.4005C10.511 56.0655 6.038 55.6035 4.25 55.375C1.635 55.0399 1 55.3151 1 56.7874ZM47.75 59.5706C46.788 59.8376 46.007 60.3656 46.015 60.7433C46.066 63.0148 48.456 63.9012 56.265 64.5439L65 65.2638V62.5863C65 60.0041 64.793 59.9077 59.25 59.8935C56.087 59.8864 52.6 59.7005 51.5 59.4822C50.4 59.2639 48.712 59.3035 47.75 59.5706ZM18.813 64.6627C19.534 64.9562 20.397 64.9196 20.729 64.5825C21.061 64.2454 20.471 64.0058 19.417 64.0494C18.252 64.0982 18.015 64.3388 18.813 64.6627Z" fill="#2E211E"/>
</g>
<defs>
<clipPath id="clip0_1_236">
<rect width="66" height="66" rx="33" fill="white"/>
</clipPath>
</defs>
</svg>
