<svg width="66" height="65" viewBox="0 0 66 65" fill="none" xmlns="http://www.w3.org/2000/svg">
<path fill-rule="evenodd" clip-rule="evenodd" d="M1 32V64H33H65V32V0H33H1V32Z" fill="#235044"/>
<path fill-rule="evenodd" clip-rule="evenodd" d="M1 32V64H33H65V32V0H33H1V32ZM27 35.383C27 36.144 26.059 37.013 24.908 37.314C22.9 37.839 22.887 37.783 24.563 35.93C26.641 33.634 27 33.553 27 35.383ZM36.139 44.254C39.746 44.273 39.786 44.319 40.556 49.386C40.984 52.199 41.421 55.4 41.526 56.5C41.632 57.6 42.055 59.288 42.466 60.25C43.096 61.725 42.666 62 39.732 62C33.789 62 30.091 60.928 30.686 59.377C31.541 57.147 29.034 55 25.575 55C22.543 55 22.344 54.755 21.308 49.75C20.71 46.862 20.425 44.159 20.674 43.743C20.923 43.326 23.686 43.267 26.813 43.61C29.941 43.954 34.138 44.244 36.139 44.254Z" fill="#356856"/>
<path fill-rule="evenodd" clip-rule="evenodd" d="M1.015 20.809C1.003 37.569 1.267 41.967 2.25 41.412C3.25 40.848 3.25 40.976 2.25 42.053C0.547999 43.887 0.547999 57.651 2.25 58.338C3.25 58.741 3.25 58.858 2.25 58.921C1.563 58.964 0.999999 60.083 0.999999 61.407C0.999999 63.775 1.152 63.815 10.638 63.914C16.482 63.976 20.812 63.571 21.638 62.885C22.675 62.025 23.004 62.083 23.015 63.128C23.028 64.279 23.169 64.281 23.89 63.143C24.488 62.2 24.958 62.123 25.432 62.89C25.893 63.636 32.414 63.981 45.557 63.953L65 63.912V59.156C65 56.54 64.511 53.911 63.913 53.313C63.13 52.53 63.13 52.038 63.913 51.554C65.399 50.636 65.287 47.282 63.75 46.662C62.862 46.304 62.843 46.135 63.683 46.079C64.555 46.021 64.892 39.948 64.963 23.027L65.058 0.0549995L34.029 0.0309995C9.909 0.0119995 2.997 0.283999 2.985 1.253C2.975 2.08 2.643 1.995 2 0.999999C1.357 0.00599945 1.025 6.682 1.015 20.809ZM40.995 37.559C40.077 43.264 40.76 51.157 42.54 55.414C43.105 56.767 42.997 57.116 42.17 56.605C41.526 56.207 41 56.332 41 56.882C41 57.432 41.45 58.16 42 58.5C42.55 58.84 43 59.925 43 60.912C43 62.464 42.292 62.649 37.75 62.278C31.288 61.751 29.709 61.279 30.44 60.097C31.62 58.188 29.726 55.877 27.119 56.044C21.924 56.377 19.431 56.013 20.828 55.127C21.911 54.441 21.936 53.165 20.967 48.236C19.604 41.31 20.661 38.525 26.362 34.02C28.088 32.655 28.898 32.299 28.162 33.228C26.676 35.103 27.729 35.554 35.214 36.246C38.492 36.55 39.065 36.258 40.098 33.763C41.802 29.649 42.079 30.82 40.995 37.559ZM58.762 33.687C57.806 33.937 56.006 33.946 54.762 33.707C53.518 33.468 54.3 33.263 56.5 33.252C58.7 33.241 59.718 33.437 58.762 33.687ZM61 41C61 43.2 60.55 45 60 45C59.45 45 59 43.2 59 41C59 38.8 59.45 37 60 37C60.55 37 61 38.8 61 41ZM29 41C29 41.55 29 42.225 29 42.5C29 43.742 30.399 42.891 30.599 41.527C30.722 40.687 30.413 40 29.912 40C29.41 40 29 40.45 29 41ZM52.345 48.25C52.091 48.663 51.009 49 49.941 49C48.873 49 48 48.663 48 48.25C48 47.837 49.082 47.5 50.405 47.5C51.727 47.5 52.6 47.837 52.345 48.25Z" fill="#DDD9D7"/>
<path fill-rule="evenodd" clip-rule="evenodd" d="M1.015 20.809C1.003 37.569 1.267 41.967 2.25 41.412C3.25 40.848 3.25 40.976 2.25 42.053C0.547999 43.887 0.547999 57.651 2.25 58.338C3.25 58.741 3.25 58.858 2.25 58.921C1.563 58.964 0.999999 60.083 0.999999 61.407C0.999999 63.775 1.152 63.815 10.638 63.914C16.482 63.976 20.812 63.571 21.638 62.885C22.675 62.025 23.004 62.083 23.015 63.128C23.028 64.279 23.169 64.281 23.89 63.143C24.488 62.2 24.958 62.123 25.432 62.89C25.893 63.636 32.414 63.981 45.557 63.953L65 63.912V59.156C65 56.54 64.511 53.911 63.913 53.313C63.13 52.53 63.13 52.038 63.913 51.554C65.399 50.636 65.287 47.282 63.75 46.662C62.862 46.304 62.843 46.135 63.683 46.079C64.555 46.021 64.892 39.943 64.963 23.007L65.058 0.0139999L34.029 0.0589999C10.621 0.0929999 2.996 0.398 2.985 1.302C2.975 2.032 2.591 1.914 2 1C1.357 0.00599992 1.025 6.682 1.015 20.809ZM54.725 4C54.813 5.163 54.259 6 53.403 6C52.24 6 52.155 5.579 53 4C53.589 2.9 54.184 2 54.322 2C54.461 2 54.642 2.9 54.725 4ZM61 4.333C61 5.067 60.368 5.667 59.595 5.667C58.823 5.667 58.421 5.067 58.702 4.333C58.984 3.6 59.616 3 60.107 3C60.598 3 61 3.6 61 4.333ZM15.803 9.854C14.35 10.409 13.889 9.453 14.651 7.466C15.315 5.737 15.384 5.742 16.041 7.573C16.421 8.633 16.314 9.659 15.803 9.854ZM34 7C34 7.55 33.523 8 32.941 8C32.359 8 32.16 7.55 32.5 7C32.84 6.45 33.316 6 33.559 6C33.802 6 34 6.45 34 7ZM21.75 9.583C20.797 10.536 18.886 8.993 19.597 7.844C20.019 7.161 20.578 7.178 21.296 7.896C21.885 8.485 22.089 9.244 21.75 9.583ZM5.457 8.931C5.774 9.443 5.575 10.144 5.016 10.49C4.457 10.835 4 10.416 4 9.559C4 7.802 4.6 7.544 5.457 8.931ZM11 9.559C11 10.416 10.55 10.84 10 10.5C9.45 10.16 9 9.459 9 8.941C9 8.423 9.45 8 10 8C10.55 8 11 8.702 11 9.559ZM54.729 9.604C54.397 9.936 53.534 9.972 52.813 9.683C52.015 9.364 52.252 9.127 53.417 9.079C54.471 9.036 55.061 9.272 54.729 9.604ZM60.729 9.604C60.397 9.936 59.534 9.972 58.813 9.683C58.015 9.364 58.252 9.127 59.417 9.079C60.471 9.036 61.061 9.272 60.729 9.604ZM36.128 11.663C37.212 12.977 37.234 13.415 36.232 13.752C35.535 13.987 34.377 14.766 33.659 15.484C31.791 17.352 27 16.236 27 13.933C27 10.294 33.635 8.643 36.128 11.663ZM16.342 13.449C16.713 14.416 16.418 14.714 15.455 14.344C14.661 14.04 14.26 13.388 14.565 12.895C15.331 11.655 15.697 11.769 16.342 13.449ZM17 26C15.9 27.1 14.534 28 13.965 28C13.263 28 13.274 27.356 14 26C14.589 24.9 15.955 24 17.035 24C18.977 24 18.976 24.024 17 26ZM23.454 27.621C24.926 28.186 24.931 28.456 23.513 30.621C21.439 33.786 22.724 33.638 26.195 30.313C28.212 28.381 29 28.056 29 29.158C29 31.179 26.11 33.717 22.294 35.047C19.806 35.915 19.326 36.538 19.783 38.31C20.303 40.332 20.204 40.385 18.486 39C16.809 37.648 16.687 37.665 17.25 39.167C17.636 40.199 17.271 41.066 16.294 41.441C13.552 42.493 13.818 41.391 17.461 36.619C20.956 32.04 21.811 30.381 20.144 31.411C19.674 31.702 19.501 30.828 19.761 29.47C20.257 26.877 20.804 26.604 23.454 27.621ZM41.447 30.722C41.95 32.033 42.296 32.139 42.899 31.164C44.246 28.984 48.269 30.921 52.25 35.666C54.313 38.125 56 40.544 56 41.043C56 41.951 50.053 45.433 49.543 44.824C49.393 44.646 48.744 43.487 48.1 42.25C46.527 39.225 44.601 39.414 43.008 42.75L41.695 45.5L40.895 43C40.421 41.516 40.33 42.939 40.673 46.5C40.991 49.8 41.644 53.258 42.125 54.184C43.279 56.405 43.232 57.262 42 56.5C41.45 56.16 41 56.332 41 56.882C41 57.432 41.45 58.16 42 58.5C42.55 58.84 43 59.925 43 60.912C43 62.464 42.292 62.649 37.75 62.278C31.191 61.743 29.709 61.28 30.491 60.015C30.83 59.465 30.6 58.225 29.979 57.258C28.956 55.666 28.899 55.662 29.379 57.213C29.788 58.534 29.115 59.075 26.444 59.577C22.547 60.308 18.814 58.369 21.203 56.854C22.215 56.211 22.171 56.024 21 56C19.801 55.976 19.767 55.8 20.828 55.127C21.913 54.439 21.936 53.163 20.952 48.16C19.874 42.681 19.938 41.744 21.559 39.268C25.59 33.111 32.662 30.685 37.629 33.755C39.428 34.867 39.847 34.841 40.328 33.587C40.7 32.619 40.428 32.282 39.55 32.619C37.676 33.338 36.432 30.974 38.122 29.904C40.113 28.643 40.705 28.788 41.447 30.722ZM10.485 34.25C9.598 39.705 8.065 41.393 8.311 36.643C8.415 34.644 8.838 33.007 9.25 33.004C9.662 33.002 10 32.325 10 31.5C10 30.675 10.265 30 10.588 30C10.911 30 10.865 31.913 10.485 34.25ZM58.762 33.687C57.806 33.937 56.006 33.946 54.762 33.707C53.518 33.468 54.3 33.263 56.5 33.252C58.7 33.241 59.718 33.437 58.762 33.687ZM41.195 36.5C41.215 38.15 41.439 38.704 41.693 37.731C41.947 36.758 41.93 35.408 41.656 34.731C41.382 34.054 41.175 34.85 41.195 36.5ZM30.762 35.707C32.006 35.946 33.806 35.937 34.762 35.687C35.718 35.437 34.7 35.241 32.5 35.252C30.3 35.263 29.518 35.468 30.762 35.707ZM61 41C61 43.2 60.55 45 60 45C59.45 45 59 43.2 59 41C59 38.8 59.45 37 60 37C60.55 37 61 38.8 61 41ZM29 41C29 41.55 29 42.225 29 42.5C29 43.742 30.399 42.891 30.599 41.527C30.722 40.687 30.413 40 29.912 40C29.41 40 29 40.45 29 41ZM52.345 48.25C52.091 48.663 51.009 49 49.941 49C48.873 49 48 48.663 48 48.25C48 47.837 49.082 47.5 50.405 47.5C51.727 47.5 52.6 47.837 52.345 48.25ZM57.064 51.422C56.415 52.205 54.448 53.324 52.692 53.91L49.5 54.975L52.306 52.487C55.402 49.743 59.156 48.903 57.064 51.422Z" fill="#D6B2A0"/>
<path fill-rule="evenodd" clip-rule="evenodd" d="M1.079 16.75C1.029 27.636 1.369 34 2 34C3.304 34 3.304 41.694 2 42.5C1.45 42.84 1 46.432 1 50.481V57.845L4.27 58.924C6.069 59.518 9.332 59.971 11.52 59.932C13.709 59.892 16.85 60.262 18.5 60.753L21.5 61.647L18 62.489C14.527 63.324 14.521 63.333 17.31 63.737C18.856 63.961 20.769 63.607 21.56 62.95C22.694 62.009 23.003 62.047 23.015 63.128C23.028 64.279 23.169 64.281 23.89 63.143C24.454 62.254 24.974 62.149 25.399 62.837C25.818 63.515 32.968 63.879 45.524 63.864L65 63.84V59.12C65 56.524 64.511 53.911 63.913 53.313C63.13 52.53 63.13 52.038 63.913 51.554C65.414 50.626 65.285 47.003 63.75 46.985C62.917 46.974 62.855 46.724 63.565 46.235C64.15 45.831 64.731 43.587 64.855 41.25C65.051 37.565 64.81 37 63.041 37C61.327 37 61 37.64 61 41C61 43.2 60.534 45 59.965 45C59.276 45 59.302 45.695 60.042 47.078C61.715 50.205 60.565 51.829 54.767 54.528C48.365 57.509 47.381 57.566 46.71 54.999C46.422 53.898 46.585 53.244 47.073 53.545C47.988 54.111 50.152 53.092 53.329 50.599C54.755 49.48 54.931 48.739 54.126 47.235C53.388 45.856 53.436 44.956 54.297 44.077C55.22 43.134 54.845 43.142 52.688 44.112C50.086 45.283 49.706 45.164 47.596 42.517L45.315 39.657L44.21 42.829C42.85 46.729 41.028 46.963 40.921 43.25C40.878 41.737 40.636 40.999 40.385 41.608C39.852 42.9 41.368 52.617 42.539 55.414C43.105 56.767 42.997 57.116 42.17 56.605C41.526 56.207 41 56.332 41 56.882C41 57.432 41.45 58.16 42 58.5C42.55 58.84 43 58.641 43 58.059C43 57.477 43.45 57 44 57C44.55 57 45 58.152 45 59.559C45 60.966 44.588 61.864 44.085 61.553C43.582 61.242 43.02 61.351 42.835 61.796C42.651 62.241 39.8 62.356 36.5 62.052C31.198 61.564 30.539 61.267 30.834 59.5C31.103 57.888 30.918 57.742 29.884 58.75C28.293 60.299 21.365 60.4 20.431 58.888C20.053 58.277 20.364 57.384 21.122 56.904C22.262 56.181 22.241 56.025 21 56C19.784 55.975 19.755 55.808 20.848 55.115C21.95 54.416 21.981 53.224 21.014 48.569C20.365 45.439 20.105 42.169 20.437 41.303C20.976 39.9 20.794 39.906 18.771 41.356C14.592 44.351 13 45.108 13 44.1C13 41.628 15.277 37.634 18.218 34.948C19.993 33.327 20.935 32 20.31 32C19.617 32 19.354 30.864 19.633 29.088C19.895 27.429 19.576 25.856 18.892 25.433C18.178 24.992 17.952 25.113 18.334 25.732C19.117 26.998 16.344 29.464 14.114 29.485C12.832 29.497 12.397 30.939 12 36.5C11.439 44.36 9.85 48.218 7.949 46.337C6.387 44.791 7.383 36.814 9.925 30.5C12.742 23.506 17.118 21.83 21.289 26.148C22.273 27.167 23.848 28.069 24.789 28.152C25.73 28.236 26.95 28.409 27.5 28.537C28.05 28.665 28.95 28.874 29.5 29.003C30.05 29.132 30.893 29.165 31.373 29.078C31.853 28.99 31.964 29.724 31.62 30.709C31.055 32.329 31.134 32.321 32.453 30.619C34.225 28.335 41 27.585 41 29.673C41 30.616 41.745 30.851 43.407 30.434C46.08 29.763 49.711 31.286 52 34.037C53.39 35.709 57.389 36.497 62.695 36.145C64.839 36.003 64.89 35.686 64.9 22.469C64.906 15.026 64.529 9.173 64.062 9.462C63.596 9.75 63.605 8.302 64.083 6.243C65.589 -0.242 65.981 -4.2608e-08 54 -4.2608e-08C44.007 -4.2608e-08 41.122 0.721 44 2.5C45.691 3.545 45.109 5 43 5C40.891 5 40.309 6.455 42 7.5C43.76 8.587 43.07 11 41 11C39.9 11 39 10.55 39 10C39 9.45 38.524 9 37.943 9C37.351 9 37.571 9.977 38.443 11.223C40.912 14.747 40.442 16.292 37.053 15.794C35.432 15.557 34.293 15.665 34.521 16.035C34.75 16.405 33.805 17.223 32.422 17.854C29.372 19.243 28.701 19.292 29.457 18.069C29.774 17.557 29.506 16.813 28.862 16.415C28.131 15.963 27.959 16.124 28.405 16.845C28.797 17.48 28.65 18 28.078 18C26.334 18 25.651 13.129 27.138 11.295C27.887 10.372 27.985 9.925 27.355 10.302C26.725 10.68 25.966 10.353 25.668 9.577C25.37 8.801 25.873 7.879 26.785 7.529C28.166 6.999 28.208 6.747 27.036 6.022C25.871 5.302 25.854 4.881 26.937 3.576C28.382 1.835 32 1.423 32 3C32 3.55 33.377 4 35.059 4C36.741 4 37.857 3.578 37.538 3.061C37.219 2.545 37.755 1.643 38.729 1.055C40.022 0.276 35.709 0.0319999 22.75 0.151C12.988 0.241 5 0.693 5 1.157C5 2.481 2.224 2.142 1.662 0.75C1.385 0.0619999 1.122 7.262 1.079 16.75ZM55.93 7.643C55.968 8.822 55.261 10.07 54.357 10.417C51.93 11.348 51.222 10.042 53.321 8.507C55.056 7.239 55.058 7.132 53.367 6.186C51.824 5.322 51.777 4.974 53 3.5C54.315 1.916 54.453 1.926 55.133 3.653C55.532 4.669 55.891 6.464 55.93 7.643ZM61.813 6.827C62.074 9.467 61.78 10 60.063 10C58.929 10 58 9.55 58 9C58 8.45 58.675 8 59.5 8C60.325 8 61 7.55 61 7C61 6.45 60.325 6 59.5 6C57.927 6 57.518 4.815 58.688 3.646C60.068 2.266 61.508 3.731 61.813 6.827ZM16.985 11.719C16.996 14.048 16.619 14.791 15.62 14.408C14.402 13.94 14.223 11.962 14.906 6.5C15.186 4.256 16.97 8.736 16.985 11.719ZM22.616 9.607C23.226 12.037 21.981 13.939 19.75 13.985C18.524 14.01 18.898 12.214 20.25 11.583C21.25 11.117 21.25 10.883 20.25 10.417C18.506 9.603 18.682 7 20.481 7C21.295 7 22.256 8.173 22.616 9.607ZM5.835 12.056C5.651 13.314 4.825 14.564 4 14.834C2.689 15.263 2.681 15.106 3.936 13.586C5.109 12.166 5.131 11.699 4.058 11.036C3.335 10.589 3.077 9.684 3.485 9.025C4.594 7.231 6.232 9.344 5.835 12.056ZM11.816 11.327C12.018 13.032 11.656 13.999 10.816 13.998C10.041 13.996 9.455 12.748 9.392 10.962C9.258 7.216 11.367 7.534 11.816 11.327ZM47 10C47 10.55 46.523 11 45.941 11C45.359 11 45.16 10.55 45.5 10C45.84 9.45 46.316 9 46.559 9C46.802 9 47 9.45 47 10ZM38 20.117C38 20.602 37.1 21 36 21C34.9 21 34 20.367 34 19.594C34 18.68 34.7 18.37 36 18.71C37.1 18.998 38 19.631 38 20.117ZM42.335 19.359C42.976 19 42.487 19.69 41.25 20.892C40.013 22.094 39 23.52 39 24.06C39 24.601 37.893 25.547 36.541 26.163C34.562 27.065 33.57 26.948 31.457 25.564C28.931 23.909 28.898 23.77 30.592 21.898C31.793 20.571 32.678 20.278 33.376 20.976C35.033 22.633 37.887 22.153 39.238 19.99C39.929 18.885 40.646 18.438 40.832 18.996C41.018 19.555 41.695 19.718 42.335 19.359ZM31 20.465C31 20.72 30.11 21.406 29.023 21.988C27.409 22.851 27.153 22.766 27.629 21.523C28.147 20.173 31 19.278 31 20.465ZM55.662 24.25C55.385 24.938 55.158 24.375 55.158 23C55.158 21.625 55.385 21.063 55.662 21.75C55.94 22.438 55.94 23.563 55.662 24.25ZM61 22.5C61 23.325 60.55 24 60 24C59.45 24 59 23.325 59 22.5C59 21.675 59.45 21 60 21C60.55 21 61 21.675 61 22.5ZM24.662 26.25C24.385 26.938 24.158 26.375 24.158 25C24.158 23.625 24.385 23.063 24.662 23.75C24.94 24.438 24.94 25.563 24.662 26.25ZM52 24C52 24.55 51.298 25 50.441 25C49.584 25 49.16 24.55 49.5 24C49.84 23.45 50.541 23 51.059 23C51.577 23 52 23.45 52 24ZM25.25 33.99C22.913 36.151 21 38.224 21 38.596C21 38.968 22.179 38.093 23.621 36.652C25.062 35.211 26.586 34.244 27.007 34.505C28.01 35.124 30.289 32.359 29.845 31.064C29.655 30.512 27.587 31.828 25.25 33.99ZM39.459 33.067C39.096 33.653 39.014 34.348 39.276 34.61C39.538 34.872 40.019 34.392 40.345 33.543C41.021 31.781 40.445 31.471 39.459 33.067ZM58.762 33.687C57.806 33.937 56.006 33.946 54.762 33.707C53.518 33.468 54.3 33.263 56.5 33.252C58.7 33.241 59.718 33.437 58.762 33.687ZM41.158 36C41.158 37.375 41.385 37.938 41.662 37.25C41.94 36.563 41.94 35.438 41.662 34.75C41.385 34.063 41.158 34.625 41.158 36ZM30.25 35.689C31.212 35.941 32.788 35.941 33.75 35.689C34.712 35.438 33.925 35.232 32 35.232C30.075 35.232 29.288 35.438 30.25 35.689ZM55.64 39.98C57.832 44.374 59 44.575 59 40.559C59 37.459 58.687 37 56.577 37C54.222 37 54.195 37.084 55.64 39.98ZM29 41C29 41.55 29 42.225 29 42.5C29 43.742 30.399 42.891 30.599 41.527C30.722 40.687 30.413 40 29.912 40C29.41 40 29 40.45 29 41ZM52.345 48.25C52.091 48.663 51.009 49 49.941 49C48.873 49 48 48.663 48 48.25C48 47.837 49.082 47.5 50.405 47.5C51.727 47.5 52.6 47.837 52.345 48.25ZM13.269 51.656C12.592 51.93 11.242 51.947 10.269 51.693C9.296 51.439 9.85 51.215 11.5 51.195C13.15 51.175 13.946 51.382 13.269 51.656ZM1 62.031C1 63.731 1.571 64.024 4.5 63.827C6.425 63.697 8 63.207 8 62.737C8 62.267 8.45 62.16 9 62.5C9.55 62.84 10 62.585 10 61.934C10 61.155 8.987 60.953 7.039 61.342C5.41 61.668 3.809 61.499 3.48 60.967C2.446 59.294 1 59.915 1 62.031Z" fill="#ACA297"/>
<path fill-rule="evenodd" clip-rule="evenodd" d="M1.079 16.75L1 34H3.45C4.798 34 6.359 34.788 6.92 35.75C7.481 36.712 7.987 37.05 8.046 36.5C8.597 31.348 11.564 25.571 14.453 24.025C16.395 22.986 17.337 23.022 19.758 24.229C22.386 25.541 22.818 25.527 23.792 24.099C24.768 22.668 24.889 22.69 24.941 24.309C24.974 25.304 25.45 25.84 26 25.5C26.55 25.16 27 25.553 27 26.374C27 28.201 30.831 29.569 32.178 28.222C32.813 27.587 32.275 26.366 30.638 24.729C29.254 23.345 27.899 22.434 27.628 22.705C27.357 22.976 27.359 22.342 27.633 21.296C27.996 19.906 28.919 19.449 31.062 19.597C32.743 19.714 33.739 19.387 33.396 18.832C33.067 18.299 32.136 18.118 31.326 18.428C29.37 19.179 26 17.304 26 15.465C26 14.659 25.627 14 25.17 14C24.714 14 24.791 11.514 25.342 8.476C26.175 3.882 26.747 2.851 28.745 2.349C30.066 2.018 31.653 2.253 32.273 2.873C34.006 4.606 36.385 4.215 37.788 1.968C39.043 -0.0420001 38.897 -0.0640001 24.789 0.0599999C16.942 0.129 9.765 0.59 8.841 1.085C7.716 1.687 6.996 1.574 6.66 0.742C6.262 -0.242 6.141 -0.24 6.079 0.75C5.976 2.376 2.318 2.376 1.662 0.75C1.385 0.0619999 1.122 7.262 1.079 16.75ZM43 0.8C43 2.198 45.199 3.861 46.425 3.391C47.191 3.097 47.689 4.352 47.843 6.969C48.024 10.035 47.712 11 46.541 11C44.699 11 44.471 8.38 46.25 7.662C46.938 7.385 46.439 7.122 45.142 7.079C43.117 7.011 42.872 7.352 43.407 9.485C43.86 11.291 43.416 12.584 41.784 14.216C40.548 15.452 39.079 16.515 38.518 16.579C37.958 16.643 36.637 16.764 35.583 16.848C33.219 17.036 33.96 17.915 36.973 18.495C38.207 18.732 39.879 18.264 40.689 17.454C42.191 15.952 44 16.315 44 18.118C44 18.668 43.555 18.843 43.011 18.507C42.445 18.157 42.277 18.558 42.618 19.448C42.946 20.302 42.732 21 42.142 21C41.553 21 40.591 21.895 40.005 22.99C38.449 25.897 41.354 30 44.969 30C46.49 30 48.884 31.09 50.354 32.452C51.809 33.801 53 34.476 53 33.952C53 33.429 54.533 33 56.406 33C59.32 33 59.737 33.289 59.29 35C59 36.107 57.926 37 56.883 37C54.513 37 54.538 37.852 57 41L58.956 43.5L58.978 40.25C58.99 38.462 59.45 37 60 37C60.55 37 61 36.325 61 35.5C61 34.667 61.889 34 63 34C64.69 34 65 33.333 65 29.7C65 27.335 64.438 24.804 63.75 24.075C62.75 23.015 62.75 22.658 63.75 22.292C65.199 21.76 65.539 10 64.105 10C63.583 10 63.573 8.438 64.081 6.25C65.589 -0.244 65.982 -1.11293e-07 54 -1.11293e-07C47.95 -1.11293e-07 43 0.36 43 0.8ZM55.985 7.75C55.997 10.338 55.593 11 54 11C52.34 11 52 10.333 52 7.083C52 4.848 52.537 2.981 53.25 2.733C54.989 2.13 55.967 3.924 55.985 7.75ZM61.475 3.635C63.115 5.878 62.211 9.711 59.901 10.316C58.283 10.739 58 10.255 58 7.073C58 1.945 59.3 0.66 61.475 3.635ZM18 11.632C18 14.161 16.92 15.207 15.365 14.184C13.748 13.121 13.154 9.475 14.273 7.476C15.245 5.739 15.337 5.741 16.642 7.526C17.389 8.547 18 10.395 18 11.632ZM23 11.122C23 13.333 22.537 14 21 14C19.4 14 19 13.333 19 10.667C19 8.833 19.296 7.037 19.658 6.675C20.895 5.439 23 8.24 23 11.122ZM11.393 8.582C12.867 12.422 11.392 15.978 8.951 14.47C8.225 14.021 8.238 13.418 8.993 12.508C9.781 11.559 9.779 11.093 8.985 10.828C7.796 10.432 8.706 7 10 7C10.432 7 11.059 7.712 11.393 8.582ZM6.575 10.443C7.288 13.284 6.484 15 4.441 15C3.525 15 3 13.967 3 12.167C3 7.529 5.537 6.306 6.575 10.443ZM57.709 23.373C57.503 23.993 55.489 24.572 53.233 24.659C50.037 24.783 49.254 24.501 49.685 23.379C50.013 22.525 50.967 22.172 52.034 22.511C53.023 22.825 54.109 22.633 54.448 22.084C55.262 20.766 58.192 21.924 57.709 23.373ZM61 23C61 24.1 60.55 25 60 25C59.45 25 59 24.1 59 23C59 21.9 59.45 21 60 21C60.55 21 61 21.9 61 23ZM7.342 26.449C7.714 27.418 7.418 27.714 6.449 27.342C5.652 27.036 5 26.384 5 25.893C5 24.455 6.735 24.867 7.342 26.449ZM11 26C11 26.55 10.55 27 10 27C9.45 27 9 26.55 9 26C9 25.45 9.45 25 10 25C10.55 25 11 25.45 11 26ZM18.009 27.984C17.38 29.159 16.089 29.872 14.84 29.734C13.015 29.531 12.705 30.074 12.527 33.79C12.414 36.15 12.768 38.357 13.315 38.695C13.909 39.062 13.99 38.793 13.515 38.025C12.988 37.171 13.184 36.895 14.101 37.2C16.12 37.873 19.376 33.193 19.572 29.337C19.768 25.483 19.481 25.234 18.009 27.984ZM36 27C35.099 27.582 34.975 27.975 35.691 27.985C36.346 27.993 37.16 27.55 37.5 27C38.267 25.758 37.921 25.758 36 27ZM25.405 34.25L23.5 36.5L25.75 34.595C26.988 33.547 28 32.535 28 32.345C28 31.545 27.195 32.136 25.405 34.25ZM60.775 41.75C60.328 46.743 61.318 50.872 63.313 52.324C64.086 52.887 63.89 52.992 62.75 52.626C61.788 52.316 60.245 52.352 59.323 52.706C57.823 53.282 57.849 53.429 59.573 54.105C63.542 55.659 64.493 55.136 64.704 51.28C64.816 49.235 64.366 47.217 63.704 46.796C62.945 46.313 62.902 46.025 63.588 46.015C64.186 46.007 64.752 43.975 64.846 41.5C64.99 37.68 64.728 37 63.109 37C61.56 37 61.121 37.892 60.775 41.75ZM4.048 40.949C3.249 41.455 2.316 41.695 1.974 41.484C1.632 41.273 1.256 43.231 1.137 45.835L0.921 50.569L8.929 50.74C13.334 50.834 17.191 50.5 17.501 49.999C17.811 49.498 18.725 49.341 19.532 49.651C21.294 50.327 21.443 48.287 19.922 44.315L18.845 41.5L16.922 43.861C15.865 45.159 15 45.931 15 45.576C15 45.22 14.17 45.374 13.155 45.917C12.14 46.46 10.22 47.102 8.889 47.344C6.62 47.755 6.491 47.538 6.839 43.891C7.217 39.928 6.634 39.313 4.048 40.949ZM45.298 42.631C45.645 42.979 45.27 44.204 44.465 45.354C42.869 47.632 42.451 51.458 43.895 50.565C44.388 50.26 45.048 50.684 45.364 51.506C46.104 53.434 49.398 53.43 51 51.5C51.685 50.675 52.865 50 53.622 50C54.38 50 55 49.577 55 49.059C55 47.612 53.216 46.841 52.51 47.984C51.759 49.199 48 49.355 48 48.171C48 47.714 48.967 47.377 50.149 47.421C51.331 47.464 52.509 46.89 52.767 46.145C53.103 45.175 52.657 44.974 51.199 45.437C49.693 45.915 48.992 45.551 48.513 44.042C48.157 42.919 47.146 42 46.266 42C45.386 42 44.951 42.284 45.298 42.631ZM15 48C15 48.55 13.988 48.968 12.75 48.93C10.603 48.863 10.592 48.82 12.5 48C13.6 47.527 14.613 47.109 14.75 47.07C14.887 47.032 15 47.45 15 48ZM50.269 50.656C49.592 50.93 48.242 50.947 47.269 50.693C46.296 50.439 46.85 50.215 48.5 50.195C50.15 50.175 50.946 50.382 50.269 50.656ZM1 54.933C1 58.403 1.732 58.712 12 59.566C16.124 59.91 19.913 60.446 20.42 60.759C20.941 61.081 21.035 60.532 20.636 59.494C20.235 58.448 20.428 57.353 21.086 56.947C22.832 55.868 15.354 53.721 11.711 54.256C9.836 54.531 8.027 54.17 7.215 53.358C6.468 52.611 4.764 52 3.429 52C1.409 52 1 52.494 1 54.933ZM45.032 58.633C44.995 63.447 45.318 63.584 57.456 63.905L65 64.105V60.18V56.254L59.814 55.756C56.52 55.44 53.382 55.778 51.214 56.684C48.111 57.981 47.677 57.946 46.432 56.305C45.203 54.684 45.06 54.92 45.032 58.633ZM41 56.882C41 57.432 41.45 58.16 42 58.5C42.55 58.84 43 58.668 43 58.118C43 57.568 42.55 56.84 42 56.5C41.45 56.16 41 56.332 41 56.882ZM28.5 60C27.4 60.473 27.048 60.891 27.719 60.93C28.389 60.968 28.678 61.675 28.362 62.5C28.045 63.325 28.284 64 28.893 64C29.502 64 30.034 63.663 30.077 63.25C30.119 62.837 30.304 61.712 30.488 60.75C30.672 59.788 30.75 59.032 30.662 59.07C30.573 59.109 29.6 59.527 28.5 60ZM1 62.636C1 63.394 2.026 64 3.309 64C4.579 64 6.457 63.386 7.483 62.636C9.167 61.405 8.943 61.273 5.174 61.273C2.316 61.273 1 61.703 1 62.636ZM21.49 62.016C21.144 62.575 20.446 62.776 19.939 62.462C19.431 62.148 18.225 62.352 17.258 62.915C15.743 63.797 15.872 63.943 18.191 63.97C19.671 63.986 21.184 63.511 21.554 62.913C21.923 62.315 23.076 62.048 24.114 62.32C25.153 62.591 25.751 62.405 25.442 61.907C24.689 60.688 22.269 60.755 21.49 62.016ZM38.813 62.683C39.534 62.972 40.397 62.936 40.729 62.604C41.061 62.272 40.471 62.036 39.417 62.079C38.252 62.127 38.015 62.364 38.813 62.683Z" fill="#A57950"/>
<path fill-rule="evenodd" clip-rule="evenodd" d="M1.079 16.858L1 34.217L3.522 33.584C5.368 33.121 6.219 33.407 6.697 34.652C7.192 35.943 7.666 35.439 8.662 32.561C10.186 28.16 9.782 26.983 6.999 27.711C5.609 28.074 5 27.741 5 26.617C5 25.435 5.944 25 8.514 25C10.446 25 12.886 24.464 13.935 23.808C15.363 22.916 16.744 22.893 19.421 23.714C21.66 24.402 23.219 24.455 23.588 23.858C23.947 23.277 24.731 23.362 25.589 24.074C26.75 25.037 27 24.718 27 22.276C27 18.907 24.244 12.731 23.065 13.46C22.637 13.724 19.104 14.181 15.214 14.475C8.471 14.985 8.12 14.905 7.706 12.755L7.272 10.5L7.136 12.75C6.945 15.914 3.384 15.788 2.773 12.595C2.521 11.273 2.734 9.44 3.247 8.522C4.116 6.971 4.315 6.975 6.091 8.582C7.204 9.589 8 9.828 8 9.155C8 8.52 7.598 8 7.107 8C6.616 8 5.973 7.372 5.678 6.604C5.257 5.507 7.328 4.96 15.321 4.057C20.92 3.424 26.316 2.456 27.313 1.905C28.309 1.355 29.997 1.182 31.063 1.52C32.19 1.878 33 1.668 33 1.018C33 0.243 29.472 -0.014 21.5 0.18C15.175 0.334 10 0.807 10 1.23C10 2.536 2.202 2.087 1.662 0.75C1.385 0.062 1.122 7.311 1.079 16.858ZM34.75 0.662C35.438 0.94 36.563 0.94 37.25 0.662C37.938 0.385 37.375 0.158 36 0.158C34.625 0.158 34.063 0.385 34.75 0.662ZM44 1.5C44.685 2.325 45.865 3 46.622 3C48.527 3 48.506 10.592 46.6 11.323C45.829 11.619 44.897 13.652 44.527 15.841C44.157 18.031 42.987 20.607 41.927 21.566C40.867 22.525 40 24.115 40 25.098C40 27.078 43.576 30 46 30C46.855 30 48.61 30.739 49.9 31.643C51.987 33.104 54.477 33.376 63 33.071C64.647 33.013 65 32.31 65 29.083C65 26.858 64.46 24.971 63.75 24.714C62.75 24.352 62.75 23.838 63.75 22.144C64.438 20.98 65 17.858 65 15.206V10.385L56.929 10.626L48.858 10.868L49.03 7.684C49.418 0.511 49.209 0 45.878 0C43.215 0 42.939 0.221 44 1.5ZM14.603 5.833C14.32 6.292 14.723 6.667 15.5 6.667C16.277 6.667 16.68 6.292 16.397 5.833C16.114 5.375 15.71 5 15.5 5C15.29 5 14.886 5.375 14.603 5.833ZM19.813 5.683C20.534 5.972 21.397 5.936 21.729 5.604C22.061 5.272 21.471 5.036 20.417 5.079C19.252 5.127 19.015 5.364 19.813 5.683ZM36.75 17.662C37.438 17.94 38.563 17.94 39.25 17.662C39.938 17.385 39.375 17.158 38 17.158C36.625 17.158 36.063 17.385 36.75 17.662ZM61.788 23.139C62.055 24.523 61.084 24.778 55.552 24.778C50.384 24.778 49 24.46 49 23.272C49 22.202 49.729 21.906 51.524 22.249C52.912 22.515 54.219 22.455 54.428 22.116C54.638 21.777 56.308 21.5 58.141 21.5C60.433 21.5 61.571 22.011 61.788 23.139ZM42.683 25.188C42.364 25.985 42.127 25.748 42.079 24.583C42.036 23.529 42.272 22.939 42.604 23.271C42.936 23.603 42.972 24.466 42.683 25.188ZM28.355 26.245C28.544 27.485 29.292 28.5 30.016 28.5C32.163 28.5 32.158 26.58 30.008 25.237C28.215 24.117 28.046 24.22 28.355 26.245ZM13.667 31.667C12.502 32.831 12.949 36 14.277 36C16.253 36 20.103 32.976 19.458 31.932C18.796 30.862 14.661 30.672 13.667 31.667ZM2.2 42.2C1.54 42.86 1 44.885 1 46.7V50L8.75 49.986C20.266 49.966 22.54 48.981 20.072 45.083C19.306 43.872 18.688 43.905 15.838 45.31C14.002 46.214 13.063 46.965 13.75 46.977C14.438 46.99 15 47.45 15 48C15 48.55 13.018 49 10.595 49H6.19L6.727 45C7.192 41.529 7.008 41 5.332 41C4.269 41 2.86 41.54 2.2 42.2ZM45.038 44.908C43.493 48.639 44.054 49.577 46.914 48.046C49.353 46.741 49.473 46.029 47.673 43.567C46.439 41.88 46.253 41.975 45.038 44.908ZM63 45C63 45.55 63.45 46 64 46C64.55 46 65 45.55 65 45C65 44.45 64.55 44 64 44C63.45 44 63 44.45 63 45ZM62.813 49.683C63.534 49.972 64.397 49.936 64.729 49.604C65.061 49.272 64.471 49.036 63.417 49.079C62.252 49.127 62.015 49.364 62.813 49.683ZM1 55.929C1 58.245 2.17 58.604 12.621 59.491C19.277 60.056 19.778 59.958 20.293 57.987C20.967 55.408 20.684 55.315 9.75 54.527C1.412 53.925 1 53.991 1 55.929ZM45.685 58.5C46.014 60.7 46.395 62.639 46.533 62.808C46.67 62.977 50.881 63.381 55.891 63.706L65 64.296V61.787C65 59.508 64.521 59.221 59.75 58.648C56.862 58.301 52.835 58.013 50.8 58.009C48.332 58.003 46.764 57.417 46.093 56.25C45.35 54.958 45.243 55.547 45.685 58.5ZM1 62.383C1 64.2 4.575 64.567 7 63C8.333 62.138 8.333 62.027 7 62.002C6.175 61.986 4.488 61.701 3.25 61.37C1.596 60.926 1 61.195 1 62.383ZM17.75 63.662C18.438 63.94 19.563 63.94 20.25 63.662C20.938 63.385 20.375 63.158 19 63.158C17.625 63.158 17.063 63.385 17.75 63.662Z" fill="#4D3D31"/>
<path fill-rule="evenodd" clip-rule="evenodd" d="M1.079 1.583C1.127 2.748 1.364 2.985 1.683 2.188C1.972 1.466 1.936 0.603001 1.604 0.271001C1.272 -0.0609995 1.036 0.529 1.079 1.583ZM1.07 4.75C1.109 5.162 1.467 6.33 1.867 7.345C2.518 9 2.714 8.923 3.775 6.595C4.831 4.278 4.745 4 2.979 4C1.89 4 1.032 4.338 1.07 4.75ZM1.15 21.75C1.008 32.383 1.11 33 3 33C4.111 33 5 32.333 5 31.5C5 30.667 5.889 30 7 30C8.1 30 9 29.55 9 29C9 28.45 7.875 28 6.5 28C4.168 28 4 27.665 4 23.019C4 17.428 4.179 17.309 13.5 16.692C16.755 16.476 15.645 16.298 10.316 16.18C2.21 16.002 2.129 15.974 1.716 13.25C1.487 11.738 1.232 15.563 1.15 21.75ZM61.75 12.662C62.438 12.94 63.563 12.94 64.25 12.662C64.938 12.385 64.375 12.158 63 12.158C61.625 12.158 61.063 12.385 61.75 12.662ZM46.667 13.667C46.3 14.033 46 16.958 46 20.167C46 24.685 46.338 26 47.5 26C48.665 26 49 24.672 49 20.05V14.1L54.75 13.739L60.5 13.378L53.917 13.189C50.296 13.085 47.033 13.3 46.667 13.667ZM21.813 15.683C22.534 15.972 23.397 15.936 23.729 15.604C24.061 15.272 23.471 15.036 22.417 15.079C21.252 15.127 21.015 15.364 21.813 15.683ZM59.5 20C59.16 20.55 59.359 21 59.941 21C60.523 21 61 20.55 61 20C61 19.45 60.802 19 60.559 19C60.316 19 59.84 19.45 59.5 20ZM9 23C9 23.55 9.477 24 10.059 24C10.641 24 10.84 23.55 10.5 23C10.16 22.45 9.684 22 9.441 22C9.198 22 9 22.45 9 23ZM42.541 26.934C42.172 27.531 43.039 28.444 44.505 29.002C48.082 30.362 49 30.26 49 28.5C49 27.675 48.362 27 47.582 27C46.802 27 45.497 26.744 44.683 26.432C43.869 26.119 42.905 26.345 42.541 26.934ZM3.223 42.557C1.824 43.536 1 45.153 1 46.918C1 49.37 1.314 49.663 3.5 49.245C5.655 48.833 6 48.232 6 44.883C6 42.748 5.875 41 5.723 41C5.57 41 4.445 41.701 3.223 42.557ZM45.194 45.473C44.24 47.568 44.301 48 45.553 48C47.417 48 48.611 45.211 47.306 43.906C46.692 43.292 45.93 43.858 45.194 45.473ZM17.288 45.238C15.015 48.175 15.133 48.634 18.053 48.206C21.281 47.732 21.731 46.851 19.633 45.11C18.604 44.257 18.023 44.288 17.288 45.238ZM1 55.927C1 57.312 2.073 57.875 5.64 58.364C13.663 59.464 19.733 59.137 20.334 57.573C20.762 56.458 19.421 56.015 14.191 55.546C10.511 55.216 6.038 54.761 4.25 54.536C1.635 54.206 1 54.477 1 55.927ZM47.75 58.668C46.788 58.931 46.007 59.451 46.015 59.823C46.066 62.06 48.456 62.933 56.265 63.566L65 64.275V61.638C65 59.095 64.793 59 59.25 58.986C56.087 58.979 52.6 58.796 51.5 58.581C50.4 58.366 48.712 58.405 47.75 58.668ZM18.813 63.683C19.534 63.972 20.397 63.936 20.729 63.604C21.061 63.272 20.471 63.036 19.417 63.079C18.252 63.127 18.015 63.364 18.813 63.683Z" fill="#2E211E"/>
</svg>
