<svg width="125" height="125" viewBox="0 0 125 125" fill="none" xmlns="http://www.w3.org/2000/svg">
<g clip-path="url(#clip0_1_246)">
<path fill-rule="evenodd" clip-rule="evenodd" d="M50.75 0.576492C26.574 5.06999 6.694 24.2825 1.211 48.452C0.189503 52.955 0.00900269 55.0625 0.00900269 62.5C0.00900269 69.9375 0.189503 72.045 1.211 76.548C6.743 100.934 26.7545 120.112 51.217 124.471C55.0525 125.155 69.9475 125.155 73.783 124.471C98.2455 120.112 118.257 100.934 123.789 76.548C124.811 72.045 124.991 69.9375 124.991 62.5C124.991 55.0625 124.811 52.955 123.789 48.452C118.257 24.066 98.2455 4.88799 73.783 0.528493C70.211 -0.108007 54.254 -0.075007 50.75 0.576492Z" fill="white"/>
<path fill-rule="evenodd" clip-rule="evenodd" d="M56.75 5.048C43.3285 6.275 31.7035 11.8305 21.767 21.767C11.598 31.9365 6.154 43.549 5.06 57.405C3.6805 74.8765 9.578 91.0725 21.7525 103.247C44.339 125.833 80.651 125.83 103.241 103.241C115.315 91.166 121.366 74.6435 119.945 57.6265C119.544 52.8315 119.422 52.0715 118.467 48.4265C117.98 46.567 117.048 45.821 115.807 46.2975C115.426 46.4435 110.195 55.1245 104.182 65.588C98.1695 76.0515 92.3945 85.5915 91.3485 86.788C90.2025 88.099 88.1225 89.616 86.1115 90.6065C82.8505 92.2135 82.6055 92.254 75.138 92.42L67.5 92.5895V74.695C67.5 63.8945 67.319 56.9885 67.0435 57.275C66.793 57.536 62.97 64.05 58.549 71.75C49.8935 86.8245 48.5285 88.5655 43.5 90.947C40.981 92.1405 40.11 92.264 33.125 92.4195L25.5 92.5895V66.295V40H36H46.5V57.75C46.5 67.5125 46.669 75.496 46.875 75.4915C47.081 75.4865 51.8265 67.499 57.4195 57.7415L67.589 40H78.0445H88.5V58.1C88.5 69.1695 88.6795 76.0155 88.9615 75.725C89.2155 75.464 94.503 66.4195 100.712 55.6265C109.272 40.7465 112 35.599 112 34.33C112 30.9925 104.711 22.1065 97.5625 16.7285C85.5625 7.7015 71.561 3.69399 56.75 5.048Z" fill="#CBCBCB"/>
<path fill-rule="evenodd" clip-rule="evenodd" d="M52.165 5.74051C38.1915 8.27601 25.117 16.282 16.731 27.4375C4.72999 43.4035 1.67449 63.8785 8.50149 82.5855C14.296 98.4625 27.807 111.622 43.782 116.946C51.275 119.444 56.2575 120.146 64.5 119.867C76.1045 119.473 84.8985 116.668 94.4325 110.318C99.7795 106.757 107.024 99.6255 110.248 94.75C118.468 82.316 121.733 67.0685 119.237 52.7595C118.356 47.7065 117.832 46.5 116.516 46.5C115.253 46.5 115.2 46.584 103.475 67C97.2655 77.813 92.4205 85.676 91.078 87.119C89.866 88.422 87.609 90.1095 86.0625 90.869C83.416 92.1685 82.786 92.26 75.3815 92.419L67.5125 92.5875L67.3815 74.7L67.25 56.8125L59.2535 70.781C54.8365 78.497 50.3105 85.774 49.1425 87.037C47.9795 88.295 45.7275 89.98 44.139 90.781C41.3755 92.1745 40.908 92.2455 33.375 92.413L25.5 92.588V66.294V40H36H46.5V57.85C46.5 69.977 46.6635 75.5365 47.0095 75.1905C47.29 74.91 51.977 66.9335 57.4255 57.4655L67.332 40.25L77.916 40.115L88.5 39.98V57.74C88.5 67.508 88.669 75.4915 88.875 75.4805C89.4915 75.449 111.693 36.3625 111.902 34.942C112.273 32.41 108.611 27.15 102.18 20.979C93.677 12.82 85.195 8.38351 73.5725 6.01501C67.753 4.82901 57.887 4.70251 52.165 5.74051Z" fill="#B5B5B5"/>
<path fill-rule="evenodd" clip-rule="evenodd" d="M53.75 5.55451C34.86 8.27651 17.702 21.3645 9.9275 38.9825C4.299 51.7375 3.477 67.112 7.7275 80.1325C10.4135 88.361 14.8645 95.7755 20.9265 102.121C25.7325 107.151 30.0145 110.371 36.0345 113.48C52.4295 121.948 71.0775 122.217 87.5035 114.222C110.535 103.012 123.472 78.0045 119.195 52.963C118.235 47.3425 117.806 46.386 116.342 46.5945C115.485 46.717 112.885 50.8575 104.162 65.992C96.9585 78.49 92.316 86.01 90.9155 87.4495C86.9815 91.492 82.0975 93 72.938 93H67.5125L67.381 75.0425L67.25 57.0855L59 71.3565C52.2855 82.971 50.261 86.0745 48.1235 88.0285C44.126 91.6825 41.222 92.592 32.625 92.884L25.5 93.126V66.563V40H36H46.5V57.5C46.5 67.125 46.669 75 46.875 74.9995C47.081 74.999 51.75 67.1335 57.25 57.52L67.25 40.041L77.875 40.0205L88.5 40V57.85C88.5 69.8605 88.665 75.535 89.0045 75.1955C90.2545 73.9455 111.625 36.115 111.844 34.7645C112.165 32.7905 109.187 28.247 104.031 22.8405C95.315 13.703 84.0415 7.72751 71.7615 5.73551C66.8855 4.94501 58.5605 4.86101 53.75 5.55451Z" fill="#858585"/>
<path fill-rule="evenodd" clip-rule="evenodd" d="M53.5 5.7635C45.3865 7.0355 36.7335 10.456 29.75 15.152C25.569 17.9635 18.467 25.0035 15.5625 29.216C-0.175007 52.041 2.00299 82.0535 20.846 102.029C35.976 118.067 59.643 124.014 80.513 117.022C89.3045 114.077 96.3865 109.677 103.032 103.032C116.108 89.955 122.011 72.131 119.275 53.982C117.577 42.7195 117.727 42.6005 104.293 65.9115C98.2195 76.45 92.5145 85.946 91.616 87.0135C90.603 88.2165 88.523 89.6755 86.144 90.851L82.306 92.748L74.9095 92.9285L67.5125 93.1085L67.3815 75.1795L67.25 57.25L59.25 71.1845C54.4235 79.592 50.402 86.001 49.1125 87.342C47.8845 88.6185 45.5435 90.2385 43.6125 91.148C40.3985 92.662 39.9245 92.7405 32.875 92.9205L25.5 93.109V66.2945V39.48L36.125 39.615L46.75 39.75L47 57.287L47.25 74.8245L57.423 57.1525L67.596 39.4805L78.173 39.615L88.75 39.75L88.8875 57.5L89.025 75.25L91.0705 71.75C106.285 45.7175 112.055 35.1685 111.795 33.862C111.025 29.983 101.8 19.7075 95 15.1515C82.4665 6.7555 68.017 3.487 53.5 5.7635Z" fill="#696969"/>
<path fill-rule="evenodd" clip-rule="evenodd" d="M56.5 5.34699C31.9005 7.97849 11.7305 26.009 6.459 50.0805C2.248 69.31 8.046 89.092 21.977 103.023C44.461 125.506 80.5215 125.501 103.011 103.011C117.037 88.9865 122.885 68.752 118.44 49.632C117.843 47.062 116.496 45.78 115.491 46.8255C115.266 47.059 110.1 55.9125 104.009 66.5C97.9195 77.0875 92.4445 86.28 91.843 86.928C89.913 89.008 86.4305 91.1265 83.38 92.076C81.1385 92.7735 78.83 93 73.962 93H67.5125L67.3815 75.1425L67.25 57.2845L59.617 70.578C50.56 86.3525 49.7875 87.4695 46.376 89.724C42.6655 92.176 38.9615 93 31.645 93H25.5V66.24V39.48L36.125 39.615L46.75 39.75L47 57.2355L47.25 74.7215L57.3155 57.2355L67.381 39.75H78.0655H88.75L89 57.3295L89.25 74.909L100.471 55.361C109.195 40.164 111.683 35.4465 111.646 34.1645C111.541 30.457 102.24 20.0375 94.3705 14.8105C83.2075 7.39649 69.459 3.96099 56.5 5.34699Z" fill="#565656"/>
<path fill-rule="evenodd" clip-rule="evenodd" d="M55.643 5.51599C22.381 9.69949 -0.363006 41.1545 6.305 73.75C11.4165 98.738 31.4935 116.873 57.002 119.544C79.662 121.917 102.391 109.68 113.006 89.3915C117.912 80.0145 119.702 72.712 119.657 62.25C119.615 52.2995 118.091 45.9015 115.964 46.747C115.571 46.903 110.412 55.4855 104.5 65.8185C98.5875 76.152 92.779 85.701 91.5925 87.038C90.223 88.581 88.2175 90.0685 86.103 91.1095C82.8515 92.7105 82.5885 92.7545 75.142 92.9285L67.5125 93.1065L67.3815 75.2615L67.25 57.417L59.281 71.3335C50.5645 86.5545 48.5835 89.087 43.5735 91.4135C40.998 92.6095 40.08 92.7415 33.125 92.916L25.5 93.107V66.2935V39.48L36.125 39.615L46.75 39.75L47 57.1635L47.25 74.5765L57.278 57.1635L67.3055 39.75L78.1465 39.6155L88.987 39.4805L89.1185 57.1155L89.25 74.75L100.375 55.3915C112.544 34.217 112.55 34.2005 110.191 30.695C101.673 18.0335 88.7435 9.36299 73.769 6.26999C69.121 5.30949 60.224 4.9395 55.643 5.51599Z" fill="#313131"/>
<path fill-rule="evenodd" clip-rule="evenodd" d="M50.554 6.5565C29.504 10.975 12.656 27.012 7.161 47.8615C5.429 54.432 4.9835 66.0855 6.2135 72.6375C10.6315 96.174 28.6715 114.295 52.112 118.742C57.3295 119.731 67.7145 119.723 72.9765 118.725C84.9125 116.461 95.2475 110.816 103.802 101.888C111.651 93.698 116.621 84.07 118.725 72.9765C120.324 64.5445 119.226 48.1915 116.979 46.989C115.772 46.343 116.067 45.889 103.963 67C92.9545 86.2 91.039 88.8085 86.133 91.285C83.3615 92.684 82.9355 92.747 75.1315 92.913L67.013 93.086L66.8815 75.819L66.75 58.552L59.25 71.651C50.837 86.3445 48.6965 89.0795 43.861 91.313C40.919 92.672 40.3225 92.7585 32.875 92.9095L25 93.069V66.2845V39.5H35.9935H46.987L47.1185 56.9135L47.25 74.327L57.25 56.921L67.25 39.515L78.1185 39.5075L88.987 39.5L89.1185 56.9925L89.25 74.485L100.245 55.3675C107.656 42.482 111.297 35.672 111.413 34.476C111.56 32.961 111.153 32.122 108.623 28.726C99.784 16.8615 87.2545 8.9835 72.888 6.2585C67.1395 5.168 56.4925 5.31 50.554 6.5565Z" fill="black"/>
</g>
<defs>
<clipPath id="clip0_1_246">
<rect width="125" height="125" rx="62.5" fill="white"/>
</clipPath>
</defs>
</svg>
