<svg width="250" height="250" viewBox="0 0 250 250" fill="none" xmlns="http://www.w3.org/2000/svg">
<path fill-rule="evenodd" clip-rule="evenodd" d="M101.5 1.153C53.148 10.14 13.388 48.565 2.422 96.904C0.378998 105.91 0.0179977 110.125 0.0179977 125C0.0179977 139.875 0.378998 144.09 2.422 153.096C13.486 201.868 53.509 240.224 102.434 248.943C110.105 250.31 139.895 250.31 147.566 248.943C196.491 240.224 236.514 201.868 247.578 153.096C249.621 144.09 249.982 139.875 249.982 125C249.982 110.125 249.621 105.91 247.578 96.904C236.514 48.132 196.491 9.776 147.566 1.057C140.422 -0.215999 108.508 -0.149999 101.5 1.153Z" fill="white"/>
<path fill-rule="evenodd" clip-rule="evenodd" d="M113.5 10.096C86.657 12.55 63.407 23.661 43.534 43.534C23.196 63.873 12.308 87.098 10.12 114.81C7.361 149.753 19.156 182.145 43.505 206.495C88.678 251.667 161.302 251.661 206.482 206.482C230.631 182.332 242.732 149.287 239.889 115.253C239.088 105.663 238.844 104.143 236.934 96.853C235.96 93.134 234.096 91.642 231.614 92.595C230.852 92.887 220.39 110.249 208.364 131.176C196.339 152.103 184.789 171.183 182.697 173.576C180.405 176.198 176.245 179.232 172.223 181.213C165.701 184.427 165.211 184.508 150.276 184.84L135 185.179V149.39C135 127.789 134.638 113.977 134.087 114.55C133.586 115.072 125.94 128.1 117.098 143.5C99.787 173.649 97.057 177.131 87 181.894C81.962 184.281 80.22 184.528 66.25 184.839L51 185.179V132.59V80H72H93V115.5C93 135.025 93.338 150.992 93.75 150.983C94.162 150.973 103.653 134.998 114.839 115.483L135.178 80H156.089H177V116.2C177 138.339 177.359 152.031 177.923 151.45C178.431 150.928 189.006 132.839 201.423 111.253C218.543 81.493 224 71.198 224 68.66C224 61.985 209.422 44.213 195.125 33.457C171.125 15.403 143.122 7.38799 113.5 10.096Z" fill="#CBCBCB"/>
<path fill-rule="evenodd" clip-rule="evenodd" d="M104.33 11.481C76.383 16.552 50.234 32.564 33.462 54.875C9.46 86.807 3.349 127.757 17.003 165.171C28.592 196.925 55.614 223.243 87.564 233.892C102.55 238.887 112.515 240.291 129 239.733C152.209 238.946 169.797 233.336 188.865 220.636C199.559 213.514 214.049 199.251 220.496 189.5C236.937 164.632 243.466 134.137 238.475 105.519C236.713 95.413 235.664 93 233.033 93C230.507 93 230.4 93.168 206.951 134C194.531 155.626 184.841 171.352 182.156 174.238C179.732 176.844 175.218 180.219 172.125 181.738C166.832 184.337 165.572 184.52 150.763 184.838L135.025 185.175L134.763 149.4L134.5 113.625L118.507 141.562C109.673 156.994 100.621 171.548 98.285 174.074C95.959 176.59 91.455 179.96 88.278 181.562C82.751 184.349 81.816 184.491 66.75 184.826L51 185.176V132.588V80H72H93V115.7C93 139.954 93.327 151.073 94.019 150.381C94.58 149.82 103.954 133.867 114.851 114.931L134.664 80.5L155.832 80.23L177 79.96V115.48C177 135.016 177.338 150.983 177.75 150.961C178.983 150.898 223.387 72.725 223.804 69.884C224.547 64.82 217.222 54.3 204.36 41.958C187.354 25.64 170.39 16.767 147.145 12.03C135.506 9.658 115.774 9.405 104.33 11.481Z" fill="#B5B5B5"/>
<path fill-rule="evenodd" clip-rule="evenodd" d="M107.5 11.109C69.72 16.553 35.404 42.729 19.855 77.965C8.598 103.475 6.954 134.224 15.455 160.265C20.827 176.722 29.729 191.551 41.853 204.242C51.465 214.302 60.029 220.741 72.069 226.96C104.859 243.895 142.155 244.433 175.007 228.443C221.07 206.024 246.944 156.009 238.39 105.926C236.47 94.685 235.613 92.772 232.685 93.189C230.97 93.434 225.77 101.715 208.324 131.984C193.917 156.98 184.632 172.02 181.831 174.899C173.963 182.984 164.195 186 145.876 186H135.025L134.762 150.085L134.5 114.171L118 142.713C104.571 165.942 100.522 172.149 96.247 176.057C88.252 183.365 82.444 185.184 65.25 185.768L51 186.252V133.126V80H72H93V115C93 134.25 93.338 150 93.75 149.999C94.162 149.998 103.5 134.267 114.5 115.04L134.5 80.082L155.75 80.041L177 80V115.7C177 139.721 177.33 151.07 178.009 150.391C180.509 147.891 223.251 72.23 223.689 69.529C224.33 65.581 218.374 56.494 208.061 45.681C190.63 27.406 168.083 15.455 143.523 11.471C133.771 9.89 117.121 9.722 107.5 11.109Z" fill="#858585"/>
<path fill-rule="evenodd" clip-rule="evenodd" d="M107 11.527C90.773 14.071 73.467 20.912 59.5 30.304C51.138 35.927 36.934 50.007 31.125 58.432C-0.349998 104.082 4.006 164.107 41.692 204.057C71.952 236.134 119.286 248.029 161.026 234.045C178.609 228.154 192.773 219.354 206.064 206.064C232.217 179.91 244.023 144.262 238.551 107.964C235.155 85.439 235.454 85.201 208.586 131.823C196.439 152.9 185.029 171.892 183.232 174.027C181.206 176.433 177.046 179.351 172.288 181.702L164.612 185.496L149.819 185.857L135.025 186.217L134.763 150.359L134.5 114.5L118.5 142.369C108.847 159.184 100.804 172.002 98.225 174.684C95.769 177.237 91.087 180.477 87.225 182.296C80.797 185.324 79.849 185.481 65.75 185.841L51 186.218V132.589V78.96L72.25 79.23L93.5 79.5L94 114.574L94.5 149.649L114.846 114.305L135.192 78.961L156.346 79.23L177.5 79.5L177.775 115L178.05 150.5L182.141 143.5C212.57 91.435 224.111 70.337 223.591 67.724C222.05 59.966 203.601 39.415 190 30.303C164.933 13.511 136.034 6.974 107 11.527Z" fill="#696969"/>
<path fill-rule="evenodd" clip-rule="evenodd" d="M113 10.694C63.801 15.957 23.461 52.018 12.918 100.161C4.496 138.62 16.092 178.184 43.954 206.046C88.922 251.013 161.043 251.003 206.023 206.023C234.074 177.973 245.77 137.504 236.88 99.264C235.685 94.124 232.992 91.56 230.982 93.651C230.533 94.118 220.2 111.825 208.019 133C195.839 154.175 184.889 172.56 183.686 173.856C179.826 178.016 172.861 182.253 166.76 184.152C162.277 185.547 157.66 186 147.924 186H135.025L134.763 150.285L134.5 114.569L119.234 141.156C101.12 172.705 99.575 174.939 92.752 179.448C85.331 184.352 77.923 186 63.29 186H51V132.48V78.96L72.25 79.23L93.5 79.5L94 114.471L94.5 149.443L114.631 114.471L134.762 79.5H156.131H177.5L178 114.659L178.5 149.818L200.943 110.722C218.391 80.328 223.365 70.893 223.292 68.329C223.082 60.914 204.481 40.075 188.741 29.621C166.415 14.793 138.918 7.922 113 10.694Z" fill="#565656"/>
<path fill-rule="evenodd" clip-rule="evenodd" d="M111.286 11.032C44.762 19.399 -0.726003 82.309 12.61 147.5C22.833 197.476 62.987 233.747 114.004 239.089C159.324 243.834 204.782 219.36 226.013 178.783C235.825 160.029 239.405 145.424 239.315 124.5C239.231 104.599 236.182 91.803 231.928 93.494C231.142 93.806 220.825 110.971 209 131.637C197.175 152.304 185.558 171.402 183.185 174.076C180.446 177.162 176.435 180.137 172.206 182.219C165.703 185.421 165.177 185.509 150.284 185.857L135.025 186.213L134.763 150.523L134.5 114.834L118.562 142.667C101.129 173.109 97.167 178.174 87.147 182.827C81.996 185.219 80.16 185.483 66.25 185.832L51 186.214V132.587V78.96L72.25 79.23L93.5 79.5L94 114.327L94.5 149.153L114.556 114.327L134.611 79.5L156.293 79.231L177.974 78.961L178.237 114.231L178.5 149.5L200.75 110.783C225.088 68.434 225.101 68.401 220.383 61.39C203.346 36.067 177.487 18.726 147.538 12.54C138.242 10.619 120.448 9.87901 111.286 11.032Z" fill="#313131"/>
<path fill-rule="evenodd" clip-rule="evenodd" d="M101.108 13.113C59.008 21.95 25.312 54.024 14.322 95.723C10.858 108.864 9.967 132.171 12.427 145.275C21.263 192.348 57.343 228.59 104.224 237.483C114.659 239.462 135.429 239.446 145.953 237.449C169.825 232.921 190.495 221.632 207.605 203.776C223.302 187.396 233.241 168.14 237.449 145.953C240.648 129.089 238.452 96.383 233.959 93.978C231.544 92.686 232.135 91.778 207.926 134C185.909 172.4 182.078 177.617 172.266 182.57C166.723 185.368 165.871 185.494 150.263 185.826L134.026 186.172L133.763 151.638L133.5 117.104L118.5 143.302C101.674 172.689 97.393 178.159 87.722 182.626C81.838 185.344 80.645 185.517 65.75 185.819L50 186.138V132.569V79H71.987H93.974L94.237 113.827L94.5 148.654L114.5 113.842L134.5 79.03L156.237 79.015L177.974 79L178.237 113.985L178.5 148.97L200.491 110.735C215.313 84.964 222.594 71.344 222.827 68.952C223.121 65.922 222.307 64.244 217.247 57.452C199.568 33.723 174.509 17.967 145.776 12.517C134.279 10.336 112.985 10.62 101.108 13.113Z" fill="black"/>
</svg>
