<svg width="64" height="64" viewBox="0 0 64 64" fill="none" xmlns="http://www.w3.org/2000/svg">
<path fill-rule="evenodd" clip-rule="evenodd" d="M0 32V64H32H64V32V0H32H0V32Z" fill="#706F70"/>
<path fill-rule="evenodd" clip-rule="evenodd" d="M0 32V64H32H64V32V0H32H0V32ZM23.044 20.082C23.949 21.773 23.815 22.424 22.329 23.55C21.323 24.313 19.461 24.951 18.191 24.968C16.705 24.989 16.136 25.412 16.595 26.155C17.038 26.87 16.87 27.038 16.155 26.595C14.514 25.582 14.724 24 16.5 24C17.325 24 18 23.523 18 22.941C18 22.359 18.45 22.16 19 22.5C19.55 22.84 20 22.266 20 21.226C20 19.549 20.784 18 21.631 18C21.795 18 22.431 18.937 23.044 20.082ZM50.903 34.919C51.907 35.555 51.552 35.764 49.654 35.654C48.195 35.569 47.001 35.163 47.001 34.75C47 33.734 49.181 33.829 50.903 34.919ZM53.82 42.833C54.249 45.75 51.327 46.83 49.557 44.409C48.407 42.836 48.45 42.384 49.855 41.317C52.046 39.653 53.43 40.182 53.82 42.833ZM42.213 47.247C41.271 47.658 42.019 47.723 43.875 47.391C46.213 46.972 47.04 47.126 46.566 47.893C45.706 49.285 42.466 49.32 39.934 47.965C37.689 46.763 37.288 44.513 39.468 45.349C40.275 45.659 41.232 45.434 41.593 44.85C42.029 44.143 42.531 44.242 43.088 45.143C43.642 46.039 43.345 46.754 42.213 47.247Z" fill="#A3A6A5"/>
<path fill-rule="evenodd" clip-rule="evenodd" d="M0 32V64H32H64V32V0H32H0V32ZM23.044 20.082C23.949 21.773 23.815 22.424 22.329 23.55C21.323 24.313 19.461 24.951 18.191 24.968C16.912 24.986 16.158 25.446 16.5 26C16.84 26.55 16.641 27 16.059 27C15.477 27 15 26.325 15 25.5C15 24.675 15.482 24 16.071 24C17.442 24 19.424 21.996 20.275 19.75C21.135 17.477 21.685 17.543 23.044 20.082ZM44.65 22.682L46.799 25.281L44.254 27.641C42.854 28.938 41.489 30 41.222 30C40.955 30 40.978 28.2 41.273 26C41.81 22 40.63 20.441 39.577 23.759C39.269 24.726 38.002 25.98 36.759 26.546C35.517 27.111 34.612 28.119 34.75 28.787C34.887 29.454 34.298 30 33.441 30C32.584 30 32.174 30.472 32.53 31.049C32.974 31.766 33.62 31.731 34.578 30.935C35.348 30.296 35.731 29.374 35.43 28.887C35.129 28.399 35.809 28 36.941 28C38.333 28 39 28.648 39 30C39 32.77 41.576 32.515 44.652 29.439C47.783 26.308 49.035 27.131 46.873 30.899C45.335 33.579 45.354 33.655 47.452 33.254C48.687 33.018 50.219 33.558 51.007 34.508C52.226 35.977 52.158 36.137 50.446 35.839C49.017 35.59 48.584 35.992 48.817 37.352C49.088 38.931 48.919 39.005 47.672 37.852C46.868 37.109 46.383 36.214 46.594 35.864C46.805 35.514 46.083 34.993 44.989 34.707C43.502 34.318 43 34.683 43 36.153C43 37.461 43.418 37.865 44.25 37.362C44.938 36.946 44.038 38.079 42.25 39.88C38.791 43.364 38.359 44.486 40.067 45.542C40.654 45.904 41.357 45.35 41.63 44.309C41.902 43.268 43.047 42.347 44.175 42.262C45.303 42.177 45.936 42.397 45.582 42.752C45.227 43.106 45.964 44.013 47.219 44.767C49.444 46.104 48.46 45.976 44.576 44.422C43.04 43.808 42.782 43.99 43.295 45.326C43.737 46.48 43.403 47.025 42.219 47.079C41.122 47.129 40.964 47.344 41.784 47.673C42.49 47.957 43.656 47.7 44.376 47.103C45.778 45.94 47.296 46.712 46.414 48.139C45.491 49.633 41.072 49.072 39.25 47.23C37.666 45.628 37.099 45.592 33.257 46.846C28.744 48.321 18 47.674 18 45.928C18 45.418 17.1 45 16 45C12.974 45 13.336 39.972 16.582 36.924C18.611 35.019 20.252 34.498 24.252 34.49C27.417 34.483 29.497 34.008 29.756 33.233C29.984 32.548 30.582 32.242 31.085 32.553C31.588 32.864 32 32.641 32 32.059C32 31.477 31.464 31 30.809 31C30.154 31 30.447 30.393 31.462 29.652C33.784 27.954 32.667 26 29.375 26C27.229 26 26.913 25.603 27.184 23.25C27.47 20.757 27.967 20.443 32.5 19.89C39.44 19.043 42.155 19.667 44.65 22.682ZM36.863 22.803C37.824 23.476 37.891 23.919 37.088 24.304C36.352 24.657 36.339 24.779 37.05 24.65C38.587 24.371 38.427 22.623 36.825 22.199C35.779 21.922 35.787 22.049 36.863 22.803ZM26.411 27.121C28.016 30.34 27.769 32.011 25.691 31.985C24.908 31.975 24.972 31.67 25.878 31.096C27.462 30.093 26.543 27.942 24.718 28.38C24.048 28.541 23.837 28.483 24.25 28.253C25.743 27.418 24.958 25.802 23.359 26.416C21.986 26.943 21.924 26.796 22.981 25.523C24.641 23.523 24.608 23.507 26.411 27.121ZM20.5 27C20.84 27.55 20.416 28 19.559 28C18.702 28 18 27.55 18 27C18 26.45 18.423 26 18.941 26C19.459 26 20.16 26.45 20.5 27ZM20.398 40.804C19.044 41.707 17.971 44.638 18.72 45.387C19.041 45.708 19.918 44.785 20.669 43.336C22.141 40.499 22.056 39.7 20.398 40.804ZM53.82 42.833C54.249 45.75 51.327 46.83 49.557 44.409C48.407 42.836 48.45 42.384 49.855 41.317C52.046 39.653 53.43 40.182 53.82 42.833ZM12.236 43.457C12.641 45.574 12.455 45.779 10.89 44.941C9.848 44.384 9.317 43.337 9.644 42.485C10.503 40.247 11.709 40.699 12.236 43.457Z" fill="#878A89"/>
<path fill-rule="evenodd" clip-rule="evenodd" d="M0 32V64H32H64V32V0H32H0V32ZM22.646 23.228C21.466 24.178 19.412 24.966 18.083 24.978C16.754 24.99 15.998 25.332 16.404 25.737C16.809 26.143 17.896 26.48 18.818 26.487C19.74 26.494 20.525 27.175 20.562 28C20.688 30.797 19.968 30.877 17.441 28.35C15.772 26.681 15.123 25.188 15.521 23.935C15.851 22.893 16.432 22.085 16.811 22.139C18.847 22.429 19.825 21.777 20.346 19.786C20.921 17.585 20.938 17.584 22.858 19.536C24.77 21.478 24.767 21.519 22.646 23.228ZM42.108 20C43.238 20 44.431 21.005 44.963 22.403C45.466 23.724 46.381 25.117 46.997 25.498C48.314 26.312 47.958 31.17 46.504 32.235C45.952 32.639 46.457 32.976 47.628 32.985C48.798 32.993 50.373 33.759 51.128 34.687C52.327 36.162 52.283 36.293 50.782 35.731C49.837 35.377 48.798 35.518 48.473 36.044C48.148 36.57 48.385 37 49 37C49.615 37 49.842 37.446 49.505 37.992C49.159 38.552 47.81 37.901 46.401 36.492C43.482 33.573 43.333 33.525 43.333 35.5C43.333 36.325 43.821 37.015 44.417 37.033C45.013 37.052 44.438 37.952 43.139 39.033C41.841 40.115 41.139 41 41.58 41C42.021 41 41.509 41.645 40.441 42.433C38.859 43.6 38.737 44.106 39.783 45.165C40.832 46.229 41.171 46.062 41.646 44.244C41.966 43.022 42.703 42.316 43.284 42.675C43.935 43.078 44.102 42.709 43.721 41.715C43.286 40.582 43.533 40.267 44.551 40.658C45.348 40.964 46 41.855 46 42.638C46 43.422 46.641 44.309 47.424 44.609C48.62 45.068 48.584 45.463 47.201 47.078C45.181 49.437 42.21 49.536 39.084 47.346C37.384 46.155 36.271 45.972 35.111 46.693C33.625 47.616 20.453 47.661 15.27 46.761C12.706 46.316 11.01 45 13 45C13.733 45 14.044 44.711 13.691 44.357C13.337 44.004 12.415 44.241 11.641 44.883C10.545 45.793 10.106 45.72 9.659 44.554C9.003 42.843 11.694 39.693 13.081 40.55C13.586 40.862 14 40.62 14 40.011C14 39.403 15.213 37.78 16.695 36.407C18.811 34.446 20.255 33.972 23.414 34.204C26.363 34.421 27.512 34.1 27.717 33C28.153 30.666 26.633 29.03 23.81 28.796C21.525 28.607 21.348 28.329 22.252 26.347C23.613 23.36 25.554 22.735 25.742 25.223C25.917 27.555 26.727 28.606 27.643 27.691C27.996 27.337 27.829 26.475 27.271 25.774C26.242 24.482 26.348 21.318 27.457 20.209C27.792 19.875 29.963 19.7 32.283 19.82C34.602 19.941 37.175 19.595 38 19.052C38.96 18.42 39.62 18.413 39.833 19.032C40.017 19.564 41.04 20 42.108 20ZM40.5 23C40.84 23.55 41.316 24 41.559 24C41.802 24 42 23.55 42 23C42 22.45 41.523 22 40.941 22C40.359 22 40.16 22.45 40.5 23ZM38.5 25.5C38.5 26.77 38.856 27.589 39.29 27.321C39.725 27.052 39.788 27.995 39.432 29.416C38.968 31.264 39.178 32 40.169 32C42.229 32 46.121 29.006 45.458 27.932C45.141 27.419 45.434 27 46.108 27C46.782 27 47.015 26.682 46.626 26.293C46.238 25.904 44.864 26.814 43.575 28.314L41.231 31.043L40.577 27.556C39.81 23.469 38.5 22.172 38.5 25.5ZM29.339 27.217C28.81 27.923 28.461 29.063 28.564 29.75C28.666 30.438 28.842 31.788 28.954 32.75C29.083 33.854 29.345 34.036 29.664 33.244C29.943 32.553 30.582 32.242 31.085 32.553C31.588 32.864 32 32.674 32 32.132C32 31.59 32.563 30.954 33.25 30.719C33.938 30.484 33.515 30.453 32.312 30.649C30.651 30.921 30.159 30.536 30.271 29.055C30.39 27.468 30.69 27.327 31.872 28.301C33.034 29.26 33.23 29.212 32.85 28.063C32.196 26.084 30.495 25.674 29.339 27.217ZM34.872 27.75C33.629 29.336 33.664 29.371 35.25 28.128C36.916 26.821 37.445 26 36.622 26C36.415 26 35.627 26.788 34.872 27.75ZM25.5 30.765C26.05 31.169 26.632 32.12 26.793 32.878C27.006 33.882 26.464 34.066 24.793 33.555C23.532 33.17 21.98 32.813 21.345 32.761C20.71 32.709 20.421 32.067 20.702 31.333C21.256 29.891 23.887 29.58 25.5 30.765ZM22.813 31.683C23.534 31.972 24.397 31.936 24.729 31.604C25.061 31.272 24.471 31.036 23.417 31.079C22.252 31.127 22.015 31.364 22.813 31.683ZM20.398 40.804C19.044 41.707 17.971 44.638 18.72 45.387C19.041 45.708 19.918 44.785 20.669 43.336C22.141 40.499 22.056 39.7 20.398 40.804ZM53.82 42.833C54.249 45.75 51.327 46.83 49.557 44.409C48.407 42.836 48.45 42.384 49.855 41.317C52.046 39.653 53.43 40.182 53.82 42.833ZM43 45C43 45.55 44.013 45.993 45.25 45.985C47.069 45.972 47.213 45.784 46 45C44.061 43.747 43 43.747 43 45ZM41.813 47.683C42.534 47.972 43.397 47.936 43.729 47.604C44.061 47.272 43.471 47.036 42.417 47.079C41.252 47.127 41.015 47.364 41.813 47.683Z" fill="#797B7A"/>
<path fill-rule="evenodd" clip-rule="evenodd" d="M0 32V64H32H64V32V0H32H0V32ZM22.805 23.182C21.537 24.158 19.712 24.966 18.75 24.978C17.788 24.99 17 25.4 17 25.889C17 26.378 17.788 26.715 18.75 26.639C19.827 26.553 20.372 27.077 20.167 28C19.983 28.825 20.133 29.2 20.5 28.833C20.867 28.467 21.21 27.792 21.262 27.333C21.424 25.914 23.832 23.95 25.064 24.232C25.707 24.379 26.373 23.671 26.542 22.658C27 19.918 27.707 19.554 31.975 19.862C34.114 20.017 36.795 19.645 37.932 19.036C39.311 18.298 40 18.274 40 18.965C40 19.534 40.914 20 42.031 20C43.149 20 44.35 20.788 44.702 21.75C45.053 22.712 46.158 24.565 47.157 25.868C48.155 27.17 48.654 28.745 48.264 29.368C47.036 31.331 47.129 33 48.466 33C49.175 33 50.373 33.759 51.128 34.687C52.319 36.152 52.285 36.294 50.872 35.765C49.976 35.43 48.72 35.68 48.08 36.32C47.196 37.204 46.72 37.165 46.097 36.157C45.489 35.173 45.086 35.433 44.537 37.165C43.62 40.056 42.937 43.956 43.647 42.25C44.376 40.496 46 40.69 46 42.531C46 43.374 46.641 44.309 47.424 44.609C48.62 45.068 48.584 45.463 47.201 47.078C45.181 49.437 42.21 49.536 39.084 47.346C37.327 46.116 36.292 45.961 35.043 46.741C33.192 47.897 15.067 47.777 13.156 46.596C12.502 46.192 12.286 45.33 12.676 44.681C13.145 43.898 12.854 43.929 11.809 44.776C10.513 45.825 10.13 45.782 9.651 44.533C9.331 43.698 9.745 42.449 10.572 41.757C11.399 41.066 13.697 39.038 15.678 37.25C17.659 35.462 20.004 33.964 20.89 33.921C21.835 33.875 22.007 33.642 21.306 33.356C20.65 33.089 20.367 32.206 20.679 31.394C20.99 30.583 20.853 30.049 20.373 30.209C18.641 30.786 14.878 25.958 15.51 23.969C15.846 22.908 16.432 22.085 16.811 22.139C18.843 22.428 19.824 21.78 20.34 19.806C20.906 17.644 20.944 17.639 23.012 19.511L25.109 21.409L22.805 23.182ZM40.5 23C40.84 23.55 41.316 24 41.559 24C41.802 24 42 23.55 42 23C42 22.45 41.523 22 40.941 22C40.359 22 40.16 22.45 40.5 23ZM38.564 24.293C38.94 25.279 39.499 25.834 39.807 25.526C40.115 25.219 39.808 24.412 39.124 23.733C38.136 22.753 38.022 22.868 38.564 24.293ZM26.566 26.893C25.896 27.977 26.485 28.25 29.5 28.25C32.515 28.25 33.104 27.977 32.434 26.893C31.943 26.099 31.542 26.123 31.013 26.979C30.608 27.634 29.927 28.171 29.5 28.171C29.073 28.171 28.392 27.634 27.987 26.979C27.458 26.123 27.057 26.099 26.566 26.893ZM34.872 27.75C33.629 29.336 33.664 29.371 35.25 28.128C36.916 26.821 37.445 26 36.622 26C36.415 26 35.627 26.788 34.872 27.75ZM44.875 26.5C44.806 26.775 44.673 27.563 44.58 28.25C44.486 28.938 43.834 29.376 43.13 29.225C42.427 29.074 42.15 29.433 42.515 30.024C42.981 30.778 43.595 30.751 44.578 29.935C45.348 29.296 45.755 28.413 45.483 27.972C45.21 27.531 45.553 26.943 46.244 26.664C47.242 26.262 47.243 26.142 46.25 26.079C45.563 26.036 44.944 26.225 44.875 26.5ZM39.5 29C39.125 30.183 39.042 31.376 39.317 31.651C39.592 31.926 40.125 31.183 40.5 30C40.875 28.817 40.958 27.624 40.683 27.349C40.408 27.074 39.875 27.817 39.5 29ZM23.908 29.943C25.082 30.669 25.08 30.866 23.895 31.253C23.128 31.503 23.55 31.531 24.834 31.314C26.273 31.071 26.921 31.318 26.525 31.96C26.171 32.532 26.359 33 26.941 33C27.523 33 28 32.502 28 31.893C28 31.284 28.698 31.054 29.552 31.382C30.496 31.744 30.848 31.563 30.451 30.92C30.092 30.339 29.168 30.105 28.399 30.4C27.629 30.696 27 30.597 27 30.181C27 29.766 25.993 29.35 24.763 29.257C23.148 29.135 22.91 29.327 23.908 29.943ZM50 38C50 38.55 49.55 39 49 39C48.45 39 48 38.55 48 38C48 37.45 48.45 37 49 37C49.55 37 50 37.45 50 38ZM21 40.892C21 41.566 20.48 41.797 19.845 41.405C19.101 40.945 18.964 41.132 19.458 41.933C20.004 42.815 20.536 42.864 21.296 42.104C21.885 41.515 22.059 40.726 21.683 40.35C21.308 39.974 21 40.218 21 40.892ZM53.82 42.833C54.249 45.75 51.327 46.83 49.557 44.409C48.407 42.836 48.45 42.384 49.855 41.317C52.046 39.653 53.43 40.182 53.82 42.833ZM39.736 42.598C38.834 43.499 40.075 46.071 41.105 45.435C41.597 45.131 42 44.234 42 43.441C42 41.968 40.809 41.525 39.736 42.598ZM43 45C43 45.55 44.013 45.993 45.25 45.985C47.069 45.972 47.213 45.784 46 45C44.061 43.747 43 43.747 43 45ZM41.813 47.683C42.534 47.972 43.397 47.936 43.729 47.604C44.061 47.272 43.471 47.036 42.417 47.079C41.252 47.127 41.015 47.364 41.813 47.683Z" fill="#FFB200"/>
<path fill-rule="evenodd" clip-rule="evenodd" d="M19.279 19.041C18.917 20.427 18.063 20.989 16.623 20.791C15.074 20.579 14.58 20.974 14.794 22.25C14.955 23.212 14.618 24 14.044 24C12.011 24 13.043 26.391 16.25 29.108L19.5 31.862L16 35.169C14.075 36.987 11.6 38.944 10.5 39.517C9.188 40.201 8.5 41.573 8.5 43.506C8.5 46.257 8.866 46.538 14 47.729C17.025 48.43 23.775 48.938 29 48.856C34.225 48.775 39.691 49.195 41.147 49.79C42.603 50.385 44.059 50.607 44.383 50.284C44.707 49.96 46.328 49.733 47.986 49.781C49.701 49.829 51 49.352 51 48.674C51 48.018 51.9 46.919 53 46.232C55.134 44.9 55.688 41.543 53.951 40.47C53.231 40.025 53.225 39.434 53.932 38.581C54.679 37.682 54.121 36.48 51.899 34.208C50.214 32.485 49.106 30.638 49.436 30.103C50.276 28.744 46.212 21.262 43.665 19.478C41.204 17.754 40 17.597 40 19C40 19.55 40.867 20 41.927 20C44.469 20 47.488 25.599 45.382 26.407C44.612 26.703 44.098 27.519 44.241 28.222C44.383 28.925 43.904 29.376 43.176 29.225C42.447 29.074 42.15 29.433 42.515 30.024C42.981 30.778 43.595 30.751 44.578 29.935C45.348 29.296 45.761 28.422 45.495 27.991C45.229 27.561 45.647 26.966 46.423 26.668C47.885 26.107 49.341 28.326 48.235 29.431C47.034 30.633 47.187 33 48.466 33C49.175 33 50.373 33.759 51.128 34.687C52.325 36.16 52.284 36.293 50.801 35.738C49.549 35.269 49.258 35.51 49.697 36.652C50.47 38.666 47.976 40.225 46.259 38.8C44.668 37.48 43.696 38.313 43.371 41.276C43.237 42.499 43.361 42.938 43.647 42.25C44.376 40.496 46 40.69 46 42.531C46 43.374 46.641 44.309 47.424 44.609C49.693 45.48 46.097 49.015 43.028 48.93C40.684 48.865 40.645 48.79 42.5 47.909C44.308 47.05 44.273 47.003 42.135 47.416C40.834 47.667 38.958 47.366 37.966 46.747C36.659 45.93 35.796 45.921 34.831 46.713C33.363 47.92 15.138 47.821 13.156 46.596C12.502 46.192 12.286 45.33 12.676 44.681C13.145 43.898 12.854 43.929 11.809 44.776C10.513 45.825 10.13 45.782 9.651 44.533C9.331 43.698 9.745 42.449 10.572 41.757C11.399 41.066 13.697 39.038 15.678 37.25C17.659 35.462 20.004 33.964 20.89 33.921C21.835 33.875 22.007 33.642 21.306 33.356C20.65 33.089 20.389 32.151 20.726 31.271C21.121 30.242 20.941 29.919 20.22 30.364C19.604 30.745 18.627 30.171 18.047 29.089C17.349 27.783 17.332 26.913 17.997 26.502C19.407 25.631 21.17 26.915 20.362 28.224C19.948 28.893 20.16 29.019 20.912 28.554C21.584 28.139 21.9 27.566 21.614 27.281C20.885 26.551 23.689 23.907 24.846 24.232C25.371 24.379 25.769 24.275 25.731 24C25.693 23.725 26.164 22.562 26.778 21.415C27.635 19.814 28.598 19.434 30.934 19.777C34.429 20.29 39 19.355 39 18.128C39 16.833 28.69 18.08 26.966 19.583C25.664 20.717 25.245 20.622 24.207 18.96C22.612 16.406 19.957 16.45 19.279 19.041ZM22.805 23.182C21.537 24.158 19.75 24.966 18.833 24.978C17.917 24.99 16.966 25.563 16.72 26.25C16.475 26.938 15.946 27.196 15.546 26.825C14.698 26.04 15.791 21.993 16.811 22.139C18.843 22.428 19.824 21.78 20.34 19.806C20.906 17.644 20.944 17.639 23.012 19.511L25.109 21.409L22.805 23.182ZM40.5 23C40.84 23.55 41.316 24 41.559 24C41.802 24 42 23.55 42 23C42 22.45 41.523 22 40.941 22C40.359 22 40.16 22.45 40.5 23ZM38.564 24.293C38.94 25.279 39.499 25.834 39.807 25.526C40.115 25.219 39.808 24.412 39.124 23.733C38.136 22.753 38.022 22.868 38.564 24.293ZM26.566 26.893C25.896 27.977 26.485 28.25 29.5 28.25C32.515 28.25 33.104 27.977 32.434 26.893C31.943 26.099 31.542 26.123 31.013 26.979C30.608 27.634 29.927 28.171 29.5 28.171C29.073 28.171 28.392 27.634 27.987 26.979C27.458 26.123 27.057 26.099 26.566 26.893ZM34.872 27.75C33.629 29.336 33.664 29.371 35.25 28.128C36.916 26.821 37.445 26 36.622 26C36.415 26 35.627 26.788 34.872 27.75ZM39.5 29C39.125 30.183 39.042 31.376 39.317 31.651C39.592 31.926 40.125 31.183 40.5 30C40.875 28.817 40.958 27.624 40.683 27.349C40.408 27.074 39.875 27.817 39.5 29ZM23.908 29.943C25.082 30.669 25.08 30.866 23.895 31.253C23.128 31.503 23.55 31.531 24.834 31.314C26.273 31.071 26.921 31.318 26.525 31.96C26.171 32.532 26.359 33 26.941 33C27.523 33 28 32.502 28 31.893C28 31.284 28.698 31.054 29.552 31.382C30.496 31.744 30.848 31.563 30.451 30.92C30.092 30.339 29.168 30.105 28.399 30.4C27.629 30.696 27 30.597 27 30.181C27 29.766 25.993 29.35 24.763 29.257C23.148 29.135 22.91 29.327 23.908 29.943ZM21 40.892C21 41.566 20.48 41.797 19.845 41.405C19.101 40.945 18.964 41.132 19.458 41.933C20.004 42.815 20.536 42.864 21.296 42.104C21.885 41.515 22.059 40.726 21.683 40.35C21.308 39.974 21 40.218 21 40.892ZM53.82 42.833C54.249 45.75 51.327 46.83 49.557 44.409C48.407 42.836 48.45 42.384 49.855 41.317C52.046 39.653 53.43 40.182 53.82 42.833ZM39.736 42.598C38.834 43.499 40.075 46.071 41.105 45.435C41.597 45.131 42 44.234 42 43.441C42 41.968 40.809 41.525 39.736 42.598ZM43 45C43 45.55 44.013 45.993 45.25 45.985C47.069 45.972 47.213 45.784 46 45C44.061 43.747 43 43.747 43 45Z" fill="#E9A300"/>
<path fill-rule="evenodd" clip-rule="evenodd" d="M20.2 18.2C19.54 18.86 19.029 20.098 19.063 20.95C19.1 21.841 19.533 21.485 20.082 20.112C21.027 17.751 21.063 17.745 23.269 19.612L25.5 21.5L23.595 19.25C21.354 16.603 21.692 16.708 20.2 18.2ZM29 19.192C29 20.231 36.107 20.219 37.748 19.177C38.457 18.726 36.84 18.385 33.998 18.385C31.249 18.385 29 18.748 29 19.192ZM40 19.031C40 19.564 40.675 20 41.5 20C42.325 20 43 19.823 43 19.607C43 19.391 42.325 18.955 41.5 18.638C40.675 18.322 40 18.499 40 19.031ZM25.994 20.75C25.985 21.731 20.223 25 18.502 25C17.768 25 16.966 25.563 16.72 26.25C15.962 28.374 14.776 26.28 15.481 24.061C15.848 22.905 16.628 22.27 17.227 22.64C17.872 23.039 18.021 22.842 17.595 22.155C16.137 19.795 15.17 20.719 14.093 25.5C13.969 26.05 14.821 27.133 15.986 27.907C17.807 29.115 18.062 29.115 17.802 27.907C17.636 27.133 18.175 26.5 19 26.5C19.825 26.5 20.376 27.096 20.225 27.824C20.074 28.553 20.392 28.876 20.932 28.542C21.471 28.209 21.631 27.202 21.286 26.304C20.834 25.125 21.028 24.899 21.985 25.49C22.897 26.054 23.071 25.924 22.545 25.073C22.008 24.205 22.45 23.936 24.033 24.169C25.725 24.418 26.371 23.941 26.636 22.25C26.829 21.012 26.765 20 26.494 20C26.222 20 25.997 20.337 25.994 20.75ZM40.5 23C40.84 23.55 41.316 24 41.559 24C41.802 24 42 23.55 42 23C42 22.45 41.523 22 40.941 22C40.359 22 40.16 22.45 40.5 23ZM45 22.75C45 23.373 45.498 24.19 46.107 24.566C46.878 25.043 46.802 25.504 45.857 26.089C45.111 26.55 44.48 27.506 44.455 28.214C44.43 28.921 43.834 29.376 43.13 29.225C42.427 29.074 42.15 29.433 42.515 30.024C42.979 30.774 43.61 30.739 44.613 29.906C45.403 29.251 45.819 28.486 45.54 28.206C45.26 27.927 45.678 27.203 46.469 26.599C47.72 25.644 47.718 25.246 46.454 23.559C45.654 22.491 45 22.127 45 22.75ZM38.564 24.293C38.94 25.279 39.499 25.834 39.807 25.526C40.115 25.219 39.808 24.412 39.124 23.733C38.136 22.753 38.022 22.868 38.564 24.293ZM26.566 26.893C25.896 27.977 26.485 28.25 29.5 28.25C32.515 28.25 33.104 27.977 32.434 26.893C31.943 26.099 31.542 26.123 31.013 26.979C30.608 27.634 29.927 28.171 29.5 28.171C29.073 28.171 28.392 27.634 27.987 26.979C27.458 26.123 27.057 26.099 26.566 26.893ZM34.872 27.75C33.629 29.336 33.664 29.371 35.25 28.128C36.916 26.821 37.445 26 36.622 26C36.415 26 35.627 26.788 34.872 27.75ZM39.5 29C39.125 30.183 39.042 31.376 39.317 31.651C39.592 31.926 40.125 31.183 40.5 30C40.875 28.817 40.958 27.624 40.683 27.349C40.408 27.074 39.875 27.817 39.5 29ZM23.908 29.943C25.082 30.669 25.08 30.866 23.895 31.253C23.128 31.503 23.55 31.531 24.834 31.314C26.273 31.071 26.921 31.318 26.525 31.96C26.171 32.532 26.359 33 26.941 33C27.523 33 28 32.502 28 31.893C28 31.284 28.698 31.054 29.552 31.382C30.496 31.744 30.848 31.563 30.451 30.92C30.092 30.339 29.168 30.105 28.399 30.4C27.629 30.696 27 30.597 27 30.181C27 29.766 25.993 29.35 24.763 29.257C23.148 29.135 22.91 29.327 23.908 29.943ZM47.5 30C47.16 30.55 47.359 31 47.941 31C48.523 31 49 30.55 49 30C49 29.45 48.802 29 48.559 29C48.316 29 47.84 29.45 47.5 30ZM18.603 31.167C18.886 31.625 19.541 32 20.059 32C20.577 32 21 31.625 21 31.167C21 30.708 20.345 30.333 19.544 30.333C18.743 30.333 18.32 30.708 18.603 31.167ZM18.558 33.907C18.249 34.405 18.898 34.578 19.999 34.29C22.334 33.679 22.629 33 20.559 33C19.766 33 18.866 33.408 18.558 33.907ZM15.02 36.476C14.231 37.426 14.155 38 14.819 38C16.027 38 17.436 36.103 16.743 35.409C16.491 35.158 15.716 35.638 15.02 36.476ZM50.25 36.41C52.291 37.938 52.541 39.108 50.75 38.75C50.063 38.612 49.612 39.063 49.75 39.75C50.08 41.399 49.429 41.327 46.465 39.385C45.109 38.497 43.967 37.934 43.926 38.135C43.421 40.616 43.244 43.217 43.647 42.25C44.361 40.533 46 40.673 46 42.45C46 43.248 46.788 44.407 47.75 45.026C49.32 46.035 49.294 46.082 47.5 45.48C46.4 45.11 44.938 44.578 44.25 44.297C43.563 44.016 43 44.284 43 44.893C43 45.502 43.938 46 45.083 46C48.285 46 46.783 48.466 43.423 48.727C40.866 48.926 40.751 48.829 42.5 47.957C44.331 47.043 44.3 46.998 42.135 47.416C40.834 47.667 38.933 47.35 37.91 46.712C36.459 45.805 35.77 45.852 34.775 46.922C33.862 47.904 33.846 48.098 34.721 47.606C35.392 47.228 37.282 47.612 38.921 48.459C42.738 50.433 45.411 50.414 47.08 48.403C48.284 46.953 48.473 46.976 49.133 48.653C49.793 50.33 49.866 50.339 49.93 48.75C49.968 47.788 50.468 47 51.039 47C51.61 47 51.18 46.037 50.083 44.859L48.089 42.718L50.544 40.786C53.606 38.378 53.685 36.406 50.75 35.666C48.703 35.151 48.658 35.218 50.25 36.41ZM9.2 41.2C7.676 42.724 7.662 44.673 9.17 45.605C9.952 46.089 10.132 45.787 9.712 44.693C9.367 43.794 9.773 42.37 10.614 41.529C11.455 40.688 11.751 40 11.271 40C10.792 40 9.86 40.54 9.2 41.2ZM21 40.892C21 41.566 20.48 41.797 19.845 41.405C19.101 40.945 18.964 41.132 19.458 41.933C20.004 42.815 20.536 42.864 21.296 42.104C21.885 41.515 22.059 40.726 21.683 40.35C21.308 39.974 21 40.218 21 40.892ZM39.736 42.598C38.834 43.499 40.075 46.071 41.105 45.435C41.597 45.131 42 44.234 42 43.441C42 41.968 40.809 41.525 39.736 42.598ZM11.667 44.667C10.735 45.599 10.835 47 11.833 47C12.292 47 12.667 46.325 12.667 45.5C12.667 43.801 12.594 43.74 11.667 44.667ZM15.813 47.683C16.534 47.972 17.397 47.936 17.729 47.604C18.061 47.272 17.471 47.036 16.417 47.079C15.252 47.127 15.015 47.364 15.813 47.683ZM21 48.25C21 48.663 23.448 49 26.441 49C29.434 49 32.091 48.663 32.345 48.25C32.6 47.837 30.152 47.5 26.905 47.5C23.657 47.5 21 47.837 21 48.25Z" fill="#987C39"/>
<path fill-rule="evenodd" clip-rule="evenodd" d="M33 19L28.5 19.7L32.5 19.834C34.7 19.909 37.175 19.533 38 19C38.825 18.467 39.05 18.091 38.5 18.166C37.95 18.24 35.475 18.615 33 19ZM40.5 23C40.84 23.55 41.316 24 41.559 24C41.802 24 42 23.55 42 23C42 22.45 41.523 22 40.941 22C40.359 22 40.16 22.45 40.5 23ZM38.564 24.293C38.94 25.279 39.499 25.834 39.807 25.526C40.115 25.219 39.808 24.412 39.124 23.733C38.136 22.753 38.022 22.868 38.564 24.293ZM17 25.889C17 26.378 17.788 26.715 18.75 26.639C19.722 26.562 20.378 27.089 20.225 27.824C20.074 28.553 20.433 28.85 21.024 28.485C21.777 28.02 21.747 27.401 20.926 26.411C19.628 24.847 17 24.498 17 25.889ZM31 27C31 27.615 30.581 27.859 30.069 27.543C29.557 27.226 28.87 27.401 28.542 27.931C28.205 28.477 28.885 28.715 30.109 28.479C32.841 27.953 33.422 27.379 32.067 26.541C31.48 26.179 31 26.385 31 27ZM34.872 27.75C33.629 29.336 33.664 29.371 35.25 28.128C36.916 26.821 37.445 26 36.622 26C36.415 26 35.627 26.788 34.872 27.75ZM44.875 26.5C44.806 26.775 44.673 27.563 44.58 28.25C44.486 28.938 43.834 29.376 43.13 29.225C42.427 29.074 42.15 29.433 42.515 30.024C42.981 30.778 43.595 30.751 44.578 29.935C45.348 29.296 45.755 28.413 45.483 27.972C45.21 27.531 45.553 26.943 46.244 26.664C47.242 26.262 47.243 26.142 46.25 26.079C45.563 26.036 44.944 26.225 44.875 26.5ZM39.5 29C39.125 30.183 39.042 31.376 39.317 31.651C39.592 31.926 40.125 31.183 40.5 30C40.875 28.817 40.958 27.624 40.683 27.349C40.408 27.074 39.875 27.817 39.5 29ZM23.908 29.943C25.082 30.669 25.08 30.866 23.895 31.253C23.128 31.503 23.55 31.531 24.834 31.314C26.273 31.071 26.921 31.318 26.525 31.96C26.171 32.532 26.359 33 26.941 33C27.523 33 28 32.502 28 31.893C28 31.284 28.698 31.054 29.552 31.382C30.496 31.744 30.848 31.563 30.451 30.92C30.092 30.339 29.168 30.105 28.399 30.4C27.629 30.696 27 30.597 27 30.181C27 29.766 25.993 29.35 24.763 29.257C23.148 29.135 22.91 29.327 23.908 29.943ZM21 40.892C21 41.566 20.48 41.797 19.845 41.405C19.101 40.945 18.964 41.132 19.458 41.933C20.004 42.815 20.536 42.864 21.296 42.104C21.885 41.515 22.059 40.726 21.683 40.35C21.308 39.974 21 40.218 21 40.892ZM43.459 41.067C43.096 41.653 43.014 42.348 43.276 42.61C43.538 42.872 44.019 42.392 44.345 41.543C45.021 39.781 44.445 39.471 43.459 41.067ZM39.603 42.833C39.32 43.292 39.743 43.667 40.544 43.667C41.345 43.667 42 43.292 42 42.833C42 42.375 41.577 42 41.059 42C40.541 42 39.886 42.375 39.603 42.833ZM43.5 45C43.84 45.55 44.879 45.993 45.809 45.985C47.266 45.971 47.293 45.835 46 45C44.042 43.734 42.718 43.734 43.5 45Z" fill="#979797"/>
</svg>
