<svg width="64" height="64" viewBox="0 0 64 64" fill="none" xmlns="http://www.w3.org/2000/svg">
<path fill-rule="evenodd" clip-rule="evenodd" d="M17.4618 2.71375C12.2754 5.37573 5.59136 12.075 2.55371 17.6571C1.29385 19.9703 0.927836 23.3518 0.935728 32.6064C0.947567 46.3448 1.70131 48.4896 9.05522 55.7091C16.3776 62.8987 19.4053 64.003 31.7168 63.9781C44.4692 63.9522 48.2646 62.5589 55.0393 55.4171C61.2735 48.8454 62.8638 45.0453 63.3729 35.5056C64.1977 20.0859 60.8305 12.7009 49.3281 4.69902C43.9118 0.9298 43.6277 0.855053 33.2223 0.462384C23.2974 0.0866574 22.3049 0.229174 17.4618 2.71375Z" fill="#FFF533"/>
<path fill-rule="evenodd" clip-rule="evenodd" d="M47.1063 16.2658C43.2942 17.379 40.7104 20.8682 37.0413 29.8557C34.1181 37.0175 31.1219 43.04 31.0558 41.889C31.0341 41.5122 32.3482 37.7101 33.976 33.4406C37.9568 22.997 37.9026 21.1453 33.6159 21.1453C28.9267 21.1453 26.0973 23.8282 22.2013 31.9686C18.4632 39.7801 17.3592 40.7199 19.6599 34.1312C21.7445 28.1635 21.5926 26.1284 19.061 26.1284C15.7027 26.1284 9.31172 33.2702 9.31172 37.0234C9.31172 40.8525 11.6272 45.6422 14.1321 46.9966C16.6498 48.358 35.7992 48.969 39.1782 47.7959C41.3053 47.0574 42.7634 45.0423 45.736 38.7297C50.4251 28.7714 53.9807 18.3198 53.2941 16.513C52.7169 14.9921 51.6149 14.9473 47.1063 16.2658Z" fill="#E8DF2E"/>
<path fill-rule="evenodd" clip-rule="evenodd" d="M44.0026 18.6697C42.2179 20.1865 39.8037 24.2208 37.8888 28.885C30.8003 46.1525 27.4291 49.7234 33.389 33.6519C37.9499 21.3546 37.947 20.7187 33.3417 21.4742C28.2598 22.3063 25.4461 25.4008 21.0352 35.0063C18.919 39.6157 16.9882 43.1846 16.7436 42.9374C16.4989 42.6912 17.3493 39.1443 18.6319 35.0571C20.3081 29.7162 20.6474 27.427 19.8385 26.9217C18.0439 25.8015 12.9344 29.3883 10.8843 33.2084C8.55897 37.5407 9.27522 41.1943 13.2324 45.1918C16.0135 48.0012 16.269 48.0541 27.0592 48.0541C33.1049 48.0541 38.9128 47.5886 39.9645 47.0196C42.3708 45.719 46.6555 37.1989 50.6353 25.7995C52.3253 20.9599 53.7075 16.811 53.7075 16.5807C53.7075 16.3505 52.1881 16.1622 50.3304 16.1622C48.161 16.1622 45.8978 17.0591 44.0026 18.6697Z" fill="#B7B024"/>
<path fill-rule="evenodd" clip-rule="evenodd" d="M47.0461 16.8658C43.8802 17.4817 40.6472 22.2884 36.4582 32.6064C33.1838 40.6691 30.2813 45.6512 29.3855 44.7453C29.205 44.5639 30.8486 39.7741 33.0368 34.1014C35.225 28.4296 36.7927 23.2013 36.5194 22.4847C35.8841 20.8104 30.2764 21.7831 27.6551 24.0225C26.6211 24.9065 23.764 29.8906 21.3065 35.098C16.564 45.1499 14.8286 45.4688 18.1632 35.676C20.6455 28.3887 20.6612 27.125 18.2668 27.125C15.8458 27.125 10.6801 32.3034 10.1128 35.2983C9.47747 38.6599 10.9623 43.4636 13.2975 45.5984C15.0102 47.1651 17.1885 47.5029 26.8135 47.6963C33.1246 47.8228 39.0924 47.492 40.075 46.9598C42.2761 45.7708 44.924 40.6163 49.337 28.9369C54.1238 16.2628 53.9827 15.5164 47.0461 16.8658Z" fill="#9F991E"/>
<path fill-rule="evenodd" clip-rule="evenodd" d="M47.0925 17.2704C43.1087 18.4285 41.9238 20.1676 36.8588 32.2935C34.4279 38.1128 31.7365 42.9254 30.2557 44.1024C27.2022 46.5282 27.7064 47.1501 33.2331 47.779C39.8057 48.5274 42.6046 45.5575 47.7338 32.3951C52.0244 21.3835 52.9804 17.0791 51.241 16.6146C50.6984 16.4701 48.8318 16.7651 47.0925 17.2704ZM27.5416 24.5647C26.2226 25.8972 23.3852 30.8304 21.2374 35.5275C17.0839 44.6097 14.3718 47.1471 16.637 39.8319C17.3582 37.5028 18.4464 34.3336 19.0561 32.7908C21.6291 26.2749 18.9614 25.1507 13.6526 30.5135C11.2375 32.9532 10.2983 34.794 10.2983 37.0872C10.2983 44.0098 15.9277 48.8922 22.4785 47.6504C26.9625 46.8003 28.4936 44.8479 32.3926 35.0013C37.6964 21.6107 37.65 22.1419 33.5044 22.1419C31.0449 22.1419 29.1971 22.8933 27.5416 24.5647Z" fill="#7B7618"/>
<path fill-rule="evenodd" clip-rule="evenodd" d="M43.4007 19.6872C42.1251 21.0775 40.075 24.778 38.8448 27.9093C35.3187 36.8819 31.1978 44.834 29.8156 45.3323C27.8672 46.0339 29.4092 47.0813 33.3417 47.7252C37.9095 48.4746 41.1652 46.3777 43.9266 40.9093C45.7458 37.3065 52.7209 18.8261 52.7209 17.6073C52.7209 17.3611 51.1463 17.1588 49.2205 17.1588C46.7413 17.1588 45.0444 17.8963 43.4007 19.6872ZM28.6742 23.287C27.657 23.884 24.9183 28.4944 22.588 33.5323C18.8114 41.6966 15.2312 46.9677 15.2312 44.3646C15.2312 43.8453 16.341 40.1239 17.6976 36.0946C19.0541 32.0653 20.164 28.3997 20.164 27.9472C20.164 26.0307 16.7643 27.3702 13.6526 30.5135C9.42123 34.788 9.1075 39.4961 12.7618 43.8822C17.6216 49.7164 25.6415 48.8095 29.0609 42.0384C31.2856 37.6344 34.8047 28.9229 35.9926 24.8826C36.7532 22.2934 36.625 22.1439 33.6603 22.1718C31.9348 22.1887 29.6913 22.691 28.6742 23.287Z" fill="#545110"/>
<path fill-rule="evenodd" clip-rule="evenodd" d="M43.9631 19.8995C42.4852 21.4064 39.3716 27.2157 37.0443 32.8077C34.7169 38.3998 32.1864 43.4995 31.4208 44.1413C29.3194 45.9033 29.7288 46.8322 32.9174 47.5398C34.7682 47.9504 36.9249 47.5956 38.9217 46.5521C42.3293 44.7722 44.4534 40.6621 49.6448 25.8045L52.6656 17.1588H49.6576C47.6854 17.1588 45.7241 18.1026 43.9631 19.8995ZM28.5607 24.3046C27.0167 25.5314 24.1656 30.1687 21.9724 35.0182C19.8454 39.7213 17.3927 44.1154 16.5226 44.7831C15.1207 45.8595 15.2262 46.1077 17.446 46.9608C20.5695 48.1607 23.9505 47.3783 26.7681 44.8061C28.8833 42.8726 35.9492 26.5779 35.9492 23.6298C35.9492 21.4104 31.7168 21.7961 28.5607 24.3046ZM15.98 28.7375C13.2156 30.2006 10.2983 34.7462 10.2983 37.5895C10.2983 40.0711 13.335 45.3951 14.2002 44.4313C15.5015 42.9832 20.0644 28.1774 19.3481 27.7299C18.9791 27.4987 17.4628 27.9532 15.98 28.7375Z" fill="#2E2D09"/>
<path fill-rule="evenodd" clip-rule="evenodd" d="M45.5919 18.8969C44.1121 19.8238 42.7032 21.0446 42.4596 21.6107C42.2169 22.1768 39.7642 27.7758 37.0097 34.0525C34.2562 40.3292 32.0029 45.8226 32.0029 46.2611C32.0029 46.6986 33.2746 47.0574 34.8294 47.0574C39.71 47.0574 42.428 43.7905 46.6594 32.8366C52.0342 18.9268 52.4259 17.1518 50.1144 17.1857C49.1061 17.1996 47.0708 17.97 45.5919 18.8969ZM28.688 24.2757C27.6797 24.8687 24.942 29.5139 22.6058 34.5997C20.2686 39.6854 17.8683 44.1513 17.2714 44.524C15.4492 45.6622 17.1461 47.0574 20.3525 47.0574C25.7086 47.0574 30.3346 40.2047 35.3197 24.8826C35.7676 23.5043 35.3237 23.1445 33.2055 23.1684C31.7296 23.1854 29.6973 23.6837 28.688 24.2757ZM13.8726 30.9829C11.6085 33.3708 11.2099 34.5668 11.4684 38.2084C11.9133 44.4712 14.07 43.8184 16.8087 36.5929C18.0557 33.3041 19.0985 30.0531 19.1261 29.3674C19.2139 27.2277 16.7021 28 13.8726 30.9829Z" fill="black"/>
</svg>
