<svg width="64" height="64" viewBox="0 0 64 64" fill="none" xmlns="http://www.w3.org/2000/svg">
<path fill-rule="evenodd" clip-rule="evenodd" d="M0 32V64H32H64V32V0H32H0V32Z" fill="#EB3A4A"/>
<path fill-rule="evenodd" clip-rule="evenodd" d="M0 32V64H32H64V32V0H32H0V32ZM25.174 22.677C28.295 25.054 31.366 27 32 27C32.634 27 35.705 25.054 38.826 22.677C47.21 16.288 47 16.337 47 20.771C47 24.225 46.505 25.017 42.587 27.83C38.771 30.571 37.337 31 32 31C26.663 31 25.229 30.571 21.413 27.83C17.495 25.017 17 24.225 17 20.771C17 16.337 16.79 16.288 25.174 22.677ZM42.587 36.17C46.505 38.983 47 39.775 47 43.229C47 47.663 47.21 47.712 38.826 41.323C35.705 38.946 32.634 37 32 37C31.366 37 28.295 38.946 25.174 41.323C16.792 47.711 17 47.662 17 43.238C17 39.832 17.52 38.974 21.25 36.218C24.939 33.493 26.336 33.074 31.837 33.04C37.391 33.005 38.718 33.391 42.587 36.17Z" fill="#D13543"/>
<path fill-rule="evenodd" clip-rule="evenodd" d="M0 32V64H32H64V32V0H32H0V32ZM24.693 22C28.326 24.75 31.614 27 32 27C32.386 27 35.674 24.75 39.307 22C42.939 19.25 46.156 17 46.456 17C46.755 17 47 18.761 47 20.913C47 24.353 46.492 25.201 42.803 27.913C39.113 30.627 37.808 31 32 31C26.192 31 24.887 30.627 21.197 27.913C17.508 25.201 17 24.353 17 20.913C17 18.761 17.245 17 17.544 17C17.844 17 21.061 19.25 24.693 22ZM42.803 36.087C46.492 38.799 47 39.647 47 43.087C47 45.239 46.755 47 46.456 47C46.156 47 42.939 44.75 39.307 42C35.674 39.25 32.386 37 32 37C31.614 37 28.326 39.25 24.693 42C21.061 44.75 17.844 47 17.544 47C17.245 47 17 45.239 17 43.087C17 39.647 17.508 38.799 21.197 36.087C24.887 33.373 26.192 33 32 33C37.808 33 39.113 33.373 42.803 36.087Z" fill="#B6303C"/>
<path fill-rule="evenodd" clip-rule="evenodd" d="M0 32V64H32H64V32V0H32H0V32ZM39.5 21.597L47 15.952V20.392C47 24.357 46.584 25.162 43.106 27.916C39.57 30.716 38.549 31 32 31C25.451 31 24.43 30.716 20.894 27.916C17.416 25.162 17 24.357 17 20.392V15.952L24.5 21.597L32 27.242L39.5 21.597ZM43.106 36.084C46.584 38.838 47 39.643 47 43.608V48.048L39.5 42.403L32 36.758L24.5 42.403L17 48.048V43.621C17 39.717 17.443 38.832 20.75 36.131C24.165 33.34 25.156 33.064 31.856 33.034C38.591 33.003 39.541 33.261 43.106 36.084Z" fill="#8A2831"/>
<path fill-rule="evenodd" clip-rule="evenodd" d="M0 32V64H32H64V32V0H32H0V32ZM24.661 21.524L32 27.048L39.339 21.524C43.375 18.486 46.975 16 47.339 16C48.239 16 48.151 23.24 47.235 24.553C46.831 25.132 44.883 26.819 42.906 28.303C39.773 30.653 38.38 31 32.069 31C25.531 31 24.398 30.692 20.413 27.83C16.363 24.922 16 24.305 16 20.33C16 17.949 16.297 16 16.661 16C17.025 16 20.625 18.486 24.661 21.524ZM42.906 35.697C44.883 37.181 46.831 38.868 47.235 39.447C48.151 40.76 48.239 48 47.339 48C46.975 48 43.375 45.514 39.339 42.476L32 36.952L24.661 42.476C20.625 45.514 17.025 48 16.661 48C16.297 48 16 46.055 16 43.679C16 39.754 16.39 39.069 20.25 36.218C24.095 33.378 25.205 33.075 31.906 33.04C38.428 33.005 39.74 33.322 42.906 35.697Z" fill="#70242B"/>
<path fill-rule="evenodd" clip-rule="evenodd" d="M0 32V64H32H64V32V0H32H0V32ZM24.307 21C27.939 23.75 31.401 26 32 26C32.599 26 36.061 23.75 39.693 21C43.326 18.25 46.681 16 47.149 16C47.617 16 48 17.997 48 20.438C48 24.552 47.672 25.111 43.5 28.107C41.025 29.885 39 31.636 39 32C39 32.364 41.025 34.115 43.5 35.893C47.672 38.889 48 39.448 48 43.562C48 46.003 47.617 48 47.149 48C46.681 48 43.326 45.75 39.693 43C36.061 40.25 32.599 38 32 38C31.401 38 27.939 40.25 24.307 43C20.674 45.75 17.319 48 16.851 48C16.383 48 16 46.003 16 43.562C16 39.448 16.328 38.889 20.5 35.893C22.975 34.115 25 32.364 25 32C25 31.636 22.975 29.885 20.5 28.107C16.328 25.111 16 24.552 16 20.438C16 17.997 16.383 16 16.851 16C17.319 16 20.674 18.25 24.307 21Z" fill="#3B1A1D"/>
<path fill-rule="evenodd" clip-rule="evenodd" d="M0 32V64H32H64V32V0H32H0V32ZM24 20.5C28.043 23.525 31.643 26 32 26C32.357 26 35.99 23.497 40.074 20.437L47.5 14.874L47.815 19.683C48.144 24.711 47.459 25.763 40.832 30.405L38.555 32L40.832 33.595C47.459 38.237 48.144 39.289 47.815 44.317L47.5 49.126L40.074 43.563C35.99 40.503 32.357 38 32 38C31.643 38 28.043 40.475 24 43.5C19.957 46.525 16.503 49 16.324 49C16.146 49 16 46.764 16 44.032C16 39.307 16.219 38.903 20.461 35.782C22.915 33.977 24.922 32.275 24.922 32C24.922 31.725 22.915 30.023 20.461 28.218C16.219 25.097 16 24.693 16 19.968C16 17.236 16.146 15 16.324 15C16.503 15 19.957 17.475 24 20.5Z" fill="#281617"/>
<path fill-rule="evenodd" clip-rule="evenodd" d="M0 32V64H32H64V32V0H32H0V32ZM24.532 20.621L32 26.242L39.468 20.621C43.576 17.53 47.176 15 47.468 15C47.761 15 47.99 17.362 47.979 20.25C47.958 25.223 47.747 25.649 43.979 28.315C41.79 29.863 40 31.521 40 32C40 32.479 41.79 34.137 43.979 35.685C47.747 38.351 47.958 38.777 47.979 43.75C47.99 46.638 47.761 49 47.468 49C47.176 49 43.576 46.47 39.468 43.379L32 37.758L24.532 43.379C20.424 46.47 16.824 49 16.532 49C16.239 49 16.01 46.638 16.021 43.75C16.042 38.777 16.253 38.351 20.021 35.685C22.21 34.137 24 32.479 24 32C24 31.521 22.21 29.863 20.021 28.315C16.253 25.649 16.042 25.223 16.021 20.25C16.01 17.362 16.239 15 16.532 15C16.824 15 20.424 17.53 24.532 20.621Z" fill="#131313"/>
</svg>
