<svg width="64" height="64" viewBox="0 0 64 64" fill="none" xmlns="http://www.w3.org/2000/svg">
<g clip-path="url(#clip0_1_296)">
<path fill-rule="evenodd" clip-rule="evenodd" d="M0 32V64H32H64V32V0H32H0V32Z" fill="#D5D6D9"/>
<path fill-rule="evenodd" clip-rule="evenodd" d="M0 32V64H32H64V32V0H32H0V32ZM20.683 25.188C20.364 25.985 20.127 25.748 20.079 24.583C20.036 23.529 20.272 22.939 20.604 23.271C20.936 23.603 20.972 24.466 20.683 25.188ZM40.683 30.188C40.364 30.985 40.127 30.748 40.079 29.583C40.036 28.529 40.272 27.939 40.604 28.271C40.936 28.603 40.972 29.466 40.683 30.188ZM25.382 43.552C25.723 44.442 25.555 44.843 24.989 44.493C24.445 44.157 24 43.459 24 42.941C24 41.503 24.717 41.82 25.382 43.552Z" fill="#C2C4C8"/>
<path fill-rule="evenodd" clip-rule="evenodd" d="M0 32V64H32H64V32V0H32H0V32ZM25.128 20.75C26.371 22.336 26.336 22.371 24.75 21.128C23.084 19.821 22.555 19 23.378 19C23.585 19 24.373 19.788 25.128 20.75ZM20.693 24.731C20.439 25.704 20.215 25.15 20.195 23.5C20.175 21.85 20.382 21.054 20.656 21.731C20.93 22.408 20.947 23.758 20.693 24.731ZM38.717 29C39.121 30.086 39.486 29.81 40.038 28L40.801 25.5L40.9 28.25C40.955 29.762 40.64 31 40.2 31C38.686 31 37 28.596 37.079 26.55C37.132 25.166 37.32 24.987 37.658 26C37.933 26.825 38.41 28.175 38.717 29ZM34 28.378C34 28.585 33.212 29.373 32.25 30.128C30.664 31.371 30.629 31.336 31.872 29.75C33.179 28.084 34 27.555 34 28.378ZM25 33.441C25 33.684 24.55 34.16 24 34.5C23.45 34.84 23 34.641 23 34.059C23 33.477 23.45 33 24 33C24.55 33 25 33.198 25 33.441ZM37.128 39.75C38.371 41.336 38.336 41.371 36.75 40.128C35.084 38.821 34.555 38 35.378 38C35.585 38 36.373 38.788 37.128 39.75ZM43.168 44.232C42.426 44.974 42.296 44.583 42.731 42.92C43.085 41.568 43.538 41.114 43.788 41.863C44.028 42.585 43.75 43.65 43.168 44.232ZM25.382 43.552C25.723 44.442 25.555 44.843 24.989 44.493C24.445 44.157 24 43.459 24 42.941C24 41.503 24.717 41.82 25.382 43.552Z" fill="#8F929A"/>
<path fill-rule="evenodd" clip-rule="evenodd" d="M0 32V64H32H64V32V0H32H0V32ZM21.093 22.75C20.721 25.509 20.488 25.886 20.214 24.177C19.871 22.037 20.489 19 21.268 19C21.45 19 21.371 20.688 21.093 22.75ZM25.5 21C26.495 22.1 27.085 23 26.81 23C26.535 23 25.495 22.1 24.5 21C23.505 19.9 22.915 19 23.19 19C23.465 19 24.505 19.9 25.5 21ZM35 22.345C35 22.535 33.987 23.547 32.75 24.595L30.5 26.5L32.405 24.25C34.195 22.136 35 21.545 35 22.345ZM40.591 30.743C39.558 31.775 37 28.746 37.116 26.628C37.226 24.609 37.257 24.603 37.713 26.5C38.665 30.456 39.999 30.429 40.168 26.45L40.336 22.5L40.734 26.35C40.953 28.468 40.889 30.445 40.591 30.743ZM26.128 26.75C27.342 28.298 27.317 28.357 25.908 27.259C25.032 26.576 24.02 26.313 23.658 26.675C23.296 27.037 23 26.808 23 26.167C23 24.455 24.555 24.745 26.128 26.75ZM35 27.326C35 27.505 33.763 28.742 32.25 30.076L29.5 32.5L31.924 29.75C34.19 27.18 35 26.541 35 27.326ZM24.162 35.307C23.561 37.428 23.529 37.418 23.175 35C22.973 33.625 22.297 31.825 21.671 31C21.022 30.143 21.445 30.275 22.659 31.307C24.143 32.569 24.596 33.774 24.162 35.307ZM36.595 34.25L38.5 36.5L36.25 34.595C34.037 32.722 33.963 32.722 31.75 34.595L29.5 36.5L31.405 34.25C32.453 33.013 33.62 32 34 32C34.38 32 35.547 33.013 36.595 34.25ZM41.683 34.188C41.364 34.985 41.127 34.748 41.079 33.583C41.036 32.529 41.272 31.939 41.604 32.271C41.936 32.603 41.972 33.466 41.683 34.188ZM44.788 36.137C44.538 36.886 44.085 36.432 43.731 35.08C43.296 33.417 43.426 33.026 44.168 33.768C44.75 34.35 45.028 35.415 44.788 36.137ZM36.595 39.25L38.5 41.5L36.25 39.595C34.037 37.722 33.963 37.722 31.75 39.595L29.5 41.5L31.405 39.25C32.453 38.013 33.62 37 34 37C34.38 37 35.547 38.013 36.595 39.25ZM40.526 38.807C40.219 39.115 39.412 38.808 38.733 38.124C37.753 37.136 37.868 37.022 39.293 37.564C40.279 37.94 40.834 38.499 40.526 38.807ZM43.168 44.232C42.426 44.974 42.296 44.583 42.731 42.92C43.085 41.568 43.538 41.114 43.788 41.863C44.028 42.585 43.75 43.65 43.168 44.232ZM25.382 43.552C25.723 44.442 25.555 44.843 24.989 44.493C24.445 44.157 24 43.459 24 42.941C24 41.503 24.717 41.82 25.382 43.552ZM40.128 43.75C41.371 45.336 41.336 45.371 39.75 44.128C38.788 43.373 38 42.585 38 42.378C38 41.555 38.821 42.084 40.128 43.75Z" fill="#6D717C"/>
<path fill-rule="evenodd" clip-rule="evenodd" d="M0 32V64H32H64V32V0H32H0V32ZM21.093 22.75C20.721 25.509 20.488 25.886 20.214 24.177C19.871 22.037 20.489 19 21.268 19C21.45 19 21.371 20.688 21.093 22.75ZM26 21.5C27.292 22.875 28.124 24 27.849 24C27.574 24 26.292 22.875 25 21.5C23.708 20.125 22.876 19 23.151 19C23.426 19 24.708 20.125 26 21.5ZM32.741 24.714C30.547 26.908 29.785 27.184 28.764 26.154C27.744 25.127 27.802 24.996 29.063 25.476C29.966 25.82 31.404 25.211 32.468 24.035C33.481 22.916 34.568 22 34.882 22C35.197 22 34.233 23.221 32.741 24.714ZM41.386 34.917C41.174 35.146 41 34.653 41 33.822C41 32.99 40.1 31.495 39 30.5C37.9 29.505 37 27.996 37 27.149C37 26.114 35.847 26.725 33.491 29.009C30.066 32.328 29.94 32.364 28.241 30.51C26.581 28.698 26.584 28.673 28.291 29.961C29.865 31.149 30.476 30.931 33.339 28.156C37.117 24.494 38 24.264 38 26.941C38 31.06 40.004 29.998 40.137 25.809C40.251 22.21 40.397 22.571 41.023 28C41.435 31.575 41.599 34.688 41.386 34.917ZM26.128 26.75C27.356 28.317 27.326 28.364 25.834 27.197C24.421 26.093 24.096 26.169 23.7 27.697C23.331 29.119 23.207 29.024 23.116 27.25C22.977 24.557 24.243 24.347 26.128 26.75ZM26.921 35.438C26.878 36.022 26.615 35.938 26.338 35.25C25.476 33.115 24.152 33.872 23.716 36.75C23.361 39.092 23.277 38.973 23.15 35.95C23.067 33.998 22.438 31.796 21.75 31.057C21.063 30.318 21.962 30.763 23.75 32.045C25.538 33.327 26.964 34.854 26.921 35.438ZM37.864 35.5C39.615 37.425 40.733 39 40.347 39C39.961 39 38.419 37.538 36.92 35.75L34.193 32.5L31.347 35L28.5 37.5L30.924 34.75C32.258 33.237 33.648 32 34.014 32C34.379 32 36.112 33.575 37.864 35.5ZM44.797 37.135C44.482 39.136 44.342 38.996 43.881 36.219C43.552 34.231 43.698 33.298 44.253 33.853C44.757 34.357 45.002 35.834 44.797 37.135ZM38.011 41.25L41.189 45.5L37.663 41.533L34.136 37.567L31.818 39.533L29.5 41.5L31.405 39.25C32.453 38.013 33.652 37 34.071 37C34.489 37 36.262 38.913 38.011 41.25ZM43.168 44.232C42.426 44.974 42.296 44.583 42.731 42.92C43.085 41.568 43.538 41.114 43.788 41.863C44.028 42.585 43.75 43.65 43.168 44.232ZM25.362 43.5C25.678 44.325 25.501 45 24.969 45C24.436 45 24 44.325 24 43.5C24 42.675 24.177 42 24.393 42C24.609 42 25.045 42.675 25.362 43.5ZM30 42.378C30 42.585 29.212 43.373 28.25 44.128C26.664 45.371 26.629 45.336 27.872 43.75C29.179 42.084 30 41.555 30 42.378Z" fill="#4D525F"/>
<path fill-rule="evenodd" clip-rule="evenodd" d="M0 32V64H32H64V32V0H32H0V32ZM25.032 19.857C25.049 20.211 26.234 21.833 27.666 23.461L30.268 26.423L33.746 22.461C36.314 19.536 36.684 19.308 35.158 21.589C31.131 27.613 30.337 27.754 26.387 23.139C22.435 18.522 21.073 18.564 20.85 23.309C20.704 26.418 20.689 26.428 20.278 23.69C19.792 20.454 21.489 17.867 23.573 18.666C24.358 18.968 25.014 19.503 25.032 19.857ZM43.059 32.754C44.358 33.664 44.955 35.169 44.864 37.307C44.75 39.97 44.659 40.085 44.315 38C43.527 33.23 43.014 32.364 41.962 34.028C41.179 35.265 41.028 35.222 41.015 33.758C41.007 32.801 40.1 31.455 39 30.768C37.9 30.081 36.982 28.615 36.959 27.509C36.924 25.781 36.529 25.955 34.137 28.75C30.687 32.779 29.654 32.803 26.784 28.922C24.514 25.851 24.507 25.85 23.854 28.172C23.234 30.378 23.194 30.355 23.1 27.75C22.969 24.156 23.913 24.269 27.186 28.241L29.871 31.5L33.233 28.25C37.119 24.494 38 24.252 38 26.941C38 28.009 38.45 29.16 39 29.5C39.605 29.874 40.073 28.22 40.185 25.309L40.37 20.5L40.744 25.947C41.017 29.919 41.644 31.763 43.059 32.754ZM23.526 31.879C25.437 33.187 26.964 34.762 26.921 35.379C26.872 36.072 26.65 36.023 26.338 35.25C25.365 32.84 24.117 34.035 23.728 37.75C23.366 41.212 23.323 41.138 23.168 36.785C23.04 33.201 22.52 31.814 21 31C19.9 30.411 19.052 29.158 19.116 28.215C19.205 26.894 19.326 26.845 19.642 28C19.867 28.825 21.615 30.571 23.526 31.879ZM37.845 35.101C39.685 36.774 40.914 38.42 40.575 38.759C40.236 39.098 38.625 37.828 36.996 35.937L34.033 32.5L30.945 35.845C29.247 37.685 27.622 38.955 27.333 38.667C26.827 38.161 32.984 32.059 34 32.059C34.275 32.059 36.005 33.427 37.845 35.101ZM38.011 41.25L41.189 45.5L37.595 41.5L34 37.5L30.405 41.5L26.811 45.5L29.989 41.25C31.738 38.913 33.542 37 34 37C34.458 37 36.262 38.913 38.011 41.25ZM44 43C44 44.1 43.592 45 43.094 45C42.595 45 42.423 44.1 42.71 43C42.998 41.9 43.406 41 43.617 41C43.827 41 44 41.9 44 43ZM25.362 43.5C25.678 44.325 25.501 45 24.969 45C24.436 45 24 44.325 24 43.5C24 42.675 24.177 42 24.393 42C24.609 42 25.045 42.675 25.362 43.5Z" fill="#363C4B"/>
<path fill-rule="evenodd" clip-rule="evenodd" d="M0 32V64H32H64V32V0H32H0V32ZM26.912 22.04L30.158 26.079L33.948 21.808C37.123 18.23 37.983 17.741 39.247 18.79C40.122 19.516 40.946 22.338 41.209 25.506C41.469 28.644 42.372 31.754 43.331 32.813C46.048 35.816 45.048 46 42.036 46C41.017 46 39.049 44.15 36.151 40.465L34.148 37.919L30.062 42.209C26.122 46.347 25.923 46.431 24.488 44.559C23.622 43.429 23 40.5 23 37.549C23 33.47 22.587 32.223 20.882 31.158C19.007 29.987 18.842 29.251 19.442 24.725C19.815 21.915 20.345 19.252 20.619 18.807C21.686 17.081 23.798 18.166 26.912 22.04ZM21.8 19.566C21.5 20.08 20.953 22.582 20.585 25.127C20.052 28.802 20.232 29.875 21.457 30.345C22.634 30.797 23 30.233 23 27.969C23 24.16 23.869 24.217 27.186 28.241L29.871 31.5L33.233 28.25C37.119 24.494 38 24.252 38 26.941C38 28.009 38.45 29.16 39 29.5C39.616 29.881 40 28.197 40 25.118C40 22.368 39.5 19.809 38.888 19.431C38.257 19.041 36.142 20.638 34 23.122L30.225 27.5L26.285 23.066C24.118 20.627 22.1 19.052 21.8 19.566ZM24 28.529C24 30.004 25.106 32.526 26.459 34.133L28.918 37.055L30.574 34.528C32.72 31.252 35.322 31.317 37.539 34.7L39.308 37.4L40.216 34.95C40.948 32.974 40.725 32.235 39.062 31.128C37.928 30.373 36.988 28.798 36.973 27.628C36.949 25.727 36.656 25.847 34.223 28.759C32.725 30.551 30.978 32.014 30.339 32.009C29.7 32.004 28.013 30.615 26.589 28.923L24 25.847V28.529ZM30.653 36C27.593 39.637 27.383 39.662 26.589 36.5C26.244 35.125 25.52 34 24.981 34C23.632 34 23.743 40.652 25.135 43.253C26.23 45.299 26.406 45.218 30.135 40.937L34 36.5L37.925 41L41.851 45.5L42.925 42.685C44.281 39.135 44.314 34.312 42.988 33.493C42.426 33.145 41.704 34.23 41.363 35.934C40.598 39.759 39.945 39.77 37.158 36C35.938 34.35 34.544 33 34.059 33C33.574 33 32.042 34.35 30.653 36Z" fill="#040B1E"/>
<path fill-rule="evenodd" clip-rule="evenodd" d="M21.8 19.566C21.5 20.08 20.953 22.582 20.585 25.127C20.052 28.802 20.232 29.875 21.457 30.345C22.634 30.797 23 30.233 23 27.969C23 24.16 23.869 24.217 27.186 28.241L29.871 31.5L33.233 28.25C37.119 24.494 38 24.252 38 26.941C38 28.009 38.45 29.16 39 29.5C39.616 29.881 40 28.197 40 25.118C40 22.368 39.5 19.809 38.888 19.431C38.257 19.041 36.142 20.638 34 23.122L30.225 27.5L26.285 23.066C24.118 20.627 22.1 19.052 21.8 19.566ZM30.653 36C27.593 39.637 27.383 39.662 26.589 36.5C26.244 35.125 25.52 34 24.981 34C23.632 34 23.743 40.652 25.135 43.253C26.23 45.299 26.406 45.218 30.135 40.937L34 36.5L37.925 41L41.851 45.5L42.925 42.685C44.281 39.135 44.314 34.312 42.988 33.493C42.426 33.145 41.704 34.23 41.363 35.934C40.598 39.759 39.945 39.77 37.158 36C35.938 34.35 34.544 33 34.059 33C33.574 33 32.042 34.35 30.653 36Z" fill="white"/>
</g>
<defs>
<clipPath id="clip0_1_296">
<rect width="64" height="64" rx="32" fill="white"/>
</clipPath>
</defs>
</svg>
