<svg width="64" height="64" viewBox="0 0 64 64" fill="none" xmlns="http://www.w3.org/2000/svg">
<g clip-path="url(#clip0_1_286)">
<path fill-rule="evenodd" clip-rule="evenodd" d="M0 32V64H32H64V32V0H32H0V32Z" fill="#E2FFFF"/>
<path fill-rule="evenodd" clip-rule="evenodd" d="M0 32V64H32H64V32V0H32H0V32ZM32.295 14.158C34.729 15.46 37.494 18 36.479 18C36.114 18 34.671 17.1 33.273 16C30.523 13.837 24 13.251 24 15.167C24 15.808 23.73 16.063 23.4 15.733C20.995 13.328 28.32 12.031 32.295 14.158ZM46.541 14.933C46.179 15.52 45.403 16 44.819 16C44.155 16 44.231 15.426 45.02 14.476C46.392 12.823 47.617 13.192 46.541 14.933ZM41.257 19.25C40.713 19.938 40.059 21.174 39.802 21.997C39.443 23.15 39.061 22.982 38.144 21.27C37.138 19.39 37.19 19.136 38.477 19.629C39.315 19.951 40 19.716 40 19.107C40 18.498 40.505 18 41.122 18C41.881 18 41.924 18.406 41.257 19.25ZM28 20.617C28 20.827 27.1 21 26 21C24.9 21 24 20.592 24 20.094C24 19.595 24.9 19.423 26 19.71C27.1 19.998 28 20.406 28 20.617ZM47.826 23.241C44.166 26.695 42.845 27.095 45.501 23.944C47.151 21.988 48.649 20.747 48.83 21.185C49.012 21.624 48.56 22.549 47.826 23.241ZM31.573 23.471C33.084 25.777 33.064 26.103 31.277 28.375C29.45 30.698 29.309 30.724 28.196 28.942C27.253 27.433 27.297 27.177 28.424 27.609C30.312 28.334 31.508 24.317 29.96 22.452C29.297 21.653 29.025 21 29.355 21C29.684 21 30.682 22.112 31.573 23.471ZM24.261 23.139C23.635 23.765 21.317 24.327 19.11 24.389C14.07 24.529 15.128 23.27 20.5 22.735C22.7 22.516 24.703 22.261 24.95 22.168C25.197 22.076 24.888 22.512 24.261 23.139ZM42.353 29.158C42.465 29.896 42.915 31.175 43.354 32C43.793 32.825 43.221 32.441 42.082 31.146C40.943 29.851 40.278 28.359 40.605 27.829C41.306 26.696 42.068 27.275 42.353 29.158ZM18 30.332C19.054 30.777 18.93 30.896 17.583 30.732C16.528 30.605 15.482 29.825 15.257 29C14.994 28.035 15.143 27.893 15.674 28.6C16.128 29.205 17.175 29.985 18 30.332ZM19.82 38.541C17.444 40.797 15.278 42.464 15.006 42.245C14.735 42.026 15.924 40.643 17.649 39.173C19.883 37.269 20.736 35.721 20.612 33.793C20.446 31.219 20.529 31.169 22.289 32.762C24.072 34.375 23.98 34.59 19.82 38.541ZM48.743 35C49.006 35.965 48.857 36.107 48.326 35.4C47.872 34.795 46.825 34.015 46 33.668C44.946 33.223 45.07 33.104 46.417 33.268C47.472 33.395 48.518 34.175 48.743 35ZM33.185 35.386C33.805 35.002 33.773 35.556 33.102 36.81C32.251 38.4 32.341 39.198 33.502 40.359C35.744 42.601 35.309 43.59 33 41.5C31.77 40.387 31.03 38.498 31.079 36.595C31.122 34.893 31.386 34.065 31.664 34.756C31.943 35.447 32.627 35.73 33.185 35.386ZM41.372 38.735C43.968 40.242 47.651 40.369 48.342 38.975C48.621 38.411 48.723 38.524 48.567 39.225C48.15 41.111 40.529 40.479 37.553 38.313C34.514 36.101 34.171 34.427 37.122 36.215C38.289 36.922 40.201 38.056 41.372 38.735ZM26.595 44.155C27.043 44.879 26.869 45.037 26.129 44.58C25.432 44.149 23.475 45.325 21.341 47.459C19.357 49.443 17.493 50.827 17.2 50.533C16.647 49.98 23.97 43.115 25.191 43.042C25.571 43.019 26.203 43.52 26.595 44.155ZM40 43.906C40 44.405 39.1 44.577 38 44.29C36.9 44.002 36 43.594 36 43.383C36 43.173 36.9 43 38 43C39.1 43 40 43.408 40 43.906ZM30.727 48C33.958 50.541 39.65 50.689 40.369 48.25C40.771 46.886 40.841 46.941 40.684 48.5C40.318 52.135 31.19 51.343 27.911 47.392C26.219 45.354 27.795 45.694 30.727 48Z" fill="#C4FFFF"/>
<path fill-rule="evenodd" clip-rule="evenodd" d="M0 32V64H32H64V32V0H32H0V32ZM32.316 14.157C33.517 14.794 35.558 16.481 36.85 17.907C38.423 19.641 39.361 20.086 39.684 19.25C39.949 18.563 40.752 18 41.468 18C42.184 18 43.575 16.772 44.558 15.27C45.569 13.728 46.52 13.061 46.746 13.737C46.965 14.396 45.585 16.303 43.68 17.976C40.422 20.837 40.271 21.242 41.147 24.759C41.659 26.817 42.213 29.151 42.377 29.946C42.68 31.416 44.103 32.424 47.25 33.396C49.194 33.997 49.738 39.426 47.963 40.523C46.046 41.708 39.377 39.905 36.785 37.501C35.371 36.191 33.942 35.392 33.607 35.726C33.273 36.06 33 35.835 33 35.226C33 33.267 35.233 32.665 36.185 34.367C37.225 36.224 44.111 40 46.46 40C47.434 40 48 39.086 48 37.513C48 35.628 47.173 34.681 44.58 33.598C40.932 32.073 39 29.449 39 26.016C39 22.055 35.976 17.892 31.684 15.943C26.141 13.427 25 13.52 25 16.487C25 18.372 25.827 19.319 28.42 20.402C33.055 22.339 34.74 25.525 32.461 28.043C31.235 29.398 30.969 30.695 31.506 32.71C31.914 34.244 32.377 36.504 32.534 37.731C32.9 40.589 35.312 43 37.804 43C39.181 43 39.932 43.908 40.371 46.103C41.173 50.116 40.543 51 36.875 51C33.07 51 30.092 49.513 27.324 46.232L25.148 43.652L21.361 47.439C19.279 49.521 17.418 50.755 17.227 50.181C16.885 49.156 23.816 42.08 25.215 42.027C25.608 42.012 26.432 42.938 27.045 44.085C28.111 46.076 35.115 49.932 37.75 49.978C38.438 49.99 39 48.881 39 47.513C39 45.628 38.173 44.681 35.58 43.598C31.932 42.073 30 39.449 30 36.016C30 32.279 27.067 28.075 23.019 26.01C17.722 23.307 16 23.424 16 26.487C16 28.385 16.831 29.32 19.514 30.441C24.856 32.673 25.024 34.702 20.214 38.903C17.517 41.259 15.959 43.535 15.698 45.5C15.337 48.216 15.285 48.151 15.15 44.818C15.028 41.821 15.53 40.759 17.851 39.106C21.616 36.425 21.699 31.871 18 30.999C15.929 30.511 15.5 29.816 15.5 26.955C15.5 23.577 15.606 23.488 20.245 22.955C23.356 22.597 24.652 22.748 24.008 23.392C23.363 24.037 23.968 24.998 25.762 26.181C29.241 28.475 29.722 28.452 30.515 25.952C31.339 23.356 29.425 21 26.491 21C24.705 21 24.123 20.314 23.733 17.75C23.461 15.962 23.436 14.162 23.678 13.75C24.353 12.6 29.866 12.859 32.316 14.157ZM46.319 24.573C44.769 25.907 43.05 26.993 42.5 26.988C41.95 26.982 42.962 25.825 44.75 24.416C47.084 22.577 48.045 20.96 48.16 18.678L48.32 15.5L48.729 18.824C49.059 21.512 48.598 22.613 46.319 24.573Z" fill="#EDF6F5"/>
<path fill-rule="evenodd" clip-rule="evenodd" d="M0 32V64H32H64V32V0H32H0V32ZM32.316 14.157C33.517 14.793 35.288 16.212 36.25 17.31C37.212 18.408 38.007 18.9 38.015 18.403C38.024 17.906 38.467 18.175 39 19C39.533 19.825 39.976 19.99 39.985 19.367C39.993 18.743 40.993 17.974 42.206 17.656C43.42 17.339 44.102 16.768 43.722 16.389C42.741 15.408 46.154 13.122 47.708 13.718C49.238 14.305 49.512 23 48 23C47.45 23 47 23.675 47 24.5C47 25.325 46.438 25.887 45.75 25.75C45.063 25.612 44.607 26.046 44.738 26.714C44.879 27.433 44.346 27.686 43.43 27.335C42.207 26.866 42.54 26.195 45.024 24.121C47.622 21.952 48.107 20.904 47.832 18.051L47.5 14.602L43.857 17.811C40.561 20.714 40.287 21.339 40.975 24.391C41.394 26.246 42.126 28.38 42.603 29.132C43.079 29.884 43.476 30.93 43.485 31.455C43.493 31.98 44.625 32.673 46 32.994C47.822 33.421 48.589 34.347 48.828 36.411C49.009 37.969 48.714 39.686 48.174 40.226C46.593 41.807 39.59 40.102 36.715 37.437L34.076 34.99L32.938 37.115C32.045 38.785 32.07 39.075 33.055 38.466C33.87 37.962 34.058 38.097 33.591 38.853C32.652 40.373 35.321 43 37.804 43C39.181 43 39.932 43.908 40.371 46.103C40.712 47.809 40.742 49.609 40.437 50.103C38.889 52.607 27 49.203 27 46.256C27 45.5 26.55 45.16 26 45.5C25.45 45.84 25 45.672 25 45.126C25 44.581 23.391 45.652 21.424 47.507C19.417 49.399 17.224 50.639 16.424 50.333C14.469 49.582 14.519 41.644 16.489 40.009C17.308 39.329 17.763 38.425 17.5 38C17.237 37.574 17.751 37.288 18.643 37.363C20.332 37.506 21.244 34.8 20.32 32.392C19.535 30.345 17.677 30.692 18.406 32.75C18.785 33.819 18.24 33.526 17.008 32C15.778 30.476 15.09 28.329 15.245 26.5C15.482 23.712 15.836 23.461 20.245 22.955C23.356 22.597 24.652 22.748 24.008 23.392C23.363 24.037 23.968 24.998 25.762 26.181C29.241 28.475 29.722 28.452 30.515 25.952C31.339 23.356 29.425 21 26.491 21C24.705 21 24.123 20.314 23.733 17.75C23.461 15.962 23.436 14.162 23.678 13.75C24.353 12.6 29.866 12.859 32.316 14.157ZM25 16.487C25 18.372 25.827 19.319 28.42 20.402C33.055 22.339 34.74 25.525 32.461 28.043C30.164 30.581 31.232 35.883 33.638 33.885C34.932 32.812 35.355 32.882 36.15 34.304C37.218 36.212 44.075 40 46.46 40C47.434 40 48 39.086 48 37.513C48 35.628 47.173 34.681 44.58 33.598C40.932 32.073 39 29.449 39 26.016C39 22.055 35.976 17.892 31.684 15.943C26.141 13.427 25 13.52 25 16.487ZM16 26.487C16 28.385 16.831 29.32 19.514 30.441C24.897 32.69 25.033 34.709 20.086 38.927C16.384 42.084 15.882 42.991 16.17 46.007L16.5 49.466L20.82 45.554L25.139 41.642L27.32 44.301C29.305 46.724 35.428 50 37.968 50C38.536 50 39 48.881 39 47.513C39 45.628 38.173 44.681 35.58 43.598C31.932 42.073 30 39.449 30 36.016C30 32.279 27.067 28.075 23.019 26.01C17.722 23.307 16 23.424 16 26.487Z" fill="#4BCDDA"/>
<path fill-rule="evenodd" clip-rule="evenodd" d="M0 32V64H32H64V32V0H32H0V32ZM32.316 14.157C33.517 14.793 35.288 16.212 36.25 17.31C37.212 18.408 38.007 18.9 38.015 18.403C38.024 17.906 38.467 18.175 39 19C39.533 19.825 39.976 19.99 39.985 19.367C39.993 18.743 40.993 17.974 42.206 17.656C43.42 17.339 44.102 16.768 43.722 16.389C42.741 15.408 46.154 13.122 47.708 13.718C49.238 14.305 49.512 23 48 23C47.45 23 47 23.675 47 24.5C47 25.325 46.438 25.887 45.75 25.75C45.063 25.612 44.607 26.046 44.738 26.714C44.876 27.416 44.348 27.687 43.488 27.357C41.676 26.662 41.543 28.107 43.25 29.947C44.267 31.042 44.22 31.137 43 30.455C41.725 29.742 41.698 29.861 42.823 31.248C43.55 32.146 45.125 33.019 46.323 33.19C47.884 33.412 48.593 34.313 48.828 36.372C49.009 37.951 48.714 39.686 48.174 40.226C46.593 41.807 39.59 40.102 36.715 37.437L34.076 34.99L32.938 37.115C32.045 38.785 32.07 39.075 33.055 38.466C33.87 37.962 34.058 38.097 33.591 38.853C32.652 40.373 35.321 43 37.804 43C39.181 43 39.932 43.908 40.371 46.103C40.712 47.809 40.742 49.609 40.437 50.103C38.889 52.607 27 49.203 27 46.256C27 45.5 26.55 45.16 26 45.5C25.45 45.84 25 45.672 25 45.126C25 44.581 23.391 45.652 21.424 47.507C19.417 49.399 17.224 50.639 16.424 50.333C14.469 49.582 14.519 41.644 16.489 40.009C17.308 39.329 17.763 38.425 17.5 38C17.237 37.574 17.751 37.288 18.643 37.363C20.332 37.506 21.244 34.8 20.32 32.392C19.535 30.345 17.677 30.692 18.406 32.75C18.785 33.819 18.24 33.526 17.008 32C15.778 30.476 15.09 28.329 15.245 26.5C15.482 23.712 15.836 23.461 20.245 22.955C23.356 22.597 24.652 22.748 24.008 23.392C23.363 24.037 23.968 24.998 25.762 26.181C29.241 28.475 29.722 28.452 30.515 25.952C31.339 23.356 29.425 21 26.491 21C24.705 21 24.123 20.314 23.733 17.75C23.461 15.962 23.436 14.162 23.678 13.75C24.353 12.6 29.866 12.859 32.316 14.157ZM25 16.79C25 18.244 25.851 19.028 27.926 19.484C32.759 20.545 35.798 26.895 32.386 28.804C30.21 30.022 31.478 34.414 33.753 33.541C34.7 33.178 36.41 33.976 38.051 35.549C39.55 36.985 42.402 38.527 44.388 38.975C47.687 39.719 48 39.599 48 37.596C48 36.017 47.065 35.064 44.667 34.196C41.051 32.889 39.469 30.487 38.56 24.925C37.815 20.37 33.41 16.103 28.656 15.332C25.443 14.81 25 14.987 25 16.79ZM44.259 18.046C42.021 20.055 41.083 21.735 41.227 23.478C41.493 26.691 42.007 26.646 45.39 23.114C47.26 21.163 48.049 19.405 47.827 17.682L47.5 15.136L44.259 18.046ZM16 26.192C16 28.034 16.82 28.895 19.499 29.864C21.424 30.56 23.456 31.984 24.016 33.029C24.865 34.617 24.291 35.612 20.516 39.092C17.105 42.236 16 43.983 16 46.231V49.208L20.736 45.211L25.472 41.213L28.486 44.65C32.181 48.864 39 50.603 39 47.332C39 46.052 37.877 44.996 35.667 44.196C32.141 42.921 30.919 41.087 29.092 34.324C27.97 30.169 23.209 25 20.505 25C19.767 25 18.452 24.727 17.582 24.393C16.409 23.943 16 24.409 16 26.192Z" fill="#09CAD3"/>
<path fill-rule="evenodd" clip-rule="evenodd" d="M0 32V64H32H64V32V0H32H0V32ZM32.316 14.157C33.517 14.793 35.288 16.212 36.25 17.31C37.212 18.408 38.007 18.9 38.015 18.403C38.024 17.906 38.467 18.175 39 19C39.533 19.825 39.976 19.99 39.985 19.367C39.993 18.743 40.993 17.974 42.206 17.656C43.42 17.339 44.102 16.768 43.722 16.389C42.741 15.408 46.154 13.122 47.708 13.718C49.238 14.305 49.512 23 48 23C47.45 23 47 23.675 47 24.5C47 25.325 46.438 25.887 45.75 25.75C45.063 25.612 44.607 26.046 44.738 26.714C44.876 27.416 44.348 27.687 43.488 27.357C41.676 26.662 41.543 28.107 43.25 29.947C44.267 31.042 44.22 31.137 43 30.455C41.725 29.742 41.698 29.861 42.823 31.248C43.55 32.146 45.125 33.019 46.323 33.19C47.884 33.412 48.593 34.313 48.828 36.372C49.009 37.951 48.714 39.686 48.174 40.226C46.593 41.807 39.59 40.102 36.715 37.437L34.076 34.99L32.938 37.115C32.045 38.785 32.07 39.075 33.055 38.466C33.87 37.962 34.058 38.097 33.591 38.853C32.652 40.373 35.321 43 37.804 43C39.181 43 39.932 43.908 40.371 46.103C40.712 47.809 40.742 49.609 40.437 50.103C38.889 52.607 27 49.203 27 46.256C27 45.5 26.55 45.16 26 45.5C25.45 45.84 25 45.672 25 45.126C25 44.581 23.391 45.652 21.424 47.507C19.417 49.399 17.224 50.639 16.424 50.333C14.469 49.582 14.519 41.644 16.489 40.009C17.308 39.329 17.763 38.425 17.5 38C17.237 37.574 17.751 37.288 18.643 37.363C20.332 37.506 21.244 34.8 20.32 32.392C19.535 30.345 17.677 30.692 18.406 32.75C18.785 33.819 18.24 33.526 17.008 32C15.778 30.476 15.09 28.329 15.245 26.5C15.482 23.712 15.836 23.461 20.245 22.955C23.356 22.597 24.652 22.748 24.008 23.392C23.363 24.037 23.968 24.998 25.762 26.181C29.241 28.475 29.722 28.452 30.515 25.952C31.339 23.356 29.425 21 26.491 21C24.705 21 24.123 20.314 23.733 17.75C23.461 15.962 23.436 14.162 23.678 13.75C24.353 12.6 29.866 12.859 32.316 14.157ZM25 16.869C25 18.041 25.413 19 25.918 19C26.423 19 27.661 19.267 28.668 19.594C30.04 20.039 30.159 19.945 29.143 19.219C26.968 17.665 29.79 16.55 32.384 17.938C34.477 19.058 38 25.567 38 28.316C38 29.032 38.661 30.491 39.468 31.559C41.12 33.743 41.499 32.889 40.055 30.236C39.535 29.281 38.854 26.891 38.542 24.925C37.82 20.372 33.423 16.105 28.656 15.332C25.406 14.804 25 14.975 25 16.869ZM44.259 18.046C42.021 20.055 41.083 21.735 41.227 23.478C41.493 26.691 42.007 26.646 45.39 23.114C47.26 21.163 48.049 19.405 47.827 17.682L47.5 15.136L44.259 18.046ZM47 19.345C47 21.13 43.353 24.38 42.641 23.228C41.98 22.159 44.698 18 46.057 18C46.576 18 47 18.605 47 19.345ZM32.75 23.075C34.489 24.918 34.311 27.727 32.386 28.804C30.21 30.022 31.478 34.414 33.753 33.541C34.7 33.178 36.41 33.976 38.051 35.549C39.55 36.985 42.402 38.527 44.388 38.975C47.68 39.717 48 39.597 48 37.614C48 35.244 43.037 32.665 40.414 33.671C39.622 33.975 38.311 33.673 37.5 33C36.689 32.327 35.345 32.037 34.513 32.357C33.478 32.754 33 32.315 33 30.969C33 29.886 33.479 29 34.063 29C35.693 29 34.711 22.718 33 22.202C31.789 21.837 31.741 22.006 32.75 23.075ZM16 26.232C16 28.028 16.842 28.903 19.499 29.864C21.424 30.56 23.456 31.984 24.016 33.029C24.865 34.617 24.291 35.612 20.516 39.092C17.13 42.214 16 43.99 16 46.194V49.134L20.525 45.426C25.041 41.726 26.032 39.714 22.143 42.143C19.466 43.815 18.031 42.378 20.56 40.558C26.601 36.211 26.492 36.375 25.228 33.602C24.573 32.163 22.453 30.23 20.518 29.307C17.099 27.677 15.873 26 18.099 26C22.785 26 29 32.885 29 38.076C29 41.164 31.988 45.003 34.365 44.97C36.467 44.94 36.469 44.922 34.5 43.792C31.567 42.11 30.253 39.981 29.59 35.84C28.916 31.62 24.949 26.404 21.706 25.474C20.493 25.126 18.712 24.622 17.75 24.353C16.439 23.988 16 24.459 16 26.232ZM45.541 36.067C45.904 36.653 45.964 37.369 45.675 37.658C44.89 38.443 41 37.008 41 35.933C41 34.645 44.731 34.755 45.541 36.067ZM26.878 42.511C28.406 45.792 31.515 48.047 35.376 48.674C38.592 49.195 39 49.021 39 47.131C39 45.959 38.55 45 38 45C37.45 45 37 45.705 37 46.567C37 47.733 36.424 47.956 34.75 47.435C33.513 47.05 32.35 46.345 32.167 45.868C31.983 45.391 31.251 45 30.539 45C29.827 45 28.501 43.987 27.593 42.75C26.257 40.928 26.12 40.883 26.878 42.511ZM19 44.5C19 45.325 18.55 46 18 46C17.45 46 17 45.325 17 44.5C17 43.675 17.45 43 18 43C18.55 43 19 43.675 19 44.5Z" fill="#42C9C2"/>
<path fill-rule="evenodd" clip-rule="evenodd" d="M0 32V64H32H64V32V0H32H0V32ZM32.316 14.157C33.517 14.793 35.288 16.212 36.25 17.31C37.212 18.408 38.007 18.9 38.015 18.403C38.024 17.906 38.467 18.175 39 19C39.533 19.825 39.976 19.99 39.985 19.367C39.993 18.743 40.993 17.974 42.206 17.656C43.42 17.339 44.102 16.768 43.722 16.389C42.741 15.408 46.154 13.122 47.708 13.718C49.238 14.305 49.512 23 48 23C47.45 23 47 23.675 47 24.5C47 25.325 46.438 25.887 45.75 25.75C45.063 25.612 44.607 26.046 44.738 26.714C44.876 27.416 44.348 27.687 43.488 27.357C41.676 26.662 41.543 28.107 43.25 29.947C44.267 31.042 44.22 31.137 43 30.455C41.725 29.742 41.698 29.861 42.823 31.248C43.55 32.146 45.125 33.019 46.323 33.19C47.884 33.412 48.593 34.313 48.828 36.372C49.009 37.951 48.714 39.686 48.174 40.226C46.593 41.807 39.59 40.102 36.715 37.437C34.191 35.096 34.032 35.072 33.067 36.875C31.814 39.215 34.703 43 37.742 43C39.188 43 39.924 43.869 40.371 46.103C40.712 47.809 40.742 49.609 40.437 50.103C38.889 52.607 27 49.203 27 46.256C27 45.5 26.55 45.16 26 45.5C25.45 45.84 25 45.672 25 45.126C25 44.581 23.391 45.652 21.424 47.507C19.417 49.399 17.224 50.639 16.424 50.333C14.469 49.582 14.519 41.644 16.489 40.009C17.308 39.329 17.763 38.425 17.5 38C17.237 37.574 17.751 37.288 18.643 37.363C20.332 37.506 21.244 34.8 20.32 32.392C19.535 30.345 17.677 30.692 18.406 32.75C18.785 33.819 18.24 33.526 17.008 32C15.778 30.476 15.09 28.329 15.245 26.5C15.482 23.712 15.836 23.461 20.245 22.955C23.356 22.597 24.652 22.748 24.008 23.392C23.363 24.037 23.968 24.998 25.762 26.181C29.241 28.475 29.722 28.452 30.515 25.952C31.339 23.356 29.425 21 26.491 21C24.705 21 24.123 20.314 23.733 17.75C23.461 15.962 23.436 14.162 23.678 13.75C24.353 12.6 29.866 12.859 32.316 14.157ZM26 16.892C26 19.25 27.012 19.588 28.78 17.82C30.651 15.949 34.314 18.506 36.288 23.062C37.23 25.236 38 27.586 38 28.284C38 28.983 38.701 30.555 39.557 31.777C40.921 33.725 40.928 34 39.616 34C38.792 34 37.816 33.511 37.446 32.913C37.077 32.315 35.925 32.048 34.887 32.319C33.525 32.675 33 32.282 33 30.906C33 29.858 33.45 29 34 29C35.294 29 35.307 23.308 34.015 22.509C33.411 22.136 33.251 23.004 33.601 24.756C33.977 26.637 33.666 28.032 32.689 28.843C30.852 30.367 31.672 34.34 33.665 33.575C34.437 33.279 36.92 34.378 39.184 36.018C44.024 39.524 47 39.898 47 37C47 35.9 46.564 35 46.031 35C45.499 35 45.322 35.675 45.638 36.5C46.247 38.087 45.193 38.395 42.582 37.393C40.597 36.632 40.511 35 42.455 35C43.456 35 43.144 34.235 41.455 32.545C40.105 31.195 38.997 29.508 38.994 28.795C38.967 22.483 34.706 16.968 28.689 15.458C26.407 14.885 26 15.102 26 16.892ZM43.631 19.027C42.23 20.692 41.338 22.717 41.649 23.527C42.429 25.561 43.372 25.376 45.595 22.75L47.5 20.5L45.349 22.315C44.166 23.313 42.948 23.724 42.641 23.228C41.78 21.835 45.037 17.8 46.553 18.382C47.418 18.714 47.699 18.38 47.342 17.449C46.603 15.522 46.567 15.537 43.631 19.027ZM16.507 25.989C16.163 26.545 16.543 26.729 17.378 26.408C19.842 25.463 25.414 28.78 26.864 32.055C27.609 33.738 28.47 34.863 28.777 34.556C29.833 33.5 26.623 28.93 23.445 26.966C19.958 24.811 17.453 24.458 16.507 25.989ZM22 30.378C22 30.585 22.788 31.373 23.75 32.128C25.336 33.371 25.371 33.336 24.128 31.75C22.821 30.084 22 29.555 22 30.378ZM20.5 39.276C17.75 41.903 16.288 43.768 17.25 43.419C19.291 42.681 19.777 45.52 17.75 46.338C17.063 46.615 16.978 46.878 17.563 46.921C18.148 46.964 19.948 45.594 21.563 43.875C23.813 41.481 23.984 41.063 22.295 42.087C19.499 43.784 17.961 42.429 20.56 40.558C25.448 37.041 26.25 36.266 25.888 35.413C25.674 34.911 23.25 36.649 20.5 39.276ZM29.136 37.785C29.061 39.042 29.727 41.18 30.615 42.535C32.012 44.667 32.028 45 30.737 45C29.916 45 28.501 43.987 27.593 42.75C26.096 40.71 26.034 40.696 26.931 42.608C28.091 45.084 31.728 47.643 35.396 48.563C37.668 49.133 37.985 48.916 37.884 46.858C37.795 45.047 37.659 44.923 37.297 46.323C37.005 47.449 36.254 47.928 35.331 47.573C34.509 47.258 33.423 47 32.918 47C30.872 47 32.166 44.995 34.25 44.937C36.416 44.876 36.424 44.842 34.465 44.048C31.782 42.961 30.295 41.06 29.732 38C29.298 35.638 29.265 35.626 29.136 37.785Z" fill="#18C7C0"/>
<path fill-rule="evenodd" clip-rule="evenodd" d="M0 32V64H32H64V32V0H32H0V32ZM32.316 14.157C33.517 14.793 35.288 16.212 36.25 17.31C37.212 18.408 38.007 18.9 38.015 18.403C38.024 17.906 38.467 18.175 39 19C39.533 19.825 39.976 19.99 39.985 19.367C39.993 18.743 40.993 17.974 42.206 17.656C43.42 17.339 44.102 16.768 43.722 16.389C42.741 15.408 46.154 13.122 47.708 13.718C49.238 14.305 49.512 23 48 23C47.45 23 47 23.675 47 24.5C47 25.325 46.438 25.887 45.75 25.75C45.063 25.612 44.607 26.046 44.738 26.714C44.876 27.416 44.348 27.687 43.488 27.357C41.676 26.662 41.543 28.107 43.25 29.947C44.267 31.042 44.22 31.137 43 30.455C41.725 29.742 41.698 29.861 42.823 31.248C43.55 32.146 45.125 33.019 46.323 33.19C47.884 33.412 48.593 34.313 48.828 36.372C49.009 37.951 48.714 39.686 48.174 40.226C46.593 41.807 39.59 40.102 36.715 37.437C34.191 35.096 34.032 35.072 33.067 36.875C31.814 39.215 34.703 43 37.742 43C39.188 43 39.924 43.869 40.371 46.103C40.712 47.809 40.742 49.609 40.437 50.103C38.889 52.607 27 49.203 27 46.256C27 45.5 26.55 45.16 26 45.5C25.45 45.84 25 45.672 25 45.126C25 44.581 23.391 45.652 21.424 47.507C19.417 49.399 17.224 50.639 16.424 50.333C14.469 49.582 14.519 41.644 16.489 40.009C17.308 39.329 17.763 38.425 17.5 38C17.237 37.574 17.751 37.288 18.643 37.363C20.332 37.506 21.244 34.8 20.32 32.392C19.535 30.345 17.677 30.692 18.406 32.75C18.785 33.819 18.24 33.526 17.008 32C15.778 30.476 15.09 28.329 15.245 26.5C15.482 23.712 15.836 23.461 20.245 22.955C23.356 22.597 24.652 22.748 24.008 23.392C23.363 24.037 23.968 24.998 25.762 26.181C29.241 28.475 29.722 28.452 30.515 25.952C31.339 23.356 29.425 21 26.491 21C24.705 21 24.123 20.314 23.733 17.75C23.461 15.962 23.436 14.162 23.678 13.75C24.353 12.6 29.866 12.859 32.316 14.157Z" fill="white"/>
</g>
<defs>
<clipPath id="clip0_1_286">
<rect width="64" height="64" rx="32" fill="white"/>
</clipPath>
</defs>
</svg>
