<svg width="64" height="64" viewBox="0 0 64 64" fill="none" xmlns="http://www.w3.org/2000/svg">
<g clip-path="url(#clip0_1_306)">
<path fill-rule="evenodd" clip-rule="evenodd" d="M0 32V64H32H64V32V0H32H0V32Z" fill="#707070"/>
<path fill-rule="evenodd" clip-rule="evenodd" d="M0 32V64H32H64V32V0H32H0V32ZM17.729 11.604C17.397 11.936 16.534 11.972 15.813 11.683C15.015 11.364 15.252 11.127 16.417 11.079C17.471 11.036 18.061 11.272 17.729 11.604ZM17.25 15.662C16.563 15.94 15.438 15.94 14.75 15.662C14.063 15.385 14.625 15.158 16 15.158C17.375 15.158 17.938 15.385 17.25 15.662ZM22.729 31.604C22.397 31.936 21.534 31.972 20.813 31.683C20.015 31.364 20.252 31.127 21.417 31.079C22.471 31.036 23.061 31.272 22.729 31.604Z" fill="#545454"/>
<path fill-rule="evenodd" clip-rule="evenodd" d="M0 32V64H32H64V32V0H32H0V32ZM17.729 11.604C17.397 11.936 16.534 11.972 15.813 11.683C15.015 11.364 15.252 11.127 16.417 11.079C17.471 11.036 18.061 11.272 17.729 11.604ZM24.729 11.604C24.397 11.936 23.534 11.972 22.813 11.683C22.015 11.364 22.252 11.127 23.417 11.079C24.471 11.036 25.061 11.272 24.729 11.604ZM18.762 15.687C17.806 15.937 16.006 15.946 14.762 15.707C13.518 15.468 14.3 15.263 16.5 15.252C18.7 15.241 19.718 15.437 18.762 15.687ZM29.729 15.604C29.397 15.936 28.534 15.972 27.813 15.683C27.015 15.364 27.252 15.127 28.417 15.079C29.471 15.036 30.061 15.272 29.729 15.604ZM14.729 31.604C14.397 31.936 13.534 31.972 12.813 31.683C12.015 31.364 12.252 31.127 13.417 31.079C14.471 31.036 15.061 31.272 14.729 31.604ZM25.917 31.409C25.141 32.171 17.09 32.424 16.376 31.709C15.986 31.319 18.067 31 21 31C23.933 31 26.146 31.184 25.917 31.409Z" fill="#454545"/>
<path fill-rule="evenodd" clip-rule="evenodd" d="M0 32V64H32H64V32V0H32H0V32ZM18 11.906C18 12.405 17.1 12.577 16 12.29C14.9 12.002 14 11.594 14 11.383C14 11.173 14.9 11 16 11C17.1 11 18 11.408 18 11.906ZM25.25 11.662C24.563 11.94 23.438 11.94 22.75 11.662C22.063 11.385 22.625 11.158 24 11.158C25.375 11.158 25.938 11.385 25.25 11.662ZM18.762 15.687C17.806 15.937 16.006 15.946 14.762 15.707C13.518 15.468 14.3 15.263 16.5 15.252C18.7 15.241 19.718 15.437 18.762 15.687ZM29.264 15.704C28.034 15.941 25.784 15.947 24.264 15.718C22.744 15.488 23.75 15.294 26.5 15.286C29.25 15.279 30.494 15.467 29.264 15.704ZM25.616 31.717C24.485 32.848 16.373 33.081 13.817 32.056C12.065 31.353 13.309 31.111 18.917 31.063C22.996 31.029 26.011 31.323 25.616 31.717ZM15 36.213C15 36.646 14.1 37 13 37C11.9 37 11 36.578 11 36.062C11 35.546 11.9 35.192 13 35.275C14.1 35.358 15 35.78 15 36.213ZM23.5 36C23.845 36.558 23.097 36.993 21.809 36.985C19.951 36.972 19.793 36.78 21 36C22.861 34.798 22.757 34.798 23.5 36ZM22 40C22 40.55 21.325 41 20.5 41C19.675 41 19 40.55 19 40C19 39.45 19.675 39 20.5 39C21.325 39 22 39.45 22 40ZM30 40C30 40.55 29.523 41 28.941 41C28.359 41 28.16 40.55 28.5 40C28.84 39.45 29.316 39 29.559 39C29.802 39 30 39.45 30 40Z" fill="#383838"/>
<path fill-rule="evenodd" clip-rule="evenodd" d="M0 32V64H32H64V32V0H32H0V32ZM20 11.761C20 12.179 18.65 12.576 17 12.644C15.35 12.711 14 12.369 14 11.883C14 11.397 15.35 11 17 11C18.65 11 20 11.342 20 11.761ZM26 11.383C26 11.594 25.1 12.002 24 12.29C22.9 12.577 22 12.405 22 11.906C22 11.408 22.9 11 24 11C25.1 11 26 11.173 26 11.383ZM11.729 15.604C11.397 15.936 10.534 15.972 9.813 15.683C9.015 15.364 9.252 15.127 10.417 15.079C11.471 15.036 12.061 15.272 11.729 15.604ZM19.25 15.706C18.012 15.944 15.988 15.944 14.75 15.706C13.512 15.467 14.525 15.272 17 15.272C19.475 15.272 20.488 15.467 19.25 15.706ZM30.619 15.807C30.036 16.75 23.299 16.632 22.328 15.661C21.964 15.298 23.793 15 26.392 15C28.991 15 30.894 15.363 30.619 15.807ZM26 32.053C26 33.31 13.186 33.11 12.402 31.841C12.116 31.379 15.059 31 18.941 31C23.216 31 26 31.415 26 32.053ZM18.999 36.132C18.999 36.48 17.2 36.789 15 36.819C12.8 36.85 11 36.442 11 35.913C11 35.384 12.799 35.075 14.999 35.226C17.198 35.377 18.998 35.784 18.999 36.132ZM23.5 36C23.84 36.55 23.191 37 22.059 37C20.927 37 20 36.55 20 36C20 35.45 20.648 35 21.441 35C22.234 35 23.16 35.45 23.5 36ZM10.5 40C10.84 40.55 10.641 41 10.059 41C9.477 41 9 40.55 9 40C9 39.45 9.198 39 9.441 39C9.684 39 10.16 39.45 10.5 40ZM17 39.849C17 40.248 16.1 40.642 15 40.725C13.9 40.808 13 40.549 13 40.151C13 39.752 13.9 39.358 15 39.275C16.1 39.192 17 39.451 17 39.849ZM30.527 39.956C29.875 41.011 19 40.984 19 39.927C19 39.475 21.704 39.117 25.009 39.133C28.314 39.149 30.797 39.519 30.527 39.956Z" fill="#2D2D2D"/>
<path fill-rule="evenodd" clip-rule="evenodd" d="M0 32V64H32H64V32V0H32H0V32ZM24.75 4.739C21.587 4.937 16.412 4.937 13.25 4.739C10.087 4.541 12.675 4.378 19 4.378C25.325 4.378 27.912 4.541 24.75 4.739ZM19.774 11.542C19.925 12.025 18.687 12.576 17.024 12.766C15.027 12.994 14 12.668 14 11.806C14 10.35 19.327 10.107 19.774 11.542ZM25.679 11.464C25.151 13.052 22 13.329 22 11.788C22 11.04 22.905 10.429 24.012 10.429C25.118 10.429 25.869 10.895 25.679 11.464ZM13 12C13 12.55 12.577 13 12.059 13C11.541 13 10.84 12.55 10.5 12C10.16 11.45 10.584 11 11.441 11C12.298 11 13 11.45 13 12ZM20.5 15.999C20.046 16.735 17.359 16.711 13.5 15.937C12.95 15.827 14.075 15.433 16 15.062C19.802 14.329 21.335 14.648 20.5 15.999ZM12 16C12 16.55 11.577 17 11.059 17C10.541 17 9.84 16.55 9.5 16C9.16 15.45 9.584 15 10.441 15C11.298 15 12 15.45 12 16ZM30.487 16.021C29.825 17.093 23.486 16.82 22.336 15.669C21.968 15.301 23.793 15 26.392 15C29.352 15 30.882 15.381 30.487 16.021ZM14.25 20.662C13.563 20.94 12.438 20.94 11.75 20.662C11.063 20.385 11.625 20.158 13 20.158C14.375 20.158 14.938 20.385 14.25 20.662ZM26 23.441C26 23.684 25.55 24.16 25 24.5C24.45 24.84 24 24.641 24 24.059C24 23.477 24.45 23 25 23C25.55 23 26 23.198 26 23.441ZM26 32.053C26 33.31 13.186 33.11 12.402 31.841C12.116 31.379 15.059 31 18.941 31C23.216 31 26 31.415 26 32.053ZM23.525 36.041C23.865 36.59 21.395 36.937 17.552 36.88C13.948 36.825 11 36.417 11 35.971C11 34.833 22.82 34.899 23.525 36.041ZM17.478 39.964C17.83 40.534 16.216 40.891 13.537 40.837C11.042 40.787 9 40.353 9 39.873C9 38.679 16.735 38.762 17.478 39.964ZM31 39.906C31 40.405 28.3 40.791 25 40.766C21.7 40.74 19 40.332 19 39.859C19 39.387 21.7 39 25 39C28.3 39 31 39.408 31 39.906ZM18.25 45.662C17.563 45.94 16.438 45.94 15.75 45.662C15.063 45.385 15.625 45.158 17 45.158C18.375 45.158 18.938 45.385 18.25 45.662ZM10.5 57C7.751 58.181 6.172 58.181 8 57C8.825 56.467 10.175 56.055 11 56.086C11.989 56.122 11.819 56.433 10.5 57ZM29.305 61.095C28.721 61.679 26.951 61.964 25.372 61.728C22.547 61.307 22.554 61.297 25.75 61.15C27.538 61.067 29 60.475 29 59.833C29 59.192 29.308 58.974 29.683 59.35C30.059 59.726 29.889 60.511 29.305 61.095Z" fill="#212121"/>
<path fill-rule="evenodd" clip-rule="evenodd" d="M0 32V64H32H64V32V0H32H0V32ZM25.789 4.738C22.648 4.936 17.248 4.937 13.789 4.741C10.33 4.546 12.9 4.384 19.5 4.382C26.1 4.38 28.93 4.54 25.789 4.738ZM8 7.441C8 7.684 7.55 8.16 7 8.5C6.45 8.84 6 8.641 6 8.059C6 7.477 6.45 7 7 7C7.55 7 8 7.198 8 7.441ZM32 8C32 8.55 31.802 9 31.559 9C31.316 9 30.84 8.55 30.5 8C30.16 7.45 30.359 7 30.941 7C31.523 7 32 7.45 32 8ZM26 11.617C26 12.382 23.57 12.817 18.902 12.888C11.831 12.996 9.558 12.524 10.421 11.127C11.208 9.854 26 10.319 26 11.617ZM12 15.5C12 16.325 11.325 17 10.5 17C7.898 17 8.741 15.029 11.75 14.079C11.887 14.036 12 14.675 12 15.5ZM19.75 15.5C20.082 16.828 13.765 16.796 13.323 15.468C13.132 14.895 14.43 14.45 16.239 14.468C18.033 14.486 19.613 14.95 19.75 15.5ZM29.25 14.698C32.665 15.55 30.933 17 26.5 17C23.182 17 22 16.609 22 15.511C22 14.045 25.198 13.686 29.25 14.698ZM32 19.5C32 20.753 29.951 21 19.559 21C12.716 21 6.909 20.663 6.653 20.25C6.396 19.837 11.77 19.649 18.594 19.832C27.026 20.057 31 19.817 31 19.082C31 18.487 31.225 18 31.5 18C31.775 18 32 18.675 32 19.5ZM15 24C15 24.55 14.325 25 13.5 25C12.675 25 12 24.55 12 24C12 23.45 12.675 23 13.5 23C14.325 23 15 23.45 15 24ZM26 24C26 24.55 25.55 25 25 25C24.45 25 24 24.55 24 24C24 23.45 24.45 23 25 23C25.55 23 26 23.45 26 24ZM22.264 27.704C21.034 27.941 18.784 27.947 17.264 27.718C15.744 27.488 16.75 27.294 19.5 27.286C22.25 27.279 23.494 27.467 22.264 27.704ZM29.493 27.989C29.843 28.555 29.442 28.723 28.552 28.382C26.82 27.717 26.503 27 27.941 27C28.459 27 29.157 27.445 29.493 27.989ZM26.5 32C26.16 32.55 22.759 33 18.941 33C14.98 33 12 32.571 12 32C12 31.422 15.186 31 19.559 31C24.344 31 26.891 31.367 26.5 32ZM32 32C32 32.55 31.802 33 31.559 33C31.316 33 30.84 32.55 30.5 32C30.16 31.45 30.359 31 30.941 31C31.523 31 32 31.45 32 32ZM25 35.707C27.499 36.387 27.499 36.387 25.231 36.944C21.784 37.789 9.909 36.957 10.553 35.914C11.209 34.853 21.327 34.708 25 35.707ZM18 40C18 40.55 15.975 41 13.5 41C11.025 41 9 40.55 9 40C9 39.45 11.025 39 13.5 39C15.975 39 18 39.45 18 40ZM31 40C31 40.556 28.333 41 25 41C21.667 41 19 40.556 19 40C19 39.444 21.667 39 25 39C28.333 39 31 39.444 31 40ZM8 43.881C8 45.022 29.066 44.769 30.88 43.606C31.852 42.983 32.123 43.132 31.799 44.111C31.453 45.152 28.726 45.573 20.919 45.792C9.984 46.098 6 45.614 6 43.981C6 43.441 6.45 43 7 43C7.55 43 8 43.396 8 43.881ZM25 48C25 48.55 24.802 49 24.559 49C24.316 49 23.84 48.55 23.5 48C23.16 47.45 23.359 47 23.941 47C24.523 47 25 47.45 25 48ZM12.5 52C12.84 52.55 12.641 53 12.059 53C11.477 53 11 52.55 11 52C11 51.45 11.198 51 11.441 51C11.684 51 12.16 51.45 12.5 52ZM12 55.927C12 56.436 12.787 57.04 13.75 57.268C14.713 57.496 13.295 57.717 10.601 57.758C6.015 57.829 5.855 57.749 8.101 56.515C11.08 54.878 12 54.739 12 55.927ZM26 55.927C26 56.436 26.788 57.022 27.75 57.228C28.712 57.434 27.3 57.653 24.611 57.713C20.051 57.816 19.882 57.735 22.111 56.51C25.079 54.878 26 54.74 26 55.927ZM5.683 61.188C5.364 61.985 5.127 61.748 5.079 60.583C5.036 59.529 5.272 58.939 5.604 59.271C5.936 59.603 5.972 60.466 5.683 61.188ZM15 60C15 60.55 14.55 61 14 61C13.45 61 13 60.55 13 60C13 59.45 13.45 59 14 59C14.55 59 15 59.45 15 60ZM25.5 61C27.333 61 29.06 60.438 29.338 59.75C29.639 59.003 29.874 59.205 29.921 60.25C29.985 61.669 29.149 62 25.5 62C21.851 62 21.015 61.669 21.079 60.25C21.126 59.205 21.361 59.003 21.662 59.75C21.94 60.438 23.667 61 25.5 61Z" fill="#111111"/>
<path fill-rule="evenodd" clip-rule="evenodd" d="M0 31.971V63.942L32 63.97L64 63.999V31.999V0H32H0V31.971ZM31 5C30.175 5.533 24.711 5.976 18.857 5.985C9.916 5.998 8.113 6.263 7.583 7.643C7.237 8.547 6.707 9.041 6.407 8.741C6.107 8.44 6.451 7.251 7.171 6.097C8.384 4.155 9.369 4.001 20.491 4.015C28.614 4.026 32.015 4.344 31 5ZM32 7.559C32 8.416 31.55 8.84 31 8.5C30.45 8.16 30 7.459 30 6.941C30 6.423 30.45 6 31 6C31.55 6 32 6.702 32 7.559ZM23.75 10.148C25.252 9.953 26 10.379 26 11.428C26 12.66 24.755 13.029 20.25 13.132C15.365 13.243 15.027 13.36 18 13.909C19.925 14.263 23.087 14.283 25.026 13.952C29.284 13.226 31 13.694 31 15.583C31 16.72 28.824 17 20 17C10.889 17 9 16.742 9 15.5C9 14.563 10.033 13.949 11.75 13.864C14.108 13.747 14.179 13.666 12.25 13.294C11.012 13.056 10 12.242 10 11.485C10 10.119 18.276 8.924 20.5 9.968C21.05 10.227 22.512 10.307 23.75 10.148ZM6.418 14.797C5.9 19.518 7.364 20.121 18.916 19.94C29.988 19.767 32 19.112 32 15.678C32 14.216 32.314 13.914 33.059 14.659C33.804 15.404 33.571 16.696 32.273 19.019L30.429 22.32L22.714 22.095C15.445 21.882 15 21.992 15 23.994C15 25.162 14.55 25.84 14 25.5C13.45 25.16 13 25.359 13 25.941C13 26.569 15.444 27 19 27C22.556 27 25 26.569 25 25.941C25 25.359 24.55 25.16 24 25.5C23.45 25.84 23 25.416 23 24.559C23 23.65 23.862 23 25.067 23C26.624 23 26.99 23.457 26.548 24.85C26.093 26.284 26.695 26.934 29.23 27.742C31.96 28.612 30.848 28.782 22.5 28.769C8.725 28.747 9.083 28.675 7.831 31.75C6.32 35.463 6.012 41.217 7.242 42.75C8.605 44.449 29.108 44.492 30.8 42.8C32.31 41.29 32.37 34.77 30.887 33.287C30.276 32.676 29.97 31.59 30.208 30.875C30.845 28.966 33.624 35.031 33.474 38.003C33.405 39.376 32.831 41.737 32.199 43.25L31.05 46H19C6.986 46 6.948 45.992 5.975 43.435C5.439 42.024 5 39.486 5 37.794C5 33.634 8.868 26.012 10.636 26.69C11.511 27.026 12 26.489 12 25.19C12 24.077 12.563 22.94 13.25 22.662C13.938 22.385 12.801 22.122 10.725 22.079C7.629 22.014 6.775 21.539 5.975 19.435C4.76 16.238 4.67 8.932 5.87 10.823C6.331 11.551 6.578 13.34 6.418 14.797ZM34 12.059C34 12.577 33.55 13 33 13C32.45 13 32 12.298 32 11.441C32 10.584 32.45 10.16 33 10.5C33.55 10.84 34 11.541 34 12.059ZM26.751 31.754C27.043 32.63 25.657 33.037 22.083 33.125C12.012 33.373 12 33.371 12 31.465C12 30.201 13.265 29.981 19.168 30.218C23.781 30.404 26.484 30.951 26.751 31.754ZM25.5 35.833C29.466 36.791 29.472 36.8 26.25 36.9C24.462 36.955 23 37.484 23 38.077C23 38.707 24.52 39.022 26.67 38.837C28.946 38.641 30.497 38.992 30.753 39.76C31.052 40.656 29.478 41 25.083 41C20.4 41 19 40.662 19 39.531C19 38.637 19.586 38.288 20.5 38.638C21.325 38.955 22 38.724 22 38.124C22 37.443 20.132 37.149 17.02 37.339C11.898 37.651 9.331 36.891 10.287 35.344C10.965 34.248 20.158 34.543 25.5 35.833ZM18 40.101C18 40.595 17.438 41.035 16.75 41.077C9.64 41.515 9 41.425 9 39.993C9 38.82 9.999 38.565 13.5 38.843C15.975 39.04 18 39.606 18 40.101ZM15 48C15 48.55 14.325 49 13.5 49C12.675 49 12 48.55 12 48C12 47.45 12.675 47 13.5 47C14.325 47 15 47.45 15 48ZM26 48C26 48.55 25.325 49 24.5 49C23.675 49 23 48.55 23 48C23 47.45 23.675 47 24.5 47C25.325 47 26 47.45 26 48ZM13.386 52.437C13.083 53.227 12.199 53.63 11.423 53.332C9.734 52.684 10.532 51 12.528 51C13.342 51 13.704 51.607 13.386 52.437ZM27.5 52C27.84 52.55 27.165 53 26 53C24.835 53 24.16 52.55 24.5 52C24.84 51.45 25.515 51 26 51C26.485 51 27.16 51.45 27.5 52ZM12.75 55.63C14.424 56.079 15 56.972 15 59.117C15 61.91 14.844 62 10 62C6.222 62 5 61.633 5 60.5C5 59.675 5.45 59 6 59C6.55 59 7 59.499 7 60.108C7 61.355 11.883 60.462 13.45 58.929C14.461 57.94 12.641 57.644 7.637 57.981C5.693 58.112 5.003 57.804 5.488 57.019C5.881 56.384 6.832 56.105 7.601 56.4C8.371 56.696 9 56.501 9 55.969C9 54.852 9.632 54.795 12.75 55.63ZM27.257 56.071C28.55 56.66 30.145 58.002 30.801 59.053C31.832 60.704 31.674 61.044 29.635 61.555C26.033 62.459 20.708 61.663 20.209 60.145C19.903 59.215 20.349 58.968 21.632 59.356C26.458 60.817 29 60.844 29 59.434C29 58.394 27.693 57.991 24.25 57.968C19.856 57.939 19.645 57.826 21.441 56.468C23.76 54.715 24.212 54.684 27.257 56.071Z" fill="black"/>
</g>
<defs>
<clipPath id="clip0_1_306">
<rect width="64" height="64" rx="32" fill="white"/>
</clipPath>
</defs>
</svg>
