<svg width="250" height="250" viewBox="0 0 250 250" fill="none" xmlns="http://www.w3.org/2000/svg">
<path fill-rule="evenodd" clip-rule="evenodd" d="M0 125V250H125H250V125V0H125H0V125Z" fill="#EFEDFF"/>
<path fill-rule="evenodd" clip-rule="evenodd" d="M0 125V250H125H250V125V0H125H0V125ZM194 45.941C194 46.459 193.625 47.114 193.167 47.397C192.708 47.68 192.333 47.257 192.333 46.456C192.333 45.655 192.708 45 193.167 45C193.625 45 194 45.423 194 45.941ZM181.5 50C178.751 51.181 177.172 51.181 179 50C179.825 49.467 181.175 49.055 182 49.086C182.989 49.122 182.819 49.433 181.5 50ZM165 55.393C165 55.609 164.302 56.054 163.448 56.382C162.558 56.723 162.157 56.555 162.507 55.989C163.094 55.038 165 54.583 165 55.393ZM136 65.393C136 65.609 135.302 66.054 134.448 66.382C133.558 66.723 133.157 66.555 133.507 65.989C134.094 65.038 136 64.583 136 65.393ZM110 74.402C110 74.623 108.65 75.275 107 75.85C103.527 77.061 102.901 76.377 106.25 75.031C108.783 74.013 110 73.809 110 74.402ZM80 85C79.175 85.533 78.05 85.969 77.5 85.969C76.95 85.969 77.175 85.533 78 85C78.825 84.467 79.95 84.031 80.5 84.031C81.05 84.031 80.825 84.467 80 85ZM170 84.378C170 84.585 169.213 85.373 168.25 86.128C166.664 87.371 166.629 87.336 167.872 85.75C169.179 84.084 170 83.555 170 84.378ZM166 90.378C166 90.585 165.213 91.373 164.25 92.128C162.664 93.371 162.629 93.336 163.872 91.75C165.179 90.084 166 89.555 166 90.378ZM51.5 95C48.751 96.181 47.172 96.181 49 95C49.825 94.467 51.175 94.055 52 94.086C52.989 94.122 52.819 94.433 51.5 95ZM129.662 106.25C129.385 106.938 129.158 106.375 129.158 105C129.158 103.625 129.385 103.063 129.662 103.75C129.94 104.438 129.94 105.563 129.662 106.25ZM131.39 112.5C131.88 114.691 131.787 115.095 131.046 114C130.487 113.175 130.024 111.638 130.015 110.583C129.995 108.025 130.567 108.823 131.39 112.5ZM150 115.378C150 115.585 149.213 116.373 148.25 117.128C146.664 118.371 146.629 118.336 147.872 116.75C149.179 115.084 150 114.555 150 115.378ZM115.662 120.25C115.385 120.938 115.158 120.375 115.158 119C115.158 117.625 115.385 117.063 115.662 117.75C115.94 118.438 115.94 119.563 115.662 120.25ZM112 118.378C112 118.585 111.213 119.373 110.25 120.128C108.664 121.371 108.629 121.336 109.872 119.75C111.179 118.084 112 117.555 112 118.378ZM134.662 132.25C134.385 132.938 134.158 132.375 134.158 131C134.158 129.625 134.385 129.063 134.662 129.75C134.94 130.438 134.94 131.563 134.662 132.25ZM141 129.378C141 129.585 140.213 130.373 139.25 131.128C137.664 132.371 137.629 132.336 138.872 130.75C140.179 129.084 141 128.555 141 129.378ZM103 132.378C103 132.585 102.213 133.373 101.25 134.128C99.664 135.371 99.629 135.336 100.872 133.75C102.179 132.084 103 131.555 103 132.378ZM119.985 139.417C120.005 141.975 119.433 141.177 118.61 137.5C118.12 135.309 118.213 134.905 118.954 136C119.513 136.825 119.976 138.363 119.985 139.417ZM120.662 146.25C120.385 146.938 120.158 146.375 120.158 145C120.158 143.625 120.385 143.063 120.662 143.75C120.94 144.438 120.94 145.563 120.662 146.25ZM201 155C200.175 155.533 198.825 155.945 198 155.914C197.011 155.878 197.181 155.567 198.5 155C201.249 153.819 202.828 153.819 201 155ZM87 157.378C87 157.585 86.213 158.373 85.25 159.128C83.664 160.371 83.629 160.336 84.872 158.75C86.179 157.084 87 156.555 87 157.378ZM83 163.378C83 163.585 82.213 164.373 81.25 165.128C79.664 166.371 79.629 166.336 80.872 164.75C82.179 163.084 83 162.555 83 163.378ZM172 165C171.175 165.533 170.05 165.969 169.5 165.969C168.95 165.969 169.175 165.533 170 165C170.825 164.467 171.95 164.031 172.5 164.031C173.05 164.031 172.825 164.467 172 165ZM145.45 173.888C144.928 174.376 143.375 175.046 142 175.378C139.906 175.882 139.988 175.745 142.5 174.535C146.034 172.833 146.746 172.677 145.45 173.888ZM116.5 184C116.16 184.55 115.346 184.993 114.691 184.985C113.975 184.975 114.099 184.582 115 184C116.921 182.758 117.267 182.758 116.5 184ZM87.5 194C87.16 194.55 86.346 194.993 85.691 194.985C84.975 194.975 85.099 194.582 86 194C87.921 192.758 88.267 192.758 87.5 194ZM71 200C70.175 200.533 68.825 200.945 68 200.914C67.011 200.878 67.181 200.567 68.5 200C71.249 198.819 72.828 198.819 71 200ZM57.667 203.5C57.667 204.325 57.292 205 56.833 205C55.835 205 55.735 203.599 56.667 202.667C57.594 201.74 57.667 201.801 57.667 203.5Z" fill="#D4D0FF"/>
<path fill-rule="evenodd" clip-rule="evenodd" d="M0 125V250H125H250V125V0H125H0V125ZM191.972 49.891C188.03 56.297 186.951 56.646 190.661 50.315C193.093 46.165 193.184 45.72 191.453 46.422C186.313 48.506 172.615 52.949 172.301 52.634C171.909 52.242 194.314 44.205 194.808 44.56C194.977 44.682 193.701 47.081 191.972 49.891ZM167.917 54.412C167.122 55.199 143.693 63.027 143.303 62.636C143.087 62.42 147.993 60.449 154.205 58.256C164.586 54.591 168.981 53.359 167.917 54.412ZM185.108 60.75C184.579 61.712 183.391 63.4 182.468 64.5C180.856 66.42 180.846 66.4 182.217 64C184.837 59.413 185.115 59 185.594 59C185.856 59 185.638 59.788 185.108 60.75ZM140.5 64C137.751 65.181 136.172 65.181 138 64C138.825 63.467 140.175 63.055 141 63.086C141.989 63.122 141.819 63.433 140.5 64ZM135 65.909C134.175 66.376 132.375 67.033 131 67.369C128.916 67.878 128.999 67.74 131.5 66.535C134.705 64.992 137.508 64.49 135 65.909ZM180.3 68.265C174.739 77.064 170.732 83 170.351 83C169.776 83 170.218 82.245 175.77 73.75C178.196 70.037 180.387 67 180.64 67C180.893 67 180.74 67.569 180.3 68.265ZM123.08 70.07C120.099 71.128 117.484 71.817 117.268 71.601C116.759 71.093 125.036 68.16 127 68.152C127.825 68.149 126.061 69.012 123.08 70.07ZM109.863 74.471C109.042 75.291 85.776 83.109 85.368 82.701C85.154 82.487 90.271 80.471 96.739 78.222C108.128 74.261 110.85 73.483 109.863 74.471ZM81 84.408C81 85.012 68.719 89.052 68.264 88.597C68.05 88.383 70.491 87.297 73.688 86.183C79.859 84.033 81 83.756 81 84.408ZM166.424 89.75C162.553 95.868 159.985 98.997 161.918 95.24C163.58 92.011 169.056 84 169.602 84C169.855 84 168.424 86.588 166.424 89.75ZM58.5 92.513L49.5 95.892L88.643 95.946C120.857 95.99 127.879 96.243 128.313 97.372C128.602 98.127 129.083 100.939 129.382 103.622L129.925 108.5L128.691 103L127.457 97.5L87.229 97.239C65.103 97.095 47.002 96.645 47.004 96.239C47.008 95.414 63.649 89.218 66 89.166C66.825 89.148 63.45 90.654 58.5 92.513ZM160.03 99.944C159.457 101.014 158.495 102.194 157.891 102.567C157.287 102.941 157.566 102.066 158.511 100.623C160.513 97.568 161.549 97.105 160.03 99.944ZM155.775 106.25C154.975 107.487 151.494 112.888 148.039 118.25C144.584 123.612 141.535 128 141.264 128C140.992 128 141.425 126.987 142.225 125.75C143.025 124.513 146.506 119.112 149.961 113.75C153.416 108.388 156.465 104 156.736 104C157.008 104 156.575 105.013 155.775 106.25ZM131.801 116V118.5L131 116C130.56 114.625 130.199 112.375 130.199 111V108.5L131 111C131.44 112.375 131.801 114.625 131.801 116ZM114.101 115.184C113.495 115.908 112.065 117.625 110.923 119C108.566 121.839 109.356 119.902 112.273 115.692C113.343 114.148 114.439 113.106 114.71 113.377C114.98 113.647 114.706 114.461 114.101 115.184ZM116.763 124C116.763 126.23 116.681 126.176 116 123.5C115.58 121.85 115.237 119.375 115.237 118C115.237 115.77 115.319 115.824 116 118.5C116.42 120.15 116.763 122.625 116.763 124ZM132.662 122.25C132.385 122.938 132.158 122.375 132.158 121C132.158 119.625 132.385 119.063 132.662 119.75C132.94 120.438 132.94 121.563 132.662 122.25ZM107.775 124.25C106.975 125.487 103.494 130.887 100.039 136.25C96.584 141.613 93.535 146 93.264 146C92.992 146 93.425 144.988 94.225 143.75C95.025 142.512 98.506 137.113 101.961 131.75C105.416 126.388 108.465 122 108.736 122C109.008 122 108.575 123.013 107.775 124.25ZM134.763 132C134.763 134.23 134.681 134.176 134 131.5C133.58 129.85 133.237 127.375 133.237 126C133.237 123.77 133.319 123.824 134 126.5C134.42 128.15 134.763 130.625 134.763 132ZM117.662 130.25C117.385 130.938 117.158 130.375 117.158 129C117.158 127.625 117.385 127.063 117.662 127.75C117.94 128.438 117.94 129.563 117.662 130.25ZM139.307 132.077C137.139 135.768 135 137.778 135 136.122C135 135.505 135.338 134.997 135.75 134.994C136.162 134.99 137.267 133.64 138.203 131.994C139.14 130.347 140.178 129 140.51 129C140.842 129 140.3 130.385 139.307 132.077ZM119.801 139V141.5L119 139C118.56 137.625 118.199 135.375 118.199 134V131.5L119 134C119.44 135.375 119.801 137.625 119.801 139ZM162.771 152.761C184.897 152.905 202.998 153.355 202.995 153.761C202.99 154.509 185.119 161.056 183.42 160.933C182.914 160.897 186.55 159.346 191.5 157.487L200.5 154.108L161.357 154.054C129.143 154.01 122.121 153.757 121.687 152.628C121.398 151.873 120.917 149.061 120.618 146.378L120.075 141.5L121.309 147L122.543 152.5L162.771 152.761ZM91.408 149.5C90.507 150.875 89.57 152 89.326 152C88.836 152 89.779 150.188 91.278 148.25C93 146.024 93.094 146.927 91.408 149.5ZM87.995 155.01C86.271 158.232 80.901 166 80.398 166C80.145 166 81.44 163.637 83.276 160.75C85.112 157.863 86.952 154.938 87.366 154.25C88.609 152.184 89.154 152.843 87.995 155.01ZM182 161.408C182 162.012 169.719 166.052 169.264 165.597C169.05 165.383 171.491 164.297 174.688 163.183C180.859 161.033 182 160.756 182 161.408ZM79.38 168.25C76.837 172.556 69.742 183 69.36 183C69.107 183 69.26 182.431 69.7 181.735C75.261 172.936 79.268 167 79.649 167C79.907 167 79.786 167.563 79.38 168.25ZM164.917 167.412C164.122 168.199 140.693 176.027 140.303 175.636C140.087 175.42 144.993 173.449 151.205 171.256C161.586 167.591 165.981 166.359 164.917 167.412ZM130.39 179.527C128.679 180.278 125.979 181.145 124.39 181.453C122.8 181.762 123.75 181.147 126.5 180.085C132.206 177.883 135.078 177.471 130.39 179.527ZM120 182.909C119.175 183.376 117.375 184.033 116 184.369C113.916 184.878 113.999 184.74 116.5 183.535C119.705 181.992 122.508 181.49 120 182.909ZM68.108 185.75C67.579 186.713 66.391 188.4 65.468 189.5C63.856 191.42 63.846 191.4 65.217 189C67.837 184.413 68.115 184 68.594 184C68.856 184 68.638 184.787 68.108 185.75ZM112 186C111.175 186.533 109.825 186.945 109 186.914C108.011 186.878 108.181 186.567 109.5 186C112.249 184.819 113.828 184.819 112 186ZM106.863 187.471C106.042 188.291 82.776 196.109 82.368 195.701C82.154 195.487 87.271 193.471 93.739 191.222C105.128 187.261 107.85 186.483 106.863 187.471ZM59.339 199.685C56.907 203.835 56.816 204.28 58.547 203.578C63.687 201.494 77.385 197.051 77.699 197.366C78.091 197.758 55.686 205.795 55.192 205.44C54.785 205.146 61.039 195 61.628 195C61.879 195 60.849 197.108 59.339 199.685Z" fill="#B8B0FF"/>
<path fill-rule="evenodd" clip-rule="evenodd" d="M0 125V250H125H250V125V0H125H0V125ZM195.3 45.363C190.974 52.734 135.582 137.915 135.299 137.632C135.091 137.425 133.375 129.21 131.484 119.378C129.594 109.545 127.803 100.487 127.504 99.25L126.962 97H85.814C63.183 97 44.988 96.679 45.38 96.286C46.074 95.592 193.702 44.157 195.3 44.052C195.74 44.024 195.74 44.613 195.3 45.363ZM149 61.062C125.625 69.213 97.05 79.136 85.5 83.114C73.95 87.093 61.125 91.598 57 93.125L49.5 95.903L88.731 95.951L127.962 96L128.487 98.25C129.894 104.274 135 131.715 135 133.25C135 136.113 136.324 135.209 139.446 130.213C144.061 122.831 162.23 94.629 179.205 68.5C189.649 52.425 193.442 45.964 192.345 46.121C191.88 46.188 172.375 52.911 149 61.062ZM118.516 130.622C120.406 140.455 122.197 149.512 122.496 150.75L123.038 153H164.219C186.869 153 204.973 153.379 204.45 153.842C203.356 154.812 54.867 206.2 54.428 205.761C54.268 205.601 67.681 184.439 84.234 158.734C100.787 133.029 114.499 112.165 114.704 112.371C114.91 112.576 116.625 120.79 118.516 130.622ZM110.554 119.787C105.939 127.169 87.77 155.371 70.795 181.5C66.15 188.65 61.054 196.721 59.471 199.435C56.95 203.757 56.836 204.274 58.547 203.595C59.621 203.169 78.725 196.519 101 188.819C161.877 167.774 189.951 158.019 195.5 155.982L200.5 154.146L161.269 154.073L122.038 154L121.513 151.75C120.106 145.726 115 118.285 115 116.75C115 113.887 113.676 114.791 110.554 119.787Z" fill="#9387FF"/>
<path fill-rule="evenodd" clip-rule="evenodd" d="M0 125V250H125H250V125V0H125H0V125ZM194.974 46.049C194.371 47.176 190.91 52.689 187.284 58.299C179.831 69.829 173.122 80.247 164.445 93.76C161.175 98.853 154.766 108.753 150.203 115.76C145.64 122.767 140.53 130.722 138.847 133.437C136.606 137.054 135.587 137.989 135.035 136.937C134.62 136.147 132.81 127.625 131.013 118C129.215 108.375 127.336 99.713 126.837 98.75C125.996 97.128 122.906 96.994 84.715 96.918C37.858 96.826 39.526 97.483 64.5 88.953C94.392 78.745 131.93 65.734 169.5 52.559C182.7 47.93 194.078 44.11 194.785 44.071C195.772 44.017 195.816 44.475 194.974 46.049ZM149 61.062C125.625 69.213 97.05 79.136 85.5 83.114C73.95 87.093 61.125 91.598 57 93.125L49.5 95.903L88.731 95.951L127.962 96L128.487 98.25C129.894 104.274 135 131.715 135 133.25C135 136.113 136.324 135.209 139.446 130.213C144.061 122.831 162.23 94.629 179.205 68.5C189.649 52.425 193.442 45.964 192.345 46.121C191.88 46.188 172.375 52.911 149 61.062ZM118.987 132C120.785 141.625 122.664 150.287 123.163 151.25C124.004 152.872 127.094 153.006 165.285 153.082C212.177 153.174 210.497 152.496 185.255 161.148C177.42 163.833 164.37 168.319 156.255 171.116C148.14 173.913 135.2 178.372 127.5 181.024C119.8 183.676 100.468 190.387 84.541 195.937C68.613 201.486 55.207 205.902 54.749 205.75C54.002 205.501 57.645 199.536 74.447 173.5C77.286 169.1 82.285 161.333 85.555 156.24C88.825 151.147 95.234 141.247 99.797 134.24C104.36 127.233 109.47 119.278 111.153 116.563C113.394 112.946 114.413 112.011 114.965 113.063C115.38 113.853 117.19 122.375 118.987 132ZM110.554 119.787C105.939 127.169 87.77 155.371 70.795 181.5C66.15 188.65 61.054 196.721 59.471 199.435C56.95 203.757 56.836 204.274 58.547 203.595C59.621 203.169 78.725 196.519 101 188.819C161.877 167.774 189.951 158.019 195.5 155.982L200.5 154.146L161.269 154.073L122.038 154L121.513 151.75C120.106 145.726 115 118.285 115 116.75C115 113.887 113.676 114.791 110.554 119.787Z" fill="#877AFF"/>
<path fill-rule="evenodd" clip-rule="evenodd" d="M0 125V250H125H250V125V0H125H0V125ZM194.383 47.25C193.465 49.038 189.342 55.675 185.22 62C175.695 76.617 169.272 86.549 166.465 91C165.251 92.925 160.903 99.675 156.803 106C146.441 121.984 140.78 130.843 138.044 135.355L135.707 139.209L134.442 136.199C133.745 134.543 132.657 129.658 132.023 125.344C131.389 121.03 129.887 113.113 128.685 107.752L126.5 98.004L85.417 98.002C62.821 98.001 44.026 97.693 43.65 97.317C42.657 96.324 53.863 91.875 71 86.46C75.068 85.174 80.426 83.301 102.5 75.448C106.35 74.079 112.2 72.111 115.5 71.076C118.8 70.04 125.325 67.785 130 66.065C134.675 64.344 141.2 62.084 144.5 61.043C147.8 60.001 154.325 57.743 159 56.024C163.675 54.305 169.525 52.256 172 51.47C174.475 50.685 180.325 48.708 185 47.078C196.102 43.206 196.456 43.212 194.383 47.25ZM149 61.062C125.625 69.213 97.05 79.136 85.5 83.114C73.95 87.093 61.125 91.598 57 93.125L49.5 95.903L88.731 95.951L127.962 96L128.487 98.25C129.894 104.274 135 131.715 135 133.25C135 136.113 136.324 135.209 139.446 130.213C144.061 122.831 162.23 94.629 179.205 68.5C189.649 52.425 193.442 45.964 192.345 46.121C191.88 46.188 172.375 52.911 149 61.062ZM117.977 124.656C118.611 128.97 120.113 136.887 121.315 142.248L123.5 151.996L164.583 151.998C187.179 151.999 205.974 152.307 206.35 152.683C207.343 153.676 196.137 158.125 179 163.54C174.932 164.826 169.574 166.699 147.5 174.552C143.65 175.921 137.8 177.889 134.5 178.924C131.2 179.96 124.675 182.215 120 183.935C115.325 185.656 108.8 187.916 105.5 188.957C102.2 189.999 95.675 192.257 91 193.976C86.325 195.695 80.475 197.744 78 198.53C75.525 199.315 69.675 201.292 65 202.922C60.325 204.553 55.926 205.912 55.224 205.943C53.484 206.021 55.488 202.259 64.78 188C74.305 173.383 80.728 163.451 83.535 159C84.749 157.075 89.097 150.325 93.197 144C103.559 128.016 109.22 119.157 111.956 114.645L114.293 110.791L115.558 113.801C116.255 115.457 117.343 120.342 117.977 124.656ZM110.554 119.787C105.939 127.169 87.77 155.371 70.795 181.5C66.15 188.65 61.054 196.721 59.471 199.435C56.95 203.757 56.836 204.274 58.547 203.595C59.621 203.169 78.725 196.519 101 188.819C161.877 167.774 189.951 158.019 195.5 155.982L200.5 154.146L161.269 154.073L122.038 154L121.513 151.75C120.106 145.726 115 118.285 115 116.75C115 113.887 113.676 114.791 110.554 119.787Z" fill="#7060FF"/>
<path fill-rule="evenodd" clip-rule="evenodd" d="M0 125V250H125H250V125V0H125H0V125ZM196.273 43.607C196.826 44.16 191.962 52.446 184.301 64C182.661 66.475 179.746 70.975 177.825 74C170.816 85.037 167.174 90.711 160.497 101C156.75 106.775 152.243 113.75 150.483 116.5C136.182 138.838 135.783 139.364 134.674 137.395C134.087 136.353 132.001 127.175 130.039 117L126.472 98.5L84.736 98.239C43.599 97.982 38.897 97.574 45.75 94.862C49.351 93.437 89.494 79.446 98.5 76.478C102.35 75.209 112.7 71.638 121.5 68.543C130.3 65.448 143.35 60.914 150.5 58.467C178.192 48.992 192.344 43.99 192.828 43.505C193.523 42.811 195.537 42.87 196.273 43.607ZM149 61.062C125.625 69.213 97.05 79.136 85.5 83.114C73.95 87.093 61.125 91.598 57 93.125L49.5 95.903L88.731 95.951L127.962 96L128.487 98.25C129.894 104.274 135 131.715 135 133.25C135 136.113 136.324 135.209 139.446 130.213C144.061 122.831 162.23 94.629 179.205 68.5C189.649 52.425 193.442 45.964 192.345 46.121C191.88 46.188 172.375 52.911 149 61.062ZM115.53 112.75C115.939 113.713 117.906 122.825 119.901 133L123.528 151.5L165.264 151.761C206.401 152.018 211.103 152.426 204.25 155.138C200.649 156.563 160.506 170.554 151.5 173.522C147.65 174.791 137.3 178.356 128.5 181.444C119.7 184.532 107.1 188.884 100.5 191.115C93.9 193.346 86.25 196.009 83.5 197.032C67.812 202.869 54.86 207.031 54.013 206.508C53.141 205.969 57.313 198.647 65.699 186C67.339 183.525 70.329 178.912 72.341 175.75C81.244 161.76 83.068 158.916 89.503 149C93.25 143.225 97.758 136.25 99.52 133.5C101.282 130.75 105.036 124.925 107.862 120.556C110.688 116.187 113 112.249 113 111.806C113 110.318 114.778 110.982 115.53 112.75ZM110.554 119.787C105.939 127.169 87.77 155.371 70.795 181.5C66.15 188.65 61.054 196.721 59.471 199.435C56.95 203.757 56.836 204.274 58.547 203.595C59.621 203.169 78.725 196.519 101 188.819C161.877 167.774 189.951 158.019 195.5 155.982L200.5 154.146L161.269 154.073L122.038 154L121.513 151.75C120.106 145.726 115 118.285 115 116.75C115 113.887 113.676 114.791 110.554 119.787Z" fill="#5542FF"/>
<path fill-rule="evenodd" clip-rule="evenodd" d="M149 61.062C125.625 69.213 97.05 79.136 85.5 83.114C73.95 87.093 61.125 91.598 57 93.125L49.5 95.903L88.731 95.951L127.962 96L128.487 98.25C129.894 104.274 135 131.715 135 133.25C135 136.113 136.324 135.209 139.446 130.213C144.061 122.831 162.23 94.629 179.205 68.5C189.649 52.425 193.442 45.964 192.345 46.121C191.88 46.188 172.375 52.911 149 61.062ZM110.554 119.787C105.939 127.169 87.77 155.371 70.795 181.5C66.15 188.65 61.054 196.721 59.471 199.435C56.95 203.757 56.836 204.274 58.547 203.595C59.621 203.169 78.725 196.519 101 188.819C161.877 167.774 189.951 158.019 195.5 155.982L200.5 154.146L161.269 154.073L122.038 154L121.513 151.75C120.106 145.726 115 118.285 115 116.75C115 113.887 113.676 114.791 110.554 119.787Z" fill="white"/>
</svg>
