<svg width="125" height="125" viewBox="0 0 125 125" fill="none" xmlns="http://www.w3.org/2000/svg">
<g clip-path="url(#clip0_1_316)">
<path fill-rule="evenodd" clip-rule="evenodd" d="M0 62.5V125H62.5H125V62.5V0H62.5H0V62.5Z" fill="#EFEDFF"/>
<path fill-rule="evenodd" clip-rule="evenodd" d="M0 62.5V125H62.5H125V62.5V0H62.5H0V62.5ZM97 22.9705C97 23.2295 96.8125 23.557 96.5835 23.6985C96.354 23.84 96.1665 23.6285 96.1665 23.228C96.1665 22.8275 96.354 22.5 96.5835 22.5C96.8125 22.5 97 22.7115 97 22.9705ZM90.75 25C89.3755 25.5905 88.586 25.5905 89.5 25C89.9125 24.7335 90.5875 24.5275 91 24.543C91.4945 24.561 91.4095 24.7165 90.75 25ZM82.5 27.6965C82.5 27.8045 82.151 28.027 81.724 28.191C81.279 28.3615 81.0785 28.2775 81.2535 27.9945C81.547 27.519 82.5 27.2915 82.5 27.6965ZM68 32.6965C68 32.8045 67.651 33.027 67.224 33.191C66.779 33.3615 66.5785 33.2775 66.7535 32.9945C67.047 32.519 68 32.2915 68 32.6965ZM55 37.201C55 37.3115 54.325 37.6375 53.5 37.925C51.7635 38.5305 51.4505 38.1885 53.125 37.5155C54.3915 37.0065 55 36.9045 55 37.201ZM40 42.5C39.5875 42.7665 39.025 42.9845 38.75 42.9845C38.475 42.9845 38.5875 42.7665 39 42.5C39.4125 42.2335 39.975 42.0155 40.25 42.0155C40.525 42.0155 40.4125 42.2335 40 42.5ZM85 42.189C85 42.2925 84.6065 42.6865 84.125 43.064C83.332 43.6855 83.3145 43.668 83.936 42.875C84.5895 42.042 85 41.7775 85 42.189ZM83 45.189C83 45.2925 82.6065 45.6865 82.125 46.064C81.332 46.6855 81.3145 46.668 81.936 45.875C82.5895 45.042 83 44.7775 83 45.189ZM25.75 47.5C24.3755 48.0905 23.586 48.0905 24.5 47.5C24.9125 47.2335 25.5875 47.0275 26 47.043C26.4945 47.061 26.4095 47.2165 25.75 47.5ZM64.831 53.125C64.6925 53.469 64.579 53.1875 64.579 52.5C64.579 51.8125 64.6925 51.5315 64.831 51.875C64.97 52.219 64.97 52.7815 64.831 53.125ZM65.695 56.25C65.94 57.3455 65.8935 57.5475 65.523 57C65.2435 56.5875 65.012 55.819 65.0075 55.2915C64.9975 54.0125 65.2835 54.4115 65.695 56.25ZM75 57.689C75 57.7925 74.6065 58.1865 74.125 58.564C73.332 59.1855 73.3145 59.168 73.936 58.375C74.5895 57.542 75 57.2775 75 57.689ZM57.831 60.125C57.6925 60.469 57.579 60.1875 57.579 59.5C57.579 58.8125 57.6925 58.5315 57.831 58.875C57.97 59.219 57.97 59.7815 57.831 60.125ZM56 59.189C56 59.2925 55.6065 59.6865 55.125 60.064C54.332 60.6855 54.3145 60.668 54.936 59.875C55.5895 59.042 56 58.7775 56 59.189ZM67.331 66.125C67.1925 66.469 67.079 66.1875 67.079 65.5C67.079 64.8125 67.1925 64.5315 67.331 64.875C67.47 65.219 67.47 65.7815 67.331 66.125ZM70.5 64.689C70.5 64.7925 70.1065 65.1865 69.625 65.564C68.832 66.1855 68.8145 66.168 69.436 65.375C70.0895 64.542 70.5 64.2775 70.5 64.689ZM51.5 66.189C51.5 66.2925 51.1065 66.6865 50.625 67.064C49.832 67.6855 49.8145 67.668 50.436 66.875C51.0895 66.042 51.5 65.7775 51.5 66.189ZM59.9925 69.7085C60.0025 70.9875 59.7165 70.5885 59.305 68.75C59.06 67.6545 59.1065 67.4525 59.477 68C59.7565 68.4125 59.988 69.1815 59.9925 69.7085ZM60.331 73.125C60.1925 73.469 60.079 73.1875 60.079 72.5C60.079 71.8125 60.1925 71.5315 60.331 71.875C60.47 72.219 60.47 72.7815 60.331 73.125ZM100.5 77.5C100.088 77.7665 99.4125 77.9725 99 77.957C98.5055 77.939 98.5905 77.7835 99.25 77.5C100.625 76.9095 101.414 76.9095 100.5 77.5ZM43.5 78.689C43.5 78.7925 43.1065 79.1865 42.625 79.564C41.832 80.1855 41.8145 80.168 42.436 79.375C43.0895 78.542 43.5 78.2775 43.5 78.689ZM41.5 81.689C41.5 81.7925 41.1065 82.1865 40.625 82.564C39.832 83.1855 39.8145 83.168 40.436 82.375C41.0895 81.542 41.5 81.2775 41.5 81.689ZM86 82.5C85.5875 82.7665 85.025 82.9845 84.75 82.9845C84.475 82.9845 84.5875 82.7665 85 82.5C85.4125 82.2335 85.975 82.0155 86.25 82.0155C86.525 82.0155 86.4125 82.2335 86 82.5ZM72.725 86.944C72.464 87.188 71.6875 87.523 71 87.689C69.953 87.941 69.994 87.8725 71.25 87.2675C73.017 86.4165 73.373 86.3385 72.725 86.944ZM58.25 92C58.08 92.275 57.673 92.4965 57.3455 92.4925C56.9875 92.4875 57.0495 92.291 57.5 92C58.4605 91.379 58.6335 91.379 58.25 92ZM43.75 97C43.58 97.275 43.173 97.4965 42.8455 97.4925C42.4875 97.4875 42.5495 97.291 43 97C43.9605 96.379 44.1335 96.379 43.75 97ZM35.5 100C35.0875 100.266 34.4125 100.473 34 100.457C33.5055 100.439 33.5905 100.283 34.25 100C35.6245 99.4095 36.414 99.4095 35.5 100ZM28.8335 101.75C28.8335 102.162 28.646 102.5 28.4165 102.5C27.9175 102.5 27.8675 101.8 28.3335 101.334C28.797 100.87 28.8335 100.9 28.8335 101.75Z" fill="#D4D0FF"/>
<path fill-rule="evenodd" clip-rule="evenodd" d="M0 62.5V125H62.5H125V62.5V0H62.5H0V62.5ZM95.986 24.9455C94.015 28.1485 93.4755 28.323 95.3305 25.1575C96.5465 23.0825 96.592 22.86 95.7265 23.211C93.1565 24.253 86.3075 26.4745 86.1505 26.317C85.9545 26.121 97.157 22.1025 97.404 22.28C97.4885 22.341 96.8505 23.5405 95.986 24.9455ZM83.9585 27.206C83.561 27.5995 71.8465 31.5135 71.6515 31.318C71.5435 31.21 73.9965 30.2245 77.1025 29.128C82.293 27.2955 84.4905 26.6795 83.9585 27.206ZM92.554 30.375C92.2895 30.856 91.6955 31.7 91.234 32.25C90.428 33.21 90.423 33.2 91.1085 32C92.4185 29.7065 92.5575 29.5 92.797 29.5C92.928 29.5 92.819 29.894 92.554 30.375ZM70.25 32C68.8755 32.5905 68.086 32.5905 69 32C69.4125 31.7335 70.0875 31.5275 70.5 31.543C70.9945 31.561 70.9095 31.7165 70.25 32ZM67.5 32.9545C67.0875 33.188 66.1875 33.5165 65.5 33.6845C64.458 33.939 64.4995 33.87 65.75 33.2675C67.3525 32.496 68.754 32.245 67.5 32.9545ZM90.15 34.1325C87.3695 38.532 85.366 41.5 85.1755 41.5C84.888 41.5 85.109 41.1225 87.885 36.875C89.098 35.0185 90.1935 33.5 90.32 33.5C90.4465 33.5 90.37 33.7845 90.15 34.1325ZM61.54 35.035C60.0495 35.564 58.742 35.9085 58.634 35.8005C58.3795 35.5465 62.518 34.08 63.5 34.076C63.9125 34.0745 63.0305 34.506 61.54 35.035ZM54.9315 37.2355C54.521 37.6455 42.888 41.5545 42.684 41.3505C42.577 41.2435 45.1355 40.2355 48.3695 39.111C54.064 37.1305 55.425 36.7415 54.9315 37.2355ZM40.5 42.204C40.5 42.506 34.3595 44.526 34.132 44.2985C34.025 44.1915 35.2455 43.6485 36.844 43.0915C39.9295 42.0165 40.5 41.878 40.5 42.204ZM83.212 44.875C81.2765 47.934 79.9925 49.4985 80.959 47.62C81.79 46.0055 84.528 42 84.801 42C84.9275 42 84.212 43.294 83.212 44.875ZM29.25 46.2565L24.75 47.946L44.3215 47.973C60.4285 47.995 63.9395 48.1215 64.1565 48.686C64.301 49.0635 64.5415 50.4695 64.691 51.811L64.9625 54.25L64.3455 51.5L63.7285 48.75L43.6145 48.6195C32.5515 48.5475 23.501 48.3225 23.502 48.1195C23.504 47.707 31.8245 44.609 33 44.583C33.4125 44.574 31.725 45.327 29.25 46.2565ZM80.015 49.972C79.7285 50.507 79.2475 51.097 78.9455 51.2835C78.6435 51.4705 78.783 51.033 79.2555 50.3115C80.2565 48.784 80.7745 48.5525 80.015 49.972ZM77.8875 53.125C77.4875 53.7435 75.747 56.444 74.0195 59.125C72.292 61.806 70.7675 64 70.632 64C70.496 64 70.7125 63.4935 71.1125 62.875C71.5125 62.2565 73.253 59.556 74.9805 56.875C76.708 54.194 78.2325 52 78.368 52C78.504 52 78.2875 52.5065 77.8875 53.125ZM65.9005 58V59.25L65.5 58C65.28 57.3125 65.0995 56.1875 65.0995 55.5V54.25L65.5 55.5C65.72 56.1875 65.9005 57.3125 65.9005 58ZM57.0505 57.592C56.7475 57.954 56.0325 58.8125 55.4615 59.5C54.283 60.9195 54.678 59.951 56.1365 57.846C56.6715 57.074 57.2195 56.553 57.355 56.6885C57.49 56.8235 57.353 57.2305 57.0505 57.592ZM58.3815 62C58.3815 63.115 58.3405 63.088 58 61.75C57.79 60.925 57.6185 59.6875 57.6185 59C57.6185 57.885 57.6595 57.912 58 59.25C58.21 60.075 58.3815 61.3125 58.3815 62ZM66.331 61.125C66.1925 61.469 66.079 61.1875 66.079 60.5C66.079 59.8125 66.1925 59.5315 66.331 59.875C66.47 60.219 66.47 60.7815 66.331 61.125ZM53.8875 62.125C53.4875 62.7435 51.747 65.4435 50.0195 68.125C48.292 70.8065 46.7675 73 46.632 73C46.496 73 46.7125 72.494 47.1125 71.875C47.5125 71.256 49.253 68.5565 50.9805 65.875C52.708 63.194 54.2325 61 54.368 61C54.504 61 54.2875 61.5065 53.8875 62.125ZM67.3815 66C67.3815 67.115 67.3405 67.088 67 65.75C66.79 64.925 66.6185 63.6875 66.6185 63C66.6185 61.885 66.6595 61.912 67 63.25C67.21 64.075 67.3815 65.3125 67.3815 66ZM58.831 65.125C58.6925 65.469 58.579 65.1875 58.579 64.5C58.579 63.8125 58.6925 63.5315 58.831 63.875C58.97 64.219 58.97 64.7815 58.831 65.125ZM69.6535 66.0385C68.5695 67.884 67.5 68.889 67.5 68.061C67.5 67.7525 67.669 67.4985 67.875 67.497C68.081 67.495 68.6335 66.82 69.1015 65.997C69.57 65.1735 70.089 64.5 70.255 64.5C70.421 64.5 70.15 65.1925 69.6535 66.0385ZM59.9005 69.5V70.75L59.5 69.5C59.28 68.8125 59.0995 67.6875 59.0995 67V65.75L59.5 67C59.72 67.6875 59.9005 68.8125 59.9005 69.5ZM81.3855 76.3805C92.4485 76.4525 101.499 76.6775 101.497 76.8805C101.495 77.2545 92.5595 80.528 91.71 80.4665C91.457 80.4485 93.275 79.673 95.75 78.7435L100.25 77.054L80.6785 77.027C64.5715 77.005 61.0605 76.8785 60.8435 76.314C60.699 75.9365 60.4585 74.5305 60.309 73.189L60.0375 70.75L60.6545 73.5L61.2715 76.25L81.3855 76.3805ZM45.704 74.75C45.2535 75.4375 44.785 76 44.663 76C44.418 76 44.8895 75.094 45.639 74.125C46.5 73.012 46.547 73.4635 45.704 74.75ZM43.9975 77.505C43.1355 79.116 40.4505 83 40.199 83C40.0725 83 40.72 81.8185 41.638 80.375C42.556 78.9315 43.476 77.469 43.683 77.125C44.3045 76.092 44.577 76.4215 43.9975 77.505ZM91 80.704C91 81.006 84.8595 83.026 84.632 82.7985C84.525 82.6915 85.7455 82.1485 87.344 81.5915C90.4295 80.5165 91 80.378 91 80.704ZM39.69 84.125C38.4185 86.278 34.871 91.5 34.68 91.5C34.5535 91.5 34.63 91.2155 34.85 90.8675C37.6305 86.468 39.634 83.5 39.8245 83.5C39.9535 83.5 39.893 83.7815 39.69 84.125ZM82.4585 83.706C82.061 84.0995 70.3465 88.0135 70.1515 87.818C70.0435 87.71 72.4965 86.7245 75.6025 85.628C80.793 83.7955 82.9905 83.1795 82.4585 83.706ZM65.195 89.7635C64.3395 90.139 62.9895 90.5725 62.195 90.7265C61.4 90.881 61.875 90.5735 63.25 90.0425C66.103 88.9415 67.539 88.7355 65.195 89.7635ZM60 91.4545C59.5875 91.688 58.6875 92.0165 58 92.1845C56.958 92.439 56.9995 92.37 58.25 91.7675C59.8525 90.996 61.254 90.745 60 91.4545ZM34.054 92.875C33.7895 93.3565 33.1955 94.2 32.734 94.75C31.928 95.71 31.923 95.7 32.6085 94.5C33.9185 92.2065 34.0575 92 34.297 92C34.428 92 34.319 92.3935 34.054 92.875ZM56 93C55.5875 93.2665 54.9125 93.4725 54.5 93.457C54.0055 93.439 54.0905 93.2835 54.75 93C56.1245 92.4095 56.914 92.4095 56 93ZM53.4315 93.7355C53.021 94.1455 41.388 98.0545 41.184 97.8505C41.077 97.7435 43.6355 96.7355 46.8695 95.611C52.564 93.6305 53.925 93.2415 53.4315 93.7355ZM29.6695 99.8425C28.4535 101.917 28.408 102.14 29.2735 101.789C31.8435 100.747 38.6925 98.5255 38.8495 98.683C39.0455 98.879 27.843 102.898 27.596 102.72C27.3925 102.573 30.5195 97.5 30.814 97.5C30.9395 97.5 30.4245 98.554 29.6695 99.8425Z" fill="#B8B0FF"/>
<path fill-rule="evenodd" clip-rule="evenodd" d="M0 62.5V125H62.5H125V62.5V0H62.5H0V62.5ZM97.65 22.6815C95.487 26.367 67.791 68.9575 67.6495 68.816C67.5455 68.7125 66.6875 64.605 65.742 59.689C64.797 54.7725 63.9015 50.2435 63.752 49.625L63.481 48.5H42.907C31.5915 48.5 22.494 48.3395 22.69 48.143C23.037 47.796 96.851 22.0785 97.65 22.026C97.87 22.012 97.87 22.3065 97.65 22.6815ZM74.5 30.531C62.8125 34.6065 48.525 39.568 42.75 41.557C36.975 43.5465 30.5625 45.799 28.5 46.5625L24.75 47.9515L44.3655 47.9755L63.981 48L64.2435 49.125C64.947 52.137 67.5 65.8575 67.5 66.625C67.5 68.0565 68.162 67.6045 69.723 65.1065C72.0305 61.4155 81.115 47.3145 89.6025 34.25C94.8245 26.2125 96.721 22.982 96.1725 23.0605C95.94 23.094 86.1875 26.4555 74.5 30.531ZM59.258 65.311C60.203 70.2275 61.0985 74.756 61.248 75.375L61.519 76.5H82.1095C93.4345 76.5 102.486 76.6895 102.225 76.921C101.678 77.406 27.4335 103.1 27.214 102.881C27.134 102.801 33.8405 92.2195 42.117 79.367C50.3935 66.5145 57.2495 56.0825 57.352 56.1855C57.455 56.288 58.3125 60.395 59.258 65.311ZM55.277 59.8935C52.9695 63.5845 43.885 77.6855 35.3975 90.75C33.075 94.325 30.527 98.3605 29.7355 99.7175C28.475 101.878 28.418 102.137 29.2735 101.798C29.8105 101.585 39.3625 98.2595 50.5 94.4095C80.9385 83.887 94.9755 79.0095 97.75 77.991L100.25 77.073L80.6345 77.0365L61.019 77L60.7565 75.875C60.053 72.863 57.5 59.1425 57.5 58.375C57.5 56.9435 56.838 57.3955 55.277 59.8935Z" fill="#9387FF"/>
<path fill-rule="evenodd" clip-rule="evenodd" d="M0 62.5V125H62.5H125V62.5V0H62.5H0V62.5ZM97.487 23.0245C97.1855 23.588 95.455 26.3445 93.642 29.1495C89.9155 34.9145 86.561 40.1235 82.2225 46.88C80.5875 49.4265 77.383 54.3765 75.1015 57.88C72.82 61.3835 70.265 65.361 69.4235 66.7185C68.303 68.527 67.7935 68.9945 67.5175 68.4685C67.31 68.0735 66.405 63.8125 65.5065 59C64.6075 54.1875 63.668 49.8565 63.4185 49.375C62.998 48.564 61.453 48.497 42.3575 48.459C18.929 48.413 19.763 48.7415 32.25 44.4765C47.196 39.3725 65.965 32.867 84.75 26.2795C91.35 23.965 97.039 22.055 97.3925 22.0355C97.886 22.0085 97.908 22.2375 97.487 23.0245ZM74.5 30.531C62.8125 34.6065 48.525 39.568 42.75 41.557C36.975 43.5465 30.5625 45.799 28.5 46.5625L24.75 47.9515L44.3655 47.9755L63.981 48L64.2435 49.125C64.947 52.137 67.5 65.8575 67.5 66.625C67.5 68.0565 68.162 67.6045 69.723 65.1065C72.0305 61.4155 81.115 47.3145 89.6025 34.25C94.8245 26.2125 96.721 22.982 96.1725 23.0605C95.94 23.094 86.1875 26.4555 74.5 30.531ZM59.4935 66C60.3925 70.8125 61.332 75.1435 61.5815 75.625C62.002 76.436 63.547 76.503 82.6425 76.541C106.089 76.587 105.249 76.248 92.6275 80.574C88.71 81.9165 82.185 84.1595 78.1275 85.558C74.07 86.9565 67.6 89.186 63.75 90.512C59.9 91.838 50.234 95.1935 42.2705 97.9685C34.3065 100.743 27.6035 102.951 27.3745 102.875C27.001 102.751 28.8225 99.768 37.2235 86.75C38.643 84.55 41.1425 80.6665 42.7775 78.12C44.4125 75.5735 47.617 70.6235 49.8985 67.12C52.18 63.6165 54.735 59.639 55.5765 58.2815C56.697 56.473 57.2065 56.0055 57.4825 56.5315C57.69 56.9265 58.595 61.1875 59.4935 66ZM55.277 59.8935C52.9695 63.5845 43.885 77.6855 35.3975 90.75C33.075 94.325 30.527 98.3605 29.7355 99.7175C28.475 101.878 28.418 102.137 29.2735 101.798C29.8105 101.585 39.3625 98.2595 50.5 94.4095C80.9385 83.887 94.9755 79.0095 97.75 77.991L100.25 77.073L80.6345 77.0365L61.019 77L60.7565 75.875C60.053 72.863 57.5 59.1425 57.5 58.375C57.5 56.9435 56.838 57.3955 55.277 59.8935Z" fill="#877AFF"/>
<path fill-rule="evenodd" clip-rule="evenodd" d="M0 62.5V125H62.5H125V62.5V0H62.5H0V62.5ZM97.1915 23.625C96.7325 24.519 94.671 27.8375 92.61 31C87.8475 38.3085 84.636 43.2745 83.2325 45.5C82.6255 46.4625 80.4515 49.8375 78.4015 53C73.2205 60.992 70.39 65.4215 69.022 67.6775L67.8535 69.6045L67.221 68.0995C66.8725 67.2715 66.3285 64.829 66.0115 62.672C65.6945 60.515 64.9435 56.5565 64.3425 53.876L63.25 49.002L42.7085 49.001C31.4105 49.0005 22.013 48.8465 21.825 48.6585C21.3285 48.162 26.9315 45.9375 35.5 43.23C37.534 42.587 40.213 41.6505 51.25 37.724C53.175 37.0395 56.1 36.0555 57.75 35.538C59.4 35.02 62.6625 33.8925 65 33.0325C67.3375 32.172 70.6 31.042 72.25 30.5215C73.9 30.0005 77.1625 28.8715 79.5 28.012C81.8375 27.1525 84.7625 26.128 86 25.735C87.2375 25.3425 90.1625 24.354 92.5 23.539C98.051 21.603 98.228 21.606 97.1915 23.625ZM74.5 30.531C62.8125 34.6065 48.525 39.568 42.75 41.557C36.975 43.5465 30.5625 45.799 28.5 46.5625L24.75 47.9515L44.3655 47.9755L63.981 48L64.2435 49.125C64.947 52.137 67.5 65.8575 67.5 66.625C67.5 68.0565 68.162 67.6045 69.723 65.1065C72.0305 61.4155 81.115 47.3145 89.6025 34.25C94.8245 26.2125 96.721 22.982 96.1725 23.0605C95.94 23.094 86.1875 26.4555 74.5 30.531ZM58.9885 62.328C59.3055 64.485 60.0565 68.4435 60.6575 71.124L61.75 75.998L82.2915 75.999C93.5895 75.9995 102.987 76.1535 103.175 76.3415C103.672 76.838 98.0685 79.0625 89.5 81.77C87.466 82.413 84.787 83.3495 73.75 87.276C71.825 87.9605 68.9 88.9445 67.25 89.462C65.6 89.98 62.3375 91.1075 60 91.9675C57.6625 92.828 54.4 93.958 52.75 94.4785C51.1 94.9995 47.8375 96.1285 45.5 96.988C43.1625 97.8475 40.2375 98.872 39 99.265C37.7625 99.6575 34.8375 100.646 32.5 101.461C30.1625 102.276 27.963 102.956 27.612 102.971C26.742 103.01 27.744 101.129 32.39 94C37.1525 86.6915 40.364 81.7255 41.7675 79.5C42.3745 78.5375 44.5485 75.1625 46.5985 72C51.7795 64.008 54.61 59.5785 55.978 57.3225L57.1465 55.3955L57.779 56.9005C58.1275 57.7285 58.6715 60.171 58.9885 62.328ZM55.277 59.8935C52.9695 63.5845 43.885 77.6855 35.3975 90.75C33.075 94.325 30.527 98.3605 29.7355 99.7175C28.475 101.878 28.418 102.137 29.2735 101.798C29.8105 101.585 39.3625 98.2595 50.5 94.4095C80.9385 83.887 94.9755 79.0095 97.75 77.991L100.25 77.073L80.6345 77.0365L61.019 77L60.7565 75.875C60.053 72.863 57.5 59.1425 57.5 58.375C57.5 56.9435 56.838 57.3955 55.277 59.8935Z" fill="#7060FF"/>
<path fill-rule="evenodd" clip-rule="evenodd" d="M0 62.5V125H62.5H125V62.5V0H62.5H0V62.5ZM98.1365 21.8035C98.413 22.08 95.981 26.223 92.1505 32C91.3305 33.2375 89.873 35.4875 88.9125 37C85.408 42.5185 83.587 45.3555 80.2485 50.5C78.375 53.3875 76.1215 56.875 75.2415 58.25C68.091 69.419 67.8915 69.682 67.337 68.6975C67.0435 68.1765 66.0005 63.5875 65.0195 58.5L63.236 49.25L42.368 49.1195C21.7995 48.991 19.4485 48.787 22.875 47.431C24.6755 46.7185 44.747 39.723 49.25 38.239C51.175 37.6045 56.35 35.819 60.75 34.2715C65.15 32.724 71.675 30.457 75.25 29.2335C89.096 24.496 96.172 21.995 96.414 21.7525C96.7615 21.4055 97.7685 21.435 98.1365 21.8035ZM74.5 30.531C62.8125 34.6065 48.525 39.568 42.75 41.557C36.975 43.5465 30.5625 45.799 28.5 46.5625L24.75 47.9515L44.3655 47.9755L63.981 48L64.2435 49.125C64.947 52.137 67.5 65.8575 67.5 66.625C67.5 68.0565 68.162 67.6045 69.723 65.1065C72.0305 61.4155 81.115 47.3145 89.6025 34.25C94.8245 26.2125 96.721 22.982 96.1725 23.0605C95.94 23.094 86.1875 26.4555 74.5 30.531ZM57.765 56.375C57.9695 56.8565 58.953 61.4125 59.9505 66.5L61.764 75.75L82.632 75.8805C103.201 76.009 105.552 76.213 102.125 77.569C100.324 78.2815 80.253 85.277 75.75 86.761C73.825 87.3955 68.65 89.178 64.25 90.722C59.85 92.266 53.55 94.442 50.25 95.5575C46.95 96.673 43.125 98.0045 41.75 98.516C33.906 101.434 27.43 103.515 27.0065 103.254C26.5705 102.984 28.6565 99.3235 32.8495 93C33.6695 91.7625 35.1645 89.456 36.1705 87.875C40.622 80.88 41.534 79.458 44.7515 74.5C46.625 71.6125 48.879 68.125 49.76 66.75C50.641 65.375 52.518 62.4625 53.931 60.278C55.344 58.0935 56.5 56.1245 56.5 55.903C56.5 55.159 57.389 55.491 57.765 56.375ZM55.277 59.8935C52.9695 63.5845 43.885 77.6855 35.3975 90.75C33.075 94.325 30.527 98.3605 29.7355 99.7175C28.475 101.878 28.418 102.137 29.2735 101.798C29.8105 101.585 39.3625 98.2595 50.5 94.4095C80.9385 83.887 94.9755 79.0095 97.75 77.991L100.25 77.073L80.6345 77.0365L61.019 77L60.7565 75.875C60.053 72.863 57.5 59.1425 57.5 58.375C57.5 56.9435 56.838 57.3955 55.277 59.8935Z" fill="#5542FF"/>
<path fill-rule="evenodd" clip-rule="evenodd" d="M74.5 30.531C62.8125 34.6065 48.525 39.568 42.75 41.557C36.975 43.5465 30.5625 45.799 28.5 46.5625L24.75 47.9515L44.3655 47.9755L63.981 48L64.2435 49.125C64.947 52.137 67.5 65.8575 67.5 66.625C67.5 68.0565 68.162 67.6045 69.723 65.1065C72.0305 61.4155 81.115 47.3145 89.6025 34.25C94.8245 26.2125 96.721 22.982 96.1725 23.0605C95.94 23.094 86.1875 26.4555 74.5 30.531ZM55.277 59.8935C52.9695 63.5845 43.885 77.6855 35.3975 90.75C33.075 94.325 30.527 98.3605 29.7355 99.7175C28.475 101.879 28.418 102.137 29.2735 101.798C29.8105 101.585 39.3625 98.2595 50.5 94.4095C80.9385 83.887 94.9755 79.0095 97.75 77.991L100.25 77.073L80.6345 77.0365L61.019 77L60.7565 75.875C60.053 72.863 57.5 59.1425 57.5 58.375C57.5 56.9435 56.838 57.3955 55.277 59.8935Z" fill="white"/>
</g>
<defs>
<clipPath id="clip0_1_316">
<rect width="125" height="125" rx="62.5" fill="white"/>
</clipPath>
</defs>
</svg>
