<svg width="64" height="64" viewBox="0 0 64 64" fill="none" xmlns="http://www.w3.org/2000/svg">
<g clip-path="url(#clip0_1_2)">
<path fill-rule="evenodd" clip-rule="evenodd" d="M0 32V64H32H64V32V0H32H0V32Z" fill="#FC8EE5"/>
<path fill-rule="evenodd" clip-rule="evenodd" d="M0 32V64H32H64V32V0H32H0V32ZM35.982 29.928L39.464 30L35.982 32.339C28.51 37.359 26.604 38.456 27.29 37.343C27.778 36.551 27.322 36.365 25.843 36.751C23.964 37.243 23.768 37.004 24.328 34.908C24.683 33.584 24.979 31.825 24.986 31C24.995 29.904 26.008 29.548 28.749 29.678C30.812 29.775 34.067 29.888 35.982 29.928Z" fill="#C67F97"/>
<path fill-rule="evenodd" clip-rule="evenodd" d="M0 32V64H32H64V32V0H32H0V32ZM36 29.959L39.5 30.009L35 33.027C32.525 34.687 30.607 36.468 30.738 36.986C30.869 37.504 30.233 37.643 29.324 37.294C28.127 36.835 27.897 37.025 28.49 37.985C29.05 38.89 28.924 39.071 28.091 38.557C27.407 38.133 26.024 38.574 24.931 39.563C22.529 41.736 21.661 41.046 22.826 37.889C23.31 36.575 24 34.29 24.357 32.811C24.951 30.357 24.722 30.086 21.754 29.725C19.964 29.507 21.65 29.459 25.5 29.619C29.35 29.779 34.075 29.932 36 29.959Z" fill="#48484A"/>
<path fill-rule="evenodd" clip-rule="evenodd" d="M0 32V64H32H64V32V0H32H0V32ZM19.279 24.04C18.986 25.161 18.523 25.856 18.249 25.583C17.708 25.042 18.664 22 19.375 22C19.616 22 19.573 22.918 19.279 24.04ZM27.276 29.487C32.074 29.815 36 29.727 35.999 29.291C35.999 28.856 38.249 28.656 40.999 28.847C43.75 29.037 46 29.522 46 29.923C46 30.325 44.648 30.455 42.995 30.213C40.701 29.876 38.395 30.792 33.245 34.086C29.535 36.459 25.695 39.211 24.711 40.2C21.727 43.202 21.021 42.245 22.537 37.25C24.6 30.451 24.474 30 20.5 30C17.827 30 17.004 29.586 17.015 28.25C17.026 27.067 17.277 26.887 17.791 27.696C18.232 28.39 22.213 29.142 27.276 29.487ZM33 37C29.975 38.598 27.05 39.906 26.5 39.906C25.95 39.906 27.975 38.598 31 37C34.025 35.402 36.95 34.094 37.5 34.094C38.05 34.094 36.025 35.402 33 37Z" fill="#0F0F12"/>
<path fill-rule="evenodd" clip-rule="evenodd" d="M18.975 24.565C17.486 28.483 17.739 28.991 21.25 29.117C23.038 29.182 27.058 29.403 30.185 29.609C36.299 30.011 35.789 30.412 37.647 23.75C38.086 22.176 37.221 22 29.043 22C20.203 22 19.923 22.071 18.975 24.565ZM32.578 34.527C28.771 36.993 25.425 39.241 25.143 39.523C24.567 40.1 44.266 31.002 44.917 30.391C45.146 30.176 44.021 30.01 42.417 30.021C40.685 30.034 36.688 31.864 32.578 34.527Z" fill="#FFDD84"/>
<path fill-rule="evenodd" clip-rule="evenodd" d="M26.75 22.743C33.484 23.063 33.994 23.245 33.921 25.294C33.878 26.507 33.615 26.938 33.338 26.25C32.81 24.942 22.564 24.463 19.582 25.607C16.714 26.707 17.8 28.993 21.25 29.117C23.038 29.182 27.058 29.403 30.185 29.609C36.299 30.011 35.789 30.412 37.647 23.75C38.089 22.164 37.262 22.019 28.817 22.199C19.878 22.389 19.794 22.411 26.75 22.743ZM32.578 34.527C28.771 36.993 25.425 39.241 25.143 39.523C24.567 40.1 44.266 31.002 44.917 30.391C45.146 30.176 44.021 30.01 42.417 30.021C40.685 30.034 36.688 31.864 32.578 34.527Z" fill="#FEB19D"/>
<path fill-rule="evenodd" clip-rule="evenodd" d="M33.986 23.75C33.979 24.712 33.701 26.512 33.37 27.75C32.941 29.351 33.199 30 34.267 30C35.741 30 36.959 27.199 36.986 23.75C36.994 22.788 36.325 22 35.5 22C34.675 22 33.994 22.788 33.986 23.75ZM33.795 33.867C25.387 39.334 25.663 39.494 35.558 34.891C46.168 29.956 46.136 29.978 42.417 30.079C40.813 30.122 36.933 31.827 33.795 33.867Z" fill="white"/>
<path fill-rule="evenodd" clip-rule="evenodd" d="M34.813 22.683C35.534 22.972 36.397 22.936 36.729 22.604C37.061 22.272 36.471 22.036 35.417 22.079C34.252 22.127 34.015 22.364 34.813 22.683ZM29 37.05L26.5 39.055L29.25 37.867C30.762 37.214 32 36.301 32 35.839C32 34.699 31.861 34.755 29 37.05Z" fill="#D9D9D9"/>
</g>
<defs>
<clipPath id="clip0_1_2">
<rect width="64" height="64" rx="32" fill="white"/>
</clipPath>
</defs>
</svg>
