<svg width="64" height="64" viewBox="0 0 64 64" fill="none" xmlns="http://www.w3.org/2000/svg">
<g clip-path="url(#clip0_1_336)">
<path fill-rule="evenodd" clip-rule="evenodd" d="M0 32V64H32H64V32V0H32H0V32Z" fill="#100A0E"/>
<path fill-rule="evenodd" clip-rule="evenodd" d="M0.0449988 32L0.0159988 64H32.008H64V32V0H32.036H0.0729988L0.0449988 32ZM10.5 18C10.16 18.55 9.346 18.993 8.691 18.985C7.975 18.975 8.099 18.582 9 18C10.921 16.758 11.267 16.758 10.5 18ZM17.457 49.931C17.774 50.443 17.65 51.098 17.183 51.387C16.716 51.676 16.333 51.257 16.333 50.456C16.333 48.77 16.649 48.623 17.457 49.931ZM47.667 50.456C47.667 51.257 47.284 51.676 46.817 51.387C46.35 51.098 46.226 50.443 46.543 49.931C47.351 48.623 47.667 48.77 47.667 50.456ZM24.729 54.604C24.397 54.936 23.534 54.972 22.813 54.683C22.015 54.364 22.252 54.127 23.417 54.079C24.471 54.036 25.061 54.272 24.729 54.604Z" fill="#6AE1C5"/>
<path fill-rule="evenodd" clip-rule="evenodd" d="M0.0449988 32L0.0159988 64H32.008H64V32V0H32.036H0.0729988L0.0449988 32ZM33.493 9.989C33.843 10.555 33.442 10.723 32.552 10.382C30.82 9.717 30.503 9 31.941 9C32.459 9 33.157 9.445 33.493 9.989ZM29 11.474C29 11.735 27.65 12.647 26 13.5C22.239 15.445 22.012 14.6 25.75 12.572C28.893 10.867 29 10.831 29 11.474ZM41 14.551C41 14.826 39.65 14.353 38 13.5C36.35 12.647 35 11.724 35 11.449C35 11.174 36.35 11.647 38 12.5C39.65 13.353 41 14.276 41 14.551ZM29.5 15C28.647 16.65 27.724 18 27.449 18C27.174 18 27.647 16.65 28.5 15C29.353 13.35 30.276 12 30.551 12C30.826 12 30.353 13.35 29.5 15ZM22 15.474C22 15.735 20.65 16.647 19 17.5C15.239 19.445 15.012 18.6 18.75 16.572C21.893 14.867 22 14.831 22 15.474ZM46 17.57C46 17.845 45.1 17.589 44 17C42.9 16.411 42 15.705 42 15.43C42 15.155 42.9 15.411 44 16C45.1 16.589 46 17.295 46 17.57ZM10.5 18C10.16 18.55 9.346 18.993 8.691 18.985C7.975 18.975 8.099 18.582 9 18C10.921 16.758 11.267 16.758 10.5 18ZM14.2 20.2C13.414 20.986 13 25.144 13 32.247V43.093L16.075 44.797C21.654 47.887 22.607 49.197 17.25 46.412L12 43.682V32.541C12 22.391 12.726 19 14.9 19C15.175 19 14.86 19.54 14.2 20.2ZM26.008 31.248L25.517 41.5L25.217 32.579C24.954 24.746 25.277 21.005 26.219 20.998C26.373 20.997 26.279 25.609 26.008 31.248ZM51.732 36.25C51.522 38.587 51.349 36.675 51.349 32C51.349 27.325 51.522 25.412 51.732 27.75C51.943 30.087 51.943 33.912 51.732 36.25ZM37 27.57C37 27.845 36.1 27.589 35 27C33.9 26.411 33 25.705 33 25.43C33 25.155 33.9 25.411 35 26C36.1 26.589 37 27.295 37 27.57ZM48.978 25.75C48.966 26.163 48.038 27.625 46.918 29L44.88 31.5L46.465 28.25C47.972 25.162 49.026 24.113 48.978 25.75ZM42 30.57C42 30.845 41.1 30.589 40 30C38.9 29.411 38 28.705 38 28.43C38 28.155 38.9 28.411 40 29C41.1 29.589 42 30.295 42 30.57ZM42.917 33.365C42.688 33.565 41.375 34.265 40 34.92C37.643 36.042 37.611 36.022 39.441 34.555C41.034 33.279 44.289 32.164 42.917 33.365ZM48.978 38.25C49.026 39.887 47.972 38.838 46.465 35.75L44.88 32.5L46.918 35C48.038 36.375 48.966 37.837 48.978 38.25ZM37 36.465C37 36.72 35.987 37.42 34.75 38.02C32.589 39.067 32.577 39.049 34.441 37.555C36.481 35.921 37 35.7 37 36.465ZM32 39.465C32 39.72 30.988 40.42 29.75 41.02C27.589 42.067 27.577 42.049 29.441 40.555C31.481 38.921 32 38.7 32 39.465ZM48 45.474C48 45.735 46.65 46.647 45 47.5C41.239 49.445 41.012 48.6 44.75 46.572C47.893 44.867 48 44.831 48 45.474ZM29.5 49C30.353 50.65 30.826 52 30.551 52C30.276 52 29.353 50.65 28.5 49C27.647 47.35 27.174 46 27.449 46C27.724 46 28.647 47.35 29.5 49ZM17.457 49.931C17.774 50.443 17.65 51.098 17.183 51.387C16.716 51.676 16.333 51.257 16.333 50.456C16.333 48.77 16.649 48.623 17.457 49.931ZM29 52.551C29 52.826 27.65 52.353 26 51.5C24.35 50.647 23 49.724 23 49.449C23 49.174 24.35 49.647 26 50.5C27.65 51.353 29 52.276 29 52.551ZM41 49.405C41 49.989 32.3 55.003 31.322 54.983C30.87 54.974 32.75 53.631 35.5 52C40.779 48.869 41 48.764 41 49.405ZM47.667 50.456C47.667 51.257 47.284 51.676 46.817 51.387C46.35 51.098 46.226 50.443 46.543 49.931C47.351 48.623 47.667 48.77 47.667 50.456ZM24.729 54.604C24.397 54.936 23.534 54.972 22.813 54.683C22.015 54.364 22.252 54.127 23.417 54.079C24.471 54.036 25.061 54.272 24.729 54.604Z" fill="#00563F"/>
<path fill-rule="evenodd" clip-rule="evenodd" d="M0.0449988 32L0.0159988 64H32.008H64V32V0H32.036H0.0729988L0.0449988 32ZM33.985 10.75C33.975 11.829 33.688 12.078 33.235 11.4C32.831 10.795 31.825 10.043 31 9.729C29.998 9.347 30.247 9.132 31.75 9.079C33.262 9.026 33.995 9.574 33.985 10.75ZM30.655 12C31.937 12 31.925 12.218 30.571 13.571C29.707 14.436 29 15.786 29 16.571C29 17.357 28.212 17.993 27.25 17.985C26.195 17.975 25.926 17.677 26.573 17.235C27.926 16.308 29.19 13 28.191 13C27.781 13 26.445 13.701 25.223 14.557C23.231 15.952 23 15.954 23 14.576C23 13.73 24.125 12.756 25.5 12.411C26.875 12.066 28.036 11.269 28.079 10.642C28.13 9.9 28.335 9.938 28.662 10.75C28.94 11.438 29.836 12 30.655 12ZM38.75 12.433C39.987 12.819 40.993 13.892 40.985 14.817C40.975 15.882 40.699 16.09 40.235 15.385C39.831 14.771 38.487 13.954 37.25 13.567C36.013 13.181 35.007 12.108 35.015 11.183C35.025 10.118 35.301 9.91 35.765 10.615C36.169 11.229 37.513 12.046 38.75 12.433ZM22 15.433C22 16.221 20.988 17.181 19.75 17.567C18.512 17.954 17.169 18.771 16.765 19.385C16.305 20.084 16.025 19.854 16.015 18.769C16.006 17.75 17.028 16.78 18.5 16.411C19.875 16.066 21 15.382 21 14.892C21 14.401 21.225 14 21.5 14C21.775 14 22 14.645 22 15.433ZM44.583 16C45.362 16 46 16.498 46 17.107C46 17.716 45.288 17.941 44.418 17.607C43.548 17.273 42.648 17 42.418 17C42.188 17 42.036 16.212 42.079 15.25C42.126 14.205 42.361 14.003 42.662 14.75C42.94 15.438 43.804 16 44.583 16ZM10.5 18C10.16 18.55 9.346 18.993 8.691 18.985C7.975 18.975 8.099 18.582 9 18C10.921 16.758 11.267 16.758 10.5 18ZM47.683 19.188C47.364 19.985 47.127 19.748 47.079 18.583C47.036 17.529 47.272 16.939 47.604 17.271C47.936 17.603 47.972 18.466 47.683 19.188ZM14.526 19.958C13.666 21.35 13.638 42.606 14.495 43.992C14.849 44.564 15.557 44.774 16.069 44.457C16.581 44.141 17 44.31 17 44.833C17 45.355 18.125 46.066 19.5 46.411C20.972 46.78 21.994 47.75 21.985 48.769C21.975 49.854 21.695 50.084 21.235 49.385C20.831 48.771 19.541 47.971 18.369 47.605C17.197 47.24 15.284 46.114 14.119 45.103C12.208 43.446 12 42.219 12 32.619C12 26.014 12.46 21.236 13.212 20.032C13.879 18.964 14.599 18.266 14.812 18.479C15.026 18.692 14.897 19.358 14.526 19.958ZM50.457 18.931C50.774 19.443 50.575 20.144 50.016 20.49C49.457 20.835 49 20.416 49 19.559C49 17.802 49.6 17.544 50.457 18.931ZM27.729 19.604C27.397 19.936 26.534 19.972 25.813 19.683C25.015 19.364 25.252 19.127 26.417 19.079C27.471 19.036 28.061 19.272 27.729 19.604ZM26.926 31C27.036 37.421 26.723 41 26.049 41C25.392 41 25 37.513 25 31.667C25 23.748 25.398 21 26.543 21C26.659 21 26.831 25.5 26.926 31ZM30 23.5C30 24.325 29.823 25 29.607 25C29.391 25 28.955 24.325 28.638 23.5C28.322 22.675 28.499 22 29.031 22C29.564 22 30 22.675 30 23.5ZM52.176 32C52.176 37.355 51.764 39.375 50.394 40.733C48.711 42.402 48.649 42.403 49.275 40.75C49.716 39.583 49.454 39 48.488 39C47.69 39 46.745 37.831 46.386 36.402C45.813 34.118 45.363 33.877 42.667 34.417C40.98 34.754 39.246 35.586 38.815 36.265C38.252 37.151 38.026 37.036 38.015 35.857C37.997 33.94 39.993 33 44.082 33C45.894 33 47 33.522 47 34.378C47 35.135 47.622 36.272 48.383 36.903C50.263 38.463 50.758 36.792 50.218 30.714C49.866 26.754 49.551 26.127 48.396 27.086C47.628 27.723 47 28.865 47 29.622C47 30.38 46.55 31 46 31C44.303 31 44.89 29.02 47.301 26.608C48.567 25.342 49.394 23.683 49.14 22.921C48.839 22.018 49.287 22.144 50.428 23.285C51.758 24.615 52.176 26.7 52.176 32ZM31.683 25.188C31.364 25.985 31.127 25.748 31.079 24.583C31.036 23.529 31.272 22.939 31.604 23.271C31.936 23.603 31.972 24.466 31.683 25.188ZM36.921 27.991C36.867 29.017 36.681 29.1 36.338 28.25C36.06 27.563 35.196 27 34.417 27C33.638 27 33 26.321 33 25.492C33 24.233 33.332 24.19 35 25.232C36.1 25.919 36.964 27.16 36.921 27.991ZM40.583 29C41.362 29 42 29.498 42 30.107C42 30.716 41.288 30.941 40.418 30.607C39.548 30.273 38.648 30 38.418 30C38.188 30 38.036 29.212 38.079 28.25C38.126 27.205 38.361 27.003 38.662 27.75C38.94 28.438 39.804 29 40.583 29ZM37 37C37 37.55 36.362 38 35.583 38C34.804 38 33.94 38.563 33.662 39.25C33.349 40.025 33.128 39.863 33.079 38.823C33.036 37.901 33.788 36.941 34.75 36.689C35.712 36.438 36.612 36.18 36.75 36.116C36.888 36.052 37 36.45 37 37ZM30.872 41.1C28.421 42.653 27.6 42.048 29.575 40.145C30.634 39.125 31.667 38.727 31.872 39.261C32.076 39.794 31.626 40.622 30.872 41.1ZM49.683 45.188C49.364 45.985 49.127 45.748 49.079 44.583C49.036 43.529 49.272 42.939 49.604 43.271C49.936 43.603 49.972 44.466 49.683 45.188ZM27.729 44.604C27.397 44.936 26.534 44.972 25.813 44.683C25.015 44.364 25.252 44.127 26.417 44.079C27.471 44.036 28.061 44.272 27.729 44.604ZM48 45.433C48 46.221 46.987 47.181 45.75 47.567C44.513 47.954 43.169 48.771 42.765 49.385C42.282 50.118 42.026 49.986 42.017 49C42.007 47.853 45.394 44.953 47.75 44.091C47.888 44.041 48 44.645 48 45.433ZM29.567 48.25C29.954 49.487 30.771 50.831 31.385 51.235C32.081 51.694 31.843 51.975 30.75 51.985C29.788 51.993 29 52.482 29 53.071C29 53.661 28.293 53.436 27.429 52.571C26.564 51.707 25.214 51 24.429 51C23.643 51 23.007 50.212 23.015 49.25C23.025 48.157 23.306 47.919 23.765 48.615C24.169 49.229 25.51 50.046 26.744 50.431C28.619 51.016 28.877 50.833 28.317 49.315C27.948 48.317 27.163 47.169 26.573 46.765C25.919 46.317 26.157 46.025 27.183 46.015C28.108 46.007 29.181 47.013 29.567 48.25ZM17.457 49.931C17.774 50.443 17.65 51.098 17.183 51.387C16.716 51.676 16.333 51.257 16.333 50.456C16.333 48.77 16.649 48.623 17.457 49.931ZM41 50C41 50.55 40.325 51 39.5 51C38.675 51 38 51.525 38 52.167C38 52.808 37.721 53.055 37.381 52.714C37.04 52.374 36.108 52.749 35.31 53.548C34.511 54.346 32.877 54.971 31.679 54.937C29.62 54.877 29.636 54.819 31.972 53.887C33.331 53.344 34.694 52.495 35 52C35.43 51.304 38.897 49.533 40.75 49.063C40.888 49.029 41 49.45 41 50ZM47.667 50.456C47.667 51.257 47.284 51.676 46.817 51.387C46.35 51.098 46.226 50.443 46.543 49.931C47.351 48.623 47.667 48.77 47.667 50.456ZM24.729 54.604C24.397 54.936 23.534 54.972 22.813 54.683C22.015 54.364 22.252 54.127 23.417 54.079C24.471 54.036 25.061 54.272 24.729 54.604Z" fill="#084438"/>
<path fill-rule="evenodd" clip-rule="evenodd" d="M0.0449988 32L0.0159988 64H32.008H64V32V0H32.036H0.0729988L0.0449988 32ZM33.985 10.75C33.975 11.829 33.688 12.078 33.235 11.4C32.831 10.795 31.825 10.043 31 9.729C29.998 9.347 30.247 9.132 31.75 9.079C33.262 9.026 33.995 9.574 33.985 10.75ZM30.833 12.079C31.883 12.129 32.035 12.346 31.244 12.664C30.553 12.943 30.242 13.582 30.553 14.085C30.864 14.588 30.641 15 30.059 15C29.477 15 29.113 15.536 29.25 16.191C29.387 16.845 28.6 17.545 27.5 17.744C25.856 18.043 25.767 17.923 27 17.069C27.825 16.498 28.107 16.024 27.628 16.015C27.148 16.007 27.315 15.325 28 14.5C29.623 12.545 28.049 12.577 25.223 14.557C23.33 15.882 23 15.898 23 14.664C23 13.279 25.669 11.507 27.25 11.841C27.663 11.929 28.036 11.438 28.079 10.75C28.142 9.75 28.259 9.75 28.662 10.75C28.94 11.438 29.917 12.036 30.833 12.079ZM36.985 11.715C36.993 11.283 37.9 11.411 39 12C40.1 12.589 40.993 13.842 40.985 14.785C40.975 15.863 40.697 16.086 40.235 15.385C39.831 14.771 38.487 13.954 37.25 13.567C36.013 13.181 35.007 12.108 35.015 11.183C35.029 9.731 35.164 9.706 36 11C36.533 11.825 36.976 12.147 36.985 11.715ZM20.65 17.176C19.766 17.671 18.746 18.02 18.383 17.952C18.02 17.885 17.343 18.43 16.877 19.165C16.226 20.192 16.027 20.1 16.015 18.769C16.006 17.75 17.028 16.78 18.5 16.411C19.875 16.066 21.036 15.269 21.079 14.642C21.122 14.014 21.406 14.125 21.708 14.888C22.011 15.651 21.535 16.681 20.65 17.176ZM44.612 16.033C45.1 15.957 45.651 16.621 45.835 17.509C46.125 18.904 45.887 18.946 44.085 17.821C42.938 17.105 42.007 15.84 42.015 15.009C42.028 13.8 42.199 13.765 42.877 14.835C43.343 15.57 44.123 16.109 44.612 16.033ZM10.5 18C10.16 18.55 9.346 18.993 8.691 18.985C7.975 18.975 8.099 18.582 9 18C10.921 16.758 11.267 16.758 10.5 18ZM47.683 19.188C47.364 19.985 47.127 19.748 47.079 18.583C47.036 17.529 47.272 16.939 47.604 17.271C47.936 17.603 47.972 18.466 47.683 19.188ZM14.531 19.95C14.163 20.545 13.33 20.714 12.681 20.324C11.937 19.878 11.984 20.214 12.809 21.231C13.722 22.359 14.061 25.852 13.932 32.814C13.748 42.697 14.275 45.566 16.069 44.457C16.581 44.141 17 44.359 17 44.941C17 45.523 17.337 45.929 17.75 45.841C19.426 45.486 21.999 47.319 21.985 48.857C21.973 50.14 21.784 50.207 21.123 49.165C20.657 48.43 20.102 47.909 19.888 48.007C19.115 48.361 14 45.659 14 44.897C14 44.467 13.213 44.268 12.25 44.454C10.637 44.767 10.539 43.804 11 32.147C11.371 22.77 11.823 19.565 12.75 19.75C13.438 19.887 14 19.475 14 18.833C14 18.192 14.27 17.937 14.6 18.267C14.93 18.597 14.899 19.354 14.531 19.95ZM52.864 32.285C52.789 39.003 52.533 43.488 52.294 42.252C52.034 40.9 50.888 39.759 49.422 39.391C47.968 39.026 46.74 37.813 46.383 36.389C45.738 33.821 43.168 33.232 41.2 35.2C40.54 35.86 39.993 35.972 39.985 35.45C39.976 34.927 39.533 35.175 39 36C38.224 37.201 38.028 37.223 38.015 36.11C38.007 35.346 38.788 34.108 39.75 33.36C41.417 32.065 41.417 31.935 39.75 30.64C38.788 29.892 38.007 28.654 38.015 27.89C38.028 26.746 38.18 26.736 38.877 27.835C39.343 28.57 40.123 29.02 40.612 28.835C41.1 28.651 41.64 29.485 41.812 30.69C42.03 32.222 42.93 32.972 44.812 33.19C46.29 33.36 47.431 33.95 47.346 34.5C47.261 35.05 47.823 36.08 48.596 36.789C49.789 37.885 50 37.165 50 32C50 26.835 49.789 26.115 48.596 27.211C47.823 27.92 47.261 28.939 47.346 29.476C47.431 30.013 46.451 30.612 45.17 30.806L42.84 31.16L44.92 29.08C46.064 27.936 47 26.599 47 26.108C47 25.618 48.125 24.934 49.5 24.589C51.168 24.171 52 23.267 52 21.874C52 20.429 51.538 19.963 50.5 20.362C49.576 20.716 49 20.359 49 19.433C49 18.24 49.412 18.15 51 19C52.845 19.987 52.989 21.018 52.864 32.285ZM27.729 19.604C27.397 19.936 26.534 19.972 25.813 19.683C25.015 19.364 25.252 19.127 26.417 19.079C27.471 19.036 28.061 19.272 27.729 19.604ZM26.434 22.107C25.973 22.852 26.445 22.994 27.875 22.54C29.522 22.017 29.982 22.274 29.921 23.683C29.875 24.743 29.631 24.977 29.336 24.244C28.061 21.081 27 24.856 27 32.559C27 37.52 26.588 41 26 41C24.888 41 24.573 22.76 25.667 21.667C26.716 20.617 27.187 20.888 26.434 22.107ZM50 23C50 23.55 49.523 24 48.941 24C48.359 24 48.16 23.55 48.5 23C48.84 22.45 49.316 22 49.559 22C49.802 22 50 22.45 50 23ZM31.683 25.188C31.364 25.985 31.127 25.748 31.079 24.583C31.036 23.529 31.272 22.939 31.604 23.271C31.936 23.603 31.972 24.466 31.683 25.188ZM36.985 27.991C36.972 29.2 36.801 29.235 36.123 28.165C35.657 27.43 34.877 26.891 34.388 26.967C33.9 27.043 33.349 26.379 33.165 25.491C32.875 24.096 33.113 24.054 34.915 25.179C36.062 25.895 36.993 27.16 36.985 27.991ZM37 36.5C37 37.325 36.362 38 35.583 38C34.804 38 33.94 38.563 33.662 39.25C33.361 39.997 33.126 39.795 33.079 38.75C33.036 37.788 33.675 37 34.5 37C35.325 37 36 36.55 36 36C36 35.45 36.225 35 36.5 35C36.775 35 37 35.675 37 36.5ZM30.872 41.1C28.821 42.4 27.994 42.18 28.636 40.506C28.952 39.684 29.612 39.26 30.105 39.565C30.597 39.869 31.036 39.529 31.079 38.809C31.141 37.787 31.277 37.799 31.701 38.866C31.999 39.617 31.626 40.622 30.872 41.1ZM50 41C50 41.55 49.802 42 49.559 42C49.316 42 48.84 41.55 48.5 41C48.16 40.45 48.359 40 48.941 40C49.523 40 50 40.45 50 41ZM49.683 45.188C49.364 45.985 49.127 45.748 49.079 44.583C49.036 43.529 49.272 42.939 49.604 43.271C49.936 43.603 49.972 44.466 49.683 45.188ZM27.729 44.604C27.397 44.936 26.534 44.972 25.813 44.683C25.015 44.364 25.252 44.127 26.417 44.079C27.471 44.036 28.061 44.272 27.729 44.604ZM47.999 45.715C48 47.029 44.01 49.583 43.985 48.285C43.976 47.853 43.533 48.175 43 49C42.159 50.302 42.029 50.283 42.015 48.857C42.007 47.953 42.775 46.917 43.722 46.553C45.119 46.017 45.185 45.732 44.069 45.042C43.121 44.456 43.517 44.24 45.346 44.346C46.805 44.431 47.999 45.047 47.999 45.715ZM29.366 47.51C29.684 48.341 29.919 49.303 29.887 49.649C29.855 49.994 30.43 50.657 31.165 51.123C32.188 51.772 32.092 51.973 30.75 51.985C29.788 51.993 28.964 52.563 28.921 53.25C28.858 54.243 28.738 54.242 28.336 53.244C28.057 52.553 27.418 52.242 26.915 52.553C26.412 52.864 26 52.641 26 52.059C26 51.477 25.325 51 24.5 51C23.675 51 23.007 50.212 23.015 49.25C23.025 48.195 23.323 47.926 23.765 48.573C24.798 50.081 28 51.137 28 49.969C28 49.436 27.438 48.964 26.75 48.921C25.862 48.865 25.895 48.685 26.863 48.3C28.014 47.842 28.014 47.623 26.863 46.894C25.777 46.206 25.834 46.028 27.143 46.015C28.047 46.007 29.047 46.68 29.366 47.51ZM40.631 50.52C40.292 51.404 39.561 51.847 39.007 51.504C38.453 51.162 38 51.434 38 52.108C38 52.782 37.727 53.06 37.394 52.727C37.06 52.393 35.85 52.993 34.705 54.06C32.364 56.241 31.4 56.456 30.5 55C30.16 54.45 30.584 54 31.441 54C32.298 54 33 53.523 33 52.941C33 52.359 33.45 52.16 34 52.5C34.55 52.84 35 52.65 35 52.078C35 51.506 36.125 50.756 37.5 50.411C38.875 50.066 40 49.307 40 48.725C40 48.143 40.281 47.947 40.624 48.29C40.966 48.633 40.97 49.637 40.631 50.52ZM17.457 49.931C17.774 50.443 17.65 51.098 17.183 51.387C16.716 51.676 16.333 51.257 16.333 50.456C16.333 48.77 16.649 48.623 17.457 49.931ZM47.667 50.456C47.667 51.257 47.284 51.676 46.817 51.387C46.35 51.098 46.226 50.443 46.543 49.931C47.351 48.623 47.667 48.77 47.667 50.456ZM24.729 54.604C24.397 54.936 23.534 54.972 22.813 54.683C22.015 54.364 22.252 54.127 23.417 54.079C24.471 54.036 25.061 54.272 24.729 54.604Z" fill="#31DDA5"/>
<path fill-rule="evenodd" clip-rule="evenodd" d="M0.0449988 32L0.0159988 64H32.008H64V32V0H32.036H0.0729988L0.0449988 32ZM43.185 14.606L53 20.212V31.865C53 45.162 54.511 42.875 40.286 51.111L32.072 55.867L21.874 49.975C16.265 46.734 11.411 44.247 11.088 44.449C10.764 44.65 10.725 39.24 11 32.425L11.5 20.035L21 14.554C26.225 11.538 31.146 9.055 31.935 9.036C32.725 9.016 37.787 11.523 43.185 14.606ZM29.785 16.012L27.091 20.838L35.176 25.419C39.623 27.939 43.614 30 44.045 30C44.476 30 45.947 27.999 47.314 25.554L49.799 21.108L43.149 17.191C31.721 10.46 32.831 10.557 29.785 16.012ZM22 16.5L16.5 19.955L20.651 19.977C24.346 19.998 25.03 19.615 26.867 16.5C28.003 14.575 28.61 13.01 28.216 13.023C27.822 13.035 25.025 14.6 22 16.5ZM10.5 18C10.16 18.55 9.346 18.993 8.691 18.985C7.975 18.975 8.099 18.582 9 18C10.921 16.758 11.267 16.758 10.5 18ZM14 32V42H19.5H25V32V22H19.5H14V32ZM27 32.449V40.899L34 36.863C37.85 34.643 41 32.455 41 32C41 31.228 28.881 24 27.588 24C27.264 24 27 27.802 27 32.449ZM47.781 29.033C46.137 31.922 46.148 32.195 48.027 35.277L49.993 38.5L49.996 32.25C49.998 28.813 49.888 26.003 49.75 26.006C49.612 26.01 48.726 27.372 47.781 29.033ZM35.246 38.431C31.257 40.765 27.794 42.872 27.552 43.115C27.31 43.357 28.339 45.656 29.838 48.223L32.565 52.892L38.895 49.325C43.694 46.62 44.896 45.522 43.863 44.784C42.836 44.051 42.949 43.957 44.322 44.402C45.325 44.727 46.981 44.545 48.003 43.998C49.779 43.048 49.75 42.805 47.345 38.502C45.961 36.026 44.305 34.042 43.665 34.094C43.024 34.146 39.236 36.098 35.246 38.431ZM21.982 47.458C24.997 49.334 27.684 50.65 27.953 50.381C28.222 50.111 27.78 49.473 26.971 48.961C26.162 48.449 25.853 48.024 26.285 48.015C26.717 48.007 26.589 47.1 26 46C25.186 44.479 23.921 44.005 20.715 44.023L16.5 44.045L21.982 47.458ZM17.457 49.931C17.774 50.443 17.65 51.098 17.183 51.387C16.716 51.676 16.333 51.257 16.333 50.456C16.333 48.77 16.649 48.623 17.457 49.931ZM47.667 50.456C47.667 51.257 47.284 51.676 46.817 51.387C46.35 51.098 46.226 50.443 46.543 49.931C47.351 48.623 47.667 48.77 47.667 50.456ZM24.729 54.604C24.397 54.936 23.534 54.972 22.813 54.683C22.015 54.364 22.252 54.127 23.417 54.079C24.471 54.036 25.061 54.272 24.729 54.604Z" fill="#002D13"/>
<path fill-rule="evenodd" clip-rule="evenodd" d="M0.0449988 32L0.0159988 64H32.008H64V32V0H32.036H0.0729988L0.0449988 32ZM42.5 13.938L52.5 19.784V32.142C52.5 39.151 52.933 44.865 53.5 45.344C54.085 45.838 53.791 45.962 52.793 45.642C51.791 45.321 47.253 47.261 41.793 50.345C33.719 54.905 27.184 57.13 28.601 54.836C29.282 53.734 25.133 51.8 23.825 52.608C23.201 52.994 22.957 52.878 23.283 52.351C23.872 51.398 13.6 44.665 11.565 44.669C10.842 44.67 10.661 40.696 11 32.292L11.5 19.913L21.5 13.995C27 10.739 31.725 8.08 32 8.084C32.275 8.089 37 10.723 42.5 13.938ZM30.25 15.498C29.012 17.409 28 19.417 28 19.962C28 20.506 31.457 22.975 35.681 25.448C44.062 30.353 44.756 30.307 47.683 24.645C49.125 21.858 49.102 21.546 47.367 20.25C44.519 18.122 33.985 11.998 33.196 12.012C32.813 12.019 31.488 13.588 30.25 15.498ZM22.741 16.374C17.369 19.677 17.241 20 21.308 20C24.342 20 25.207 19.5 26.5 17C28.352 13.42 27.717 13.314 22.741 16.374ZM10.5 18C10.16 18.55 9.346 18.993 8.691 18.985C7.975 18.975 8.099 18.582 9 18C10.921 16.758 11.267 16.758 10.5 18ZM14 32V42H19H24V32V22H19H14V32ZM27 32C27 36.4 27.203 40 27.45 40C27.861 40 34.726 36.205 39.525 33.325C40.602 32.679 41.262 31.959 40.992 31.725C40.106 30.958 27.904 24 27.446 24C27.201 24 27 27.6 27 32ZM48.046 29.25C46.89 31.575 46.89 32.425 48.046 34.75L49.412 37.5L49.773 34.75C49.971 33.237 49.971 30.762 49.773 29.25L49.412 26.5L48.046 29.25ZM35.343 38.774L27.186 43.504L29.694 47.752C31.074 50.088 32.567 52 33.012 52C33.456 52 36.328 50.559 39.393 48.799C43.262 46.577 44.59 45.333 43.733 44.733C42.934 44.173 43.203 44.06 44.5 44.412C45.6 44.71 47.175 44.528 48 44.006C49.297 43.186 49.177 42.445 47.111 38.529C45.797 36.038 44.447 34.01 44.111 34.022C43.775 34.034 39.829 36.172 35.343 38.774ZM18 44.458C18 45.38 27.11 50.224 27.712 49.621C28.054 49.28 27.733 49 27 49C26.267 49 25.968 48.699 26.336 48.331C27.592 47.074 23.695 44 20.845 44C19.28 44 18 44.206 18 44.458ZM17.457 49.931C17.774 50.443 17.65 51.098 17.183 51.387C16.716 51.676 16.333 51.257 16.333 50.456C16.333 48.77 16.649 48.623 17.457 49.931ZM47.667 50.456C47.667 51.257 47.284 51.676 46.817 51.387C46.35 51.098 46.226 50.443 46.543 49.931C47.351 48.623 47.667 48.77 47.667 50.456ZM24.729 54.604C24.397 54.936 23.534 54.972 22.813 54.683C22.015 54.364 22.252 54.127 23.417 54.079C24.471 54.036 25.061 54.272 24.729 54.604Z" fill="#001009"/>
<path fill-rule="evenodd" clip-rule="evenodd" d="M0.0449988 32L0.0159988 64H32.008H64V32V0H32.036H0.0729988L0.0449988 32ZM37.559 9.468C38.626 10.276 40.314 10.951 41.309 10.968C42.331 10.986 42.831 11.464 42.459 12.067C42.094 12.657 42.405 12.995 43.155 12.822C43.901 12.651 45.634 13.542 47.006 14.802C48.377 16.062 50.213 17.747 51.084 18.546C51.955 19.346 53.144 20 53.727 20C54.309 20 55.054 20.698 55.382 21.552C55.709 22.406 55.579 22.858 55.093 22.558C53.7 21.696 53.026 24.626 54.32 25.92C55.204 26.804 55.204 27.256 54.318 27.803C52.934 28.659 53.069 35.192 54.492 36.208C55.125 36.661 55.034 37.366 54.242 38.158C53.559 38.841 52.986 40.322 52.968 41.45C52.93 43.896 51.147 46.381 48.798 47.262C47.731 47.662 47.245 48.676 47.496 49.977C47.72 51.14 47.472 51.791 46.931 51.458C46.401 51.13 46.226 50.443 46.543 49.931C46.859 49.419 46.641 49 46.059 49C45.477 49 45 49.661 45 50.469C45 51.428 44.423 51.716 43.336 51.299C42.217 50.869 41.909 51.043 42.395 51.83C42.862 52.586 42.351 53 40.952 53C39.355 53 38.951 53.431 39.416 54.641C39.927 55.974 39.776 56.059 38.612 55.093C37.549 54.211 36.996 54.197 36.476 55.04C35.363 56.84 27.179 55.616 25.5 53.397C24.71 52.354 24.049 51.893 24.032 52.372C24.014 52.852 23.426 52.768 22.724 52.186C22.022 51.603 20.297 51.253 18.891 51.408C17.363 51.575 16.333 51.186 16.333 50.44C16.333 49.753 17.046 49.41 17.917 49.677C18.787 49.944 17.453 48.975 14.95 47.524L10.4 44.884L10.611 37.946C10.726 34.13 10.421 30.76 9.931 30.457C9.441 30.155 9.59 29.028 10.261 27.954C11.224 26.412 11.218 25.579 10.232 24C9.518 22.856 9.406 22 9.972 22C10.517 22 11.234 20.914 11.568 19.587C11.932 18.134 13.15 16.928 14.628 16.557C15.977 16.219 16.838 15.547 16.54 15.064C16.241 14.581 16.905 14.424 18.013 14.714C19.569 15.121 19.887 14.868 19.404 13.609C18.95 12.428 19.201 12.14 20.311 12.566C22.155 13.274 26.279 11.261 25.516 10.026C24.202 7.899 34.834 7.407 37.559 9.468ZM32.347 14.197C29.378 18.822 29.176 19.849 30.924 21.431C31.877 22.294 33.136 23 33.722 23C34.307 23 35.043 23.67 35.357 24.489C35.803 25.651 36.497 25.761 38.521 24.992C40.241 24.338 40.907 24.342 40.498 25.003C39.41 26.763 41.029 28.221 42.612 26.907C43.792 25.928 43.929 26.052 43.389 27.609C43.028 28.649 43.913 27.956 45.357 26.068C47.866 22.788 47.905 22.552 46.241 20.71C44.862 19.185 38.89 15.569 33.842 13.203C33.48 13.033 32.807 13.481 32.347 14.197ZM55.457 18.069C55.141 18.581 54.346 18.964 53.691 18.921C52.839 18.865 52.857 18.698 53.756 18.336C54.447 18.057 54.715 17.348 54.352 16.76C53.958 16.123 54.164 15.983 54.862 16.415C55.506 16.813 55.774 17.557 55.457 18.069ZM10.5 18C10.16 18.55 9.346 18.993 8.691 18.985C7.975 18.975 8.099 18.582 9 18C10.921 16.758 11.267 16.758 10.5 18ZM22.5 18C22.16 18.55 22.61 19 23.5 19C24.39 19 24.84 18.55 24.5 18C24.16 17.45 23.71 17 23.5 17C23.29 17 22.84 17.45 22.5 18ZM14.914 24.25C14.832 25.449 14.867 38.701 14.957 40.25C14.981 40.663 16.913 41 19.25 41H23.5L23.36 34.75C23.074 21.944 23.466 23 19 23C16.512 23 14.968 23.473 14.914 24.25ZM28.698 26.697C28.431 27.139 28.253 30.087 28.302 33.25C28.389 38.856 29.2 40.528 30.362 37.5C30.678 36.675 31.653 36 32.528 36C33.402 36 33.843 35.555 33.507 35.011C33.157 34.445 33.558 34.277 34.448 34.618C35.304 34.947 36 34.691 36 34.048C36 33.407 36.45 33.16 37 33.5C38.923 34.689 37.98 31.718 35.847 29.867C33.446 27.785 32.882 27.575 33.25 28.9C33.388 29.395 33.055 29.841 32.511 29.891C31.966 29.942 31.516 29.238 31.511 28.328C31.499 26.543 29.494 25.381 28.698 26.697ZM41.244 35.733C40.553 35.974 40.219 36.546 40.502 37.004C40.786 37.462 39.664 38.135 38.009 38.498C36.354 38.862 35 39.565 35 40.06C35 40.556 33.908 41.236 32.572 41.571C31.237 41.906 29.886 42.856 29.569 43.681C28.98 45.216 32.683 51.353 33.853 50.782C42.204 46.702 43.887 45.626 43.329 44.723C42.933 44.083 43.263 43.887 44.158 44.23C44.991 44.55 46.136 44.012 46.765 43.004C47.661 41.57 47.5 40.857 45.967 39.47C44.911 38.515 44.259 37.39 44.518 36.971C45.118 36 42.893 35.158 41.244 35.733ZM43.298 40.667C43.016 41.4 42.657 42 42.5 42C42.343 42 41.984 41.4 41.702 40.667C41.421 39.933 41.78 39.333 42.5 39.333C43.22 39.333 43.579 39.933 43.298 40.667ZM56.607 42.726C55.55 43.783 54.671 43.368 54.426 41.694C54.21 40.226 54.43 40.112 55.604 41.087C56.399 41.746 56.85 42.483 56.607 42.726ZM6 44.441C6 44.684 5.55 45.16 5 45.5C4.45 45.84 4 45.641 4 45.059C4 44.477 4.45 44 5 44C5.55 44 6 44.198 6 44.441ZM22 45.031C22 45.564 22.675 46 23.5 46C24.325 46 25 45.823 25 45.607C25 45.391 24.325 44.955 23.5 44.638C22.675 44.322 22 44.499 22 45.031ZM24.729 54.604C24.397 54.936 23.534 54.972 22.813 54.683C22.015 54.364 22.252 54.127 23.417 54.079C24.471 54.036 25.061 54.272 24.729 54.604Z" fill="black"/>
</g>
<defs>
<clipPath id="clip0_1_336">
<rect width="64" height="64" rx="32" fill="white"/>
</clipPath>
</defs>
</svg>
