<svg width="125" height="125" viewBox="0 0 125 125" fill="none" xmlns="http://www.w3.org/2000/svg">
<g clip-path="url(#clip0_1_346)">
<path fill-rule="evenodd" clip-rule="evenodd" d="M0 62.5V125H62.5H125V62.5V0H62.5H0V62.5Z" fill="white"/>
<path fill-rule="evenodd" clip-rule="evenodd" d="M0 62.5V125H62.5H125V62.5V0H62.5H0V62.5ZM68.118 38.493C70.8255 39.691 73.6565 42.387 75.111 45.153C76.027 46.8955 76.246 48.272 76.406 53.2985C76.577 58.6705 76.483 59.565 75.5665 61.2985C73.676 64.8725 71.123 67.0785 68.125 67.7275C64.973 68.41 66.558 68.9335 71.5005 68.8425L76.501 68.75L76.5005 72.7855C76.5 76.1955 76.287 77.241 75.125 79.5355C74.369 81.0285 73.495 82.2025 73.184 82.1445C72.8725 82.0865 72.6475 82.395 72.684 82.8295C72.787 84.0595 68.317 86.8635 65.2315 87.504C58.884 88.8215 52.6275 85.65 49.4425 79.5C48.4235 77.532 48.2755 76.529 48.2635 71.5C48.2515 66.3445 48.379 65.494 49.5 63.2755C51.031 60.245 53.581 58.146 56.8105 57.2595C59.241 56.592 59.229 56.5895 53.5625 56.5445L47.8745 56.5L48.099 52.375C48.44 46.1115 50.564 42.0925 54.9755 39.362C58.9565 36.8985 63.79 36.5785 68.118 38.493ZM60.3275 47.4145C59.598 48.22 59.5 50.021 59.5 62.587C59.5 75.765 59.5695 76.9075 60.4145 77.6725C61.644 78.785 63.284 78.716 64.5 77.5C65.4525 76.5475 65.5 75.8335 65.5 62.5C65.5 49.1665 65.4525 48.4525 64.5 47.5C63.252 46.252 61.4135 46.2145 60.3275 47.4145Z" fill="#E0E0E0"/>
<path fill-rule="evenodd" clip-rule="evenodd" d="M0 62.5V125H62.5H125V62.5V0H62.5H0V62.5ZM68.376 38.4365C73.901 41.2555 76.393 45.343 76.8455 52.33C77.355 60.1985 74.747 65.489 69.4335 67.3655L66.9285 68.25L71.8395 68.5L76.75 68.75L76.669 72.828C76.5415 79.2755 73.984 83.6825 68.795 86.3945C66.709 87.485 65.574 87.727 62.5 87.7375C58.1205 87.752 55.3 86.6175 52.2575 83.6165C48.9425 80.348 48.25 78.167 48.25 71C48.25 65.049 48.315 64.6505 49.606 62.665C51.296 60.0665 53.8275 58.104 56.611 57.235C58.6965 56.5835 58.615 56.566 53.375 56.5335L48 56.5V53.091C48 51.2155 48.3365 48.5485 48.7475 47.164C49.995 42.964 54.13 39.041 59 37.4375C61.098 36.747 66.1105 37.281 68.376 38.4365ZM61.75 46.8795C59.599 47.32 59.5 48.008 59.5 62.5C59.5 73.346 59.6455 76.508 60.179 77.238C60.958 78.303 63.6995 78.5 64.6415 77.559C65.456 76.7455 65.7965 49.9885 65.011 48.521C64.3395 47.266 63.045 46.6145 61.75 46.8795Z" fill="#BCBCBC"/>
<path fill-rule="evenodd" clip-rule="evenodd" d="M0 62.5V125H62.5H125V62.5V0H62.5H0V62.5ZM67.158 37.796C70.3495 38.8835 74.09 42.3635 75.557 45.6105C76.592 47.9005 76.75 49.011 76.75 54C76.75 58.9395 76.598 60.032 75.671 61.75C74.258 64.368 72.274 66.204 69.5 67.4595L67.25 68.478L72.1945 68.489L77.1385 68.5L76.889 72.879C76.585 78.211 75.1635 81.391 71.734 84.4095C67.222 88.3815 60.812 89.093 55.5155 86.21C52.662 84.657 51.018 82.944 49.3715 79.808C48.4885 78.1265 48.254 76.6725 48.0925 71.8635C47.906 66.333 47.9725 65.8165 49.19 63.3285C50.522 60.605 53.296 58.163 56.25 57.1125C57.508 56.665 56.963 56.5725 52.875 56.5395L48 56.5L48.022 52.625C48.034 50.4935 48.349 47.8945 48.722 46.849C51.451 39.198 59.571 35.211 67.158 37.796ZM60.3275 47.9145C59.6 48.718 59.5 50.4765 59.5 62.447C59.5 70.8785 59.697 76.434 60.0175 77.033C60.611 78.1415 63.423 78.377 64.4 77.4C65.2565 76.5435 65.2565 48.4565 64.4 47.6C63.5035 46.7035 61.267 46.876 60.3275 47.9145Z" fill="#8D8D8D"/>
<path fill-rule="evenodd" clip-rule="evenodd" d="M0 62.5V125H62.5H125V62.5V0H62.5H0V62.5ZM68.847 38.413C71.569 39.813 74.1855 42.537 75.594 45.4365C76.9795 48.288 77.4785 56.2545 76.4925 59.7765C75.7085 62.5765 72.4515 66.336 69.7785 67.526L67.75 68.4295L72.436 68.4645L77.1225 68.5L76.913 72.882C76.757 76.1425 76.403 77.8845 75.531 79.6865C73.1375 84.6305 68.916 87.4945 63.442 87.8875C58.707 88.227 55.486 87.0515 52.229 83.7945C48.7895 80.355 47.9985 77.919 48.0045 70.786C48.009 65.5705 48.095 65.1005 49.489 62.67C51.077 59.9015 53.055 58.2215 55.9425 57.19C57.6465 56.581 57.4715 56.5425 52.875 56.522L48 56.5L48.0005 52.375C48.001 45.4715 50.731 41.032 56.75 38.146C58.869 37.13 59.8215 36.977 63 37.141C65.5545 37.2725 67.4185 37.678 68.847 38.413ZM60.2785 48.1115C59.6215 49.0495 59.5 51.292 59.5 62.5C59.5 77.135 59.6635 78 62.4285 78C64.976 78 65 77.853 65 62.4175C65 48.71 64.9545 48.011 64.033 47.5175C62.494 46.694 61.1185 46.9115 60.2785 48.1115Z" fill="#737373"/>
<path fill-rule="evenodd" clip-rule="evenodd" d="M0 62.5V125H62.5H125V62.5V0H62.5H0V62.5ZM68.913 38.5355C74.6775 41.416 77.0145 45.866 76.978 53.894C76.9445 61.313 75.223 64.8025 70.416 67.1985L67.8035 68.5H72.4615H77.1195L76.902 73.125C76.578 80.036 74.353 83.746 68.9 86.471C61.638 90.1 52.92 87.1765 49.292 79.8965C48.1215 77.5475 48 76.747 48 71.386C48 67.55 48.237 64.902 48.674 63.859C49.7675 61.2505 52.0345 58.9385 54.7295 57.6835L57.25 56.51L52.5 56.5055L47.75 56.5015L47.8805 52.1255C48.04 46.7825 49.426 43.5305 52.815 40.547C55.6425 38.0585 58.329 37.09 62.545 37.0395C65.2715 37.007 66.3705 37.265 68.913 38.5355ZM60.2785 48.1115C59.6215 49.0495 59.5 51.292 59.5 62.5C59.5 73.708 59.6215 75.9505 60.2785 76.8885C61.1185 78.0885 62.494 78.306 64.033 77.4825C64.955 76.989 65 76.289 65 62.5C65 48.711 64.955 48.011 64.033 47.5175C62.494 46.694 61.1185 46.9115 60.2785 48.1115Z" fill="#4F4F4F"/>
<path fill-rule="evenodd" clip-rule="evenodd" d="M0 62.5V125H62.5H125V62.5V0H62.5H0V62.5ZM68.2755 37.983C71.3355 39.3015 73.785 41.726 75.4765 45.111C76.8835 47.9265 77 48.5605 77 53.397C77 56.2775 76.739 59.5055 76.4195 60.571C75.645 63.1565 73.0165 66.139 70.3895 67.413L68.25 68.45L72.75 68.4745L77.25 68.4995L76.9635 73.1245C76.6445 78.278 75.898 80.4425 73.494 83.1805C69.1005 88.1845 61.863 89.6175 55.716 86.7005C53.3975 85.6 50.6995 82.77 49.09 79.75C47.8595 77.442 47.7575 76.789 47.7565 71.25C47.7555 66.0365 47.8985 64.9815 48.848 63.2025C50.0355 60.9785 52.8345 58.281 54.9305 57.3415C56.088 56.8225 55.705 56.732 51.8135 56.6045L47.3765 56.4595L47.593 52.3545C47.751 49.3595 48.152 47.507 49.0765 45.5C52.505 38.0575 60.857 34.788 68.2755 37.983ZM60.8375 47.625C60.061 48.1935 59.9955 49.561 60.117 62.738L60.25 77.2265L61.61 77.7045C62.687 78.083 63.1805 77.9915 63.985 77.2635C64.9585 76.3825 65 75.779 65 62.5C65 49.722 64.9295 48.591 64.0855 47.8275C62.994 46.8395 61.9955 46.7775 60.8375 47.625Z" fill="#1A1A1A"/>
<path fill-rule="evenodd" clip-rule="evenodd" d="M0 62.5V125H62.5H125V62.5V0H62.5H0V62.5ZM66.691 37.207C69.315 37.997 72.93 40.552 74.306 42.5895C74.8035 43.326 75.423 43.7975 75.6825 43.637C75.942 43.477 76.0085 43.5815 75.8305 43.8695C75.6525 44.158 75.886 45.2615 76.35 46.322C76.966 47.7305 77.2005 49.732 77.2195 53.75C77.242 58.561 77.095 59.563 76.045 61.75C75.3845 63.125 74.898 64.475 74.964 64.75C75.0295 65.025 74.9255 65.092 74.732 64.899C74.322 64.489 72.75 65.9285 72.75 66.7135C72.75 67.008 72.4125 67.271 72 67.298C69.6245 67.455 70.2095 67.715 73.5 67.965L77.25 68.25L77.209 72.522C77.1755 75.994 76.9265 77.3205 75.879 79.6085C75.17 81.157 74.7385 82.5895 74.92 82.792C75.1015 82.9945 74.9825 83.007 74.6555 82.8195C74.329 82.6325 73.879 82.7685 73.6555 83.123C73.4325 83.477 72.4625 84.418 71.5 85.214C70.5375 86.01 69.812 86.8665 69.8875 87.1175C69.963 87.369 69.8325 87.4555 69.5975 87.3105C69.363 87.1655 68.084 87.3735 66.756 87.773C63.489 88.7565 60.784 88.6635 57.5 87.456C55.9875 86.9 54.469 86.4195 54.125 86.389C53.7815 86.3585 53.605 86.2285 53.733 86.1005C54.089 85.7445 51.341 83.7265 50.7595 83.9165C50.4795 84.0085 50.411 83.9225 50.6075 83.726C51.1475 83.1855 50.032 81.4215 49.3975 81.8135C49.0695 82.016 48.9865 81.926 49.193 81.592C49.3845 81.2825 49.145 80.2915 48.661 79.3895C47.9575 78.0775 47.786 76.5515 47.8035 71.75C47.8285 64.8015 48.0655 62.485 48.71 62.881C48.963 63.037 49.0275 62.7925 48.853 62.338C48.6575 61.8285 48.7685 61.5575 49.143 61.631C49.477 61.6965 49.719 61.3585 49.6815 60.8805C49.644 60.402 49.7715 60.109 49.9655 60.2285C50.1595 60.3485 50.918 59.89 51.6515 59.21C52.385 58.5295 53.495 57.7685 54.1175 57.5185C54.95 57.184 54.223 57.055 51.375 57.0315L47.5 57L47.503 53.375C47.506 49.072 48.12 46.548 49.905 43.5C50.6295 42.2625 51.1535 41.025 51.0695 40.75C50.9855 40.475 51.0835 40.417 51.2875 40.6205C51.807 41.14 53.0595 40.001 52.667 39.366C52.4835 39.0685 52.5865 38.9945 52.9085 39.1935C53.2185 39.385 54.0345 39.1725 54.7225 38.722C57.9285 36.6215 62.7265 36.014 66.691 37.207ZM60.244 48.625C60.093 49.2435 60.0325 55.9375 60.1095 63.5C60.2395 76.2065 60.316 77.245 61.1195 77.1815C61.598 77.144 61.866 77.3125 61.715 77.5565C61.2675 78.2805 62.69 78.0615 63.8885 77.2215C64.9915 76.4495 65 76.339 64.984 62.8465C64.9665 47.9075 64.8895 47.5 62.0795 47.5C60.876 47.5 60.456 47.7575 60.244 48.625Z" fill="black"/>
</g>
<defs>
<clipPath id="clip0_1_346">
<rect width="125" height="125" rx="62.5" fill="white"/>
</clipPath>
</defs>
</svg>
