<svg width="250" height="250" viewBox="0 0 250 250" fill="none" xmlns="http://www.w3.org/2000/svg">
<path fill-rule="evenodd" clip-rule="evenodd" d="M0 125V250H125H250V125V0H125H0V125Z" fill="white"/>
<path fill-rule="evenodd" clip-rule="evenodd" d="M0 125V250H125H250V125V0H125H0V125ZM136.236 76.986C141.651 79.382 147.313 84.774 150.222 90.306C152.054 93.791 152.492 96.544 152.812 106.597C153.154 117.341 152.966 119.13 151.133 122.597C147.352 129.745 142.246 134.157 136.25 135.455C129.946 136.82 133.116 137.867 143.001 137.685L153.002 137.5L153.001 145.571C153 152.391 152.574 154.482 150.25 159.071C148.738 162.057 146.99 164.405 146.368 164.289C145.745 164.173 145.295 164.79 145.368 165.659C145.574 168.119 136.634 173.727 130.463 175.008C117.768 177.643 105.255 171.3 98.885 159C96.847 155.064 96.551 153.058 96.527 143C96.503 132.689 96.758 130.988 99 126.551C102.062 120.49 107.162 116.292 113.621 114.519C118.482 113.184 118.458 113.179 107.125 113.089L95.749 113L96.198 104.75C96.88 92.223 101.128 84.185 109.951 78.724C117.913 73.797 127.58 73.157 136.236 76.986ZM120.655 94.829C119.196 96.44 119 100.042 119 125.174C119 151.53 119.139 153.815 120.829 155.345C123.288 157.57 126.568 157.432 129 155C130.905 153.095 131 151.667 131 125C131 98.333 130.905 96.905 129 95C126.504 92.504 122.827 92.429 120.655 94.829Z" fill="#E0E0E0"/>
<path fill-rule="evenodd" clip-rule="evenodd" d="M0 125V250H125H250V125V0H125H0V125ZM136.752 76.873C147.802 82.511 152.786 90.686 153.691 104.66C154.71 120.397 149.494 130.978 138.867 134.731L133.857 136.5L143.679 137L153.5 137.5L153.338 145.656C153.083 158.551 147.968 167.365 137.59 172.789C133.418 174.97 131.148 175.454 125 175.475C116.241 175.504 110.6 173.235 104.515 167.233C97.885 160.696 96.5 156.334 96.5 142C96.5 130.098 96.63 129.301 99.212 125.33C102.592 120.133 107.655 116.208 113.222 114.47C117.393 113.167 117.23 113.132 106.75 113.067L96 113V106.182C96 102.431 96.673 97.097 97.495 94.328C99.99 85.928 108.26 78.082 118 74.875C122.196 73.494 132.221 74.562 136.752 76.873ZM123.5 93.759C119.198 94.64 119 96.016 119 125C119 146.692 119.291 153.016 120.358 154.476C121.916 156.606 127.399 157 129.283 155.118C130.912 153.491 131.593 99.977 130.022 97.042C128.679 94.532 126.09 93.229 123.5 93.759Z" fill="#BCBCBC"/>
<path fill-rule="evenodd" clip-rule="evenodd" d="M0 125V250H125H250V125V0H125H0V125ZM134.316 75.592C140.699 77.767 148.18 84.727 151.114 91.221C153.184 95.801 153.5 98.022 153.5 108C153.5 117.879 153.196 120.064 151.342 123.5C148.516 128.736 144.548 132.408 139 134.919L134.5 136.956L144.389 136.978L154.277 137L153.778 145.758C153.17 156.422 150.327 162.782 143.468 168.819C134.444 176.763 121.624 178.186 111.031 172.42C105.324 169.314 102.036 165.888 98.743 159.616C96.977 156.253 96.508 153.345 96.185 143.727C95.812 132.666 95.945 131.633 98.38 126.657C101.044 121.21 106.592 116.326 112.5 114.225C115.016 113.33 113.926 113.145 105.75 113.079L96 113L96.044 105.25C96.068 100.987 96.698 95.789 97.444 93.698C102.902 78.396 119.142 70.422 134.316 75.592ZM120.655 95.829C119.2 97.436 119 100.953 119 124.894C119 141.757 119.394 152.868 120.035 154.066C121.222 156.283 126.846 156.754 128.8 154.8C130.513 153.087 130.513 96.913 128.8 95.2C127.007 93.407 122.534 93.752 120.655 95.829Z" fill="#8D8D8D"/>
<path fill-rule="evenodd" clip-rule="evenodd" d="M0 125V250H125H250V125V0H125H0V125ZM137.694 76.826C143.138 79.626 148.371 85.074 151.188 90.873C153.959 96.576 154.957 112.509 152.985 119.553C151.417 125.153 144.903 132.672 139.557 135.052L135.5 136.859L144.872 136.929L154.245 137L153.826 145.764C153.514 152.285 152.806 155.769 151.062 159.373C146.275 169.261 137.832 174.989 126.884 175.775C117.414 176.454 110.972 174.103 104.458 167.589C97.579 160.71 95.997 155.838 96.009 141.572C96.018 131.141 96.19 130.201 98.978 125.34C102.154 119.803 106.11 116.443 111.885 114.38C115.293 113.162 114.943 113.085 105.75 113.044L96 113L96.001 104.75C96.002 90.943 101.462 82.064 113.5 76.292C117.738 74.26 119.643 73.954 126 74.282C131.109 74.545 134.837 75.356 137.694 76.826ZM120.557 96.223C119.243 98.099 119 102.584 119 125C119 154.27 119.327 156 124.857 156C129.952 156 130 155.706 130 124.835C130 97.42 129.909 96.022 128.066 95.035C124.988 93.388 122.237 93.823 120.557 96.223Z" fill="#737373"/>
<path fill-rule="evenodd" clip-rule="evenodd" d="M0 125V250H125H250V125V0H125H0V125ZM137.826 77.071C149.355 82.832 154.029 91.732 153.956 107.788C153.889 122.626 150.446 129.605 140.832 134.397L135.607 137H144.923H154.239L153.804 146.25C153.156 160.072 148.706 167.492 137.8 172.942C123.276 180.2 105.84 174.353 98.584 159.793C96.243 155.095 96 153.494 96 142.772C96 135.1 96.474 129.804 97.348 127.718C99.535 122.501 104.069 117.877 109.459 115.367L114.5 113.02L105 113.011L95.5 113.003L95.761 104.251C96.08 93.565 98.852 87.061 105.63 81.094C111.285 76.117 116.658 74.18 125.09 74.079C130.543 74.014 132.741 74.53 137.826 77.071ZM120.557 96.223C119.243 98.099 119 102.584 119 125C119 147.416 119.243 151.901 120.557 153.777C122.237 156.177 124.988 156.612 128.066 154.965C129.91 153.978 130 152.578 130 125C130 97.422 129.91 96.022 128.066 95.035C124.988 93.388 122.237 93.823 120.557 96.223Z" fill="#4F4F4F"/>
<path fill-rule="evenodd" clip-rule="evenodd" d="M0 125V250H125H250V125V0H125H0V125ZM136.551 75.966C142.671 78.603 147.57 83.452 150.953 90.222C153.767 95.853 154 97.121 154 106.794C154 112.555 153.478 119.011 152.839 121.142C151.29 126.313 146.033 132.278 140.779 134.826L136.5 136.9L145.5 136.949L154.5 136.999L153.927 146.249C153.289 156.556 151.796 160.885 146.988 166.361C138.201 176.369 123.726 179.235 111.432 173.401C106.795 171.2 101.399 165.54 98.18 159.5C95.719 154.884 95.515 153.578 95.513 142.5C95.511 132.073 95.797 129.963 97.696 126.405C100.071 121.957 105.669 116.562 109.861 114.683C112.176 113.645 111.41 113.464 103.627 113.209L94.753 112.919L95.186 104.709C95.502 98.719 96.304 95.014 98.153 91C105.01 76.115 121.714 69.576 136.551 75.966ZM121.675 95.25C120.122 96.387 119.991 99.122 120.234 125.476L120.5 154.453L123.22 155.409C125.374 156.166 126.361 155.983 127.97 154.527C129.917 152.765 130 151.558 130 125C130 99.444 129.859 97.182 128.171 95.655C125.988 93.679 123.991 93.555 121.675 95.25Z" fill="#1A1A1A"/>
<path fill-rule="evenodd" clip-rule="evenodd" d="M0 125V250H125H250V125V0H125H0V125ZM133.382 74.414C138.63 75.994 145.86 81.104 148.612 85.179C149.607 86.652 150.846 87.595 151.365 87.274C151.884 86.954 152.017 87.163 151.661 87.739C151.305 88.316 151.772 90.523 152.7 92.644C153.932 95.461 154.401 99.464 154.439 107.5C154.484 117.122 154.19 119.126 152.09 123.5C150.769 126.25 149.796 128.95 149.928 129.5C150.059 130.05 149.851 130.184 149.464 129.798C148.644 128.978 145.5 131.857 145.5 133.427C145.5 134.016 144.825 134.542 144 134.596C139.249 134.91 140.419 135.43 147 135.93L154.5 136.5L154.418 145.044C154.351 151.988 153.853 154.641 151.758 159.217C150.34 162.314 149.477 165.179 149.84 165.584C150.203 165.989 149.965 166.014 149.311 165.639C148.658 165.265 147.758 165.537 147.311 166.246C146.865 166.954 144.925 168.836 143 170.428C141.075 172.02 139.624 173.733 139.775 174.235C139.926 174.738 139.665 174.911 139.195 174.621C138.726 174.331 136.168 174.747 133.512 175.546C126.978 177.513 121.568 177.327 115 174.912C111.975 173.8 108.938 172.839 108.25 172.778C107.563 172.717 107.21 172.457 107.466 172.201C108.178 171.489 102.682 167.453 101.519 167.833C100.959 168.017 100.822 167.845 101.215 167.452C102.295 166.371 100.064 162.843 98.795 163.627C98.139 164.032 97.973 163.852 98.386 163.184C98.769 162.565 98.29 160.583 97.322 158.779C95.915 156.155 95.572 153.103 95.607 143.5C95.657 129.603 96.131 124.97 97.42 125.762C97.926 126.074 98.055 125.585 97.706 124.676C97.315 123.657 97.537 123.115 98.286 123.262C98.954 123.393 99.438 122.717 99.363 121.761C99.288 120.804 99.543 120.218 99.931 120.457C100.319 120.697 101.836 119.78 103.303 118.42C104.77 117.059 106.99 115.537 108.235 115.037C109.9 114.368 108.446 114.11 102.75 114.063L95 114L95.006 106.75C95.012 98.144 96.24 93.096 99.81 87C101.259 84.525 102.307 82.05 102.139 81.5C101.971 80.95 102.167 80.834 102.575 81.241C103.614 82.28 106.119 80.002 105.334 78.732C104.967 78.137 105.173 77.989 105.817 78.387C106.437 78.77 108.069 78.345 109.445 77.444C115.857 73.243 125.453 72.028 133.382 74.414ZM120.488 97.25C120.186 98.487 120.065 111.875 120.219 127C120.479 152.413 120.632 154.49 122.239 154.363C123.196 154.288 123.732 154.625 123.43 155.113C122.535 156.561 125.38 156.123 127.777 154.443C129.983 152.899 130 152.678 129.968 125.693C129.933 95.815 129.779 95 124.159 95C121.752 95 120.912 95.515 120.488 97.25Z" fill="black"/>
</svg>
